M48
; DRILL file {KiCad 5.99.0-unknown-df3fabf~86~ubuntu18.04.1} date Fri 25 Oct 2019 07:03:18 PM EDT
; FORMAT={-:-/ absolute / inch / decimal}
; #@! TF.CreationDate,2019-10-25T19:03:18-04:00
; #@! TF.GenerationSoftware,Kicad,Pcbnew,5.99.0-unknown-df3fabf~86~ubuntu18.04.1
; #@! TF.FileFunction,Plated,1,2,PTH
FMAT,2
INCH
T1C0.0118
T2C0.0256
%
G90
G05
T1
X5.1969Y-3.2283
X5.1969Y-4.6457
X5.315Y-3.3465
X5.315Y-3.5433
X5.315Y-3.7402
X5.315Y-3.937
X5.315Y-4.1339
X5.315Y-4.3307
X5.315Y-4.5276
X5.4016Y-3.9291
X5.4252Y-3.9764
X5.5118Y-4.5276
X5.5433Y-3.3386
X5.6024Y-4.1299
X5.6142Y-3.9961
X5.6929Y-4.1772
X5.7402Y-4.3465
X5.7598Y-4.4882
X5.7746Y-4.4537
X5.7835Y-4.1614
X5.8031Y-4.4803
X5.8189Y-4.3514
X5.8228Y-4.1614
X5.8465Y-4.4803
X5.8661Y-3.378
X5.8661Y-4.189
X5.8907Y-3.685
X5.9173Y-3.7126
X5.9961Y-3.4803
X6.0276Y-4.1457
X6.0394Y-3.6693
X6.0394Y-3.7165
X6.0512Y-3.5315
X6.0709Y-3.6299
X6.0945Y-3.5787
X6.1024Y-3.3465
X6.1102Y-3.5315
X6.1378Y-3.6299
X6.1535Y-3.5787
X6.1693Y-3.5315
X6.1969Y-3.626
X6.2047Y-3.7283
X6.2087Y-3.7756
X6.2126Y-3.5787
X6.2283Y-3.5315
X6.2283Y-3.8189
X6.2283Y-4.0236
X6.2559Y-3.626
X6.2677Y-3.7756
X6.2717Y-3.5787
X6.2874Y-3.5315
X6.2874Y-3.8189
X6.2992Y-3.3465
X6.2992Y-3.937
X6.2992Y-4.1339
X6.315Y-3.626
X6.3228Y-3.7283
X6.3268Y-3.7756
X6.3307Y-3.5787
X6.3465Y-3.5315
X6.3465Y-3.8189
X6.374Y-3.626
X6.3819Y-3.7283
X6.3858Y-3.7756
X6.3858Y-4.0236
X6.3898Y-3.5787
X6.4055Y-3.5315
X6.4055Y-3.8189
X6.4331Y-3.626
X6.4449Y-3.7756
X6.4488Y-3.5787
X6.4646Y-3.5315
X6.4646Y-3.8189
X6.4921Y-3.626
X6.4961Y-3.3465
X6.4961Y-3.937
X6.4961Y-4.1339
X6.4961Y-4.3307
X6.4961Y-4.5276
X6.5Y-3.7283
X6.5039Y-3.7756
X6.5079Y-3.5787
X6.5197Y-3.8386
X6.5236Y-3.5118
X6.5709Y-3.8465
X6.5827Y-4.0236
X6.6142Y-3.2283
X6.6142Y-4.6457
T2
X5.2886Y-3.2677
X5.3386Y-3.2677
X5.3886Y-3.2677
X5.4386Y-3.2677
X5.4886Y-3.2677
X5.5386Y-3.2677
X5.5886Y-3.2677
X5.6386Y-3.2677
X5.6886Y-3.2677
X5.7386Y-3.2677
X5.7886Y-3.2677
X5.8386Y-3.2677
X5.8886Y-3.2677
X5.9386Y-3.2677
X5.9886Y-3.2677
X6.0386Y-3.2677
X6.0886Y-3.2677
X6.1386Y-3.2677
X6.1886Y-3.2677
X6.2386Y-3.2677
X6.2886Y-3.2677
X6.3386Y-3.2677
X5.2886Y-4.6063
X5.3386Y-4.6063
X5.3886Y-4.6063
X5.4386Y-4.6063
X5.4886Y-4.6063
X5.5386Y-4.6063
X5.5886Y-4.6063
X5.6386Y-4.6063
X5.6886Y-4.6063
X5.7386Y-4.6063
X5.7886Y-4.6063
X5.8386Y-4.6063
X5.8886Y-4.6063
X5.9386Y-4.6063
X5.9886Y-4.6063
X6.0386Y-4.6063
X6.0886Y-4.6063
X6.1386Y-4.6063
X6.1886Y-4.6063
X6.2386Y-4.6063
X6.2886Y-4.6063
X6.3386Y-4.6063
T0
M30
