G04 #@! TF.GenerationSoftware,KiCad,Pcbnew,5.99.0-unknown-df3fabf~86~ubuntu18.04.1*
G04 #@! TF.CreationDate,2019-10-25T19:03:16-04:00*
G04 #@! TF.ProjectId,bc28_module_board,62633238-5f6d-46f6-9475-6c655f626f61,rev?*
G04 #@! TF.SameCoordinates,Original*
G04 #@! TF.FileFunction,Legend,Bot*
G04 #@! TF.FilePolarity,Positive*
%FSLAX46Y46*%
G04 Gerber Fmt 4.6, Leading zero omitted, Abs format (unit mm)*
G04 Created by KiCad (PCBNEW 5.99.0-unknown-df3fabf~86~ubuntu18.04.1) date 2019-10-25 19:03:16*
%MOMM*%
%LPD*%
G04 APERTURE LIST*
%ADD10C,0.010000*%
G04 APERTURE END LIST*
G36*
X163943011Y-105323941D02*
G01*
X164090216Y-105323638D01*
X164254349Y-105323452D01*
X164436352Y-105323358D01*
X164637165Y-105323329D01*
X164857732Y-105323339D01*
X165098992Y-105323364D01*
X165361889Y-105323378D01*
X165404040Y-105323378D01*
X165664668Y-105323354D01*
X165903796Y-105323315D01*
X166122360Y-105323292D01*
X166321295Y-105323313D01*
X166501535Y-105323407D01*
X166664015Y-105323605D01*
X166809670Y-105323937D01*
X166939434Y-105324431D01*
X167054243Y-105325117D01*
X167155030Y-105326024D01*
X167242730Y-105327183D01*
X167318279Y-105328622D01*
X167382611Y-105330371D01*
X167436661Y-105332460D01*
X167481363Y-105334917D01*
X167517652Y-105337773D01*
X167546463Y-105341057D01*
X167568731Y-105344798D01*
X167585390Y-105349026D01*
X167597375Y-105353771D01*
X167605621Y-105359061D01*
X167611062Y-105364927D01*
X167614634Y-105371398D01*
X167617270Y-105378503D01*
X167619906Y-105386272D01*
X167623477Y-105394734D01*
X167625145Y-105399092D01*
X167627111Y-105407605D01*
X167628911Y-105420306D01*
X167630555Y-105438115D01*
X167632047Y-105461951D01*
X167633397Y-105492734D01*
X167634611Y-105531383D01*
X167635697Y-105578818D01*
X167636661Y-105635957D01*
X167637511Y-105703721D01*
X167638253Y-105783029D01*
X167638897Y-105874801D01*
X167639447Y-105979956D01*
X167639913Y-106099413D01*
X167640300Y-106234092D01*
X167640616Y-106384912D01*
X167640869Y-106552794D01*
X167641066Y-106738655D01*
X167641213Y-106943417D01*
X167641318Y-107167998D01*
X167641389Y-107413318D01*
X167641432Y-107680296D01*
X167641437Y-107718679D01*
X167641480Y-107984078D01*
X167641525Y-108227950D01*
X167641548Y-108451217D01*
X167641524Y-108654804D01*
X167641430Y-108839633D01*
X167641243Y-109006627D01*
X167640939Y-109156710D01*
X167640494Y-109290804D01*
X167639885Y-109409834D01*
X167639089Y-109514721D01*
X167638080Y-109606390D01*
X167636837Y-109685763D01*
X167635335Y-109753763D01*
X167633551Y-109811314D01*
X167631461Y-109859338D01*
X167629042Y-109898760D01*
X167626270Y-109930501D01*
X167623121Y-109955486D01*
X167619572Y-109974636D01*
X167615598Y-109988877D01*
X167611178Y-109999129D01*
X167606286Y-110006318D01*
X167600900Y-110011365D01*
X167594996Y-110015195D01*
X167588549Y-110018729D01*
X167581537Y-110022892D01*
X167579687Y-110023975D01*
X167574180Y-110026187D01*
X167565868Y-110028214D01*
X167553809Y-110030062D01*
X167537063Y-110031739D01*
X167514687Y-110033255D01*
X167485740Y-110034617D01*
X167449280Y-110035833D01*
X167404367Y-110036911D01*
X167350057Y-110037860D01*
X167285410Y-110038688D01*
X167209484Y-110039403D01*
X167121338Y-110040013D01*
X167020029Y-110040526D01*
X166904617Y-110040950D01*
X166774160Y-110041294D01*
X166627716Y-110041566D01*
X166464344Y-110041773D01*
X166283101Y-110041924D01*
X166083048Y-110042028D01*
X165863241Y-110042092D01*
X165622739Y-110042124D01*
X165360602Y-110042133D01*
X163169031Y-110042133D01*
X163130649Y-110003751D01*
X163106911Y-109976645D01*
X163095111Y-109949747D01*
X163092267Y-109913440D01*
X163092267Y-109861511D01*
X163180206Y-109861511D01*
X163230102Y-109859573D01*
X163340523Y-109840801D01*
X163441987Y-109803783D01*
X163533152Y-109750631D01*
X163612673Y-109683454D01*
X163679205Y-109604362D01*
X163731406Y-109515466D01*
X163767930Y-109418875D01*
X163787434Y-109316700D01*
X163788561Y-109212147D01*
X164604978Y-109212147D01*
X164604978Y-109657805D01*
X165781845Y-109660880D01*
X166958711Y-109663955D01*
X167017622Y-109690593D01*
X167042183Y-109702515D01*
X167072434Y-109719754D01*
X167089560Y-109732926D01*
X167097591Y-109740924D01*
X167112493Y-109748622D01*
X167113765Y-109744740D01*
X167115791Y-109721480D01*
X167117626Y-109679126D01*
X167119227Y-109619868D01*
X167120549Y-109545893D01*
X167121548Y-109459390D01*
X167122180Y-109362548D01*
X167122400Y-109257555D01*
X167122349Y-109188644D01*
X167122091Y-109090393D01*
X167121637Y-109000970D01*
X167121010Y-108922667D01*
X167120235Y-108857777D01*
X167119335Y-108808589D01*
X167118334Y-108777396D01*
X167117257Y-108766489D01*
X167114037Y-108767678D01*
X167096452Y-108777824D01*
X167070158Y-108794960D01*
X167057691Y-108803460D01*
X167043622Y-108812671D01*
X167029351Y-108820767D01*
X167013479Y-108827815D01*
X166994609Y-108833883D01*
X166971341Y-108839039D01*
X166942278Y-108843349D01*
X166906021Y-108846881D01*
X166861170Y-108849703D01*
X166806328Y-108851882D01*
X166740097Y-108853486D01*
X166661077Y-108854581D01*
X166567871Y-108855235D01*
X166459079Y-108855516D01*
X166333303Y-108855491D01*
X166189145Y-108855228D01*
X166025207Y-108854794D01*
X165840089Y-108854255D01*
X165661232Y-108853721D01*
X165502374Y-108853195D01*
X165363316Y-108852650D01*
X165242665Y-108852055D01*
X165139028Y-108851381D01*
X165051011Y-108850597D01*
X164977223Y-108849674D01*
X164916269Y-108848581D01*
X164866757Y-108847288D01*
X164827293Y-108845765D01*
X164796484Y-108843981D01*
X164772938Y-108841908D01*
X164755260Y-108839514D01*
X164742059Y-108836770D01*
X164731940Y-108833644D01*
X164723511Y-108830108D01*
X164715375Y-108826209D01*
X164678544Y-108806562D01*
X164648391Y-108787775D01*
X164646908Y-108786728D01*
X164624659Y-108772398D01*
X164611702Y-108766489D01*
X164611249Y-108767496D01*
X164609803Y-108784695D01*
X164608480Y-108821344D01*
X164607316Y-108875038D01*
X164606347Y-108943370D01*
X164605611Y-109023936D01*
X164605142Y-109114330D01*
X164604978Y-109212147D01*
X163788561Y-109212147D01*
X163788573Y-109211050D01*
X163770005Y-109104036D01*
X163730384Y-108997768D01*
X163672516Y-108900781D01*
X163597684Y-108815707D01*
X163509615Y-108746985D01*
X163410616Y-108696082D01*
X163302993Y-108664465D01*
X163189054Y-108653600D01*
X163092267Y-108653600D01*
X163092267Y-107033247D01*
X163092280Y-106822103D01*
X163092330Y-106617980D01*
X163092430Y-106434314D01*
X163092592Y-106270009D01*
X163092829Y-106123971D01*
X163093153Y-105995106D01*
X163093575Y-105882317D01*
X163094109Y-105784512D01*
X163094767Y-105700596D01*
X163095561Y-105629473D01*
X163095587Y-105627803D01*
X163701867Y-105627803D01*
X163701867Y-106687686D01*
X163764966Y-106649689D01*
X163790005Y-106635007D01*
X163817586Y-106620469D01*
X163845700Y-106608373D01*
X163876551Y-106598468D01*
X163912344Y-106590506D01*
X163955283Y-106584239D01*
X164007574Y-106579418D01*
X164071419Y-106575794D01*
X164149025Y-106573119D01*
X164242594Y-106571143D01*
X164354333Y-106569618D01*
X164486445Y-106568296D01*
X164606434Y-106567387D01*
X164723063Y-106566980D01*
X164818531Y-106567233D01*
X164892556Y-106568143D01*
X164944855Y-106569707D01*
X164975149Y-106571921D01*
X164983156Y-106574780D01*
X164979858Y-106577839D01*
X164958408Y-106595994D01*
X164921889Y-106625725D01*
X164872442Y-106665361D01*
X164812207Y-106713229D01*
X164743327Y-106767657D01*
X164667943Y-106826973D01*
X164588196Y-106889505D01*
X164506228Y-106953579D01*
X164424180Y-107017525D01*
X164344194Y-107079669D01*
X164268411Y-107138339D01*
X164198973Y-107191863D01*
X164138021Y-107238570D01*
X164087696Y-107276786D01*
X164050140Y-107304839D01*
X164027495Y-107321057D01*
X163955212Y-107366365D01*
X163875463Y-107406339D01*
X163807188Y-107427870D01*
X163749844Y-107431173D01*
X163701867Y-107425884D01*
X163702117Y-108557644D01*
X163732722Y-108518133D01*
X163740089Y-108508752D01*
X163794438Y-108445817D01*
X163862259Y-108377003D01*
X163945516Y-108300404D01*
X164046178Y-108214112D01*
X164066847Y-108196948D01*
X164116409Y-108156167D01*
X164177326Y-108106412D01*
X164247898Y-108049045D01*
X164326424Y-107985431D01*
X164411204Y-107916931D01*
X164500537Y-107844910D01*
X164592722Y-107770730D01*
X164611702Y-107755483D01*
X164686060Y-107695754D01*
X164778848Y-107621347D01*
X164869388Y-107548869D01*
X164955978Y-107479686D01*
X165036918Y-107415159D01*
X165110506Y-107356653D01*
X165175044Y-107305530D01*
X165228829Y-107263153D01*
X165270162Y-107230885D01*
X165297342Y-107210090D01*
X165308668Y-107202131D01*
X165312771Y-107203889D01*
X165333334Y-107216770D01*
X165369561Y-107241115D01*
X165419824Y-107275753D01*
X165482492Y-107319514D01*
X165555936Y-107371225D01*
X165638527Y-107429716D01*
X165728636Y-107493816D01*
X165824631Y-107562354D01*
X165924885Y-107634157D01*
X166027768Y-107708056D01*
X166131650Y-107782879D01*
X166234901Y-107857455D01*
X166335892Y-107930613D01*
X166432994Y-108001181D01*
X166524577Y-108067989D01*
X166609011Y-108129865D01*
X166684667Y-108185639D01*
X166749916Y-108234138D01*
X166803128Y-108274193D01*
X166842673Y-108304631D01*
X166868026Y-108325056D01*
X166922295Y-108371101D01*
X166978775Y-108421388D01*
X167028669Y-108468185D01*
X167122400Y-108559349D01*
X167122400Y-107404910D01*
X167046200Y-107405544D01*
X167004160Y-107404426D01*
X166968334Y-107398696D01*
X166930772Y-107386110D01*
X166882577Y-107364432D01*
X166875897Y-107361211D01*
X166826359Y-107335812D01*
X166778369Y-107309004D01*
X166741466Y-107286083D01*
X166734834Y-107281515D01*
X166703593Y-107259484D01*
X166658654Y-107227307D01*
X166602147Y-107186543D01*
X166536204Y-107138755D01*
X166462957Y-107085502D01*
X166384536Y-107028345D01*
X166303072Y-106968845D01*
X166220698Y-106908563D01*
X166139544Y-106849060D01*
X166061742Y-106791895D01*
X165989423Y-106738630D01*
X165924718Y-106690826D01*
X165869759Y-106650043D01*
X165826676Y-106617842D01*
X165797602Y-106595784D01*
X165784667Y-106585429D01*
X165780351Y-106580956D01*
X165778312Y-106576764D01*
X165780926Y-106573357D01*
X165789986Y-106570675D01*
X165807285Y-106568659D01*
X165834614Y-106567252D01*
X165873765Y-106566395D01*
X165926533Y-106566030D01*
X165994707Y-106566097D01*
X166080082Y-106566540D01*
X166184449Y-106567298D01*
X166309600Y-106568315D01*
X166354300Y-106568692D01*
X166475395Y-106569831D01*
X166576688Y-106571028D01*
X166660262Y-106572364D01*
X166728204Y-106573923D01*
X166782599Y-106575785D01*
X166825532Y-106578034D01*
X166859089Y-106580752D01*
X166885355Y-106584021D01*
X166906416Y-106587922D01*
X166924357Y-106592539D01*
X166950770Y-106600808D01*
X167012772Y-106624417D01*
X167065573Y-106650315D01*
X167102645Y-106675465D01*
X167104075Y-106676661D01*
X167108424Y-106678832D01*
X167112026Y-106676672D01*
X167114951Y-106668356D01*
X167117269Y-106652060D01*
X167119051Y-106625959D01*
X167120367Y-106588229D01*
X167121286Y-106537044D01*
X167121878Y-106470580D01*
X167122215Y-106387013D01*
X167122365Y-106284517D01*
X167122400Y-106161268D01*
X167122400Y-105629704D01*
X167064783Y-105668477D01*
X167055893Y-105674568D01*
X167041069Y-105685024D01*
X167027422Y-105694421D01*
X167013765Y-105702817D01*
X166998911Y-105710267D01*
X166981670Y-105716827D01*
X166960855Y-105722554D01*
X166935280Y-105727505D01*
X166903755Y-105731734D01*
X166865093Y-105735299D01*
X166818107Y-105738256D01*
X166761608Y-105740660D01*
X166694409Y-105742569D01*
X166615322Y-105744038D01*
X166523160Y-105745124D01*
X166416734Y-105745882D01*
X166294857Y-105746370D01*
X166156341Y-105746642D01*
X165999999Y-105746757D01*
X165824642Y-105746769D01*
X165629082Y-105746735D01*
X165412133Y-105746711D01*
X165289513Y-105746720D01*
X165084447Y-105746757D01*
X164900116Y-105746773D01*
X164735334Y-105746712D01*
X164588916Y-105746516D01*
X164459674Y-105746130D01*
X164346422Y-105745495D01*
X164247975Y-105744556D01*
X164163144Y-105743255D01*
X164090744Y-105741536D01*
X164029589Y-105739341D01*
X163978492Y-105736615D01*
X163936267Y-105733299D01*
X163901727Y-105729338D01*
X163873686Y-105724675D01*
X163850958Y-105719253D01*
X163832356Y-105713014D01*
X163816693Y-105705903D01*
X163802784Y-105697862D01*
X163789441Y-105688834D01*
X163775479Y-105678764D01*
X163759711Y-105667593D01*
X163701867Y-105627803D01*
X163095587Y-105627803D01*
X163096504Y-105570050D01*
X163097608Y-105521232D01*
X163098884Y-105481923D01*
X163100347Y-105451031D01*
X163102007Y-105427459D01*
X163103878Y-105410114D01*
X163105972Y-105397901D01*
X163108300Y-105389725D01*
X163110876Y-105384492D01*
X163114445Y-105378496D01*
X163117978Y-105371721D01*
X163121488Y-105365522D01*
X163125918Y-105359874D01*
X163132208Y-105354753D01*
X163141301Y-105350131D01*
X163154139Y-105345985D01*
X163171662Y-105342287D01*
X163194813Y-105339013D01*
X163224534Y-105336137D01*
X163261765Y-105333633D01*
X163307449Y-105331476D01*
X163362527Y-105329640D01*
X163427941Y-105328100D01*
X163504633Y-105326830D01*
X163593544Y-105325805D01*
X163695617Y-105324999D01*
X163701867Y-105324966D01*
X163811792Y-105324386D01*
X163943011Y-105323941D01*
G37*
D10*
X163943011Y-105323941D02*
X164090216Y-105323638D01*
X164254349Y-105323452D01*
X164436352Y-105323358D01*
X164637165Y-105323329D01*
X164857732Y-105323339D01*
X165098992Y-105323364D01*
X165361889Y-105323378D01*
X165404040Y-105323378D01*
X165664668Y-105323354D01*
X165903796Y-105323315D01*
X166122360Y-105323292D01*
X166321295Y-105323313D01*
X166501535Y-105323407D01*
X166664015Y-105323605D01*
X166809670Y-105323937D01*
X166939434Y-105324431D01*
X167054243Y-105325117D01*
X167155030Y-105326024D01*
X167242730Y-105327183D01*
X167318279Y-105328622D01*
X167382611Y-105330371D01*
X167436661Y-105332460D01*
X167481363Y-105334917D01*
X167517652Y-105337773D01*
X167546463Y-105341057D01*
X167568731Y-105344798D01*
X167585390Y-105349026D01*
X167597375Y-105353771D01*
X167605621Y-105359061D01*
X167611062Y-105364927D01*
X167614634Y-105371398D01*
X167617270Y-105378503D01*
X167619906Y-105386272D01*
X167623477Y-105394734D01*
X167625145Y-105399092D01*
X167627111Y-105407605D01*
X167628911Y-105420306D01*
X167630555Y-105438115D01*
X167632047Y-105461951D01*
X167633397Y-105492734D01*
X167634611Y-105531383D01*
X167635697Y-105578818D01*
X167636661Y-105635957D01*
X167637511Y-105703721D01*
X167638253Y-105783029D01*
X167638897Y-105874801D01*
X167639447Y-105979956D01*
X167639913Y-106099413D01*
X167640300Y-106234092D01*
X167640616Y-106384912D01*
X167640869Y-106552794D01*
X167641066Y-106738655D01*
X167641213Y-106943417D01*
X167641318Y-107167998D01*
X167641389Y-107413318D01*
X167641432Y-107680296D01*
X167641437Y-107718679D01*
X167641480Y-107984078D01*
X167641525Y-108227950D01*
X167641548Y-108451217D01*
X167641524Y-108654804D01*
X167641430Y-108839633D01*
X167641243Y-109006627D01*
X167640939Y-109156710D01*
X167640494Y-109290804D01*
X167639885Y-109409834D01*
X167639089Y-109514721D01*
X167638080Y-109606390D01*
X167636837Y-109685763D01*
X167635335Y-109753763D01*
X167633551Y-109811314D01*
X167631461Y-109859338D01*
X167629042Y-109898760D01*
X167626270Y-109930501D01*
X167623121Y-109955486D01*
X167619572Y-109974636D01*
X167615598Y-109988877D01*
X167611178Y-109999129D01*
X167606286Y-110006318D01*
X167600900Y-110011365D01*
X167594996Y-110015195D01*
X167588549Y-110018729D01*
X167581537Y-110022892D01*
X167579687Y-110023975D01*
X167574180Y-110026187D01*
X167565868Y-110028214D01*
X167553809Y-110030062D01*
X167537063Y-110031739D01*
X167514687Y-110033255D01*
X167485740Y-110034617D01*
X167449280Y-110035833D01*
X167404367Y-110036911D01*
X167350057Y-110037860D01*
X167285410Y-110038688D01*
X167209484Y-110039403D01*
X167121338Y-110040013D01*
X167020029Y-110040526D01*
X166904617Y-110040950D01*
X166774160Y-110041294D01*
X166627716Y-110041566D01*
X166464344Y-110041773D01*
X166283101Y-110041924D01*
X166083048Y-110042028D01*
X165863241Y-110042092D01*
X165622739Y-110042124D01*
X165360602Y-110042133D01*
X163169031Y-110042133D01*
X163130649Y-110003751D01*
X163106911Y-109976645D01*
X163095111Y-109949747D01*
X163092267Y-109913440D01*
X163092267Y-109861511D01*
X163180206Y-109861511D01*
X163230102Y-109859573D01*
X163340523Y-109840801D01*
X163441987Y-109803783D01*
X163533152Y-109750631D01*
X163612673Y-109683454D01*
X163679205Y-109604362D01*
X163731406Y-109515466D01*
X163767930Y-109418875D01*
X163787434Y-109316700D01*
X163788561Y-109212147D01*
X164604978Y-109212147D01*
X164604978Y-109657805D01*
X165781845Y-109660880D01*
X166958711Y-109663955D01*
X167017622Y-109690593D01*
X167042183Y-109702515D01*
X167072434Y-109719754D01*
X167089560Y-109732926D01*
X167097591Y-109740924D01*
X167112493Y-109748622D01*
X167113765Y-109744740D01*
X167115791Y-109721480D01*
X167117626Y-109679126D01*
X167119227Y-109619868D01*
X167120549Y-109545893D01*
X167121548Y-109459390D01*
X167122180Y-109362548D01*
X167122400Y-109257555D01*
X167122349Y-109188644D01*
X167122091Y-109090393D01*
X167121637Y-109000970D01*
X167121010Y-108922667D01*
X167120235Y-108857777D01*
X167119335Y-108808589D01*
X167118334Y-108777396D01*
X167117257Y-108766489D01*
X167114037Y-108767678D01*
X167096452Y-108777824D01*
X167070158Y-108794960D01*
X167057691Y-108803460D01*
X167043622Y-108812671D01*
X167029351Y-108820767D01*
X167013479Y-108827815D01*
X166994609Y-108833883D01*
X166971341Y-108839039D01*
X166942278Y-108843349D01*
X166906021Y-108846881D01*
X166861170Y-108849703D01*
X166806328Y-108851882D01*
X166740097Y-108853486D01*
X166661077Y-108854581D01*
X166567871Y-108855235D01*
X166459079Y-108855516D01*
X166333303Y-108855491D01*
X166189145Y-108855228D01*
X166025207Y-108854794D01*
X165840089Y-108854255D01*
X165661232Y-108853721D01*
X165502374Y-108853195D01*
X165363316Y-108852650D01*
X165242665Y-108852055D01*
X165139028Y-108851381D01*
X165051011Y-108850597D01*
X164977223Y-108849674D01*
X164916269Y-108848581D01*
X164866757Y-108847288D01*
X164827293Y-108845765D01*
X164796484Y-108843981D01*
X164772938Y-108841908D01*
X164755260Y-108839514D01*
X164742059Y-108836770D01*
X164731940Y-108833644D01*
X164723511Y-108830108D01*
X164715375Y-108826209D01*
X164678544Y-108806562D01*
X164648391Y-108787775D01*
X164646908Y-108786728D01*
X164624659Y-108772398D01*
X164611702Y-108766489D01*
X164611249Y-108767496D01*
X164609803Y-108784695D01*
X164608480Y-108821344D01*
X164607316Y-108875038D01*
X164606347Y-108943370D01*
X164605611Y-109023936D01*
X164605142Y-109114330D01*
X164604978Y-109212147D01*
X163788561Y-109212147D01*
X163788573Y-109211050D01*
X163770005Y-109104036D01*
X163730384Y-108997768D01*
X163672516Y-108900781D01*
X163597684Y-108815707D01*
X163509615Y-108746985D01*
X163410616Y-108696082D01*
X163302993Y-108664465D01*
X163189054Y-108653600D01*
X163092267Y-108653600D01*
X163092267Y-107033247D01*
X163092280Y-106822103D01*
X163092330Y-106617980D01*
X163092430Y-106434314D01*
X163092592Y-106270009D01*
X163092829Y-106123971D01*
X163093153Y-105995106D01*
X163093575Y-105882317D01*
X163094109Y-105784512D01*
X163094767Y-105700596D01*
X163095561Y-105629473D01*
X163095587Y-105627803D01*
X163701867Y-105627803D01*
X163701867Y-106687686D01*
X163764966Y-106649689D01*
X163790005Y-106635007D01*
X163817586Y-106620469D01*
X163845700Y-106608373D01*
X163876551Y-106598468D01*
X163912344Y-106590506D01*
X163955283Y-106584239D01*
X164007574Y-106579418D01*
X164071419Y-106575794D01*
X164149025Y-106573119D01*
X164242594Y-106571143D01*
X164354333Y-106569618D01*
X164486445Y-106568296D01*
X164606434Y-106567387D01*
X164723063Y-106566980D01*
X164818531Y-106567233D01*
X164892556Y-106568143D01*
X164944855Y-106569707D01*
X164975149Y-106571921D01*
X164983156Y-106574780D01*
X164979858Y-106577839D01*
X164958408Y-106595994D01*
X164921889Y-106625725D01*
X164872442Y-106665361D01*
X164812207Y-106713229D01*
X164743327Y-106767657D01*
X164667943Y-106826973D01*
X164588196Y-106889505D01*
X164506228Y-106953579D01*
X164424180Y-107017525D01*
X164344194Y-107079669D01*
X164268411Y-107138339D01*
X164198973Y-107191863D01*
X164138021Y-107238570D01*
X164087696Y-107276786D01*
X164050140Y-107304839D01*
X164027495Y-107321057D01*
X163955212Y-107366365D01*
X163875463Y-107406339D01*
X163807188Y-107427870D01*
X163749844Y-107431173D01*
X163701867Y-107425884D01*
X163702117Y-108557644D01*
X163732722Y-108518133D01*
X163740089Y-108508752D01*
X163794438Y-108445817D01*
X163862259Y-108377003D01*
X163945516Y-108300404D01*
X164046178Y-108214112D01*
X164066847Y-108196948D01*
X164116409Y-108156167D01*
X164177326Y-108106412D01*
X164247898Y-108049045D01*
X164326424Y-107985431D01*
X164411204Y-107916931D01*
X164500537Y-107844910D01*
X164592722Y-107770730D01*
X164611702Y-107755483D01*
X164686060Y-107695754D01*
X164778848Y-107621347D01*
X164869388Y-107548869D01*
X164955978Y-107479686D01*
X165036918Y-107415159D01*
X165110506Y-107356653D01*
X165175044Y-107305530D01*
X165228829Y-107263153D01*
X165270162Y-107230885D01*
X165297342Y-107210090D01*
X165308668Y-107202131D01*
X165312771Y-107203889D01*
X165333334Y-107216770D01*
X165369561Y-107241115D01*
X165419824Y-107275753D01*
X165482492Y-107319514D01*
X165555936Y-107371225D01*
X165638527Y-107429716D01*
X165728636Y-107493816D01*
X165824631Y-107562354D01*
X165924885Y-107634157D01*
X166027768Y-107708056D01*
X166131650Y-107782879D01*
X166234901Y-107857455D01*
X166335892Y-107930613D01*
X166432994Y-108001181D01*
X166524577Y-108067989D01*
X166609011Y-108129865D01*
X166684667Y-108185639D01*
X166749916Y-108234138D01*
X166803128Y-108274193D01*
X166842673Y-108304631D01*
X166868026Y-108325056D01*
X166922295Y-108371101D01*
X166978775Y-108421388D01*
X167028669Y-108468185D01*
X167122400Y-108559349D01*
X167122400Y-107404910D01*
X167046200Y-107405544D01*
X167004160Y-107404426D01*
X166968334Y-107398696D01*
X166930772Y-107386110D01*
X166882577Y-107364432D01*
X166875897Y-107361211D01*
X166826359Y-107335812D01*
X166778369Y-107309004D01*
X166741466Y-107286083D01*
X166734834Y-107281515D01*
X166703593Y-107259484D01*
X166658654Y-107227307D01*
X166602147Y-107186543D01*
X166536204Y-107138755D01*
X166462957Y-107085502D01*
X166384536Y-107028345D01*
X166303072Y-106968845D01*
X166220698Y-106908563D01*
X166139544Y-106849060D01*
X166061742Y-106791895D01*
X165989423Y-106738630D01*
X165924718Y-106690826D01*
X165869759Y-106650043D01*
X165826676Y-106617842D01*
X165797602Y-106595784D01*
X165784667Y-106585429D01*
X165780351Y-106580956D01*
X165778312Y-106576764D01*
X165780926Y-106573357D01*
X165789986Y-106570675D01*
X165807285Y-106568659D01*
X165834614Y-106567252D01*
X165873765Y-106566395D01*
X165926533Y-106566030D01*
X165994707Y-106566097D01*
X166080082Y-106566540D01*
X166184449Y-106567298D01*
X166309600Y-106568315D01*
X166354300Y-106568692D01*
X166475395Y-106569831D01*
X166576688Y-106571028D01*
X166660262Y-106572364D01*
X166728204Y-106573923D01*
X166782599Y-106575785D01*
X166825532Y-106578034D01*
X166859089Y-106580752D01*
X166885355Y-106584021D01*
X166906416Y-106587922D01*
X166924357Y-106592539D01*
X166950770Y-106600808D01*
X167012772Y-106624417D01*
X167065573Y-106650315D01*
X167102645Y-106675465D01*
X167104075Y-106676661D01*
X167108424Y-106678832D01*
X167112026Y-106676672D01*
X167114951Y-106668356D01*
X167117269Y-106652060D01*
X167119051Y-106625959D01*
X167120367Y-106588229D01*
X167121286Y-106537044D01*
X167121878Y-106470580D01*
X167122215Y-106387013D01*
X167122365Y-106284517D01*
X167122400Y-106161268D01*
X167122400Y-105629704D01*
X167064783Y-105668477D01*
X167055893Y-105674568D01*
X167041069Y-105685024D01*
X167027422Y-105694421D01*
X167013765Y-105702817D01*
X166998911Y-105710267D01*
X166981670Y-105716827D01*
X166960855Y-105722554D01*
X166935280Y-105727505D01*
X166903755Y-105731734D01*
X166865093Y-105735299D01*
X166818107Y-105738256D01*
X166761608Y-105740660D01*
X166694409Y-105742569D01*
X166615322Y-105744038D01*
X166523160Y-105745124D01*
X166416734Y-105745882D01*
X166294857Y-105746370D01*
X166156341Y-105746642D01*
X165999999Y-105746757D01*
X165824642Y-105746769D01*
X165629082Y-105746735D01*
X165412133Y-105746711D01*
X165289513Y-105746720D01*
X165084447Y-105746757D01*
X164900116Y-105746773D01*
X164735334Y-105746712D01*
X164588916Y-105746516D01*
X164459674Y-105746130D01*
X164346422Y-105745495D01*
X164247975Y-105744556D01*
X164163144Y-105743255D01*
X164090744Y-105741536D01*
X164029589Y-105739341D01*
X163978492Y-105736615D01*
X163936267Y-105733299D01*
X163901727Y-105729338D01*
X163873686Y-105724675D01*
X163850958Y-105719253D01*
X163832356Y-105713014D01*
X163816693Y-105705903D01*
X163802784Y-105697862D01*
X163789441Y-105688834D01*
X163775479Y-105678764D01*
X163759711Y-105667593D01*
X163701867Y-105627803D01*
X163095587Y-105627803D01*
X163096504Y-105570050D01*
X163097608Y-105521232D01*
X163098884Y-105481923D01*
X163100347Y-105451031D01*
X163102007Y-105427459D01*
X163103878Y-105410114D01*
X163105972Y-105397901D01*
X163108300Y-105389725D01*
X163110876Y-105384492D01*
X163114445Y-105378496D01*
X163117978Y-105371721D01*
X163121488Y-105365522D01*
X163125918Y-105359874D01*
X163132208Y-105354753D01*
X163141301Y-105350131D01*
X163154139Y-105345985D01*
X163171662Y-105342287D01*
X163194813Y-105339013D01*
X163224534Y-105336137D01*
X163261765Y-105333633D01*
X163307449Y-105331476D01*
X163362527Y-105329640D01*
X163427941Y-105328100D01*
X163504633Y-105326830D01*
X163593544Y-105325805D01*
X163695617Y-105324999D01*
X163701867Y-105324966D01*
X163811792Y-105324386D01*
X163943011Y-105323941D01*
G36*
X165521325Y-110282449D02*
G01*
X165722581Y-110299209D01*
X165917128Y-110332708D01*
X166100756Y-110382956D01*
X166218053Y-110426810D01*
X166380951Y-110504652D01*
X166534866Y-110598172D01*
X166676671Y-110705178D01*
X166803239Y-110823481D01*
X166911441Y-110950889D01*
X166964120Y-111028394D01*
X167033750Y-111155275D01*
X167092468Y-111292757D01*
X167137587Y-111434284D01*
X167166422Y-111573298D01*
X167168106Y-111587403D01*
X167171434Y-111630847D01*
X167174275Y-111688277D01*
X167176373Y-111753878D01*
X167177468Y-111821833D01*
X167175140Y-111948622D01*
X167162136Y-112096327D01*
X167137133Y-112234221D01*
X167099318Y-112367986D01*
X167090889Y-112391438D01*
X167071408Y-112439388D01*
X167046473Y-112495860D01*
X167017722Y-112557621D01*
X166986790Y-112621437D01*
X166955315Y-112684074D01*
X166924934Y-112742297D01*
X166897283Y-112792873D01*
X166873999Y-112832567D01*
X166856718Y-112858146D01*
X166847079Y-112866375D01*
X166843984Y-112864924D01*
X166824079Y-112853750D01*
X166788420Y-112832866D01*
X166739459Y-112803735D01*
X166679646Y-112767819D01*
X166611433Y-112726580D01*
X166537271Y-112681483D01*
X166240008Y-112500215D01*
X166284539Y-112453685D01*
X166362865Y-112362277D01*
X166437439Y-112248666D01*
X166491474Y-112130878D01*
X166524290Y-112010441D01*
X166535211Y-111888883D01*
X166533868Y-111847415D01*
X166515612Y-111729920D01*
X166476617Y-111619911D01*
X166417670Y-111518570D01*
X166339557Y-111427079D01*
X166243064Y-111346620D01*
X166128978Y-111278373D01*
X166094724Y-111262092D01*
X165971240Y-111216018D01*
X165832918Y-111180894D01*
X165683561Y-111156803D01*
X165526973Y-111143827D01*
X165366956Y-111142051D01*
X165207314Y-111151557D01*
X165051850Y-111172428D01*
X164904366Y-111204748D01*
X164768667Y-111248601D01*
X164682076Y-111286018D01*
X164568688Y-111350815D01*
X164475070Y-111426228D01*
X164400959Y-111512582D01*
X164346094Y-111610205D01*
X164310212Y-111719423D01*
X164293051Y-111840561D01*
X164291880Y-111909962D01*
X164306141Y-112032832D01*
X164341241Y-112148336D01*
X164396682Y-112255047D01*
X164471964Y-112351536D01*
X164486440Y-112367280D01*
X164512962Y-112397850D01*
X164530138Y-112420191D01*
X164534787Y-112430309D01*
X164532597Y-112432294D01*
X164513721Y-112446759D01*
X164480397Y-112470600D01*
X164435380Y-112501971D01*
X164381425Y-112539026D01*
X164321285Y-112579917D01*
X164257718Y-112622798D01*
X164193476Y-112665822D01*
X164131315Y-112707143D01*
X164073991Y-112744914D01*
X164024257Y-112777288D01*
X163984868Y-112802418D01*
X163958580Y-112818458D01*
X163948147Y-112823561D01*
X163943941Y-112818950D01*
X163938933Y-112799733D01*
X163936386Y-112790162D01*
X163925249Y-112762191D01*
X163906802Y-112720552D01*
X163882725Y-112669005D01*
X163854699Y-112611310D01*
X163849154Y-112600043D01*
X163769889Y-112422313D01*
X163710385Y-112252510D01*
X163670245Y-112088570D01*
X163649071Y-111928429D01*
X163646466Y-111770023D01*
X163662033Y-111611289D01*
X163679523Y-111515732D01*
X163724564Y-111351442D01*
X163787656Y-111197411D01*
X163869915Y-111051491D01*
X163972457Y-110911534D01*
X164096399Y-110775392D01*
X164141661Y-110731527D01*
X164273865Y-110619242D01*
X164411832Y-110526028D01*
X164559750Y-110449281D01*
X164721803Y-110386397D01*
X164733391Y-110382580D01*
X164919392Y-110332493D01*
X165115521Y-110299101D01*
X165317568Y-110282416D01*
X165521325Y-110282449D01*
G37*
X165521325Y-110282449D02*
X165722581Y-110299209D01*
X165917128Y-110332708D01*
X166100756Y-110382956D01*
X166218053Y-110426810D01*
X166380951Y-110504652D01*
X166534866Y-110598172D01*
X166676671Y-110705178D01*
X166803239Y-110823481D01*
X166911441Y-110950889D01*
X166964120Y-111028394D01*
X167033750Y-111155275D01*
X167092468Y-111292757D01*
X167137587Y-111434284D01*
X167166422Y-111573298D01*
X167168106Y-111587403D01*
X167171434Y-111630847D01*
X167174275Y-111688277D01*
X167176373Y-111753878D01*
X167177468Y-111821833D01*
X167175140Y-111948622D01*
X167162136Y-112096327D01*
X167137133Y-112234221D01*
X167099318Y-112367986D01*
X167090889Y-112391438D01*
X167071408Y-112439388D01*
X167046473Y-112495860D01*
X167017722Y-112557621D01*
X166986790Y-112621437D01*
X166955315Y-112684074D01*
X166924934Y-112742297D01*
X166897283Y-112792873D01*
X166873999Y-112832567D01*
X166856718Y-112858146D01*
X166847079Y-112866375D01*
X166843984Y-112864924D01*
X166824079Y-112853750D01*
X166788420Y-112832866D01*
X166739459Y-112803735D01*
X166679646Y-112767819D01*
X166611433Y-112726580D01*
X166537271Y-112681483D01*
X166240008Y-112500215D01*
X166284539Y-112453685D01*
X166362865Y-112362277D01*
X166437439Y-112248666D01*
X166491474Y-112130878D01*
X166524290Y-112010441D01*
X166535211Y-111888883D01*
X166533868Y-111847415D01*
X166515612Y-111729920D01*
X166476617Y-111619911D01*
X166417670Y-111518570D01*
X166339557Y-111427079D01*
X166243064Y-111346620D01*
X166128978Y-111278373D01*
X166094724Y-111262092D01*
X165971240Y-111216018D01*
X165832918Y-111180894D01*
X165683561Y-111156803D01*
X165526973Y-111143827D01*
X165366956Y-111142051D01*
X165207314Y-111151557D01*
X165051850Y-111172428D01*
X164904366Y-111204748D01*
X164768667Y-111248601D01*
X164682076Y-111286018D01*
X164568688Y-111350815D01*
X164475070Y-111426228D01*
X164400959Y-111512582D01*
X164346094Y-111610205D01*
X164310212Y-111719423D01*
X164293051Y-111840561D01*
X164291880Y-111909962D01*
X164306141Y-112032832D01*
X164341241Y-112148336D01*
X164396682Y-112255047D01*
X164471964Y-112351536D01*
X164486440Y-112367280D01*
X164512962Y-112397850D01*
X164530138Y-112420191D01*
X164534787Y-112430309D01*
X164532597Y-112432294D01*
X164513721Y-112446759D01*
X164480397Y-112470600D01*
X164435380Y-112501971D01*
X164381425Y-112539026D01*
X164321285Y-112579917D01*
X164257718Y-112622798D01*
X164193476Y-112665822D01*
X164131315Y-112707143D01*
X164073991Y-112744914D01*
X164024257Y-112777288D01*
X163984868Y-112802418D01*
X163958580Y-112818458D01*
X163948147Y-112823561D01*
X163943941Y-112818950D01*
X163938933Y-112799733D01*
X163936386Y-112790162D01*
X163925249Y-112762191D01*
X163906802Y-112720552D01*
X163882725Y-112669005D01*
X163854699Y-112611310D01*
X163849154Y-112600043D01*
X163769889Y-112422313D01*
X163710385Y-112252510D01*
X163670245Y-112088570D01*
X163649071Y-111928429D01*
X163646466Y-111770023D01*
X163662033Y-111611289D01*
X163679523Y-111515732D01*
X163724564Y-111351442D01*
X163787656Y-111197411D01*
X163869915Y-111051491D01*
X163972457Y-110911534D01*
X164096399Y-110775392D01*
X164141661Y-110731527D01*
X164273865Y-110619242D01*
X164411832Y-110526028D01*
X164559750Y-110449281D01*
X164721803Y-110386397D01*
X164733391Y-110382580D01*
X164919392Y-110332493D01*
X165115521Y-110299101D01*
X165317568Y-110282416D01*
X165521325Y-110282449D01*
G36*
X166377363Y-112872739D02*
G01*
X166452202Y-112876368D01*
X166514401Y-112883978D01*
X166570984Y-112896312D01*
X166697076Y-112940687D01*
X166811679Y-113003600D01*
X166912568Y-113083762D01*
X166998924Y-113180260D01*
X167069932Y-113292178D01*
X167124776Y-113418603D01*
X167162638Y-113558622D01*
X167168351Y-113594851D01*
X167174313Y-113673845D01*
X167174646Y-113762159D01*
X167169659Y-113851925D01*
X167159666Y-113935278D01*
X167144978Y-114004349D01*
X167114749Y-114090813D01*
X167060057Y-114200714D01*
X166992543Y-114298044D01*
X166941556Y-114360133D01*
X167037622Y-114363395D01*
X167133689Y-114366657D01*
X167133689Y-114789550D01*
X167133686Y-114800457D01*
X167133380Y-114894944D01*
X167132616Y-114981669D01*
X167131451Y-115058163D01*
X167129942Y-115121957D01*
X167128147Y-115170582D01*
X167126121Y-115201567D01*
X167123922Y-115212444D01*
X167123463Y-115212422D01*
X167107910Y-115205386D01*
X167085071Y-115189566D01*
X167079638Y-115185266D01*
X167065606Y-115174223D01*
X167052186Y-115164689D01*
X167037722Y-115156539D01*
X167020556Y-115149648D01*
X166999034Y-115143889D01*
X166971498Y-115139138D01*
X166936292Y-115135269D01*
X166891760Y-115132156D01*
X166836246Y-115129675D01*
X166768093Y-115127700D01*
X166685645Y-115126106D01*
X166587246Y-115124766D01*
X166471239Y-115123556D01*
X166335968Y-115122351D01*
X166179778Y-115121025D01*
X166037012Y-115119772D01*
X165891942Y-115118349D01*
X165766027Y-115116824D01*
X165657436Y-115115067D01*
X165564334Y-115112949D01*
X165484891Y-115110340D01*
X165417273Y-115107110D01*
X165359649Y-115103131D01*
X165310185Y-115098272D01*
X165267050Y-115092403D01*
X165228410Y-115085396D01*
X165192434Y-115077120D01*
X165157289Y-115067446D01*
X165121142Y-115056244D01*
X165082161Y-115043384D01*
X165039091Y-115027910D01*
X164946871Y-114985006D01*
X164867099Y-114931265D01*
X164792965Y-114862424D01*
X164729405Y-114784815D01*
X164667725Y-114680239D01*
X164620202Y-114560756D01*
X164586567Y-114425492D01*
X164566552Y-114273574D01*
X164559889Y-114104128D01*
X164560287Y-114046110D01*
X164562335Y-113980602D01*
X164566704Y-113919307D01*
X164574035Y-113857903D01*
X164584969Y-113792068D01*
X164600147Y-113717480D01*
X164620209Y-113629816D01*
X164645797Y-113524755D01*
X164652820Y-113496194D01*
X164670776Y-113420946D01*
X164686820Y-113350612D01*
X164700028Y-113289433D01*
X164709474Y-113241646D01*
X164714231Y-113211489D01*
X164717910Y-113183217D01*
X164723187Y-113156940D01*
X164727942Y-113146941D01*
X164736781Y-113150048D01*
X164764072Y-113160806D01*
X164806906Y-113178136D01*
X164862425Y-113200874D01*
X164927772Y-113227853D01*
X165000089Y-113257910D01*
X165015879Y-113264507D01*
X165106484Y-113303093D01*
X165176217Y-113334232D01*
X165225405Y-113358083D01*
X165254374Y-113374802D01*
X165263452Y-113384546D01*
X165261405Y-113392234D01*
X165251760Y-113418585D01*
X165236190Y-113457018D01*
X165216815Y-113502178D01*
X165178814Y-113596707D01*
X165137780Y-113733520D01*
X165112612Y-113874711D01*
X165108611Y-113912686D01*
X165106447Y-114015941D01*
X165119622Y-114103048D01*
X165148756Y-114174871D01*
X165194466Y-114232269D01*
X165257372Y-114276104D01*
X165338092Y-114307238D01*
X165437245Y-114326530D01*
X165496224Y-114333950D01*
X165489445Y-114172064D01*
X165489111Y-114146106D01*
X166011842Y-114146106D01*
X166011857Y-114154993D01*
X166012655Y-114210340D01*
X166014488Y-114257264D01*
X166017111Y-114291047D01*
X166020274Y-114306972D01*
X166026741Y-114311057D01*
X166048875Y-114315428D01*
X166087988Y-114318396D01*
X166145939Y-114320086D01*
X166224586Y-114320622D01*
X166420462Y-114320622D01*
X166476973Y-114275952D01*
X166492212Y-114263215D01*
X166534844Y-114216396D01*
X166570672Y-114155745D01*
X166575850Y-114145103D01*
X166592745Y-114106324D01*
X166602909Y-114071308D01*
X166608325Y-114031278D01*
X166610978Y-113977459D01*
X166611383Y-113959352D01*
X166608540Y-113883989D01*
X166596620Y-113823257D01*
X166574037Y-113771548D01*
X166539211Y-113723254D01*
X166534798Y-113718197D01*
X166479160Y-113669728D01*
X166415333Y-113641541D01*
X166340282Y-113632248D01*
X166268693Y-113639480D01*
X166205645Y-113664204D01*
X166147758Y-113708751D01*
X166100808Y-113763681D01*
X166060961Y-113836106D01*
X166033263Y-113922660D01*
X166017096Y-114025330D01*
X166011842Y-114146106D01*
X165489111Y-114146106D01*
X165487813Y-114045505D01*
X165494194Y-113894049D01*
X165508777Y-113745604D01*
X165530882Y-113609422D01*
X165545821Y-113544755D01*
X165588741Y-113412510D01*
X165645340Y-113290238D01*
X165714017Y-113180315D01*
X165793170Y-113085117D01*
X165881196Y-113007020D01*
X165976493Y-112948401D01*
X166028864Y-112924405D01*
X166099590Y-112898768D01*
X166170812Y-112882522D01*
X166249712Y-112874178D01*
X166340282Y-112872310D01*
X166343467Y-112872245D01*
X166377363Y-112872739D01*
G37*
X166377363Y-112872739D02*
X166452202Y-112876368D01*
X166514401Y-112883978D01*
X166570984Y-112896312D01*
X166697076Y-112940687D01*
X166811679Y-113003600D01*
X166912568Y-113083762D01*
X166998924Y-113180260D01*
X167069932Y-113292178D01*
X167124776Y-113418603D01*
X167162638Y-113558622D01*
X167168351Y-113594851D01*
X167174313Y-113673845D01*
X167174646Y-113762159D01*
X167169659Y-113851925D01*
X167159666Y-113935278D01*
X167144978Y-114004349D01*
X167114749Y-114090813D01*
X167060057Y-114200714D01*
X166992543Y-114298044D01*
X166941556Y-114360133D01*
X167037622Y-114363395D01*
X167133689Y-114366657D01*
X167133689Y-114789550D01*
X167133686Y-114800457D01*
X167133380Y-114894944D01*
X167132616Y-114981669D01*
X167131451Y-115058163D01*
X167129942Y-115121957D01*
X167128147Y-115170582D01*
X167126121Y-115201567D01*
X167123922Y-115212444D01*
X167123463Y-115212422D01*
X167107910Y-115205386D01*
X167085071Y-115189566D01*
X167079638Y-115185266D01*
X167065606Y-115174223D01*
X167052186Y-115164689D01*
X167037722Y-115156539D01*
X167020556Y-115149648D01*
X166999034Y-115143889D01*
X166971498Y-115139138D01*
X166936292Y-115135269D01*
X166891760Y-115132156D01*
X166836246Y-115129675D01*
X166768093Y-115127700D01*
X166685645Y-115126106D01*
X166587246Y-115124766D01*
X166471239Y-115123556D01*
X166335968Y-115122351D01*
X166179778Y-115121025D01*
X166037012Y-115119772D01*
X165891942Y-115118349D01*
X165766027Y-115116824D01*
X165657436Y-115115067D01*
X165564334Y-115112949D01*
X165484891Y-115110340D01*
X165417273Y-115107110D01*
X165359649Y-115103131D01*
X165310185Y-115098272D01*
X165267050Y-115092403D01*
X165228410Y-115085396D01*
X165192434Y-115077120D01*
X165157289Y-115067446D01*
X165121142Y-115056244D01*
X165082161Y-115043384D01*
X165039091Y-115027910D01*
X164946871Y-114985006D01*
X164867099Y-114931265D01*
X164792965Y-114862424D01*
X164729405Y-114784815D01*
X164667725Y-114680239D01*
X164620202Y-114560756D01*
X164586567Y-114425492D01*
X164566552Y-114273574D01*
X164559889Y-114104128D01*
X164560287Y-114046110D01*
X164562335Y-113980602D01*
X164566704Y-113919307D01*
X164574035Y-113857903D01*
X164584969Y-113792068D01*
X164600147Y-113717480D01*
X164620209Y-113629816D01*
X164645797Y-113524755D01*
X164652820Y-113496194D01*
X164670776Y-113420946D01*
X164686820Y-113350612D01*
X164700028Y-113289433D01*
X164709474Y-113241646D01*
X164714231Y-113211489D01*
X164717910Y-113183217D01*
X164723187Y-113156940D01*
X164727942Y-113146941D01*
X164736781Y-113150048D01*
X164764072Y-113160806D01*
X164806906Y-113178136D01*
X164862425Y-113200874D01*
X164927772Y-113227853D01*
X165000089Y-113257910D01*
X165015879Y-113264507D01*
X165106484Y-113303093D01*
X165176217Y-113334232D01*
X165225405Y-113358083D01*
X165254374Y-113374802D01*
X165263452Y-113384546D01*
X165261405Y-113392234D01*
X165251760Y-113418585D01*
X165236190Y-113457018D01*
X165216815Y-113502178D01*
X165178814Y-113596707D01*
X165137780Y-113733520D01*
X165112612Y-113874711D01*
X165108611Y-113912686D01*
X165106447Y-114015941D01*
X165119622Y-114103048D01*
X165148756Y-114174871D01*
X165194466Y-114232269D01*
X165257372Y-114276104D01*
X165338092Y-114307238D01*
X165437245Y-114326530D01*
X165496224Y-114333950D01*
X165489445Y-114172064D01*
X165489111Y-114146106D01*
X166011842Y-114146106D01*
X166011857Y-114154993D01*
X166012655Y-114210340D01*
X166014488Y-114257264D01*
X166017111Y-114291047D01*
X166020274Y-114306972D01*
X166026741Y-114311057D01*
X166048875Y-114315428D01*
X166087988Y-114318396D01*
X166145939Y-114320086D01*
X166224586Y-114320622D01*
X166420462Y-114320622D01*
X166476973Y-114275952D01*
X166492212Y-114263215D01*
X166534844Y-114216396D01*
X166570672Y-114155745D01*
X166575850Y-114145103D01*
X166592745Y-114106324D01*
X166602909Y-114071308D01*
X166608325Y-114031278D01*
X166610978Y-113977459D01*
X166611383Y-113959352D01*
X166608540Y-113883989D01*
X166596620Y-113823257D01*
X166574037Y-113771548D01*
X166539211Y-113723254D01*
X166534798Y-113718197D01*
X166479160Y-113669728D01*
X166415333Y-113641541D01*
X166340282Y-113632248D01*
X166268693Y-113639480D01*
X166205645Y-113664204D01*
X166147758Y-113708751D01*
X166100808Y-113763681D01*
X166060961Y-113836106D01*
X166033263Y-113922660D01*
X166017096Y-114025330D01*
X166011842Y-114146106D01*
X165489111Y-114146106D01*
X165487813Y-114045505D01*
X165494194Y-113894049D01*
X165508777Y-113745604D01*
X165530882Y-113609422D01*
X165545821Y-113544755D01*
X165588741Y-113412510D01*
X165645340Y-113290238D01*
X165714017Y-113180315D01*
X165793170Y-113085117D01*
X165881196Y-113007020D01*
X165976493Y-112948401D01*
X166028864Y-112924405D01*
X166099590Y-112898768D01*
X166170812Y-112882522D01*
X166249712Y-112874178D01*
X166340282Y-112872310D01*
X166343467Y-112872245D01*
X166377363Y-112872739D01*
G36*
X166020158Y-115414732D02*
G01*
X166171594Y-115423311D01*
X166308283Y-115442167D01*
X166434276Y-115472163D01*
X166553625Y-115514164D01*
X166670381Y-115569031D01*
X166781179Y-115635833D01*
X166894739Y-115726637D01*
X166990211Y-115830292D01*
X167067073Y-115946113D01*
X167124797Y-116073414D01*
X167162858Y-116211511D01*
X167168666Y-116249207D01*
X167174396Y-116328248D01*
X167174583Y-116416371D01*
X167169539Y-116505764D01*
X167159578Y-116588616D01*
X167145012Y-116657113D01*
X167135364Y-116687965D01*
X167105123Y-116765270D01*
X167067617Y-116842321D01*
X167026614Y-116911800D01*
X166985879Y-116966385D01*
X166966505Y-116989084D01*
X166948662Y-117011799D01*
X166941778Y-117023221D01*
X166943424Y-117024463D01*
X166961205Y-117027272D01*
X166994370Y-117029224D01*
X167037733Y-117029955D01*
X167133689Y-117029955D01*
X167133689Y-117888104D01*
X167072974Y-117853839D01*
X167063868Y-117848645D01*
X167049249Y-117840285D01*
X167035173Y-117832712D01*
X167020540Y-117825888D01*
X167004249Y-117819773D01*
X166985198Y-117814327D01*
X166962286Y-117809513D01*
X166934413Y-117805292D01*
X166900478Y-117801623D01*
X166859379Y-117798469D01*
X166810015Y-117795789D01*
X166751286Y-117793546D01*
X166682090Y-117791701D01*
X166601326Y-117790213D01*
X166507894Y-117789045D01*
X166400692Y-117788156D01*
X166278620Y-117787509D01*
X166140576Y-117787064D01*
X165985459Y-117786782D01*
X165812168Y-117786625D01*
X165619603Y-117786552D01*
X165406662Y-117786526D01*
X165172245Y-117786507D01*
X163487378Y-117786311D01*
X163487378Y-116880983D01*
X163524067Y-116905415D01*
X163533647Y-116911682D01*
X163579981Y-116937792D01*
X163627102Y-116955531D01*
X163682251Y-116967092D01*
X163752667Y-116974669D01*
X163759650Y-116975161D01*
X163797641Y-116976938D01*
X163851576Y-116978556D01*
X163918703Y-116980001D01*
X163996271Y-116981260D01*
X164081528Y-116982320D01*
X164171724Y-116983171D01*
X164264107Y-116983797D01*
X164355925Y-116984188D01*
X164444427Y-116984330D01*
X164526862Y-116984210D01*
X164600479Y-116983817D01*
X164662526Y-116983138D01*
X164710251Y-116982159D01*
X164740904Y-116980868D01*
X164751733Y-116979253D01*
X164747333Y-116971043D01*
X164732362Y-116949353D01*
X164710448Y-116919986D01*
X164676236Y-116871121D01*
X164629714Y-116782875D01*
X164596046Y-116684084D01*
X164593232Y-116669557D01*
X165147465Y-116669557D01*
X165159389Y-116754681D01*
X165186040Y-116838867D01*
X165226962Y-116917392D01*
X165270530Y-116984800D01*
X166420721Y-116984800D01*
X166467089Y-116914244D01*
X166490791Y-116873583D01*
X166516639Y-116819454D01*
X166534829Y-116770311D01*
X166550551Y-116706835D01*
X166561541Y-116610669D01*
X166553365Y-116526100D01*
X166525805Y-116452781D01*
X166478642Y-116390363D01*
X166411658Y-116338498D01*
X166324633Y-116296840D01*
X166217350Y-116265038D01*
X166205009Y-116262455D01*
X166143772Y-116254000D01*
X166066692Y-116248337D01*
X165979002Y-116245424D01*
X165885934Y-116245217D01*
X165792720Y-116247670D01*
X165704594Y-116252739D01*
X165626788Y-116260381D01*
X165564533Y-116270552D01*
X165558666Y-116271833D01*
X165448121Y-116300874D01*
X165357575Y-116335390D01*
X165284953Y-116376544D01*
X165228181Y-116425501D01*
X165185184Y-116483426D01*
X165169615Y-116515380D01*
X165150722Y-116588216D01*
X165147465Y-116669557D01*
X164593232Y-116669557D01*
X164574231Y-116571490D01*
X164563265Y-116441836D01*
X164562219Y-116349330D01*
X164572014Y-116227989D01*
X164596174Y-116117901D01*
X164635785Y-116014611D01*
X164691932Y-115913662D01*
X164722883Y-115868497D01*
X164814115Y-115763089D01*
X164923106Y-115671462D01*
X165049726Y-115593668D01*
X165193845Y-115529759D01*
X165355332Y-115479786D01*
X165534059Y-115443802D01*
X165729895Y-115421857D01*
X165885934Y-115416100D01*
X165942711Y-115414006D01*
X166020158Y-115414732D01*
G37*
X166020158Y-115414732D02*
X166171594Y-115423311D01*
X166308283Y-115442167D01*
X166434276Y-115472163D01*
X166553625Y-115514164D01*
X166670381Y-115569031D01*
X166781179Y-115635833D01*
X166894739Y-115726637D01*
X166990211Y-115830292D01*
X167067073Y-115946113D01*
X167124797Y-116073414D01*
X167162858Y-116211511D01*
X167168666Y-116249207D01*
X167174396Y-116328248D01*
X167174583Y-116416371D01*
X167169539Y-116505764D01*
X167159578Y-116588616D01*
X167145012Y-116657113D01*
X167135364Y-116687965D01*
X167105123Y-116765270D01*
X167067617Y-116842321D01*
X167026614Y-116911800D01*
X166985879Y-116966385D01*
X166966505Y-116989084D01*
X166948662Y-117011799D01*
X166941778Y-117023221D01*
X166943424Y-117024463D01*
X166961205Y-117027272D01*
X166994370Y-117029224D01*
X167037733Y-117029955D01*
X167133689Y-117029955D01*
X167133689Y-117888104D01*
X167072974Y-117853839D01*
X167063868Y-117848645D01*
X167049249Y-117840285D01*
X167035173Y-117832712D01*
X167020540Y-117825888D01*
X167004249Y-117819773D01*
X166985198Y-117814327D01*
X166962286Y-117809513D01*
X166934413Y-117805292D01*
X166900478Y-117801623D01*
X166859379Y-117798469D01*
X166810015Y-117795789D01*
X166751286Y-117793546D01*
X166682090Y-117791701D01*
X166601326Y-117790213D01*
X166507894Y-117789045D01*
X166400692Y-117788156D01*
X166278620Y-117787509D01*
X166140576Y-117787064D01*
X165985459Y-117786782D01*
X165812168Y-117786625D01*
X165619603Y-117786552D01*
X165406662Y-117786526D01*
X165172245Y-117786507D01*
X163487378Y-117786311D01*
X163487378Y-116880983D01*
X163524067Y-116905415D01*
X163533647Y-116911682D01*
X163579981Y-116937792D01*
X163627102Y-116955531D01*
X163682251Y-116967092D01*
X163752667Y-116974669D01*
X163759650Y-116975161D01*
X163797641Y-116976938D01*
X163851576Y-116978556D01*
X163918703Y-116980001D01*
X163996271Y-116981260D01*
X164081528Y-116982320D01*
X164171724Y-116983171D01*
X164264107Y-116983797D01*
X164355925Y-116984188D01*
X164444427Y-116984330D01*
X164526862Y-116984210D01*
X164600479Y-116983817D01*
X164662526Y-116983138D01*
X164710251Y-116982159D01*
X164740904Y-116980868D01*
X164751733Y-116979253D01*
X164747333Y-116971043D01*
X164732362Y-116949353D01*
X164710448Y-116919986D01*
X164676236Y-116871121D01*
X164629714Y-116782875D01*
X164596046Y-116684084D01*
X164593232Y-116669557D01*
X165147465Y-116669557D01*
X165159389Y-116754681D01*
X165186040Y-116838867D01*
X165226962Y-116917392D01*
X165270530Y-116984800D01*
X166420721Y-116984800D01*
X166467089Y-116914244D01*
X166490791Y-116873583D01*
X166516639Y-116819454D01*
X166534829Y-116770311D01*
X166550551Y-116706835D01*
X166561541Y-116610669D01*
X166553365Y-116526100D01*
X166525805Y-116452781D01*
X166478642Y-116390363D01*
X166411658Y-116338498D01*
X166324633Y-116296840D01*
X166217350Y-116265038D01*
X166205009Y-116262455D01*
X166143772Y-116254000D01*
X166066692Y-116248337D01*
X165979002Y-116245424D01*
X165885934Y-116245217D01*
X165792720Y-116247670D01*
X165704594Y-116252739D01*
X165626788Y-116260381D01*
X165564533Y-116270552D01*
X165558666Y-116271833D01*
X165448121Y-116300874D01*
X165357575Y-116335390D01*
X165284953Y-116376544D01*
X165228181Y-116425501D01*
X165185184Y-116483426D01*
X165169615Y-116515380D01*
X165150722Y-116588216D01*
X165147465Y-116669557D01*
X164593232Y-116669557D01*
X164574231Y-116571490D01*
X164563265Y-116441836D01*
X164562219Y-116349330D01*
X164572014Y-116227989D01*
X164596174Y-116117901D01*
X164635785Y-116014611D01*
X164691932Y-115913662D01*
X164722883Y-115868497D01*
X164814115Y-115763089D01*
X164923106Y-115671462D01*
X165049726Y-115593668D01*
X165193845Y-115529759D01*
X165355332Y-115479786D01*
X165534059Y-115443802D01*
X165729895Y-115421857D01*
X165885934Y-115416100D01*
X165942711Y-115414006D01*
X166020158Y-115414732D01*
G36*
X163234307Y-108795331D02*
G01*
X163275450Y-108797540D01*
X163307582Y-108803106D01*
X163338122Y-108813414D01*
X163374489Y-108829852D01*
X163401728Y-108843800D01*
X163487429Y-108902335D01*
X163556617Y-108974381D01*
X163607741Y-109058053D01*
X163639250Y-109151469D01*
X163646225Y-109184566D01*
X163653094Y-109225040D01*
X163654919Y-109258001D01*
X163651947Y-109292302D01*
X163644426Y-109336800D01*
X163632002Y-109388066D01*
X163594112Y-109478566D01*
X163539836Y-109557655D01*
X163471770Y-109623472D01*
X163392511Y-109674160D01*
X163304654Y-109707860D01*
X163210795Y-109722714D01*
X163113530Y-109716864D01*
X163017220Y-109690601D01*
X162928494Y-109645582D01*
X162853419Y-109584627D01*
X162793641Y-109509816D01*
X162750809Y-109423232D01*
X162726571Y-109326957D01*
X162722576Y-109223072D01*
X162732850Y-109145438D01*
X162760053Y-109062687D01*
X162805484Y-108987594D01*
X162871302Y-108915702D01*
X162915567Y-108877154D01*
X162973961Y-108837744D01*
X163034586Y-108812554D01*
X163103865Y-108799139D01*
X163188222Y-108795052D01*
X163234307Y-108795331D01*
G37*
X163234307Y-108795331D02*
X163275450Y-108797540D01*
X163307582Y-108803106D01*
X163338122Y-108813414D01*
X163374489Y-108829852D01*
X163401728Y-108843800D01*
X163487429Y-108902335D01*
X163556617Y-108974381D01*
X163607741Y-109058053D01*
X163639250Y-109151469D01*
X163646225Y-109184566D01*
X163653094Y-109225040D01*
X163654919Y-109258001D01*
X163651947Y-109292302D01*
X163644426Y-109336800D01*
X163632002Y-109388066D01*
X163594112Y-109478566D01*
X163539836Y-109557655D01*
X163471770Y-109623472D01*
X163392511Y-109674160D01*
X163304654Y-109707860D01*
X163210795Y-109722714D01*
X163113530Y-109716864D01*
X163017220Y-109690601D01*
X162928494Y-109645582D01*
X162853419Y-109584627D01*
X162793641Y-109509816D01*
X162750809Y-109423232D01*
X162726571Y-109326957D01*
X162722576Y-109223072D01*
X162732850Y-109145438D01*
X162760053Y-109062687D01*
X162805484Y-108987594D01*
X162871302Y-108915702D01*
X162915567Y-108877154D01*
X162973961Y-108837744D01*
X163034586Y-108812554D01*
X163103865Y-108799139D01*
X163188222Y-108795052D01*
X163234307Y-108795331D01*
G36*
X168235041Y-105323130D02*
G01*
X168335956Y-105323378D01*
X168411617Y-105323417D01*
X168489526Y-105323672D01*
X168549536Y-105324316D01*
X168594264Y-105325520D01*
X168626326Y-105327457D01*
X168648340Y-105330297D01*
X168662924Y-105334212D01*
X168672694Y-105339374D01*
X168680267Y-105345955D01*
X168686501Y-105352923D01*
X168693801Y-105365921D01*
X168698554Y-105385069D01*
X168701292Y-105414472D01*
X168702545Y-105458238D01*
X168702845Y-105520472D01*
X168702469Y-105569418D01*
X168698041Y-105676278D01*
X168687953Y-105765506D01*
X168671365Y-105840304D01*
X168647435Y-105903875D01*
X168615321Y-105959421D01*
X168574182Y-106010146D01*
X168568330Y-106016134D01*
X168519821Y-106053001D01*
X168459013Y-106084101D01*
X168394769Y-106105583D01*
X168335956Y-106113600D01*
X168314739Y-106112321D01*
X168257323Y-106100009D01*
X168197413Y-106077480D01*
X168143363Y-106048250D01*
X168103532Y-106015833D01*
X168086510Y-105996292D01*
X168047322Y-105941580D01*
X168017193Y-105881277D01*
X167995232Y-105812081D01*
X167980550Y-105730689D01*
X167972259Y-105633800D01*
X167970149Y-105546333D01*
X168115808Y-105546333D01*
X168115817Y-105549361D01*
X168117782Y-105600481D01*
X168122507Y-105660584D01*
X168129035Y-105717292D01*
X168138331Y-105767250D01*
X168164600Y-105842002D01*
X168203899Y-105899511D01*
X168256933Y-105941012D01*
X168308200Y-105962229D01*
X168356026Y-105963647D01*
X168406961Y-105945365D01*
X168452878Y-105915695D01*
X168495287Y-105868998D01*
X168525090Y-105807608D01*
X168544226Y-105728462D01*
X168544464Y-105726972D01*
X168550256Y-105678001D01*
X168554396Y-105619307D01*
X168556004Y-105563266D01*
X168556089Y-105470133D01*
X168115822Y-105470133D01*
X168115808Y-105546333D01*
X167970149Y-105546333D01*
X167969467Y-105518111D01*
X167969066Y-105478629D01*
X167968653Y-105432918D01*
X167970457Y-105397117D01*
X167976739Y-105370026D01*
X167989759Y-105350444D01*
X168011778Y-105337170D01*
X168045055Y-105329002D01*
X168091851Y-105324740D01*
X168115822Y-105324143D01*
X168154427Y-105323183D01*
X168235041Y-105323130D01*
G37*
X168235041Y-105323130D02*
X168335956Y-105323378D01*
X168411617Y-105323417D01*
X168489526Y-105323672D01*
X168549536Y-105324316D01*
X168594264Y-105325520D01*
X168626326Y-105327457D01*
X168648340Y-105330297D01*
X168662924Y-105334212D01*
X168672694Y-105339374D01*
X168680267Y-105345955D01*
X168686501Y-105352923D01*
X168693801Y-105365921D01*
X168698554Y-105385069D01*
X168701292Y-105414472D01*
X168702545Y-105458238D01*
X168702845Y-105520472D01*
X168702469Y-105569418D01*
X168698041Y-105676278D01*
X168687953Y-105765506D01*
X168671365Y-105840304D01*
X168647435Y-105903875D01*
X168615321Y-105959421D01*
X168574182Y-106010146D01*
X168568330Y-106016134D01*
X168519821Y-106053001D01*
X168459013Y-106084101D01*
X168394769Y-106105583D01*
X168335956Y-106113600D01*
X168314739Y-106112321D01*
X168257323Y-106100009D01*
X168197413Y-106077480D01*
X168143363Y-106048250D01*
X168103532Y-106015833D01*
X168086510Y-105996292D01*
X168047322Y-105941580D01*
X168017193Y-105881277D01*
X167995232Y-105812081D01*
X167980550Y-105730689D01*
X167972259Y-105633800D01*
X167970149Y-105546333D01*
X168115808Y-105546333D01*
X168115817Y-105549361D01*
X168117782Y-105600481D01*
X168122507Y-105660584D01*
X168129035Y-105717292D01*
X168138331Y-105767250D01*
X168164600Y-105842002D01*
X168203899Y-105899511D01*
X168256933Y-105941012D01*
X168308200Y-105962229D01*
X168356026Y-105963647D01*
X168406961Y-105945365D01*
X168452878Y-105915695D01*
X168495287Y-105868998D01*
X168525090Y-105807608D01*
X168544226Y-105728462D01*
X168544464Y-105726972D01*
X168550256Y-105678001D01*
X168554396Y-105619307D01*
X168556004Y-105563266D01*
X168556089Y-105470133D01*
X168115822Y-105470133D01*
X168115808Y-105546333D01*
X167970149Y-105546333D01*
X167969467Y-105518111D01*
X167969066Y-105478629D01*
X167968653Y-105432918D01*
X167970457Y-105397117D01*
X167976739Y-105370026D01*
X167989759Y-105350444D01*
X168011778Y-105337170D01*
X168045055Y-105329002D01*
X168091851Y-105324740D01*
X168115822Y-105324143D01*
X168154427Y-105323183D01*
X168235041Y-105323130D01*
G36*
X168410713Y-106452303D02*
G01*
X168488889Y-106452552D01*
X168549103Y-106453188D01*
X168593982Y-106454385D01*
X168626152Y-106456316D01*
X168648239Y-106459154D01*
X168662870Y-106463073D01*
X168672670Y-106468245D01*
X168680267Y-106474844D01*
X168683444Y-106478178D01*
X168689554Y-106486700D01*
X168694229Y-106498702D01*
X168697659Y-106516913D01*
X168700036Y-106544060D01*
X168701552Y-106582871D01*
X168702398Y-106636076D01*
X168702765Y-106706402D01*
X168702845Y-106796578D01*
X168702833Y-106838686D01*
X168702651Y-106919833D01*
X168702098Y-106982325D01*
X168700982Y-107028891D01*
X168699113Y-107062259D01*
X168696298Y-107085156D01*
X168692346Y-107100312D01*
X168687066Y-107110454D01*
X168680267Y-107118311D01*
X168658667Y-107133037D01*
X168629467Y-107140889D01*
X168605560Y-107135390D01*
X168578667Y-107118311D01*
X168574059Y-107113332D01*
X168567772Y-107103557D01*
X168563146Y-107089441D01*
X168559930Y-107067946D01*
X168557870Y-107036032D01*
X168556712Y-106990658D01*
X168556202Y-106928787D01*
X168556089Y-106847378D01*
X168556089Y-106599022D01*
X168398045Y-106599022D01*
X168398045Y-106760199D01*
X168397899Y-106796017D01*
X168396176Y-106861641D01*
X168391741Y-106908882D01*
X168383637Y-106940617D01*
X168370906Y-106959723D01*
X168352592Y-106969077D01*
X168327738Y-106971555D01*
X168307482Y-106970758D01*
X168285656Y-106965506D01*
X168270304Y-106952712D01*
X168260309Y-106929372D01*
X168254553Y-106892483D01*
X168251919Y-106839041D01*
X168251289Y-106766042D01*
X168251289Y-106597895D01*
X168186378Y-106601281D01*
X168121467Y-106604666D01*
X168118418Y-106852383D01*
X168117539Y-106914974D01*
X168116095Y-106983435D01*
X168114164Y-107034339D01*
X168111514Y-107070592D01*
X168107910Y-107095099D01*
X168103121Y-107110765D01*
X168096913Y-107120494D01*
X168090510Y-107126509D01*
X168058828Y-107139518D01*
X168023142Y-107135957D01*
X167992084Y-107116182D01*
X167989161Y-107112931D01*
X167982810Y-107103951D01*
X167977957Y-107091847D01*
X167974403Y-107073841D01*
X167971946Y-107047153D01*
X167970385Y-107009003D01*
X167969518Y-106956614D01*
X167969146Y-106887206D01*
X167969067Y-106797999D01*
X167969083Y-106743266D01*
X167969275Y-106666169D01*
X167969860Y-106607223D01*
X167971051Y-106563636D01*
X167973064Y-106532617D01*
X167976112Y-106511375D01*
X167980409Y-106497118D01*
X167986172Y-106487055D01*
X167993612Y-106478394D01*
X167995293Y-106476609D01*
X168002832Y-106469365D01*
X168011850Y-106463723D01*
X168024984Y-106459483D01*
X168044872Y-106456444D01*
X168074151Y-106454406D01*
X168115458Y-106453170D01*
X168171431Y-106452535D01*
X168244707Y-106452300D01*
X168337923Y-106452266D01*
X168410713Y-106452303D01*
G37*
X168410713Y-106452303D02*
X168488889Y-106452552D01*
X168549103Y-106453188D01*
X168593982Y-106454385D01*
X168626152Y-106456316D01*
X168648239Y-106459154D01*
X168662870Y-106463073D01*
X168672670Y-106468245D01*
X168680267Y-106474844D01*
X168683444Y-106478178D01*
X168689554Y-106486700D01*
X168694229Y-106498702D01*
X168697659Y-106516913D01*
X168700036Y-106544060D01*
X168701552Y-106582871D01*
X168702398Y-106636076D01*
X168702765Y-106706402D01*
X168702845Y-106796578D01*
X168702833Y-106838686D01*
X168702651Y-106919833D01*
X168702098Y-106982325D01*
X168700982Y-107028891D01*
X168699113Y-107062259D01*
X168696298Y-107085156D01*
X168692346Y-107100312D01*
X168687066Y-107110454D01*
X168680267Y-107118311D01*
X168658667Y-107133037D01*
X168629467Y-107140889D01*
X168605560Y-107135390D01*
X168578667Y-107118311D01*
X168574059Y-107113332D01*
X168567772Y-107103557D01*
X168563146Y-107089441D01*
X168559930Y-107067946D01*
X168557870Y-107036032D01*
X168556712Y-106990658D01*
X168556202Y-106928787D01*
X168556089Y-106847378D01*
X168556089Y-106599022D01*
X168398045Y-106599022D01*
X168398045Y-106760199D01*
X168397899Y-106796017D01*
X168396176Y-106861641D01*
X168391741Y-106908882D01*
X168383637Y-106940617D01*
X168370906Y-106959723D01*
X168352592Y-106969077D01*
X168327738Y-106971555D01*
X168307482Y-106970758D01*
X168285656Y-106965506D01*
X168270304Y-106952712D01*
X168260309Y-106929372D01*
X168254553Y-106892483D01*
X168251919Y-106839041D01*
X168251289Y-106766042D01*
X168251289Y-106597895D01*
X168186378Y-106601281D01*
X168121467Y-106604666D01*
X168118418Y-106852383D01*
X168117539Y-106914974D01*
X168116095Y-106983435D01*
X168114164Y-107034339D01*
X168111514Y-107070592D01*
X168107910Y-107095099D01*
X168103121Y-107110765D01*
X168096913Y-107120494D01*
X168090510Y-107126509D01*
X168058828Y-107139518D01*
X168023142Y-107135957D01*
X167992084Y-107116182D01*
X167989161Y-107112931D01*
X167982810Y-107103951D01*
X167977957Y-107091847D01*
X167974403Y-107073841D01*
X167971946Y-107047153D01*
X167970385Y-107009003D01*
X167969518Y-106956614D01*
X167969146Y-106887206D01*
X167969067Y-106797999D01*
X167969083Y-106743266D01*
X167969275Y-106666169D01*
X167969860Y-106607223D01*
X167971051Y-106563636D01*
X167973064Y-106532617D01*
X167976112Y-106511375D01*
X167980409Y-106497118D01*
X167986172Y-106487055D01*
X167993612Y-106478394D01*
X167995293Y-106476609D01*
X168002832Y-106469365D01*
X168011850Y-106463723D01*
X168024984Y-106459483D01*
X168044872Y-106456444D01*
X168074151Y-106454406D01*
X168115458Y-106453170D01*
X168171431Y-106452535D01*
X168244707Y-106452300D01*
X168337923Y-106452266D01*
X168410713Y-106452303D01*
G36*
X168220232Y-107424048D02*
G01*
X168245029Y-107429840D01*
X168266699Y-107444647D01*
X168294049Y-107472620D01*
X168301378Y-107480598D01*
X168322281Y-107504308D01*
X168339251Y-107526702D01*
X168353205Y-107550735D01*
X168365056Y-107579363D01*
X168375720Y-107615540D01*
X168386111Y-107662220D01*
X168397146Y-107722359D01*
X168409738Y-107798910D01*
X168424804Y-107894829D01*
X168427838Y-107913192D01*
X168441458Y-107975522D01*
X168457192Y-108020740D01*
X168474263Y-108047024D01*
X168491897Y-108052553D01*
X168496168Y-108049932D01*
X168511233Y-108032000D01*
X168527867Y-108003874D01*
X168533857Y-107991074D01*
X168541050Y-107969776D01*
X168545827Y-107943390D01*
X168548646Y-107907546D01*
X168549964Y-107857872D01*
X168550237Y-107790000D01*
X168550164Y-107772215D01*
X168549053Y-107704594D01*
X168546828Y-107639655D01*
X168543762Y-107584030D01*
X168540127Y-107544349D01*
X168536059Y-107508838D01*
X168535276Y-107479585D01*
X168539876Y-107460685D01*
X168550551Y-107445571D01*
X168554144Y-107441915D01*
X168585918Y-107425573D01*
X168621572Y-107426893D01*
X168652190Y-107445850D01*
X168663796Y-107466220D01*
X168676491Y-107502204D01*
X168686541Y-107544628D01*
X168687140Y-107548078D01*
X168692356Y-107590748D01*
X168696730Y-107648134D01*
X168699818Y-107713151D01*
X168701177Y-107778711D01*
X168701218Y-107794943D01*
X168698741Y-107893256D01*
X168690735Y-107973308D01*
X168676203Y-108038487D01*
X168654149Y-108092183D01*
X168623576Y-108137784D01*
X168583486Y-108178677D01*
X168557259Y-108198798D01*
X168527712Y-108210424D01*
X168487995Y-108213333D01*
X168476026Y-108213192D01*
X168443345Y-108209319D01*
X168416819Y-108196935D01*
X168385971Y-108171770D01*
X168363831Y-108150558D01*
X168341285Y-108124162D01*
X168322917Y-108094445D01*
X168307661Y-108058215D01*
X168294449Y-108012283D01*
X168282214Y-107953456D01*
X168269889Y-107878544D01*
X168256406Y-107784355D01*
X168249396Y-107739043D01*
X168234837Y-107671089D01*
X168218337Y-107621953D01*
X168200439Y-107592386D01*
X168181685Y-107583136D01*
X168162615Y-107594952D01*
X168143771Y-107628584D01*
X168142557Y-107631630D01*
X168130479Y-107677989D01*
X168122279Y-107740639D01*
X168118119Y-107814073D01*
X168118161Y-107892783D01*
X168122569Y-107971261D01*
X168131505Y-108044000D01*
X168132154Y-108047927D01*
X168139861Y-108096743D01*
X168143473Y-108128995D01*
X168142876Y-108149992D01*
X168137954Y-108165046D01*
X168128596Y-108179466D01*
X168127725Y-108180636D01*
X168097351Y-108205153D01*
X168061850Y-108209946D01*
X168027269Y-108194140D01*
X168022813Y-108189594D01*
X168007673Y-108159980D01*
X167994550Y-108112998D01*
X167983750Y-108052694D01*
X167975581Y-107983112D01*
X167970351Y-107908297D01*
X167968367Y-107832294D01*
X167969936Y-107759147D01*
X167975366Y-107692900D01*
X167984964Y-107637600D01*
X167999825Y-107586717D01*
X168032958Y-107515405D01*
X168075640Y-107464248D01*
X168127705Y-107433425D01*
X168188983Y-107423111D01*
X168220232Y-107424048D01*
G37*
X168220232Y-107424048D02*
X168245029Y-107429840D01*
X168266699Y-107444647D01*
X168294049Y-107472620D01*
X168301378Y-107480598D01*
X168322281Y-107504308D01*
X168339251Y-107526702D01*
X168353205Y-107550735D01*
X168365056Y-107579363D01*
X168375720Y-107615540D01*
X168386111Y-107662220D01*
X168397146Y-107722359D01*
X168409738Y-107798910D01*
X168424804Y-107894829D01*
X168427838Y-107913192D01*
X168441458Y-107975522D01*
X168457192Y-108020740D01*
X168474263Y-108047024D01*
X168491897Y-108052553D01*
X168496168Y-108049932D01*
X168511233Y-108032000D01*
X168527867Y-108003874D01*
X168533857Y-107991074D01*
X168541050Y-107969776D01*
X168545827Y-107943390D01*
X168548646Y-107907546D01*
X168549964Y-107857872D01*
X168550237Y-107790000D01*
X168550164Y-107772215D01*
X168549053Y-107704594D01*
X168546828Y-107639655D01*
X168543762Y-107584030D01*
X168540127Y-107544349D01*
X168536059Y-107508838D01*
X168535276Y-107479585D01*
X168539876Y-107460685D01*
X168550551Y-107445571D01*
X168554144Y-107441915D01*
X168585918Y-107425573D01*
X168621572Y-107426893D01*
X168652190Y-107445850D01*
X168663796Y-107466220D01*
X168676491Y-107502204D01*
X168686541Y-107544628D01*
X168687140Y-107548078D01*
X168692356Y-107590748D01*
X168696730Y-107648134D01*
X168699818Y-107713151D01*
X168701177Y-107778711D01*
X168701218Y-107794943D01*
X168698741Y-107893256D01*
X168690735Y-107973308D01*
X168676203Y-108038487D01*
X168654149Y-108092183D01*
X168623576Y-108137784D01*
X168583486Y-108178677D01*
X168557259Y-108198798D01*
X168527712Y-108210424D01*
X168487995Y-108213333D01*
X168476026Y-108213192D01*
X168443345Y-108209319D01*
X168416819Y-108196935D01*
X168385971Y-108171770D01*
X168363831Y-108150558D01*
X168341285Y-108124162D01*
X168322917Y-108094445D01*
X168307661Y-108058215D01*
X168294449Y-108012283D01*
X168282214Y-107953456D01*
X168269889Y-107878544D01*
X168256406Y-107784355D01*
X168249396Y-107739043D01*
X168234837Y-107671089D01*
X168218337Y-107621953D01*
X168200439Y-107592386D01*
X168181685Y-107583136D01*
X168162615Y-107594952D01*
X168143771Y-107628584D01*
X168142557Y-107631630D01*
X168130479Y-107677989D01*
X168122279Y-107740639D01*
X168118119Y-107814073D01*
X168118161Y-107892783D01*
X168122569Y-107971261D01*
X168131505Y-108044000D01*
X168132154Y-108047927D01*
X168139861Y-108096743D01*
X168143473Y-108128995D01*
X168142876Y-108149992D01*
X168137954Y-108165046D01*
X168128596Y-108179466D01*
X168127725Y-108180636D01*
X168097351Y-108205153D01*
X168061850Y-108209946D01*
X168027269Y-108194140D01*
X168022813Y-108189594D01*
X168007673Y-108159980D01*
X167994550Y-108112998D01*
X167983750Y-108052694D01*
X167975581Y-107983112D01*
X167970351Y-107908297D01*
X167968367Y-107832294D01*
X167969936Y-107759147D01*
X167975366Y-107692900D01*
X167984964Y-107637600D01*
X167999825Y-107586717D01*
X168032958Y-107515405D01*
X168075640Y-107464248D01*
X168127705Y-107433425D01*
X168188983Y-107423111D01*
X168220232Y-107424048D01*
G36*
X168421567Y-108552041D02*
G01*
X168495789Y-108552299D01*
X168552541Y-108552970D01*
X168594512Y-108554248D01*
X168624389Y-108556327D01*
X168644861Y-108559401D01*
X168658614Y-108563666D01*
X168668337Y-108569316D01*
X168676717Y-108576545D01*
X168698181Y-108608009D01*
X168699947Y-108643174D01*
X168680267Y-108676178D01*
X168674398Y-108681484D01*
X168665314Y-108686934D01*
X168651973Y-108691100D01*
X168631757Y-108694154D01*
X168602049Y-108696268D01*
X168560232Y-108697614D01*
X168503689Y-108698362D01*
X168429802Y-108698686D01*
X168335956Y-108698755D01*
X168260294Y-108698716D01*
X168182385Y-108698461D01*
X168122375Y-108697817D01*
X168077648Y-108696613D01*
X168045585Y-108694676D01*
X168023571Y-108691836D01*
X168008987Y-108687921D01*
X167999218Y-108682758D01*
X167991645Y-108676178D01*
X167972623Y-108646994D01*
X167973463Y-108613863D01*
X167996776Y-108579709D01*
X168024485Y-108552000D01*
X168337537Y-108552000D01*
X168421567Y-108552041D01*
G37*
X168421567Y-108552041D02*
X168495789Y-108552299D01*
X168552541Y-108552970D01*
X168594512Y-108554248D01*
X168624389Y-108556327D01*
X168644861Y-108559401D01*
X168658614Y-108563666D01*
X168668337Y-108569316D01*
X168676717Y-108576545D01*
X168698181Y-108608009D01*
X168699947Y-108643174D01*
X168680267Y-108676178D01*
X168674398Y-108681484D01*
X168665314Y-108686934D01*
X168651973Y-108691100D01*
X168631757Y-108694154D01*
X168602049Y-108696268D01*
X168560232Y-108697614D01*
X168503689Y-108698362D01*
X168429802Y-108698686D01*
X168335956Y-108698755D01*
X168260294Y-108698716D01*
X168182385Y-108698461D01*
X168122375Y-108697817D01*
X168077648Y-108696613D01*
X168045585Y-108694676D01*
X168023571Y-108691836D01*
X168008987Y-108687921D01*
X167999218Y-108682758D01*
X167991645Y-108676178D01*
X167972623Y-108646994D01*
X167973463Y-108613863D01*
X167996776Y-108579709D01*
X168024485Y-108552000D01*
X168337537Y-108552000D01*
X168421567Y-108552041D01*
G36*
X168354259Y-109027702D02*
G01*
X168405592Y-109040643D01*
X168462118Y-109063806D01*
X168516035Y-109093698D01*
X168559539Y-109126827D01*
X168569887Y-109137023D01*
X168621662Y-109204108D01*
X168661554Y-109284234D01*
X168685956Y-109370444D01*
X168694068Y-109425408D01*
X168700673Y-109518861D01*
X168698586Y-109608642D01*
X168688340Y-109691131D01*
X168670470Y-109762714D01*
X168645508Y-109819772D01*
X168613988Y-109858689D01*
X168612012Y-109860064D01*
X168586786Y-109867152D01*
X168539535Y-109871391D01*
X168470071Y-109872800D01*
X168407838Y-109871940D01*
X168360456Y-109867220D01*
X168328353Y-109855530D01*
X168308800Y-109833761D01*
X168299070Y-109798802D01*
X168296433Y-109747544D01*
X168298161Y-109676877D01*
X168301173Y-109628257D01*
X168309366Y-109578061D01*
X168323419Y-109545567D01*
X168344654Y-109528108D01*
X168374394Y-109523017D01*
X168378936Y-109523123D01*
X168413730Y-109531825D01*
X168437147Y-109555835D01*
X168450347Y-109597100D01*
X168454489Y-109657569D01*
X168454489Y-109726044D01*
X168492841Y-109726044D01*
X168501976Y-109725994D01*
X168519227Y-109723773D01*
X168529521Y-109714506D01*
X168536459Y-109693125D01*
X168543641Y-109654564D01*
X168544575Y-109649090D01*
X168554478Y-109552140D01*
X168551559Y-109462148D01*
X168536829Y-109381240D01*
X168511299Y-109311541D01*
X168475978Y-109255176D01*
X168431879Y-109214271D01*
X168380012Y-109190949D01*
X168321388Y-109187337D01*
X168292494Y-109192855D01*
X168236604Y-109219539D01*
X168190945Y-109265727D01*
X168156108Y-109330709D01*
X168132690Y-109413771D01*
X168128241Y-109438445D01*
X168117742Y-109527774D01*
X168118971Y-109607581D01*
X168131906Y-109685674D01*
X168138696Y-109720817D01*
X168139713Y-109766255D01*
X168127182Y-109797570D01*
X168100395Y-109817723D01*
X168072148Y-109824107D01*
X168040924Y-109814621D01*
X168027499Y-109805292D01*
X168003967Y-109771057D01*
X167986095Y-109718435D01*
X167974599Y-109649919D01*
X167970192Y-109568000D01*
X167974179Y-109470850D01*
X167990494Y-109364843D01*
X168018545Y-109271031D01*
X168057452Y-109192235D01*
X168106334Y-109131281D01*
X168139195Y-109105211D01*
X168188394Y-109075703D01*
X168242252Y-109050432D01*
X168293419Y-109032782D01*
X168334544Y-109026142D01*
X168354259Y-109027702D01*
G37*
X168354259Y-109027702D02*
X168405592Y-109040643D01*
X168462118Y-109063806D01*
X168516035Y-109093698D01*
X168559539Y-109126827D01*
X168569887Y-109137023D01*
X168621662Y-109204108D01*
X168661554Y-109284234D01*
X168685956Y-109370444D01*
X168694068Y-109425408D01*
X168700673Y-109518861D01*
X168698586Y-109608642D01*
X168688340Y-109691131D01*
X168670470Y-109762714D01*
X168645508Y-109819772D01*
X168613988Y-109858689D01*
X168612012Y-109860064D01*
X168586786Y-109867152D01*
X168539535Y-109871391D01*
X168470071Y-109872800D01*
X168407838Y-109871940D01*
X168360456Y-109867220D01*
X168328353Y-109855530D01*
X168308800Y-109833761D01*
X168299070Y-109798802D01*
X168296433Y-109747544D01*
X168298161Y-109676877D01*
X168301173Y-109628257D01*
X168309366Y-109578061D01*
X168323419Y-109545567D01*
X168344654Y-109528108D01*
X168374394Y-109523017D01*
X168378936Y-109523123D01*
X168413730Y-109531825D01*
X168437147Y-109555835D01*
X168450347Y-109597100D01*
X168454489Y-109657569D01*
X168454489Y-109726044D01*
X168492841Y-109726044D01*
X168501976Y-109725994D01*
X168519227Y-109723773D01*
X168529521Y-109714506D01*
X168536459Y-109693125D01*
X168543641Y-109654564D01*
X168544575Y-109649090D01*
X168554478Y-109552140D01*
X168551559Y-109462148D01*
X168536829Y-109381240D01*
X168511299Y-109311541D01*
X168475978Y-109255176D01*
X168431879Y-109214271D01*
X168380012Y-109190949D01*
X168321388Y-109187337D01*
X168292494Y-109192855D01*
X168236604Y-109219539D01*
X168190945Y-109265727D01*
X168156108Y-109330709D01*
X168132690Y-109413771D01*
X168128241Y-109438445D01*
X168117742Y-109527774D01*
X168118971Y-109607581D01*
X168131906Y-109685674D01*
X168138696Y-109720817D01*
X168139713Y-109766255D01*
X168127182Y-109797570D01*
X168100395Y-109817723D01*
X168072148Y-109824107D01*
X168040924Y-109814621D01*
X168027499Y-109805292D01*
X168003967Y-109771057D01*
X167986095Y-109718435D01*
X167974599Y-109649919D01*
X167970192Y-109568000D01*
X167974179Y-109470850D01*
X167990494Y-109364843D01*
X168018545Y-109271031D01*
X168057452Y-109192235D01*
X168106334Y-109131281D01*
X168139195Y-109105211D01*
X168188394Y-109075703D01*
X168242252Y-109050432D01*
X168293419Y-109032782D01*
X168334544Y-109026142D01*
X168354259Y-109027702D01*
G36*
X168394486Y-110211489D02*
G01*
X168473573Y-110211708D01*
X168534516Y-110212317D01*
X168580062Y-110213508D01*
X168612963Y-110215471D01*
X168635968Y-110218397D01*
X168651826Y-110222477D01*
X168663286Y-110227903D01*
X168673100Y-110234864D01*
X168697493Y-110265292D01*
X168700372Y-110300235D01*
X168681282Y-110337216D01*
X168677807Y-110341400D01*
X168669279Y-110349576D01*
X168657728Y-110355636D01*
X168639896Y-110360019D01*
X168612524Y-110363161D01*
X168572354Y-110365498D01*
X168516128Y-110367469D01*
X168440589Y-110369511D01*
X168221458Y-110375155D01*
X168462099Y-110640444D01*
X168528875Y-110714278D01*
X168586991Y-110779458D01*
X168631949Y-110831652D01*
X168664871Y-110872727D01*
X168686879Y-110904545D01*
X168699094Y-110928974D01*
X168702639Y-110947876D01*
X168698636Y-110963117D01*
X168688207Y-110976561D01*
X168672474Y-110990073D01*
X168663991Y-110996318D01*
X168653413Y-111001950D01*
X168639255Y-111006161D01*
X168618803Y-111009113D01*
X168589342Y-111010968D01*
X168548161Y-111011887D01*
X168492544Y-111012032D01*
X168419779Y-111011565D01*
X168327151Y-111010648D01*
X168012199Y-111007333D01*
X167990633Y-110980682D01*
X167974441Y-110954617D01*
X167971670Y-110921759D01*
X167990623Y-110887228D01*
X167994208Y-110882916D01*
X168002737Y-110874784D01*
X168014329Y-110868755D01*
X168032235Y-110864394D01*
X168059706Y-110861266D01*
X168099994Y-110858937D01*
X168156351Y-110856971D01*
X168232029Y-110854933D01*
X168451878Y-110849289D01*
X168288084Y-110668666D01*
X168209451Y-110581928D01*
X168141058Y-110506157D01*
X168085708Y-110444020D01*
X168042338Y-110393922D01*
X168009881Y-110354265D01*
X167987273Y-110323452D01*
X167973448Y-110299886D01*
X167967343Y-110281970D01*
X167967892Y-110268107D01*
X167974029Y-110256699D01*
X167984691Y-110246150D01*
X167998811Y-110234864D01*
X168004772Y-110230411D01*
X168015268Y-110224412D01*
X168029093Y-110219833D01*
X168048998Y-110216481D01*
X168077732Y-110214167D01*
X168118045Y-110212699D01*
X168172687Y-110211887D01*
X168244407Y-110211540D01*
X168335956Y-110211466D01*
X168394486Y-110211489D01*
G37*
X168394486Y-110211489D02*
X168473573Y-110211708D01*
X168534516Y-110212317D01*
X168580062Y-110213508D01*
X168612963Y-110215471D01*
X168635968Y-110218397D01*
X168651826Y-110222477D01*
X168663286Y-110227903D01*
X168673100Y-110234864D01*
X168697493Y-110265292D01*
X168700372Y-110300235D01*
X168681282Y-110337216D01*
X168677807Y-110341400D01*
X168669279Y-110349576D01*
X168657728Y-110355636D01*
X168639896Y-110360019D01*
X168612524Y-110363161D01*
X168572354Y-110365498D01*
X168516128Y-110367469D01*
X168440589Y-110369511D01*
X168221458Y-110375155D01*
X168462099Y-110640444D01*
X168528875Y-110714278D01*
X168586991Y-110779458D01*
X168631949Y-110831652D01*
X168664871Y-110872727D01*
X168686879Y-110904545D01*
X168699094Y-110928974D01*
X168702639Y-110947876D01*
X168698636Y-110963117D01*
X168688207Y-110976561D01*
X168672474Y-110990073D01*
X168663991Y-110996318D01*
X168653413Y-111001950D01*
X168639255Y-111006161D01*
X168618803Y-111009113D01*
X168589342Y-111010968D01*
X168548161Y-111011887D01*
X168492544Y-111012032D01*
X168419779Y-111011565D01*
X168327151Y-111010648D01*
X168012199Y-111007333D01*
X167990633Y-110980682D01*
X167974441Y-110954617D01*
X167971670Y-110921759D01*
X167990623Y-110887228D01*
X167994208Y-110882916D01*
X168002737Y-110874784D01*
X168014329Y-110868755D01*
X168032235Y-110864394D01*
X168059706Y-110861266D01*
X168099994Y-110858937D01*
X168156351Y-110856971D01*
X168232029Y-110854933D01*
X168451878Y-110849289D01*
X168288084Y-110668666D01*
X168209451Y-110581928D01*
X168141058Y-110506157D01*
X168085708Y-110444020D01*
X168042338Y-110393922D01*
X168009881Y-110354265D01*
X167987273Y-110323452D01*
X167973448Y-110299886D01*
X167967343Y-110281970D01*
X167967892Y-110268107D01*
X167974029Y-110256699D01*
X167984691Y-110246150D01*
X167998811Y-110234864D01*
X168004772Y-110230411D01*
X168015268Y-110224412D01*
X168029093Y-110219833D01*
X168048998Y-110216481D01*
X168077732Y-110214167D01*
X168118045Y-110212699D01*
X168172687Y-110211887D01*
X168244407Y-110211540D01*
X168335956Y-110211466D01*
X168394486Y-110211489D01*
G36*
X168406911Y-111396829D02*
G01*
X168485228Y-111397061D01*
X168545496Y-111397681D01*
X168590393Y-111398874D01*
X168622602Y-111400821D01*
X168644800Y-111403706D01*
X168659669Y-111407712D01*
X168669889Y-111413021D01*
X168678138Y-111419817D01*
X168682795Y-111424332D01*
X168689282Y-111432562D01*
X168694194Y-111443922D01*
X168697749Y-111461190D01*
X168700167Y-111487145D01*
X168701667Y-111524564D01*
X168702467Y-111576227D01*
X168702787Y-111644911D01*
X168702845Y-111733394D01*
X168702838Y-111753069D01*
X168702572Y-111840094D01*
X168701806Y-111907746D01*
X168700392Y-111958701D01*
X168698180Y-111995633D01*
X168695022Y-112021217D01*
X168690769Y-112038129D01*
X168685271Y-112049043D01*
X168675285Y-112059536D01*
X168644168Y-112072797D01*
X168608280Y-112071614D01*
X168576733Y-112055450D01*
X168574457Y-112053261D01*
X168568189Y-112044573D01*
X168563523Y-112031231D01*
X168560227Y-112010248D01*
X168558068Y-111978637D01*
X168556814Y-111933410D01*
X168556231Y-111871580D01*
X168556089Y-111790161D01*
X168556089Y-111543555D01*
X168398045Y-111543555D01*
X168398045Y-111705994D01*
X168397964Y-111741662D01*
X168397167Y-111797432D01*
X168395162Y-111836570D01*
X168391521Y-111863024D01*
X168385812Y-111880741D01*
X168377607Y-111893671D01*
X168374423Y-111897314D01*
X168343448Y-111915722D01*
X168307112Y-111916356D01*
X168273493Y-111898817D01*
X168273424Y-111898755D01*
X168264798Y-111889084D01*
X168258742Y-111875791D01*
X168254811Y-111855083D01*
X168252556Y-111823172D01*
X168251531Y-111776266D01*
X168251289Y-111710576D01*
X168251289Y-111542429D01*
X168186378Y-111545814D01*
X168121467Y-111549200D01*
X168118414Y-111791277D01*
X168118086Y-111816293D01*
X168116606Y-111897913D01*
X168114222Y-111960232D01*
X168110227Y-112005846D01*
X168103913Y-112037348D01*
X168094574Y-112057333D01*
X168081503Y-112068396D01*
X168063992Y-112073131D01*
X168041335Y-112074133D01*
X168038970Y-112074127D01*
X168018939Y-112072973D01*
X168003146Y-112068176D01*
X167991090Y-112057368D01*
X167982267Y-112038183D01*
X167976175Y-112008255D01*
X167972311Y-111965217D01*
X167970174Y-111906701D01*
X167969260Y-111830343D01*
X167969067Y-111733774D01*
X167969067Y-111443594D01*
X167998811Y-111420197D01*
X168005495Y-111415248D01*
X168016066Y-111409404D01*
X168030153Y-111404943D01*
X168050478Y-111401679D01*
X168079765Y-111399426D01*
X168120737Y-111397998D01*
X168176117Y-111397208D01*
X168248628Y-111396871D01*
X168340994Y-111396800D01*
X168406911Y-111396829D01*
G37*
X168406911Y-111396829D02*
X168485228Y-111397061D01*
X168545496Y-111397681D01*
X168590393Y-111398874D01*
X168622602Y-111400821D01*
X168644800Y-111403706D01*
X168659669Y-111407712D01*
X168669889Y-111413021D01*
X168678138Y-111419817D01*
X168682795Y-111424332D01*
X168689282Y-111432562D01*
X168694194Y-111443922D01*
X168697749Y-111461190D01*
X168700167Y-111487145D01*
X168701667Y-111524564D01*
X168702467Y-111576227D01*
X168702787Y-111644911D01*
X168702845Y-111733394D01*
X168702838Y-111753069D01*
X168702572Y-111840094D01*
X168701806Y-111907746D01*
X168700392Y-111958701D01*
X168698180Y-111995633D01*
X168695022Y-112021217D01*
X168690769Y-112038129D01*
X168685271Y-112049043D01*
X168675285Y-112059536D01*
X168644168Y-112072797D01*
X168608280Y-112071614D01*
X168576733Y-112055450D01*
X168574457Y-112053261D01*
X168568189Y-112044573D01*
X168563523Y-112031231D01*
X168560227Y-112010248D01*
X168558068Y-111978637D01*
X168556814Y-111933410D01*
X168556231Y-111871580D01*
X168556089Y-111790161D01*
X168556089Y-111543555D01*
X168398045Y-111543555D01*
X168398045Y-111705994D01*
X168397964Y-111741662D01*
X168397167Y-111797432D01*
X168395162Y-111836570D01*
X168391521Y-111863024D01*
X168385812Y-111880741D01*
X168377607Y-111893671D01*
X168374423Y-111897314D01*
X168343448Y-111915722D01*
X168307112Y-111916356D01*
X168273493Y-111898817D01*
X168273424Y-111898755D01*
X168264798Y-111889084D01*
X168258742Y-111875791D01*
X168254811Y-111855083D01*
X168252556Y-111823172D01*
X168251531Y-111776266D01*
X168251289Y-111710576D01*
X168251289Y-111542429D01*
X168186378Y-111545814D01*
X168121467Y-111549200D01*
X168118414Y-111791277D01*
X168118086Y-111816293D01*
X168116606Y-111897913D01*
X168114222Y-111960232D01*
X168110227Y-112005846D01*
X168103913Y-112037348D01*
X168094574Y-112057333D01*
X168081503Y-112068396D01*
X168063992Y-112073131D01*
X168041335Y-112074133D01*
X168038970Y-112074127D01*
X168018939Y-112072973D01*
X168003146Y-112068176D01*
X167991090Y-112057368D01*
X167982267Y-112038183D01*
X167976175Y-112008255D01*
X167972311Y-111965217D01*
X167970174Y-111906701D01*
X167969260Y-111830343D01*
X167969067Y-111733774D01*
X167969067Y-111443594D01*
X167998811Y-111420197D01*
X168005495Y-111415248D01*
X168016066Y-111409404D01*
X168030153Y-111404943D01*
X168050478Y-111401679D01*
X168079765Y-111399426D01*
X168120737Y-111397998D01*
X168176117Y-111397208D01*
X168248628Y-111396871D01*
X168340994Y-111396800D01*
X168406911Y-111396829D01*
G36*
X168395526Y-112412825D02*
G01*
X168474311Y-112413050D01*
X168535021Y-112413668D01*
X168556089Y-112414225D01*
X168580396Y-112414867D01*
X168613175Y-112416837D01*
X168636095Y-112419765D01*
X168651897Y-112423842D01*
X168663319Y-112429257D01*
X168673100Y-112436197D01*
X168702845Y-112459594D01*
X168702251Y-112625286D01*
X168701953Y-112660082D01*
X168698522Y-112758565D01*
X168690839Y-112839527D01*
X168678282Y-112906621D01*
X168660227Y-112963504D01*
X168636052Y-113013831D01*
X168634135Y-113017190D01*
X168597417Y-113075002D01*
X168560451Y-113117356D01*
X168516966Y-113150172D01*
X168460689Y-113179372D01*
X168451073Y-113183654D01*
X168387887Y-113206231D01*
X168332509Y-113213203D01*
X168277483Y-113204601D01*
X168215351Y-113180459D01*
X168213658Y-113179663D01*
X168144236Y-113139212D01*
X168087638Y-113088527D01*
X168043070Y-113025802D01*
X168009741Y-112949226D01*
X167986861Y-112856991D01*
X167973636Y-112747288D01*
X167969275Y-112618309D01*
X167969270Y-112614737D01*
X167969372Y-112570844D01*
X168115822Y-112570844D01*
X168116270Y-112658333D01*
X168118746Y-112725253D01*
X168129998Y-112817651D01*
X168149537Y-112896966D01*
X168176511Y-112958940D01*
X168197240Y-112989880D01*
X168227006Y-113018000D01*
X168269434Y-113041340D01*
X168285400Y-113048467D01*
X168317902Y-113060291D01*
X168342333Y-113062721D01*
X168367061Y-113057108D01*
X168382939Y-113051382D01*
X168442847Y-113018452D01*
X168488600Y-112971114D01*
X168521736Y-112907348D01*
X168543790Y-112825139D01*
X168544292Y-112822345D01*
X168550255Y-112776060D01*
X168554483Y-112719664D01*
X168556089Y-112664726D01*
X168556089Y-112570844D01*
X168115822Y-112570844D01*
X167969372Y-112570844D01*
X167969410Y-112554717D01*
X167970446Y-112512786D01*
X167973040Y-112484672D01*
X167977853Y-112466103D01*
X167985544Y-112452806D01*
X167996776Y-112440509D01*
X168024485Y-112412800D01*
X168333920Y-112412800D01*
X168395526Y-112412825D01*
G37*
X168395526Y-112412825D02*
X168474311Y-112413050D01*
X168535021Y-112413668D01*
X168556089Y-112414225D01*
X168580396Y-112414867D01*
X168613175Y-112416837D01*
X168636095Y-112419765D01*
X168651897Y-112423842D01*
X168663319Y-112429257D01*
X168673100Y-112436197D01*
X168702845Y-112459594D01*
X168702251Y-112625286D01*
X168701953Y-112660082D01*
X168698522Y-112758565D01*
X168690839Y-112839527D01*
X168678282Y-112906621D01*
X168660227Y-112963504D01*
X168636052Y-113013831D01*
X168634135Y-113017190D01*
X168597417Y-113075002D01*
X168560451Y-113117356D01*
X168516966Y-113150172D01*
X168460689Y-113179372D01*
X168451073Y-113183654D01*
X168387887Y-113206231D01*
X168332509Y-113213203D01*
X168277483Y-113204601D01*
X168215351Y-113180459D01*
X168213658Y-113179663D01*
X168144236Y-113139212D01*
X168087638Y-113088527D01*
X168043070Y-113025802D01*
X168009741Y-112949226D01*
X167986861Y-112856991D01*
X167973636Y-112747288D01*
X167969275Y-112618309D01*
X167969270Y-112614737D01*
X167969372Y-112570844D01*
X168115822Y-112570844D01*
X168116270Y-112658333D01*
X168118746Y-112725253D01*
X168129998Y-112817651D01*
X168149537Y-112896966D01*
X168176511Y-112958940D01*
X168197240Y-112989880D01*
X168227006Y-113018000D01*
X168269434Y-113041340D01*
X168285400Y-113048467D01*
X168317902Y-113060291D01*
X168342333Y-113062721D01*
X168367061Y-113057108D01*
X168382939Y-113051382D01*
X168442847Y-113018452D01*
X168488600Y-112971114D01*
X168521736Y-112907348D01*
X168543790Y-112825139D01*
X168544292Y-112822345D01*
X168550255Y-112776060D01*
X168554483Y-112719664D01*
X168556089Y-112664726D01*
X168556089Y-112570844D01*
X168115822Y-112570844D01*
X167969372Y-112570844D01*
X167969410Y-112554717D01*
X167970446Y-112512786D01*
X167973040Y-112484672D01*
X167977853Y-112466103D01*
X167985544Y-112452806D01*
X167996776Y-112440509D01*
X168024485Y-112412800D01*
X168333920Y-112412800D01*
X168395526Y-112412825D01*
G36*
X168051915Y-114304772D02*
G01*
X168086481Y-114317636D01*
X168134826Y-114337395D01*
X168193825Y-114362619D01*
X168260355Y-114391881D01*
X168331291Y-114423750D01*
X168403507Y-114456799D01*
X168473880Y-114489599D01*
X168539285Y-114520720D01*
X168596597Y-114548735D01*
X168642692Y-114572214D01*
X168674446Y-114589728D01*
X168688733Y-114599849D01*
X168702102Y-114634257D01*
X168695741Y-114675954D01*
X168691044Y-114681319D01*
X168668893Y-114697148D01*
X168632132Y-114719350D01*
X168584415Y-114745767D01*
X168529393Y-114774240D01*
X168370150Y-114854014D01*
X168516742Y-114927201D01*
X168536032Y-114936897D01*
X168588380Y-114963875D01*
X168633170Y-114987904D01*
X168666154Y-115006668D01*
X168683089Y-115017854D01*
X168684332Y-115019000D01*
X168699619Y-115047121D01*
X168701302Y-115082183D01*
X168688733Y-115113224D01*
X168685884Y-115115650D01*
X168665259Y-115127910D01*
X168627708Y-115147648D01*
X168575880Y-115173552D01*
X168512423Y-115204315D01*
X168439985Y-115238625D01*
X168361216Y-115275175D01*
X168317093Y-115295415D01*
X168236365Y-115332188D01*
X168172687Y-115360645D01*
X168123752Y-115381669D01*
X168087257Y-115396146D01*
X168060895Y-115404961D01*
X168042361Y-115408996D01*
X168029352Y-115409138D01*
X168019561Y-115406270D01*
X167998678Y-115391613D01*
X167978377Y-115365010D01*
X167978035Y-115364255D01*
X167971034Y-115344665D01*
X167970504Y-115327210D01*
X167978478Y-115310298D01*
X167996989Y-115292337D01*
X168028071Y-115271737D01*
X168073756Y-115246905D01*
X168136078Y-115216250D01*
X168217071Y-115178180D01*
X168248454Y-115163546D01*
X168311638Y-115133797D01*
X168366244Y-115107703D01*
X168409290Y-115086708D01*
X168437793Y-115072261D01*
X168448770Y-115065809D01*
X168448189Y-115064450D01*
X168434242Y-115054458D01*
X168404704Y-115037167D01*
X168363087Y-115014570D01*
X168312903Y-114988662D01*
X168281414Y-114972689D01*
X168226061Y-114943739D01*
X168187044Y-114921251D01*
X168161566Y-114903035D01*
X168146831Y-114886904D01*
X168140042Y-114870670D01*
X168138400Y-114852143D01*
X168138875Y-114841640D01*
X168143082Y-114825524D01*
X168153946Y-114810210D01*
X168174219Y-114793612D01*
X168206654Y-114773643D01*
X168254004Y-114748217D01*
X168319022Y-114715248D01*
X168338277Y-114705515D01*
X168384946Y-114681057D01*
X168421109Y-114660822D01*
X168443497Y-114646689D01*
X168448845Y-114640540D01*
X168445573Y-114639173D01*
X168424664Y-114629798D01*
X168387725Y-114612938D01*
X168337874Y-114590021D01*
X168278226Y-114562480D01*
X168211898Y-114531745D01*
X168154677Y-114505030D01*
X168092688Y-114475407D01*
X168046949Y-114452336D01*
X168014908Y-114434357D01*
X167994014Y-114420010D01*
X167981718Y-114407834D01*
X167975466Y-114396368D01*
X167972574Y-114386958D01*
X167972425Y-114361853D01*
X167987768Y-114334710D01*
X167988753Y-114333410D01*
X168011388Y-114311326D01*
X168033613Y-114300277D01*
X168034253Y-114300231D01*
X168051915Y-114304772D01*
G37*
X168051915Y-114304772D02*
X168086481Y-114317636D01*
X168134826Y-114337395D01*
X168193825Y-114362619D01*
X168260355Y-114391881D01*
X168331291Y-114423750D01*
X168403507Y-114456799D01*
X168473880Y-114489599D01*
X168539285Y-114520720D01*
X168596597Y-114548735D01*
X168642692Y-114572214D01*
X168674446Y-114589728D01*
X168688733Y-114599849D01*
X168702102Y-114634257D01*
X168695741Y-114675954D01*
X168691044Y-114681319D01*
X168668893Y-114697148D01*
X168632132Y-114719350D01*
X168584415Y-114745767D01*
X168529393Y-114774240D01*
X168370150Y-114854014D01*
X168516742Y-114927201D01*
X168536032Y-114936897D01*
X168588380Y-114963875D01*
X168633170Y-114987904D01*
X168666154Y-115006668D01*
X168683089Y-115017854D01*
X168684332Y-115019000D01*
X168699619Y-115047121D01*
X168701302Y-115082183D01*
X168688733Y-115113224D01*
X168685884Y-115115650D01*
X168665259Y-115127910D01*
X168627708Y-115147648D01*
X168575880Y-115173552D01*
X168512423Y-115204315D01*
X168439985Y-115238625D01*
X168361216Y-115275175D01*
X168317093Y-115295415D01*
X168236365Y-115332188D01*
X168172687Y-115360645D01*
X168123752Y-115381669D01*
X168087257Y-115396146D01*
X168060895Y-115404961D01*
X168042361Y-115408996D01*
X168029352Y-115409138D01*
X168019561Y-115406270D01*
X167998678Y-115391613D01*
X167978377Y-115365010D01*
X167978035Y-115364255D01*
X167971034Y-115344665D01*
X167970504Y-115327210D01*
X167978478Y-115310298D01*
X167996989Y-115292337D01*
X168028071Y-115271737D01*
X168073756Y-115246905D01*
X168136078Y-115216250D01*
X168217071Y-115178180D01*
X168248454Y-115163546D01*
X168311638Y-115133797D01*
X168366244Y-115107703D01*
X168409290Y-115086708D01*
X168437793Y-115072261D01*
X168448770Y-115065809D01*
X168448189Y-115064450D01*
X168434242Y-115054458D01*
X168404704Y-115037167D01*
X168363087Y-115014570D01*
X168312903Y-114988662D01*
X168281414Y-114972689D01*
X168226061Y-114943739D01*
X168187044Y-114921251D01*
X168161566Y-114903035D01*
X168146831Y-114886904D01*
X168140042Y-114870670D01*
X168138400Y-114852143D01*
X168138875Y-114841640D01*
X168143082Y-114825524D01*
X168153946Y-114810210D01*
X168174219Y-114793612D01*
X168206654Y-114773643D01*
X168254004Y-114748217D01*
X168319022Y-114715248D01*
X168338277Y-114705515D01*
X168384946Y-114681057D01*
X168421109Y-114660822D01*
X168443497Y-114646689D01*
X168448845Y-114640540D01*
X168445573Y-114639173D01*
X168424664Y-114629798D01*
X168387725Y-114612938D01*
X168337874Y-114590021D01*
X168278226Y-114562480D01*
X168211898Y-114531745D01*
X168154677Y-114505030D01*
X168092688Y-114475407D01*
X168046949Y-114452336D01*
X168014908Y-114434357D01*
X167994014Y-114420010D01*
X167981718Y-114407834D01*
X167975466Y-114396368D01*
X167972574Y-114386958D01*
X167972425Y-114361853D01*
X167987768Y-114334710D01*
X167988753Y-114333410D01*
X168011388Y-114311326D01*
X168033613Y-114300277D01*
X168034253Y-114300231D01*
X168051915Y-114304772D01*
G36*
X168681264Y-115718873D02*
G01*
X168698739Y-115750233D01*
X168699575Y-115786034D01*
X168679082Y-115817472D01*
X168674416Y-115821348D01*
X168664949Y-115826814D01*
X168651267Y-115831021D01*
X168630748Y-115834133D01*
X168600768Y-115836313D01*
X168558704Y-115837724D01*
X168501932Y-115838529D01*
X168427830Y-115838893D01*
X168333773Y-115838978D01*
X168012227Y-115838978D01*
X167990647Y-115812327D01*
X167975877Y-115788614D01*
X167969067Y-115765600D01*
X167974949Y-115744594D01*
X167990647Y-115718873D01*
X168012227Y-115692222D01*
X168659684Y-115692222D01*
X168681264Y-115718873D01*
G37*
X168681264Y-115718873D02*
X168698739Y-115750233D01*
X168699575Y-115786034D01*
X168679082Y-115817472D01*
X168674416Y-115821348D01*
X168664949Y-115826814D01*
X168651267Y-115831021D01*
X168630748Y-115834133D01*
X168600768Y-115836313D01*
X168558704Y-115837724D01*
X168501932Y-115838529D01*
X168427830Y-115838893D01*
X168333773Y-115838978D01*
X168012227Y-115838978D01*
X167990647Y-115812327D01*
X167975877Y-115788614D01*
X167969067Y-115765600D01*
X167974949Y-115744594D01*
X167990647Y-115718873D01*
X168012227Y-115692222D01*
X168659684Y-115692222D01*
X168681264Y-115718873D01*
G36*
X168095178Y-116089083D02*
G01*
X168096631Y-116090443D01*
X168104992Y-116101646D01*
X168110547Y-116118748D01*
X168113840Y-116145918D01*
X168115418Y-116187322D01*
X168115822Y-116247127D01*
X168115822Y-116386489D01*
X168379589Y-116386489D01*
X168455417Y-116386564D01*
X168522083Y-116386972D01*
X168571867Y-116387954D01*
X168607784Y-116389750D01*
X168632850Y-116392601D01*
X168650081Y-116396747D01*
X168662492Y-116402429D01*
X168673100Y-116409886D01*
X168675906Y-116412176D01*
X168698548Y-116443354D01*
X168700112Y-116477734D01*
X168680267Y-116510666D01*
X168672191Y-116517645D01*
X168661593Y-116523117D01*
X168645749Y-116527137D01*
X168621773Y-116529928D01*
X168586774Y-116531712D01*
X168537864Y-116532711D01*
X168472154Y-116533148D01*
X168386756Y-116533244D01*
X168115822Y-116533244D01*
X168115822Y-116679180D01*
X168115821Y-116690280D01*
X168115596Y-116746798D01*
X168114457Y-116785642D01*
X168111657Y-116811035D01*
X168106450Y-116827196D01*
X168098089Y-116838348D01*
X168085826Y-116848711D01*
X168055138Y-116864559D01*
X168021358Y-116861457D01*
X167988822Y-116835813D01*
X167985105Y-116830871D01*
X167980269Y-116820662D01*
X167976506Y-116805236D01*
X167973683Y-116782114D01*
X167971670Y-116748817D01*
X167970333Y-116702863D01*
X167969542Y-116641772D01*
X167969163Y-116563065D01*
X167969067Y-116464260D01*
X167969068Y-116444233D01*
X167969158Y-116350110D01*
X167969498Y-116275595D01*
X167970239Y-116218189D01*
X167971535Y-116175389D01*
X167973537Y-116144696D01*
X167976396Y-116123609D01*
X167980266Y-116109627D01*
X167985298Y-116100250D01*
X167991645Y-116092978D01*
X168024362Y-116074172D01*
X168061939Y-116072725D01*
X168095178Y-116089083D01*
G37*
X168095178Y-116089083D02*
X168096631Y-116090443D01*
X168104992Y-116101646D01*
X168110547Y-116118748D01*
X168113840Y-116145918D01*
X168115418Y-116187322D01*
X168115822Y-116247127D01*
X168115822Y-116386489D01*
X168379589Y-116386489D01*
X168455417Y-116386564D01*
X168522083Y-116386972D01*
X168571867Y-116387954D01*
X168607784Y-116389750D01*
X168632850Y-116392601D01*
X168650081Y-116396747D01*
X168662492Y-116402429D01*
X168673100Y-116409886D01*
X168675906Y-116412176D01*
X168698548Y-116443354D01*
X168700112Y-116477734D01*
X168680267Y-116510666D01*
X168672191Y-116517645D01*
X168661593Y-116523117D01*
X168645749Y-116527137D01*
X168621773Y-116529928D01*
X168586774Y-116531712D01*
X168537864Y-116532711D01*
X168472154Y-116533148D01*
X168386756Y-116533244D01*
X168115822Y-116533244D01*
X168115822Y-116679180D01*
X168115821Y-116690280D01*
X168115596Y-116746798D01*
X168114457Y-116785642D01*
X168111657Y-116811035D01*
X168106450Y-116827196D01*
X168098089Y-116838348D01*
X168085826Y-116848711D01*
X168055138Y-116864559D01*
X168021358Y-116861457D01*
X167988822Y-116835813D01*
X167985105Y-116830871D01*
X167980269Y-116820662D01*
X167976506Y-116805236D01*
X167973683Y-116782114D01*
X167971670Y-116748817D01*
X167970333Y-116702863D01*
X167969542Y-116641772D01*
X167969163Y-116563065D01*
X167969067Y-116464260D01*
X167969068Y-116444233D01*
X167969158Y-116350110D01*
X167969498Y-116275595D01*
X167970239Y-116218189D01*
X167971535Y-116175389D01*
X167973537Y-116144696D01*
X167976396Y-116123609D01*
X167980266Y-116109627D01*
X167985298Y-116100250D01*
X167991645Y-116092978D01*
X168024362Y-116074172D01*
X168061939Y-116072725D01*
X168095178Y-116089083D01*
G36*
X168377631Y-117096891D02*
G01*
X168494000Y-117097375D01*
X168508175Y-117097443D01*
X168569937Y-117098029D01*
X168613620Y-117099352D01*
X168643001Y-117101897D01*
X168661855Y-117106152D01*
X168673959Y-117112604D01*
X168683089Y-117121738D01*
X168700506Y-117155196D01*
X168697604Y-117190144D01*
X168673100Y-117221047D01*
X168659897Y-117230056D01*
X168641361Y-117237508D01*
X168615333Y-117241876D01*
X168576787Y-117243931D01*
X168520700Y-117244444D01*
X168398045Y-117244444D01*
X168398045Y-117741155D01*
X168532871Y-117741155D01*
X168568662Y-117741228D01*
X168614992Y-117741991D01*
X168645526Y-117744167D01*
X168664557Y-117748464D01*
X168676374Y-117755588D01*
X168685271Y-117766245D01*
X168700341Y-117798496D01*
X168697673Y-117833783D01*
X168673100Y-117864514D01*
X168666845Y-117869169D01*
X168656321Y-117875105D01*
X168642391Y-117879636D01*
X168622317Y-117882952D01*
X168593360Y-117885241D01*
X168552780Y-117886692D01*
X168497840Y-117887495D01*
X168425799Y-117887838D01*
X168333920Y-117887911D01*
X168024485Y-117887911D01*
X167996776Y-117860202D01*
X167974533Y-117828823D01*
X167971844Y-117795594D01*
X167991645Y-117763733D01*
X168001415Y-117755447D01*
X168017307Y-117748035D01*
X168041275Y-117743698D01*
X168078148Y-117741662D01*
X168132756Y-117741155D01*
X168251289Y-117741155D01*
X168251289Y-117244444D01*
X168135776Y-117244444D01*
X168084078Y-117244006D01*
X168049554Y-117242042D01*
X168026978Y-117237526D01*
X168011126Y-117229433D01*
X167996776Y-117216735D01*
X167974533Y-117185357D01*
X167971844Y-117152128D01*
X167991645Y-117120266D01*
X167997835Y-117114634D01*
X168006041Y-117109544D01*
X168017817Y-117105457D01*
X168035276Y-117102279D01*
X168060530Y-117099913D01*
X168095690Y-117098262D01*
X168142869Y-117097231D01*
X168204177Y-117096723D01*
X168281727Y-117096641D01*
X168377631Y-117096891D01*
G37*
X168377631Y-117096891D02*
X168494000Y-117097375D01*
X168508175Y-117097443D01*
X168569937Y-117098029D01*
X168613620Y-117099352D01*
X168643001Y-117101897D01*
X168661855Y-117106152D01*
X168673959Y-117112604D01*
X168683089Y-117121738D01*
X168700506Y-117155196D01*
X168697604Y-117190144D01*
X168673100Y-117221047D01*
X168659897Y-117230056D01*
X168641361Y-117237508D01*
X168615333Y-117241876D01*
X168576787Y-117243931D01*
X168520700Y-117244444D01*
X168398045Y-117244444D01*
X168398045Y-117741155D01*
X168532871Y-117741155D01*
X168568662Y-117741228D01*
X168614992Y-117741991D01*
X168645526Y-117744167D01*
X168664557Y-117748464D01*
X168676374Y-117755588D01*
X168685271Y-117766245D01*
X168700341Y-117798496D01*
X168697673Y-117833783D01*
X168673100Y-117864514D01*
X168666845Y-117869169D01*
X168656321Y-117875105D01*
X168642391Y-117879636D01*
X168622317Y-117882952D01*
X168593360Y-117885241D01*
X168552780Y-117886692D01*
X168497840Y-117887495D01*
X168425799Y-117887838D01*
X168333920Y-117887911D01*
X168024485Y-117887911D01*
X167996776Y-117860202D01*
X167974533Y-117828823D01*
X167971844Y-117795594D01*
X167991645Y-117763733D01*
X168001415Y-117755447D01*
X168017307Y-117748035D01*
X168041275Y-117743698D01*
X168078148Y-117741662D01*
X168132756Y-117741155D01*
X168251289Y-117741155D01*
X168251289Y-117244444D01*
X168135776Y-117244444D01*
X168084078Y-117244006D01*
X168049554Y-117242042D01*
X168026978Y-117237526D01*
X168011126Y-117229433D01*
X167996776Y-117216735D01*
X167974533Y-117185357D01*
X167971844Y-117152128D01*
X167991645Y-117120266D01*
X167997835Y-117114634D01*
X168006041Y-117109544D01*
X168017817Y-117105457D01*
X168035276Y-117102279D01*
X168060530Y-117099913D01*
X168095690Y-117098262D01*
X168142869Y-117097231D01*
X168204177Y-117096723D01*
X168281727Y-117096641D01*
X168377631Y-117096891D01*
G36*
X144658918Y-97564026D02*
G01*
X144657622Y-97564496D01*
X144663667Y-97559000D01*
X144658918Y-97564026D01*
G37*
X144658918Y-97564026D02*
X144657622Y-97564496D01*
X144663667Y-97559000D01*
X144658918Y-97564026D01*
G36*
X144508444Y-97700111D02*
G01*
X144353222Y-97841222D01*
X144490995Y-97695368D01*
X144496551Y-97689526D01*
X144568476Y-97620721D01*
X144628050Y-97575216D01*
X144657622Y-97564496D01*
X144508444Y-97700111D01*
G37*
X144508444Y-97700111D02*
X144353222Y-97841222D01*
X144490995Y-97695368D01*
X144496551Y-97689526D01*
X144568476Y-97620721D01*
X144628050Y-97575216D01*
X144657622Y-97564496D01*
X144508444Y-97700111D01*
G36*
X144920526Y-101023786D02*
G01*
X144919253Y-101022898D01*
X144879877Y-101027726D01*
X144794951Y-101056053D01*
X144668875Y-101106142D01*
X144506054Y-101176252D01*
X144310889Y-101264645D01*
X144298271Y-101270420D01*
X144104056Y-101342880D01*
X143929889Y-101373699D01*
X143836886Y-101384295D01*
X143698516Y-101409414D01*
X143569275Y-101441534D01*
X143377995Y-101498098D01*
X143209442Y-101368400D01*
X143125692Y-101301082D01*
X143072161Y-101247128D01*
X143047102Y-101199936D01*
X143040889Y-101146853D01*
X143041265Y-101134457D01*
X143072900Y-101035725D01*
X143103798Y-101002111D01*
X144931778Y-101002111D01*
X144945889Y-101016222D01*
X144960000Y-101002111D01*
X144945889Y-100988000D01*
X144931778Y-101002111D01*
X143103798Y-101002111D01*
X143147585Y-100954476D01*
X143254210Y-100896959D01*
X143381666Y-100869420D01*
X143518844Y-100878104D01*
X143550889Y-100881759D01*
X143664366Y-100869506D01*
X143815232Y-100827129D01*
X143997311Y-100756591D01*
X144204431Y-100659858D01*
X144373269Y-100550743D01*
X144536501Y-100389550D01*
X144663654Y-100197803D01*
X144669503Y-100185445D01*
X144698234Y-100106481D01*
X144731140Y-99995655D01*
X144763227Y-99871921D01*
X144789499Y-99754236D01*
X144804962Y-99661555D01*
X144809894Y-99634859D01*
X144830450Y-99554757D01*
X144862352Y-99445768D01*
X144901153Y-99323514D01*
X144924975Y-99248460D01*
X144955312Y-99141991D01*
X144973636Y-99062427D01*
X144976635Y-99022955D01*
X144959457Y-99010705D01*
X144895562Y-98999940D01*
X144797283Y-98998000D01*
X144677384Y-99004469D01*
X144548627Y-99018931D01*
X144423778Y-99040971D01*
X144360611Y-99054590D01*
X144224621Y-99083129D01*
X144131958Y-99100759D01*
X144074106Y-99108779D01*
X144042550Y-99108487D01*
X144028775Y-99101180D01*
X144014033Y-99091804D01*
X143956406Y-99069920D01*
X143873444Y-99045860D01*
X143792274Y-99017286D01*
X143677501Y-98961861D01*
X143570055Y-98896358D01*
X143562043Y-98890784D01*
X143484017Y-98838780D01*
X143428757Y-98805998D01*
X143407778Y-98799324D01*
X143407649Y-98799896D01*
X143386290Y-98787606D01*
X143335452Y-98745205D01*
X143265373Y-98681182D01*
X143262468Y-98678444D01*
X143189230Y-98612255D01*
X143132053Y-98565621D01*
X143103095Y-98548485D01*
X143083360Y-98538134D01*
X143032977Y-98497228D01*
X142967050Y-98435596D01*
X142920910Y-98390676D01*
X142837389Y-98311629D01*
X142769495Y-98249958D01*
X142753426Y-98235531D01*
X142677046Y-98160550D01*
X142603444Y-98080625D01*
X142574568Y-98046231D01*
X142547682Y-98006122D01*
X142531479Y-97960540D01*
X142523476Y-97896742D01*
X142521188Y-97801988D01*
X142522132Y-97663537D01*
X142522660Y-97618407D01*
X142525580Y-97491805D01*
X142531805Y-97406137D01*
X142543497Y-97349332D01*
X142562820Y-97309312D01*
X142591939Y-97274004D01*
X142628475Y-97241982D01*
X142698132Y-97218248D01*
X142782758Y-97237232D01*
X142892280Y-97299786D01*
X142893996Y-97300947D01*
X142957194Y-97349519D01*
X142994824Y-97400378D01*
X143015612Y-97471576D01*
X143028282Y-97581163D01*
X143030302Y-97602641D01*
X143042380Y-97670030D01*
X143068663Y-97725948D01*
X143118849Y-97786289D01*
X143202634Y-97866949D01*
X143221528Y-97884334D01*
X143298376Y-97952751D01*
X143357230Y-98001572D01*
X143386611Y-98021174D01*
X143409995Y-98031838D01*
X143454045Y-98068771D01*
X143490824Y-98112645D01*
X143501288Y-98143195D01*
X143504186Y-98162262D01*
X143544063Y-98190614D01*
X143610576Y-98213080D01*
X143686307Y-98222222D01*
X143752153Y-98217979D01*
X143822893Y-98199406D01*
X143900603Y-98160513D01*
X143996838Y-98095370D01*
X144123153Y-97998046D01*
X144184465Y-97950577D01*
X144270120Y-97888941D01*
X144333309Y-97849385D01*
X144363526Y-97838869D01*
X144364923Y-97839404D01*
X144396962Y-97823592D01*
X144454065Y-97775968D01*
X144524865Y-97705899D01*
X144658918Y-97564026D01*
X144662862Y-97562596D01*
X144686373Y-97563265D01*
X144730570Y-97535178D01*
X144761301Y-97511488D01*
X144833604Y-97472824D01*
X144925592Y-97433686D01*
X145000222Y-97405648D01*
X145077431Y-97373400D01*
X145131749Y-97339157D01*
X145167299Y-97293848D01*
X145188203Y-97228403D01*
X145198582Y-97133754D01*
X145202560Y-97000829D01*
X145204259Y-96820560D01*
X145205618Y-96702894D01*
X145209778Y-96512852D01*
X145216943Y-96362921D01*
X145228281Y-96242350D01*
X145244963Y-96140383D01*
X145268159Y-96046268D01*
X145299038Y-95949252D01*
X145306375Y-95927709D01*
X145329889Y-95847798D01*
X145337885Y-95780526D01*
X145331064Y-95703404D01*
X145310130Y-95593944D01*
X145284137Y-95482938D01*
X145252835Y-95371445D01*
X145224533Y-95290559D01*
X145218722Y-95276612D01*
X145189318Y-95194851D01*
X145173449Y-95131889D01*
X145173433Y-95131771D01*
X145161982Y-95064283D01*
X145144914Y-94981356D01*
X145128423Y-94924338D01*
X145101349Y-94899536D01*
X145049560Y-94905903D01*
X144987711Y-94916407D01*
X144888717Y-94927190D01*
X144776788Y-94935346D01*
X144676969Y-94943825D01*
X144525287Y-94964181D01*
X144390572Y-94989684D01*
X144292154Y-95009109D01*
X144208502Y-95019237D01*
X144161042Y-95017157D01*
X144143740Y-95015861D01*
X144077910Y-95026709D01*
X143980750Y-95052109D01*
X143866369Y-95088639D01*
X143830787Y-95100821D01*
X143723566Y-95134463D01*
X143627276Y-95157192D01*
X143525073Y-95171602D01*
X143400115Y-95180289D01*
X143235559Y-95185850D01*
X142857582Y-95195524D01*
X142769660Y-95102299D01*
X142756240Y-95088023D01*
X142720099Y-95045738D01*
X142698876Y-95004823D01*
X142689512Y-94950842D01*
X142688944Y-94869355D01*
X142694113Y-94745926D01*
X142696796Y-94693043D01*
X142705293Y-94581973D01*
X142717827Y-94509829D01*
X142737364Y-94463783D01*
X142766865Y-94431009D01*
X142767243Y-94430686D01*
X142836278Y-94394471D01*
X142927010Y-94395694D01*
X142935846Y-94397147D01*
X143011544Y-94409315D01*
X143061518Y-94416888D01*
X143074090Y-94423959D01*
X143108238Y-94470099D01*
X143142963Y-94543926D01*
X143147211Y-94554928D01*
X143180908Y-94626224D01*
X143217306Y-94658589D01*
X143271306Y-94666222D01*
X143299540Y-94663164D01*
X143390928Y-94635568D01*
X143509227Y-94584293D01*
X143641088Y-94515484D01*
X143773161Y-94435284D01*
X143800504Y-94418357D01*
X143841174Y-94399997D01*
X143846146Y-94410727D01*
X143852426Y-94415196D01*
X143897486Y-94399574D01*
X143976179Y-94363986D01*
X144079825Y-94312942D01*
X144199739Y-94250951D01*
X144327239Y-94182522D01*
X144453643Y-94112163D01*
X144570268Y-94044384D01*
X144668432Y-93983695D01*
X144758610Y-93918259D01*
X144856550Y-93830845D01*
X144924741Y-93750770D01*
X144943108Y-93722284D01*
X144974798Y-93662382D01*
X144992175Y-93599752D01*
X144998965Y-93516517D01*
X144998889Y-93394803D01*
X145001197Y-93250739D01*
X145015463Y-93138785D01*
X145043749Y-93054330D01*
X145064418Y-93009301D01*
X145076853Y-92960057D01*
X145061890Y-92915291D01*
X145016189Y-92850266D01*
X144992179Y-92820098D01*
X144947670Y-92775725D01*
X144921823Y-92766473D01*
X144912769Y-92769974D01*
X144903555Y-92742784D01*
X144903555Y-92742707D01*
X144883401Y-92690166D01*
X144832705Y-92619310D01*
X144765851Y-92545928D01*
X144697219Y-92485809D01*
X144641193Y-92454742D01*
X144626543Y-92448954D01*
X144563250Y-92403956D01*
X144474276Y-92321942D01*
X144365627Y-92209052D01*
X144243311Y-92071425D01*
X144113333Y-91915203D01*
X144046415Y-91833458D01*
X143950941Y-91719619D01*
X143866389Y-91621529D01*
X143809377Y-91553391D01*
X143763885Y-91491539D01*
X143746444Y-91457113D01*
X143731705Y-91428673D01*
X143686538Y-91371374D01*
X143621553Y-91300357D01*
X143562946Y-91236942D01*
X143520580Y-91184315D01*
X143509000Y-91159518D01*
X143509303Y-91159098D01*
X143495293Y-91132836D01*
X143450453Y-91079018D01*
X143383995Y-91008757D01*
X143313316Y-90934528D01*
X143259944Y-90872881D01*
X143235493Y-90837222D01*
X143218092Y-90809275D01*
X143170648Y-90750324D01*
X143105862Y-90678174D01*
X143052606Y-90617881D01*
X143012383Y-90563560D01*
X143002878Y-90536752D01*
X143004483Y-90526165D01*
X142989035Y-90477453D01*
X142954051Y-90406838D01*
X142932581Y-90370560D01*
X142896720Y-90319601D01*
X142876892Y-90305256D01*
X142866701Y-90302202D01*
X142830938Y-90266897D01*
X142781591Y-90204276D01*
X142755222Y-90165939D01*
X142719354Y-90095371D01*
X142701552Y-90015092D01*
X142695166Y-89901836D01*
X142694784Y-89806171D01*
X142707808Y-89620938D01*
X142741567Y-89484579D01*
X142797653Y-89393970D01*
X142877662Y-89345990D01*
X142983187Y-89337515D01*
X143069947Y-89354600D01*
X143131008Y-89397754D01*
X143164718Y-89476149D01*
X143178440Y-89599672D01*
X143184527Y-89671427D01*
X143204063Y-89782662D01*
X143230693Y-89867783D01*
X143258990Y-89923005D01*
X143315939Y-90008649D01*
X143373405Y-90070589D01*
X143419753Y-90094849D01*
X143449047Y-90111990D01*
X143503946Y-90161781D01*
X143570431Y-90232692D01*
X143632149Y-90296790D01*
X143711140Y-90364758D01*
X143774684Y-90404674D01*
X143781027Y-90407383D01*
X143831580Y-90437316D01*
X143844639Y-90462054D01*
X143843568Y-90467686D01*
X143865139Y-90503280D01*
X143916929Y-90550501D01*
X143978108Y-90599256D01*
X144065896Y-90672175D01*
X144157341Y-90750389D01*
X144163875Y-90756043D01*
X144244009Y-90820948D01*
X144310027Y-90866963D01*
X144348199Y-90884444D01*
X144385113Y-90896567D01*
X144439623Y-90934979D01*
X144473106Y-90959334D01*
X144551049Y-91006499D01*
X144656539Y-91064937D01*
X144776555Y-91127219D01*
X145058778Y-91268924D01*
X145383333Y-91275942D01*
X145462902Y-91277945D01*
X145655105Y-91284305D01*
X145855745Y-91292559D01*
X146032444Y-91301435D01*
X146081440Y-91304197D01*
X146273909Y-91314006D01*
X146421917Y-91318609D01*
X146535163Y-91317211D01*
X146623349Y-91309016D01*
X146696175Y-91293229D01*
X146763342Y-91269056D01*
X146834552Y-91235701D01*
X146893832Y-91203813D01*
X147091023Y-91065573D01*
X147267005Y-90894269D01*
X147404162Y-90706277D01*
X147422656Y-90674296D01*
X147466756Y-90588676D01*
X147492887Y-90510956D01*
X147506759Y-90419692D01*
X147514083Y-90293436D01*
X147515851Y-90253889D01*
X147523083Y-90142856D01*
X147532007Y-90056044D01*
X147541091Y-90009555D01*
X147545423Y-90002438D01*
X147587448Y-89961646D01*
X147661383Y-89904307D01*
X147754543Y-89840469D01*
X147790377Y-89817873D01*
X147924692Y-89748486D01*
X147952259Y-89742148D01*
X147965667Y-89755555D01*
X147979778Y-89741444D01*
X147975206Y-89736872D01*
X148041131Y-89721715D01*
X148151685Y-89738843D01*
X148268348Y-89801157D01*
X148403111Y-89909940D01*
X148456687Y-89954694D01*
X148561427Y-90030669D01*
X148657111Y-90088138D01*
X148726355Y-90129088D01*
X148808298Y-90186240D01*
X148890209Y-90249584D01*
X148960421Y-90309647D01*
X149007266Y-90356954D01*
X149019077Y-90382034D01*
X149017335Y-90385937D01*
X149025181Y-90425047D01*
X149051203Y-90485966D01*
X149085652Y-90550126D01*
X149118777Y-90598960D01*
X149140828Y-90613899D01*
X149155239Y-90615814D01*
X149165111Y-90653982D01*
X149167244Y-90679343D01*
X149184727Y-90708715D01*
X149228248Y-90723245D01*
X149307761Y-90725278D01*
X149433222Y-90717159D01*
X149551356Y-90708930D01*
X149656210Y-90707290D01*
X149718269Y-90716653D01*
X149744780Y-90738342D01*
X149742993Y-90773679D01*
X149738974Y-90811297D01*
X149769987Y-90828000D01*
X149791270Y-90831799D01*
X149814222Y-90858594D01*
X149805744Y-90874269D01*
X149764137Y-90926334D01*
X149693765Y-91006011D01*
X149601267Y-91105856D01*
X149493281Y-91218427D01*
X149413434Y-91301605D01*
X149269273Y-91461347D01*
X149169459Y-91588147D01*
X149113451Y-91682665D01*
X149092195Y-91735954D01*
X149078396Y-91786595D01*
X149085816Y-91798347D01*
X149100553Y-91794654D01*
X149095128Y-91821179D01*
X149064710Y-91876609D01*
X149015228Y-91952053D01*
X148952608Y-92038620D01*
X148882779Y-92127417D01*
X148811669Y-92209553D01*
X148763963Y-92261762D01*
X148618639Y-92427216D01*
X148505679Y-92568545D01*
X148417250Y-92696004D01*
X148345519Y-92819848D01*
X148338610Y-92833015D01*
X148302157Y-92906824D01*
X148280585Y-92968470D01*
X148271244Y-93035063D01*
X148271484Y-93123716D01*
X148278655Y-93251539D01*
X148282478Y-93304567D01*
X148296089Y-93443866D01*
X148313015Y-93571192D01*
X148330467Y-93664333D01*
X148340180Y-93708915D01*
X148360453Y-93836755D01*
X148371571Y-93958958D01*
X148375548Y-94019846D01*
X148385429Y-94099000D01*
X148397314Y-94142403D01*
X148406935Y-94177007D01*
X148416611Y-94253549D01*
X148422737Y-94351840D01*
X148428164Y-94436828D01*
X148441183Y-94543294D01*
X148457711Y-94619952D01*
X148473179Y-94685421D01*
X148489735Y-94789837D01*
X148502011Y-94904192D01*
X148502071Y-94904948D01*
X148513447Y-95007412D01*
X148528233Y-95088499D01*
X148543247Y-95130713D01*
X148546184Y-95135509D01*
X148560423Y-95187086D01*
X148574104Y-95275540D01*
X148584622Y-95384874D01*
X148586727Y-95412288D01*
X148597885Y-95514728D01*
X148611277Y-95590209D01*
X148624453Y-95624019D01*
X148633845Y-95640894D01*
X148646419Y-95701935D01*
X148653361Y-95788540D01*
X148658602Y-95864437D01*
X148674518Y-95994224D01*
X148696316Y-96119111D01*
X148713448Y-96210465D01*
X148722847Y-96281786D01*
X148721706Y-96313775D01*
X148720362Y-96317169D01*
X148720499Y-96360951D01*
X148728343Y-96442530D01*
X148742619Y-96547648D01*
X148749190Y-96597963D01*
X148761757Y-96748147D01*
X148770488Y-96933814D01*
X148775383Y-97141849D01*
X148776445Y-97359139D01*
X148773676Y-97572571D01*
X148767077Y-97769029D01*
X148756651Y-97935401D01*
X148742399Y-98058572D01*
X148739515Y-98076401D01*
X148725095Y-98186939D01*
X148718560Y-98278765D01*
X148721318Y-98333525D01*
X148723992Y-98356438D01*
X148717433Y-98432594D01*
X148696746Y-98522828D01*
X148688175Y-98552650D01*
X148658791Y-98726816D01*
X148674393Y-98882598D01*
X148736139Y-99035051D01*
X148746135Y-99052383D01*
X148798181Y-99130026D01*
X148868809Y-99223851D01*
X148949317Y-99323606D01*
X149031003Y-99419040D01*
X149105163Y-99499899D01*
X149163095Y-99555933D01*
X149196096Y-99576889D01*
X149217180Y-99584351D01*
X149275753Y-99614697D01*
X149353736Y-99660435D01*
X149409648Y-99692654D01*
X149496483Y-99735339D01*
X149560222Y-99757875D01*
X149599916Y-99767596D01*
X149687311Y-99793546D01*
X149786000Y-99826415D01*
X150008669Y-99895878D01*
X150381936Y-99970676D01*
X150745555Y-99989934D01*
X150835154Y-99986474D01*
X150954638Y-99977504D01*
X151047302Y-99965327D01*
X151098333Y-99951553D01*
X151193247Y-99900824D01*
X151292036Y-99852156D01*
X151372412Y-99816729D01*
X151423969Y-99799092D01*
X151436303Y-99803794D01*
X151435322Y-99805406D01*
X151430928Y-99826244D01*
X151457187Y-99816361D01*
X151503769Y-99783095D01*
X151560342Y-99733783D01*
X151616574Y-99675763D01*
X151644399Y-99643433D01*
X151692549Y-99581075D01*
X151703091Y-99553841D01*
X151674810Y-99564062D01*
X151668147Y-99564347D01*
X151673411Y-99534023D01*
X151700676Y-99472693D01*
X151759488Y-99325373D01*
X151784113Y-99185589D01*
X151772876Y-99066519D01*
X151725233Y-98979140D01*
X151691147Y-98939709D01*
X151631874Y-98859797D01*
X151571498Y-98769172D01*
X151522051Y-98686170D01*
X151495563Y-98629124D01*
X151492043Y-98610669D01*
X151511048Y-98547847D01*
X151574332Y-98498459D01*
X151631104Y-98479673D01*
X151620444Y-98490333D01*
X151634555Y-98504444D01*
X151648667Y-98490333D01*
X151636290Y-98477957D01*
X151672871Y-98465852D01*
X151797642Y-98453374D01*
X151939623Y-98464373D01*
X151983472Y-98477443D01*
X152080765Y-98533908D01*
X152184774Y-98620884D01*
X152282739Y-98725547D01*
X152361898Y-98835070D01*
X152409493Y-98936629D01*
X152417635Y-98963381D01*
X152445380Y-99045465D01*
X152468126Y-99101005D01*
X152470157Y-99106449D01*
X152473615Y-99163083D01*
X152466986Y-99256723D01*
X152452421Y-99372307D01*
X152432070Y-99494770D01*
X152408084Y-99609047D01*
X152382613Y-99700075D01*
X152367416Y-99763454D01*
X152369508Y-99804567D01*
X152371278Y-99817522D01*
X152354362Y-99872885D01*
X152314996Y-99954670D01*
X152260503Y-100049677D01*
X152198206Y-100144705D01*
X152135427Y-100226552D01*
X152103235Y-100259317D01*
X152035875Y-100316789D01*
X151950888Y-100382060D01*
X151857224Y-100449153D01*
X151763835Y-100512091D01*
X151679669Y-100564897D01*
X151613679Y-100601595D01*
X151574814Y-100616208D01*
X151572025Y-100602760D01*
X151572357Y-100601885D01*
X151548426Y-100602708D01*
X151481665Y-100619082D01*
X151381644Y-100648407D01*
X151257931Y-100688085D01*
X151212667Y-100703045D01*
X151076731Y-100745744D01*
X150969875Y-100773102D01*
X150873381Y-100788356D01*
X150768530Y-100794740D01*
X150636602Y-100795492D01*
X150591733Y-100794768D01*
X150432356Y-100786272D01*
X150282719Y-100770224D01*
X150166135Y-100748932D01*
X150077603Y-100728280D01*
X150002305Y-100713909D01*
X149964644Y-100710903D01*
X149936461Y-100707191D01*
X149868676Y-100687476D01*
X149779753Y-100655909D01*
X149705561Y-100628773D01*
X149614920Y-100598732D01*
X149553975Y-100582277D01*
X149514080Y-100570547D01*
X149431947Y-100537749D01*
X149338653Y-100493997D01*
X149331602Y-100490443D01*
X149224172Y-100439556D01*
X149145043Y-100410871D01*
X149075405Y-100397493D01*
X149059996Y-100391050D01*
X149018960Y-100358999D01*
X149013726Y-100354209D01*
X148967685Y-100319312D01*
X148901676Y-100274836D01*
X148832264Y-100231252D01*
X148776010Y-100199031D01*
X148749480Y-100188642D01*
X148738410Y-100191160D01*
X148697136Y-100182015D01*
X148655991Y-100161763D01*
X148642413Y-100142282D01*
X148629587Y-100122797D01*
X148577728Y-100086162D01*
X148498254Y-100041967D01*
X148424721Y-100003163D01*
X148350146Y-99959948D01*
X148308658Y-99930920D01*
X148264093Y-99895350D01*
X148200959Y-99853532D01*
X148135879Y-99815386D01*
X148084993Y-99790365D01*
X148064444Y-99787919D01*
X148060218Y-99793805D01*
X148029167Y-99783724D01*
X148014653Y-99776748D01*
X147936016Y-99763139D01*
X147822355Y-99763211D01*
X147688407Y-99775267D01*
X147548907Y-99797607D01*
X147418589Y-99828535D01*
X147312191Y-99866350D01*
X147269176Y-99880359D01*
X147227524Y-99879431D01*
X147219810Y-99877191D01*
X147166608Y-99879167D01*
X147065361Y-99893754D01*
X146913830Y-99921310D01*
X146709778Y-99962194D01*
X146674761Y-99967749D01*
X146585831Y-99976794D01*
X146484000Y-99983058D01*
X146461767Y-99984214D01*
X146339953Y-100001420D01*
X146222671Y-100040072D01*
X146102267Y-100104930D01*
X145971085Y-100200755D01*
X145821471Y-100332308D01*
X145645769Y-100504349D01*
X145546749Y-100603395D01*
X145413964Y-100729875D01*
X145303985Y-100824591D01*
X145208483Y-100894538D01*
X145119133Y-100946712D01*
X145107753Y-100952494D01*
X145018660Y-100994296D01*
X144951667Y-101019839D01*
X144945889Y-101020572D01*
X144920526Y-101023786D01*
G37*
X144920526Y-101023786D02*
X144919253Y-101022898D01*
X144879877Y-101027726D01*
X144794951Y-101056053D01*
X144668875Y-101106142D01*
X144506054Y-101176252D01*
X144310889Y-101264645D01*
X144298271Y-101270420D01*
X144104056Y-101342880D01*
X143929889Y-101373699D01*
X143836886Y-101384295D01*
X143698516Y-101409414D01*
X143569275Y-101441534D01*
X143377995Y-101498098D01*
X143209442Y-101368400D01*
X143125692Y-101301082D01*
X143072161Y-101247128D01*
X143047102Y-101199936D01*
X143040889Y-101146853D01*
X143041265Y-101134457D01*
X143072900Y-101035725D01*
X143103798Y-101002111D01*
X144931778Y-101002111D01*
X144945889Y-101016222D01*
X144960000Y-101002111D01*
X144945889Y-100988000D01*
X144931778Y-101002111D01*
X143103798Y-101002111D01*
X143147585Y-100954476D01*
X143254210Y-100896959D01*
X143381666Y-100869420D01*
X143518844Y-100878104D01*
X143550889Y-100881759D01*
X143664366Y-100869506D01*
X143815232Y-100827129D01*
X143997311Y-100756591D01*
X144204431Y-100659858D01*
X144373269Y-100550743D01*
X144536501Y-100389550D01*
X144663654Y-100197803D01*
X144669503Y-100185445D01*
X144698234Y-100106481D01*
X144731140Y-99995655D01*
X144763227Y-99871921D01*
X144789499Y-99754236D01*
X144804962Y-99661555D01*
X144809894Y-99634859D01*
X144830450Y-99554757D01*
X144862352Y-99445768D01*
X144901153Y-99323514D01*
X144924975Y-99248460D01*
X144955312Y-99141991D01*
X144973636Y-99062427D01*
X144976635Y-99022955D01*
X144959457Y-99010705D01*
X144895562Y-98999940D01*
X144797283Y-98998000D01*
X144677384Y-99004469D01*
X144548627Y-99018931D01*
X144423778Y-99040971D01*
X144360611Y-99054590D01*
X144224621Y-99083129D01*
X144131958Y-99100759D01*
X144074106Y-99108779D01*
X144042550Y-99108487D01*
X144028775Y-99101180D01*
X144014033Y-99091804D01*
X143956406Y-99069920D01*
X143873444Y-99045860D01*
X143792274Y-99017286D01*
X143677501Y-98961861D01*
X143570055Y-98896358D01*
X143562043Y-98890784D01*
X143484017Y-98838780D01*
X143428757Y-98805998D01*
X143407778Y-98799324D01*
X143407649Y-98799896D01*
X143386290Y-98787606D01*
X143335452Y-98745205D01*
X143265373Y-98681182D01*
X143262468Y-98678444D01*
X143189230Y-98612255D01*
X143132053Y-98565621D01*
X143103095Y-98548485D01*
X143083360Y-98538134D01*
X143032977Y-98497228D01*
X142967050Y-98435596D01*
X142920910Y-98390676D01*
X142837389Y-98311629D01*
X142769495Y-98249958D01*
X142753426Y-98235531D01*
X142677046Y-98160550D01*
X142603444Y-98080625D01*
X142574568Y-98046231D01*
X142547682Y-98006122D01*
X142531479Y-97960540D01*
X142523476Y-97896742D01*
X142521188Y-97801988D01*
X142522132Y-97663537D01*
X142522660Y-97618407D01*
X142525580Y-97491805D01*
X142531805Y-97406137D01*
X142543497Y-97349332D01*
X142562820Y-97309312D01*
X142591939Y-97274004D01*
X142628475Y-97241982D01*
X142698132Y-97218248D01*
X142782758Y-97237232D01*
X142892280Y-97299786D01*
X142893996Y-97300947D01*
X142957194Y-97349519D01*
X142994824Y-97400378D01*
X143015612Y-97471576D01*
X143028282Y-97581163D01*
X143030302Y-97602641D01*
X143042380Y-97670030D01*
X143068663Y-97725948D01*
X143118849Y-97786289D01*
X143202634Y-97866949D01*
X143221528Y-97884334D01*
X143298376Y-97952751D01*
X143357230Y-98001572D01*
X143386611Y-98021174D01*
X143409995Y-98031838D01*
X143454045Y-98068771D01*
X143490824Y-98112645D01*
X143501288Y-98143195D01*
X143504186Y-98162262D01*
X143544063Y-98190614D01*
X143610576Y-98213080D01*
X143686307Y-98222222D01*
X143752153Y-98217979D01*
X143822893Y-98199406D01*
X143900603Y-98160513D01*
X143996838Y-98095370D01*
X144123153Y-97998046D01*
X144184465Y-97950577D01*
X144270120Y-97888941D01*
X144333309Y-97849385D01*
X144363526Y-97838869D01*
X144364923Y-97839404D01*
X144396962Y-97823592D01*
X144454065Y-97775968D01*
X144524865Y-97705899D01*
X144658918Y-97564026D01*
X144662862Y-97562596D01*
X144686373Y-97563265D01*
X144730570Y-97535178D01*
X144761301Y-97511488D01*
X144833604Y-97472824D01*
X144925592Y-97433686D01*
X145000222Y-97405648D01*
X145077431Y-97373400D01*
X145131749Y-97339157D01*
X145167299Y-97293848D01*
X145188203Y-97228403D01*
X145198582Y-97133754D01*
X145202560Y-97000829D01*
X145204259Y-96820560D01*
X145205618Y-96702894D01*
X145209778Y-96512852D01*
X145216943Y-96362921D01*
X145228281Y-96242350D01*
X145244963Y-96140383D01*
X145268159Y-96046268D01*
X145299038Y-95949252D01*
X145306375Y-95927709D01*
X145329889Y-95847798D01*
X145337885Y-95780526D01*
X145331064Y-95703404D01*
X145310130Y-95593944D01*
X145284137Y-95482938D01*
X145252835Y-95371445D01*
X145224533Y-95290559D01*
X145218722Y-95276612D01*
X145189318Y-95194851D01*
X145173449Y-95131889D01*
X145173433Y-95131771D01*
X145161982Y-95064283D01*
X145144914Y-94981356D01*
X145128423Y-94924338D01*
X145101349Y-94899536D01*
X145049560Y-94905903D01*
X144987711Y-94916407D01*
X144888717Y-94927190D01*
X144776788Y-94935346D01*
X144676969Y-94943825D01*
X144525287Y-94964181D01*
X144390572Y-94989684D01*
X144292154Y-95009109D01*
X144208502Y-95019237D01*
X144161042Y-95017157D01*
X144143740Y-95015861D01*
X144077910Y-95026709D01*
X143980750Y-95052109D01*
X143866369Y-95088639D01*
X143830787Y-95100821D01*
X143723566Y-95134463D01*
X143627276Y-95157192D01*
X143525073Y-95171602D01*
X143400115Y-95180289D01*
X143235559Y-95185850D01*
X142857582Y-95195524D01*
X142769660Y-95102299D01*
X142756240Y-95088023D01*
X142720099Y-95045738D01*
X142698876Y-95004823D01*
X142689512Y-94950842D01*
X142688944Y-94869355D01*
X142694113Y-94745926D01*
X142696796Y-94693043D01*
X142705293Y-94581973D01*
X142717827Y-94509829D01*
X142737364Y-94463783D01*
X142766865Y-94431009D01*
X142767243Y-94430686D01*
X142836278Y-94394471D01*
X142927010Y-94395694D01*
X142935846Y-94397147D01*
X143011544Y-94409315D01*
X143061518Y-94416888D01*
X143074090Y-94423959D01*
X143108238Y-94470099D01*
X143142963Y-94543926D01*
X143147211Y-94554928D01*
X143180908Y-94626224D01*
X143217306Y-94658589D01*
X143271306Y-94666222D01*
X143299540Y-94663164D01*
X143390928Y-94635568D01*
X143509227Y-94584293D01*
X143641088Y-94515484D01*
X143773161Y-94435284D01*
X143800504Y-94418357D01*
X143841174Y-94399997D01*
X143846146Y-94410727D01*
X143852426Y-94415196D01*
X143897486Y-94399574D01*
X143976179Y-94363986D01*
X144079825Y-94312942D01*
X144199739Y-94250951D01*
X144327239Y-94182522D01*
X144453643Y-94112163D01*
X144570268Y-94044384D01*
X144668432Y-93983695D01*
X144758610Y-93918259D01*
X144856550Y-93830845D01*
X144924741Y-93750770D01*
X144943108Y-93722284D01*
X144974798Y-93662382D01*
X144992175Y-93599752D01*
X144998965Y-93516517D01*
X144998889Y-93394803D01*
X145001197Y-93250739D01*
X145015463Y-93138785D01*
X145043749Y-93054330D01*
X145064418Y-93009301D01*
X145076853Y-92960057D01*
X145061890Y-92915291D01*
X145016189Y-92850266D01*
X144992179Y-92820098D01*
X144947670Y-92775725D01*
X144921823Y-92766473D01*
X144912769Y-92769974D01*
X144903555Y-92742784D01*
X144903555Y-92742707D01*
X144883401Y-92690166D01*
X144832705Y-92619310D01*
X144765851Y-92545928D01*
X144697219Y-92485809D01*
X144641193Y-92454742D01*
X144626543Y-92448954D01*
X144563250Y-92403956D01*
X144474276Y-92321942D01*
X144365627Y-92209052D01*
X144243311Y-92071425D01*
X144113333Y-91915203D01*
X144046415Y-91833458D01*
X143950941Y-91719619D01*
X143866389Y-91621529D01*
X143809377Y-91553391D01*
X143763885Y-91491539D01*
X143746444Y-91457113D01*
X143731705Y-91428673D01*
X143686538Y-91371374D01*
X143621553Y-91300357D01*
X143562946Y-91236942D01*
X143520580Y-91184315D01*
X143509000Y-91159518D01*
X143509303Y-91159098D01*
X143495293Y-91132836D01*
X143450453Y-91079018D01*
X143383995Y-91008757D01*
X143313316Y-90934528D01*
X143259944Y-90872881D01*
X143235493Y-90837222D01*
X143218092Y-90809275D01*
X143170648Y-90750324D01*
X143105862Y-90678174D01*
X143052606Y-90617881D01*
X143012383Y-90563560D01*
X143002878Y-90536752D01*
X143004483Y-90526165D01*
X142989035Y-90477453D01*
X142954051Y-90406838D01*
X142932581Y-90370560D01*
X142896720Y-90319601D01*
X142876892Y-90305256D01*
X142866701Y-90302202D01*
X142830938Y-90266897D01*
X142781591Y-90204276D01*
X142755222Y-90165939D01*
X142719354Y-90095371D01*
X142701552Y-90015092D01*
X142695166Y-89901836D01*
X142694784Y-89806171D01*
X142707808Y-89620938D01*
X142741567Y-89484579D01*
X142797653Y-89393970D01*
X142877662Y-89345990D01*
X142983187Y-89337515D01*
X143069947Y-89354600D01*
X143131008Y-89397754D01*
X143164718Y-89476149D01*
X143178440Y-89599672D01*
X143184527Y-89671427D01*
X143204063Y-89782662D01*
X143230693Y-89867783D01*
X143258990Y-89923005D01*
X143315939Y-90008649D01*
X143373405Y-90070589D01*
X143419753Y-90094849D01*
X143449047Y-90111990D01*
X143503946Y-90161781D01*
X143570431Y-90232692D01*
X143632149Y-90296790D01*
X143711140Y-90364758D01*
X143774684Y-90404674D01*
X143781027Y-90407383D01*
X143831580Y-90437316D01*
X143844639Y-90462054D01*
X143843568Y-90467686D01*
X143865139Y-90503280D01*
X143916929Y-90550501D01*
X143978108Y-90599256D01*
X144065896Y-90672175D01*
X144157341Y-90750389D01*
X144163875Y-90756043D01*
X144244009Y-90820948D01*
X144310027Y-90866963D01*
X144348199Y-90884444D01*
X144385113Y-90896567D01*
X144439623Y-90934979D01*
X144473106Y-90959334D01*
X144551049Y-91006499D01*
X144656539Y-91064937D01*
X144776555Y-91127219D01*
X145058778Y-91268924D01*
X145383333Y-91275942D01*
X145462902Y-91277945D01*
X145655105Y-91284305D01*
X145855745Y-91292559D01*
X146032444Y-91301435D01*
X146081440Y-91304197D01*
X146273909Y-91314006D01*
X146421917Y-91318609D01*
X146535163Y-91317211D01*
X146623349Y-91309016D01*
X146696175Y-91293229D01*
X146763342Y-91269056D01*
X146834552Y-91235701D01*
X146893832Y-91203813D01*
X147091023Y-91065573D01*
X147267005Y-90894269D01*
X147404162Y-90706277D01*
X147422656Y-90674296D01*
X147466756Y-90588676D01*
X147492887Y-90510956D01*
X147506759Y-90419692D01*
X147514083Y-90293436D01*
X147515851Y-90253889D01*
X147523083Y-90142856D01*
X147532007Y-90056044D01*
X147541091Y-90009555D01*
X147545423Y-90002438D01*
X147587448Y-89961646D01*
X147661383Y-89904307D01*
X147754543Y-89840469D01*
X147790377Y-89817873D01*
X147924692Y-89748486D01*
X147952259Y-89742148D01*
X147965667Y-89755555D01*
X147979778Y-89741444D01*
X147975206Y-89736872D01*
X148041131Y-89721715D01*
X148151685Y-89738843D01*
X148268348Y-89801157D01*
X148403111Y-89909940D01*
X148456687Y-89954694D01*
X148561427Y-90030669D01*
X148657111Y-90088138D01*
X148726355Y-90129088D01*
X148808298Y-90186240D01*
X148890209Y-90249584D01*
X148960421Y-90309647D01*
X149007266Y-90356954D01*
X149019077Y-90382034D01*
X149017335Y-90385937D01*
X149025181Y-90425047D01*
X149051203Y-90485966D01*
X149085652Y-90550126D01*
X149118777Y-90598960D01*
X149140828Y-90613899D01*
X149155239Y-90615814D01*
X149165111Y-90653982D01*
X149167244Y-90679343D01*
X149184727Y-90708715D01*
X149228248Y-90723245D01*
X149307761Y-90725278D01*
X149433222Y-90717159D01*
X149551356Y-90708930D01*
X149656210Y-90707290D01*
X149718269Y-90716653D01*
X149744780Y-90738342D01*
X149742993Y-90773679D01*
X149738974Y-90811297D01*
X149769987Y-90828000D01*
X149791270Y-90831799D01*
X149814222Y-90858594D01*
X149805744Y-90874269D01*
X149764137Y-90926334D01*
X149693765Y-91006011D01*
X149601267Y-91105856D01*
X149493281Y-91218427D01*
X149413434Y-91301605D01*
X149269273Y-91461347D01*
X149169459Y-91588147D01*
X149113451Y-91682665D01*
X149092195Y-91735954D01*
X149078396Y-91786595D01*
X149085816Y-91798347D01*
X149100553Y-91794654D01*
X149095128Y-91821179D01*
X149064710Y-91876609D01*
X149015228Y-91952053D01*
X148952608Y-92038620D01*
X148882779Y-92127417D01*
X148811669Y-92209553D01*
X148763963Y-92261762D01*
X148618639Y-92427216D01*
X148505679Y-92568545D01*
X148417250Y-92696004D01*
X148345519Y-92819848D01*
X148338610Y-92833015D01*
X148302157Y-92906824D01*
X148280585Y-92968470D01*
X148271244Y-93035063D01*
X148271484Y-93123716D01*
X148278655Y-93251539D01*
X148282478Y-93304567D01*
X148296089Y-93443866D01*
X148313015Y-93571192D01*
X148330467Y-93664333D01*
X148340180Y-93708915D01*
X148360453Y-93836755D01*
X148371571Y-93958958D01*
X148375548Y-94019846D01*
X148385429Y-94099000D01*
X148397314Y-94142403D01*
X148406935Y-94177007D01*
X148416611Y-94253549D01*
X148422737Y-94351840D01*
X148428164Y-94436828D01*
X148441183Y-94543294D01*
X148457711Y-94619952D01*
X148473179Y-94685421D01*
X148489735Y-94789837D01*
X148502011Y-94904192D01*
X148502071Y-94904948D01*
X148513447Y-95007412D01*
X148528233Y-95088499D01*
X148543247Y-95130713D01*
X148546184Y-95135509D01*
X148560423Y-95187086D01*
X148574104Y-95275540D01*
X148584622Y-95384874D01*
X148586727Y-95412288D01*
X148597885Y-95514728D01*
X148611277Y-95590209D01*
X148624453Y-95624019D01*
X148633845Y-95640894D01*
X148646419Y-95701935D01*
X148653361Y-95788540D01*
X148658602Y-95864437D01*
X148674518Y-95994224D01*
X148696316Y-96119111D01*
X148713448Y-96210465D01*
X148722847Y-96281786D01*
X148721706Y-96313775D01*
X148720362Y-96317169D01*
X148720499Y-96360951D01*
X148728343Y-96442530D01*
X148742619Y-96547648D01*
X148749190Y-96597963D01*
X148761757Y-96748147D01*
X148770488Y-96933814D01*
X148775383Y-97141849D01*
X148776445Y-97359139D01*
X148773676Y-97572571D01*
X148767077Y-97769029D01*
X148756651Y-97935401D01*
X148742399Y-98058572D01*
X148739515Y-98076401D01*
X148725095Y-98186939D01*
X148718560Y-98278765D01*
X148721318Y-98333525D01*
X148723992Y-98356438D01*
X148717433Y-98432594D01*
X148696746Y-98522828D01*
X148688175Y-98552650D01*
X148658791Y-98726816D01*
X148674393Y-98882598D01*
X148736139Y-99035051D01*
X148746135Y-99052383D01*
X148798181Y-99130026D01*
X148868809Y-99223851D01*
X148949317Y-99323606D01*
X149031003Y-99419040D01*
X149105163Y-99499899D01*
X149163095Y-99555933D01*
X149196096Y-99576889D01*
X149217180Y-99584351D01*
X149275753Y-99614697D01*
X149353736Y-99660435D01*
X149409648Y-99692654D01*
X149496483Y-99735339D01*
X149560222Y-99757875D01*
X149599916Y-99767596D01*
X149687311Y-99793546D01*
X149786000Y-99826415D01*
X150008669Y-99895878D01*
X150381936Y-99970676D01*
X150745555Y-99989934D01*
X150835154Y-99986474D01*
X150954638Y-99977504D01*
X151047302Y-99965327D01*
X151098333Y-99951553D01*
X151193247Y-99900824D01*
X151292036Y-99852156D01*
X151372412Y-99816729D01*
X151423969Y-99799092D01*
X151436303Y-99803794D01*
X151435322Y-99805406D01*
X151430928Y-99826244D01*
X151457187Y-99816361D01*
X151503769Y-99783095D01*
X151560342Y-99733783D01*
X151616574Y-99675763D01*
X151644399Y-99643433D01*
X151692549Y-99581075D01*
X151703091Y-99553841D01*
X151674810Y-99564062D01*
X151668147Y-99564347D01*
X151673411Y-99534023D01*
X151700676Y-99472693D01*
X151759488Y-99325373D01*
X151784113Y-99185589D01*
X151772876Y-99066519D01*
X151725233Y-98979140D01*
X151691147Y-98939709D01*
X151631874Y-98859797D01*
X151571498Y-98769172D01*
X151522051Y-98686170D01*
X151495563Y-98629124D01*
X151492043Y-98610669D01*
X151511048Y-98547847D01*
X151574332Y-98498459D01*
X151631104Y-98479673D01*
X151620444Y-98490333D01*
X151634555Y-98504444D01*
X151648667Y-98490333D01*
X151636290Y-98477957D01*
X151672871Y-98465852D01*
X151797642Y-98453374D01*
X151939623Y-98464373D01*
X151983472Y-98477443D01*
X152080765Y-98533908D01*
X152184774Y-98620884D01*
X152282739Y-98725547D01*
X152361898Y-98835070D01*
X152409493Y-98936629D01*
X152417635Y-98963381D01*
X152445380Y-99045465D01*
X152468126Y-99101005D01*
X152470157Y-99106449D01*
X152473615Y-99163083D01*
X152466986Y-99256723D01*
X152452421Y-99372307D01*
X152432070Y-99494770D01*
X152408084Y-99609047D01*
X152382613Y-99700075D01*
X152367416Y-99763454D01*
X152369508Y-99804567D01*
X152371278Y-99817522D01*
X152354362Y-99872885D01*
X152314996Y-99954670D01*
X152260503Y-100049677D01*
X152198206Y-100144705D01*
X152135427Y-100226552D01*
X152103235Y-100259317D01*
X152035875Y-100316789D01*
X151950888Y-100382060D01*
X151857224Y-100449153D01*
X151763835Y-100512091D01*
X151679669Y-100564897D01*
X151613679Y-100601595D01*
X151574814Y-100616208D01*
X151572025Y-100602760D01*
X151572357Y-100601885D01*
X151548426Y-100602708D01*
X151481665Y-100619082D01*
X151381644Y-100648407D01*
X151257931Y-100688085D01*
X151212667Y-100703045D01*
X151076731Y-100745744D01*
X150969875Y-100773102D01*
X150873381Y-100788356D01*
X150768530Y-100794740D01*
X150636602Y-100795492D01*
X150591733Y-100794768D01*
X150432356Y-100786272D01*
X150282719Y-100770224D01*
X150166135Y-100748932D01*
X150077603Y-100728280D01*
X150002305Y-100713909D01*
X149964644Y-100710903D01*
X149936461Y-100707191D01*
X149868676Y-100687476D01*
X149779753Y-100655909D01*
X149705561Y-100628773D01*
X149614920Y-100598732D01*
X149553975Y-100582277D01*
X149514080Y-100570547D01*
X149431947Y-100537749D01*
X149338653Y-100493997D01*
X149331602Y-100490443D01*
X149224172Y-100439556D01*
X149145043Y-100410871D01*
X149075405Y-100397493D01*
X149059996Y-100391050D01*
X149018960Y-100358999D01*
X149013726Y-100354209D01*
X148967685Y-100319312D01*
X148901676Y-100274836D01*
X148832264Y-100231252D01*
X148776010Y-100199031D01*
X148749480Y-100188642D01*
X148738410Y-100191160D01*
X148697136Y-100182015D01*
X148655991Y-100161763D01*
X148642413Y-100142282D01*
X148629587Y-100122797D01*
X148577728Y-100086162D01*
X148498254Y-100041967D01*
X148424721Y-100003163D01*
X148350146Y-99959948D01*
X148308658Y-99930920D01*
X148264093Y-99895350D01*
X148200959Y-99853532D01*
X148135879Y-99815386D01*
X148084993Y-99790365D01*
X148064444Y-99787919D01*
X148060218Y-99793805D01*
X148029167Y-99783724D01*
X148014653Y-99776748D01*
X147936016Y-99763139D01*
X147822355Y-99763211D01*
X147688407Y-99775267D01*
X147548907Y-99797607D01*
X147418589Y-99828535D01*
X147312191Y-99866350D01*
X147269176Y-99880359D01*
X147227524Y-99879431D01*
X147219810Y-99877191D01*
X147166608Y-99879167D01*
X147065361Y-99893754D01*
X146913830Y-99921310D01*
X146709778Y-99962194D01*
X146674761Y-99967749D01*
X146585831Y-99976794D01*
X146484000Y-99983058D01*
X146461767Y-99984214D01*
X146339953Y-100001420D01*
X146222671Y-100040072D01*
X146102267Y-100104930D01*
X145971085Y-100200755D01*
X145821471Y-100332308D01*
X145645769Y-100504349D01*
X145546749Y-100603395D01*
X145413964Y-100729875D01*
X145303985Y-100824591D01*
X145208483Y-100894538D01*
X145119133Y-100946712D01*
X145107753Y-100952494D01*
X145018660Y-100994296D01*
X144951667Y-101019839D01*
X144945889Y-101020572D01*
X144920526Y-101023786D01*
M02*
