G04 #@! TF.GenerationSoftware,KiCad,Pcbnew,5.99.0-unknown-df3fabf~86~ubuntu18.04.1*
G04 #@! TF.CreationDate,2019-10-25T19:02:02-04:00*
G04 #@! TF.ProjectId,bc26_bc66_module_board,62633236-5f62-4633-9636-5f6d6f64756c,rev?*
G04 #@! TF.SameCoordinates,Original*
G04 #@! TF.FileFunction,Copper,L1,Top*
G04 #@! TF.FilePolarity,Positive*
%FSLAX46Y46*%
G04 Gerber Fmt 4.6, Leading zero omitted, Abs format (unit mm)*
G04 Created by KiCad (PCBNEW 5.99.0-unknown-df3fabf~86~ubuntu18.04.1) date 2019-10-25 19:02:02*
%MOMM*%
%LPD*%
G04 APERTURE LIST*
%ADD10R,0.250000X0.150000*%
%ADD11R,0.600000X0.200000*%
%ADD12R,0.200000X0.600000*%
%ADD13R,1.000000X1.000000*%
%ADD14R,1.600000X2.180000*%
%ADD15O,1.000000X1.000000*%
%ADD16R,4.064000X1.524000*%
%ADD17R,4.064000X1.270000*%
%ADD18C,0.600000*%
%ADD19C,1.230000*%
%ADD20C,0.250000*%
%ADD21C,0.200000*%
%ADD22C,0.700000*%
%ADD23C,0.254000*%
G04 APERTURE END LIST*
D10*
X89025000Y-78625000D03*
D11*
X89200000Y-78200000D03*
D12*
X89200000Y-77550000D03*
X89600000Y-77550000D03*
X90000000Y-77550000D03*
X90400000Y-77550000D03*
X90800000Y-77550000D03*
D11*
X90800000Y-78200000D03*
D12*
X90800000Y-78850000D03*
X90400000Y-78850000D03*
X90000000Y-78850000D03*
X89600000Y-78850000D03*
X89200000Y-78850000D03*
G04 #@! TA.AperFunction,SMDPad,CuDef*
G36*
X86514962Y-76841651D02*
G01*
X86585930Y-76889070D01*
X86633349Y-76960038D01*
X86650000Y-77043750D01*
X86650000Y-77556250D01*
X86633349Y-77639962D01*
X86585930Y-77710930D01*
X86514962Y-77758349D01*
X86431250Y-77775000D01*
X85993750Y-77775000D01*
X85910038Y-77758349D01*
X85839070Y-77710930D01*
X85791651Y-77639962D01*
X85775000Y-77556250D01*
X85775000Y-77043750D01*
X85791651Y-76960038D01*
X85839070Y-76889070D01*
X85910038Y-76841651D01*
X85993750Y-76825000D01*
X86431250Y-76825000D01*
X86514962Y-76841651D01*
G37*
G04 #@! TD.AperFunction*
G04 #@! TA.AperFunction,SMDPad,CuDef*
G36*
X88089962Y-76841651D02*
G01*
X88160930Y-76889070D01*
X88208349Y-76960038D01*
X88225000Y-77043750D01*
X88225000Y-77556250D01*
X88208349Y-77639962D01*
X88160930Y-77710930D01*
X88089962Y-77758349D01*
X88006250Y-77775000D01*
X87568750Y-77775000D01*
X87485038Y-77758349D01*
X87414070Y-77710930D01*
X87366651Y-77639962D01*
X87350000Y-77556250D01*
X87350000Y-77043750D01*
X87366651Y-76960038D01*
X87414070Y-76889070D01*
X87485038Y-76841651D01*
X87568750Y-76825000D01*
X88006250Y-76825000D01*
X88089962Y-76841651D01*
G37*
G04 #@! TD.AperFunction*
G04 #@! TA.AperFunction,SMDPad,CuDef*
G36*
X86514962Y-78441651D02*
G01*
X86585930Y-78489070D01*
X86633349Y-78560038D01*
X86650000Y-78643750D01*
X86650000Y-79156250D01*
X86633349Y-79239962D01*
X86585930Y-79310930D01*
X86514962Y-79358349D01*
X86431250Y-79375000D01*
X85993750Y-79375000D01*
X85910038Y-79358349D01*
X85839070Y-79310930D01*
X85791651Y-79239962D01*
X85775000Y-79156250D01*
X85775000Y-78643750D01*
X85791651Y-78560038D01*
X85839070Y-78489070D01*
X85910038Y-78441651D01*
X85993750Y-78425000D01*
X86431250Y-78425000D01*
X86514962Y-78441651D01*
G37*
G04 #@! TD.AperFunction*
G04 #@! TA.AperFunction,SMDPad,CuDef*
G36*
X88089962Y-78441651D02*
G01*
X88160930Y-78489070D01*
X88208349Y-78560038D01*
X88225000Y-78643750D01*
X88225000Y-79156250D01*
X88208349Y-79239962D01*
X88160930Y-79310930D01*
X88089962Y-79358349D01*
X88006250Y-79375000D01*
X87568750Y-79375000D01*
X87485038Y-79358349D01*
X87414070Y-79310930D01*
X87366651Y-79239962D01*
X87350000Y-79156250D01*
X87350000Y-78643750D01*
X87366651Y-78560038D01*
X87414070Y-78489070D01*
X87485038Y-78441651D01*
X87568750Y-78425000D01*
X88006250Y-78425000D01*
X88089962Y-78441651D01*
G37*
G04 #@! TD.AperFunction*
D13*
X90600000Y-90200000D03*
X90600000Y-92000000D03*
X90600000Y-93800000D03*
X88800000Y-95600000D03*
X87000000Y-95600000D03*
X85200000Y-95600000D03*
X83400000Y-95600000D03*
X81600000Y-93800000D03*
X81600000Y-92000000D03*
X81600000Y-90200000D03*
X83400000Y-88400000D03*
X85200000Y-88400000D03*
X87000000Y-88400000D03*
X88800000Y-88400000D03*
G04 #@! TA.AperFunction,SMDPad,CuDef*
G36*
X95841970Y-87263321D02*
G01*
X95898744Y-87301256D01*
X95936679Y-87358030D01*
X95950000Y-87425000D01*
X95950000Y-87775000D01*
X95936679Y-87841970D01*
X95898744Y-87898744D01*
X95841970Y-87936679D01*
X95775000Y-87950000D01*
X93625000Y-87950000D01*
X93558030Y-87936679D01*
X93501256Y-87898744D01*
X93463321Y-87841970D01*
X93450000Y-87775000D01*
X93450000Y-87425000D01*
X93463321Y-87358030D01*
X93501256Y-87301256D01*
X93558030Y-87263321D01*
X93625000Y-87250000D01*
X95775000Y-87250000D01*
X95841970Y-87263321D01*
G37*
G04 #@! TD.AperFunction*
G04 #@! TA.AperFunction,SMDPad,CuDef*
G36*
X95841970Y-88363321D02*
G01*
X95898744Y-88401256D01*
X95936679Y-88458030D01*
X95950000Y-88525000D01*
X95950000Y-88875000D01*
X95936679Y-88941970D01*
X95898744Y-88998744D01*
X95841970Y-89036679D01*
X95775000Y-89050000D01*
X93625000Y-89050000D01*
X93558030Y-89036679D01*
X93501256Y-88998744D01*
X93463321Y-88941970D01*
X93450000Y-88875000D01*
X93450000Y-88525000D01*
X93463321Y-88458030D01*
X93501256Y-88401256D01*
X93558030Y-88363321D01*
X93625000Y-88350000D01*
X95775000Y-88350000D01*
X95841970Y-88363321D01*
G37*
G04 #@! TD.AperFunction*
G04 #@! TA.AperFunction,SMDPad,CuDef*
G36*
X95841970Y-89463321D02*
G01*
X95898744Y-89501256D01*
X95936679Y-89558030D01*
X95950000Y-89625000D01*
X95950000Y-89975000D01*
X95936679Y-90041970D01*
X95898744Y-90098744D01*
X95841970Y-90136679D01*
X95775000Y-90150000D01*
X93625000Y-90150000D01*
X93558030Y-90136679D01*
X93501256Y-90098744D01*
X93463321Y-90041970D01*
X93450000Y-89975000D01*
X93450000Y-89625000D01*
X93463321Y-89558030D01*
X93501256Y-89501256D01*
X93558030Y-89463321D01*
X93625000Y-89450000D01*
X95775000Y-89450000D01*
X95841970Y-89463321D01*
G37*
G04 #@! TD.AperFunction*
G04 #@! TA.AperFunction,SMDPad,CuDef*
G36*
X95841970Y-90563321D02*
G01*
X95898744Y-90601256D01*
X95936679Y-90658030D01*
X95950000Y-90725000D01*
X95950000Y-91075000D01*
X95936679Y-91141970D01*
X95898744Y-91198744D01*
X95841970Y-91236679D01*
X95775000Y-91250000D01*
X93625000Y-91250000D01*
X93558030Y-91236679D01*
X93501256Y-91198744D01*
X93463321Y-91141970D01*
X93450000Y-91075000D01*
X93450000Y-90725000D01*
X93463321Y-90658030D01*
X93501256Y-90601256D01*
X93558030Y-90563321D01*
X93625000Y-90550000D01*
X95775000Y-90550000D01*
X95841970Y-90563321D01*
G37*
G04 #@! TD.AperFunction*
G04 #@! TA.AperFunction,SMDPad,CuDef*
G36*
X95841970Y-91663321D02*
G01*
X95898744Y-91701256D01*
X95936679Y-91758030D01*
X95950000Y-91825000D01*
X95950000Y-92175000D01*
X95936679Y-92241970D01*
X95898744Y-92298744D01*
X95841970Y-92336679D01*
X95775000Y-92350000D01*
X93625000Y-92350000D01*
X93558030Y-92336679D01*
X93501256Y-92298744D01*
X93463321Y-92241970D01*
X93450000Y-92175000D01*
X93450000Y-91825000D01*
X93463321Y-91758030D01*
X93501256Y-91701256D01*
X93558030Y-91663321D01*
X93625000Y-91650000D01*
X95775000Y-91650000D01*
X95841970Y-91663321D01*
G37*
G04 #@! TD.AperFunction*
G04 #@! TA.AperFunction,SMDPad,CuDef*
G36*
X95841970Y-92763321D02*
G01*
X95898744Y-92801256D01*
X95936679Y-92858030D01*
X95950000Y-92925000D01*
X95950000Y-93275000D01*
X95936679Y-93341970D01*
X95898744Y-93398744D01*
X95841970Y-93436679D01*
X95775000Y-93450000D01*
X93625000Y-93450000D01*
X93558030Y-93436679D01*
X93501256Y-93398744D01*
X93463321Y-93341970D01*
X93450000Y-93275000D01*
X93450000Y-92925000D01*
X93463321Y-92858030D01*
X93501256Y-92801256D01*
X93558030Y-92763321D01*
X93625000Y-92750000D01*
X95775000Y-92750000D01*
X95841970Y-92763321D01*
G37*
G04 #@! TD.AperFunction*
G04 #@! TA.AperFunction,SMDPad,CuDef*
G36*
X95841970Y-93863321D02*
G01*
X95898744Y-93901256D01*
X95936679Y-93958030D01*
X95950000Y-94025000D01*
X95950000Y-94375000D01*
X95936679Y-94441970D01*
X95898744Y-94498744D01*
X95841970Y-94536679D01*
X95775000Y-94550000D01*
X93625000Y-94550000D01*
X93558030Y-94536679D01*
X93501256Y-94498744D01*
X93463321Y-94441970D01*
X93450000Y-94375000D01*
X93450000Y-94025000D01*
X93463321Y-93958030D01*
X93501256Y-93901256D01*
X93558030Y-93863321D01*
X93625000Y-93850000D01*
X95775000Y-93850000D01*
X95841970Y-93863321D01*
G37*
G04 #@! TD.AperFunction*
G04 #@! TA.AperFunction,SMDPad,CuDef*
G36*
X95841970Y-94963321D02*
G01*
X95898744Y-95001256D01*
X95936679Y-95058030D01*
X95950000Y-95125000D01*
X95950000Y-95475000D01*
X95936679Y-95541970D01*
X95898744Y-95598744D01*
X95841970Y-95636679D01*
X95775000Y-95650000D01*
X93625000Y-95650000D01*
X93558030Y-95636679D01*
X93501256Y-95598744D01*
X93463321Y-95541970D01*
X93450000Y-95475000D01*
X93450000Y-95125000D01*
X93463321Y-95058030D01*
X93501256Y-95001256D01*
X93558030Y-94963321D01*
X93625000Y-94950000D01*
X95775000Y-94950000D01*
X95841970Y-94963321D01*
G37*
G04 #@! TD.AperFunction*
G04 #@! TA.AperFunction,SMDPad,CuDef*
G36*
X95841970Y-96063321D02*
G01*
X95898744Y-96101256D01*
X95936679Y-96158030D01*
X95950000Y-96225000D01*
X95950000Y-96575000D01*
X95936679Y-96641970D01*
X95898744Y-96698744D01*
X95841970Y-96736679D01*
X95775000Y-96750000D01*
X93625000Y-96750000D01*
X93558030Y-96736679D01*
X93501256Y-96698744D01*
X93463321Y-96641970D01*
X93450000Y-96575000D01*
X93450000Y-96225000D01*
X93463321Y-96158030D01*
X93501256Y-96101256D01*
X93558030Y-96063321D01*
X93625000Y-96050000D01*
X95775000Y-96050000D01*
X95841970Y-96063321D01*
G37*
G04 #@! TD.AperFunction*
G04 #@! TA.AperFunction,SMDPad,CuDef*
G36*
X92941970Y-98413321D02*
G01*
X92998744Y-98451256D01*
X93036679Y-98508030D01*
X93050000Y-98575000D01*
X93050000Y-100725000D01*
X93036679Y-100791970D01*
X92998744Y-100848744D01*
X92941970Y-100886679D01*
X92875000Y-100900000D01*
X92525000Y-100900000D01*
X92458030Y-100886679D01*
X92401256Y-100848744D01*
X92363321Y-100791970D01*
X92350000Y-100725000D01*
X92350000Y-98575000D01*
X92363321Y-98508030D01*
X92401256Y-98451256D01*
X92458030Y-98413321D01*
X92525000Y-98400000D01*
X92875000Y-98400000D01*
X92941970Y-98413321D01*
G37*
G04 #@! TD.AperFunction*
G04 #@! TA.AperFunction,SMDPad,CuDef*
G36*
X91841970Y-98413321D02*
G01*
X91898744Y-98451256D01*
X91936679Y-98508030D01*
X91950000Y-98575000D01*
X91950000Y-100725000D01*
X91936679Y-100791970D01*
X91898744Y-100848744D01*
X91841970Y-100886679D01*
X91775000Y-100900000D01*
X91425000Y-100900000D01*
X91358030Y-100886679D01*
X91301256Y-100848744D01*
X91263321Y-100791970D01*
X91250000Y-100725000D01*
X91250000Y-98575000D01*
X91263321Y-98508030D01*
X91301256Y-98451256D01*
X91358030Y-98413321D01*
X91425000Y-98400000D01*
X91775000Y-98400000D01*
X91841970Y-98413321D01*
G37*
G04 #@! TD.AperFunction*
G04 #@! TA.AperFunction,SMDPad,CuDef*
G36*
X90741970Y-98413321D02*
G01*
X90798744Y-98451256D01*
X90836679Y-98508030D01*
X90850000Y-98575000D01*
X90850000Y-100725000D01*
X90836679Y-100791970D01*
X90798744Y-100848744D01*
X90741970Y-100886679D01*
X90675000Y-100900000D01*
X90325000Y-100900000D01*
X90258030Y-100886679D01*
X90201256Y-100848744D01*
X90163321Y-100791970D01*
X90150000Y-100725000D01*
X90150000Y-98575000D01*
X90163321Y-98508030D01*
X90201256Y-98451256D01*
X90258030Y-98413321D01*
X90325000Y-98400000D01*
X90675000Y-98400000D01*
X90741970Y-98413321D01*
G37*
G04 #@! TD.AperFunction*
G04 #@! TA.AperFunction,SMDPad,CuDef*
G36*
X89641970Y-98413321D02*
G01*
X89698744Y-98451256D01*
X89736679Y-98508030D01*
X89750000Y-98575000D01*
X89750000Y-100725000D01*
X89736679Y-100791970D01*
X89698744Y-100848744D01*
X89641970Y-100886679D01*
X89575000Y-100900000D01*
X89225000Y-100900000D01*
X89158030Y-100886679D01*
X89101256Y-100848744D01*
X89063321Y-100791970D01*
X89050000Y-100725000D01*
X89050000Y-98575000D01*
X89063321Y-98508030D01*
X89101256Y-98451256D01*
X89158030Y-98413321D01*
X89225000Y-98400000D01*
X89575000Y-98400000D01*
X89641970Y-98413321D01*
G37*
G04 #@! TD.AperFunction*
G04 #@! TA.AperFunction,SMDPad,CuDef*
G36*
X88541970Y-98413321D02*
G01*
X88598744Y-98451256D01*
X88636679Y-98508030D01*
X88650000Y-98575000D01*
X88650000Y-100725000D01*
X88636679Y-100791970D01*
X88598744Y-100848744D01*
X88541970Y-100886679D01*
X88475000Y-100900000D01*
X88125000Y-100900000D01*
X88058030Y-100886679D01*
X88001256Y-100848744D01*
X87963321Y-100791970D01*
X87950000Y-100725000D01*
X87950000Y-98575000D01*
X87963321Y-98508030D01*
X88001256Y-98451256D01*
X88058030Y-98413321D01*
X88125000Y-98400000D01*
X88475000Y-98400000D01*
X88541970Y-98413321D01*
G37*
G04 #@! TD.AperFunction*
G04 #@! TA.AperFunction,SMDPad,CuDef*
G36*
X87441970Y-98413321D02*
G01*
X87498744Y-98451256D01*
X87536679Y-98508030D01*
X87550000Y-98575000D01*
X87550000Y-100725000D01*
X87536679Y-100791970D01*
X87498744Y-100848744D01*
X87441970Y-100886679D01*
X87375000Y-100900000D01*
X87025000Y-100900000D01*
X86958030Y-100886679D01*
X86901256Y-100848744D01*
X86863321Y-100791970D01*
X86850000Y-100725000D01*
X86850000Y-98575000D01*
X86863321Y-98508030D01*
X86901256Y-98451256D01*
X86958030Y-98413321D01*
X87025000Y-98400000D01*
X87375000Y-98400000D01*
X87441970Y-98413321D01*
G37*
G04 #@! TD.AperFunction*
G04 #@! TA.AperFunction,SMDPad,CuDef*
G36*
X86341970Y-98413321D02*
G01*
X86398744Y-98451256D01*
X86436679Y-98508030D01*
X86450000Y-98575000D01*
X86450000Y-100725000D01*
X86436679Y-100791970D01*
X86398744Y-100848744D01*
X86341970Y-100886679D01*
X86275000Y-100900000D01*
X85925000Y-100900000D01*
X85858030Y-100886679D01*
X85801256Y-100848744D01*
X85763321Y-100791970D01*
X85750000Y-100725000D01*
X85750000Y-98575000D01*
X85763321Y-98508030D01*
X85801256Y-98451256D01*
X85858030Y-98413321D01*
X85925000Y-98400000D01*
X86275000Y-98400000D01*
X86341970Y-98413321D01*
G37*
G04 #@! TD.AperFunction*
G04 #@! TA.AperFunction,SMDPad,CuDef*
G36*
X85241970Y-98413321D02*
G01*
X85298744Y-98451256D01*
X85336679Y-98508030D01*
X85350000Y-98575000D01*
X85350000Y-100725000D01*
X85336679Y-100791970D01*
X85298744Y-100848744D01*
X85241970Y-100886679D01*
X85175000Y-100900000D01*
X84825000Y-100900000D01*
X84758030Y-100886679D01*
X84701256Y-100848744D01*
X84663321Y-100791970D01*
X84650000Y-100725000D01*
X84650000Y-98575000D01*
X84663321Y-98508030D01*
X84701256Y-98451256D01*
X84758030Y-98413321D01*
X84825000Y-98400000D01*
X85175000Y-98400000D01*
X85241970Y-98413321D01*
G37*
G04 #@! TD.AperFunction*
G04 #@! TA.AperFunction,SMDPad,CuDef*
G36*
X84141970Y-98413321D02*
G01*
X84198744Y-98451256D01*
X84236679Y-98508030D01*
X84250000Y-98575000D01*
X84250000Y-100725000D01*
X84236679Y-100791970D01*
X84198744Y-100848744D01*
X84141970Y-100886679D01*
X84075000Y-100900000D01*
X83725000Y-100900000D01*
X83658030Y-100886679D01*
X83601256Y-100848744D01*
X83563321Y-100791970D01*
X83550000Y-100725000D01*
X83550000Y-98575000D01*
X83563321Y-98508030D01*
X83601256Y-98451256D01*
X83658030Y-98413321D01*
X83725000Y-98400000D01*
X84075000Y-98400000D01*
X84141970Y-98413321D01*
G37*
G04 #@! TD.AperFunction*
G04 #@! TA.AperFunction,SMDPad,CuDef*
G36*
X83041970Y-98413321D02*
G01*
X83098744Y-98451256D01*
X83136679Y-98508030D01*
X83150000Y-98575000D01*
X83150000Y-100725000D01*
X83136679Y-100791970D01*
X83098744Y-100848744D01*
X83041970Y-100886679D01*
X82975000Y-100900000D01*
X82625000Y-100900000D01*
X82558030Y-100886679D01*
X82501256Y-100848744D01*
X82463321Y-100791970D01*
X82450000Y-100725000D01*
X82450000Y-98575000D01*
X82463321Y-98508030D01*
X82501256Y-98451256D01*
X82558030Y-98413321D01*
X82625000Y-98400000D01*
X82975000Y-98400000D01*
X83041970Y-98413321D01*
G37*
G04 #@! TD.AperFunction*
G04 #@! TA.AperFunction,SMDPad,CuDef*
G36*
X81941970Y-98413321D02*
G01*
X81998744Y-98451256D01*
X82036679Y-98508030D01*
X82050000Y-98575000D01*
X82050000Y-100725000D01*
X82036679Y-100791970D01*
X81998744Y-100848744D01*
X81941970Y-100886679D01*
X81875000Y-100900000D01*
X81525000Y-100900000D01*
X81458030Y-100886679D01*
X81401256Y-100848744D01*
X81363321Y-100791970D01*
X81350000Y-100725000D01*
X81350000Y-98575000D01*
X81363321Y-98508030D01*
X81401256Y-98451256D01*
X81458030Y-98413321D01*
X81525000Y-98400000D01*
X81875000Y-98400000D01*
X81941970Y-98413321D01*
G37*
G04 #@! TD.AperFunction*
G04 #@! TA.AperFunction,SMDPad,CuDef*
G36*
X80841970Y-98413321D02*
G01*
X80898744Y-98451256D01*
X80936679Y-98508030D01*
X80950000Y-98575000D01*
X80950000Y-100725000D01*
X80936679Y-100791970D01*
X80898744Y-100848744D01*
X80841970Y-100886679D01*
X80775000Y-100900000D01*
X80425000Y-100900000D01*
X80358030Y-100886679D01*
X80301256Y-100848744D01*
X80263321Y-100791970D01*
X80250000Y-100725000D01*
X80250000Y-98575000D01*
X80263321Y-98508030D01*
X80301256Y-98451256D01*
X80358030Y-98413321D01*
X80425000Y-98400000D01*
X80775000Y-98400000D01*
X80841970Y-98413321D01*
G37*
G04 #@! TD.AperFunction*
G04 #@! TA.AperFunction,SMDPad,CuDef*
G36*
X79741970Y-98413321D02*
G01*
X79798744Y-98451256D01*
X79836679Y-98508030D01*
X79850000Y-98575000D01*
X79850000Y-100725000D01*
X79836679Y-100791970D01*
X79798744Y-100848744D01*
X79741970Y-100886679D01*
X79675000Y-100900000D01*
X79325000Y-100900000D01*
X79258030Y-100886679D01*
X79201256Y-100848744D01*
X79163321Y-100791970D01*
X79150000Y-100725000D01*
X79150000Y-98575000D01*
X79163321Y-98508030D01*
X79201256Y-98451256D01*
X79258030Y-98413321D01*
X79325000Y-98400000D01*
X79675000Y-98400000D01*
X79741970Y-98413321D01*
G37*
G04 #@! TD.AperFunction*
G04 #@! TA.AperFunction,SMDPad,CuDef*
G36*
X78641970Y-96063321D02*
G01*
X78698744Y-96101256D01*
X78736679Y-96158030D01*
X78750000Y-96225000D01*
X78750000Y-96575000D01*
X78736679Y-96641970D01*
X78698744Y-96698744D01*
X78641970Y-96736679D01*
X78575000Y-96750000D01*
X76425000Y-96750000D01*
X76358030Y-96736679D01*
X76301256Y-96698744D01*
X76263321Y-96641970D01*
X76250000Y-96575000D01*
X76250000Y-96225000D01*
X76263321Y-96158030D01*
X76301256Y-96101256D01*
X76358030Y-96063321D01*
X76425000Y-96050000D01*
X78575000Y-96050000D01*
X78641970Y-96063321D01*
G37*
G04 #@! TD.AperFunction*
G04 #@! TA.AperFunction,SMDPad,CuDef*
G36*
X78641970Y-94963321D02*
G01*
X78698744Y-95001256D01*
X78736679Y-95058030D01*
X78750000Y-95125000D01*
X78750000Y-95475000D01*
X78736679Y-95541970D01*
X78698744Y-95598744D01*
X78641970Y-95636679D01*
X78575000Y-95650000D01*
X76425000Y-95650000D01*
X76358030Y-95636679D01*
X76301256Y-95598744D01*
X76263321Y-95541970D01*
X76250000Y-95475000D01*
X76250000Y-95125000D01*
X76263321Y-95058030D01*
X76301256Y-95001256D01*
X76358030Y-94963321D01*
X76425000Y-94950000D01*
X78575000Y-94950000D01*
X78641970Y-94963321D01*
G37*
G04 #@! TD.AperFunction*
G04 #@! TA.AperFunction,SMDPad,CuDef*
G36*
X78641970Y-93863321D02*
G01*
X78698744Y-93901256D01*
X78736679Y-93958030D01*
X78750000Y-94025000D01*
X78750000Y-94375000D01*
X78736679Y-94441970D01*
X78698744Y-94498744D01*
X78641970Y-94536679D01*
X78575000Y-94550000D01*
X76425000Y-94550000D01*
X76358030Y-94536679D01*
X76301256Y-94498744D01*
X76263321Y-94441970D01*
X76250000Y-94375000D01*
X76250000Y-94025000D01*
X76263321Y-93958030D01*
X76301256Y-93901256D01*
X76358030Y-93863321D01*
X76425000Y-93850000D01*
X78575000Y-93850000D01*
X78641970Y-93863321D01*
G37*
G04 #@! TD.AperFunction*
G04 #@! TA.AperFunction,SMDPad,CuDef*
G36*
X78641970Y-92763321D02*
G01*
X78698744Y-92801256D01*
X78736679Y-92858030D01*
X78750000Y-92925000D01*
X78750000Y-93275000D01*
X78736679Y-93341970D01*
X78698744Y-93398744D01*
X78641970Y-93436679D01*
X78575000Y-93450000D01*
X76425000Y-93450000D01*
X76358030Y-93436679D01*
X76301256Y-93398744D01*
X76263321Y-93341970D01*
X76250000Y-93275000D01*
X76250000Y-92925000D01*
X76263321Y-92858030D01*
X76301256Y-92801256D01*
X76358030Y-92763321D01*
X76425000Y-92750000D01*
X78575000Y-92750000D01*
X78641970Y-92763321D01*
G37*
G04 #@! TD.AperFunction*
G04 #@! TA.AperFunction,SMDPad,CuDef*
G36*
X78641970Y-91663321D02*
G01*
X78698744Y-91701256D01*
X78736679Y-91758030D01*
X78750000Y-91825000D01*
X78750000Y-92175000D01*
X78736679Y-92241970D01*
X78698744Y-92298744D01*
X78641970Y-92336679D01*
X78575000Y-92350000D01*
X76425000Y-92350000D01*
X76358030Y-92336679D01*
X76301256Y-92298744D01*
X76263321Y-92241970D01*
X76250000Y-92175000D01*
X76250000Y-91825000D01*
X76263321Y-91758030D01*
X76301256Y-91701256D01*
X76358030Y-91663321D01*
X76425000Y-91650000D01*
X78575000Y-91650000D01*
X78641970Y-91663321D01*
G37*
G04 #@! TD.AperFunction*
G04 #@! TA.AperFunction,SMDPad,CuDef*
G36*
X78641970Y-90563321D02*
G01*
X78698744Y-90601256D01*
X78736679Y-90658030D01*
X78750000Y-90725000D01*
X78750000Y-91075000D01*
X78736679Y-91141970D01*
X78698744Y-91198744D01*
X78641970Y-91236679D01*
X78575000Y-91250000D01*
X76425000Y-91250000D01*
X76358030Y-91236679D01*
X76301256Y-91198744D01*
X76263321Y-91141970D01*
X76250000Y-91075000D01*
X76250000Y-90725000D01*
X76263321Y-90658030D01*
X76301256Y-90601256D01*
X76358030Y-90563321D01*
X76425000Y-90550000D01*
X78575000Y-90550000D01*
X78641970Y-90563321D01*
G37*
G04 #@! TD.AperFunction*
G04 #@! TA.AperFunction,SMDPad,CuDef*
G36*
X78641970Y-89463321D02*
G01*
X78698744Y-89501256D01*
X78736679Y-89558030D01*
X78750000Y-89625000D01*
X78750000Y-89975000D01*
X78736679Y-90041970D01*
X78698744Y-90098744D01*
X78641970Y-90136679D01*
X78575000Y-90150000D01*
X76425000Y-90150000D01*
X76358030Y-90136679D01*
X76301256Y-90098744D01*
X76263321Y-90041970D01*
X76250000Y-89975000D01*
X76250000Y-89625000D01*
X76263321Y-89558030D01*
X76301256Y-89501256D01*
X76358030Y-89463321D01*
X76425000Y-89450000D01*
X78575000Y-89450000D01*
X78641970Y-89463321D01*
G37*
G04 #@! TD.AperFunction*
G04 #@! TA.AperFunction,SMDPad,CuDef*
G36*
X78641970Y-88363321D02*
G01*
X78698744Y-88401256D01*
X78736679Y-88458030D01*
X78750000Y-88525000D01*
X78750000Y-88875000D01*
X78736679Y-88941970D01*
X78698744Y-88998744D01*
X78641970Y-89036679D01*
X78575000Y-89050000D01*
X76425000Y-89050000D01*
X76358030Y-89036679D01*
X76301256Y-88998744D01*
X76263321Y-88941970D01*
X76250000Y-88875000D01*
X76250000Y-88525000D01*
X76263321Y-88458030D01*
X76301256Y-88401256D01*
X76358030Y-88363321D01*
X76425000Y-88350000D01*
X78575000Y-88350000D01*
X78641970Y-88363321D01*
G37*
G04 #@! TD.AperFunction*
G04 #@! TA.AperFunction,SMDPad,CuDef*
G36*
X78641970Y-87263321D02*
G01*
X78698744Y-87301256D01*
X78736679Y-87358030D01*
X78750000Y-87425000D01*
X78750000Y-87775000D01*
X78736679Y-87841970D01*
X78698744Y-87898744D01*
X78641970Y-87936679D01*
X78575000Y-87950000D01*
X76425000Y-87950000D01*
X76358030Y-87936679D01*
X76301256Y-87898744D01*
X76263321Y-87841970D01*
X76250000Y-87775000D01*
X76250000Y-87425000D01*
X76263321Y-87358030D01*
X76301256Y-87301256D01*
X76358030Y-87263321D01*
X76425000Y-87250000D01*
X78575000Y-87250000D01*
X78641970Y-87263321D01*
G37*
G04 #@! TD.AperFunction*
G04 #@! TA.AperFunction,SMDPad,CuDef*
G36*
X79741970Y-83113321D02*
G01*
X79798744Y-83151256D01*
X79836679Y-83208030D01*
X79850000Y-83275000D01*
X79850000Y-85425000D01*
X79836679Y-85491970D01*
X79798744Y-85548744D01*
X79741970Y-85586679D01*
X79675000Y-85600000D01*
X79325000Y-85600000D01*
X79258030Y-85586679D01*
X79201256Y-85548744D01*
X79163321Y-85491970D01*
X79150000Y-85425000D01*
X79150000Y-83275000D01*
X79163321Y-83208030D01*
X79201256Y-83151256D01*
X79258030Y-83113321D01*
X79325000Y-83100000D01*
X79675000Y-83100000D01*
X79741970Y-83113321D01*
G37*
G04 #@! TD.AperFunction*
G04 #@! TA.AperFunction,SMDPad,CuDef*
G36*
X80841970Y-83113321D02*
G01*
X80898744Y-83151256D01*
X80936679Y-83208030D01*
X80950000Y-83275000D01*
X80950000Y-85425000D01*
X80936679Y-85491970D01*
X80898744Y-85548744D01*
X80841970Y-85586679D01*
X80775000Y-85600000D01*
X80425000Y-85600000D01*
X80358030Y-85586679D01*
X80301256Y-85548744D01*
X80263321Y-85491970D01*
X80250000Y-85425000D01*
X80250000Y-83275000D01*
X80263321Y-83208030D01*
X80301256Y-83151256D01*
X80358030Y-83113321D01*
X80425000Y-83100000D01*
X80775000Y-83100000D01*
X80841970Y-83113321D01*
G37*
G04 #@! TD.AperFunction*
G04 #@! TA.AperFunction,SMDPad,CuDef*
G36*
X81941970Y-83113321D02*
G01*
X81998744Y-83151256D01*
X82036679Y-83208030D01*
X82050000Y-83275000D01*
X82050000Y-85425000D01*
X82036679Y-85491970D01*
X81998744Y-85548744D01*
X81941970Y-85586679D01*
X81875000Y-85600000D01*
X81525000Y-85600000D01*
X81458030Y-85586679D01*
X81401256Y-85548744D01*
X81363321Y-85491970D01*
X81350000Y-85425000D01*
X81350000Y-83275000D01*
X81363321Y-83208030D01*
X81401256Y-83151256D01*
X81458030Y-83113321D01*
X81525000Y-83100000D01*
X81875000Y-83100000D01*
X81941970Y-83113321D01*
G37*
G04 #@! TD.AperFunction*
G04 #@! TA.AperFunction,SMDPad,CuDef*
G36*
X83041970Y-83113321D02*
G01*
X83098744Y-83151256D01*
X83136679Y-83208030D01*
X83150000Y-83275000D01*
X83150000Y-85425000D01*
X83136679Y-85491970D01*
X83098744Y-85548744D01*
X83041970Y-85586679D01*
X82975000Y-85600000D01*
X82625000Y-85600000D01*
X82558030Y-85586679D01*
X82501256Y-85548744D01*
X82463321Y-85491970D01*
X82450000Y-85425000D01*
X82450000Y-83275000D01*
X82463321Y-83208030D01*
X82501256Y-83151256D01*
X82558030Y-83113321D01*
X82625000Y-83100000D01*
X82975000Y-83100000D01*
X83041970Y-83113321D01*
G37*
G04 #@! TD.AperFunction*
G04 #@! TA.AperFunction,SMDPad,CuDef*
G36*
X84141970Y-83113321D02*
G01*
X84198744Y-83151256D01*
X84236679Y-83208030D01*
X84250000Y-83275000D01*
X84250000Y-85425000D01*
X84236679Y-85491970D01*
X84198744Y-85548744D01*
X84141970Y-85586679D01*
X84075000Y-85600000D01*
X83725000Y-85600000D01*
X83658030Y-85586679D01*
X83601256Y-85548744D01*
X83563321Y-85491970D01*
X83550000Y-85425000D01*
X83550000Y-83275000D01*
X83563321Y-83208030D01*
X83601256Y-83151256D01*
X83658030Y-83113321D01*
X83725000Y-83100000D01*
X84075000Y-83100000D01*
X84141970Y-83113321D01*
G37*
G04 #@! TD.AperFunction*
G04 #@! TA.AperFunction,SMDPad,CuDef*
G36*
X85241970Y-83113321D02*
G01*
X85298744Y-83151256D01*
X85336679Y-83208030D01*
X85350000Y-83275000D01*
X85350000Y-85425000D01*
X85336679Y-85491970D01*
X85298744Y-85548744D01*
X85241970Y-85586679D01*
X85175000Y-85600000D01*
X84825000Y-85600000D01*
X84758030Y-85586679D01*
X84701256Y-85548744D01*
X84663321Y-85491970D01*
X84650000Y-85425000D01*
X84650000Y-83275000D01*
X84663321Y-83208030D01*
X84701256Y-83151256D01*
X84758030Y-83113321D01*
X84825000Y-83100000D01*
X85175000Y-83100000D01*
X85241970Y-83113321D01*
G37*
G04 #@! TD.AperFunction*
G04 #@! TA.AperFunction,SMDPad,CuDef*
G36*
X86341970Y-83113321D02*
G01*
X86398744Y-83151256D01*
X86436679Y-83208030D01*
X86450000Y-83275000D01*
X86450000Y-85425000D01*
X86436679Y-85491970D01*
X86398744Y-85548744D01*
X86341970Y-85586679D01*
X86275000Y-85600000D01*
X85925000Y-85600000D01*
X85858030Y-85586679D01*
X85801256Y-85548744D01*
X85763321Y-85491970D01*
X85750000Y-85425000D01*
X85750000Y-83275000D01*
X85763321Y-83208030D01*
X85801256Y-83151256D01*
X85858030Y-83113321D01*
X85925000Y-83100000D01*
X86275000Y-83100000D01*
X86341970Y-83113321D01*
G37*
G04 #@! TD.AperFunction*
G04 #@! TA.AperFunction,SMDPad,CuDef*
G36*
X87441970Y-83113321D02*
G01*
X87498744Y-83151256D01*
X87536679Y-83208030D01*
X87550000Y-83275000D01*
X87550000Y-85425000D01*
X87536679Y-85491970D01*
X87498744Y-85548744D01*
X87441970Y-85586679D01*
X87375000Y-85600000D01*
X87025000Y-85600000D01*
X86958030Y-85586679D01*
X86901256Y-85548744D01*
X86863321Y-85491970D01*
X86850000Y-85425000D01*
X86850000Y-83275000D01*
X86863321Y-83208030D01*
X86901256Y-83151256D01*
X86958030Y-83113321D01*
X87025000Y-83100000D01*
X87375000Y-83100000D01*
X87441970Y-83113321D01*
G37*
G04 #@! TD.AperFunction*
G04 #@! TA.AperFunction,SMDPad,CuDef*
G36*
X88541970Y-83113321D02*
G01*
X88598744Y-83151256D01*
X88636679Y-83208030D01*
X88650000Y-83275000D01*
X88650000Y-85425000D01*
X88636679Y-85491970D01*
X88598744Y-85548744D01*
X88541970Y-85586679D01*
X88475000Y-85600000D01*
X88125000Y-85600000D01*
X88058030Y-85586679D01*
X88001256Y-85548744D01*
X87963321Y-85491970D01*
X87950000Y-85425000D01*
X87950000Y-83275000D01*
X87963321Y-83208030D01*
X88001256Y-83151256D01*
X88058030Y-83113321D01*
X88125000Y-83100000D01*
X88475000Y-83100000D01*
X88541970Y-83113321D01*
G37*
G04 #@! TD.AperFunction*
G04 #@! TA.AperFunction,SMDPad,CuDef*
G36*
X89641970Y-83113321D02*
G01*
X89698744Y-83151256D01*
X89736679Y-83208030D01*
X89750000Y-83275000D01*
X89750000Y-85425000D01*
X89736679Y-85491970D01*
X89698744Y-85548744D01*
X89641970Y-85586679D01*
X89575000Y-85600000D01*
X89225000Y-85600000D01*
X89158030Y-85586679D01*
X89101256Y-85548744D01*
X89063321Y-85491970D01*
X89050000Y-85425000D01*
X89050000Y-83275000D01*
X89063321Y-83208030D01*
X89101256Y-83151256D01*
X89158030Y-83113321D01*
X89225000Y-83100000D01*
X89575000Y-83100000D01*
X89641970Y-83113321D01*
G37*
G04 #@! TD.AperFunction*
G04 #@! TA.AperFunction,SMDPad,CuDef*
G36*
X90741970Y-83113321D02*
G01*
X90798744Y-83151256D01*
X90836679Y-83208030D01*
X90850000Y-83275000D01*
X90850000Y-85425000D01*
X90836679Y-85491970D01*
X90798744Y-85548744D01*
X90741970Y-85586679D01*
X90675000Y-85600000D01*
X90325000Y-85600000D01*
X90258030Y-85586679D01*
X90201256Y-85548744D01*
X90163321Y-85491970D01*
X90150000Y-85425000D01*
X90150000Y-83275000D01*
X90163321Y-83208030D01*
X90201256Y-83151256D01*
X90258030Y-83113321D01*
X90325000Y-83100000D01*
X90675000Y-83100000D01*
X90741970Y-83113321D01*
G37*
G04 #@! TD.AperFunction*
G04 #@! TA.AperFunction,SMDPad,CuDef*
G36*
X91841970Y-83113321D02*
G01*
X91898744Y-83151256D01*
X91936679Y-83208030D01*
X91950000Y-83275000D01*
X91950000Y-85425000D01*
X91936679Y-85491970D01*
X91898744Y-85548744D01*
X91841970Y-85586679D01*
X91775000Y-85600000D01*
X91425000Y-85600000D01*
X91358030Y-85586679D01*
X91301256Y-85548744D01*
X91263321Y-85491970D01*
X91250000Y-85425000D01*
X91250000Y-83275000D01*
X91263321Y-83208030D01*
X91301256Y-83151256D01*
X91358030Y-83113321D01*
X91425000Y-83100000D01*
X91775000Y-83100000D01*
X91841970Y-83113321D01*
G37*
G04 #@! TD.AperFunction*
G04 #@! TA.AperFunction,SMDPad,CuDef*
G36*
X92941970Y-83113321D02*
G01*
X92998744Y-83151256D01*
X93036679Y-83208030D01*
X93050000Y-83275000D01*
X93050000Y-85425000D01*
X93036679Y-85491970D01*
X92998744Y-85548744D01*
X92941970Y-85586679D01*
X92875000Y-85600000D01*
X92525000Y-85600000D01*
X92458030Y-85586679D01*
X92401256Y-85548744D01*
X92363321Y-85491970D01*
X92350000Y-85425000D01*
X92350000Y-83275000D01*
X92363321Y-83208030D01*
X92401256Y-83151256D01*
X92458030Y-83113321D01*
X92525000Y-83100000D01*
X92875000Y-83100000D01*
X92941970Y-83113321D01*
G37*
G04 #@! TD.AperFunction*
D14*
X106900000Y-90890000D03*
X106900000Y-81710000D03*
G04 #@! TA.AperFunction,SMDPad,CuDef*
G36*
X75639962Y-82591651D02*
G01*
X75710930Y-82639070D01*
X75758349Y-82710038D01*
X75775000Y-82793750D01*
X75775000Y-83231250D01*
X75758349Y-83314962D01*
X75710930Y-83385930D01*
X75639962Y-83433349D01*
X75556250Y-83450000D01*
X75043750Y-83450000D01*
X74960038Y-83433349D01*
X74889070Y-83385930D01*
X74841651Y-83314962D01*
X74825000Y-83231250D01*
X74825000Y-82793750D01*
X74841651Y-82710038D01*
X74889070Y-82639070D01*
X74960038Y-82591651D01*
X75043750Y-82575000D01*
X75556250Y-82575000D01*
X75639962Y-82591651D01*
G37*
G04 #@! TD.AperFunction*
G04 #@! TA.AperFunction,SMDPad,CuDef*
G36*
X75639962Y-84166651D02*
G01*
X75710930Y-84214070D01*
X75758349Y-84285038D01*
X75775000Y-84368750D01*
X75775000Y-84806250D01*
X75758349Y-84889962D01*
X75710930Y-84960930D01*
X75639962Y-85008349D01*
X75556250Y-85025000D01*
X75043750Y-85025000D01*
X74960038Y-85008349D01*
X74889070Y-84960930D01*
X74841651Y-84889962D01*
X74825000Y-84806250D01*
X74825000Y-84368750D01*
X74841651Y-84285038D01*
X74889070Y-84214070D01*
X74960038Y-84166651D01*
X75043750Y-84150000D01*
X75556250Y-84150000D01*
X75639962Y-84166651D01*
G37*
G04 #@! TD.AperFunction*
G04 #@! TA.AperFunction,SMDPad,CuDef*
G36*
X99814962Y-99241651D02*
G01*
X99885930Y-99289070D01*
X99933349Y-99360038D01*
X99950000Y-99443750D01*
X99950000Y-99956250D01*
X99933349Y-100039962D01*
X99885930Y-100110930D01*
X99814962Y-100158349D01*
X99731250Y-100175000D01*
X99293750Y-100175000D01*
X99210038Y-100158349D01*
X99139070Y-100110930D01*
X99091651Y-100039962D01*
X99075000Y-99956250D01*
X99075000Y-99443750D01*
X99091651Y-99360038D01*
X99139070Y-99289070D01*
X99210038Y-99241651D01*
X99293750Y-99225000D01*
X99731250Y-99225000D01*
X99814962Y-99241651D01*
G37*
G04 #@! TD.AperFunction*
G04 #@! TA.AperFunction,SMDPad,CuDef*
G36*
X101389962Y-99241651D02*
G01*
X101460930Y-99289070D01*
X101508349Y-99360038D01*
X101525000Y-99443750D01*
X101525000Y-99956250D01*
X101508349Y-100039962D01*
X101460930Y-100110930D01*
X101389962Y-100158349D01*
X101306250Y-100175000D01*
X100868750Y-100175000D01*
X100785038Y-100158349D01*
X100714070Y-100110930D01*
X100666651Y-100039962D01*
X100650000Y-99956250D01*
X100650000Y-99443750D01*
X100666651Y-99360038D01*
X100714070Y-99289070D01*
X100785038Y-99241651D01*
X100868750Y-99225000D01*
X101306250Y-99225000D01*
X101389962Y-99241651D01*
G37*
G04 #@! TD.AperFunction*
D15*
X74330000Y-107000000D03*
X75600000Y-107000000D03*
X76870000Y-107000000D03*
X78140000Y-107000000D03*
X79410000Y-107000000D03*
X80680000Y-107000000D03*
X81950000Y-107000000D03*
X83220000Y-107000000D03*
X84490000Y-107000000D03*
X85760000Y-107000000D03*
X87030000Y-107000000D03*
X88300000Y-107000000D03*
X89570000Y-107000000D03*
X90840000Y-107000000D03*
X92110000Y-107000000D03*
X93380000Y-107000000D03*
X94650000Y-107000000D03*
X95920000Y-107000000D03*
X97190000Y-107000000D03*
X98460000Y-107000000D03*
X99730000Y-107000000D03*
D13*
X101000000Y-107000000D03*
D15*
X74330000Y-73000000D03*
X75600000Y-73000000D03*
X76870000Y-73000000D03*
X78140000Y-73000000D03*
X79410000Y-73000000D03*
X80680000Y-73000000D03*
X81950000Y-73000000D03*
X83220000Y-73000000D03*
X84490000Y-73000000D03*
X85760000Y-73000000D03*
X87030000Y-73000000D03*
X88300000Y-73000000D03*
X89570000Y-73000000D03*
X90840000Y-73000000D03*
X92110000Y-73000000D03*
X93380000Y-73000000D03*
X94650000Y-73000000D03*
X95920000Y-73000000D03*
X97190000Y-73000000D03*
X98460000Y-73000000D03*
X99730000Y-73000000D03*
D13*
X101000000Y-73000000D03*
D16*
X107768000Y-102240000D03*
X107768000Y-97160000D03*
D17*
X107768000Y-99700000D03*
G04 #@! TA.AperFunction,SMDPad,CuDef*
G36*
X102739962Y-85091651D02*
G01*
X102810930Y-85139070D01*
X102858349Y-85210038D01*
X102875000Y-85293750D01*
X102875000Y-85731250D01*
X102858349Y-85814962D01*
X102810930Y-85885930D01*
X102739962Y-85933349D01*
X102656250Y-85950000D01*
X102143750Y-85950000D01*
X102060038Y-85933349D01*
X101989070Y-85885930D01*
X101941651Y-85814962D01*
X101925000Y-85731250D01*
X101925000Y-85293750D01*
X101941651Y-85210038D01*
X101989070Y-85139070D01*
X102060038Y-85091651D01*
X102143750Y-85075000D01*
X102656250Y-85075000D01*
X102739962Y-85091651D01*
G37*
G04 #@! TD.AperFunction*
G04 #@! TA.AperFunction,SMDPad,CuDef*
G36*
X102739962Y-86666651D02*
G01*
X102810930Y-86714070D01*
X102858349Y-86785038D01*
X102875000Y-86868750D01*
X102875000Y-87306250D01*
X102858349Y-87389962D01*
X102810930Y-87460930D01*
X102739962Y-87508349D01*
X102656250Y-87525000D01*
X102143750Y-87525000D01*
X102060038Y-87508349D01*
X101989070Y-87460930D01*
X101941651Y-87389962D01*
X101925000Y-87306250D01*
X101925000Y-86868750D01*
X101941651Y-86785038D01*
X101989070Y-86714070D01*
X102060038Y-86666651D01*
X102143750Y-86650000D01*
X102656250Y-86650000D01*
X102739962Y-86666651D01*
G37*
G04 #@! TD.AperFunction*
G04 #@! TA.AperFunction,SMDPad,CuDef*
G36*
X103039962Y-100866651D02*
G01*
X103110930Y-100914070D01*
X103158349Y-100985038D01*
X103175000Y-101068750D01*
X103175000Y-101506250D01*
X103158349Y-101589962D01*
X103110930Y-101660930D01*
X103039962Y-101708349D01*
X102956250Y-101725000D01*
X102443750Y-101725000D01*
X102360038Y-101708349D01*
X102289070Y-101660930D01*
X102241651Y-101589962D01*
X102225000Y-101506250D01*
X102225000Y-101068750D01*
X102241651Y-100985038D01*
X102289070Y-100914070D01*
X102360038Y-100866651D01*
X102443750Y-100850000D01*
X102956250Y-100850000D01*
X103039962Y-100866651D01*
G37*
G04 #@! TD.AperFunction*
G04 #@! TA.AperFunction,SMDPad,CuDef*
G36*
X103039962Y-99291651D02*
G01*
X103110930Y-99339070D01*
X103158349Y-99410038D01*
X103175000Y-99493750D01*
X103175000Y-99931250D01*
X103158349Y-100014962D01*
X103110930Y-100085930D01*
X103039962Y-100133349D01*
X102956250Y-100150000D01*
X102443750Y-100150000D01*
X102360038Y-100133349D01*
X102289070Y-100085930D01*
X102241651Y-100014962D01*
X102225000Y-99931250D01*
X102225000Y-99493750D01*
X102241651Y-99410038D01*
X102289070Y-99339070D01*
X102360038Y-99291651D01*
X102443750Y-99275000D01*
X102956250Y-99275000D01*
X103039962Y-99291651D01*
G37*
G04 #@! TD.AperFunction*
G04 #@! TA.AperFunction,SMDPad,CuDef*
G36*
X98239962Y-100866651D02*
G01*
X98310930Y-100914070D01*
X98358349Y-100985038D01*
X98375000Y-101068750D01*
X98375000Y-101506250D01*
X98358349Y-101589962D01*
X98310930Y-101660930D01*
X98239962Y-101708349D01*
X98156250Y-101725000D01*
X97643750Y-101725000D01*
X97560038Y-101708349D01*
X97489070Y-101660930D01*
X97441651Y-101589962D01*
X97425000Y-101506250D01*
X97425000Y-101068750D01*
X97441651Y-100985038D01*
X97489070Y-100914070D01*
X97560038Y-100866651D01*
X97643750Y-100850000D01*
X98156250Y-100850000D01*
X98239962Y-100866651D01*
G37*
G04 #@! TD.AperFunction*
G04 #@! TA.AperFunction,SMDPad,CuDef*
G36*
X98239962Y-99291651D02*
G01*
X98310930Y-99339070D01*
X98358349Y-99410038D01*
X98375000Y-99493750D01*
X98375000Y-99931250D01*
X98358349Y-100014962D01*
X98310930Y-100085930D01*
X98239962Y-100133349D01*
X98156250Y-100150000D01*
X97643750Y-100150000D01*
X97560038Y-100133349D01*
X97489070Y-100085930D01*
X97441651Y-100014962D01*
X97425000Y-99931250D01*
X97425000Y-99493750D01*
X97441651Y-99410038D01*
X97489070Y-99339070D01*
X97560038Y-99291651D01*
X97643750Y-99275000D01*
X98156250Y-99275000D01*
X98239962Y-99291651D01*
G37*
G04 #@! TD.AperFunction*
G04 #@! TA.AperFunction,SMDPad,CuDef*
G36*
X97139962Y-83591651D02*
G01*
X97210930Y-83639070D01*
X97258349Y-83710038D01*
X97275000Y-83793750D01*
X97275000Y-84231250D01*
X97258349Y-84314962D01*
X97210930Y-84385930D01*
X97139962Y-84433349D01*
X97056250Y-84450000D01*
X96543750Y-84450000D01*
X96460038Y-84433349D01*
X96389070Y-84385930D01*
X96341651Y-84314962D01*
X96325000Y-84231250D01*
X96325000Y-83793750D01*
X96341651Y-83710038D01*
X96389070Y-83639070D01*
X96460038Y-83591651D01*
X96543750Y-83575000D01*
X97056250Y-83575000D01*
X97139962Y-83591651D01*
G37*
G04 #@! TD.AperFunction*
G04 #@! TA.AperFunction,SMDPad,CuDef*
G36*
X97139962Y-85166651D02*
G01*
X97210930Y-85214070D01*
X97258349Y-85285038D01*
X97275000Y-85368750D01*
X97275000Y-85806250D01*
X97258349Y-85889962D01*
X97210930Y-85960930D01*
X97139962Y-86008349D01*
X97056250Y-86025000D01*
X96543750Y-86025000D01*
X96460038Y-86008349D01*
X96389070Y-85960930D01*
X96341651Y-85889962D01*
X96325000Y-85806250D01*
X96325000Y-85368750D01*
X96341651Y-85285038D01*
X96389070Y-85214070D01*
X96460038Y-85166651D01*
X96543750Y-85150000D01*
X97056250Y-85150000D01*
X97139962Y-85166651D01*
G37*
G04 #@! TD.AperFunction*
D18*
X74700000Y-90300000D03*
X75325000Y-89700000D03*
X85200000Y-80200000D03*
X84500000Y-82100000D03*
X77800000Y-81900000D03*
X76450000Y-84450000D03*
X80200000Y-96800000D03*
X79800000Y-91300000D03*
X79900000Y-87225000D03*
X81258051Y-88441949D03*
X81074990Y-87400000D03*
X82500000Y-87225000D03*
X88028360Y-93771640D03*
X87700000Y-97200000D03*
X86700000Y-97500000D03*
X82200000Y-78500000D03*
X93100000Y-103900000D03*
X82700000Y-79300000D03*
X87787500Y-75587500D03*
X93700000Y-98500000D03*
X93700000Y-100900000D03*
X95200000Y-98500000D03*
X96700000Y-98500000D03*
X98200000Y-98500000D03*
X99700000Y-98500000D03*
X101200000Y-98500000D03*
X102700000Y-98500000D03*
X104200000Y-98500000D03*
X95200000Y-100900000D03*
X96700000Y-100900000D03*
X99700000Y-100900000D03*
X101200000Y-100900000D03*
X104200000Y-100900000D03*
X93700000Y-97600000D03*
X93700000Y-101800000D03*
X102700000Y-102500000D03*
X98200000Y-102500000D03*
X89600000Y-74800000D03*
X95800000Y-74800000D03*
X102600000Y-75300000D03*
X92700000Y-81700000D03*
X92200000Y-78200000D03*
X95200000Y-97600000D03*
X96700000Y-97600000D03*
X98200000Y-97600000D03*
X99700000Y-97600000D03*
X101200000Y-97600000D03*
X102700000Y-97600000D03*
X104200000Y-97600000D03*
X95200000Y-101800000D03*
X96700000Y-101800000D03*
X99700000Y-101800000D03*
X101200000Y-101800000D03*
X104200000Y-101800000D03*
X104400000Y-81500000D03*
X96800000Y-82400000D03*
X94400000Y-84300000D03*
X97700000Y-90900000D03*
X97700000Y-92000000D03*
X97100000Y-96400000D03*
X92300000Y-96500000D03*
X91600000Y-97600000D03*
X84000000Y-102000000D03*
X77800000Y-103900000D03*
X76900000Y-105300000D03*
X75600000Y-105300000D03*
X74300000Y-105300000D03*
X78200000Y-105300000D03*
X74900000Y-94300000D03*
X83900000Y-97300000D03*
X83900000Y-79600000D03*
X73500000Y-74900000D03*
X96800000Y-80600000D03*
X96800000Y-78700000D03*
X96800000Y-77000000D03*
X91800000Y-87600000D03*
X77700000Y-99300000D03*
X97600000Y-103500000D03*
X100200000Y-103500000D03*
X107800000Y-104400000D03*
X107800000Y-94800000D03*
X99500000Y-87300000D03*
D19*
X99512500Y-99700000D02*
X92865010Y-99700000D01*
X107768000Y-99700000D02*
X101087500Y-99700000D01*
D20*
X104437500Y-87087500D02*
X102875000Y-87087500D01*
X102875000Y-87087500D02*
X102400000Y-87087500D01*
X106900000Y-89550000D02*
X104437500Y-87087500D01*
X106900000Y-90890000D02*
X106900000Y-89550000D01*
D21*
X88037500Y-77550000D02*
X87787500Y-77300000D01*
X89200000Y-77550000D02*
X88037500Y-77550000D01*
X89200000Y-78200000D02*
X89200000Y-78850000D01*
X87837500Y-78850000D02*
X87787500Y-78900000D01*
X89200000Y-78850000D02*
X87837500Y-78850000D01*
D20*
X78824990Y-76975010D02*
X73975010Y-81824990D01*
X79410000Y-73000000D02*
X78824990Y-73585010D01*
X78824990Y-73585010D02*
X78824990Y-76975010D01*
X76250000Y-93100000D02*
X77500000Y-93100000D01*
X73975010Y-90825010D02*
X76250000Y-93100000D01*
X73975010Y-81824990D02*
X73975010Y-90825010D01*
X85000000Y-99650000D02*
X85000000Y-104600000D01*
X84490000Y-105110000D02*
X84490000Y-107000000D01*
X85000000Y-104600000D02*
X84490000Y-105110000D01*
X86100000Y-99650000D02*
X86100000Y-104800000D01*
X85760000Y-105140000D02*
X85760000Y-107000000D01*
X86100000Y-104800000D02*
X85760000Y-105140000D01*
D22*
X94700000Y-88700000D02*
X94700000Y-89800000D01*
X95950000Y-89800000D02*
X94700000Y-89800000D01*
X96800000Y-88950000D02*
X95950000Y-89800000D01*
X96800000Y-85587500D02*
X96800000Y-88950000D01*
X96650000Y-88800000D02*
X96800000Y-88950000D01*
X94700000Y-88700000D02*
X94800000Y-88800000D01*
X94800000Y-88800000D02*
X96650000Y-88800000D01*
X99730000Y-73000000D02*
X101000000Y-73000000D01*
X98612500Y-85587500D02*
X96800000Y-85587500D01*
X100229999Y-83970001D02*
X98612500Y-85587500D01*
X99730000Y-73000000D02*
X100229999Y-73499999D01*
X100229999Y-73499999D02*
X100229999Y-83970001D01*
D20*
X75300000Y-84587500D02*
X75300000Y-88000000D01*
X76000000Y-88700000D02*
X77500000Y-88700000D01*
X75300000Y-88000000D02*
X76000000Y-88700000D01*
X76400000Y-92000000D02*
X77500000Y-92000000D01*
X74700000Y-90300000D02*
X76400000Y-92000000D01*
X77500000Y-90900000D02*
X77150000Y-91250000D01*
X76875000Y-91250000D02*
X75325000Y-89700000D01*
X77150000Y-91250000D02*
X76875000Y-91250000D01*
D22*
X85624264Y-80200000D02*
X85200000Y-80200000D01*
X87787500Y-79375000D02*
X86962500Y-80200000D01*
X86962500Y-80200000D02*
X85624264Y-80200000D01*
X87787500Y-78900000D02*
X87787500Y-79375000D01*
D20*
X83900000Y-84350000D02*
X83900000Y-82700000D01*
X83900000Y-82700000D02*
X84500000Y-82100000D01*
D21*
X87200000Y-83100000D02*
X87200000Y-84350000D01*
X87200000Y-81750000D02*
X87200000Y-83100000D01*
X89600000Y-79350000D02*
X87200000Y-81750000D01*
X89600000Y-78850000D02*
X89600000Y-79350000D01*
X90000000Y-79600000D02*
X90000000Y-78850000D01*
X88300000Y-84350000D02*
X88300000Y-81300000D01*
X88300000Y-81300000D02*
X90000000Y-79600000D01*
X95920000Y-73000000D02*
X92820000Y-76100000D01*
X92820000Y-76100000D02*
X91731396Y-76100000D01*
X90800000Y-77031396D02*
X90800000Y-77550000D01*
X91731396Y-76100000D02*
X90800000Y-77031396D01*
X89600000Y-76500000D02*
X89600000Y-77550000D01*
X91300000Y-74800000D02*
X89600000Y-76500000D01*
X91700000Y-74800000D02*
X91300000Y-74800000D01*
X92110000Y-73000000D02*
X92110000Y-74390000D01*
X92110000Y-74390000D02*
X91700000Y-74800000D01*
X94650000Y-73350000D02*
X94650000Y-73000000D01*
X92400000Y-75600000D02*
X94650000Y-73350000D01*
X91665698Y-75600000D02*
X92400000Y-75600000D01*
X90400000Y-77550000D02*
X90400000Y-76865698D01*
X90400000Y-76865698D02*
X91665698Y-75600000D01*
X90000000Y-76700000D02*
X90000000Y-77550000D01*
X91500000Y-75200000D02*
X90000000Y-76700000D01*
X93380000Y-73000000D02*
X93380000Y-73770000D01*
X91950000Y-75200000D02*
X91500000Y-75200000D01*
X93380000Y-73770000D02*
X91950000Y-75200000D01*
X89400000Y-80900000D02*
X89400000Y-84350000D01*
X90400000Y-78850000D02*
X90400000Y-79900000D01*
X90400000Y-79900000D02*
X89400000Y-80900000D01*
X90500000Y-80600000D02*
X90500000Y-84350000D01*
X90800000Y-78850000D02*
X90800000Y-80300000D01*
X90800000Y-80300000D02*
X90500000Y-80600000D01*
D22*
X99730000Y-107000000D02*
X101000000Y-107000000D01*
D20*
X76312500Y-84587500D02*
X75300000Y-84587500D01*
X80680000Y-73000000D02*
X80680000Y-77820000D01*
X79000000Y-79500000D02*
X79000000Y-81900000D01*
X80680000Y-77820000D02*
X79000000Y-79500000D01*
X86100000Y-82400000D02*
X86100000Y-83100000D01*
X81950000Y-73000000D02*
X81450001Y-73499999D01*
X84500000Y-80800000D02*
X86100000Y-82400000D01*
X81450001Y-73499999D02*
X81450001Y-79250001D01*
X83000000Y-80800000D02*
X84500000Y-80800000D01*
X81450001Y-79250001D02*
X83000000Y-80800000D01*
X86100000Y-83100000D02*
X86100000Y-84350000D01*
X75300000Y-83012500D02*
X76687500Y-83012500D01*
X76687500Y-83012500D02*
X77800000Y-81900000D01*
X79000000Y-81900000D02*
X76450000Y-84450000D01*
X76450000Y-84450000D02*
X76312500Y-84587500D01*
D22*
X73347106Y-78500000D02*
X78140000Y-73707106D01*
X78140000Y-73707106D02*
X78140000Y-73000000D01*
X80600000Y-101200000D02*
X80000000Y-101800000D01*
X80600000Y-99650000D02*
X80600000Y-101200000D01*
X80000000Y-101800000D02*
X77700000Y-101800000D01*
X77700000Y-101800000D02*
X73300000Y-97400000D01*
X73300000Y-97400000D02*
X73300000Y-78500000D01*
X73300000Y-78500000D02*
X73347106Y-78500000D01*
D20*
X77500000Y-94200000D02*
X78200000Y-94200000D01*
X78200000Y-94200000D02*
X79200000Y-94200000D01*
X79200000Y-94200000D02*
X80200000Y-95200000D01*
X80200000Y-95200000D02*
X80200000Y-96800000D01*
X77500000Y-89800000D02*
X78200000Y-89800000D01*
X78200000Y-89800000D02*
X79400000Y-89800000D01*
X79400000Y-89800000D02*
X79600000Y-89800000D01*
X79600000Y-89800000D02*
X79800000Y-90000000D01*
X79800000Y-90000000D02*
X79800000Y-91300000D01*
X79500000Y-84350000D02*
X79500000Y-86825000D01*
X79500000Y-86825000D02*
X79900000Y-87225000D01*
X81700000Y-86000000D02*
X81700000Y-84350000D01*
X81700000Y-88000000D02*
X81700000Y-86000000D01*
X81258051Y-88441949D02*
X81700000Y-88000000D01*
X80600000Y-84350000D02*
X80600000Y-86925010D01*
X80600000Y-86925010D02*
X81074990Y-87400000D01*
X82800000Y-84350000D02*
X82800000Y-86900000D01*
X82800000Y-86900000D02*
X82500000Y-87200000D01*
X82500000Y-87200000D02*
X82500000Y-87225000D01*
X80366950Y-89066950D02*
X82481948Y-89066950D01*
X87186638Y-93771640D02*
X87604096Y-93771640D01*
X82481948Y-89066950D02*
X87186638Y-93771640D01*
X77500000Y-87600000D02*
X78900000Y-87600000D01*
X78900000Y-87600000D02*
X80366950Y-89066950D01*
X87604096Y-93771640D02*
X88028360Y-93771640D01*
X88124264Y-97200000D02*
X87700000Y-97200000D01*
X88674996Y-97200000D02*
X88124264Y-97200000D01*
X92774996Y-93100000D02*
X88674996Y-97200000D01*
X94700000Y-93100000D02*
X92774996Y-93100000D01*
X92666101Y-94200000D02*
X89041100Y-97825001D01*
X86999999Y-97799999D02*
X86700000Y-97500000D01*
X87025001Y-97825001D02*
X86999999Y-97799999D01*
X94700000Y-94200000D02*
X92666101Y-94200000D01*
X89041100Y-97825001D02*
X87025001Y-97825001D01*
X83220000Y-73000000D02*
X83220000Y-77480000D01*
X83220000Y-77480000D02*
X82200000Y-78500000D01*
X93380000Y-107000000D02*
X93380000Y-104180000D01*
X93380000Y-104180000D02*
X93100000Y-103900000D01*
D22*
X86212500Y-77300000D02*
X86212500Y-78900000D01*
X94700000Y-95300000D02*
X94700000Y-96400000D01*
D20*
X84490000Y-77510000D02*
X82700000Y-79300000D01*
X84490000Y-73000000D02*
X84490000Y-77510000D01*
X87787500Y-77300000D02*
X87787500Y-75587500D01*
X89300000Y-74800000D02*
X89600000Y-74800000D01*
D21*
X90800000Y-78200000D02*
X92200000Y-78200000D01*
D20*
X86212500Y-76825000D02*
X86212500Y-77300000D01*
X86212500Y-75687500D02*
X86212500Y-76825000D01*
X89600000Y-74800000D02*
X87100000Y-74800000D01*
X87100000Y-74800000D02*
X86212500Y-75687500D01*
X102400000Y-87087500D02*
X99712500Y-87087500D01*
X99712500Y-87087500D02*
X99500000Y-87300000D01*
G36*
X108445944Y-70536461D02*
G01*
X108656643Y-70553783D01*
X108809089Y-70592075D01*
X108953218Y-70654745D01*
X109019315Y-70697505D01*
X109308457Y-70986647D01*
X109374809Y-71106843D01*
X109427277Y-71255009D01*
X109456499Y-71419058D01*
X109461980Y-71535299D01*
X109466000Y-71554711D01*
X109466001Y-95756163D01*
X107896000Y-95756163D01*
X107896000Y-96074000D01*
X107640000Y-96074000D01*
X107640000Y-95756163D01*
X105719412Y-95756163D01*
X105418489Y-95836795D01*
X105242835Y-95984185D01*
X105190981Y-96074000D01*
X96563028Y-96074000D01*
X96535814Y-95930170D01*
X96489460Y-95849882D01*
X96554813Y-95714174D01*
X96597949Y-95428000D01*
X92799508Y-95428000D01*
X92864186Y-95769830D01*
X92910540Y-95850118D01*
X92845187Y-95985827D01*
X92831896Y-96074000D01*
X91724066Y-96074000D01*
X92833286Y-94964781D01*
X92802051Y-95172000D01*
X96600492Y-95172000D01*
X96535814Y-94830170D01*
X96429416Y-94645881D01*
X96455523Y-94594644D01*
X96489086Y-94382735D01*
X96489086Y-94017265D01*
X96455523Y-93805356D01*
X96376365Y-93650000D01*
X96455523Y-93494644D01*
X96489086Y-93282735D01*
X96489086Y-92917265D01*
X96455523Y-92705356D01*
X96429708Y-92654691D01*
X96449001Y-92633897D01*
X96554813Y-92414174D01*
X96597949Y-92128000D01*
X92799508Y-92128000D01*
X92858731Y-92441000D01*
X92845300Y-92441000D01*
X92806468Y-92432639D01*
X92735826Y-92441000D01*
X92720310Y-92441000D01*
X92682126Y-92447356D01*
X92583002Y-92459088D01*
X92571787Y-92465721D01*
X92558587Y-92467918D01*
X92365511Y-92572096D01*
X92299206Y-92643824D01*
X91641993Y-93301037D01*
X91641993Y-93287590D01*
X91603016Y-93091643D01*
X91484992Y-92915008D01*
X91462531Y-92900000D01*
X91484992Y-92884992D01*
X91603016Y-92708357D01*
X91641993Y-92512410D01*
X91641993Y-91487590D01*
X91603016Y-91291643D01*
X91484992Y-91115008D01*
X91462531Y-91100000D01*
X91484992Y-91084992D01*
X91523072Y-91028000D01*
X92799508Y-91028000D01*
X92864186Y-91369830D01*
X92910540Y-91450118D01*
X92845187Y-91585826D01*
X92802051Y-91872000D01*
X96600492Y-91872000D01*
X96535814Y-91530170D01*
X96489460Y-91449882D01*
X96554813Y-91314174D01*
X96597949Y-91028000D01*
X92799508Y-91028000D01*
X91523072Y-91028000D01*
X91603016Y-90908357D01*
X91641993Y-90712410D01*
X91641993Y-89687590D01*
X91603016Y-89491643D01*
X91484992Y-89315008D01*
X91308357Y-89196984D01*
X91112410Y-89158007D01*
X90087590Y-89158007D01*
X89891643Y-89196984D01*
X89715008Y-89315008D01*
X89596984Y-89491643D01*
X89558007Y-89687590D01*
X89558007Y-90712410D01*
X89596984Y-90908357D01*
X89715008Y-91084992D01*
X89737469Y-91100000D01*
X89715008Y-91115008D01*
X89596984Y-91291643D01*
X89558007Y-91487590D01*
X89558007Y-92512410D01*
X89596984Y-92708357D01*
X89715008Y-92884992D01*
X89737469Y-92900000D01*
X89715008Y-92915008D01*
X89596984Y-93091643D01*
X89558007Y-93287590D01*
X89558007Y-94312410D01*
X89596984Y-94508357D01*
X89715008Y-94684992D01*
X89891643Y-94803016D01*
X90087590Y-94841993D01*
X90101038Y-94841993D01*
X89841993Y-95101038D01*
X89841993Y-95087590D01*
X89803016Y-94891643D01*
X89684992Y-94715008D01*
X89508357Y-94596984D01*
X89312410Y-94558007D01*
X88311173Y-94558007D01*
X88468600Y-94490045D01*
X88652537Y-94337608D01*
X88786297Y-94139674D01*
X88859366Y-93911404D01*
X88862740Y-93653676D01*
X88795671Y-93423573D01*
X88667137Y-93222204D01*
X88487254Y-93065005D01*
X88270480Y-92964612D01*
X88034243Y-92929094D01*
X87797531Y-92961310D01*
X87579376Y-93058667D01*
X87515846Y-93112640D01*
X87459604Y-93112640D01*
X83788955Y-89441993D01*
X83912410Y-89441993D01*
X84108357Y-89403016D01*
X84284992Y-89284992D01*
X84300000Y-89262531D01*
X84315008Y-89284992D01*
X84491643Y-89403016D01*
X84687590Y-89441993D01*
X85712410Y-89441993D01*
X85908357Y-89403016D01*
X86084992Y-89284992D01*
X86100000Y-89262531D01*
X86115008Y-89284992D01*
X86291643Y-89403016D01*
X86487590Y-89441993D01*
X87512410Y-89441993D01*
X87708357Y-89403016D01*
X87884992Y-89284992D01*
X87900000Y-89262531D01*
X87915008Y-89284992D01*
X88091643Y-89403016D01*
X88287590Y-89441993D01*
X89312410Y-89441993D01*
X89508357Y-89403016D01*
X89684992Y-89284992D01*
X89803016Y-89108357D01*
X89841993Y-88912410D01*
X89841993Y-87887590D01*
X89803016Y-87691643D01*
X89684992Y-87515008D01*
X89508357Y-87396984D01*
X89312410Y-87358007D01*
X88287590Y-87358007D01*
X88091643Y-87396984D01*
X87915008Y-87515008D01*
X87900000Y-87537469D01*
X87884992Y-87515008D01*
X87708357Y-87396984D01*
X87512410Y-87358007D01*
X86487590Y-87358007D01*
X86291643Y-87396984D01*
X86115008Y-87515008D01*
X86100000Y-87537469D01*
X86084992Y-87515008D01*
X85908357Y-87396984D01*
X85712410Y-87358007D01*
X84687590Y-87358007D01*
X84491643Y-87396984D01*
X84315008Y-87515008D01*
X84300000Y-87537469D01*
X84284992Y-87515008D01*
X84108357Y-87396984D01*
X83912410Y-87358007D01*
X83331094Y-87358007D01*
X83331988Y-87289692D01*
X83388953Y-87217434D01*
X83392193Y-87204814D01*
X83399974Y-87193926D01*
X83462833Y-86983736D01*
X83459000Y-86886167D01*
X83459000Y-86081903D01*
X83505356Y-86105523D01*
X83717265Y-86139086D01*
X84082735Y-86139086D01*
X84294644Y-86105523D01*
X84450000Y-86026365D01*
X84605356Y-86105523D01*
X84817265Y-86139086D01*
X85182735Y-86139086D01*
X85394644Y-86105523D01*
X85550000Y-86026365D01*
X85705356Y-86105523D01*
X85917265Y-86139086D01*
X86282735Y-86139086D01*
X86494644Y-86105523D01*
X86650000Y-86026365D01*
X86805356Y-86105523D01*
X87017265Y-86139086D01*
X87382735Y-86139086D01*
X87594644Y-86105523D01*
X87750000Y-86026365D01*
X87905356Y-86105523D01*
X88117265Y-86139086D01*
X88482735Y-86139086D01*
X88694644Y-86105523D01*
X88850000Y-86026365D01*
X89005356Y-86105523D01*
X89217265Y-86139086D01*
X89582735Y-86139086D01*
X89794644Y-86105523D01*
X89950000Y-86026365D01*
X90105356Y-86105523D01*
X90317265Y-86139086D01*
X90682735Y-86139086D01*
X90894644Y-86105523D01*
X91050000Y-86026365D01*
X91205356Y-86105523D01*
X91417265Y-86139086D01*
X91782735Y-86139086D01*
X91994644Y-86105523D01*
X92045309Y-86079708D01*
X92066103Y-86099001D01*
X92285826Y-86204813D01*
X92572000Y-86247949D01*
X92572000Y-84478000D01*
X92828000Y-84478000D01*
X92828000Y-86250492D01*
X93169830Y-86185814D01*
X93383124Y-86062670D01*
X93549001Y-85883897D01*
X93654813Y-85664173D01*
X93689738Y-85432466D01*
X93689738Y-84478000D01*
X92828000Y-84478000D01*
X92572000Y-84478000D01*
X92572000Y-84222000D01*
X92828000Y-84222000D01*
X93689738Y-84222000D01*
X93689738Y-83884500D01*
X95671755Y-83884500D01*
X96672000Y-83884500D01*
X96672000Y-82935776D01*
X96928000Y-82935776D01*
X96928000Y-83884500D01*
X97936424Y-83884500D01*
X97840162Y-83441995D01*
X97705094Y-83231824D01*
X97519773Y-83071243D01*
X97296719Y-82969378D01*
X97063013Y-82935776D01*
X96928000Y-82935776D01*
X96672000Y-82935776D01*
X96532453Y-82935776D01*
X96191996Y-83009838D01*
X95981824Y-83144906D01*
X95821243Y-83330227D01*
X95719378Y-83553281D01*
X95671755Y-83884500D01*
X93689738Y-83884500D01*
X93689738Y-83265161D01*
X93635814Y-82980170D01*
X93512670Y-82766876D01*
X93333897Y-82600999D01*
X93114174Y-82495187D01*
X92828000Y-82452051D01*
X92828000Y-84222000D01*
X92572000Y-84222000D01*
X92572000Y-82449508D01*
X92230170Y-82514186D01*
X92045881Y-82620584D01*
X91994644Y-82594477D01*
X91782735Y-82560914D01*
X91417265Y-82560914D01*
X91205356Y-82594477D01*
X91134000Y-82630835D01*
X91134000Y-80862610D01*
X91228730Y-80767880D01*
X91293163Y-80713814D01*
X91335218Y-80640974D01*
X91383462Y-80572073D01*
X91390792Y-80544717D01*
X91404955Y-80520186D01*
X91419563Y-80437343D01*
X91441329Y-80356109D01*
X91434000Y-80272332D01*
X91434000Y-79202594D01*
X91441993Y-79162410D01*
X91441993Y-78840663D01*
X91593165Y-78713815D01*
X91704956Y-78520186D01*
X91756829Y-78226000D01*
X91780043Y-78226000D01*
X91661205Y-77782489D01*
X91513815Y-77606836D01*
X91441993Y-77565369D01*
X91441993Y-77286014D01*
X91994008Y-76734000D01*
X92792331Y-76734000D01*
X92876108Y-76741329D01*
X92957345Y-76719562D01*
X93040185Y-76704955D01*
X93064716Y-76690792D01*
X93092072Y-76683461D01*
X93160959Y-76635226D01*
X93233813Y-76593164D01*
X93287880Y-76528730D01*
X95790524Y-74026087D01*
X95865815Y-74034000D01*
X95974185Y-74034000D01*
X96136165Y-74016975D01*
X96342882Y-73949809D01*
X96531118Y-73841131D01*
X96555000Y-73819627D01*
X96578882Y-73841131D01*
X96767118Y-73949809D01*
X96973835Y-74016975D01*
X97135815Y-74034000D01*
X97244185Y-74034000D01*
X97406165Y-74016975D01*
X97612882Y-73949809D01*
X97801118Y-73841131D01*
X97825000Y-73819627D01*
X97848882Y-73841131D01*
X98037118Y-73949809D01*
X98243835Y-74016975D01*
X98405815Y-74034000D01*
X98514185Y-74034000D01*
X98676165Y-74016975D01*
X98882882Y-73949809D01*
X99071118Y-73841131D01*
X99095000Y-73819627D01*
X99118882Y-73841131D01*
X99307118Y-73949809D01*
X99345999Y-73962442D01*
X99346000Y-83603836D01*
X98246337Y-84703500D01*
X97771195Y-84703500D01*
X97778757Y-84694773D01*
X97880622Y-84471719D01*
X97928245Y-84140500D01*
X95663576Y-84140500D01*
X95759838Y-84583005D01*
X95894906Y-84793176D01*
X95983479Y-84869925D01*
X95929898Y-84923506D01*
X95821645Y-85135964D01*
X95785914Y-85361561D01*
X95785914Y-85813439D01*
X95821645Y-86039036D01*
X95916000Y-86224218D01*
X95916000Y-86732021D01*
X95782735Y-86710914D01*
X93617265Y-86710914D01*
X93405356Y-86744477D01*
X93205247Y-86846438D01*
X93046438Y-87005247D01*
X92944477Y-87205356D01*
X92910914Y-87417265D01*
X92910914Y-87782735D01*
X92944477Y-87994644D01*
X93023635Y-88150000D01*
X92944477Y-88305356D01*
X92910914Y-88517265D01*
X92910914Y-88882735D01*
X92944477Y-89094644D01*
X93023635Y-89250000D01*
X92944477Y-89405356D01*
X92910914Y-89617265D01*
X92910914Y-89982735D01*
X92944477Y-90194644D01*
X92970292Y-90245309D01*
X92950999Y-90266103D01*
X92845187Y-90485826D01*
X92802051Y-90772000D01*
X96600492Y-90772000D01*
X96541252Y-90458911D01*
X96551308Y-90448855D01*
X96622992Y-90387088D01*
X96641261Y-90358902D01*
X97355051Y-89645112D01*
X97378821Y-89630115D01*
X97442715Y-89557769D01*
X97511363Y-89489956D01*
X97526206Y-89463234D01*
X97546443Y-89440320D01*
X97561754Y-89407708D01*
X97583361Y-89378877D01*
X97604742Y-89321841D01*
X97634318Y-89268595D01*
X97641065Y-89238780D01*
X97654222Y-89210755D01*
X97659418Y-89175995D01*
X97672245Y-89141776D01*
X97676760Y-89081025D01*
X97690202Y-89021623D01*
X97686094Y-88955415D01*
X97691011Y-88889258D01*
X97684000Y-88856414D01*
X97684000Y-87408519D01*
X98664452Y-87408519D01*
X98728495Y-87638667D01*
X98854558Y-87841591D01*
X99032507Y-88000976D01*
X99248038Y-88104010D01*
X99483824Y-88142410D01*
X99720912Y-88113090D01*
X99940240Y-88018405D01*
X100124177Y-87865968D01*
X100204911Y-87746500D01*
X101527354Y-87746500D01*
X101529899Y-87751494D01*
X101698506Y-87920102D01*
X101910964Y-88028355D01*
X102136561Y-88064086D01*
X102663439Y-88064086D01*
X102889036Y-88028355D01*
X103101494Y-87920102D01*
X103270101Y-87751494D01*
X103272646Y-87746500D01*
X104164536Y-87746500D01*
X105785765Y-89367730D01*
X105715008Y-89415008D01*
X105596984Y-89591643D01*
X105558007Y-89787590D01*
X105558007Y-91992410D01*
X105596984Y-92188357D01*
X105715008Y-92364992D01*
X105891643Y-92483016D01*
X106087590Y-92521993D01*
X107712410Y-92521993D01*
X107908357Y-92483016D01*
X108084992Y-92364992D01*
X108203016Y-92188357D01*
X108241993Y-91992410D01*
X108241993Y-89787590D01*
X108203016Y-89591643D01*
X108084992Y-89415008D01*
X107908357Y-89296984D01*
X107712410Y-89258007D01*
X107491299Y-89258007D01*
X107427904Y-89140515D01*
X107356173Y-89074209D01*
X104953202Y-86671238D01*
X104931650Y-86637859D01*
X104875775Y-86593810D01*
X104864813Y-86582848D01*
X104833330Y-86560350D01*
X104754932Y-86498546D01*
X104742312Y-86495306D01*
X104731425Y-86487526D01*
X104521234Y-86424667D01*
X104423665Y-86428500D01*
X103272646Y-86428500D01*
X103270101Y-86423506D01*
X103222128Y-86375533D01*
X103378757Y-86194773D01*
X103480622Y-85971719D01*
X103528245Y-85640500D01*
X101263576Y-85640500D01*
X101359838Y-86083005D01*
X101494906Y-86293176D01*
X101583480Y-86369925D01*
X101529899Y-86423506D01*
X101527354Y-86428500D01*
X99782801Y-86428500D01*
X99743971Y-86420140D01*
X99673337Y-86428500D01*
X99657814Y-86428500D01*
X99619612Y-86434859D01*
X99520504Y-86446589D01*
X99509291Y-86453221D01*
X99496091Y-86455418D01*
X99487741Y-86459923D01*
X99269171Y-86489670D01*
X99051017Y-86587027D01*
X98868956Y-86741699D01*
X98737624Y-86941254D01*
X98667579Y-87169647D01*
X98664452Y-87408519D01*
X97684000Y-87408519D01*
X97684000Y-86471500D01*
X98513470Y-86471500D01*
X98540877Y-86477702D01*
X98640838Y-86471500D01*
X98675900Y-86471500D01*
X98702692Y-86467663D01*
X98793605Y-86462023D01*
X98827485Y-86449791D01*
X98863157Y-86444683D01*
X98946103Y-86406970D01*
X99032143Y-86375909D01*
X99060395Y-86355004D01*
X99093666Y-86339876D01*
X99171657Y-86272674D01*
X99194084Y-86256079D01*
X99213808Y-86236355D01*
X99285492Y-86174588D01*
X99303761Y-86146402D01*
X100065663Y-85384500D01*
X101271755Y-85384500D01*
X102272000Y-85384500D01*
X102272000Y-84435776D01*
X102528000Y-84435776D01*
X102528000Y-85384500D01*
X103536424Y-85384500D01*
X103440162Y-84941995D01*
X103305094Y-84731824D01*
X103119773Y-84571243D01*
X102896719Y-84469378D01*
X102663013Y-84435776D01*
X102528000Y-84435776D01*
X102272000Y-84435776D01*
X102132453Y-84435776D01*
X101791996Y-84509838D01*
X101581824Y-84644906D01*
X101421243Y-84830227D01*
X101319378Y-85053281D01*
X101271755Y-85384500D01*
X100065663Y-85384500D01*
X100785052Y-84665112D01*
X100808821Y-84650115D01*
X100875133Y-84575031D01*
X100899911Y-84550254D01*
X100916138Y-84528602D01*
X100976441Y-84460321D01*
X100991751Y-84427713D01*
X101013360Y-84398880D01*
X101045341Y-84313569D01*
X101084221Y-84230757D01*
X101089417Y-84195995D01*
X101102244Y-84161777D01*
X101109874Y-84059116D01*
X101113999Y-84031514D01*
X101113999Y-84003606D01*
X101121010Y-83909259D01*
X101113999Y-83876415D01*
X101113999Y-81838000D01*
X105458163Y-81838000D01*
X105458163Y-82816588D01*
X105538795Y-83117512D01*
X105686185Y-83293165D01*
X105879814Y-83404956D01*
X106088976Y-83441837D01*
X106772000Y-83441837D01*
X106772000Y-81838000D01*
X107028000Y-81838000D01*
X107028000Y-83441837D01*
X107716588Y-83441837D01*
X108017512Y-83361205D01*
X108193165Y-83213815D01*
X108304956Y-83020186D01*
X108341837Y-82811024D01*
X108341837Y-81838000D01*
X107028000Y-81838000D01*
X106772000Y-81838000D01*
X105458163Y-81838000D01*
X101113999Y-81838000D01*
X101113999Y-80608976D01*
X105458163Y-80608976D01*
X105458163Y-81582000D01*
X106772000Y-81582000D01*
X106772000Y-79978163D01*
X107028000Y-79978163D01*
X107028000Y-81582000D01*
X108341837Y-81582000D01*
X108341837Y-80603412D01*
X108261205Y-80302489D01*
X108113815Y-80126835D01*
X107920186Y-80015044D01*
X107711024Y-79978163D01*
X107028000Y-79978163D01*
X106772000Y-79978163D01*
X106083412Y-79978163D01*
X105782489Y-80058795D01*
X105606835Y-80206185D01*
X105495044Y-80399814D01*
X105458163Y-80608976D01*
X101113999Y-80608976D01*
X101113999Y-74041993D01*
X101512410Y-74041993D01*
X101708357Y-74003016D01*
X101884992Y-73884992D01*
X102003016Y-73708357D01*
X102041993Y-73512410D01*
X102041993Y-72487590D01*
X102003016Y-72291643D01*
X101884992Y-72115008D01*
X101708357Y-71996984D01*
X101512410Y-71958007D01*
X100487590Y-71958007D01*
X100291643Y-71996984D01*
X100184604Y-72068506D01*
X100152882Y-72050191D01*
X99946165Y-71983025D01*
X99784185Y-71966000D01*
X99675815Y-71966000D01*
X99513835Y-71983025D01*
X99307118Y-72050191D01*
X99118882Y-72158869D01*
X99095000Y-72180373D01*
X99071118Y-72158869D01*
X98882882Y-72050191D01*
X98676165Y-71983025D01*
X98514185Y-71966000D01*
X98405815Y-71966000D01*
X98243835Y-71983025D01*
X98037118Y-72050191D01*
X97848882Y-72158869D01*
X97825000Y-72180373D01*
X97801118Y-72158869D01*
X97612882Y-72050191D01*
X97406165Y-71983025D01*
X97244185Y-71966000D01*
X97135815Y-71966000D01*
X96973835Y-71983025D01*
X96767118Y-72050191D01*
X96578882Y-72158869D01*
X96555000Y-72180373D01*
X96531118Y-72158869D01*
X96342882Y-72050191D01*
X96136165Y-71983025D01*
X95974185Y-71966000D01*
X95865815Y-71966000D01*
X95703835Y-71983025D01*
X95497118Y-72050191D01*
X95308882Y-72158869D01*
X95285000Y-72180373D01*
X95261118Y-72158869D01*
X95072882Y-72050191D01*
X94866165Y-71983025D01*
X94704185Y-71966000D01*
X94595815Y-71966000D01*
X94433835Y-71983025D01*
X94227118Y-72050191D01*
X94038882Y-72158869D01*
X94015000Y-72180373D01*
X93991118Y-72158869D01*
X93802882Y-72050191D01*
X93596165Y-71983025D01*
X93434185Y-71966000D01*
X93325815Y-71966000D01*
X93163835Y-71983025D01*
X92957118Y-72050191D01*
X92768882Y-72158869D01*
X92745000Y-72180373D01*
X92721118Y-72158869D01*
X92532882Y-72050191D01*
X92326165Y-71983025D01*
X92164185Y-71966000D01*
X92055815Y-71966000D01*
X91893835Y-71983025D01*
X91687118Y-72050191D01*
X91498882Y-72158869D01*
X91475000Y-72180373D01*
X91451118Y-72158869D01*
X91262882Y-72050191D01*
X91056165Y-71983025D01*
X90894185Y-71966000D01*
X90785815Y-71966000D01*
X90623835Y-71983025D01*
X90417118Y-72050191D01*
X90228882Y-72158869D01*
X90205000Y-72180373D01*
X90181118Y-72158869D01*
X89992882Y-72050191D01*
X89786165Y-71983025D01*
X89624185Y-71966000D01*
X89515815Y-71966000D01*
X89353835Y-71983025D01*
X89147118Y-72050191D01*
X88958882Y-72158869D01*
X88935000Y-72180373D01*
X88911118Y-72158869D01*
X88722882Y-72050191D01*
X88516165Y-71983025D01*
X88354185Y-71966000D01*
X88245815Y-71966000D01*
X88083835Y-71983025D01*
X87877118Y-72050191D01*
X87688882Y-72158869D01*
X87665000Y-72180373D01*
X87641118Y-72158869D01*
X87452882Y-72050191D01*
X87246165Y-71983025D01*
X87084185Y-71966000D01*
X86975815Y-71966000D01*
X86813835Y-71983025D01*
X86607118Y-72050191D01*
X86418882Y-72158869D01*
X86395000Y-72180373D01*
X86371118Y-72158869D01*
X86182882Y-72050191D01*
X85976165Y-71983025D01*
X85814185Y-71966000D01*
X85705815Y-71966000D01*
X85543835Y-71983025D01*
X85337118Y-72050191D01*
X85148882Y-72158869D01*
X85125000Y-72180373D01*
X85101118Y-72158869D01*
X84912882Y-72050191D01*
X84706165Y-71983025D01*
X84544185Y-71966000D01*
X84435815Y-71966000D01*
X84273835Y-71983025D01*
X84067118Y-72050191D01*
X83878882Y-72158869D01*
X83855000Y-72180373D01*
X83831118Y-72158869D01*
X83642882Y-72050191D01*
X83436165Y-71983025D01*
X83274185Y-71966000D01*
X83165815Y-71966000D01*
X83003835Y-71983025D01*
X82797118Y-72050191D01*
X82608882Y-72158869D01*
X82585000Y-72180373D01*
X82561118Y-72158869D01*
X82372882Y-72050191D01*
X82166165Y-71983025D01*
X82004185Y-71966000D01*
X81895815Y-71966000D01*
X81733835Y-71983025D01*
X81527118Y-72050191D01*
X81338882Y-72158869D01*
X81315000Y-72180373D01*
X81291118Y-72158869D01*
X81102882Y-72050191D01*
X80896165Y-71983025D01*
X80734185Y-71966000D01*
X80625815Y-71966000D01*
X80463835Y-71983025D01*
X80257118Y-72050191D01*
X80068882Y-72158869D01*
X80045000Y-72180373D01*
X80021118Y-72158869D01*
X79832882Y-72050191D01*
X79626165Y-71983025D01*
X79464185Y-71966000D01*
X79355815Y-71966000D01*
X79193835Y-71983025D01*
X78987118Y-72050191D01*
X78798882Y-72158869D01*
X78775000Y-72180373D01*
X78751118Y-72158869D01*
X78562882Y-72050191D01*
X78356165Y-71983025D01*
X78194185Y-71966000D01*
X78085815Y-71966000D01*
X77923835Y-71983025D01*
X77717118Y-72050191D01*
X77528882Y-72158869D01*
X77505000Y-72180373D01*
X77481118Y-72158869D01*
X77292882Y-72050191D01*
X77086165Y-71983025D01*
X76924185Y-71966000D01*
X76815815Y-71966000D01*
X76653835Y-71983025D01*
X76447118Y-72050191D01*
X76258882Y-72158869D01*
X76235000Y-72180373D01*
X76211118Y-72158869D01*
X76022882Y-72050191D01*
X75816165Y-71983025D01*
X75654185Y-71966000D01*
X75545815Y-71966000D01*
X75383835Y-71983025D01*
X75177118Y-72050191D01*
X74988882Y-72158869D01*
X74965000Y-72180373D01*
X74941118Y-72158869D01*
X74752882Y-72050191D01*
X74546165Y-71983025D01*
X74384185Y-71966000D01*
X74275815Y-71966000D01*
X74113835Y-71983025D01*
X73907118Y-72050191D01*
X73718882Y-72158869D01*
X73557356Y-72304308D01*
X73429598Y-72480152D01*
X73341191Y-72678717D01*
X73296001Y-72891322D01*
X73296001Y-73108678D01*
X73341191Y-73321284D01*
X73429598Y-73519847D01*
X73557356Y-73695692D01*
X73718882Y-73841131D01*
X73907118Y-73949809D01*
X74113835Y-74016975D01*
X74275815Y-74034000D01*
X74384185Y-74034000D01*
X74546165Y-74016975D01*
X74752882Y-73949809D01*
X74941118Y-73841131D01*
X74965000Y-73819627D01*
X74988882Y-73841131D01*
X75177118Y-73949809D01*
X75383835Y-74016975D01*
X75545815Y-74034000D01*
X75654185Y-74034000D01*
X75816165Y-74016975D01*
X76022882Y-73949809D01*
X76211118Y-73841131D01*
X76235000Y-73819627D01*
X76258882Y-73841131D01*
X76447118Y-73949809D01*
X76598082Y-73998860D01*
X72874737Y-77722206D01*
X72818836Y-77747623D01*
X72772688Y-77787385D01*
X72721178Y-77819887D01*
X72677270Y-77869603D01*
X72627009Y-77912911D01*
X72593874Y-77964031D01*
X72553559Y-78009679D01*
X72525369Y-78069721D01*
X72489282Y-78125396D01*
X72471828Y-78183761D01*
X72445778Y-78239245D01*
X72436332Y-78302453D01*
X72416731Y-78367994D01*
X72416312Y-78436417D01*
X72416001Y-78438500D01*
X72416001Y-78487318D01*
X72415183Y-78621206D01*
X72416001Y-78624068D01*
X72416000Y-97300970D01*
X72409798Y-97328377D01*
X72416000Y-97428338D01*
X72416000Y-97463399D01*
X72419837Y-97490190D01*
X72425477Y-97581105D01*
X72437709Y-97614986D01*
X72442818Y-97650656D01*
X72480529Y-97733601D01*
X72511592Y-97819645D01*
X72532498Y-97847898D01*
X72547623Y-97881163D01*
X72614822Y-97959152D01*
X72631421Y-97981585D01*
X72651153Y-98001316D01*
X72712911Y-98072992D01*
X72741098Y-98091261D01*
X77004889Y-102355053D01*
X77019886Y-102378822D01*
X77094970Y-102445134D01*
X77119748Y-102469913D01*
X77141400Y-102486140D01*
X77209679Y-102546442D01*
X77242292Y-102561753D01*
X77271123Y-102583361D01*
X77356424Y-102615338D01*
X77439244Y-102654222D01*
X77474006Y-102659418D01*
X77508224Y-102672245D01*
X77610885Y-102679875D01*
X77638487Y-102684000D01*
X77666395Y-102684000D01*
X77760742Y-102691011D01*
X77793586Y-102684000D01*
X79900970Y-102684000D01*
X79928377Y-102690202D01*
X80028338Y-102684000D01*
X80063400Y-102684000D01*
X80090192Y-102680163D01*
X80181105Y-102674523D01*
X80214985Y-102662291D01*
X80250657Y-102657183D01*
X80333603Y-102619470D01*
X80419643Y-102588409D01*
X80447895Y-102567504D01*
X80481166Y-102552376D01*
X80559157Y-102485174D01*
X80581584Y-102468579D01*
X80601308Y-102448855D01*
X80672992Y-102387088D01*
X80691259Y-102358905D01*
X81155054Y-101895110D01*
X81178823Y-101880113D01*
X81245134Y-101805030D01*
X81269912Y-101780253D01*
X81286139Y-101758601D01*
X81346442Y-101690320D01*
X81361752Y-101657712D01*
X81383361Y-101628879D01*
X81415342Y-101543568D01*
X81454222Y-101460756D01*
X81458844Y-101429833D01*
X81517265Y-101439086D01*
X81882735Y-101439086D01*
X82094644Y-101405523D01*
X82250000Y-101326365D01*
X82405356Y-101405523D01*
X82617265Y-101439086D01*
X82982735Y-101439086D01*
X83194644Y-101405523D01*
X83245309Y-101379708D01*
X83266103Y-101399001D01*
X83485826Y-101504813D01*
X83772000Y-101547949D01*
X83772000Y-97749508D01*
X83430170Y-97814186D01*
X83245881Y-97920584D01*
X83194644Y-97894477D01*
X82982735Y-97860914D01*
X82617265Y-97860914D01*
X82405356Y-97894477D01*
X82250000Y-97973635D01*
X82094644Y-97894477D01*
X81882735Y-97860914D01*
X81517265Y-97860914D01*
X81305356Y-97894477D01*
X81150000Y-97973635D01*
X80994644Y-97894477D01*
X80782735Y-97860914D01*
X80417265Y-97860914D01*
X80205356Y-97894477D01*
X80050000Y-97973635D01*
X79894644Y-97894477D01*
X79682735Y-97860914D01*
X79317265Y-97860914D01*
X79105356Y-97894477D01*
X78905247Y-97996438D01*
X78746438Y-98155247D01*
X78644477Y-98355356D01*
X78610914Y-98567265D01*
X78610914Y-100732735D01*
X78639940Y-100916000D01*
X78066164Y-100916000D01*
X74184000Y-97033837D01*
X74184000Y-91965965D01*
X75734302Y-93516269D01*
X75755851Y-93549642D01*
X75783679Y-93571579D01*
X75823635Y-93650000D01*
X75744477Y-93805356D01*
X75710914Y-94017265D01*
X75710914Y-94382735D01*
X75744477Y-94594644D01*
X75823635Y-94750000D01*
X75744477Y-94905356D01*
X75710914Y-95117265D01*
X75710914Y-95482735D01*
X75744477Y-95694644D01*
X75823635Y-95850000D01*
X75744477Y-96005356D01*
X75710914Y-96217265D01*
X75710914Y-96582735D01*
X75744477Y-96794644D01*
X75846438Y-96994753D01*
X76005247Y-97153562D01*
X76205356Y-97255523D01*
X76417265Y-97289086D01*
X78582735Y-97289086D01*
X78794644Y-97255523D01*
X78994753Y-97153562D01*
X79153562Y-96994753D01*
X79255523Y-96794644D01*
X79289086Y-96582735D01*
X79289086Y-96217265D01*
X79255523Y-96005356D01*
X79176365Y-95850000D01*
X79255523Y-95694644D01*
X79289086Y-95482735D01*
X79289086Y-95221052D01*
X79541000Y-95472967D01*
X79541001Y-96284176D01*
X79437624Y-96441254D01*
X79367579Y-96669647D01*
X79364452Y-96908519D01*
X79428495Y-97138667D01*
X79554558Y-97341591D01*
X79732507Y-97500976D01*
X79948038Y-97604010D01*
X80183824Y-97642410D01*
X80420912Y-97613090D01*
X80640240Y-97518405D01*
X80824177Y-97365968D01*
X80957937Y-97168034D01*
X81031006Y-96939764D01*
X81034380Y-96682036D01*
X80967311Y-96451933D01*
X80859000Y-96282245D01*
X80859000Y-95270304D01*
X80867361Y-95231472D01*
X80859000Y-95160830D01*
X80859000Y-95145314D01*
X80852644Y-95107130D01*
X80840912Y-95008006D01*
X80834279Y-94996791D01*
X80832082Y-94983591D01*
X80727904Y-94790515D01*
X80656188Y-94724221D01*
X79715700Y-93783735D01*
X79694150Y-93750359D01*
X79638275Y-93706310D01*
X79627313Y-93695348D01*
X79595830Y-93672850D01*
X79517432Y-93611046D01*
X79504812Y-93607806D01*
X79493925Y-93600026D01*
X79283734Y-93537167D01*
X79232838Y-93539166D01*
X79255523Y-93494644D01*
X79289086Y-93282735D01*
X79289086Y-92917265D01*
X79255523Y-92705356D01*
X79176365Y-92550000D01*
X79255523Y-92394644D01*
X79289086Y-92182735D01*
X79289086Y-91962085D01*
X79332507Y-92000976D01*
X79548038Y-92104010D01*
X79783824Y-92142410D01*
X80020912Y-92113090D01*
X80240240Y-92018405D01*
X80424177Y-91865968D01*
X80557937Y-91668034D01*
X80558007Y-91667815D01*
X80558007Y-92512410D01*
X80596984Y-92708357D01*
X80715008Y-92884992D01*
X80737469Y-92900000D01*
X80715008Y-92915008D01*
X80596984Y-93091643D01*
X80558007Y-93287590D01*
X80558007Y-94312410D01*
X80596984Y-94508357D01*
X80715008Y-94684992D01*
X80891643Y-94803016D01*
X81087590Y-94841993D01*
X82112410Y-94841993D01*
X82308357Y-94803016D01*
X82484992Y-94684992D01*
X82603016Y-94508357D01*
X82641993Y-94312410D01*
X82641993Y-93287590D01*
X82603016Y-93091643D01*
X82484992Y-92915008D01*
X82462531Y-92900000D01*
X82484992Y-92884992D01*
X82603016Y-92708357D01*
X82641993Y-92512410D01*
X82641993Y-91487590D01*
X82603016Y-91291643D01*
X82484992Y-91115008D01*
X82462531Y-91100000D01*
X82484992Y-91084992D01*
X82603016Y-90908357D01*
X82641993Y-90712410D01*
X82641993Y-90158959D01*
X86670938Y-94187906D01*
X86692488Y-94221281D01*
X86748354Y-94265323D01*
X86759323Y-94276292D01*
X86790814Y-94298795D01*
X86869206Y-94360594D01*
X86881827Y-94363834D01*
X86892712Y-94371613D01*
X87102902Y-94434473D01*
X87200471Y-94430640D01*
X87514002Y-94430640D01*
X87560867Y-94472616D01*
X87776398Y-94575650D01*
X88012184Y-94614050D01*
X88078348Y-94605868D01*
X87915008Y-94715008D01*
X87900000Y-94737469D01*
X87884992Y-94715008D01*
X87708357Y-94596984D01*
X87512410Y-94558007D01*
X86487590Y-94558007D01*
X86291643Y-94596984D01*
X86115008Y-94715008D01*
X86100000Y-94737469D01*
X86084992Y-94715008D01*
X85908357Y-94596984D01*
X85712410Y-94558007D01*
X84687590Y-94558007D01*
X84491643Y-94596984D01*
X84315008Y-94715008D01*
X84300000Y-94737469D01*
X84284992Y-94715008D01*
X84108357Y-94596984D01*
X83912410Y-94558007D01*
X82887590Y-94558007D01*
X82691643Y-94596984D01*
X82515008Y-94715008D01*
X82396984Y-94891643D01*
X82358007Y-95087590D01*
X82358007Y-96112410D01*
X82396984Y-96308357D01*
X82515008Y-96484992D01*
X82691643Y-96603016D01*
X82887590Y-96641993D01*
X83912410Y-96641993D01*
X84108357Y-96603016D01*
X84284992Y-96484992D01*
X84300000Y-96462531D01*
X84315008Y-96484992D01*
X84491643Y-96603016D01*
X84687590Y-96641993D01*
X85712410Y-96641993D01*
X85908357Y-96603016D01*
X86084992Y-96484992D01*
X86100000Y-96462531D01*
X86115008Y-96484992D01*
X86291643Y-96603016D01*
X86487590Y-96641993D01*
X87068763Y-96641993D01*
X87013466Y-96726014D01*
X86942120Y-96692972D01*
X86705883Y-96657454D01*
X86469171Y-96689670D01*
X86251017Y-96787027D01*
X86068956Y-96941699D01*
X85937624Y-97141254D01*
X85867579Y-97369647D01*
X85864452Y-97608519D01*
X85928495Y-97838667D01*
X85942316Y-97860914D01*
X85917265Y-97860914D01*
X85705356Y-97894477D01*
X85550000Y-97973635D01*
X85394644Y-97894477D01*
X85182735Y-97860914D01*
X84817265Y-97860914D01*
X84605356Y-97894477D01*
X84554691Y-97920292D01*
X84533897Y-97900999D01*
X84314174Y-97795187D01*
X84028000Y-97752051D01*
X84028000Y-101550492D01*
X84341000Y-101491269D01*
X84341001Y-104327033D01*
X84073735Y-104594300D01*
X84040359Y-104615850D01*
X83996311Y-104671725D01*
X83985349Y-104682686D01*
X83962853Y-104714166D01*
X83901048Y-104792567D01*
X83897807Y-104805187D01*
X83890025Y-104816077D01*
X83827167Y-105026266D01*
X83831000Y-105123835D01*
X83831001Y-106158801D01*
X83642882Y-106050191D01*
X83436165Y-105983025D01*
X83274185Y-105966000D01*
X83165815Y-105966000D01*
X83003835Y-105983025D01*
X82797118Y-106050191D01*
X82608882Y-106158869D01*
X82585000Y-106180373D01*
X82561118Y-106158869D01*
X82372882Y-106050191D01*
X82166165Y-105983025D01*
X82004185Y-105966000D01*
X81895815Y-105966000D01*
X81733835Y-105983025D01*
X81527118Y-106050191D01*
X81338882Y-106158869D01*
X81315000Y-106180373D01*
X81291118Y-106158869D01*
X81102882Y-106050191D01*
X80896165Y-105983025D01*
X80734185Y-105966000D01*
X80625815Y-105966000D01*
X80463835Y-105983025D01*
X80257118Y-106050191D01*
X80068882Y-106158869D01*
X80045000Y-106180373D01*
X80021118Y-106158869D01*
X79832882Y-106050191D01*
X79626165Y-105983025D01*
X79464185Y-105966000D01*
X79355815Y-105966000D01*
X79193835Y-105983025D01*
X78987118Y-106050191D01*
X78859872Y-106123657D01*
X78783769Y-106059799D01*
X78588890Y-105952663D01*
X78268000Y-105850871D01*
X78268000Y-108145958D01*
X78574222Y-108053502D01*
X78770579Y-107949099D01*
X78859822Y-107876314D01*
X78987118Y-107949809D01*
X79193835Y-108016975D01*
X79355815Y-108034000D01*
X79464185Y-108034000D01*
X79626165Y-108016975D01*
X79832882Y-107949809D01*
X80021118Y-107841131D01*
X80045000Y-107819627D01*
X80068882Y-107841131D01*
X80257118Y-107949809D01*
X80463835Y-108016975D01*
X80625815Y-108034000D01*
X80734185Y-108034000D01*
X80896165Y-108016975D01*
X81102882Y-107949809D01*
X81291118Y-107841131D01*
X81315000Y-107819627D01*
X81338882Y-107841131D01*
X81527118Y-107949809D01*
X81733835Y-108016975D01*
X81895815Y-108034000D01*
X82004185Y-108034000D01*
X82166165Y-108016975D01*
X82372882Y-107949809D01*
X82561118Y-107841131D01*
X82585000Y-107819627D01*
X82608882Y-107841131D01*
X82797118Y-107949809D01*
X83003835Y-108016975D01*
X83165815Y-108034000D01*
X83274185Y-108034000D01*
X83436165Y-108016975D01*
X83642882Y-107949809D01*
X83831118Y-107841131D01*
X83855000Y-107819627D01*
X83878882Y-107841131D01*
X84067118Y-107949809D01*
X84273835Y-108016975D01*
X84435815Y-108034000D01*
X84544185Y-108034000D01*
X84706165Y-108016975D01*
X84912882Y-107949809D01*
X85101118Y-107841131D01*
X85125000Y-107819627D01*
X85148882Y-107841131D01*
X85337118Y-107949809D01*
X85543835Y-108016975D01*
X85705815Y-108034000D01*
X85814185Y-108034000D01*
X85976165Y-108016975D01*
X86182882Y-107949809D01*
X86371118Y-107841131D01*
X86395000Y-107819627D01*
X86418882Y-107841131D01*
X86607118Y-107949809D01*
X86813835Y-108016975D01*
X86975815Y-108034000D01*
X87084185Y-108034000D01*
X87246165Y-108016975D01*
X87452882Y-107949809D01*
X87641118Y-107841131D01*
X87665000Y-107819627D01*
X87688882Y-107841131D01*
X87877118Y-107949809D01*
X88083835Y-108016975D01*
X88245815Y-108034000D01*
X88354185Y-108034000D01*
X88516165Y-108016975D01*
X88722882Y-107949809D01*
X88911118Y-107841131D01*
X88935000Y-107819627D01*
X88958882Y-107841131D01*
X89147118Y-107949809D01*
X89353835Y-108016975D01*
X89515815Y-108034000D01*
X89624185Y-108034000D01*
X89786165Y-108016975D01*
X89992882Y-107949809D01*
X90181118Y-107841131D01*
X90205000Y-107819627D01*
X90228882Y-107841131D01*
X90417118Y-107949809D01*
X90623835Y-108016975D01*
X90785815Y-108034000D01*
X90894185Y-108034000D01*
X91056165Y-108016975D01*
X91262882Y-107949809D01*
X91451118Y-107841131D01*
X91475000Y-107819627D01*
X91498882Y-107841131D01*
X91687118Y-107949809D01*
X91893835Y-108016975D01*
X92055815Y-108034000D01*
X92164185Y-108034000D01*
X92326165Y-108016975D01*
X92532882Y-107949809D01*
X92721118Y-107841131D01*
X92745000Y-107819627D01*
X92768882Y-107841131D01*
X92957118Y-107949809D01*
X93163835Y-108016975D01*
X93325815Y-108034000D01*
X93434185Y-108034000D01*
X93596165Y-108016975D01*
X93802882Y-107949809D01*
X93991118Y-107841131D01*
X94015000Y-107819627D01*
X94038882Y-107841131D01*
X94227118Y-107949809D01*
X94433835Y-108016975D01*
X94595815Y-108034000D01*
X94704185Y-108034000D01*
X94866165Y-108016975D01*
X95072882Y-107949809D01*
X95261118Y-107841131D01*
X95285000Y-107819627D01*
X95308882Y-107841131D01*
X95497118Y-107949809D01*
X95703835Y-108016975D01*
X95865815Y-108034000D01*
X95974185Y-108034000D01*
X96136165Y-108016975D01*
X96342882Y-107949809D01*
X96531118Y-107841131D01*
X96555000Y-107819627D01*
X96578882Y-107841131D01*
X96767118Y-107949809D01*
X96973835Y-108016975D01*
X97135815Y-108034000D01*
X97244185Y-108034000D01*
X97406165Y-108016975D01*
X97612882Y-107949809D01*
X97801118Y-107841131D01*
X97825000Y-107819627D01*
X97848882Y-107841131D01*
X98037118Y-107949809D01*
X98243835Y-108016975D01*
X98405815Y-108034000D01*
X98514185Y-108034000D01*
X98676165Y-108016975D01*
X98882882Y-107949809D01*
X99071118Y-107841131D01*
X99095000Y-107819627D01*
X99118882Y-107841131D01*
X99307118Y-107949809D01*
X99513835Y-108016975D01*
X99675815Y-108034000D01*
X99784185Y-108034000D01*
X99946165Y-108016975D01*
X100152882Y-107949809D01*
X100184604Y-107931494D01*
X100291643Y-108003016D01*
X100487590Y-108041993D01*
X101512410Y-108041993D01*
X101708357Y-108003016D01*
X101884992Y-107884992D01*
X102003016Y-107708357D01*
X102041993Y-107512410D01*
X102041993Y-106487590D01*
X102003016Y-106291643D01*
X101884992Y-106115008D01*
X101708357Y-105996984D01*
X101512410Y-105958007D01*
X100487590Y-105958007D01*
X100291643Y-105996984D01*
X100184604Y-106068506D01*
X100152882Y-106050191D01*
X99946165Y-105983025D01*
X99784185Y-105966000D01*
X99675815Y-105966000D01*
X99513835Y-105983025D01*
X99307118Y-106050191D01*
X99118882Y-106158869D01*
X99095000Y-106180373D01*
X99071118Y-106158869D01*
X98882882Y-106050191D01*
X98676165Y-105983025D01*
X98514185Y-105966000D01*
X98405815Y-105966000D01*
X98243835Y-105983025D01*
X98037118Y-106050191D01*
X97848882Y-106158869D01*
X97825000Y-106180373D01*
X97801118Y-106158869D01*
X97612882Y-106050191D01*
X97406165Y-105983025D01*
X97244185Y-105966000D01*
X97135815Y-105966000D01*
X96973835Y-105983025D01*
X96767118Y-106050191D01*
X96578882Y-106158869D01*
X96555000Y-106180373D01*
X96531118Y-106158869D01*
X96342882Y-106050191D01*
X96136165Y-105983025D01*
X95974185Y-105966000D01*
X95865815Y-105966000D01*
X95703835Y-105983025D01*
X95497118Y-106050191D01*
X95308882Y-106158869D01*
X95285000Y-106180373D01*
X95261118Y-106158869D01*
X95072882Y-106050191D01*
X94866165Y-105983025D01*
X94704185Y-105966000D01*
X94595815Y-105966000D01*
X94433835Y-105983025D01*
X94227118Y-106050191D01*
X94039000Y-106158801D01*
X94039000Y-104250304D01*
X94047361Y-104211472D01*
X94039000Y-104140830D01*
X94039000Y-104125314D01*
X94032644Y-104087130D01*
X94020912Y-103988006D01*
X94014279Y-103976791D01*
X94012082Y-103963591D01*
X93933900Y-103818694D01*
X93934380Y-103782036D01*
X93867311Y-103551933D01*
X93776477Y-103409627D01*
X105200997Y-103350738D01*
X105322185Y-103495165D01*
X105515814Y-103606956D01*
X105724976Y-103643837D01*
X107640000Y-103643837D01*
X107640000Y-103338166D01*
X107896000Y-103336847D01*
X107896000Y-103643837D01*
X109466001Y-103643837D01*
X109466001Y-108435846D01*
X109463539Y-108445945D01*
X109446217Y-108656643D01*
X109407925Y-108809089D01*
X109345256Y-108953217D01*
X109302496Y-109019314D01*
X109013352Y-109308458D01*
X108893157Y-109374809D01*
X108744991Y-109427277D01*
X108580947Y-109456498D01*
X108464701Y-109461980D01*
X108445289Y-109466000D01*
X71564150Y-109466000D01*
X71554055Y-109463539D01*
X71343357Y-109446217D01*
X71190911Y-109407925D01*
X71046783Y-109345256D01*
X70980686Y-109302496D01*
X70691542Y-109013352D01*
X70625191Y-108893157D01*
X70572723Y-108744991D01*
X70543502Y-108580947D01*
X70538020Y-108464701D01*
X70534000Y-108445289D01*
X70534000Y-107128000D01*
X73185533Y-107128000D01*
X73273492Y-107426857D01*
X73376523Y-107623938D01*
X73515872Y-107797253D01*
X73686231Y-107940201D01*
X73881110Y-108047337D01*
X74202000Y-108149129D01*
X74202000Y-108145958D01*
X74458000Y-108145958D01*
X74764222Y-108053502D01*
X74960580Y-107949098D01*
X74965345Y-107945212D01*
X75151110Y-108047337D01*
X75472000Y-108149129D01*
X75472000Y-108145958D01*
X75728000Y-108145958D01*
X76034222Y-108053502D01*
X76230580Y-107949098D01*
X76235345Y-107945212D01*
X76421110Y-108047337D01*
X76742000Y-108149129D01*
X76742000Y-108145958D01*
X76998000Y-108145958D01*
X77304222Y-108053502D01*
X77500580Y-107949098D01*
X77505345Y-107945212D01*
X77691110Y-108047337D01*
X78012000Y-108149129D01*
X78012000Y-105854042D01*
X77705778Y-105946498D01*
X77509420Y-106050902D01*
X77504655Y-106054788D01*
X77318890Y-105952663D01*
X76998000Y-105850871D01*
X76998000Y-108145958D01*
X76742000Y-108145958D01*
X76742000Y-105854042D01*
X76435778Y-105946498D01*
X76239420Y-106050902D01*
X76234655Y-106054788D01*
X76048890Y-105952663D01*
X75728000Y-105850871D01*
X75728000Y-108145958D01*
X75472000Y-108145958D01*
X75472000Y-105854042D01*
X75165778Y-105946498D01*
X74969420Y-106050902D01*
X74964655Y-106054788D01*
X74778890Y-105952663D01*
X74458000Y-105850871D01*
X74458000Y-108145958D01*
X74202000Y-108145958D01*
X74202000Y-107128000D01*
X73185533Y-107128000D01*
X70534000Y-107128000D01*
X70534000Y-106872000D01*
X73182491Y-106872000D01*
X74202000Y-106872000D01*
X74202000Y-105854042D01*
X73895778Y-105946498D01*
X73699420Y-106050901D01*
X73527082Y-106191457D01*
X73385327Y-106362810D01*
X73279554Y-106558433D01*
X73182491Y-106872000D01*
X70534000Y-106872000D01*
X70534000Y-71564151D01*
X70536461Y-71554056D01*
X70553783Y-71343357D01*
X70592075Y-71190911D01*
X70654745Y-71046782D01*
X70697505Y-70980685D01*
X70986647Y-70691543D01*
X71106843Y-70625191D01*
X71255009Y-70572723D01*
X71419058Y-70543501D01*
X71535299Y-70538020D01*
X71554711Y-70534000D01*
X108435849Y-70534000D01*
X108445944Y-70536461D01*
G37*
D23*
X108445944Y-70536461D02*
X108656643Y-70553783D01*
X108809089Y-70592075D01*
X108953218Y-70654745D01*
X109019315Y-70697505D01*
X109308457Y-70986647D01*
X109374809Y-71106843D01*
X109427277Y-71255009D01*
X109456499Y-71419058D01*
X109461980Y-71535299D01*
X109466000Y-71554711D01*
X109466001Y-95756163D01*
X107896000Y-95756163D01*
X107896000Y-96074000D01*
X107640000Y-96074000D01*
X107640000Y-95756163D01*
X105719412Y-95756163D01*
X105418489Y-95836795D01*
X105242835Y-95984185D01*
X105190981Y-96074000D01*
X96563028Y-96074000D01*
X96535814Y-95930170D01*
X96489460Y-95849882D01*
X96554813Y-95714174D01*
X96597949Y-95428000D01*
X92799508Y-95428000D01*
X92864186Y-95769830D01*
X92910540Y-95850118D01*
X92845187Y-95985827D01*
X92831896Y-96074000D01*
X91724066Y-96074000D01*
X92833286Y-94964781D01*
X92802051Y-95172000D01*
X96600492Y-95172000D01*
X96535814Y-94830170D01*
X96429416Y-94645881D01*
X96455523Y-94594644D01*
X96489086Y-94382735D01*
X96489086Y-94017265D01*
X96455523Y-93805356D01*
X96376365Y-93650000D01*
X96455523Y-93494644D01*
X96489086Y-93282735D01*
X96489086Y-92917265D01*
X96455523Y-92705356D01*
X96429708Y-92654691D01*
X96449001Y-92633897D01*
X96554813Y-92414174D01*
X96597949Y-92128000D01*
X92799508Y-92128000D01*
X92858731Y-92441000D01*
X92845300Y-92441000D01*
X92806468Y-92432639D01*
X92735826Y-92441000D01*
X92720310Y-92441000D01*
X92682126Y-92447356D01*
X92583002Y-92459088D01*
X92571787Y-92465721D01*
X92558587Y-92467918D01*
X92365511Y-92572096D01*
X92299206Y-92643824D01*
X91641993Y-93301037D01*
X91641993Y-93287590D01*
X91603016Y-93091643D01*
X91484992Y-92915008D01*
X91462531Y-92900000D01*
X91484992Y-92884992D01*
X91603016Y-92708357D01*
X91641993Y-92512410D01*
X91641993Y-91487590D01*
X91603016Y-91291643D01*
X91484992Y-91115008D01*
X91462531Y-91100000D01*
X91484992Y-91084992D01*
X91523072Y-91028000D01*
X92799508Y-91028000D01*
X92864186Y-91369830D01*
X92910540Y-91450118D01*
X92845187Y-91585826D01*
X92802051Y-91872000D01*
X96600492Y-91872000D01*
X96535814Y-91530170D01*
X96489460Y-91449882D01*
X96554813Y-91314174D01*
X96597949Y-91028000D01*
X92799508Y-91028000D01*
X91523072Y-91028000D01*
X91603016Y-90908357D01*
X91641993Y-90712410D01*
X91641993Y-89687590D01*
X91603016Y-89491643D01*
X91484992Y-89315008D01*
X91308357Y-89196984D01*
X91112410Y-89158007D01*
X90087590Y-89158007D01*
X89891643Y-89196984D01*
X89715008Y-89315008D01*
X89596984Y-89491643D01*
X89558007Y-89687590D01*
X89558007Y-90712410D01*
X89596984Y-90908357D01*
X89715008Y-91084992D01*
X89737469Y-91100000D01*
X89715008Y-91115008D01*
X89596984Y-91291643D01*
X89558007Y-91487590D01*
X89558007Y-92512410D01*
X89596984Y-92708357D01*
X89715008Y-92884992D01*
X89737469Y-92900000D01*
X89715008Y-92915008D01*
X89596984Y-93091643D01*
X89558007Y-93287590D01*
X89558007Y-94312410D01*
X89596984Y-94508357D01*
X89715008Y-94684992D01*
X89891643Y-94803016D01*
X90087590Y-94841993D01*
X90101038Y-94841993D01*
X89841993Y-95101038D01*
X89841993Y-95087590D01*
X89803016Y-94891643D01*
X89684992Y-94715008D01*
X89508357Y-94596984D01*
X89312410Y-94558007D01*
X88311173Y-94558007D01*
X88468600Y-94490045D01*
X88652537Y-94337608D01*
X88786297Y-94139674D01*
X88859366Y-93911404D01*
X88862740Y-93653676D01*
X88795671Y-93423573D01*
X88667137Y-93222204D01*
X88487254Y-93065005D01*
X88270480Y-92964612D01*
X88034243Y-92929094D01*
X87797531Y-92961310D01*
X87579376Y-93058667D01*
X87515846Y-93112640D01*
X87459604Y-93112640D01*
X83788955Y-89441993D01*
X83912410Y-89441993D01*
X84108357Y-89403016D01*
X84284992Y-89284992D01*
X84300000Y-89262531D01*
X84315008Y-89284992D01*
X84491643Y-89403016D01*
X84687590Y-89441993D01*
X85712410Y-89441993D01*
X85908357Y-89403016D01*
X86084992Y-89284992D01*
X86100000Y-89262531D01*
X86115008Y-89284992D01*
X86291643Y-89403016D01*
X86487590Y-89441993D01*
X87512410Y-89441993D01*
X87708357Y-89403016D01*
X87884992Y-89284992D01*
X87900000Y-89262531D01*
X87915008Y-89284992D01*
X88091643Y-89403016D01*
X88287590Y-89441993D01*
X89312410Y-89441993D01*
X89508357Y-89403016D01*
X89684992Y-89284992D01*
X89803016Y-89108357D01*
X89841993Y-88912410D01*
X89841993Y-87887590D01*
X89803016Y-87691643D01*
X89684992Y-87515008D01*
X89508357Y-87396984D01*
X89312410Y-87358007D01*
X88287590Y-87358007D01*
X88091643Y-87396984D01*
X87915008Y-87515008D01*
X87900000Y-87537469D01*
X87884992Y-87515008D01*
X87708357Y-87396984D01*
X87512410Y-87358007D01*
X86487590Y-87358007D01*
X86291643Y-87396984D01*
X86115008Y-87515008D01*
X86100000Y-87537469D01*
X86084992Y-87515008D01*
X85908357Y-87396984D01*
X85712410Y-87358007D01*
X84687590Y-87358007D01*
X84491643Y-87396984D01*
X84315008Y-87515008D01*
X84300000Y-87537469D01*
X84284992Y-87515008D01*
X84108357Y-87396984D01*
X83912410Y-87358007D01*
X83331094Y-87358007D01*
X83331988Y-87289692D01*
X83388953Y-87217434D01*
X83392193Y-87204814D01*
X83399974Y-87193926D01*
X83462833Y-86983736D01*
X83459000Y-86886167D01*
X83459000Y-86081903D01*
X83505356Y-86105523D01*
X83717265Y-86139086D01*
X84082735Y-86139086D01*
X84294644Y-86105523D01*
X84450000Y-86026365D01*
X84605356Y-86105523D01*
X84817265Y-86139086D01*
X85182735Y-86139086D01*
X85394644Y-86105523D01*
X85550000Y-86026365D01*
X85705356Y-86105523D01*
X85917265Y-86139086D01*
X86282735Y-86139086D01*
X86494644Y-86105523D01*
X86650000Y-86026365D01*
X86805356Y-86105523D01*
X87017265Y-86139086D01*
X87382735Y-86139086D01*
X87594644Y-86105523D01*
X87750000Y-86026365D01*
X87905356Y-86105523D01*
X88117265Y-86139086D01*
X88482735Y-86139086D01*
X88694644Y-86105523D01*
X88850000Y-86026365D01*
X89005356Y-86105523D01*
X89217265Y-86139086D01*
X89582735Y-86139086D01*
X89794644Y-86105523D01*
X89950000Y-86026365D01*
X90105356Y-86105523D01*
X90317265Y-86139086D01*
X90682735Y-86139086D01*
X90894644Y-86105523D01*
X91050000Y-86026365D01*
X91205356Y-86105523D01*
X91417265Y-86139086D01*
X91782735Y-86139086D01*
X91994644Y-86105523D01*
X92045309Y-86079708D01*
X92066103Y-86099001D01*
X92285826Y-86204813D01*
X92572000Y-86247949D01*
X92572000Y-84478000D01*
X92828000Y-84478000D01*
X92828000Y-86250492D01*
X93169830Y-86185814D01*
X93383124Y-86062670D01*
X93549001Y-85883897D01*
X93654813Y-85664173D01*
X93689738Y-85432466D01*
X93689738Y-84478000D01*
X92828000Y-84478000D01*
X92572000Y-84478000D01*
X92572000Y-84222000D01*
X92828000Y-84222000D01*
X93689738Y-84222000D01*
X93689738Y-83884500D01*
X95671755Y-83884500D01*
X96672000Y-83884500D01*
X96672000Y-82935776D01*
X96928000Y-82935776D01*
X96928000Y-83884500D01*
X97936424Y-83884500D01*
X97840162Y-83441995D01*
X97705094Y-83231824D01*
X97519773Y-83071243D01*
X97296719Y-82969378D01*
X97063013Y-82935776D01*
X96928000Y-82935776D01*
X96672000Y-82935776D01*
X96532453Y-82935776D01*
X96191996Y-83009838D01*
X95981824Y-83144906D01*
X95821243Y-83330227D01*
X95719378Y-83553281D01*
X95671755Y-83884500D01*
X93689738Y-83884500D01*
X93689738Y-83265161D01*
X93635814Y-82980170D01*
X93512670Y-82766876D01*
X93333897Y-82600999D01*
X93114174Y-82495187D01*
X92828000Y-82452051D01*
X92828000Y-84222000D01*
X92572000Y-84222000D01*
X92572000Y-82449508D01*
X92230170Y-82514186D01*
X92045881Y-82620584D01*
X91994644Y-82594477D01*
X91782735Y-82560914D01*
X91417265Y-82560914D01*
X91205356Y-82594477D01*
X91134000Y-82630835D01*
X91134000Y-80862610D01*
X91228730Y-80767880D01*
X91293163Y-80713814D01*
X91335218Y-80640974D01*
X91383462Y-80572073D01*
X91390792Y-80544717D01*
X91404955Y-80520186D01*
X91419563Y-80437343D01*
X91441329Y-80356109D01*
X91434000Y-80272332D01*
X91434000Y-79202594D01*
X91441993Y-79162410D01*
X91441993Y-78840663D01*
X91593165Y-78713815D01*
X91704956Y-78520186D01*
X91756829Y-78226000D01*
X91780043Y-78226000D01*
X91661205Y-77782489D01*
X91513815Y-77606836D01*
X91441993Y-77565369D01*
X91441993Y-77286014D01*
X91994008Y-76734000D01*
X92792331Y-76734000D01*
X92876108Y-76741329D01*
X92957345Y-76719562D01*
X93040185Y-76704955D01*
X93064716Y-76690792D01*
X93092072Y-76683461D01*
X93160959Y-76635226D01*
X93233813Y-76593164D01*
X93287880Y-76528730D01*
X95790524Y-74026087D01*
X95865815Y-74034000D01*
X95974185Y-74034000D01*
X96136165Y-74016975D01*
X96342882Y-73949809D01*
X96531118Y-73841131D01*
X96555000Y-73819627D01*
X96578882Y-73841131D01*
X96767118Y-73949809D01*
X96973835Y-74016975D01*
X97135815Y-74034000D01*
X97244185Y-74034000D01*
X97406165Y-74016975D01*
X97612882Y-73949809D01*
X97801118Y-73841131D01*
X97825000Y-73819627D01*
X97848882Y-73841131D01*
X98037118Y-73949809D01*
X98243835Y-74016975D01*
X98405815Y-74034000D01*
X98514185Y-74034000D01*
X98676165Y-74016975D01*
X98882882Y-73949809D01*
X99071118Y-73841131D01*
X99095000Y-73819627D01*
X99118882Y-73841131D01*
X99307118Y-73949809D01*
X99345999Y-73962442D01*
X99346000Y-83603836D01*
X98246337Y-84703500D01*
X97771195Y-84703500D01*
X97778757Y-84694773D01*
X97880622Y-84471719D01*
X97928245Y-84140500D01*
X95663576Y-84140500D01*
X95759838Y-84583005D01*
X95894906Y-84793176D01*
X95983479Y-84869925D01*
X95929898Y-84923506D01*
X95821645Y-85135964D01*
X95785914Y-85361561D01*
X95785914Y-85813439D01*
X95821645Y-86039036D01*
X95916000Y-86224218D01*
X95916000Y-86732021D01*
X95782735Y-86710914D01*
X93617265Y-86710914D01*
X93405356Y-86744477D01*
X93205247Y-86846438D01*
X93046438Y-87005247D01*
X92944477Y-87205356D01*
X92910914Y-87417265D01*
X92910914Y-87782735D01*
X92944477Y-87994644D01*
X93023635Y-88150000D01*
X92944477Y-88305356D01*
X92910914Y-88517265D01*
X92910914Y-88882735D01*
X92944477Y-89094644D01*
X93023635Y-89250000D01*
X92944477Y-89405356D01*
X92910914Y-89617265D01*
X92910914Y-89982735D01*
X92944477Y-90194644D01*
X92970292Y-90245309D01*
X92950999Y-90266103D01*
X92845187Y-90485826D01*
X92802051Y-90772000D01*
X96600492Y-90772000D01*
X96541252Y-90458911D01*
X96551308Y-90448855D01*
X96622992Y-90387088D01*
X96641261Y-90358902D01*
X97355051Y-89645112D01*
X97378821Y-89630115D01*
X97442715Y-89557769D01*
X97511363Y-89489956D01*
X97526206Y-89463234D01*
X97546443Y-89440320D01*
X97561754Y-89407708D01*
X97583361Y-89378877D01*
X97604742Y-89321841D01*
X97634318Y-89268595D01*
X97641065Y-89238780D01*
X97654222Y-89210755D01*
X97659418Y-89175995D01*
X97672245Y-89141776D01*
X97676760Y-89081025D01*
X97690202Y-89021623D01*
X97686094Y-88955415D01*
X97691011Y-88889258D01*
X97684000Y-88856414D01*
X97684000Y-87408519D01*
X98664452Y-87408519D01*
X98728495Y-87638667D01*
X98854558Y-87841591D01*
X99032507Y-88000976D01*
X99248038Y-88104010D01*
X99483824Y-88142410D01*
X99720912Y-88113090D01*
X99940240Y-88018405D01*
X100124177Y-87865968D01*
X100204911Y-87746500D01*
X101527354Y-87746500D01*
X101529899Y-87751494D01*
X101698506Y-87920102D01*
X101910964Y-88028355D01*
X102136561Y-88064086D01*
X102663439Y-88064086D01*
X102889036Y-88028355D01*
X103101494Y-87920102D01*
X103270101Y-87751494D01*
X103272646Y-87746500D01*
X104164536Y-87746500D01*
X105785765Y-89367730D01*
X105715008Y-89415008D01*
X105596984Y-89591643D01*
X105558007Y-89787590D01*
X105558007Y-91992410D01*
X105596984Y-92188357D01*
X105715008Y-92364992D01*
X105891643Y-92483016D01*
X106087590Y-92521993D01*
X107712410Y-92521993D01*
X107908357Y-92483016D01*
X108084992Y-92364992D01*
X108203016Y-92188357D01*
X108241993Y-91992410D01*
X108241993Y-89787590D01*
X108203016Y-89591643D01*
X108084992Y-89415008D01*
X107908357Y-89296984D01*
X107712410Y-89258007D01*
X107491299Y-89258007D01*
X107427904Y-89140515D01*
X107356173Y-89074209D01*
X104953202Y-86671238D01*
X104931650Y-86637859D01*
X104875775Y-86593810D01*
X104864813Y-86582848D01*
X104833330Y-86560350D01*
X104754932Y-86498546D01*
X104742312Y-86495306D01*
X104731425Y-86487526D01*
X104521234Y-86424667D01*
X104423665Y-86428500D01*
X103272646Y-86428500D01*
X103270101Y-86423506D01*
X103222128Y-86375533D01*
X103378757Y-86194773D01*
X103480622Y-85971719D01*
X103528245Y-85640500D01*
X101263576Y-85640500D01*
X101359838Y-86083005D01*
X101494906Y-86293176D01*
X101583480Y-86369925D01*
X101529899Y-86423506D01*
X101527354Y-86428500D01*
X99782801Y-86428500D01*
X99743971Y-86420140D01*
X99673337Y-86428500D01*
X99657814Y-86428500D01*
X99619612Y-86434859D01*
X99520504Y-86446589D01*
X99509291Y-86453221D01*
X99496091Y-86455418D01*
X99487741Y-86459923D01*
X99269171Y-86489670D01*
X99051017Y-86587027D01*
X98868956Y-86741699D01*
X98737624Y-86941254D01*
X98667579Y-87169647D01*
X98664452Y-87408519D01*
X97684000Y-87408519D01*
X97684000Y-86471500D01*
X98513470Y-86471500D01*
X98540877Y-86477702D01*
X98640838Y-86471500D01*
X98675900Y-86471500D01*
X98702692Y-86467663D01*
X98793605Y-86462023D01*
X98827485Y-86449791D01*
X98863157Y-86444683D01*
X98946103Y-86406970D01*
X99032143Y-86375909D01*
X99060395Y-86355004D01*
X99093666Y-86339876D01*
X99171657Y-86272674D01*
X99194084Y-86256079D01*
X99213808Y-86236355D01*
X99285492Y-86174588D01*
X99303761Y-86146402D01*
X100065663Y-85384500D01*
X101271755Y-85384500D01*
X102272000Y-85384500D01*
X102272000Y-84435776D01*
X102528000Y-84435776D01*
X102528000Y-85384500D01*
X103536424Y-85384500D01*
X103440162Y-84941995D01*
X103305094Y-84731824D01*
X103119773Y-84571243D01*
X102896719Y-84469378D01*
X102663013Y-84435776D01*
X102528000Y-84435776D01*
X102272000Y-84435776D01*
X102132453Y-84435776D01*
X101791996Y-84509838D01*
X101581824Y-84644906D01*
X101421243Y-84830227D01*
X101319378Y-85053281D01*
X101271755Y-85384500D01*
X100065663Y-85384500D01*
X100785052Y-84665112D01*
X100808821Y-84650115D01*
X100875133Y-84575031D01*
X100899911Y-84550254D01*
X100916138Y-84528602D01*
X100976441Y-84460321D01*
X100991751Y-84427713D01*
X101013360Y-84398880D01*
X101045341Y-84313569D01*
X101084221Y-84230757D01*
X101089417Y-84195995D01*
X101102244Y-84161777D01*
X101109874Y-84059116D01*
X101113999Y-84031514D01*
X101113999Y-84003606D01*
X101121010Y-83909259D01*
X101113999Y-83876415D01*
X101113999Y-81838000D01*
X105458163Y-81838000D01*
X105458163Y-82816588D01*
X105538795Y-83117512D01*
X105686185Y-83293165D01*
X105879814Y-83404956D01*
X106088976Y-83441837D01*
X106772000Y-83441837D01*
X106772000Y-81838000D01*
X107028000Y-81838000D01*
X107028000Y-83441837D01*
X107716588Y-83441837D01*
X108017512Y-83361205D01*
X108193165Y-83213815D01*
X108304956Y-83020186D01*
X108341837Y-82811024D01*
X108341837Y-81838000D01*
X107028000Y-81838000D01*
X106772000Y-81838000D01*
X105458163Y-81838000D01*
X101113999Y-81838000D01*
X101113999Y-80608976D01*
X105458163Y-80608976D01*
X105458163Y-81582000D01*
X106772000Y-81582000D01*
X106772000Y-79978163D01*
X107028000Y-79978163D01*
X107028000Y-81582000D01*
X108341837Y-81582000D01*
X108341837Y-80603412D01*
X108261205Y-80302489D01*
X108113815Y-80126835D01*
X107920186Y-80015044D01*
X107711024Y-79978163D01*
X107028000Y-79978163D01*
X106772000Y-79978163D01*
X106083412Y-79978163D01*
X105782489Y-80058795D01*
X105606835Y-80206185D01*
X105495044Y-80399814D01*
X105458163Y-80608976D01*
X101113999Y-80608976D01*
X101113999Y-74041993D01*
X101512410Y-74041993D01*
X101708357Y-74003016D01*
X101884992Y-73884992D01*
X102003016Y-73708357D01*
X102041993Y-73512410D01*
X102041993Y-72487590D01*
X102003016Y-72291643D01*
X101884992Y-72115008D01*
X101708357Y-71996984D01*
X101512410Y-71958007D01*
X100487590Y-71958007D01*
X100291643Y-71996984D01*
X100184604Y-72068506D01*
X100152882Y-72050191D01*
X99946165Y-71983025D01*
X99784185Y-71966000D01*
X99675815Y-71966000D01*
X99513835Y-71983025D01*
X99307118Y-72050191D01*
X99118882Y-72158869D01*
X99095000Y-72180373D01*
X99071118Y-72158869D01*
X98882882Y-72050191D01*
X98676165Y-71983025D01*
X98514185Y-71966000D01*
X98405815Y-71966000D01*
X98243835Y-71983025D01*
X98037118Y-72050191D01*
X97848882Y-72158869D01*
X97825000Y-72180373D01*
X97801118Y-72158869D01*
X97612882Y-72050191D01*
X97406165Y-71983025D01*
X97244185Y-71966000D01*
X97135815Y-71966000D01*
X96973835Y-71983025D01*
X96767118Y-72050191D01*
X96578882Y-72158869D01*
X96555000Y-72180373D01*
X96531118Y-72158869D01*
X96342882Y-72050191D01*
X96136165Y-71983025D01*
X95974185Y-71966000D01*
X95865815Y-71966000D01*
X95703835Y-71983025D01*
X95497118Y-72050191D01*
X95308882Y-72158869D01*
X95285000Y-72180373D01*
X95261118Y-72158869D01*
X95072882Y-72050191D01*
X94866165Y-71983025D01*
X94704185Y-71966000D01*
X94595815Y-71966000D01*
X94433835Y-71983025D01*
X94227118Y-72050191D01*
X94038882Y-72158869D01*
X94015000Y-72180373D01*
X93991118Y-72158869D01*
X93802882Y-72050191D01*
X93596165Y-71983025D01*
X93434185Y-71966000D01*
X93325815Y-71966000D01*
X93163835Y-71983025D01*
X92957118Y-72050191D01*
X92768882Y-72158869D01*
X92745000Y-72180373D01*
X92721118Y-72158869D01*
X92532882Y-72050191D01*
X92326165Y-71983025D01*
X92164185Y-71966000D01*
X92055815Y-71966000D01*
X91893835Y-71983025D01*
X91687118Y-72050191D01*
X91498882Y-72158869D01*
X91475000Y-72180373D01*
X91451118Y-72158869D01*
X91262882Y-72050191D01*
X91056165Y-71983025D01*
X90894185Y-71966000D01*
X90785815Y-71966000D01*
X90623835Y-71983025D01*
X90417118Y-72050191D01*
X90228882Y-72158869D01*
X90205000Y-72180373D01*
X90181118Y-72158869D01*
X89992882Y-72050191D01*
X89786165Y-71983025D01*
X89624185Y-71966000D01*
X89515815Y-71966000D01*
X89353835Y-71983025D01*
X89147118Y-72050191D01*
X88958882Y-72158869D01*
X88935000Y-72180373D01*
X88911118Y-72158869D01*
X88722882Y-72050191D01*
X88516165Y-71983025D01*
X88354185Y-71966000D01*
X88245815Y-71966000D01*
X88083835Y-71983025D01*
X87877118Y-72050191D01*
X87688882Y-72158869D01*
X87665000Y-72180373D01*
X87641118Y-72158869D01*
X87452882Y-72050191D01*
X87246165Y-71983025D01*
X87084185Y-71966000D01*
X86975815Y-71966000D01*
X86813835Y-71983025D01*
X86607118Y-72050191D01*
X86418882Y-72158869D01*
X86395000Y-72180373D01*
X86371118Y-72158869D01*
X86182882Y-72050191D01*
X85976165Y-71983025D01*
X85814185Y-71966000D01*
X85705815Y-71966000D01*
X85543835Y-71983025D01*
X85337118Y-72050191D01*
X85148882Y-72158869D01*
X85125000Y-72180373D01*
X85101118Y-72158869D01*
X84912882Y-72050191D01*
X84706165Y-71983025D01*
X84544185Y-71966000D01*
X84435815Y-71966000D01*
X84273835Y-71983025D01*
X84067118Y-72050191D01*
X83878882Y-72158869D01*
X83855000Y-72180373D01*
X83831118Y-72158869D01*
X83642882Y-72050191D01*
X83436165Y-71983025D01*
X83274185Y-71966000D01*
X83165815Y-71966000D01*
X83003835Y-71983025D01*
X82797118Y-72050191D01*
X82608882Y-72158869D01*
X82585000Y-72180373D01*
X82561118Y-72158869D01*
X82372882Y-72050191D01*
X82166165Y-71983025D01*
X82004185Y-71966000D01*
X81895815Y-71966000D01*
X81733835Y-71983025D01*
X81527118Y-72050191D01*
X81338882Y-72158869D01*
X81315000Y-72180373D01*
X81291118Y-72158869D01*
X81102882Y-72050191D01*
X80896165Y-71983025D01*
X80734185Y-71966000D01*
X80625815Y-71966000D01*
X80463835Y-71983025D01*
X80257118Y-72050191D01*
X80068882Y-72158869D01*
X80045000Y-72180373D01*
X80021118Y-72158869D01*
X79832882Y-72050191D01*
X79626165Y-71983025D01*
X79464185Y-71966000D01*
X79355815Y-71966000D01*
X79193835Y-71983025D01*
X78987118Y-72050191D01*
X78798882Y-72158869D01*
X78775000Y-72180373D01*
X78751118Y-72158869D01*
X78562882Y-72050191D01*
X78356165Y-71983025D01*
X78194185Y-71966000D01*
X78085815Y-71966000D01*
X77923835Y-71983025D01*
X77717118Y-72050191D01*
X77528882Y-72158869D01*
X77505000Y-72180373D01*
X77481118Y-72158869D01*
X77292882Y-72050191D01*
X77086165Y-71983025D01*
X76924185Y-71966000D01*
X76815815Y-71966000D01*
X76653835Y-71983025D01*
X76447118Y-72050191D01*
X76258882Y-72158869D01*
X76235000Y-72180373D01*
X76211118Y-72158869D01*
X76022882Y-72050191D01*
X75816165Y-71983025D01*
X75654185Y-71966000D01*
X75545815Y-71966000D01*
X75383835Y-71983025D01*
X75177118Y-72050191D01*
X74988882Y-72158869D01*
X74965000Y-72180373D01*
X74941118Y-72158869D01*
X74752882Y-72050191D01*
X74546165Y-71983025D01*
X74384185Y-71966000D01*
X74275815Y-71966000D01*
X74113835Y-71983025D01*
X73907118Y-72050191D01*
X73718882Y-72158869D01*
X73557356Y-72304308D01*
X73429598Y-72480152D01*
X73341191Y-72678717D01*
X73296001Y-72891322D01*
X73296001Y-73108678D01*
X73341191Y-73321284D01*
X73429598Y-73519847D01*
X73557356Y-73695692D01*
X73718882Y-73841131D01*
X73907118Y-73949809D01*
X74113835Y-74016975D01*
X74275815Y-74034000D01*
X74384185Y-74034000D01*
X74546165Y-74016975D01*
X74752882Y-73949809D01*
X74941118Y-73841131D01*
X74965000Y-73819627D01*
X74988882Y-73841131D01*
X75177118Y-73949809D01*
X75383835Y-74016975D01*
X75545815Y-74034000D01*
X75654185Y-74034000D01*
X75816165Y-74016975D01*
X76022882Y-73949809D01*
X76211118Y-73841131D01*
X76235000Y-73819627D01*
X76258882Y-73841131D01*
X76447118Y-73949809D01*
X76598082Y-73998860D01*
X72874737Y-77722206D01*
X72818836Y-77747623D01*
X72772688Y-77787385D01*
X72721178Y-77819887D01*
X72677270Y-77869603D01*
X72627009Y-77912911D01*
X72593874Y-77964031D01*
X72553559Y-78009679D01*
X72525369Y-78069721D01*
X72489282Y-78125396D01*
X72471828Y-78183761D01*
X72445778Y-78239245D01*
X72436332Y-78302453D01*
X72416731Y-78367994D01*
X72416312Y-78436417D01*
X72416001Y-78438500D01*
X72416001Y-78487318D01*
X72415183Y-78621206D01*
X72416001Y-78624068D01*
X72416000Y-97300970D01*
X72409798Y-97328377D01*
X72416000Y-97428338D01*
X72416000Y-97463399D01*
X72419837Y-97490190D01*
X72425477Y-97581105D01*
X72437709Y-97614986D01*
X72442818Y-97650656D01*
X72480529Y-97733601D01*
X72511592Y-97819645D01*
X72532498Y-97847898D01*
X72547623Y-97881163D01*
X72614822Y-97959152D01*
X72631421Y-97981585D01*
X72651153Y-98001316D01*
X72712911Y-98072992D01*
X72741098Y-98091261D01*
X77004889Y-102355053D01*
X77019886Y-102378822D01*
X77094970Y-102445134D01*
X77119748Y-102469913D01*
X77141400Y-102486140D01*
X77209679Y-102546442D01*
X77242292Y-102561753D01*
X77271123Y-102583361D01*
X77356424Y-102615338D01*
X77439244Y-102654222D01*
X77474006Y-102659418D01*
X77508224Y-102672245D01*
X77610885Y-102679875D01*
X77638487Y-102684000D01*
X77666395Y-102684000D01*
X77760742Y-102691011D01*
X77793586Y-102684000D01*
X79900970Y-102684000D01*
X79928377Y-102690202D01*
X80028338Y-102684000D01*
X80063400Y-102684000D01*
X80090192Y-102680163D01*
X80181105Y-102674523D01*
X80214985Y-102662291D01*
X80250657Y-102657183D01*
X80333603Y-102619470D01*
X80419643Y-102588409D01*
X80447895Y-102567504D01*
X80481166Y-102552376D01*
X80559157Y-102485174D01*
X80581584Y-102468579D01*
X80601308Y-102448855D01*
X80672992Y-102387088D01*
X80691259Y-102358905D01*
X81155054Y-101895110D01*
X81178823Y-101880113D01*
X81245134Y-101805030D01*
X81269912Y-101780253D01*
X81286139Y-101758601D01*
X81346442Y-101690320D01*
X81361752Y-101657712D01*
X81383361Y-101628879D01*
X81415342Y-101543568D01*
X81454222Y-101460756D01*
X81458844Y-101429833D01*
X81517265Y-101439086D01*
X81882735Y-101439086D01*
X82094644Y-101405523D01*
X82250000Y-101326365D01*
X82405356Y-101405523D01*
X82617265Y-101439086D01*
X82982735Y-101439086D01*
X83194644Y-101405523D01*
X83245309Y-101379708D01*
X83266103Y-101399001D01*
X83485826Y-101504813D01*
X83772000Y-101547949D01*
X83772000Y-97749508D01*
X83430170Y-97814186D01*
X83245881Y-97920584D01*
X83194644Y-97894477D01*
X82982735Y-97860914D01*
X82617265Y-97860914D01*
X82405356Y-97894477D01*
X82250000Y-97973635D01*
X82094644Y-97894477D01*
X81882735Y-97860914D01*
X81517265Y-97860914D01*
X81305356Y-97894477D01*
X81150000Y-97973635D01*
X80994644Y-97894477D01*
X80782735Y-97860914D01*
X80417265Y-97860914D01*
X80205356Y-97894477D01*
X80050000Y-97973635D01*
X79894644Y-97894477D01*
X79682735Y-97860914D01*
X79317265Y-97860914D01*
X79105356Y-97894477D01*
X78905247Y-97996438D01*
X78746438Y-98155247D01*
X78644477Y-98355356D01*
X78610914Y-98567265D01*
X78610914Y-100732735D01*
X78639940Y-100916000D01*
X78066164Y-100916000D01*
X74184000Y-97033837D01*
X74184000Y-91965965D01*
X75734302Y-93516269D01*
X75755851Y-93549642D01*
X75783679Y-93571579D01*
X75823635Y-93650000D01*
X75744477Y-93805356D01*
X75710914Y-94017265D01*
X75710914Y-94382735D01*
X75744477Y-94594644D01*
X75823635Y-94750000D01*
X75744477Y-94905356D01*
X75710914Y-95117265D01*
X75710914Y-95482735D01*
X75744477Y-95694644D01*
X75823635Y-95850000D01*
X75744477Y-96005356D01*
X75710914Y-96217265D01*
X75710914Y-96582735D01*
X75744477Y-96794644D01*
X75846438Y-96994753D01*
X76005247Y-97153562D01*
X76205356Y-97255523D01*
X76417265Y-97289086D01*
X78582735Y-97289086D01*
X78794644Y-97255523D01*
X78994753Y-97153562D01*
X79153562Y-96994753D01*
X79255523Y-96794644D01*
X79289086Y-96582735D01*
X79289086Y-96217265D01*
X79255523Y-96005356D01*
X79176365Y-95850000D01*
X79255523Y-95694644D01*
X79289086Y-95482735D01*
X79289086Y-95221052D01*
X79541000Y-95472967D01*
X79541001Y-96284176D01*
X79437624Y-96441254D01*
X79367579Y-96669647D01*
X79364452Y-96908519D01*
X79428495Y-97138667D01*
X79554558Y-97341591D01*
X79732507Y-97500976D01*
X79948038Y-97604010D01*
X80183824Y-97642410D01*
X80420912Y-97613090D01*
X80640240Y-97518405D01*
X80824177Y-97365968D01*
X80957937Y-97168034D01*
X81031006Y-96939764D01*
X81034380Y-96682036D01*
X80967311Y-96451933D01*
X80859000Y-96282245D01*
X80859000Y-95270304D01*
X80867361Y-95231472D01*
X80859000Y-95160830D01*
X80859000Y-95145314D01*
X80852644Y-95107130D01*
X80840912Y-95008006D01*
X80834279Y-94996791D01*
X80832082Y-94983591D01*
X80727904Y-94790515D01*
X80656188Y-94724221D01*
X79715700Y-93783735D01*
X79694150Y-93750359D01*
X79638275Y-93706310D01*
X79627313Y-93695348D01*
X79595830Y-93672850D01*
X79517432Y-93611046D01*
X79504812Y-93607806D01*
X79493925Y-93600026D01*
X79283734Y-93537167D01*
X79232838Y-93539166D01*
X79255523Y-93494644D01*
X79289086Y-93282735D01*
X79289086Y-92917265D01*
X79255523Y-92705356D01*
X79176365Y-92550000D01*
X79255523Y-92394644D01*
X79289086Y-92182735D01*
X79289086Y-91962085D01*
X79332507Y-92000976D01*
X79548038Y-92104010D01*
X79783824Y-92142410D01*
X80020912Y-92113090D01*
X80240240Y-92018405D01*
X80424177Y-91865968D01*
X80557937Y-91668034D01*
X80558007Y-91667815D01*
X80558007Y-92512410D01*
X80596984Y-92708357D01*
X80715008Y-92884992D01*
X80737469Y-92900000D01*
X80715008Y-92915008D01*
X80596984Y-93091643D01*
X80558007Y-93287590D01*
X80558007Y-94312410D01*
X80596984Y-94508357D01*
X80715008Y-94684992D01*
X80891643Y-94803016D01*
X81087590Y-94841993D01*
X82112410Y-94841993D01*
X82308357Y-94803016D01*
X82484992Y-94684992D01*
X82603016Y-94508357D01*
X82641993Y-94312410D01*
X82641993Y-93287590D01*
X82603016Y-93091643D01*
X82484992Y-92915008D01*
X82462531Y-92900000D01*
X82484992Y-92884992D01*
X82603016Y-92708357D01*
X82641993Y-92512410D01*
X82641993Y-91487590D01*
X82603016Y-91291643D01*
X82484992Y-91115008D01*
X82462531Y-91100000D01*
X82484992Y-91084992D01*
X82603016Y-90908357D01*
X82641993Y-90712410D01*
X82641993Y-90158959D01*
X86670938Y-94187906D01*
X86692488Y-94221281D01*
X86748354Y-94265323D01*
X86759323Y-94276292D01*
X86790814Y-94298795D01*
X86869206Y-94360594D01*
X86881827Y-94363834D01*
X86892712Y-94371613D01*
X87102902Y-94434473D01*
X87200471Y-94430640D01*
X87514002Y-94430640D01*
X87560867Y-94472616D01*
X87776398Y-94575650D01*
X88012184Y-94614050D01*
X88078348Y-94605868D01*
X87915008Y-94715008D01*
X87900000Y-94737469D01*
X87884992Y-94715008D01*
X87708357Y-94596984D01*
X87512410Y-94558007D01*
X86487590Y-94558007D01*
X86291643Y-94596984D01*
X86115008Y-94715008D01*
X86100000Y-94737469D01*
X86084992Y-94715008D01*
X85908357Y-94596984D01*
X85712410Y-94558007D01*
X84687590Y-94558007D01*
X84491643Y-94596984D01*
X84315008Y-94715008D01*
X84300000Y-94737469D01*
X84284992Y-94715008D01*
X84108357Y-94596984D01*
X83912410Y-94558007D01*
X82887590Y-94558007D01*
X82691643Y-94596984D01*
X82515008Y-94715008D01*
X82396984Y-94891643D01*
X82358007Y-95087590D01*
X82358007Y-96112410D01*
X82396984Y-96308357D01*
X82515008Y-96484992D01*
X82691643Y-96603016D01*
X82887590Y-96641993D01*
X83912410Y-96641993D01*
X84108357Y-96603016D01*
X84284992Y-96484992D01*
X84300000Y-96462531D01*
X84315008Y-96484992D01*
X84491643Y-96603016D01*
X84687590Y-96641993D01*
X85712410Y-96641993D01*
X85908357Y-96603016D01*
X86084992Y-96484992D01*
X86100000Y-96462531D01*
X86115008Y-96484992D01*
X86291643Y-96603016D01*
X86487590Y-96641993D01*
X87068763Y-96641993D01*
X87013466Y-96726014D01*
X86942120Y-96692972D01*
X86705883Y-96657454D01*
X86469171Y-96689670D01*
X86251017Y-96787027D01*
X86068956Y-96941699D01*
X85937624Y-97141254D01*
X85867579Y-97369647D01*
X85864452Y-97608519D01*
X85928495Y-97838667D01*
X85942316Y-97860914D01*
X85917265Y-97860914D01*
X85705356Y-97894477D01*
X85550000Y-97973635D01*
X85394644Y-97894477D01*
X85182735Y-97860914D01*
X84817265Y-97860914D01*
X84605356Y-97894477D01*
X84554691Y-97920292D01*
X84533897Y-97900999D01*
X84314174Y-97795187D01*
X84028000Y-97752051D01*
X84028000Y-101550492D01*
X84341000Y-101491269D01*
X84341001Y-104327033D01*
X84073735Y-104594300D01*
X84040359Y-104615850D01*
X83996311Y-104671725D01*
X83985349Y-104682686D01*
X83962853Y-104714166D01*
X83901048Y-104792567D01*
X83897807Y-104805187D01*
X83890025Y-104816077D01*
X83827167Y-105026266D01*
X83831000Y-105123835D01*
X83831001Y-106158801D01*
X83642882Y-106050191D01*
X83436165Y-105983025D01*
X83274185Y-105966000D01*
X83165815Y-105966000D01*
X83003835Y-105983025D01*
X82797118Y-106050191D01*
X82608882Y-106158869D01*
X82585000Y-106180373D01*
X82561118Y-106158869D01*
X82372882Y-106050191D01*
X82166165Y-105983025D01*
X82004185Y-105966000D01*
X81895815Y-105966000D01*
X81733835Y-105983025D01*
X81527118Y-106050191D01*
X81338882Y-106158869D01*
X81315000Y-106180373D01*
X81291118Y-106158869D01*
X81102882Y-106050191D01*
X80896165Y-105983025D01*
X80734185Y-105966000D01*
X80625815Y-105966000D01*
X80463835Y-105983025D01*
X80257118Y-106050191D01*
X80068882Y-106158869D01*
X80045000Y-106180373D01*
X80021118Y-106158869D01*
X79832882Y-106050191D01*
X79626165Y-105983025D01*
X79464185Y-105966000D01*
X79355815Y-105966000D01*
X79193835Y-105983025D01*
X78987118Y-106050191D01*
X78859872Y-106123657D01*
X78783769Y-106059799D01*
X78588890Y-105952663D01*
X78268000Y-105850871D01*
X78268000Y-108145958D01*
X78574222Y-108053502D01*
X78770579Y-107949099D01*
X78859822Y-107876314D01*
X78987118Y-107949809D01*
X79193835Y-108016975D01*
X79355815Y-108034000D01*
X79464185Y-108034000D01*
X79626165Y-108016975D01*
X79832882Y-107949809D01*
X80021118Y-107841131D01*
X80045000Y-107819627D01*
X80068882Y-107841131D01*
X80257118Y-107949809D01*
X80463835Y-108016975D01*
X80625815Y-108034000D01*
X80734185Y-108034000D01*
X80896165Y-108016975D01*
X81102882Y-107949809D01*
X81291118Y-107841131D01*
X81315000Y-107819627D01*
X81338882Y-107841131D01*
X81527118Y-107949809D01*
X81733835Y-108016975D01*
X81895815Y-108034000D01*
X82004185Y-108034000D01*
X82166165Y-108016975D01*
X82372882Y-107949809D01*
X82561118Y-107841131D01*
X82585000Y-107819627D01*
X82608882Y-107841131D01*
X82797118Y-107949809D01*
X83003835Y-108016975D01*
X83165815Y-108034000D01*
X83274185Y-108034000D01*
X83436165Y-108016975D01*
X83642882Y-107949809D01*
X83831118Y-107841131D01*
X83855000Y-107819627D01*
X83878882Y-107841131D01*
X84067118Y-107949809D01*
X84273835Y-108016975D01*
X84435815Y-108034000D01*
X84544185Y-108034000D01*
X84706165Y-108016975D01*
X84912882Y-107949809D01*
X85101118Y-107841131D01*
X85125000Y-107819627D01*
X85148882Y-107841131D01*
X85337118Y-107949809D01*
X85543835Y-108016975D01*
X85705815Y-108034000D01*
X85814185Y-108034000D01*
X85976165Y-108016975D01*
X86182882Y-107949809D01*
X86371118Y-107841131D01*
X86395000Y-107819627D01*
X86418882Y-107841131D01*
X86607118Y-107949809D01*
X86813835Y-108016975D01*
X86975815Y-108034000D01*
X87084185Y-108034000D01*
X87246165Y-108016975D01*
X87452882Y-107949809D01*
X87641118Y-107841131D01*
X87665000Y-107819627D01*
X87688882Y-107841131D01*
X87877118Y-107949809D01*
X88083835Y-108016975D01*
X88245815Y-108034000D01*
X88354185Y-108034000D01*
X88516165Y-108016975D01*
X88722882Y-107949809D01*
X88911118Y-107841131D01*
X88935000Y-107819627D01*
X88958882Y-107841131D01*
X89147118Y-107949809D01*
X89353835Y-108016975D01*
X89515815Y-108034000D01*
X89624185Y-108034000D01*
X89786165Y-108016975D01*
X89992882Y-107949809D01*
X90181118Y-107841131D01*
X90205000Y-107819627D01*
X90228882Y-107841131D01*
X90417118Y-107949809D01*
X90623835Y-108016975D01*
X90785815Y-108034000D01*
X90894185Y-108034000D01*
X91056165Y-108016975D01*
X91262882Y-107949809D01*
X91451118Y-107841131D01*
X91475000Y-107819627D01*
X91498882Y-107841131D01*
X91687118Y-107949809D01*
X91893835Y-108016975D01*
X92055815Y-108034000D01*
X92164185Y-108034000D01*
X92326165Y-108016975D01*
X92532882Y-107949809D01*
X92721118Y-107841131D01*
X92745000Y-107819627D01*
X92768882Y-107841131D01*
X92957118Y-107949809D01*
X93163835Y-108016975D01*
X93325815Y-108034000D01*
X93434185Y-108034000D01*
X93596165Y-108016975D01*
X93802882Y-107949809D01*
X93991118Y-107841131D01*
X94015000Y-107819627D01*
X94038882Y-107841131D01*
X94227118Y-107949809D01*
X94433835Y-108016975D01*
X94595815Y-108034000D01*
X94704185Y-108034000D01*
X94866165Y-108016975D01*
X95072882Y-107949809D01*
X95261118Y-107841131D01*
X95285000Y-107819627D01*
X95308882Y-107841131D01*
X95497118Y-107949809D01*
X95703835Y-108016975D01*
X95865815Y-108034000D01*
X95974185Y-108034000D01*
X96136165Y-108016975D01*
X96342882Y-107949809D01*
X96531118Y-107841131D01*
X96555000Y-107819627D01*
X96578882Y-107841131D01*
X96767118Y-107949809D01*
X96973835Y-108016975D01*
X97135815Y-108034000D01*
X97244185Y-108034000D01*
X97406165Y-108016975D01*
X97612882Y-107949809D01*
X97801118Y-107841131D01*
X97825000Y-107819627D01*
X97848882Y-107841131D01*
X98037118Y-107949809D01*
X98243835Y-108016975D01*
X98405815Y-108034000D01*
X98514185Y-108034000D01*
X98676165Y-108016975D01*
X98882882Y-107949809D01*
X99071118Y-107841131D01*
X99095000Y-107819627D01*
X99118882Y-107841131D01*
X99307118Y-107949809D01*
X99513835Y-108016975D01*
X99675815Y-108034000D01*
X99784185Y-108034000D01*
X99946165Y-108016975D01*
X100152882Y-107949809D01*
X100184604Y-107931494D01*
X100291643Y-108003016D01*
X100487590Y-108041993D01*
X101512410Y-108041993D01*
X101708357Y-108003016D01*
X101884992Y-107884992D01*
X102003016Y-107708357D01*
X102041993Y-107512410D01*
X102041993Y-106487590D01*
X102003016Y-106291643D01*
X101884992Y-106115008D01*
X101708357Y-105996984D01*
X101512410Y-105958007D01*
X100487590Y-105958007D01*
X100291643Y-105996984D01*
X100184604Y-106068506D01*
X100152882Y-106050191D01*
X99946165Y-105983025D01*
X99784185Y-105966000D01*
X99675815Y-105966000D01*
X99513835Y-105983025D01*
X99307118Y-106050191D01*
X99118882Y-106158869D01*
X99095000Y-106180373D01*
X99071118Y-106158869D01*
X98882882Y-106050191D01*
X98676165Y-105983025D01*
X98514185Y-105966000D01*
X98405815Y-105966000D01*
X98243835Y-105983025D01*
X98037118Y-106050191D01*
X97848882Y-106158869D01*
X97825000Y-106180373D01*
X97801118Y-106158869D01*
X97612882Y-106050191D01*
X97406165Y-105983025D01*
X97244185Y-105966000D01*
X97135815Y-105966000D01*
X96973835Y-105983025D01*
X96767118Y-106050191D01*
X96578882Y-106158869D01*
X96555000Y-106180373D01*
X96531118Y-106158869D01*
X96342882Y-106050191D01*
X96136165Y-105983025D01*
X95974185Y-105966000D01*
X95865815Y-105966000D01*
X95703835Y-105983025D01*
X95497118Y-106050191D01*
X95308882Y-106158869D01*
X95285000Y-106180373D01*
X95261118Y-106158869D01*
X95072882Y-106050191D01*
X94866165Y-105983025D01*
X94704185Y-105966000D01*
X94595815Y-105966000D01*
X94433835Y-105983025D01*
X94227118Y-106050191D01*
X94039000Y-106158801D01*
X94039000Y-104250304D01*
X94047361Y-104211472D01*
X94039000Y-104140830D01*
X94039000Y-104125314D01*
X94032644Y-104087130D01*
X94020912Y-103988006D01*
X94014279Y-103976791D01*
X94012082Y-103963591D01*
X93933900Y-103818694D01*
X93934380Y-103782036D01*
X93867311Y-103551933D01*
X93776477Y-103409627D01*
X105200997Y-103350738D01*
X105322185Y-103495165D01*
X105515814Y-103606956D01*
X105724976Y-103643837D01*
X107640000Y-103643837D01*
X107640000Y-103338166D01*
X107896000Y-103336847D01*
X107896000Y-103643837D01*
X109466001Y-103643837D01*
X109466001Y-108435846D01*
X109463539Y-108445945D01*
X109446217Y-108656643D01*
X109407925Y-108809089D01*
X109345256Y-108953217D01*
X109302496Y-109019314D01*
X109013352Y-109308458D01*
X108893157Y-109374809D01*
X108744991Y-109427277D01*
X108580947Y-109456498D01*
X108464701Y-109461980D01*
X108445289Y-109466000D01*
X71564150Y-109466000D01*
X71554055Y-109463539D01*
X71343357Y-109446217D01*
X71190911Y-109407925D01*
X71046783Y-109345256D01*
X70980686Y-109302496D01*
X70691542Y-109013352D01*
X70625191Y-108893157D01*
X70572723Y-108744991D01*
X70543502Y-108580947D01*
X70538020Y-108464701D01*
X70534000Y-108445289D01*
X70534000Y-107128000D01*
X73185533Y-107128000D01*
X73273492Y-107426857D01*
X73376523Y-107623938D01*
X73515872Y-107797253D01*
X73686231Y-107940201D01*
X73881110Y-108047337D01*
X74202000Y-108149129D01*
X74202000Y-108145958D01*
X74458000Y-108145958D01*
X74764222Y-108053502D01*
X74960580Y-107949098D01*
X74965345Y-107945212D01*
X75151110Y-108047337D01*
X75472000Y-108149129D01*
X75472000Y-108145958D01*
X75728000Y-108145958D01*
X76034222Y-108053502D01*
X76230580Y-107949098D01*
X76235345Y-107945212D01*
X76421110Y-108047337D01*
X76742000Y-108149129D01*
X76742000Y-108145958D01*
X76998000Y-108145958D01*
X77304222Y-108053502D01*
X77500580Y-107949098D01*
X77505345Y-107945212D01*
X77691110Y-108047337D01*
X78012000Y-108149129D01*
X78012000Y-105854042D01*
X77705778Y-105946498D01*
X77509420Y-106050902D01*
X77504655Y-106054788D01*
X77318890Y-105952663D01*
X76998000Y-105850871D01*
X76998000Y-108145958D01*
X76742000Y-108145958D01*
X76742000Y-105854042D01*
X76435778Y-105946498D01*
X76239420Y-106050902D01*
X76234655Y-106054788D01*
X76048890Y-105952663D01*
X75728000Y-105850871D01*
X75728000Y-108145958D01*
X75472000Y-108145958D01*
X75472000Y-105854042D01*
X75165778Y-105946498D01*
X74969420Y-106050902D01*
X74964655Y-106054788D01*
X74778890Y-105952663D01*
X74458000Y-105850871D01*
X74458000Y-108145958D01*
X74202000Y-108145958D01*
X74202000Y-107128000D01*
X73185533Y-107128000D01*
X70534000Y-107128000D01*
X70534000Y-106872000D01*
X73182491Y-106872000D01*
X74202000Y-106872000D01*
X74202000Y-105854042D01*
X73895778Y-105946498D01*
X73699420Y-106050901D01*
X73527082Y-106191457D01*
X73385327Y-106362810D01*
X73279554Y-106558433D01*
X73182491Y-106872000D01*
X70534000Y-106872000D01*
X70534000Y-71564151D01*
X70536461Y-71554056D01*
X70553783Y-71343357D01*
X70592075Y-71190911D01*
X70654745Y-71046782D01*
X70697505Y-70980685D01*
X70986647Y-70691543D01*
X71106843Y-70625191D01*
X71255009Y-70572723D01*
X71419058Y-70543501D01*
X71535299Y-70538020D01*
X71554711Y-70534000D01*
X108435849Y-70534000D01*
X108445944Y-70536461D01*
G36*
X105304123Y-96385590D02*
G01*
X105304123Y-97032000D01*
X107896000Y-97032000D01*
X107896000Y-98353877D01*
X109574001Y-98353877D01*
X109574001Y-98633123D01*
X105723590Y-98633123D01*
X105593499Y-98659000D01*
X101022009Y-98659000D01*
X100826556Y-98683692D01*
X100582009Y-98780515D01*
X100369223Y-98935113D01*
X100303409Y-99014668D01*
X100129248Y-98851120D01*
X99895224Y-98722464D01*
X99562531Y-98659000D01*
X93480628Y-98659000D01*
X93480628Y-98561112D01*
X93404485Y-98276943D01*
X93264575Y-98110204D01*
X93081025Y-98004232D01*
X92883324Y-97969372D01*
X92511112Y-97969372D01*
X92226943Y-98045515D01*
X92155852Y-98105168D01*
X91981025Y-98004232D01*
X91728000Y-97959617D01*
X91728000Y-101346942D01*
X92073057Y-101254485D01*
X92144148Y-101194832D01*
X92318975Y-101295768D01*
X92516676Y-101330628D01*
X92888888Y-101330628D01*
X93173057Y-101254485D01*
X93339796Y-101114575D01*
X93445768Y-100931025D01*
X93479275Y-100741000D01*
X97092281Y-100741000D01*
X97028092Y-100859611D01*
X96978049Y-101159500D01*
X98817494Y-101159500D01*
X98786271Y-100909013D01*
X98712574Y-100741000D01*
X99577991Y-100741000D01*
X99773444Y-100716308D01*
X100017991Y-100619485D01*
X100230777Y-100464887D01*
X100296591Y-100385332D01*
X100470752Y-100548880D01*
X100704776Y-100677536D01*
X101037469Y-100741000D01*
X101892281Y-100741000D01*
X101828092Y-100859611D01*
X101778049Y-101159500D01*
X103617494Y-101159500D01*
X103586271Y-100909013D01*
X103512574Y-100741000D01*
X105593499Y-100741000D01*
X105723590Y-100766877D01*
X109574001Y-100766877D01*
X109574001Y-101046123D01*
X107896000Y-101046123D01*
X107896000Y-102368000D01*
X105304123Y-102368000D01*
X105304123Y-103014410D01*
X105320774Y-103098118D01*
X90726000Y-103173349D01*
X90726000Y-101415500D01*
X96982506Y-101415500D01*
X97013729Y-101665987D01*
X97099203Y-101860850D01*
X97245126Y-102019364D01*
X97434611Y-102121908D01*
X97772000Y-102178208D01*
X97772000Y-101415500D01*
X98028000Y-101415500D01*
X98028000Y-102172170D01*
X98315987Y-102136271D01*
X98510850Y-102050797D01*
X98669364Y-101904874D01*
X98771908Y-101715389D01*
X98821951Y-101415500D01*
X101782506Y-101415500D01*
X101813729Y-101665987D01*
X101899203Y-101860850D01*
X102045126Y-102019364D01*
X102234611Y-102121908D01*
X102572000Y-102178208D01*
X102572000Y-101415500D01*
X102828000Y-101415500D01*
X102828000Y-102172170D01*
X103115987Y-102136271D01*
X103310850Y-102050797D01*
X103469364Y-101904874D01*
X103571908Y-101715389D01*
X103613592Y-101465590D01*
X105304123Y-101465590D01*
X105304123Y-102112000D01*
X107640000Y-102112000D01*
X107640000Y-101046123D01*
X105723590Y-101046123D01*
X105569783Y-101076718D01*
X105428871Y-101170871D01*
X105334718Y-101311783D01*
X105304123Y-101465590D01*
X103613592Y-101465590D01*
X103621951Y-101415500D01*
X102828000Y-101415500D01*
X102572000Y-101415500D01*
X101782506Y-101415500D01*
X98821951Y-101415500D01*
X98028000Y-101415500D01*
X97772000Y-101415500D01*
X96982506Y-101415500D01*
X90726000Y-101415500D01*
X90726000Y-101320684D01*
X90973057Y-101254485D01*
X91044148Y-101194832D01*
X91218975Y-101295768D01*
X91472000Y-101340383D01*
X91472000Y-97953058D01*
X91126943Y-98045515D01*
X91055852Y-98105168D01*
X90881025Y-98004232D01*
X90726000Y-97976897D01*
X90726000Y-97288000D01*
X105304123Y-97288000D01*
X105304123Y-97934410D01*
X105334718Y-98088217D01*
X105428871Y-98229129D01*
X105569783Y-98323282D01*
X105723590Y-98353877D01*
X107640000Y-98353877D01*
X107640000Y-97288000D01*
X105304123Y-97288000D01*
X90726000Y-97288000D01*
X90726000Y-96919332D01*
X91117332Y-96528000D01*
X93003058Y-96528000D01*
X93095515Y-96873057D01*
X93235425Y-97039796D01*
X93418975Y-97145768D01*
X93616676Y-97180628D01*
X94572000Y-97180628D01*
X94572000Y-96528000D01*
X94828000Y-96528000D01*
X94828000Y-97180628D01*
X95788888Y-97180628D01*
X96073057Y-97104485D01*
X96239796Y-96964575D01*
X96345768Y-96781025D01*
X96390383Y-96528000D01*
X94828000Y-96528000D01*
X94572000Y-96528000D01*
X93003058Y-96528000D01*
X91117332Y-96528000D01*
X91319333Y-96326000D01*
X105315977Y-96326000D01*
X105304123Y-96385590D01*
G37*
X105304123Y-96385590D02*
X105304123Y-97032000D01*
X107896000Y-97032000D01*
X107896000Y-98353877D01*
X109574001Y-98353877D01*
X109574001Y-98633123D01*
X105723590Y-98633123D01*
X105593499Y-98659000D01*
X101022009Y-98659000D01*
X100826556Y-98683692D01*
X100582009Y-98780515D01*
X100369223Y-98935113D01*
X100303409Y-99014668D01*
X100129248Y-98851120D01*
X99895224Y-98722464D01*
X99562531Y-98659000D01*
X93480628Y-98659000D01*
X93480628Y-98561112D01*
X93404485Y-98276943D01*
X93264575Y-98110204D01*
X93081025Y-98004232D01*
X92883324Y-97969372D01*
X92511112Y-97969372D01*
X92226943Y-98045515D01*
X92155852Y-98105168D01*
X91981025Y-98004232D01*
X91728000Y-97959617D01*
X91728000Y-101346942D01*
X92073057Y-101254485D01*
X92144148Y-101194832D01*
X92318975Y-101295768D01*
X92516676Y-101330628D01*
X92888888Y-101330628D01*
X93173057Y-101254485D01*
X93339796Y-101114575D01*
X93445768Y-100931025D01*
X93479275Y-100741000D01*
X97092281Y-100741000D01*
X97028092Y-100859611D01*
X96978049Y-101159500D01*
X98817494Y-101159500D01*
X98786271Y-100909013D01*
X98712574Y-100741000D01*
X99577991Y-100741000D01*
X99773444Y-100716308D01*
X100017991Y-100619485D01*
X100230777Y-100464887D01*
X100296591Y-100385332D01*
X100470752Y-100548880D01*
X100704776Y-100677536D01*
X101037469Y-100741000D01*
X101892281Y-100741000D01*
X101828092Y-100859611D01*
X101778049Y-101159500D01*
X103617494Y-101159500D01*
X103586271Y-100909013D01*
X103512574Y-100741000D01*
X105593499Y-100741000D01*
X105723590Y-100766877D01*
X109574001Y-100766877D01*
X109574001Y-101046123D01*
X107896000Y-101046123D01*
X107896000Y-102368000D01*
X105304123Y-102368000D01*
X105304123Y-103014410D01*
X105320774Y-103098118D01*
X90726000Y-103173349D01*
X90726000Y-101415500D01*
X96982506Y-101415500D01*
X97013729Y-101665987D01*
X97099203Y-101860850D01*
X97245126Y-102019364D01*
X97434611Y-102121908D01*
X97772000Y-102178208D01*
X97772000Y-101415500D01*
X98028000Y-101415500D01*
X98028000Y-102172170D01*
X98315987Y-102136271D01*
X98510850Y-102050797D01*
X98669364Y-101904874D01*
X98771908Y-101715389D01*
X98821951Y-101415500D01*
X101782506Y-101415500D01*
X101813729Y-101665987D01*
X101899203Y-101860850D01*
X102045126Y-102019364D01*
X102234611Y-102121908D01*
X102572000Y-102178208D01*
X102572000Y-101415500D01*
X102828000Y-101415500D01*
X102828000Y-102172170D01*
X103115987Y-102136271D01*
X103310850Y-102050797D01*
X103469364Y-101904874D01*
X103571908Y-101715389D01*
X103613592Y-101465590D01*
X105304123Y-101465590D01*
X105304123Y-102112000D01*
X107640000Y-102112000D01*
X107640000Y-101046123D01*
X105723590Y-101046123D01*
X105569783Y-101076718D01*
X105428871Y-101170871D01*
X105334718Y-101311783D01*
X105304123Y-101465590D01*
X103613592Y-101465590D01*
X103621951Y-101415500D01*
X102828000Y-101415500D01*
X102572000Y-101415500D01*
X101782506Y-101415500D01*
X98821951Y-101415500D01*
X98028000Y-101415500D01*
X97772000Y-101415500D01*
X96982506Y-101415500D01*
X90726000Y-101415500D01*
X90726000Y-101320684D01*
X90973057Y-101254485D01*
X91044148Y-101194832D01*
X91218975Y-101295768D01*
X91472000Y-101340383D01*
X91472000Y-97953058D01*
X91126943Y-98045515D01*
X91055852Y-98105168D01*
X90881025Y-98004232D01*
X90726000Y-97976897D01*
X90726000Y-97288000D01*
X105304123Y-97288000D01*
X105304123Y-97934410D01*
X105334718Y-98088217D01*
X105428871Y-98229129D01*
X105569783Y-98323282D01*
X105723590Y-98353877D01*
X107640000Y-98353877D01*
X107640000Y-97288000D01*
X105304123Y-97288000D01*
X90726000Y-97288000D01*
X90726000Y-96919332D01*
X91117332Y-96528000D01*
X93003058Y-96528000D01*
X93095515Y-96873057D01*
X93235425Y-97039796D01*
X93418975Y-97145768D01*
X93616676Y-97180628D01*
X94572000Y-97180628D01*
X94572000Y-96528000D01*
X94828000Y-96528000D01*
X94828000Y-97180628D01*
X95788888Y-97180628D01*
X96073057Y-97104485D01*
X96239796Y-96964575D01*
X96345768Y-96781025D01*
X96390383Y-96528000D01*
X94828000Y-96528000D01*
X94572000Y-96528000D01*
X93003058Y-96528000D01*
X91117332Y-96528000D01*
X91319333Y-96326000D01*
X105315977Y-96326000D01*
X105304123Y-96385590D01*
G36*
X85209838Y-77908004D02*
G01*
X85336434Y-78104993D01*
X85271243Y-78180227D01*
X85169378Y-78403281D01*
X85135776Y-78636987D01*
X85135776Y-78772000D01*
X86340500Y-78772000D01*
X86340500Y-79028000D01*
X85135776Y-79028000D01*
X85135776Y-79167547D01*
X85168070Y-79316000D01*
X85136600Y-79316000D01*
X84949342Y-79342818D01*
X84718835Y-79447623D01*
X84527008Y-79612911D01*
X84389282Y-79825396D01*
X84316731Y-80067994D01*
X84316285Y-80141000D01*
X83272966Y-80141000D01*
X83145779Y-80013813D01*
X83324177Y-79865968D01*
X83457937Y-79668034D01*
X83531006Y-79439764D01*
X83531521Y-79400444D01*
X84906266Y-78025700D01*
X84939641Y-78004150D01*
X84983683Y-77948284D01*
X84994652Y-77937315D01*
X85017155Y-77905824D01*
X85078954Y-77827432D01*
X85082194Y-77814811D01*
X85089973Y-77803926D01*
X85146257Y-77615726D01*
X85209838Y-77908004D01*
G37*
X85209838Y-77908004D02*
X85336434Y-78104993D01*
X85271243Y-78180227D01*
X85169378Y-78403281D01*
X85135776Y-78636987D01*
X85135776Y-78772000D01*
X86340500Y-78772000D01*
X86340500Y-79028000D01*
X85135776Y-79028000D01*
X85135776Y-79167547D01*
X85168070Y-79316000D01*
X85136600Y-79316000D01*
X84949342Y-79342818D01*
X84718835Y-79447623D01*
X84527008Y-79612911D01*
X84389282Y-79825396D01*
X84316731Y-80067994D01*
X84316285Y-80141000D01*
X83272966Y-80141000D01*
X83145779Y-80013813D01*
X83324177Y-79865968D01*
X83457937Y-79668034D01*
X83531006Y-79439764D01*
X83531521Y-79400444D01*
X84906266Y-78025700D01*
X84939641Y-78004150D01*
X84983683Y-77948284D01*
X84994652Y-77937315D01*
X85017155Y-77905824D01*
X85078954Y-77827432D01*
X85082194Y-77814811D01*
X85089973Y-77803926D01*
X85146257Y-77615726D01*
X85209838Y-77908004D01*
G36*
X91476001Y-73820529D02*
G01*
X91476001Y-74127389D01*
X91437390Y-74166000D01*
X91327668Y-74166000D01*
X91243891Y-74158671D01*
X91162657Y-74180437D01*
X91079814Y-74195045D01*
X91055283Y-74209208D01*
X91027928Y-74216538D01*
X90959024Y-74264784D01*
X90886186Y-74306836D01*
X90832124Y-74371265D01*
X89171270Y-76032120D01*
X89106836Y-76086187D01*
X89064785Y-76159023D01*
X89016538Y-76227928D01*
X89009208Y-76255284D01*
X88995045Y-76279815D01*
X88980437Y-76362658D01*
X88958671Y-76443892D01*
X88966000Y-76527670D01*
X88966000Y-76732193D01*
X88891643Y-76746984D01*
X88734818Y-76851771D01*
X88728355Y-76810964D01*
X88620102Y-76598506D01*
X88451494Y-76429899D01*
X88446500Y-76427354D01*
X88446500Y-76101938D01*
X88545437Y-75955534D01*
X88618506Y-75727264D01*
X88621880Y-75469536D01*
X88554811Y-75239433D01*
X88426277Y-75038064D01*
X88246394Y-74880865D01*
X88029620Y-74780472D01*
X87793383Y-74744954D01*
X87556671Y-74777170D01*
X87338517Y-74874527D01*
X87156456Y-75029199D01*
X87025124Y-75228754D01*
X86955079Y-75457147D01*
X86951952Y-75696019D01*
X87015995Y-75926167D01*
X87128501Y-76107268D01*
X87128500Y-76427354D01*
X87123506Y-76429899D01*
X87075533Y-76477872D01*
X86894773Y-76321243D01*
X86671719Y-76219378D01*
X86340500Y-76171755D01*
X86340500Y-77428000D01*
X86084500Y-77428000D01*
X86084500Y-76163576D01*
X85641995Y-76259838D01*
X85431824Y-76394906D01*
X85271243Y-76580227D01*
X85169378Y-76803281D01*
X85149000Y-76945012D01*
X85149000Y-73841199D01*
X85337118Y-73949809D01*
X85543835Y-74016975D01*
X85705815Y-74034000D01*
X85814185Y-74034000D01*
X85976165Y-74016975D01*
X86182882Y-73949809D01*
X86371118Y-73841131D01*
X86395000Y-73819627D01*
X86418882Y-73841131D01*
X86607118Y-73949809D01*
X86813835Y-74016975D01*
X86975815Y-74034000D01*
X87084185Y-74034000D01*
X87246165Y-74016975D01*
X87452882Y-73949809D01*
X87641118Y-73841131D01*
X87665000Y-73819627D01*
X87688882Y-73841131D01*
X87877118Y-73949809D01*
X88083835Y-74016975D01*
X88245815Y-74034000D01*
X88354185Y-74034000D01*
X88516165Y-74016975D01*
X88722882Y-73949809D01*
X88911118Y-73841131D01*
X88935000Y-73819627D01*
X88958882Y-73841131D01*
X89147118Y-73949809D01*
X89353835Y-74016975D01*
X89515815Y-74034000D01*
X89624185Y-74034000D01*
X89786165Y-74016975D01*
X89992882Y-73949809D01*
X90181118Y-73841131D01*
X90205000Y-73819627D01*
X90228882Y-73841131D01*
X90417118Y-73949809D01*
X90623835Y-74016975D01*
X90785815Y-74034000D01*
X90894185Y-74034000D01*
X91056165Y-74016975D01*
X91262882Y-73949809D01*
X91451118Y-73841131D01*
X91475000Y-73819627D01*
X91476001Y-73820529D01*
G37*
X91476001Y-73820529D02*
X91476001Y-74127389D01*
X91437390Y-74166000D01*
X91327668Y-74166000D01*
X91243891Y-74158671D01*
X91162657Y-74180437D01*
X91079814Y-74195045D01*
X91055283Y-74209208D01*
X91027928Y-74216538D01*
X90959024Y-74264784D01*
X90886186Y-74306836D01*
X90832124Y-74371265D01*
X89171270Y-76032120D01*
X89106836Y-76086187D01*
X89064785Y-76159023D01*
X89016538Y-76227928D01*
X89009208Y-76255284D01*
X88995045Y-76279815D01*
X88980437Y-76362658D01*
X88958671Y-76443892D01*
X88966000Y-76527670D01*
X88966000Y-76732193D01*
X88891643Y-76746984D01*
X88734818Y-76851771D01*
X88728355Y-76810964D01*
X88620102Y-76598506D01*
X88451494Y-76429899D01*
X88446500Y-76427354D01*
X88446500Y-76101938D01*
X88545437Y-75955534D01*
X88618506Y-75727264D01*
X88621880Y-75469536D01*
X88554811Y-75239433D01*
X88426277Y-75038064D01*
X88246394Y-74880865D01*
X88029620Y-74780472D01*
X87793383Y-74744954D01*
X87556671Y-74777170D01*
X87338517Y-74874527D01*
X87156456Y-75029199D01*
X87025124Y-75228754D01*
X86955079Y-75457147D01*
X86951952Y-75696019D01*
X87015995Y-75926167D01*
X87128501Y-76107268D01*
X87128500Y-76427354D01*
X87123506Y-76429899D01*
X87075533Y-76477872D01*
X86894773Y-76321243D01*
X86671719Y-76219378D01*
X86340500Y-76171755D01*
X86340500Y-77428000D01*
X86084500Y-77428000D01*
X86084500Y-76163576D01*
X85641995Y-76259838D01*
X85431824Y-76394906D01*
X85271243Y-76580227D01*
X85169378Y-76803281D01*
X85149000Y-76945012D01*
X85149000Y-73841199D01*
X85337118Y-73949809D01*
X85543835Y-74016975D01*
X85705815Y-74034000D01*
X85814185Y-74034000D01*
X85976165Y-74016975D01*
X86182882Y-73949809D01*
X86371118Y-73841131D01*
X86395000Y-73819627D01*
X86418882Y-73841131D01*
X86607118Y-73949809D01*
X86813835Y-74016975D01*
X86975815Y-74034000D01*
X87084185Y-74034000D01*
X87246165Y-74016975D01*
X87452882Y-73949809D01*
X87641118Y-73841131D01*
X87665000Y-73819627D01*
X87688882Y-73841131D01*
X87877118Y-73949809D01*
X88083835Y-74016975D01*
X88245815Y-74034000D01*
X88354185Y-74034000D01*
X88516165Y-74016975D01*
X88722882Y-73949809D01*
X88911118Y-73841131D01*
X88935000Y-73819627D01*
X88958882Y-73841131D01*
X89147118Y-73949809D01*
X89353835Y-74016975D01*
X89515815Y-74034000D01*
X89624185Y-74034000D01*
X89786165Y-74016975D01*
X89992882Y-73949809D01*
X90181118Y-73841131D01*
X90205000Y-73819627D01*
X90228882Y-73841131D01*
X90417118Y-73949809D01*
X90623835Y-74016975D01*
X90785815Y-74034000D01*
X90894185Y-74034000D01*
X91056165Y-74016975D01*
X91262882Y-73949809D01*
X91451118Y-73841131D01*
X91475000Y-73819627D01*
X91476001Y-73820529D01*
M02*
