M48
; DRILL file {KiCad 5.99.0-unknown-df3fabf~86~ubuntu18.04.1} date Fri 25 Oct 2019 07:02:06 PM EDT
; FORMAT={-:-/ absolute / inch / decimal}
; #@! TF.CreationDate,2019-10-25T19:02:06-04:00
; #@! TF.GenerationSoftware,Kicad,Pcbnew,5.99.0-unknown-df3fabf~86~ubuntu18.04.1
; #@! TF.FileFunction,Plated,1,2,PTH
FMAT,2
INCH
T1C0.0118
T2C0.0256
%
G90
G05
T1
X2.8937Y-2.9488
X2.9252Y-4.1457
X2.9409Y-3.5551
X2.9488Y-3.7126
X2.9656Y-3.5315
X2.9764Y-4.1457
X3.0098Y-3.3248
X3.0276Y-4.1457
X3.0591Y-3.9094
X3.063Y-3.2244
X3.063Y-4.0906
X3.0787Y-4.1457
X3.1417Y-3.5945
X3.1457Y-3.4341
X3.1575Y-3.811
X3.1919Y-3.4409
X3.1991Y-3.482
X3.2362Y-3.0906
X3.248Y-3.4341
X3.2559Y-3.122
X3.3031Y-3.1339
X3.3031Y-3.8307
X3.3071Y-4.0157
X3.3268Y-3.2323
X3.3543Y-3.1575
X3.4134Y-3.8386
X3.4528Y-3.8268
X3.4562Y-2.9759
X3.4657Y-3.6918
X3.5276Y-2.9449
X3.6063Y-3.8425
X3.6142Y-3.4488
X3.6299Y-3.0787
X3.6339Y-3.7992
X3.6496Y-3.2165
X3.6654Y-4.0906
X3.689Y-3.8425
X3.689Y-3.878
X3.689Y-3.9724
X3.689Y-4.0079
X3.7165Y-3.3189
X3.748Y-3.8425
X3.748Y-3.878
X3.748Y-3.9724
X3.748Y-4.0079
X3.7717Y-2.9449
X3.8071Y-3.8425
X3.8071Y-3.878
X3.8071Y-3.9724
X3.8071Y-4.0079
X3.811Y-3.0315
X3.811Y-3.0984
X3.811Y-3.1732
X3.811Y-3.2441
X3.8228Y-3.7953
X3.8425Y-4.0748
X3.8465Y-3.5787
X3.8465Y-3.622
X3.8661Y-3.8425
X3.8661Y-3.878
X3.8661Y-4.0354
X3.9173Y-3.437
X3.9252Y-3.8425
X3.9252Y-3.878
X3.9252Y-3.9724
X3.9252Y-4.0079
X3.9449Y-4.0748
X3.9843Y-3.8425
X3.9843Y-3.878
X3.9843Y-3.9724
X3.9843Y-4.0079
X4.0394Y-2.9646
X4.0433Y-3.8425
X4.0433Y-3.878
X4.0433Y-4.0354
X4.1024Y-3.8425
X4.1024Y-3.878
X4.1024Y-3.9724
X4.1024Y-4.0079
X4.1102Y-3.2087
X4.2441Y-3.7323
X4.2441Y-4.1102
T2
X2.9264Y-4.2126
X2.9764Y-4.2126
X3.0264Y-4.2126
X3.0764Y-4.2126
X3.1264Y-4.2126
X3.1764Y-4.2126
X3.2264Y-4.2126
X3.2764Y-4.2126
X3.3264Y-4.2126
X3.3764Y-4.2126
X3.4264Y-4.2126
X3.4764Y-4.2126
X3.5264Y-4.2126
X3.5764Y-4.2126
X3.6264Y-4.2126
X3.6764Y-4.2126
X3.7264Y-4.2126
X3.7764Y-4.2126
X3.8264Y-4.2126
X3.8764Y-4.2126
X3.9264Y-4.2126
X3.9764Y-4.2126
X2.9264Y-2.874
X2.9764Y-2.874
X3.0264Y-2.874
X3.0764Y-2.874
X3.1264Y-2.874
X3.1764Y-2.874
X3.2264Y-2.874
X3.2764Y-2.874
X3.3264Y-2.874
X3.3764Y-2.874
X3.4264Y-2.874
X3.4764Y-2.874
X3.5264Y-2.874
X3.5764Y-2.874
X3.6264Y-2.874
X3.6764Y-2.874
X3.7264Y-2.874
X3.7764Y-2.874
X3.8264Y-2.874
X3.8764Y-2.874
X3.9264Y-2.874
X3.9764Y-2.874
T0
M30
