G04 #@! TF.GenerationSoftware,KiCad,Pcbnew,5.99.0-unknown-fd0d5fd~86~ubuntu18.04.1*
G04 #@! TF.CreationDate,2020-01-16T10:32:26-05:00*
G04 #@! TF.ProjectId,bc26_module_board,62633236-5f6d-46f6-9475-6c655f626f61,rev?*
G04 #@! TF.SameCoordinates,Original*
G04 #@! TF.FileFunction,Soldermask,Bot*
G04 #@! TF.FilePolarity,Negative*
%FSLAX46Y46*%
G04 Gerber Fmt 4.6, Leading zero omitted, Abs format (unit mm)*
G04 Created by KiCad (PCBNEW 5.99.0-unknown-fd0d5fd~86~ubuntu18.04.1) date 2020-01-16 10:32:26*
%MOMM*%
%LPD*%
G04 APERTURE LIST*
G04 APERTURE END LIST*
G36*
X99747381Y-106446783D02*
G01*
X99770734Y-106445314D01*
X99821992Y-106456209D01*
X99865218Y-106461670D01*
X99886974Y-106470021D01*
X99918399Y-106476701D01*
X99957154Y-106496961D01*
X99989724Y-106509464D01*
X100015993Y-106527721D01*
X100052185Y-106546642D01*
X100077727Y-106570628D01*
X100099239Y-106585579D01*
X100126134Y-106616086D01*
X100162233Y-106649985D01*
X100175865Y-106672494D01*
X100187430Y-106685612D01*
X100209778Y-106728359D01*
X100258673Y-106779055D01*
X100327214Y-106795268D01*
X100393640Y-106771852D01*
X100436862Y-106716241D01*
X100445552Y-106670447D01*
X100445552Y-106512312D01*
X100451959Y-106480101D01*
X100463231Y-106463231D01*
X100480101Y-106451959D01*
X100512312Y-106445552D01*
X101487688Y-106445552D01*
X101519899Y-106451959D01*
X101536769Y-106463231D01*
X101548041Y-106480101D01*
X101554448Y-106512312D01*
X101554448Y-107487688D01*
X101551999Y-107500000D01*
X101548041Y-107519899D01*
X101536769Y-107536769D01*
X101519899Y-107548041D01*
X101500000Y-107551999D01*
X101487688Y-107554448D01*
X100512312Y-107554448D01*
X100480101Y-107548041D01*
X100463231Y-107536769D01*
X100451959Y-107519899D01*
X100445552Y-107487688D01*
X100445552Y-107329059D01*
X100425709Y-107261479D01*
X100372479Y-107215356D01*
X100302764Y-107205332D01*
X100238696Y-107234591D01*
X100215689Y-107263058D01*
X100204512Y-107280669D01*
X100180748Y-107323897D01*
X100168908Y-107336772D01*
X100154808Y-107358991D01*
X100118006Y-107392128D01*
X100090478Y-107422064D01*
X100068657Y-107436562D01*
X100042620Y-107460006D01*
X100006045Y-107478162D01*
X99979394Y-107495869D01*
X99946565Y-107507688D01*
X99907399Y-107527130D01*
X99875839Y-107533150D01*
X99853916Y-107541043D01*
X99810593Y-107545597D01*
X99759108Y-107555418D01*
X99735787Y-107553460D01*
X99721284Y-107554984D01*
X99669548Y-107547897D01*
X99608673Y-107542785D01*
X99594937Y-107537677D01*
X99589150Y-107536884D01*
X99532595Y-107514492D01*
X99467177Y-107490163D01*
X99408252Y-107447352D01*
X99356441Y-107410532D01*
X99354537Y-107408326D01*
X99345044Y-107401429D01*
X99305302Y-107351287D01*
X99269300Y-107309579D01*
X99264001Y-107299179D01*
X99251272Y-107283119D01*
X99229840Y-107232135D01*
X99206252Y-107185840D01*
X99157891Y-107134634D01*
X99089524Y-107117704D01*
X99022856Y-107140423D01*
X98984701Y-107195101D01*
X98982284Y-107193772D01*
X98970780Y-107214697D01*
X98965699Y-107231527D01*
X98934510Y-107280673D01*
X98910747Y-107323898D01*
X98898908Y-107336772D01*
X98884808Y-107358991D01*
X98848006Y-107392128D01*
X98820478Y-107422064D01*
X98798657Y-107436562D01*
X98772620Y-107460006D01*
X98736045Y-107478162D01*
X98709394Y-107495869D01*
X98676565Y-107507688D01*
X98637399Y-107527130D01*
X98605839Y-107533150D01*
X98583916Y-107541043D01*
X98540593Y-107545597D01*
X98489108Y-107555418D01*
X98465787Y-107553460D01*
X98451284Y-107554984D01*
X98399548Y-107547897D01*
X98338673Y-107542785D01*
X98324937Y-107537677D01*
X98319150Y-107536884D01*
X98262595Y-107514492D01*
X98197177Y-107490163D01*
X98138252Y-107447352D01*
X98086441Y-107410532D01*
X98084537Y-107408326D01*
X98075044Y-107401429D01*
X98035302Y-107351287D01*
X97999300Y-107309579D01*
X97994001Y-107299179D01*
X97981272Y-107283119D01*
X97959840Y-107232135D01*
X97936252Y-107185840D01*
X97887891Y-107134634D01*
X97819524Y-107117704D01*
X97752856Y-107140423D01*
X97714701Y-107195101D01*
X97712284Y-107193772D01*
X97700780Y-107214697D01*
X97695699Y-107231527D01*
X97664510Y-107280673D01*
X97640747Y-107323898D01*
X97628908Y-107336772D01*
X97614808Y-107358991D01*
X97578006Y-107392128D01*
X97550478Y-107422064D01*
X97528657Y-107436562D01*
X97502620Y-107460006D01*
X97466045Y-107478162D01*
X97439394Y-107495869D01*
X97406565Y-107507688D01*
X97367399Y-107527130D01*
X97335839Y-107533150D01*
X97313916Y-107541043D01*
X97270593Y-107545597D01*
X97219108Y-107555418D01*
X97195787Y-107553460D01*
X97181284Y-107554984D01*
X97129548Y-107547897D01*
X97068673Y-107542785D01*
X97054937Y-107537677D01*
X97049150Y-107536884D01*
X96992595Y-107514492D01*
X96927177Y-107490163D01*
X96868252Y-107447352D01*
X96816441Y-107410532D01*
X96814537Y-107408326D01*
X96805044Y-107401429D01*
X96765302Y-107351287D01*
X96729300Y-107309579D01*
X96724001Y-107299179D01*
X96711272Y-107283119D01*
X96689840Y-107232135D01*
X96666252Y-107185840D01*
X96617891Y-107134634D01*
X96549524Y-107117704D01*
X96482856Y-107140423D01*
X96444701Y-107195101D01*
X96442284Y-107193772D01*
X96430780Y-107214697D01*
X96425699Y-107231527D01*
X96394510Y-107280673D01*
X96370747Y-107323898D01*
X96358908Y-107336772D01*
X96344808Y-107358991D01*
X96308006Y-107392128D01*
X96280478Y-107422064D01*
X96258657Y-107436562D01*
X96232620Y-107460006D01*
X96196045Y-107478162D01*
X96169394Y-107495869D01*
X96136565Y-107507688D01*
X96097399Y-107527130D01*
X96065839Y-107533150D01*
X96043916Y-107541043D01*
X96000593Y-107545597D01*
X95949108Y-107555418D01*
X95925787Y-107553460D01*
X95911284Y-107554984D01*
X95859548Y-107547897D01*
X95798673Y-107542785D01*
X95784937Y-107537677D01*
X95779150Y-107536884D01*
X95722595Y-107514492D01*
X95657177Y-107490163D01*
X95598252Y-107447352D01*
X95546441Y-107410532D01*
X95544537Y-107408326D01*
X95535044Y-107401429D01*
X95495302Y-107351287D01*
X95459300Y-107309579D01*
X95454001Y-107299179D01*
X95441272Y-107283119D01*
X95419840Y-107232135D01*
X95396252Y-107185840D01*
X95347891Y-107134634D01*
X95279524Y-107117704D01*
X95212856Y-107140423D01*
X95174701Y-107195101D01*
X95172284Y-107193772D01*
X95160780Y-107214697D01*
X95155699Y-107231527D01*
X95124510Y-107280673D01*
X95100747Y-107323898D01*
X95088908Y-107336772D01*
X95074808Y-107358991D01*
X95038006Y-107392128D01*
X95010478Y-107422064D01*
X94988657Y-107436562D01*
X94962620Y-107460006D01*
X94926045Y-107478162D01*
X94899394Y-107495869D01*
X94866565Y-107507688D01*
X94827399Y-107527130D01*
X94795839Y-107533150D01*
X94773916Y-107541043D01*
X94730593Y-107545597D01*
X94679108Y-107555418D01*
X94655787Y-107553460D01*
X94641284Y-107554984D01*
X94589548Y-107547897D01*
X94528673Y-107542785D01*
X94514937Y-107537677D01*
X94509150Y-107536884D01*
X94452595Y-107514492D01*
X94387177Y-107490163D01*
X94328252Y-107447352D01*
X94276441Y-107410532D01*
X94274537Y-107408326D01*
X94265044Y-107401429D01*
X94225302Y-107351287D01*
X94189300Y-107309579D01*
X94184001Y-107299179D01*
X94171272Y-107283119D01*
X94149840Y-107232135D01*
X94126252Y-107185840D01*
X94077891Y-107134634D01*
X94009524Y-107117704D01*
X93942856Y-107140423D01*
X93904701Y-107195101D01*
X93902284Y-107193772D01*
X93890780Y-107214697D01*
X93885699Y-107231527D01*
X93854510Y-107280673D01*
X93830747Y-107323898D01*
X93818908Y-107336772D01*
X93804808Y-107358991D01*
X93768006Y-107392128D01*
X93740478Y-107422064D01*
X93718657Y-107436562D01*
X93692620Y-107460006D01*
X93656045Y-107478162D01*
X93629394Y-107495869D01*
X93596565Y-107507688D01*
X93557399Y-107527130D01*
X93525839Y-107533150D01*
X93503916Y-107541043D01*
X93460593Y-107545597D01*
X93409108Y-107555418D01*
X93385787Y-107553460D01*
X93371284Y-107554984D01*
X93319548Y-107547897D01*
X93258673Y-107542785D01*
X93244937Y-107537677D01*
X93239150Y-107536884D01*
X93182595Y-107514492D01*
X93117177Y-107490163D01*
X93058252Y-107447352D01*
X93006441Y-107410532D01*
X93004537Y-107408326D01*
X92995044Y-107401429D01*
X92955302Y-107351287D01*
X92919300Y-107309579D01*
X92914001Y-107299179D01*
X92901272Y-107283119D01*
X92879840Y-107232135D01*
X92856252Y-107185840D01*
X92807891Y-107134634D01*
X92739524Y-107117704D01*
X92672856Y-107140423D01*
X92634701Y-107195101D01*
X92632284Y-107193772D01*
X92620780Y-107214697D01*
X92615699Y-107231527D01*
X92584510Y-107280673D01*
X92560747Y-107323898D01*
X92548908Y-107336772D01*
X92534808Y-107358991D01*
X92498006Y-107392128D01*
X92470478Y-107422064D01*
X92448657Y-107436562D01*
X92422620Y-107460006D01*
X92386045Y-107478162D01*
X92359394Y-107495869D01*
X92326565Y-107507688D01*
X92287399Y-107527130D01*
X92255839Y-107533150D01*
X92233916Y-107541043D01*
X92190593Y-107545597D01*
X92139108Y-107555418D01*
X92115787Y-107553460D01*
X92101284Y-107554984D01*
X92049548Y-107547897D01*
X91988673Y-107542785D01*
X91974937Y-107537677D01*
X91969150Y-107536884D01*
X91912595Y-107514492D01*
X91847177Y-107490163D01*
X91788252Y-107447352D01*
X91736441Y-107410532D01*
X91734537Y-107408326D01*
X91725044Y-107401429D01*
X91685302Y-107351287D01*
X91649300Y-107309579D01*
X91644001Y-107299179D01*
X91631272Y-107283119D01*
X91609840Y-107232135D01*
X91586252Y-107185840D01*
X91537891Y-107134634D01*
X91469524Y-107117704D01*
X91402856Y-107140423D01*
X91364701Y-107195101D01*
X91362284Y-107193772D01*
X91350780Y-107214697D01*
X91345699Y-107231527D01*
X91314510Y-107280673D01*
X91290747Y-107323898D01*
X91278908Y-107336772D01*
X91264808Y-107358991D01*
X91228006Y-107392128D01*
X91200478Y-107422064D01*
X91178657Y-107436562D01*
X91152620Y-107460006D01*
X91116045Y-107478162D01*
X91089394Y-107495869D01*
X91056565Y-107507688D01*
X91017399Y-107527130D01*
X90985839Y-107533150D01*
X90963916Y-107541043D01*
X90920593Y-107545597D01*
X90869108Y-107555418D01*
X90845787Y-107553460D01*
X90831284Y-107554984D01*
X90779548Y-107547897D01*
X90718673Y-107542785D01*
X90704937Y-107537677D01*
X90699150Y-107536884D01*
X90642595Y-107514492D01*
X90577177Y-107490163D01*
X90518252Y-107447352D01*
X90466441Y-107410532D01*
X90464537Y-107408326D01*
X90455044Y-107401429D01*
X90415302Y-107351287D01*
X90379300Y-107309579D01*
X90374001Y-107299179D01*
X90361272Y-107283119D01*
X90339840Y-107232135D01*
X90316252Y-107185840D01*
X90267891Y-107134634D01*
X90199524Y-107117704D01*
X90132856Y-107140423D01*
X90094701Y-107195101D01*
X90092284Y-107193772D01*
X90080780Y-107214697D01*
X90075699Y-107231527D01*
X90044510Y-107280673D01*
X90020747Y-107323898D01*
X90008908Y-107336772D01*
X89994808Y-107358991D01*
X89958006Y-107392128D01*
X89930478Y-107422064D01*
X89908657Y-107436562D01*
X89882620Y-107460006D01*
X89846045Y-107478162D01*
X89819394Y-107495869D01*
X89786565Y-107507688D01*
X89747399Y-107527130D01*
X89715839Y-107533150D01*
X89693916Y-107541043D01*
X89650593Y-107545597D01*
X89599108Y-107555418D01*
X89575787Y-107553460D01*
X89561284Y-107554984D01*
X89509548Y-107547897D01*
X89448673Y-107542785D01*
X89434937Y-107537677D01*
X89429150Y-107536884D01*
X89372595Y-107514492D01*
X89307177Y-107490163D01*
X89248252Y-107447352D01*
X89196441Y-107410532D01*
X89194537Y-107408326D01*
X89185044Y-107401429D01*
X89145302Y-107351287D01*
X89109300Y-107309579D01*
X89104001Y-107299179D01*
X89091272Y-107283119D01*
X89069840Y-107232135D01*
X89046252Y-107185840D01*
X88997891Y-107134634D01*
X88929524Y-107117704D01*
X88862856Y-107140423D01*
X88824701Y-107195101D01*
X88822284Y-107193772D01*
X88810780Y-107214697D01*
X88805699Y-107231527D01*
X88774510Y-107280673D01*
X88750747Y-107323898D01*
X88738908Y-107336772D01*
X88724808Y-107358991D01*
X88688006Y-107392128D01*
X88660478Y-107422064D01*
X88638657Y-107436562D01*
X88612620Y-107460006D01*
X88576045Y-107478162D01*
X88549394Y-107495869D01*
X88516565Y-107507688D01*
X88477399Y-107527130D01*
X88445839Y-107533150D01*
X88423916Y-107541043D01*
X88380593Y-107545597D01*
X88329108Y-107555418D01*
X88305787Y-107553460D01*
X88291284Y-107554984D01*
X88239548Y-107547897D01*
X88178673Y-107542785D01*
X88164937Y-107537677D01*
X88159150Y-107536884D01*
X88102595Y-107514492D01*
X88037177Y-107490163D01*
X87978252Y-107447352D01*
X87926441Y-107410532D01*
X87924537Y-107408326D01*
X87915044Y-107401429D01*
X87875302Y-107351287D01*
X87839300Y-107309579D01*
X87834001Y-107299179D01*
X87821272Y-107283119D01*
X87799840Y-107232135D01*
X87776252Y-107185840D01*
X87727891Y-107134634D01*
X87659524Y-107117704D01*
X87592856Y-107140423D01*
X87554701Y-107195101D01*
X87552284Y-107193772D01*
X87540780Y-107214697D01*
X87535699Y-107231527D01*
X87504510Y-107280673D01*
X87480747Y-107323898D01*
X87468908Y-107336772D01*
X87454808Y-107358991D01*
X87418006Y-107392128D01*
X87390478Y-107422064D01*
X87368657Y-107436562D01*
X87342620Y-107460006D01*
X87306045Y-107478162D01*
X87279394Y-107495869D01*
X87246565Y-107507688D01*
X87207399Y-107527130D01*
X87175839Y-107533150D01*
X87153916Y-107541043D01*
X87110593Y-107545597D01*
X87059108Y-107555418D01*
X87035787Y-107553460D01*
X87021284Y-107554984D01*
X86969548Y-107547897D01*
X86908673Y-107542785D01*
X86894937Y-107537677D01*
X86889150Y-107536884D01*
X86832595Y-107514492D01*
X86767177Y-107490163D01*
X86708252Y-107447352D01*
X86656441Y-107410532D01*
X86654537Y-107408326D01*
X86645044Y-107401429D01*
X86605302Y-107351287D01*
X86569300Y-107309579D01*
X86564001Y-107299179D01*
X86551272Y-107283119D01*
X86529840Y-107232135D01*
X86506252Y-107185840D01*
X86457891Y-107134634D01*
X86389524Y-107117704D01*
X86322856Y-107140423D01*
X86284701Y-107195101D01*
X86282284Y-107193772D01*
X86270780Y-107214697D01*
X86265699Y-107231527D01*
X86234510Y-107280673D01*
X86210747Y-107323898D01*
X86198908Y-107336772D01*
X86184808Y-107358991D01*
X86148006Y-107392128D01*
X86120478Y-107422064D01*
X86098657Y-107436562D01*
X86072620Y-107460006D01*
X86036045Y-107478162D01*
X86009394Y-107495869D01*
X85976565Y-107507688D01*
X85937399Y-107527130D01*
X85905839Y-107533150D01*
X85883916Y-107541043D01*
X85840593Y-107545597D01*
X85789108Y-107555418D01*
X85765787Y-107553460D01*
X85751284Y-107554984D01*
X85699548Y-107547897D01*
X85638673Y-107542785D01*
X85624937Y-107537677D01*
X85619150Y-107536884D01*
X85562595Y-107514492D01*
X85497177Y-107490163D01*
X85438252Y-107447352D01*
X85386441Y-107410532D01*
X85384537Y-107408326D01*
X85375044Y-107401429D01*
X85335302Y-107351287D01*
X85299300Y-107309579D01*
X85294001Y-107299179D01*
X85281272Y-107283119D01*
X85259840Y-107232135D01*
X85236252Y-107185840D01*
X85187891Y-107134634D01*
X85119524Y-107117704D01*
X85052856Y-107140423D01*
X85014701Y-107195101D01*
X85012284Y-107193772D01*
X85000780Y-107214697D01*
X84995699Y-107231527D01*
X84964510Y-107280673D01*
X84940747Y-107323898D01*
X84928908Y-107336772D01*
X84914808Y-107358991D01*
X84878006Y-107392128D01*
X84850478Y-107422064D01*
X84828657Y-107436562D01*
X84802620Y-107460006D01*
X84766045Y-107478162D01*
X84739394Y-107495869D01*
X84706565Y-107507688D01*
X84667399Y-107527130D01*
X84635839Y-107533150D01*
X84613916Y-107541043D01*
X84570593Y-107545597D01*
X84519108Y-107555418D01*
X84495787Y-107553460D01*
X84481284Y-107554984D01*
X84429548Y-107547897D01*
X84368673Y-107542785D01*
X84354937Y-107537677D01*
X84349150Y-107536884D01*
X84292595Y-107514492D01*
X84227177Y-107490163D01*
X84168252Y-107447352D01*
X84116441Y-107410532D01*
X84114537Y-107408326D01*
X84105044Y-107401429D01*
X84065302Y-107351287D01*
X84029300Y-107309579D01*
X84024001Y-107299179D01*
X84011272Y-107283119D01*
X83989840Y-107232135D01*
X83966252Y-107185840D01*
X83917891Y-107134634D01*
X83849524Y-107117704D01*
X83782856Y-107140423D01*
X83744701Y-107195101D01*
X83742284Y-107193772D01*
X83730780Y-107214697D01*
X83725699Y-107231527D01*
X83694510Y-107280673D01*
X83670747Y-107323898D01*
X83658908Y-107336772D01*
X83644808Y-107358991D01*
X83608006Y-107392128D01*
X83580478Y-107422064D01*
X83558657Y-107436562D01*
X83532620Y-107460006D01*
X83496045Y-107478162D01*
X83469394Y-107495869D01*
X83436565Y-107507688D01*
X83397399Y-107527130D01*
X83365839Y-107533150D01*
X83343916Y-107541043D01*
X83300593Y-107545597D01*
X83249108Y-107555418D01*
X83225787Y-107553460D01*
X83211284Y-107554984D01*
X83159548Y-107547897D01*
X83098673Y-107542785D01*
X83084937Y-107537677D01*
X83079150Y-107536884D01*
X83022595Y-107514492D01*
X82957177Y-107490163D01*
X82898252Y-107447352D01*
X82846441Y-107410532D01*
X82844537Y-107408326D01*
X82835044Y-107401429D01*
X82795302Y-107351287D01*
X82759300Y-107309579D01*
X82754001Y-107299179D01*
X82741272Y-107283119D01*
X82719840Y-107232135D01*
X82696252Y-107185840D01*
X82647891Y-107134634D01*
X82579524Y-107117704D01*
X82512856Y-107140423D01*
X82474701Y-107195101D01*
X82472284Y-107193772D01*
X82460780Y-107214697D01*
X82455699Y-107231527D01*
X82424510Y-107280673D01*
X82400747Y-107323898D01*
X82388908Y-107336772D01*
X82374808Y-107358991D01*
X82338006Y-107392128D01*
X82310478Y-107422064D01*
X82288657Y-107436562D01*
X82262620Y-107460006D01*
X82226045Y-107478162D01*
X82199394Y-107495869D01*
X82166565Y-107507688D01*
X82127399Y-107527130D01*
X82095839Y-107533150D01*
X82073916Y-107541043D01*
X82030593Y-107545597D01*
X81979108Y-107555418D01*
X81955787Y-107553460D01*
X81941284Y-107554984D01*
X81889548Y-107547897D01*
X81828673Y-107542785D01*
X81814937Y-107537677D01*
X81809150Y-107536884D01*
X81752595Y-107514492D01*
X81687177Y-107490163D01*
X81628252Y-107447352D01*
X81576441Y-107410532D01*
X81574537Y-107408326D01*
X81565044Y-107401429D01*
X81525302Y-107351287D01*
X81489300Y-107309579D01*
X81484001Y-107299179D01*
X81471272Y-107283119D01*
X81449840Y-107232135D01*
X81426252Y-107185840D01*
X81377891Y-107134634D01*
X81309524Y-107117704D01*
X81242856Y-107140423D01*
X81204701Y-107195101D01*
X81202284Y-107193772D01*
X81190780Y-107214697D01*
X81185699Y-107231527D01*
X81154510Y-107280673D01*
X81130747Y-107323898D01*
X81118908Y-107336772D01*
X81104808Y-107358991D01*
X81068006Y-107392128D01*
X81040478Y-107422064D01*
X81018657Y-107436562D01*
X80992620Y-107460006D01*
X80956045Y-107478162D01*
X80929394Y-107495869D01*
X80896565Y-107507688D01*
X80857399Y-107527130D01*
X80825839Y-107533150D01*
X80803916Y-107541043D01*
X80760593Y-107545597D01*
X80709108Y-107555418D01*
X80685787Y-107553460D01*
X80671284Y-107554984D01*
X80619548Y-107547897D01*
X80558673Y-107542785D01*
X80544937Y-107537677D01*
X80539150Y-107536884D01*
X80482595Y-107514492D01*
X80417177Y-107490163D01*
X80358252Y-107447352D01*
X80306441Y-107410532D01*
X80304537Y-107408326D01*
X80295044Y-107401429D01*
X80255302Y-107351287D01*
X80219300Y-107309579D01*
X80214001Y-107299179D01*
X80201272Y-107283119D01*
X80179840Y-107232135D01*
X80156252Y-107185840D01*
X80107891Y-107134634D01*
X80039524Y-107117704D01*
X79972856Y-107140423D01*
X79934701Y-107195101D01*
X79932284Y-107193772D01*
X79920780Y-107214697D01*
X79915699Y-107231527D01*
X79884510Y-107280673D01*
X79860747Y-107323898D01*
X79848908Y-107336772D01*
X79834808Y-107358991D01*
X79798006Y-107392128D01*
X79770478Y-107422064D01*
X79748657Y-107436562D01*
X79722620Y-107460006D01*
X79686045Y-107478162D01*
X79659394Y-107495869D01*
X79626565Y-107507688D01*
X79587399Y-107527130D01*
X79555839Y-107533150D01*
X79533916Y-107541043D01*
X79490593Y-107545597D01*
X79439108Y-107555418D01*
X79415787Y-107553460D01*
X79401284Y-107554984D01*
X79349548Y-107547897D01*
X79288673Y-107542785D01*
X79274937Y-107537677D01*
X79269150Y-107536884D01*
X79212595Y-107514492D01*
X79147177Y-107490163D01*
X79088252Y-107447352D01*
X79036441Y-107410532D01*
X79034537Y-107408326D01*
X79025044Y-107401429D01*
X78985302Y-107351287D01*
X78949300Y-107309579D01*
X78944001Y-107299179D01*
X78931272Y-107283119D01*
X78909840Y-107232135D01*
X78886252Y-107185840D01*
X78837891Y-107134634D01*
X78769524Y-107117704D01*
X78702856Y-107140423D01*
X78664701Y-107195101D01*
X78662284Y-107193772D01*
X78650780Y-107214697D01*
X78645699Y-107231527D01*
X78614510Y-107280673D01*
X78590747Y-107323898D01*
X78578908Y-107336772D01*
X78564808Y-107358991D01*
X78528006Y-107392128D01*
X78500478Y-107422064D01*
X78478657Y-107436562D01*
X78452620Y-107460006D01*
X78416045Y-107478162D01*
X78389394Y-107495869D01*
X78356565Y-107507688D01*
X78317399Y-107527130D01*
X78285839Y-107533150D01*
X78263916Y-107541043D01*
X78220593Y-107545597D01*
X78169108Y-107555418D01*
X78145787Y-107553460D01*
X78131284Y-107554984D01*
X78079548Y-107547897D01*
X78018673Y-107542785D01*
X78004937Y-107537677D01*
X77999150Y-107536884D01*
X77942595Y-107514492D01*
X77877177Y-107490163D01*
X77818252Y-107447352D01*
X77766441Y-107410532D01*
X77764537Y-107408326D01*
X77755044Y-107401429D01*
X77715302Y-107351287D01*
X77679300Y-107309579D01*
X77674001Y-107299179D01*
X77661272Y-107283119D01*
X77639840Y-107232135D01*
X77616252Y-107185840D01*
X77567891Y-107134634D01*
X77499524Y-107117704D01*
X77432856Y-107140423D01*
X77394701Y-107195101D01*
X77392284Y-107193772D01*
X77380780Y-107214697D01*
X77375699Y-107231527D01*
X77344510Y-107280673D01*
X77320747Y-107323898D01*
X77308908Y-107336772D01*
X77294808Y-107358991D01*
X77258006Y-107392128D01*
X77230478Y-107422064D01*
X77208657Y-107436562D01*
X77182620Y-107460006D01*
X77146045Y-107478162D01*
X77119394Y-107495869D01*
X77086565Y-107507688D01*
X77047399Y-107527130D01*
X77015839Y-107533150D01*
X76993916Y-107541043D01*
X76950593Y-107545597D01*
X76899108Y-107555418D01*
X76875787Y-107553460D01*
X76861284Y-107554984D01*
X76809548Y-107547897D01*
X76748673Y-107542785D01*
X76734937Y-107537677D01*
X76729150Y-107536884D01*
X76672595Y-107514492D01*
X76607177Y-107490163D01*
X76548252Y-107447352D01*
X76496441Y-107410532D01*
X76494537Y-107408326D01*
X76485044Y-107401429D01*
X76445302Y-107351287D01*
X76409300Y-107309579D01*
X76404001Y-107299179D01*
X76391272Y-107283119D01*
X76369840Y-107232135D01*
X76346252Y-107185840D01*
X76297891Y-107134634D01*
X76229524Y-107117704D01*
X76162856Y-107140423D01*
X76124701Y-107195101D01*
X76122284Y-107193772D01*
X76110780Y-107214697D01*
X76105699Y-107231527D01*
X76074510Y-107280673D01*
X76050747Y-107323898D01*
X76038908Y-107336772D01*
X76024808Y-107358991D01*
X75988006Y-107392128D01*
X75960478Y-107422064D01*
X75938657Y-107436562D01*
X75912620Y-107460006D01*
X75876045Y-107478162D01*
X75849394Y-107495869D01*
X75816565Y-107507688D01*
X75777399Y-107527130D01*
X75745839Y-107533150D01*
X75723916Y-107541043D01*
X75680593Y-107545597D01*
X75629108Y-107555418D01*
X75605787Y-107553460D01*
X75591284Y-107554984D01*
X75539548Y-107547897D01*
X75478673Y-107542785D01*
X75464937Y-107537677D01*
X75459150Y-107536884D01*
X75402595Y-107514492D01*
X75337177Y-107490163D01*
X75278252Y-107447352D01*
X75226441Y-107410532D01*
X75224537Y-107408326D01*
X75215044Y-107401429D01*
X75175302Y-107351287D01*
X75139300Y-107309579D01*
X75134001Y-107299179D01*
X75121272Y-107283119D01*
X75099840Y-107232135D01*
X75076252Y-107185840D01*
X75027891Y-107134634D01*
X74959524Y-107117704D01*
X74892856Y-107140423D01*
X74854701Y-107195101D01*
X74852284Y-107193772D01*
X74840780Y-107214697D01*
X74835699Y-107231527D01*
X74804510Y-107280673D01*
X74780747Y-107323898D01*
X74768908Y-107336772D01*
X74754808Y-107358991D01*
X74718006Y-107392128D01*
X74690478Y-107422064D01*
X74668657Y-107436562D01*
X74642620Y-107460006D01*
X74606045Y-107478162D01*
X74579394Y-107495869D01*
X74546565Y-107507688D01*
X74507399Y-107527130D01*
X74475839Y-107533150D01*
X74453916Y-107541043D01*
X74410593Y-107545597D01*
X74359108Y-107555418D01*
X74335787Y-107553460D01*
X74321284Y-107554984D01*
X74269548Y-107547897D01*
X74208673Y-107542785D01*
X74194937Y-107537677D01*
X74189150Y-107536884D01*
X74132595Y-107514492D01*
X74067177Y-107490163D01*
X74008252Y-107447352D01*
X73956441Y-107410532D01*
X73954537Y-107408326D01*
X73945044Y-107401429D01*
X73905302Y-107351287D01*
X73869300Y-107309579D01*
X73864001Y-107299179D01*
X73851272Y-107283119D01*
X73829838Y-107232129D01*
X73808754Y-107190749D01*
X73804096Y-107170892D01*
X73792771Y-107143950D01*
X73786928Y-107097696D01*
X73778299Y-107060909D01*
X73778604Y-107031808D01*
X73773850Y-106994176D01*
X73779392Y-106956647D01*
X73779697Y-106927552D01*
X73789092Y-106890961D01*
X73795904Y-106844831D01*
X73807791Y-106818132D01*
X73812864Y-106798375D01*
X73834815Y-106757436D01*
X73857307Y-106706918D01*
X73870366Y-106691132D01*
X73875883Y-106680843D01*
X73912753Y-106639895D01*
X73953535Y-106590598D01*
X73963171Y-106583901D01*
X73965122Y-106581734D01*
X74017700Y-106546002D01*
X74077500Y-106504440D01*
X74143435Y-106481479D01*
X74200424Y-106460285D01*
X74206223Y-106459614D01*
X74220067Y-106454793D01*
X74281037Y-106450957D01*
X74332909Y-106444955D01*
X74347381Y-106446783D01*
X74370734Y-106445314D01*
X74421992Y-106456209D01*
X74465218Y-106461670D01*
X74486974Y-106470021D01*
X74518399Y-106476701D01*
X74557154Y-106496961D01*
X74589724Y-106509464D01*
X74615993Y-106527721D01*
X74652185Y-106546642D01*
X74677727Y-106570628D01*
X74699239Y-106585579D01*
X74726135Y-106616086D01*
X74762233Y-106649985D01*
X74775865Y-106672493D01*
X74787433Y-106685615D01*
X74810288Y-106729333D01*
X74840437Y-106779114D01*
X74845164Y-106796043D01*
X74854110Y-106813156D01*
X74903004Y-106863852D01*
X74971545Y-106880065D01*
X75037971Y-106856649D01*
X75070536Y-106808930D01*
X75075715Y-106811707D01*
X75104816Y-106757433D01*
X75127307Y-106706918D01*
X75140366Y-106691132D01*
X75145883Y-106680843D01*
X75182753Y-106639895D01*
X75223535Y-106590598D01*
X75233171Y-106583901D01*
X75235122Y-106581734D01*
X75287700Y-106546002D01*
X75347500Y-106504440D01*
X75413435Y-106481479D01*
X75470424Y-106460285D01*
X75476223Y-106459614D01*
X75490067Y-106454793D01*
X75551037Y-106450957D01*
X75602909Y-106444955D01*
X75617381Y-106446783D01*
X75640734Y-106445314D01*
X75691992Y-106456209D01*
X75735218Y-106461670D01*
X75756974Y-106470021D01*
X75788399Y-106476701D01*
X75827154Y-106496961D01*
X75859724Y-106509464D01*
X75885993Y-106527721D01*
X75922185Y-106546642D01*
X75947727Y-106570628D01*
X75969239Y-106585579D01*
X75996135Y-106616086D01*
X76032233Y-106649985D01*
X76045865Y-106672493D01*
X76057433Y-106685615D01*
X76080288Y-106729333D01*
X76110437Y-106779114D01*
X76115164Y-106796043D01*
X76124110Y-106813156D01*
X76173004Y-106863852D01*
X76241545Y-106880065D01*
X76307971Y-106856649D01*
X76340536Y-106808930D01*
X76345715Y-106811707D01*
X76374816Y-106757433D01*
X76397307Y-106706918D01*
X76410366Y-106691132D01*
X76415883Y-106680843D01*
X76452753Y-106639895D01*
X76493535Y-106590598D01*
X76503171Y-106583901D01*
X76505122Y-106581734D01*
X76557700Y-106546002D01*
X76617500Y-106504440D01*
X76683435Y-106481479D01*
X76740424Y-106460285D01*
X76746223Y-106459614D01*
X76760067Y-106454793D01*
X76821037Y-106450957D01*
X76872909Y-106444955D01*
X76887381Y-106446783D01*
X76910734Y-106445314D01*
X76961992Y-106456209D01*
X77005218Y-106461670D01*
X77026974Y-106470021D01*
X77058399Y-106476701D01*
X77097154Y-106496961D01*
X77129724Y-106509464D01*
X77155993Y-106527721D01*
X77192185Y-106546642D01*
X77217727Y-106570628D01*
X77239239Y-106585579D01*
X77266135Y-106616086D01*
X77302233Y-106649985D01*
X77315865Y-106672493D01*
X77327433Y-106685615D01*
X77350288Y-106729333D01*
X77380437Y-106779114D01*
X77385164Y-106796043D01*
X77394110Y-106813156D01*
X77443004Y-106863852D01*
X77511545Y-106880065D01*
X77577971Y-106856649D01*
X77610536Y-106808930D01*
X77615715Y-106811707D01*
X77644816Y-106757433D01*
X77667307Y-106706918D01*
X77680366Y-106691132D01*
X77685883Y-106680843D01*
X77722753Y-106639895D01*
X77763535Y-106590598D01*
X77773171Y-106583901D01*
X77775122Y-106581734D01*
X77827700Y-106546002D01*
X77887500Y-106504440D01*
X77953435Y-106481479D01*
X78010424Y-106460285D01*
X78016223Y-106459614D01*
X78030067Y-106454793D01*
X78091037Y-106450957D01*
X78142909Y-106444955D01*
X78157381Y-106446783D01*
X78180734Y-106445314D01*
X78231992Y-106456209D01*
X78275218Y-106461670D01*
X78296974Y-106470021D01*
X78328399Y-106476701D01*
X78367154Y-106496961D01*
X78399724Y-106509464D01*
X78425993Y-106527721D01*
X78462185Y-106546642D01*
X78487727Y-106570628D01*
X78509239Y-106585579D01*
X78536135Y-106616086D01*
X78572233Y-106649985D01*
X78585865Y-106672493D01*
X78597433Y-106685615D01*
X78620288Y-106729333D01*
X78650437Y-106779114D01*
X78655164Y-106796043D01*
X78664110Y-106813156D01*
X78713004Y-106863852D01*
X78781545Y-106880065D01*
X78847971Y-106856649D01*
X78880536Y-106808930D01*
X78885715Y-106811707D01*
X78914816Y-106757433D01*
X78937307Y-106706918D01*
X78950366Y-106691132D01*
X78955883Y-106680843D01*
X78992753Y-106639895D01*
X79033535Y-106590598D01*
X79043171Y-106583901D01*
X79045122Y-106581734D01*
X79097700Y-106546002D01*
X79157500Y-106504440D01*
X79223435Y-106481479D01*
X79280424Y-106460285D01*
X79286223Y-106459614D01*
X79300067Y-106454793D01*
X79361037Y-106450957D01*
X79412909Y-106444955D01*
X79427381Y-106446783D01*
X79450734Y-106445314D01*
X79501992Y-106456209D01*
X79545218Y-106461670D01*
X79566974Y-106470021D01*
X79598399Y-106476701D01*
X79637154Y-106496961D01*
X79669724Y-106509464D01*
X79695993Y-106527721D01*
X79732185Y-106546642D01*
X79757727Y-106570628D01*
X79779239Y-106585579D01*
X79806135Y-106616086D01*
X79842233Y-106649985D01*
X79855865Y-106672493D01*
X79867433Y-106685615D01*
X79890288Y-106729333D01*
X79920437Y-106779114D01*
X79925164Y-106796043D01*
X79934110Y-106813156D01*
X79983004Y-106863852D01*
X80051545Y-106880065D01*
X80117971Y-106856649D01*
X80150536Y-106808930D01*
X80155715Y-106811707D01*
X80184816Y-106757433D01*
X80207307Y-106706918D01*
X80220366Y-106691132D01*
X80225883Y-106680843D01*
X80262753Y-106639895D01*
X80303535Y-106590598D01*
X80313171Y-106583901D01*
X80315122Y-106581734D01*
X80367700Y-106546002D01*
X80427500Y-106504440D01*
X80493435Y-106481479D01*
X80550424Y-106460285D01*
X80556223Y-106459614D01*
X80570067Y-106454793D01*
X80631037Y-106450957D01*
X80682909Y-106444955D01*
X80697381Y-106446783D01*
X80720734Y-106445314D01*
X80771992Y-106456209D01*
X80815218Y-106461670D01*
X80836974Y-106470021D01*
X80868399Y-106476701D01*
X80907154Y-106496961D01*
X80939724Y-106509464D01*
X80965993Y-106527721D01*
X81002185Y-106546642D01*
X81027727Y-106570628D01*
X81049239Y-106585579D01*
X81076135Y-106616086D01*
X81112233Y-106649985D01*
X81125865Y-106672493D01*
X81137433Y-106685615D01*
X81160288Y-106729333D01*
X81190437Y-106779114D01*
X81195164Y-106796043D01*
X81204110Y-106813156D01*
X81253004Y-106863852D01*
X81321545Y-106880065D01*
X81387971Y-106856649D01*
X81420536Y-106808930D01*
X81425715Y-106811707D01*
X81454816Y-106757433D01*
X81477307Y-106706918D01*
X81490366Y-106691132D01*
X81495883Y-106680843D01*
X81532753Y-106639895D01*
X81573535Y-106590598D01*
X81583171Y-106583901D01*
X81585122Y-106581734D01*
X81637700Y-106546002D01*
X81697500Y-106504440D01*
X81763435Y-106481479D01*
X81820424Y-106460285D01*
X81826223Y-106459614D01*
X81840067Y-106454793D01*
X81901037Y-106450957D01*
X81952909Y-106444955D01*
X81967381Y-106446783D01*
X81990734Y-106445314D01*
X82041992Y-106456209D01*
X82085218Y-106461670D01*
X82106974Y-106470021D01*
X82138399Y-106476701D01*
X82177154Y-106496961D01*
X82209724Y-106509464D01*
X82235993Y-106527721D01*
X82272185Y-106546642D01*
X82297727Y-106570628D01*
X82319239Y-106585579D01*
X82346135Y-106616086D01*
X82382233Y-106649985D01*
X82395865Y-106672493D01*
X82407433Y-106685615D01*
X82430288Y-106729333D01*
X82460437Y-106779114D01*
X82465164Y-106796043D01*
X82474110Y-106813156D01*
X82523004Y-106863852D01*
X82591545Y-106880065D01*
X82657971Y-106856649D01*
X82690536Y-106808930D01*
X82695715Y-106811707D01*
X82724816Y-106757433D01*
X82747307Y-106706918D01*
X82760366Y-106691132D01*
X82765883Y-106680843D01*
X82802753Y-106639895D01*
X82843535Y-106590598D01*
X82853171Y-106583901D01*
X82855122Y-106581734D01*
X82907700Y-106546002D01*
X82967500Y-106504440D01*
X83033435Y-106481479D01*
X83090424Y-106460285D01*
X83096223Y-106459614D01*
X83110067Y-106454793D01*
X83171037Y-106450957D01*
X83222909Y-106444955D01*
X83237381Y-106446783D01*
X83260734Y-106445314D01*
X83311992Y-106456209D01*
X83355218Y-106461670D01*
X83376974Y-106470021D01*
X83408399Y-106476701D01*
X83447154Y-106496961D01*
X83479724Y-106509464D01*
X83505993Y-106527721D01*
X83542185Y-106546642D01*
X83567727Y-106570628D01*
X83589239Y-106585579D01*
X83616135Y-106616086D01*
X83652233Y-106649985D01*
X83665865Y-106672493D01*
X83677433Y-106685615D01*
X83700288Y-106729333D01*
X83730437Y-106779114D01*
X83735164Y-106796043D01*
X83744110Y-106813156D01*
X83793004Y-106863852D01*
X83861545Y-106880065D01*
X83927971Y-106856649D01*
X83960536Y-106808930D01*
X83965715Y-106811707D01*
X83994816Y-106757433D01*
X84017307Y-106706918D01*
X84030366Y-106691132D01*
X84035883Y-106680843D01*
X84072753Y-106639895D01*
X84113535Y-106590598D01*
X84123171Y-106583901D01*
X84125122Y-106581734D01*
X84177700Y-106546002D01*
X84237500Y-106504440D01*
X84303435Y-106481479D01*
X84360424Y-106460285D01*
X84366223Y-106459614D01*
X84380067Y-106454793D01*
X84441037Y-106450957D01*
X84492909Y-106444955D01*
X84507381Y-106446783D01*
X84530734Y-106445314D01*
X84581992Y-106456209D01*
X84625218Y-106461670D01*
X84646974Y-106470021D01*
X84678399Y-106476701D01*
X84717154Y-106496961D01*
X84749724Y-106509464D01*
X84775993Y-106527721D01*
X84812185Y-106546642D01*
X84837727Y-106570628D01*
X84859239Y-106585579D01*
X84886135Y-106616086D01*
X84922233Y-106649985D01*
X84935865Y-106672493D01*
X84947433Y-106685615D01*
X84970288Y-106729333D01*
X85000437Y-106779114D01*
X85005164Y-106796043D01*
X85014110Y-106813156D01*
X85063004Y-106863852D01*
X85131545Y-106880065D01*
X85197971Y-106856649D01*
X85230536Y-106808930D01*
X85235715Y-106811707D01*
X85264816Y-106757433D01*
X85287307Y-106706918D01*
X85300366Y-106691132D01*
X85305883Y-106680843D01*
X85342753Y-106639895D01*
X85383535Y-106590598D01*
X85393171Y-106583901D01*
X85395122Y-106581734D01*
X85447700Y-106546002D01*
X85507500Y-106504440D01*
X85573435Y-106481479D01*
X85630424Y-106460285D01*
X85636223Y-106459614D01*
X85650067Y-106454793D01*
X85711037Y-106450957D01*
X85762909Y-106444955D01*
X85777381Y-106446783D01*
X85800734Y-106445314D01*
X85851992Y-106456209D01*
X85895218Y-106461670D01*
X85916974Y-106470021D01*
X85948399Y-106476701D01*
X85987154Y-106496961D01*
X86019724Y-106509464D01*
X86045993Y-106527721D01*
X86082185Y-106546642D01*
X86107727Y-106570628D01*
X86129239Y-106585579D01*
X86156135Y-106616086D01*
X86192233Y-106649985D01*
X86205865Y-106672493D01*
X86217433Y-106685615D01*
X86240288Y-106729333D01*
X86270437Y-106779114D01*
X86275164Y-106796043D01*
X86284110Y-106813156D01*
X86333004Y-106863852D01*
X86401545Y-106880065D01*
X86467971Y-106856649D01*
X86500536Y-106808930D01*
X86505715Y-106811707D01*
X86534816Y-106757433D01*
X86557307Y-106706918D01*
X86570366Y-106691132D01*
X86575883Y-106680843D01*
X86612753Y-106639895D01*
X86653535Y-106590598D01*
X86663171Y-106583901D01*
X86665122Y-106581734D01*
X86717700Y-106546002D01*
X86777500Y-106504440D01*
X86843435Y-106481479D01*
X86900424Y-106460285D01*
X86906223Y-106459614D01*
X86920067Y-106454793D01*
X86981037Y-106450957D01*
X87032909Y-106444955D01*
X87047381Y-106446783D01*
X87070734Y-106445314D01*
X87121992Y-106456209D01*
X87165218Y-106461670D01*
X87186974Y-106470021D01*
X87218399Y-106476701D01*
X87257154Y-106496961D01*
X87289724Y-106509464D01*
X87315993Y-106527721D01*
X87352185Y-106546642D01*
X87377727Y-106570628D01*
X87399239Y-106585579D01*
X87426135Y-106616086D01*
X87462233Y-106649985D01*
X87475865Y-106672493D01*
X87487433Y-106685615D01*
X87510288Y-106729333D01*
X87540437Y-106779114D01*
X87545164Y-106796043D01*
X87554110Y-106813156D01*
X87603004Y-106863852D01*
X87671545Y-106880065D01*
X87737971Y-106856649D01*
X87770536Y-106808930D01*
X87775715Y-106811707D01*
X87804816Y-106757433D01*
X87827307Y-106706918D01*
X87840366Y-106691132D01*
X87845883Y-106680843D01*
X87882753Y-106639895D01*
X87923535Y-106590598D01*
X87933171Y-106583901D01*
X87935122Y-106581734D01*
X87987700Y-106546002D01*
X88047500Y-106504440D01*
X88113435Y-106481479D01*
X88170424Y-106460285D01*
X88176223Y-106459614D01*
X88190067Y-106454793D01*
X88251037Y-106450957D01*
X88302909Y-106444955D01*
X88317381Y-106446783D01*
X88340734Y-106445314D01*
X88391992Y-106456209D01*
X88435218Y-106461670D01*
X88456974Y-106470021D01*
X88488399Y-106476701D01*
X88527154Y-106496961D01*
X88559724Y-106509464D01*
X88585993Y-106527721D01*
X88622185Y-106546642D01*
X88647727Y-106570628D01*
X88669239Y-106585579D01*
X88696135Y-106616086D01*
X88732233Y-106649985D01*
X88745865Y-106672493D01*
X88757433Y-106685615D01*
X88780288Y-106729333D01*
X88810437Y-106779114D01*
X88815164Y-106796043D01*
X88824110Y-106813156D01*
X88873004Y-106863852D01*
X88941545Y-106880065D01*
X89007971Y-106856649D01*
X89040536Y-106808930D01*
X89045715Y-106811707D01*
X89074816Y-106757433D01*
X89097307Y-106706918D01*
X89110366Y-106691132D01*
X89115883Y-106680843D01*
X89152753Y-106639895D01*
X89193535Y-106590598D01*
X89203171Y-106583901D01*
X89205122Y-106581734D01*
X89257700Y-106546002D01*
X89317500Y-106504440D01*
X89383435Y-106481479D01*
X89440424Y-106460285D01*
X89446223Y-106459614D01*
X89460067Y-106454793D01*
X89521037Y-106450957D01*
X89572909Y-106444955D01*
X89587381Y-106446783D01*
X89610734Y-106445314D01*
X89661992Y-106456209D01*
X89705218Y-106461670D01*
X89726974Y-106470021D01*
X89758399Y-106476701D01*
X89797154Y-106496961D01*
X89829724Y-106509464D01*
X89855993Y-106527721D01*
X89892185Y-106546642D01*
X89917727Y-106570628D01*
X89939239Y-106585579D01*
X89966135Y-106616086D01*
X90002233Y-106649985D01*
X90015865Y-106672493D01*
X90027433Y-106685615D01*
X90050288Y-106729333D01*
X90080437Y-106779114D01*
X90085164Y-106796043D01*
X90094110Y-106813156D01*
X90143004Y-106863852D01*
X90211545Y-106880065D01*
X90277971Y-106856649D01*
X90310536Y-106808930D01*
X90315715Y-106811707D01*
X90344816Y-106757433D01*
X90367307Y-106706918D01*
X90380366Y-106691132D01*
X90385883Y-106680843D01*
X90422753Y-106639895D01*
X90463535Y-106590598D01*
X90473171Y-106583901D01*
X90475122Y-106581734D01*
X90527700Y-106546002D01*
X90587500Y-106504440D01*
X90653435Y-106481479D01*
X90710424Y-106460285D01*
X90716223Y-106459614D01*
X90730067Y-106454793D01*
X90791037Y-106450957D01*
X90842909Y-106444955D01*
X90857381Y-106446783D01*
X90880734Y-106445314D01*
X90931992Y-106456209D01*
X90975218Y-106461670D01*
X90996974Y-106470021D01*
X91028399Y-106476701D01*
X91067154Y-106496961D01*
X91099724Y-106509464D01*
X91125993Y-106527721D01*
X91162185Y-106546642D01*
X91187727Y-106570628D01*
X91209239Y-106585579D01*
X91236135Y-106616086D01*
X91272233Y-106649985D01*
X91285865Y-106672493D01*
X91297433Y-106685615D01*
X91320288Y-106729333D01*
X91350437Y-106779114D01*
X91355164Y-106796043D01*
X91364110Y-106813156D01*
X91413004Y-106863852D01*
X91481545Y-106880065D01*
X91547971Y-106856649D01*
X91580536Y-106808930D01*
X91585715Y-106811707D01*
X91614816Y-106757433D01*
X91637307Y-106706918D01*
X91650366Y-106691132D01*
X91655883Y-106680843D01*
X91692753Y-106639895D01*
X91733535Y-106590598D01*
X91743171Y-106583901D01*
X91745122Y-106581734D01*
X91797700Y-106546002D01*
X91857500Y-106504440D01*
X91923435Y-106481479D01*
X91980424Y-106460285D01*
X91986223Y-106459614D01*
X92000067Y-106454793D01*
X92061037Y-106450957D01*
X92112909Y-106444955D01*
X92127381Y-106446783D01*
X92150734Y-106445314D01*
X92201992Y-106456209D01*
X92245218Y-106461670D01*
X92266974Y-106470021D01*
X92298399Y-106476701D01*
X92337154Y-106496961D01*
X92369724Y-106509464D01*
X92395993Y-106527721D01*
X92432185Y-106546642D01*
X92457727Y-106570628D01*
X92479239Y-106585579D01*
X92506135Y-106616086D01*
X92542233Y-106649985D01*
X92555865Y-106672493D01*
X92567433Y-106685615D01*
X92590288Y-106729333D01*
X92620437Y-106779114D01*
X92625164Y-106796043D01*
X92634110Y-106813156D01*
X92683004Y-106863852D01*
X92751545Y-106880065D01*
X92817971Y-106856649D01*
X92850536Y-106808930D01*
X92855715Y-106811707D01*
X92884816Y-106757433D01*
X92907307Y-106706918D01*
X92920366Y-106691132D01*
X92925883Y-106680843D01*
X92962753Y-106639895D01*
X93003535Y-106590598D01*
X93013171Y-106583901D01*
X93015122Y-106581734D01*
X93067700Y-106546002D01*
X93127500Y-106504440D01*
X93193435Y-106481479D01*
X93250424Y-106460285D01*
X93256223Y-106459614D01*
X93270067Y-106454793D01*
X93331037Y-106450957D01*
X93382909Y-106444955D01*
X93397381Y-106446783D01*
X93420734Y-106445314D01*
X93471992Y-106456209D01*
X93515218Y-106461670D01*
X93536974Y-106470021D01*
X93568399Y-106476701D01*
X93607154Y-106496961D01*
X93639724Y-106509464D01*
X93665993Y-106527721D01*
X93702185Y-106546642D01*
X93727727Y-106570628D01*
X93749239Y-106585579D01*
X93776135Y-106616086D01*
X93812233Y-106649985D01*
X93825865Y-106672493D01*
X93837433Y-106685615D01*
X93860288Y-106729333D01*
X93890437Y-106779114D01*
X93895164Y-106796043D01*
X93904110Y-106813156D01*
X93953004Y-106863852D01*
X94021545Y-106880065D01*
X94087971Y-106856649D01*
X94120536Y-106808930D01*
X94125715Y-106811707D01*
X94154816Y-106757433D01*
X94177307Y-106706918D01*
X94190366Y-106691132D01*
X94195883Y-106680843D01*
X94232753Y-106639895D01*
X94273535Y-106590598D01*
X94283171Y-106583901D01*
X94285122Y-106581734D01*
X94337700Y-106546002D01*
X94397500Y-106504440D01*
X94463435Y-106481479D01*
X94520424Y-106460285D01*
X94526223Y-106459614D01*
X94540067Y-106454793D01*
X94601037Y-106450957D01*
X94652909Y-106444955D01*
X94667381Y-106446783D01*
X94690734Y-106445314D01*
X94741992Y-106456209D01*
X94785218Y-106461670D01*
X94806974Y-106470021D01*
X94838399Y-106476701D01*
X94877154Y-106496961D01*
X94909724Y-106509464D01*
X94935993Y-106527721D01*
X94972185Y-106546642D01*
X94997727Y-106570628D01*
X95019239Y-106585579D01*
X95046135Y-106616086D01*
X95082233Y-106649985D01*
X95095865Y-106672493D01*
X95107433Y-106685615D01*
X95130288Y-106729333D01*
X95160437Y-106779114D01*
X95165164Y-106796043D01*
X95174110Y-106813156D01*
X95223004Y-106863852D01*
X95291545Y-106880065D01*
X95357971Y-106856649D01*
X95390536Y-106808930D01*
X95395715Y-106811707D01*
X95424816Y-106757433D01*
X95447307Y-106706918D01*
X95460366Y-106691132D01*
X95465883Y-106680843D01*
X95502753Y-106639895D01*
X95543535Y-106590598D01*
X95553171Y-106583901D01*
X95555122Y-106581734D01*
X95607700Y-106546002D01*
X95667500Y-106504440D01*
X95733435Y-106481479D01*
X95790424Y-106460285D01*
X95796223Y-106459614D01*
X95810067Y-106454793D01*
X95871037Y-106450957D01*
X95922909Y-106444955D01*
X95937381Y-106446783D01*
X95960734Y-106445314D01*
X96011992Y-106456209D01*
X96055218Y-106461670D01*
X96076974Y-106470021D01*
X96108399Y-106476701D01*
X96147154Y-106496961D01*
X96179724Y-106509464D01*
X96205993Y-106527721D01*
X96242185Y-106546642D01*
X96267727Y-106570628D01*
X96289239Y-106585579D01*
X96316135Y-106616086D01*
X96352233Y-106649985D01*
X96365865Y-106672493D01*
X96377433Y-106685615D01*
X96400288Y-106729333D01*
X96430437Y-106779114D01*
X96435164Y-106796043D01*
X96444110Y-106813156D01*
X96493004Y-106863852D01*
X96561545Y-106880065D01*
X96627971Y-106856649D01*
X96660536Y-106808930D01*
X96665715Y-106811707D01*
X96694816Y-106757433D01*
X96717307Y-106706918D01*
X96730366Y-106691132D01*
X96735883Y-106680843D01*
X96772753Y-106639895D01*
X96813535Y-106590598D01*
X96823171Y-106583901D01*
X96825122Y-106581734D01*
X96877700Y-106546002D01*
X96937500Y-106504440D01*
X97003435Y-106481479D01*
X97060424Y-106460285D01*
X97066223Y-106459614D01*
X97080067Y-106454793D01*
X97141037Y-106450957D01*
X97192909Y-106444955D01*
X97207381Y-106446783D01*
X97230734Y-106445314D01*
X97281992Y-106456209D01*
X97325218Y-106461670D01*
X97346974Y-106470021D01*
X97378399Y-106476701D01*
X97417154Y-106496961D01*
X97449724Y-106509464D01*
X97475993Y-106527721D01*
X97512185Y-106546642D01*
X97537727Y-106570628D01*
X97559239Y-106585579D01*
X97586135Y-106616086D01*
X97622233Y-106649985D01*
X97635865Y-106672493D01*
X97647433Y-106685615D01*
X97670288Y-106729333D01*
X97700437Y-106779114D01*
X97705164Y-106796043D01*
X97714110Y-106813156D01*
X97763004Y-106863852D01*
X97831545Y-106880065D01*
X97897971Y-106856649D01*
X97930536Y-106808930D01*
X97935715Y-106811707D01*
X97964816Y-106757433D01*
X97987307Y-106706918D01*
X98000366Y-106691132D01*
X98005883Y-106680843D01*
X98042753Y-106639895D01*
X98083535Y-106590598D01*
X98093171Y-106583901D01*
X98095122Y-106581734D01*
X98147700Y-106546002D01*
X98207500Y-106504440D01*
X98273435Y-106481479D01*
X98330424Y-106460285D01*
X98336223Y-106459614D01*
X98350067Y-106454793D01*
X98411037Y-106450957D01*
X98462909Y-106444955D01*
X98477381Y-106446783D01*
X98500734Y-106445314D01*
X98551992Y-106456209D01*
X98595218Y-106461670D01*
X98616974Y-106470021D01*
X98648399Y-106476701D01*
X98687154Y-106496961D01*
X98719724Y-106509464D01*
X98745993Y-106527721D01*
X98782185Y-106546642D01*
X98807727Y-106570628D01*
X98829239Y-106585579D01*
X98856135Y-106616086D01*
X98892233Y-106649985D01*
X98905865Y-106672493D01*
X98917433Y-106685615D01*
X98940288Y-106729333D01*
X98970437Y-106779114D01*
X98975164Y-106796043D01*
X98984110Y-106813156D01*
X99033004Y-106863852D01*
X99101545Y-106880065D01*
X99167971Y-106856649D01*
X99200536Y-106808930D01*
X99205715Y-106811707D01*
X99234816Y-106757433D01*
X99257307Y-106706918D01*
X99270366Y-106691132D01*
X99275883Y-106680843D01*
X99312753Y-106639895D01*
X99353535Y-106590598D01*
X99363171Y-106583901D01*
X99365122Y-106581734D01*
X99417700Y-106546002D01*
X99477500Y-106504440D01*
X99543435Y-106481479D01*
X99600424Y-106460285D01*
X99606223Y-106459614D01*
X99620067Y-106454793D01*
X99681037Y-106450957D01*
X99732909Y-106444955D01*
X99747381Y-106446783D01*
G37*
G36*
X109819899Y-101429959D02*
G01*
X109836769Y-101441231D01*
X109848041Y-101458101D01*
X109854448Y-101490312D01*
X109854448Y-102989688D01*
X109851999Y-103002000D01*
X109848041Y-103021899D01*
X109836769Y-103038769D01*
X109819899Y-103050041D01*
X109800000Y-103053999D01*
X109787688Y-103056448D01*
X105748312Y-103056448D01*
X105716101Y-103050041D01*
X105699231Y-103038769D01*
X105687959Y-103021899D01*
X105681552Y-102989688D01*
X105681552Y-101490312D01*
X105687959Y-101458101D01*
X105699231Y-101441231D01*
X105716101Y-101429959D01*
X105748312Y-101423552D01*
X109787688Y-101423552D01*
X109819899Y-101429959D01*
G37*
G36*
X109819899Y-96349959D02*
G01*
X109836769Y-96361231D01*
X109848041Y-96378101D01*
X109854448Y-96410312D01*
X109854448Y-97909688D01*
X109851999Y-97922000D01*
X109848041Y-97941899D01*
X109836769Y-97958769D01*
X109819899Y-97970041D01*
X109800000Y-97973999D01*
X109787688Y-97976448D01*
X105748312Y-97976448D01*
X105716101Y-97970041D01*
X105699231Y-97958769D01*
X105687959Y-97941899D01*
X105681552Y-97909688D01*
X105681552Y-96410312D01*
X105687959Y-96378101D01*
X105699231Y-96361231D01*
X105716101Y-96349959D01*
X105748312Y-96343552D01*
X109787688Y-96343552D01*
X109819899Y-96349959D01*
G37*
G36*
X99747381Y-72446783D02*
G01*
X99770734Y-72445314D01*
X99821992Y-72456209D01*
X99865218Y-72461670D01*
X99886974Y-72470021D01*
X99918399Y-72476701D01*
X99957154Y-72496961D01*
X99989724Y-72509464D01*
X100015993Y-72527721D01*
X100052185Y-72546642D01*
X100077727Y-72570628D01*
X100099239Y-72585579D01*
X100126134Y-72616086D01*
X100162233Y-72649985D01*
X100175865Y-72672494D01*
X100187430Y-72685612D01*
X100209778Y-72728359D01*
X100258673Y-72779055D01*
X100327214Y-72795268D01*
X100393640Y-72771852D01*
X100436862Y-72716241D01*
X100445552Y-72670447D01*
X100445552Y-72512312D01*
X100451959Y-72480101D01*
X100463231Y-72463231D01*
X100480101Y-72451959D01*
X100512312Y-72445552D01*
X101487688Y-72445552D01*
X101519899Y-72451959D01*
X101536769Y-72463231D01*
X101548041Y-72480101D01*
X101554448Y-72512312D01*
X101554448Y-73487688D01*
X101551999Y-73500000D01*
X101548041Y-73519899D01*
X101536769Y-73536769D01*
X101519899Y-73548041D01*
X101500000Y-73551999D01*
X101487688Y-73554448D01*
X100512312Y-73554448D01*
X100480101Y-73548041D01*
X100463231Y-73536769D01*
X100451959Y-73519899D01*
X100445552Y-73487688D01*
X100445552Y-73329059D01*
X100425709Y-73261479D01*
X100372479Y-73215356D01*
X100302764Y-73205332D01*
X100238696Y-73234591D01*
X100215689Y-73263058D01*
X100204512Y-73280669D01*
X100180748Y-73323897D01*
X100168908Y-73336772D01*
X100154808Y-73358991D01*
X100118006Y-73392128D01*
X100090478Y-73422064D01*
X100068657Y-73436562D01*
X100042620Y-73460006D01*
X100006045Y-73478162D01*
X99979394Y-73495869D01*
X99946565Y-73507688D01*
X99907399Y-73527130D01*
X99875839Y-73533150D01*
X99853916Y-73541043D01*
X99810593Y-73545597D01*
X99759108Y-73555418D01*
X99735787Y-73553460D01*
X99721284Y-73554984D01*
X99669548Y-73547897D01*
X99608673Y-73542785D01*
X99594937Y-73537677D01*
X99589150Y-73536884D01*
X99532595Y-73514492D01*
X99467177Y-73490163D01*
X99408252Y-73447352D01*
X99356441Y-73410532D01*
X99354537Y-73408326D01*
X99345044Y-73401429D01*
X99305302Y-73351287D01*
X99269300Y-73309579D01*
X99264001Y-73299179D01*
X99251272Y-73283119D01*
X99229840Y-73232135D01*
X99206252Y-73185840D01*
X99157891Y-73134634D01*
X99089524Y-73117704D01*
X99022856Y-73140423D01*
X98984701Y-73195101D01*
X98982284Y-73193772D01*
X98970780Y-73214697D01*
X98965699Y-73231527D01*
X98934510Y-73280673D01*
X98910747Y-73323898D01*
X98898908Y-73336772D01*
X98884808Y-73358991D01*
X98848006Y-73392128D01*
X98820478Y-73422064D01*
X98798657Y-73436562D01*
X98772620Y-73460006D01*
X98736045Y-73478162D01*
X98709394Y-73495869D01*
X98676565Y-73507688D01*
X98637399Y-73527130D01*
X98605839Y-73533150D01*
X98583916Y-73541043D01*
X98540593Y-73545597D01*
X98489108Y-73555418D01*
X98465787Y-73553460D01*
X98451284Y-73554984D01*
X98399548Y-73547897D01*
X98338673Y-73542785D01*
X98324937Y-73537677D01*
X98319150Y-73536884D01*
X98262595Y-73514492D01*
X98197177Y-73490163D01*
X98138252Y-73447352D01*
X98086441Y-73410532D01*
X98084537Y-73408326D01*
X98075044Y-73401429D01*
X98035302Y-73351287D01*
X97999300Y-73309579D01*
X97994001Y-73299179D01*
X97981272Y-73283119D01*
X97959840Y-73232135D01*
X97936252Y-73185840D01*
X97887891Y-73134634D01*
X97819524Y-73117704D01*
X97752856Y-73140423D01*
X97714701Y-73195101D01*
X97712284Y-73193772D01*
X97700780Y-73214697D01*
X97695699Y-73231527D01*
X97664510Y-73280673D01*
X97640747Y-73323898D01*
X97628908Y-73336772D01*
X97614808Y-73358991D01*
X97578006Y-73392128D01*
X97550478Y-73422064D01*
X97528657Y-73436562D01*
X97502620Y-73460006D01*
X97466045Y-73478162D01*
X97439394Y-73495869D01*
X97406565Y-73507688D01*
X97367399Y-73527130D01*
X97335839Y-73533150D01*
X97313916Y-73541043D01*
X97270593Y-73545597D01*
X97219108Y-73555418D01*
X97195787Y-73553460D01*
X97181284Y-73554984D01*
X97129548Y-73547897D01*
X97068673Y-73542785D01*
X97054937Y-73537677D01*
X97049150Y-73536884D01*
X96992595Y-73514492D01*
X96927177Y-73490163D01*
X96868252Y-73447352D01*
X96816441Y-73410532D01*
X96814537Y-73408326D01*
X96805044Y-73401429D01*
X96765302Y-73351287D01*
X96729300Y-73309579D01*
X96724001Y-73299179D01*
X96711272Y-73283119D01*
X96689840Y-73232135D01*
X96666252Y-73185840D01*
X96617891Y-73134634D01*
X96549524Y-73117704D01*
X96482856Y-73140423D01*
X96444701Y-73195101D01*
X96442284Y-73193772D01*
X96430780Y-73214697D01*
X96425699Y-73231527D01*
X96394510Y-73280673D01*
X96370747Y-73323898D01*
X96358908Y-73336772D01*
X96344808Y-73358991D01*
X96308006Y-73392128D01*
X96280478Y-73422064D01*
X96258657Y-73436562D01*
X96232620Y-73460006D01*
X96196045Y-73478162D01*
X96169394Y-73495869D01*
X96136565Y-73507688D01*
X96097399Y-73527130D01*
X96065839Y-73533150D01*
X96043916Y-73541043D01*
X96000593Y-73545597D01*
X95949108Y-73555418D01*
X95925787Y-73553460D01*
X95911284Y-73554984D01*
X95859548Y-73547897D01*
X95798673Y-73542785D01*
X95784937Y-73537677D01*
X95779150Y-73536884D01*
X95722595Y-73514492D01*
X95657177Y-73490163D01*
X95598252Y-73447352D01*
X95546441Y-73410532D01*
X95544537Y-73408326D01*
X95535044Y-73401429D01*
X95495302Y-73351287D01*
X95459300Y-73309579D01*
X95454001Y-73299179D01*
X95441272Y-73283119D01*
X95419840Y-73232135D01*
X95396252Y-73185840D01*
X95347891Y-73134634D01*
X95279524Y-73117704D01*
X95212856Y-73140423D01*
X95174701Y-73195101D01*
X95172284Y-73193772D01*
X95160780Y-73214697D01*
X95155699Y-73231527D01*
X95124510Y-73280673D01*
X95100747Y-73323898D01*
X95088908Y-73336772D01*
X95074808Y-73358991D01*
X95038006Y-73392128D01*
X95010478Y-73422064D01*
X94988657Y-73436562D01*
X94962620Y-73460006D01*
X94926045Y-73478162D01*
X94899394Y-73495869D01*
X94866565Y-73507688D01*
X94827399Y-73527130D01*
X94795839Y-73533150D01*
X94773916Y-73541043D01*
X94730593Y-73545597D01*
X94679108Y-73555418D01*
X94655787Y-73553460D01*
X94641284Y-73554984D01*
X94589548Y-73547897D01*
X94528673Y-73542785D01*
X94514937Y-73537677D01*
X94509150Y-73536884D01*
X94452595Y-73514492D01*
X94387177Y-73490163D01*
X94328252Y-73447352D01*
X94276441Y-73410532D01*
X94274537Y-73408326D01*
X94265044Y-73401429D01*
X94225302Y-73351287D01*
X94189300Y-73309579D01*
X94184001Y-73299179D01*
X94171272Y-73283119D01*
X94149840Y-73232135D01*
X94126252Y-73185840D01*
X94077891Y-73134634D01*
X94009524Y-73117704D01*
X93942856Y-73140423D01*
X93904701Y-73195101D01*
X93902284Y-73193772D01*
X93890780Y-73214697D01*
X93885699Y-73231527D01*
X93854510Y-73280673D01*
X93830747Y-73323898D01*
X93818908Y-73336772D01*
X93804808Y-73358991D01*
X93768006Y-73392128D01*
X93740478Y-73422064D01*
X93718657Y-73436562D01*
X93692620Y-73460006D01*
X93656045Y-73478162D01*
X93629394Y-73495869D01*
X93596565Y-73507688D01*
X93557399Y-73527130D01*
X93525839Y-73533150D01*
X93503916Y-73541043D01*
X93460593Y-73545597D01*
X93409108Y-73555418D01*
X93385787Y-73553460D01*
X93371284Y-73554984D01*
X93319548Y-73547897D01*
X93258673Y-73542785D01*
X93244937Y-73537677D01*
X93239150Y-73536884D01*
X93182595Y-73514492D01*
X93117177Y-73490163D01*
X93058252Y-73447352D01*
X93006441Y-73410532D01*
X93004537Y-73408326D01*
X92995044Y-73401429D01*
X92955302Y-73351287D01*
X92919300Y-73309579D01*
X92914001Y-73299179D01*
X92901272Y-73283119D01*
X92879840Y-73232135D01*
X92856252Y-73185840D01*
X92807891Y-73134634D01*
X92739524Y-73117704D01*
X92672856Y-73140423D01*
X92634701Y-73195101D01*
X92632284Y-73193772D01*
X92620780Y-73214697D01*
X92615699Y-73231527D01*
X92584510Y-73280673D01*
X92560747Y-73323898D01*
X92548908Y-73336772D01*
X92534808Y-73358991D01*
X92498006Y-73392128D01*
X92470478Y-73422064D01*
X92448657Y-73436562D01*
X92422620Y-73460006D01*
X92386045Y-73478162D01*
X92359394Y-73495869D01*
X92326565Y-73507688D01*
X92287399Y-73527130D01*
X92255839Y-73533150D01*
X92233916Y-73541043D01*
X92190593Y-73545597D01*
X92139108Y-73555418D01*
X92115787Y-73553460D01*
X92101284Y-73554984D01*
X92049548Y-73547897D01*
X91988673Y-73542785D01*
X91974937Y-73537677D01*
X91969150Y-73536884D01*
X91912595Y-73514492D01*
X91847177Y-73490163D01*
X91788252Y-73447352D01*
X91736441Y-73410532D01*
X91734537Y-73408326D01*
X91725044Y-73401429D01*
X91685302Y-73351287D01*
X91649300Y-73309579D01*
X91644001Y-73299179D01*
X91631272Y-73283119D01*
X91609840Y-73232135D01*
X91586252Y-73185840D01*
X91537891Y-73134634D01*
X91469524Y-73117704D01*
X91402856Y-73140423D01*
X91364701Y-73195101D01*
X91362284Y-73193772D01*
X91350780Y-73214697D01*
X91345699Y-73231527D01*
X91314510Y-73280673D01*
X91290747Y-73323898D01*
X91278908Y-73336772D01*
X91264808Y-73358991D01*
X91228006Y-73392128D01*
X91200478Y-73422064D01*
X91178657Y-73436562D01*
X91152620Y-73460006D01*
X91116045Y-73478162D01*
X91089394Y-73495869D01*
X91056565Y-73507688D01*
X91017399Y-73527130D01*
X90985839Y-73533150D01*
X90963916Y-73541043D01*
X90920593Y-73545597D01*
X90869108Y-73555418D01*
X90845787Y-73553460D01*
X90831284Y-73554984D01*
X90779548Y-73547897D01*
X90718673Y-73542785D01*
X90704937Y-73537677D01*
X90699150Y-73536884D01*
X90642595Y-73514492D01*
X90577177Y-73490163D01*
X90518252Y-73447352D01*
X90466441Y-73410532D01*
X90464537Y-73408326D01*
X90455044Y-73401429D01*
X90415302Y-73351287D01*
X90379300Y-73309579D01*
X90374001Y-73299179D01*
X90361272Y-73283119D01*
X90339840Y-73232135D01*
X90316252Y-73185840D01*
X90267891Y-73134634D01*
X90199524Y-73117704D01*
X90132856Y-73140423D01*
X90094701Y-73195101D01*
X90092284Y-73193772D01*
X90080780Y-73214697D01*
X90075699Y-73231527D01*
X90044510Y-73280673D01*
X90020747Y-73323898D01*
X90008908Y-73336772D01*
X89994808Y-73358991D01*
X89958006Y-73392128D01*
X89930478Y-73422064D01*
X89908657Y-73436562D01*
X89882620Y-73460006D01*
X89846045Y-73478162D01*
X89819394Y-73495869D01*
X89786565Y-73507688D01*
X89747399Y-73527130D01*
X89715839Y-73533150D01*
X89693916Y-73541043D01*
X89650593Y-73545597D01*
X89599108Y-73555418D01*
X89575787Y-73553460D01*
X89561284Y-73554984D01*
X89509548Y-73547897D01*
X89448673Y-73542785D01*
X89434937Y-73537677D01*
X89429150Y-73536884D01*
X89372595Y-73514492D01*
X89307177Y-73490163D01*
X89248252Y-73447352D01*
X89196441Y-73410532D01*
X89194537Y-73408326D01*
X89185044Y-73401429D01*
X89145302Y-73351287D01*
X89109300Y-73309579D01*
X89104001Y-73299179D01*
X89091272Y-73283119D01*
X89069840Y-73232135D01*
X89046252Y-73185840D01*
X88997891Y-73134634D01*
X88929524Y-73117704D01*
X88862856Y-73140423D01*
X88824701Y-73195101D01*
X88822284Y-73193772D01*
X88810780Y-73214697D01*
X88805699Y-73231527D01*
X88774510Y-73280673D01*
X88750747Y-73323898D01*
X88738908Y-73336772D01*
X88724808Y-73358991D01*
X88688006Y-73392128D01*
X88660478Y-73422064D01*
X88638657Y-73436562D01*
X88612620Y-73460006D01*
X88576045Y-73478162D01*
X88549394Y-73495869D01*
X88516565Y-73507688D01*
X88477399Y-73527130D01*
X88445839Y-73533150D01*
X88423916Y-73541043D01*
X88380593Y-73545597D01*
X88329108Y-73555418D01*
X88305787Y-73553460D01*
X88291284Y-73554984D01*
X88239548Y-73547897D01*
X88178673Y-73542785D01*
X88164937Y-73537677D01*
X88159150Y-73536884D01*
X88102595Y-73514492D01*
X88037177Y-73490163D01*
X87978252Y-73447352D01*
X87926441Y-73410532D01*
X87924537Y-73408326D01*
X87915044Y-73401429D01*
X87875302Y-73351287D01*
X87839300Y-73309579D01*
X87834001Y-73299179D01*
X87821272Y-73283119D01*
X87799840Y-73232135D01*
X87776252Y-73185840D01*
X87727891Y-73134634D01*
X87659524Y-73117704D01*
X87592856Y-73140423D01*
X87554701Y-73195101D01*
X87552284Y-73193772D01*
X87540780Y-73214697D01*
X87535699Y-73231527D01*
X87504510Y-73280673D01*
X87480747Y-73323898D01*
X87468908Y-73336772D01*
X87454808Y-73358991D01*
X87418006Y-73392128D01*
X87390478Y-73422064D01*
X87368657Y-73436562D01*
X87342620Y-73460006D01*
X87306045Y-73478162D01*
X87279394Y-73495869D01*
X87246565Y-73507688D01*
X87207399Y-73527130D01*
X87175839Y-73533150D01*
X87153916Y-73541043D01*
X87110593Y-73545597D01*
X87059108Y-73555418D01*
X87035787Y-73553460D01*
X87021284Y-73554984D01*
X86969548Y-73547897D01*
X86908673Y-73542785D01*
X86894937Y-73537677D01*
X86889150Y-73536884D01*
X86832595Y-73514492D01*
X86767177Y-73490163D01*
X86708252Y-73447352D01*
X86656441Y-73410532D01*
X86654537Y-73408326D01*
X86645044Y-73401429D01*
X86605302Y-73351287D01*
X86569300Y-73309579D01*
X86564001Y-73299179D01*
X86551272Y-73283119D01*
X86529840Y-73232135D01*
X86506252Y-73185840D01*
X86457891Y-73134634D01*
X86389524Y-73117704D01*
X86322856Y-73140423D01*
X86284701Y-73195101D01*
X86282284Y-73193772D01*
X86270780Y-73214697D01*
X86265699Y-73231527D01*
X86234510Y-73280673D01*
X86210747Y-73323898D01*
X86198908Y-73336772D01*
X86184808Y-73358991D01*
X86148006Y-73392128D01*
X86120478Y-73422064D01*
X86098657Y-73436562D01*
X86072620Y-73460006D01*
X86036045Y-73478162D01*
X86009394Y-73495869D01*
X85976565Y-73507688D01*
X85937399Y-73527130D01*
X85905839Y-73533150D01*
X85883916Y-73541043D01*
X85840593Y-73545597D01*
X85789108Y-73555418D01*
X85765787Y-73553460D01*
X85751284Y-73554984D01*
X85699548Y-73547897D01*
X85638673Y-73542785D01*
X85624937Y-73537677D01*
X85619150Y-73536884D01*
X85562595Y-73514492D01*
X85497177Y-73490163D01*
X85438252Y-73447352D01*
X85386441Y-73410532D01*
X85384537Y-73408326D01*
X85375044Y-73401429D01*
X85335302Y-73351287D01*
X85299300Y-73309579D01*
X85294001Y-73299179D01*
X85281272Y-73283119D01*
X85259840Y-73232135D01*
X85236252Y-73185840D01*
X85187891Y-73134634D01*
X85119524Y-73117704D01*
X85052856Y-73140423D01*
X85014701Y-73195101D01*
X85012284Y-73193772D01*
X85000780Y-73214697D01*
X84995699Y-73231527D01*
X84964510Y-73280673D01*
X84940747Y-73323898D01*
X84928908Y-73336772D01*
X84914808Y-73358991D01*
X84878006Y-73392128D01*
X84850478Y-73422064D01*
X84828657Y-73436562D01*
X84802620Y-73460006D01*
X84766045Y-73478162D01*
X84739394Y-73495869D01*
X84706565Y-73507688D01*
X84667399Y-73527130D01*
X84635839Y-73533150D01*
X84613916Y-73541043D01*
X84570593Y-73545597D01*
X84519108Y-73555418D01*
X84495787Y-73553460D01*
X84481284Y-73554984D01*
X84429548Y-73547897D01*
X84368673Y-73542785D01*
X84354937Y-73537677D01*
X84349150Y-73536884D01*
X84292595Y-73514492D01*
X84227177Y-73490163D01*
X84168252Y-73447352D01*
X84116441Y-73410532D01*
X84114537Y-73408326D01*
X84105044Y-73401429D01*
X84065302Y-73351287D01*
X84029300Y-73309579D01*
X84024001Y-73299179D01*
X84011272Y-73283119D01*
X83989840Y-73232135D01*
X83966252Y-73185840D01*
X83917891Y-73134634D01*
X83849524Y-73117704D01*
X83782856Y-73140423D01*
X83744701Y-73195101D01*
X83742284Y-73193772D01*
X83730780Y-73214697D01*
X83725699Y-73231527D01*
X83694510Y-73280673D01*
X83670747Y-73323898D01*
X83658908Y-73336772D01*
X83644808Y-73358991D01*
X83608006Y-73392128D01*
X83580478Y-73422064D01*
X83558657Y-73436562D01*
X83532620Y-73460006D01*
X83496045Y-73478162D01*
X83469394Y-73495869D01*
X83436565Y-73507688D01*
X83397399Y-73527130D01*
X83365839Y-73533150D01*
X83343916Y-73541043D01*
X83300593Y-73545597D01*
X83249108Y-73555418D01*
X83225787Y-73553460D01*
X83211284Y-73554984D01*
X83159548Y-73547897D01*
X83098673Y-73542785D01*
X83084937Y-73537677D01*
X83079150Y-73536884D01*
X83022595Y-73514492D01*
X82957177Y-73490163D01*
X82898252Y-73447352D01*
X82846441Y-73410532D01*
X82844537Y-73408326D01*
X82835044Y-73401429D01*
X82795302Y-73351287D01*
X82759300Y-73309579D01*
X82754001Y-73299179D01*
X82741272Y-73283119D01*
X82719840Y-73232135D01*
X82696252Y-73185840D01*
X82647891Y-73134634D01*
X82579524Y-73117704D01*
X82512856Y-73140423D01*
X82474701Y-73195101D01*
X82472284Y-73193772D01*
X82460780Y-73214697D01*
X82455699Y-73231527D01*
X82424510Y-73280673D01*
X82400747Y-73323898D01*
X82388908Y-73336772D01*
X82374808Y-73358991D01*
X82338006Y-73392128D01*
X82310478Y-73422064D01*
X82288657Y-73436562D01*
X82262620Y-73460006D01*
X82226045Y-73478162D01*
X82199394Y-73495869D01*
X82166565Y-73507688D01*
X82127399Y-73527130D01*
X82095839Y-73533150D01*
X82073916Y-73541043D01*
X82030593Y-73545597D01*
X81979108Y-73555418D01*
X81955787Y-73553460D01*
X81941284Y-73554984D01*
X81889548Y-73547897D01*
X81828673Y-73542785D01*
X81814937Y-73537677D01*
X81809150Y-73536884D01*
X81752595Y-73514492D01*
X81687177Y-73490163D01*
X81628252Y-73447352D01*
X81576441Y-73410532D01*
X81574537Y-73408326D01*
X81565044Y-73401429D01*
X81525302Y-73351287D01*
X81489300Y-73309579D01*
X81484001Y-73299179D01*
X81471272Y-73283119D01*
X81449840Y-73232135D01*
X81426252Y-73185840D01*
X81377891Y-73134634D01*
X81309524Y-73117704D01*
X81242856Y-73140423D01*
X81204701Y-73195101D01*
X81202284Y-73193772D01*
X81190780Y-73214697D01*
X81185699Y-73231527D01*
X81154510Y-73280673D01*
X81130747Y-73323898D01*
X81118908Y-73336772D01*
X81104808Y-73358991D01*
X81068006Y-73392128D01*
X81040478Y-73422064D01*
X81018657Y-73436562D01*
X80992620Y-73460006D01*
X80956045Y-73478162D01*
X80929394Y-73495869D01*
X80896565Y-73507688D01*
X80857399Y-73527130D01*
X80825839Y-73533150D01*
X80803916Y-73541043D01*
X80760593Y-73545597D01*
X80709108Y-73555418D01*
X80685787Y-73553460D01*
X80671284Y-73554984D01*
X80619548Y-73547897D01*
X80558673Y-73542785D01*
X80544937Y-73537677D01*
X80539150Y-73536884D01*
X80482595Y-73514492D01*
X80417177Y-73490163D01*
X80358252Y-73447352D01*
X80306441Y-73410532D01*
X80304537Y-73408326D01*
X80295044Y-73401429D01*
X80255302Y-73351287D01*
X80219300Y-73309579D01*
X80214001Y-73299179D01*
X80201272Y-73283119D01*
X80179840Y-73232135D01*
X80156252Y-73185840D01*
X80107891Y-73134634D01*
X80039524Y-73117704D01*
X79972856Y-73140423D01*
X79934701Y-73195101D01*
X79932284Y-73193772D01*
X79920780Y-73214697D01*
X79915699Y-73231527D01*
X79884510Y-73280673D01*
X79860747Y-73323898D01*
X79848908Y-73336772D01*
X79834808Y-73358991D01*
X79798006Y-73392128D01*
X79770478Y-73422064D01*
X79748657Y-73436562D01*
X79722620Y-73460006D01*
X79686045Y-73478162D01*
X79659394Y-73495869D01*
X79626565Y-73507688D01*
X79587399Y-73527130D01*
X79555839Y-73533150D01*
X79533916Y-73541043D01*
X79490593Y-73545597D01*
X79439108Y-73555418D01*
X79415787Y-73553460D01*
X79401284Y-73554984D01*
X79349548Y-73547897D01*
X79288673Y-73542785D01*
X79274937Y-73537677D01*
X79269150Y-73536884D01*
X79212595Y-73514492D01*
X79147177Y-73490163D01*
X79088252Y-73447352D01*
X79036441Y-73410532D01*
X79034537Y-73408326D01*
X79025044Y-73401429D01*
X78985302Y-73351287D01*
X78949300Y-73309579D01*
X78944001Y-73299179D01*
X78931272Y-73283119D01*
X78909840Y-73232135D01*
X78886252Y-73185840D01*
X78837891Y-73134634D01*
X78769524Y-73117704D01*
X78702856Y-73140423D01*
X78664701Y-73195101D01*
X78662284Y-73193772D01*
X78650780Y-73214697D01*
X78645699Y-73231527D01*
X78614510Y-73280673D01*
X78590747Y-73323898D01*
X78578908Y-73336772D01*
X78564808Y-73358991D01*
X78528006Y-73392128D01*
X78500478Y-73422064D01*
X78478657Y-73436562D01*
X78452620Y-73460006D01*
X78416045Y-73478162D01*
X78389394Y-73495869D01*
X78356565Y-73507688D01*
X78317399Y-73527130D01*
X78285839Y-73533150D01*
X78263916Y-73541043D01*
X78220593Y-73545597D01*
X78169108Y-73555418D01*
X78145787Y-73553460D01*
X78131284Y-73554984D01*
X78079548Y-73547897D01*
X78018673Y-73542785D01*
X78004937Y-73537677D01*
X77999150Y-73536884D01*
X77942595Y-73514492D01*
X77877177Y-73490163D01*
X77818252Y-73447352D01*
X77766441Y-73410532D01*
X77764537Y-73408326D01*
X77755044Y-73401429D01*
X77715302Y-73351287D01*
X77679300Y-73309579D01*
X77674001Y-73299179D01*
X77661272Y-73283119D01*
X77639840Y-73232135D01*
X77616252Y-73185840D01*
X77567891Y-73134634D01*
X77499524Y-73117704D01*
X77432856Y-73140423D01*
X77394701Y-73195101D01*
X77392284Y-73193772D01*
X77380780Y-73214697D01*
X77375699Y-73231527D01*
X77344510Y-73280673D01*
X77320747Y-73323898D01*
X77308908Y-73336772D01*
X77294808Y-73358991D01*
X77258006Y-73392128D01*
X77230478Y-73422064D01*
X77208657Y-73436562D01*
X77182620Y-73460006D01*
X77146045Y-73478162D01*
X77119394Y-73495869D01*
X77086565Y-73507688D01*
X77047399Y-73527130D01*
X77015839Y-73533150D01*
X76993916Y-73541043D01*
X76950593Y-73545597D01*
X76899108Y-73555418D01*
X76875787Y-73553460D01*
X76861284Y-73554984D01*
X76809548Y-73547897D01*
X76748673Y-73542785D01*
X76734937Y-73537677D01*
X76729150Y-73536884D01*
X76672595Y-73514492D01*
X76607177Y-73490163D01*
X76548252Y-73447352D01*
X76496441Y-73410532D01*
X76494537Y-73408326D01*
X76485044Y-73401429D01*
X76445302Y-73351287D01*
X76409300Y-73309579D01*
X76404001Y-73299179D01*
X76391272Y-73283119D01*
X76369840Y-73232135D01*
X76346252Y-73185840D01*
X76297891Y-73134634D01*
X76229524Y-73117704D01*
X76162856Y-73140423D01*
X76124701Y-73195101D01*
X76122284Y-73193772D01*
X76110780Y-73214697D01*
X76105699Y-73231527D01*
X76074510Y-73280673D01*
X76050747Y-73323898D01*
X76038908Y-73336772D01*
X76024808Y-73358991D01*
X75988006Y-73392128D01*
X75960478Y-73422064D01*
X75938657Y-73436562D01*
X75912620Y-73460006D01*
X75876045Y-73478162D01*
X75849394Y-73495869D01*
X75816565Y-73507688D01*
X75777399Y-73527130D01*
X75745839Y-73533150D01*
X75723916Y-73541043D01*
X75680593Y-73545597D01*
X75629108Y-73555418D01*
X75605787Y-73553460D01*
X75591284Y-73554984D01*
X75539548Y-73547897D01*
X75478673Y-73542785D01*
X75464937Y-73537677D01*
X75459150Y-73536884D01*
X75402595Y-73514492D01*
X75337177Y-73490163D01*
X75278252Y-73447352D01*
X75226441Y-73410532D01*
X75224537Y-73408326D01*
X75215044Y-73401429D01*
X75175302Y-73351287D01*
X75139300Y-73309579D01*
X75134001Y-73299179D01*
X75121272Y-73283119D01*
X75099840Y-73232135D01*
X75076252Y-73185840D01*
X75027891Y-73134634D01*
X74959524Y-73117704D01*
X74892856Y-73140423D01*
X74854701Y-73195101D01*
X74852284Y-73193772D01*
X74840780Y-73214697D01*
X74835699Y-73231527D01*
X74804510Y-73280673D01*
X74780747Y-73323898D01*
X74768908Y-73336772D01*
X74754808Y-73358991D01*
X74718006Y-73392128D01*
X74690478Y-73422064D01*
X74668657Y-73436562D01*
X74642620Y-73460006D01*
X74606045Y-73478162D01*
X74579394Y-73495869D01*
X74546565Y-73507688D01*
X74507399Y-73527130D01*
X74475839Y-73533150D01*
X74453916Y-73541043D01*
X74410593Y-73545597D01*
X74359108Y-73555418D01*
X74335787Y-73553460D01*
X74321284Y-73554984D01*
X74269548Y-73547897D01*
X74208673Y-73542785D01*
X74194937Y-73537677D01*
X74189150Y-73536884D01*
X74132595Y-73514492D01*
X74067177Y-73490163D01*
X74008252Y-73447352D01*
X73956441Y-73410532D01*
X73954537Y-73408326D01*
X73945044Y-73401429D01*
X73905302Y-73351287D01*
X73869300Y-73309579D01*
X73864001Y-73299179D01*
X73851272Y-73283119D01*
X73829838Y-73232129D01*
X73808754Y-73190749D01*
X73804096Y-73170892D01*
X73792771Y-73143950D01*
X73786928Y-73097696D01*
X73778299Y-73060909D01*
X73778604Y-73031808D01*
X73773850Y-72994176D01*
X73779392Y-72956647D01*
X73779697Y-72927552D01*
X73789092Y-72890961D01*
X73795904Y-72844831D01*
X73807791Y-72818132D01*
X73812864Y-72798375D01*
X73834815Y-72757436D01*
X73857307Y-72706918D01*
X73870366Y-72691132D01*
X73875883Y-72680843D01*
X73912753Y-72639895D01*
X73953535Y-72590598D01*
X73963171Y-72583901D01*
X73965122Y-72581734D01*
X74017700Y-72546002D01*
X74077500Y-72504440D01*
X74143435Y-72481479D01*
X74200424Y-72460285D01*
X74206223Y-72459614D01*
X74220067Y-72454793D01*
X74281037Y-72450957D01*
X74332909Y-72444955D01*
X74347381Y-72446783D01*
X74370734Y-72445314D01*
X74421992Y-72456209D01*
X74465218Y-72461670D01*
X74486974Y-72470021D01*
X74518399Y-72476701D01*
X74557154Y-72496961D01*
X74589724Y-72509464D01*
X74615993Y-72527721D01*
X74652185Y-72546642D01*
X74677727Y-72570628D01*
X74699239Y-72585579D01*
X74726135Y-72616086D01*
X74762233Y-72649985D01*
X74775865Y-72672493D01*
X74787433Y-72685615D01*
X74810288Y-72729333D01*
X74840437Y-72779114D01*
X74845164Y-72796043D01*
X74854110Y-72813156D01*
X74903004Y-72863852D01*
X74971545Y-72880065D01*
X75037971Y-72856649D01*
X75070536Y-72808930D01*
X75075715Y-72811707D01*
X75104816Y-72757433D01*
X75127307Y-72706918D01*
X75140366Y-72691132D01*
X75145883Y-72680843D01*
X75182753Y-72639895D01*
X75223535Y-72590598D01*
X75233171Y-72583901D01*
X75235122Y-72581734D01*
X75287700Y-72546002D01*
X75347500Y-72504440D01*
X75413435Y-72481479D01*
X75470424Y-72460285D01*
X75476223Y-72459614D01*
X75490067Y-72454793D01*
X75551037Y-72450957D01*
X75602909Y-72444955D01*
X75617381Y-72446783D01*
X75640734Y-72445314D01*
X75691992Y-72456209D01*
X75735218Y-72461670D01*
X75756974Y-72470021D01*
X75788399Y-72476701D01*
X75827154Y-72496961D01*
X75859724Y-72509464D01*
X75885993Y-72527721D01*
X75922185Y-72546642D01*
X75947727Y-72570628D01*
X75969239Y-72585579D01*
X75996135Y-72616086D01*
X76032233Y-72649985D01*
X76045865Y-72672493D01*
X76057433Y-72685615D01*
X76080288Y-72729333D01*
X76110437Y-72779114D01*
X76115164Y-72796043D01*
X76124110Y-72813156D01*
X76173004Y-72863852D01*
X76241545Y-72880065D01*
X76307971Y-72856649D01*
X76340536Y-72808930D01*
X76345715Y-72811707D01*
X76374816Y-72757433D01*
X76397307Y-72706918D01*
X76410366Y-72691132D01*
X76415883Y-72680843D01*
X76452753Y-72639895D01*
X76493535Y-72590598D01*
X76503171Y-72583901D01*
X76505122Y-72581734D01*
X76557700Y-72546002D01*
X76617500Y-72504440D01*
X76683435Y-72481479D01*
X76740424Y-72460285D01*
X76746223Y-72459614D01*
X76760067Y-72454793D01*
X76821037Y-72450957D01*
X76872909Y-72444955D01*
X76887381Y-72446783D01*
X76910734Y-72445314D01*
X76961992Y-72456209D01*
X77005218Y-72461670D01*
X77026974Y-72470021D01*
X77058399Y-72476701D01*
X77097154Y-72496961D01*
X77129724Y-72509464D01*
X77155993Y-72527721D01*
X77192185Y-72546642D01*
X77217727Y-72570628D01*
X77239239Y-72585579D01*
X77266135Y-72616086D01*
X77302233Y-72649985D01*
X77315865Y-72672493D01*
X77327433Y-72685615D01*
X77350288Y-72729333D01*
X77380437Y-72779114D01*
X77385164Y-72796043D01*
X77394110Y-72813156D01*
X77443004Y-72863852D01*
X77511545Y-72880065D01*
X77577971Y-72856649D01*
X77610536Y-72808930D01*
X77615715Y-72811707D01*
X77644816Y-72757433D01*
X77667307Y-72706918D01*
X77680366Y-72691132D01*
X77685883Y-72680843D01*
X77722753Y-72639895D01*
X77763535Y-72590598D01*
X77773171Y-72583901D01*
X77775122Y-72581734D01*
X77827700Y-72546002D01*
X77887500Y-72504440D01*
X77953435Y-72481479D01*
X78010424Y-72460285D01*
X78016223Y-72459614D01*
X78030067Y-72454793D01*
X78091037Y-72450957D01*
X78142909Y-72444955D01*
X78157381Y-72446783D01*
X78180734Y-72445314D01*
X78231992Y-72456209D01*
X78275218Y-72461670D01*
X78296974Y-72470021D01*
X78328399Y-72476701D01*
X78367154Y-72496961D01*
X78399724Y-72509464D01*
X78425993Y-72527721D01*
X78462185Y-72546642D01*
X78487727Y-72570628D01*
X78509239Y-72585579D01*
X78536135Y-72616086D01*
X78572233Y-72649985D01*
X78585865Y-72672493D01*
X78597433Y-72685615D01*
X78620288Y-72729333D01*
X78650437Y-72779114D01*
X78655164Y-72796043D01*
X78664110Y-72813156D01*
X78713004Y-72863852D01*
X78781545Y-72880065D01*
X78847971Y-72856649D01*
X78880536Y-72808930D01*
X78885715Y-72811707D01*
X78914816Y-72757433D01*
X78937307Y-72706918D01*
X78950366Y-72691132D01*
X78955883Y-72680843D01*
X78992753Y-72639895D01*
X79033535Y-72590598D01*
X79043171Y-72583901D01*
X79045122Y-72581734D01*
X79097700Y-72546002D01*
X79157500Y-72504440D01*
X79223435Y-72481479D01*
X79280424Y-72460285D01*
X79286223Y-72459614D01*
X79300067Y-72454793D01*
X79361037Y-72450957D01*
X79412909Y-72444955D01*
X79427381Y-72446783D01*
X79450734Y-72445314D01*
X79501992Y-72456209D01*
X79545218Y-72461670D01*
X79566974Y-72470021D01*
X79598399Y-72476701D01*
X79637154Y-72496961D01*
X79669724Y-72509464D01*
X79695993Y-72527721D01*
X79732185Y-72546642D01*
X79757727Y-72570628D01*
X79779239Y-72585579D01*
X79806135Y-72616086D01*
X79842233Y-72649985D01*
X79855865Y-72672493D01*
X79867433Y-72685615D01*
X79890288Y-72729333D01*
X79920437Y-72779114D01*
X79925164Y-72796043D01*
X79934110Y-72813156D01*
X79983004Y-72863852D01*
X80051545Y-72880065D01*
X80117971Y-72856649D01*
X80150536Y-72808930D01*
X80155715Y-72811707D01*
X80184816Y-72757433D01*
X80207307Y-72706918D01*
X80220366Y-72691132D01*
X80225883Y-72680843D01*
X80262753Y-72639895D01*
X80303535Y-72590598D01*
X80313171Y-72583901D01*
X80315122Y-72581734D01*
X80367700Y-72546002D01*
X80427500Y-72504440D01*
X80493435Y-72481479D01*
X80550424Y-72460285D01*
X80556223Y-72459614D01*
X80570067Y-72454793D01*
X80631037Y-72450957D01*
X80682909Y-72444955D01*
X80697381Y-72446783D01*
X80720734Y-72445314D01*
X80771992Y-72456209D01*
X80815218Y-72461670D01*
X80836974Y-72470021D01*
X80868399Y-72476701D01*
X80907154Y-72496961D01*
X80939724Y-72509464D01*
X80965993Y-72527721D01*
X81002185Y-72546642D01*
X81027727Y-72570628D01*
X81049239Y-72585579D01*
X81076135Y-72616086D01*
X81112233Y-72649985D01*
X81125865Y-72672493D01*
X81137433Y-72685615D01*
X81160288Y-72729333D01*
X81190437Y-72779114D01*
X81195164Y-72796043D01*
X81204110Y-72813156D01*
X81253004Y-72863852D01*
X81321545Y-72880065D01*
X81387971Y-72856649D01*
X81420536Y-72808930D01*
X81425715Y-72811707D01*
X81454816Y-72757433D01*
X81477307Y-72706918D01*
X81490366Y-72691132D01*
X81495883Y-72680843D01*
X81532753Y-72639895D01*
X81573535Y-72590598D01*
X81583171Y-72583901D01*
X81585122Y-72581734D01*
X81637700Y-72546002D01*
X81697500Y-72504440D01*
X81763435Y-72481479D01*
X81820424Y-72460285D01*
X81826223Y-72459614D01*
X81840067Y-72454793D01*
X81901037Y-72450957D01*
X81952909Y-72444955D01*
X81967381Y-72446783D01*
X81990734Y-72445314D01*
X82041992Y-72456209D01*
X82085218Y-72461670D01*
X82106974Y-72470021D01*
X82138399Y-72476701D01*
X82177154Y-72496961D01*
X82209724Y-72509464D01*
X82235993Y-72527721D01*
X82272185Y-72546642D01*
X82297727Y-72570628D01*
X82319239Y-72585579D01*
X82346135Y-72616086D01*
X82382233Y-72649985D01*
X82395865Y-72672493D01*
X82407433Y-72685615D01*
X82430288Y-72729333D01*
X82460437Y-72779114D01*
X82465164Y-72796043D01*
X82474110Y-72813156D01*
X82523004Y-72863852D01*
X82591545Y-72880065D01*
X82657971Y-72856649D01*
X82690536Y-72808930D01*
X82695715Y-72811707D01*
X82724816Y-72757433D01*
X82747307Y-72706918D01*
X82760366Y-72691132D01*
X82765883Y-72680843D01*
X82802753Y-72639895D01*
X82843535Y-72590598D01*
X82853171Y-72583901D01*
X82855122Y-72581734D01*
X82907700Y-72546002D01*
X82967500Y-72504440D01*
X83033435Y-72481479D01*
X83090424Y-72460285D01*
X83096223Y-72459614D01*
X83110067Y-72454793D01*
X83171037Y-72450957D01*
X83222909Y-72444955D01*
X83237381Y-72446783D01*
X83260734Y-72445314D01*
X83311992Y-72456209D01*
X83355218Y-72461670D01*
X83376974Y-72470021D01*
X83408399Y-72476701D01*
X83447154Y-72496961D01*
X83479724Y-72509464D01*
X83505993Y-72527721D01*
X83542185Y-72546642D01*
X83567727Y-72570628D01*
X83589239Y-72585579D01*
X83616135Y-72616086D01*
X83652233Y-72649985D01*
X83665865Y-72672493D01*
X83677433Y-72685615D01*
X83700288Y-72729333D01*
X83730437Y-72779114D01*
X83735164Y-72796043D01*
X83744110Y-72813156D01*
X83793004Y-72863852D01*
X83861545Y-72880065D01*
X83927971Y-72856649D01*
X83960536Y-72808930D01*
X83965715Y-72811707D01*
X83994816Y-72757433D01*
X84017307Y-72706918D01*
X84030366Y-72691132D01*
X84035883Y-72680843D01*
X84072753Y-72639895D01*
X84113535Y-72590598D01*
X84123171Y-72583901D01*
X84125122Y-72581734D01*
X84177700Y-72546002D01*
X84237500Y-72504440D01*
X84303435Y-72481479D01*
X84360424Y-72460285D01*
X84366223Y-72459614D01*
X84380067Y-72454793D01*
X84441037Y-72450957D01*
X84492909Y-72444955D01*
X84507381Y-72446783D01*
X84530734Y-72445314D01*
X84581992Y-72456209D01*
X84625218Y-72461670D01*
X84646974Y-72470021D01*
X84678399Y-72476701D01*
X84717154Y-72496961D01*
X84749724Y-72509464D01*
X84775993Y-72527721D01*
X84812185Y-72546642D01*
X84837727Y-72570628D01*
X84859239Y-72585579D01*
X84886135Y-72616086D01*
X84922233Y-72649985D01*
X84935865Y-72672493D01*
X84947433Y-72685615D01*
X84970288Y-72729333D01*
X85000437Y-72779114D01*
X85005164Y-72796043D01*
X85014110Y-72813156D01*
X85063004Y-72863852D01*
X85131545Y-72880065D01*
X85197971Y-72856649D01*
X85230536Y-72808930D01*
X85235715Y-72811707D01*
X85264816Y-72757433D01*
X85287307Y-72706918D01*
X85300366Y-72691132D01*
X85305883Y-72680843D01*
X85342753Y-72639895D01*
X85383535Y-72590598D01*
X85393171Y-72583901D01*
X85395122Y-72581734D01*
X85447700Y-72546002D01*
X85507500Y-72504440D01*
X85573435Y-72481479D01*
X85630424Y-72460285D01*
X85636223Y-72459614D01*
X85650067Y-72454793D01*
X85711037Y-72450957D01*
X85762909Y-72444955D01*
X85777381Y-72446783D01*
X85800734Y-72445314D01*
X85851992Y-72456209D01*
X85895218Y-72461670D01*
X85916974Y-72470021D01*
X85948399Y-72476701D01*
X85987154Y-72496961D01*
X86019724Y-72509464D01*
X86045993Y-72527721D01*
X86082185Y-72546642D01*
X86107727Y-72570628D01*
X86129239Y-72585579D01*
X86156135Y-72616086D01*
X86192233Y-72649985D01*
X86205865Y-72672493D01*
X86217433Y-72685615D01*
X86240288Y-72729333D01*
X86270437Y-72779114D01*
X86275164Y-72796043D01*
X86284110Y-72813156D01*
X86333004Y-72863852D01*
X86401545Y-72880065D01*
X86467971Y-72856649D01*
X86500536Y-72808930D01*
X86505715Y-72811707D01*
X86534816Y-72757433D01*
X86557307Y-72706918D01*
X86570366Y-72691132D01*
X86575883Y-72680843D01*
X86612753Y-72639895D01*
X86653535Y-72590598D01*
X86663171Y-72583901D01*
X86665122Y-72581734D01*
X86717700Y-72546002D01*
X86777500Y-72504440D01*
X86843435Y-72481479D01*
X86900424Y-72460285D01*
X86906223Y-72459614D01*
X86920067Y-72454793D01*
X86981037Y-72450957D01*
X87032909Y-72444955D01*
X87047381Y-72446783D01*
X87070734Y-72445314D01*
X87121992Y-72456209D01*
X87165218Y-72461670D01*
X87186974Y-72470021D01*
X87218399Y-72476701D01*
X87257154Y-72496961D01*
X87289724Y-72509464D01*
X87315993Y-72527721D01*
X87352185Y-72546642D01*
X87377727Y-72570628D01*
X87399239Y-72585579D01*
X87426135Y-72616086D01*
X87462233Y-72649985D01*
X87475865Y-72672493D01*
X87487433Y-72685615D01*
X87510288Y-72729333D01*
X87540437Y-72779114D01*
X87545164Y-72796043D01*
X87554110Y-72813156D01*
X87603004Y-72863852D01*
X87671545Y-72880065D01*
X87737971Y-72856649D01*
X87770536Y-72808930D01*
X87775715Y-72811707D01*
X87804816Y-72757433D01*
X87827307Y-72706918D01*
X87840366Y-72691132D01*
X87845883Y-72680843D01*
X87882753Y-72639895D01*
X87923535Y-72590598D01*
X87933171Y-72583901D01*
X87935122Y-72581734D01*
X87987700Y-72546002D01*
X88047500Y-72504440D01*
X88113435Y-72481479D01*
X88170424Y-72460285D01*
X88176223Y-72459614D01*
X88190067Y-72454793D01*
X88251037Y-72450957D01*
X88302909Y-72444955D01*
X88317381Y-72446783D01*
X88340734Y-72445314D01*
X88391992Y-72456209D01*
X88435218Y-72461670D01*
X88456974Y-72470021D01*
X88488399Y-72476701D01*
X88527154Y-72496961D01*
X88559724Y-72509464D01*
X88585993Y-72527721D01*
X88622185Y-72546642D01*
X88647727Y-72570628D01*
X88669239Y-72585579D01*
X88696135Y-72616086D01*
X88732233Y-72649985D01*
X88745865Y-72672493D01*
X88757433Y-72685615D01*
X88780288Y-72729333D01*
X88810437Y-72779114D01*
X88815164Y-72796043D01*
X88824110Y-72813156D01*
X88873004Y-72863852D01*
X88941545Y-72880065D01*
X89007971Y-72856649D01*
X89040536Y-72808930D01*
X89045715Y-72811707D01*
X89074816Y-72757433D01*
X89097307Y-72706918D01*
X89110366Y-72691132D01*
X89115883Y-72680843D01*
X89152753Y-72639895D01*
X89193535Y-72590598D01*
X89203171Y-72583901D01*
X89205122Y-72581734D01*
X89257700Y-72546002D01*
X89317500Y-72504440D01*
X89383435Y-72481479D01*
X89440424Y-72460285D01*
X89446223Y-72459614D01*
X89460067Y-72454793D01*
X89521037Y-72450957D01*
X89572909Y-72444955D01*
X89587381Y-72446783D01*
X89610734Y-72445314D01*
X89661992Y-72456209D01*
X89705218Y-72461670D01*
X89726974Y-72470021D01*
X89758399Y-72476701D01*
X89797154Y-72496961D01*
X89829724Y-72509464D01*
X89855993Y-72527721D01*
X89892185Y-72546642D01*
X89917727Y-72570628D01*
X89939239Y-72585579D01*
X89966135Y-72616086D01*
X90002233Y-72649985D01*
X90015865Y-72672493D01*
X90027433Y-72685615D01*
X90050288Y-72729333D01*
X90080437Y-72779114D01*
X90085164Y-72796043D01*
X90094110Y-72813156D01*
X90143004Y-72863852D01*
X90211545Y-72880065D01*
X90277971Y-72856649D01*
X90310536Y-72808930D01*
X90315715Y-72811707D01*
X90344816Y-72757433D01*
X90367307Y-72706918D01*
X90380366Y-72691132D01*
X90385883Y-72680843D01*
X90422753Y-72639895D01*
X90463535Y-72590598D01*
X90473171Y-72583901D01*
X90475122Y-72581734D01*
X90527700Y-72546002D01*
X90587500Y-72504440D01*
X90653435Y-72481479D01*
X90710424Y-72460285D01*
X90716223Y-72459614D01*
X90730067Y-72454793D01*
X90791037Y-72450957D01*
X90842909Y-72444955D01*
X90857381Y-72446783D01*
X90880734Y-72445314D01*
X90931992Y-72456209D01*
X90975218Y-72461670D01*
X90996974Y-72470021D01*
X91028399Y-72476701D01*
X91067154Y-72496961D01*
X91099724Y-72509464D01*
X91125993Y-72527721D01*
X91162185Y-72546642D01*
X91187727Y-72570628D01*
X91209239Y-72585579D01*
X91236135Y-72616086D01*
X91272233Y-72649985D01*
X91285865Y-72672493D01*
X91297433Y-72685615D01*
X91320288Y-72729333D01*
X91350437Y-72779114D01*
X91355164Y-72796043D01*
X91364110Y-72813156D01*
X91413004Y-72863852D01*
X91481545Y-72880065D01*
X91547971Y-72856649D01*
X91580536Y-72808930D01*
X91585715Y-72811707D01*
X91614816Y-72757433D01*
X91637307Y-72706918D01*
X91650366Y-72691132D01*
X91655883Y-72680843D01*
X91692753Y-72639895D01*
X91733535Y-72590598D01*
X91743171Y-72583901D01*
X91745122Y-72581734D01*
X91797700Y-72546002D01*
X91857500Y-72504440D01*
X91923435Y-72481479D01*
X91980424Y-72460285D01*
X91986223Y-72459614D01*
X92000067Y-72454793D01*
X92061037Y-72450957D01*
X92112909Y-72444955D01*
X92127381Y-72446783D01*
X92150734Y-72445314D01*
X92201992Y-72456209D01*
X92245218Y-72461670D01*
X92266974Y-72470021D01*
X92298399Y-72476701D01*
X92337154Y-72496961D01*
X92369724Y-72509464D01*
X92395993Y-72527721D01*
X92432185Y-72546642D01*
X92457727Y-72570628D01*
X92479239Y-72585579D01*
X92506135Y-72616086D01*
X92542233Y-72649985D01*
X92555865Y-72672493D01*
X92567433Y-72685615D01*
X92590288Y-72729333D01*
X92620437Y-72779114D01*
X92625164Y-72796043D01*
X92634110Y-72813156D01*
X92683004Y-72863852D01*
X92751545Y-72880065D01*
X92817971Y-72856649D01*
X92850536Y-72808930D01*
X92855715Y-72811707D01*
X92884816Y-72757433D01*
X92907307Y-72706918D01*
X92920366Y-72691132D01*
X92925883Y-72680843D01*
X92962753Y-72639895D01*
X93003535Y-72590598D01*
X93013171Y-72583901D01*
X93015122Y-72581734D01*
X93067700Y-72546002D01*
X93127500Y-72504440D01*
X93193435Y-72481479D01*
X93250424Y-72460285D01*
X93256223Y-72459614D01*
X93270067Y-72454793D01*
X93331037Y-72450957D01*
X93382909Y-72444955D01*
X93397381Y-72446783D01*
X93420734Y-72445314D01*
X93471992Y-72456209D01*
X93515218Y-72461670D01*
X93536974Y-72470021D01*
X93568399Y-72476701D01*
X93607154Y-72496961D01*
X93639724Y-72509464D01*
X93665993Y-72527721D01*
X93702185Y-72546642D01*
X93727727Y-72570628D01*
X93749239Y-72585579D01*
X93776135Y-72616086D01*
X93812233Y-72649985D01*
X93825865Y-72672493D01*
X93837433Y-72685615D01*
X93860288Y-72729333D01*
X93890437Y-72779114D01*
X93895164Y-72796043D01*
X93904110Y-72813156D01*
X93953004Y-72863852D01*
X94021545Y-72880065D01*
X94087971Y-72856649D01*
X94120536Y-72808930D01*
X94125715Y-72811707D01*
X94154816Y-72757433D01*
X94177307Y-72706918D01*
X94190366Y-72691132D01*
X94195883Y-72680843D01*
X94232753Y-72639895D01*
X94273535Y-72590598D01*
X94283171Y-72583901D01*
X94285122Y-72581734D01*
X94337700Y-72546002D01*
X94397500Y-72504440D01*
X94463435Y-72481479D01*
X94520424Y-72460285D01*
X94526223Y-72459614D01*
X94540067Y-72454793D01*
X94601037Y-72450957D01*
X94652909Y-72444955D01*
X94667381Y-72446783D01*
X94690734Y-72445314D01*
X94741992Y-72456209D01*
X94785218Y-72461670D01*
X94806974Y-72470021D01*
X94838399Y-72476701D01*
X94877154Y-72496961D01*
X94909724Y-72509464D01*
X94935993Y-72527721D01*
X94972185Y-72546642D01*
X94997727Y-72570628D01*
X95019239Y-72585579D01*
X95046135Y-72616086D01*
X95082233Y-72649985D01*
X95095865Y-72672493D01*
X95107433Y-72685615D01*
X95130288Y-72729333D01*
X95160437Y-72779114D01*
X95165164Y-72796043D01*
X95174110Y-72813156D01*
X95223004Y-72863852D01*
X95291545Y-72880065D01*
X95357971Y-72856649D01*
X95390536Y-72808930D01*
X95395715Y-72811707D01*
X95424816Y-72757433D01*
X95447307Y-72706918D01*
X95460366Y-72691132D01*
X95465883Y-72680843D01*
X95502753Y-72639895D01*
X95543535Y-72590598D01*
X95553171Y-72583901D01*
X95555122Y-72581734D01*
X95607700Y-72546002D01*
X95667500Y-72504440D01*
X95733435Y-72481479D01*
X95790424Y-72460285D01*
X95796223Y-72459614D01*
X95810067Y-72454793D01*
X95871037Y-72450957D01*
X95922909Y-72444955D01*
X95937381Y-72446783D01*
X95960734Y-72445314D01*
X96011992Y-72456209D01*
X96055218Y-72461670D01*
X96076974Y-72470021D01*
X96108399Y-72476701D01*
X96147154Y-72496961D01*
X96179724Y-72509464D01*
X96205993Y-72527721D01*
X96242185Y-72546642D01*
X96267727Y-72570628D01*
X96289239Y-72585579D01*
X96316135Y-72616086D01*
X96352233Y-72649985D01*
X96365865Y-72672493D01*
X96377433Y-72685615D01*
X96400288Y-72729333D01*
X96430437Y-72779114D01*
X96435164Y-72796043D01*
X96444110Y-72813156D01*
X96493004Y-72863852D01*
X96561545Y-72880065D01*
X96627971Y-72856649D01*
X96660536Y-72808930D01*
X96665715Y-72811707D01*
X96694816Y-72757433D01*
X96717307Y-72706918D01*
X96730366Y-72691132D01*
X96735883Y-72680843D01*
X96772753Y-72639895D01*
X96813535Y-72590598D01*
X96823171Y-72583901D01*
X96825122Y-72581734D01*
X96877700Y-72546002D01*
X96937500Y-72504440D01*
X97003435Y-72481479D01*
X97060424Y-72460285D01*
X97066223Y-72459614D01*
X97080067Y-72454793D01*
X97141037Y-72450957D01*
X97192909Y-72444955D01*
X97207381Y-72446783D01*
X97230734Y-72445314D01*
X97281992Y-72456209D01*
X97325218Y-72461670D01*
X97346974Y-72470021D01*
X97378399Y-72476701D01*
X97417154Y-72496961D01*
X97449724Y-72509464D01*
X97475993Y-72527721D01*
X97512185Y-72546642D01*
X97537727Y-72570628D01*
X97559239Y-72585579D01*
X97586135Y-72616086D01*
X97622233Y-72649985D01*
X97635865Y-72672493D01*
X97647433Y-72685615D01*
X97670288Y-72729333D01*
X97700437Y-72779114D01*
X97705164Y-72796043D01*
X97714110Y-72813156D01*
X97763004Y-72863852D01*
X97831545Y-72880065D01*
X97897971Y-72856649D01*
X97930536Y-72808930D01*
X97935715Y-72811707D01*
X97964816Y-72757433D01*
X97987307Y-72706918D01*
X98000366Y-72691132D01*
X98005883Y-72680843D01*
X98042753Y-72639895D01*
X98083535Y-72590598D01*
X98093171Y-72583901D01*
X98095122Y-72581734D01*
X98147700Y-72546002D01*
X98207500Y-72504440D01*
X98273435Y-72481479D01*
X98330424Y-72460285D01*
X98336223Y-72459614D01*
X98350067Y-72454793D01*
X98411037Y-72450957D01*
X98462909Y-72444955D01*
X98477381Y-72446783D01*
X98500734Y-72445314D01*
X98551992Y-72456209D01*
X98595218Y-72461670D01*
X98616974Y-72470021D01*
X98648399Y-72476701D01*
X98687154Y-72496961D01*
X98719724Y-72509464D01*
X98745993Y-72527721D01*
X98782185Y-72546642D01*
X98807727Y-72570628D01*
X98829239Y-72585579D01*
X98856135Y-72616086D01*
X98892233Y-72649985D01*
X98905865Y-72672493D01*
X98917433Y-72685615D01*
X98940288Y-72729333D01*
X98970437Y-72779114D01*
X98975164Y-72796043D01*
X98984110Y-72813156D01*
X99033004Y-72863852D01*
X99101545Y-72880065D01*
X99167971Y-72856649D01*
X99200536Y-72808930D01*
X99205715Y-72811707D01*
X99234816Y-72757433D01*
X99257307Y-72706918D01*
X99270366Y-72691132D01*
X99275883Y-72680843D01*
X99312753Y-72639895D01*
X99353535Y-72590598D01*
X99363171Y-72583901D01*
X99365122Y-72581734D01*
X99417700Y-72546002D01*
X99477500Y-72504440D01*
X99543435Y-72481479D01*
X99600424Y-72460285D01*
X99606223Y-72459614D01*
X99620067Y-72454793D01*
X99681037Y-72450957D01*
X99732909Y-72444955D01*
X99747381Y-72446783D01*
G37*
M02*
