G04 #@! TF.GenerationSoftware,KiCad,Pcbnew,5.99.0-unknown-fd0d5fd~86~ubuntu18.04.1*
G04 #@! TF.CreationDate,2020-01-16T10:32:26-05:00*
G04 #@! TF.ProjectId,bc26_module_board,62633236-5f6d-46f6-9475-6c655f626f61,rev?*
G04 #@! TF.SameCoordinates,Original*
G04 #@! TF.FileFunction,Legend,Bot*
G04 #@! TF.FilePolarity,Positive*
%FSLAX46Y46*%
G04 Gerber Fmt 4.6, Leading zero omitted, Abs format (unit mm)*
G04 Created by KiCad (PCBNEW 5.99.0-unknown-fd0d5fd~86~ubuntu18.04.1) date 2020-01-16 10:32:26*
%MOMM*%
%LPD*%
G04 APERTURE LIST*
%ADD10C,0.010000*%
G04 APERTURE END LIST*
G36*
X108377631Y-83096891D02*
G01*
X108494000Y-83097375D01*
X108508175Y-83097443D01*
X108569937Y-83098029D01*
X108613620Y-83099352D01*
X108643001Y-83101897D01*
X108661855Y-83106152D01*
X108673959Y-83112604D01*
X108683089Y-83121738D01*
X108700506Y-83155196D01*
X108697604Y-83190144D01*
X108673100Y-83221047D01*
X108659897Y-83230056D01*
X108641361Y-83237508D01*
X108615333Y-83241876D01*
X108576787Y-83243931D01*
X108520700Y-83244444D01*
X108398045Y-83244444D01*
X108398045Y-83741155D01*
X108532871Y-83741155D01*
X108568662Y-83741228D01*
X108614992Y-83741991D01*
X108645526Y-83744167D01*
X108664557Y-83748464D01*
X108676374Y-83755588D01*
X108685271Y-83766245D01*
X108700341Y-83798496D01*
X108697673Y-83833783D01*
X108673100Y-83864514D01*
X108666845Y-83869169D01*
X108656321Y-83875105D01*
X108642391Y-83879636D01*
X108622317Y-83882952D01*
X108593360Y-83885241D01*
X108552780Y-83886692D01*
X108497840Y-83887495D01*
X108425799Y-83887838D01*
X108333920Y-83887911D01*
X108024485Y-83887911D01*
X107996776Y-83860202D01*
X107974533Y-83828823D01*
X107971844Y-83795594D01*
X107991645Y-83763733D01*
X108001415Y-83755447D01*
X108017307Y-83748035D01*
X108041275Y-83743698D01*
X108078148Y-83741662D01*
X108132756Y-83741155D01*
X108251289Y-83741155D01*
X108251289Y-83244444D01*
X108135776Y-83244444D01*
X108084078Y-83244006D01*
X108049554Y-83242042D01*
X108026978Y-83237526D01*
X108011126Y-83229433D01*
X107996776Y-83216735D01*
X107974533Y-83185357D01*
X107971844Y-83152128D01*
X107991645Y-83120266D01*
X107997835Y-83114634D01*
X108006041Y-83109544D01*
X108017817Y-83105457D01*
X108035276Y-83102279D01*
X108060530Y-83099913D01*
X108095690Y-83098262D01*
X108142869Y-83097231D01*
X108204177Y-83096723D01*
X108281727Y-83096641D01*
X108377631Y-83096891D01*
G37*
D10*
X108377631Y-83096891D02*
X108494000Y-83097375D01*
X108508175Y-83097443D01*
X108569937Y-83098029D01*
X108613620Y-83099352D01*
X108643001Y-83101897D01*
X108661855Y-83106152D01*
X108673959Y-83112604D01*
X108683089Y-83121738D01*
X108700506Y-83155196D01*
X108697604Y-83190144D01*
X108673100Y-83221047D01*
X108659897Y-83230056D01*
X108641361Y-83237508D01*
X108615333Y-83241876D01*
X108576787Y-83243931D01*
X108520700Y-83244444D01*
X108398045Y-83244444D01*
X108398045Y-83741155D01*
X108532871Y-83741155D01*
X108568662Y-83741228D01*
X108614992Y-83741991D01*
X108645526Y-83744167D01*
X108664557Y-83748464D01*
X108676374Y-83755588D01*
X108685271Y-83766245D01*
X108700341Y-83798496D01*
X108697673Y-83833783D01*
X108673100Y-83864514D01*
X108666845Y-83869169D01*
X108656321Y-83875105D01*
X108642391Y-83879636D01*
X108622317Y-83882952D01*
X108593360Y-83885241D01*
X108552780Y-83886692D01*
X108497840Y-83887495D01*
X108425799Y-83887838D01*
X108333920Y-83887911D01*
X108024485Y-83887911D01*
X107996776Y-83860202D01*
X107974533Y-83828823D01*
X107971844Y-83795594D01*
X107991645Y-83763733D01*
X108001415Y-83755447D01*
X108017307Y-83748035D01*
X108041275Y-83743698D01*
X108078148Y-83741662D01*
X108132756Y-83741155D01*
X108251289Y-83741155D01*
X108251289Y-83244444D01*
X108135776Y-83244444D01*
X108084078Y-83244006D01*
X108049554Y-83242042D01*
X108026978Y-83237526D01*
X108011126Y-83229433D01*
X107996776Y-83216735D01*
X107974533Y-83185357D01*
X107971844Y-83152128D01*
X107991645Y-83120266D01*
X107997835Y-83114634D01*
X108006041Y-83109544D01*
X108017817Y-83105457D01*
X108035276Y-83102279D01*
X108060530Y-83099913D01*
X108095690Y-83098262D01*
X108142869Y-83097231D01*
X108204177Y-83096723D01*
X108281727Y-83096641D01*
X108377631Y-83096891D01*
G36*
X108095178Y-82089083D02*
G01*
X108096631Y-82090443D01*
X108104992Y-82101646D01*
X108110547Y-82118748D01*
X108113840Y-82145918D01*
X108115418Y-82187322D01*
X108115822Y-82247127D01*
X108115822Y-82386489D01*
X108379589Y-82386489D01*
X108455417Y-82386564D01*
X108522083Y-82386972D01*
X108571867Y-82387954D01*
X108607784Y-82389750D01*
X108632850Y-82392601D01*
X108650081Y-82396747D01*
X108662492Y-82402429D01*
X108673100Y-82409886D01*
X108675906Y-82412176D01*
X108698548Y-82443354D01*
X108700112Y-82477734D01*
X108680267Y-82510666D01*
X108672191Y-82517645D01*
X108661593Y-82523117D01*
X108645749Y-82527137D01*
X108621773Y-82529928D01*
X108586774Y-82531712D01*
X108537864Y-82532711D01*
X108472154Y-82533148D01*
X108386756Y-82533244D01*
X108115822Y-82533244D01*
X108115822Y-82679180D01*
X108115821Y-82690280D01*
X108115596Y-82746798D01*
X108114457Y-82785642D01*
X108111657Y-82811035D01*
X108106450Y-82827196D01*
X108098089Y-82838348D01*
X108085826Y-82848711D01*
X108055138Y-82864559D01*
X108021358Y-82861457D01*
X107988822Y-82835813D01*
X107985105Y-82830871D01*
X107980269Y-82820662D01*
X107976506Y-82805236D01*
X107973683Y-82782114D01*
X107971670Y-82748817D01*
X107970333Y-82702863D01*
X107969542Y-82641772D01*
X107969163Y-82563065D01*
X107969067Y-82464260D01*
X107969068Y-82444233D01*
X107969158Y-82350110D01*
X107969498Y-82275595D01*
X107970239Y-82218189D01*
X107971535Y-82175389D01*
X107973537Y-82144696D01*
X107976396Y-82123609D01*
X107980266Y-82109627D01*
X107985298Y-82100250D01*
X107991645Y-82092978D01*
X108024362Y-82074172D01*
X108061939Y-82072725D01*
X108095178Y-82089083D01*
G37*
X108095178Y-82089083D02*
X108096631Y-82090443D01*
X108104992Y-82101646D01*
X108110547Y-82118748D01*
X108113840Y-82145918D01*
X108115418Y-82187322D01*
X108115822Y-82247127D01*
X108115822Y-82386489D01*
X108379589Y-82386489D01*
X108455417Y-82386564D01*
X108522083Y-82386972D01*
X108571867Y-82387954D01*
X108607784Y-82389750D01*
X108632850Y-82392601D01*
X108650081Y-82396747D01*
X108662492Y-82402429D01*
X108673100Y-82409886D01*
X108675906Y-82412176D01*
X108698548Y-82443354D01*
X108700112Y-82477734D01*
X108680267Y-82510666D01*
X108672191Y-82517645D01*
X108661593Y-82523117D01*
X108645749Y-82527137D01*
X108621773Y-82529928D01*
X108586774Y-82531712D01*
X108537864Y-82532711D01*
X108472154Y-82533148D01*
X108386756Y-82533244D01*
X108115822Y-82533244D01*
X108115822Y-82679180D01*
X108115821Y-82690280D01*
X108115596Y-82746798D01*
X108114457Y-82785642D01*
X108111657Y-82811035D01*
X108106450Y-82827196D01*
X108098089Y-82838348D01*
X108085826Y-82848711D01*
X108055138Y-82864559D01*
X108021358Y-82861457D01*
X107988822Y-82835813D01*
X107985105Y-82830871D01*
X107980269Y-82820662D01*
X107976506Y-82805236D01*
X107973683Y-82782114D01*
X107971670Y-82748817D01*
X107970333Y-82702863D01*
X107969542Y-82641772D01*
X107969163Y-82563065D01*
X107969067Y-82464260D01*
X107969068Y-82444233D01*
X107969158Y-82350110D01*
X107969498Y-82275595D01*
X107970239Y-82218189D01*
X107971535Y-82175389D01*
X107973537Y-82144696D01*
X107976396Y-82123609D01*
X107980266Y-82109627D01*
X107985298Y-82100250D01*
X107991645Y-82092978D01*
X108024362Y-82074172D01*
X108061939Y-82072725D01*
X108095178Y-82089083D01*
G36*
X108681264Y-81718873D02*
G01*
X108698739Y-81750233D01*
X108699575Y-81786034D01*
X108679082Y-81817472D01*
X108674416Y-81821348D01*
X108664949Y-81826814D01*
X108651267Y-81831021D01*
X108630748Y-81834133D01*
X108600768Y-81836313D01*
X108558704Y-81837724D01*
X108501932Y-81838529D01*
X108427830Y-81838893D01*
X108333773Y-81838978D01*
X108012227Y-81838978D01*
X107990647Y-81812327D01*
X107975877Y-81788614D01*
X107969067Y-81765600D01*
X107974949Y-81744594D01*
X107990647Y-81718873D01*
X108012227Y-81692222D01*
X108659684Y-81692222D01*
X108681264Y-81718873D01*
G37*
X108681264Y-81718873D02*
X108698739Y-81750233D01*
X108699575Y-81786034D01*
X108679082Y-81817472D01*
X108674416Y-81821348D01*
X108664949Y-81826814D01*
X108651267Y-81831021D01*
X108630748Y-81834133D01*
X108600768Y-81836313D01*
X108558704Y-81837724D01*
X108501932Y-81838529D01*
X108427830Y-81838893D01*
X108333773Y-81838978D01*
X108012227Y-81838978D01*
X107990647Y-81812327D01*
X107975877Y-81788614D01*
X107969067Y-81765600D01*
X107974949Y-81744594D01*
X107990647Y-81718873D01*
X108012227Y-81692222D01*
X108659684Y-81692222D01*
X108681264Y-81718873D01*
G36*
X108051915Y-80304772D02*
G01*
X108086481Y-80317636D01*
X108134826Y-80337395D01*
X108193825Y-80362619D01*
X108260355Y-80391881D01*
X108331291Y-80423750D01*
X108403507Y-80456799D01*
X108473880Y-80489599D01*
X108539285Y-80520720D01*
X108596597Y-80548735D01*
X108642692Y-80572214D01*
X108674446Y-80589728D01*
X108688733Y-80599849D01*
X108702102Y-80634257D01*
X108695741Y-80675954D01*
X108691044Y-80681319D01*
X108668893Y-80697148D01*
X108632132Y-80719350D01*
X108584415Y-80745767D01*
X108529393Y-80774240D01*
X108370150Y-80854014D01*
X108516742Y-80927201D01*
X108536032Y-80936897D01*
X108588380Y-80963875D01*
X108633170Y-80987904D01*
X108666154Y-81006668D01*
X108683089Y-81017854D01*
X108684332Y-81019000D01*
X108699619Y-81047121D01*
X108701302Y-81082183D01*
X108688733Y-81113224D01*
X108685884Y-81115650D01*
X108665259Y-81127910D01*
X108627708Y-81147648D01*
X108575880Y-81173552D01*
X108512423Y-81204315D01*
X108439985Y-81238625D01*
X108361216Y-81275175D01*
X108317093Y-81295415D01*
X108236365Y-81332188D01*
X108172687Y-81360645D01*
X108123752Y-81381669D01*
X108087257Y-81396146D01*
X108060895Y-81404961D01*
X108042361Y-81408996D01*
X108029352Y-81409138D01*
X108019561Y-81406270D01*
X107998678Y-81391613D01*
X107978377Y-81365010D01*
X107978035Y-81364255D01*
X107971034Y-81344665D01*
X107970504Y-81327210D01*
X107978478Y-81310298D01*
X107996989Y-81292337D01*
X108028071Y-81271737D01*
X108073756Y-81246905D01*
X108136078Y-81216250D01*
X108217071Y-81178180D01*
X108248454Y-81163546D01*
X108311638Y-81133797D01*
X108366244Y-81107703D01*
X108409290Y-81086708D01*
X108437793Y-81072261D01*
X108448770Y-81065809D01*
X108448189Y-81064450D01*
X108434242Y-81054458D01*
X108404704Y-81037167D01*
X108363087Y-81014570D01*
X108312903Y-80988662D01*
X108281414Y-80972689D01*
X108226061Y-80943739D01*
X108187044Y-80921251D01*
X108161566Y-80903035D01*
X108146831Y-80886904D01*
X108140042Y-80870670D01*
X108138400Y-80852143D01*
X108138875Y-80841640D01*
X108143082Y-80825524D01*
X108153946Y-80810210D01*
X108174219Y-80793612D01*
X108206654Y-80773643D01*
X108254004Y-80748217D01*
X108319022Y-80715248D01*
X108338277Y-80705515D01*
X108384946Y-80681057D01*
X108421109Y-80660822D01*
X108443497Y-80646689D01*
X108448845Y-80640540D01*
X108445573Y-80639173D01*
X108424664Y-80629798D01*
X108387725Y-80612938D01*
X108337874Y-80590021D01*
X108278226Y-80562480D01*
X108211898Y-80531745D01*
X108154677Y-80505030D01*
X108092688Y-80475407D01*
X108046949Y-80452336D01*
X108014908Y-80434357D01*
X107994014Y-80420010D01*
X107981718Y-80407834D01*
X107975466Y-80396368D01*
X107972574Y-80386958D01*
X107972425Y-80361853D01*
X107987768Y-80334710D01*
X107988753Y-80333410D01*
X108011388Y-80311326D01*
X108033613Y-80300277D01*
X108034253Y-80300231D01*
X108051915Y-80304772D01*
G37*
X108051915Y-80304772D02*
X108086481Y-80317636D01*
X108134826Y-80337395D01*
X108193825Y-80362619D01*
X108260355Y-80391881D01*
X108331291Y-80423750D01*
X108403507Y-80456799D01*
X108473880Y-80489599D01*
X108539285Y-80520720D01*
X108596597Y-80548735D01*
X108642692Y-80572214D01*
X108674446Y-80589728D01*
X108688733Y-80599849D01*
X108702102Y-80634257D01*
X108695741Y-80675954D01*
X108691044Y-80681319D01*
X108668893Y-80697148D01*
X108632132Y-80719350D01*
X108584415Y-80745767D01*
X108529393Y-80774240D01*
X108370150Y-80854014D01*
X108516742Y-80927201D01*
X108536032Y-80936897D01*
X108588380Y-80963875D01*
X108633170Y-80987904D01*
X108666154Y-81006668D01*
X108683089Y-81017854D01*
X108684332Y-81019000D01*
X108699619Y-81047121D01*
X108701302Y-81082183D01*
X108688733Y-81113224D01*
X108685884Y-81115650D01*
X108665259Y-81127910D01*
X108627708Y-81147648D01*
X108575880Y-81173552D01*
X108512423Y-81204315D01*
X108439985Y-81238625D01*
X108361216Y-81275175D01*
X108317093Y-81295415D01*
X108236365Y-81332188D01*
X108172687Y-81360645D01*
X108123752Y-81381669D01*
X108087257Y-81396146D01*
X108060895Y-81404961D01*
X108042361Y-81408996D01*
X108029352Y-81409138D01*
X108019561Y-81406270D01*
X107998678Y-81391613D01*
X107978377Y-81365010D01*
X107978035Y-81364255D01*
X107971034Y-81344665D01*
X107970504Y-81327210D01*
X107978478Y-81310298D01*
X107996989Y-81292337D01*
X108028071Y-81271737D01*
X108073756Y-81246905D01*
X108136078Y-81216250D01*
X108217071Y-81178180D01*
X108248454Y-81163546D01*
X108311638Y-81133797D01*
X108366244Y-81107703D01*
X108409290Y-81086708D01*
X108437793Y-81072261D01*
X108448770Y-81065809D01*
X108448189Y-81064450D01*
X108434242Y-81054458D01*
X108404704Y-81037167D01*
X108363087Y-81014570D01*
X108312903Y-80988662D01*
X108281414Y-80972689D01*
X108226061Y-80943739D01*
X108187044Y-80921251D01*
X108161566Y-80903035D01*
X108146831Y-80886904D01*
X108140042Y-80870670D01*
X108138400Y-80852143D01*
X108138875Y-80841640D01*
X108143082Y-80825524D01*
X108153946Y-80810210D01*
X108174219Y-80793612D01*
X108206654Y-80773643D01*
X108254004Y-80748217D01*
X108319022Y-80715248D01*
X108338277Y-80705515D01*
X108384946Y-80681057D01*
X108421109Y-80660822D01*
X108443497Y-80646689D01*
X108448845Y-80640540D01*
X108445573Y-80639173D01*
X108424664Y-80629798D01*
X108387725Y-80612938D01*
X108337874Y-80590021D01*
X108278226Y-80562480D01*
X108211898Y-80531745D01*
X108154677Y-80505030D01*
X108092688Y-80475407D01*
X108046949Y-80452336D01*
X108014908Y-80434357D01*
X107994014Y-80420010D01*
X107981718Y-80407834D01*
X107975466Y-80396368D01*
X107972574Y-80386958D01*
X107972425Y-80361853D01*
X107987768Y-80334710D01*
X107988753Y-80333410D01*
X108011388Y-80311326D01*
X108033613Y-80300277D01*
X108034253Y-80300231D01*
X108051915Y-80304772D01*
G36*
X108395526Y-78412825D02*
G01*
X108474311Y-78413050D01*
X108535021Y-78413668D01*
X108556089Y-78414225D01*
X108580396Y-78414867D01*
X108613175Y-78416837D01*
X108636095Y-78419765D01*
X108651897Y-78423842D01*
X108663319Y-78429257D01*
X108673100Y-78436197D01*
X108702845Y-78459594D01*
X108702251Y-78625286D01*
X108701953Y-78660082D01*
X108698522Y-78758565D01*
X108690839Y-78839527D01*
X108678282Y-78906621D01*
X108660227Y-78963504D01*
X108636052Y-79013831D01*
X108634135Y-79017190D01*
X108597417Y-79075002D01*
X108560451Y-79117356D01*
X108516966Y-79150172D01*
X108460689Y-79179372D01*
X108451073Y-79183654D01*
X108387887Y-79206231D01*
X108332509Y-79213203D01*
X108277483Y-79204601D01*
X108215351Y-79180459D01*
X108213658Y-79179663D01*
X108144236Y-79139212D01*
X108087638Y-79088527D01*
X108043070Y-79025802D01*
X108009741Y-78949226D01*
X107986861Y-78856991D01*
X107973636Y-78747288D01*
X107969275Y-78618309D01*
X107969270Y-78614737D01*
X107969372Y-78570844D01*
X108115822Y-78570844D01*
X108116270Y-78658333D01*
X108118746Y-78725253D01*
X108129998Y-78817651D01*
X108149537Y-78896966D01*
X108176511Y-78958940D01*
X108197240Y-78989880D01*
X108227006Y-79018000D01*
X108269434Y-79041340D01*
X108285400Y-79048467D01*
X108317902Y-79060291D01*
X108342333Y-79062721D01*
X108367061Y-79057108D01*
X108382939Y-79051382D01*
X108442847Y-79018452D01*
X108488600Y-78971114D01*
X108521736Y-78907348D01*
X108543790Y-78825139D01*
X108544292Y-78822345D01*
X108550255Y-78776060D01*
X108554483Y-78719664D01*
X108556089Y-78664726D01*
X108556089Y-78570844D01*
X108115822Y-78570844D01*
X107969372Y-78570844D01*
X107969410Y-78554717D01*
X107970446Y-78512786D01*
X107973040Y-78484672D01*
X107977853Y-78466103D01*
X107985544Y-78452806D01*
X107996776Y-78440509D01*
X108024485Y-78412800D01*
X108333920Y-78412800D01*
X108395526Y-78412825D01*
G37*
X108395526Y-78412825D02*
X108474311Y-78413050D01*
X108535021Y-78413668D01*
X108556089Y-78414225D01*
X108580396Y-78414867D01*
X108613175Y-78416837D01*
X108636095Y-78419765D01*
X108651897Y-78423842D01*
X108663319Y-78429257D01*
X108673100Y-78436197D01*
X108702845Y-78459594D01*
X108702251Y-78625286D01*
X108701953Y-78660082D01*
X108698522Y-78758565D01*
X108690839Y-78839527D01*
X108678282Y-78906621D01*
X108660227Y-78963504D01*
X108636052Y-79013831D01*
X108634135Y-79017190D01*
X108597417Y-79075002D01*
X108560451Y-79117356D01*
X108516966Y-79150172D01*
X108460689Y-79179372D01*
X108451073Y-79183654D01*
X108387887Y-79206231D01*
X108332509Y-79213203D01*
X108277483Y-79204601D01*
X108215351Y-79180459D01*
X108213658Y-79179663D01*
X108144236Y-79139212D01*
X108087638Y-79088527D01*
X108043070Y-79025802D01*
X108009741Y-78949226D01*
X107986861Y-78856991D01*
X107973636Y-78747288D01*
X107969275Y-78618309D01*
X107969270Y-78614737D01*
X107969372Y-78570844D01*
X108115822Y-78570844D01*
X108116270Y-78658333D01*
X108118746Y-78725253D01*
X108129998Y-78817651D01*
X108149537Y-78896966D01*
X108176511Y-78958940D01*
X108197240Y-78989880D01*
X108227006Y-79018000D01*
X108269434Y-79041340D01*
X108285400Y-79048467D01*
X108317902Y-79060291D01*
X108342333Y-79062721D01*
X108367061Y-79057108D01*
X108382939Y-79051382D01*
X108442847Y-79018452D01*
X108488600Y-78971114D01*
X108521736Y-78907348D01*
X108543790Y-78825139D01*
X108544292Y-78822345D01*
X108550255Y-78776060D01*
X108554483Y-78719664D01*
X108556089Y-78664726D01*
X108556089Y-78570844D01*
X108115822Y-78570844D01*
X107969372Y-78570844D01*
X107969410Y-78554717D01*
X107970446Y-78512786D01*
X107973040Y-78484672D01*
X107977853Y-78466103D01*
X107985544Y-78452806D01*
X107996776Y-78440509D01*
X108024485Y-78412800D01*
X108333920Y-78412800D01*
X108395526Y-78412825D01*
G36*
X108406911Y-77396829D02*
G01*
X108485228Y-77397061D01*
X108545496Y-77397681D01*
X108590393Y-77398874D01*
X108622602Y-77400821D01*
X108644800Y-77403706D01*
X108659669Y-77407712D01*
X108669889Y-77413021D01*
X108678138Y-77419817D01*
X108682795Y-77424332D01*
X108689282Y-77432562D01*
X108694194Y-77443922D01*
X108697749Y-77461190D01*
X108700167Y-77487145D01*
X108701667Y-77524564D01*
X108702467Y-77576227D01*
X108702787Y-77644911D01*
X108702845Y-77733394D01*
X108702838Y-77753069D01*
X108702572Y-77840094D01*
X108701806Y-77907746D01*
X108700392Y-77958701D01*
X108698180Y-77995633D01*
X108695022Y-78021217D01*
X108690769Y-78038129D01*
X108685271Y-78049043D01*
X108675285Y-78059536D01*
X108644168Y-78072797D01*
X108608280Y-78071614D01*
X108576733Y-78055450D01*
X108574457Y-78053261D01*
X108568189Y-78044573D01*
X108563523Y-78031231D01*
X108560227Y-78010248D01*
X108558068Y-77978637D01*
X108556814Y-77933410D01*
X108556231Y-77871580D01*
X108556089Y-77790161D01*
X108556089Y-77543555D01*
X108398045Y-77543555D01*
X108398045Y-77705994D01*
X108397964Y-77741662D01*
X108397167Y-77797432D01*
X108395162Y-77836570D01*
X108391521Y-77863024D01*
X108385812Y-77880741D01*
X108377607Y-77893671D01*
X108374423Y-77897314D01*
X108343448Y-77915722D01*
X108307112Y-77916356D01*
X108273493Y-77898817D01*
X108273424Y-77898755D01*
X108264798Y-77889084D01*
X108258742Y-77875791D01*
X108254811Y-77855083D01*
X108252556Y-77823172D01*
X108251531Y-77776266D01*
X108251289Y-77710576D01*
X108251289Y-77542429D01*
X108186378Y-77545814D01*
X108121467Y-77549200D01*
X108118414Y-77791277D01*
X108118086Y-77816293D01*
X108116606Y-77897913D01*
X108114222Y-77960232D01*
X108110227Y-78005846D01*
X108103913Y-78037348D01*
X108094574Y-78057333D01*
X108081503Y-78068396D01*
X108063992Y-78073131D01*
X108041335Y-78074133D01*
X108038970Y-78074127D01*
X108018939Y-78072973D01*
X108003146Y-78068176D01*
X107991090Y-78057368D01*
X107982267Y-78038183D01*
X107976175Y-78008255D01*
X107972311Y-77965217D01*
X107970174Y-77906701D01*
X107969260Y-77830343D01*
X107969067Y-77733774D01*
X107969067Y-77443594D01*
X107998811Y-77420197D01*
X108005495Y-77415248D01*
X108016066Y-77409404D01*
X108030153Y-77404943D01*
X108050478Y-77401679D01*
X108079765Y-77399426D01*
X108120737Y-77397998D01*
X108176117Y-77397208D01*
X108248628Y-77396871D01*
X108340994Y-77396800D01*
X108406911Y-77396829D01*
G37*
X108406911Y-77396829D02*
X108485228Y-77397061D01*
X108545496Y-77397681D01*
X108590393Y-77398874D01*
X108622602Y-77400821D01*
X108644800Y-77403706D01*
X108659669Y-77407712D01*
X108669889Y-77413021D01*
X108678138Y-77419817D01*
X108682795Y-77424332D01*
X108689282Y-77432562D01*
X108694194Y-77443922D01*
X108697749Y-77461190D01*
X108700167Y-77487145D01*
X108701667Y-77524564D01*
X108702467Y-77576227D01*
X108702787Y-77644911D01*
X108702845Y-77733394D01*
X108702838Y-77753069D01*
X108702572Y-77840094D01*
X108701806Y-77907746D01*
X108700392Y-77958701D01*
X108698180Y-77995633D01*
X108695022Y-78021217D01*
X108690769Y-78038129D01*
X108685271Y-78049043D01*
X108675285Y-78059536D01*
X108644168Y-78072797D01*
X108608280Y-78071614D01*
X108576733Y-78055450D01*
X108574457Y-78053261D01*
X108568189Y-78044573D01*
X108563523Y-78031231D01*
X108560227Y-78010248D01*
X108558068Y-77978637D01*
X108556814Y-77933410D01*
X108556231Y-77871580D01*
X108556089Y-77790161D01*
X108556089Y-77543555D01*
X108398045Y-77543555D01*
X108398045Y-77705994D01*
X108397964Y-77741662D01*
X108397167Y-77797432D01*
X108395162Y-77836570D01*
X108391521Y-77863024D01*
X108385812Y-77880741D01*
X108377607Y-77893671D01*
X108374423Y-77897314D01*
X108343448Y-77915722D01*
X108307112Y-77916356D01*
X108273493Y-77898817D01*
X108273424Y-77898755D01*
X108264798Y-77889084D01*
X108258742Y-77875791D01*
X108254811Y-77855083D01*
X108252556Y-77823172D01*
X108251531Y-77776266D01*
X108251289Y-77710576D01*
X108251289Y-77542429D01*
X108186378Y-77545814D01*
X108121467Y-77549200D01*
X108118414Y-77791277D01*
X108118086Y-77816293D01*
X108116606Y-77897913D01*
X108114222Y-77960232D01*
X108110227Y-78005846D01*
X108103913Y-78037348D01*
X108094574Y-78057333D01*
X108081503Y-78068396D01*
X108063992Y-78073131D01*
X108041335Y-78074133D01*
X108038970Y-78074127D01*
X108018939Y-78072973D01*
X108003146Y-78068176D01*
X107991090Y-78057368D01*
X107982267Y-78038183D01*
X107976175Y-78008255D01*
X107972311Y-77965217D01*
X107970174Y-77906701D01*
X107969260Y-77830343D01*
X107969067Y-77733774D01*
X107969067Y-77443594D01*
X107998811Y-77420197D01*
X108005495Y-77415248D01*
X108016066Y-77409404D01*
X108030153Y-77404943D01*
X108050478Y-77401679D01*
X108079765Y-77399426D01*
X108120737Y-77397998D01*
X108176117Y-77397208D01*
X108248628Y-77396871D01*
X108340994Y-77396800D01*
X108406911Y-77396829D01*
G36*
X108394486Y-76211489D02*
G01*
X108473573Y-76211708D01*
X108534516Y-76212317D01*
X108580062Y-76213508D01*
X108612963Y-76215471D01*
X108635968Y-76218397D01*
X108651826Y-76222477D01*
X108663286Y-76227903D01*
X108673100Y-76234864D01*
X108697493Y-76265292D01*
X108700372Y-76300235D01*
X108681282Y-76337216D01*
X108677807Y-76341400D01*
X108669279Y-76349576D01*
X108657728Y-76355636D01*
X108639896Y-76360019D01*
X108612524Y-76363161D01*
X108572354Y-76365498D01*
X108516128Y-76367469D01*
X108440589Y-76369511D01*
X108221458Y-76375155D01*
X108462099Y-76640444D01*
X108528875Y-76714278D01*
X108586991Y-76779458D01*
X108631949Y-76831652D01*
X108664871Y-76872727D01*
X108686879Y-76904545D01*
X108699094Y-76928974D01*
X108702639Y-76947876D01*
X108698636Y-76963117D01*
X108688207Y-76976561D01*
X108672474Y-76990073D01*
X108663991Y-76996318D01*
X108653413Y-77001950D01*
X108639255Y-77006161D01*
X108618803Y-77009113D01*
X108589342Y-77010968D01*
X108548161Y-77011887D01*
X108492544Y-77012032D01*
X108419779Y-77011565D01*
X108327151Y-77010648D01*
X108012199Y-77007333D01*
X107990633Y-76980682D01*
X107974441Y-76954617D01*
X107971670Y-76921759D01*
X107990623Y-76887228D01*
X107994208Y-76882916D01*
X108002737Y-76874784D01*
X108014329Y-76868755D01*
X108032235Y-76864394D01*
X108059706Y-76861266D01*
X108099994Y-76858937D01*
X108156351Y-76856971D01*
X108232029Y-76854933D01*
X108451878Y-76849289D01*
X108288084Y-76668666D01*
X108209451Y-76581928D01*
X108141058Y-76506157D01*
X108085708Y-76444020D01*
X108042338Y-76393922D01*
X108009881Y-76354265D01*
X107987273Y-76323452D01*
X107973448Y-76299886D01*
X107967343Y-76281970D01*
X107967892Y-76268107D01*
X107974029Y-76256699D01*
X107984691Y-76246150D01*
X107998811Y-76234864D01*
X108004772Y-76230411D01*
X108015268Y-76224412D01*
X108029093Y-76219833D01*
X108048998Y-76216481D01*
X108077732Y-76214167D01*
X108118045Y-76212699D01*
X108172687Y-76211887D01*
X108244407Y-76211540D01*
X108335956Y-76211466D01*
X108394486Y-76211489D01*
G37*
X108394486Y-76211489D02*
X108473573Y-76211708D01*
X108534516Y-76212317D01*
X108580062Y-76213508D01*
X108612963Y-76215471D01*
X108635968Y-76218397D01*
X108651826Y-76222477D01*
X108663286Y-76227903D01*
X108673100Y-76234864D01*
X108697493Y-76265292D01*
X108700372Y-76300235D01*
X108681282Y-76337216D01*
X108677807Y-76341400D01*
X108669279Y-76349576D01*
X108657728Y-76355636D01*
X108639896Y-76360019D01*
X108612524Y-76363161D01*
X108572354Y-76365498D01*
X108516128Y-76367469D01*
X108440589Y-76369511D01*
X108221458Y-76375155D01*
X108462099Y-76640444D01*
X108528875Y-76714278D01*
X108586991Y-76779458D01*
X108631949Y-76831652D01*
X108664871Y-76872727D01*
X108686879Y-76904545D01*
X108699094Y-76928974D01*
X108702639Y-76947876D01*
X108698636Y-76963117D01*
X108688207Y-76976561D01*
X108672474Y-76990073D01*
X108663991Y-76996318D01*
X108653413Y-77001950D01*
X108639255Y-77006161D01*
X108618803Y-77009113D01*
X108589342Y-77010968D01*
X108548161Y-77011887D01*
X108492544Y-77012032D01*
X108419779Y-77011565D01*
X108327151Y-77010648D01*
X108012199Y-77007333D01*
X107990633Y-76980682D01*
X107974441Y-76954617D01*
X107971670Y-76921759D01*
X107990623Y-76887228D01*
X107994208Y-76882916D01*
X108002737Y-76874784D01*
X108014329Y-76868755D01*
X108032235Y-76864394D01*
X108059706Y-76861266D01*
X108099994Y-76858937D01*
X108156351Y-76856971D01*
X108232029Y-76854933D01*
X108451878Y-76849289D01*
X108288084Y-76668666D01*
X108209451Y-76581928D01*
X108141058Y-76506157D01*
X108085708Y-76444020D01*
X108042338Y-76393922D01*
X108009881Y-76354265D01*
X107987273Y-76323452D01*
X107973448Y-76299886D01*
X107967343Y-76281970D01*
X107967892Y-76268107D01*
X107974029Y-76256699D01*
X107984691Y-76246150D01*
X107998811Y-76234864D01*
X108004772Y-76230411D01*
X108015268Y-76224412D01*
X108029093Y-76219833D01*
X108048998Y-76216481D01*
X108077732Y-76214167D01*
X108118045Y-76212699D01*
X108172687Y-76211887D01*
X108244407Y-76211540D01*
X108335956Y-76211466D01*
X108394486Y-76211489D01*
G36*
X108354259Y-75027702D02*
G01*
X108405592Y-75040643D01*
X108462118Y-75063806D01*
X108516035Y-75093698D01*
X108559539Y-75126827D01*
X108569887Y-75137023D01*
X108621662Y-75204108D01*
X108661554Y-75284234D01*
X108685956Y-75370444D01*
X108694068Y-75425408D01*
X108700673Y-75518861D01*
X108698586Y-75608642D01*
X108688340Y-75691131D01*
X108670470Y-75762714D01*
X108645508Y-75819772D01*
X108613988Y-75858689D01*
X108612012Y-75860064D01*
X108586786Y-75867152D01*
X108539535Y-75871391D01*
X108470071Y-75872800D01*
X108407838Y-75871940D01*
X108360456Y-75867220D01*
X108328353Y-75855530D01*
X108308800Y-75833761D01*
X108299070Y-75798802D01*
X108296433Y-75747544D01*
X108298161Y-75676877D01*
X108301173Y-75628257D01*
X108309366Y-75578061D01*
X108323419Y-75545567D01*
X108344654Y-75528108D01*
X108374394Y-75523017D01*
X108378936Y-75523123D01*
X108413730Y-75531825D01*
X108437147Y-75555835D01*
X108450347Y-75597100D01*
X108454489Y-75657569D01*
X108454489Y-75726044D01*
X108492841Y-75726044D01*
X108501976Y-75725994D01*
X108519227Y-75723773D01*
X108529521Y-75714506D01*
X108536459Y-75693125D01*
X108543641Y-75654564D01*
X108544575Y-75649090D01*
X108554478Y-75552140D01*
X108551559Y-75462148D01*
X108536829Y-75381240D01*
X108511299Y-75311541D01*
X108475978Y-75255176D01*
X108431879Y-75214271D01*
X108380012Y-75190949D01*
X108321388Y-75187337D01*
X108292494Y-75192855D01*
X108236604Y-75219539D01*
X108190945Y-75265727D01*
X108156108Y-75330709D01*
X108132690Y-75413771D01*
X108128241Y-75438445D01*
X108117742Y-75527774D01*
X108118971Y-75607581D01*
X108131906Y-75685674D01*
X108138696Y-75720817D01*
X108139713Y-75766255D01*
X108127182Y-75797570D01*
X108100395Y-75817723D01*
X108072148Y-75824107D01*
X108040924Y-75814621D01*
X108027499Y-75805292D01*
X108003967Y-75771057D01*
X107986095Y-75718435D01*
X107974599Y-75649919D01*
X107970192Y-75568000D01*
X107974179Y-75470850D01*
X107990494Y-75364843D01*
X108018545Y-75271031D01*
X108057452Y-75192235D01*
X108106334Y-75131281D01*
X108139195Y-75105211D01*
X108188394Y-75075703D01*
X108242252Y-75050432D01*
X108293419Y-75032782D01*
X108334544Y-75026142D01*
X108354259Y-75027702D01*
G37*
X108354259Y-75027702D02*
X108405592Y-75040643D01*
X108462118Y-75063806D01*
X108516035Y-75093698D01*
X108559539Y-75126827D01*
X108569887Y-75137023D01*
X108621662Y-75204108D01*
X108661554Y-75284234D01*
X108685956Y-75370444D01*
X108694068Y-75425408D01*
X108700673Y-75518861D01*
X108698586Y-75608642D01*
X108688340Y-75691131D01*
X108670470Y-75762714D01*
X108645508Y-75819772D01*
X108613988Y-75858689D01*
X108612012Y-75860064D01*
X108586786Y-75867152D01*
X108539535Y-75871391D01*
X108470071Y-75872800D01*
X108407838Y-75871940D01*
X108360456Y-75867220D01*
X108328353Y-75855530D01*
X108308800Y-75833761D01*
X108299070Y-75798802D01*
X108296433Y-75747544D01*
X108298161Y-75676877D01*
X108301173Y-75628257D01*
X108309366Y-75578061D01*
X108323419Y-75545567D01*
X108344654Y-75528108D01*
X108374394Y-75523017D01*
X108378936Y-75523123D01*
X108413730Y-75531825D01*
X108437147Y-75555835D01*
X108450347Y-75597100D01*
X108454489Y-75657569D01*
X108454489Y-75726044D01*
X108492841Y-75726044D01*
X108501976Y-75725994D01*
X108519227Y-75723773D01*
X108529521Y-75714506D01*
X108536459Y-75693125D01*
X108543641Y-75654564D01*
X108544575Y-75649090D01*
X108554478Y-75552140D01*
X108551559Y-75462148D01*
X108536829Y-75381240D01*
X108511299Y-75311541D01*
X108475978Y-75255176D01*
X108431879Y-75214271D01*
X108380012Y-75190949D01*
X108321388Y-75187337D01*
X108292494Y-75192855D01*
X108236604Y-75219539D01*
X108190945Y-75265727D01*
X108156108Y-75330709D01*
X108132690Y-75413771D01*
X108128241Y-75438445D01*
X108117742Y-75527774D01*
X108118971Y-75607581D01*
X108131906Y-75685674D01*
X108138696Y-75720817D01*
X108139713Y-75766255D01*
X108127182Y-75797570D01*
X108100395Y-75817723D01*
X108072148Y-75824107D01*
X108040924Y-75814621D01*
X108027499Y-75805292D01*
X108003967Y-75771057D01*
X107986095Y-75718435D01*
X107974599Y-75649919D01*
X107970192Y-75568000D01*
X107974179Y-75470850D01*
X107990494Y-75364843D01*
X108018545Y-75271031D01*
X108057452Y-75192235D01*
X108106334Y-75131281D01*
X108139195Y-75105211D01*
X108188394Y-75075703D01*
X108242252Y-75050432D01*
X108293419Y-75032782D01*
X108334544Y-75026142D01*
X108354259Y-75027702D01*
G36*
X108421567Y-74552041D02*
G01*
X108495789Y-74552299D01*
X108552541Y-74552970D01*
X108594512Y-74554248D01*
X108624389Y-74556327D01*
X108644861Y-74559401D01*
X108658614Y-74563666D01*
X108668337Y-74569316D01*
X108676717Y-74576545D01*
X108698181Y-74608009D01*
X108699947Y-74643174D01*
X108680267Y-74676178D01*
X108674398Y-74681484D01*
X108665314Y-74686934D01*
X108651973Y-74691100D01*
X108631757Y-74694154D01*
X108602049Y-74696268D01*
X108560232Y-74697614D01*
X108503689Y-74698362D01*
X108429802Y-74698686D01*
X108335956Y-74698755D01*
X108260294Y-74698716D01*
X108182385Y-74698461D01*
X108122375Y-74697817D01*
X108077648Y-74696613D01*
X108045585Y-74694676D01*
X108023571Y-74691836D01*
X108008987Y-74687921D01*
X107999218Y-74682758D01*
X107991645Y-74676178D01*
X107972623Y-74646994D01*
X107973463Y-74613863D01*
X107996776Y-74579709D01*
X108024485Y-74552000D01*
X108337537Y-74552000D01*
X108421567Y-74552041D01*
G37*
X108421567Y-74552041D02*
X108495789Y-74552299D01*
X108552541Y-74552970D01*
X108594512Y-74554248D01*
X108624389Y-74556327D01*
X108644861Y-74559401D01*
X108658614Y-74563666D01*
X108668337Y-74569316D01*
X108676717Y-74576545D01*
X108698181Y-74608009D01*
X108699947Y-74643174D01*
X108680267Y-74676178D01*
X108674398Y-74681484D01*
X108665314Y-74686934D01*
X108651973Y-74691100D01*
X108631757Y-74694154D01*
X108602049Y-74696268D01*
X108560232Y-74697614D01*
X108503689Y-74698362D01*
X108429802Y-74698686D01*
X108335956Y-74698755D01*
X108260294Y-74698716D01*
X108182385Y-74698461D01*
X108122375Y-74697817D01*
X108077648Y-74696613D01*
X108045585Y-74694676D01*
X108023571Y-74691836D01*
X108008987Y-74687921D01*
X107999218Y-74682758D01*
X107991645Y-74676178D01*
X107972623Y-74646994D01*
X107973463Y-74613863D01*
X107996776Y-74579709D01*
X108024485Y-74552000D01*
X108337537Y-74552000D01*
X108421567Y-74552041D01*
G36*
X108220232Y-73424048D02*
G01*
X108245029Y-73429840D01*
X108266699Y-73444647D01*
X108294049Y-73472620D01*
X108301378Y-73480598D01*
X108322281Y-73504308D01*
X108339251Y-73526702D01*
X108353205Y-73550735D01*
X108365056Y-73579363D01*
X108375720Y-73615540D01*
X108386111Y-73662220D01*
X108397146Y-73722359D01*
X108409738Y-73798910D01*
X108424804Y-73894829D01*
X108427838Y-73913192D01*
X108441458Y-73975522D01*
X108457192Y-74020740D01*
X108474263Y-74047024D01*
X108491897Y-74052553D01*
X108496168Y-74049932D01*
X108511233Y-74032000D01*
X108527867Y-74003874D01*
X108533857Y-73991074D01*
X108541050Y-73969776D01*
X108545827Y-73943390D01*
X108548646Y-73907546D01*
X108549964Y-73857872D01*
X108550237Y-73790000D01*
X108550164Y-73772215D01*
X108549053Y-73704594D01*
X108546828Y-73639655D01*
X108543762Y-73584030D01*
X108540127Y-73544349D01*
X108536059Y-73508838D01*
X108535276Y-73479585D01*
X108539876Y-73460685D01*
X108550551Y-73445571D01*
X108554144Y-73441915D01*
X108585918Y-73425573D01*
X108621572Y-73426893D01*
X108652190Y-73445850D01*
X108663796Y-73466220D01*
X108676491Y-73502204D01*
X108686541Y-73544628D01*
X108687140Y-73548078D01*
X108692356Y-73590748D01*
X108696730Y-73648134D01*
X108699818Y-73713151D01*
X108701177Y-73778711D01*
X108701218Y-73794943D01*
X108698741Y-73893256D01*
X108690735Y-73973308D01*
X108676203Y-74038487D01*
X108654149Y-74092183D01*
X108623576Y-74137784D01*
X108583486Y-74178677D01*
X108557259Y-74198798D01*
X108527712Y-74210424D01*
X108487995Y-74213333D01*
X108476026Y-74213192D01*
X108443345Y-74209319D01*
X108416819Y-74196935D01*
X108385971Y-74171770D01*
X108363831Y-74150558D01*
X108341285Y-74124162D01*
X108322917Y-74094445D01*
X108307661Y-74058215D01*
X108294449Y-74012283D01*
X108282214Y-73953456D01*
X108269889Y-73878544D01*
X108256406Y-73784355D01*
X108249396Y-73739043D01*
X108234837Y-73671089D01*
X108218337Y-73621953D01*
X108200439Y-73592386D01*
X108181685Y-73583136D01*
X108162615Y-73594952D01*
X108143771Y-73628584D01*
X108142557Y-73631630D01*
X108130479Y-73677989D01*
X108122279Y-73740639D01*
X108118119Y-73814073D01*
X108118161Y-73892783D01*
X108122569Y-73971261D01*
X108131505Y-74044000D01*
X108132154Y-74047927D01*
X108139861Y-74096743D01*
X108143473Y-74128995D01*
X108142876Y-74149992D01*
X108137954Y-74165046D01*
X108128596Y-74179466D01*
X108127725Y-74180636D01*
X108097351Y-74205153D01*
X108061850Y-74209946D01*
X108027269Y-74194140D01*
X108022813Y-74189594D01*
X108007673Y-74159980D01*
X107994550Y-74112998D01*
X107983750Y-74052694D01*
X107975581Y-73983112D01*
X107970351Y-73908297D01*
X107968367Y-73832294D01*
X107969936Y-73759147D01*
X107975366Y-73692900D01*
X107984964Y-73637600D01*
X107999825Y-73586717D01*
X108032958Y-73515405D01*
X108075640Y-73464248D01*
X108127705Y-73433425D01*
X108188983Y-73423111D01*
X108220232Y-73424048D01*
G37*
X108220232Y-73424048D02*
X108245029Y-73429840D01*
X108266699Y-73444647D01*
X108294049Y-73472620D01*
X108301378Y-73480598D01*
X108322281Y-73504308D01*
X108339251Y-73526702D01*
X108353205Y-73550735D01*
X108365056Y-73579363D01*
X108375720Y-73615540D01*
X108386111Y-73662220D01*
X108397146Y-73722359D01*
X108409738Y-73798910D01*
X108424804Y-73894829D01*
X108427838Y-73913192D01*
X108441458Y-73975522D01*
X108457192Y-74020740D01*
X108474263Y-74047024D01*
X108491897Y-74052553D01*
X108496168Y-74049932D01*
X108511233Y-74032000D01*
X108527867Y-74003874D01*
X108533857Y-73991074D01*
X108541050Y-73969776D01*
X108545827Y-73943390D01*
X108548646Y-73907546D01*
X108549964Y-73857872D01*
X108550237Y-73790000D01*
X108550164Y-73772215D01*
X108549053Y-73704594D01*
X108546828Y-73639655D01*
X108543762Y-73584030D01*
X108540127Y-73544349D01*
X108536059Y-73508838D01*
X108535276Y-73479585D01*
X108539876Y-73460685D01*
X108550551Y-73445571D01*
X108554144Y-73441915D01*
X108585918Y-73425573D01*
X108621572Y-73426893D01*
X108652190Y-73445850D01*
X108663796Y-73466220D01*
X108676491Y-73502204D01*
X108686541Y-73544628D01*
X108687140Y-73548078D01*
X108692356Y-73590748D01*
X108696730Y-73648134D01*
X108699818Y-73713151D01*
X108701177Y-73778711D01*
X108701218Y-73794943D01*
X108698741Y-73893256D01*
X108690735Y-73973308D01*
X108676203Y-74038487D01*
X108654149Y-74092183D01*
X108623576Y-74137784D01*
X108583486Y-74178677D01*
X108557259Y-74198798D01*
X108527712Y-74210424D01*
X108487995Y-74213333D01*
X108476026Y-74213192D01*
X108443345Y-74209319D01*
X108416819Y-74196935D01*
X108385971Y-74171770D01*
X108363831Y-74150558D01*
X108341285Y-74124162D01*
X108322917Y-74094445D01*
X108307661Y-74058215D01*
X108294449Y-74012283D01*
X108282214Y-73953456D01*
X108269889Y-73878544D01*
X108256406Y-73784355D01*
X108249396Y-73739043D01*
X108234837Y-73671089D01*
X108218337Y-73621953D01*
X108200439Y-73592386D01*
X108181685Y-73583136D01*
X108162615Y-73594952D01*
X108143771Y-73628584D01*
X108142557Y-73631630D01*
X108130479Y-73677989D01*
X108122279Y-73740639D01*
X108118119Y-73814073D01*
X108118161Y-73892783D01*
X108122569Y-73971261D01*
X108131505Y-74044000D01*
X108132154Y-74047927D01*
X108139861Y-74096743D01*
X108143473Y-74128995D01*
X108142876Y-74149992D01*
X108137954Y-74165046D01*
X108128596Y-74179466D01*
X108127725Y-74180636D01*
X108097351Y-74205153D01*
X108061850Y-74209946D01*
X108027269Y-74194140D01*
X108022813Y-74189594D01*
X108007673Y-74159980D01*
X107994550Y-74112998D01*
X107983750Y-74052694D01*
X107975581Y-73983112D01*
X107970351Y-73908297D01*
X107968367Y-73832294D01*
X107969936Y-73759147D01*
X107975366Y-73692900D01*
X107984964Y-73637600D01*
X107999825Y-73586717D01*
X108032958Y-73515405D01*
X108075640Y-73464248D01*
X108127705Y-73433425D01*
X108188983Y-73423111D01*
X108220232Y-73424048D01*
G36*
X108410713Y-72452303D02*
G01*
X108488889Y-72452552D01*
X108549103Y-72453188D01*
X108593982Y-72454385D01*
X108626152Y-72456316D01*
X108648239Y-72459154D01*
X108662870Y-72463073D01*
X108672670Y-72468245D01*
X108680267Y-72474844D01*
X108683444Y-72478178D01*
X108689554Y-72486700D01*
X108694229Y-72498702D01*
X108697659Y-72516913D01*
X108700036Y-72544060D01*
X108701552Y-72582871D01*
X108702398Y-72636076D01*
X108702765Y-72706402D01*
X108702845Y-72796578D01*
X108702833Y-72838686D01*
X108702651Y-72919833D01*
X108702098Y-72982325D01*
X108700982Y-73028891D01*
X108699113Y-73062259D01*
X108696298Y-73085156D01*
X108692346Y-73100312D01*
X108687066Y-73110454D01*
X108680267Y-73118311D01*
X108658667Y-73133037D01*
X108629467Y-73140889D01*
X108605560Y-73135390D01*
X108578667Y-73118311D01*
X108574059Y-73113332D01*
X108567772Y-73103557D01*
X108563146Y-73089441D01*
X108559930Y-73067946D01*
X108557870Y-73036032D01*
X108556712Y-72990658D01*
X108556202Y-72928787D01*
X108556089Y-72847378D01*
X108556089Y-72599022D01*
X108398045Y-72599022D01*
X108398045Y-72760199D01*
X108397899Y-72796017D01*
X108396176Y-72861641D01*
X108391741Y-72908882D01*
X108383637Y-72940617D01*
X108370906Y-72959723D01*
X108352592Y-72969077D01*
X108327738Y-72971555D01*
X108307482Y-72970758D01*
X108285656Y-72965506D01*
X108270304Y-72952712D01*
X108260309Y-72929372D01*
X108254553Y-72892483D01*
X108251919Y-72839041D01*
X108251289Y-72766042D01*
X108251289Y-72597895D01*
X108186378Y-72601281D01*
X108121467Y-72604666D01*
X108118418Y-72852383D01*
X108117539Y-72914974D01*
X108116095Y-72983435D01*
X108114164Y-73034339D01*
X108111514Y-73070592D01*
X108107910Y-73095099D01*
X108103121Y-73110765D01*
X108096913Y-73120494D01*
X108090510Y-73126509D01*
X108058828Y-73139518D01*
X108023142Y-73135957D01*
X107992084Y-73116182D01*
X107989161Y-73112931D01*
X107982810Y-73103951D01*
X107977957Y-73091847D01*
X107974403Y-73073841D01*
X107971946Y-73047153D01*
X107970385Y-73009003D01*
X107969518Y-72956614D01*
X107969146Y-72887206D01*
X107969067Y-72797999D01*
X107969083Y-72743266D01*
X107969275Y-72666169D01*
X107969860Y-72607223D01*
X107971051Y-72563636D01*
X107973064Y-72532617D01*
X107976112Y-72511375D01*
X107980409Y-72497118D01*
X107986172Y-72487055D01*
X107993612Y-72478394D01*
X107995293Y-72476609D01*
X108002832Y-72469365D01*
X108011850Y-72463723D01*
X108024984Y-72459483D01*
X108044872Y-72456444D01*
X108074151Y-72454406D01*
X108115458Y-72453170D01*
X108171431Y-72452535D01*
X108244707Y-72452300D01*
X108337923Y-72452266D01*
X108410713Y-72452303D01*
G37*
X108410713Y-72452303D02*
X108488889Y-72452552D01*
X108549103Y-72453188D01*
X108593982Y-72454385D01*
X108626152Y-72456316D01*
X108648239Y-72459154D01*
X108662870Y-72463073D01*
X108672670Y-72468245D01*
X108680267Y-72474844D01*
X108683444Y-72478178D01*
X108689554Y-72486700D01*
X108694229Y-72498702D01*
X108697659Y-72516913D01*
X108700036Y-72544060D01*
X108701552Y-72582871D01*
X108702398Y-72636076D01*
X108702765Y-72706402D01*
X108702845Y-72796578D01*
X108702833Y-72838686D01*
X108702651Y-72919833D01*
X108702098Y-72982325D01*
X108700982Y-73028891D01*
X108699113Y-73062259D01*
X108696298Y-73085156D01*
X108692346Y-73100312D01*
X108687066Y-73110454D01*
X108680267Y-73118311D01*
X108658667Y-73133037D01*
X108629467Y-73140889D01*
X108605560Y-73135390D01*
X108578667Y-73118311D01*
X108574059Y-73113332D01*
X108567772Y-73103557D01*
X108563146Y-73089441D01*
X108559930Y-73067946D01*
X108557870Y-73036032D01*
X108556712Y-72990658D01*
X108556202Y-72928787D01*
X108556089Y-72847378D01*
X108556089Y-72599022D01*
X108398045Y-72599022D01*
X108398045Y-72760199D01*
X108397899Y-72796017D01*
X108396176Y-72861641D01*
X108391741Y-72908882D01*
X108383637Y-72940617D01*
X108370906Y-72959723D01*
X108352592Y-72969077D01*
X108327738Y-72971555D01*
X108307482Y-72970758D01*
X108285656Y-72965506D01*
X108270304Y-72952712D01*
X108260309Y-72929372D01*
X108254553Y-72892483D01*
X108251919Y-72839041D01*
X108251289Y-72766042D01*
X108251289Y-72597895D01*
X108186378Y-72601281D01*
X108121467Y-72604666D01*
X108118418Y-72852383D01*
X108117539Y-72914974D01*
X108116095Y-72983435D01*
X108114164Y-73034339D01*
X108111514Y-73070592D01*
X108107910Y-73095099D01*
X108103121Y-73110765D01*
X108096913Y-73120494D01*
X108090510Y-73126509D01*
X108058828Y-73139518D01*
X108023142Y-73135957D01*
X107992084Y-73116182D01*
X107989161Y-73112931D01*
X107982810Y-73103951D01*
X107977957Y-73091847D01*
X107974403Y-73073841D01*
X107971946Y-73047153D01*
X107970385Y-73009003D01*
X107969518Y-72956614D01*
X107969146Y-72887206D01*
X107969067Y-72797999D01*
X107969083Y-72743266D01*
X107969275Y-72666169D01*
X107969860Y-72607223D01*
X107971051Y-72563636D01*
X107973064Y-72532617D01*
X107976112Y-72511375D01*
X107980409Y-72497118D01*
X107986172Y-72487055D01*
X107993612Y-72478394D01*
X107995293Y-72476609D01*
X108002832Y-72469365D01*
X108011850Y-72463723D01*
X108024984Y-72459483D01*
X108044872Y-72456444D01*
X108074151Y-72454406D01*
X108115458Y-72453170D01*
X108171431Y-72452535D01*
X108244707Y-72452300D01*
X108337923Y-72452266D01*
X108410713Y-72452303D01*
G36*
X108235041Y-71323130D02*
G01*
X108335956Y-71323378D01*
X108411617Y-71323417D01*
X108489526Y-71323672D01*
X108549536Y-71324316D01*
X108594264Y-71325520D01*
X108626326Y-71327457D01*
X108648340Y-71330297D01*
X108662924Y-71334212D01*
X108672694Y-71339374D01*
X108680267Y-71345955D01*
X108686501Y-71352923D01*
X108693801Y-71365921D01*
X108698554Y-71385069D01*
X108701292Y-71414472D01*
X108702545Y-71458238D01*
X108702845Y-71520472D01*
X108702469Y-71569418D01*
X108698041Y-71676278D01*
X108687953Y-71765506D01*
X108671365Y-71840304D01*
X108647435Y-71903875D01*
X108615321Y-71959421D01*
X108574182Y-72010146D01*
X108568330Y-72016134D01*
X108519821Y-72053001D01*
X108459013Y-72084101D01*
X108394769Y-72105583D01*
X108335956Y-72113600D01*
X108314739Y-72112321D01*
X108257323Y-72100009D01*
X108197413Y-72077480D01*
X108143363Y-72048250D01*
X108103532Y-72015833D01*
X108086510Y-71996292D01*
X108047322Y-71941580D01*
X108017193Y-71881277D01*
X107995232Y-71812081D01*
X107980550Y-71730689D01*
X107972259Y-71633800D01*
X107970149Y-71546333D01*
X108115808Y-71546333D01*
X108115817Y-71549361D01*
X108117782Y-71600481D01*
X108122507Y-71660584D01*
X108129035Y-71717292D01*
X108138331Y-71767250D01*
X108164600Y-71842002D01*
X108203899Y-71899511D01*
X108256933Y-71941012D01*
X108308200Y-71962229D01*
X108356026Y-71963647D01*
X108406961Y-71945365D01*
X108452878Y-71915695D01*
X108495287Y-71868998D01*
X108525090Y-71807608D01*
X108544226Y-71728462D01*
X108544464Y-71726972D01*
X108550256Y-71678001D01*
X108554396Y-71619307D01*
X108556004Y-71563266D01*
X108556089Y-71470133D01*
X108115822Y-71470133D01*
X108115808Y-71546333D01*
X107970149Y-71546333D01*
X107969467Y-71518111D01*
X107969066Y-71478629D01*
X107968653Y-71432918D01*
X107970457Y-71397117D01*
X107976739Y-71370026D01*
X107989759Y-71350444D01*
X108011778Y-71337170D01*
X108045055Y-71329002D01*
X108091851Y-71324740D01*
X108115822Y-71324143D01*
X108154427Y-71323183D01*
X108235041Y-71323130D01*
G37*
X108235041Y-71323130D02*
X108335956Y-71323378D01*
X108411617Y-71323417D01*
X108489526Y-71323672D01*
X108549536Y-71324316D01*
X108594264Y-71325520D01*
X108626326Y-71327457D01*
X108648340Y-71330297D01*
X108662924Y-71334212D01*
X108672694Y-71339374D01*
X108680267Y-71345955D01*
X108686501Y-71352923D01*
X108693801Y-71365921D01*
X108698554Y-71385069D01*
X108701292Y-71414472D01*
X108702545Y-71458238D01*
X108702845Y-71520472D01*
X108702469Y-71569418D01*
X108698041Y-71676278D01*
X108687953Y-71765506D01*
X108671365Y-71840304D01*
X108647435Y-71903875D01*
X108615321Y-71959421D01*
X108574182Y-72010146D01*
X108568330Y-72016134D01*
X108519821Y-72053001D01*
X108459013Y-72084101D01*
X108394769Y-72105583D01*
X108335956Y-72113600D01*
X108314739Y-72112321D01*
X108257323Y-72100009D01*
X108197413Y-72077480D01*
X108143363Y-72048250D01*
X108103532Y-72015833D01*
X108086510Y-71996292D01*
X108047322Y-71941580D01*
X108017193Y-71881277D01*
X107995232Y-71812081D01*
X107980550Y-71730689D01*
X107972259Y-71633800D01*
X107970149Y-71546333D01*
X108115808Y-71546333D01*
X108115817Y-71549361D01*
X108117782Y-71600481D01*
X108122507Y-71660584D01*
X108129035Y-71717292D01*
X108138331Y-71767250D01*
X108164600Y-71842002D01*
X108203899Y-71899511D01*
X108256933Y-71941012D01*
X108308200Y-71962229D01*
X108356026Y-71963647D01*
X108406961Y-71945365D01*
X108452878Y-71915695D01*
X108495287Y-71868998D01*
X108525090Y-71807608D01*
X108544226Y-71728462D01*
X108544464Y-71726972D01*
X108550256Y-71678001D01*
X108554396Y-71619307D01*
X108556004Y-71563266D01*
X108556089Y-71470133D01*
X108115822Y-71470133D01*
X108115808Y-71546333D01*
X107970149Y-71546333D01*
X107969467Y-71518111D01*
X107969066Y-71478629D01*
X107968653Y-71432918D01*
X107970457Y-71397117D01*
X107976739Y-71370026D01*
X107989759Y-71350444D01*
X108011778Y-71337170D01*
X108045055Y-71329002D01*
X108091851Y-71324740D01*
X108115822Y-71324143D01*
X108154427Y-71323183D01*
X108235041Y-71323130D01*
G36*
X103234307Y-74795331D02*
G01*
X103275450Y-74797540D01*
X103307582Y-74803106D01*
X103338122Y-74813414D01*
X103374489Y-74829852D01*
X103401728Y-74843800D01*
X103487429Y-74902335D01*
X103556617Y-74974381D01*
X103607741Y-75058053D01*
X103639250Y-75151469D01*
X103646225Y-75184566D01*
X103653094Y-75225040D01*
X103654919Y-75258001D01*
X103651947Y-75292302D01*
X103644426Y-75336800D01*
X103632002Y-75388066D01*
X103594112Y-75478566D01*
X103539836Y-75557655D01*
X103471770Y-75623472D01*
X103392511Y-75674160D01*
X103304654Y-75707860D01*
X103210795Y-75722714D01*
X103113530Y-75716864D01*
X103017220Y-75690601D01*
X102928494Y-75645582D01*
X102853419Y-75584627D01*
X102793641Y-75509816D01*
X102750809Y-75423232D01*
X102726571Y-75326957D01*
X102722576Y-75223072D01*
X102732850Y-75145438D01*
X102760053Y-75062687D01*
X102805484Y-74987594D01*
X102871302Y-74915702D01*
X102915567Y-74877154D01*
X102973961Y-74837744D01*
X103034586Y-74812554D01*
X103103865Y-74799139D01*
X103188222Y-74795052D01*
X103234307Y-74795331D01*
G37*
X103234307Y-74795331D02*
X103275450Y-74797540D01*
X103307582Y-74803106D01*
X103338122Y-74813414D01*
X103374489Y-74829852D01*
X103401728Y-74843800D01*
X103487429Y-74902335D01*
X103556617Y-74974381D01*
X103607741Y-75058053D01*
X103639250Y-75151469D01*
X103646225Y-75184566D01*
X103653094Y-75225040D01*
X103654919Y-75258001D01*
X103651947Y-75292302D01*
X103644426Y-75336800D01*
X103632002Y-75388066D01*
X103594112Y-75478566D01*
X103539836Y-75557655D01*
X103471770Y-75623472D01*
X103392511Y-75674160D01*
X103304654Y-75707860D01*
X103210795Y-75722714D01*
X103113530Y-75716864D01*
X103017220Y-75690601D01*
X102928494Y-75645582D01*
X102853419Y-75584627D01*
X102793641Y-75509816D01*
X102750809Y-75423232D01*
X102726571Y-75326957D01*
X102722576Y-75223072D01*
X102732850Y-75145438D01*
X102760053Y-75062687D01*
X102805484Y-74987594D01*
X102871302Y-74915702D01*
X102915567Y-74877154D01*
X102973961Y-74837744D01*
X103034586Y-74812554D01*
X103103865Y-74799139D01*
X103188222Y-74795052D01*
X103234307Y-74795331D01*
G36*
X106020158Y-81414732D02*
G01*
X106171594Y-81423311D01*
X106308283Y-81442167D01*
X106434276Y-81472163D01*
X106553625Y-81514164D01*
X106670381Y-81569031D01*
X106781179Y-81635833D01*
X106894739Y-81726637D01*
X106990211Y-81830292D01*
X107067073Y-81946113D01*
X107124797Y-82073414D01*
X107162858Y-82211511D01*
X107168666Y-82249207D01*
X107174396Y-82328248D01*
X107174583Y-82416371D01*
X107169539Y-82505764D01*
X107159578Y-82588616D01*
X107145012Y-82657113D01*
X107135364Y-82687965D01*
X107105123Y-82765270D01*
X107067617Y-82842321D01*
X107026614Y-82911800D01*
X106985879Y-82966385D01*
X106966505Y-82989084D01*
X106948662Y-83011799D01*
X106941778Y-83023221D01*
X106943424Y-83024463D01*
X106961205Y-83027272D01*
X106994370Y-83029224D01*
X107037733Y-83029955D01*
X107133689Y-83029955D01*
X107133689Y-83888104D01*
X107072974Y-83853839D01*
X107063868Y-83848645D01*
X107049249Y-83840285D01*
X107035173Y-83832712D01*
X107020540Y-83825888D01*
X107004249Y-83819773D01*
X106985198Y-83814327D01*
X106962286Y-83809513D01*
X106934413Y-83805292D01*
X106900478Y-83801623D01*
X106859379Y-83798469D01*
X106810015Y-83795789D01*
X106751286Y-83793546D01*
X106682090Y-83791701D01*
X106601326Y-83790213D01*
X106507894Y-83789045D01*
X106400692Y-83788156D01*
X106278620Y-83787509D01*
X106140576Y-83787064D01*
X105985459Y-83786782D01*
X105812168Y-83786625D01*
X105619603Y-83786552D01*
X105406662Y-83786526D01*
X105172245Y-83786507D01*
X103487378Y-83786311D01*
X103487378Y-82880983D01*
X103524067Y-82905415D01*
X103533647Y-82911682D01*
X103579981Y-82937792D01*
X103627102Y-82955531D01*
X103682251Y-82967092D01*
X103752667Y-82974669D01*
X103759650Y-82975161D01*
X103797641Y-82976938D01*
X103851576Y-82978556D01*
X103918703Y-82980001D01*
X103996271Y-82981260D01*
X104081528Y-82982320D01*
X104171724Y-82983171D01*
X104264107Y-82983797D01*
X104355925Y-82984188D01*
X104444427Y-82984330D01*
X104526862Y-82984210D01*
X104600479Y-82983817D01*
X104662526Y-82983138D01*
X104710251Y-82982159D01*
X104740904Y-82980868D01*
X104751733Y-82979253D01*
X104747333Y-82971043D01*
X104732362Y-82949353D01*
X104710448Y-82919986D01*
X104676236Y-82871121D01*
X104629714Y-82782875D01*
X104596046Y-82684084D01*
X104593232Y-82669557D01*
X105147465Y-82669557D01*
X105159389Y-82754681D01*
X105186040Y-82838867D01*
X105226962Y-82917392D01*
X105270530Y-82984800D01*
X106420721Y-82984800D01*
X106467089Y-82914244D01*
X106490791Y-82873583D01*
X106516639Y-82819454D01*
X106534829Y-82770311D01*
X106550551Y-82706835D01*
X106561541Y-82610669D01*
X106553365Y-82526100D01*
X106525805Y-82452781D01*
X106478642Y-82390363D01*
X106411658Y-82338498D01*
X106324633Y-82296840D01*
X106217350Y-82265038D01*
X106205009Y-82262455D01*
X106143772Y-82254000D01*
X106066692Y-82248337D01*
X105979002Y-82245424D01*
X105885934Y-82245217D01*
X105792720Y-82247670D01*
X105704594Y-82252739D01*
X105626788Y-82260381D01*
X105564533Y-82270552D01*
X105558666Y-82271833D01*
X105448121Y-82300874D01*
X105357575Y-82335390D01*
X105284953Y-82376544D01*
X105228181Y-82425501D01*
X105185184Y-82483426D01*
X105169615Y-82515380D01*
X105150722Y-82588216D01*
X105147465Y-82669557D01*
X104593232Y-82669557D01*
X104574231Y-82571490D01*
X104563265Y-82441836D01*
X104562219Y-82349330D01*
X104572014Y-82227989D01*
X104596174Y-82117901D01*
X104635785Y-82014611D01*
X104691932Y-81913662D01*
X104722883Y-81868497D01*
X104814115Y-81763089D01*
X104923106Y-81671462D01*
X105049726Y-81593668D01*
X105193845Y-81529759D01*
X105355332Y-81479786D01*
X105534059Y-81443802D01*
X105729895Y-81421857D01*
X105885934Y-81416100D01*
X105942711Y-81414006D01*
X106020158Y-81414732D01*
G37*
X106020158Y-81414732D02*
X106171594Y-81423311D01*
X106308283Y-81442167D01*
X106434276Y-81472163D01*
X106553625Y-81514164D01*
X106670381Y-81569031D01*
X106781179Y-81635833D01*
X106894739Y-81726637D01*
X106990211Y-81830292D01*
X107067073Y-81946113D01*
X107124797Y-82073414D01*
X107162858Y-82211511D01*
X107168666Y-82249207D01*
X107174396Y-82328248D01*
X107174583Y-82416371D01*
X107169539Y-82505764D01*
X107159578Y-82588616D01*
X107145012Y-82657113D01*
X107135364Y-82687965D01*
X107105123Y-82765270D01*
X107067617Y-82842321D01*
X107026614Y-82911800D01*
X106985879Y-82966385D01*
X106966505Y-82989084D01*
X106948662Y-83011799D01*
X106941778Y-83023221D01*
X106943424Y-83024463D01*
X106961205Y-83027272D01*
X106994370Y-83029224D01*
X107037733Y-83029955D01*
X107133689Y-83029955D01*
X107133689Y-83888104D01*
X107072974Y-83853839D01*
X107063868Y-83848645D01*
X107049249Y-83840285D01*
X107035173Y-83832712D01*
X107020540Y-83825888D01*
X107004249Y-83819773D01*
X106985198Y-83814327D01*
X106962286Y-83809513D01*
X106934413Y-83805292D01*
X106900478Y-83801623D01*
X106859379Y-83798469D01*
X106810015Y-83795789D01*
X106751286Y-83793546D01*
X106682090Y-83791701D01*
X106601326Y-83790213D01*
X106507894Y-83789045D01*
X106400692Y-83788156D01*
X106278620Y-83787509D01*
X106140576Y-83787064D01*
X105985459Y-83786782D01*
X105812168Y-83786625D01*
X105619603Y-83786552D01*
X105406662Y-83786526D01*
X105172245Y-83786507D01*
X103487378Y-83786311D01*
X103487378Y-82880983D01*
X103524067Y-82905415D01*
X103533647Y-82911682D01*
X103579981Y-82937792D01*
X103627102Y-82955531D01*
X103682251Y-82967092D01*
X103752667Y-82974669D01*
X103759650Y-82975161D01*
X103797641Y-82976938D01*
X103851576Y-82978556D01*
X103918703Y-82980001D01*
X103996271Y-82981260D01*
X104081528Y-82982320D01*
X104171724Y-82983171D01*
X104264107Y-82983797D01*
X104355925Y-82984188D01*
X104444427Y-82984330D01*
X104526862Y-82984210D01*
X104600479Y-82983817D01*
X104662526Y-82983138D01*
X104710251Y-82982159D01*
X104740904Y-82980868D01*
X104751733Y-82979253D01*
X104747333Y-82971043D01*
X104732362Y-82949353D01*
X104710448Y-82919986D01*
X104676236Y-82871121D01*
X104629714Y-82782875D01*
X104596046Y-82684084D01*
X104593232Y-82669557D01*
X105147465Y-82669557D01*
X105159389Y-82754681D01*
X105186040Y-82838867D01*
X105226962Y-82917392D01*
X105270530Y-82984800D01*
X106420721Y-82984800D01*
X106467089Y-82914244D01*
X106490791Y-82873583D01*
X106516639Y-82819454D01*
X106534829Y-82770311D01*
X106550551Y-82706835D01*
X106561541Y-82610669D01*
X106553365Y-82526100D01*
X106525805Y-82452781D01*
X106478642Y-82390363D01*
X106411658Y-82338498D01*
X106324633Y-82296840D01*
X106217350Y-82265038D01*
X106205009Y-82262455D01*
X106143772Y-82254000D01*
X106066692Y-82248337D01*
X105979002Y-82245424D01*
X105885934Y-82245217D01*
X105792720Y-82247670D01*
X105704594Y-82252739D01*
X105626788Y-82260381D01*
X105564533Y-82270552D01*
X105558666Y-82271833D01*
X105448121Y-82300874D01*
X105357575Y-82335390D01*
X105284953Y-82376544D01*
X105228181Y-82425501D01*
X105185184Y-82483426D01*
X105169615Y-82515380D01*
X105150722Y-82588216D01*
X105147465Y-82669557D01*
X104593232Y-82669557D01*
X104574231Y-82571490D01*
X104563265Y-82441836D01*
X104562219Y-82349330D01*
X104572014Y-82227989D01*
X104596174Y-82117901D01*
X104635785Y-82014611D01*
X104691932Y-81913662D01*
X104722883Y-81868497D01*
X104814115Y-81763089D01*
X104923106Y-81671462D01*
X105049726Y-81593668D01*
X105193845Y-81529759D01*
X105355332Y-81479786D01*
X105534059Y-81443802D01*
X105729895Y-81421857D01*
X105885934Y-81416100D01*
X105942711Y-81414006D01*
X106020158Y-81414732D01*
G36*
X106377363Y-78872739D02*
G01*
X106452202Y-78876368D01*
X106514401Y-78883978D01*
X106570984Y-78896312D01*
X106697076Y-78940687D01*
X106811679Y-79003600D01*
X106912568Y-79083762D01*
X106998924Y-79180260D01*
X107069932Y-79292178D01*
X107124776Y-79418603D01*
X107162638Y-79558622D01*
X107168351Y-79594851D01*
X107174313Y-79673845D01*
X107174646Y-79762159D01*
X107169659Y-79851925D01*
X107159666Y-79935278D01*
X107144978Y-80004349D01*
X107114749Y-80090813D01*
X107060057Y-80200714D01*
X106992543Y-80298044D01*
X106941556Y-80360133D01*
X107037622Y-80363395D01*
X107133689Y-80366657D01*
X107133689Y-80789550D01*
X107133686Y-80800457D01*
X107133380Y-80894944D01*
X107132616Y-80981669D01*
X107131451Y-81058163D01*
X107129942Y-81121957D01*
X107128147Y-81170582D01*
X107126121Y-81201567D01*
X107123922Y-81212444D01*
X107123463Y-81212422D01*
X107107910Y-81205386D01*
X107085071Y-81189566D01*
X107079638Y-81185266D01*
X107065606Y-81174223D01*
X107052186Y-81164689D01*
X107037722Y-81156539D01*
X107020556Y-81149648D01*
X106999034Y-81143889D01*
X106971498Y-81139138D01*
X106936292Y-81135269D01*
X106891760Y-81132156D01*
X106836246Y-81129675D01*
X106768093Y-81127700D01*
X106685645Y-81126106D01*
X106587246Y-81124766D01*
X106471239Y-81123556D01*
X106335968Y-81122351D01*
X106179778Y-81121025D01*
X106037012Y-81119772D01*
X105891942Y-81118349D01*
X105766027Y-81116824D01*
X105657436Y-81115067D01*
X105564334Y-81112949D01*
X105484891Y-81110340D01*
X105417273Y-81107110D01*
X105359649Y-81103131D01*
X105310185Y-81098272D01*
X105267050Y-81092403D01*
X105228410Y-81085396D01*
X105192434Y-81077120D01*
X105157289Y-81067446D01*
X105121142Y-81056244D01*
X105082161Y-81043384D01*
X105039091Y-81027910D01*
X104946871Y-80985006D01*
X104867099Y-80931265D01*
X104792965Y-80862424D01*
X104729405Y-80784815D01*
X104667725Y-80680239D01*
X104620202Y-80560756D01*
X104586567Y-80425492D01*
X104566552Y-80273574D01*
X104559889Y-80104128D01*
X104560287Y-80046110D01*
X104562335Y-79980602D01*
X104566704Y-79919307D01*
X104574035Y-79857903D01*
X104584969Y-79792068D01*
X104600147Y-79717480D01*
X104620209Y-79629816D01*
X104645797Y-79524755D01*
X104652820Y-79496194D01*
X104670776Y-79420946D01*
X104686820Y-79350612D01*
X104700028Y-79289433D01*
X104709474Y-79241646D01*
X104714231Y-79211489D01*
X104717910Y-79183217D01*
X104723187Y-79156940D01*
X104727942Y-79146941D01*
X104736781Y-79150048D01*
X104764072Y-79160806D01*
X104806906Y-79178136D01*
X104862425Y-79200874D01*
X104927772Y-79227853D01*
X105000089Y-79257910D01*
X105015879Y-79264507D01*
X105106484Y-79303093D01*
X105176217Y-79334232D01*
X105225405Y-79358083D01*
X105254374Y-79374802D01*
X105263452Y-79384546D01*
X105261405Y-79392234D01*
X105251760Y-79418585D01*
X105236190Y-79457018D01*
X105216815Y-79502178D01*
X105178814Y-79596707D01*
X105137780Y-79733520D01*
X105112612Y-79874711D01*
X105108611Y-79912686D01*
X105106447Y-80015941D01*
X105119622Y-80103048D01*
X105148756Y-80174871D01*
X105194466Y-80232269D01*
X105257372Y-80276104D01*
X105338092Y-80307238D01*
X105437245Y-80326530D01*
X105496224Y-80333950D01*
X105489445Y-80172064D01*
X105489111Y-80146106D01*
X106011842Y-80146106D01*
X106011857Y-80154993D01*
X106012655Y-80210340D01*
X106014488Y-80257264D01*
X106017111Y-80291047D01*
X106020274Y-80306972D01*
X106026741Y-80311057D01*
X106048875Y-80315428D01*
X106087988Y-80318396D01*
X106145939Y-80320086D01*
X106224586Y-80320622D01*
X106420462Y-80320622D01*
X106476973Y-80275952D01*
X106492212Y-80263215D01*
X106534844Y-80216396D01*
X106570672Y-80155745D01*
X106575850Y-80145103D01*
X106592745Y-80106324D01*
X106602909Y-80071308D01*
X106608325Y-80031278D01*
X106610978Y-79977459D01*
X106611383Y-79959352D01*
X106608540Y-79883989D01*
X106596620Y-79823257D01*
X106574037Y-79771548D01*
X106539211Y-79723254D01*
X106534798Y-79718197D01*
X106479160Y-79669728D01*
X106415333Y-79641541D01*
X106340282Y-79632248D01*
X106268693Y-79639480D01*
X106205645Y-79664204D01*
X106147758Y-79708751D01*
X106100808Y-79763681D01*
X106060961Y-79836106D01*
X106033263Y-79922660D01*
X106017096Y-80025330D01*
X106011842Y-80146106D01*
X105489111Y-80146106D01*
X105487813Y-80045505D01*
X105494194Y-79894049D01*
X105508777Y-79745604D01*
X105530882Y-79609422D01*
X105545821Y-79544755D01*
X105588741Y-79412510D01*
X105645340Y-79290238D01*
X105714017Y-79180315D01*
X105793170Y-79085117D01*
X105881196Y-79007020D01*
X105976493Y-78948401D01*
X106028864Y-78924405D01*
X106099590Y-78898768D01*
X106170812Y-78882522D01*
X106249712Y-78874178D01*
X106340282Y-78872310D01*
X106343467Y-78872245D01*
X106377363Y-78872739D01*
G37*
X106377363Y-78872739D02*
X106452202Y-78876368D01*
X106514401Y-78883978D01*
X106570984Y-78896312D01*
X106697076Y-78940687D01*
X106811679Y-79003600D01*
X106912568Y-79083762D01*
X106998924Y-79180260D01*
X107069932Y-79292178D01*
X107124776Y-79418603D01*
X107162638Y-79558622D01*
X107168351Y-79594851D01*
X107174313Y-79673845D01*
X107174646Y-79762159D01*
X107169659Y-79851925D01*
X107159666Y-79935278D01*
X107144978Y-80004349D01*
X107114749Y-80090813D01*
X107060057Y-80200714D01*
X106992543Y-80298044D01*
X106941556Y-80360133D01*
X107037622Y-80363395D01*
X107133689Y-80366657D01*
X107133689Y-80789550D01*
X107133686Y-80800457D01*
X107133380Y-80894944D01*
X107132616Y-80981669D01*
X107131451Y-81058163D01*
X107129942Y-81121957D01*
X107128147Y-81170582D01*
X107126121Y-81201567D01*
X107123922Y-81212444D01*
X107123463Y-81212422D01*
X107107910Y-81205386D01*
X107085071Y-81189566D01*
X107079638Y-81185266D01*
X107065606Y-81174223D01*
X107052186Y-81164689D01*
X107037722Y-81156539D01*
X107020556Y-81149648D01*
X106999034Y-81143889D01*
X106971498Y-81139138D01*
X106936292Y-81135269D01*
X106891760Y-81132156D01*
X106836246Y-81129675D01*
X106768093Y-81127700D01*
X106685645Y-81126106D01*
X106587246Y-81124766D01*
X106471239Y-81123556D01*
X106335968Y-81122351D01*
X106179778Y-81121025D01*
X106037012Y-81119772D01*
X105891942Y-81118349D01*
X105766027Y-81116824D01*
X105657436Y-81115067D01*
X105564334Y-81112949D01*
X105484891Y-81110340D01*
X105417273Y-81107110D01*
X105359649Y-81103131D01*
X105310185Y-81098272D01*
X105267050Y-81092403D01*
X105228410Y-81085396D01*
X105192434Y-81077120D01*
X105157289Y-81067446D01*
X105121142Y-81056244D01*
X105082161Y-81043384D01*
X105039091Y-81027910D01*
X104946871Y-80985006D01*
X104867099Y-80931265D01*
X104792965Y-80862424D01*
X104729405Y-80784815D01*
X104667725Y-80680239D01*
X104620202Y-80560756D01*
X104586567Y-80425492D01*
X104566552Y-80273574D01*
X104559889Y-80104128D01*
X104560287Y-80046110D01*
X104562335Y-79980602D01*
X104566704Y-79919307D01*
X104574035Y-79857903D01*
X104584969Y-79792068D01*
X104600147Y-79717480D01*
X104620209Y-79629816D01*
X104645797Y-79524755D01*
X104652820Y-79496194D01*
X104670776Y-79420946D01*
X104686820Y-79350612D01*
X104700028Y-79289433D01*
X104709474Y-79241646D01*
X104714231Y-79211489D01*
X104717910Y-79183217D01*
X104723187Y-79156940D01*
X104727942Y-79146941D01*
X104736781Y-79150048D01*
X104764072Y-79160806D01*
X104806906Y-79178136D01*
X104862425Y-79200874D01*
X104927772Y-79227853D01*
X105000089Y-79257910D01*
X105015879Y-79264507D01*
X105106484Y-79303093D01*
X105176217Y-79334232D01*
X105225405Y-79358083D01*
X105254374Y-79374802D01*
X105263452Y-79384546D01*
X105261405Y-79392234D01*
X105251760Y-79418585D01*
X105236190Y-79457018D01*
X105216815Y-79502178D01*
X105178814Y-79596707D01*
X105137780Y-79733520D01*
X105112612Y-79874711D01*
X105108611Y-79912686D01*
X105106447Y-80015941D01*
X105119622Y-80103048D01*
X105148756Y-80174871D01*
X105194466Y-80232269D01*
X105257372Y-80276104D01*
X105338092Y-80307238D01*
X105437245Y-80326530D01*
X105496224Y-80333950D01*
X105489445Y-80172064D01*
X105489111Y-80146106D01*
X106011842Y-80146106D01*
X106011857Y-80154993D01*
X106012655Y-80210340D01*
X106014488Y-80257264D01*
X106017111Y-80291047D01*
X106020274Y-80306972D01*
X106026741Y-80311057D01*
X106048875Y-80315428D01*
X106087988Y-80318396D01*
X106145939Y-80320086D01*
X106224586Y-80320622D01*
X106420462Y-80320622D01*
X106476973Y-80275952D01*
X106492212Y-80263215D01*
X106534844Y-80216396D01*
X106570672Y-80155745D01*
X106575850Y-80145103D01*
X106592745Y-80106324D01*
X106602909Y-80071308D01*
X106608325Y-80031278D01*
X106610978Y-79977459D01*
X106611383Y-79959352D01*
X106608540Y-79883989D01*
X106596620Y-79823257D01*
X106574037Y-79771548D01*
X106539211Y-79723254D01*
X106534798Y-79718197D01*
X106479160Y-79669728D01*
X106415333Y-79641541D01*
X106340282Y-79632248D01*
X106268693Y-79639480D01*
X106205645Y-79664204D01*
X106147758Y-79708751D01*
X106100808Y-79763681D01*
X106060961Y-79836106D01*
X106033263Y-79922660D01*
X106017096Y-80025330D01*
X106011842Y-80146106D01*
X105489111Y-80146106D01*
X105487813Y-80045505D01*
X105494194Y-79894049D01*
X105508777Y-79745604D01*
X105530882Y-79609422D01*
X105545821Y-79544755D01*
X105588741Y-79412510D01*
X105645340Y-79290238D01*
X105714017Y-79180315D01*
X105793170Y-79085117D01*
X105881196Y-79007020D01*
X105976493Y-78948401D01*
X106028864Y-78924405D01*
X106099590Y-78898768D01*
X106170812Y-78882522D01*
X106249712Y-78874178D01*
X106340282Y-78872310D01*
X106343467Y-78872245D01*
X106377363Y-78872739D01*
G36*
X105521325Y-76282449D02*
G01*
X105722581Y-76299209D01*
X105917128Y-76332708D01*
X106100756Y-76382956D01*
X106218053Y-76426810D01*
X106380951Y-76504652D01*
X106534866Y-76598172D01*
X106676671Y-76705178D01*
X106803239Y-76823481D01*
X106911441Y-76950889D01*
X106964120Y-77028394D01*
X107033750Y-77155275D01*
X107092468Y-77292757D01*
X107137587Y-77434284D01*
X107166422Y-77573298D01*
X107168106Y-77587403D01*
X107171434Y-77630847D01*
X107174275Y-77688277D01*
X107176373Y-77753878D01*
X107177468Y-77821833D01*
X107175140Y-77948622D01*
X107162136Y-78096327D01*
X107137133Y-78234221D01*
X107099318Y-78367986D01*
X107090889Y-78391438D01*
X107071408Y-78439388D01*
X107046473Y-78495860D01*
X107017722Y-78557621D01*
X106986790Y-78621437D01*
X106955315Y-78684074D01*
X106924934Y-78742297D01*
X106897283Y-78792873D01*
X106873999Y-78832567D01*
X106856718Y-78858146D01*
X106847079Y-78866375D01*
X106843984Y-78864924D01*
X106824079Y-78853750D01*
X106788420Y-78832866D01*
X106739459Y-78803735D01*
X106679646Y-78767819D01*
X106611433Y-78726580D01*
X106537271Y-78681483D01*
X106240008Y-78500215D01*
X106284539Y-78453685D01*
X106362865Y-78362277D01*
X106437439Y-78248666D01*
X106491474Y-78130878D01*
X106524290Y-78010441D01*
X106535211Y-77888883D01*
X106533868Y-77847415D01*
X106515612Y-77729920D01*
X106476617Y-77619911D01*
X106417670Y-77518570D01*
X106339557Y-77427079D01*
X106243064Y-77346620D01*
X106128978Y-77278373D01*
X106094724Y-77262092D01*
X105971240Y-77216018D01*
X105832918Y-77180894D01*
X105683561Y-77156803D01*
X105526973Y-77143827D01*
X105366956Y-77142051D01*
X105207314Y-77151557D01*
X105051850Y-77172428D01*
X104904366Y-77204748D01*
X104768667Y-77248601D01*
X104682076Y-77286018D01*
X104568688Y-77350815D01*
X104475070Y-77426228D01*
X104400959Y-77512582D01*
X104346094Y-77610205D01*
X104310212Y-77719423D01*
X104293051Y-77840561D01*
X104291880Y-77909962D01*
X104306141Y-78032832D01*
X104341241Y-78148336D01*
X104396682Y-78255047D01*
X104471964Y-78351536D01*
X104486440Y-78367280D01*
X104512962Y-78397850D01*
X104530138Y-78420191D01*
X104534787Y-78430309D01*
X104532597Y-78432294D01*
X104513721Y-78446759D01*
X104480397Y-78470600D01*
X104435380Y-78501971D01*
X104381425Y-78539026D01*
X104321285Y-78579917D01*
X104257718Y-78622798D01*
X104193476Y-78665822D01*
X104131315Y-78707143D01*
X104073991Y-78744914D01*
X104024257Y-78777288D01*
X103984868Y-78802418D01*
X103958580Y-78818458D01*
X103948147Y-78823561D01*
X103943941Y-78818950D01*
X103938933Y-78799733D01*
X103936386Y-78790162D01*
X103925249Y-78762191D01*
X103906802Y-78720552D01*
X103882725Y-78669005D01*
X103854699Y-78611310D01*
X103849154Y-78600043D01*
X103769889Y-78422313D01*
X103710385Y-78252510D01*
X103670245Y-78088570D01*
X103649071Y-77928429D01*
X103646466Y-77770023D01*
X103662033Y-77611289D01*
X103679523Y-77515732D01*
X103724564Y-77351442D01*
X103787656Y-77197411D01*
X103869915Y-77051491D01*
X103972457Y-76911534D01*
X104096399Y-76775392D01*
X104141661Y-76731527D01*
X104273865Y-76619242D01*
X104411832Y-76526028D01*
X104559750Y-76449281D01*
X104721803Y-76386397D01*
X104733391Y-76382580D01*
X104919392Y-76332493D01*
X105115521Y-76299101D01*
X105317568Y-76282416D01*
X105521325Y-76282449D01*
G37*
X105521325Y-76282449D02*
X105722581Y-76299209D01*
X105917128Y-76332708D01*
X106100756Y-76382956D01*
X106218053Y-76426810D01*
X106380951Y-76504652D01*
X106534866Y-76598172D01*
X106676671Y-76705178D01*
X106803239Y-76823481D01*
X106911441Y-76950889D01*
X106964120Y-77028394D01*
X107033750Y-77155275D01*
X107092468Y-77292757D01*
X107137587Y-77434284D01*
X107166422Y-77573298D01*
X107168106Y-77587403D01*
X107171434Y-77630847D01*
X107174275Y-77688277D01*
X107176373Y-77753878D01*
X107177468Y-77821833D01*
X107175140Y-77948622D01*
X107162136Y-78096327D01*
X107137133Y-78234221D01*
X107099318Y-78367986D01*
X107090889Y-78391438D01*
X107071408Y-78439388D01*
X107046473Y-78495860D01*
X107017722Y-78557621D01*
X106986790Y-78621437D01*
X106955315Y-78684074D01*
X106924934Y-78742297D01*
X106897283Y-78792873D01*
X106873999Y-78832567D01*
X106856718Y-78858146D01*
X106847079Y-78866375D01*
X106843984Y-78864924D01*
X106824079Y-78853750D01*
X106788420Y-78832866D01*
X106739459Y-78803735D01*
X106679646Y-78767819D01*
X106611433Y-78726580D01*
X106537271Y-78681483D01*
X106240008Y-78500215D01*
X106284539Y-78453685D01*
X106362865Y-78362277D01*
X106437439Y-78248666D01*
X106491474Y-78130878D01*
X106524290Y-78010441D01*
X106535211Y-77888883D01*
X106533868Y-77847415D01*
X106515612Y-77729920D01*
X106476617Y-77619911D01*
X106417670Y-77518570D01*
X106339557Y-77427079D01*
X106243064Y-77346620D01*
X106128978Y-77278373D01*
X106094724Y-77262092D01*
X105971240Y-77216018D01*
X105832918Y-77180894D01*
X105683561Y-77156803D01*
X105526973Y-77143827D01*
X105366956Y-77142051D01*
X105207314Y-77151557D01*
X105051850Y-77172428D01*
X104904366Y-77204748D01*
X104768667Y-77248601D01*
X104682076Y-77286018D01*
X104568688Y-77350815D01*
X104475070Y-77426228D01*
X104400959Y-77512582D01*
X104346094Y-77610205D01*
X104310212Y-77719423D01*
X104293051Y-77840561D01*
X104291880Y-77909962D01*
X104306141Y-78032832D01*
X104341241Y-78148336D01*
X104396682Y-78255047D01*
X104471964Y-78351536D01*
X104486440Y-78367280D01*
X104512962Y-78397850D01*
X104530138Y-78420191D01*
X104534787Y-78430309D01*
X104532597Y-78432294D01*
X104513721Y-78446759D01*
X104480397Y-78470600D01*
X104435380Y-78501971D01*
X104381425Y-78539026D01*
X104321285Y-78579917D01*
X104257718Y-78622798D01*
X104193476Y-78665822D01*
X104131315Y-78707143D01*
X104073991Y-78744914D01*
X104024257Y-78777288D01*
X103984868Y-78802418D01*
X103958580Y-78818458D01*
X103948147Y-78823561D01*
X103943941Y-78818950D01*
X103938933Y-78799733D01*
X103936386Y-78790162D01*
X103925249Y-78762191D01*
X103906802Y-78720552D01*
X103882725Y-78669005D01*
X103854699Y-78611310D01*
X103849154Y-78600043D01*
X103769889Y-78422313D01*
X103710385Y-78252510D01*
X103670245Y-78088570D01*
X103649071Y-77928429D01*
X103646466Y-77770023D01*
X103662033Y-77611289D01*
X103679523Y-77515732D01*
X103724564Y-77351442D01*
X103787656Y-77197411D01*
X103869915Y-77051491D01*
X103972457Y-76911534D01*
X104096399Y-76775392D01*
X104141661Y-76731527D01*
X104273865Y-76619242D01*
X104411832Y-76526028D01*
X104559750Y-76449281D01*
X104721803Y-76386397D01*
X104733391Y-76382580D01*
X104919392Y-76332493D01*
X105115521Y-76299101D01*
X105317568Y-76282416D01*
X105521325Y-76282449D01*
G36*
X103943011Y-71323941D02*
G01*
X104090216Y-71323638D01*
X104254349Y-71323452D01*
X104436352Y-71323358D01*
X104637165Y-71323329D01*
X104857732Y-71323339D01*
X105098992Y-71323364D01*
X105361889Y-71323378D01*
X105404040Y-71323378D01*
X105664668Y-71323354D01*
X105903796Y-71323315D01*
X106122360Y-71323292D01*
X106321295Y-71323313D01*
X106501535Y-71323407D01*
X106664015Y-71323605D01*
X106809670Y-71323937D01*
X106939434Y-71324431D01*
X107054243Y-71325117D01*
X107155030Y-71326024D01*
X107242730Y-71327183D01*
X107318279Y-71328622D01*
X107382611Y-71330371D01*
X107436661Y-71332460D01*
X107481363Y-71334917D01*
X107517652Y-71337773D01*
X107546463Y-71341057D01*
X107568731Y-71344798D01*
X107585390Y-71349026D01*
X107597375Y-71353771D01*
X107605621Y-71359061D01*
X107611062Y-71364927D01*
X107614634Y-71371398D01*
X107617270Y-71378503D01*
X107619906Y-71386272D01*
X107623477Y-71394734D01*
X107625145Y-71399092D01*
X107627111Y-71407605D01*
X107628911Y-71420306D01*
X107630555Y-71438115D01*
X107632047Y-71461951D01*
X107633397Y-71492734D01*
X107634611Y-71531383D01*
X107635697Y-71578818D01*
X107636661Y-71635957D01*
X107637511Y-71703721D01*
X107638253Y-71783029D01*
X107638897Y-71874801D01*
X107639447Y-71979956D01*
X107639913Y-72099413D01*
X107640300Y-72234092D01*
X107640616Y-72384912D01*
X107640869Y-72552794D01*
X107641066Y-72738655D01*
X107641213Y-72943417D01*
X107641318Y-73167998D01*
X107641389Y-73413318D01*
X107641432Y-73680296D01*
X107641437Y-73718679D01*
X107641480Y-73984078D01*
X107641525Y-74227950D01*
X107641548Y-74451217D01*
X107641524Y-74654804D01*
X107641430Y-74839633D01*
X107641243Y-75006627D01*
X107640939Y-75156710D01*
X107640494Y-75290804D01*
X107639885Y-75409834D01*
X107639089Y-75514721D01*
X107638080Y-75606390D01*
X107636837Y-75685763D01*
X107635335Y-75753763D01*
X107633551Y-75811314D01*
X107631461Y-75859338D01*
X107629042Y-75898760D01*
X107626270Y-75930501D01*
X107623121Y-75955486D01*
X107619572Y-75974636D01*
X107615598Y-75988877D01*
X107611178Y-75999129D01*
X107606286Y-76006318D01*
X107600900Y-76011365D01*
X107594996Y-76015195D01*
X107588549Y-76018729D01*
X107581537Y-76022892D01*
X107579687Y-76023975D01*
X107574180Y-76026187D01*
X107565868Y-76028214D01*
X107553809Y-76030062D01*
X107537063Y-76031739D01*
X107514687Y-76033255D01*
X107485740Y-76034617D01*
X107449280Y-76035833D01*
X107404367Y-76036911D01*
X107350057Y-76037860D01*
X107285410Y-76038688D01*
X107209484Y-76039403D01*
X107121338Y-76040013D01*
X107020029Y-76040526D01*
X106904617Y-76040950D01*
X106774160Y-76041294D01*
X106627716Y-76041566D01*
X106464344Y-76041773D01*
X106283101Y-76041924D01*
X106083048Y-76042028D01*
X105863241Y-76042092D01*
X105622739Y-76042124D01*
X105360602Y-76042133D01*
X103169031Y-76042133D01*
X103130649Y-76003751D01*
X103106911Y-75976645D01*
X103095111Y-75949747D01*
X103092267Y-75913440D01*
X103092267Y-75861511D01*
X103180206Y-75861511D01*
X103230102Y-75859573D01*
X103340523Y-75840801D01*
X103441987Y-75803783D01*
X103533152Y-75750631D01*
X103612673Y-75683454D01*
X103679205Y-75604362D01*
X103731406Y-75515466D01*
X103767930Y-75418875D01*
X103787434Y-75316700D01*
X103788561Y-75212147D01*
X104604978Y-75212147D01*
X104604978Y-75657805D01*
X105781845Y-75660880D01*
X106958711Y-75663955D01*
X107017622Y-75690593D01*
X107042183Y-75702515D01*
X107072434Y-75719754D01*
X107089560Y-75732926D01*
X107097591Y-75740924D01*
X107112493Y-75748622D01*
X107113765Y-75744740D01*
X107115791Y-75721480D01*
X107117626Y-75679126D01*
X107119227Y-75619868D01*
X107120549Y-75545893D01*
X107121548Y-75459390D01*
X107122180Y-75362548D01*
X107122400Y-75257555D01*
X107122349Y-75188644D01*
X107122091Y-75090393D01*
X107121637Y-75000970D01*
X107121010Y-74922667D01*
X107120235Y-74857777D01*
X107119335Y-74808589D01*
X107118334Y-74777396D01*
X107117257Y-74766489D01*
X107114037Y-74767678D01*
X107096452Y-74777824D01*
X107070158Y-74794960D01*
X107057691Y-74803460D01*
X107043622Y-74812671D01*
X107029351Y-74820767D01*
X107013479Y-74827815D01*
X106994609Y-74833883D01*
X106971341Y-74839039D01*
X106942278Y-74843349D01*
X106906021Y-74846881D01*
X106861170Y-74849703D01*
X106806328Y-74851882D01*
X106740097Y-74853486D01*
X106661077Y-74854581D01*
X106567871Y-74855235D01*
X106459079Y-74855516D01*
X106333303Y-74855491D01*
X106189145Y-74855228D01*
X106025207Y-74854794D01*
X105840089Y-74854255D01*
X105661232Y-74853721D01*
X105502374Y-74853195D01*
X105363316Y-74852650D01*
X105242665Y-74852055D01*
X105139028Y-74851381D01*
X105051011Y-74850597D01*
X104977223Y-74849674D01*
X104916269Y-74848581D01*
X104866757Y-74847288D01*
X104827293Y-74845765D01*
X104796484Y-74843981D01*
X104772938Y-74841908D01*
X104755260Y-74839514D01*
X104742059Y-74836770D01*
X104731940Y-74833644D01*
X104723511Y-74830108D01*
X104715375Y-74826209D01*
X104678544Y-74806562D01*
X104648391Y-74787775D01*
X104646908Y-74786728D01*
X104624659Y-74772398D01*
X104611702Y-74766489D01*
X104611249Y-74767496D01*
X104609803Y-74784695D01*
X104608480Y-74821344D01*
X104607316Y-74875038D01*
X104606347Y-74943370D01*
X104605611Y-75023936D01*
X104605142Y-75114330D01*
X104604978Y-75212147D01*
X103788561Y-75212147D01*
X103788573Y-75211050D01*
X103770005Y-75104036D01*
X103730384Y-74997768D01*
X103672516Y-74900781D01*
X103597684Y-74815707D01*
X103509615Y-74746985D01*
X103410616Y-74696082D01*
X103302993Y-74664465D01*
X103189054Y-74653600D01*
X103092267Y-74653600D01*
X103092267Y-73033247D01*
X103092280Y-72822103D01*
X103092330Y-72617980D01*
X103092430Y-72434314D01*
X103092592Y-72270009D01*
X103092829Y-72123971D01*
X103093153Y-71995106D01*
X103093575Y-71882317D01*
X103094109Y-71784512D01*
X103094767Y-71700596D01*
X103095561Y-71629473D01*
X103095587Y-71627803D01*
X103701867Y-71627803D01*
X103701867Y-72687686D01*
X103764966Y-72649689D01*
X103790005Y-72635007D01*
X103817586Y-72620469D01*
X103845700Y-72608373D01*
X103876551Y-72598468D01*
X103912344Y-72590506D01*
X103955283Y-72584239D01*
X104007574Y-72579418D01*
X104071419Y-72575794D01*
X104149025Y-72573119D01*
X104242594Y-72571143D01*
X104354333Y-72569618D01*
X104486445Y-72568296D01*
X104606434Y-72567387D01*
X104723063Y-72566980D01*
X104818531Y-72567233D01*
X104892556Y-72568143D01*
X104944855Y-72569707D01*
X104975149Y-72571921D01*
X104983156Y-72574780D01*
X104979858Y-72577839D01*
X104958408Y-72595994D01*
X104921889Y-72625725D01*
X104872442Y-72665361D01*
X104812207Y-72713229D01*
X104743327Y-72767657D01*
X104667943Y-72826973D01*
X104588196Y-72889505D01*
X104506228Y-72953579D01*
X104424180Y-73017525D01*
X104344194Y-73079669D01*
X104268411Y-73138339D01*
X104198973Y-73191863D01*
X104138021Y-73238570D01*
X104087696Y-73276786D01*
X104050140Y-73304839D01*
X104027495Y-73321057D01*
X103955212Y-73366365D01*
X103875463Y-73406339D01*
X103807188Y-73427870D01*
X103749844Y-73431173D01*
X103701867Y-73425884D01*
X103702117Y-74557644D01*
X103732722Y-74518133D01*
X103740089Y-74508752D01*
X103794438Y-74445817D01*
X103862259Y-74377003D01*
X103945516Y-74300404D01*
X104046178Y-74214112D01*
X104066847Y-74196948D01*
X104116409Y-74156167D01*
X104177326Y-74106412D01*
X104247898Y-74049045D01*
X104326424Y-73985431D01*
X104411204Y-73916931D01*
X104500537Y-73844910D01*
X104592722Y-73770730D01*
X104611702Y-73755483D01*
X104686060Y-73695754D01*
X104778848Y-73621347D01*
X104869388Y-73548869D01*
X104955978Y-73479686D01*
X105036918Y-73415159D01*
X105110506Y-73356653D01*
X105175044Y-73305530D01*
X105228829Y-73263153D01*
X105270162Y-73230885D01*
X105297342Y-73210090D01*
X105308668Y-73202131D01*
X105312771Y-73203889D01*
X105333334Y-73216770D01*
X105369561Y-73241115D01*
X105419824Y-73275753D01*
X105482492Y-73319514D01*
X105555936Y-73371225D01*
X105638527Y-73429716D01*
X105728636Y-73493816D01*
X105824631Y-73562354D01*
X105924885Y-73634157D01*
X106027768Y-73708056D01*
X106131650Y-73782879D01*
X106234901Y-73857455D01*
X106335892Y-73930613D01*
X106432994Y-74001181D01*
X106524577Y-74067989D01*
X106609011Y-74129865D01*
X106684667Y-74185639D01*
X106749916Y-74234138D01*
X106803128Y-74274193D01*
X106842673Y-74304631D01*
X106868026Y-74325056D01*
X106922295Y-74371101D01*
X106978775Y-74421388D01*
X107028669Y-74468185D01*
X107122400Y-74559349D01*
X107122400Y-73404910D01*
X107046200Y-73405544D01*
X107004160Y-73404426D01*
X106968334Y-73398696D01*
X106930772Y-73386110D01*
X106882577Y-73364432D01*
X106875897Y-73361211D01*
X106826359Y-73335812D01*
X106778369Y-73309004D01*
X106741466Y-73286083D01*
X106734834Y-73281515D01*
X106703593Y-73259484D01*
X106658654Y-73227307D01*
X106602147Y-73186543D01*
X106536204Y-73138755D01*
X106462957Y-73085502D01*
X106384536Y-73028345D01*
X106303072Y-72968845D01*
X106220698Y-72908563D01*
X106139544Y-72849060D01*
X106061742Y-72791895D01*
X105989423Y-72738630D01*
X105924718Y-72690826D01*
X105869759Y-72650043D01*
X105826676Y-72617842D01*
X105797602Y-72595784D01*
X105784667Y-72585429D01*
X105780351Y-72580956D01*
X105778312Y-72576764D01*
X105780926Y-72573357D01*
X105789986Y-72570675D01*
X105807285Y-72568659D01*
X105834614Y-72567252D01*
X105873765Y-72566395D01*
X105926533Y-72566030D01*
X105994707Y-72566097D01*
X106080082Y-72566540D01*
X106184449Y-72567298D01*
X106309600Y-72568315D01*
X106354300Y-72568692D01*
X106475395Y-72569831D01*
X106576688Y-72571028D01*
X106660262Y-72572364D01*
X106728204Y-72573923D01*
X106782599Y-72575785D01*
X106825532Y-72578034D01*
X106859089Y-72580752D01*
X106885355Y-72584021D01*
X106906416Y-72587922D01*
X106924357Y-72592539D01*
X106950770Y-72600808D01*
X107012772Y-72624417D01*
X107065573Y-72650315D01*
X107102645Y-72675465D01*
X107104075Y-72676661D01*
X107108424Y-72678832D01*
X107112026Y-72676672D01*
X107114951Y-72668356D01*
X107117269Y-72652060D01*
X107119051Y-72625959D01*
X107120367Y-72588229D01*
X107121286Y-72537044D01*
X107121878Y-72470580D01*
X107122215Y-72387013D01*
X107122365Y-72284517D01*
X107122400Y-72161268D01*
X107122400Y-71629704D01*
X107064783Y-71668477D01*
X107055893Y-71674568D01*
X107041069Y-71685024D01*
X107027422Y-71694421D01*
X107013765Y-71702817D01*
X106998911Y-71710267D01*
X106981670Y-71716827D01*
X106960855Y-71722554D01*
X106935280Y-71727505D01*
X106903755Y-71731734D01*
X106865093Y-71735299D01*
X106818107Y-71738256D01*
X106761608Y-71740660D01*
X106694409Y-71742569D01*
X106615322Y-71744038D01*
X106523160Y-71745124D01*
X106416734Y-71745882D01*
X106294857Y-71746370D01*
X106156341Y-71746642D01*
X105999999Y-71746757D01*
X105824642Y-71746769D01*
X105629082Y-71746735D01*
X105412133Y-71746711D01*
X105289513Y-71746720D01*
X105084447Y-71746757D01*
X104900116Y-71746773D01*
X104735334Y-71746712D01*
X104588916Y-71746516D01*
X104459674Y-71746130D01*
X104346422Y-71745495D01*
X104247975Y-71744556D01*
X104163144Y-71743255D01*
X104090744Y-71741536D01*
X104029589Y-71739341D01*
X103978492Y-71736615D01*
X103936267Y-71733299D01*
X103901727Y-71729338D01*
X103873686Y-71724675D01*
X103850958Y-71719253D01*
X103832356Y-71713014D01*
X103816693Y-71705903D01*
X103802784Y-71697862D01*
X103789441Y-71688834D01*
X103775479Y-71678764D01*
X103759711Y-71667593D01*
X103701867Y-71627803D01*
X103095587Y-71627803D01*
X103096504Y-71570050D01*
X103097608Y-71521232D01*
X103098884Y-71481923D01*
X103100347Y-71451031D01*
X103102007Y-71427459D01*
X103103878Y-71410114D01*
X103105972Y-71397901D01*
X103108300Y-71389725D01*
X103110876Y-71384492D01*
X103114445Y-71378496D01*
X103117978Y-71371721D01*
X103121488Y-71365522D01*
X103125918Y-71359874D01*
X103132208Y-71354753D01*
X103141301Y-71350131D01*
X103154139Y-71345985D01*
X103171662Y-71342287D01*
X103194813Y-71339013D01*
X103224534Y-71336137D01*
X103261765Y-71333633D01*
X103307449Y-71331476D01*
X103362527Y-71329640D01*
X103427941Y-71328100D01*
X103504633Y-71326830D01*
X103593544Y-71325805D01*
X103695617Y-71324999D01*
X103701867Y-71324966D01*
X103811792Y-71324386D01*
X103943011Y-71323941D01*
G37*
X103943011Y-71323941D02*
X104090216Y-71323638D01*
X104254349Y-71323452D01*
X104436352Y-71323358D01*
X104637165Y-71323329D01*
X104857732Y-71323339D01*
X105098992Y-71323364D01*
X105361889Y-71323378D01*
X105404040Y-71323378D01*
X105664668Y-71323354D01*
X105903796Y-71323315D01*
X106122360Y-71323292D01*
X106321295Y-71323313D01*
X106501535Y-71323407D01*
X106664015Y-71323605D01*
X106809670Y-71323937D01*
X106939434Y-71324431D01*
X107054243Y-71325117D01*
X107155030Y-71326024D01*
X107242730Y-71327183D01*
X107318279Y-71328622D01*
X107382611Y-71330371D01*
X107436661Y-71332460D01*
X107481363Y-71334917D01*
X107517652Y-71337773D01*
X107546463Y-71341057D01*
X107568731Y-71344798D01*
X107585390Y-71349026D01*
X107597375Y-71353771D01*
X107605621Y-71359061D01*
X107611062Y-71364927D01*
X107614634Y-71371398D01*
X107617270Y-71378503D01*
X107619906Y-71386272D01*
X107623477Y-71394734D01*
X107625145Y-71399092D01*
X107627111Y-71407605D01*
X107628911Y-71420306D01*
X107630555Y-71438115D01*
X107632047Y-71461951D01*
X107633397Y-71492734D01*
X107634611Y-71531383D01*
X107635697Y-71578818D01*
X107636661Y-71635957D01*
X107637511Y-71703721D01*
X107638253Y-71783029D01*
X107638897Y-71874801D01*
X107639447Y-71979956D01*
X107639913Y-72099413D01*
X107640300Y-72234092D01*
X107640616Y-72384912D01*
X107640869Y-72552794D01*
X107641066Y-72738655D01*
X107641213Y-72943417D01*
X107641318Y-73167998D01*
X107641389Y-73413318D01*
X107641432Y-73680296D01*
X107641437Y-73718679D01*
X107641480Y-73984078D01*
X107641525Y-74227950D01*
X107641548Y-74451217D01*
X107641524Y-74654804D01*
X107641430Y-74839633D01*
X107641243Y-75006627D01*
X107640939Y-75156710D01*
X107640494Y-75290804D01*
X107639885Y-75409834D01*
X107639089Y-75514721D01*
X107638080Y-75606390D01*
X107636837Y-75685763D01*
X107635335Y-75753763D01*
X107633551Y-75811314D01*
X107631461Y-75859338D01*
X107629042Y-75898760D01*
X107626270Y-75930501D01*
X107623121Y-75955486D01*
X107619572Y-75974636D01*
X107615598Y-75988877D01*
X107611178Y-75999129D01*
X107606286Y-76006318D01*
X107600900Y-76011365D01*
X107594996Y-76015195D01*
X107588549Y-76018729D01*
X107581537Y-76022892D01*
X107579687Y-76023975D01*
X107574180Y-76026187D01*
X107565868Y-76028214D01*
X107553809Y-76030062D01*
X107537063Y-76031739D01*
X107514687Y-76033255D01*
X107485740Y-76034617D01*
X107449280Y-76035833D01*
X107404367Y-76036911D01*
X107350057Y-76037860D01*
X107285410Y-76038688D01*
X107209484Y-76039403D01*
X107121338Y-76040013D01*
X107020029Y-76040526D01*
X106904617Y-76040950D01*
X106774160Y-76041294D01*
X106627716Y-76041566D01*
X106464344Y-76041773D01*
X106283101Y-76041924D01*
X106083048Y-76042028D01*
X105863241Y-76042092D01*
X105622739Y-76042124D01*
X105360602Y-76042133D01*
X103169031Y-76042133D01*
X103130649Y-76003751D01*
X103106911Y-75976645D01*
X103095111Y-75949747D01*
X103092267Y-75913440D01*
X103092267Y-75861511D01*
X103180206Y-75861511D01*
X103230102Y-75859573D01*
X103340523Y-75840801D01*
X103441987Y-75803783D01*
X103533152Y-75750631D01*
X103612673Y-75683454D01*
X103679205Y-75604362D01*
X103731406Y-75515466D01*
X103767930Y-75418875D01*
X103787434Y-75316700D01*
X103788561Y-75212147D01*
X104604978Y-75212147D01*
X104604978Y-75657805D01*
X105781845Y-75660880D01*
X106958711Y-75663955D01*
X107017622Y-75690593D01*
X107042183Y-75702515D01*
X107072434Y-75719754D01*
X107089560Y-75732926D01*
X107097591Y-75740924D01*
X107112493Y-75748622D01*
X107113765Y-75744740D01*
X107115791Y-75721480D01*
X107117626Y-75679126D01*
X107119227Y-75619868D01*
X107120549Y-75545893D01*
X107121548Y-75459390D01*
X107122180Y-75362548D01*
X107122400Y-75257555D01*
X107122349Y-75188644D01*
X107122091Y-75090393D01*
X107121637Y-75000970D01*
X107121010Y-74922667D01*
X107120235Y-74857777D01*
X107119335Y-74808589D01*
X107118334Y-74777396D01*
X107117257Y-74766489D01*
X107114037Y-74767678D01*
X107096452Y-74777824D01*
X107070158Y-74794960D01*
X107057691Y-74803460D01*
X107043622Y-74812671D01*
X107029351Y-74820767D01*
X107013479Y-74827815D01*
X106994609Y-74833883D01*
X106971341Y-74839039D01*
X106942278Y-74843349D01*
X106906021Y-74846881D01*
X106861170Y-74849703D01*
X106806328Y-74851882D01*
X106740097Y-74853486D01*
X106661077Y-74854581D01*
X106567871Y-74855235D01*
X106459079Y-74855516D01*
X106333303Y-74855491D01*
X106189145Y-74855228D01*
X106025207Y-74854794D01*
X105840089Y-74854255D01*
X105661232Y-74853721D01*
X105502374Y-74853195D01*
X105363316Y-74852650D01*
X105242665Y-74852055D01*
X105139028Y-74851381D01*
X105051011Y-74850597D01*
X104977223Y-74849674D01*
X104916269Y-74848581D01*
X104866757Y-74847288D01*
X104827293Y-74845765D01*
X104796484Y-74843981D01*
X104772938Y-74841908D01*
X104755260Y-74839514D01*
X104742059Y-74836770D01*
X104731940Y-74833644D01*
X104723511Y-74830108D01*
X104715375Y-74826209D01*
X104678544Y-74806562D01*
X104648391Y-74787775D01*
X104646908Y-74786728D01*
X104624659Y-74772398D01*
X104611702Y-74766489D01*
X104611249Y-74767496D01*
X104609803Y-74784695D01*
X104608480Y-74821344D01*
X104607316Y-74875038D01*
X104606347Y-74943370D01*
X104605611Y-75023936D01*
X104605142Y-75114330D01*
X104604978Y-75212147D01*
X103788561Y-75212147D01*
X103788573Y-75211050D01*
X103770005Y-75104036D01*
X103730384Y-74997768D01*
X103672516Y-74900781D01*
X103597684Y-74815707D01*
X103509615Y-74746985D01*
X103410616Y-74696082D01*
X103302993Y-74664465D01*
X103189054Y-74653600D01*
X103092267Y-74653600D01*
X103092267Y-73033247D01*
X103092280Y-72822103D01*
X103092330Y-72617980D01*
X103092430Y-72434314D01*
X103092592Y-72270009D01*
X103092829Y-72123971D01*
X103093153Y-71995106D01*
X103093575Y-71882317D01*
X103094109Y-71784512D01*
X103094767Y-71700596D01*
X103095561Y-71629473D01*
X103095587Y-71627803D01*
X103701867Y-71627803D01*
X103701867Y-72687686D01*
X103764966Y-72649689D01*
X103790005Y-72635007D01*
X103817586Y-72620469D01*
X103845700Y-72608373D01*
X103876551Y-72598468D01*
X103912344Y-72590506D01*
X103955283Y-72584239D01*
X104007574Y-72579418D01*
X104071419Y-72575794D01*
X104149025Y-72573119D01*
X104242594Y-72571143D01*
X104354333Y-72569618D01*
X104486445Y-72568296D01*
X104606434Y-72567387D01*
X104723063Y-72566980D01*
X104818531Y-72567233D01*
X104892556Y-72568143D01*
X104944855Y-72569707D01*
X104975149Y-72571921D01*
X104983156Y-72574780D01*
X104979858Y-72577839D01*
X104958408Y-72595994D01*
X104921889Y-72625725D01*
X104872442Y-72665361D01*
X104812207Y-72713229D01*
X104743327Y-72767657D01*
X104667943Y-72826973D01*
X104588196Y-72889505D01*
X104506228Y-72953579D01*
X104424180Y-73017525D01*
X104344194Y-73079669D01*
X104268411Y-73138339D01*
X104198973Y-73191863D01*
X104138021Y-73238570D01*
X104087696Y-73276786D01*
X104050140Y-73304839D01*
X104027495Y-73321057D01*
X103955212Y-73366365D01*
X103875463Y-73406339D01*
X103807188Y-73427870D01*
X103749844Y-73431173D01*
X103701867Y-73425884D01*
X103702117Y-74557644D01*
X103732722Y-74518133D01*
X103740089Y-74508752D01*
X103794438Y-74445817D01*
X103862259Y-74377003D01*
X103945516Y-74300404D01*
X104046178Y-74214112D01*
X104066847Y-74196948D01*
X104116409Y-74156167D01*
X104177326Y-74106412D01*
X104247898Y-74049045D01*
X104326424Y-73985431D01*
X104411204Y-73916931D01*
X104500537Y-73844910D01*
X104592722Y-73770730D01*
X104611702Y-73755483D01*
X104686060Y-73695754D01*
X104778848Y-73621347D01*
X104869388Y-73548869D01*
X104955978Y-73479686D01*
X105036918Y-73415159D01*
X105110506Y-73356653D01*
X105175044Y-73305530D01*
X105228829Y-73263153D01*
X105270162Y-73230885D01*
X105297342Y-73210090D01*
X105308668Y-73202131D01*
X105312771Y-73203889D01*
X105333334Y-73216770D01*
X105369561Y-73241115D01*
X105419824Y-73275753D01*
X105482492Y-73319514D01*
X105555936Y-73371225D01*
X105638527Y-73429716D01*
X105728636Y-73493816D01*
X105824631Y-73562354D01*
X105924885Y-73634157D01*
X106027768Y-73708056D01*
X106131650Y-73782879D01*
X106234901Y-73857455D01*
X106335892Y-73930613D01*
X106432994Y-74001181D01*
X106524577Y-74067989D01*
X106609011Y-74129865D01*
X106684667Y-74185639D01*
X106749916Y-74234138D01*
X106803128Y-74274193D01*
X106842673Y-74304631D01*
X106868026Y-74325056D01*
X106922295Y-74371101D01*
X106978775Y-74421388D01*
X107028669Y-74468185D01*
X107122400Y-74559349D01*
X107122400Y-73404910D01*
X107046200Y-73405544D01*
X107004160Y-73404426D01*
X106968334Y-73398696D01*
X106930772Y-73386110D01*
X106882577Y-73364432D01*
X106875897Y-73361211D01*
X106826359Y-73335812D01*
X106778369Y-73309004D01*
X106741466Y-73286083D01*
X106734834Y-73281515D01*
X106703593Y-73259484D01*
X106658654Y-73227307D01*
X106602147Y-73186543D01*
X106536204Y-73138755D01*
X106462957Y-73085502D01*
X106384536Y-73028345D01*
X106303072Y-72968845D01*
X106220698Y-72908563D01*
X106139544Y-72849060D01*
X106061742Y-72791895D01*
X105989423Y-72738630D01*
X105924718Y-72690826D01*
X105869759Y-72650043D01*
X105826676Y-72617842D01*
X105797602Y-72595784D01*
X105784667Y-72585429D01*
X105780351Y-72580956D01*
X105778312Y-72576764D01*
X105780926Y-72573357D01*
X105789986Y-72570675D01*
X105807285Y-72568659D01*
X105834614Y-72567252D01*
X105873765Y-72566395D01*
X105926533Y-72566030D01*
X105994707Y-72566097D01*
X106080082Y-72566540D01*
X106184449Y-72567298D01*
X106309600Y-72568315D01*
X106354300Y-72568692D01*
X106475395Y-72569831D01*
X106576688Y-72571028D01*
X106660262Y-72572364D01*
X106728204Y-72573923D01*
X106782599Y-72575785D01*
X106825532Y-72578034D01*
X106859089Y-72580752D01*
X106885355Y-72584021D01*
X106906416Y-72587922D01*
X106924357Y-72592539D01*
X106950770Y-72600808D01*
X107012772Y-72624417D01*
X107065573Y-72650315D01*
X107102645Y-72675465D01*
X107104075Y-72676661D01*
X107108424Y-72678832D01*
X107112026Y-72676672D01*
X107114951Y-72668356D01*
X107117269Y-72652060D01*
X107119051Y-72625959D01*
X107120367Y-72588229D01*
X107121286Y-72537044D01*
X107121878Y-72470580D01*
X107122215Y-72387013D01*
X107122365Y-72284517D01*
X107122400Y-72161268D01*
X107122400Y-71629704D01*
X107064783Y-71668477D01*
X107055893Y-71674568D01*
X107041069Y-71685024D01*
X107027422Y-71694421D01*
X107013765Y-71702817D01*
X106998911Y-71710267D01*
X106981670Y-71716827D01*
X106960855Y-71722554D01*
X106935280Y-71727505D01*
X106903755Y-71731734D01*
X106865093Y-71735299D01*
X106818107Y-71738256D01*
X106761608Y-71740660D01*
X106694409Y-71742569D01*
X106615322Y-71744038D01*
X106523160Y-71745124D01*
X106416734Y-71745882D01*
X106294857Y-71746370D01*
X106156341Y-71746642D01*
X105999999Y-71746757D01*
X105824642Y-71746769D01*
X105629082Y-71746735D01*
X105412133Y-71746711D01*
X105289513Y-71746720D01*
X105084447Y-71746757D01*
X104900116Y-71746773D01*
X104735334Y-71746712D01*
X104588916Y-71746516D01*
X104459674Y-71746130D01*
X104346422Y-71745495D01*
X104247975Y-71744556D01*
X104163144Y-71743255D01*
X104090744Y-71741536D01*
X104029589Y-71739341D01*
X103978492Y-71736615D01*
X103936267Y-71733299D01*
X103901727Y-71729338D01*
X103873686Y-71724675D01*
X103850958Y-71719253D01*
X103832356Y-71713014D01*
X103816693Y-71705903D01*
X103802784Y-71697862D01*
X103789441Y-71688834D01*
X103775479Y-71678764D01*
X103759711Y-71667593D01*
X103701867Y-71627803D01*
X103095587Y-71627803D01*
X103096504Y-71570050D01*
X103097608Y-71521232D01*
X103098884Y-71481923D01*
X103100347Y-71451031D01*
X103102007Y-71427459D01*
X103103878Y-71410114D01*
X103105972Y-71397901D01*
X103108300Y-71389725D01*
X103110876Y-71384492D01*
X103114445Y-71378496D01*
X103117978Y-71371721D01*
X103121488Y-71365522D01*
X103125918Y-71359874D01*
X103132208Y-71354753D01*
X103141301Y-71350131D01*
X103154139Y-71345985D01*
X103171662Y-71342287D01*
X103194813Y-71339013D01*
X103224534Y-71336137D01*
X103261765Y-71333633D01*
X103307449Y-71331476D01*
X103362527Y-71329640D01*
X103427941Y-71328100D01*
X103504633Y-71326830D01*
X103593544Y-71325805D01*
X103695617Y-71324999D01*
X103701867Y-71324966D01*
X103811792Y-71324386D01*
X103943011Y-71323941D01*
G36*
X75220526Y-103423786D02*
G01*
X75219253Y-103422898D01*
X75179877Y-103427726D01*
X75094951Y-103456053D01*
X74968875Y-103506142D01*
X74806054Y-103576252D01*
X74610889Y-103664645D01*
X74598271Y-103670420D01*
X74404056Y-103742880D01*
X74229889Y-103773699D01*
X74136886Y-103784295D01*
X73998516Y-103809414D01*
X73869275Y-103841534D01*
X73677995Y-103898098D01*
X73509442Y-103768400D01*
X73425692Y-103701082D01*
X73372161Y-103647128D01*
X73347102Y-103599936D01*
X73340889Y-103546853D01*
X73341265Y-103534457D01*
X73372900Y-103435725D01*
X73403798Y-103402111D01*
X75231778Y-103402111D01*
X75245889Y-103416222D01*
X75260000Y-103402111D01*
X75245889Y-103388000D01*
X75231778Y-103402111D01*
X73403798Y-103402111D01*
X73447585Y-103354476D01*
X73554210Y-103296959D01*
X73681666Y-103269420D01*
X73818844Y-103278104D01*
X73850889Y-103281759D01*
X73964366Y-103269506D01*
X74115232Y-103227129D01*
X74297311Y-103156591D01*
X74504431Y-103059858D01*
X74673269Y-102950743D01*
X74836501Y-102789550D01*
X74963654Y-102597803D01*
X74969503Y-102585445D01*
X74998234Y-102506481D01*
X75031140Y-102395655D01*
X75063227Y-102271921D01*
X75089499Y-102154236D01*
X75104962Y-102061555D01*
X75109894Y-102034859D01*
X75130450Y-101954757D01*
X75162352Y-101845768D01*
X75201153Y-101723514D01*
X75224975Y-101648460D01*
X75255312Y-101541991D01*
X75273636Y-101462427D01*
X75276635Y-101422955D01*
X75259457Y-101410705D01*
X75195562Y-101399940D01*
X75097283Y-101398000D01*
X74977384Y-101404469D01*
X74848627Y-101418931D01*
X74723778Y-101440971D01*
X74660611Y-101454590D01*
X74524621Y-101483129D01*
X74431958Y-101500759D01*
X74374106Y-101508779D01*
X74342550Y-101508487D01*
X74328775Y-101501180D01*
X74314033Y-101491804D01*
X74256406Y-101469920D01*
X74173444Y-101445860D01*
X74092274Y-101417286D01*
X73977501Y-101361861D01*
X73870055Y-101296358D01*
X73862043Y-101290784D01*
X73784017Y-101238780D01*
X73728757Y-101205998D01*
X73707778Y-101199324D01*
X73707649Y-101199896D01*
X73686290Y-101187606D01*
X73635452Y-101145205D01*
X73565373Y-101081182D01*
X73562468Y-101078444D01*
X73489230Y-101012255D01*
X73432053Y-100965621D01*
X73403095Y-100948485D01*
X73383360Y-100938134D01*
X73332977Y-100897228D01*
X73267050Y-100835596D01*
X73220910Y-100790676D01*
X73137389Y-100711629D01*
X73069495Y-100649958D01*
X73053426Y-100635531D01*
X72977046Y-100560550D01*
X72903444Y-100480625D01*
X72874568Y-100446231D01*
X72847682Y-100406122D01*
X72831479Y-100360540D01*
X72823476Y-100296742D01*
X72821188Y-100201988D01*
X72822132Y-100063537D01*
X72822660Y-100018407D01*
X72825580Y-99891805D01*
X72831805Y-99806137D01*
X72843497Y-99749332D01*
X72862820Y-99709312D01*
X72891939Y-99674004D01*
X72928475Y-99641982D01*
X72998132Y-99618248D01*
X73082758Y-99637232D01*
X73192280Y-99699786D01*
X73193996Y-99700947D01*
X73257194Y-99749519D01*
X73294824Y-99800378D01*
X73315612Y-99871576D01*
X73328282Y-99981163D01*
X73330302Y-100002641D01*
X73342380Y-100070030D01*
X73368663Y-100125948D01*
X73418849Y-100186289D01*
X73502634Y-100266949D01*
X73521528Y-100284334D01*
X73598376Y-100352751D01*
X73657230Y-100401572D01*
X73686611Y-100421174D01*
X73709995Y-100431838D01*
X73754045Y-100468771D01*
X73790824Y-100512645D01*
X73801288Y-100543195D01*
X73804186Y-100562262D01*
X73844063Y-100590614D01*
X73910576Y-100613080D01*
X73986307Y-100622222D01*
X74052153Y-100617979D01*
X74122893Y-100599406D01*
X74200603Y-100560513D01*
X74296838Y-100495370D01*
X74423153Y-100398046D01*
X74484465Y-100350577D01*
X74570120Y-100288941D01*
X74633309Y-100249385D01*
X74663526Y-100238869D01*
X74664923Y-100239404D01*
X74696962Y-100223592D01*
X74754065Y-100175968D01*
X74824865Y-100105899D01*
X74958918Y-99964026D01*
X74962862Y-99962596D01*
X74986373Y-99963265D01*
X75030570Y-99935178D01*
X75061301Y-99911488D01*
X75133604Y-99872824D01*
X75225592Y-99833686D01*
X75300222Y-99805648D01*
X75377431Y-99773400D01*
X75431749Y-99739157D01*
X75467299Y-99693848D01*
X75488203Y-99628403D01*
X75498582Y-99533754D01*
X75502560Y-99400829D01*
X75504259Y-99220560D01*
X75505618Y-99102894D01*
X75509778Y-98912852D01*
X75516943Y-98762921D01*
X75528281Y-98642350D01*
X75544963Y-98540383D01*
X75568159Y-98446268D01*
X75599038Y-98349252D01*
X75606375Y-98327709D01*
X75629889Y-98247798D01*
X75637885Y-98180526D01*
X75631064Y-98103404D01*
X75610130Y-97993944D01*
X75584137Y-97882938D01*
X75552835Y-97771445D01*
X75524533Y-97690559D01*
X75518722Y-97676612D01*
X75489318Y-97594851D01*
X75473449Y-97531889D01*
X75473433Y-97531771D01*
X75461982Y-97464283D01*
X75444914Y-97381356D01*
X75428423Y-97324338D01*
X75401349Y-97299536D01*
X75349560Y-97305903D01*
X75287711Y-97316407D01*
X75188717Y-97327190D01*
X75076788Y-97335346D01*
X74976969Y-97343825D01*
X74825287Y-97364181D01*
X74690572Y-97389684D01*
X74592154Y-97409109D01*
X74508502Y-97419237D01*
X74461042Y-97417157D01*
X74443740Y-97415861D01*
X74377910Y-97426709D01*
X74280750Y-97452109D01*
X74166369Y-97488639D01*
X74130787Y-97500821D01*
X74023566Y-97534463D01*
X73927276Y-97557192D01*
X73825073Y-97571602D01*
X73700115Y-97580289D01*
X73535559Y-97585850D01*
X73157582Y-97595524D01*
X73069660Y-97502299D01*
X73056240Y-97488023D01*
X73020099Y-97445738D01*
X72998876Y-97404823D01*
X72989512Y-97350842D01*
X72988944Y-97269355D01*
X72994113Y-97145926D01*
X72996796Y-97093043D01*
X73005293Y-96981973D01*
X73017827Y-96909829D01*
X73037364Y-96863783D01*
X73066865Y-96831009D01*
X73067243Y-96830686D01*
X73136278Y-96794471D01*
X73227010Y-96795694D01*
X73235846Y-96797147D01*
X73311544Y-96809315D01*
X73361518Y-96816888D01*
X73374090Y-96823959D01*
X73408238Y-96870099D01*
X73442963Y-96943926D01*
X73447211Y-96954928D01*
X73480908Y-97026224D01*
X73517306Y-97058589D01*
X73571306Y-97066222D01*
X73599540Y-97063164D01*
X73690928Y-97035568D01*
X73809227Y-96984293D01*
X73941088Y-96915484D01*
X74073161Y-96835284D01*
X74100504Y-96818357D01*
X74141174Y-96799997D01*
X74146146Y-96810727D01*
X74152426Y-96815196D01*
X74197486Y-96799574D01*
X74276179Y-96763986D01*
X74379825Y-96712942D01*
X74499739Y-96650951D01*
X74627239Y-96582522D01*
X74753643Y-96512163D01*
X74870268Y-96444384D01*
X74968432Y-96383695D01*
X75058610Y-96318259D01*
X75156550Y-96230845D01*
X75224741Y-96150770D01*
X75243108Y-96122284D01*
X75274798Y-96062382D01*
X75292175Y-95999752D01*
X75298965Y-95916517D01*
X75298889Y-95794803D01*
X75301197Y-95650739D01*
X75315463Y-95538785D01*
X75343749Y-95454330D01*
X75364418Y-95409301D01*
X75376853Y-95360057D01*
X75361890Y-95315291D01*
X75316189Y-95250266D01*
X75292179Y-95220098D01*
X75247670Y-95175725D01*
X75221823Y-95166473D01*
X75212769Y-95169974D01*
X75203555Y-95142784D01*
X75203555Y-95142707D01*
X75183401Y-95090166D01*
X75132705Y-95019310D01*
X75065851Y-94945928D01*
X74997219Y-94885809D01*
X74941193Y-94854742D01*
X74926543Y-94848954D01*
X74863250Y-94803956D01*
X74774276Y-94721942D01*
X74665627Y-94609052D01*
X74543311Y-94471425D01*
X74413333Y-94315203D01*
X74346415Y-94233458D01*
X74250941Y-94119619D01*
X74166389Y-94021529D01*
X74109377Y-93953391D01*
X74063885Y-93891539D01*
X74046444Y-93857113D01*
X74031705Y-93828673D01*
X73986538Y-93771374D01*
X73921553Y-93700357D01*
X73862946Y-93636942D01*
X73820580Y-93584315D01*
X73809000Y-93559518D01*
X73809303Y-93559098D01*
X73795293Y-93532836D01*
X73750453Y-93479018D01*
X73683995Y-93408757D01*
X73613316Y-93334528D01*
X73559944Y-93272881D01*
X73535493Y-93237222D01*
X73518092Y-93209275D01*
X73470648Y-93150324D01*
X73405862Y-93078174D01*
X73352606Y-93017881D01*
X73312383Y-92963560D01*
X73302878Y-92936752D01*
X73304483Y-92926165D01*
X73289035Y-92877453D01*
X73254051Y-92806838D01*
X73232581Y-92770560D01*
X73196720Y-92719601D01*
X73176892Y-92705256D01*
X73166701Y-92702202D01*
X73130938Y-92666897D01*
X73081591Y-92604276D01*
X73055222Y-92565939D01*
X73019354Y-92495371D01*
X73001552Y-92415092D01*
X72995166Y-92301836D01*
X72994784Y-92206171D01*
X73007808Y-92020938D01*
X73041567Y-91884579D01*
X73097653Y-91793970D01*
X73177662Y-91745990D01*
X73283187Y-91737515D01*
X73369947Y-91754600D01*
X73431008Y-91797754D01*
X73464718Y-91876149D01*
X73478440Y-91999672D01*
X73484527Y-92071427D01*
X73504063Y-92182662D01*
X73530693Y-92267783D01*
X73558990Y-92323005D01*
X73615939Y-92408649D01*
X73673405Y-92470589D01*
X73719753Y-92494849D01*
X73749047Y-92511990D01*
X73803946Y-92561781D01*
X73870431Y-92632692D01*
X73932149Y-92696790D01*
X74011140Y-92764758D01*
X74074684Y-92804674D01*
X74081027Y-92807383D01*
X74131580Y-92837316D01*
X74144639Y-92862054D01*
X74143568Y-92867686D01*
X74165139Y-92903280D01*
X74216929Y-92950501D01*
X74278108Y-92999256D01*
X74365896Y-93072175D01*
X74457341Y-93150389D01*
X74463875Y-93156043D01*
X74544009Y-93220948D01*
X74610027Y-93266963D01*
X74648199Y-93284444D01*
X74685113Y-93296567D01*
X74739623Y-93334979D01*
X74773106Y-93359334D01*
X74851049Y-93406499D01*
X74956539Y-93464937D01*
X75076555Y-93527219D01*
X75358778Y-93668924D01*
X75683333Y-93675942D01*
X75762902Y-93677945D01*
X75955105Y-93684305D01*
X76155745Y-93692559D01*
X76332444Y-93701435D01*
X76381440Y-93704197D01*
X76573909Y-93714006D01*
X76721917Y-93718609D01*
X76835163Y-93717211D01*
X76923349Y-93709016D01*
X76996175Y-93693229D01*
X77063342Y-93669056D01*
X77134552Y-93635701D01*
X77193832Y-93603813D01*
X77391023Y-93465573D01*
X77567005Y-93294269D01*
X77704162Y-93106277D01*
X77722656Y-93074296D01*
X77766756Y-92988676D01*
X77792887Y-92910956D01*
X77806759Y-92819692D01*
X77814083Y-92693436D01*
X77815851Y-92653889D01*
X77823083Y-92542856D01*
X77832007Y-92456044D01*
X77841091Y-92409555D01*
X77845423Y-92402438D01*
X77887448Y-92361646D01*
X77961383Y-92304307D01*
X78054543Y-92240469D01*
X78090377Y-92217873D01*
X78224692Y-92148486D01*
X78252259Y-92142148D01*
X78265667Y-92155555D01*
X78279778Y-92141444D01*
X78275206Y-92136872D01*
X78341131Y-92121715D01*
X78451685Y-92138843D01*
X78568348Y-92201157D01*
X78703111Y-92309940D01*
X78756687Y-92354694D01*
X78861427Y-92430669D01*
X78957111Y-92488138D01*
X79026355Y-92529088D01*
X79108298Y-92586240D01*
X79190209Y-92649584D01*
X79260421Y-92709647D01*
X79307266Y-92756954D01*
X79319077Y-92782034D01*
X79317335Y-92785937D01*
X79325181Y-92825047D01*
X79351203Y-92885966D01*
X79385652Y-92950126D01*
X79418777Y-92998960D01*
X79440828Y-93013899D01*
X79455239Y-93015814D01*
X79465111Y-93053982D01*
X79467244Y-93079343D01*
X79484727Y-93108715D01*
X79528248Y-93123245D01*
X79607761Y-93125278D01*
X79733222Y-93117159D01*
X79851356Y-93108930D01*
X79956210Y-93107290D01*
X80018269Y-93116653D01*
X80044780Y-93138342D01*
X80042993Y-93173679D01*
X80038974Y-93211297D01*
X80069987Y-93228000D01*
X80091270Y-93231799D01*
X80114222Y-93258594D01*
X80105744Y-93274269D01*
X80064137Y-93326334D01*
X79993765Y-93406011D01*
X79901267Y-93505856D01*
X79793281Y-93618427D01*
X79713434Y-93701605D01*
X79569273Y-93861347D01*
X79469459Y-93988147D01*
X79413451Y-94082665D01*
X79392195Y-94135954D01*
X79378396Y-94186595D01*
X79385816Y-94198347D01*
X79400553Y-94194654D01*
X79395128Y-94221179D01*
X79364710Y-94276609D01*
X79315228Y-94352053D01*
X79252608Y-94438620D01*
X79182779Y-94527417D01*
X79111669Y-94609553D01*
X79063963Y-94661762D01*
X78918639Y-94827216D01*
X78805679Y-94968545D01*
X78717250Y-95096004D01*
X78645519Y-95219848D01*
X78638610Y-95233015D01*
X78602157Y-95306824D01*
X78580585Y-95368470D01*
X78571244Y-95435063D01*
X78571484Y-95523716D01*
X78578655Y-95651539D01*
X78582478Y-95704567D01*
X78596089Y-95843866D01*
X78613015Y-95971192D01*
X78630467Y-96064333D01*
X78640180Y-96108915D01*
X78660453Y-96236755D01*
X78671571Y-96358958D01*
X78675548Y-96419846D01*
X78685429Y-96499000D01*
X78697314Y-96542403D01*
X78706935Y-96577007D01*
X78716611Y-96653549D01*
X78722737Y-96751840D01*
X78728164Y-96836828D01*
X78741183Y-96943294D01*
X78757711Y-97019952D01*
X78773179Y-97085421D01*
X78789735Y-97189837D01*
X78802011Y-97304192D01*
X78802071Y-97304948D01*
X78813447Y-97407412D01*
X78828233Y-97488499D01*
X78843247Y-97530713D01*
X78846184Y-97535509D01*
X78860423Y-97587086D01*
X78874104Y-97675540D01*
X78884622Y-97784874D01*
X78886727Y-97812288D01*
X78897885Y-97914728D01*
X78911277Y-97990209D01*
X78924453Y-98024019D01*
X78933845Y-98040894D01*
X78946419Y-98101935D01*
X78953361Y-98188540D01*
X78958602Y-98264437D01*
X78974518Y-98394224D01*
X78996316Y-98519111D01*
X79013448Y-98610465D01*
X79022847Y-98681786D01*
X79021706Y-98713775D01*
X79020362Y-98717169D01*
X79020499Y-98760951D01*
X79028343Y-98842530D01*
X79042619Y-98947648D01*
X79049190Y-98997963D01*
X79061757Y-99148147D01*
X79070488Y-99333814D01*
X79075383Y-99541849D01*
X79076445Y-99759139D01*
X79073676Y-99972571D01*
X79067077Y-100169029D01*
X79056651Y-100335401D01*
X79042399Y-100458572D01*
X79039515Y-100476401D01*
X79025095Y-100586939D01*
X79018560Y-100678765D01*
X79021318Y-100733525D01*
X79023992Y-100756438D01*
X79017433Y-100832594D01*
X78996746Y-100922828D01*
X78988175Y-100952650D01*
X78958791Y-101126816D01*
X78974393Y-101282598D01*
X79036139Y-101435051D01*
X79046135Y-101452383D01*
X79098181Y-101530026D01*
X79168809Y-101623851D01*
X79249317Y-101723606D01*
X79331003Y-101819040D01*
X79405163Y-101899899D01*
X79463095Y-101955933D01*
X79496096Y-101976889D01*
X79517180Y-101984351D01*
X79575753Y-102014697D01*
X79653736Y-102060435D01*
X79709648Y-102092654D01*
X79796483Y-102135339D01*
X79860222Y-102157875D01*
X79899916Y-102167596D01*
X79987311Y-102193546D01*
X80086000Y-102226415D01*
X80308669Y-102295878D01*
X80681936Y-102370676D01*
X81045555Y-102389934D01*
X81135154Y-102386474D01*
X81254638Y-102377504D01*
X81347302Y-102365327D01*
X81398333Y-102351553D01*
X81493247Y-102300824D01*
X81592036Y-102252156D01*
X81672412Y-102216729D01*
X81723969Y-102199092D01*
X81736303Y-102203794D01*
X81735322Y-102205406D01*
X81730928Y-102226244D01*
X81757187Y-102216361D01*
X81803769Y-102183095D01*
X81860342Y-102133783D01*
X81916574Y-102075763D01*
X81944399Y-102043433D01*
X81992549Y-101981075D01*
X82003091Y-101953841D01*
X81974810Y-101964062D01*
X81968147Y-101964347D01*
X81973411Y-101934023D01*
X82000676Y-101872693D01*
X82059488Y-101725373D01*
X82084113Y-101585589D01*
X82072876Y-101466519D01*
X82025233Y-101379140D01*
X81991147Y-101339709D01*
X81931874Y-101259797D01*
X81871498Y-101169172D01*
X81822051Y-101086170D01*
X81795563Y-101029124D01*
X81792043Y-101010669D01*
X81811048Y-100947847D01*
X81874332Y-100898459D01*
X81931104Y-100879673D01*
X81920444Y-100890333D01*
X81934555Y-100904444D01*
X81948667Y-100890333D01*
X81936290Y-100877957D01*
X81972871Y-100865852D01*
X82097642Y-100853374D01*
X82239623Y-100864373D01*
X82283472Y-100877443D01*
X82380765Y-100933908D01*
X82484774Y-101020884D01*
X82582739Y-101125547D01*
X82661898Y-101235070D01*
X82709493Y-101336629D01*
X82717635Y-101363381D01*
X82745380Y-101445465D01*
X82768126Y-101501005D01*
X82770157Y-101506449D01*
X82773615Y-101563083D01*
X82766986Y-101656723D01*
X82752421Y-101772307D01*
X82732070Y-101894770D01*
X82708084Y-102009047D01*
X82682613Y-102100075D01*
X82667416Y-102163454D01*
X82669508Y-102204567D01*
X82671278Y-102217522D01*
X82654362Y-102272885D01*
X82614996Y-102354670D01*
X82560503Y-102449677D01*
X82498206Y-102544705D01*
X82435427Y-102626552D01*
X82403235Y-102659317D01*
X82335875Y-102716789D01*
X82250888Y-102782060D01*
X82157224Y-102849153D01*
X82063835Y-102912091D01*
X81979669Y-102964897D01*
X81913679Y-103001595D01*
X81874814Y-103016208D01*
X81872025Y-103002760D01*
X81872357Y-103001885D01*
X81848426Y-103002708D01*
X81781665Y-103019082D01*
X81681644Y-103048407D01*
X81557931Y-103088085D01*
X81512667Y-103103045D01*
X81376731Y-103145744D01*
X81269875Y-103173102D01*
X81173381Y-103188356D01*
X81068530Y-103194740D01*
X80936602Y-103195492D01*
X80891733Y-103194768D01*
X80732356Y-103186272D01*
X80582719Y-103170224D01*
X80466135Y-103148932D01*
X80377603Y-103128280D01*
X80302305Y-103113909D01*
X80264644Y-103110903D01*
X80236461Y-103107191D01*
X80168676Y-103087476D01*
X80079753Y-103055909D01*
X80005561Y-103028773D01*
X79914920Y-102998732D01*
X79853975Y-102982277D01*
X79814080Y-102970547D01*
X79731947Y-102937749D01*
X79638653Y-102893997D01*
X79631602Y-102890443D01*
X79524172Y-102839556D01*
X79445043Y-102810871D01*
X79375405Y-102797493D01*
X79359996Y-102791050D01*
X79318960Y-102758999D01*
X79313726Y-102754209D01*
X79267685Y-102719312D01*
X79201676Y-102674836D01*
X79132264Y-102631252D01*
X79076010Y-102599031D01*
X79049480Y-102588642D01*
X79038410Y-102591160D01*
X78997136Y-102582015D01*
X78955991Y-102561763D01*
X78942413Y-102542282D01*
X78929587Y-102522797D01*
X78877728Y-102486162D01*
X78798254Y-102441967D01*
X78724721Y-102403163D01*
X78650146Y-102359948D01*
X78608658Y-102330920D01*
X78564093Y-102295350D01*
X78500959Y-102253532D01*
X78435879Y-102215386D01*
X78384993Y-102190365D01*
X78364444Y-102187919D01*
X78360218Y-102193805D01*
X78329167Y-102183724D01*
X78314653Y-102176748D01*
X78236016Y-102163139D01*
X78122355Y-102163211D01*
X77988407Y-102175267D01*
X77848907Y-102197607D01*
X77718589Y-102228535D01*
X77612191Y-102266350D01*
X77569176Y-102280359D01*
X77527524Y-102279431D01*
X77519810Y-102277191D01*
X77466608Y-102279167D01*
X77365361Y-102293754D01*
X77213830Y-102321310D01*
X77009778Y-102362194D01*
X76974761Y-102367749D01*
X76885831Y-102376794D01*
X76784000Y-102383058D01*
X76761767Y-102384214D01*
X76639953Y-102401420D01*
X76522671Y-102440072D01*
X76402267Y-102504930D01*
X76271085Y-102600755D01*
X76121471Y-102732308D01*
X75945769Y-102904349D01*
X75846749Y-103003395D01*
X75713964Y-103129875D01*
X75603985Y-103224591D01*
X75508483Y-103294538D01*
X75419133Y-103346712D01*
X75407753Y-103352494D01*
X75318660Y-103394296D01*
X75251667Y-103419839D01*
X75245889Y-103420572D01*
X75220526Y-103423786D01*
G37*
X75220526Y-103423786D02*
X75219253Y-103422898D01*
X75179877Y-103427726D01*
X75094951Y-103456053D01*
X74968875Y-103506142D01*
X74806054Y-103576252D01*
X74610889Y-103664645D01*
X74598271Y-103670420D01*
X74404056Y-103742880D01*
X74229889Y-103773699D01*
X74136886Y-103784295D01*
X73998516Y-103809414D01*
X73869275Y-103841534D01*
X73677995Y-103898098D01*
X73509442Y-103768400D01*
X73425692Y-103701082D01*
X73372161Y-103647128D01*
X73347102Y-103599936D01*
X73340889Y-103546853D01*
X73341265Y-103534457D01*
X73372900Y-103435725D01*
X73403798Y-103402111D01*
X75231778Y-103402111D01*
X75245889Y-103416222D01*
X75260000Y-103402111D01*
X75245889Y-103388000D01*
X75231778Y-103402111D01*
X73403798Y-103402111D01*
X73447585Y-103354476D01*
X73554210Y-103296959D01*
X73681666Y-103269420D01*
X73818844Y-103278104D01*
X73850889Y-103281759D01*
X73964366Y-103269506D01*
X74115232Y-103227129D01*
X74297311Y-103156591D01*
X74504431Y-103059858D01*
X74673269Y-102950743D01*
X74836501Y-102789550D01*
X74963654Y-102597803D01*
X74969503Y-102585445D01*
X74998234Y-102506481D01*
X75031140Y-102395655D01*
X75063227Y-102271921D01*
X75089499Y-102154236D01*
X75104962Y-102061555D01*
X75109894Y-102034859D01*
X75130450Y-101954757D01*
X75162352Y-101845768D01*
X75201153Y-101723514D01*
X75224975Y-101648460D01*
X75255312Y-101541991D01*
X75273636Y-101462427D01*
X75276635Y-101422955D01*
X75259457Y-101410705D01*
X75195562Y-101399940D01*
X75097283Y-101398000D01*
X74977384Y-101404469D01*
X74848627Y-101418931D01*
X74723778Y-101440971D01*
X74660611Y-101454590D01*
X74524621Y-101483129D01*
X74431958Y-101500759D01*
X74374106Y-101508779D01*
X74342550Y-101508487D01*
X74328775Y-101501180D01*
X74314033Y-101491804D01*
X74256406Y-101469920D01*
X74173444Y-101445860D01*
X74092274Y-101417286D01*
X73977501Y-101361861D01*
X73870055Y-101296358D01*
X73862043Y-101290784D01*
X73784017Y-101238780D01*
X73728757Y-101205998D01*
X73707778Y-101199324D01*
X73707649Y-101199896D01*
X73686290Y-101187606D01*
X73635452Y-101145205D01*
X73565373Y-101081182D01*
X73562468Y-101078444D01*
X73489230Y-101012255D01*
X73432053Y-100965621D01*
X73403095Y-100948485D01*
X73383360Y-100938134D01*
X73332977Y-100897228D01*
X73267050Y-100835596D01*
X73220910Y-100790676D01*
X73137389Y-100711629D01*
X73069495Y-100649958D01*
X73053426Y-100635531D01*
X72977046Y-100560550D01*
X72903444Y-100480625D01*
X72874568Y-100446231D01*
X72847682Y-100406122D01*
X72831479Y-100360540D01*
X72823476Y-100296742D01*
X72821188Y-100201988D01*
X72822132Y-100063537D01*
X72822660Y-100018407D01*
X72825580Y-99891805D01*
X72831805Y-99806137D01*
X72843497Y-99749332D01*
X72862820Y-99709312D01*
X72891939Y-99674004D01*
X72928475Y-99641982D01*
X72998132Y-99618248D01*
X73082758Y-99637232D01*
X73192280Y-99699786D01*
X73193996Y-99700947D01*
X73257194Y-99749519D01*
X73294824Y-99800378D01*
X73315612Y-99871576D01*
X73328282Y-99981163D01*
X73330302Y-100002641D01*
X73342380Y-100070030D01*
X73368663Y-100125948D01*
X73418849Y-100186289D01*
X73502634Y-100266949D01*
X73521528Y-100284334D01*
X73598376Y-100352751D01*
X73657230Y-100401572D01*
X73686611Y-100421174D01*
X73709995Y-100431838D01*
X73754045Y-100468771D01*
X73790824Y-100512645D01*
X73801288Y-100543195D01*
X73804186Y-100562262D01*
X73844063Y-100590614D01*
X73910576Y-100613080D01*
X73986307Y-100622222D01*
X74052153Y-100617979D01*
X74122893Y-100599406D01*
X74200603Y-100560513D01*
X74296838Y-100495370D01*
X74423153Y-100398046D01*
X74484465Y-100350577D01*
X74570120Y-100288941D01*
X74633309Y-100249385D01*
X74663526Y-100238869D01*
X74664923Y-100239404D01*
X74696962Y-100223592D01*
X74754065Y-100175968D01*
X74824865Y-100105899D01*
X74958918Y-99964026D01*
X74962862Y-99962596D01*
X74986373Y-99963265D01*
X75030570Y-99935178D01*
X75061301Y-99911488D01*
X75133604Y-99872824D01*
X75225592Y-99833686D01*
X75300222Y-99805648D01*
X75377431Y-99773400D01*
X75431749Y-99739157D01*
X75467299Y-99693848D01*
X75488203Y-99628403D01*
X75498582Y-99533754D01*
X75502560Y-99400829D01*
X75504259Y-99220560D01*
X75505618Y-99102894D01*
X75509778Y-98912852D01*
X75516943Y-98762921D01*
X75528281Y-98642350D01*
X75544963Y-98540383D01*
X75568159Y-98446268D01*
X75599038Y-98349252D01*
X75606375Y-98327709D01*
X75629889Y-98247798D01*
X75637885Y-98180526D01*
X75631064Y-98103404D01*
X75610130Y-97993944D01*
X75584137Y-97882938D01*
X75552835Y-97771445D01*
X75524533Y-97690559D01*
X75518722Y-97676612D01*
X75489318Y-97594851D01*
X75473449Y-97531889D01*
X75473433Y-97531771D01*
X75461982Y-97464283D01*
X75444914Y-97381356D01*
X75428423Y-97324338D01*
X75401349Y-97299536D01*
X75349560Y-97305903D01*
X75287711Y-97316407D01*
X75188717Y-97327190D01*
X75076788Y-97335346D01*
X74976969Y-97343825D01*
X74825287Y-97364181D01*
X74690572Y-97389684D01*
X74592154Y-97409109D01*
X74508502Y-97419237D01*
X74461042Y-97417157D01*
X74443740Y-97415861D01*
X74377910Y-97426709D01*
X74280750Y-97452109D01*
X74166369Y-97488639D01*
X74130787Y-97500821D01*
X74023566Y-97534463D01*
X73927276Y-97557192D01*
X73825073Y-97571602D01*
X73700115Y-97580289D01*
X73535559Y-97585850D01*
X73157582Y-97595524D01*
X73069660Y-97502299D01*
X73056240Y-97488023D01*
X73020099Y-97445738D01*
X72998876Y-97404823D01*
X72989512Y-97350842D01*
X72988944Y-97269355D01*
X72994113Y-97145926D01*
X72996796Y-97093043D01*
X73005293Y-96981973D01*
X73017827Y-96909829D01*
X73037364Y-96863783D01*
X73066865Y-96831009D01*
X73067243Y-96830686D01*
X73136278Y-96794471D01*
X73227010Y-96795694D01*
X73235846Y-96797147D01*
X73311544Y-96809315D01*
X73361518Y-96816888D01*
X73374090Y-96823959D01*
X73408238Y-96870099D01*
X73442963Y-96943926D01*
X73447211Y-96954928D01*
X73480908Y-97026224D01*
X73517306Y-97058589D01*
X73571306Y-97066222D01*
X73599540Y-97063164D01*
X73690928Y-97035568D01*
X73809227Y-96984293D01*
X73941088Y-96915484D01*
X74073161Y-96835284D01*
X74100504Y-96818357D01*
X74141174Y-96799997D01*
X74146146Y-96810727D01*
X74152426Y-96815196D01*
X74197486Y-96799574D01*
X74276179Y-96763986D01*
X74379825Y-96712942D01*
X74499739Y-96650951D01*
X74627239Y-96582522D01*
X74753643Y-96512163D01*
X74870268Y-96444384D01*
X74968432Y-96383695D01*
X75058610Y-96318259D01*
X75156550Y-96230845D01*
X75224741Y-96150770D01*
X75243108Y-96122284D01*
X75274798Y-96062382D01*
X75292175Y-95999752D01*
X75298965Y-95916517D01*
X75298889Y-95794803D01*
X75301197Y-95650739D01*
X75315463Y-95538785D01*
X75343749Y-95454330D01*
X75364418Y-95409301D01*
X75376853Y-95360057D01*
X75361890Y-95315291D01*
X75316189Y-95250266D01*
X75292179Y-95220098D01*
X75247670Y-95175725D01*
X75221823Y-95166473D01*
X75212769Y-95169974D01*
X75203555Y-95142784D01*
X75203555Y-95142707D01*
X75183401Y-95090166D01*
X75132705Y-95019310D01*
X75065851Y-94945928D01*
X74997219Y-94885809D01*
X74941193Y-94854742D01*
X74926543Y-94848954D01*
X74863250Y-94803956D01*
X74774276Y-94721942D01*
X74665627Y-94609052D01*
X74543311Y-94471425D01*
X74413333Y-94315203D01*
X74346415Y-94233458D01*
X74250941Y-94119619D01*
X74166389Y-94021529D01*
X74109377Y-93953391D01*
X74063885Y-93891539D01*
X74046444Y-93857113D01*
X74031705Y-93828673D01*
X73986538Y-93771374D01*
X73921553Y-93700357D01*
X73862946Y-93636942D01*
X73820580Y-93584315D01*
X73809000Y-93559518D01*
X73809303Y-93559098D01*
X73795293Y-93532836D01*
X73750453Y-93479018D01*
X73683995Y-93408757D01*
X73613316Y-93334528D01*
X73559944Y-93272881D01*
X73535493Y-93237222D01*
X73518092Y-93209275D01*
X73470648Y-93150324D01*
X73405862Y-93078174D01*
X73352606Y-93017881D01*
X73312383Y-92963560D01*
X73302878Y-92936752D01*
X73304483Y-92926165D01*
X73289035Y-92877453D01*
X73254051Y-92806838D01*
X73232581Y-92770560D01*
X73196720Y-92719601D01*
X73176892Y-92705256D01*
X73166701Y-92702202D01*
X73130938Y-92666897D01*
X73081591Y-92604276D01*
X73055222Y-92565939D01*
X73019354Y-92495371D01*
X73001552Y-92415092D01*
X72995166Y-92301836D01*
X72994784Y-92206171D01*
X73007808Y-92020938D01*
X73041567Y-91884579D01*
X73097653Y-91793970D01*
X73177662Y-91745990D01*
X73283187Y-91737515D01*
X73369947Y-91754600D01*
X73431008Y-91797754D01*
X73464718Y-91876149D01*
X73478440Y-91999672D01*
X73484527Y-92071427D01*
X73504063Y-92182662D01*
X73530693Y-92267783D01*
X73558990Y-92323005D01*
X73615939Y-92408649D01*
X73673405Y-92470589D01*
X73719753Y-92494849D01*
X73749047Y-92511990D01*
X73803946Y-92561781D01*
X73870431Y-92632692D01*
X73932149Y-92696790D01*
X74011140Y-92764758D01*
X74074684Y-92804674D01*
X74081027Y-92807383D01*
X74131580Y-92837316D01*
X74144639Y-92862054D01*
X74143568Y-92867686D01*
X74165139Y-92903280D01*
X74216929Y-92950501D01*
X74278108Y-92999256D01*
X74365896Y-93072175D01*
X74457341Y-93150389D01*
X74463875Y-93156043D01*
X74544009Y-93220948D01*
X74610027Y-93266963D01*
X74648199Y-93284444D01*
X74685113Y-93296567D01*
X74739623Y-93334979D01*
X74773106Y-93359334D01*
X74851049Y-93406499D01*
X74956539Y-93464937D01*
X75076555Y-93527219D01*
X75358778Y-93668924D01*
X75683333Y-93675942D01*
X75762902Y-93677945D01*
X75955105Y-93684305D01*
X76155745Y-93692559D01*
X76332444Y-93701435D01*
X76381440Y-93704197D01*
X76573909Y-93714006D01*
X76721917Y-93718609D01*
X76835163Y-93717211D01*
X76923349Y-93709016D01*
X76996175Y-93693229D01*
X77063342Y-93669056D01*
X77134552Y-93635701D01*
X77193832Y-93603813D01*
X77391023Y-93465573D01*
X77567005Y-93294269D01*
X77704162Y-93106277D01*
X77722656Y-93074296D01*
X77766756Y-92988676D01*
X77792887Y-92910956D01*
X77806759Y-92819692D01*
X77814083Y-92693436D01*
X77815851Y-92653889D01*
X77823083Y-92542856D01*
X77832007Y-92456044D01*
X77841091Y-92409555D01*
X77845423Y-92402438D01*
X77887448Y-92361646D01*
X77961383Y-92304307D01*
X78054543Y-92240469D01*
X78090377Y-92217873D01*
X78224692Y-92148486D01*
X78252259Y-92142148D01*
X78265667Y-92155555D01*
X78279778Y-92141444D01*
X78275206Y-92136872D01*
X78341131Y-92121715D01*
X78451685Y-92138843D01*
X78568348Y-92201157D01*
X78703111Y-92309940D01*
X78756687Y-92354694D01*
X78861427Y-92430669D01*
X78957111Y-92488138D01*
X79026355Y-92529088D01*
X79108298Y-92586240D01*
X79190209Y-92649584D01*
X79260421Y-92709647D01*
X79307266Y-92756954D01*
X79319077Y-92782034D01*
X79317335Y-92785937D01*
X79325181Y-92825047D01*
X79351203Y-92885966D01*
X79385652Y-92950126D01*
X79418777Y-92998960D01*
X79440828Y-93013899D01*
X79455239Y-93015814D01*
X79465111Y-93053982D01*
X79467244Y-93079343D01*
X79484727Y-93108715D01*
X79528248Y-93123245D01*
X79607761Y-93125278D01*
X79733222Y-93117159D01*
X79851356Y-93108930D01*
X79956210Y-93107290D01*
X80018269Y-93116653D01*
X80044780Y-93138342D01*
X80042993Y-93173679D01*
X80038974Y-93211297D01*
X80069987Y-93228000D01*
X80091270Y-93231799D01*
X80114222Y-93258594D01*
X80105744Y-93274269D01*
X80064137Y-93326334D01*
X79993765Y-93406011D01*
X79901267Y-93505856D01*
X79793281Y-93618427D01*
X79713434Y-93701605D01*
X79569273Y-93861347D01*
X79469459Y-93988147D01*
X79413451Y-94082665D01*
X79392195Y-94135954D01*
X79378396Y-94186595D01*
X79385816Y-94198347D01*
X79400553Y-94194654D01*
X79395128Y-94221179D01*
X79364710Y-94276609D01*
X79315228Y-94352053D01*
X79252608Y-94438620D01*
X79182779Y-94527417D01*
X79111669Y-94609553D01*
X79063963Y-94661762D01*
X78918639Y-94827216D01*
X78805679Y-94968545D01*
X78717250Y-95096004D01*
X78645519Y-95219848D01*
X78638610Y-95233015D01*
X78602157Y-95306824D01*
X78580585Y-95368470D01*
X78571244Y-95435063D01*
X78571484Y-95523716D01*
X78578655Y-95651539D01*
X78582478Y-95704567D01*
X78596089Y-95843866D01*
X78613015Y-95971192D01*
X78630467Y-96064333D01*
X78640180Y-96108915D01*
X78660453Y-96236755D01*
X78671571Y-96358958D01*
X78675548Y-96419846D01*
X78685429Y-96499000D01*
X78697314Y-96542403D01*
X78706935Y-96577007D01*
X78716611Y-96653549D01*
X78722737Y-96751840D01*
X78728164Y-96836828D01*
X78741183Y-96943294D01*
X78757711Y-97019952D01*
X78773179Y-97085421D01*
X78789735Y-97189837D01*
X78802011Y-97304192D01*
X78802071Y-97304948D01*
X78813447Y-97407412D01*
X78828233Y-97488499D01*
X78843247Y-97530713D01*
X78846184Y-97535509D01*
X78860423Y-97587086D01*
X78874104Y-97675540D01*
X78884622Y-97784874D01*
X78886727Y-97812288D01*
X78897885Y-97914728D01*
X78911277Y-97990209D01*
X78924453Y-98024019D01*
X78933845Y-98040894D01*
X78946419Y-98101935D01*
X78953361Y-98188540D01*
X78958602Y-98264437D01*
X78974518Y-98394224D01*
X78996316Y-98519111D01*
X79013448Y-98610465D01*
X79022847Y-98681786D01*
X79021706Y-98713775D01*
X79020362Y-98717169D01*
X79020499Y-98760951D01*
X79028343Y-98842530D01*
X79042619Y-98947648D01*
X79049190Y-98997963D01*
X79061757Y-99148147D01*
X79070488Y-99333814D01*
X79075383Y-99541849D01*
X79076445Y-99759139D01*
X79073676Y-99972571D01*
X79067077Y-100169029D01*
X79056651Y-100335401D01*
X79042399Y-100458572D01*
X79039515Y-100476401D01*
X79025095Y-100586939D01*
X79018560Y-100678765D01*
X79021318Y-100733525D01*
X79023992Y-100756438D01*
X79017433Y-100832594D01*
X78996746Y-100922828D01*
X78988175Y-100952650D01*
X78958791Y-101126816D01*
X78974393Y-101282598D01*
X79036139Y-101435051D01*
X79046135Y-101452383D01*
X79098181Y-101530026D01*
X79168809Y-101623851D01*
X79249317Y-101723606D01*
X79331003Y-101819040D01*
X79405163Y-101899899D01*
X79463095Y-101955933D01*
X79496096Y-101976889D01*
X79517180Y-101984351D01*
X79575753Y-102014697D01*
X79653736Y-102060435D01*
X79709648Y-102092654D01*
X79796483Y-102135339D01*
X79860222Y-102157875D01*
X79899916Y-102167596D01*
X79987311Y-102193546D01*
X80086000Y-102226415D01*
X80308669Y-102295878D01*
X80681936Y-102370676D01*
X81045555Y-102389934D01*
X81135154Y-102386474D01*
X81254638Y-102377504D01*
X81347302Y-102365327D01*
X81398333Y-102351553D01*
X81493247Y-102300824D01*
X81592036Y-102252156D01*
X81672412Y-102216729D01*
X81723969Y-102199092D01*
X81736303Y-102203794D01*
X81735322Y-102205406D01*
X81730928Y-102226244D01*
X81757187Y-102216361D01*
X81803769Y-102183095D01*
X81860342Y-102133783D01*
X81916574Y-102075763D01*
X81944399Y-102043433D01*
X81992549Y-101981075D01*
X82003091Y-101953841D01*
X81974810Y-101964062D01*
X81968147Y-101964347D01*
X81973411Y-101934023D01*
X82000676Y-101872693D01*
X82059488Y-101725373D01*
X82084113Y-101585589D01*
X82072876Y-101466519D01*
X82025233Y-101379140D01*
X81991147Y-101339709D01*
X81931874Y-101259797D01*
X81871498Y-101169172D01*
X81822051Y-101086170D01*
X81795563Y-101029124D01*
X81792043Y-101010669D01*
X81811048Y-100947847D01*
X81874332Y-100898459D01*
X81931104Y-100879673D01*
X81920444Y-100890333D01*
X81934555Y-100904444D01*
X81948667Y-100890333D01*
X81936290Y-100877957D01*
X81972871Y-100865852D01*
X82097642Y-100853374D01*
X82239623Y-100864373D01*
X82283472Y-100877443D01*
X82380765Y-100933908D01*
X82484774Y-101020884D01*
X82582739Y-101125547D01*
X82661898Y-101235070D01*
X82709493Y-101336629D01*
X82717635Y-101363381D01*
X82745380Y-101445465D01*
X82768126Y-101501005D01*
X82770157Y-101506449D01*
X82773615Y-101563083D01*
X82766986Y-101656723D01*
X82752421Y-101772307D01*
X82732070Y-101894770D01*
X82708084Y-102009047D01*
X82682613Y-102100075D01*
X82667416Y-102163454D01*
X82669508Y-102204567D01*
X82671278Y-102217522D01*
X82654362Y-102272885D01*
X82614996Y-102354670D01*
X82560503Y-102449677D01*
X82498206Y-102544705D01*
X82435427Y-102626552D01*
X82403235Y-102659317D01*
X82335875Y-102716789D01*
X82250888Y-102782060D01*
X82157224Y-102849153D01*
X82063835Y-102912091D01*
X81979669Y-102964897D01*
X81913679Y-103001595D01*
X81874814Y-103016208D01*
X81872025Y-103002760D01*
X81872357Y-103001885D01*
X81848426Y-103002708D01*
X81781665Y-103019082D01*
X81681644Y-103048407D01*
X81557931Y-103088085D01*
X81512667Y-103103045D01*
X81376731Y-103145744D01*
X81269875Y-103173102D01*
X81173381Y-103188356D01*
X81068530Y-103194740D01*
X80936602Y-103195492D01*
X80891733Y-103194768D01*
X80732356Y-103186272D01*
X80582719Y-103170224D01*
X80466135Y-103148932D01*
X80377603Y-103128280D01*
X80302305Y-103113909D01*
X80264644Y-103110903D01*
X80236461Y-103107191D01*
X80168676Y-103087476D01*
X80079753Y-103055909D01*
X80005561Y-103028773D01*
X79914920Y-102998732D01*
X79853975Y-102982277D01*
X79814080Y-102970547D01*
X79731947Y-102937749D01*
X79638653Y-102893997D01*
X79631602Y-102890443D01*
X79524172Y-102839556D01*
X79445043Y-102810871D01*
X79375405Y-102797493D01*
X79359996Y-102791050D01*
X79318960Y-102758999D01*
X79313726Y-102754209D01*
X79267685Y-102719312D01*
X79201676Y-102674836D01*
X79132264Y-102631252D01*
X79076010Y-102599031D01*
X79049480Y-102588642D01*
X79038410Y-102591160D01*
X78997136Y-102582015D01*
X78955991Y-102561763D01*
X78942413Y-102542282D01*
X78929587Y-102522797D01*
X78877728Y-102486162D01*
X78798254Y-102441967D01*
X78724721Y-102403163D01*
X78650146Y-102359948D01*
X78608658Y-102330920D01*
X78564093Y-102295350D01*
X78500959Y-102253532D01*
X78435879Y-102215386D01*
X78384993Y-102190365D01*
X78364444Y-102187919D01*
X78360218Y-102193805D01*
X78329167Y-102183724D01*
X78314653Y-102176748D01*
X78236016Y-102163139D01*
X78122355Y-102163211D01*
X77988407Y-102175267D01*
X77848907Y-102197607D01*
X77718589Y-102228535D01*
X77612191Y-102266350D01*
X77569176Y-102280359D01*
X77527524Y-102279431D01*
X77519810Y-102277191D01*
X77466608Y-102279167D01*
X77365361Y-102293754D01*
X77213830Y-102321310D01*
X77009778Y-102362194D01*
X76974761Y-102367749D01*
X76885831Y-102376794D01*
X76784000Y-102383058D01*
X76761767Y-102384214D01*
X76639953Y-102401420D01*
X76522671Y-102440072D01*
X76402267Y-102504930D01*
X76271085Y-102600755D01*
X76121471Y-102732308D01*
X75945769Y-102904349D01*
X75846749Y-103003395D01*
X75713964Y-103129875D01*
X75603985Y-103224591D01*
X75508483Y-103294538D01*
X75419133Y-103346712D01*
X75407753Y-103352494D01*
X75318660Y-103394296D01*
X75251667Y-103419839D01*
X75245889Y-103420572D01*
X75220526Y-103423786D01*
G36*
X74808444Y-100100111D02*
G01*
X74653222Y-100241222D01*
X74790995Y-100095368D01*
X74796551Y-100089526D01*
X74868476Y-100020721D01*
X74928050Y-99975216D01*
X74957622Y-99964496D01*
X74808444Y-100100111D01*
G37*
X74808444Y-100100111D02*
X74653222Y-100241222D01*
X74790995Y-100095368D01*
X74796551Y-100089526D01*
X74868476Y-100020721D01*
X74928050Y-99975216D01*
X74957622Y-99964496D01*
X74808444Y-100100111D01*
G36*
X74958918Y-99964026D02*
G01*
X74957622Y-99964496D01*
X74963667Y-99959000D01*
X74958918Y-99964026D01*
G37*
X74958918Y-99964026D02*
X74957622Y-99964496D01*
X74963667Y-99959000D01*
X74958918Y-99964026D01*
M02*
