G04 #@! TF.GenerationSoftware,KiCad,Pcbnew,5.99.0-unknown-d20d310~86~ubuntu18.04.1*
G04 #@! TF.CreationDate,2019-12-20T15:33:37-05:00*
G04 #@! TF.ProjectId,me3616_module_board,6d653336-3136-45f6-9d6f-64756c655f62,rev?*
G04 #@! TF.SameCoordinates,Original*
G04 #@! TF.FileFunction,Copper,L1,Top*
G04 #@! TF.FilePolarity,Positive*
%FSLAX46Y46*%
G04 Gerber Fmt 4.6, Leading zero omitted, Abs format (unit mm)*
G04 Created by KiCad (PCBNEW 5.99.0-unknown-d20d310~86~ubuntu18.04.1) date 2019-12-20 15:33:37*
%MOMM*%
%LPD*%
G04 APERTURE LIST*
%ADD10R,1.000000X1.200000*%
%ADD11R,0.920000X2.300000*%
%ADD12R,2.300000X0.920000*%
%ADD13C,1.200000*%
%ADD14R,0.900000X0.800000*%
%ADD15O,1.000000X1.000000*%
%ADD16R,1.000000X1.000000*%
%ADD17R,4.064000X1.524000*%
%ADD18R,4.064000X1.270000*%
%ADD19C,0.600000*%
%ADD20C,0.250000*%
%ADD21C,0.700000*%
%ADD22C,1.230000*%
%ADD23C,0.254000*%
G04 APERTURE END LIST*
G04 #@! TA.AperFunction,SMDPad,CuDef*
G36*
X146139962Y-87366651D02*
G01*
X146210930Y-87414070D01*
X146258349Y-87485038D01*
X146275000Y-87568750D01*
X146275000Y-88006250D01*
X146258349Y-88089962D01*
X146210930Y-88160930D01*
X146139962Y-88208349D01*
X146056250Y-88225000D01*
X145543750Y-88225000D01*
X145460038Y-88208349D01*
X145389070Y-88160930D01*
X145341651Y-88089962D01*
X145325000Y-88006250D01*
X145325000Y-87568750D01*
X145341651Y-87485038D01*
X145389070Y-87414070D01*
X145460038Y-87366651D01*
X145543750Y-87350000D01*
X146056250Y-87350000D01*
X146139962Y-87366651D01*
G37*
G04 #@! TD.AperFunction*
G04 #@! TA.AperFunction,SMDPad,CuDef*
G36*
X146139962Y-85791651D02*
G01*
X146210930Y-85839070D01*
X146258349Y-85910038D01*
X146275000Y-85993750D01*
X146275000Y-86431250D01*
X146258349Y-86514962D01*
X146210930Y-86585930D01*
X146139962Y-86633349D01*
X146056250Y-86650000D01*
X145543750Y-86650000D01*
X145460038Y-86633349D01*
X145389070Y-86585930D01*
X145341651Y-86514962D01*
X145325000Y-86431250D01*
X145325000Y-85993750D01*
X145341651Y-85910038D01*
X145389070Y-85839070D01*
X145460038Y-85791651D01*
X145543750Y-85775000D01*
X146056250Y-85775000D01*
X146139962Y-85791651D01*
G37*
G04 #@! TD.AperFunction*
D10*
X156950000Y-81860000D03*
X156950000Y-90040000D03*
D11*
X130100000Y-92350000D03*
X131500000Y-92350000D03*
X132900000Y-92350000D03*
X134300000Y-92350000D03*
X135700000Y-92350000D03*
X137100000Y-92350000D03*
X138500000Y-92350000D03*
X139900000Y-92350000D03*
X141300000Y-92350000D03*
D12*
X145000000Y-93700000D03*
X145000000Y-95100000D03*
X145000000Y-96500000D03*
X145000000Y-97900000D03*
X145000000Y-99300000D03*
X145000000Y-100700000D03*
X145000000Y-102100000D03*
X145000000Y-103500000D03*
X145000000Y-104900000D03*
D11*
X142700000Y-107600000D03*
X141300000Y-107600000D03*
X139900000Y-107600000D03*
X138500000Y-107600000D03*
X137100000Y-107600000D03*
X135700000Y-107600000D03*
X134300000Y-107600000D03*
X132900000Y-107600000D03*
X131500000Y-107600000D03*
X142700000Y-92350000D03*
X130100000Y-107600000D03*
D12*
X145000000Y-106300000D03*
X127750000Y-106300000D03*
X127750000Y-104900000D03*
X127750000Y-103500000D03*
X127750000Y-102100000D03*
X127750000Y-100700000D03*
X127750000Y-99300000D03*
X127750000Y-97900000D03*
X127750000Y-96500000D03*
X127750000Y-95100000D03*
X127750000Y-93700000D03*
D13*
X139000000Y-119000000D03*
X134800000Y-81000000D03*
X136800000Y-119000000D03*
X132400000Y-81000000D03*
G04 #@! TA.AperFunction,SMDPad,CuDef*
G36*
X134521212Y-111741651D02*
G01*
X134592180Y-111789070D01*
X134639599Y-111860038D01*
X134656250Y-111943750D01*
X134656250Y-112381250D01*
X134639599Y-112464962D01*
X134592180Y-112535930D01*
X134521212Y-112583349D01*
X134437500Y-112600000D01*
X133925000Y-112600000D01*
X133841288Y-112583349D01*
X133770320Y-112535930D01*
X133722901Y-112464962D01*
X133706250Y-112381250D01*
X133706250Y-111943750D01*
X133722901Y-111860038D01*
X133770320Y-111789070D01*
X133841288Y-111741651D01*
X133925000Y-111725000D01*
X134437500Y-111725000D01*
X134521212Y-111741651D01*
G37*
G04 #@! TD.AperFunction*
G04 #@! TA.AperFunction,SMDPad,CuDef*
G36*
X134521212Y-113316651D02*
G01*
X134592180Y-113364070D01*
X134639599Y-113435038D01*
X134656250Y-113518750D01*
X134656250Y-113956250D01*
X134639599Y-114039962D01*
X134592180Y-114110930D01*
X134521212Y-114158349D01*
X134437500Y-114175000D01*
X133925000Y-114175000D01*
X133841288Y-114158349D01*
X133770320Y-114110930D01*
X133722901Y-114039962D01*
X133706250Y-113956250D01*
X133706250Y-113518750D01*
X133722901Y-113435038D01*
X133770320Y-113364070D01*
X133841288Y-113316651D01*
X133925000Y-113300000D01*
X134437500Y-113300000D01*
X134521212Y-113316651D01*
G37*
G04 #@! TD.AperFunction*
G04 #@! TA.AperFunction,SMDPad,CuDef*
G36*
X132921212Y-113316651D02*
G01*
X132992180Y-113364070D01*
X133039599Y-113435038D01*
X133056250Y-113518750D01*
X133056250Y-113956250D01*
X133039599Y-114039962D01*
X132992180Y-114110930D01*
X132921212Y-114158349D01*
X132837500Y-114175000D01*
X132325000Y-114175000D01*
X132241288Y-114158349D01*
X132170320Y-114110930D01*
X132122901Y-114039962D01*
X132106250Y-113956250D01*
X132106250Y-113518750D01*
X132122901Y-113435038D01*
X132170320Y-113364070D01*
X132241288Y-113316651D01*
X132325000Y-113300000D01*
X132837500Y-113300000D01*
X132921212Y-113316651D01*
G37*
G04 #@! TD.AperFunction*
G04 #@! TA.AperFunction,SMDPad,CuDef*
G36*
X132921212Y-111741651D02*
G01*
X132992180Y-111789070D01*
X133039599Y-111860038D01*
X133056250Y-111943750D01*
X133056250Y-112381250D01*
X133039599Y-112464962D01*
X132992180Y-112535930D01*
X132921212Y-112583349D01*
X132837500Y-112600000D01*
X132325000Y-112600000D01*
X132241288Y-112583349D01*
X132170320Y-112535930D01*
X132122901Y-112464962D01*
X132106250Y-112381250D01*
X132106250Y-111943750D01*
X132122901Y-111860038D01*
X132170320Y-111789070D01*
X132241288Y-111741651D01*
X132325000Y-111725000D01*
X132837500Y-111725000D01*
X132921212Y-111741651D01*
G37*
G04 #@! TD.AperFunction*
G04 #@! TA.AperFunction,SMDPad,CuDef*
G36*
X142439962Y-111891651D02*
G01*
X142510930Y-111939070D01*
X142558349Y-112010038D01*
X142575000Y-112093750D01*
X142575000Y-112531250D01*
X142558349Y-112614962D01*
X142510930Y-112685930D01*
X142439962Y-112733349D01*
X142356250Y-112750000D01*
X141843750Y-112750000D01*
X141760038Y-112733349D01*
X141689070Y-112685930D01*
X141641651Y-112614962D01*
X141625000Y-112531250D01*
X141625000Y-112093750D01*
X141641651Y-112010038D01*
X141689070Y-111939070D01*
X141760038Y-111891651D01*
X141843750Y-111875000D01*
X142356250Y-111875000D01*
X142439962Y-111891651D01*
G37*
G04 #@! TD.AperFunction*
G04 #@! TA.AperFunction,SMDPad,CuDef*
G36*
X142439962Y-113466651D02*
G01*
X142510930Y-113514070D01*
X142558349Y-113585038D01*
X142575000Y-113668750D01*
X142575000Y-114106250D01*
X142558349Y-114189962D01*
X142510930Y-114260930D01*
X142439962Y-114308349D01*
X142356250Y-114325000D01*
X141843750Y-114325000D01*
X141760038Y-114308349D01*
X141689070Y-114260930D01*
X141641651Y-114189962D01*
X141625000Y-114106250D01*
X141625000Y-113668750D01*
X141641651Y-113585038D01*
X141689070Y-113514070D01*
X141760038Y-113466651D01*
X141843750Y-113450000D01*
X142356250Y-113450000D01*
X142439962Y-113466651D01*
G37*
G04 #@! TD.AperFunction*
G04 #@! TA.AperFunction,SMDPad,CuDef*
G36*
X140639962Y-113466651D02*
G01*
X140710930Y-113514070D01*
X140758349Y-113585038D01*
X140775000Y-113668750D01*
X140775000Y-114106250D01*
X140758349Y-114189962D01*
X140710930Y-114260930D01*
X140639962Y-114308349D01*
X140556250Y-114325000D01*
X140043750Y-114325000D01*
X139960038Y-114308349D01*
X139889070Y-114260930D01*
X139841651Y-114189962D01*
X139825000Y-114106250D01*
X139825000Y-113668750D01*
X139841651Y-113585038D01*
X139889070Y-113514070D01*
X139960038Y-113466651D01*
X140043750Y-113450000D01*
X140556250Y-113450000D01*
X140639962Y-113466651D01*
G37*
G04 #@! TD.AperFunction*
G04 #@! TA.AperFunction,SMDPad,CuDef*
G36*
X140639962Y-111891651D02*
G01*
X140710930Y-111939070D01*
X140758349Y-112010038D01*
X140775000Y-112093750D01*
X140775000Y-112531250D01*
X140758349Y-112614962D01*
X140710930Y-112685930D01*
X140639962Y-112733349D01*
X140556250Y-112750000D01*
X140043750Y-112750000D01*
X139960038Y-112733349D01*
X139889070Y-112685930D01*
X139841651Y-112614962D01*
X139825000Y-112531250D01*
X139825000Y-112093750D01*
X139841651Y-112010038D01*
X139889070Y-111939070D01*
X139960038Y-111891651D01*
X140043750Y-111875000D01*
X140556250Y-111875000D01*
X140639962Y-111891651D01*
G37*
G04 #@! TD.AperFunction*
G04 #@! TA.AperFunction,SMDPad,CuDef*
G36*
X151314962Y-97441651D02*
G01*
X151385930Y-97489070D01*
X151433349Y-97560038D01*
X151450000Y-97643750D01*
X151450000Y-98156250D01*
X151433349Y-98239962D01*
X151385930Y-98310930D01*
X151314962Y-98358349D01*
X151231250Y-98375000D01*
X150793750Y-98375000D01*
X150710038Y-98358349D01*
X150639070Y-98310930D01*
X150591651Y-98239962D01*
X150575000Y-98156250D01*
X150575000Y-97643750D01*
X150591651Y-97560038D01*
X150639070Y-97489070D01*
X150710038Y-97441651D01*
X150793750Y-97425000D01*
X151231250Y-97425000D01*
X151314962Y-97441651D01*
G37*
G04 #@! TD.AperFunction*
G04 #@! TA.AperFunction,SMDPad,CuDef*
G36*
X152889962Y-97441651D02*
G01*
X152960930Y-97489070D01*
X153008349Y-97560038D01*
X153025000Y-97643750D01*
X153025000Y-98156250D01*
X153008349Y-98239962D01*
X152960930Y-98310930D01*
X152889962Y-98358349D01*
X152806250Y-98375000D01*
X152368750Y-98375000D01*
X152285038Y-98358349D01*
X152214070Y-98310930D01*
X152166651Y-98239962D01*
X152150000Y-98156250D01*
X152150000Y-97643750D01*
X152166651Y-97560038D01*
X152214070Y-97489070D01*
X152285038Y-97441651D01*
X152368750Y-97425000D01*
X152806250Y-97425000D01*
X152889962Y-97441651D01*
G37*
G04 #@! TD.AperFunction*
D14*
X146100000Y-113100000D03*
X144100000Y-114050000D03*
X144100000Y-112150000D03*
X137781250Y-113050000D03*
X135781250Y-114000000D03*
X135781250Y-112100000D03*
D15*
X124330000Y-117000000D03*
X125600000Y-117000000D03*
X126870000Y-117000000D03*
X128140000Y-117000000D03*
X129410000Y-117000000D03*
X130680000Y-117000000D03*
X131950000Y-117000000D03*
X133220000Y-117000000D03*
X134490000Y-117000000D03*
X135760000Y-117000000D03*
X137030000Y-117000000D03*
X138300000Y-117000000D03*
X139570000Y-117000000D03*
X140840000Y-117000000D03*
X142110000Y-117000000D03*
X143380000Y-117000000D03*
X144650000Y-117000000D03*
X145920000Y-117000000D03*
X147190000Y-117000000D03*
X148460000Y-117000000D03*
X149730000Y-117000000D03*
D16*
X151000000Y-117000000D03*
D15*
X124330000Y-83000000D03*
X125600000Y-83000000D03*
X126870000Y-83000000D03*
X128140000Y-83000000D03*
X129410000Y-83000000D03*
X130680000Y-83000000D03*
X131950000Y-83000000D03*
X133220000Y-83000000D03*
X134490000Y-83000000D03*
X135760000Y-83000000D03*
X137030000Y-83000000D03*
X138300000Y-83000000D03*
X139570000Y-83000000D03*
X140840000Y-83000000D03*
X142110000Y-83000000D03*
X143380000Y-83000000D03*
X144650000Y-83000000D03*
X145920000Y-83000000D03*
X147190000Y-83000000D03*
X148460000Y-83000000D03*
X149730000Y-83000000D03*
D16*
X151000000Y-83000000D03*
D15*
X141870000Y-87200000D03*
D16*
X140600000Y-87200000D03*
D17*
X157768000Y-100440000D03*
X157768000Y-95360000D03*
D18*
X157768000Y-97900000D03*
G04 #@! TA.AperFunction,SMDPad,CuDef*
G36*
X153739962Y-86366651D02*
G01*
X153810930Y-86414070D01*
X153858349Y-86485038D01*
X153875000Y-86568750D01*
X153875000Y-87006250D01*
X153858349Y-87089962D01*
X153810930Y-87160930D01*
X153739962Y-87208349D01*
X153656250Y-87225000D01*
X153143750Y-87225000D01*
X153060038Y-87208349D01*
X152989070Y-87160930D01*
X152941651Y-87089962D01*
X152925000Y-87006250D01*
X152925000Y-86568750D01*
X152941651Y-86485038D01*
X152989070Y-86414070D01*
X153060038Y-86366651D01*
X153143750Y-86350000D01*
X153656250Y-86350000D01*
X153739962Y-86366651D01*
G37*
G04 #@! TD.AperFunction*
G04 #@! TA.AperFunction,SMDPad,CuDef*
G36*
X153739962Y-84791651D02*
G01*
X153810930Y-84839070D01*
X153858349Y-84910038D01*
X153875000Y-84993750D01*
X153875000Y-85431250D01*
X153858349Y-85514962D01*
X153810930Y-85585930D01*
X153739962Y-85633349D01*
X153656250Y-85650000D01*
X153143750Y-85650000D01*
X153060038Y-85633349D01*
X152989070Y-85585930D01*
X152941651Y-85514962D01*
X152925000Y-85431250D01*
X152925000Y-84993750D01*
X152941651Y-84910038D01*
X152989070Y-84839070D01*
X153060038Y-84791651D01*
X153143750Y-84775000D01*
X153656250Y-84775000D01*
X153739962Y-84791651D01*
G37*
G04 #@! TD.AperFunction*
G04 #@! TA.AperFunction,SMDPad,CuDef*
G36*
X154539962Y-99066651D02*
G01*
X154610930Y-99114070D01*
X154658349Y-99185038D01*
X154675000Y-99268750D01*
X154675000Y-99706250D01*
X154658349Y-99789962D01*
X154610930Y-99860930D01*
X154539962Y-99908349D01*
X154456250Y-99925000D01*
X153943750Y-99925000D01*
X153860038Y-99908349D01*
X153789070Y-99860930D01*
X153741651Y-99789962D01*
X153725000Y-99706250D01*
X153725000Y-99268750D01*
X153741651Y-99185038D01*
X153789070Y-99114070D01*
X153860038Y-99066651D01*
X153943750Y-99050000D01*
X154456250Y-99050000D01*
X154539962Y-99066651D01*
G37*
G04 #@! TD.AperFunction*
G04 #@! TA.AperFunction,SMDPad,CuDef*
G36*
X154539962Y-97491651D02*
G01*
X154610930Y-97539070D01*
X154658349Y-97610038D01*
X154675000Y-97693750D01*
X154675000Y-98131250D01*
X154658349Y-98214962D01*
X154610930Y-98285930D01*
X154539962Y-98333349D01*
X154456250Y-98350000D01*
X153943750Y-98350000D01*
X153860038Y-98333349D01*
X153789070Y-98285930D01*
X153741651Y-98214962D01*
X153725000Y-98131250D01*
X153725000Y-97693750D01*
X153741651Y-97610038D01*
X153789070Y-97539070D01*
X153860038Y-97491651D01*
X153943750Y-97475000D01*
X154456250Y-97475000D01*
X154539962Y-97491651D01*
G37*
G04 #@! TD.AperFunction*
G04 #@! TA.AperFunction,SMDPad,CuDef*
G36*
X149739962Y-99066651D02*
G01*
X149810930Y-99114070D01*
X149858349Y-99185038D01*
X149875000Y-99268750D01*
X149875000Y-99706250D01*
X149858349Y-99789962D01*
X149810930Y-99860930D01*
X149739962Y-99908349D01*
X149656250Y-99925000D01*
X149143750Y-99925000D01*
X149060038Y-99908349D01*
X148989070Y-99860930D01*
X148941651Y-99789962D01*
X148925000Y-99706250D01*
X148925000Y-99268750D01*
X148941651Y-99185038D01*
X148989070Y-99114070D01*
X149060038Y-99066651D01*
X149143750Y-99050000D01*
X149656250Y-99050000D01*
X149739962Y-99066651D01*
G37*
G04 #@! TD.AperFunction*
G04 #@! TA.AperFunction,SMDPad,CuDef*
G36*
X149739962Y-97491651D02*
G01*
X149810930Y-97539070D01*
X149858349Y-97610038D01*
X149875000Y-97693750D01*
X149875000Y-98131250D01*
X149858349Y-98214962D01*
X149810930Y-98285930D01*
X149739962Y-98333349D01*
X149656250Y-98350000D01*
X149143750Y-98350000D01*
X149060038Y-98333349D01*
X148989070Y-98285930D01*
X148941651Y-98214962D01*
X148925000Y-98131250D01*
X148925000Y-97693750D01*
X148941651Y-97610038D01*
X148989070Y-97539070D01*
X149060038Y-97491651D01*
X149143750Y-97475000D01*
X149656250Y-97475000D01*
X149739962Y-97491651D01*
G37*
G04 #@! TD.AperFunction*
D19*
X139100000Y-113600000D03*
X139800000Y-105600000D03*
X136600000Y-99400000D03*
X127500000Y-112500000D03*
X125000000Y-112500000D03*
X122500000Y-110000000D03*
X155000000Y-107500000D03*
X152500000Y-107500000D03*
X140000000Y-100000000D03*
X142500000Y-100000000D03*
X142500000Y-97500000D03*
X142500000Y-95000000D03*
X140000000Y-95000000D03*
X140000000Y-97500000D03*
X137500000Y-97500000D03*
X137500000Y-95000000D03*
X135000000Y-95000000D03*
X137500000Y-105000000D03*
X135000000Y-105000000D03*
X135000000Y-102500000D03*
X132500000Y-100000000D03*
X132500000Y-102500000D03*
X132500000Y-105000000D03*
X130000000Y-105000000D03*
X130000000Y-102500000D03*
X130000000Y-100000000D03*
X130000000Y-97500000D03*
X122500000Y-90000000D03*
X122500000Y-87500000D03*
X122500000Y-85000000D03*
X122500000Y-82500000D03*
X122500000Y-107500000D03*
X125000000Y-110000000D03*
X122500000Y-112500000D03*
X130000000Y-115000000D03*
X127500000Y-115000000D03*
X125000000Y-115000000D03*
X122500000Y-115000000D03*
X122500000Y-117500000D03*
X152500000Y-117500000D03*
X155000000Y-117500000D03*
X152500000Y-105000000D03*
X150000000Y-105000000D03*
X147500000Y-105000000D03*
X147500000Y-102500000D03*
X150000000Y-102500000D03*
X152500000Y-102500000D03*
X155000000Y-105000000D03*
X155000000Y-102500000D03*
X157500000Y-102500000D03*
X157500000Y-105000000D03*
X157500000Y-107500000D03*
X157500000Y-115000000D03*
X157500000Y-117500000D03*
X155000000Y-92500000D03*
X152500000Y-92500000D03*
X150000000Y-92500000D03*
X147500000Y-92500000D03*
X145000000Y-92500000D03*
X145000000Y-90000000D03*
X155000000Y-90000000D03*
X152500000Y-90000000D03*
X150000000Y-90000000D03*
X147500000Y-90000000D03*
X147500000Y-87500000D03*
X150000000Y-87500000D03*
X155000000Y-87500000D03*
X152500000Y-82500000D03*
X155000000Y-82500000D03*
X157500000Y-92500000D03*
X157500000Y-87500000D03*
X157500000Y-85000000D03*
X155000000Y-95500000D03*
X153500000Y-95500000D03*
X152000000Y-95500000D03*
X150500000Y-95500000D03*
X149000000Y-95500000D03*
X152900000Y-99300000D03*
X151400000Y-99300000D03*
X148400000Y-99300000D03*
X155000000Y-100400000D03*
X153500000Y-100400000D03*
X152000000Y-100400000D03*
X150500000Y-100400000D03*
X149000000Y-100400000D03*
X154400000Y-96600000D03*
X152900000Y-96600000D03*
X151400000Y-96600000D03*
X149900000Y-96600000D03*
X148400000Y-96600000D03*
X147500000Y-100400000D03*
X146900000Y-99300000D03*
X147500000Y-95500000D03*
X146900000Y-96600000D03*
X132500000Y-115000000D03*
X154887500Y-85212500D03*
X125474990Y-93700000D03*
X123700000Y-95700000D03*
X135900000Y-109300000D03*
X133000000Y-109600000D03*
X131500000Y-109300000D03*
X134300000Y-109700000D03*
X136200000Y-85600000D03*
D20*
X140344048Y-113787500D02*
X140156548Y-113600000D01*
X139524264Y-113600000D02*
X139100000Y-113600000D01*
X140156548Y-113600000D02*
X139524264Y-113600000D01*
X139800000Y-105600000D02*
X139800000Y-107500000D01*
X139800000Y-107500000D02*
X139900000Y-107600000D01*
D21*
X142700000Y-107600000D02*
X142700000Y-105500000D01*
X142700000Y-105500000D02*
X136600000Y-99400000D01*
D20*
X121500000Y-105400000D02*
X121500000Y-94300000D01*
X129837500Y-113737500D02*
X121500000Y-105400000D01*
X132581250Y-113737500D02*
X129837500Y-113737500D01*
X130680000Y-85120000D02*
X130680000Y-83000000D01*
X121500000Y-94300000D02*
X130680000Y-85120000D01*
X147600000Y-114200000D02*
X146200000Y-115600000D01*
X134200000Y-115600000D02*
X133300000Y-116500000D01*
X147600000Y-111400000D02*
X147600000Y-114200000D01*
X146200000Y-115600000D02*
X134200000Y-115600000D01*
X145000000Y-106300000D02*
X145000000Y-108800000D01*
X145000000Y-108800000D02*
X147600000Y-111400000D01*
X133300000Y-116500000D02*
X133300000Y-116920000D01*
X133300000Y-116920000D02*
X133220000Y-117000000D01*
X146100000Y-112450000D02*
X144350000Y-110700000D01*
X144350000Y-110700000D02*
X143000000Y-110700000D01*
X146100000Y-113100000D02*
X146100000Y-112450000D01*
X143000000Y-110700000D02*
X141300000Y-109000000D01*
X141300000Y-109000000D02*
X141300000Y-107600000D01*
X144100000Y-112150000D02*
X142262500Y-112150000D01*
X142262500Y-112150000D02*
X142100000Y-112312500D01*
X140300000Y-112312500D02*
X142100000Y-112312500D01*
X137781250Y-113050000D02*
X138481250Y-113050000D01*
X138481250Y-113050000D02*
X138500000Y-113031250D01*
X138500000Y-113031250D02*
X138500000Y-109000000D01*
X138500000Y-109000000D02*
X138500000Y-107600000D01*
X138500000Y-87714998D02*
X141414998Y-84800000D01*
X138500000Y-92350000D02*
X138500000Y-87714998D01*
X141414998Y-84800000D02*
X147680001Y-84800000D01*
X148460000Y-84020001D02*
X148460000Y-83000000D01*
X147680001Y-84800000D02*
X148460000Y-84020001D01*
X123100000Y-96025002D02*
X123074999Y-96000001D01*
X123100000Y-100940000D02*
X123100000Y-96025002D01*
X127750000Y-104900000D02*
X127060000Y-104900000D01*
X127060000Y-104900000D02*
X123100000Y-100940000D01*
X123074999Y-94874987D02*
X134490000Y-83459986D01*
X123074999Y-96000001D02*
X123074999Y-94874987D01*
X134490000Y-83459986D02*
X134490000Y-83000000D01*
X130100000Y-90100000D02*
X135600000Y-84600000D01*
X130100000Y-92350000D02*
X130100000Y-90100000D01*
X137400000Y-84600000D02*
X138300000Y-83700000D01*
X135600000Y-84600000D02*
X137400000Y-84600000D01*
X138300000Y-83700000D02*
X138300000Y-83000000D01*
D21*
X149730000Y-84277001D02*
X147807001Y-86200000D01*
X147807001Y-86200000D02*
X142870000Y-86200000D01*
X149730000Y-83000000D02*
X149730000Y-84277001D01*
X142870000Y-86200000D02*
X141870000Y-87200000D01*
D20*
X154887500Y-85212500D02*
X153400000Y-85212500D01*
X155587500Y-85212500D02*
X154887500Y-85212500D01*
X140800000Y-83040000D02*
X140800000Y-84200000D01*
X140840000Y-83000000D02*
X140800000Y-83040000D01*
X140800000Y-84200000D02*
X137100000Y-87900000D01*
X137100000Y-87900000D02*
X137100000Y-92350000D01*
X140600000Y-87200000D02*
X140600000Y-87950000D01*
X140600000Y-87950000D02*
X139900000Y-88650000D01*
X139900000Y-90950000D02*
X139900000Y-92350000D01*
X139900000Y-88650000D02*
X139900000Y-90950000D01*
X127750000Y-93700000D02*
X125474990Y-93700000D01*
X127750000Y-95100000D02*
X124300000Y-95100000D01*
X124300000Y-95100000D02*
X123999999Y-95400001D01*
X123999999Y-95400001D02*
X123700000Y-95700000D01*
X133220000Y-83707106D02*
X122300000Y-94627106D01*
X122300000Y-94627106D02*
X122300000Y-104100000D01*
X133220000Y-83000000D02*
X133220000Y-83707106D01*
X124500000Y-106300000D02*
X126350000Y-106300000D01*
X126350000Y-106300000D02*
X127750000Y-106300000D01*
X122300000Y-104100000D02*
X124500000Y-106300000D01*
X132581250Y-112162500D02*
X134181250Y-112162500D01*
X135781250Y-112100000D02*
X134143750Y-112100000D01*
X135700000Y-109100000D02*
X135900000Y-109300000D01*
X135700000Y-107600000D02*
X135700000Y-109100000D01*
X132900000Y-109500000D02*
X133000000Y-109600000D01*
X132900000Y-107600000D02*
X132900000Y-109500000D01*
X131500000Y-109300000D02*
X131500000Y-107600000D01*
X134300000Y-109700000D02*
X134300000Y-107600000D01*
X156950000Y-83850000D02*
X155587500Y-85212500D01*
X156950000Y-81860000D02*
X156950000Y-83850000D01*
D21*
X141900000Y-89800000D02*
X141870000Y-89730000D01*
X141870000Y-87200000D02*
X141900000Y-89800000D01*
X142700000Y-92350000D02*
X142700000Y-90500000D01*
X142700000Y-90500000D02*
X142000000Y-89800000D01*
X142000000Y-89800000D02*
X141900000Y-89800000D01*
X142700000Y-92350000D02*
X141300000Y-92350000D01*
X141870000Y-89730000D02*
X141300000Y-90300000D01*
X141300000Y-90300000D02*
X141300000Y-92350000D01*
X149730000Y-83000000D02*
X151000000Y-83000000D01*
X149730000Y-117000000D02*
X151000000Y-117000000D01*
D20*
X137000000Y-118800000D02*
X137000000Y-117030000D01*
X136800000Y-119000000D02*
X137000000Y-118800000D01*
X137000000Y-117030000D02*
X137030000Y-117000000D01*
X138300000Y-117000000D02*
X138300000Y-118300000D01*
X138300000Y-118300000D02*
X139000000Y-119000000D01*
D22*
X152587500Y-97900000D02*
X157768000Y-97900000D01*
X145000000Y-97900000D02*
X151012500Y-97900000D01*
D20*
X131500000Y-90300000D02*
X135900001Y-85899999D01*
X135900001Y-85899999D02*
X136200000Y-85600000D01*
X131500000Y-92350000D02*
X131500000Y-90300000D01*
X134490000Y-83000000D02*
X134490000Y-81310000D01*
X134490000Y-81310000D02*
X134800000Y-81000000D01*
X132400000Y-81000000D02*
X133220000Y-81820000D01*
X133220000Y-81820000D02*
X133220000Y-83000000D01*
G36*
X131407405Y-80570466D02*
G01*
X131341309Y-80778828D01*
X131318459Y-80996225D01*
X131339790Y-81213776D01*
X131404431Y-81422595D01*
X131509739Y-81614149D01*
X131651414Y-81780618D01*
X131823669Y-81915198D01*
X132019467Y-82012392D01*
X132086469Y-82030095D01*
X131898619Y-82019592D01*
X131689289Y-82053496D01*
X131492124Y-82131560D01*
X131316320Y-82250140D01*
X131311176Y-82255542D01*
X131231827Y-82188011D01*
X131044592Y-82088455D01*
X130840346Y-82031430D01*
X130628619Y-82019592D01*
X130419289Y-82053496D01*
X130222124Y-82131560D01*
X130046320Y-82250140D01*
X130041176Y-82255542D01*
X129961827Y-82188011D01*
X129774592Y-82088455D01*
X129570346Y-82031430D01*
X129358619Y-82019592D01*
X129149289Y-82053496D01*
X128952124Y-82131560D01*
X128776320Y-82250140D01*
X128771176Y-82255542D01*
X128691827Y-82188011D01*
X128504592Y-82088455D01*
X128300346Y-82031430D01*
X128088619Y-82019592D01*
X127879289Y-82053496D01*
X127682124Y-82131560D01*
X127506320Y-82250140D01*
X127501176Y-82255542D01*
X127421827Y-82188011D01*
X127234592Y-82088455D01*
X127030346Y-82031430D01*
X126818619Y-82019592D01*
X126609289Y-82053496D01*
X126412124Y-82131560D01*
X126236320Y-82250140D01*
X126231176Y-82255542D01*
X126151827Y-82188011D01*
X125964592Y-82088455D01*
X125760346Y-82031430D01*
X125548619Y-82019592D01*
X125339289Y-82053496D01*
X125142124Y-82131560D01*
X124966320Y-82250140D01*
X124961176Y-82255542D01*
X124881827Y-82188011D01*
X124694592Y-82088455D01*
X124490346Y-82031430D01*
X124278619Y-82019592D01*
X124069289Y-82053496D01*
X123872124Y-82131560D01*
X123696320Y-82250140D01*
X123550081Y-82403706D01*
X123440229Y-82585093D01*
X123371890Y-82785837D01*
X123348252Y-82996573D01*
X123370419Y-83207469D01*
X123437354Y-83408685D01*
X123545937Y-83590834D01*
X123691100Y-83745417D01*
X123866071Y-83865223D01*
X124062688Y-83944661D01*
X124271776Y-83980025D01*
X124483580Y-83969666D01*
X124688219Y-83914067D01*
X124876144Y-83815822D01*
X124960637Y-83744924D01*
X124961100Y-83745417D01*
X125136071Y-83865223D01*
X125332688Y-83944661D01*
X125541776Y-83980025D01*
X125753580Y-83969666D01*
X125958219Y-83914067D01*
X126146144Y-83815822D01*
X126230637Y-83744924D01*
X126231100Y-83745417D01*
X126406071Y-83865223D01*
X126602688Y-83944661D01*
X126811776Y-83980025D01*
X127023580Y-83969666D01*
X127228219Y-83914067D01*
X127416144Y-83815822D01*
X127500637Y-83744924D01*
X127501100Y-83745417D01*
X127676071Y-83865223D01*
X127872688Y-83944661D01*
X128081776Y-83980025D01*
X128293580Y-83969666D01*
X128498219Y-83914067D01*
X128686144Y-83815822D01*
X128770637Y-83744924D01*
X128771100Y-83745417D01*
X128946071Y-83865223D01*
X129142688Y-83944661D01*
X129351776Y-83980025D01*
X129563580Y-83969666D01*
X129768219Y-83914067D01*
X129956144Y-83815822D01*
X130040637Y-83744924D01*
X130041100Y-83745417D01*
X130079001Y-83771368D01*
X130079000Y-84871059D01*
X121093581Y-93856478D01*
X121032507Y-93907725D01*
X120992642Y-93976773D01*
X120946908Y-94042090D01*
X120939960Y-94068022D01*
X120926534Y-94091275D01*
X120912688Y-94169799D01*
X120892052Y-94246811D01*
X120899001Y-94326244D01*
X120899000Y-105373781D01*
X120892052Y-105453188D01*
X120912686Y-105530197D01*
X120926533Y-105608725D01*
X120939959Y-105631978D01*
X120946907Y-105657910D01*
X120992635Y-105723215D01*
X121032505Y-105792274D01*
X121093588Y-105843529D01*
X129393977Y-114143919D01*
X129445225Y-114204995D01*
X129514274Y-114244859D01*
X129579589Y-114290594D01*
X129605523Y-114297543D01*
X129628774Y-114310967D01*
X129707291Y-114324812D01*
X129784311Y-114345449D01*
X129863741Y-114338500D01*
X131738386Y-114338500D01*
X131895399Y-114509062D01*
X132099320Y-114619418D01*
X132317583Y-114655840D01*
X132842299Y-114655840D01*
X133009828Y-114634958D01*
X133219722Y-114542890D01*
X133346839Y-114425871D01*
X133484517Y-114563549D01*
X133694717Y-114670652D01*
X133917811Y-114705986D01*
X134107250Y-114705986D01*
X134107250Y-113663500D01*
X134255250Y-113663500D01*
X134255250Y-114705986D01*
X134444689Y-114705986D01*
X134667783Y-114670652D01*
X134832126Y-114586915D01*
X134835770Y-114605235D01*
X134952025Y-114779225D01*
X135126015Y-114895480D01*
X135318840Y-114933836D01*
X135707250Y-114933836D01*
X135707250Y-114074000D01*
X135855250Y-114074000D01*
X135855250Y-114933836D01*
X136243660Y-114933836D01*
X136436485Y-114895480D01*
X136610475Y-114779225D01*
X136726730Y-114605235D01*
X136765086Y-114412410D01*
X136765086Y-114074000D01*
X135855250Y-114074000D01*
X135707250Y-114074000D01*
X135707250Y-113066164D01*
X135855250Y-113066164D01*
X135855250Y-113926000D01*
X136765086Y-113926000D01*
X136765086Y-113587590D01*
X136726730Y-113394765D01*
X136610475Y-113220775D01*
X136436485Y-113104520D01*
X136243660Y-113066164D01*
X135855250Y-113066164D01*
X135707250Y-113066164D01*
X135318840Y-113066164D01*
X135126015Y-113104520D01*
X135075406Y-113138336D01*
X135044799Y-113078267D01*
X134879444Y-112912912D01*
X134975552Y-112824438D01*
X134988073Y-112843177D01*
X135145524Y-112948382D01*
X135318840Y-112982857D01*
X136243660Y-112982857D01*
X136416976Y-112948382D01*
X136574427Y-112843177D01*
X136679632Y-112685726D01*
X136714107Y-112512410D01*
X136714107Y-111687590D01*
X136679632Y-111514274D01*
X136574427Y-111356823D01*
X136416976Y-111251618D01*
X136243660Y-111217143D01*
X135318840Y-111217143D01*
X135145524Y-111251618D01*
X134988073Y-111356823D01*
X134923988Y-111452734D01*
X134867101Y-111390938D01*
X134663180Y-111280582D01*
X134444917Y-111244160D01*
X133920201Y-111244160D01*
X133752672Y-111265042D01*
X133542778Y-111357110D01*
X133376701Y-111509995D01*
X133267101Y-111390938D01*
X133063180Y-111280582D01*
X132844917Y-111244160D01*
X132320201Y-111244160D01*
X132152672Y-111265042D01*
X131942778Y-111357110D01*
X131772188Y-111514149D01*
X131661832Y-111718070D01*
X131625410Y-111936333D01*
X131625410Y-112386049D01*
X131646292Y-112553578D01*
X131738360Y-112763472D01*
X131895399Y-112934062D01*
X131923902Y-112949487D01*
X131772188Y-113089149D01*
X131746563Y-113136500D01*
X130086442Y-113136500D01*
X122101000Y-105151059D01*
X122101000Y-104750941D01*
X124056477Y-106706419D01*
X124107725Y-106767495D01*
X124176774Y-106807359D01*
X124242089Y-106853094D01*
X124268024Y-106860043D01*
X124291275Y-106873467D01*
X124369798Y-106887313D01*
X124446811Y-106907948D01*
X124526232Y-106901000D01*
X126142721Y-106901000D01*
X126151617Y-106945726D01*
X126256823Y-107103177D01*
X126414274Y-107208382D01*
X126587590Y-107242857D01*
X128912410Y-107242857D01*
X129085726Y-107208382D01*
X129157143Y-107160663D01*
X129157143Y-108762410D01*
X129191618Y-108935726D01*
X129296823Y-109093177D01*
X129454274Y-109198382D01*
X129627590Y-109232857D01*
X130572410Y-109232857D01*
X130729865Y-109201537D01*
X130715273Y-109293152D01*
X130747949Y-109524196D01*
X130847118Y-109735418D01*
X131004010Y-109908143D01*
X131204755Y-110027100D01*
X131431604Y-110081771D01*
X131664500Y-110067322D01*
X131882851Y-109985031D01*
X132067354Y-109842175D01*
X132201694Y-109651382D01*
X132216906Y-109604701D01*
X132247949Y-109824196D01*
X132347118Y-110035418D01*
X132504010Y-110208143D01*
X132704755Y-110327100D01*
X132931604Y-110381771D01*
X133164500Y-110367322D01*
X133382851Y-110285031D01*
X133567354Y-110142175D01*
X133617112Y-110071507D01*
X133647118Y-110135418D01*
X133804010Y-110308143D01*
X134004755Y-110427100D01*
X134231604Y-110481771D01*
X134464500Y-110467322D01*
X134682851Y-110385031D01*
X134867354Y-110242175D01*
X135001694Y-110051382D01*
X135074151Y-109829042D01*
X135076286Y-109584490D01*
X135007719Y-109360917D01*
X134903205Y-109206840D01*
X134945725Y-109198383D01*
X135000000Y-109162118D01*
X135054274Y-109198382D01*
X135106971Y-109208864D01*
X135112688Y-109230201D01*
X135119314Y-109267778D01*
X135115273Y-109293153D01*
X135147949Y-109524196D01*
X135247118Y-109735418D01*
X135404010Y-109908143D01*
X135604755Y-110027100D01*
X135831604Y-110081771D01*
X136064500Y-110067322D01*
X136282851Y-109985031D01*
X136467354Y-109842175D01*
X136601694Y-109651382D01*
X136674151Y-109429042D01*
X136675864Y-109232857D01*
X137572410Y-109232857D01*
X137745726Y-109198382D01*
X137800000Y-109162118D01*
X137854274Y-109198382D01*
X137899001Y-109207279D01*
X137899000Y-112167143D01*
X137318840Y-112167143D01*
X137145524Y-112201618D01*
X136988073Y-112306823D01*
X136882868Y-112464274D01*
X136848393Y-112637590D01*
X136848393Y-113462410D01*
X136882868Y-113635726D01*
X136988073Y-113793177D01*
X137145524Y-113898382D01*
X137318840Y-113932857D01*
X138243660Y-113932857D01*
X138385700Y-113904603D01*
X138447118Y-114035418D01*
X138604010Y-114208143D01*
X138804755Y-114327100D01*
X139031604Y-114381771D01*
X139264500Y-114367322D01*
X139384184Y-114322216D01*
X139457110Y-114488472D01*
X139614149Y-114659062D01*
X139818070Y-114769418D01*
X140036333Y-114805840D01*
X140561049Y-114805840D01*
X140728578Y-114784958D01*
X140938472Y-114692890D01*
X141109062Y-114535851D01*
X141171819Y-114419886D01*
X141236451Y-114546733D01*
X141403267Y-114713549D01*
X141613467Y-114820652D01*
X141836561Y-114855986D01*
X142026000Y-114855986D01*
X142026000Y-113961500D01*
X142174000Y-113961500D01*
X142174000Y-114855986D01*
X142363439Y-114855986D01*
X142586533Y-114820652D01*
X142796733Y-114713549D01*
X142963549Y-114546733D01*
X143070652Y-114336533D01*
X143104313Y-114124000D01*
X143116164Y-114124000D01*
X143116164Y-114462410D01*
X143154520Y-114655235D01*
X143270775Y-114829225D01*
X143444765Y-114945480D01*
X143637590Y-114983836D01*
X144026000Y-114983836D01*
X144026000Y-114124000D01*
X144174000Y-114124000D01*
X144174000Y-114983836D01*
X144562410Y-114983836D01*
X144755235Y-114945480D01*
X144929225Y-114829225D01*
X145045480Y-114655235D01*
X145083836Y-114462410D01*
X145083836Y-114124000D01*
X144174000Y-114124000D01*
X144026000Y-114124000D01*
X143116164Y-114124000D01*
X143104313Y-114124000D01*
X143105986Y-114113439D01*
X143105986Y-113961500D01*
X142174000Y-113961500D01*
X142026000Y-113961500D01*
X142026000Y-113813500D01*
X143105986Y-113813500D01*
X143105986Y-113661561D01*
X143102190Y-113637590D01*
X143116164Y-113637590D01*
X143116164Y-113976000D01*
X144026000Y-113976000D01*
X144026000Y-113116164D01*
X144174000Y-113116164D01*
X144174000Y-113976000D01*
X145083836Y-113976000D01*
X145083836Y-113637590D01*
X145045480Y-113444765D01*
X144929225Y-113270775D01*
X144755235Y-113154520D01*
X144562410Y-113116164D01*
X144174000Y-113116164D01*
X144026000Y-113116164D01*
X143637590Y-113116164D01*
X143444765Y-113154520D01*
X143270775Y-113270775D01*
X143154520Y-113444765D01*
X143116164Y-113637590D01*
X143102190Y-113637590D01*
X143070652Y-113438467D01*
X142963549Y-113228267D01*
X142798194Y-113062912D01*
X142909062Y-112960851D01*
X143019418Y-112756930D01*
X143020408Y-112751000D01*
X143211824Y-112751000D01*
X143306823Y-112893177D01*
X143464274Y-112998382D01*
X143637590Y-113032857D01*
X144562410Y-113032857D01*
X144735726Y-112998382D01*
X144893177Y-112893177D01*
X144998382Y-112735726D01*
X145032857Y-112562410D01*
X145032857Y-112232800D01*
X145246765Y-112446707D01*
X145201618Y-112514274D01*
X145167143Y-112687590D01*
X145167143Y-113512410D01*
X145201618Y-113685726D01*
X145306823Y-113843177D01*
X145464274Y-113948382D01*
X145637590Y-113982857D01*
X146562410Y-113982857D01*
X146735726Y-113948382D01*
X146893177Y-113843177D01*
X146998382Y-113685726D01*
X146999001Y-113682615D01*
X146999001Y-113951057D01*
X145951059Y-114999000D01*
X134226218Y-114999000D01*
X134146811Y-114992052D01*
X134069802Y-115012686D01*
X133991274Y-115026533D01*
X133968020Y-115039960D01*
X133942090Y-115046907D01*
X133876787Y-115092633D01*
X133807725Y-115132506D01*
X133756471Y-115193588D01*
X132893588Y-116056471D01*
X132841602Y-116100092D01*
X132762123Y-116131560D01*
X132586320Y-116250140D01*
X132581176Y-116255542D01*
X132501827Y-116188011D01*
X132314592Y-116088455D01*
X132110346Y-116031430D01*
X131898619Y-116019592D01*
X131689289Y-116053496D01*
X131492124Y-116131560D01*
X131316320Y-116250140D01*
X131311176Y-116255542D01*
X131231827Y-116188011D01*
X131044592Y-116088455D01*
X130840346Y-116031430D01*
X130628619Y-116019592D01*
X130419289Y-116053496D01*
X130222124Y-116131560D01*
X130046320Y-116250140D01*
X130041176Y-116255542D01*
X129961827Y-116188011D01*
X129774592Y-116088455D01*
X129570346Y-116031430D01*
X129358619Y-116019592D01*
X129149289Y-116053496D01*
X128952124Y-116131560D01*
X128813029Y-116225380D01*
X128746389Y-116165376D01*
X128559610Y-116057540D01*
X128214000Y-115945243D01*
X128214000Y-118054757D01*
X128559610Y-117942460D01*
X128746389Y-117834624D01*
X128813341Y-117774340D01*
X128946071Y-117865223D01*
X129142688Y-117944661D01*
X129351776Y-117980025D01*
X129563580Y-117969666D01*
X129768219Y-117914067D01*
X129956144Y-117815822D01*
X130040637Y-117744924D01*
X130041100Y-117745417D01*
X130216071Y-117865223D01*
X130412688Y-117944661D01*
X130621776Y-117980025D01*
X130833580Y-117969666D01*
X131038219Y-117914067D01*
X131226144Y-117815822D01*
X131310637Y-117744924D01*
X131311100Y-117745417D01*
X131486071Y-117865223D01*
X131682688Y-117944661D01*
X131891776Y-117980025D01*
X132103580Y-117969666D01*
X132308219Y-117914067D01*
X132496144Y-117815822D01*
X132580637Y-117744924D01*
X132581100Y-117745417D01*
X132756071Y-117865223D01*
X132952688Y-117944661D01*
X133161776Y-117980025D01*
X133373580Y-117969666D01*
X133578219Y-117914067D01*
X133766144Y-117815822D01*
X133850637Y-117744924D01*
X133851100Y-117745417D01*
X134026071Y-117865223D01*
X134222688Y-117944661D01*
X134431776Y-117980025D01*
X134643580Y-117969666D01*
X134848219Y-117914067D01*
X135036144Y-117815822D01*
X135120637Y-117744924D01*
X135121100Y-117745417D01*
X135296071Y-117865223D01*
X135492688Y-117944661D01*
X135701776Y-117980025D01*
X135913580Y-117969666D01*
X136118219Y-117914067D01*
X136306144Y-117815822D01*
X136390637Y-117744925D01*
X136391100Y-117745418D01*
X136399001Y-117750828D01*
X136399000Y-117998409D01*
X136230072Y-118080801D01*
X136056882Y-118214176D01*
X135914049Y-118379649D01*
X135807405Y-118570466D01*
X135741309Y-118778828D01*
X135718459Y-118996225D01*
X135739790Y-119213776D01*
X135804431Y-119422595D01*
X135860179Y-119524000D01*
X121063640Y-119524000D01*
X121054012Y-119522172D01*
X120896104Y-119506132D01*
X120796455Y-119474904D01*
X120705121Y-119424277D01*
X120625831Y-119356317D01*
X120561825Y-119273801D01*
X120515720Y-119180103D01*
X120487903Y-119073312D01*
X120478624Y-118952725D01*
X120476000Y-118942084D01*
X120476000Y-117074000D01*
X123296807Y-117074000D01*
X123348842Y-117318798D01*
X123436564Y-117515825D01*
X123563334Y-117690309D01*
X123723611Y-117834624D01*
X123910390Y-117942460D01*
X124256000Y-118054757D01*
X124256000Y-117074000D01*
X123296807Y-117074000D01*
X120476000Y-117074000D01*
X120476000Y-116926000D01*
X123296807Y-116926000D01*
X124256000Y-116926000D01*
X124256000Y-115945243D01*
X124404000Y-115945243D01*
X124404000Y-118054757D01*
X124749610Y-117942460D01*
X124936389Y-117834624D01*
X124965000Y-117808862D01*
X124993611Y-117834624D01*
X125180390Y-117942460D01*
X125526000Y-118054757D01*
X125526000Y-115945243D01*
X125674000Y-115945243D01*
X125674000Y-118054757D01*
X126019610Y-117942460D01*
X126206389Y-117834624D01*
X126235000Y-117808862D01*
X126263611Y-117834624D01*
X126450390Y-117942460D01*
X126796000Y-118054757D01*
X126796000Y-115945243D01*
X126944000Y-115945243D01*
X126944000Y-118054757D01*
X127289610Y-117942460D01*
X127476389Y-117834624D01*
X127505000Y-117808862D01*
X127533611Y-117834624D01*
X127720390Y-117942460D01*
X128066000Y-118054757D01*
X128066000Y-115945243D01*
X127720390Y-116057540D01*
X127533611Y-116165376D01*
X127505000Y-116191138D01*
X127476389Y-116165376D01*
X127289610Y-116057540D01*
X126944000Y-115945243D01*
X126796000Y-115945243D01*
X126450390Y-116057540D01*
X126263611Y-116165376D01*
X126235000Y-116191138D01*
X126206389Y-116165376D01*
X126019610Y-116057540D01*
X125674000Y-115945243D01*
X125526000Y-115945243D01*
X125180390Y-116057540D01*
X124993611Y-116165376D01*
X124965000Y-116191138D01*
X124936389Y-116165376D01*
X124749610Y-116057540D01*
X124404000Y-115945243D01*
X124256000Y-115945243D01*
X123910390Y-116057540D01*
X123723611Y-116165376D01*
X123563334Y-116309691D01*
X123436564Y-116484175D01*
X123348842Y-116681202D01*
X123296807Y-116926000D01*
X120476000Y-116926000D01*
X120476000Y-81063639D01*
X120477828Y-81054011D01*
X120493867Y-80896108D01*
X120525096Y-80796456D01*
X120575725Y-80705120D01*
X120643683Y-80625831D01*
X120726196Y-80561827D01*
X120819901Y-80515719D01*
X120926688Y-80487902D01*
X121047275Y-80478624D01*
X121057916Y-80476000D01*
X131460200Y-80476000D01*
X131407405Y-80570466D01*
G37*
D23*
X131407405Y-80570466D02*
X131341309Y-80778828D01*
X131318459Y-80996225D01*
X131339790Y-81213776D01*
X131404431Y-81422595D01*
X131509739Y-81614149D01*
X131651414Y-81780618D01*
X131823669Y-81915198D01*
X132019467Y-82012392D01*
X132086469Y-82030095D01*
X131898619Y-82019592D01*
X131689289Y-82053496D01*
X131492124Y-82131560D01*
X131316320Y-82250140D01*
X131311176Y-82255542D01*
X131231827Y-82188011D01*
X131044592Y-82088455D01*
X130840346Y-82031430D01*
X130628619Y-82019592D01*
X130419289Y-82053496D01*
X130222124Y-82131560D01*
X130046320Y-82250140D01*
X130041176Y-82255542D01*
X129961827Y-82188011D01*
X129774592Y-82088455D01*
X129570346Y-82031430D01*
X129358619Y-82019592D01*
X129149289Y-82053496D01*
X128952124Y-82131560D01*
X128776320Y-82250140D01*
X128771176Y-82255542D01*
X128691827Y-82188011D01*
X128504592Y-82088455D01*
X128300346Y-82031430D01*
X128088619Y-82019592D01*
X127879289Y-82053496D01*
X127682124Y-82131560D01*
X127506320Y-82250140D01*
X127501176Y-82255542D01*
X127421827Y-82188011D01*
X127234592Y-82088455D01*
X127030346Y-82031430D01*
X126818619Y-82019592D01*
X126609289Y-82053496D01*
X126412124Y-82131560D01*
X126236320Y-82250140D01*
X126231176Y-82255542D01*
X126151827Y-82188011D01*
X125964592Y-82088455D01*
X125760346Y-82031430D01*
X125548619Y-82019592D01*
X125339289Y-82053496D01*
X125142124Y-82131560D01*
X124966320Y-82250140D01*
X124961176Y-82255542D01*
X124881827Y-82188011D01*
X124694592Y-82088455D01*
X124490346Y-82031430D01*
X124278619Y-82019592D01*
X124069289Y-82053496D01*
X123872124Y-82131560D01*
X123696320Y-82250140D01*
X123550081Y-82403706D01*
X123440229Y-82585093D01*
X123371890Y-82785837D01*
X123348252Y-82996573D01*
X123370419Y-83207469D01*
X123437354Y-83408685D01*
X123545937Y-83590834D01*
X123691100Y-83745417D01*
X123866071Y-83865223D01*
X124062688Y-83944661D01*
X124271776Y-83980025D01*
X124483580Y-83969666D01*
X124688219Y-83914067D01*
X124876144Y-83815822D01*
X124960637Y-83744924D01*
X124961100Y-83745417D01*
X125136071Y-83865223D01*
X125332688Y-83944661D01*
X125541776Y-83980025D01*
X125753580Y-83969666D01*
X125958219Y-83914067D01*
X126146144Y-83815822D01*
X126230637Y-83744924D01*
X126231100Y-83745417D01*
X126406071Y-83865223D01*
X126602688Y-83944661D01*
X126811776Y-83980025D01*
X127023580Y-83969666D01*
X127228219Y-83914067D01*
X127416144Y-83815822D01*
X127500637Y-83744924D01*
X127501100Y-83745417D01*
X127676071Y-83865223D01*
X127872688Y-83944661D01*
X128081776Y-83980025D01*
X128293580Y-83969666D01*
X128498219Y-83914067D01*
X128686144Y-83815822D01*
X128770637Y-83744924D01*
X128771100Y-83745417D01*
X128946071Y-83865223D01*
X129142688Y-83944661D01*
X129351776Y-83980025D01*
X129563580Y-83969666D01*
X129768219Y-83914067D01*
X129956144Y-83815822D01*
X130040637Y-83744924D01*
X130041100Y-83745417D01*
X130079001Y-83771368D01*
X130079000Y-84871059D01*
X121093581Y-93856478D01*
X121032507Y-93907725D01*
X120992642Y-93976773D01*
X120946908Y-94042090D01*
X120939960Y-94068022D01*
X120926534Y-94091275D01*
X120912688Y-94169799D01*
X120892052Y-94246811D01*
X120899001Y-94326244D01*
X120899000Y-105373781D01*
X120892052Y-105453188D01*
X120912686Y-105530197D01*
X120926533Y-105608725D01*
X120939959Y-105631978D01*
X120946907Y-105657910D01*
X120992635Y-105723215D01*
X121032505Y-105792274D01*
X121093588Y-105843529D01*
X129393977Y-114143919D01*
X129445225Y-114204995D01*
X129514274Y-114244859D01*
X129579589Y-114290594D01*
X129605523Y-114297543D01*
X129628774Y-114310967D01*
X129707291Y-114324812D01*
X129784311Y-114345449D01*
X129863741Y-114338500D01*
X131738386Y-114338500D01*
X131895399Y-114509062D01*
X132099320Y-114619418D01*
X132317583Y-114655840D01*
X132842299Y-114655840D01*
X133009828Y-114634958D01*
X133219722Y-114542890D01*
X133346839Y-114425871D01*
X133484517Y-114563549D01*
X133694717Y-114670652D01*
X133917811Y-114705986D01*
X134107250Y-114705986D01*
X134107250Y-113663500D01*
X134255250Y-113663500D01*
X134255250Y-114705986D01*
X134444689Y-114705986D01*
X134667783Y-114670652D01*
X134832126Y-114586915D01*
X134835770Y-114605235D01*
X134952025Y-114779225D01*
X135126015Y-114895480D01*
X135318840Y-114933836D01*
X135707250Y-114933836D01*
X135707250Y-114074000D01*
X135855250Y-114074000D01*
X135855250Y-114933836D01*
X136243660Y-114933836D01*
X136436485Y-114895480D01*
X136610475Y-114779225D01*
X136726730Y-114605235D01*
X136765086Y-114412410D01*
X136765086Y-114074000D01*
X135855250Y-114074000D01*
X135707250Y-114074000D01*
X135707250Y-113066164D01*
X135855250Y-113066164D01*
X135855250Y-113926000D01*
X136765086Y-113926000D01*
X136765086Y-113587590D01*
X136726730Y-113394765D01*
X136610475Y-113220775D01*
X136436485Y-113104520D01*
X136243660Y-113066164D01*
X135855250Y-113066164D01*
X135707250Y-113066164D01*
X135318840Y-113066164D01*
X135126015Y-113104520D01*
X135075406Y-113138336D01*
X135044799Y-113078267D01*
X134879444Y-112912912D01*
X134975552Y-112824438D01*
X134988073Y-112843177D01*
X135145524Y-112948382D01*
X135318840Y-112982857D01*
X136243660Y-112982857D01*
X136416976Y-112948382D01*
X136574427Y-112843177D01*
X136679632Y-112685726D01*
X136714107Y-112512410D01*
X136714107Y-111687590D01*
X136679632Y-111514274D01*
X136574427Y-111356823D01*
X136416976Y-111251618D01*
X136243660Y-111217143D01*
X135318840Y-111217143D01*
X135145524Y-111251618D01*
X134988073Y-111356823D01*
X134923988Y-111452734D01*
X134867101Y-111390938D01*
X134663180Y-111280582D01*
X134444917Y-111244160D01*
X133920201Y-111244160D01*
X133752672Y-111265042D01*
X133542778Y-111357110D01*
X133376701Y-111509995D01*
X133267101Y-111390938D01*
X133063180Y-111280582D01*
X132844917Y-111244160D01*
X132320201Y-111244160D01*
X132152672Y-111265042D01*
X131942778Y-111357110D01*
X131772188Y-111514149D01*
X131661832Y-111718070D01*
X131625410Y-111936333D01*
X131625410Y-112386049D01*
X131646292Y-112553578D01*
X131738360Y-112763472D01*
X131895399Y-112934062D01*
X131923902Y-112949487D01*
X131772188Y-113089149D01*
X131746563Y-113136500D01*
X130086442Y-113136500D01*
X122101000Y-105151059D01*
X122101000Y-104750941D01*
X124056477Y-106706419D01*
X124107725Y-106767495D01*
X124176774Y-106807359D01*
X124242089Y-106853094D01*
X124268024Y-106860043D01*
X124291275Y-106873467D01*
X124369798Y-106887313D01*
X124446811Y-106907948D01*
X124526232Y-106901000D01*
X126142721Y-106901000D01*
X126151617Y-106945726D01*
X126256823Y-107103177D01*
X126414274Y-107208382D01*
X126587590Y-107242857D01*
X128912410Y-107242857D01*
X129085726Y-107208382D01*
X129157143Y-107160663D01*
X129157143Y-108762410D01*
X129191618Y-108935726D01*
X129296823Y-109093177D01*
X129454274Y-109198382D01*
X129627590Y-109232857D01*
X130572410Y-109232857D01*
X130729865Y-109201537D01*
X130715273Y-109293152D01*
X130747949Y-109524196D01*
X130847118Y-109735418D01*
X131004010Y-109908143D01*
X131204755Y-110027100D01*
X131431604Y-110081771D01*
X131664500Y-110067322D01*
X131882851Y-109985031D01*
X132067354Y-109842175D01*
X132201694Y-109651382D01*
X132216906Y-109604701D01*
X132247949Y-109824196D01*
X132347118Y-110035418D01*
X132504010Y-110208143D01*
X132704755Y-110327100D01*
X132931604Y-110381771D01*
X133164500Y-110367322D01*
X133382851Y-110285031D01*
X133567354Y-110142175D01*
X133617112Y-110071507D01*
X133647118Y-110135418D01*
X133804010Y-110308143D01*
X134004755Y-110427100D01*
X134231604Y-110481771D01*
X134464500Y-110467322D01*
X134682851Y-110385031D01*
X134867354Y-110242175D01*
X135001694Y-110051382D01*
X135074151Y-109829042D01*
X135076286Y-109584490D01*
X135007719Y-109360917D01*
X134903205Y-109206840D01*
X134945725Y-109198383D01*
X135000000Y-109162118D01*
X135054274Y-109198382D01*
X135106971Y-109208864D01*
X135112688Y-109230201D01*
X135119314Y-109267778D01*
X135115273Y-109293153D01*
X135147949Y-109524196D01*
X135247118Y-109735418D01*
X135404010Y-109908143D01*
X135604755Y-110027100D01*
X135831604Y-110081771D01*
X136064500Y-110067322D01*
X136282851Y-109985031D01*
X136467354Y-109842175D01*
X136601694Y-109651382D01*
X136674151Y-109429042D01*
X136675864Y-109232857D01*
X137572410Y-109232857D01*
X137745726Y-109198382D01*
X137800000Y-109162118D01*
X137854274Y-109198382D01*
X137899001Y-109207279D01*
X137899000Y-112167143D01*
X137318840Y-112167143D01*
X137145524Y-112201618D01*
X136988073Y-112306823D01*
X136882868Y-112464274D01*
X136848393Y-112637590D01*
X136848393Y-113462410D01*
X136882868Y-113635726D01*
X136988073Y-113793177D01*
X137145524Y-113898382D01*
X137318840Y-113932857D01*
X138243660Y-113932857D01*
X138385700Y-113904603D01*
X138447118Y-114035418D01*
X138604010Y-114208143D01*
X138804755Y-114327100D01*
X139031604Y-114381771D01*
X139264500Y-114367322D01*
X139384184Y-114322216D01*
X139457110Y-114488472D01*
X139614149Y-114659062D01*
X139818070Y-114769418D01*
X140036333Y-114805840D01*
X140561049Y-114805840D01*
X140728578Y-114784958D01*
X140938472Y-114692890D01*
X141109062Y-114535851D01*
X141171819Y-114419886D01*
X141236451Y-114546733D01*
X141403267Y-114713549D01*
X141613467Y-114820652D01*
X141836561Y-114855986D01*
X142026000Y-114855986D01*
X142026000Y-113961500D01*
X142174000Y-113961500D01*
X142174000Y-114855986D01*
X142363439Y-114855986D01*
X142586533Y-114820652D01*
X142796733Y-114713549D01*
X142963549Y-114546733D01*
X143070652Y-114336533D01*
X143104313Y-114124000D01*
X143116164Y-114124000D01*
X143116164Y-114462410D01*
X143154520Y-114655235D01*
X143270775Y-114829225D01*
X143444765Y-114945480D01*
X143637590Y-114983836D01*
X144026000Y-114983836D01*
X144026000Y-114124000D01*
X144174000Y-114124000D01*
X144174000Y-114983836D01*
X144562410Y-114983836D01*
X144755235Y-114945480D01*
X144929225Y-114829225D01*
X145045480Y-114655235D01*
X145083836Y-114462410D01*
X145083836Y-114124000D01*
X144174000Y-114124000D01*
X144026000Y-114124000D01*
X143116164Y-114124000D01*
X143104313Y-114124000D01*
X143105986Y-114113439D01*
X143105986Y-113961500D01*
X142174000Y-113961500D01*
X142026000Y-113961500D01*
X142026000Y-113813500D01*
X143105986Y-113813500D01*
X143105986Y-113661561D01*
X143102190Y-113637590D01*
X143116164Y-113637590D01*
X143116164Y-113976000D01*
X144026000Y-113976000D01*
X144026000Y-113116164D01*
X144174000Y-113116164D01*
X144174000Y-113976000D01*
X145083836Y-113976000D01*
X145083836Y-113637590D01*
X145045480Y-113444765D01*
X144929225Y-113270775D01*
X144755235Y-113154520D01*
X144562410Y-113116164D01*
X144174000Y-113116164D01*
X144026000Y-113116164D01*
X143637590Y-113116164D01*
X143444765Y-113154520D01*
X143270775Y-113270775D01*
X143154520Y-113444765D01*
X143116164Y-113637590D01*
X143102190Y-113637590D01*
X143070652Y-113438467D01*
X142963549Y-113228267D01*
X142798194Y-113062912D01*
X142909062Y-112960851D01*
X143019418Y-112756930D01*
X143020408Y-112751000D01*
X143211824Y-112751000D01*
X143306823Y-112893177D01*
X143464274Y-112998382D01*
X143637590Y-113032857D01*
X144562410Y-113032857D01*
X144735726Y-112998382D01*
X144893177Y-112893177D01*
X144998382Y-112735726D01*
X145032857Y-112562410D01*
X145032857Y-112232800D01*
X145246765Y-112446707D01*
X145201618Y-112514274D01*
X145167143Y-112687590D01*
X145167143Y-113512410D01*
X145201618Y-113685726D01*
X145306823Y-113843177D01*
X145464274Y-113948382D01*
X145637590Y-113982857D01*
X146562410Y-113982857D01*
X146735726Y-113948382D01*
X146893177Y-113843177D01*
X146998382Y-113685726D01*
X146999001Y-113682615D01*
X146999001Y-113951057D01*
X145951059Y-114999000D01*
X134226218Y-114999000D01*
X134146811Y-114992052D01*
X134069802Y-115012686D01*
X133991274Y-115026533D01*
X133968020Y-115039960D01*
X133942090Y-115046907D01*
X133876787Y-115092633D01*
X133807725Y-115132506D01*
X133756471Y-115193588D01*
X132893588Y-116056471D01*
X132841602Y-116100092D01*
X132762123Y-116131560D01*
X132586320Y-116250140D01*
X132581176Y-116255542D01*
X132501827Y-116188011D01*
X132314592Y-116088455D01*
X132110346Y-116031430D01*
X131898619Y-116019592D01*
X131689289Y-116053496D01*
X131492124Y-116131560D01*
X131316320Y-116250140D01*
X131311176Y-116255542D01*
X131231827Y-116188011D01*
X131044592Y-116088455D01*
X130840346Y-116031430D01*
X130628619Y-116019592D01*
X130419289Y-116053496D01*
X130222124Y-116131560D01*
X130046320Y-116250140D01*
X130041176Y-116255542D01*
X129961827Y-116188011D01*
X129774592Y-116088455D01*
X129570346Y-116031430D01*
X129358619Y-116019592D01*
X129149289Y-116053496D01*
X128952124Y-116131560D01*
X128813029Y-116225380D01*
X128746389Y-116165376D01*
X128559610Y-116057540D01*
X128214000Y-115945243D01*
X128214000Y-118054757D01*
X128559610Y-117942460D01*
X128746389Y-117834624D01*
X128813341Y-117774340D01*
X128946071Y-117865223D01*
X129142688Y-117944661D01*
X129351776Y-117980025D01*
X129563580Y-117969666D01*
X129768219Y-117914067D01*
X129956144Y-117815822D01*
X130040637Y-117744924D01*
X130041100Y-117745417D01*
X130216071Y-117865223D01*
X130412688Y-117944661D01*
X130621776Y-117980025D01*
X130833580Y-117969666D01*
X131038219Y-117914067D01*
X131226144Y-117815822D01*
X131310637Y-117744924D01*
X131311100Y-117745417D01*
X131486071Y-117865223D01*
X131682688Y-117944661D01*
X131891776Y-117980025D01*
X132103580Y-117969666D01*
X132308219Y-117914067D01*
X132496144Y-117815822D01*
X132580637Y-117744924D01*
X132581100Y-117745417D01*
X132756071Y-117865223D01*
X132952688Y-117944661D01*
X133161776Y-117980025D01*
X133373580Y-117969666D01*
X133578219Y-117914067D01*
X133766144Y-117815822D01*
X133850637Y-117744924D01*
X133851100Y-117745417D01*
X134026071Y-117865223D01*
X134222688Y-117944661D01*
X134431776Y-117980025D01*
X134643580Y-117969666D01*
X134848219Y-117914067D01*
X135036144Y-117815822D01*
X135120637Y-117744924D01*
X135121100Y-117745417D01*
X135296071Y-117865223D01*
X135492688Y-117944661D01*
X135701776Y-117980025D01*
X135913580Y-117969666D01*
X136118219Y-117914067D01*
X136306144Y-117815822D01*
X136390637Y-117744925D01*
X136391100Y-117745418D01*
X136399001Y-117750828D01*
X136399000Y-117998409D01*
X136230072Y-118080801D01*
X136056882Y-118214176D01*
X135914049Y-118379649D01*
X135807405Y-118570466D01*
X135741309Y-118778828D01*
X135718459Y-118996225D01*
X135739790Y-119213776D01*
X135804431Y-119422595D01*
X135860179Y-119524000D01*
X121063640Y-119524000D01*
X121054012Y-119522172D01*
X120896104Y-119506132D01*
X120796455Y-119474904D01*
X120705121Y-119424277D01*
X120625831Y-119356317D01*
X120561825Y-119273801D01*
X120515720Y-119180103D01*
X120487903Y-119073312D01*
X120478624Y-118952725D01*
X120476000Y-118942084D01*
X120476000Y-117074000D01*
X123296807Y-117074000D01*
X123348842Y-117318798D01*
X123436564Y-117515825D01*
X123563334Y-117690309D01*
X123723611Y-117834624D01*
X123910390Y-117942460D01*
X124256000Y-118054757D01*
X124256000Y-117074000D01*
X123296807Y-117074000D01*
X120476000Y-117074000D01*
X120476000Y-116926000D01*
X123296807Y-116926000D01*
X124256000Y-116926000D01*
X124256000Y-115945243D01*
X124404000Y-115945243D01*
X124404000Y-118054757D01*
X124749610Y-117942460D01*
X124936389Y-117834624D01*
X124965000Y-117808862D01*
X124993611Y-117834624D01*
X125180390Y-117942460D01*
X125526000Y-118054757D01*
X125526000Y-115945243D01*
X125674000Y-115945243D01*
X125674000Y-118054757D01*
X126019610Y-117942460D01*
X126206389Y-117834624D01*
X126235000Y-117808862D01*
X126263611Y-117834624D01*
X126450390Y-117942460D01*
X126796000Y-118054757D01*
X126796000Y-115945243D01*
X126944000Y-115945243D01*
X126944000Y-118054757D01*
X127289610Y-117942460D01*
X127476389Y-117834624D01*
X127505000Y-117808862D01*
X127533611Y-117834624D01*
X127720390Y-117942460D01*
X128066000Y-118054757D01*
X128066000Y-115945243D01*
X127720390Y-116057540D01*
X127533611Y-116165376D01*
X127505000Y-116191138D01*
X127476389Y-116165376D01*
X127289610Y-116057540D01*
X126944000Y-115945243D01*
X126796000Y-115945243D01*
X126450390Y-116057540D01*
X126263611Y-116165376D01*
X126235000Y-116191138D01*
X126206389Y-116165376D01*
X126019610Y-116057540D01*
X125674000Y-115945243D01*
X125526000Y-115945243D01*
X125180390Y-116057540D01*
X124993611Y-116165376D01*
X124965000Y-116191138D01*
X124936389Y-116165376D01*
X124749610Y-116057540D01*
X124404000Y-115945243D01*
X124256000Y-115945243D01*
X123910390Y-116057540D01*
X123723611Y-116165376D01*
X123563334Y-116309691D01*
X123436564Y-116484175D01*
X123348842Y-116681202D01*
X123296807Y-116926000D01*
X120476000Y-116926000D01*
X120476000Y-81063639D01*
X120477828Y-81054011D01*
X120493867Y-80896108D01*
X120525096Y-80796456D01*
X120575725Y-80705120D01*
X120643683Y-80625831D01*
X120726196Y-80561827D01*
X120819901Y-80515719D01*
X120926688Y-80487902D01*
X121047275Y-80478624D01*
X121057916Y-80476000D01*
X131460200Y-80476000D01*
X131407405Y-80570466D01*
G36*
X129454274Y-93948382D02*
G01*
X129627590Y-93982857D01*
X130572410Y-93982857D01*
X130745726Y-93948382D01*
X130800000Y-93912118D01*
X130854274Y-93948382D01*
X131027590Y-93982857D01*
X131972410Y-93982857D01*
X132145726Y-93948382D01*
X132200000Y-93912118D01*
X132254274Y-93948382D01*
X132427590Y-93982857D01*
X133372410Y-93982857D01*
X133545726Y-93948382D01*
X133600000Y-93912118D01*
X133654274Y-93948382D01*
X133827590Y-93982857D01*
X134772410Y-93982857D01*
X134945726Y-93948382D01*
X135000000Y-93912118D01*
X135054274Y-93948382D01*
X135227590Y-93982857D01*
X136172410Y-93982857D01*
X136345726Y-93948382D01*
X136400000Y-93912118D01*
X136454274Y-93948382D01*
X136627590Y-93982857D01*
X137572410Y-93982857D01*
X137745726Y-93948382D01*
X137800000Y-93912118D01*
X137854274Y-93948382D01*
X138027590Y-93982857D01*
X138972410Y-93982857D01*
X139145726Y-93948382D01*
X139200000Y-93912118D01*
X139254274Y-93948382D01*
X139427590Y-93982857D01*
X140372410Y-93982857D01*
X140545726Y-93948382D01*
X140600000Y-93912118D01*
X140654274Y-93948382D01*
X140827590Y-93982857D01*
X141772410Y-93982857D01*
X141945726Y-93948382D01*
X142000000Y-93912118D01*
X142054274Y-93948382D01*
X142227590Y-93982857D01*
X143172410Y-93982857D01*
X143316164Y-93954262D01*
X143316164Y-94172410D01*
X143336372Y-94274000D01*
X140474000Y-94274000D01*
X140474000Y-101626000D01*
X143367459Y-101626000D01*
X143367143Y-101627590D01*
X143367143Y-102572410D01*
X143401618Y-102745726D01*
X143407816Y-102755001D01*
X143354520Y-102834766D01*
X143316164Y-103027590D01*
X143316164Y-103426000D01*
X146683836Y-103426000D01*
X146683836Y-103027590D01*
X146645480Y-102834766D01*
X146592184Y-102755001D01*
X146598382Y-102745726D01*
X146632857Y-102572410D01*
X146632857Y-101627590D01*
X146632541Y-101626000D01*
X155423787Y-101626000D01*
X155530765Y-101697480D01*
X155723590Y-101735836D01*
X157694000Y-101735836D01*
X157694000Y-101626000D01*
X157842000Y-101626000D01*
X157842000Y-101735836D01*
X159524001Y-101735836D01*
X159524000Y-118936360D01*
X159522172Y-118945988D01*
X159506132Y-119103896D01*
X159474904Y-119203545D01*
X159424277Y-119294879D01*
X159356317Y-119374169D01*
X159273801Y-119438175D01*
X159180103Y-119484280D01*
X159073312Y-119512097D01*
X158952725Y-119521376D01*
X158942084Y-119524000D01*
X139945289Y-119524000D01*
X140029773Y-119330624D01*
X140075268Y-119116589D01*
X140076056Y-118890920D01*
X140032056Y-118676573D01*
X139945942Y-118475656D01*
X139821187Y-118296157D01*
X139662888Y-118145410D01*
X139477509Y-118029573D01*
X139272625Y-117953376D01*
X139056604Y-117919935D01*
X138901000Y-117927546D01*
X138901000Y-117769793D01*
X138930637Y-117744924D01*
X138931100Y-117745417D01*
X139106071Y-117865223D01*
X139302688Y-117944661D01*
X139511776Y-117980025D01*
X139723580Y-117969666D01*
X139928219Y-117914067D01*
X140116144Y-117815822D01*
X140200637Y-117744924D01*
X140201100Y-117745417D01*
X140376071Y-117865223D01*
X140572688Y-117944661D01*
X140781776Y-117980025D01*
X140993580Y-117969666D01*
X141198219Y-117914067D01*
X141386144Y-117815822D01*
X141470637Y-117744924D01*
X141471100Y-117745417D01*
X141646071Y-117865223D01*
X141842688Y-117944661D01*
X142051776Y-117980025D01*
X142263580Y-117969666D01*
X142468219Y-117914067D01*
X142656145Y-117815822D01*
X142706140Y-117773872D01*
X142773611Y-117834624D01*
X142960390Y-117942460D01*
X143306000Y-118054757D01*
X143306000Y-116926000D01*
X143454000Y-116926000D01*
X143454000Y-118054757D01*
X143799610Y-117942460D01*
X143986389Y-117834624D01*
X144053341Y-117774340D01*
X144186071Y-117865223D01*
X144382688Y-117944661D01*
X144591776Y-117980025D01*
X144803580Y-117969666D01*
X145008219Y-117914067D01*
X145196144Y-117815822D01*
X145280637Y-117744924D01*
X145281100Y-117745417D01*
X145456071Y-117865223D01*
X145652688Y-117944661D01*
X145861776Y-117980025D01*
X146073580Y-117969666D01*
X146278219Y-117914067D01*
X146466144Y-117815822D01*
X146550637Y-117744924D01*
X146551100Y-117745417D01*
X146726071Y-117865223D01*
X146922688Y-117944661D01*
X147131776Y-117980025D01*
X147343580Y-117969666D01*
X147548219Y-117914067D01*
X147736144Y-117815822D01*
X147820637Y-117744924D01*
X147821100Y-117745417D01*
X147996071Y-117865223D01*
X148192688Y-117944661D01*
X148401776Y-117980025D01*
X148613580Y-117969666D01*
X148818219Y-117914067D01*
X149006144Y-117815822D01*
X149090637Y-117744924D01*
X149091100Y-117745417D01*
X149266071Y-117865223D01*
X149462688Y-117944661D01*
X149671776Y-117980025D01*
X149883580Y-117969666D01*
X150088219Y-117914067D01*
X150186232Y-117862827D01*
X150314274Y-117948382D01*
X150487590Y-117982857D01*
X151512410Y-117982857D01*
X151685726Y-117948382D01*
X151843177Y-117843177D01*
X151948382Y-117685726D01*
X151982857Y-117512410D01*
X151982857Y-116487590D01*
X151948382Y-116314274D01*
X151843177Y-116156823D01*
X151685726Y-116051618D01*
X151512410Y-116017143D01*
X150487590Y-116017143D01*
X150314274Y-116051618D01*
X150186225Y-116137177D01*
X150094592Y-116088455D01*
X149890346Y-116031430D01*
X149678619Y-116019592D01*
X149469289Y-116053496D01*
X149272124Y-116131560D01*
X149096320Y-116250140D01*
X149091176Y-116255542D01*
X149011827Y-116188011D01*
X148824592Y-116088455D01*
X148620346Y-116031430D01*
X148408619Y-116019592D01*
X148199289Y-116053496D01*
X148002124Y-116131560D01*
X147826320Y-116250140D01*
X147821176Y-116255542D01*
X147741827Y-116188011D01*
X147554592Y-116088455D01*
X147350346Y-116031430D01*
X147138619Y-116019592D01*
X146929289Y-116053496D01*
X146732124Y-116131560D01*
X146556320Y-116250140D01*
X146551176Y-116255542D01*
X146471827Y-116188011D01*
X146425864Y-116163572D01*
X146431982Y-116160039D01*
X146457910Y-116153092D01*
X146523210Y-116107370D01*
X146592275Y-116067494D01*
X146643529Y-116006412D01*
X148006417Y-114643524D01*
X148067495Y-114592275D01*
X148107364Y-114523219D01*
X148153093Y-114457911D01*
X148160041Y-114431979D01*
X148173467Y-114408726D01*
X148187314Y-114330198D01*
X148207948Y-114253189D01*
X148201000Y-114173768D01*
X148201000Y-111426218D01*
X148207948Y-111346811D01*
X148187314Y-111269802D01*
X148173467Y-111191274D01*
X148160040Y-111168020D01*
X148153093Y-111142090D01*
X148107367Y-111076787D01*
X148067494Y-111007725D01*
X148006413Y-110956472D01*
X145601000Y-108551059D01*
X145601000Y-107242857D01*
X146162410Y-107242857D01*
X146335726Y-107208382D01*
X146493177Y-107103177D01*
X146598382Y-106945726D01*
X146632857Y-106772410D01*
X146632857Y-105827590D01*
X146598382Y-105654274D01*
X146592184Y-105644999D01*
X146645480Y-105565234D01*
X146683836Y-105372410D01*
X146683836Y-104974000D01*
X143338668Y-104974000D01*
X143321856Y-104955812D01*
X143318384Y-104950244D01*
X143296253Y-104928114D01*
X143222279Y-104848090D01*
X143207844Y-104839705D01*
X141942139Y-103574000D01*
X143316164Y-103574000D01*
X143316164Y-103972410D01*
X143354520Y-104165234D01*
X143377749Y-104200000D01*
X143354520Y-104234766D01*
X143316164Y-104427590D01*
X143316164Y-104826000D01*
X146683836Y-104826000D01*
X146683836Y-104427590D01*
X146645480Y-104234766D01*
X146622251Y-104200000D01*
X146645480Y-104165234D01*
X146683836Y-103972410D01*
X146683836Y-103574000D01*
X143316164Y-103574000D01*
X141942139Y-103574000D01*
X137140225Y-98772086D01*
X136990872Y-98661771D01*
X136756523Y-98579475D01*
X136508337Y-98569723D01*
X136268255Y-98633379D01*
X136057502Y-98764816D01*
X135894715Y-98952413D01*
X135794285Y-99179581D01*
X135765091Y-99426237D01*
X135810629Y-99675584D01*
X135981621Y-99949761D01*
X141874001Y-105842140D01*
X141874001Y-105987351D01*
X141772410Y-105967143D01*
X140827590Y-105967143D01*
X140654274Y-106001618D01*
X140600000Y-106037882D01*
X140545726Y-106001618D01*
X140476077Y-105987764D01*
X140501694Y-105951382D01*
X140574151Y-105729042D01*
X140576286Y-105484490D01*
X140507719Y-105260917D01*
X140376729Y-105067810D01*
X140194749Y-104921755D01*
X139977866Y-104835666D01*
X139745258Y-104817154D01*
X139517489Y-104867858D01*
X139314700Y-104983293D01*
X139154817Y-105153254D01*
X139051977Y-105362713D01*
X139015273Y-105593152D01*
X139047949Y-105824196D01*
X139129758Y-105998442D01*
X138972410Y-105967143D01*
X138027590Y-105967143D01*
X137854274Y-106001618D01*
X137800000Y-106037882D01*
X137745726Y-106001618D01*
X137572410Y-105967143D01*
X136627590Y-105967143D01*
X136454274Y-106001618D01*
X136400000Y-106037882D01*
X136345726Y-106001618D01*
X136172410Y-105967143D01*
X135227590Y-105967143D01*
X135054274Y-106001618D01*
X135000000Y-106037882D01*
X134945726Y-106001618D01*
X134772410Y-105967143D01*
X133827590Y-105967143D01*
X133654274Y-106001618D01*
X133600000Y-106037882D01*
X133545726Y-106001618D01*
X133372410Y-105967143D01*
X132427590Y-105967143D01*
X132254274Y-106001618D01*
X132200000Y-106037882D01*
X132145726Y-106001618D01*
X131972410Y-105967143D01*
X131027590Y-105967143D01*
X130854274Y-106001618D01*
X130800000Y-106037882D01*
X130745726Y-106001618D01*
X130572410Y-105967143D01*
X129627590Y-105967143D01*
X129454274Y-106001618D01*
X129382857Y-106049337D01*
X129382857Y-105827590D01*
X129348382Y-105654274D01*
X129312118Y-105600000D01*
X129348382Y-105545726D01*
X129382857Y-105372410D01*
X129382857Y-104427590D01*
X129348382Y-104254274D01*
X129312118Y-104200000D01*
X129348382Y-104145726D01*
X129382857Y-103972410D01*
X129382857Y-103027590D01*
X129348382Y-102854274D01*
X129312118Y-102800000D01*
X129348382Y-102745726D01*
X129382857Y-102572410D01*
X129382857Y-101627590D01*
X129348382Y-101454274D01*
X129312118Y-101400000D01*
X129348382Y-101345726D01*
X129382857Y-101172410D01*
X129382857Y-100227590D01*
X129348382Y-100054274D01*
X129312118Y-100000000D01*
X129348382Y-99945726D01*
X129382857Y-99772410D01*
X129382857Y-98827590D01*
X129348382Y-98654274D01*
X129312118Y-98600000D01*
X129348382Y-98545726D01*
X129382857Y-98372410D01*
X129382857Y-97427590D01*
X129348382Y-97254274D01*
X129312118Y-97200000D01*
X129348382Y-97145726D01*
X129382857Y-96972410D01*
X129382857Y-96027590D01*
X129348382Y-95854274D01*
X129312118Y-95800000D01*
X129348382Y-95745726D01*
X129382857Y-95572410D01*
X129382857Y-94627590D01*
X129348382Y-94454274D01*
X129312118Y-94400000D01*
X129348382Y-94345726D01*
X129382857Y-94172410D01*
X129382857Y-93900663D01*
X129454274Y-93948382D01*
G37*
X129454274Y-93948382D02*
X129627590Y-93982857D01*
X130572410Y-93982857D01*
X130745726Y-93948382D01*
X130800000Y-93912118D01*
X130854274Y-93948382D01*
X131027590Y-93982857D01*
X131972410Y-93982857D01*
X132145726Y-93948382D01*
X132200000Y-93912118D01*
X132254274Y-93948382D01*
X132427590Y-93982857D01*
X133372410Y-93982857D01*
X133545726Y-93948382D01*
X133600000Y-93912118D01*
X133654274Y-93948382D01*
X133827590Y-93982857D01*
X134772410Y-93982857D01*
X134945726Y-93948382D01*
X135000000Y-93912118D01*
X135054274Y-93948382D01*
X135227590Y-93982857D01*
X136172410Y-93982857D01*
X136345726Y-93948382D01*
X136400000Y-93912118D01*
X136454274Y-93948382D01*
X136627590Y-93982857D01*
X137572410Y-93982857D01*
X137745726Y-93948382D01*
X137800000Y-93912118D01*
X137854274Y-93948382D01*
X138027590Y-93982857D01*
X138972410Y-93982857D01*
X139145726Y-93948382D01*
X139200000Y-93912118D01*
X139254274Y-93948382D01*
X139427590Y-93982857D01*
X140372410Y-93982857D01*
X140545726Y-93948382D01*
X140600000Y-93912118D01*
X140654274Y-93948382D01*
X140827590Y-93982857D01*
X141772410Y-93982857D01*
X141945726Y-93948382D01*
X142000000Y-93912118D01*
X142054274Y-93948382D01*
X142227590Y-93982857D01*
X143172410Y-93982857D01*
X143316164Y-93954262D01*
X143316164Y-94172410D01*
X143336372Y-94274000D01*
X140474000Y-94274000D01*
X140474000Y-101626000D01*
X143367459Y-101626000D01*
X143367143Y-101627590D01*
X143367143Y-102572410D01*
X143401618Y-102745726D01*
X143407816Y-102755001D01*
X143354520Y-102834766D01*
X143316164Y-103027590D01*
X143316164Y-103426000D01*
X146683836Y-103426000D01*
X146683836Y-103027590D01*
X146645480Y-102834766D01*
X146592184Y-102755001D01*
X146598382Y-102745726D01*
X146632857Y-102572410D01*
X146632857Y-101627590D01*
X146632541Y-101626000D01*
X155423787Y-101626000D01*
X155530765Y-101697480D01*
X155723590Y-101735836D01*
X157694000Y-101735836D01*
X157694000Y-101626000D01*
X157842000Y-101626000D01*
X157842000Y-101735836D01*
X159524001Y-101735836D01*
X159524000Y-118936360D01*
X159522172Y-118945988D01*
X159506132Y-119103896D01*
X159474904Y-119203545D01*
X159424277Y-119294879D01*
X159356317Y-119374169D01*
X159273801Y-119438175D01*
X159180103Y-119484280D01*
X159073312Y-119512097D01*
X158952725Y-119521376D01*
X158942084Y-119524000D01*
X139945289Y-119524000D01*
X140029773Y-119330624D01*
X140075268Y-119116589D01*
X140076056Y-118890920D01*
X140032056Y-118676573D01*
X139945942Y-118475656D01*
X139821187Y-118296157D01*
X139662888Y-118145410D01*
X139477509Y-118029573D01*
X139272625Y-117953376D01*
X139056604Y-117919935D01*
X138901000Y-117927546D01*
X138901000Y-117769793D01*
X138930637Y-117744924D01*
X138931100Y-117745417D01*
X139106071Y-117865223D01*
X139302688Y-117944661D01*
X139511776Y-117980025D01*
X139723580Y-117969666D01*
X139928219Y-117914067D01*
X140116144Y-117815822D01*
X140200637Y-117744924D01*
X140201100Y-117745417D01*
X140376071Y-117865223D01*
X140572688Y-117944661D01*
X140781776Y-117980025D01*
X140993580Y-117969666D01*
X141198219Y-117914067D01*
X141386144Y-117815822D01*
X141470637Y-117744924D01*
X141471100Y-117745417D01*
X141646071Y-117865223D01*
X141842688Y-117944661D01*
X142051776Y-117980025D01*
X142263580Y-117969666D01*
X142468219Y-117914067D01*
X142656145Y-117815822D01*
X142706140Y-117773872D01*
X142773611Y-117834624D01*
X142960390Y-117942460D01*
X143306000Y-118054757D01*
X143306000Y-116926000D01*
X143454000Y-116926000D01*
X143454000Y-118054757D01*
X143799610Y-117942460D01*
X143986389Y-117834624D01*
X144053341Y-117774340D01*
X144186071Y-117865223D01*
X144382688Y-117944661D01*
X144591776Y-117980025D01*
X144803580Y-117969666D01*
X145008219Y-117914067D01*
X145196144Y-117815822D01*
X145280637Y-117744924D01*
X145281100Y-117745417D01*
X145456071Y-117865223D01*
X145652688Y-117944661D01*
X145861776Y-117980025D01*
X146073580Y-117969666D01*
X146278219Y-117914067D01*
X146466144Y-117815822D01*
X146550637Y-117744924D01*
X146551100Y-117745417D01*
X146726071Y-117865223D01*
X146922688Y-117944661D01*
X147131776Y-117980025D01*
X147343580Y-117969666D01*
X147548219Y-117914067D01*
X147736144Y-117815822D01*
X147820637Y-117744924D01*
X147821100Y-117745417D01*
X147996071Y-117865223D01*
X148192688Y-117944661D01*
X148401776Y-117980025D01*
X148613580Y-117969666D01*
X148818219Y-117914067D01*
X149006144Y-117815822D01*
X149090637Y-117744924D01*
X149091100Y-117745417D01*
X149266071Y-117865223D01*
X149462688Y-117944661D01*
X149671776Y-117980025D01*
X149883580Y-117969666D01*
X150088219Y-117914067D01*
X150186232Y-117862827D01*
X150314274Y-117948382D01*
X150487590Y-117982857D01*
X151512410Y-117982857D01*
X151685726Y-117948382D01*
X151843177Y-117843177D01*
X151948382Y-117685726D01*
X151982857Y-117512410D01*
X151982857Y-116487590D01*
X151948382Y-116314274D01*
X151843177Y-116156823D01*
X151685726Y-116051618D01*
X151512410Y-116017143D01*
X150487590Y-116017143D01*
X150314274Y-116051618D01*
X150186225Y-116137177D01*
X150094592Y-116088455D01*
X149890346Y-116031430D01*
X149678619Y-116019592D01*
X149469289Y-116053496D01*
X149272124Y-116131560D01*
X149096320Y-116250140D01*
X149091176Y-116255542D01*
X149011827Y-116188011D01*
X148824592Y-116088455D01*
X148620346Y-116031430D01*
X148408619Y-116019592D01*
X148199289Y-116053496D01*
X148002124Y-116131560D01*
X147826320Y-116250140D01*
X147821176Y-116255542D01*
X147741827Y-116188011D01*
X147554592Y-116088455D01*
X147350346Y-116031430D01*
X147138619Y-116019592D01*
X146929289Y-116053496D01*
X146732124Y-116131560D01*
X146556320Y-116250140D01*
X146551176Y-116255542D01*
X146471827Y-116188011D01*
X146425864Y-116163572D01*
X146431982Y-116160039D01*
X146457910Y-116153092D01*
X146523210Y-116107370D01*
X146592275Y-116067494D01*
X146643529Y-116006412D01*
X148006417Y-114643524D01*
X148067495Y-114592275D01*
X148107364Y-114523219D01*
X148153093Y-114457911D01*
X148160041Y-114431979D01*
X148173467Y-114408726D01*
X148187314Y-114330198D01*
X148207948Y-114253189D01*
X148201000Y-114173768D01*
X148201000Y-111426218D01*
X148207948Y-111346811D01*
X148187314Y-111269802D01*
X148173467Y-111191274D01*
X148160040Y-111168020D01*
X148153093Y-111142090D01*
X148107367Y-111076787D01*
X148067494Y-111007725D01*
X148006413Y-110956472D01*
X145601000Y-108551059D01*
X145601000Y-107242857D01*
X146162410Y-107242857D01*
X146335726Y-107208382D01*
X146493177Y-107103177D01*
X146598382Y-106945726D01*
X146632857Y-106772410D01*
X146632857Y-105827590D01*
X146598382Y-105654274D01*
X146592184Y-105644999D01*
X146645480Y-105565234D01*
X146683836Y-105372410D01*
X146683836Y-104974000D01*
X143338668Y-104974000D01*
X143321856Y-104955812D01*
X143318384Y-104950244D01*
X143296253Y-104928114D01*
X143222279Y-104848090D01*
X143207844Y-104839705D01*
X141942139Y-103574000D01*
X143316164Y-103574000D01*
X143316164Y-103972410D01*
X143354520Y-104165234D01*
X143377749Y-104200000D01*
X143354520Y-104234766D01*
X143316164Y-104427590D01*
X143316164Y-104826000D01*
X146683836Y-104826000D01*
X146683836Y-104427590D01*
X146645480Y-104234766D01*
X146622251Y-104200000D01*
X146645480Y-104165234D01*
X146683836Y-103972410D01*
X146683836Y-103574000D01*
X143316164Y-103574000D01*
X141942139Y-103574000D01*
X137140225Y-98772086D01*
X136990872Y-98661771D01*
X136756523Y-98579475D01*
X136508337Y-98569723D01*
X136268255Y-98633379D01*
X136057502Y-98764816D01*
X135894715Y-98952413D01*
X135794285Y-99179581D01*
X135765091Y-99426237D01*
X135810629Y-99675584D01*
X135981621Y-99949761D01*
X141874001Y-105842140D01*
X141874001Y-105987351D01*
X141772410Y-105967143D01*
X140827590Y-105967143D01*
X140654274Y-106001618D01*
X140600000Y-106037882D01*
X140545726Y-106001618D01*
X140476077Y-105987764D01*
X140501694Y-105951382D01*
X140574151Y-105729042D01*
X140576286Y-105484490D01*
X140507719Y-105260917D01*
X140376729Y-105067810D01*
X140194749Y-104921755D01*
X139977866Y-104835666D01*
X139745258Y-104817154D01*
X139517489Y-104867858D01*
X139314700Y-104983293D01*
X139154817Y-105153254D01*
X139051977Y-105362713D01*
X139015273Y-105593152D01*
X139047949Y-105824196D01*
X139129758Y-105998442D01*
X138972410Y-105967143D01*
X138027590Y-105967143D01*
X137854274Y-106001618D01*
X137800000Y-106037882D01*
X137745726Y-106001618D01*
X137572410Y-105967143D01*
X136627590Y-105967143D01*
X136454274Y-106001618D01*
X136400000Y-106037882D01*
X136345726Y-106001618D01*
X136172410Y-105967143D01*
X135227590Y-105967143D01*
X135054274Y-106001618D01*
X135000000Y-106037882D01*
X134945726Y-106001618D01*
X134772410Y-105967143D01*
X133827590Y-105967143D01*
X133654274Y-106001618D01*
X133600000Y-106037882D01*
X133545726Y-106001618D01*
X133372410Y-105967143D01*
X132427590Y-105967143D01*
X132254274Y-106001618D01*
X132200000Y-106037882D01*
X132145726Y-106001618D01*
X131972410Y-105967143D01*
X131027590Y-105967143D01*
X130854274Y-106001618D01*
X130800000Y-106037882D01*
X130745726Y-106001618D01*
X130572410Y-105967143D01*
X129627590Y-105967143D01*
X129454274Y-106001618D01*
X129382857Y-106049337D01*
X129382857Y-105827590D01*
X129348382Y-105654274D01*
X129312118Y-105600000D01*
X129348382Y-105545726D01*
X129382857Y-105372410D01*
X129382857Y-104427590D01*
X129348382Y-104254274D01*
X129312118Y-104200000D01*
X129348382Y-104145726D01*
X129382857Y-103972410D01*
X129382857Y-103027590D01*
X129348382Y-102854274D01*
X129312118Y-102800000D01*
X129348382Y-102745726D01*
X129382857Y-102572410D01*
X129382857Y-101627590D01*
X129348382Y-101454274D01*
X129312118Y-101400000D01*
X129348382Y-101345726D01*
X129382857Y-101172410D01*
X129382857Y-100227590D01*
X129348382Y-100054274D01*
X129312118Y-100000000D01*
X129348382Y-99945726D01*
X129382857Y-99772410D01*
X129382857Y-98827590D01*
X129348382Y-98654274D01*
X129312118Y-98600000D01*
X129348382Y-98545726D01*
X129382857Y-98372410D01*
X129382857Y-97427590D01*
X129348382Y-97254274D01*
X129312118Y-97200000D01*
X129348382Y-97145726D01*
X129382857Y-96972410D01*
X129382857Y-96027590D01*
X129348382Y-95854274D01*
X129312118Y-95800000D01*
X129348382Y-95745726D01*
X129382857Y-95572410D01*
X129382857Y-94627590D01*
X129348382Y-94454274D01*
X129312118Y-94400000D01*
X129348382Y-94345726D01*
X129382857Y-94172410D01*
X129382857Y-93900663D01*
X129454274Y-93948382D01*
G36*
X143418123Y-94627590D02*
G01*
X143418123Y-95076000D01*
X146581877Y-95076000D01*
X146581877Y-94627590D01*
X146561669Y-94526000D01*
X155315977Y-94526000D01*
X155304123Y-94585590D01*
X155304123Y-95336000D01*
X157792000Y-95336000D01*
X157792000Y-96553877D01*
X159574001Y-96553877D01*
X159574001Y-96833123D01*
X155723590Y-96833123D01*
X155593499Y-96859000D01*
X152522009Y-96859000D01*
X152326556Y-96883692D01*
X152082009Y-96980515D01*
X151869223Y-97135113D01*
X151803409Y-97214668D01*
X151629248Y-97051120D01*
X151395224Y-96922464D01*
X151062531Y-96859000D01*
X146581877Y-96859000D01*
X146581877Y-96524000D01*
X143418123Y-96524000D01*
X143418123Y-96972410D01*
X143448718Y-97126217D01*
X143498017Y-97200000D01*
X143448718Y-97273783D01*
X143418123Y-97427590D01*
X143418123Y-98372410D01*
X143448718Y-98526217D01*
X143498017Y-98600000D01*
X143448718Y-98673783D01*
X143418123Y-98827590D01*
X143418123Y-99276000D01*
X146581877Y-99276000D01*
X146581877Y-98941000D01*
X148592281Y-98941000D01*
X148528092Y-99059611D01*
X148494372Y-99261684D01*
X148494372Y-99463500D01*
X150305628Y-99463500D01*
X150305628Y-99264302D01*
X150286271Y-99109013D01*
X150212574Y-98941000D01*
X151077991Y-98941000D01*
X151273444Y-98916308D01*
X151517991Y-98819485D01*
X151730777Y-98664887D01*
X151796591Y-98585332D01*
X151970752Y-98748880D01*
X152204776Y-98877536D01*
X152537469Y-98941000D01*
X153392281Y-98941000D01*
X153328092Y-99059611D01*
X153294372Y-99261684D01*
X153294372Y-99463500D01*
X155105628Y-99463500D01*
X155105628Y-99264302D01*
X155086271Y-99109013D01*
X155012574Y-98941000D01*
X155593499Y-98941000D01*
X155723590Y-98966877D01*
X159574001Y-98966877D01*
X159574001Y-99246123D01*
X157792000Y-99246123D01*
X157792000Y-100464000D01*
X155304123Y-100464000D01*
X155304123Y-101214410D01*
X155334718Y-101368217D01*
X155338582Y-101374000D01*
X146519355Y-101374000D01*
X146551282Y-101326217D01*
X146581877Y-101172410D01*
X146581877Y-100724000D01*
X143418123Y-100724000D01*
X143418123Y-101172410D01*
X143448718Y-101326217D01*
X143480645Y-101374000D01*
X140726000Y-101374000D01*
X140726000Y-99324000D01*
X143418123Y-99324000D01*
X143418123Y-99772410D01*
X143448718Y-99926217D01*
X143498017Y-100000000D01*
X143448718Y-100073783D01*
X143418123Y-100227590D01*
X143418123Y-100676000D01*
X146581877Y-100676000D01*
X146581877Y-100227590D01*
X146551282Y-100073783D01*
X146501983Y-100000000D01*
X146551282Y-99926217D01*
X146581877Y-99772410D01*
X146581877Y-99511500D01*
X148494372Y-99511500D01*
X148494372Y-99710698D01*
X148513729Y-99865987D01*
X148599203Y-100060850D01*
X148745126Y-100219364D01*
X148934611Y-100321908D01*
X149136684Y-100355628D01*
X149376000Y-100355628D01*
X149376000Y-99511500D01*
X149424000Y-99511500D01*
X149424000Y-100355628D01*
X149660698Y-100355628D01*
X149815987Y-100336271D01*
X150010850Y-100250797D01*
X150169364Y-100104874D01*
X150271908Y-99915389D01*
X150305628Y-99713316D01*
X150305628Y-99511500D01*
X153294372Y-99511500D01*
X153294372Y-99710698D01*
X153313729Y-99865987D01*
X153399203Y-100060850D01*
X153545126Y-100219364D01*
X153734611Y-100321908D01*
X153936684Y-100355628D01*
X154176000Y-100355628D01*
X154176000Y-99511500D01*
X154224000Y-99511500D01*
X154224000Y-100355628D01*
X154460698Y-100355628D01*
X154615987Y-100336271D01*
X154810850Y-100250797D01*
X154969364Y-100104874D01*
X155071908Y-99915389D01*
X155105628Y-99713316D01*
X155105628Y-99665590D01*
X155304123Y-99665590D01*
X155304123Y-100416000D01*
X157744000Y-100416000D01*
X157744000Y-99246123D01*
X155723590Y-99246123D01*
X155569783Y-99276718D01*
X155428871Y-99370871D01*
X155334718Y-99511783D01*
X155304123Y-99665590D01*
X155105628Y-99665590D01*
X155105628Y-99511500D01*
X154224000Y-99511500D01*
X154176000Y-99511500D01*
X153294372Y-99511500D01*
X150305628Y-99511500D01*
X149424000Y-99511500D01*
X149376000Y-99511500D01*
X148494372Y-99511500D01*
X146581877Y-99511500D01*
X146581877Y-99324000D01*
X143418123Y-99324000D01*
X140726000Y-99324000D01*
X140726000Y-95124000D01*
X143418123Y-95124000D01*
X143418123Y-95572410D01*
X143448718Y-95726217D01*
X143498017Y-95800000D01*
X143448718Y-95873783D01*
X143418123Y-96027590D01*
X143418123Y-96476000D01*
X146581877Y-96476000D01*
X146581877Y-96027590D01*
X146551282Y-95873783D01*
X146501983Y-95800000D01*
X146551282Y-95726217D01*
X146581877Y-95572410D01*
X146581877Y-95384000D01*
X155304123Y-95384000D01*
X155304123Y-96134410D01*
X155334718Y-96288217D01*
X155428871Y-96429129D01*
X155569783Y-96523282D01*
X155723590Y-96553877D01*
X157744000Y-96553877D01*
X157744000Y-95384000D01*
X155304123Y-95384000D01*
X146581877Y-95384000D01*
X146581877Y-95124000D01*
X143418123Y-95124000D01*
X140726000Y-95124000D01*
X140726000Y-94526000D01*
X143438331Y-94526000D01*
X143418123Y-94627590D01*
G37*
X143418123Y-94627590D02*
X143418123Y-95076000D01*
X146581877Y-95076000D01*
X146581877Y-94627590D01*
X146561669Y-94526000D01*
X155315977Y-94526000D01*
X155304123Y-94585590D01*
X155304123Y-95336000D01*
X157792000Y-95336000D01*
X157792000Y-96553877D01*
X159574001Y-96553877D01*
X159574001Y-96833123D01*
X155723590Y-96833123D01*
X155593499Y-96859000D01*
X152522009Y-96859000D01*
X152326556Y-96883692D01*
X152082009Y-96980515D01*
X151869223Y-97135113D01*
X151803409Y-97214668D01*
X151629248Y-97051120D01*
X151395224Y-96922464D01*
X151062531Y-96859000D01*
X146581877Y-96859000D01*
X146581877Y-96524000D01*
X143418123Y-96524000D01*
X143418123Y-96972410D01*
X143448718Y-97126217D01*
X143498017Y-97200000D01*
X143448718Y-97273783D01*
X143418123Y-97427590D01*
X143418123Y-98372410D01*
X143448718Y-98526217D01*
X143498017Y-98600000D01*
X143448718Y-98673783D01*
X143418123Y-98827590D01*
X143418123Y-99276000D01*
X146581877Y-99276000D01*
X146581877Y-98941000D01*
X148592281Y-98941000D01*
X148528092Y-99059611D01*
X148494372Y-99261684D01*
X148494372Y-99463500D01*
X150305628Y-99463500D01*
X150305628Y-99264302D01*
X150286271Y-99109013D01*
X150212574Y-98941000D01*
X151077991Y-98941000D01*
X151273444Y-98916308D01*
X151517991Y-98819485D01*
X151730777Y-98664887D01*
X151796591Y-98585332D01*
X151970752Y-98748880D01*
X152204776Y-98877536D01*
X152537469Y-98941000D01*
X153392281Y-98941000D01*
X153328092Y-99059611D01*
X153294372Y-99261684D01*
X153294372Y-99463500D01*
X155105628Y-99463500D01*
X155105628Y-99264302D01*
X155086271Y-99109013D01*
X155012574Y-98941000D01*
X155593499Y-98941000D01*
X155723590Y-98966877D01*
X159574001Y-98966877D01*
X159574001Y-99246123D01*
X157792000Y-99246123D01*
X157792000Y-100464000D01*
X155304123Y-100464000D01*
X155304123Y-101214410D01*
X155334718Y-101368217D01*
X155338582Y-101374000D01*
X146519355Y-101374000D01*
X146551282Y-101326217D01*
X146581877Y-101172410D01*
X146581877Y-100724000D01*
X143418123Y-100724000D01*
X143418123Y-101172410D01*
X143448718Y-101326217D01*
X143480645Y-101374000D01*
X140726000Y-101374000D01*
X140726000Y-99324000D01*
X143418123Y-99324000D01*
X143418123Y-99772410D01*
X143448718Y-99926217D01*
X143498017Y-100000000D01*
X143448718Y-100073783D01*
X143418123Y-100227590D01*
X143418123Y-100676000D01*
X146581877Y-100676000D01*
X146581877Y-100227590D01*
X146551282Y-100073783D01*
X146501983Y-100000000D01*
X146551282Y-99926217D01*
X146581877Y-99772410D01*
X146581877Y-99511500D01*
X148494372Y-99511500D01*
X148494372Y-99710698D01*
X148513729Y-99865987D01*
X148599203Y-100060850D01*
X148745126Y-100219364D01*
X148934611Y-100321908D01*
X149136684Y-100355628D01*
X149376000Y-100355628D01*
X149376000Y-99511500D01*
X149424000Y-99511500D01*
X149424000Y-100355628D01*
X149660698Y-100355628D01*
X149815987Y-100336271D01*
X150010850Y-100250797D01*
X150169364Y-100104874D01*
X150271908Y-99915389D01*
X150305628Y-99713316D01*
X150305628Y-99511500D01*
X153294372Y-99511500D01*
X153294372Y-99710698D01*
X153313729Y-99865987D01*
X153399203Y-100060850D01*
X153545126Y-100219364D01*
X153734611Y-100321908D01*
X153936684Y-100355628D01*
X154176000Y-100355628D01*
X154176000Y-99511500D01*
X154224000Y-99511500D01*
X154224000Y-100355628D01*
X154460698Y-100355628D01*
X154615987Y-100336271D01*
X154810850Y-100250797D01*
X154969364Y-100104874D01*
X155071908Y-99915389D01*
X155105628Y-99713316D01*
X155105628Y-99665590D01*
X155304123Y-99665590D01*
X155304123Y-100416000D01*
X157744000Y-100416000D01*
X157744000Y-99246123D01*
X155723590Y-99246123D01*
X155569783Y-99276718D01*
X155428871Y-99370871D01*
X155334718Y-99511783D01*
X155304123Y-99665590D01*
X155105628Y-99665590D01*
X155105628Y-99511500D01*
X154224000Y-99511500D01*
X154176000Y-99511500D01*
X153294372Y-99511500D01*
X150305628Y-99511500D01*
X149424000Y-99511500D01*
X149376000Y-99511500D01*
X148494372Y-99511500D01*
X146581877Y-99511500D01*
X146581877Y-99324000D01*
X143418123Y-99324000D01*
X140726000Y-99324000D01*
X140726000Y-95124000D01*
X143418123Y-95124000D01*
X143418123Y-95572410D01*
X143448718Y-95726217D01*
X143498017Y-95800000D01*
X143448718Y-95873783D01*
X143418123Y-96027590D01*
X143418123Y-96476000D01*
X146581877Y-96476000D01*
X146581877Y-96027590D01*
X146551282Y-95873783D01*
X146501983Y-95800000D01*
X146551282Y-95726217D01*
X146581877Y-95572410D01*
X146581877Y-95384000D01*
X155304123Y-95384000D01*
X155304123Y-96134410D01*
X155334718Y-96288217D01*
X155428871Y-96429129D01*
X155569783Y-96523282D01*
X155723590Y-96553877D01*
X157744000Y-96553877D01*
X157744000Y-95384000D01*
X155304123Y-95384000D01*
X146581877Y-95384000D01*
X146581877Y-95124000D01*
X143418123Y-95124000D01*
X140726000Y-95124000D01*
X140726000Y-94526000D01*
X143438331Y-94526000D01*
X143418123Y-94627590D01*
G36*
X158945989Y-80477828D02*
G01*
X159103892Y-80493867D01*
X159203544Y-80525096D01*
X159294880Y-80575725D01*
X159374169Y-80643683D01*
X159438173Y-80726196D01*
X159484281Y-80819901D01*
X159512098Y-80926688D01*
X159521376Y-81047275D01*
X159524001Y-81057920D01*
X159524001Y-94064164D01*
X157842000Y-94064164D01*
X157842000Y-94274000D01*
X157694000Y-94274000D01*
X157694000Y-94064164D01*
X155723590Y-94064164D01*
X155530765Y-94102520D01*
X155356775Y-94218775D01*
X155319875Y-94274000D01*
X146663628Y-94274000D01*
X146683836Y-94172410D01*
X146683836Y-93774000D01*
X144926000Y-93774000D01*
X144926000Y-92706164D01*
X145074000Y-92706164D01*
X145074000Y-93626000D01*
X146683836Y-93626000D01*
X146683836Y-93227590D01*
X146645480Y-93034765D01*
X146529225Y-92860775D01*
X146355235Y-92744520D01*
X146162410Y-92706164D01*
X145074000Y-92706164D01*
X144926000Y-92706164D01*
X143837590Y-92706164D01*
X143644765Y-92744520D01*
X143642857Y-92745795D01*
X143642857Y-91187590D01*
X143608382Y-91014274D01*
X143526000Y-90890980D01*
X143526000Y-90549037D01*
X143534909Y-90473761D01*
X143514934Y-90364384D01*
X143498395Y-90254380D01*
X143492664Y-90242445D01*
X143489372Y-90224415D01*
X143466044Y-90187011D01*
X143430985Y-90114000D01*
X155916164Y-90114000D01*
X155916164Y-90652410D01*
X155954520Y-90845235D01*
X156070775Y-91019225D01*
X156244765Y-91135480D01*
X156437590Y-91173836D01*
X156876000Y-91173836D01*
X156876000Y-90114000D01*
X157024000Y-90114000D01*
X157024000Y-91173836D01*
X157462410Y-91173836D01*
X157655235Y-91135480D01*
X157829225Y-91019225D01*
X157945480Y-90845235D01*
X157983836Y-90652410D01*
X157983836Y-90114000D01*
X157024000Y-90114000D01*
X156876000Y-90114000D01*
X155916164Y-90114000D01*
X143430985Y-90114000D01*
X143390878Y-90030479D01*
X143321855Y-89955811D01*
X143318382Y-89950242D01*
X143296242Y-89928102D01*
X143222280Y-89848090D01*
X143207849Y-89839708D01*
X142795731Y-89427590D01*
X155916164Y-89427590D01*
X155916164Y-89966000D01*
X156876000Y-89966000D01*
X156876000Y-88906164D01*
X157024000Y-88906164D01*
X157024000Y-89966000D01*
X157983836Y-89966000D01*
X157983836Y-89427590D01*
X157945480Y-89234765D01*
X157829225Y-89060775D01*
X157655235Y-88944520D01*
X157462410Y-88906164D01*
X157024000Y-88906164D01*
X156876000Y-88906164D01*
X156437590Y-88906164D01*
X156244765Y-88944520D01*
X156070775Y-89060775D01*
X155954520Y-89234765D01*
X155916164Y-89427590D01*
X142795731Y-89427590D01*
X142720894Y-89352754D01*
X142703687Y-87861500D01*
X144794014Y-87861500D01*
X144794014Y-88013439D01*
X144829348Y-88236533D01*
X144936451Y-88446733D01*
X145103267Y-88613549D01*
X145313467Y-88720652D01*
X145536561Y-88755986D01*
X145726000Y-88755986D01*
X145726000Y-87861500D01*
X145874000Y-87861500D01*
X145874000Y-88755986D01*
X146063439Y-88755986D01*
X146286533Y-88720652D01*
X146496733Y-88613549D01*
X146663549Y-88446733D01*
X146770652Y-88236533D01*
X146805986Y-88013439D01*
X146805986Y-87861500D01*
X145874000Y-87861500D01*
X145726000Y-87861500D01*
X144794014Y-87861500D01*
X142703687Y-87861500D01*
X142702045Y-87719204D01*
X142707976Y-87711503D01*
X142798266Y-87519628D01*
X142821714Y-87416425D01*
X143212139Y-87026000D01*
X145038718Y-87026000D01*
X144936451Y-87128267D01*
X144829348Y-87338467D01*
X144794014Y-87561561D01*
X144794014Y-87713500D01*
X146805986Y-87713500D01*
X146805986Y-87561561D01*
X146770652Y-87338467D01*
X146663549Y-87128267D01*
X146561282Y-87026000D01*
X147757963Y-87026000D01*
X147833238Y-87034909D01*
X147942605Y-87014936D01*
X148052619Y-86998395D01*
X148064557Y-86992663D01*
X148082586Y-86989370D01*
X148119983Y-86966047D01*
X148276522Y-86890878D01*
X148308302Y-86861500D01*
X152394014Y-86861500D01*
X152394014Y-87013439D01*
X152429348Y-87236533D01*
X152536451Y-87446733D01*
X152703267Y-87613549D01*
X152913467Y-87720652D01*
X153136561Y-87755986D01*
X153326000Y-87755986D01*
X153326000Y-86861500D01*
X153474000Y-86861500D01*
X153474000Y-87755986D01*
X153663439Y-87755986D01*
X153886533Y-87720652D01*
X154096733Y-87613549D01*
X154263549Y-87446733D01*
X154370652Y-87236533D01*
X154405986Y-87013439D01*
X154405986Y-86861500D01*
X153474000Y-86861500D01*
X153326000Y-86861500D01*
X152394014Y-86861500D01*
X148308302Y-86861500D01*
X148351189Y-86821856D01*
X148356757Y-86818384D01*
X148378887Y-86796253D01*
X148458911Y-86722279D01*
X148467296Y-86707844D01*
X148613579Y-86561561D01*
X152394014Y-86561561D01*
X152394014Y-86713500D01*
X154405986Y-86713500D01*
X154405986Y-86561561D01*
X154370652Y-86338467D01*
X154263549Y-86128267D01*
X154098194Y-85962912D01*
X154209062Y-85860851D01*
X154234687Y-85813500D01*
X154385022Y-85813500D01*
X154391510Y-85820643D01*
X154592255Y-85939600D01*
X154819104Y-85994271D01*
X155052000Y-85979822D01*
X155270351Y-85897531D01*
X155378879Y-85813500D01*
X155561281Y-85813500D01*
X155640688Y-85820448D01*
X155717690Y-85799815D01*
X155796224Y-85785967D01*
X155819482Y-85772539D01*
X155845410Y-85765592D01*
X155910710Y-85719870D01*
X155979775Y-85679994D01*
X156031029Y-85618912D01*
X157356417Y-84293524D01*
X157417495Y-84242275D01*
X157457364Y-84173219D01*
X157503093Y-84107911D01*
X157510041Y-84081979D01*
X157523467Y-84058726D01*
X157537314Y-83980198D01*
X157557948Y-83903189D01*
X157551000Y-83823768D01*
X157551000Y-82925235D01*
X157635726Y-82908382D01*
X157793177Y-82803177D01*
X157898382Y-82645726D01*
X157932857Y-82472410D01*
X157932857Y-81247590D01*
X157898382Y-81074274D01*
X157793177Y-80916823D01*
X157635726Y-80811618D01*
X157462410Y-80777143D01*
X156437590Y-80777143D01*
X156264274Y-80811618D01*
X156106823Y-80916823D01*
X156001618Y-81074274D01*
X155967143Y-81247590D01*
X155967143Y-82472410D01*
X156001618Y-82645726D01*
X156106823Y-82803177D01*
X156264274Y-82908382D01*
X156349000Y-82925235D01*
X156349001Y-83601057D01*
X155356340Y-84593719D01*
X155282249Y-84534255D01*
X155065366Y-84448166D01*
X154832758Y-84429654D01*
X154604989Y-84480358D01*
X154402200Y-84595793D01*
X154387424Y-84611500D01*
X154242864Y-84611500D01*
X154085851Y-84440938D01*
X153881930Y-84330582D01*
X153663667Y-84294160D01*
X153138951Y-84294160D01*
X152971422Y-84315042D01*
X152761528Y-84407110D01*
X152590938Y-84564149D01*
X152480582Y-84768070D01*
X152444160Y-84986333D01*
X152444160Y-85436049D01*
X152465042Y-85603578D01*
X152557110Y-85813472D01*
X152698095Y-85966623D01*
X152536451Y-86128267D01*
X152429348Y-86338467D01*
X152394014Y-86561561D01*
X148613579Y-86561561D01*
X150279392Y-84895749D01*
X150338923Y-84848818D01*
X150402161Y-84757321D01*
X150468227Y-84667876D01*
X150472615Y-84655384D01*
X150483038Y-84640301D01*
X150492992Y-84597360D01*
X150550525Y-84433525D01*
X150554517Y-84331919D01*
X150556000Y-84325523D01*
X150556000Y-84294186D01*
X150560277Y-84185339D01*
X150556000Y-84169208D01*
X150556000Y-83982857D01*
X151512410Y-83982857D01*
X151685726Y-83948382D01*
X151843177Y-83843177D01*
X151948382Y-83685726D01*
X151982857Y-83512410D01*
X151982857Y-82487590D01*
X151948382Y-82314274D01*
X151843177Y-82156823D01*
X151685726Y-82051618D01*
X151512410Y-82017143D01*
X150487590Y-82017143D01*
X150314274Y-82051618D01*
X150186225Y-82137177D01*
X150094592Y-82088455D01*
X149890346Y-82031430D01*
X149678619Y-82019592D01*
X149469289Y-82053496D01*
X149272124Y-82131560D01*
X149096320Y-82250140D01*
X149091176Y-82255542D01*
X149011827Y-82188011D01*
X148824592Y-82088455D01*
X148620346Y-82031430D01*
X148408619Y-82019592D01*
X148199289Y-82053496D01*
X148002124Y-82131560D01*
X147826320Y-82250140D01*
X147821176Y-82255542D01*
X147741827Y-82188011D01*
X147554592Y-82088455D01*
X147350346Y-82031430D01*
X147138619Y-82019592D01*
X146929289Y-82053496D01*
X146732124Y-82131560D01*
X146556320Y-82250140D01*
X146551176Y-82255542D01*
X146471827Y-82188011D01*
X146284592Y-82088455D01*
X146080346Y-82031430D01*
X145868619Y-82019592D01*
X145659289Y-82053496D01*
X145462124Y-82131560D01*
X145286320Y-82250140D01*
X145281176Y-82255542D01*
X145201827Y-82188011D01*
X145014592Y-82088455D01*
X144810346Y-82031430D01*
X144598619Y-82019592D01*
X144389289Y-82053496D01*
X144192124Y-82131560D01*
X144016320Y-82250140D01*
X144011176Y-82255542D01*
X143931827Y-82188011D01*
X143744592Y-82088455D01*
X143540346Y-82031430D01*
X143328619Y-82019592D01*
X143119289Y-82053496D01*
X142922124Y-82131560D01*
X142746320Y-82250140D01*
X142741176Y-82255542D01*
X142661827Y-82188011D01*
X142474592Y-82088455D01*
X142270346Y-82031430D01*
X142058619Y-82019592D01*
X141849289Y-82053496D01*
X141652124Y-82131560D01*
X141476320Y-82250140D01*
X141471176Y-82255542D01*
X141391827Y-82188011D01*
X141204592Y-82088455D01*
X141000346Y-82031430D01*
X140788619Y-82019592D01*
X140579289Y-82053496D01*
X140382124Y-82131560D01*
X140206320Y-82250140D01*
X140201176Y-82255542D01*
X140121827Y-82188011D01*
X139934592Y-82088455D01*
X139730346Y-82031430D01*
X139518619Y-82019592D01*
X139309289Y-82053496D01*
X139112124Y-82131560D01*
X138936320Y-82250140D01*
X138931176Y-82255542D01*
X138851827Y-82188011D01*
X138664592Y-82088455D01*
X138460346Y-82031430D01*
X138248619Y-82019592D01*
X138039289Y-82053496D01*
X137842124Y-82131560D01*
X137666320Y-82250140D01*
X137661176Y-82255542D01*
X137581827Y-82188011D01*
X137394592Y-82088455D01*
X137190346Y-82031430D01*
X136978619Y-82019592D01*
X136769289Y-82053496D01*
X136572124Y-82131560D01*
X136396320Y-82250140D01*
X136391176Y-82255542D01*
X136311827Y-82188011D01*
X136124592Y-82088455D01*
X135920346Y-82031430D01*
X135708619Y-82019592D01*
X135499289Y-82053496D01*
X135302124Y-82131560D01*
X135126320Y-82250140D01*
X135121176Y-82255542D01*
X135091000Y-82229860D01*
X135091000Y-82039151D01*
X135270723Y-81973737D01*
X135456906Y-81859197D01*
X135616254Y-81709559D01*
X135742259Y-81530936D01*
X135829773Y-81330624D01*
X135875268Y-81116589D01*
X135876056Y-80890920D01*
X135832056Y-80676573D01*
X135746089Y-80476000D01*
X158936361Y-80476000D01*
X158945989Y-80477828D01*
G37*
X158945989Y-80477828D02*
X159103892Y-80493867D01*
X159203544Y-80525096D01*
X159294880Y-80575725D01*
X159374169Y-80643683D01*
X159438173Y-80726196D01*
X159484281Y-80819901D01*
X159512098Y-80926688D01*
X159521376Y-81047275D01*
X159524001Y-81057920D01*
X159524001Y-94064164D01*
X157842000Y-94064164D01*
X157842000Y-94274000D01*
X157694000Y-94274000D01*
X157694000Y-94064164D01*
X155723590Y-94064164D01*
X155530765Y-94102520D01*
X155356775Y-94218775D01*
X155319875Y-94274000D01*
X146663628Y-94274000D01*
X146683836Y-94172410D01*
X146683836Y-93774000D01*
X144926000Y-93774000D01*
X144926000Y-92706164D01*
X145074000Y-92706164D01*
X145074000Y-93626000D01*
X146683836Y-93626000D01*
X146683836Y-93227590D01*
X146645480Y-93034765D01*
X146529225Y-92860775D01*
X146355235Y-92744520D01*
X146162410Y-92706164D01*
X145074000Y-92706164D01*
X144926000Y-92706164D01*
X143837590Y-92706164D01*
X143644765Y-92744520D01*
X143642857Y-92745795D01*
X143642857Y-91187590D01*
X143608382Y-91014274D01*
X143526000Y-90890980D01*
X143526000Y-90549037D01*
X143534909Y-90473761D01*
X143514934Y-90364384D01*
X143498395Y-90254380D01*
X143492664Y-90242445D01*
X143489372Y-90224415D01*
X143466044Y-90187011D01*
X143430985Y-90114000D01*
X155916164Y-90114000D01*
X155916164Y-90652410D01*
X155954520Y-90845235D01*
X156070775Y-91019225D01*
X156244765Y-91135480D01*
X156437590Y-91173836D01*
X156876000Y-91173836D01*
X156876000Y-90114000D01*
X157024000Y-90114000D01*
X157024000Y-91173836D01*
X157462410Y-91173836D01*
X157655235Y-91135480D01*
X157829225Y-91019225D01*
X157945480Y-90845235D01*
X157983836Y-90652410D01*
X157983836Y-90114000D01*
X157024000Y-90114000D01*
X156876000Y-90114000D01*
X155916164Y-90114000D01*
X143430985Y-90114000D01*
X143390878Y-90030479D01*
X143321855Y-89955811D01*
X143318382Y-89950242D01*
X143296242Y-89928102D01*
X143222280Y-89848090D01*
X143207849Y-89839708D01*
X142795731Y-89427590D01*
X155916164Y-89427590D01*
X155916164Y-89966000D01*
X156876000Y-89966000D01*
X156876000Y-88906164D01*
X157024000Y-88906164D01*
X157024000Y-89966000D01*
X157983836Y-89966000D01*
X157983836Y-89427590D01*
X157945480Y-89234765D01*
X157829225Y-89060775D01*
X157655235Y-88944520D01*
X157462410Y-88906164D01*
X157024000Y-88906164D01*
X156876000Y-88906164D01*
X156437590Y-88906164D01*
X156244765Y-88944520D01*
X156070775Y-89060775D01*
X155954520Y-89234765D01*
X155916164Y-89427590D01*
X142795731Y-89427590D01*
X142720894Y-89352754D01*
X142703687Y-87861500D01*
X144794014Y-87861500D01*
X144794014Y-88013439D01*
X144829348Y-88236533D01*
X144936451Y-88446733D01*
X145103267Y-88613549D01*
X145313467Y-88720652D01*
X145536561Y-88755986D01*
X145726000Y-88755986D01*
X145726000Y-87861500D01*
X145874000Y-87861500D01*
X145874000Y-88755986D01*
X146063439Y-88755986D01*
X146286533Y-88720652D01*
X146496733Y-88613549D01*
X146663549Y-88446733D01*
X146770652Y-88236533D01*
X146805986Y-88013439D01*
X146805986Y-87861500D01*
X145874000Y-87861500D01*
X145726000Y-87861500D01*
X144794014Y-87861500D01*
X142703687Y-87861500D01*
X142702045Y-87719204D01*
X142707976Y-87711503D01*
X142798266Y-87519628D01*
X142821714Y-87416425D01*
X143212139Y-87026000D01*
X145038718Y-87026000D01*
X144936451Y-87128267D01*
X144829348Y-87338467D01*
X144794014Y-87561561D01*
X144794014Y-87713500D01*
X146805986Y-87713500D01*
X146805986Y-87561561D01*
X146770652Y-87338467D01*
X146663549Y-87128267D01*
X146561282Y-87026000D01*
X147757963Y-87026000D01*
X147833238Y-87034909D01*
X147942605Y-87014936D01*
X148052619Y-86998395D01*
X148064557Y-86992663D01*
X148082586Y-86989370D01*
X148119983Y-86966047D01*
X148276522Y-86890878D01*
X148308302Y-86861500D01*
X152394014Y-86861500D01*
X152394014Y-87013439D01*
X152429348Y-87236533D01*
X152536451Y-87446733D01*
X152703267Y-87613549D01*
X152913467Y-87720652D01*
X153136561Y-87755986D01*
X153326000Y-87755986D01*
X153326000Y-86861500D01*
X153474000Y-86861500D01*
X153474000Y-87755986D01*
X153663439Y-87755986D01*
X153886533Y-87720652D01*
X154096733Y-87613549D01*
X154263549Y-87446733D01*
X154370652Y-87236533D01*
X154405986Y-87013439D01*
X154405986Y-86861500D01*
X153474000Y-86861500D01*
X153326000Y-86861500D01*
X152394014Y-86861500D01*
X148308302Y-86861500D01*
X148351189Y-86821856D01*
X148356757Y-86818384D01*
X148378887Y-86796253D01*
X148458911Y-86722279D01*
X148467296Y-86707844D01*
X148613579Y-86561561D01*
X152394014Y-86561561D01*
X152394014Y-86713500D01*
X154405986Y-86713500D01*
X154405986Y-86561561D01*
X154370652Y-86338467D01*
X154263549Y-86128267D01*
X154098194Y-85962912D01*
X154209062Y-85860851D01*
X154234687Y-85813500D01*
X154385022Y-85813500D01*
X154391510Y-85820643D01*
X154592255Y-85939600D01*
X154819104Y-85994271D01*
X155052000Y-85979822D01*
X155270351Y-85897531D01*
X155378879Y-85813500D01*
X155561281Y-85813500D01*
X155640688Y-85820448D01*
X155717690Y-85799815D01*
X155796224Y-85785967D01*
X155819482Y-85772539D01*
X155845410Y-85765592D01*
X155910710Y-85719870D01*
X155979775Y-85679994D01*
X156031029Y-85618912D01*
X157356417Y-84293524D01*
X157417495Y-84242275D01*
X157457364Y-84173219D01*
X157503093Y-84107911D01*
X157510041Y-84081979D01*
X157523467Y-84058726D01*
X157537314Y-83980198D01*
X157557948Y-83903189D01*
X157551000Y-83823768D01*
X157551000Y-82925235D01*
X157635726Y-82908382D01*
X157793177Y-82803177D01*
X157898382Y-82645726D01*
X157932857Y-82472410D01*
X157932857Y-81247590D01*
X157898382Y-81074274D01*
X157793177Y-80916823D01*
X157635726Y-80811618D01*
X157462410Y-80777143D01*
X156437590Y-80777143D01*
X156264274Y-80811618D01*
X156106823Y-80916823D01*
X156001618Y-81074274D01*
X155967143Y-81247590D01*
X155967143Y-82472410D01*
X156001618Y-82645726D01*
X156106823Y-82803177D01*
X156264274Y-82908382D01*
X156349000Y-82925235D01*
X156349001Y-83601057D01*
X155356340Y-84593719D01*
X155282249Y-84534255D01*
X155065366Y-84448166D01*
X154832758Y-84429654D01*
X154604989Y-84480358D01*
X154402200Y-84595793D01*
X154387424Y-84611500D01*
X154242864Y-84611500D01*
X154085851Y-84440938D01*
X153881930Y-84330582D01*
X153663667Y-84294160D01*
X153138951Y-84294160D01*
X152971422Y-84315042D01*
X152761528Y-84407110D01*
X152590938Y-84564149D01*
X152480582Y-84768070D01*
X152444160Y-84986333D01*
X152444160Y-85436049D01*
X152465042Y-85603578D01*
X152557110Y-85813472D01*
X152698095Y-85966623D01*
X152536451Y-86128267D01*
X152429348Y-86338467D01*
X152394014Y-86561561D01*
X148613579Y-86561561D01*
X150279392Y-84895749D01*
X150338923Y-84848818D01*
X150402161Y-84757321D01*
X150468227Y-84667876D01*
X150472615Y-84655384D01*
X150483038Y-84640301D01*
X150492992Y-84597360D01*
X150550525Y-84433525D01*
X150554517Y-84331919D01*
X150556000Y-84325523D01*
X150556000Y-84294186D01*
X150560277Y-84185339D01*
X150556000Y-84169208D01*
X150556000Y-83982857D01*
X151512410Y-83982857D01*
X151685726Y-83948382D01*
X151843177Y-83843177D01*
X151948382Y-83685726D01*
X151982857Y-83512410D01*
X151982857Y-82487590D01*
X151948382Y-82314274D01*
X151843177Y-82156823D01*
X151685726Y-82051618D01*
X151512410Y-82017143D01*
X150487590Y-82017143D01*
X150314274Y-82051618D01*
X150186225Y-82137177D01*
X150094592Y-82088455D01*
X149890346Y-82031430D01*
X149678619Y-82019592D01*
X149469289Y-82053496D01*
X149272124Y-82131560D01*
X149096320Y-82250140D01*
X149091176Y-82255542D01*
X149011827Y-82188011D01*
X148824592Y-82088455D01*
X148620346Y-82031430D01*
X148408619Y-82019592D01*
X148199289Y-82053496D01*
X148002124Y-82131560D01*
X147826320Y-82250140D01*
X147821176Y-82255542D01*
X147741827Y-82188011D01*
X147554592Y-82088455D01*
X147350346Y-82031430D01*
X147138619Y-82019592D01*
X146929289Y-82053496D01*
X146732124Y-82131560D01*
X146556320Y-82250140D01*
X146551176Y-82255542D01*
X146471827Y-82188011D01*
X146284592Y-82088455D01*
X146080346Y-82031430D01*
X145868619Y-82019592D01*
X145659289Y-82053496D01*
X145462124Y-82131560D01*
X145286320Y-82250140D01*
X145281176Y-82255542D01*
X145201827Y-82188011D01*
X145014592Y-82088455D01*
X144810346Y-82031430D01*
X144598619Y-82019592D01*
X144389289Y-82053496D01*
X144192124Y-82131560D01*
X144016320Y-82250140D01*
X144011176Y-82255542D01*
X143931827Y-82188011D01*
X143744592Y-82088455D01*
X143540346Y-82031430D01*
X143328619Y-82019592D01*
X143119289Y-82053496D01*
X142922124Y-82131560D01*
X142746320Y-82250140D01*
X142741176Y-82255542D01*
X142661827Y-82188011D01*
X142474592Y-82088455D01*
X142270346Y-82031430D01*
X142058619Y-82019592D01*
X141849289Y-82053496D01*
X141652124Y-82131560D01*
X141476320Y-82250140D01*
X141471176Y-82255542D01*
X141391827Y-82188011D01*
X141204592Y-82088455D01*
X141000346Y-82031430D01*
X140788619Y-82019592D01*
X140579289Y-82053496D01*
X140382124Y-82131560D01*
X140206320Y-82250140D01*
X140201176Y-82255542D01*
X140121827Y-82188011D01*
X139934592Y-82088455D01*
X139730346Y-82031430D01*
X139518619Y-82019592D01*
X139309289Y-82053496D01*
X139112124Y-82131560D01*
X138936320Y-82250140D01*
X138931176Y-82255542D01*
X138851827Y-82188011D01*
X138664592Y-82088455D01*
X138460346Y-82031430D01*
X138248619Y-82019592D01*
X138039289Y-82053496D01*
X137842124Y-82131560D01*
X137666320Y-82250140D01*
X137661176Y-82255542D01*
X137581827Y-82188011D01*
X137394592Y-82088455D01*
X137190346Y-82031430D01*
X136978619Y-82019592D01*
X136769289Y-82053496D01*
X136572124Y-82131560D01*
X136396320Y-82250140D01*
X136391176Y-82255542D01*
X136311827Y-82188011D01*
X136124592Y-82088455D01*
X135920346Y-82031430D01*
X135708619Y-82019592D01*
X135499289Y-82053496D01*
X135302124Y-82131560D01*
X135126320Y-82250140D01*
X135121176Y-82255542D01*
X135091000Y-82229860D01*
X135091000Y-82039151D01*
X135270723Y-81973737D01*
X135456906Y-81859197D01*
X135616254Y-81709559D01*
X135742259Y-81530936D01*
X135829773Y-81330624D01*
X135875268Y-81116589D01*
X135876056Y-80890920D01*
X135832056Y-80676573D01*
X135746089Y-80476000D01*
X158936361Y-80476000D01*
X158945989Y-80477828D01*
M02*
