M48
; DRILL file {KiCad 5.99.0-unknown-d20d310~86~ubuntu18.04.1} date Fri 20 Dec 2019 03:33:41 PM EST
; FORMAT={-:-/ absolute / inch / decimal}
; #@! TF.CreationDate,2019-12-20T15:33:41-05:00
; #@! TF.GenerationSoftware,Kicad,Pcbnew,5.99.0-unknown-d20d310~86~ubuntu18.04.1
; #@! TF.FileFunction,Plated,1,2,PTH
FMAT,2
INCH
T1C0.0118
T2C0.0256
%
G90
G05
T1
X4.8228Y-3.248
X4.8228Y-3.3465
X4.8228Y-3.4449
X4.8228Y-3.5433
X4.8228Y-4.2323
X4.8228Y-4.3307
X4.8228Y-4.4291
X4.8228Y-4.5276
X4.8228Y-4.626
X4.8701Y-3.7677
X4.9213Y-4.3307
X4.9213Y-4.4291
X4.9213Y-4.5276
X4.94Y-3.689
X5.0197Y-4.4291
X5.0197Y-4.5276
X5.1181Y-3.8386
X5.1181Y-3.937
X5.1181Y-4.0354
X5.1181Y-4.1339
X5.1181Y-4.5276
X5.1772Y-4.3031
X5.2165Y-3.937
X5.2165Y-4.0354
X5.2165Y-4.1339
X5.2165Y-4.5276
X5.2362Y-4.315
X5.2874Y-4.3189
X5.315Y-3.7402
X5.315Y-4.0354
X5.315Y-4.1339
X5.3504Y-4.3031
X5.3622Y-3.3701
X5.378Y-3.9134
X5.4134Y-3.7402
X5.4134Y-3.8386
X5.4134Y-4.1339
X5.4764Y-4.4724
X5.5039Y-4.1575
X5.5118Y-3.7402
X5.5118Y-3.8386
X5.5118Y-3.937
X5.6102Y-3.7402
X5.6102Y-3.8386
X5.6102Y-3.937
X5.7087Y-3.5433
X5.7087Y-3.6417
X5.7835Y-3.8031
X5.7835Y-3.9094
X5.8071Y-3.4449
X5.8071Y-3.5433
X5.8071Y-3.6417
X5.8071Y-3.7598
X5.8071Y-3.9528
X5.8071Y-4.0354
X5.8071Y-4.1339
X5.8425Y-3.8031
X5.8425Y-3.9094
X5.8661Y-3.7598
X5.8661Y-3.9528
X5.9016Y-3.8031
X5.9055Y-3.4449
X5.9055Y-3.5433
X5.9055Y-3.6417
X5.9055Y-4.0354
X5.9055Y-4.1339
X5.9252Y-3.7598
X5.9252Y-3.9528
X5.9606Y-3.8031
X5.9606Y-3.9094
X5.9843Y-3.7598
X5.9843Y-3.9528
X6.0039Y-3.248
X6.0039Y-3.5433
X6.0039Y-3.6417
X6.0039Y-4.0354
X6.0039Y-4.1339
X6.0039Y-4.2323
X6.0039Y-4.626
X6.0197Y-3.8031
X6.0197Y-3.9094
X6.0433Y-3.7598
X6.0433Y-3.9528
X6.0787Y-3.8031
X6.0979Y-3.3548
X6.1024Y-3.248
X6.1024Y-3.4449
X6.1024Y-3.5433
X6.1024Y-3.6417
X6.1024Y-3.7598
X6.1024Y-3.9528
X6.1024Y-4.0354
X6.1024Y-4.1339
X6.1024Y-4.2323
X6.1024Y-4.626
X6.2008Y-3.3465
X6.2008Y-3.4449
X6.2008Y-3.6417
X6.2008Y-4.0354
X6.2008Y-4.1339
X6.2008Y-4.2323
X6.2008Y-4.5276
X6.2008Y-4.626
T2
X4.8949Y-3.2677
X4.9449Y-3.2677
X4.9949Y-3.2677
X5.0449Y-3.2677
X5.0949Y-3.2677
X5.1449Y-3.2677
X5.1949Y-3.2677
X5.2449Y-3.2677
X5.2949Y-3.2677
X5.3449Y-3.2677
X5.3949Y-3.2677
X5.4449Y-3.2677
X5.4949Y-3.2677
X5.5449Y-3.2677
X5.5949Y-3.2677
X5.6449Y-3.2677
X5.6949Y-3.2677
X5.7449Y-3.2677
X5.7949Y-3.2677
X5.8449Y-3.2677
X5.8949Y-3.2677
X5.9449Y-3.2677
X5.5354Y-3.4331
X5.5854Y-3.4331
X4.8949Y-4.6063
X4.9449Y-4.6063
X4.9949Y-4.6063
X5.0449Y-4.6063
X5.0949Y-4.6063
X5.1449Y-4.6063
X5.1949Y-4.6063
X5.2449Y-4.6063
X5.2949Y-4.6063
X5.3449Y-4.6063
X5.3949Y-4.6063
X5.4449Y-4.6063
X5.4949Y-4.6063
X5.5449Y-4.6063
X5.5949Y-4.6063
X5.6449Y-4.6063
X5.6949Y-4.6063
X5.7449Y-4.6063
X5.7949Y-4.6063
X5.8449Y-4.6063
X5.8949Y-4.6063
X5.9449Y-4.6063
T0
M30
