<?xml version="1.0" encoding="UTF-8" standalone="no"?>
<!DOCTYPE svg PUBLIC "-//W3C//DTD SVG 1.0//EN" "http://www.w3.org/TR/2001/REC-SVG-20010904/DTD/svg10.dtd">
<!-- Generated by Microsoft Visio 11.0, SVG Export, v1.0 SWDconnections.svg Page-1 -->
<svg xmlns:ev="http://www.w3.org/2001/xml-events" xmlns:xlink="http://www.w3.org/1999/xlink" xmlns="http://www.w3.org/2000/svg" xmlns:v="http://schemas.microsoft.com/visio/2003/SVGExtensions/" width="468.61728"		height="274.8336" viewBox="0 0 351.463 206.125" xml:space="preserve" color-interpolation-filters="sRGB" class="st15">
	<v:documentProperties v:langID="1033" v:metric="true" v:viewMarkup="false"/>

	<style type="text/css">
	<![CDATA[
		.st1 {fill:none}
		.st2 {stroke:#000000;stroke-linecap:butt;stroke-width:0.837638}
		.st3 {fill:none;stroke:none;stroke-linecap:butt;stroke-width:0.2625}
		.st4 {fill:none;stroke:#000000;stroke-linecap:butt;stroke-width:0.837638}
		.st5 {fill:none;stroke:none;stroke-linecap:butt;stroke-width:0.75}
		.st6 {fill:#000000;font-family:Arial,Helvetica,sans-serif;font-size:0.75em}
		.st7 {stroke:#000000;stroke-linecap:butt;stroke-width:0.65625}
		.st8 {font-size:1em}
		.st9 {fill:#ffffff;stroke:#000000;stroke-linecap:butt;stroke-width:0.907462}
		.st10 {fill:#ffffff;stroke:none;stroke-linecap:butt;stroke-width:0.75}
		.st11 {fill:none;stroke:#000000;stroke-linecap:butt;stroke-width:1.3125}
		.st12 {stroke:#000000;stroke-linecap:butt;stroke-width:0.360019}
		.st13 {stroke:#000000;stroke-linecap:round;stroke-linejoin:round;stroke-width:0.72}
		.st14 {fill:none;stroke:none;stroke-linecap:butt;stroke-width:0.72}
		.st15 {fill:none;fill-rule:evenodd;font-size:12px;overflow:visible;stroke-linecap:square;stroke-miterlimit:3}
	]]>
	</style>

	<g v:mID="0" v:index="1" v:groupContext="foregroundPage">
		<title>Page-1</title>
		<v:pageProperties v:drawingScale="1" v:pageScale="1" v:drawingUnits="19" v:shadowOffsetX="9" v:shadowOffsetY="-9"/>
		<g id="shape266-1" v:mID="266" v:groupContext="shape" transform="translate(80.4783,-60.9047)">
			<title>Sheet.266</title>
			<path d="M0 206.12 L194.31 206.12 L0 206.12 Z" class="st1"/>
			<path d="M0 206.12 L194.31 206.12" class="st2"/>
		</g>
		<g id="shape87-4" v:mID="87" v:groupContext="shape" transform="translate(5.93661,-5.71353)">
			<title>Sheet.87</title>
			<rect x="0" y="9.82209" width="16.3618" height="196.303" class="st3"/>
		</g>
		<g id="shape205-6" v:mID="205" v:groupContext="shape" transform="translate(275.009,-33.546)">
			<title>Sheet.205</title>
			<rect x="0" y="71.1249" width="75.6158" height="135" class="st4"/>
		</g>
		<g id="shape31-8" v:mID="31" v:groupContext="shape" transform="translate(277.353,-55.4835)">
			<title>Sheet.31</title>
			<desc>RESET</desc>
			<v:textBlock v:margins="rect(0,0,0,0)"/>
			<v:textRect cx="15.3755" cy="200.64" width="30.76" height="10.9691"/>
			<rect x="0" y="195.156" width="30.7509" height="10.9691" class="st5"/>
			<text x="0" y="203.34" class="st6" v:langID="2057"><v:paragraph/><v:tabList/>RESET</text>		</g>
		<g id="shape32-11" v:mID="32" v:groupContext="shape" transform="translate(277.729,-66.2294)">
			<title>Sheet.32</title>
			<path d="M0 206.12 L29.81 206.12 L0 206.12 Z" class="st1"/>
			<path d="M0 206.12 L29.81 206.12" class="st7"/>
		</g>
		<g id="shape253-14" v:mID="253" v:groupContext="shape" transform="translate(291.654,-134.271)">
			<title>Sheet.253</title>
			<desc>ARM Processor/ASIC</desc>
			<v:textBlock v:margins="rect(0,0,0,0)"/>
			<v:textRect cx="21.6997" cy="190.975" width="43.4" height="30.3"/>
			<rect x="0" y="175.825" width="43.3994" height="30.3" class="st5"/>
			<text x="11.7" y="182.87" class="st6" v:langID="2057"><v:paragraph v:horizAlign="1"/><v:tabList/>ARM<v:newlineChar/><tspan
						x="0.19" dy="10.8" class="st8">Processor</tspan>/<tspan x="11.2" dy="10.8" class="st8">ASIC</tspan></text>		</g>
		<g id="shape36-19" v:mID="36" v:groupContext="shape" transform="translate(-194.125,182.141) rotate(-90)">
			<title>Sheet.36</title>
			<desc>Signals from SWD connector</desc>
			<v:textBlock v:margins="rect(0,0,0,0)"/>
			<v:textRect cx="60.1875" cy="200.5" width="120.38" height="11.25"/>
			<rect x="0" y="194.875" width="120.375" height="11.25" class="st5"/>
			<text x="2.43" y="203.2" class="st6" v:langID="2057"><v:paragraph v:horizAlign="1"/><v:tabList/>Signals from SWD connector</text>		</g>
		<g id="shape38-22" v:mID="38" v:groupContext="shape" transform="translate(277.353,-108.584)">
			<title>Sheet.38</title>
			<desc>SWDIO</desc>
			<v:textBlock v:margins="rect(0,0,0,0)"/>
			<v:textRect cx="16.9484" cy="201.25" width="33.9" height="9.75"/>
			<rect x="0" y="196.375" width="33.8967" height="9.75" class="st5"/>
			<text x="0" y="203.95" class="st6" v:langID="2057"><v:paragraph/><v:tabList/>SWDIO</text>		</g>
		<g id="shape39-25" v:mID="39" v:groupContext="shape" transform="translate(277.353,-97.7086)">
			<title>Sheet.39</title>
			<desc>SWCLK</desc>
			<v:textBlock v:margins="rect(0,0,0,0)"/>
			<v:textRect cx="16.9484" cy="201.25" width="33.9" height="9.75"/>
			<rect x="0" y="196.375" width="33.8967" height="9.75" class="st5"/>
			<text x="0" y="203.95" class="st6" v:langID="2057"><v:paragraph/><v:tabList/>SWCLK</text>		</g>
		<g id="shape40-28" v:mID="40" v:groupContext="shape" transform="translate(277.353,-86.2711)">
			<title>Sheet.40</title>
			<desc>SWO</desc>
			<v:textBlock v:margins="rect(0,0,0,0)"/>
			<v:textRect cx="12.4484" cy="201.25" width="24.9" height="9.75"/>
			<rect x="0" y="196.375" width="24.8967" height="9.75" class="st5"/>
			<text x="0" y="203.95" class="st6" v:langID="2057"><v:paragraph/><v:tabList/>SWO</text>		</g>
		<g id="shape8-31" v:mID="8" v:groupContext="shape" transform="translate(184.556,-48.2086)">
			<title>Sheet.8</title>
			<rect x="0" y="181.252" width="41.5936" height="24.8726" class="st9"/>
		</g>
		<g id="shape9-33" v:mID="9" v:groupContext="shape" transform="translate(193.154,-49.0857)">
			<title>Sheet.9</title>
			<desc>Reset circuit</desc>
			<v:textBlock v:margins="rect(0,0,0,0)"/>
			<v:textRect cx="12.2153" cy="195.152" width="24.44" height="21.9459"/>
			<rect x="0" y="184.179" width="24.4305" height="21.9459" class="st10"/>
			<text x="0" y="192.45" class="st6" v:langID="2057"><v:paragraph/><v:tabList/>Reset<v:newlineChar/><tspan x="0"
						dy="10.8" class="st8">circuit</tspan></text>		</g>
		<g id="shape260-37" v:mID="260" v:groupContext="shape" transform="translate(80.0256,-102.171)">
			<title>Sheet.260</title>
			<path d="M0 206.12 L195.26 206.12 L0 206.12 Z" class="st1"/>
			<path d="M0 206.12 L195.26 206.12" class="st2"/>
		</g>
		<g id="shape262-40" v:mID="262" v:groupContext="shape" transform="translate(462.53,114.963) rotate(90)">
			<title>Sheet.262</title>
			<path d="M0 187.56 L0 206.12 L0 187.56 Z" class="st1"/>
			<path d="M0 187.56 L0 206.12" class="st2"/>
		</g>
		<g id="shape264-43" v:mID="264" v:groupContext="shape" transform="translate(286.603,114.958) rotate(90)">
			<title>Sheet.264</title>
			<path d="M0 43.7 L0.01 206.12 L0 43.7 Z" class="st1"/>
			<path d="M0 43.7 L0.01 206.12" class="st2"/>
		</g>
		<g id="shape92-46" v:mID="92" v:groupContext="shape" transform="translate(80.8117,-147.209)">
			<title>Sheet.92</title>
			<path d="M0 206.12 L70.85 206.12 L0 206.12 Z" class="st1"/>
			<path d="M0 206.12 L70.85 206.12" class="st2"/>
		</g>
		<g id="shape93-49" v:mID="93" v:groupContext="shape" transform="translate(286.187,175.75) rotate(90)">
			<title>Sheet.93</title>
			<path d="M0 197.12 L0 206.12 L0 197.12 Z" class="st1"/>
			<path d="M0 197.12 L0 206.12" class="st2"/>
		</g>
		<g id="shape4-52" v:mID="4" v:groupContext="shape" transform="translate(30.8751,10.7399) rotate(-90)">
			<title>Sheet.4</title>
			<path d="M0 104.87 L0 206.12 L0 104.87 Z" class="st1"/>
			<path d="M0 104.87 L0 206.12" class="st2"/>
		</g>
		<g id="shape2-55" v:mID="2" v:groupContext="shape" transform="translate(148.478,-164.509)">
			<title>Sheet.2</title>
			<rect x="0" y="192.919" width="5.83414" height="13.2054" class="st4"/>
		</g>
		<g id="shape5-57" v:mID="5" v:groupContext="shape" transform="translate(151.403,-178.009)">
			<title>Sheet.5</title>
			<path d="M0 188.83 L0 206.12 L0 188.83 Z" class="st1"/>
			<path d="M0 188.83 L0 206.12" class="st2"/>
		</g>
		<g id="shape12-60" v:mID="12" v:groupContext="shape" transform="translate(151.349,-147.171)">
			<title>Sheet.12</title>
			<path d="M0 188.96 L0.01 206.12 L0 188.96 Z" class="st1"/>
			<path d="M0 188.96 L0.01 206.12" class="st2"/>
		</g>
		<g id="shape13-63" v:mID="13" v:groupContext="shape" transform="translate(-57.888,41.0529) rotate(-90)">
			<title>Sheet.13</title>
			<desc>0R</desc>
			<v:textBlock v:margins="rect(0,0,0,0)"/>
			<v:textRect cx="6.65144" cy="201.25" width="13.31" height="9.75"/>
			<rect x="0" y="196.375" width="13.3029" height="9.75" class="st5"/>
			<text x="0" y="203.95" class="st6" v:langID="2057"><v:paragraph/><v:tabList/>0R</text>		</g>
		<g id="shape45-66" v:mID="45" v:groupContext="shape" transform="translate(174.563,-178.013)">
			<title>Sheet.45</title>
			<path d="M0 188.83 L0 206.12 L0 188.83 Z" class="st1"/>
			<path d="M0 188.83 L0 206.12" class="st2"/>
		</g>
		<g id="shape46-69" v:mID="46" v:groupContext="shape" transform="translate(171.745,-164.515)">
			<title>Sheet.46</title>
			<rect x="0" y="192.919" width="5.83414" height="13.2054" class="st4"/>
		</g>
		<g id="shape47-71" v:mID="47" v:groupContext="shape" transform="translate(174.558,-113.459)">
			<title>Sheet.47</title>
			<path d="M0 154.77 L0.01 206.12 L0 154.77 Z" class="st1"/>
			<path d="M0 154.77 L0.01 206.12" class="st2"/>
		</g>
		<g id="shape48-74" v:mID="48" v:groupContext="shape" transform="translate(-34.8966,43.3011) rotate(-90)">
			<title>Sheet.48</title>
			<desc>10K</desc>
			<v:textBlock v:margins="rect(0,0,0,0)"/>
			<v:textRect cx="8.4375" cy="201.25" width="16.88" height="9.75"/>
			<rect x="0" y="196.375" width="16.875" height="9.75" class="st5"/>
			<text x="0" y="203.95" class="st6" v:langID="2057"><v:paragraph/><v:tabList/>10K</text>		</g>
		<g id="shape51-77" v:mID="51" v:groupContext="shape" transform="translate(194.866,-164.509)">
			<title>Sheet.51</title>
			<rect x="0" y="192.919" width="5.83414" height="13.2054" class="st4"/>
		</g>
		<g id="shape53-79" v:mID="53" v:groupContext="shape" transform="translate(197.79,-178.009)">
			<title>Sheet.53</title>
			<path d="M0 188.83 L0 206.12 L0 188.83 Z" class="st1"/>
			<path d="M0 188.83 L0 206.12" class="st2"/>
		</g>
		<g id="shape62-82" v:mID="62" v:groupContext="shape" transform="translate(197.737,-103.334)">
			<title>Sheet.62</title>
			<path d="M0 144.28 L0.01 206.12 L0 144.28 Z" class="st1"/>
			<path d="M0 144.28 L0.01 206.12" class="st2"/>
		</g>
		<g id="shape65-85" v:mID="65" v:groupContext="shape" transform="translate(-11.6466,43.3029) rotate(-90)">
			<title>Sheet.65</title>
			<desc>10K</desc>
			<v:textBlock v:margins="rect(0,0,0,0)"/>
			<v:textRect cx="8.4375" cy="201.25" width="16.88" height="9.75"/>
			<rect x="0" y="196.375" width="16.875" height="9.75" class="st5"/>
			<text x="0" y="203.95" class="st6" v:langID="2057"><v:paragraph/><v:tabList/>10K</text>		</g>
		<g id="shape69-88" v:mID="69" v:groupContext="shape" transform="translate(221.251,-178.01)">
			<title>Sheet.69</title>
			<path d="M0 188.83 L0 206.12 L0 188.83 Z" class="st1"/>
			<path d="M0 188.83 L0 206.12" class="st2"/>
		</g>
		<g id="shape70-91" v:mID="70" v:groupContext="shape" transform="translate(218.432,-164.512)">
			<title>Sheet.70</title>
			<rect x="0" y="192.919" width="5.83414" height="13.2054" class="st4"/>
		</g>
		<g id="shape72-93" v:mID="72" v:groupContext="shape" transform="translate(221.246,-92.0836)">
			<title>Sheet.72</title>
			<path d="M0 133.44 L0.01 206.12 L0 133.44 Z" class="st1"/>
			<path d="M0 133.44 L0.01 206.12" class="st2"/>
		</g>
		<g id="shape73-96" v:mID="73" v:groupContext="shape" transform="translate(11.6034,43.3038) rotate(-90)">
			<title>Sheet.73</title>
			<desc>10K</desc>
			<v:textBlock v:margins="rect(0,0,0,0)"/>
			<v:textRect cx="8.4375" cy="201.25" width="16.88" height="9.75"/>
			<rect x="0" y="196.375" width="16.875" height="9.75" class="st5"/>
			<text x="0" y="203.95" class="st6" v:langID="2057"><v:paragraph/><v:tabList/>10K</text>		</g>
		<g id="shape91-99" v:mID="91" v:groupContext="shape" transform="translate(176.25,-195.625)">
			<title>Sheet.91</title>
			<desc>VDD</desc>
			<v:textBlock v:margins="rect(0,0,0,0)"/>
			<v:textRect cx="10.125" cy="201.25" width="20.25" height="9.75"/>
			<rect x="0" y="196.375" width="20.25" height="9.75" class="st5"/>
			<text x="0" y="203.95" class="st6" v:langID="2057"><v:paragraph/><v:tabList/>VDD</text>		</g>
		<g id="shape11-102" v:mID="11" v:groupContext="shape" transform="translate(174.094,-112.99)">
			<title>Sheet.11</title>
			<path d="M0 205.66 C-0 205.4 0.21 205.19 0.47 205.19 C0.73 205.19 0.94 205.4 0.94 205.66 C0.94 205.92 0.73 206.12 0.47
						 206.12 C0.21 206.12 0 205.92 0 205.66 Z" class="st11"/>
		</g>
		<g id="shape20-104" v:mID="20" v:groupContext="shape" transform="translate(197.271,-101.797)">
			<title>Sheet.20</title>
			<path d="M0 205.66 C-0 205.4 0.21 205.19 0.47 205.19 C0.73 205.19 0.94 205.4 0.94 205.66 C0.94 205.92 0.73 206.12 0.47
						 206.12 C0.21 206.12 0 205.92 0 205.66 Z" class="st11"/>
		</g>
		<g id="shape21-106" v:mID="21" v:groupContext="shape" transform="translate(220.786,-90.6901)">
			<title>Sheet.21</title>
			<path d="M0 205.66 C-0 205.4 0.21 205.19 0.47 205.19 C0.73 205.19 0.94 205.4 0.94 205.66 C0.94 205.92 0.73 206.12 0.47
						 206.12 C0.21 206.12 0 205.92 0 205.66 Z" class="st11"/>
		</g>
		<g id="shape322-108" v:mID="322" v:groupContext="shape" transform="translate(16.3485,-9.92102)">
			<title>Sheet.322</title>
			<rect x="0" y="57.6249" width="16.3618" height="148.5" class="st3"/>
		</g>
		<g id="shape323-110" v:mID="323" v:groupContext="shape" transform="translate(17.5955,-89.3109)">
			<title>Sheet.323</title>
			<path d="M0 206.12 L0.12 199.04 L0.23 192.28 L0.47 185.73 L0.7 179.4 L1.05 173.38 L1.4 170.49 L1.87 165.12 L2.1 162.54
						 L2.45 159.97 L2.69 157.61 L3.04 155.35 L3.39 153.21 L3.62 151.17 L4.09 149.23 L4.79 145.8 L5.14 144.3 L5.72
						 142.79 L6.08 141.61 L6.54 140.54 L6.89 139.57 L7.36 138.71 L7.83 138.07 L8.3 137.64 L8.76 137.43 L9.35 137.21
						 L0 206.12 Z" class="st1"/>
			<path d="M0 206.12 L0.12 199.04 L0.23 192.28 L0.47 185.73 L0.7 179.4 L1.05 173.38 L1.4 170.49 L1.87 165.12 L2.1 162.54
						 L2.45 159.97 L2.69 157.61 L3.04 155.35 L3.39 153.21 L3.62 151.17 L4.09 149.23 L4.79 145.8 L5.14 144.3 L5.72
						 142.79 L6.08 141.61 L6.54 140.54 L6.89 139.57 L7.36 138.71 L7.83 138.07 L8.3 137.64 L8.76 137.43 L9.35 137.21"
					class="st12"/>
		</g>
		<g id="shape324-113" v:mID="324" v:groupContext="shape" transform="translate(17.5955,-16.2133)">
			<title>Sheet.324</title>
			<path d="M9.35 206.12 L8.76 206.12 L8.3 205.8 L7.83 205.37 L7.36 204.73 L6.89 203.98 L6.54 203.01 L6.08 201.94 L5.72
						 200.76 L5.14 199.36 L4.79 197.86 L4.44 196.14 L4.09 194.32 L3.62 192.49 L3.39 190.45 L2.69 185.94 L2.45
						 183.58 L2.1 181.01 L1.87 178.43 L1.64 175.75 L1.4 172.96 L1.05 170.06 L0.7 164.05 L0.47 157.72 L0.23 151.17
						 L0 137.32 L9.35 206.12 Z" class="st1"/>
			<path d="M9.35 206.12 L8.76 206.12 L8.3 205.8 L7.83 205.37 L7.36 204.73 L6.89 203.98 L6.54 203.01 L6.08 201.94 L5.72
						 200.76 L5.14 199.36 L4.79 197.86 L4.44 196.14 L4.09 194.32 L3.62 192.49 L3.39 190.45 L2.69 185.94 L2.45
						 183.58 L2.1 181.01 L1.87 178.43 L1.64 175.75 L1.4 172.96 L1.05 170.06 L0.7 164.05 L0.47 157.72 L0.23 151.17
						 L0 137.32" class="st12"/>
		</g>
		<g id="shape325-116" v:mID="325" v:groupContext="shape" transform="translate(15.375,-85.0179)">
			<title>Sheet.325</title>
			<path d="M2.22 201.83 L0 203.98 L2.22 206.12 L2.22 201.83 Z" class="st1"/>
			<path d="M2.22 201.83 L0 203.98 L2.22 206.12" class="st12"/>
		</g>
		<g id="shape89-119" v:mID="89" v:groupContext="shape" transform="translate(88.9747,-17.014)">
			<title>Sheet.89</title>
			<path d="M0 192.76 L0.01 206.12 L0 192.76 Z" class="st1"/>
			<path d="M0 192.76 L0.01 206.12" class="st2"/>
		</g>
		<g id="shape165-122" v:mID="165" v:groupContext="shape" transform="translate(79.9995,-1.08746)">
			<title>Sheet.165</title>
			<desc>Gnd</desc>
			<v:textBlock v:margins="rect(0,0,0,0)"/>
			<v:textRect cx="9.00055" cy="201.812" width="18.01" height="8.625"/>
			<rect x="0" y="197.5" width="18.0011" height="8.625" class="st5"/>
			<text x="0" y="204.51" class="st6" v:langID="2057"><v:paragraph/><v:tabList/>Gnd</text>		</g>
		<g id="shape166-125" v:mID="166" v:groupContext="shape" transform="translate(79.3536,-16.5797)">
			<title>Sheet.166</title>
			<path d="M0 206.12 L19.42 206.12 L0 206.12 Z" class="st1"/>
			<path d="M0 206.12 L19.42 206.12" class="st2"/>
		</g>
		<g id="shape167-128" v:mID="167" v:groupContext="shape" transform="translate(81.7817,-14.6101)">
			<title>Sheet.167</title>
			<path d="M0 206.12 L14.56 206.12 L0 206.12 Z" class="st1"/>
			<path d="M0 206.12 L14.56 206.12" class="st2"/>
		</g>
		<g id="shape168-131" v:mID="168" v:groupContext="shape" transform="translate(85.5431,-12.5952)">
			<title>Sheet.168</title>
			<path d="M0 206.12 L7.04 206.12 L0 206.12 Z" class="st1"/>
			<path d="M0 206.12 L7.04 206.12" class="st2"/>
		</g>
		<g id="shape58-134" v:mID="58" v:groupContext="shape" transform="translate(40.903,-147.196) scale(-1,1)">
			<title>Sheet.58</title>
			<path d="M6.01 206.12 L0 200.87 L6.01 206.12 Z" class="st1"/>
			<path d="M6.01 206.12 L0 200.87" class="st13"/>
		</g>
		<g id="shape67-137" v:mID="67" v:groupContext="shape" transform="translate(80.3786,-152.478) scale(-1,1)">
			<title>Sheet.67</title>
			<path d="M39.46 206.12 L0 206.12 L39.46 206.12 Z" class="st1"/>
			<path d="M39.46 206.12 L0 206.12" class="st13"/>
		</g>
		<g id="shape74-140" v:mID="74" v:groupContext="shape" transform="translate(80.3786,-141.974) scale(-1,1)">
			<title>Sheet.74</title>
			<path d="M0 206.12 L39.46 206.12 L0 206.12 Z" class="st1"/>
			<path d="M0 206.12 L39.46 206.12" class="st13"/>
		</g>
		<g id="shape75-143" v:mID="75" v:groupContext="shape" transform="translate(80.3786,-141.974) scale(-1,1)">
			<title>Sheet.75</title>
			<path d="M0 195.62 L0 206.12 L0 195.62 Z" class="st1"/>
			<path d="M0 195.62 L0 206.12" class="st13"/>
		</g>
		<g id="shape76-146" v:mID="76" v:groupContext="shape" transform="translate(40.971,-141.997) scale(-1,1)">
			<title>Sheet.76</title>
			<path d="M0 206.12 L6.07 200.93 L0 206.12 Z" class="st1"/>
			<path d="M0 206.12 L6.07 200.93" class="st13"/>
		</g>
		<g id="shape77-149" v:mID="77" v:groupContext="shape" transform="translate(44.2231,-141.786)">
			<title>Sheet.77</title>
			<desc>VTREF</desc>
			<v:textBlock v:margins="rect(0,0,0,0)"/>
			<v:textRect cx="15.1875" cy="201.25" width="30.38" height="9.75"/>
			<rect x="0" y="196.375" width="30.375" height="9.75" class="st14"/>
			<text x="0" y="203.95" class="st6" v:langID="2057"><v:paragraph/><v:tabList/>VTREF</text>		</g>
		<g id="shape107-152" v:mID="107" v:groupContext="shape" transform="translate(41.8125,-107.796)">
			<title>Sheet.107</title>
			<desc>SWDIO</desc>
			<v:textBlock v:margins="rect(0,0,0,0)"/>
			<v:textRect cx="15.75" cy="201.25" width="31.5" height="9.75"/>
			<rect x="0" y="196.375" width="31.5" height="9.75" class="st14"/>
			<text x="0" y="203.95" class="st6" v:langID="2057"><v:paragraph/><v:tabList/>SWDIO</text>		</g>
		<g id="shape112-155" v:mID="112" v:groupContext="shape" transform="translate(41.8125,-96.7335)">
			<title>Sheet.112</title>
			<desc>SWCLK</desc>
			<v:textBlock v:margins="rect(0,0,0,0)"/>
			<v:textRect cx="16.875" cy="201.25" width="33.75" height="9.75"/>
			<rect x="0" y="196.375" width="33.75" height="9.75" class="st14"/>
			<text x="0" y="203.95" class="st6" v:langID="2057"><v:paragraph/><v:tabList/>SWCLK</text>		</g>
		<g id="shape139-158" v:mID="139" v:groupContext="shape" transform="translate(80.3786,-96.4113) scale(-1,1)">
			<title>Sheet.139</title>
			<path d="M0 206.12 L39.46 206.12 L0 206.12 Z" class="st1"/>
			<path d="M0 206.12 L39.46 206.12" class="st13"/>
		</g>
		<g id="shape140-161" v:mID="140" v:groupContext="shape" transform="translate(40.903,-91.1293) scale(-1,1)">
			<title>Sheet.140</title>
			<path d="M6.01 206.12 L0 200.87 L6.01 206.12 Z" class="st1"/>
			<path d="M6.01 206.12 L0 200.87" class="st13"/>
		</g>
		<g id="shape141-164" v:mID="141" v:groupContext="shape" transform="translate(80.3786,-85.907) scale(-1,1)">
			<title>Sheet.141</title>
			<path d="M0 206.12 L39.46 206.12 L0 206.12 Z" class="st1"/>
			<path d="M0 206.12 L39.46 206.12" class="st13"/>
		</g>
		<g id="shape142-167" v:mID="142" v:groupContext="shape" transform="translate(80.3786,-85.907) scale(-1,1)">
			<title>Sheet.142</title>
			<path d="M0 195.62 L0 206.12 L0 195.62 Z" class="st1"/>
			<path d="M0 195.62 L0 206.12" class="st13"/>
		</g>
		<g id="shape149-170" v:mID="149" v:groupContext="shape" transform="translate(40.971,-85.9301) scale(-1,1)">
			<title>Sheet.149</title>
			<path d="M0 206.12 L6.07 200.93 L0 206.12 Z" class="st1"/>
			<path d="M0 206.12 L6.07 200.93" class="st13"/>
		</g>
		<g id="shape150-173" v:mID="150" v:groupContext="shape" transform="translate(47.2769,-85.8585)">
			<title>Sheet.150</title>
			<desc>SWO</desc>
			<v:textBlock v:margins="rect(0,0,0,0)"/>
			<v:textRect cx="11.6116" cy="201.25" width="23.23" height="9.75"/>
			<rect x="0" y="196.375" width="23.2231" height="9.75" class="st14"/>
			<text x="0" y="203.95" class="st6" v:langID="2057"><v:paragraph/><v:tabList/>SWO</text>		</g>
		<g id="shape125-176" v:mID="125" v:groupContext="shape" transform="translate(74.4525,-60.889)">
			<title>Sheet.125</title>
			<path d="M6.01 206.12 L0 200.87 L6.01 206.12 Z" class="st1"/>
			<path d="M6.01 206.12 L0 200.87" class="st13"/>
		</g>
		<g id="shape126-179" v:mID="126" v:groupContext="shape" transform="translate(35.6197,-66.171)">
			<title>Sheet.126</title>
			<path d="M38.82 206.12 L0 206.12 L38.82 206.12 Z" class="st1"/>
			<path d="M38.82 206.12 L0 206.12" class="st13"/>
		</g>
		<g id="shape127-182" v:mID="127" v:groupContext="shape" transform="translate(35.6197,-55.6668)">
			<title>Sheet.127</title>
			<path d="M0 206.12 L38.82 206.12 L0 206.12 Z" class="st1"/>
			<path d="M0 206.12 L38.82 206.12" class="st13"/>
		</g>
		<g id="shape128-185" v:mID="128" v:groupContext="shape" transform="translate(35.0572,-55.6668)">
			<title>Sheet.128</title>
			<path d="M0 195.62 L0 206.12 L0 195.62 Z" class="st1"/>
			<path d="M0 195.62 L0 206.12" class="st13"/>
		</g>
		<g id="shape129-188" v:mID="129" v:groupContext="shape" transform="translate(74.3844,-55.6898)">
			<title>Sheet.129</title>
			<path d="M0 206.12 L6.07 200.93 L0 206.12 Z" class="st1"/>
			<path d="M0 206.12 L6.07 200.93" class="st13"/>
		</g>
		<g id="shape130-191" v:mID="130" v:groupContext="shape" transform="translate(43.6606,-55.6689)">
			<title>Sheet.130</title>
			<desc>nSRST</desc>
			<v:textBlock v:margins="rect(0,0,0,0)"/>
			<v:textRect cx="14.625" cy="201.25" width="29.25" height="9.75"/>
			<rect x="0" y="196.375" width="29.25" height="9.75" class="st14"/>
			<text x="0" y="203.95" class="st6" v:langID="2057"><v:paragraph/><v:tabList/>nSRST</text>		</g>
		<g id="shape269-194" v:mID="269" v:groupContext="shape" transform="translate(285.625,92.7878) rotate(90)">
			<title>Sheet.269</title>
			<path d="M0 42.72 L0.01 206.12 L0 42.72 Z" class="st1"/>
			<path d="M0 42.72 L0.01 206.12" class="st2"/>
		</g>
		<g id="shape1-197" v:mID="1" v:groupContext="shape" transform="translate(73.8721,-118.484) scale(-1,1)">
			<title>Sheet.1</title>
			<path d="M0 206.12 L33.03 206.12 L0 206.12 Z" class="st1"/>
			<path d="M0 206.12 L33.03 206.12" class="st13"/>
		</g>
		<g id="shape6-200" v:mID="6" v:groupContext="shape" transform="translate(40.8303,-113.202) scale(-1,1)">
			<title>Sheet.6</title>
			<path d="M6.01 206.12 L0 200.87 L6.01 206.12 Z" class="st1"/>
			<path d="M6.01 206.12 L0 200.87" class="st13"/>
		</g>
		<g id="shape7-203" v:mID="7" v:groupContext="shape" transform="translate(73.8721,-107.979) scale(-1,1)">
			<title>Sheet.7</title>
			<path d="M0 206.12 L33.03 206.12 L0 206.12 Z" class="st1"/>
			<path d="M0 206.12 L33.03 206.12" class="st13"/>
		</g>
		<g id="shape10-206" v:mID="10" v:groupContext="shape" transform="translate(40.8983,-108.002) scale(-1,1)">
			<title>Sheet.10</title>
			<path d="M0 206.12 L6.07 200.93 L0 206.12 Z" class="st1"/>
			<path d="M0 206.12 L6.07 200.93" class="st13"/>
		</g>
		<g id="shape14-209" v:mID="14" v:groupContext="shape" transform="translate(73.9401,-113.217)">
			<title>Sheet.14</title>
			<path d="M6.01 206.12 L0 200.87 L6.01 206.12 Z" class="st1"/>
			<path d="M6.01 206.12 L0 200.87" class="st13"/>
		</g>
		<g id="shape15-212" v:mID="15" v:groupContext="shape" transform="translate(73.8721,-108.018)">
			<title>Sheet.15</title>
			<path d="M0 206.12 L6.07 200.93 L0 206.12 Z" class="st1"/>
			<path d="M0 206.12 L6.07 200.93" class="st13"/>
		</g>
		<g id="shape18-215" v:mID="18" v:groupContext="shape" transform="translate(73.8721,-107.423) scale(-1,1)">
			<title>Sheet.18</title>
			<path d="M0 206.12 L33.03 206.12 L0 206.12 Z" class="st1"/>
			<path d="M0 206.12 L33.03 206.12" class="st13"/>
		</g>
		<g id="shape19-218" v:mID="19" v:groupContext="shape" transform="translate(40.8303,-102.141) scale(-1,1)">
			<title>Sheet.19</title>
			<path d="M6.01 206.12 L0 200.87 L6.01 206.12 Z" class="st1"/>
			<path d="M6.01 206.12 L0 200.87" class="st13"/>
		</g>
		<g id="shape22-221" v:mID="22" v:groupContext="shape" transform="translate(73.8721,-96.9189) scale(-1,1)">
			<title>Sheet.22</title>
			<path d="M0 206.12 L33.03 206.12 L0 206.12 Z" class="st1"/>
			<path d="M0 206.12 L33.03 206.12" class="st13"/>
		</g>
		<g id="shape23-224" v:mID="23" v:groupContext="shape" transform="translate(40.8983,-96.9419) scale(-1,1)">
			<title>Sheet.23</title>
			<path d="M0 206.12 L6.07 200.93 L0 206.12 Z" class="st1"/>
			<path d="M0 206.12 L6.07 200.93" class="st13"/>
		</g>
		<g id="shape24-227" v:mID="24" v:groupContext="shape" transform="translate(73.9401,-102.157)">
			<title>Sheet.24</title>
			<path d="M6.01 206.12 L0 200.87 L6.01 206.12 Z" class="st1"/>
			<path d="M6.01 206.12 L0 200.87" class="st13"/>
		</g>
		<g id="shape25-230" v:mID="25" v:groupContext="shape" transform="translate(73.8721,-96.9573)">
			<title>Sheet.25</title>
			<path d="M0 206.12 L6.07 200.93 L0 206.12 Z" class="st1"/>
			<path d="M0 206.12 L6.07 200.93" class="st13"/>
		</g>
		<g id="shape204-233" v:mID="204" v:groupContext="shape" transform="translate(73.8723,-35.6296) scale(-1,1)">
			<title>Sheet.204</title>
			<path d="M0 206.12 L33.03 206.12 L0 206.12 Z" class="st1"/>
			<path d="M0 206.12 L33.03 206.12" class="st13"/>
		</g>
		<g id="shape215-236" v:mID="215" v:groupContext="shape" transform="translate(40.8305,-30.3476) scale(-1,1)">
			<title>Sheet.215</title>
			<path d="M6.01 206.12 L0 200.87 L6.01 206.12 Z" class="st1"/>
			<path d="M6.01 206.12 L0 200.87" class="st13"/>
		</g>
		<g id="shape223-239" v:mID="223" v:groupContext="shape" transform="translate(73.8723,-25.1253) scale(-1,1)">
			<title>Sheet.223</title>
			<path d="M0 206.12 L33.03 206.12 L0 206.12 Z" class="st1"/>
			<path d="M0 206.12 L33.03 206.12" class="st13"/>
		</g>
		<g id="shape224-242" v:mID="224" v:groupContext="shape" transform="translate(40.8986,-25.1484) scale(-1,1)">
			<title>Sheet.224</title>
			<path d="M0 206.12 L6.07 200.93 L0 206.12 Z" class="st1"/>
			<path d="M0 206.12 L6.07 200.93" class="st13"/>
		</g>
		<g id="shape225-245" v:mID="225" v:groupContext="shape" transform="translate(73.9404,-30.363)">
			<title>Sheet.225</title>
			<path d="M6.01 206.12 L0 200.87 L6.01 206.12 Z" class="st1"/>
			<path d="M6.01 206.12 L0 200.87" class="st13"/>
		</g>
		<g id="shape226-248" v:mID="226" v:groupContext="shape" transform="translate(73.8723,-25.1638)">
			<title>Sheet.226</title>
			<path d="M0 206.12 L6.07 200.93 L0 206.12 Z" class="st1"/>
			<path d="M0 206.12 L6.07 200.93" class="st13"/>
		</g>
		<g id="shape227-251" v:mID="227" v:groupContext="shape" transform="translate(48.1606,-25.8892)">
			<title>Sheet.227</title>
			<desc>GND</desc>
			<v:textBlock v:margins="rect(0,0,0,0)"/>
			<v:textRect cx="10.125" cy="202.187" width="20.25" height="7.875"/>
			<rect x="0" y="198.25" width="20.25" height="7.875" class="st14"/>
			<text x="0" y="204.89" class="st6" v:langID="2057"><v:paragraph/><v:tabList/>GND</text>		</g>
		<g id="shape263-254" v:mID="263" v:groupContext="shape" transform="translate(449.031,112.145) rotate(90)">
			<title>Sheet.263</title>
			<rect x="0" y="192.919" width="5.83414" height="13.2054" class="st4"/>
		</g>
		<g id="shape265-256" v:mID="265" v:groupContext="shape" transform="translate(257.103,-90.4132)">
			<title>Sheet.265</title>
			<desc>22R</desc>
			<v:textBlock v:margins="rect(0,0,0,0)"/>
			<v:textRect cx="8.4375" cy="201.25" width="16.88" height="9.75"/>
			<rect x="0" y="196.375" width="16.875" height="9.75" class="st5"/>
			<text x="0" y="203.95" class="st6" v:langID="2057"><v:paragraph/><v:tabList/>22R</text>		</g>
		<g id="shape29-259" v:mID="29" v:groupContext="shape" transform="translate(448.962,90.0685) rotate(90)">
			<title>Sheet.29</title>
			<rect x="0" y="192.919" width="5.83414" height="13.2054" class="st4"/>
		</g>
		<g id="shape30-261" v:mID="30" v:groupContext="shape" transform="translate(257.034,-112.489)">
			<title>Sheet.30</title>
			<desc>22R</desc>
			<v:textBlock v:margins="rect(0,0,0,0)"/>
			<v:textRect cx="8.4375" cy="201.25" width="16.88" height="9.75"/>
			<rect x="0" y="196.375" width="16.875" height="9.75" class="st5"/>
			<text x="0" y="203.95" class="st6" v:langID="2057"><v:paragraph/><v:tabList/>22R</text>		</g>
		<g id="shape27-264" v:mID="27" v:groupContext="shape" transform="translate(462.381,92.7957) rotate(90)">
			<title>Sheet.27</title>
			<path d="M0 187.56 L0 206.12 L0 187.56 Z" class="st1"/>
			<path d="M0 187.56 L0 206.12" class="st2"/>
		</g>
	</g>
</svg>
