G04 #@! TF.GenerationSoftware,KiCad,Pcbnew,5.99.0-unknown-df3fabf~86~ubuntu18.04.1*
G04 #@! TF.CreationDate,2019-10-25T18:59:48-04:00*
G04 #@! TF.ProjectId,current_calibration_board,63757272-656e-4745-9f63-616c69627261,rev?*
G04 #@! TF.SameCoordinates,Original*
G04 #@! TF.FileFunction,Legend,Bot*
G04 #@! TF.FilePolarity,Positive*
%FSLAX46Y46*%
G04 Gerber Fmt 4.6, Leading zero omitted, Abs format (unit mm)*
G04 Created by KiCad (PCBNEW 5.99.0-unknown-df3fabf~86~ubuntu18.04.1) date 2019-10-25 18:59:48*
%MOMM*%
%LPD*%
G04 APERTURE LIST*
%ADD10C,0.010000*%
G04 APERTURE END LIST*
G36*
X144476059Y-83043011D02*
G01*
X144476362Y-83190216D01*
X144476548Y-83354349D01*
X144476642Y-83536352D01*
X144476671Y-83737165D01*
X144476661Y-83957732D01*
X144476636Y-84198992D01*
X144476622Y-84461889D01*
X144476622Y-84504040D01*
X144476646Y-84764668D01*
X144476685Y-85003796D01*
X144476708Y-85222360D01*
X144476687Y-85421295D01*
X144476593Y-85601535D01*
X144476395Y-85764015D01*
X144476063Y-85909670D01*
X144475569Y-86039434D01*
X144474883Y-86154243D01*
X144473976Y-86255030D01*
X144472817Y-86342730D01*
X144471378Y-86418279D01*
X144469629Y-86482611D01*
X144467540Y-86536661D01*
X144465083Y-86581363D01*
X144462227Y-86617652D01*
X144458943Y-86646463D01*
X144455202Y-86668731D01*
X144450974Y-86685390D01*
X144446229Y-86697375D01*
X144440939Y-86705621D01*
X144435073Y-86711062D01*
X144428602Y-86714634D01*
X144421497Y-86717270D01*
X144413728Y-86719906D01*
X144405266Y-86723477D01*
X144400908Y-86725145D01*
X144392395Y-86727111D01*
X144379694Y-86728911D01*
X144361885Y-86730555D01*
X144338049Y-86732047D01*
X144307266Y-86733397D01*
X144268617Y-86734611D01*
X144221182Y-86735697D01*
X144164043Y-86736661D01*
X144096279Y-86737511D01*
X144016971Y-86738253D01*
X143925199Y-86738897D01*
X143820044Y-86739447D01*
X143700587Y-86739913D01*
X143565908Y-86740300D01*
X143415088Y-86740616D01*
X143247206Y-86740869D01*
X143061345Y-86741066D01*
X142856583Y-86741213D01*
X142632002Y-86741318D01*
X142386682Y-86741389D01*
X142119704Y-86741432D01*
X142081321Y-86741437D01*
X141815922Y-86741480D01*
X141572050Y-86741525D01*
X141348783Y-86741548D01*
X141145196Y-86741524D01*
X140960367Y-86741430D01*
X140793373Y-86741243D01*
X140643290Y-86740939D01*
X140509196Y-86740494D01*
X140390166Y-86739885D01*
X140285279Y-86739089D01*
X140193610Y-86738080D01*
X140114237Y-86736837D01*
X140046237Y-86735335D01*
X139988686Y-86733551D01*
X139940662Y-86731461D01*
X139901240Y-86729042D01*
X139869499Y-86726270D01*
X139844514Y-86723121D01*
X139825364Y-86719572D01*
X139811123Y-86715598D01*
X139800871Y-86711178D01*
X139793682Y-86706286D01*
X139788635Y-86700900D01*
X139784805Y-86694996D01*
X139781271Y-86688549D01*
X139777108Y-86681537D01*
X139776025Y-86679687D01*
X139773813Y-86674180D01*
X139771786Y-86665868D01*
X139769938Y-86653809D01*
X139768261Y-86637063D01*
X139766745Y-86614687D01*
X139765383Y-86585740D01*
X139764167Y-86549280D01*
X139763089Y-86504367D01*
X139762140Y-86450057D01*
X139761312Y-86385410D01*
X139760597Y-86309484D01*
X139759987Y-86221338D01*
X139759943Y-86212493D01*
X140051378Y-86212493D01*
X140055260Y-86213765D01*
X140078520Y-86215791D01*
X140120874Y-86217626D01*
X140180132Y-86219227D01*
X140254107Y-86220549D01*
X140340610Y-86221548D01*
X140437452Y-86222180D01*
X140542445Y-86222400D01*
X141240651Y-86222400D01*
X142395090Y-86222400D01*
X142394456Y-86146200D01*
X142395574Y-86104160D01*
X142401304Y-86068334D01*
X142413890Y-86030772D01*
X142435568Y-85982577D01*
X142438789Y-85975897D01*
X142464188Y-85926359D01*
X142490996Y-85878369D01*
X142513917Y-85841466D01*
X142518485Y-85834834D01*
X142540516Y-85803593D01*
X142572693Y-85758654D01*
X142613457Y-85702147D01*
X142661245Y-85636204D01*
X142714498Y-85562957D01*
X142771655Y-85484536D01*
X142831155Y-85403072D01*
X142891437Y-85320698D01*
X142950940Y-85239544D01*
X143008105Y-85161742D01*
X143061370Y-85089423D01*
X143109174Y-85024718D01*
X143149957Y-84969759D01*
X143182158Y-84926676D01*
X143204216Y-84897602D01*
X143214571Y-84884667D01*
X143219044Y-84880351D01*
X143223236Y-84878312D01*
X143226643Y-84880926D01*
X143229325Y-84889986D01*
X143231341Y-84907285D01*
X143232748Y-84934614D01*
X143233605Y-84973765D01*
X143233970Y-85026533D01*
X143233903Y-85094707D01*
X143233460Y-85180082D01*
X143232702Y-85284449D01*
X143231685Y-85409600D01*
X143231308Y-85454300D01*
X143230169Y-85575395D01*
X143228972Y-85676688D01*
X143227636Y-85760262D01*
X143226077Y-85828204D01*
X143224215Y-85882599D01*
X143221966Y-85925532D01*
X143219248Y-85959089D01*
X143215979Y-85985355D01*
X143212078Y-86006416D01*
X143207461Y-86024357D01*
X143199192Y-86050770D01*
X143175583Y-86112772D01*
X143149685Y-86165573D01*
X143124535Y-86202645D01*
X143123339Y-86204075D01*
X143121168Y-86208424D01*
X143123328Y-86212026D01*
X143131644Y-86214951D01*
X143147940Y-86217269D01*
X143174041Y-86219051D01*
X143211771Y-86220367D01*
X143262956Y-86221286D01*
X143329420Y-86221878D01*
X143412987Y-86222215D01*
X143515483Y-86222365D01*
X143638732Y-86222400D01*
X144170296Y-86222400D01*
X144131523Y-86164783D01*
X144125432Y-86155893D01*
X144114976Y-86141069D01*
X144105579Y-86127422D01*
X144097183Y-86113765D01*
X144089733Y-86098911D01*
X144083173Y-86081670D01*
X144077446Y-86060855D01*
X144072495Y-86035280D01*
X144068266Y-86003755D01*
X144064701Y-85965093D01*
X144061744Y-85918107D01*
X144059340Y-85861608D01*
X144057431Y-85794409D01*
X144055962Y-85715322D01*
X144054876Y-85623160D01*
X144054118Y-85516734D01*
X144053630Y-85394857D01*
X144053358Y-85256341D01*
X144053243Y-85099999D01*
X144053231Y-84924642D01*
X144053265Y-84729082D01*
X144053289Y-84512133D01*
X144053280Y-84389513D01*
X144053243Y-84184447D01*
X144053227Y-84000116D01*
X144053288Y-83835334D01*
X144053484Y-83688916D01*
X144053870Y-83559674D01*
X144054505Y-83446422D01*
X144055444Y-83347975D01*
X144056745Y-83263144D01*
X144058464Y-83190744D01*
X144060659Y-83129589D01*
X144063385Y-83078492D01*
X144066701Y-83036267D01*
X144070662Y-83001727D01*
X144075325Y-82973686D01*
X144080747Y-82950958D01*
X144086986Y-82932356D01*
X144094097Y-82916693D01*
X144102138Y-82902784D01*
X144111166Y-82889441D01*
X144121236Y-82875479D01*
X144132407Y-82859711D01*
X144172197Y-82801867D01*
X143112314Y-82801867D01*
X143150311Y-82864966D01*
X143164993Y-82890005D01*
X143179531Y-82917586D01*
X143191627Y-82945700D01*
X143201532Y-82976551D01*
X143209494Y-83012344D01*
X143215761Y-83055283D01*
X143220582Y-83107574D01*
X143224206Y-83171419D01*
X143226881Y-83249025D01*
X143228857Y-83342594D01*
X143230382Y-83454333D01*
X143231704Y-83586445D01*
X143232613Y-83706434D01*
X143233020Y-83823063D01*
X143232767Y-83918531D01*
X143231857Y-83992556D01*
X143230293Y-84044855D01*
X143228079Y-84075149D01*
X143225220Y-84083156D01*
X143222161Y-84079858D01*
X143204006Y-84058408D01*
X143174275Y-84021889D01*
X143134639Y-83972442D01*
X143086771Y-83912207D01*
X143032343Y-83843327D01*
X142973027Y-83767943D01*
X142910495Y-83688196D01*
X142846421Y-83606228D01*
X142782475Y-83524180D01*
X142720331Y-83444194D01*
X142661661Y-83368411D01*
X142608137Y-83298973D01*
X142561430Y-83238021D01*
X142523214Y-83187696D01*
X142495161Y-83150140D01*
X142478943Y-83127495D01*
X142433635Y-83055212D01*
X142393661Y-82975463D01*
X142372130Y-82907188D01*
X142368827Y-82849844D01*
X142374116Y-82801867D01*
X141242356Y-82802117D01*
X141281867Y-82832722D01*
X141291248Y-82840089D01*
X141354183Y-82894438D01*
X141422997Y-82962259D01*
X141499596Y-83045516D01*
X141585888Y-83146178D01*
X141603052Y-83166847D01*
X141643833Y-83216409D01*
X141693588Y-83277326D01*
X141750955Y-83347898D01*
X141814569Y-83426424D01*
X141883069Y-83511204D01*
X141955090Y-83600537D01*
X142029270Y-83692722D01*
X142044517Y-83711702D01*
X142104246Y-83786060D01*
X142178653Y-83878848D01*
X142251131Y-83969388D01*
X142320314Y-84055978D01*
X142384841Y-84136918D01*
X142443347Y-84210506D01*
X142494470Y-84275044D01*
X142536847Y-84328829D01*
X142569115Y-84370162D01*
X142589910Y-84397342D01*
X142597869Y-84408668D01*
X142596111Y-84412771D01*
X142583230Y-84433334D01*
X142558885Y-84469561D01*
X142524247Y-84519824D01*
X142480486Y-84582492D01*
X142428775Y-84655936D01*
X142370284Y-84738527D01*
X142306184Y-84828636D01*
X142237646Y-84924631D01*
X142165843Y-85024885D01*
X142091944Y-85127768D01*
X142017121Y-85231650D01*
X141942545Y-85334901D01*
X141869387Y-85435892D01*
X141798819Y-85532994D01*
X141732011Y-85624577D01*
X141670135Y-85709011D01*
X141614361Y-85784667D01*
X141565862Y-85849916D01*
X141525807Y-85903128D01*
X141495369Y-85942673D01*
X141474944Y-85968026D01*
X141428899Y-86022295D01*
X141378612Y-86078775D01*
X141331815Y-86128669D01*
X141240651Y-86222400D01*
X140542445Y-86222400D01*
X140611356Y-86222349D01*
X140709607Y-86222091D01*
X140799030Y-86221637D01*
X140877333Y-86221010D01*
X140942223Y-86220235D01*
X140991411Y-86219335D01*
X141022604Y-86218334D01*
X141033511Y-86217257D01*
X141032322Y-86214037D01*
X141022176Y-86196452D01*
X141005040Y-86170158D01*
X140996540Y-86157691D01*
X140987329Y-86143622D01*
X140979233Y-86129351D01*
X140972185Y-86113479D01*
X140966117Y-86094609D01*
X140960961Y-86071341D01*
X140956651Y-86042278D01*
X140953119Y-86006021D01*
X140950297Y-85961170D01*
X140948118Y-85906328D01*
X140946514Y-85840097D01*
X140945419Y-85761077D01*
X140944765Y-85667871D01*
X140944484Y-85559079D01*
X140944509Y-85433303D01*
X140944772Y-85289145D01*
X140945206Y-85125207D01*
X140945745Y-84940089D01*
X140946279Y-84761232D01*
X140946805Y-84602374D01*
X140947350Y-84463316D01*
X140947945Y-84342665D01*
X140948619Y-84239028D01*
X140949403Y-84151011D01*
X140950326Y-84077223D01*
X140951419Y-84016269D01*
X140952712Y-83966757D01*
X140954235Y-83927293D01*
X140956019Y-83896484D01*
X140958092Y-83872938D01*
X140960486Y-83855260D01*
X140963230Y-83842059D01*
X140966356Y-83831940D01*
X140969892Y-83823511D01*
X140973791Y-83815375D01*
X140993438Y-83778544D01*
X141012225Y-83748391D01*
X141013272Y-83746908D01*
X141027602Y-83724659D01*
X141033511Y-83711702D01*
X141032504Y-83711249D01*
X141015305Y-83709803D01*
X140978656Y-83708480D01*
X140924962Y-83707316D01*
X140856630Y-83706347D01*
X140776064Y-83705611D01*
X140685670Y-83705142D01*
X140587853Y-83704978D01*
X140142195Y-83704978D01*
X140139120Y-84881845D01*
X140136045Y-86058711D01*
X140109407Y-86117622D01*
X140097485Y-86142183D01*
X140080246Y-86172434D01*
X140067074Y-86189560D01*
X140059076Y-86197591D01*
X140051378Y-86212493D01*
X139759943Y-86212493D01*
X139759474Y-86120029D01*
X139759050Y-86004617D01*
X139758706Y-85874160D01*
X139758434Y-85727716D01*
X139758227Y-85564344D01*
X139758076Y-85383101D01*
X139757972Y-85183048D01*
X139757908Y-84963241D01*
X139757876Y-84722739D01*
X139757867Y-84460602D01*
X139757867Y-82269031D01*
X139796249Y-82230649D01*
X139823355Y-82206911D01*
X139850253Y-82195111D01*
X139886560Y-82192267D01*
X139938489Y-82192267D01*
X139938489Y-82280206D01*
X139940427Y-82330102D01*
X139959199Y-82440523D01*
X139996217Y-82541987D01*
X140049369Y-82633152D01*
X140116546Y-82712673D01*
X140195638Y-82779205D01*
X140284534Y-82831406D01*
X140381125Y-82867930D01*
X140483300Y-82887434D01*
X140588950Y-82888573D01*
X140695964Y-82870005D01*
X140802232Y-82830384D01*
X140899219Y-82772516D01*
X140984293Y-82697684D01*
X141053015Y-82609615D01*
X141103918Y-82510616D01*
X141135535Y-82402993D01*
X141146400Y-82289054D01*
X141146400Y-82192267D01*
X142766753Y-82192267D01*
X142977897Y-82192280D01*
X143182020Y-82192330D01*
X143365686Y-82192430D01*
X143529991Y-82192592D01*
X143676029Y-82192829D01*
X143804894Y-82193153D01*
X143917683Y-82193575D01*
X144015488Y-82194109D01*
X144099404Y-82194767D01*
X144170527Y-82195561D01*
X144229950Y-82196504D01*
X144278768Y-82197608D01*
X144318077Y-82198884D01*
X144348969Y-82200347D01*
X144372541Y-82202007D01*
X144389886Y-82203878D01*
X144402099Y-82205972D01*
X144410275Y-82208300D01*
X144415508Y-82210876D01*
X144421504Y-82214445D01*
X144428279Y-82217978D01*
X144434478Y-82221488D01*
X144440126Y-82225918D01*
X144445247Y-82232208D01*
X144449869Y-82241301D01*
X144454015Y-82254139D01*
X144457713Y-82271662D01*
X144460987Y-82294813D01*
X144463863Y-82324534D01*
X144466367Y-82361765D01*
X144468524Y-82407449D01*
X144470360Y-82462527D01*
X144471900Y-82527941D01*
X144473170Y-82604633D01*
X144474195Y-82693544D01*
X144475001Y-82795617D01*
X144475034Y-82801867D01*
X144475614Y-82911792D01*
X144476059Y-83043011D01*
G37*
D10*
X144476059Y-83043011D02*
X144476362Y-83190216D01*
X144476548Y-83354349D01*
X144476642Y-83536352D01*
X144476671Y-83737165D01*
X144476661Y-83957732D01*
X144476636Y-84198992D01*
X144476622Y-84461889D01*
X144476622Y-84504040D01*
X144476646Y-84764668D01*
X144476685Y-85003796D01*
X144476708Y-85222360D01*
X144476687Y-85421295D01*
X144476593Y-85601535D01*
X144476395Y-85764015D01*
X144476063Y-85909670D01*
X144475569Y-86039434D01*
X144474883Y-86154243D01*
X144473976Y-86255030D01*
X144472817Y-86342730D01*
X144471378Y-86418279D01*
X144469629Y-86482611D01*
X144467540Y-86536661D01*
X144465083Y-86581363D01*
X144462227Y-86617652D01*
X144458943Y-86646463D01*
X144455202Y-86668731D01*
X144450974Y-86685390D01*
X144446229Y-86697375D01*
X144440939Y-86705621D01*
X144435073Y-86711062D01*
X144428602Y-86714634D01*
X144421497Y-86717270D01*
X144413728Y-86719906D01*
X144405266Y-86723477D01*
X144400908Y-86725145D01*
X144392395Y-86727111D01*
X144379694Y-86728911D01*
X144361885Y-86730555D01*
X144338049Y-86732047D01*
X144307266Y-86733397D01*
X144268617Y-86734611D01*
X144221182Y-86735697D01*
X144164043Y-86736661D01*
X144096279Y-86737511D01*
X144016971Y-86738253D01*
X143925199Y-86738897D01*
X143820044Y-86739447D01*
X143700587Y-86739913D01*
X143565908Y-86740300D01*
X143415088Y-86740616D01*
X143247206Y-86740869D01*
X143061345Y-86741066D01*
X142856583Y-86741213D01*
X142632002Y-86741318D01*
X142386682Y-86741389D01*
X142119704Y-86741432D01*
X142081321Y-86741437D01*
X141815922Y-86741480D01*
X141572050Y-86741525D01*
X141348783Y-86741548D01*
X141145196Y-86741524D01*
X140960367Y-86741430D01*
X140793373Y-86741243D01*
X140643290Y-86740939D01*
X140509196Y-86740494D01*
X140390166Y-86739885D01*
X140285279Y-86739089D01*
X140193610Y-86738080D01*
X140114237Y-86736837D01*
X140046237Y-86735335D01*
X139988686Y-86733551D01*
X139940662Y-86731461D01*
X139901240Y-86729042D01*
X139869499Y-86726270D01*
X139844514Y-86723121D01*
X139825364Y-86719572D01*
X139811123Y-86715598D01*
X139800871Y-86711178D01*
X139793682Y-86706286D01*
X139788635Y-86700900D01*
X139784805Y-86694996D01*
X139781271Y-86688549D01*
X139777108Y-86681537D01*
X139776025Y-86679687D01*
X139773813Y-86674180D01*
X139771786Y-86665868D01*
X139769938Y-86653809D01*
X139768261Y-86637063D01*
X139766745Y-86614687D01*
X139765383Y-86585740D01*
X139764167Y-86549280D01*
X139763089Y-86504367D01*
X139762140Y-86450057D01*
X139761312Y-86385410D01*
X139760597Y-86309484D01*
X139759987Y-86221338D01*
X139759943Y-86212493D01*
X140051378Y-86212493D01*
X140055260Y-86213765D01*
X140078520Y-86215791D01*
X140120874Y-86217626D01*
X140180132Y-86219227D01*
X140254107Y-86220549D01*
X140340610Y-86221548D01*
X140437452Y-86222180D01*
X140542445Y-86222400D01*
X141240651Y-86222400D01*
X142395090Y-86222400D01*
X142394456Y-86146200D01*
X142395574Y-86104160D01*
X142401304Y-86068334D01*
X142413890Y-86030772D01*
X142435568Y-85982577D01*
X142438789Y-85975897D01*
X142464188Y-85926359D01*
X142490996Y-85878369D01*
X142513917Y-85841466D01*
X142518485Y-85834834D01*
X142540516Y-85803593D01*
X142572693Y-85758654D01*
X142613457Y-85702147D01*
X142661245Y-85636204D01*
X142714498Y-85562957D01*
X142771655Y-85484536D01*
X142831155Y-85403072D01*
X142891437Y-85320698D01*
X142950940Y-85239544D01*
X143008105Y-85161742D01*
X143061370Y-85089423D01*
X143109174Y-85024718D01*
X143149957Y-84969759D01*
X143182158Y-84926676D01*
X143204216Y-84897602D01*
X143214571Y-84884667D01*
X143219044Y-84880351D01*
X143223236Y-84878312D01*
X143226643Y-84880926D01*
X143229325Y-84889986D01*
X143231341Y-84907285D01*
X143232748Y-84934614D01*
X143233605Y-84973765D01*
X143233970Y-85026533D01*
X143233903Y-85094707D01*
X143233460Y-85180082D01*
X143232702Y-85284449D01*
X143231685Y-85409600D01*
X143231308Y-85454300D01*
X143230169Y-85575395D01*
X143228972Y-85676688D01*
X143227636Y-85760262D01*
X143226077Y-85828204D01*
X143224215Y-85882599D01*
X143221966Y-85925532D01*
X143219248Y-85959089D01*
X143215979Y-85985355D01*
X143212078Y-86006416D01*
X143207461Y-86024357D01*
X143199192Y-86050770D01*
X143175583Y-86112772D01*
X143149685Y-86165573D01*
X143124535Y-86202645D01*
X143123339Y-86204075D01*
X143121168Y-86208424D01*
X143123328Y-86212026D01*
X143131644Y-86214951D01*
X143147940Y-86217269D01*
X143174041Y-86219051D01*
X143211771Y-86220367D01*
X143262956Y-86221286D01*
X143329420Y-86221878D01*
X143412987Y-86222215D01*
X143515483Y-86222365D01*
X143638732Y-86222400D01*
X144170296Y-86222400D01*
X144131523Y-86164783D01*
X144125432Y-86155893D01*
X144114976Y-86141069D01*
X144105579Y-86127422D01*
X144097183Y-86113765D01*
X144089733Y-86098911D01*
X144083173Y-86081670D01*
X144077446Y-86060855D01*
X144072495Y-86035280D01*
X144068266Y-86003755D01*
X144064701Y-85965093D01*
X144061744Y-85918107D01*
X144059340Y-85861608D01*
X144057431Y-85794409D01*
X144055962Y-85715322D01*
X144054876Y-85623160D01*
X144054118Y-85516734D01*
X144053630Y-85394857D01*
X144053358Y-85256341D01*
X144053243Y-85099999D01*
X144053231Y-84924642D01*
X144053265Y-84729082D01*
X144053289Y-84512133D01*
X144053280Y-84389513D01*
X144053243Y-84184447D01*
X144053227Y-84000116D01*
X144053288Y-83835334D01*
X144053484Y-83688916D01*
X144053870Y-83559674D01*
X144054505Y-83446422D01*
X144055444Y-83347975D01*
X144056745Y-83263144D01*
X144058464Y-83190744D01*
X144060659Y-83129589D01*
X144063385Y-83078492D01*
X144066701Y-83036267D01*
X144070662Y-83001727D01*
X144075325Y-82973686D01*
X144080747Y-82950958D01*
X144086986Y-82932356D01*
X144094097Y-82916693D01*
X144102138Y-82902784D01*
X144111166Y-82889441D01*
X144121236Y-82875479D01*
X144132407Y-82859711D01*
X144172197Y-82801867D01*
X143112314Y-82801867D01*
X143150311Y-82864966D01*
X143164993Y-82890005D01*
X143179531Y-82917586D01*
X143191627Y-82945700D01*
X143201532Y-82976551D01*
X143209494Y-83012344D01*
X143215761Y-83055283D01*
X143220582Y-83107574D01*
X143224206Y-83171419D01*
X143226881Y-83249025D01*
X143228857Y-83342594D01*
X143230382Y-83454333D01*
X143231704Y-83586445D01*
X143232613Y-83706434D01*
X143233020Y-83823063D01*
X143232767Y-83918531D01*
X143231857Y-83992556D01*
X143230293Y-84044855D01*
X143228079Y-84075149D01*
X143225220Y-84083156D01*
X143222161Y-84079858D01*
X143204006Y-84058408D01*
X143174275Y-84021889D01*
X143134639Y-83972442D01*
X143086771Y-83912207D01*
X143032343Y-83843327D01*
X142973027Y-83767943D01*
X142910495Y-83688196D01*
X142846421Y-83606228D01*
X142782475Y-83524180D01*
X142720331Y-83444194D01*
X142661661Y-83368411D01*
X142608137Y-83298973D01*
X142561430Y-83238021D01*
X142523214Y-83187696D01*
X142495161Y-83150140D01*
X142478943Y-83127495D01*
X142433635Y-83055212D01*
X142393661Y-82975463D01*
X142372130Y-82907188D01*
X142368827Y-82849844D01*
X142374116Y-82801867D01*
X141242356Y-82802117D01*
X141281867Y-82832722D01*
X141291248Y-82840089D01*
X141354183Y-82894438D01*
X141422997Y-82962259D01*
X141499596Y-83045516D01*
X141585888Y-83146178D01*
X141603052Y-83166847D01*
X141643833Y-83216409D01*
X141693588Y-83277326D01*
X141750955Y-83347898D01*
X141814569Y-83426424D01*
X141883069Y-83511204D01*
X141955090Y-83600537D01*
X142029270Y-83692722D01*
X142044517Y-83711702D01*
X142104246Y-83786060D01*
X142178653Y-83878848D01*
X142251131Y-83969388D01*
X142320314Y-84055978D01*
X142384841Y-84136918D01*
X142443347Y-84210506D01*
X142494470Y-84275044D01*
X142536847Y-84328829D01*
X142569115Y-84370162D01*
X142589910Y-84397342D01*
X142597869Y-84408668D01*
X142596111Y-84412771D01*
X142583230Y-84433334D01*
X142558885Y-84469561D01*
X142524247Y-84519824D01*
X142480486Y-84582492D01*
X142428775Y-84655936D01*
X142370284Y-84738527D01*
X142306184Y-84828636D01*
X142237646Y-84924631D01*
X142165843Y-85024885D01*
X142091944Y-85127768D01*
X142017121Y-85231650D01*
X141942545Y-85334901D01*
X141869387Y-85435892D01*
X141798819Y-85532994D01*
X141732011Y-85624577D01*
X141670135Y-85709011D01*
X141614361Y-85784667D01*
X141565862Y-85849916D01*
X141525807Y-85903128D01*
X141495369Y-85942673D01*
X141474944Y-85968026D01*
X141428899Y-86022295D01*
X141378612Y-86078775D01*
X141331815Y-86128669D01*
X141240651Y-86222400D01*
X140542445Y-86222400D01*
X140611356Y-86222349D01*
X140709607Y-86222091D01*
X140799030Y-86221637D01*
X140877333Y-86221010D01*
X140942223Y-86220235D01*
X140991411Y-86219335D01*
X141022604Y-86218334D01*
X141033511Y-86217257D01*
X141032322Y-86214037D01*
X141022176Y-86196452D01*
X141005040Y-86170158D01*
X140996540Y-86157691D01*
X140987329Y-86143622D01*
X140979233Y-86129351D01*
X140972185Y-86113479D01*
X140966117Y-86094609D01*
X140960961Y-86071341D01*
X140956651Y-86042278D01*
X140953119Y-86006021D01*
X140950297Y-85961170D01*
X140948118Y-85906328D01*
X140946514Y-85840097D01*
X140945419Y-85761077D01*
X140944765Y-85667871D01*
X140944484Y-85559079D01*
X140944509Y-85433303D01*
X140944772Y-85289145D01*
X140945206Y-85125207D01*
X140945745Y-84940089D01*
X140946279Y-84761232D01*
X140946805Y-84602374D01*
X140947350Y-84463316D01*
X140947945Y-84342665D01*
X140948619Y-84239028D01*
X140949403Y-84151011D01*
X140950326Y-84077223D01*
X140951419Y-84016269D01*
X140952712Y-83966757D01*
X140954235Y-83927293D01*
X140956019Y-83896484D01*
X140958092Y-83872938D01*
X140960486Y-83855260D01*
X140963230Y-83842059D01*
X140966356Y-83831940D01*
X140969892Y-83823511D01*
X140973791Y-83815375D01*
X140993438Y-83778544D01*
X141012225Y-83748391D01*
X141013272Y-83746908D01*
X141027602Y-83724659D01*
X141033511Y-83711702D01*
X141032504Y-83711249D01*
X141015305Y-83709803D01*
X140978656Y-83708480D01*
X140924962Y-83707316D01*
X140856630Y-83706347D01*
X140776064Y-83705611D01*
X140685670Y-83705142D01*
X140587853Y-83704978D01*
X140142195Y-83704978D01*
X140139120Y-84881845D01*
X140136045Y-86058711D01*
X140109407Y-86117622D01*
X140097485Y-86142183D01*
X140080246Y-86172434D01*
X140067074Y-86189560D01*
X140059076Y-86197591D01*
X140051378Y-86212493D01*
X139759943Y-86212493D01*
X139759474Y-86120029D01*
X139759050Y-86004617D01*
X139758706Y-85874160D01*
X139758434Y-85727716D01*
X139758227Y-85564344D01*
X139758076Y-85383101D01*
X139757972Y-85183048D01*
X139757908Y-84963241D01*
X139757876Y-84722739D01*
X139757867Y-84460602D01*
X139757867Y-82269031D01*
X139796249Y-82230649D01*
X139823355Y-82206911D01*
X139850253Y-82195111D01*
X139886560Y-82192267D01*
X139938489Y-82192267D01*
X139938489Y-82280206D01*
X139940427Y-82330102D01*
X139959199Y-82440523D01*
X139996217Y-82541987D01*
X140049369Y-82633152D01*
X140116546Y-82712673D01*
X140195638Y-82779205D01*
X140284534Y-82831406D01*
X140381125Y-82867930D01*
X140483300Y-82887434D01*
X140588950Y-82888573D01*
X140695964Y-82870005D01*
X140802232Y-82830384D01*
X140899219Y-82772516D01*
X140984293Y-82697684D01*
X141053015Y-82609615D01*
X141103918Y-82510616D01*
X141135535Y-82402993D01*
X141146400Y-82289054D01*
X141146400Y-82192267D01*
X142766753Y-82192267D01*
X142977897Y-82192280D01*
X143182020Y-82192330D01*
X143365686Y-82192430D01*
X143529991Y-82192592D01*
X143676029Y-82192829D01*
X143804894Y-82193153D01*
X143917683Y-82193575D01*
X144015488Y-82194109D01*
X144099404Y-82194767D01*
X144170527Y-82195561D01*
X144229950Y-82196504D01*
X144278768Y-82197608D01*
X144318077Y-82198884D01*
X144348969Y-82200347D01*
X144372541Y-82202007D01*
X144389886Y-82203878D01*
X144402099Y-82205972D01*
X144410275Y-82208300D01*
X144415508Y-82210876D01*
X144421504Y-82214445D01*
X144428279Y-82217978D01*
X144434478Y-82221488D01*
X144440126Y-82225918D01*
X144445247Y-82232208D01*
X144449869Y-82241301D01*
X144454015Y-82254139D01*
X144457713Y-82271662D01*
X144460987Y-82294813D01*
X144463863Y-82324534D01*
X144466367Y-82361765D01*
X144468524Y-82407449D01*
X144470360Y-82462527D01*
X144471900Y-82527941D01*
X144473170Y-82604633D01*
X144474195Y-82693544D01*
X144475001Y-82795617D01*
X144475034Y-82801867D01*
X144475614Y-82911792D01*
X144476059Y-83043011D01*
G36*
X138188711Y-82762033D02*
G01*
X138284268Y-82779523D01*
X138448558Y-82824564D01*
X138602589Y-82887656D01*
X138748509Y-82969915D01*
X138888466Y-83072457D01*
X139024608Y-83196399D01*
X139068473Y-83241661D01*
X139180758Y-83373865D01*
X139273972Y-83511832D01*
X139350719Y-83659750D01*
X139413603Y-83821803D01*
X139417420Y-83833391D01*
X139467507Y-84019392D01*
X139500899Y-84215521D01*
X139517584Y-84417568D01*
X139517551Y-84621325D01*
X139500791Y-84822581D01*
X139467292Y-85017128D01*
X139417044Y-85200756D01*
X139373190Y-85318053D01*
X139295348Y-85480951D01*
X139201828Y-85634866D01*
X139094822Y-85776671D01*
X138976519Y-85903239D01*
X138849111Y-86011441D01*
X138771606Y-86064120D01*
X138644725Y-86133750D01*
X138507243Y-86192468D01*
X138365716Y-86237587D01*
X138226702Y-86266422D01*
X138212597Y-86268106D01*
X138169153Y-86271434D01*
X138111723Y-86274275D01*
X138046122Y-86276373D01*
X137978167Y-86277468D01*
X137851378Y-86275140D01*
X137703673Y-86262136D01*
X137565779Y-86237133D01*
X137432014Y-86199318D01*
X137408562Y-86190889D01*
X137360612Y-86171408D01*
X137304140Y-86146473D01*
X137242379Y-86117722D01*
X137178563Y-86086790D01*
X137115926Y-86055315D01*
X137057703Y-86024934D01*
X137007127Y-85997283D01*
X136967433Y-85973999D01*
X136941854Y-85956718D01*
X136933625Y-85947079D01*
X136935076Y-85943984D01*
X136946250Y-85924079D01*
X136967134Y-85888420D01*
X136996265Y-85839459D01*
X137032181Y-85779646D01*
X137073420Y-85711433D01*
X137118517Y-85637271D01*
X137299785Y-85340008D01*
X137346315Y-85384539D01*
X137437723Y-85462865D01*
X137551334Y-85537439D01*
X137669122Y-85591474D01*
X137789559Y-85624290D01*
X137911117Y-85635211D01*
X137952585Y-85633868D01*
X138070080Y-85615612D01*
X138180089Y-85576617D01*
X138281430Y-85517670D01*
X138372921Y-85439557D01*
X138453380Y-85343064D01*
X138521627Y-85228978D01*
X138537908Y-85194724D01*
X138583982Y-85071240D01*
X138619106Y-84932918D01*
X138643197Y-84783561D01*
X138656173Y-84626973D01*
X138657949Y-84466956D01*
X138648443Y-84307314D01*
X138627572Y-84151850D01*
X138595252Y-84004366D01*
X138551399Y-83868667D01*
X138513982Y-83782076D01*
X138449185Y-83668688D01*
X138373772Y-83575070D01*
X138287418Y-83500959D01*
X138189795Y-83446094D01*
X138080577Y-83410212D01*
X137959439Y-83393051D01*
X137890038Y-83391880D01*
X137767168Y-83406141D01*
X137651664Y-83441241D01*
X137544953Y-83496682D01*
X137448464Y-83571964D01*
X137432720Y-83586440D01*
X137402150Y-83612962D01*
X137379809Y-83630138D01*
X137369691Y-83634787D01*
X137367706Y-83632597D01*
X137353241Y-83613721D01*
X137329400Y-83580397D01*
X137298029Y-83535380D01*
X137260974Y-83481425D01*
X137220083Y-83421285D01*
X137177202Y-83357718D01*
X137134178Y-83293476D01*
X137092857Y-83231315D01*
X137055086Y-83173991D01*
X137022712Y-83124257D01*
X136997582Y-83084868D01*
X136981542Y-83058580D01*
X136976439Y-83048147D01*
X136981050Y-83043941D01*
X137000267Y-83038933D01*
X137009838Y-83036386D01*
X137037809Y-83025249D01*
X137079448Y-83006802D01*
X137130995Y-82982725D01*
X137188690Y-82954699D01*
X137199957Y-82949154D01*
X137377687Y-82869889D01*
X137547490Y-82810385D01*
X137711430Y-82770245D01*
X137871571Y-82749071D01*
X138029977Y-82746466D01*
X138188711Y-82762033D01*
G37*
X138188711Y-82762033D02*
X138284268Y-82779523D01*
X138448558Y-82824564D01*
X138602589Y-82887656D01*
X138748509Y-82969915D01*
X138888466Y-83072457D01*
X139024608Y-83196399D01*
X139068473Y-83241661D01*
X139180758Y-83373865D01*
X139273972Y-83511832D01*
X139350719Y-83659750D01*
X139413603Y-83821803D01*
X139417420Y-83833391D01*
X139467507Y-84019392D01*
X139500899Y-84215521D01*
X139517584Y-84417568D01*
X139517551Y-84621325D01*
X139500791Y-84822581D01*
X139467292Y-85017128D01*
X139417044Y-85200756D01*
X139373190Y-85318053D01*
X139295348Y-85480951D01*
X139201828Y-85634866D01*
X139094822Y-85776671D01*
X138976519Y-85903239D01*
X138849111Y-86011441D01*
X138771606Y-86064120D01*
X138644725Y-86133750D01*
X138507243Y-86192468D01*
X138365716Y-86237587D01*
X138226702Y-86266422D01*
X138212597Y-86268106D01*
X138169153Y-86271434D01*
X138111723Y-86274275D01*
X138046122Y-86276373D01*
X137978167Y-86277468D01*
X137851378Y-86275140D01*
X137703673Y-86262136D01*
X137565779Y-86237133D01*
X137432014Y-86199318D01*
X137408562Y-86190889D01*
X137360612Y-86171408D01*
X137304140Y-86146473D01*
X137242379Y-86117722D01*
X137178563Y-86086790D01*
X137115926Y-86055315D01*
X137057703Y-86024934D01*
X137007127Y-85997283D01*
X136967433Y-85973999D01*
X136941854Y-85956718D01*
X136933625Y-85947079D01*
X136935076Y-85943984D01*
X136946250Y-85924079D01*
X136967134Y-85888420D01*
X136996265Y-85839459D01*
X137032181Y-85779646D01*
X137073420Y-85711433D01*
X137118517Y-85637271D01*
X137299785Y-85340008D01*
X137346315Y-85384539D01*
X137437723Y-85462865D01*
X137551334Y-85537439D01*
X137669122Y-85591474D01*
X137789559Y-85624290D01*
X137911117Y-85635211D01*
X137952585Y-85633868D01*
X138070080Y-85615612D01*
X138180089Y-85576617D01*
X138281430Y-85517670D01*
X138372921Y-85439557D01*
X138453380Y-85343064D01*
X138521627Y-85228978D01*
X138537908Y-85194724D01*
X138583982Y-85071240D01*
X138619106Y-84932918D01*
X138643197Y-84783561D01*
X138656173Y-84626973D01*
X138657949Y-84466956D01*
X138648443Y-84307314D01*
X138627572Y-84151850D01*
X138595252Y-84004366D01*
X138551399Y-83868667D01*
X138513982Y-83782076D01*
X138449185Y-83668688D01*
X138373772Y-83575070D01*
X138287418Y-83500959D01*
X138189795Y-83446094D01*
X138080577Y-83410212D01*
X137959439Y-83393051D01*
X137890038Y-83391880D01*
X137767168Y-83406141D01*
X137651664Y-83441241D01*
X137544953Y-83496682D01*
X137448464Y-83571964D01*
X137432720Y-83586440D01*
X137402150Y-83612962D01*
X137379809Y-83630138D01*
X137369691Y-83634787D01*
X137367706Y-83632597D01*
X137353241Y-83613721D01*
X137329400Y-83580397D01*
X137298029Y-83535380D01*
X137260974Y-83481425D01*
X137220083Y-83421285D01*
X137177202Y-83357718D01*
X137134178Y-83293476D01*
X137092857Y-83231315D01*
X137055086Y-83173991D01*
X137022712Y-83124257D01*
X136997582Y-83084868D01*
X136981542Y-83058580D01*
X136976439Y-83048147D01*
X136981050Y-83043941D01*
X137000267Y-83038933D01*
X137009838Y-83036386D01*
X137037809Y-83025249D01*
X137079448Y-83006802D01*
X137130995Y-82982725D01*
X137188690Y-82954699D01*
X137199957Y-82949154D01*
X137377687Y-82869889D01*
X137547490Y-82810385D01*
X137711430Y-82770245D01*
X137871571Y-82749071D01*
X138029977Y-82746466D01*
X138188711Y-82762033D01*
G36*
X136927261Y-85477363D02*
G01*
X136923632Y-85552202D01*
X136916022Y-85614401D01*
X136903688Y-85670984D01*
X136859313Y-85797076D01*
X136796400Y-85911679D01*
X136716238Y-86012568D01*
X136619740Y-86098924D01*
X136507822Y-86169932D01*
X136381397Y-86224776D01*
X136241378Y-86262638D01*
X136205149Y-86268351D01*
X136126155Y-86274313D01*
X136037841Y-86274646D01*
X135948075Y-86269659D01*
X135864722Y-86259666D01*
X135795651Y-86244978D01*
X135709187Y-86214749D01*
X135599286Y-86160057D01*
X135501956Y-86092543D01*
X135439867Y-86041556D01*
X135436605Y-86137622D01*
X135433343Y-86233689D01*
X135010450Y-86233689D01*
X134999543Y-86233686D01*
X134905056Y-86233380D01*
X134818331Y-86232616D01*
X134741837Y-86231451D01*
X134678043Y-86229942D01*
X134629418Y-86228147D01*
X134598433Y-86226121D01*
X134587556Y-86223922D01*
X134587578Y-86223463D01*
X134594614Y-86207910D01*
X134610434Y-86185071D01*
X134614734Y-86179638D01*
X134625777Y-86165606D01*
X134635311Y-86152186D01*
X134643461Y-86137722D01*
X134650352Y-86120556D01*
X134656111Y-86099034D01*
X134660862Y-86071498D01*
X134664731Y-86036292D01*
X134667844Y-85991760D01*
X134670325Y-85936246D01*
X134672300Y-85868093D01*
X134673894Y-85785645D01*
X134675234Y-85687246D01*
X134676444Y-85571239D01*
X134677649Y-85435968D01*
X134678594Y-85324586D01*
X135479378Y-85324586D01*
X135479378Y-85520462D01*
X135524048Y-85576973D01*
X135536785Y-85592212D01*
X135583604Y-85634844D01*
X135644255Y-85670672D01*
X135654897Y-85675850D01*
X135693676Y-85692745D01*
X135728692Y-85702909D01*
X135768722Y-85708325D01*
X135822541Y-85710978D01*
X135840648Y-85711383D01*
X135916011Y-85708540D01*
X135976743Y-85696620D01*
X136028452Y-85674037D01*
X136076746Y-85639211D01*
X136081803Y-85634798D01*
X136130272Y-85579160D01*
X136158459Y-85515333D01*
X136167752Y-85440282D01*
X136160520Y-85368693D01*
X136135796Y-85305645D01*
X136091249Y-85247758D01*
X136036319Y-85200808D01*
X135963894Y-85160961D01*
X135877340Y-85133263D01*
X135774670Y-85117096D01*
X135653894Y-85111842D01*
X135645007Y-85111857D01*
X135589660Y-85112655D01*
X135542736Y-85114488D01*
X135508953Y-85117111D01*
X135493028Y-85120274D01*
X135488943Y-85126741D01*
X135484572Y-85148875D01*
X135481604Y-85187988D01*
X135479914Y-85245939D01*
X135479378Y-85324586D01*
X134678594Y-85324586D01*
X134678975Y-85279778D01*
X134680228Y-85137012D01*
X134681651Y-84991942D01*
X134683176Y-84866027D01*
X134684933Y-84757436D01*
X134687051Y-84664334D01*
X134689660Y-84584891D01*
X134692890Y-84517273D01*
X134696869Y-84459649D01*
X134701728Y-84410185D01*
X134707597Y-84367050D01*
X134714604Y-84328410D01*
X134722880Y-84292434D01*
X134732554Y-84257289D01*
X134743756Y-84221142D01*
X134756616Y-84182161D01*
X134772090Y-84139091D01*
X134814994Y-84046871D01*
X134868735Y-83967099D01*
X134937576Y-83892965D01*
X135015185Y-83829405D01*
X135119761Y-83767725D01*
X135239244Y-83720202D01*
X135374508Y-83686567D01*
X135526426Y-83666552D01*
X135695872Y-83659889D01*
X135753890Y-83660287D01*
X135819398Y-83662335D01*
X135880693Y-83666704D01*
X135942097Y-83674035D01*
X136007932Y-83684969D01*
X136082520Y-83700147D01*
X136170184Y-83720209D01*
X136275245Y-83745797D01*
X136303806Y-83752820D01*
X136379054Y-83770776D01*
X136449388Y-83786820D01*
X136510567Y-83800028D01*
X136558354Y-83809474D01*
X136588511Y-83814231D01*
X136616783Y-83817910D01*
X136643060Y-83823187D01*
X136653059Y-83827942D01*
X136649952Y-83836781D01*
X136639194Y-83864072D01*
X136621864Y-83906906D01*
X136599126Y-83962425D01*
X136572147Y-84027772D01*
X136542090Y-84100089D01*
X136535493Y-84115879D01*
X136496907Y-84206484D01*
X136465768Y-84276217D01*
X136441917Y-84325405D01*
X136425198Y-84354374D01*
X136415454Y-84363452D01*
X136407766Y-84361405D01*
X136381415Y-84351760D01*
X136342982Y-84336190D01*
X136297822Y-84316815D01*
X136203293Y-84278814D01*
X136066480Y-84237780D01*
X135925289Y-84212612D01*
X135887314Y-84208611D01*
X135784059Y-84206447D01*
X135696952Y-84219622D01*
X135625129Y-84248756D01*
X135567731Y-84294466D01*
X135523896Y-84357372D01*
X135492762Y-84438092D01*
X135473470Y-84537245D01*
X135466050Y-84596224D01*
X135627936Y-84589445D01*
X135754495Y-84587813D01*
X135905951Y-84594194D01*
X136054396Y-84608777D01*
X136190578Y-84630882D01*
X136255245Y-84645821D01*
X136387490Y-84688741D01*
X136509762Y-84745340D01*
X136619685Y-84814017D01*
X136714883Y-84893170D01*
X136792980Y-84981196D01*
X136851599Y-85076493D01*
X136875595Y-85128864D01*
X136901232Y-85199590D01*
X136917478Y-85270812D01*
X136925822Y-85349712D01*
X136927690Y-85440282D01*
X136927755Y-85443467D01*
X136927261Y-85477363D01*
G37*
X136927261Y-85477363D02*
X136923632Y-85552202D01*
X136916022Y-85614401D01*
X136903688Y-85670984D01*
X136859313Y-85797076D01*
X136796400Y-85911679D01*
X136716238Y-86012568D01*
X136619740Y-86098924D01*
X136507822Y-86169932D01*
X136381397Y-86224776D01*
X136241378Y-86262638D01*
X136205149Y-86268351D01*
X136126155Y-86274313D01*
X136037841Y-86274646D01*
X135948075Y-86269659D01*
X135864722Y-86259666D01*
X135795651Y-86244978D01*
X135709187Y-86214749D01*
X135599286Y-86160057D01*
X135501956Y-86092543D01*
X135439867Y-86041556D01*
X135436605Y-86137622D01*
X135433343Y-86233689D01*
X135010450Y-86233689D01*
X134999543Y-86233686D01*
X134905056Y-86233380D01*
X134818331Y-86232616D01*
X134741837Y-86231451D01*
X134678043Y-86229942D01*
X134629418Y-86228147D01*
X134598433Y-86226121D01*
X134587556Y-86223922D01*
X134587578Y-86223463D01*
X134594614Y-86207910D01*
X134610434Y-86185071D01*
X134614734Y-86179638D01*
X134625777Y-86165606D01*
X134635311Y-86152186D01*
X134643461Y-86137722D01*
X134650352Y-86120556D01*
X134656111Y-86099034D01*
X134660862Y-86071498D01*
X134664731Y-86036292D01*
X134667844Y-85991760D01*
X134670325Y-85936246D01*
X134672300Y-85868093D01*
X134673894Y-85785645D01*
X134675234Y-85687246D01*
X134676444Y-85571239D01*
X134677649Y-85435968D01*
X134678594Y-85324586D01*
X135479378Y-85324586D01*
X135479378Y-85520462D01*
X135524048Y-85576973D01*
X135536785Y-85592212D01*
X135583604Y-85634844D01*
X135644255Y-85670672D01*
X135654897Y-85675850D01*
X135693676Y-85692745D01*
X135728692Y-85702909D01*
X135768722Y-85708325D01*
X135822541Y-85710978D01*
X135840648Y-85711383D01*
X135916011Y-85708540D01*
X135976743Y-85696620D01*
X136028452Y-85674037D01*
X136076746Y-85639211D01*
X136081803Y-85634798D01*
X136130272Y-85579160D01*
X136158459Y-85515333D01*
X136167752Y-85440282D01*
X136160520Y-85368693D01*
X136135796Y-85305645D01*
X136091249Y-85247758D01*
X136036319Y-85200808D01*
X135963894Y-85160961D01*
X135877340Y-85133263D01*
X135774670Y-85117096D01*
X135653894Y-85111842D01*
X135645007Y-85111857D01*
X135589660Y-85112655D01*
X135542736Y-85114488D01*
X135508953Y-85117111D01*
X135493028Y-85120274D01*
X135488943Y-85126741D01*
X135484572Y-85148875D01*
X135481604Y-85187988D01*
X135479914Y-85245939D01*
X135479378Y-85324586D01*
X134678594Y-85324586D01*
X134678975Y-85279778D01*
X134680228Y-85137012D01*
X134681651Y-84991942D01*
X134683176Y-84866027D01*
X134684933Y-84757436D01*
X134687051Y-84664334D01*
X134689660Y-84584891D01*
X134692890Y-84517273D01*
X134696869Y-84459649D01*
X134701728Y-84410185D01*
X134707597Y-84367050D01*
X134714604Y-84328410D01*
X134722880Y-84292434D01*
X134732554Y-84257289D01*
X134743756Y-84221142D01*
X134756616Y-84182161D01*
X134772090Y-84139091D01*
X134814994Y-84046871D01*
X134868735Y-83967099D01*
X134937576Y-83892965D01*
X135015185Y-83829405D01*
X135119761Y-83767725D01*
X135239244Y-83720202D01*
X135374508Y-83686567D01*
X135526426Y-83666552D01*
X135695872Y-83659889D01*
X135753890Y-83660287D01*
X135819398Y-83662335D01*
X135880693Y-83666704D01*
X135942097Y-83674035D01*
X136007932Y-83684969D01*
X136082520Y-83700147D01*
X136170184Y-83720209D01*
X136275245Y-83745797D01*
X136303806Y-83752820D01*
X136379054Y-83770776D01*
X136449388Y-83786820D01*
X136510567Y-83800028D01*
X136558354Y-83809474D01*
X136588511Y-83814231D01*
X136616783Y-83817910D01*
X136643060Y-83823187D01*
X136653059Y-83827942D01*
X136649952Y-83836781D01*
X136639194Y-83864072D01*
X136621864Y-83906906D01*
X136599126Y-83962425D01*
X136572147Y-84027772D01*
X136542090Y-84100089D01*
X136535493Y-84115879D01*
X136496907Y-84206484D01*
X136465768Y-84276217D01*
X136441917Y-84325405D01*
X136425198Y-84354374D01*
X136415454Y-84363452D01*
X136407766Y-84361405D01*
X136381415Y-84351760D01*
X136342982Y-84336190D01*
X136297822Y-84316815D01*
X136203293Y-84278814D01*
X136066480Y-84237780D01*
X135925289Y-84212612D01*
X135887314Y-84208611D01*
X135784059Y-84206447D01*
X135696952Y-84219622D01*
X135625129Y-84248756D01*
X135567731Y-84294466D01*
X135523896Y-84357372D01*
X135492762Y-84438092D01*
X135473470Y-84537245D01*
X135466050Y-84596224D01*
X135627936Y-84589445D01*
X135754495Y-84587813D01*
X135905951Y-84594194D01*
X136054396Y-84608777D01*
X136190578Y-84630882D01*
X136255245Y-84645821D01*
X136387490Y-84688741D01*
X136509762Y-84745340D01*
X136619685Y-84814017D01*
X136714883Y-84893170D01*
X136792980Y-84981196D01*
X136851599Y-85076493D01*
X136875595Y-85128864D01*
X136901232Y-85199590D01*
X136917478Y-85270812D01*
X136925822Y-85349712D01*
X136927690Y-85440282D01*
X136927755Y-85443467D01*
X136927261Y-85477363D01*
G36*
X134385268Y-85120158D02*
G01*
X134376689Y-85271594D01*
X134357833Y-85408283D01*
X134327837Y-85534276D01*
X134285836Y-85653625D01*
X134230969Y-85770381D01*
X134164167Y-85881179D01*
X134073363Y-85994739D01*
X133969708Y-86090211D01*
X133853887Y-86167073D01*
X133726586Y-86224797D01*
X133588489Y-86262858D01*
X133550793Y-86268666D01*
X133471752Y-86274396D01*
X133383629Y-86274583D01*
X133294236Y-86269539D01*
X133211384Y-86259578D01*
X133142887Y-86245012D01*
X133112035Y-86235364D01*
X133034730Y-86205123D01*
X132957679Y-86167617D01*
X132888200Y-86126614D01*
X132833615Y-86085879D01*
X132810916Y-86066505D01*
X132788201Y-86048662D01*
X132776779Y-86041778D01*
X132775537Y-86043424D01*
X132772728Y-86061205D01*
X132770776Y-86094370D01*
X132770045Y-86137733D01*
X132770045Y-86233689D01*
X131911896Y-86233689D01*
X131946161Y-86172974D01*
X131951355Y-86163868D01*
X131959715Y-86149249D01*
X131967288Y-86135173D01*
X131974112Y-86120540D01*
X131980227Y-86104249D01*
X131985673Y-86085198D01*
X131990487Y-86062286D01*
X131994708Y-86034413D01*
X131998377Y-86000478D01*
X132001531Y-85959379D01*
X132004211Y-85910015D01*
X132006454Y-85851286D01*
X132008299Y-85782090D01*
X132009787Y-85701326D01*
X132010955Y-85607894D01*
X132011844Y-85500692D01*
X132012491Y-85378620D01*
X132012936Y-85240576D01*
X132013218Y-85085459D01*
X132013375Y-84912168D01*
X132013448Y-84719603D01*
X132013474Y-84506662D01*
X132013485Y-84370530D01*
X132815200Y-84370530D01*
X132815200Y-85520721D01*
X132885756Y-85567089D01*
X132926417Y-85590791D01*
X132980546Y-85616639D01*
X133029689Y-85634829D01*
X133093165Y-85650551D01*
X133189331Y-85661541D01*
X133273900Y-85653365D01*
X133347219Y-85625805D01*
X133409637Y-85578642D01*
X133461502Y-85511658D01*
X133503160Y-85424633D01*
X133534962Y-85317350D01*
X133537545Y-85305009D01*
X133546000Y-85243772D01*
X133551663Y-85166692D01*
X133554576Y-85079002D01*
X133554783Y-84985934D01*
X133552330Y-84892720D01*
X133547261Y-84804594D01*
X133539619Y-84726788D01*
X133529448Y-84664533D01*
X133528167Y-84658666D01*
X133499126Y-84548121D01*
X133464610Y-84457575D01*
X133423456Y-84384953D01*
X133374499Y-84328181D01*
X133316574Y-84285184D01*
X133284620Y-84269615D01*
X133211784Y-84250722D01*
X133130443Y-84247465D01*
X133045319Y-84259389D01*
X132961133Y-84286040D01*
X132882608Y-84326962D01*
X132815200Y-84370530D01*
X132013485Y-84370530D01*
X132013493Y-84272245D01*
X132013689Y-82587378D01*
X132919017Y-82587378D01*
X132894585Y-82624067D01*
X132888318Y-82633647D01*
X132862208Y-82679981D01*
X132844469Y-82727102D01*
X132832908Y-82782251D01*
X132825331Y-82852667D01*
X132824839Y-82859650D01*
X132823062Y-82897641D01*
X132821444Y-82951576D01*
X132819999Y-83018703D01*
X132818740Y-83096271D01*
X132817680Y-83181528D01*
X132816829Y-83271724D01*
X132816203Y-83364107D01*
X132815812Y-83455925D01*
X132815670Y-83544427D01*
X132815790Y-83626862D01*
X132816183Y-83700479D01*
X132816862Y-83762526D01*
X132817841Y-83810251D01*
X132819132Y-83840904D01*
X132820747Y-83851733D01*
X132828957Y-83847333D01*
X132850647Y-83832362D01*
X132880014Y-83810448D01*
X132928879Y-83776236D01*
X133017125Y-83729714D01*
X133115916Y-83696046D01*
X133228510Y-83674231D01*
X133358164Y-83663265D01*
X133450670Y-83662219D01*
X133572011Y-83672014D01*
X133682099Y-83696174D01*
X133785389Y-83735785D01*
X133886338Y-83791932D01*
X133931503Y-83822883D01*
X134036911Y-83914115D01*
X134128538Y-84023106D01*
X134206332Y-84149726D01*
X134270241Y-84293845D01*
X134320214Y-84455332D01*
X134356198Y-84634059D01*
X134378143Y-84829895D01*
X134383900Y-84985934D01*
X134385994Y-85042711D01*
X134385268Y-85120158D01*
G37*
X134385268Y-85120158D02*
X134376689Y-85271594D01*
X134357833Y-85408283D01*
X134327837Y-85534276D01*
X134285836Y-85653625D01*
X134230969Y-85770381D01*
X134164167Y-85881179D01*
X134073363Y-85994739D01*
X133969708Y-86090211D01*
X133853887Y-86167073D01*
X133726586Y-86224797D01*
X133588489Y-86262858D01*
X133550793Y-86268666D01*
X133471752Y-86274396D01*
X133383629Y-86274583D01*
X133294236Y-86269539D01*
X133211384Y-86259578D01*
X133142887Y-86245012D01*
X133112035Y-86235364D01*
X133034730Y-86205123D01*
X132957679Y-86167617D01*
X132888200Y-86126614D01*
X132833615Y-86085879D01*
X132810916Y-86066505D01*
X132788201Y-86048662D01*
X132776779Y-86041778D01*
X132775537Y-86043424D01*
X132772728Y-86061205D01*
X132770776Y-86094370D01*
X132770045Y-86137733D01*
X132770045Y-86233689D01*
X131911896Y-86233689D01*
X131946161Y-86172974D01*
X131951355Y-86163868D01*
X131959715Y-86149249D01*
X131967288Y-86135173D01*
X131974112Y-86120540D01*
X131980227Y-86104249D01*
X131985673Y-86085198D01*
X131990487Y-86062286D01*
X131994708Y-86034413D01*
X131998377Y-86000478D01*
X132001531Y-85959379D01*
X132004211Y-85910015D01*
X132006454Y-85851286D01*
X132008299Y-85782090D01*
X132009787Y-85701326D01*
X132010955Y-85607894D01*
X132011844Y-85500692D01*
X132012491Y-85378620D01*
X132012936Y-85240576D01*
X132013218Y-85085459D01*
X132013375Y-84912168D01*
X132013448Y-84719603D01*
X132013474Y-84506662D01*
X132013485Y-84370530D01*
X132815200Y-84370530D01*
X132815200Y-85520721D01*
X132885756Y-85567089D01*
X132926417Y-85590791D01*
X132980546Y-85616639D01*
X133029689Y-85634829D01*
X133093165Y-85650551D01*
X133189331Y-85661541D01*
X133273900Y-85653365D01*
X133347219Y-85625805D01*
X133409637Y-85578642D01*
X133461502Y-85511658D01*
X133503160Y-85424633D01*
X133534962Y-85317350D01*
X133537545Y-85305009D01*
X133546000Y-85243772D01*
X133551663Y-85166692D01*
X133554576Y-85079002D01*
X133554783Y-84985934D01*
X133552330Y-84892720D01*
X133547261Y-84804594D01*
X133539619Y-84726788D01*
X133529448Y-84664533D01*
X133528167Y-84658666D01*
X133499126Y-84548121D01*
X133464610Y-84457575D01*
X133423456Y-84384953D01*
X133374499Y-84328181D01*
X133316574Y-84285184D01*
X133284620Y-84269615D01*
X133211784Y-84250722D01*
X133130443Y-84247465D01*
X133045319Y-84259389D01*
X132961133Y-84286040D01*
X132882608Y-84326962D01*
X132815200Y-84370530D01*
X132013485Y-84370530D01*
X132013493Y-84272245D01*
X132013689Y-82587378D01*
X132919017Y-82587378D01*
X132894585Y-82624067D01*
X132888318Y-82633647D01*
X132862208Y-82679981D01*
X132844469Y-82727102D01*
X132832908Y-82782251D01*
X132825331Y-82852667D01*
X132824839Y-82859650D01*
X132823062Y-82897641D01*
X132821444Y-82951576D01*
X132819999Y-83018703D01*
X132818740Y-83096271D01*
X132817680Y-83181528D01*
X132816829Y-83271724D01*
X132816203Y-83364107D01*
X132815812Y-83455925D01*
X132815670Y-83544427D01*
X132815790Y-83626862D01*
X132816183Y-83700479D01*
X132816862Y-83762526D01*
X132817841Y-83810251D01*
X132819132Y-83840904D01*
X132820747Y-83851733D01*
X132828957Y-83847333D01*
X132850647Y-83832362D01*
X132880014Y-83810448D01*
X132928879Y-83776236D01*
X133017125Y-83729714D01*
X133115916Y-83696046D01*
X133228510Y-83674231D01*
X133358164Y-83663265D01*
X133450670Y-83662219D01*
X133572011Y-83672014D01*
X133682099Y-83696174D01*
X133785389Y-83735785D01*
X133886338Y-83791932D01*
X133931503Y-83822883D01*
X134036911Y-83914115D01*
X134128538Y-84023106D01*
X134206332Y-84149726D01*
X134270241Y-84293845D01*
X134320214Y-84455332D01*
X134356198Y-84634059D01*
X134378143Y-84829895D01*
X134383900Y-84985934D01*
X134385994Y-85042711D01*
X134385268Y-85120158D01*
G36*
X140654562Y-81832850D02*
G01*
X140737313Y-81860053D01*
X140812406Y-81905484D01*
X140884298Y-81971302D01*
X140922846Y-82015567D01*
X140962256Y-82073961D01*
X140987446Y-82134586D01*
X141000861Y-82203865D01*
X141004948Y-82288222D01*
X141004669Y-82334307D01*
X141002460Y-82375450D01*
X140996894Y-82407582D01*
X140986586Y-82438122D01*
X140970148Y-82474489D01*
X140956200Y-82501728D01*
X140897665Y-82587429D01*
X140825619Y-82656617D01*
X140741947Y-82707741D01*
X140648531Y-82739250D01*
X140615434Y-82746225D01*
X140574960Y-82753094D01*
X140541999Y-82754919D01*
X140507698Y-82751947D01*
X140463200Y-82744426D01*
X140411934Y-82732002D01*
X140321434Y-82694112D01*
X140242345Y-82639836D01*
X140176528Y-82571770D01*
X140125840Y-82492511D01*
X140092140Y-82404654D01*
X140077286Y-82310795D01*
X140083136Y-82213530D01*
X140109399Y-82117220D01*
X140154418Y-82028494D01*
X140215373Y-81953419D01*
X140290184Y-81893641D01*
X140376768Y-81850809D01*
X140473043Y-81826571D01*
X140576928Y-81822576D01*
X140654562Y-81832850D01*
G37*
X140654562Y-81832850D02*
X140737313Y-81860053D01*
X140812406Y-81905484D01*
X140884298Y-81971302D01*
X140922846Y-82015567D01*
X140962256Y-82073961D01*
X140987446Y-82134586D01*
X141000861Y-82203865D01*
X141004948Y-82288222D01*
X141004669Y-82334307D01*
X141002460Y-82375450D01*
X140996894Y-82407582D01*
X140986586Y-82438122D01*
X140970148Y-82474489D01*
X140956200Y-82501728D01*
X140897665Y-82587429D01*
X140825619Y-82656617D01*
X140741947Y-82707741D01*
X140648531Y-82739250D01*
X140615434Y-82746225D01*
X140574960Y-82753094D01*
X140541999Y-82754919D01*
X140507698Y-82751947D01*
X140463200Y-82744426D01*
X140411934Y-82732002D01*
X140321434Y-82694112D01*
X140242345Y-82639836D01*
X140176528Y-82571770D01*
X140125840Y-82492511D01*
X140092140Y-82404654D01*
X140077286Y-82310795D01*
X140083136Y-82213530D01*
X140109399Y-82117220D01*
X140154418Y-82028494D01*
X140215373Y-81953419D01*
X140290184Y-81893641D01*
X140376768Y-81850809D01*
X140473043Y-81826571D01*
X140576928Y-81822576D01*
X140654562Y-81832850D01*
G36*
X144476870Y-87335041D02*
G01*
X144476622Y-87435956D01*
X144476583Y-87511617D01*
X144476328Y-87589526D01*
X144475684Y-87649536D01*
X144474480Y-87694264D01*
X144472543Y-87726326D01*
X144469703Y-87748340D01*
X144465788Y-87762924D01*
X144460626Y-87772694D01*
X144454045Y-87780267D01*
X144447077Y-87786501D01*
X144434079Y-87793801D01*
X144414931Y-87798554D01*
X144385528Y-87801292D01*
X144341762Y-87802545D01*
X144279528Y-87802845D01*
X144230582Y-87802469D01*
X144123722Y-87798041D01*
X144034494Y-87787953D01*
X143959696Y-87771365D01*
X143896125Y-87747435D01*
X143840579Y-87715321D01*
X143789854Y-87674182D01*
X143783866Y-87668330D01*
X143746999Y-87619821D01*
X143715899Y-87559013D01*
X143694417Y-87494769D01*
X143689136Y-87456026D01*
X143836353Y-87456026D01*
X143854635Y-87506961D01*
X143884305Y-87552878D01*
X143931002Y-87595287D01*
X143992392Y-87625090D01*
X144071538Y-87644226D01*
X144073028Y-87644464D01*
X144121999Y-87650256D01*
X144180693Y-87654396D01*
X144236734Y-87656004D01*
X144329867Y-87656089D01*
X144329867Y-87215822D01*
X144253667Y-87215808D01*
X144250639Y-87215817D01*
X144199519Y-87217782D01*
X144139416Y-87222507D01*
X144082708Y-87229035D01*
X144032750Y-87238331D01*
X143957998Y-87264600D01*
X143900489Y-87303899D01*
X143858988Y-87356933D01*
X143837771Y-87408200D01*
X143836353Y-87456026D01*
X143689136Y-87456026D01*
X143686400Y-87435956D01*
X143687679Y-87414739D01*
X143699991Y-87357323D01*
X143722520Y-87297413D01*
X143751750Y-87243363D01*
X143784167Y-87203532D01*
X143803708Y-87186510D01*
X143858420Y-87147322D01*
X143918723Y-87117193D01*
X143987919Y-87095232D01*
X144069311Y-87080550D01*
X144166200Y-87072259D01*
X144281889Y-87069467D01*
X144321371Y-87069066D01*
X144367082Y-87068653D01*
X144402883Y-87070457D01*
X144429974Y-87076739D01*
X144449556Y-87089759D01*
X144462830Y-87111778D01*
X144470998Y-87145055D01*
X144475260Y-87191851D01*
X144475857Y-87215822D01*
X144476817Y-87254427D01*
X144476870Y-87335041D01*
G37*
X144476870Y-87335041D02*
X144476622Y-87435956D01*
X144476583Y-87511617D01*
X144476328Y-87589526D01*
X144475684Y-87649536D01*
X144474480Y-87694264D01*
X144472543Y-87726326D01*
X144469703Y-87748340D01*
X144465788Y-87762924D01*
X144460626Y-87772694D01*
X144454045Y-87780267D01*
X144447077Y-87786501D01*
X144434079Y-87793801D01*
X144414931Y-87798554D01*
X144385528Y-87801292D01*
X144341762Y-87802545D01*
X144279528Y-87802845D01*
X144230582Y-87802469D01*
X144123722Y-87798041D01*
X144034494Y-87787953D01*
X143959696Y-87771365D01*
X143896125Y-87747435D01*
X143840579Y-87715321D01*
X143789854Y-87674182D01*
X143783866Y-87668330D01*
X143746999Y-87619821D01*
X143715899Y-87559013D01*
X143694417Y-87494769D01*
X143689136Y-87456026D01*
X143836353Y-87456026D01*
X143854635Y-87506961D01*
X143884305Y-87552878D01*
X143931002Y-87595287D01*
X143992392Y-87625090D01*
X144071538Y-87644226D01*
X144073028Y-87644464D01*
X144121999Y-87650256D01*
X144180693Y-87654396D01*
X144236734Y-87656004D01*
X144329867Y-87656089D01*
X144329867Y-87215822D01*
X144253667Y-87215808D01*
X144250639Y-87215817D01*
X144199519Y-87217782D01*
X144139416Y-87222507D01*
X144082708Y-87229035D01*
X144032750Y-87238331D01*
X143957998Y-87264600D01*
X143900489Y-87303899D01*
X143858988Y-87356933D01*
X143837771Y-87408200D01*
X143836353Y-87456026D01*
X143689136Y-87456026D01*
X143686400Y-87435956D01*
X143687679Y-87414739D01*
X143699991Y-87357323D01*
X143722520Y-87297413D01*
X143751750Y-87243363D01*
X143784167Y-87203532D01*
X143803708Y-87186510D01*
X143858420Y-87147322D01*
X143918723Y-87117193D01*
X143987919Y-87095232D01*
X144069311Y-87080550D01*
X144166200Y-87072259D01*
X144281889Y-87069467D01*
X144321371Y-87069066D01*
X144367082Y-87068653D01*
X144402883Y-87070457D01*
X144429974Y-87076739D01*
X144449556Y-87089759D01*
X144462830Y-87111778D01*
X144470998Y-87145055D01*
X144475260Y-87191851D01*
X144475857Y-87215822D01*
X144476817Y-87254427D01*
X144476870Y-87335041D01*
G36*
X143056734Y-87069083D02*
G01*
X143133831Y-87069275D01*
X143192777Y-87069860D01*
X143236364Y-87071051D01*
X143267383Y-87073064D01*
X143288625Y-87076112D01*
X143302882Y-87080409D01*
X143312945Y-87086172D01*
X143321606Y-87093612D01*
X143323391Y-87095293D01*
X143330635Y-87102832D01*
X143336277Y-87111850D01*
X143340517Y-87124984D01*
X143343556Y-87144872D01*
X143345594Y-87174151D01*
X143346830Y-87215458D01*
X143347465Y-87271431D01*
X143347700Y-87344707D01*
X143347734Y-87437923D01*
X143347697Y-87510713D01*
X143347448Y-87588889D01*
X143346812Y-87649103D01*
X143345615Y-87693982D01*
X143343684Y-87726152D01*
X143340846Y-87748239D01*
X143336927Y-87762870D01*
X143331755Y-87772670D01*
X143325156Y-87780267D01*
X143321822Y-87783444D01*
X143313300Y-87789554D01*
X143301298Y-87794229D01*
X143283087Y-87797659D01*
X143255940Y-87800036D01*
X143217129Y-87801552D01*
X143163924Y-87802398D01*
X143093598Y-87802765D01*
X143003422Y-87802845D01*
X142961314Y-87802833D01*
X142880167Y-87802651D01*
X142817675Y-87802098D01*
X142771109Y-87800982D01*
X142737741Y-87799113D01*
X142714844Y-87796298D01*
X142699688Y-87792346D01*
X142689546Y-87787066D01*
X142681689Y-87780267D01*
X142666963Y-87758667D01*
X142659111Y-87729467D01*
X142664610Y-87705560D01*
X142681689Y-87678667D01*
X142686668Y-87674059D01*
X142696443Y-87667772D01*
X142710559Y-87663146D01*
X142732054Y-87659930D01*
X142763968Y-87657870D01*
X142809342Y-87656712D01*
X142871213Y-87656202D01*
X142952622Y-87656089D01*
X143200978Y-87656089D01*
X143200978Y-87498045D01*
X143039801Y-87498045D01*
X143003983Y-87497899D01*
X142938359Y-87496176D01*
X142891118Y-87491741D01*
X142859383Y-87483637D01*
X142840277Y-87470906D01*
X142830923Y-87452592D01*
X142828445Y-87427738D01*
X142829242Y-87407482D01*
X142834494Y-87385656D01*
X142847288Y-87370304D01*
X142870628Y-87360309D01*
X142907517Y-87354553D01*
X142960959Y-87351919D01*
X143033958Y-87351289D01*
X143202105Y-87351289D01*
X143198719Y-87286378D01*
X143195334Y-87221467D01*
X142947617Y-87218418D01*
X142885026Y-87217539D01*
X142816565Y-87216095D01*
X142765661Y-87214164D01*
X142729408Y-87211514D01*
X142704901Y-87207910D01*
X142689235Y-87203121D01*
X142679506Y-87196913D01*
X142673491Y-87190510D01*
X142660482Y-87158828D01*
X142664043Y-87123142D01*
X142683818Y-87092084D01*
X142687069Y-87089161D01*
X142696049Y-87082810D01*
X142708153Y-87077957D01*
X142726159Y-87074403D01*
X142752847Y-87071946D01*
X142790997Y-87070385D01*
X142843386Y-87069518D01*
X142912794Y-87069146D01*
X143002001Y-87069067D01*
X143056734Y-87069083D01*
G37*
X143056734Y-87069083D02*
X143133831Y-87069275D01*
X143192777Y-87069860D01*
X143236364Y-87071051D01*
X143267383Y-87073064D01*
X143288625Y-87076112D01*
X143302882Y-87080409D01*
X143312945Y-87086172D01*
X143321606Y-87093612D01*
X143323391Y-87095293D01*
X143330635Y-87102832D01*
X143336277Y-87111850D01*
X143340517Y-87124984D01*
X143343556Y-87144872D01*
X143345594Y-87174151D01*
X143346830Y-87215458D01*
X143347465Y-87271431D01*
X143347700Y-87344707D01*
X143347734Y-87437923D01*
X143347697Y-87510713D01*
X143347448Y-87588889D01*
X143346812Y-87649103D01*
X143345615Y-87693982D01*
X143343684Y-87726152D01*
X143340846Y-87748239D01*
X143336927Y-87762870D01*
X143331755Y-87772670D01*
X143325156Y-87780267D01*
X143321822Y-87783444D01*
X143313300Y-87789554D01*
X143301298Y-87794229D01*
X143283087Y-87797659D01*
X143255940Y-87800036D01*
X143217129Y-87801552D01*
X143163924Y-87802398D01*
X143093598Y-87802765D01*
X143003422Y-87802845D01*
X142961314Y-87802833D01*
X142880167Y-87802651D01*
X142817675Y-87802098D01*
X142771109Y-87800982D01*
X142737741Y-87799113D01*
X142714844Y-87796298D01*
X142699688Y-87792346D01*
X142689546Y-87787066D01*
X142681689Y-87780267D01*
X142666963Y-87758667D01*
X142659111Y-87729467D01*
X142664610Y-87705560D01*
X142681689Y-87678667D01*
X142686668Y-87674059D01*
X142696443Y-87667772D01*
X142710559Y-87663146D01*
X142732054Y-87659930D01*
X142763968Y-87657870D01*
X142809342Y-87656712D01*
X142871213Y-87656202D01*
X142952622Y-87656089D01*
X143200978Y-87656089D01*
X143200978Y-87498045D01*
X143039801Y-87498045D01*
X143003983Y-87497899D01*
X142938359Y-87496176D01*
X142891118Y-87491741D01*
X142859383Y-87483637D01*
X142840277Y-87470906D01*
X142830923Y-87452592D01*
X142828445Y-87427738D01*
X142829242Y-87407482D01*
X142834494Y-87385656D01*
X142847288Y-87370304D01*
X142870628Y-87360309D01*
X142907517Y-87354553D01*
X142960959Y-87351919D01*
X143033958Y-87351289D01*
X143202105Y-87351289D01*
X143198719Y-87286378D01*
X143195334Y-87221467D01*
X142947617Y-87218418D01*
X142885026Y-87217539D01*
X142816565Y-87216095D01*
X142765661Y-87214164D01*
X142729408Y-87211514D01*
X142704901Y-87207910D01*
X142689235Y-87203121D01*
X142679506Y-87196913D01*
X142673491Y-87190510D01*
X142660482Y-87158828D01*
X142664043Y-87123142D01*
X142683818Y-87092084D01*
X142687069Y-87089161D01*
X142696049Y-87082810D01*
X142708153Y-87077957D01*
X142726159Y-87074403D01*
X142752847Y-87071946D01*
X142790997Y-87070385D01*
X142843386Y-87069518D01*
X142912794Y-87069146D01*
X143002001Y-87069067D01*
X143056734Y-87069083D01*
G36*
X142040853Y-87069936D02*
G01*
X142107100Y-87075366D01*
X142162400Y-87084964D01*
X142213283Y-87099825D01*
X142284595Y-87132958D01*
X142335752Y-87175640D01*
X142366575Y-87227705D01*
X142376889Y-87288983D01*
X142375952Y-87320232D01*
X142370160Y-87345029D01*
X142355353Y-87366699D01*
X142327380Y-87394049D01*
X142319402Y-87401378D01*
X142295692Y-87422281D01*
X142273298Y-87439251D01*
X142249265Y-87453205D01*
X142220637Y-87465056D01*
X142184460Y-87475720D01*
X142137780Y-87486111D01*
X142077641Y-87497146D01*
X142001090Y-87509738D01*
X141905171Y-87524804D01*
X141886808Y-87527838D01*
X141824478Y-87541458D01*
X141779260Y-87557192D01*
X141752976Y-87574263D01*
X141747447Y-87591897D01*
X141750068Y-87596168D01*
X141768000Y-87611233D01*
X141796126Y-87627867D01*
X141808926Y-87633857D01*
X141830224Y-87641050D01*
X141856610Y-87645827D01*
X141892454Y-87648646D01*
X141942128Y-87649964D01*
X142010000Y-87650237D01*
X142027785Y-87650164D01*
X142095406Y-87649053D01*
X142160345Y-87646828D01*
X142215970Y-87643762D01*
X142255651Y-87640127D01*
X142291162Y-87636059D01*
X142320415Y-87635276D01*
X142339315Y-87639876D01*
X142354429Y-87650551D01*
X142358085Y-87654144D01*
X142374427Y-87685918D01*
X142373107Y-87721572D01*
X142354150Y-87752190D01*
X142333780Y-87763796D01*
X142297796Y-87776491D01*
X142255372Y-87786541D01*
X142251922Y-87787140D01*
X142209252Y-87792356D01*
X142151866Y-87796730D01*
X142086849Y-87799818D01*
X142021289Y-87801177D01*
X142005057Y-87801218D01*
X141906744Y-87798741D01*
X141826692Y-87790735D01*
X141761513Y-87776203D01*
X141707817Y-87754149D01*
X141662216Y-87723576D01*
X141621323Y-87683486D01*
X141601202Y-87657259D01*
X141589576Y-87627712D01*
X141586667Y-87587995D01*
X141586808Y-87576026D01*
X141590681Y-87543345D01*
X141603065Y-87516819D01*
X141628230Y-87485971D01*
X141649442Y-87463831D01*
X141675838Y-87441285D01*
X141705555Y-87422917D01*
X141741785Y-87407661D01*
X141787717Y-87394449D01*
X141846544Y-87382214D01*
X141921456Y-87369889D01*
X142015645Y-87356406D01*
X142060957Y-87349396D01*
X142128911Y-87334837D01*
X142178047Y-87318337D01*
X142207614Y-87300439D01*
X142216864Y-87281685D01*
X142205048Y-87262615D01*
X142171416Y-87243771D01*
X142168370Y-87242557D01*
X142122011Y-87230479D01*
X142059361Y-87222279D01*
X141985927Y-87218119D01*
X141907217Y-87218161D01*
X141828739Y-87222569D01*
X141756000Y-87231505D01*
X141752073Y-87232154D01*
X141703257Y-87239861D01*
X141671005Y-87243473D01*
X141650008Y-87242876D01*
X141634954Y-87237954D01*
X141620534Y-87228596D01*
X141619364Y-87227725D01*
X141594847Y-87197351D01*
X141590054Y-87161850D01*
X141605860Y-87127269D01*
X141610406Y-87122813D01*
X141640020Y-87107673D01*
X141687002Y-87094550D01*
X141747306Y-87083750D01*
X141816888Y-87075581D01*
X141891703Y-87070351D01*
X141967706Y-87068367D01*
X142040853Y-87069936D01*
G37*
X142040853Y-87069936D02*
X142107100Y-87075366D01*
X142162400Y-87084964D01*
X142213283Y-87099825D01*
X142284595Y-87132958D01*
X142335752Y-87175640D01*
X142366575Y-87227705D01*
X142376889Y-87288983D01*
X142375952Y-87320232D01*
X142370160Y-87345029D01*
X142355353Y-87366699D01*
X142327380Y-87394049D01*
X142319402Y-87401378D01*
X142295692Y-87422281D01*
X142273298Y-87439251D01*
X142249265Y-87453205D01*
X142220637Y-87465056D01*
X142184460Y-87475720D01*
X142137780Y-87486111D01*
X142077641Y-87497146D01*
X142001090Y-87509738D01*
X141905171Y-87524804D01*
X141886808Y-87527838D01*
X141824478Y-87541458D01*
X141779260Y-87557192D01*
X141752976Y-87574263D01*
X141747447Y-87591897D01*
X141750068Y-87596168D01*
X141768000Y-87611233D01*
X141796126Y-87627867D01*
X141808926Y-87633857D01*
X141830224Y-87641050D01*
X141856610Y-87645827D01*
X141892454Y-87648646D01*
X141942128Y-87649964D01*
X142010000Y-87650237D01*
X142027785Y-87650164D01*
X142095406Y-87649053D01*
X142160345Y-87646828D01*
X142215970Y-87643762D01*
X142255651Y-87640127D01*
X142291162Y-87636059D01*
X142320415Y-87635276D01*
X142339315Y-87639876D01*
X142354429Y-87650551D01*
X142358085Y-87654144D01*
X142374427Y-87685918D01*
X142373107Y-87721572D01*
X142354150Y-87752190D01*
X142333780Y-87763796D01*
X142297796Y-87776491D01*
X142255372Y-87786541D01*
X142251922Y-87787140D01*
X142209252Y-87792356D01*
X142151866Y-87796730D01*
X142086849Y-87799818D01*
X142021289Y-87801177D01*
X142005057Y-87801218D01*
X141906744Y-87798741D01*
X141826692Y-87790735D01*
X141761513Y-87776203D01*
X141707817Y-87754149D01*
X141662216Y-87723576D01*
X141621323Y-87683486D01*
X141601202Y-87657259D01*
X141589576Y-87627712D01*
X141586667Y-87587995D01*
X141586808Y-87576026D01*
X141590681Y-87543345D01*
X141603065Y-87516819D01*
X141628230Y-87485971D01*
X141649442Y-87463831D01*
X141675838Y-87441285D01*
X141705555Y-87422917D01*
X141741785Y-87407661D01*
X141787717Y-87394449D01*
X141846544Y-87382214D01*
X141921456Y-87369889D01*
X142015645Y-87356406D01*
X142060957Y-87349396D01*
X142128911Y-87334837D01*
X142178047Y-87318337D01*
X142207614Y-87300439D01*
X142216864Y-87281685D01*
X142205048Y-87262615D01*
X142171416Y-87243771D01*
X142168370Y-87242557D01*
X142122011Y-87230479D01*
X142059361Y-87222279D01*
X141985927Y-87218119D01*
X141907217Y-87218161D01*
X141828739Y-87222569D01*
X141756000Y-87231505D01*
X141752073Y-87232154D01*
X141703257Y-87239861D01*
X141671005Y-87243473D01*
X141650008Y-87242876D01*
X141634954Y-87237954D01*
X141620534Y-87228596D01*
X141619364Y-87227725D01*
X141594847Y-87197351D01*
X141590054Y-87161850D01*
X141605860Y-87127269D01*
X141610406Y-87122813D01*
X141640020Y-87107673D01*
X141687002Y-87094550D01*
X141747306Y-87083750D01*
X141816888Y-87075581D01*
X141891703Y-87070351D01*
X141967706Y-87068367D01*
X142040853Y-87069936D01*
G36*
X141186137Y-87073463D02*
G01*
X141220291Y-87096776D01*
X141248000Y-87124485D01*
X141248000Y-87437537D01*
X141247959Y-87521567D01*
X141247701Y-87595789D01*
X141247030Y-87652541D01*
X141245752Y-87694512D01*
X141243673Y-87724389D01*
X141240599Y-87744861D01*
X141236334Y-87758614D01*
X141230684Y-87768337D01*
X141223455Y-87776717D01*
X141191991Y-87798181D01*
X141156826Y-87799947D01*
X141123822Y-87780267D01*
X141118516Y-87774398D01*
X141113066Y-87765314D01*
X141108900Y-87751973D01*
X141105846Y-87731757D01*
X141103732Y-87702049D01*
X141102386Y-87660232D01*
X141101638Y-87603689D01*
X141101314Y-87529802D01*
X141101245Y-87435956D01*
X141101284Y-87360294D01*
X141101539Y-87282385D01*
X141102183Y-87222375D01*
X141103387Y-87177648D01*
X141105324Y-87145585D01*
X141108164Y-87123571D01*
X141112079Y-87108987D01*
X141117242Y-87099218D01*
X141123822Y-87091645D01*
X141153006Y-87072623D01*
X141186137Y-87073463D01*
G37*
X141186137Y-87073463D02*
X141220291Y-87096776D01*
X141248000Y-87124485D01*
X141248000Y-87437537D01*
X141247959Y-87521567D01*
X141247701Y-87595789D01*
X141247030Y-87652541D01*
X141245752Y-87694512D01*
X141243673Y-87724389D01*
X141240599Y-87744861D01*
X141236334Y-87758614D01*
X141230684Y-87768337D01*
X141223455Y-87776717D01*
X141191991Y-87798181D01*
X141156826Y-87799947D01*
X141123822Y-87780267D01*
X141118516Y-87774398D01*
X141113066Y-87765314D01*
X141108900Y-87751973D01*
X141105846Y-87731757D01*
X141103732Y-87702049D01*
X141102386Y-87660232D01*
X141101638Y-87603689D01*
X141101314Y-87529802D01*
X141101245Y-87435956D01*
X141101284Y-87360294D01*
X141101539Y-87282385D01*
X141102183Y-87222375D01*
X141103387Y-87177648D01*
X141105324Y-87145585D01*
X141108164Y-87123571D01*
X141112079Y-87108987D01*
X141117242Y-87099218D01*
X141123822Y-87091645D01*
X141153006Y-87072623D01*
X141186137Y-87073463D01*
G36*
X140329150Y-87074179D02*
G01*
X140435157Y-87090494D01*
X140528969Y-87118545D01*
X140607765Y-87157452D01*
X140668719Y-87206334D01*
X140694789Y-87239195D01*
X140724297Y-87288394D01*
X140749568Y-87342252D01*
X140767218Y-87393419D01*
X140773858Y-87434544D01*
X140772298Y-87454259D01*
X140759357Y-87505592D01*
X140736194Y-87562118D01*
X140706302Y-87616035D01*
X140673173Y-87659539D01*
X140662977Y-87669887D01*
X140595892Y-87721662D01*
X140515766Y-87761554D01*
X140429556Y-87785956D01*
X140374592Y-87794068D01*
X140281139Y-87800673D01*
X140191358Y-87798586D01*
X140108869Y-87788340D01*
X140037286Y-87770470D01*
X139980228Y-87745508D01*
X139941311Y-87713988D01*
X139939936Y-87712012D01*
X139932848Y-87686786D01*
X139928609Y-87639535D01*
X139927200Y-87570071D01*
X139928060Y-87507838D01*
X139932780Y-87460456D01*
X139944470Y-87428353D01*
X139966239Y-87408800D01*
X140001198Y-87399070D01*
X140052456Y-87396433D01*
X140123123Y-87398161D01*
X140171743Y-87401173D01*
X140221939Y-87409366D01*
X140254433Y-87423419D01*
X140271892Y-87444654D01*
X140276983Y-87474394D01*
X140276877Y-87478936D01*
X140268175Y-87513730D01*
X140244165Y-87537147D01*
X140202900Y-87550347D01*
X140142431Y-87554489D01*
X140073956Y-87554489D01*
X140073956Y-87592841D01*
X140074006Y-87601976D01*
X140076227Y-87619227D01*
X140085494Y-87629521D01*
X140106875Y-87636459D01*
X140145436Y-87643641D01*
X140150910Y-87644575D01*
X140247860Y-87654478D01*
X140337852Y-87651559D01*
X140418760Y-87636829D01*
X140488459Y-87611299D01*
X140544824Y-87575978D01*
X140585729Y-87531879D01*
X140609051Y-87480012D01*
X140612663Y-87421388D01*
X140607145Y-87392494D01*
X140580461Y-87336604D01*
X140534273Y-87290945D01*
X140469291Y-87256108D01*
X140386229Y-87232690D01*
X140361555Y-87228241D01*
X140272226Y-87217742D01*
X140192419Y-87218971D01*
X140114326Y-87231906D01*
X140079183Y-87238696D01*
X140033745Y-87239713D01*
X140002430Y-87227182D01*
X139982277Y-87200395D01*
X139975893Y-87172148D01*
X139985379Y-87140924D01*
X139994708Y-87127499D01*
X140028943Y-87103967D01*
X140081565Y-87086095D01*
X140150081Y-87074599D01*
X140232000Y-87070192D01*
X140329150Y-87074179D01*
G37*
X140329150Y-87074179D02*
X140435157Y-87090494D01*
X140528969Y-87118545D01*
X140607765Y-87157452D01*
X140668719Y-87206334D01*
X140694789Y-87239195D01*
X140724297Y-87288394D01*
X140749568Y-87342252D01*
X140767218Y-87393419D01*
X140773858Y-87434544D01*
X140772298Y-87454259D01*
X140759357Y-87505592D01*
X140736194Y-87562118D01*
X140706302Y-87616035D01*
X140673173Y-87659539D01*
X140662977Y-87669887D01*
X140595892Y-87721662D01*
X140515766Y-87761554D01*
X140429556Y-87785956D01*
X140374592Y-87794068D01*
X140281139Y-87800673D01*
X140191358Y-87798586D01*
X140108869Y-87788340D01*
X140037286Y-87770470D01*
X139980228Y-87745508D01*
X139941311Y-87713988D01*
X139939936Y-87712012D01*
X139932848Y-87686786D01*
X139928609Y-87639535D01*
X139927200Y-87570071D01*
X139928060Y-87507838D01*
X139932780Y-87460456D01*
X139944470Y-87428353D01*
X139966239Y-87408800D01*
X140001198Y-87399070D01*
X140052456Y-87396433D01*
X140123123Y-87398161D01*
X140171743Y-87401173D01*
X140221939Y-87409366D01*
X140254433Y-87423419D01*
X140271892Y-87444654D01*
X140276983Y-87474394D01*
X140276877Y-87478936D01*
X140268175Y-87513730D01*
X140244165Y-87537147D01*
X140202900Y-87550347D01*
X140142431Y-87554489D01*
X140073956Y-87554489D01*
X140073956Y-87592841D01*
X140074006Y-87601976D01*
X140076227Y-87619227D01*
X140085494Y-87629521D01*
X140106875Y-87636459D01*
X140145436Y-87643641D01*
X140150910Y-87644575D01*
X140247860Y-87654478D01*
X140337852Y-87651559D01*
X140418760Y-87636829D01*
X140488459Y-87611299D01*
X140544824Y-87575978D01*
X140585729Y-87531879D01*
X140609051Y-87480012D01*
X140612663Y-87421388D01*
X140607145Y-87392494D01*
X140580461Y-87336604D01*
X140534273Y-87290945D01*
X140469291Y-87256108D01*
X140386229Y-87232690D01*
X140361555Y-87228241D01*
X140272226Y-87217742D01*
X140192419Y-87218971D01*
X140114326Y-87231906D01*
X140079183Y-87238696D01*
X140033745Y-87239713D01*
X140002430Y-87227182D01*
X139982277Y-87200395D01*
X139975893Y-87172148D01*
X139985379Y-87140924D01*
X139994708Y-87127499D01*
X140028943Y-87103967D01*
X140081565Y-87086095D01*
X140150081Y-87074599D01*
X140232000Y-87070192D01*
X140329150Y-87074179D01*
G36*
X139531893Y-87067892D02*
G01*
X139543301Y-87074029D01*
X139553850Y-87084691D01*
X139565136Y-87098811D01*
X139569589Y-87104772D01*
X139575588Y-87115268D01*
X139580167Y-87129093D01*
X139583519Y-87148998D01*
X139585833Y-87177732D01*
X139587301Y-87218045D01*
X139588113Y-87272687D01*
X139588460Y-87344407D01*
X139588534Y-87435956D01*
X139588511Y-87494486D01*
X139588292Y-87573573D01*
X139587683Y-87634516D01*
X139586492Y-87680062D01*
X139584529Y-87712963D01*
X139581603Y-87735968D01*
X139577523Y-87751826D01*
X139572097Y-87763286D01*
X139565136Y-87773100D01*
X139534708Y-87797493D01*
X139499765Y-87800372D01*
X139462784Y-87781282D01*
X139458600Y-87777807D01*
X139450424Y-87769279D01*
X139444364Y-87757728D01*
X139439981Y-87739896D01*
X139436839Y-87712524D01*
X139434502Y-87672354D01*
X139432531Y-87616128D01*
X139430489Y-87540589D01*
X139424845Y-87321458D01*
X139159556Y-87562099D01*
X139085722Y-87628875D01*
X139020542Y-87686991D01*
X138968348Y-87731949D01*
X138927273Y-87764871D01*
X138895455Y-87786879D01*
X138871026Y-87799094D01*
X138852124Y-87802639D01*
X138836883Y-87798636D01*
X138823439Y-87788207D01*
X138809927Y-87772474D01*
X138803682Y-87763991D01*
X138798050Y-87753413D01*
X138793839Y-87739255D01*
X138790887Y-87718803D01*
X138789032Y-87689342D01*
X138788113Y-87648161D01*
X138787968Y-87592544D01*
X138788435Y-87519779D01*
X138789352Y-87427151D01*
X138792667Y-87112199D01*
X138819318Y-87090633D01*
X138845383Y-87074441D01*
X138878241Y-87071670D01*
X138912772Y-87090623D01*
X138917084Y-87094208D01*
X138925216Y-87102737D01*
X138931245Y-87114329D01*
X138935606Y-87132235D01*
X138938734Y-87159706D01*
X138941063Y-87199994D01*
X138943029Y-87256351D01*
X138945067Y-87332029D01*
X138950711Y-87551878D01*
X139131334Y-87388084D01*
X139218072Y-87309451D01*
X139293843Y-87241058D01*
X139355980Y-87185708D01*
X139406078Y-87142338D01*
X139445735Y-87109881D01*
X139476548Y-87087273D01*
X139500114Y-87073448D01*
X139518030Y-87067343D01*
X139531893Y-87067892D01*
G37*
X139531893Y-87067892D02*
X139543301Y-87074029D01*
X139553850Y-87084691D01*
X139565136Y-87098811D01*
X139569589Y-87104772D01*
X139575588Y-87115268D01*
X139580167Y-87129093D01*
X139583519Y-87148998D01*
X139585833Y-87177732D01*
X139587301Y-87218045D01*
X139588113Y-87272687D01*
X139588460Y-87344407D01*
X139588534Y-87435956D01*
X139588511Y-87494486D01*
X139588292Y-87573573D01*
X139587683Y-87634516D01*
X139586492Y-87680062D01*
X139584529Y-87712963D01*
X139581603Y-87735968D01*
X139577523Y-87751826D01*
X139572097Y-87763286D01*
X139565136Y-87773100D01*
X139534708Y-87797493D01*
X139499765Y-87800372D01*
X139462784Y-87781282D01*
X139458600Y-87777807D01*
X139450424Y-87769279D01*
X139444364Y-87757728D01*
X139439981Y-87739896D01*
X139436839Y-87712524D01*
X139434502Y-87672354D01*
X139432531Y-87616128D01*
X139430489Y-87540589D01*
X139424845Y-87321458D01*
X139159556Y-87562099D01*
X139085722Y-87628875D01*
X139020542Y-87686991D01*
X138968348Y-87731949D01*
X138927273Y-87764871D01*
X138895455Y-87786879D01*
X138871026Y-87799094D01*
X138852124Y-87802639D01*
X138836883Y-87798636D01*
X138823439Y-87788207D01*
X138809927Y-87772474D01*
X138803682Y-87763991D01*
X138798050Y-87753413D01*
X138793839Y-87739255D01*
X138790887Y-87718803D01*
X138789032Y-87689342D01*
X138788113Y-87648161D01*
X138787968Y-87592544D01*
X138788435Y-87519779D01*
X138789352Y-87427151D01*
X138792667Y-87112199D01*
X138819318Y-87090633D01*
X138845383Y-87074441D01*
X138878241Y-87071670D01*
X138912772Y-87090623D01*
X138917084Y-87094208D01*
X138925216Y-87102737D01*
X138931245Y-87114329D01*
X138935606Y-87132235D01*
X138938734Y-87159706D01*
X138941063Y-87199994D01*
X138943029Y-87256351D01*
X138945067Y-87332029D01*
X138950711Y-87551878D01*
X139131334Y-87388084D01*
X139218072Y-87309451D01*
X139293843Y-87241058D01*
X139355980Y-87185708D01*
X139406078Y-87142338D01*
X139445735Y-87109881D01*
X139476548Y-87087273D01*
X139500114Y-87073448D01*
X139518030Y-87067343D01*
X139531893Y-87067892D01*
G36*
X138379803Y-87098811D02*
G01*
X138384752Y-87105495D01*
X138390596Y-87116066D01*
X138395057Y-87130153D01*
X138398321Y-87150478D01*
X138400574Y-87179765D01*
X138402002Y-87220737D01*
X138402792Y-87276117D01*
X138403129Y-87348628D01*
X138403200Y-87440994D01*
X138403171Y-87506911D01*
X138402939Y-87585228D01*
X138402319Y-87645496D01*
X138401126Y-87690393D01*
X138399179Y-87722602D01*
X138396294Y-87744800D01*
X138392288Y-87759669D01*
X138386979Y-87769889D01*
X138380183Y-87778138D01*
X138375668Y-87782795D01*
X138367438Y-87789282D01*
X138356078Y-87794194D01*
X138338810Y-87797749D01*
X138312855Y-87800167D01*
X138275436Y-87801667D01*
X138223773Y-87802467D01*
X138155089Y-87802787D01*
X138066606Y-87802845D01*
X138046931Y-87802838D01*
X137959906Y-87802572D01*
X137892254Y-87801806D01*
X137841299Y-87800392D01*
X137804367Y-87798180D01*
X137778783Y-87795022D01*
X137761871Y-87790769D01*
X137750957Y-87785271D01*
X137740464Y-87775285D01*
X137727203Y-87744168D01*
X137728386Y-87708280D01*
X137744550Y-87676733D01*
X137746739Y-87674457D01*
X137755427Y-87668189D01*
X137768769Y-87663523D01*
X137789752Y-87660227D01*
X137821363Y-87658068D01*
X137866590Y-87656814D01*
X137928420Y-87656231D01*
X138009839Y-87656089D01*
X138256445Y-87656089D01*
X138256445Y-87498045D01*
X138094006Y-87498045D01*
X138058338Y-87497964D01*
X138002568Y-87497167D01*
X137963430Y-87495162D01*
X137936976Y-87491521D01*
X137919259Y-87485812D01*
X137906329Y-87477607D01*
X137902686Y-87474423D01*
X137884278Y-87443448D01*
X137883644Y-87407112D01*
X137901183Y-87373493D01*
X137901245Y-87373424D01*
X137910916Y-87364798D01*
X137924209Y-87358742D01*
X137944917Y-87354811D01*
X137976828Y-87352556D01*
X138023734Y-87351531D01*
X138089424Y-87351289D01*
X138257571Y-87351289D01*
X138254186Y-87286378D01*
X138250800Y-87221467D01*
X138008723Y-87218414D01*
X137983707Y-87218086D01*
X137902087Y-87216606D01*
X137839768Y-87214222D01*
X137794154Y-87210227D01*
X137762652Y-87203913D01*
X137742667Y-87194574D01*
X137731604Y-87181503D01*
X137726869Y-87163992D01*
X137725867Y-87141335D01*
X137725873Y-87138970D01*
X137727027Y-87118939D01*
X137731824Y-87103146D01*
X137742632Y-87091090D01*
X137761817Y-87082267D01*
X137791745Y-87076175D01*
X137834783Y-87072311D01*
X137893299Y-87070174D01*
X137969657Y-87069260D01*
X138066226Y-87069067D01*
X138356406Y-87069067D01*
X138379803Y-87098811D01*
G37*
X138379803Y-87098811D02*
X138384752Y-87105495D01*
X138390596Y-87116066D01*
X138395057Y-87130153D01*
X138398321Y-87150478D01*
X138400574Y-87179765D01*
X138402002Y-87220737D01*
X138402792Y-87276117D01*
X138403129Y-87348628D01*
X138403200Y-87440994D01*
X138403171Y-87506911D01*
X138402939Y-87585228D01*
X138402319Y-87645496D01*
X138401126Y-87690393D01*
X138399179Y-87722602D01*
X138396294Y-87744800D01*
X138392288Y-87759669D01*
X138386979Y-87769889D01*
X138380183Y-87778138D01*
X138375668Y-87782795D01*
X138367438Y-87789282D01*
X138356078Y-87794194D01*
X138338810Y-87797749D01*
X138312855Y-87800167D01*
X138275436Y-87801667D01*
X138223773Y-87802467D01*
X138155089Y-87802787D01*
X138066606Y-87802845D01*
X138046931Y-87802838D01*
X137959906Y-87802572D01*
X137892254Y-87801806D01*
X137841299Y-87800392D01*
X137804367Y-87798180D01*
X137778783Y-87795022D01*
X137761871Y-87790769D01*
X137750957Y-87785271D01*
X137740464Y-87775285D01*
X137727203Y-87744168D01*
X137728386Y-87708280D01*
X137744550Y-87676733D01*
X137746739Y-87674457D01*
X137755427Y-87668189D01*
X137768769Y-87663523D01*
X137789752Y-87660227D01*
X137821363Y-87658068D01*
X137866590Y-87656814D01*
X137928420Y-87656231D01*
X138009839Y-87656089D01*
X138256445Y-87656089D01*
X138256445Y-87498045D01*
X138094006Y-87498045D01*
X138058338Y-87497964D01*
X138002568Y-87497167D01*
X137963430Y-87495162D01*
X137936976Y-87491521D01*
X137919259Y-87485812D01*
X137906329Y-87477607D01*
X137902686Y-87474423D01*
X137884278Y-87443448D01*
X137883644Y-87407112D01*
X137901183Y-87373493D01*
X137901245Y-87373424D01*
X137910916Y-87364798D01*
X137924209Y-87358742D01*
X137944917Y-87354811D01*
X137976828Y-87352556D01*
X138023734Y-87351531D01*
X138089424Y-87351289D01*
X138257571Y-87351289D01*
X138254186Y-87286378D01*
X138250800Y-87221467D01*
X138008723Y-87218414D01*
X137983707Y-87218086D01*
X137902087Y-87216606D01*
X137839768Y-87214222D01*
X137794154Y-87210227D01*
X137762652Y-87203913D01*
X137742667Y-87194574D01*
X137731604Y-87181503D01*
X137726869Y-87163992D01*
X137725867Y-87141335D01*
X137725873Y-87138970D01*
X137727027Y-87118939D01*
X137731824Y-87103146D01*
X137742632Y-87091090D01*
X137761817Y-87082267D01*
X137791745Y-87076175D01*
X137834783Y-87072311D01*
X137893299Y-87070174D01*
X137969657Y-87069260D01*
X138066226Y-87069067D01*
X138356406Y-87069067D01*
X138379803Y-87098811D01*
G36*
X137383163Y-87713175D02*
G01*
X137380235Y-87736095D01*
X137376158Y-87751897D01*
X137370743Y-87763319D01*
X137363803Y-87773100D01*
X137340406Y-87802845D01*
X137174714Y-87802251D01*
X137139918Y-87801953D01*
X137041435Y-87798522D01*
X136960473Y-87790839D01*
X136893379Y-87778282D01*
X136836496Y-87760227D01*
X136786169Y-87736052D01*
X136782810Y-87734135D01*
X136724998Y-87697417D01*
X136682644Y-87660451D01*
X136649828Y-87616966D01*
X136620628Y-87560689D01*
X136616346Y-87551073D01*
X136593769Y-87487887D01*
X136588034Y-87442333D01*
X136737279Y-87442333D01*
X136742892Y-87467061D01*
X136748618Y-87482939D01*
X136781548Y-87542847D01*
X136828886Y-87588600D01*
X136892652Y-87621736D01*
X136974861Y-87643790D01*
X136977655Y-87644292D01*
X137023940Y-87650255D01*
X137080336Y-87654483D01*
X137135274Y-87656089D01*
X137229156Y-87656089D01*
X137229156Y-87215822D01*
X137141667Y-87216270D01*
X137074747Y-87218746D01*
X136982349Y-87229998D01*
X136903034Y-87249537D01*
X136841060Y-87276511D01*
X136810120Y-87297240D01*
X136782000Y-87327006D01*
X136758660Y-87369434D01*
X136751533Y-87385400D01*
X136739709Y-87417902D01*
X136737279Y-87442333D01*
X136588034Y-87442333D01*
X136586797Y-87432509D01*
X136595399Y-87377483D01*
X136619541Y-87315351D01*
X136620337Y-87313658D01*
X136660788Y-87244236D01*
X136711473Y-87187638D01*
X136774198Y-87143070D01*
X136850774Y-87109741D01*
X136943009Y-87086861D01*
X137052712Y-87073636D01*
X137181691Y-87069275D01*
X137185263Y-87069270D01*
X137245283Y-87069410D01*
X137287214Y-87070446D01*
X137315328Y-87073040D01*
X137333897Y-87077853D01*
X137347194Y-87085544D01*
X137359491Y-87096776D01*
X137387200Y-87124485D01*
X137387200Y-87433920D01*
X137387175Y-87495526D01*
X137386950Y-87574311D01*
X137386332Y-87635021D01*
X137385775Y-87656089D01*
X137385133Y-87680396D01*
X137383163Y-87713175D01*
G37*
X137383163Y-87713175D02*
X137380235Y-87736095D01*
X137376158Y-87751897D01*
X137370743Y-87763319D01*
X137363803Y-87773100D01*
X137340406Y-87802845D01*
X137174714Y-87802251D01*
X137139918Y-87801953D01*
X137041435Y-87798522D01*
X136960473Y-87790839D01*
X136893379Y-87778282D01*
X136836496Y-87760227D01*
X136786169Y-87736052D01*
X136782810Y-87734135D01*
X136724998Y-87697417D01*
X136682644Y-87660451D01*
X136649828Y-87616966D01*
X136620628Y-87560689D01*
X136616346Y-87551073D01*
X136593769Y-87487887D01*
X136588034Y-87442333D01*
X136737279Y-87442333D01*
X136742892Y-87467061D01*
X136748618Y-87482939D01*
X136781548Y-87542847D01*
X136828886Y-87588600D01*
X136892652Y-87621736D01*
X136974861Y-87643790D01*
X136977655Y-87644292D01*
X137023940Y-87650255D01*
X137080336Y-87654483D01*
X137135274Y-87656089D01*
X137229156Y-87656089D01*
X137229156Y-87215822D01*
X137141667Y-87216270D01*
X137074747Y-87218746D01*
X136982349Y-87229998D01*
X136903034Y-87249537D01*
X136841060Y-87276511D01*
X136810120Y-87297240D01*
X136782000Y-87327006D01*
X136758660Y-87369434D01*
X136751533Y-87385400D01*
X136739709Y-87417902D01*
X136737279Y-87442333D01*
X136588034Y-87442333D01*
X136586797Y-87432509D01*
X136595399Y-87377483D01*
X136619541Y-87315351D01*
X136620337Y-87313658D01*
X136660788Y-87244236D01*
X136711473Y-87187638D01*
X136774198Y-87143070D01*
X136850774Y-87109741D01*
X136943009Y-87086861D01*
X137052712Y-87073636D01*
X137181691Y-87069275D01*
X137185263Y-87069270D01*
X137245283Y-87069410D01*
X137287214Y-87070446D01*
X137315328Y-87073040D01*
X137333897Y-87077853D01*
X137347194Y-87085544D01*
X137359491Y-87096776D01*
X137387200Y-87124485D01*
X137387200Y-87433920D01*
X137387175Y-87495526D01*
X137386950Y-87574311D01*
X137386332Y-87635021D01*
X137385775Y-87656089D01*
X137385133Y-87680396D01*
X137383163Y-87713175D01*
G36*
X134489702Y-87078478D02*
G01*
X134507663Y-87096989D01*
X134528263Y-87128071D01*
X134553095Y-87173756D01*
X134583750Y-87236078D01*
X134621820Y-87317071D01*
X134636454Y-87348454D01*
X134666203Y-87411638D01*
X134692297Y-87466244D01*
X134713292Y-87509290D01*
X134727739Y-87537793D01*
X134734191Y-87548770D01*
X134735550Y-87548189D01*
X134745542Y-87534242D01*
X134762833Y-87504704D01*
X134785430Y-87463087D01*
X134811338Y-87412903D01*
X134827311Y-87381414D01*
X134856261Y-87326061D01*
X134878749Y-87287044D01*
X134896965Y-87261566D01*
X134913096Y-87246831D01*
X134929330Y-87240042D01*
X134947857Y-87238400D01*
X134958360Y-87238875D01*
X134974476Y-87243082D01*
X134989790Y-87253946D01*
X135006388Y-87274219D01*
X135026357Y-87306654D01*
X135051783Y-87354004D01*
X135084752Y-87419022D01*
X135094485Y-87438277D01*
X135118943Y-87484946D01*
X135139178Y-87521109D01*
X135153311Y-87543497D01*
X135159460Y-87548845D01*
X135160827Y-87545573D01*
X135170202Y-87524664D01*
X135187062Y-87487725D01*
X135209979Y-87437874D01*
X135237520Y-87378226D01*
X135268255Y-87311898D01*
X135294970Y-87254677D01*
X135324593Y-87192688D01*
X135347664Y-87146949D01*
X135365643Y-87114908D01*
X135379990Y-87094014D01*
X135392166Y-87081718D01*
X135403632Y-87075466D01*
X135413042Y-87072574D01*
X135438147Y-87072425D01*
X135465290Y-87087768D01*
X135466590Y-87088753D01*
X135488674Y-87111388D01*
X135499723Y-87133613D01*
X135499769Y-87134253D01*
X135495228Y-87151915D01*
X135482364Y-87186481D01*
X135462605Y-87234826D01*
X135437381Y-87293825D01*
X135408119Y-87360355D01*
X135376250Y-87431291D01*
X135343201Y-87503507D01*
X135310401Y-87573880D01*
X135279280Y-87639285D01*
X135251265Y-87696597D01*
X135227786Y-87742692D01*
X135210272Y-87774446D01*
X135200151Y-87788733D01*
X135165743Y-87802102D01*
X135124046Y-87795741D01*
X135118681Y-87791044D01*
X135102852Y-87768893D01*
X135080650Y-87732132D01*
X135054233Y-87684415D01*
X135025760Y-87629393D01*
X134945986Y-87470150D01*
X134872799Y-87616742D01*
X134863103Y-87636032D01*
X134836125Y-87688380D01*
X134812096Y-87733170D01*
X134793332Y-87766154D01*
X134782146Y-87783089D01*
X134781000Y-87784332D01*
X134752879Y-87799619D01*
X134717817Y-87801302D01*
X134686776Y-87788733D01*
X134684350Y-87785884D01*
X134672090Y-87765259D01*
X134652352Y-87727708D01*
X134626448Y-87675880D01*
X134595685Y-87612423D01*
X134561375Y-87539985D01*
X134524825Y-87461216D01*
X134504585Y-87417093D01*
X134467812Y-87336365D01*
X134439355Y-87272687D01*
X134418331Y-87223752D01*
X134403854Y-87187257D01*
X134395039Y-87160895D01*
X134391004Y-87142361D01*
X134390862Y-87129352D01*
X134393730Y-87119561D01*
X134408387Y-87098678D01*
X134434990Y-87078377D01*
X134435745Y-87078035D01*
X134455335Y-87071034D01*
X134472790Y-87070504D01*
X134489702Y-87078478D01*
G37*
X134489702Y-87078478D02*
X134507663Y-87096989D01*
X134528263Y-87128071D01*
X134553095Y-87173756D01*
X134583750Y-87236078D01*
X134621820Y-87317071D01*
X134636454Y-87348454D01*
X134666203Y-87411638D01*
X134692297Y-87466244D01*
X134713292Y-87509290D01*
X134727739Y-87537793D01*
X134734191Y-87548770D01*
X134735550Y-87548189D01*
X134745542Y-87534242D01*
X134762833Y-87504704D01*
X134785430Y-87463087D01*
X134811338Y-87412903D01*
X134827311Y-87381414D01*
X134856261Y-87326061D01*
X134878749Y-87287044D01*
X134896965Y-87261566D01*
X134913096Y-87246831D01*
X134929330Y-87240042D01*
X134947857Y-87238400D01*
X134958360Y-87238875D01*
X134974476Y-87243082D01*
X134989790Y-87253946D01*
X135006388Y-87274219D01*
X135026357Y-87306654D01*
X135051783Y-87354004D01*
X135084752Y-87419022D01*
X135094485Y-87438277D01*
X135118943Y-87484946D01*
X135139178Y-87521109D01*
X135153311Y-87543497D01*
X135159460Y-87548845D01*
X135160827Y-87545573D01*
X135170202Y-87524664D01*
X135187062Y-87487725D01*
X135209979Y-87437874D01*
X135237520Y-87378226D01*
X135268255Y-87311898D01*
X135294970Y-87254677D01*
X135324593Y-87192688D01*
X135347664Y-87146949D01*
X135365643Y-87114908D01*
X135379990Y-87094014D01*
X135392166Y-87081718D01*
X135403632Y-87075466D01*
X135413042Y-87072574D01*
X135438147Y-87072425D01*
X135465290Y-87087768D01*
X135466590Y-87088753D01*
X135488674Y-87111388D01*
X135499723Y-87133613D01*
X135499769Y-87134253D01*
X135495228Y-87151915D01*
X135482364Y-87186481D01*
X135462605Y-87234826D01*
X135437381Y-87293825D01*
X135408119Y-87360355D01*
X135376250Y-87431291D01*
X135343201Y-87503507D01*
X135310401Y-87573880D01*
X135279280Y-87639285D01*
X135251265Y-87696597D01*
X135227786Y-87742692D01*
X135210272Y-87774446D01*
X135200151Y-87788733D01*
X135165743Y-87802102D01*
X135124046Y-87795741D01*
X135118681Y-87791044D01*
X135102852Y-87768893D01*
X135080650Y-87732132D01*
X135054233Y-87684415D01*
X135025760Y-87629393D01*
X134945986Y-87470150D01*
X134872799Y-87616742D01*
X134863103Y-87636032D01*
X134836125Y-87688380D01*
X134812096Y-87733170D01*
X134793332Y-87766154D01*
X134782146Y-87783089D01*
X134781000Y-87784332D01*
X134752879Y-87799619D01*
X134717817Y-87801302D01*
X134686776Y-87788733D01*
X134684350Y-87785884D01*
X134672090Y-87765259D01*
X134652352Y-87727708D01*
X134626448Y-87675880D01*
X134595685Y-87612423D01*
X134561375Y-87539985D01*
X134524825Y-87461216D01*
X134504585Y-87417093D01*
X134467812Y-87336365D01*
X134439355Y-87272687D01*
X134418331Y-87223752D01*
X134403854Y-87187257D01*
X134395039Y-87160895D01*
X134391004Y-87142361D01*
X134390862Y-87129352D01*
X134393730Y-87119561D01*
X134408387Y-87098678D01*
X134434990Y-87078377D01*
X134435745Y-87078035D01*
X134455335Y-87071034D01*
X134472790Y-87070504D01*
X134489702Y-87078478D01*
G36*
X134055406Y-87074949D02*
G01*
X134081127Y-87090647D01*
X134107778Y-87112227D01*
X134107778Y-87759684D01*
X134081127Y-87781264D01*
X134049767Y-87798739D01*
X134013966Y-87799575D01*
X133982528Y-87779082D01*
X133978652Y-87774416D01*
X133973186Y-87764949D01*
X133968979Y-87751267D01*
X133965867Y-87730748D01*
X133963687Y-87700768D01*
X133962276Y-87658704D01*
X133961471Y-87601932D01*
X133961107Y-87527830D01*
X133961022Y-87433773D01*
X133961022Y-87112227D01*
X133987673Y-87090647D01*
X134011386Y-87075877D01*
X134034400Y-87069067D01*
X134055406Y-87074949D01*
G37*
X134055406Y-87074949D02*
X134081127Y-87090647D01*
X134107778Y-87112227D01*
X134107778Y-87759684D01*
X134081127Y-87781264D01*
X134049767Y-87798739D01*
X134013966Y-87799575D01*
X133982528Y-87779082D01*
X133978652Y-87774416D01*
X133973186Y-87764949D01*
X133968979Y-87751267D01*
X133965867Y-87730748D01*
X133963687Y-87700768D01*
X133962276Y-87658704D01*
X133961471Y-87601932D01*
X133961107Y-87527830D01*
X133961022Y-87433773D01*
X133961022Y-87112227D01*
X133987673Y-87090647D01*
X134011386Y-87075877D01*
X134034400Y-87069067D01*
X134055406Y-87074949D01*
G36*
X133355767Y-87069068D02*
G01*
X133449890Y-87069158D01*
X133524405Y-87069498D01*
X133581811Y-87070239D01*
X133624611Y-87071535D01*
X133655304Y-87073537D01*
X133676391Y-87076396D01*
X133690373Y-87080266D01*
X133699750Y-87085298D01*
X133707022Y-87091645D01*
X133725828Y-87124362D01*
X133727275Y-87161939D01*
X133710917Y-87195178D01*
X133709557Y-87196631D01*
X133698354Y-87204992D01*
X133681252Y-87210547D01*
X133654082Y-87213840D01*
X133612678Y-87215418D01*
X133552873Y-87215822D01*
X133413511Y-87215822D01*
X133413511Y-87479589D01*
X133413436Y-87555417D01*
X133413028Y-87622083D01*
X133412046Y-87671867D01*
X133410250Y-87707784D01*
X133407399Y-87732850D01*
X133403253Y-87750081D01*
X133397571Y-87762492D01*
X133390114Y-87773100D01*
X133387824Y-87775906D01*
X133356646Y-87798548D01*
X133322266Y-87800112D01*
X133289334Y-87780267D01*
X133282355Y-87772191D01*
X133276883Y-87761593D01*
X133272863Y-87745749D01*
X133270072Y-87721773D01*
X133268288Y-87686774D01*
X133267289Y-87637864D01*
X133266852Y-87572154D01*
X133266756Y-87486756D01*
X133266756Y-87215822D01*
X133120820Y-87215822D01*
X133109720Y-87215821D01*
X133053202Y-87215596D01*
X133014358Y-87214457D01*
X132988965Y-87211657D01*
X132972804Y-87206450D01*
X132961652Y-87198089D01*
X132951289Y-87185826D01*
X132935441Y-87155138D01*
X132938543Y-87121358D01*
X132964187Y-87088822D01*
X132969129Y-87085105D01*
X132979338Y-87080269D01*
X132994764Y-87076506D01*
X133017886Y-87073683D01*
X133051183Y-87071670D01*
X133097137Y-87070333D01*
X133158228Y-87069542D01*
X133236935Y-87069163D01*
X133335740Y-87069067D01*
X133355767Y-87069068D01*
G37*
X133355767Y-87069068D02*
X133449890Y-87069158D01*
X133524405Y-87069498D01*
X133581811Y-87070239D01*
X133624611Y-87071535D01*
X133655304Y-87073537D01*
X133676391Y-87076396D01*
X133690373Y-87080266D01*
X133699750Y-87085298D01*
X133707022Y-87091645D01*
X133725828Y-87124362D01*
X133727275Y-87161939D01*
X133710917Y-87195178D01*
X133709557Y-87196631D01*
X133698354Y-87204992D01*
X133681252Y-87210547D01*
X133654082Y-87213840D01*
X133612678Y-87215418D01*
X133552873Y-87215822D01*
X133413511Y-87215822D01*
X133413511Y-87479589D01*
X133413436Y-87555417D01*
X133413028Y-87622083D01*
X133412046Y-87671867D01*
X133410250Y-87707784D01*
X133407399Y-87732850D01*
X133403253Y-87750081D01*
X133397571Y-87762492D01*
X133390114Y-87773100D01*
X133387824Y-87775906D01*
X133356646Y-87798548D01*
X133322266Y-87800112D01*
X133289334Y-87780267D01*
X133282355Y-87772191D01*
X133276883Y-87761593D01*
X133272863Y-87745749D01*
X133270072Y-87721773D01*
X133268288Y-87686774D01*
X133267289Y-87637864D01*
X133266852Y-87572154D01*
X133266756Y-87486756D01*
X133266756Y-87215822D01*
X133120820Y-87215822D01*
X133109720Y-87215821D01*
X133053202Y-87215596D01*
X133014358Y-87214457D01*
X132988965Y-87211657D01*
X132972804Y-87206450D01*
X132961652Y-87198089D01*
X132951289Y-87185826D01*
X132935441Y-87155138D01*
X132938543Y-87121358D01*
X132964187Y-87088822D01*
X132969129Y-87085105D01*
X132979338Y-87080269D01*
X132994764Y-87076506D01*
X133017886Y-87073683D01*
X133051183Y-87071670D01*
X133097137Y-87070333D01*
X133158228Y-87069542D01*
X133236935Y-87069163D01*
X133335740Y-87069067D01*
X133355767Y-87069068D01*
G36*
X132679734Y-87091645D02*
G01*
X132685366Y-87097835D01*
X132690456Y-87106041D01*
X132694543Y-87117817D01*
X132697721Y-87135276D01*
X132700087Y-87160530D01*
X132701738Y-87195690D01*
X132702769Y-87242869D01*
X132703277Y-87304177D01*
X132703359Y-87381727D01*
X132703109Y-87477631D01*
X132702625Y-87594000D01*
X132702557Y-87608175D01*
X132701971Y-87669937D01*
X132700648Y-87713620D01*
X132698103Y-87743001D01*
X132693848Y-87761855D01*
X132687396Y-87773959D01*
X132678262Y-87783089D01*
X132644804Y-87800506D01*
X132609856Y-87797604D01*
X132578953Y-87773100D01*
X132569944Y-87759897D01*
X132562492Y-87741361D01*
X132558124Y-87715333D01*
X132556069Y-87676787D01*
X132555556Y-87620700D01*
X132555556Y-87498045D01*
X132058845Y-87498045D01*
X132058845Y-87632871D01*
X132058772Y-87668662D01*
X132058009Y-87714992D01*
X132055833Y-87745526D01*
X132051536Y-87764557D01*
X132044412Y-87776374D01*
X132033755Y-87785271D01*
X132001504Y-87800341D01*
X131966217Y-87797673D01*
X131935486Y-87773100D01*
X131930831Y-87766845D01*
X131924895Y-87756321D01*
X131920364Y-87742391D01*
X131917048Y-87722317D01*
X131914759Y-87693360D01*
X131913308Y-87652780D01*
X131912505Y-87597840D01*
X131912162Y-87525799D01*
X131912089Y-87433920D01*
X131912089Y-87124485D01*
X131939798Y-87096776D01*
X131971177Y-87074533D01*
X132004406Y-87071844D01*
X132036267Y-87091645D01*
X132044553Y-87101415D01*
X132051965Y-87117307D01*
X132056302Y-87141275D01*
X132058338Y-87178148D01*
X132058845Y-87232756D01*
X132058845Y-87351289D01*
X132555556Y-87351289D01*
X132555556Y-87235776D01*
X132555994Y-87184078D01*
X132557958Y-87149554D01*
X132562474Y-87126978D01*
X132570567Y-87111126D01*
X132583265Y-87096776D01*
X132614643Y-87074533D01*
X132647872Y-87071844D01*
X132679734Y-87091645D01*
G37*
X132679734Y-87091645D02*
X132685366Y-87097835D01*
X132690456Y-87106041D01*
X132694543Y-87117817D01*
X132697721Y-87135276D01*
X132700087Y-87160530D01*
X132701738Y-87195690D01*
X132702769Y-87242869D01*
X132703277Y-87304177D01*
X132703359Y-87381727D01*
X132703109Y-87477631D01*
X132702625Y-87594000D01*
X132702557Y-87608175D01*
X132701971Y-87669937D01*
X132700648Y-87713620D01*
X132698103Y-87743001D01*
X132693848Y-87761855D01*
X132687396Y-87773959D01*
X132678262Y-87783089D01*
X132644804Y-87800506D01*
X132609856Y-87797604D01*
X132578953Y-87773100D01*
X132569944Y-87759897D01*
X132562492Y-87741361D01*
X132558124Y-87715333D01*
X132556069Y-87676787D01*
X132555556Y-87620700D01*
X132555556Y-87498045D01*
X132058845Y-87498045D01*
X132058845Y-87632871D01*
X132058772Y-87668662D01*
X132058009Y-87714992D01*
X132055833Y-87745526D01*
X132051536Y-87764557D01*
X132044412Y-87776374D01*
X132033755Y-87785271D01*
X132001504Y-87800341D01*
X131966217Y-87797673D01*
X131935486Y-87773100D01*
X131930831Y-87766845D01*
X131924895Y-87756321D01*
X131920364Y-87742391D01*
X131917048Y-87722317D01*
X131914759Y-87693360D01*
X131913308Y-87652780D01*
X131912505Y-87597840D01*
X131912162Y-87525799D01*
X131912089Y-87433920D01*
X131912089Y-87124485D01*
X131939798Y-87096776D01*
X131971177Y-87074533D01*
X132004406Y-87071844D01*
X132036267Y-87091645D01*
X132044553Y-87101415D01*
X132051965Y-87117307D01*
X132056302Y-87141275D01*
X132058338Y-87178148D01*
X132058845Y-87232756D01*
X132058845Y-87351289D01*
X132555556Y-87351289D01*
X132555556Y-87235776D01*
X132555994Y-87184078D01*
X132557958Y-87149554D01*
X132562474Y-87126978D01*
X132570567Y-87111126D01*
X132583265Y-87096776D01*
X132614643Y-87074533D01*
X132647872Y-87071844D01*
X132679734Y-87091645D01*
G36*
X136858918Y-104364026D02*
G01*
X136857622Y-104364496D01*
X136863667Y-104359000D01*
X136858918Y-104364026D01*
G37*
X136858918Y-104364026D02*
X136857622Y-104364496D01*
X136863667Y-104359000D01*
X136858918Y-104364026D01*
G36*
X136708444Y-104500111D02*
G01*
X136553222Y-104641222D01*
X136690995Y-104495368D01*
X136696551Y-104489526D01*
X136768476Y-104420721D01*
X136828050Y-104375216D01*
X136857622Y-104364496D01*
X136708444Y-104500111D01*
G37*
X136708444Y-104500111D02*
X136553222Y-104641222D01*
X136690995Y-104495368D01*
X136696551Y-104489526D01*
X136768476Y-104420721D01*
X136828050Y-104375216D01*
X136857622Y-104364496D01*
X136708444Y-104500111D01*
G36*
X137120526Y-107823786D02*
G01*
X137119253Y-107822898D01*
X137079877Y-107827726D01*
X136994951Y-107856053D01*
X136868875Y-107906142D01*
X136706054Y-107976252D01*
X136510889Y-108064645D01*
X136498271Y-108070420D01*
X136304056Y-108142880D01*
X136129889Y-108173699D01*
X136036886Y-108184295D01*
X135898516Y-108209414D01*
X135769275Y-108241534D01*
X135577995Y-108298098D01*
X135409442Y-108168400D01*
X135325692Y-108101082D01*
X135272161Y-108047128D01*
X135247102Y-107999936D01*
X135240889Y-107946853D01*
X135241265Y-107934457D01*
X135272900Y-107835725D01*
X135303798Y-107802111D01*
X137131778Y-107802111D01*
X137145889Y-107816222D01*
X137160000Y-107802111D01*
X137145889Y-107788000D01*
X137131778Y-107802111D01*
X135303798Y-107802111D01*
X135347585Y-107754476D01*
X135454210Y-107696959D01*
X135581666Y-107669420D01*
X135718844Y-107678104D01*
X135750889Y-107681759D01*
X135864366Y-107669506D01*
X136015232Y-107627129D01*
X136197311Y-107556591D01*
X136404431Y-107459858D01*
X136573269Y-107350743D01*
X136736501Y-107189550D01*
X136863654Y-106997803D01*
X136869503Y-106985445D01*
X136898234Y-106906481D01*
X136931140Y-106795655D01*
X136963227Y-106671921D01*
X136989499Y-106554236D01*
X137004962Y-106461555D01*
X137009894Y-106434859D01*
X137030450Y-106354757D01*
X137062352Y-106245768D01*
X137101153Y-106123514D01*
X137124975Y-106048460D01*
X137155312Y-105941991D01*
X137173636Y-105862427D01*
X137176635Y-105822955D01*
X137159457Y-105810705D01*
X137095562Y-105799940D01*
X136997283Y-105798000D01*
X136877384Y-105804469D01*
X136748627Y-105818931D01*
X136623778Y-105840971D01*
X136560611Y-105854590D01*
X136424621Y-105883129D01*
X136331958Y-105900759D01*
X136274106Y-105908779D01*
X136242550Y-105908487D01*
X136228775Y-105901180D01*
X136214033Y-105891804D01*
X136156406Y-105869920D01*
X136073444Y-105845860D01*
X135992274Y-105817286D01*
X135877501Y-105761861D01*
X135770055Y-105696358D01*
X135762043Y-105690784D01*
X135684017Y-105638780D01*
X135628757Y-105605998D01*
X135607778Y-105599324D01*
X135607649Y-105599896D01*
X135586290Y-105587606D01*
X135535452Y-105545205D01*
X135465373Y-105481182D01*
X135462468Y-105478444D01*
X135389230Y-105412255D01*
X135332053Y-105365621D01*
X135303095Y-105348485D01*
X135283360Y-105338134D01*
X135232977Y-105297228D01*
X135167050Y-105235596D01*
X135120910Y-105190676D01*
X135037389Y-105111629D01*
X134969495Y-105049958D01*
X134953426Y-105035531D01*
X134877046Y-104960550D01*
X134803444Y-104880625D01*
X134774568Y-104846231D01*
X134747682Y-104806122D01*
X134731479Y-104760540D01*
X134723476Y-104696742D01*
X134721188Y-104601988D01*
X134722132Y-104463537D01*
X134722660Y-104418407D01*
X134725580Y-104291805D01*
X134731805Y-104206137D01*
X134743497Y-104149332D01*
X134762820Y-104109312D01*
X134791939Y-104074004D01*
X134828475Y-104041982D01*
X134898132Y-104018248D01*
X134982758Y-104037232D01*
X135092280Y-104099786D01*
X135093996Y-104100947D01*
X135157194Y-104149519D01*
X135194824Y-104200378D01*
X135215612Y-104271576D01*
X135228282Y-104381163D01*
X135230302Y-104402641D01*
X135242380Y-104470030D01*
X135268663Y-104525948D01*
X135318849Y-104586289D01*
X135402634Y-104666949D01*
X135421528Y-104684334D01*
X135498376Y-104752751D01*
X135557230Y-104801572D01*
X135586611Y-104821174D01*
X135609995Y-104831838D01*
X135654045Y-104868771D01*
X135690824Y-104912645D01*
X135701288Y-104943195D01*
X135704186Y-104962262D01*
X135744063Y-104990614D01*
X135810576Y-105013080D01*
X135886307Y-105022222D01*
X135952153Y-105017979D01*
X136022893Y-104999406D01*
X136100603Y-104960513D01*
X136196838Y-104895370D01*
X136323153Y-104798046D01*
X136384465Y-104750577D01*
X136470120Y-104688941D01*
X136533309Y-104649385D01*
X136563526Y-104638869D01*
X136564923Y-104639404D01*
X136596962Y-104623592D01*
X136654065Y-104575968D01*
X136724865Y-104505899D01*
X136858918Y-104364026D01*
X136862862Y-104362596D01*
X136886373Y-104363265D01*
X136930570Y-104335178D01*
X136961301Y-104311488D01*
X137033604Y-104272824D01*
X137125592Y-104233686D01*
X137200222Y-104205648D01*
X137277431Y-104173400D01*
X137331749Y-104139157D01*
X137367299Y-104093848D01*
X137388203Y-104028403D01*
X137398582Y-103933754D01*
X137402560Y-103800829D01*
X137404259Y-103620560D01*
X137405618Y-103502894D01*
X137409778Y-103312852D01*
X137416943Y-103162921D01*
X137428281Y-103042350D01*
X137444963Y-102940383D01*
X137468159Y-102846268D01*
X137499038Y-102749252D01*
X137506375Y-102727709D01*
X137529889Y-102647798D01*
X137537885Y-102580526D01*
X137531064Y-102503404D01*
X137510130Y-102393944D01*
X137484137Y-102282938D01*
X137452835Y-102171445D01*
X137424533Y-102090559D01*
X137418722Y-102076612D01*
X137389318Y-101994851D01*
X137373449Y-101931889D01*
X137373433Y-101931771D01*
X137361982Y-101864283D01*
X137344914Y-101781356D01*
X137328423Y-101724338D01*
X137301349Y-101699536D01*
X137249560Y-101705903D01*
X137187711Y-101716407D01*
X137088717Y-101727190D01*
X136976788Y-101735346D01*
X136876969Y-101743825D01*
X136725287Y-101764181D01*
X136590572Y-101789684D01*
X136492154Y-101809109D01*
X136408502Y-101819237D01*
X136361042Y-101817157D01*
X136343740Y-101815861D01*
X136277910Y-101826709D01*
X136180750Y-101852109D01*
X136066369Y-101888639D01*
X136030787Y-101900821D01*
X135923566Y-101934463D01*
X135827276Y-101957192D01*
X135725073Y-101971602D01*
X135600115Y-101980289D01*
X135435559Y-101985850D01*
X135057582Y-101995524D01*
X134969660Y-101902299D01*
X134956240Y-101888023D01*
X134920099Y-101845738D01*
X134898876Y-101804823D01*
X134889512Y-101750842D01*
X134888944Y-101669355D01*
X134894113Y-101545926D01*
X134896796Y-101493043D01*
X134905293Y-101381973D01*
X134917827Y-101309829D01*
X134937364Y-101263783D01*
X134966865Y-101231009D01*
X134967243Y-101230686D01*
X135036278Y-101194471D01*
X135127010Y-101195694D01*
X135135846Y-101197147D01*
X135211544Y-101209315D01*
X135261518Y-101216888D01*
X135274090Y-101223959D01*
X135308238Y-101270099D01*
X135342963Y-101343926D01*
X135347211Y-101354928D01*
X135380908Y-101426224D01*
X135417306Y-101458589D01*
X135471306Y-101466222D01*
X135499540Y-101463164D01*
X135590928Y-101435568D01*
X135709227Y-101384293D01*
X135841088Y-101315484D01*
X135973161Y-101235284D01*
X136000504Y-101218357D01*
X136041174Y-101199997D01*
X136046146Y-101210727D01*
X136052426Y-101215196D01*
X136097486Y-101199574D01*
X136176179Y-101163986D01*
X136279825Y-101112942D01*
X136399739Y-101050951D01*
X136527239Y-100982522D01*
X136653643Y-100912163D01*
X136770268Y-100844384D01*
X136868432Y-100783695D01*
X136958610Y-100718259D01*
X137056550Y-100630845D01*
X137124741Y-100550770D01*
X137143108Y-100522284D01*
X137174798Y-100462382D01*
X137192175Y-100399752D01*
X137198965Y-100316517D01*
X137198889Y-100194803D01*
X137201197Y-100050739D01*
X137215463Y-99938785D01*
X137243749Y-99854330D01*
X137264418Y-99809301D01*
X137276853Y-99760057D01*
X137261890Y-99715291D01*
X137216189Y-99650266D01*
X137192179Y-99620098D01*
X137147670Y-99575725D01*
X137121823Y-99566473D01*
X137112769Y-99569974D01*
X137103555Y-99542784D01*
X137103555Y-99542707D01*
X137083401Y-99490166D01*
X137032705Y-99419310D01*
X136965851Y-99345928D01*
X136897219Y-99285809D01*
X136841193Y-99254742D01*
X136826543Y-99248954D01*
X136763250Y-99203956D01*
X136674276Y-99121942D01*
X136565627Y-99009052D01*
X136443311Y-98871425D01*
X136313333Y-98715203D01*
X136246415Y-98633458D01*
X136150941Y-98519619D01*
X136066389Y-98421529D01*
X136009377Y-98353391D01*
X135963885Y-98291539D01*
X135946444Y-98257113D01*
X135931705Y-98228673D01*
X135886538Y-98171374D01*
X135821553Y-98100357D01*
X135762946Y-98036942D01*
X135720580Y-97984315D01*
X135709000Y-97959518D01*
X135709303Y-97959098D01*
X135695293Y-97932836D01*
X135650453Y-97879018D01*
X135583995Y-97808757D01*
X135513316Y-97734528D01*
X135459944Y-97672881D01*
X135435493Y-97637222D01*
X135418092Y-97609275D01*
X135370648Y-97550324D01*
X135305862Y-97478174D01*
X135252606Y-97417881D01*
X135212383Y-97363560D01*
X135202878Y-97336752D01*
X135204483Y-97326165D01*
X135189035Y-97277453D01*
X135154051Y-97206838D01*
X135132581Y-97170560D01*
X135096720Y-97119601D01*
X135076892Y-97105256D01*
X135066701Y-97102202D01*
X135030938Y-97066897D01*
X134981591Y-97004276D01*
X134955222Y-96965939D01*
X134919354Y-96895371D01*
X134901552Y-96815092D01*
X134895166Y-96701836D01*
X134894784Y-96606171D01*
X134907808Y-96420938D01*
X134941567Y-96284579D01*
X134997653Y-96193970D01*
X135077662Y-96145990D01*
X135183187Y-96137515D01*
X135269947Y-96154600D01*
X135331008Y-96197754D01*
X135364718Y-96276149D01*
X135378440Y-96399672D01*
X135384527Y-96471427D01*
X135404063Y-96582662D01*
X135430693Y-96667783D01*
X135458990Y-96723005D01*
X135515939Y-96808649D01*
X135573405Y-96870589D01*
X135619753Y-96894849D01*
X135649047Y-96911990D01*
X135703946Y-96961781D01*
X135770431Y-97032692D01*
X135832149Y-97096790D01*
X135911140Y-97164758D01*
X135974684Y-97204674D01*
X135981027Y-97207383D01*
X136031580Y-97237316D01*
X136044639Y-97262054D01*
X136043568Y-97267686D01*
X136065139Y-97303280D01*
X136116929Y-97350501D01*
X136178108Y-97399256D01*
X136265896Y-97472175D01*
X136357341Y-97550389D01*
X136363875Y-97556043D01*
X136444009Y-97620948D01*
X136510027Y-97666963D01*
X136548199Y-97684444D01*
X136585113Y-97696567D01*
X136639623Y-97734979D01*
X136673106Y-97759334D01*
X136751049Y-97806499D01*
X136856539Y-97864937D01*
X136976555Y-97927219D01*
X137258778Y-98068924D01*
X137583333Y-98075942D01*
X137662902Y-98077945D01*
X137855105Y-98084305D01*
X138055745Y-98092559D01*
X138232444Y-98101435D01*
X138281440Y-98104197D01*
X138473909Y-98114006D01*
X138621917Y-98118609D01*
X138735163Y-98117211D01*
X138823349Y-98109016D01*
X138896175Y-98093229D01*
X138963342Y-98069056D01*
X139034552Y-98035701D01*
X139093832Y-98003813D01*
X139291023Y-97865573D01*
X139467005Y-97694269D01*
X139604162Y-97506277D01*
X139622656Y-97474296D01*
X139666756Y-97388676D01*
X139692887Y-97310956D01*
X139706759Y-97219692D01*
X139714083Y-97093436D01*
X139715851Y-97053889D01*
X139723083Y-96942856D01*
X139732007Y-96856044D01*
X139741091Y-96809555D01*
X139745423Y-96802438D01*
X139787448Y-96761646D01*
X139861383Y-96704307D01*
X139954543Y-96640469D01*
X139990377Y-96617873D01*
X140124692Y-96548486D01*
X140152259Y-96542148D01*
X140165667Y-96555555D01*
X140179778Y-96541444D01*
X140175206Y-96536872D01*
X140241131Y-96521715D01*
X140351685Y-96538843D01*
X140468348Y-96601157D01*
X140603111Y-96709940D01*
X140656687Y-96754694D01*
X140761427Y-96830669D01*
X140857111Y-96888138D01*
X140926355Y-96929088D01*
X141008298Y-96986240D01*
X141090209Y-97049584D01*
X141160421Y-97109647D01*
X141207266Y-97156954D01*
X141219077Y-97182034D01*
X141217335Y-97185937D01*
X141225181Y-97225047D01*
X141251203Y-97285966D01*
X141285652Y-97350126D01*
X141318777Y-97398960D01*
X141340828Y-97413899D01*
X141355239Y-97415814D01*
X141365111Y-97453982D01*
X141367244Y-97479343D01*
X141384727Y-97508715D01*
X141428248Y-97523245D01*
X141507761Y-97525278D01*
X141633222Y-97517159D01*
X141751356Y-97508930D01*
X141856210Y-97507290D01*
X141918269Y-97516653D01*
X141944780Y-97538342D01*
X141942993Y-97573679D01*
X141938974Y-97611297D01*
X141969987Y-97628000D01*
X141991270Y-97631799D01*
X142014222Y-97658594D01*
X142005744Y-97674269D01*
X141964137Y-97726334D01*
X141893765Y-97806011D01*
X141801267Y-97905856D01*
X141693281Y-98018427D01*
X141613434Y-98101605D01*
X141469273Y-98261347D01*
X141369459Y-98388147D01*
X141313451Y-98482665D01*
X141292195Y-98535954D01*
X141278396Y-98586595D01*
X141285816Y-98598347D01*
X141300553Y-98594654D01*
X141295128Y-98621179D01*
X141264710Y-98676609D01*
X141215228Y-98752053D01*
X141152608Y-98838620D01*
X141082779Y-98927417D01*
X141011669Y-99009553D01*
X140963963Y-99061762D01*
X140818639Y-99227216D01*
X140705679Y-99368545D01*
X140617250Y-99496004D01*
X140545519Y-99619848D01*
X140538610Y-99633015D01*
X140502157Y-99706824D01*
X140480585Y-99768470D01*
X140471244Y-99835063D01*
X140471484Y-99923716D01*
X140478655Y-100051539D01*
X140482478Y-100104567D01*
X140496089Y-100243866D01*
X140513015Y-100371192D01*
X140530467Y-100464333D01*
X140540180Y-100508915D01*
X140560453Y-100636755D01*
X140571571Y-100758958D01*
X140575548Y-100819846D01*
X140585429Y-100899000D01*
X140597314Y-100942403D01*
X140606935Y-100977007D01*
X140616611Y-101053549D01*
X140622737Y-101151840D01*
X140628164Y-101236828D01*
X140641183Y-101343294D01*
X140657711Y-101419952D01*
X140673179Y-101485421D01*
X140689735Y-101589837D01*
X140702011Y-101704192D01*
X140702071Y-101704948D01*
X140713447Y-101807412D01*
X140728233Y-101888499D01*
X140743247Y-101930713D01*
X140746184Y-101935509D01*
X140760423Y-101987086D01*
X140774104Y-102075540D01*
X140784622Y-102184874D01*
X140786727Y-102212288D01*
X140797885Y-102314728D01*
X140811277Y-102390209D01*
X140824453Y-102424019D01*
X140833845Y-102440894D01*
X140846419Y-102501935D01*
X140853361Y-102588540D01*
X140858602Y-102664437D01*
X140874518Y-102794224D01*
X140896316Y-102919111D01*
X140913448Y-103010465D01*
X140922847Y-103081786D01*
X140921706Y-103113775D01*
X140920362Y-103117169D01*
X140920499Y-103160951D01*
X140928343Y-103242530D01*
X140942619Y-103347648D01*
X140949190Y-103397963D01*
X140961757Y-103548147D01*
X140970488Y-103733814D01*
X140975383Y-103941849D01*
X140976445Y-104159139D01*
X140973676Y-104372571D01*
X140967077Y-104569029D01*
X140956651Y-104735401D01*
X140942399Y-104858572D01*
X140939515Y-104876401D01*
X140925095Y-104986939D01*
X140918560Y-105078765D01*
X140921318Y-105133525D01*
X140923992Y-105156438D01*
X140917433Y-105232594D01*
X140896746Y-105322828D01*
X140888175Y-105352650D01*
X140858791Y-105526816D01*
X140874393Y-105682598D01*
X140936139Y-105835051D01*
X140946135Y-105852383D01*
X140998181Y-105930026D01*
X141068809Y-106023851D01*
X141149317Y-106123606D01*
X141231003Y-106219040D01*
X141305163Y-106299899D01*
X141363095Y-106355933D01*
X141396096Y-106376889D01*
X141417180Y-106384351D01*
X141475753Y-106414697D01*
X141553736Y-106460435D01*
X141609648Y-106492654D01*
X141696483Y-106535339D01*
X141760222Y-106557875D01*
X141799916Y-106567596D01*
X141887311Y-106593546D01*
X141986000Y-106626415D01*
X142208669Y-106695878D01*
X142581936Y-106770676D01*
X142945555Y-106789934D01*
X143035154Y-106786474D01*
X143154638Y-106777504D01*
X143247302Y-106765327D01*
X143298333Y-106751553D01*
X143393247Y-106700824D01*
X143492036Y-106652156D01*
X143572412Y-106616729D01*
X143623969Y-106599092D01*
X143636303Y-106603794D01*
X143635322Y-106605406D01*
X143630928Y-106626244D01*
X143657187Y-106616361D01*
X143703769Y-106583095D01*
X143760342Y-106533783D01*
X143816574Y-106475763D01*
X143844399Y-106443433D01*
X143892549Y-106381075D01*
X143903091Y-106353841D01*
X143874810Y-106364062D01*
X143868147Y-106364347D01*
X143873411Y-106334023D01*
X143900676Y-106272693D01*
X143959488Y-106125373D01*
X143984113Y-105985589D01*
X143972876Y-105866519D01*
X143925233Y-105779140D01*
X143891147Y-105739709D01*
X143831874Y-105659797D01*
X143771498Y-105569172D01*
X143722051Y-105486170D01*
X143695563Y-105429124D01*
X143692043Y-105410669D01*
X143711048Y-105347847D01*
X143774332Y-105298459D01*
X143831104Y-105279673D01*
X143820444Y-105290333D01*
X143834555Y-105304444D01*
X143848667Y-105290333D01*
X143836290Y-105277957D01*
X143872871Y-105265852D01*
X143997642Y-105253374D01*
X144139623Y-105264373D01*
X144183472Y-105277443D01*
X144280765Y-105333908D01*
X144384774Y-105420884D01*
X144482739Y-105525547D01*
X144561898Y-105635070D01*
X144609493Y-105736629D01*
X144617635Y-105763381D01*
X144645380Y-105845465D01*
X144668126Y-105901005D01*
X144670157Y-105906449D01*
X144673615Y-105963083D01*
X144666986Y-106056723D01*
X144652421Y-106172307D01*
X144632070Y-106294770D01*
X144608084Y-106409047D01*
X144582613Y-106500075D01*
X144567416Y-106563454D01*
X144569508Y-106604567D01*
X144571278Y-106617522D01*
X144554362Y-106672885D01*
X144514996Y-106754670D01*
X144460503Y-106849677D01*
X144398206Y-106944705D01*
X144335427Y-107026552D01*
X144303235Y-107059317D01*
X144235875Y-107116789D01*
X144150888Y-107182060D01*
X144057224Y-107249153D01*
X143963835Y-107312091D01*
X143879669Y-107364897D01*
X143813679Y-107401595D01*
X143774814Y-107416208D01*
X143772025Y-107402760D01*
X143772357Y-107401885D01*
X143748426Y-107402708D01*
X143681665Y-107419082D01*
X143581644Y-107448407D01*
X143457931Y-107488085D01*
X143412667Y-107503045D01*
X143276731Y-107545744D01*
X143169875Y-107573102D01*
X143073381Y-107588356D01*
X142968530Y-107594740D01*
X142836602Y-107595492D01*
X142791733Y-107594768D01*
X142632356Y-107586272D01*
X142482719Y-107570224D01*
X142366135Y-107548932D01*
X142277603Y-107528280D01*
X142202305Y-107513909D01*
X142164644Y-107510903D01*
X142136461Y-107507191D01*
X142068676Y-107487476D01*
X141979753Y-107455909D01*
X141905561Y-107428773D01*
X141814920Y-107398732D01*
X141753975Y-107382277D01*
X141714080Y-107370547D01*
X141631947Y-107337749D01*
X141538653Y-107293997D01*
X141531602Y-107290443D01*
X141424172Y-107239556D01*
X141345043Y-107210871D01*
X141275405Y-107197493D01*
X141259996Y-107191050D01*
X141218960Y-107158999D01*
X141213726Y-107154209D01*
X141167685Y-107119312D01*
X141101676Y-107074836D01*
X141032264Y-107031252D01*
X140976010Y-106999031D01*
X140949480Y-106988642D01*
X140938410Y-106991160D01*
X140897136Y-106982015D01*
X140855991Y-106961763D01*
X140842413Y-106942282D01*
X140829587Y-106922797D01*
X140777728Y-106886162D01*
X140698254Y-106841967D01*
X140624721Y-106803163D01*
X140550146Y-106759948D01*
X140508658Y-106730920D01*
X140464093Y-106695350D01*
X140400959Y-106653532D01*
X140335879Y-106615386D01*
X140284993Y-106590365D01*
X140264444Y-106587919D01*
X140260218Y-106593805D01*
X140229167Y-106583724D01*
X140214653Y-106576748D01*
X140136016Y-106563139D01*
X140022355Y-106563211D01*
X139888407Y-106575267D01*
X139748907Y-106597607D01*
X139618589Y-106628535D01*
X139512191Y-106666350D01*
X139469176Y-106680359D01*
X139427524Y-106679431D01*
X139419810Y-106677191D01*
X139366608Y-106679167D01*
X139265361Y-106693754D01*
X139113830Y-106721310D01*
X138909778Y-106762194D01*
X138874761Y-106767749D01*
X138785831Y-106776794D01*
X138684000Y-106783058D01*
X138661767Y-106784214D01*
X138539953Y-106801420D01*
X138422671Y-106840072D01*
X138302267Y-106904930D01*
X138171085Y-107000755D01*
X138021471Y-107132308D01*
X137845769Y-107304349D01*
X137746749Y-107403395D01*
X137613964Y-107529875D01*
X137503985Y-107624591D01*
X137408483Y-107694538D01*
X137319133Y-107746712D01*
X137307753Y-107752494D01*
X137218660Y-107794296D01*
X137151667Y-107819839D01*
X137145889Y-107820572D01*
X137120526Y-107823786D01*
G37*
X137120526Y-107823786D02*
X137119253Y-107822898D01*
X137079877Y-107827726D01*
X136994951Y-107856053D01*
X136868875Y-107906142D01*
X136706054Y-107976252D01*
X136510889Y-108064645D01*
X136498271Y-108070420D01*
X136304056Y-108142880D01*
X136129889Y-108173699D01*
X136036886Y-108184295D01*
X135898516Y-108209414D01*
X135769275Y-108241534D01*
X135577995Y-108298098D01*
X135409442Y-108168400D01*
X135325692Y-108101082D01*
X135272161Y-108047128D01*
X135247102Y-107999936D01*
X135240889Y-107946853D01*
X135241265Y-107934457D01*
X135272900Y-107835725D01*
X135303798Y-107802111D01*
X137131778Y-107802111D01*
X137145889Y-107816222D01*
X137160000Y-107802111D01*
X137145889Y-107788000D01*
X137131778Y-107802111D01*
X135303798Y-107802111D01*
X135347585Y-107754476D01*
X135454210Y-107696959D01*
X135581666Y-107669420D01*
X135718844Y-107678104D01*
X135750889Y-107681759D01*
X135864366Y-107669506D01*
X136015232Y-107627129D01*
X136197311Y-107556591D01*
X136404431Y-107459858D01*
X136573269Y-107350743D01*
X136736501Y-107189550D01*
X136863654Y-106997803D01*
X136869503Y-106985445D01*
X136898234Y-106906481D01*
X136931140Y-106795655D01*
X136963227Y-106671921D01*
X136989499Y-106554236D01*
X137004962Y-106461555D01*
X137009894Y-106434859D01*
X137030450Y-106354757D01*
X137062352Y-106245768D01*
X137101153Y-106123514D01*
X137124975Y-106048460D01*
X137155312Y-105941991D01*
X137173636Y-105862427D01*
X137176635Y-105822955D01*
X137159457Y-105810705D01*
X137095562Y-105799940D01*
X136997283Y-105798000D01*
X136877384Y-105804469D01*
X136748627Y-105818931D01*
X136623778Y-105840971D01*
X136560611Y-105854590D01*
X136424621Y-105883129D01*
X136331958Y-105900759D01*
X136274106Y-105908779D01*
X136242550Y-105908487D01*
X136228775Y-105901180D01*
X136214033Y-105891804D01*
X136156406Y-105869920D01*
X136073444Y-105845860D01*
X135992274Y-105817286D01*
X135877501Y-105761861D01*
X135770055Y-105696358D01*
X135762043Y-105690784D01*
X135684017Y-105638780D01*
X135628757Y-105605998D01*
X135607778Y-105599324D01*
X135607649Y-105599896D01*
X135586290Y-105587606D01*
X135535452Y-105545205D01*
X135465373Y-105481182D01*
X135462468Y-105478444D01*
X135389230Y-105412255D01*
X135332053Y-105365621D01*
X135303095Y-105348485D01*
X135283360Y-105338134D01*
X135232977Y-105297228D01*
X135167050Y-105235596D01*
X135120910Y-105190676D01*
X135037389Y-105111629D01*
X134969495Y-105049958D01*
X134953426Y-105035531D01*
X134877046Y-104960550D01*
X134803444Y-104880625D01*
X134774568Y-104846231D01*
X134747682Y-104806122D01*
X134731479Y-104760540D01*
X134723476Y-104696742D01*
X134721188Y-104601988D01*
X134722132Y-104463537D01*
X134722660Y-104418407D01*
X134725580Y-104291805D01*
X134731805Y-104206137D01*
X134743497Y-104149332D01*
X134762820Y-104109312D01*
X134791939Y-104074004D01*
X134828475Y-104041982D01*
X134898132Y-104018248D01*
X134982758Y-104037232D01*
X135092280Y-104099786D01*
X135093996Y-104100947D01*
X135157194Y-104149519D01*
X135194824Y-104200378D01*
X135215612Y-104271576D01*
X135228282Y-104381163D01*
X135230302Y-104402641D01*
X135242380Y-104470030D01*
X135268663Y-104525948D01*
X135318849Y-104586289D01*
X135402634Y-104666949D01*
X135421528Y-104684334D01*
X135498376Y-104752751D01*
X135557230Y-104801572D01*
X135586611Y-104821174D01*
X135609995Y-104831838D01*
X135654045Y-104868771D01*
X135690824Y-104912645D01*
X135701288Y-104943195D01*
X135704186Y-104962262D01*
X135744063Y-104990614D01*
X135810576Y-105013080D01*
X135886307Y-105022222D01*
X135952153Y-105017979D01*
X136022893Y-104999406D01*
X136100603Y-104960513D01*
X136196838Y-104895370D01*
X136323153Y-104798046D01*
X136384465Y-104750577D01*
X136470120Y-104688941D01*
X136533309Y-104649385D01*
X136563526Y-104638869D01*
X136564923Y-104639404D01*
X136596962Y-104623592D01*
X136654065Y-104575968D01*
X136724865Y-104505899D01*
X136858918Y-104364026D01*
X136862862Y-104362596D01*
X136886373Y-104363265D01*
X136930570Y-104335178D01*
X136961301Y-104311488D01*
X137033604Y-104272824D01*
X137125592Y-104233686D01*
X137200222Y-104205648D01*
X137277431Y-104173400D01*
X137331749Y-104139157D01*
X137367299Y-104093848D01*
X137388203Y-104028403D01*
X137398582Y-103933754D01*
X137402560Y-103800829D01*
X137404259Y-103620560D01*
X137405618Y-103502894D01*
X137409778Y-103312852D01*
X137416943Y-103162921D01*
X137428281Y-103042350D01*
X137444963Y-102940383D01*
X137468159Y-102846268D01*
X137499038Y-102749252D01*
X137506375Y-102727709D01*
X137529889Y-102647798D01*
X137537885Y-102580526D01*
X137531064Y-102503404D01*
X137510130Y-102393944D01*
X137484137Y-102282938D01*
X137452835Y-102171445D01*
X137424533Y-102090559D01*
X137418722Y-102076612D01*
X137389318Y-101994851D01*
X137373449Y-101931889D01*
X137373433Y-101931771D01*
X137361982Y-101864283D01*
X137344914Y-101781356D01*
X137328423Y-101724338D01*
X137301349Y-101699536D01*
X137249560Y-101705903D01*
X137187711Y-101716407D01*
X137088717Y-101727190D01*
X136976788Y-101735346D01*
X136876969Y-101743825D01*
X136725287Y-101764181D01*
X136590572Y-101789684D01*
X136492154Y-101809109D01*
X136408502Y-101819237D01*
X136361042Y-101817157D01*
X136343740Y-101815861D01*
X136277910Y-101826709D01*
X136180750Y-101852109D01*
X136066369Y-101888639D01*
X136030787Y-101900821D01*
X135923566Y-101934463D01*
X135827276Y-101957192D01*
X135725073Y-101971602D01*
X135600115Y-101980289D01*
X135435559Y-101985850D01*
X135057582Y-101995524D01*
X134969660Y-101902299D01*
X134956240Y-101888023D01*
X134920099Y-101845738D01*
X134898876Y-101804823D01*
X134889512Y-101750842D01*
X134888944Y-101669355D01*
X134894113Y-101545926D01*
X134896796Y-101493043D01*
X134905293Y-101381973D01*
X134917827Y-101309829D01*
X134937364Y-101263783D01*
X134966865Y-101231009D01*
X134967243Y-101230686D01*
X135036278Y-101194471D01*
X135127010Y-101195694D01*
X135135846Y-101197147D01*
X135211544Y-101209315D01*
X135261518Y-101216888D01*
X135274090Y-101223959D01*
X135308238Y-101270099D01*
X135342963Y-101343926D01*
X135347211Y-101354928D01*
X135380908Y-101426224D01*
X135417306Y-101458589D01*
X135471306Y-101466222D01*
X135499540Y-101463164D01*
X135590928Y-101435568D01*
X135709227Y-101384293D01*
X135841088Y-101315484D01*
X135973161Y-101235284D01*
X136000504Y-101218357D01*
X136041174Y-101199997D01*
X136046146Y-101210727D01*
X136052426Y-101215196D01*
X136097486Y-101199574D01*
X136176179Y-101163986D01*
X136279825Y-101112942D01*
X136399739Y-101050951D01*
X136527239Y-100982522D01*
X136653643Y-100912163D01*
X136770268Y-100844384D01*
X136868432Y-100783695D01*
X136958610Y-100718259D01*
X137056550Y-100630845D01*
X137124741Y-100550770D01*
X137143108Y-100522284D01*
X137174798Y-100462382D01*
X137192175Y-100399752D01*
X137198965Y-100316517D01*
X137198889Y-100194803D01*
X137201197Y-100050739D01*
X137215463Y-99938785D01*
X137243749Y-99854330D01*
X137264418Y-99809301D01*
X137276853Y-99760057D01*
X137261890Y-99715291D01*
X137216189Y-99650266D01*
X137192179Y-99620098D01*
X137147670Y-99575725D01*
X137121823Y-99566473D01*
X137112769Y-99569974D01*
X137103555Y-99542784D01*
X137103555Y-99542707D01*
X137083401Y-99490166D01*
X137032705Y-99419310D01*
X136965851Y-99345928D01*
X136897219Y-99285809D01*
X136841193Y-99254742D01*
X136826543Y-99248954D01*
X136763250Y-99203956D01*
X136674276Y-99121942D01*
X136565627Y-99009052D01*
X136443311Y-98871425D01*
X136313333Y-98715203D01*
X136246415Y-98633458D01*
X136150941Y-98519619D01*
X136066389Y-98421529D01*
X136009377Y-98353391D01*
X135963885Y-98291539D01*
X135946444Y-98257113D01*
X135931705Y-98228673D01*
X135886538Y-98171374D01*
X135821553Y-98100357D01*
X135762946Y-98036942D01*
X135720580Y-97984315D01*
X135709000Y-97959518D01*
X135709303Y-97959098D01*
X135695293Y-97932836D01*
X135650453Y-97879018D01*
X135583995Y-97808757D01*
X135513316Y-97734528D01*
X135459944Y-97672881D01*
X135435493Y-97637222D01*
X135418092Y-97609275D01*
X135370648Y-97550324D01*
X135305862Y-97478174D01*
X135252606Y-97417881D01*
X135212383Y-97363560D01*
X135202878Y-97336752D01*
X135204483Y-97326165D01*
X135189035Y-97277453D01*
X135154051Y-97206838D01*
X135132581Y-97170560D01*
X135096720Y-97119601D01*
X135076892Y-97105256D01*
X135066701Y-97102202D01*
X135030938Y-97066897D01*
X134981591Y-97004276D01*
X134955222Y-96965939D01*
X134919354Y-96895371D01*
X134901552Y-96815092D01*
X134895166Y-96701836D01*
X134894784Y-96606171D01*
X134907808Y-96420938D01*
X134941567Y-96284579D01*
X134997653Y-96193970D01*
X135077662Y-96145990D01*
X135183187Y-96137515D01*
X135269947Y-96154600D01*
X135331008Y-96197754D01*
X135364718Y-96276149D01*
X135378440Y-96399672D01*
X135384527Y-96471427D01*
X135404063Y-96582662D01*
X135430693Y-96667783D01*
X135458990Y-96723005D01*
X135515939Y-96808649D01*
X135573405Y-96870589D01*
X135619753Y-96894849D01*
X135649047Y-96911990D01*
X135703946Y-96961781D01*
X135770431Y-97032692D01*
X135832149Y-97096790D01*
X135911140Y-97164758D01*
X135974684Y-97204674D01*
X135981027Y-97207383D01*
X136031580Y-97237316D01*
X136044639Y-97262054D01*
X136043568Y-97267686D01*
X136065139Y-97303280D01*
X136116929Y-97350501D01*
X136178108Y-97399256D01*
X136265896Y-97472175D01*
X136357341Y-97550389D01*
X136363875Y-97556043D01*
X136444009Y-97620948D01*
X136510027Y-97666963D01*
X136548199Y-97684444D01*
X136585113Y-97696567D01*
X136639623Y-97734979D01*
X136673106Y-97759334D01*
X136751049Y-97806499D01*
X136856539Y-97864937D01*
X136976555Y-97927219D01*
X137258778Y-98068924D01*
X137583333Y-98075942D01*
X137662902Y-98077945D01*
X137855105Y-98084305D01*
X138055745Y-98092559D01*
X138232444Y-98101435D01*
X138281440Y-98104197D01*
X138473909Y-98114006D01*
X138621917Y-98118609D01*
X138735163Y-98117211D01*
X138823349Y-98109016D01*
X138896175Y-98093229D01*
X138963342Y-98069056D01*
X139034552Y-98035701D01*
X139093832Y-98003813D01*
X139291023Y-97865573D01*
X139467005Y-97694269D01*
X139604162Y-97506277D01*
X139622656Y-97474296D01*
X139666756Y-97388676D01*
X139692887Y-97310956D01*
X139706759Y-97219692D01*
X139714083Y-97093436D01*
X139715851Y-97053889D01*
X139723083Y-96942856D01*
X139732007Y-96856044D01*
X139741091Y-96809555D01*
X139745423Y-96802438D01*
X139787448Y-96761646D01*
X139861383Y-96704307D01*
X139954543Y-96640469D01*
X139990377Y-96617873D01*
X140124692Y-96548486D01*
X140152259Y-96542148D01*
X140165667Y-96555555D01*
X140179778Y-96541444D01*
X140175206Y-96536872D01*
X140241131Y-96521715D01*
X140351685Y-96538843D01*
X140468348Y-96601157D01*
X140603111Y-96709940D01*
X140656687Y-96754694D01*
X140761427Y-96830669D01*
X140857111Y-96888138D01*
X140926355Y-96929088D01*
X141008298Y-96986240D01*
X141090209Y-97049584D01*
X141160421Y-97109647D01*
X141207266Y-97156954D01*
X141219077Y-97182034D01*
X141217335Y-97185937D01*
X141225181Y-97225047D01*
X141251203Y-97285966D01*
X141285652Y-97350126D01*
X141318777Y-97398960D01*
X141340828Y-97413899D01*
X141355239Y-97415814D01*
X141365111Y-97453982D01*
X141367244Y-97479343D01*
X141384727Y-97508715D01*
X141428248Y-97523245D01*
X141507761Y-97525278D01*
X141633222Y-97517159D01*
X141751356Y-97508930D01*
X141856210Y-97507290D01*
X141918269Y-97516653D01*
X141944780Y-97538342D01*
X141942993Y-97573679D01*
X141938974Y-97611297D01*
X141969987Y-97628000D01*
X141991270Y-97631799D01*
X142014222Y-97658594D01*
X142005744Y-97674269D01*
X141964137Y-97726334D01*
X141893765Y-97806011D01*
X141801267Y-97905856D01*
X141693281Y-98018427D01*
X141613434Y-98101605D01*
X141469273Y-98261347D01*
X141369459Y-98388147D01*
X141313451Y-98482665D01*
X141292195Y-98535954D01*
X141278396Y-98586595D01*
X141285816Y-98598347D01*
X141300553Y-98594654D01*
X141295128Y-98621179D01*
X141264710Y-98676609D01*
X141215228Y-98752053D01*
X141152608Y-98838620D01*
X141082779Y-98927417D01*
X141011669Y-99009553D01*
X140963963Y-99061762D01*
X140818639Y-99227216D01*
X140705679Y-99368545D01*
X140617250Y-99496004D01*
X140545519Y-99619848D01*
X140538610Y-99633015D01*
X140502157Y-99706824D01*
X140480585Y-99768470D01*
X140471244Y-99835063D01*
X140471484Y-99923716D01*
X140478655Y-100051539D01*
X140482478Y-100104567D01*
X140496089Y-100243866D01*
X140513015Y-100371192D01*
X140530467Y-100464333D01*
X140540180Y-100508915D01*
X140560453Y-100636755D01*
X140571571Y-100758958D01*
X140575548Y-100819846D01*
X140585429Y-100899000D01*
X140597314Y-100942403D01*
X140606935Y-100977007D01*
X140616611Y-101053549D01*
X140622737Y-101151840D01*
X140628164Y-101236828D01*
X140641183Y-101343294D01*
X140657711Y-101419952D01*
X140673179Y-101485421D01*
X140689735Y-101589837D01*
X140702011Y-101704192D01*
X140702071Y-101704948D01*
X140713447Y-101807412D01*
X140728233Y-101888499D01*
X140743247Y-101930713D01*
X140746184Y-101935509D01*
X140760423Y-101987086D01*
X140774104Y-102075540D01*
X140784622Y-102184874D01*
X140786727Y-102212288D01*
X140797885Y-102314728D01*
X140811277Y-102390209D01*
X140824453Y-102424019D01*
X140833845Y-102440894D01*
X140846419Y-102501935D01*
X140853361Y-102588540D01*
X140858602Y-102664437D01*
X140874518Y-102794224D01*
X140896316Y-102919111D01*
X140913448Y-103010465D01*
X140922847Y-103081786D01*
X140921706Y-103113775D01*
X140920362Y-103117169D01*
X140920499Y-103160951D01*
X140928343Y-103242530D01*
X140942619Y-103347648D01*
X140949190Y-103397963D01*
X140961757Y-103548147D01*
X140970488Y-103733814D01*
X140975383Y-103941849D01*
X140976445Y-104159139D01*
X140973676Y-104372571D01*
X140967077Y-104569029D01*
X140956651Y-104735401D01*
X140942399Y-104858572D01*
X140939515Y-104876401D01*
X140925095Y-104986939D01*
X140918560Y-105078765D01*
X140921318Y-105133525D01*
X140923992Y-105156438D01*
X140917433Y-105232594D01*
X140896746Y-105322828D01*
X140888175Y-105352650D01*
X140858791Y-105526816D01*
X140874393Y-105682598D01*
X140936139Y-105835051D01*
X140946135Y-105852383D01*
X140998181Y-105930026D01*
X141068809Y-106023851D01*
X141149317Y-106123606D01*
X141231003Y-106219040D01*
X141305163Y-106299899D01*
X141363095Y-106355933D01*
X141396096Y-106376889D01*
X141417180Y-106384351D01*
X141475753Y-106414697D01*
X141553736Y-106460435D01*
X141609648Y-106492654D01*
X141696483Y-106535339D01*
X141760222Y-106557875D01*
X141799916Y-106567596D01*
X141887311Y-106593546D01*
X141986000Y-106626415D01*
X142208669Y-106695878D01*
X142581936Y-106770676D01*
X142945555Y-106789934D01*
X143035154Y-106786474D01*
X143154638Y-106777504D01*
X143247302Y-106765327D01*
X143298333Y-106751553D01*
X143393247Y-106700824D01*
X143492036Y-106652156D01*
X143572412Y-106616729D01*
X143623969Y-106599092D01*
X143636303Y-106603794D01*
X143635322Y-106605406D01*
X143630928Y-106626244D01*
X143657187Y-106616361D01*
X143703769Y-106583095D01*
X143760342Y-106533783D01*
X143816574Y-106475763D01*
X143844399Y-106443433D01*
X143892549Y-106381075D01*
X143903091Y-106353841D01*
X143874810Y-106364062D01*
X143868147Y-106364347D01*
X143873411Y-106334023D01*
X143900676Y-106272693D01*
X143959488Y-106125373D01*
X143984113Y-105985589D01*
X143972876Y-105866519D01*
X143925233Y-105779140D01*
X143891147Y-105739709D01*
X143831874Y-105659797D01*
X143771498Y-105569172D01*
X143722051Y-105486170D01*
X143695563Y-105429124D01*
X143692043Y-105410669D01*
X143711048Y-105347847D01*
X143774332Y-105298459D01*
X143831104Y-105279673D01*
X143820444Y-105290333D01*
X143834555Y-105304444D01*
X143848667Y-105290333D01*
X143836290Y-105277957D01*
X143872871Y-105265852D01*
X143997642Y-105253374D01*
X144139623Y-105264373D01*
X144183472Y-105277443D01*
X144280765Y-105333908D01*
X144384774Y-105420884D01*
X144482739Y-105525547D01*
X144561898Y-105635070D01*
X144609493Y-105736629D01*
X144617635Y-105763381D01*
X144645380Y-105845465D01*
X144668126Y-105901005D01*
X144670157Y-105906449D01*
X144673615Y-105963083D01*
X144666986Y-106056723D01*
X144652421Y-106172307D01*
X144632070Y-106294770D01*
X144608084Y-106409047D01*
X144582613Y-106500075D01*
X144567416Y-106563454D01*
X144569508Y-106604567D01*
X144571278Y-106617522D01*
X144554362Y-106672885D01*
X144514996Y-106754670D01*
X144460503Y-106849677D01*
X144398206Y-106944705D01*
X144335427Y-107026552D01*
X144303235Y-107059317D01*
X144235875Y-107116789D01*
X144150888Y-107182060D01*
X144057224Y-107249153D01*
X143963835Y-107312091D01*
X143879669Y-107364897D01*
X143813679Y-107401595D01*
X143774814Y-107416208D01*
X143772025Y-107402760D01*
X143772357Y-107401885D01*
X143748426Y-107402708D01*
X143681665Y-107419082D01*
X143581644Y-107448407D01*
X143457931Y-107488085D01*
X143412667Y-107503045D01*
X143276731Y-107545744D01*
X143169875Y-107573102D01*
X143073381Y-107588356D01*
X142968530Y-107594740D01*
X142836602Y-107595492D01*
X142791733Y-107594768D01*
X142632356Y-107586272D01*
X142482719Y-107570224D01*
X142366135Y-107548932D01*
X142277603Y-107528280D01*
X142202305Y-107513909D01*
X142164644Y-107510903D01*
X142136461Y-107507191D01*
X142068676Y-107487476D01*
X141979753Y-107455909D01*
X141905561Y-107428773D01*
X141814920Y-107398732D01*
X141753975Y-107382277D01*
X141714080Y-107370547D01*
X141631947Y-107337749D01*
X141538653Y-107293997D01*
X141531602Y-107290443D01*
X141424172Y-107239556D01*
X141345043Y-107210871D01*
X141275405Y-107197493D01*
X141259996Y-107191050D01*
X141218960Y-107158999D01*
X141213726Y-107154209D01*
X141167685Y-107119312D01*
X141101676Y-107074836D01*
X141032264Y-107031252D01*
X140976010Y-106999031D01*
X140949480Y-106988642D01*
X140938410Y-106991160D01*
X140897136Y-106982015D01*
X140855991Y-106961763D01*
X140842413Y-106942282D01*
X140829587Y-106922797D01*
X140777728Y-106886162D01*
X140698254Y-106841967D01*
X140624721Y-106803163D01*
X140550146Y-106759948D01*
X140508658Y-106730920D01*
X140464093Y-106695350D01*
X140400959Y-106653532D01*
X140335879Y-106615386D01*
X140284993Y-106590365D01*
X140264444Y-106587919D01*
X140260218Y-106593805D01*
X140229167Y-106583724D01*
X140214653Y-106576748D01*
X140136016Y-106563139D01*
X140022355Y-106563211D01*
X139888407Y-106575267D01*
X139748907Y-106597607D01*
X139618589Y-106628535D01*
X139512191Y-106666350D01*
X139469176Y-106680359D01*
X139427524Y-106679431D01*
X139419810Y-106677191D01*
X139366608Y-106679167D01*
X139265361Y-106693754D01*
X139113830Y-106721310D01*
X138909778Y-106762194D01*
X138874761Y-106767749D01*
X138785831Y-106776794D01*
X138684000Y-106783058D01*
X138661767Y-106784214D01*
X138539953Y-106801420D01*
X138422671Y-106840072D01*
X138302267Y-106904930D01*
X138171085Y-107000755D01*
X138021471Y-107132308D01*
X137845769Y-107304349D01*
X137746749Y-107403395D01*
X137613964Y-107529875D01*
X137503985Y-107624591D01*
X137408483Y-107694538D01*
X137319133Y-107746712D01*
X137307753Y-107752494D01*
X137218660Y-107794296D01*
X137151667Y-107819839D01*
X137145889Y-107820572D01*
X137120526Y-107823786D01*
M02*
