M48
; DRILL file {KiCad 5.99.0-unknown-89e9857~86~ubuntu18.04.1} date Fri 25 Oct 2019 03:43:13 PM EDT
; FORMAT={-:-/ absolute / inch / decimal}
; #@! TF.CreationDate,2019-10-25T15:43:13-04:00
; #@! TF.GenerationSoftware,Kicad,Pcbnew,5.99.0-unknown-89e9857~86~ubuntu18.04.1
; #@! TF.FileFunction,Plated,1,2,PTH
FMAT,2
INCH
T1C0.0256
T2C0.0394
%
G90
G05
T1
X5.2886Y-4.6063
X5.3386Y-4.6063
X5.3886Y-4.6063
X5.4386Y-4.6063
X6.2386Y-3.2677
X6.2886Y-3.2677
X6.3386Y-3.2677
X6.2386Y-4.6063
X6.2886Y-4.6063
X6.3386Y-4.6063
T2
X6.5748Y-3.587
X6.5748Y-3.687
X6.5748Y-3.787
X6.5748Y-4.087
X6.5748Y-4.187
X6.5748Y-4.287
X5.2362Y-3.587
X5.2362Y-3.687
X5.2362Y-3.787
X5.2362Y-3.887
X5.2362Y-3.987
X5.2362Y-4.087
X5.2362Y-4.187
X5.2362Y-4.287
T0
M30
