G04 #@! TF.GenerationSoftware,KiCad,Pcbnew,5.99.0-unknown-df3fabf~86~ubuntu18.04.1*
G04 #@! TF.CreationDate,2019-10-25T18:59:48-04:00*
G04 #@! TF.ProjectId,current_calibration_board,63757272-656e-4745-9f63-616c69627261,rev?*
G04 #@! TF.SameCoordinates,Original*
G04 #@! TF.FileFunction,Copper,L1,Top*
G04 #@! TF.FilePolarity,Positive*
%FSLAX46Y46*%
G04 Gerber Fmt 4.6, Leading zero omitted, Abs format (unit mm)*
G04 Created by KiCad (PCBNEW 5.99.0-unknown-df3fabf~86~ubuntu18.04.1) date 2019-10-25 18:59:48*
%MOMM*%
%LPD*%
G04 APERTURE LIST*
%ADD10O,1.700000X1.700000*%
%ADD11R,1.700000X1.700000*%
%ADD12R,1.800000X6.800000*%
%ADD13O,1.000000X1.000000*%
%ADD14R,1.000000X1.000000*%
%ADD15C,1.400000*%
%ADD16C,0.254000*%
G04 APERTURE END LIST*
D10*
X167000000Y-108890000D03*
X167000000Y-106350000D03*
D11*
X167000000Y-103810000D03*
D12*
X143450000Y-85200000D03*
X146350000Y-85200000D03*
G04 #@! TA.AperFunction,SMDPad,CuDef*
G36*
X144720671Y-90344030D02*
G01*
X144801777Y-90398223D01*
X144855970Y-90479329D01*
X144875000Y-90574999D01*
X144875000Y-93425001D01*
X144855970Y-93520671D01*
X144801777Y-93601777D01*
X144720671Y-93655970D01*
X144625001Y-93675000D01*
X143599999Y-93675000D01*
X143504329Y-93655970D01*
X143423223Y-93601777D01*
X143369030Y-93520671D01*
X143350000Y-93425001D01*
X143350000Y-90574999D01*
X143369030Y-90479329D01*
X143423223Y-90398223D01*
X143504329Y-90344030D01*
X143599999Y-90325000D01*
X144625001Y-90325000D01*
X144720671Y-90344030D01*
G37*
G04 #@! TD.AperFunction*
G04 #@! TA.AperFunction,SMDPad,CuDef*
G36*
X150695671Y-90344030D02*
G01*
X150776777Y-90398223D01*
X150830970Y-90479329D01*
X150850000Y-90574999D01*
X150850000Y-93425001D01*
X150830970Y-93520671D01*
X150776777Y-93601777D01*
X150695671Y-93655970D01*
X150600001Y-93675000D01*
X149574999Y-93675000D01*
X149479329Y-93655970D01*
X149398223Y-93601777D01*
X149344030Y-93520671D01*
X149325000Y-93425001D01*
X149325000Y-90574999D01*
X149344030Y-90479329D01*
X149398223Y-90398223D01*
X149479329Y-90344030D01*
X149574999Y-90325000D01*
X150600001Y-90325000D01*
X150695671Y-90344030D01*
G37*
G04 #@! TD.AperFunction*
G04 #@! TA.AperFunction,SMDPad,CuDef*
G36*
X146320671Y-94944030D02*
G01*
X146401777Y-94998223D01*
X146455970Y-95079329D01*
X146475000Y-95174999D01*
X146475000Y-98025001D01*
X146455970Y-98120671D01*
X146401777Y-98201777D01*
X146320671Y-98255970D01*
X146225001Y-98275000D01*
X145199999Y-98275000D01*
X145104329Y-98255970D01*
X145023223Y-98201777D01*
X144969030Y-98120671D01*
X144950000Y-98025001D01*
X144950000Y-95174999D01*
X144969030Y-95079329D01*
X145023223Y-94998223D01*
X145104329Y-94944030D01*
X145199999Y-94925000D01*
X146225001Y-94925000D01*
X146320671Y-94944030D01*
G37*
G04 #@! TD.AperFunction*
G04 #@! TA.AperFunction,SMDPad,CuDef*
G36*
X152295671Y-94944030D02*
G01*
X152376777Y-94998223D01*
X152430970Y-95079329D01*
X152450000Y-95174999D01*
X152450000Y-98025001D01*
X152430970Y-98120671D01*
X152376777Y-98201777D01*
X152295671Y-98255970D01*
X152200001Y-98275000D01*
X151174999Y-98275000D01*
X151079329Y-98255970D01*
X150998223Y-98201777D01*
X150944030Y-98120671D01*
X150925000Y-98025001D01*
X150925000Y-95174999D01*
X150944030Y-95079329D01*
X150998223Y-94998223D01*
X151079329Y-94944030D01*
X151174999Y-94925000D01*
X152200001Y-94925000D01*
X152295671Y-94944030D01*
G37*
G04 #@! TD.AperFunction*
G04 #@! TA.AperFunction,SMDPad,CuDef*
G36*
X146320671Y-99644030D02*
G01*
X146401777Y-99698223D01*
X146455970Y-99779329D01*
X146475000Y-99874999D01*
X146475000Y-102725001D01*
X146455970Y-102820671D01*
X146401777Y-102901777D01*
X146320671Y-102955970D01*
X146225001Y-102975000D01*
X145199999Y-102975000D01*
X145104329Y-102955970D01*
X145023223Y-102901777D01*
X144969030Y-102820671D01*
X144950000Y-102725001D01*
X144950000Y-99874999D01*
X144969030Y-99779329D01*
X145023223Y-99698223D01*
X145104329Y-99644030D01*
X145199999Y-99625000D01*
X146225001Y-99625000D01*
X146320671Y-99644030D01*
G37*
G04 #@! TD.AperFunction*
G04 #@! TA.AperFunction,SMDPad,CuDef*
G36*
X152295671Y-99644030D02*
G01*
X152376777Y-99698223D01*
X152430970Y-99779329D01*
X152450000Y-99874999D01*
X152450000Y-102725001D01*
X152430970Y-102820671D01*
X152376777Y-102901777D01*
X152295671Y-102955970D01*
X152200001Y-102975000D01*
X151174999Y-102975000D01*
X151079329Y-102955970D01*
X150998223Y-102901777D01*
X150944030Y-102820671D01*
X150925000Y-102725001D01*
X150925000Y-99874999D01*
X150944030Y-99779329D01*
X150998223Y-99698223D01*
X151079329Y-99644030D01*
X151174999Y-99625000D01*
X152200001Y-99625000D01*
X152295671Y-99644030D01*
G37*
G04 #@! TD.AperFunction*
G04 #@! TA.AperFunction,SMDPad,CuDef*
G36*
X148070671Y-104394030D02*
G01*
X148151777Y-104448223D01*
X148205970Y-104529329D01*
X148225000Y-104625000D01*
X148225000Y-106775000D01*
X148205970Y-106870671D01*
X148151777Y-106951777D01*
X148070671Y-107005970D01*
X147975000Y-107025000D01*
X147050000Y-107025000D01*
X146954329Y-107005970D01*
X146873223Y-106951777D01*
X146819030Y-106870671D01*
X146800000Y-106775000D01*
X146800000Y-104625000D01*
X146819030Y-104529329D01*
X146873223Y-104448223D01*
X146954329Y-104394030D01*
X147050000Y-104375000D01*
X147975000Y-104375000D01*
X148070671Y-104394030D01*
G37*
G04 #@! TD.AperFunction*
G04 #@! TA.AperFunction,SMDPad,CuDef*
G36*
X151045671Y-104394030D02*
G01*
X151126777Y-104448223D01*
X151180970Y-104529329D01*
X151200000Y-104625000D01*
X151200000Y-106775000D01*
X151180970Y-106870671D01*
X151126777Y-106951777D01*
X151045671Y-107005970D01*
X150950000Y-107025000D01*
X150025000Y-107025000D01*
X149929329Y-107005970D01*
X149848223Y-106951777D01*
X149794030Y-106870671D01*
X149775000Y-106775000D01*
X149775000Y-104625000D01*
X149794030Y-104529329D01*
X149848223Y-104448223D01*
X149929329Y-104394030D01*
X150025000Y-104375000D01*
X150950000Y-104375000D01*
X151045671Y-104394030D01*
G37*
G04 #@! TD.AperFunction*
G04 #@! TA.AperFunction,SMDPad,CuDef*
G36*
X146170671Y-108394030D02*
G01*
X146251777Y-108448223D01*
X146305970Y-108529329D01*
X146325000Y-108625000D01*
X146325000Y-110775000D01*
X146305970Y-110870671D01*
X146251777Y-110951777D01*
X146170671Y-111005970D01*
X146075000Y-111025000D01*
X145150000Y-111025000D01*
X145054329Y-111005970D01*
X144973223Y-110951777D01*
X144919030Y-110870671D01*
X144900000Y-110775000D01*
X144900000Y-108625000D01*
X144919030Y-108529329D01*
X144973223Y-108448223D01*
X145054329Y-108394030D01*
X145150000Y-108375000D01*
X146075000Y-108375000D01*
X146170671Y-108394030D01*
G37*
G04 #@! TD.AperFunction*
G04 #@! TA.AperFunction,SMDPad,CuDef*
G36*
X149145671Y-108394030D02*
G01*
X149226777Y-108448223D01*
X149280970Y-108529329D01*
X149300000Y-108625000D01*
X149300000Y-110775000D01*
X149280970Y-110870671D01*
X149226777Y-110951777D01*
X149145671Y-111005970D01*
X149050000Y-111025000D01*
X148125000Y-111025000D01*
X148029329Y-111005970D01*
X147948223Y-110951777D01*
X147894030Y-110870671D01*
X147875000Y-110775000D01*
X147875000Y-108625000D01*
X147894030Y-108529329D01*
X147948223Y-108448223D01*
X148029329Y-108394030D01*
X148125000Y-108375000D01*
X149050000Y-108375000D01*
X149145671Y-108394030D01*
G37*
G04 #@! TD.AperFunction*
G04 #@! TA.AperFunction,SMDPad,CuDef*
G36*
X144370671Y-112944030D02*
G01*
X144451777Y-112998223D01*
X144505970Y-113079329D01*
X144525000Y-113175000D01*
X144525000Y-114425000D01*
X144505970Y-114520671D01*
X144451777Y-114601777D01*
X144370671Y-114655970D01*
X144275000Y-114675000D01*
X143350000Y-114675000D01*
X143254329Y-114655970D01*
X143173223Y-114601777D01*
X143119030Y-114520671D01*
X143100000Y-114425000D01*
X143100000Y-113175000D01*
X143119030Y-113079329D01*
X143173223Y-112998223D01*
X143254329Y-112944030D01*
X143350000Y-112925000D01*
X144275000Y-112925000D01*
X144370671Y-112944030D01*
G37*
G04 #@! TD.AperFunction*
G04 #@! TA.AperFunction,SMDPad,CuDef*
G36*
X147345671Y-112944030D02*
G01*
X147426777Y-112998223D01*
X147480970Y-113079329D01*
X147500000Y-113175000D01*
X147500000Y-114425000D01*
X147480970Y-114520671D01*
X147426777Y-114601777D01*
X147345671Y-114655970D01*
X147250000Y-114675000D01*
X146325000Y-114675000D01*
X146229329Y-114655970D01*
X146148223Y-114601777D01*
X146094030Y-114520671D01*
X146075000Y-114425000D01*
X146075000Y-113175000D01*
X146094030Y-113079329D01*
X146148223Y-112998223D01*
X146229329Y-112944030D01*
X146325000Y-112925000D01*
X147250000Y-112925000D01*
X147345671Y-112944030D01*
G37*
G04 #@! TD.AperFunction*
G04 #@! TA.AperFunction,SMDPad,CuDef*
G36*
X141645671Y-113419030D02*
G01*
X141726777Y-113473223D01*
X141780970Y-113554329D01*
X141800000Y-113649999D01*
X141800000Y-114300001D01*
X141780970Y-114395671D01*
X141726777Y-114476777D01*
X141645671Y-114530970D01*
X141550001Y-114550000D01*
X140649999Y-114550000D01*
X140554329Y-114530970D01*
X140473223Y-114476777D01*
X140419030Y-114395671D01*
X140400000Y-114300001D01*
X140400000Y-113649999D01*
X140419030Y-113554329D01*
X140473223Y-113473223D01*
X140554329Y-113419030D01*
X140649999Y-113400000D01*
X141550001Y-113400000D01*
X141645671Y-113419030D01*
G37*
G04 #@! TD.AperFunction*
G04 #@! TA.AperFunction,SMDPad,CuDef*
G36*
X141645671Y-115469030D02*
G01*
X141726777Y-115523223D01*
X141780970Y-115604329D01*
X141800000Y-115699999D01*
X141800000Y-116350001D01*
X141780970Y-116445671D01*
X141726777Y-116526777D01*
X141645671Y-116580970D01*
X141550001Y-116600000D01*
X140649999Y-116600000D01*
X140554329Y-116580970D01*
X140473223Y-116526777D01*
X140419030Y-116445671D01*
X140400000Y-116350001D01*
X140400000Y-115699999D01*
X140419030Y-115604329D01*
X140473223Y-115523223D01*
X140554329Y-115469030D01*
X140649999Y-115450000D01*
X141550001Y-115450000D01*
X141645671Y-115469030D01*
G37*
G04 #@! TD.AperFunction*
D10*
X133000000Y-108890000D03*
X133000000Y-106350000D03*
X133000000Y-103810000D03*
X133000000Y-101270000D03*
X133000000Y-98730000D03*
X133000000Y-96190000D03*
X133000000Y-93650000D03*
D11*
X133000000Y-91110000D03*
D10*
X167000000Y-96190000D03*
X167000000Y-93650000D03*
D11*
X167000000Y-91110000D03*
D13*
X134330000Y-117000000D03*
X135600000Y-117000000D03*
X136870000Y-117000000D03*
D14*
X138140000Y-117000000D03*
D13*
X158460000Y-83000000D03*
X159730000Y-83000000D03*
D14*
X161000000Y-83000000D03*
D13*
X158460000Y-117000000D03*
X159730000Y-117000000D03*
D14*
X161000000Y-117000000D03*
D15*
X133000000Y-91110000D02*
X143450000Y-85200000D01*
X133000000Y-93650000D02*
X144112500Y-92000000D01*
X145712500Y-96600000D02*
X133000000Y-96190000D01*
X133000000Y-98730000D02*
X145712500Y-101300000D01*
X147512500Y-105700000D02*
X133000000Y-101270000D01*
X133000000Y-103810000D02*
X145612500Y-109700000D01*
X141100000Y-113975000D02*
X133000000Y-108890000D01*
X143812500Y-113800000D02*
X142700000Y-112000000D01*
X142700000Y-112000000D02*
X141900000Y-111400000D01*
X141900000Y-111400000D02*
X140400000Y-110500000D01*
X140400000Y-110500000D02*
X133000000Y-106350000D01*
G36*
X146931612Y-81046324D02*
G01*
X147207575Y-81105944D01*
X147472332Y-81203977D01*
X147720573Y-81338457D01*
X147947308Y-81506679D01*
X148147979Y-81705262D01*
X148318569Y-81930233D01*
X148457808Y-82180962D01*
X151857041Y-89476877D01*
X151966599Y-89746552D01*
X152048625Y-90025845D01*
X153093776Y-94380642D01*
X153153873Y-94717286D01*
X153174000Y-95058678D01*
X153174000Y-97308307D01*
X153179965Y-97499373D01*
X153224591Y-98213396D01*
X153256913Y-98426662D01*
X153327858Y-98636251D01*
X153434400Y-98830183D01*
X153573249Y-99002465D01*
X153740116Y-99147778D01*
X153929847Y-99261633D01*
X154131377Y-99338528D01*
X160659949Y-101191232D01*
X160882347Y-101245452D01*
X164880350Y-102063226D01*
X165188838Y-102110266D01*
X165500495Y-102126000D01*
X166995499Y-102126000D01*
X167238192Y-102143357D01*
X167471527Y-102194117D01*
X167695273Y-102277569D01*
X167904858Y-102392012D01*
X168096029Y-102535121D01*
X168264879Y-102703971D01*
X168407988Y-102895142D01*
X168522431Y-103104727D01*
X168605883Y-103328473D01*
X168656643Y-103561808D01*
X168674000Y-103804501D01*
X168674000Y-108895499D01*
X168656643Y-109138192D01*
X168605883Y-109371527D01*
X168522431Y-109595273D01*
X168407988Y-109804858D01*
X168264879Y-109996029D01*
X168096029Y-110164879D01*
X167904858Y-110307988D01*
X167695273Y-110422431D01*
X167471527Y-110505883D01*
X167238192Y-110556643D01*
X167000000Y-110573678D01*
X166761808Y-110556643D01*
X166528473Y-110505883D01*
X166304727Y-110422431D01*
X166095142Y-110307988D01*
X165903971Y-110164879D01*
X165735121Y-109996029D01*
X165592012Y-109804858D01*
X165477569Y-109595273D01*
X165394117Y-109371527D01*
X165343357Y-109138192D01*
X165334762Y-109018000D01*
X165719096Y-109018000D01*
X165754447Y-109223744D01*
X165836124Y-109445140D01*
X165956781Y-109647944D01*
X166112373Y-109825363D01*
X166297693Y-109971458D01*
X166506532Y-110081334D01*
X166872000Y-110194816D01*
X166872000Y-109018000D01*
X167128000Y-109018000D01*
X167128000Y-110188073D01*
X167462113Y-110093844D01*
X167673757Y-109989471D01*
X167862838Y-109848279D01*
X168023022Y-109674992D01*
X168148945Y-109475417D01*
X168236389Y-109256235D01*
X168283778Y-109018000D01*
X167128000Y-109018000D01*
X166872000Y-109018000D01*
X165719096Y-109018000D01*
X165334762Y-109018000D01*
X165326000Y-108895499D01*
X165326000Y-108762000D01*
X165716222Y-108762000D01*
X168280904Y-108762000D01*
X168245553Y-108556256D01*
X168163876Y-108334860D01*
X168043219Y-108132056D01*
X167887627Y-107954637D01*
X167702307Y-107808542D01*
X167493468Y-107698666D01*
X167267305Y-107628440D01*
X167198716Y-107621231D01*
X167234991Y-107617898D01*
X167462113Y-107553844D01*
X167673757Y-107449471D01*
X167862838Y-107308279D01*
X168023022Y-107134992D01*
X168148945Y-106935417D01*
X168236389Y-106716235D01*
X168283778Y-106478000D01*
X165719096Y-106478000D01*
X165754447Y-106683744D01*
X165836124Y-106905140D01*
X165956781Y-107107944D01*
X166112373Y-107285363D01*
X166297693Y-107431458D01*
X166506532Y-107541334D01*
X166732695Y-107611560D01*
X166801284Y-107618769D01*
X166765009Y-107622102D01*
X166537887Y-107686156D01*
X166326243Y-107790529D01*
X166137162Y-107931721D01*
X165976978Y-108105008D01*
X165851055Y-108304583D01*
X165763611Y-108523765D01*
X165716222Y-108762000D01*
X165326000Y-108762000D01*
X165326000Y-106921970D01*
X165304902Y-106585256D01*
X165241200Y-106249927D01*
X165136137Y-105925173D01*
X164991358Y-105616073D01*
X164809127Y-105327464D01*
X164592499Y-105064109D01*
X164344484Y-104827242D01*
X164071205Y-104620569D01*
X163776031Y-104446593D01*
X163462855Y-104307608D01*
X163135810Y-104205447D01*
X162802770Y-104142137D01*
X161246230Y-103938000D01*
X165709966Y-103938000D01*
X165709966Y-104672410D01*
X165741180Y-104829339D01*
X165837103Y-104972897D01*
X165980661Y-105068820D01*
X166137590Y-105100034D01*
X166701426Y-105100034D01*
X166537887Y-105146156D01*
X166326243Y-105250529D01*
X166137162Y-105391721D01*
X165976978Y-105565008D01*
X165851055Y-105764583D01*
X165763611Y-105983765D01*
X165716222Y-106222000D01*
X168280904Y-106222000D01*
X168245553Y-106016256D01*
X168163876Y-105794860D01*
X168043219Y-105592056D01*
X167887627Y-105414637D01*
X167702307Y-105268542D01*
X167493468Y-105158666D01*
X167304644Y-105100034D01*
X167862410Y-105100034D01*
X168019339Y-105068820D01*
X168162897Y-104972897D01*
X168258820Y-104829339D01*
X168290034Y-104672410D01*
X168290034Y-103938000D01*
X165709966Y-103938000D01*
X161246230Y-103938000D01*
X160807458Y-103880456D01*
X160728854Y-103869066D01*
X155766438Y-103081381D01*
X155461733Y-103055165D01*
X155151890Y-103072957D01*
X154847756Y-103134780D01*
X154555555Y-103239370D01*
X154281270Y-103384584D01*
X154030512Y-103567452D01*
X153808415Y-103784230D01*
X153622278Y-104026893D01*
X153156420Y-104733713D01*
X152991458Y-105015264D01*
X152855690Y-105315651D01*
X152753351Y-105625505D01*
X152374055Y-107016260D01*
X152263140Y-107344455D01*
X152113952Y-107657113D01*
X150464057Y-110642638D01*
X150271181Y-110945729D01*
X150044863Y-111219687D01*
X149783619Y-111466303D01*
X149261350Y-111901526D01*
X149039298Y-112111443D01*
X148842675Y-112350489D01*
X148677428Y-112612208D01*
X148546143Y-112892507D01*
X148450873Y-113187002D01*
X148393108Y-113491084D01*
X148374000Y-113796057D01*
X148374000Y-114362825D01*
X148352747Y-114598725D01*
X148291185Y-114821543D01*
X148190791Y-115029762D01*
X148054230Y-115217463D01*
X147884781Y-115384125D01*
X147691606Y-115524199D01*
X147479691Y-115633894D01*
X147249317Y-115712272D01*
X142226847Y-117011187D01*
X141961679Y-117092606D01*
X141704868Y-117197442D01*
X140762923Y-117632185D01*
X140526823Y-117753838D01*
X139932760Y-118093302D01*
X139594162Y-118258643D01*
X139240907Y-118377462D01*
X138875233Y-118449565D01*
X138499214Y-118474000D01*
X134804956Y-118474000D01*
X134569476Y-118455467D01*
X134344628Y-118401486D01*
X134130996Y-118312997D01*
X133933830Y-118192173D01*
X133758000Y-118042000D01*
X133607827Y-117866170D01*
X133487003Y-117669004D01*
X133398514Y-117455372D01*
X133344533Y-117230524D01*
X133336465Y-117128000D01*
X133386891Y-117128000D01*
X133479551Y-117400190D01*
X133589347Y-117578662D01*
X133735954Y-117728372D01*
X133912087Y-117841881D01*
X134202000Y-117947402D01*
X134202000Y-117944485D01*
X134458000Y-117944485D01*
X134736118Y-117847635D01*
X134913818Y-117736596D01*
X134964612Y-117686155D01*
X135005954Y-117728372D01*
X135182087Y-117841881D01*
X135472000Y-117947402D01*
X135472000Y-117944485D01*
X135728000Y-117944485D01*
X136006118Y-117847635D01*
X136183818Y-117736596D01*
X136234612Y-117686155D01*
X136275954Y-117728372D01*
X136452087Y-117841881D01*
X136742000Y-117947402D01*
X136742000Y-117944485D01*
X136998000Y-117944485D01*
X137276118Y-117847635D01*
X137329329Y-117814385D01*
X137470661Y-117908820D01*
X137627590Y-117940034D01*
X138012000Y-117940034D01*
X138012000Y-117128000D01*
X138268000Y-117128000D01*
X138268000Y-117940034D01*
X138652410Y-117940034D01*
X138809339Y-117908820D01*
X138952897Y-117812897D01*
X139048820Y-117669339D01*
X139080034Y-117512410D01*
X139080034Y-117128000D01*
X138268000Y-117128000D01*
X138012000Y-117128000D01*
X138012000Y-116059966D01*
X138268000Y-116059966D01*
X138268000Y-116872000D01*
X139080034Y-116872000D01*
X139080034Y-116487590D01*
X139048820Y-116330661D01*
X138952897Y-116187103D01*
X138901859Y-116153000D01*
X139961741Y-116153000D01*
X139961741Y-116354367D01*
X139982290Y-116519221D01*
X140072916Y-116725829D01*
X140227526Y-116893780D01*
X140428291Y-117002428D01*
X140643015Y-117038259D01*
X140972000Y-117038259D01*
X140972000Y-116153000D01*
X141228000Y-116153000D01*
X141228000Y-117038259D01*
X141554367Y-117038259D01*
X141719221Y-117017710D01*
X141925829Y-116927084D01*
X142093780Y-116772474D01*
X142202428Y-116571709D01*
X142238259Y-116356985D01*
X142238259Y-116153000D01*
X141228000Y-116153000D01*
X140972000Y-116153000D01*
X139961741Y-116153000D01*
X138901859Y-116153000D01*
X138809339Y-116091180D01*
X138652410Y-116059966D01*
X138268000Y-116059966D01*
X138012000Y-116059966D01*
X137627590Y-116059966D01*
X137470661Y-116091180D01*
X137329943Y-116185205D01*
X137287914Y-116158119D01*
X136998000Y-116052598D01*
X136998000Y-117944485D01*
X136742000Y-117944485D01*
X136742000Y-116055515D01*
X136463882Y-116152365D01*
X136286182Y-116263404D01*
X136235388Y-116313845D01*
X136194046Y-116271628D01*
X136017913Y-116158119D01*
X135728000Y-116052598D01*
X135728000Y-117944485D01*
X135472000Y-117944485D01*
X135472000Y-116055515D01*
X135193882Y-116152365D01*
X135016182Y-116263404D01*
X134965388Y-116313845D01*
X134924046Y-116271628D01*
X134747913Y-116158119D01*
X134458000Y-116052598D01*
X134458000Y-117944485D01*
X134202000Y-117944485D01*
X134202000Y-117128000D01*
X133386891Y-117128000D01*
X133336465Y-117128000D01*
X133326390Y-117000000D01*
X133336464Y-116872000D01*
X133384085Y-116872000D01*
X134202000Y-116872000D01*
X134202000Y-116055515D01*
X133923882Y-116152365D01*
X133746182Y-116263404D01*
X133597498Y-116411054D01*
X133485222Y-116587974D01*
X133384085Y-116872000D01*
X133336464Y-116872000D01*
X133344533Y-116769476D01*
X133398514Y-116544628D01*
X133487003Y-116330996D01*
X133607827Y-116133830D01*
X133758000Y-115958000D01*
X133933830Y-115807827D01*
X134130996Y-115687003D01*
X134344628Y-115598514D01*
X134569476Y-115544533D01*
X134804956Y-115526000D01*
X138931613Y-115526000D01*
X139278964Y-115550206D01*
X139624395Y-115623372D01*
X139867763Y-115672843D01*
X139964380Y-115677198D01*
X139961741Y-115693015D01*
X139961741Y-115897000D01*
X142238259Y-115897000D01*
X142238259Y-115695633D01*
X142217710Y-115530779D01*
X142129401Y-115329454D01*
X142252105Y-115311868D01*
X144145014Y-115128684D01*
X144232455Y-115113259D01*
X144279366Y-115113259D01*
X144444220Y-115092710D01*
X144643154Y-115005449D01*
X144711326Y-114982033D01*
X144972773Y-114843545D01*
X145209482Y-114666056D01*
X145415686Y-114453893D01*
X145586361Y-114212225D01*
X145636741Y-114110189D01*
X145636741Y-114429366D01*
X145657290Y-114594220D01*
X145747918Y-114800828D01*
X145902526Y-114968778D01*
X146103291Y-115077428D01*
X146318016Y-115113259D01*
X146659500Y-115113259D01*
X146659500Y-113928000D01*
X146915500Y-113928000D01*
X146915500Y-115113259D01*
X147254366Y-115113259D01*
X147419220Y-115092710D01*
X147625828Y-115002082D01*
X147793778Y-114847474D01*
X147902428Y-114646709D01*
X147938259Y-114431984D01*
X147938259Y-113928000D01*
X146915500Y-113928000D01*
X146659500Y-113928000D01*
X146659500Y-112486741D01*
X146915500Y-112486741D01*
X146915500Y-113672000D01*
X147938259Y-113672000D01*
X147938259Y-113170634D01*
X147917710Y-113005780D01*
X147827082Y-112799172D01*
X147672474Y-112631222D01*
X147471709Y-112522572D01*
X147256984Y-112486741D01*
X146915500Y-112486741D01*
X146659500Y-112486741D01*
X146467445Y-112486741D01*
X146825238Y-112009683D01*
X147044727Y-111673651D01*
X147220659Y-111308346D01*
X147347832Y-110923343D01*
X147423338Y-110529146D01*
X147436741Y-110421922D01*
X147436741Y-110779366D01*
X147457290Y-110944220D01*
X147547918Y-111150828D01*
X147702526Y-111318778D01*
X147903291Y-111427428D01*
X148118016Y-111463259D01*
X148459500Y-111463259D01*
X148459500Y-109828000D01*
X148715500Y-109828000D01*
X148715500Y-111463259D01*
X149054366Y-111463259D01*
X149219220Y-111442710D01*
X149425828Y-111352082D01*
X149593778Y-111197474D01*
X149702428Y-110996709D01*
X149738259Y-110781984D01*
X149738259Y-109828000D01*
X148715500Y-109828000D01*
X148459500Y-109828000D01*
X148459500Y-107936741D01*
X148715500Y-107936741D01*
X148715500Y-109572000D01*
X149738259Y-109572000D01*
X149738259Y-108620634D01*
X149717710Y-108455780D01*
X149627082Y-108249172D01*
X149472474Y-108081222D01*
X149271709Y-107972572D01*
X149056984Y-107936741D01*
X148715500Y-107936741D01*
X148459500Y-107936741D01*
X148138159Y-107936741D01*
X148139462Y-107935465D01*
X148523487Y-107657684D01*
X148706177Y-107478628D01*
X148860237Y-107274415D01*
X148982244Y-107049579D01*
X149069490Y-106809111D01*
X149119109Y-106562969D01*
X149210980Y-105828000D01*
X149336741Y-105828000D01*
X149336741Y-106779366D01*
X149357290Y-106944220D01*
X149447918Y-107150828D01*
X149602526Y-107318778D01*
X149803291Y-107427428D01*
X150018016Y-107463259D01*
X150359500Y-107463259D01*
X150359500Y-105828000D01*
X150615500Y-105828000D01*
X150615500Y-107463259D01*
X150954366Y-107463259D01*
X151119220Y-107442710D01*
X151325828Y-107352082D01*
X151493778Y-107197474D01*
X151602428Y-106996709D01*
X151638259Y-106781984D01*
X151638259Y-105828000D01*
X150615500Y-105828000D01*
X150359500Y-105828000D01*
X149336741Y-105828000D01*
X149210980Y-105828000D01*
X149336741Y-104821919D01*
X149336741Y-105572000D01*
X150359500Y-105572000D01*
X150359500Y-103936741D01*
X150615500Y-103936741D01*
X150615500Y-105572000D01*
X151638259Y-105572000D01*
X151638259Y-104620634D01*
X151617710Y-104455780D01*
X151527082Y-104249172D01*
X151372474Y-104081222D01*
X151171709Y-103972572D01*
X150956984Y-103936741D01*
X150615500Y-103936741D01*
X150359500Y-103936741D01*
X150020634Y-103936741D01*
X149855780Y-103957290D01*
X149649172Y-104047918D01*
X149481222Y-104202526D01*
X149411015Y-104332255D01*
X149418980Y-104287392D01*
X149500034Y-104003787D01*
X149610945Y-103726960D01*
X149886060Y-103130878D01*
X150004309Y-102835682D01*
X150091640Y-102529910D01*
X150246751Y-101857765D01*
X150306124Y-101512087D01*
X150310896Y-101428000D01*
X150486741Y-101428000D01*
X150486741Y-102729367D01*
X150507290Y-102894221D01*
X150597916Y-103100829D01*
X150752526Y-103268780D01*
X150953291Y-103377428D01*
X151168015Y-103413259D01*
X151559500Y-103413259D01*
X151559500Y-101428000D01*
X151815500Y-101428000D01*
X151815500Y-103413259D01*
X152204367Y-103413259D01*
X152369221Y-103392710D01*
X152575829Y-103302084D01*
X152743780Y-103147474D01*
X152851951Y-102947590D01*
X165709966Y-102947590D01*
X165709966Y-103682000D01*
X166872000Y-103682000D01*
X166872000Y-102519966D01*
X167128000Y-102519966D01*
X167128000Y-103682000D01*
X168290034Y-103682000D01*
X168290034Y-102947590D01*
X168258820Y-102790661D01*
X168162897Y-102647103D01*
X168019339Y-102551180D01*
X167862410Y-102519966D01*
X167128000Y-102519966D01*
X166872000Y-102519966D01*
X166137590Y-102519966D01*
X165980661Y-102551180D01*
X165837103Y-102647103D01*
X165741180Y-102790661D01*
X165709966Y-102947590D01*
X152851951Y-102947590D01*
X152852428Y-102946709D01*
X152888259Y-102731985D01*
X152888259Y-101428000D01*
X151815500Y-101428000D01*
X151559500Y-101428000D01*
X150486741Y-101428000D01*
X150310896Y-101428000D01*
X150326000Y-101161909D01*
X150326000Y-99868015D01*
X150486741Y-99868015D01*
X150486741Y-101172000D01*
X151559500Y-101172000D01*
X151559500Y-99186741D01*
X151815500Y-99186741D01*
X151815500Y-101172000D01*
X152888259Y-101172000D01*
X152888259Y-99870633D01*
X152867710Y-99705779D01*
X152777084Y-99499171D01*
X152622474Y-99331220D01*
X152421709Y-99222572D01*
X152206985Y-99186741D01*
X151815500Y-99186741D01*
X151559500Y-99186741D01*
X151170633Y-99186741D01*
X151005779Y-99207290D01*
X150799171Y-99297916D01*
X150631220Y-99452526D01*
X150522572Y-99653291D01*
X150486741Y-99868015D01*
X150326000Y-99868015D01*
X150326000Y-96728000D01*
X150486741Y-96728000D01*
X150486741Y-98029367D01*
X150507290Y-98194221D01*
X150597916Y-98400829D01*
X150752526Y-98568780D01*
X150953291Y-98677428D01*
X151168015Y-98713259D01*
X151559500Y-98713259D01*
X151559500Y-96728000D01*
X151815500Y-96728000D01*
X151815500Y-98713259D01*
X152204367Y-98713259D01*
X152369221Y-98692710D01*
X152575829Y-98602084D01*
X152743780Y-98447474D01*
X152852428Y-98246709D01*
X152888259Y-98031985D01*
X152888259Y-96728000D01*
X151815500Y-96728000D01*
X151559500Y-96728000D01*
X150486741Y-96728000D01*
X150326000Y-96728000D01*
X150326000Y-95676424D01*
X150307249Y-95420034D01*
X150251154Y-95168015D01*
X150486741Y-95168015D01*
X150486741Y-96472000D01*
X151559500Y-96472000D01*
X151559500Y-94486741D01*
X151815500Y-94486741D01*
X151815500Y-96472000D01*
X152888259Y-96472000D01*
X152888259Y-95170633D01*
X152867710Y-95005779D01*
X152777084Y-94799171D01*
X152622474Y-94631220D01*
X152421709Y-94522572D01*
X152206985Y-94486741D01*
X151815500Y-94486741D01*
X151559500Y-94486741D01*
X151170633Y-94486741D01*
X151005779Y-94507290D01*
X150799171Y-94597916D01*
X150631220Y-94752526D01*
X150522572Y-94953291D01*
X150486741Y-95168015D01*
X150251154Y-95168015D01*
X150250393Y-95164597D01*
X150156977Y-94920151D01*
X150028991Y-94691896D01*
X149869158Y-94484691D01*
X149519120Y-94146800D01*
X149482201Y-94098939D01*
X149568015Y-94113259D01*
X149959500Y-94113259D01*
X149959500Y-92128000D01*
X150215500Y-92128000D01*
X150215500Y-94113259D01*
X150604367Y-94113259D01*
X150769221Y-94092710D01*
X150975829Y-94002084D01*
X151143780Y-93847474D01*
X151252428Y-93646709D01*
X151288259Y-93431985D01*
X151288259Y-92128000D01*
X150215500Y-92128000D01*
X149959500Y-92128000D01*
X149959500Y-89886741D01*
X150215500Y-89886741D01*
X150215500Y-91872000D01*
X151288259Y-91872000D01*
X151288259Y-90570633D01*
X151267710Y-90405779D01*
X151177084Y-90199171D01*
X151022474Y-90031220D01*
X150821709Y-89922572D01*
X150606985Y-89886741D01*
X150215500Y-89886741D01*
X149959500Y-89886741D01*
X149570633Y-89886741D01*
X149405779Y-89907290D01*
X149199171Y-89997916D01*
X149031220Y-90152526D01*
X148922572Y-90353291D01*
X148886741Y-90568015D01*
X148886741Y-90918910D01*
X148777998Y-90697979D01*
X148589061Y-90414618D01*
X148364811Y-90158295D01*
X148109071Y-89933379D01*
X147826201Y-89743707D01*
X147521027Y-89592514D01*
X147202660Y-89483712D01*
X147186849Y-89479438D01*
X146889232Y-89377728D01*
X146611110Y-89239936D01*
X146353316Y-89067078D01*
X146222000Y-88951589D01*
X146222000Y-85328000D01*
X146478000Y-85328000D01*
X146478000Y-89040034D01*
X147262410Y-89040034D01*
X147419339Y-89008820D01*
X147562897Y-88912897D01*
X147658820Y-88769339D01*
X147690034Y-88612410D01*
X147690034Y-85328000D01*
X146478000Y-85328000D01*
X146222000Y-85328000D01*
X146222000Y-81359966D01*
X146478000Y-81359966D01*
X146478000Y-85072000D01*
X147690034Y-85072000D01*
X147690034Y-81787590D01*
X147658820Y-81630661D01*
X147562897Y-81487103D01*
X147419339Y-81391180D01*
X147262410Y-81359966D01*
X146478000Y-81359966D01*
X146222000Y-81359966D01*
X145816301Y-81359966D01*
X145863534Y-81312733D01*
X146038240Y-81190403D01*
X146231532Y-81100269D01*
X146437537Y-81045070D01*
X146651037Y-81026391D01*
X146931612Y-81046324D01*
G37*
D16*
X146931612Y-81046324D02*
X147207575Y-81105944D01*
X147472332Y-81203977D01*
X147720573Y-81338457D01*
X147947308Y-81506679D01*
X148147979Y-81705262D01*
X148318569Y-81930233D01*
X148457808Y-82180962D01*
X151857041Y-89476877D01*
X151966599Y-89746552D01*
X152048625Y-90025845D01*
X153093776Y-94380642D01*
X153153873Y-94717286D01*
X153174000Y-95058678D01*
X153174000Y-97308307D01*
X153179965Y-97499373D01*
X153224591Y-98213396D01*
X153256913Y-98426662D01*
X153327858Y-98636251D01*
X153434400Y-98830183D01*
X153573249Y-99002465D01*
X153740116Y-99147778D01*
X153929847Y-99261633D01*
X154131377Y-99338528D01*
X160659949Y-101191232D01*
X160882347Y-101245452D01*
X164880350Y-102063226D01*
X165188838Y-102110266D01*
X165500495Y-102126000D01*
X166995499Y-102126000D01*
X167238192Y-102143357D01*
X167471527Y-102194117D01*
X167695273Y-102277569D01*
X167904858Y-102392012D01*
X168096029Y-102535121D01*
X168264879Y-102703971D01*
X168407988Y-102895142D01*
X168522431Y-103104727D01*
X168605883Y-103328473D01*
X168656643Y-103561808D01*
X168674000Y-103804501D01*
X168674000Y-108895499D01*
X168656643Y-109138192D01*
X168605883Y-109371527D01*
X168522431Y-109595273D01*
X168407988Y-109804858D01*
X168264879Y-109996029D01*
X168096029Y-110164879D01*
X167904858Y-110307988D01*
X167695273Y-110422431D01*
X167471527Y-110505883D01*
X167238192Y-110556643D01*
X167000000Y-110573678D01*
X166761808Y-110556643D01*
X166528473Y-110505883D01*
X166304727Y-110422431D01*
X166095142Y-110307988D01*
X165903971Y-110164879D01*
X165735121Y-109996029D01*
X165592012Y-109804858D01*
X165477569Y-109595273D01*
X165394117Y-109371527D01*
X165343357Y-109138192D01*
X165334762Y-109018000D01*
X165719096Y-109018000D01*
X165754447Y-109223744D01*
X165836124Y-109445140D01*
X165956781Y-109647944D01*
X166112373Y-109825363D01*
X166297693Y-109971458D01*
X166506532Y-110081334D01*
X166872000Y-110194816D01*
X166872000Y-109018000D01*
X167128000Y-109018000D01*
X167128000Y-110188073D01*
X167462113Y-110093844D01*
X167673757Y-109989471D01*
X167862838Y-109848279D01*
X168023022Y-109674992D01*
X168148945Y-109475417D01*
X168236389Y-109256235D01*
X168283778Y-109018000D01*
X167128000Y-109018000D01*
X166872000Y-109018000D01*
X165719096Y-109018000D01*
X165334762Y-109018000D01*
X165326000Y-108895499D01*
X165326000Y-108762000D01*
X165716222Y-108762000D01*
X168280904Y-108762000D01*
X168245553Y-108556256D01*
X168163876Y-108334860D01*
X168043219Y-108132056D01*
X167887627Y-107954637D01*
X167702307Y-107808542D01*
X167493468Y-107698666D01*
X167267305Y-107628440D01*
X167198716Y-107621231D01*
X167234991Y-107617898D01*
X167462113Y-107553844D01*
X167673757Y-107449471D01*
X167862838Y-107308279D01*
X168023022Y-107134992D01*
X168148945Y-106935417D01*
X168236389Y-106716235D01*
X168283778Y-106478000D01*
X165719096Y-106478000D01*
X165754447Y-106683744D01*
X165836124Y-106905140D01*
X165956781Y-107107944D01*
X166112373Y-107285363D01*
X166297693Y-107431458D01*
X166506532Y-107541334D01*
X166732695Y-107611560D01*
X166801284Y-107618769D01*
X166765009Y-107622102D01*
X166537887Y-107686156D01*
X166326243Y-107790529D01*
X166137162Y-107931721D01*
X165976978Y-108105008D01*
X165851055Y-108304583D01*
X165763611Y-108523765D01*
X165716222Y-108762000D01*
X165326000Y-108762000D01*
X165326000Y-106921970D01*
X165304902Y-106585256D01*
X165241200Y-106249927D01*
X165136137Y-105925173D01*
X164991358Y-105616073D01*
X164809127Y-105327464D01*
X164592499Y-105064109D01*
X164344484Y-104827242D01*
X164071205Y-104620569D01*
X163776031Y-104446593D01*
X163462855Y-104307608D01*
X163135810Y-104205447D01*
X162802770Y-104142137D01*
X161246230Y-103938000D01*
X165709966Y-103938000D01*
X165709966Y-104672410D01*
X165741180Y-104829339D01*
X165837103Y-104972897D01*
X165980661Y-105068820D01*
X166137590Y-105100034D01*
X166701426Y-105100034D01*
X166537887Y-105146156D01*
X166326243Y-105250529D01*
X166137162Y-105391721D01*
X165976978Y-105565008D01*
X165851055Y-105764583D01*
X165763611Y-105983765D01*
X165716222Y-106222000D01*
X168280904Y-106222000D01*
X168245553Y-106016256D01*
X168163876Y-105794860D01*
X168043219Y-105592056D01*
X167887627Y-105414637D01*
X167702307Y-105268542D01*
X167493468Y-105158666D01*
X167304644Y-105100034D01*
X167862410Y-105100034D01*
X168019339Y-105068820D01*
X168162897Y-104972897D01*
X168258820Y-104829339D01*
X168290034Y-104672410D01*
X168290034Y-103938000D01*
X165709966Y-103938000D01*
X161246230Y-103938000D01*
X160807458Y-103880456D01*
X160728854Y-103869066D01*
X155766438Y-103081381D01*
X155461733Y-103055165D01*
X155151890Y-103072957D01*
X154847756Y-103134780D01*
X154555555Y-103239370D01*
X154281270Y-103384584D01*
X154030512Y-103567452D01*
X153808415Y-103784230D01*
X153622278Y-104026893D01*
X153156420Y-104733713D01*
X152991458Y-105015264D01*
X152855690Y-105315651D01*
X152753351Y-105625505D01*
X152374055Y-107016260D01*
X152263140Y-107344455D01*
X152113952Y-107657113D01*
X150464057Y-110642638D01*
X150271181Y-110945729D01*
X150044863Y-111219687D01*
X149783619Y-111466303D01*
X149261350Y-111901526D01*
X149039298Y-112111443D01*
X148842675Y-112350489D01*
X148677428Y-112612208D01*
X148546143Y-112892507D01*
X148450873Y-113187002D01*
X148393108Y-113491084D01*
X148374000Y-113796057D01*
X148374000Y-114362825D01*
X148352747Y-114598725D01*
X148291185Y-114821543D01*
X148190791Y-115029762D01*
X148054230Y-115217463D01*
X147884781Y-115384125D01*
X147691606Y-115524199D01*
X147479691Y-115633894D01*
X147249317Y-115712272D01*
X142226847Y-117011187D01*
X141961679Y-117092606D01*
X141704868Y-117197442D01*
X140762923Y-117632185D01*
X140526823Y-117753838D01*
X139932760Y-118093302D01*
X139594162Y-118258643D01*
X139240907Y-118377462D01*
X138875233Y-118449565D01*
X138499214Y-118474000D01*
X134804956Y-118474000D01*
X134569476Y-118455467D01*
X134344628Y-118401486D01*
X134130996Y-118312997D01*
X133933830Y-118192173D01*
X133758000Y-118042000D01*
X133607827Y-117866170D01*
X133487003Y-117669004D01*
X133398514Y-117455372D01*
X133344533Y-117230524D01*
X133336465Y-117128000D01*
X133386891Y-117128000D01*
X133479551Y-117400190D01*
X133589347Y-117578662D01*
X133735954Y-117728372D01*
X133912087Y-117841881D01*
X134202000Y-117947402D01*
X134202000Y-117944485D01*
X134458000Y-117944485D01*
X134736118Y-117847635D01*
X134913818Y-117736596D01*
X134964612Y-117686155D01*
X135005954Y-117728372D01*
X135182087Y-117841881D01*
X135472000Y-117947402D01*
X135472000Y-117944485D01*
X135728000Y-117944485D01*
X136006118Y-117847635D01*
X136183818Y-117736596D01*
X136234612Y-117686155D01*
X136275954Y-117728372D01*
X136452087Y-117841881D01*
X136742000Y-117947402D01*
X136742000Y-117944485D01*
X136998000Y-117944485D01*
X137276118Y-117847635D01*
X137329329Y-117814385D01*
X137470661Y-117908820D01*
X137627590Y-117940034D01*
X138012000Y-117940034D01*
X138012000Y-117128000D01*
X138268000Y-117128000D01*
X138268000Y-117940034D01*
X138652410Y-117940034D01*
X138809339Y-117908820D01*
X138952897Y-117812897D01*
X139048820Y-117669339D01*
X139080034Y-117512410D01*
X139080034Y-117128000D01*
X138268000Y-117128000D01*
X138012000Y-117128000D01*
X138012000Y-116059966D01*
X138268000Y-116059966D01*
X138268000Y-116872000D01*
X139080034Y-116872000D01*
X139080034Y-116487590D01*
X139048820Y-116330661D01*
X138952897Y-116187103D01*
X138901859Y-116153000D01*
X139961741Y-116153000D01*
X139961741Y-116354367D01*
X139982290Y-116519221D01*
X140072916Y-116725829D01*
X140227526Y-116893780D01*
X140428291Y-117002428D01*
X140643015Y-117038259D01*
X140972000Y-117038259D01*
X140972000Y-116153000D01*
X141228000Y-116153000D01*
X141228000Y-117038259D01*
X141554367Y-117038259D01*
X141719221Y-117017710D01*
X141925829Y-116927084D01*
X142093780Y-116772474D01*
X142202428Y-116571709D01*
X142238259Y-116356985D01*
X142238259Y-116153000D01*
X141228000Y-116153000D01*
X140972000Y-116153000D01*
X139961741Y-116153000D01*
X138901859Y-116153000D01*
X138809339Y-116091180D01*
X138652410Y-116059966D01*
X138268000Y-116059966D01*
X138012000Y-116059966D01*
X137627590Y-116059966D01*
X137470661Y-116091180D01*
X137329943Y-116185205D01*
X137287914Y-116158119D01*
X136998000Y-116052598D01*
X136998000Y-117944485D01*
X136742000Y-117944485D01*
X136742000Y-116055515D01*
X136463882Y-116152365D01*
X136286182Y-116263404D01*
X136235388Y-116313845D01*
X136194046Y-116271628D01*
X136017913Y-116158119D01*
X135728000Y-116052598D01*
X135728000Y-117944485D01*
X135472000Y-117944485D01*
X135472000Y-116055515D01*
X135193882Y-116152365D01*
X135016182Y-116263404D01*
X134965388Y-116313845D01*
X134924046Y-116271628D01*
X134747913Y-116158119D01*
X134458000Y-116052598D01*
X134458000Y-117944485D01*
X134202000Y-117944485D01*
X134202000Y-117128000D01*
X133386891Y-117128000D01*
X133336465Y-117128000D01*
X133326390Y-117000000D01*
X133336464Y-116872000D01*
X133384085Y-116872000D01*
X134202000Y-116872000D01*
X134202000Y-116055515D01*
X133923882Y-116152365D01*
X133746182Y-116263404D01*
X133597498Y-116411054D01*
X133485222Y-116587974D01*
X133384085Y-116872000D01*
X133336464Y-116872000D01*
X133344533Y-116769476D01*
X133398514Y-116544628D01*
X133487003Y-116330996D01*
X133607827Y-116133830D01*
X133758000Y-115958000D01*
X133933830Y-115807827D01*
X134130996Y-115687003D01*
X134344628Y-115598514D01*
X134569476Y-115544533D01*
X134804956Y-115526000D01*
X138931613Y-115526000D01*
X139278964Y-115550206D01*
X139624395Y-115623372D01*
X139867763Y-115672843D01*
X139964380Y-115677198D01*
X139961741Y-115693015D01*
X139961741Y-115897000D01*
X142238259Y-115897000D01*
X142238259Y-115695633D01*
X142217710Y-115530779D01*
X142129401Y-115329454D01*
X142252105Y-115311868D01*
X144145014Y-115128684D01*
X144232455Y-115113259D01*
X144279366Y-115113259D01*
X144444220Y-115092710D01*
X144643154Y-115005449D01*
X144711326Y-114982033D01*
X144972773Y-114843545D01*
X145209482Y-114666056D01*
X145415686Y-114453893D01*
X145586361Y-114212225D01*
X145636741Y-114110189D01*
X145636741Y-114429366D01*
X145657290Y-114594220D01*
X145747918Y-114800828D01*
X145902526Y-114968778D01*
X146103291Y-115077428D01*
X146318016Y-115113259D01*
X146659500Y-115113259D01*
X146659500Y-113928000D01*
X146915500Y-113928000D01*
X146915500Y-115113259D01*
X147254366Y-115113259D01*
X147419220Y-115092710D01*
X147625828Y-115002082D01*
X147793778Y-114847474D01*
X147902428Y-114646709D01*
X147938259Y-114431984D01*
X147938259Y-113928000D01*
X146915500Y-113928000D01*
X146659500Y-113928000D01*
X146659500Y-112486741D01*
X146915500Y-112486741D01*
X146915500Y-113672000D01*
X147938259Y-113672000D01*
X147938259Y-113170634D01*
X147917710Y-113005780D01*
X147827082Y-112799172D01*
X147672474Y-112631222D01*
X147471709Y-112522572D01*
X147256984Y-112486741D01*
X146915500Y-112486741D01*
X146659500Y-112486741D01*
X146467445Y-112486741D01*
X146825238Y-112009683D01*
X147044727Y-111673651D01*
X147220659Y-111308346D01*
X147347832Y-110923343D01*
X147423338Y-110529146D01*
X147436741Y-110421922D01*
X147436741Y-110779366D01*
X147457290Y-110944220D01*
X147547918Y-111150828D01*
X147702526Y-111318778D01*
X147903291Y-111427428D01*
X148118016Y-111463259D01*
X148459500Y-111463259D01*
X148459500Y-109828000D01*
X148715500Y-109828000D01*
X148715500Y-111463259D01*
X149054366Y-111463259D01*
X149219220Y-111442710D01*
X149425828Y-111352082D01*
X149593778Y-111197474D01*
X149702428Y-110996709D01*
X149738259Y-110781984D01*
X149738259Y-109828000D01*
X148715500Y-109828000D01*
X148459500Y-109828000D01*
X148459500Y-107936741D01*
X148715500Y-107936741D01*
X148715500Y-109572000D01*
X149738259Y-109572000D01*
X149738259Y-108620634D01*
X149717710Y-108455780D01*
X149627082Y-108249172D01*
X149472474Y-108081222D01*
X149271709Y-107972572D01*
X149056984Y-107936741D01*
X148715500Y-107936741D01*
X148459500Y-107936741D01*
X148138159Y-107936741D01*
X148139462Y-107935465D01*
X148523487Y-107657684D01*
X148706177Y-107478628D01*
X148860237Y-107274415D01*
X148982244Y-107049579D01*
X149069490Y-106809111D01*
X149119109Y-106562969D01*
X149210980Y-105828000D01*
X149336741Y-105828000D01*
X149336741Y-106779366D01*
X149357290Y-106944220D01*
X149447918Y-107150828D01*
X149602526Y-107318778D01*
X149803291Y-107427428D01*
X150018016Y-107463259D01*
X150359500Y-107463259D01*
X150359500Y-105828000D01*
X150615500Y-105828000D01*
X150615500Y-107463259D01*
X150954366Y-107463259D01*
X151119220Y-107442710D01*
X151325828Y-107352082D01*
X151493778Y-107197474D01*
X151602428Y-106996709D01*
X151638259Y-106781984D01*
X151638259Y-105828000D01*
X150615500Y-105828000D01*
X150359500Y-105828000D01*
X149336741Y-105828000D01*
X149210980Y-105828000D01*
X149336741Y-104821919D01*
X149336741Y-105572000D01*
X150359500Y-105572000D01*
X150359500Y-103936741D01*
X150615500Y-103936741D01*
X150615500Y-105572000D01*
X151638259Y-105572000D01*
X151638259Y-104620634D01*
X151617710Y-104455780D01*
X151527082Y-104249172D01*
X151372474Y-104081222D01*
X151171709Y-103972572D01*
X150956984Y-103936741D01*
X150615500Y-103936741D01*
X150359500Y-103936741D01*
X150020634Y-103936741D01*
X149855780Y-103957290D01*
X149649172Y-104047918D01*
X149481222Y-104202526D01*
X149411015Y-104332255D01*
X149418980Y-104287392D01*
X149500034Y-104003787D01*
X149610945Y-103726960D01*
X149886060Y-103130878D01*
X150004309Y-102835682D01*
X150091640Y-102529910D01*
X150246751Y-101857765D01*
X150306124Y-101512087D01*
X150310896Y-101428000D01*
X150486741Y-101428000D01*
X150486741Y-102729367D01*
X150507290Y-102894221D01*
X150597916Y-103100829D01*
X150752526Y-103268780D01*
X150953291Y-103377428D01*
X151168015Y-103413259D01*
X151559500Y-103413259D01*
X151559500Y-101428000D01*
X151815500Y-101428000D01*
X151815500Y-103413259D01*
X152204367Y-103413259D01*
X152369221Y-103392710D01*
X152575829Y-103302084D01*
X152743780Y-103147474D01*
X152851951Y-102947590D01*
X165709966Y-102947590D01*
X165709966Y-103682000D01*
X166872000Y-103682000D01*
X166872000Y-102519966D01*
X167128000Y-102519966D01*
X167128000Y-103682000D01*
X168290034Y-103682000D01*
X168290034Y-102947590D01*
X168258820Y-102790661D01*
X168162897Y-102647103D01*
X168019339Y-102551180D01*
X167862410Y-102519966D01*
X167128000Y-102519966D01*
X166872000Y-102519966D01*
X166137590Y-102519966D01*
X165980661Y-102551180D01*
X165837103Y-102647103D01*
X165741180Y-102790661D01*
X165709966Y-102947590D01*
X152851951Y-102947590D01*
X152852428Y-102946709D01*
X152888259Y-102731985D01*
X152888259Y-101428000D01*
X151815500Y-101428000D01*
X151559500Y-101428000D01*
X150486741Y-101428000D01*
X150310896Y-101428000D01*
X150326000Y-101161909D01*
X150326000Y-99868015D01*
X150486741Y-99868015D01*
X150486741Y-101172000D01*
X151559500Y-101172000D01*
X151559500Y-99186741D01*
X151815500Y-99186741D01*
X151815500Y-101172000D01*
X152888259Y-101172000D01*
X152888259Y-99870633D01*
X152867710Y-99705779D01*
X152777084Y-99499171D01*
X152622474Y-99331220D01*
X152421709Y-99222572D01*
X152206985Y-99186741D01*
X151815500Y-99186741D01*
X151559500Y-99186741D01*
X151170633Y-99186741D01*
X151005779Y-99207290D01*
X150799171Y-99297916D01*
X150631220Y-99452526D01*
X150522572Y-99653291D01*
X150486741Y-99868015D01*
X150326000Y-99868015D01*
X150326000Y-96728000D01*
X150486741Y-96728000D01*
X150486741Y-98029367D01*
X150507290Y-98194221D01*
X150597916Y-98400829D01*
X150752526Y-98568780D01*
X150953291Y-98677428D01*
X151168015Y-98713259D01*
X151559500Y-98713259D01*
X151559500Y-96728000D01*
X151815500Y-96728000D01*
X151815500Y-98713259D01*
X152204367Y-98713259D01*
X152369221Y-98692710D01*
X152575829Y-98602084D01*
X152743780Y-98447474D01*
X152852428Y-98246709D01*
X152888259Y-98031985D01*
X152888259Y-96728000D01*
X151815500Y-96728000D01*
X151559500Y-96728000D01*
X150486741Y-96728000D01*
X150326000Y-96728000D01*
X150326000Y-95676424D01*
X150307249Y-95420034D01*
X150251154Y-95168015D01*
X150486741Y-95168015D01*
X150486741Y-96472000D01*
X151559500Y-96472000D01*
X151559500Y-94486741D01*
X151815500Y-94486741D01*
X151815500Y-96472000D01*
X152888259Y-96472000D01*
X152888259Y-95170633D01*
X152867710Y-95005779D01*
X152777084Y-94799171D01*
X152622474Y-94631220D01*
X152421709Y-94522572D01*
X152206985Y-94486741D01*
X151815500Y-94486741D01*
X151559500Y-94486741D01*
X151170633Y-94486741D01*
X151005779Y-94507290D01*
X150799171Y-94597916D01*
X150631220Y-94752526D01*
X150522572Y-94953291D01*
X150486741Y-95168015D01*
X150251154Y-95168015D01*
X150250393Y-95164597D01*
X150156977Y-94920151D01*
X150028991Y-94691896D01*
X149869158Y-94484691D01*
X149519120Y-94146800D01*
X149482201Y-94098939D01*
X149568015Y-94113259D01*
X149959500Y-94113259D01*
X149959500Y-92128000D01*
X150215500Y-92128000D01*
X150215500Y-94113259D01*
X150604367Y-94113259D01*
X150769221Y-94092710D01*
X150975829Y-94002084D01*
X151143780Y-93847474D01*
X151252428Y-93646709D01*
X151288259Y-93431985D01*
X151288259Y-92128000D01*
X150215500Y-92128000D01*
X149959500Y-92128000D01*
X149959500Y-89886741D01*
X150215500Y-89886741D01*
X150215500Y-91872000D01*
X151288259Y-91872000D01*
X151288259Y-90570633D01*
X151267710Y-90405779D01*
X151177084Y-90199171D01*
X151022474Y-90031220D01*
X150821709Y-89922572D01*
X150606985Y-89886741D01*
X150215500Y-89886741D01*
X149959500Y-89886741D01*
X149570633Y-89886741D01*
X149405779Y-89907290D01*
X149199171Y-89997916D01*
X149031220Y-90152526D01*
X148922572Y-90353291D01*
X148886741Y-90568015D01*
X148886741Y-90918910D01*
X148777998Y-90697979D01*
X148589061Y-90414618D01*
X148364811Y-90158295D01*
X148109071Y-89933379D01*
X147826201Y-89743707D01*
X147521027Y-89592514D01*
X147202660Y-89483712D01*
X147186849Y-89479438D01*
X146889232Y-89377728D01*
X146611110Y-89239936D01*
X146353316Y-89067078D01*
X146222000Y-88951589D01*
X146222000Y-85328000D01*
X146478000Y-85328000D01*
X146478000Y-89040034D01*
X147262410Y-89040034D01*
X147419339Y-89008820D01*
X147562897Y-88912897D01*
X147658820Y-88769339D01*
X147690034Y-88612410D01*
X147690034Y-85328000D01*
X146478000Y-85328000D01*
X146222000Y-85328000D01*
X146222000Y-81359966D01*
X146478000Y-81359966D01*
X146478000Y-85072000D01*
X147690034Y-85072000D01*
X147690034Y-81787590D01*
X147658820Y-81630661D01*
X147562897Y-81487103D01*
X147419339Y-81391180D01*
X147262410Y-81359966D01*
X146478000Y-81359966D01*
X146222000Y-81359966D01*
X145816301Y-81359966D01*
X145863534Y-81312733D01*
X146038240Y-81190403D01*
X146231532Y-81100269D01*
X146437537Y-81045070D01*
X146651037Y-81026391D01*
X146931612Y-81046324D01*
G36*
X155590156Y-104523578D02*
G01*
X160502524Y-105303319D01*
X160519390Y-105305879D01*
X160600438Y-105317624D01*
X160617336Y-105319955D01*
X162572582Y-105576381D01*
X162782587Y-105616303D01*
X162950203Y-105668662D01*
X163110714Y-105739895D01*
X163261970Y-105829046D01*
X163402038Y-105934975D01*
X163526553Y-106053894D01*
X163629958Y-106179603D01*
X163715043Y-106314357D01*
X163782636Y-106458667D01*
X163831692Y-106610303D01*
X163861434Y-106766863D01*
X163874000Y-106967408D01*
X163874000Y-108902249D01*
X163877218Y-108992350D01*
X163896020Y-109255249D01*
X163921668Y-109433635D01*
X163978173Y-109693382D01*
X164028944Y-109866290D01*
X164121838Y-110115351D01*
X164196705Y-110279285D01*
X164324100Y-110512590D01*
X164421529Y-110664192D01*
X164580830Y-110876992D01*
X164698845Y-111013190D01*
X164886810Y-111201155D01*
X165023008Y-111319170D01*
X165235808Y-111478471D01*
X165387410Y-111575900D01*
X165620715Y-111703295D01*
X165784649Y-111778162D01*
X166033710Y-111871056D01*
X166206618Y-111921827D01*
X166466365Y-111978332D01*
X166644751Y-112003980D01*
X166909895Y-112022943D01*
X167090105Y-112022943D01*
X167355249Y-112003980D01*
X167533635Y-111978332D01*
X167793382Y-111921827D01*
X167966290Y-111871056D01*
X168215351Y-111778162D01*
X168379285Y-111703295D01*
X168612590Y-111575900D01*
X168674000Y-111536434D01*
X168674000Y-118383846D01*
X168673403Y-118390106D01*
X168662162Y-118526838D01*
X168655598Y-118552969D01*
X168644856Y-118577675D01*
X168630224Y-118600292D01*
X168612098Y-118620212D01*
X168590963Y-118636904D01*
X168567381Y-118649922D01*
X168541987Y-118658915D01*
X168492467Y-118667735D01*
X168431524Y-118670609D01*
X168407242Y-118674000D01*
X162123920Y-118674000D01*
X162331979Y-118543268D01*
X162543268Y-118331979D01*
X162702244Y-118078970D01*
X162800934Y-117796930D01*
X162816749Y-117656568D01*
X163986240Y-117656568D01*
X164061165Y-118225682D01*
X164157061Y-118391778D01*
X165587189Y-118391777D01*
X165782099Y-118137766D01*
X165707174Y-117568652D01*
X165580174Y-117348682D01*
X165124769Y-116999238D01*
X164555655Y-117074163D01*
X164335684Y-117201163D01*
X163986240Y-117656568D01*
X162816749Y-117656568D01*
X162833593Y-117507076D01*
X162833593Y-116492924D01*
X162800934Y-116203070D01*
X162733768Y-116011119D01*
X163036240Y-116011119D01*
X163038334Y-116027029D01*
X163067317Y-116109857D01*
X163081379Y-116171469D01*
X163114039Y-116461324D01*
X163115814Y-116492924D01*
X163115814Y-116588286D01*
X163238165Y-116800204D01*
X163693570Y-117149648D01*
X164262684Y-117074723D01*
X164482655Y-116947723D01*
X164667699Y-116706568D01*
X165631688Y-116706568D01*
X165706613Y-117275682D01*
X165833613Y-117495652D01*
X166289018Y-117845096D01*
X166858132Y-117770171D01*
X167078103Y-117643171D01*
X167427547Y-117187766D01*
X167352622Y-116618652D01*
X167225622Y-116398682D01*
X166770217Y-116049238D01*
X166201103Y-116124163D01*
X165981132Y-116251163D01*
X165631688Y-116706568D01*
X164667699Y-116706568D01*
X164832099Y-116492318D01*
X164757174Y-115923204D01*
X164630174Y-115703234D01*
X164174769Y-115353789D01*
X163605655Y-115428714D01*
X163385684Y-115555714D01*
X163036240Y-116011119D01*
X162733768Y-116011119D01*
X162702244Y-115921030D01*
X162543268Y-115668021D01*
X162331979Y-115456732D01*
X162078970Y-115297756D01*
X161796930Y-115199066D01*
X161507076Y-115166407D01*
X160492924Y-115166407D01*
X160203070Y-115199066D01*
X160140616Y-115220919D01*
X159776871Y-115174000D01*
X159659458Y-115174000D01*
X159452986Y-115189706D01*
X159182347Y-115252436D01*
X159094876Y-115287334D01*
X158921581Y-115227494D01*
X158506871Y-115174000D01*
X158389458Y-115174000D01*
X158182986Y-115189706D01*
X157912347Y-115252436D01*
X157654310Y-115355383D01*
X157414814Y-115496175D01*
X157199371Y-115671574D01*
X157012937Y-115877543D01*
X156859804Y-116109342D01*
X156743493Y-116361637D01*
X156666684Y-116628622D01*
X156631144Y-116904154D01*
X156637689Y-117181890D01*
X156686170Y-117455443D01*
X156775471Y-117718513D01*
X156903535Y-117965049D01*
X157067418Y-118189377D01*
X157263348Y-118386335D01*
X157486814Y-118551391D01*
X157719859Y-118674000D01*
X141970571Y-118674000D01*
X142283766Y-118529449D01*
X142450146Y-118461528D01*
X142621923Y-118408784D01*
X145266761Y-117724774D01*
X148668102Y-117724774D01*
X148743027Y-118293889D01*
X148799544Y-118391778D01*
X150321388Y-118391778D01*
X150463961Y-118205973D01*
X150389036Y-117636859D01*
X150262036Y-117416889D01*
X149806631Y-117067444D01*
X149237517Y-117142370D01*
X149017546Y-117269370D01*
X148668102Y-117724774D01*
X145266761Y-117724774D01*
X147619713Y-117116252D01*
X147710280Y-117089176D01*
X147960778Y-117003952D01*
X148134595Y-116929889D01*
X148371674Y-116807168D01*
X148424212Y-116774774D01*
X150313550Y-116774774D01*
X150388475Y-117343889D01*
X150515475Y-117563859D01*
X150970880Y-117913303D01*
X151539994Y-117838378D01*
X151759965Y-117711378D01*
X151945009Y-117470223D01*
X152908999Y-117470223D01*
X152983924Y-118039337D01*
X153110924Y-118259307D01*
X153283563Y-118391777D01*
X154366960Y-118391778D01*
X154704857Y-117951422D01*
X154629932Y-117382307D01*
X154502932Y-117162337D01*
X154047527Y-116812893D01*
X153478413Y-116887818D01*
X153258443Y-117014818D01*
X152908999Y-117470223D01*
X151945009Y-117470223D01*
X152109409Y-117255973D01*
X152034484Y-116686859D01*
X151907484Y-116466889D01*
X151452079Y-116117444D01*
X150882965Y-116192370D01*
X150662994Y-116319370D01*
X150313550Y-116774774D01*
X148424212Y-116774774D01*
X148532498Y-116708007D01*
X148748619Y-116551295D01*
X148892853Y-116429254D01*
X149083518Y-116241726D01*
X149219190Y-116084305D01*
X149297985Y-115976002D01*
X149640529Y-115976002D01*
X150020880Y-116267855D01*
X150589994Y-116192930D01*
X150809965Y-116065930D01*
X150995010Y-115824774D01*
X151958999Y-115824774D01*
X152033924Y-116393889D01*
X152160924Y-116613859D01*
X152616329Y-116963303D01*
X153185443Y-116888378D01*
X153405413Y-116761378D01*
X153590457Y-116520223D01*
X154554447Y-116520223D01*
X154629372Y-117089337D01*
X154756372Y-117309307D01*
X155211777Y-117658752D01*
X155780891Y-117583826D01*
X156000861Y-117456826D01*
X156350306Y-117001422D01*
X156275381Y-116432307D01*
X156148381Y-116212337D01*
X155692976Y-115862893D01*
X155123861Y-115937818D01*
X154903891Y-116064818D01*
X154554447Y-116520223D01*
X153590457Y-116520223D01*
X153754857Y-116305973D01*
X153679932Y-115736859D01*
X153552932Y-115516889D01*
X153097527Y-115167444D01*
X152528413Y-115242370D01*
X152308443Y-115369370D01*
X151958999Y-115824774D01*
X150995010Y-115824774D01*
X151159409Y-115610525D01*
X151084484Y-115041411D01*
X150957484Y-114821440D01*
X150502079Y-114471996D01*
X150100648Y-114524845D01*
X150078444Y-114771287D01*
X150075038Y-114796407D01*
X150034519Y-115019449D01*
X150028872Y-115044163D01*
X149958247Y-115299784D01*
X149950406Y-115323890D01*
X149870675Y-115536091D01*
X149860701Y-115559399D01*
X149745524Y-115798279D01*
X149733499Y-115820596D01*
X149640529Y-115976002D01*
X149297985Y-115976002D01*
X149374932Y-115870240D01*
X149491309Y-115675708D01*
X149606487Y-115436827D01*
X149686218Y-115224626D01*
X149756843Y-114969005D01*
X149797362Y-114745963D01*
X149820905Y-114484658D01*
X149826000Y-114371324D01*
X149826000Y-114179326D01*
X151008999Y-114179326D01*
X151083924Y-114748440D01*
X151210924Y-114968411D01*
X151666329Y-115317855D01*
X152235443Y-115242930D01*
X152455413Y-115115930D01*
X152640458Y-114874774D01*
X153604447Y-114874774D01*
X153679372Y-115443889D01*
X153806372Y-115663859D01*
X154261777Y-116013303D01*
X154830891Y-115938378D01*
X155050861Y-115811378D01*
X155400306Y-115355973D01*
X155325381Y-114786859D01*
X155198381Y-114566889D01*
X154742976Y-114217444D01*
X154173861Y-114292370D01*
X153953891Y-114419370D01*
X153604447Y-114874774D01*
X152640458Y-114874774D01*
X152804857Y-114660525D01*
X152729932Y-114091411D01*
X152602932Y-113871440D01*
X152147527Y-113521996D01*
X151578413Y-113596921D01*
X151358443Y-113723921D01*
X151008999Y-114179326D01*
X149826000Y-114179326D01*
X149826000Y-113841486D01*
X149836576Y-113672689D01*
X149860383Y-113547363D01*
X149899648Y-113425990D01*
X149953755Y-113310469D01*
X150004988Y-113229326D01*
X152654447Y-113229326D01*
X152729372Y-113798440D01*
X152856372Y-114018411D01*
X153311777Y-114367855D01*
X153880891Y-114292930D01*
X154100861Y-114165930D01*
X154285906Y-113924774D01*
X155249895Y-113924774D01*
X155324820Y-114493889D01*
X155451820Y-114713859D01*
X155907225Y-115063303D01*
X156476339Y-114988378D01*
X156696310Y-114861378D01*
X157045754Y-114405973D01*
X156970829Y-113836859D01*
X156843829Y-113616889D01*
X156388424Y-113267444D01*
X155819310Y-113342370D01*
X155599339Y-113469370D01*
X155249895Y-113924774D01*
X154285906Y-113924774D01*
X154450306Y-113710525D01*
X154375381Y-113141411D01*
X154248381Y-112921440D01*
X153792976Y-112571996D01*
X153223861Y-112646921D01*
X153003891Y-112773921D01*
X152654447Y-113229326D01*
X150004988Y-113229326D01*
X150021854Y-113202615D01*
X150102898Y-113104084D01*
X150225809Y-112987890D01*
X150717658Y-112578017D01*
X150776101Y-112526170D01*
X151050106Y-112267507D01*
X151156832Y-112153477D01*
X151394798Y-111865419D01*
X151741512Y-111865419D01*
X151779372Y-112152992D01*
X151906372Y-112372963D01*
X152361777Y-112722407D01*
X152930891Y-112647482D01*
X153150861Y-112520482D01*
X153335906Y-112279326D01*
X154299895Y-112279326D01*
X154374820Y-112848440D01*
X154501820Y-113068411D01*
X154957225Y-113417855D01*
X155526339Y-113342930D01*
X155746310Y-113215930D01*
X155931355Y-112974774D01*
X156895343Y-112974774D01*
X156970269Y-113543889D01*
X157097269Y-113763859D01*
X157552673Y-114113303D01*
X158121788Y-114038378D01*
X158341758Y-113911378D01*
X158526802Y-113670223D01*
X159490792Y-113670223D01*
X159565717Y-114239337D01*
X159692717Y-114459307D01*
X160148122Y-114808752D01*
X160717236Y-114733826D01*
X160937206Y-114606826D01*
X161122251Y-114365671D01*
X162086240Y-114365671D01*
X162161165Y-114934785D01*
X162234832Y-115062380D01*
X162482129Y-115217768D01*
X162531539Y-115257170D01*
X162742828Y-115468459D01*
X162768693Y-115500892D01*
X163312684Y-115429275D01*
X163532655Y-115302275D01*
X163717700Y-115061119D01*
X164681688Y-115061119D01*
X164756613Y-115630234D01*
X164883613Y-115850204D01*
X165339018Y-116199648D01*
X165908132Y-116124723D01*
X166128103Y-115997723D01*
X166313147Y-115756568D01*
X167277136Y-115756568D01*
X167352062Y-116325682D01*
X167479062Y-116545652D01*
X167934466Y-116895096D01*
X168391777Y-116834890D01*
X168391777Y-115102382D01*
X167846551Y-115174163D01*
X167626581Y-115301163D01*
X167277136Y-115756568D01*
X166313147Y-115756568D01*
X166477547Y-115542318D01*
X166402622Y-114973204D01*
X166275622Y-114753234D01*
X165820217Y-114403789D01*
X165251103Y-114478714D01*
X165031132Y-114605714D01*
X164681688Y-115061119D01*
X163717700Y-115061119D01*
X163882099Y-114846870D01*
X163807174Y-114277756D01*
X163680174Y-114057785D01*
X163224769Y-113708341D01*
X162655655Y-113783266D01*
X162435684Y-113910266D01*
X162086240Y-114365671D01*
X161122251Y-114365671D01*
X161286651Y-114151422D01*
X161211725Y-113582307D01*
X161084725Y-113362337D01*
X160629321Y-113012893D01*
X160060206Y-113087818D01*
X159840236Y-113214818D01*
X159490792Y-113670223D01*
X158526802Y-113670223D01*
X158691202Y-113455973D01*
X158616277Y-112886859D01*
X158489277Y-112666889D01*
X158033872Y-112317444D01*
X157464758Y-112392370D01*
X157244788Y-112519370D01*
X156895343Y-112974774D01*
X155931355Y-112974774D01*
X156095754Y-112760525D01*
X156020829Y-112191411D01*
X155893829Y-111971440D01*
X155438424Y-111621996D01*
X154869310Y-111696921D01*
X154649339Y-111823921D01*
X154299895Y-112279326D01*
X153335906Y-112279326D01*
X153500306Y-112065077D01*
X153425381Y-111495963D01*
X153298381Y-111275992D01*
X152842976Y-110926548D01*
X152273861Y-111001473D01*
X152234667Y-111024102D01*
X151979090Y-111486575D01*
X151974750Y-111494149D01*
X151934865Y-111561326D01*
X151930292Y-111568763D01*
X151741512Y-111865419D01*
X151394798Y-111865419D01*
X151398059Y-111861472D01*
X151489894Y-111735145D01*
X151692193Y-111417247D01*
X151732078Y-111350069D01*
X152127867Y-110633878D01*
X153349895Y-110633878D01*
X153424820Y-111202992D01*
X153551820Y-111422963D01*
X154007225Y-111772407D01*
X154576339Y-111697482D01*
X154796310Y-111570482D01*
X154981355Y-111329326D01*
X155945343Y-111329326D01*
X156020269Y-111898440D01*
X156147269Y-112118411D01*
X156602673Y-112467855D01*
X157171788Y-112392930D01*
X157391758Y-112265930D01*
X157576803Y-112024774D01*
X158540792Y-112024774D01*
X158615717Y-112593889D01*
X158742717Y-112813859D01*
X159198122Y-113163303D01*
X159767236Y-113088378D01*
X159987206Y-112961378D01*
X160172250Y-112720223D01*
X161136240Y-112720223D01*
X161211165Y-113289337D01*
X161338165Y-113509307D01*
X161793570Y-113858752D01*
X162362684Y-113783826D01*
X162582655Y-113656826D01*
X162767699Y-113415671D01*
X163731688Y-113415671D01*
X163806613Y-113984785D01*
X163933613Y-114204756D01*
X164389018Y-114554200D01*
X164958132Y-114479275D01*
X165178103Y-114352275D01*
X165363148Y-114111119D01*
X166327136Y-114111119D01*
X166402062Y-114680234D01*
X166529062Y-114900204D01*
X166984466Y-115249648D01*
X167553581Y-115174723D01*
X167773551Y-115047723D01*
X168122995Y-114592318D01*
X168048070Y-114023204D01*
X167921070Y-113803234D01*
X167465665Y-113453789D01*
X166896551Y-113528714D01*
X166676581Y-113655714D01*
X166327136Y-114111119D01*
X165363148Y-114111119D01*
X165527547Y-113896870D01*
X165452622Y-113327756D01*
X165325622Y-113107785D01*
X164870217Y-112758341D01*
X164301103Y-112833266D01*
X164081132Y-112960266D01*
X163731688Y-113415671D01*
X162767699Y-113415671D01*
X162932099Y-113201422D01*
X162857174Y-112632307D01*
X162730174Y-112412337D01*
X162274769Y-112062893D01*
X161705655Y-112137818D01*
X161485684Y-112264818D01*
X161136240Y-112720223D01*
X160172250Y-112720223D01*
X160336651Y-112505973D01*
X160261725Y-111936859D01*
X160134725Y-111716889D01*
X159679321Y-111367444D01*
X159110206Y-111442370D01*
X158890236Y-111569370D01*
X158540792Y-112024774D01*
X157576803Y-112024774D01*
X157741202Y-111810525D01*
X157666277Y-111241411D01*
X157539277Y-111021440D01*
X157083872Y-110671996D01*
X156514758Y-110746921D01*
X156294788Y-110873921D01*
X155945343Y-111329326D01*
X154981355Y-111329326D01*
X155145754Y-111115077D01*
X155070829Y-110545963D01*
X154943829Y-110325992D01*
X154488424Y-109976548D01*
X153919310Y-110051473D01*
X153699339Y-110178473D01*
X153349895Y-110633878D01*
X152127867Y-110633878D01*
X152652867Y-109683878D01*
X154995343Y-109683878D01*
X155070269Y-110252992D01*
X155197269Y-110472963D01*
X155652673Y-110822407D01*
X156221788Y-110747482D01*
X156441758Y-110620482D01*
X156626803Y-110379326D01*
X157590792Y-110379326D01*
X157665717Y-110948440D01*
X157792717Y-111168411D01*
X158248122Y-111517855D01*
X158817236Y-111442930D01*
X159037206Y-111315930D01*
X159222251Y-111074774D01*
X160186240Y-111074774D01*
X160261165Y-111643889D01*
X160388165Y-111863859D01*
X160843570Y-112213303D01*
X161412684Y-112138378D01*
X161632655Y-112011378D01*
X161817699Y-111770223D01*
X162781688Y-111770223D01*
X162856613Y-112339337D01*
X162983613Y-112559307D01*
X163439018Y-112908752D01*
X164008132Y-112833826D01*
X164228103Y-112706826D01*
X164413147Y-112465671D01*
X165377136Y-112465671D01*
X165452062Y-113034785D01*
X165579062Y-113254756D01*
X166034466Y-113604200D01*
X166603581Y-113529275D01*
X166823551Y-113402275D01*
X167172995Y-112946870D01*
X167098070Y-112377756D01*
X167056160Y-112305165D01*
X166909894Y-112305165D01*
X166889760Y-112304445D01*
X166624617Y-112285482D01*
X166604585Y-112283328D01*
X166426199Y-112257680D01*
X166406372Y-112254103D01*
X166146625Y-112197599D01*
X166127104Y-112192617D01*
X165954196Y-112141846D01*
X165935083Y-112135484D01*
X165698272Y-112047158D01*
X165377136Y-112465671D01*
X164413147Y-112465671D01*
X164577547Y-112251422D01*
X164502622Y-111682307D01*
X164375622Y-111462337D01*
X163920217Y-111112893D01*
X163351103Y-111187818D01*
X163131132Y-111314818D01*
X162781688Y-111770223D01*
X161817699Y-111770223D01*
X161982099Y-111555973D01*
X161907174Y-110986859D01*
X161780174Y-110766889D01*
X161324769Y-110417444D01*
X160755655Y-110492370D01*
X160535684Y-110619370D01*
X160186240Y-111074774D01*
X159222251Y-111074774D01*
X159386651Y-110860525D01*
X159311725Y-110291411D01*
X159184725Y-110071440D01*
X158729321Y-109721996D01*
X158160206Y-109796921D01*
X157940236Y-109923921D01*
X157590792Y-110379326D01*
X156626803Y-110379326D01*
X156791202Y-110165077D01*
X156716277Y-109595963D01*
X156589277Y-109375992D01*
X156133872Y-109026548D01*
X155564758Y-109101473D01*
X155344788Y-109228473D01*
X154995343Y-109683878D01*
X152652867Y-109683878D01*
X153387535Y-108354479D01*
X153421989Y-108287490D01*
X153540831Y-108038430D01*
X154045343Y-108038430D01*
X154120269Y-108607544D01*
X154247269Y-108827514D01*
X154702673Y-109176959D01*
X155271788Y-109102033D01*
X155491758Y-108975033D01*
X155676802Y-108733878D01*
X156640792Y-108733878D01*
X156715717Y-109302992D01*
X156842717Y-109522963D01*
X157298122Y-109872407D01*
X157867236Y-109797482D01*
X158087206Y-109670482D01*
X158272251Y-109429326D01*
X159236240Y-109429326D01*
X159311165Y-109998440D01*
X159438165Y-110218411D01*
X159893570Y-110567855D01*
X160462684Y-110492930D01*
X160682655Y-110365930D01*
X160867700Y-110124774D01*
X161831688Y-110124774D01*
X161906613Y-110693889D01*
X162033613Y-110913859D01*
X162489018Y-111263303D01*
X163058132Y-111188378D01*
X163278103Y-111061378D01*
X163627547Y-110605973D01*
X163552622Y-110036859D01*
X163425622Y-109816889D01*
X162970217Y-109467444D01*
X162401103Y-109542370D01*
X162181132Y-109669370D01*
X161831688Y-110124774D01*
X160867700Y-110124774D01*
X161032099Y-109910525D01*
X160957174Y-109341411D01*
X160830174Y-109121440D01*
X160374769Y-108771996D01*
X159805655Y-108846921D01*
X159585684Y-108973921D01*
X159236240Y-109429326D01*
X158272251Y-109429326D01*
X158436651Y-109215077D01*
X158361725Y-108645963D01*
X158234725Y-108425992D01*
X157779321Y-108076548D01*
X157210206Y-108151473D01*
X156990236Y-108278473D01*
X156640792Y-108733878D01*
X155676802Y-108733878D01*
X155841202Y-108519629D01*
X155766277Y-107950514D01*
X155639277Y-107730544D01*
X155183872Y-107381100D01*
X154614758Y-107456025D01*
X154394788Y-107583025D01*
X154045343Y-108038430D01*
X153540831Y-108038430D01*
X153578461Y-107959568D01*
X153635097Y-107820024D01*
X153751426Y-107475810D01*
X153773406Y-107403757D01*
X153859404Y-107088430D01*
X155690792Y-107088430D01*
X155765717Y-107657544D01*
X155892717Y-107877514D01*
X156348122Y-108226959D01*
X156917236Y-108152033D01*
X157137206Y-108025033D01*
X157322251Y-107783878D01*
X158286240Y-107783878D01*
X158361165Y-108352992D01*
X158488165Y-108572963D01*
X158943570Y-108922407D01*
X159512684Y-108847482D01*
X159732655Y-108720482D01*
X159917700Y-108479326D01*
X160881688Y-108479326D01*
X160956613Y-109048440D01*
X161083613Y-109268411D01*
X161539018Y-109617855D01*
X162108132Y-109542930D01*
X162328103Y-109415930D01*
X162677547Y-108960525D01*
X162602622Y-108391411D01*
X162475622Y-108171440D01*
X162020217Y-107821996D01*
X161451103Y-107896921D01*
X161231132Y-108023921D01*
X160881688Y-108479326D01*
X159917700Y-108479326D01*
X160082099Y-108265077D01*
X160007174Y-107695963D01*
X159880174Y-107475992D01*
X159424769Y-107126548D01*
X158855655Y-107201473D01*
X158635684Y-107328473D01*
X158286240Y-107783878D01*
X157322251Y-107783878D01*
X157486651Y-107569629D01*
X157411725Y-107000514D01*
X157284725Y-106780544D01*
X156829321Y-106431100D01*
X156260206Y-106506025D01*
X156040236Y-106633025D01*
X155690792Y-107088430D01*
X153859404Y-107088430D01*
X154144113Y-106044494D01*
X154210393Y-105843817D01*
X154283014Y-105683142D01*
X154389853Y-105500795D01*
X154406976Y-105474815D01*
X154744983Y-105474815D01*
X154815717Y-106012096D01*
X154942717Y-106232066D01*
X155398122Y-106581510D01*
X155967236Y-106506585D01*
X156187206Y-106379585D01*
X156372250Y-106138430D01*
X157336240Y-106138430D01*
X157411165Y-106707544D01*
X157538165Y-106927514D01*
X157993570Y-107276959D01*
X158562684Y-107202033D01*
X158782655Y-107075033D01*
X158967699Y-106833878D01*
X159931688Y-106833878D01*
X160006613Y-107402992D01*
X160133613Y-107622963D01*
X160589018Y-107972407D01*
X161158132Y-107897482D01*
X161378103Y-107770482D01*
X161727547Y-107315077D01*
X161652622Y-106745963D01*
X161525622Y-106525992D01*
X161070217Y-106176548D01*
X160501103Y-106251473D01*
X160281132Y-106378473D01*
X159931688Y-106833878D01*
X158967699Y-106833878D01*
X159132099Y-106619629D01*
X159057174Y-106050514D01*
X158960967Y-105883878D01*
X161577136Y-105883878D01*
X161652062Y-106452992D01*
X161779062Y-106672963D01*
X162234466Y-107022407D01*
X162803581Y-106947482D01*
X163023551Y-106820482D01*
X163372995Y-106365077D01*
X163364594Y-106301260D01*
X163319366Y-106246275D01*
X163218853Y-106150280D01*
X163104682Y-106063936D01*
X162981393Y-105991269D01*
X162850558Y-105933206D01*
X162713929Y-105890526D01*
X162527852Y-105855153D01*
X161684088Y-105744495D01*
X161577136Y-105883878D01*
X158960967Y-105883878D01*
X158930174Y-105830544D01*
X158474769Y-105481100D01*
X157905655Y-105556025D01*
X157685684Y-105683025D01*
X157336240Y-106138430D01*
X156372250Y-106138430D01*
X156536651Y-105924180D01*
X156461725Y-105355066D01*
X156334725Y-105135096D01*
X155993650Y-104873379D01*
X155639705Y-104817197D01*
X155310206Y-104860577D01*
X155090236Y-104987577D01*
X154919238Y-105210426D01*
X154744983Y-105474815D01*
X154406976Y-105474815D01*
X154806028Y-104869355D01*
X154897137Y-104750579D01*
X154970193Y-104679272D01*
X155052683Y-104619116D01*
X155142922Y-104571341D01*
X155239036Y-104536937D01*
X155339089Y-104516599D01*
X155441016Y-104510747D01*
X155590156Y-104523578D01*
G37*
X155590156Y-104523578D02*
X160502524Y-105303319D01*
X160519390Y-105305879D01*
X160600438Y-105317624D01*
X160617336Y-105319955D01*
X162572582Y-105576381D01*
X162782587Y-105616303D01*
X162950203Y-105668662D01*
X163110714Y-105739895D01*
X163261970Y-105829046D01*
X163402038Y-105934975D01*
X163526553Y-106053894D01*
X163629958Y-106179603D01*
X163715043Y-106314357D01*
X163782636Y-106458667D01*
X163831692Y-106610303D01*
X163861434Y-106766863D01*
X163874000Y-106967408D01*
X163874000Y-108902249D01*
X163877218Y-108992350D01*
X163896020Y-109255249D01*
X163921668Y-109433635D01*
X163978173Y-109693382D01*
X164028944Y-109866290D01*
X164121838Y-110115351D01*
X164196705Y-110279285D01*
X164324100Y-110512590D01*
X164421529Y-110664192D01*
X164580830Y-110876992D01*
X164698845Y-111013190D01*
X164886810Y-111201155D01*
X165023008Y-111319170D01*
X165235808Y-111478471D01*
X165387410Y-111575900D01*
X165620715Y-111703295D01*
X165784649Y-111778162D01*
X166033710Y-111871056D01*
X166206618Y-111921827D01*
X166466365Y-111978332D01*
X166644751Y-112003980D01*
X166909895Y-112022943D01*
X167090105Y-112022943D01*
X167355249Y-112003980D01*
X167533635Y-111978332D01*
X167793382Y-111921827D01*
X167966290Y-111871056D01*
X168215351Y-111778162D01*
X168379285Y-111703295D01*
X168612590Y-111575900D01*
X168674000Y-111536434D01*
X168674000Y-118383846D01*
X168673403Y-118390106D01*
X168662162Y-118526838D01*
X168655598Y-118552969D01*
X168644856Y-118577675D01*
X168630224Y-118600292D01*
X168612098Y-118620212D01*
X168590963Y-118636904D01*
X168567381Y-118649922D01*
X168541987Y-118658915D01*
X168492467Y-118667735D01*
X168431524Y-118670609D01*
X168407242Y-118674000D01*
X162123920Y-118674000D01*
X162331979Y-118543268D01*
X162543268Y-118331979D01*
X162702244Y-118078970D01*
X162800934Y-117796930D01*
X162816749Y-117656568D01*
X163986240Y-117656568D01*
X164061165Y-118225682D01*
X164157061Y-118391778D01*
X165587189Y-118391777D01*
X165782099Y-118137766D01*
X165707174Y-117568652D01*
X165580174Y-117348682D01*
X165124769Y-116999238D01*
X164555655Y-117074163D01*
X164335684Y-117201163D01*
X163986240Y-117656568D01*
X162816749Y-117656568D01*
X162833593Y-117507076D01*
X162833593Y-116492924D01*
X162800934Y-116203070D01*
X162733768Y-116011119D01*
X163036240Y-116011119D01*
X163038334Y-116027029D01*
X163067317Y-116109857D01*
X163081379Y-116171469D01*
X163114039Y-116461324D01*
X163115814Y-116492924D01*
X163115814Y-116588286D01*
X163238165Y-116800204D01*
X163693570Y-117149648D01*
X164262684Y-117074723D01*
X164482655Y-116947723D01*
X164667699Y-116706568D01*
X165631688Y-116706568D01*
X165706613Y-117275682D01*
X165833613Y-117495652D01*
X166289018Y-117845096D01*
X166858132Y-117770171D01*
X167078103Y-117643171D01*
X167427547Y-117187766D01*
X167352622Y-116618652D01*
X167225622Y-116398682D01*
X166770217Y-116049238D01*
X166201103Y-116124163D01*
X165981132Y-116251163D01*
X165631688Y-116706568D01*
X164667699Y-116706568D01*
X164832099Y-116492318D01*
X164757174Y-115923204D01*
X164630174Y-115703234D01*
X164174769Y-115353789D01*
X163605655Y-115428714D01*
X163385684Y-115555714D01*
X163036240Y-116011119D01*
X162733768Y-116011119D01*
X162702244Y-115921030D01*
X162543268Y-115668021D01*
X162331979Y-115456732D01*
X162078970Y-115297756D01*
X161796930Y-115199066D01*
X161507076Y-115166407D01*
X160492924Y-115166407D01*
X160203070Y-115199066D01*
X160140616Y-115220919D01*
X159776871Y-115174000D01*
X159659458Y-115174000D01*
X159452986Y-115189706D01*
X159182347Y-115252436D01*
X159094876Y-115287334D01*
X158921581Y-115227494D01*
X158506871Y-115174000D01*
X158389458Y-115174000D01*
X158182986Y-115189706D01*
X157912347Y-115252436D01*
X157654310Y-115355383D01*
X157414814Y-115496175D01*
X157199371Y-115671574D01*
X157012937Y-115877543D01*
X156859804Y-116109342D01*
X156743493Y-116361637D01*
X156666684Y-116628622D01*
X156631144Y-116904154D01*
X156637689Y-117181890D01*
X156686170Y-117455443D01*
X156775471Y-117718513D01*
X156903535Y-117965049D01*
X157067418Y-118189377D01*
X157263348Y-118386335D01*
X157486814Y-118551391D01*
X157719859Y-118674000D01*
X141970571Y-118674000D01*
X142283766Y-118529449D01*
X142450146Y-118461528D01*
X142621923Y-118408784D01*
X145266761Y-117724774D01*
X148668102Y-117724774D01*
X148743027Y-118293889D01*
X148799544Y-118391778D01*
X150321388Y-118391778D01*
X150463961Y-118205973D01*
X150389036Y-117636859D01*
X150262036Y-117416889D01*
X149806631Y-117067444D01*
X149237517Y-117142370D01*
X149017546Y-117269370D01*
X148668102Y-117724774D01*
X145266761Y-117724774D01*
X147619713Y-117116252D01*
X147710280Y-117089176D01*
X147960778Y-117003952D01*
X148134595Y-116929889D01*
X148371674Y-116807168D01*
X148424212Y-116774774D01*
X150313550Y-116774774D01*
X150388475Y-117343889D01*
X150515475Y-117563859D01*
X150970880Y-117913303D01*
X151539994Y-117838378D01*
X151759965Y-117711378D01*
X151945009Y-117470223D01*
X152908999Y-117470223D01*
X152983924Y-118039337D01*
X153110924Y-118259307D01*
X153283563Y-118391777D01*
X154366960Y-118391778D01*
X154704857Y-117951422D01*
X154629932Y-117382307D01*
X154502932Y-117162337D01*
X154047527Y-116812893D01*
X153478413Y-116887818D01*
X153258443Y-117014818D01*
X152908999Y-117470223D01*
X151945009Y-117470223D01*
X152109409Y-117255973D01*
X152034484Y-116686859D01*
X151907484Y-116466889D01*
X151452079Y-116117444D01*
X150882965Y-116192370D01*
X150662994Y-116319370D01*
X150313550Y-116774774D01*
X148424212Y-116774774D01*
X148532498Y-116708007D01*
X148748619Y-116551295D01*
X148892853Y-116429254D01*
X149083518Y-116241726D01*
X149219190Y-116084305D01*
X149297985Y-115976002D01*
X149640529Y-115976002D01*
X150020880Y-116267855D01*
X150589994Y-116192930D01*
X150809965Y-116065930D01*
X150995010Y-115824774D01*
X151958999Y-115824774D01*
X152033924Y-116393889D01*
X152160924Y-116613859D01*
X152616329Y-116963303D01*
X153185443Y-116888378D01*
X153405413Y-116761378D01*
X153590457Y-116520223D01*
X154554447Y-116520223D01*
X154629372Y-117089337D01*
X154756372Y-117309307D01*
X155211777Y-117658752D01*
X155780891Y-117583826D01*
X156000861Y-117456826D01*
X156350306Y-117001422D01*
X156275381Y-116432307D01*
X156148381Y-116212337D01*
X155692976Y-115862893D01*
X155123861Y-115937818D01*
X154903891Y-116064818D01*
X154554447Y-116520223D01*
X153590457Y-116520223D01*
X153754857Y-116305973D01*
X153679932Y-115736859D01*
X153552932Y-115516889D01*
X153097527Y-115167444D01*
X152528413Y-115242370D01*
X152308443Y-115369370D01*
X151958999Y-115824774D01*
X150995010Y-115824774D01*
X151159409Y-115610525D01*
X151084484Y-115041411D01*
X150957484Y-114821440D01*
X150502079Y-114471996D01*
X150100648Y-114524845D01*
X150078444Y-114771287D01*
X150075038Y-114796407D01*
X150034519Y-115019449D01*
X150028872Y-115044163D01*
X149958247Y-115299784D01*
X149950406Y-115323890D01*
X149870675Y-115536091D01*
X149860701Y-115559399D01*
X149745524Y-115798279D01*
X149733499Y-115820596D01*
X149640529Y-115976002D01*
X149297985Y-115976002D01*
X149374932Y-115870240D01*
X149491309Y-115675708D01*
X149606487Y-115436827D01*
X149686218Y-115224626D01*
X149756843Y-114969005D01*
X149797362Y-114745963D01*
X149820905Y-114484658D01*
X149826000Y-114371324D01*
X149826000Y-114179326D01*
X151008999Y-114179326D01*
X151083924Y-114748440D01*
X151210924Y-114968411D01*
X151666329Y-115317855D01*
X152235443Y-115242930D01*
X152455413Y-115115930D01*
X152640458Y-114874774D01*
X153604447Y-114874774D01*
X153679372Y-115443889D01*
X153806372Y-115663859D01*
X154261777Y-116013303D01*
X154830891Y-115938378D01*
X155050861Y-115811378D01*
X155400306Y-115355973D01*
X155325381Y-114786859D01*
X155198381Y-114566889D01*
X154742976Y-114217444D01*
X154173861Y-114292370D01*
X153953891Y-114419370D01*
X153604447Y-114874774D01*
X152640458Y-114874774D01*
X152804857Y-114660525D01*
X152729932Y-114091411D01*
X152602932Y-113871440D01*
X152147527Y-113521996D01*
X151578413Y-113596921D01*
X151358443Y-113723921D01*
X151008999Y-114179326D01*
X149826000Y-114179326D01*
X149826000Y-113841486D01*
X149836576Y-113672689D01*
X149860383Y-113547363D01*
X149899648Y-113425990D01*
X149953755Y-113310469D01*
X150004988Y-113229326D01*
X152654447Y-113229326D01*
X152729372Y-113798440D01*
X152856372Y-114018411D01*
X153311777Y-114367855D01*
X153880891Y-114292930D01*
X154100861Y-114165930D01*
X154285906Y-113924774D01*
X155249895Y-113924774D01*
X155324820Y-114493889D01*
X155451820Y-114713859D01*
X155907225Y-115063303D01*
X156476339Y-114988378D01*
X156696310Y-114861378D01*
X157045754Y-114405973D01*
X156970829Y-113836859D01*
X156843829Y-113616889D01*
X156388424Y-113267444D01*
X155819310Y-113342370D01*
X155599339Y-113469370D01*
X155249895Y-113924774D01*
X154285906Y-113924774D01*
X154450306Y-113710525D01*
X154375381Y-113141411D01*
X154248381Y-112921440D01*
X153792976Y-112571996D01*
X153223861Y-112646921D01*
X153003891Y-112773921D01*
X152654447Y-113229326D01*
X150004988Y-113229326D01*
X150021854Y-113202615D01*
X150102898Y-113104084D01*
X150225809Y-112987890D01*
X150717658Y-112578017D01*
X150776101Y-112526170D01*
X151050106Y-112267507D01*
X151156832Y-112153477D01*
X151394798Y-111865419D01*
X151741512Y-111865419D01*
X151779372Y-112152992D01*
X151906372Y-112372963D01*
X152361777Y-112722407D01*
X152930891Y-112647482D01*
X153150861Y-112520482D01*
X153335906Y-112279326D01*
X154299895Y-112279326D01*
X154374820Y-112848440D01*
X154501820Y-113068411D01*
X154957225Y-113417855D01*
X155526339Y-113342930D01*
X155746310Y-113215930D01*
X155931355Y-112974774D01*
X156895343Y-112974774D01*
X156970269Y-113543889D01*
X157097269Y-113763859D01*
X157552673Y-114113303D01*
X158121788Y-114038378D01*
X158341758Y-113911378D01*
X158526802Y-113670223D01*
X159490792Y-113670223D01*
X159565717Y-114239337D01*
X159692717Y-114459307D01*
X160148122Y-114808752D01*
X160717236Y-114733826D01*
X160937206Y-114606826D01*
X161122251Y-114365671D01*
X162086240Y-114365671D01*
X162161165Y-114934785D01*
X162234832Y-115062380D01*
X162482129Y-115217768D01*
X162531539Y-115257170D01*
X162742828Y-115468459D01*
X162768693Y-115500892D01*
X163312684Y-115429275D01*
X163532655Y-115302275D01*
X163717700Y-115061119D01*
X164681688Y-115061119D01*
X164756613Y-115630234D01*
X164883613Y-115850204D01*
X165339018Y-116199648D01*
X165908132Y-116124723D01*
X166128103Y-115997723D01*
X166313147Y-115756568D01*
X167277136Y-115756568D01*
X167352062Y-116325682D01*
X167479062Y-116545652D01*
X167934466Y-116895096D01*
X168391777Y-116834890D01*
X168391777Y-115102382D01*
X167846551Y-115174163D01*
X167626581Y-115301163D01*
X167277136Y-115756568D01*
X166313147Y-115756568D01*
X166477547Y-115542318D01*
X166402622Y-114973204D01*
X166275622Y-114753234D01*
X165820217Y-114403789D01*
X165251103Y-114478714D01*
X165031132Y-114605714D01*
X164681688Y-115061119D01*
X163717700Y-115061119D01*
X163882099Y-114846870D01*
X163807174Y-114277756D01*
X163680174Y-114057785D01*
X163224769Y-113708341D01*
X162655655Y-113783266D01*
X162435684Y-113910266D01*
X162086240Y-114365671D01*
X161122251Y-114365671D01*
X161286651Y-114151422D01*
X161211725Y-113582307D01*
X161084725Y-113362337D01*
X160629321Y-113012893D01*
X160060206Y-113087818D01*
X159840236Y-113214818D01*
X159490792Y-113670223D01*
X158526802Y-113670223D01*
X158691202Y-113455973D01*
X158616277Y-112886859D01*
X158489277Y-112666889D01*
X158033872Y-112317444D01*
X157464758Y-112392370D01*
X157244788Y-112519370D01*
X156895343Y-112974774D01*
X155931355Y-112974774D01*
X156095754Y-112760525D01*
X156020829Y-112191411D01*
X155893829Y-111971440D01*
X155438424Y-111621996D01*
X154869310Y-111696921D01*
X154649339Y-111823921D01*
X154299895Y-112279326D01*
X153335906Y-112279326D01*
X153500306Y-112065077D01*
X153425381Y-111495963D01*
X153298381Y-111275992D01*
X152842976Y-110926548D01*
X152273861Y-111001473D01*
X152234667Y-111024102D01*
X151979090Y-111486575D01*
X151974750Y-111494149D01*
X151934865Y-111561326D01*
X151930292Y-111568763D01*
X151741512Y-111865419D01*
X151394798Y-111865419D01*
X151398059Y-111861472D01*
X151489894Y-111735145D01*
X151692193Y-111417247D01*
X151732078Y-111350069D01*
X152127867Y-110633878D01*
X153349895Y-110633878D01*
X153424820Y-111202992D01*
X153551820Y-111422963D01*
X154007225Y-111772407D01*
X154576339Y-111697482D01*
X154796310Y-111570482D01*
X154981355Y-111329326D01*
X155945343Y-111329326D01*
X156020269Y-111898440D01*
X156147269Y-112118411D01*
X156602673Y-112467855D01*
X157171788Y-112392930D01*
X157391758Y-112265930D01*
X157576803Y-112024774D01*
X158540792Y-112024774D01*
X158615717Y-112593889D01*
X158742717Y-112813859D01*
X159198122Y-113163303D01*
X159767236Y-113088378D01*
X159987206Y-112961378D01*
X160172250Y-112720223D01*
X161136240Y-112720223D01*
X161211165Y-113289337D01*
X161338165Y-113509307D01*
X161793570Y-113858752D01*
X162362684Y-113783826D01*
X162582655Y-113656826D01*
X162767699Y-113415671D01*
X163731688Y-113415671D01*
X163806613Y-113984785D01*
X163933613Y-114204756D01*
X164389018Y-114554200D01*
X164958132Y-114479275D01*
X165178103Y-114352275D01*
X165363148Y-114111119D01*
X166327136Y-114111119D01*
X166402062Y-114680234D01*
X166529062Y-114900204D01*
X166984466Y-115249648D01*
X167553581Y-115174723D01*
X167773551Y-115047723D01*
X168122995Y-114592318D01*
X168048070Y-114023204D01*
X167921070Y-113803234D01*
X167465665Y-113453789D01*
X166896551Y-113528714D01*
X166676581Y-113655714D01*
X166327136Y-114111119D01*
X165363148Y-114111119D01*
X165527547Y-113896870D01*
X165452622Y-113327756D01*
X165325622Y-113107785D01*
X164870217Y-112758341D01*
X164301103Y-112833266D01*
X164081132Y-112960266D01*
X163731688Y-113415671D01*
X162767699Y-113415671D01*
X162932099Y-113201422D01*
X162857174Y-112632307D01*
X162730174Y-112412337D01*
X162274769Y-112062893D01*
X161705655Y-112137818D01*
X161485684Y-112264818D01*
X161136240Y-112720223D01*
X160172250Y-112720223D01*
X160336651Y-112505973D01*
X160261725Y-111936859D01*
X160134725Y-111716889D01*
X159679321Y-111367444D01*
X159110206Y-111442370D01*
X158890236Y-111569370D01*
X158540792Y-112024774D01*
X157576803Y-112024774D01*
X157741202Y-111810525D01*
X157666277Y-111241411D01*
X157539277Y-111021440D01*
X157083872Y-110671996D01*
X156514758Y-110746921D01*
X156294788Y-110873921D01*
X155945343Y-111329326D01*
X154981355Y-111329326D01*
X155145754Y-111115077D01*
X155070829Y-110545963D01*
X154943829Y-110325992D01*
X154488424Y-109976548D01*
X153919310Y-110051473D01*
X153699339Y-110178473D01*
X153349895Y-110633878D01*
X152127867Y-110633878D01*
X152652867Y-109683878D01*
X154995343Y-109683878D01*
X155070269Y-110252992D01*
X155197269Y-110472963D01*
X155652673Y-110822407D01*
X156221788Y-110747482D01*
X156441758Y-110620482D01*
X156626803Y-110379326D01*
X157590792Y-110379326D01*
X157665717Y-110948440D01*
X157792717Y-111168411D01*
X158248122Y-111517855D01*
X158817236Y-111442930D01*
X159037206Y-111315930D01*
X159222251Y-111074774D01*
X160186240Y-111074774D01*
X160261165Y-111643889D01*
X160388165Y-111863859D01*
X160843570Y-112213303D01*
X161412684Y-112138378D01*
X161632655Y-112011378D01*
X161817699Y-111770223D01*
X162781688Y-111770223D01*
X162856613Y-112339337D01*
X162983613Y-112559307D01*
X163439018Y-112908752D01*
X164008132Y-112833826D01*
X164228103Y-112706826D01*
X164413147Y-112465671D01*
X165377136Y-112465671D01*
X165452062Y-113034785D01*
X165579062Y-113254756D01*
X166034466Y-113604200D01*
X166603581Y-113529275D01*
X166823551Y-113402275D01*
X167172995Y-112946870D01*
X167098070Y-112377756D01*
X167056160Y-112305165D01*
X166909894Y-112305165D01*
X166889760Y-112304445D01*
X166624617Y-112285482D01*
X166604585Y-112283328D01*
X166426199Y-112257680D01*
X166406372Y-112254103D01*
X166146625Y-112197599D01*
X166127104Y-112192617D01*
X165954196Y-112141846D01*
X165935083Y-112135484D01*
X165698272Y-112047158D01*
X165377136Y-112465671D01*
X164413147Y-112465671D01*
X164577547Y-112251422D01*
X164502622Y-111682307D01*
X164375622Y-111462337D01*
X163920217Y-111112893D01*
X163351103Y-111187818D01*
X163131132Y-111314818D01*
X162781688Y-111770223D01*
X161817699Y-111770223D01*
X161982099Y-111555973D01*
X161907174Y-110986859D01*
X161780174Y-110766889D01*
X161324769Y-110417444D01*
X160755655Y-110492370D01*
X160535684Y-110619370D01*
X160186240Y-111074774D01*
X159222251Y-111074774D01*
X159386651Y-110860525D01*
X159311725Y-110291411D01*
X159184725Y-110071440D01*
X158729321Y-109721996D01*
X158160206Y-109796921D01*
X157940236Y-109923921D01*
X157590792Y-110379326D01*
X156626803Y-110379326D01*
X156791202Y-110165077D01*
X156716277Y-109595963D01*
X156589277Y-109375992D01*
X156133872Y-109026548D01*
X155564758Y-109101473D01*
X155344788Y-109228473D01*
X154995343Y-109683878D01*
X152652867Y-109683878D01*
X153387535Y-108354479D01*
X153421989Y-108287490D01*
X153540831Y-108038430D01*
X154045343Y-108038430D01*
X154120269Y-108607544D01*
X154247269Y-108827514D01*
X154702673Y-109176959D01*
X155271788Y-109102033D01*
X155491758Y-108975033D01*
X155676802Y-108733878D01*
X156640792Y-108733878D01*
X156715717Y-109302992D01*
X156842717Y-109522963D01*
X157298122Y-109872407D01*
X157867236Y-109797482D01*
X158087206Y-109670482D01*
X158272251Y-109429326D01*
X159236240Y-109429326D01*
X159311165Y-109998440D01*
X159438165Y-110218411D01*
X159893570Y-110567855D01*
X160462684Y-110492930D01*
X160682655Y-110365930D01*
X160867700Y-110124774D01*
X161831688Y-110124774D01*
X161906613Y-110693889D01*
X162033613Y-110913859D01*
X162489018Y-111263303D01*
X163058132Y-111188378D01*
X163278103Y-111061378D01*
X163627547Y-110605973D01*
X163552622Y-110036859D01*
X163425622Y-109816889D01*
X162970217Y-109467444D01*
X162401103Y-109542370D01*
X162181132Y-109669370D01*
X161831688Y-110124774D01*
X160867700Y-110124774D01*
X161032099Y-109910525D01*
X160957174Y-109341411D01*
X160830174Y-109121440D01*
X160374769Y-108771996D01*
X159805655Y-108846921D01*
X159585684Y-108973921D01*
X159236240Y-109429326D01*
X158272251Y-109429326D01*
X158436651Y-109215077D01*
X158361725Y-108645963D01*
X158234725Y-108425992D01*
X157779321Y-108076548D01*
X157210206Y-108151473D01*
X156990236Y-108278473D01*
X156640792Y-108733878D01*
X155676802Y-108733878D01*
X155841202Y-108519629D01*
X155766277Y-107950514D01*
X155639277Y-107730544D01*
X155183872Y-107381100D01*
X154614758Y-107456025D01*
X154394788Y-107583025D01*
X154045343Y-108038430D01*
X153540831Y-108038430D01*
X153578461Y-107959568D01*
X153635097Y-107820024D01*
X153751426Y-107475810D01*
X153773406Y-107403757D01*
X153859404Y-107088430D01*
X155690792Y-107088430D01*
X155765717Y-107657544D01*
X155892717Y-107877514D01*
X156348122Y-108226959D01*
X156917236Y-108152033D01*
X157137206Y-108025033D01*
X157322251Y-107783878D01*
X158286240Y-107783878D01*
X158361165Y-108352992D01*
X158488165Y-108572963D01*
X158943570Y-108922407D01*
X159512684Y-108847482D01*
X159732655Y-108720482D01*
X159917700Y-108479326D01*
X160881688Y-108479326D01*
X160956613Y-109048440D01*
X161083613Y-109268411D01*
X161539018Y-109617855D01*
X162108132Y-109542930D01*
X162328103Y-109415930D01*
X162677547Y-108960525D01*
X162602622Y-108391411D01*
X162475622Y-108171440D01*
X162020217Y-107821996D01*
X161451103Y-107896921D01*
X161231132Y-108023921D01*
X160881688Y-108479326D01*
X159917700Y-108479326D01*
X160082099Y-108265077D01*
X160007174Y-107695963D01*
X159880174Y-107475992D01*
X159424769Y-107126548D01*
X158855655Y-107201473D01*
X158635684Y-107328473D01*
X158286240Y-107783878D01*
X157322251Y-107783878D01*
X157486651Y-107569629D01*
X157411725Y-107000514D01*
X157284725Y-106780544D01*
X156829321Y-106431100D01*
X156260206Y-106506025D01*
X156040236Y-106633025D01*
X155690792Y-107088430D01*
X153859404Y-107088430D01*
X154144113Y-106044494D01*
X154210393Y-105843817D01*
X154283014Y-105683142D01*
X154389853Y-105500795D01*
X154406976Y-105474815D01*
X154744983Y-105474815D01*
X154815717Y-106012096D01*
X154942717Y-106232066D01*
X155398122Y-106581510D01*
X155967236Y-106506585D01*
X156187206Y-106379585D01*
X156372250Y-106138430D01*
X157336240Y-106138430D01*
X157411165Y-106707544D01*
X157538165Y-106927514D01*
X157993570Y-107276959D01*
X158562684Y-107202033D01*
X158782655Y-107075033D01*
X158967699Y-106833878D01*
X159931688Y-106833878D01*
X160006613Y-107402992D01*
X160133613Y-107622963D01*
X160589018Y-107972407D01*
X161158132Y-107897482D01*
X161378103Y-107770482D01*
X161727547Y-107315077D01*
X161652622Y-106745963D01*
X161525622Y-106525992D01*
X161070217Y-106176548D01*
X160501103Y-106251473D01*
X160281132Y-106378473D01*
X159931688Y-106833878D01*
X158967699Y-106833878D01*
X159132099Y-106619629D01*
X159057174Y-106050514D01*
X158960967Y-105883878D01*
X161577136Y-105883878D01*
X161652062Y-106452992D01*
X161779062Y-106672963D01*
X162234466Y-107022407D01*
X162803581Y-106947482D01*
X163023551Y-106820482D01*
X163372995Y-106365077D01*
X163364594Y-106301260D01*
X163319366Y-106246275D01*
X163218853Y-106150280D01*
X163104682Y-106063936D01*
X162981393Y-105991269D01*
X162850558Y-105933206D01*
X162713929Y-105890526D01*
X162527852Y-105855153D01*
X161684088Y-105744495D01*
X161577136Y-105883878D01*
X158960967Y-105883878D01*
X158930174Y-105830544D01*
X158474769Y-105481100D01*
X157905655Y-105556025D01*
X157685684Y-105683025D01*
X157336240Y-106138430D01*
X156372250Y-106138430D01*
X156536651Y-105924180D01*
X156461725Y-105355066D01*
X156334725Y-105135096D01*
X155993650Y-104873379D01*
X155639705Y-104817197D01*
X155310206Y-104860577D01*
X155090236Y-104987577D01*
X154919238Y-105210426D01*
X154744983Y-105474815D01*
X154406976Y-105474815D01*
X154806028Y-104869355D01*
X154897137Y-104750579D01*
X154970193Y-104679272D01*
X155052683Y-104619116D01*
X155142922Y-104571341D01*
X155239036Y-104536937D01*
X155339089Y-104516599D01*
X155441016Y-104510747D01*
X155590156Y-104523578D01*
G36*
X131484733Y-110459105D02*
G01*
X131717856Y-110654719D01*
X131975936Y-110815985D01*
X132253947Y-110939763D01*
X132548607Y-111024256D01*
X132597373Y-111029381D01*
X137447207Y-114074000D01*
X134797526Y-114074000D01*
X134698428Y-114077893D01*
X134440731Y-114098175D01*
X134244970Y-114129181D01*
X133991210Y-114190103D01*
X133802709Y-114251351D01*
X133561603Y-114351220D01*
X133385002Y-114441203D01*
X133162489Y-114577559D01*
X133002143Y-114694058D01*
X132803699Y-114863544D01*
X132663544Y-115003699D01*
X132494058Y-115202143D01*
X132377559Y-115362489D01*
X132241203Y-115585002D01*
X132151220Y-115761603D01*
X132051351Y-116002709D01*
X131990103Y-116191210D01*
X131929181Y-116444970D01*
X131898175Y-116640731D01*
X131877699Y-116900896D01*
X131877699Y-117099104D01*
X131898175Y-117359269D01*
X131929181Y-117555030D01*
X131990103Y-117808790D01*
X132051351Y-117997291D01*
X132151220Y-118238397D01*
X132241203Y-118414998D01*
X132377559Y-118637511D01*
X132404070Y-118674000D01*
X131616154Y-118674000D01*
X131609894Y-118673403D01*
X131473162Y-118662162D01*
X131447031Y-118655598D01*
X131422325Y-118644856D01*
X131399708Y-118630224D01*
X131379788Y-118612098D01*
X131363096Y-118590963D01*
X131350078Y-118567381D01*
X131341085Y-118541987D01*
X131332265Y-118492467D01*
X131329391Y-118431524D01*
X131326000Y-118407242D01*
X131326000Y-111906637D01*
X132145412Y-111906637D01*
X132220338Y-112475751D01*
X132347338Y-112695721D01*
X132802742Y-113045166D01*
X133371857Y-112970240D01*
X133591827Y-112843240D01*
X133941271Y-112387836D01*
X133915215Y-112189919D01*
X132621799Y-111377941D01*
X132494857Y-111451232D01*
X132145412Y-111906637D01*
X131326000Y-111906637D01*
X131326000Y-110282814D01*
X131484733Y-110459105D01*
G37*
X131484733Y-110459105D02*
X131717856Y-110654719D01*
X131975936Y-110815985D01*
X132253947Y-110939763D01*
X132548607Y-111024256D01*
X132597373Y-111029381D01*
X137447207Y-114074000D01*
X134797526Y-114074000D01*
X134698428Y-114077893D01*
X134440731Y-114098175D01*
X134244970Y-114129181D01*
X133991210Y-114190103D01*
X133802709Y-114251351D01*
X133561603Y-114351220D01*
X133385002Y-114441203D01*
X133162489Y-114577559D01*
X133002143Y-114694058D01*
X132803699Y-114863544D01*
X132663544Y-115003699D01*
X132494058Y-115202143D01*
X132377559Y-115362489D01*
X132241203Y-115585002D01*
X132151220Y-115761603D01*
X132051351Y-116002709D01*
X131990103Y-116191210D01*
X131929181Y-116444970D01*
X131898175Y-116640731D01*
X131877699Y-116900896D01*
X131877699Y-117099104D01*
X131898175Y-117359269D01*
X131929181Y-117555030D01*
X131990103Y-117808790D01*
X132051351Y-117997291D01*
X132151220Y-118238397D01*
X132241203Y-118414998D01*
X132377559Y-118637511D01*
X132404070Y-118674000D01*
X131616154Y-118674000D01*
X131609894Y-118673403D01*
X131473162Y-118662162D01*
X131447031Y-118655598D01*
X131422325Y-118644856D01*
X131399708Y-118630224D01*
X131379788Y-118612098D01*
X131363096Y-118590963D01*
X131350078Y-118567381D01*
X131341085Y-118541987D01*
X131332265Y-118492467D01*
X131329391Y-118431524D01*
X131326000Y-118407242D01*
X131326000Y-111906637D01*
X132145412Y-111906637D01*
X132220338Y-112475751D01*
X132347338Y-112695721D01*
X132802742Y-113045166D01*
X133371857Y-112970240D01*
X133591827Y-112843240D01*
X133941271Y-112387836D01*
X133915215Y-112189919D01*
X132621799Y-111377941D01*
X132494857Y-111451232D01*
X132145412Y-111906637D01*
X131326000Y-111906637D01*
X131326000Y-110282814D01*
X131484733Y-110459105D01*
G36*
X145006893Y-107053442D02*
G01*
X144909849Y-107060832D01*
X144806535Y-107087582D01*
X144217329Y-106812424D01*
X145006893Y-107053442D01*
G37*
X145006893Y-107053442D02*
X144909849Y-107060832D01*
X144806535Y-107087582D01*
X144217329Y-106812424D01*
X145006893Y-107053442D01*
G36*
X146255713Y-90684292D02*
G01*
X146407982Y-90747712D01*
X146723138Y-90855416D01*
X146754442Y-90864984D01*
X146961571Y-90935771D01*
X147096466Y-91002602D01*
X147221508Y-91086446D01*
X147334560Y-91185872D01*
X147433692Y-91299181D01*
X147517212Y-91424443D01*
X147583695Y-91559514D01*
X147632009Y-91702098D01*
X147661334Y-91849775D01*
X147674000Y-92043332D01*
X147674000Y-93121275D01*
X147677364Y-93213398D01*
X147695610Y-93462891D01*
X147722418Y-93645190D01*
X147777270Y-93891620D01*
X147830317Y-94068082D01*
X147920439Y-94303909D01*
X147998591Y-94470767D01*
X148122064Y-94690973D01*
X148223666Y-94844692D01*
X148377863Y-95044590D01*
X148500745Y-95181888D01*
X148784325Y-95455628D01*
X148814434Y-95494661D01*
X148838551Y-95537672D01*
X148856149Y-95583724D01*
X148866862Y-95631854D01*
X148874000Y-95729448D01*
X148874000Y-101120722D01*
X148861127Y-101347526D01*
X148822675Y-101571399D01*
X148685218Y-102167041D01*
X148628653Y-102365093D01*
X148552064Y-102556290D01*
X148310286Y-103080140D01*
X148292593Y-103074589D01*
X147980101Y-103042811D01*
X147775343Y-103042811D01*
X147775411Y-103042594D01*
X147807189Y-102730102D01*
X147807189Y-99871497D01*
X147789168Y-99634847D01*
X147709230Y-99326113D01*
X147568072Y-99038342D01*
X147502491Y-98953619D01*
X147523906Y-98928673D01*
X147679458Y-98648422D01*
X147775411Y-98342594D01*
X147807189Y-98030102D01*
X147807189Y-95171497D01*
X147789168Y-94934847D01*
X147709230Y-94626113D01*
X147568072Y-94338342D01*
X147371876Y-94084878D01*
X147128673Y-93876095D01*
X146848422Y-93720542D01*
X146542594Y-93624589D01*
X146230102Y-93592811D01*
X146190643Y-93592811D01*
X146207189Y-93430102D01*
X146207189Y-90660251D01*
X146255713Y-90684292D01*
G37*
X146255713Y-90684292D02*
X146407982Y-90747712D01*
X146723138Y-90855416D01*
X146754442Y-90864984D01*
X146961571Y-90935771D01*
X147096466Y-91002602D01*
X147221508Y-91086446D01*
X147334560Y-91185872D01*
X147433692Y-91299181D01*
X147517212Y-91424443D01*
X147583695Y-91559514D01*
X147632009Y-91702098D01*
X147661334Y-91849775D01*
X147674000Y-92043332D01*
X147674000Y-93121275D01*
X147677364Y-93213398D01*
X147695610Y-93462891D01*
X147722418Y-93645190D01*
X147777270Y-93891620D01*
X147830317Y-94068082D01*
X147920439Y-94303909D01*
X147998591Y-94470767D01*
X148122064Y-94690973D01*
X148223666Y-94844692D01*
X148377863Y-95044590D01*
X148500745Y-95181888D01*
X148784325Y-95455628D01*
X148814434Y-95494661D01*
X148838551Y-95537672D01*
X148856149Y-95583724D01*
X148866862Y-95631854D01*
X148874000Y-95729448D01*
X148874000Y-101120722D01*
X148861127Y-101347526D01*
X148822675Y-101571399D01*
X148685218Y-102167041D01*
X148628653Y-102365093D01*
X148552064Y-102556290D01*
X148310286Y-103080140D01*
X148292593Y-103074589D01*
X147980101Y-103042811D01*
X147775343Y-103042811D01*
X147775411Y-103042594D01*
X147807189Y-102730102D01*
X147807189Y-99871497D01*
X147789168Y-99634847D01*
X147709230Y-99326113D01*
X147568072Y-99038342D01*
X147502491Y-98953619D01*
X147523906Y-98928673D01*
X147679458Y-98648422D01*
X147775411Y-98342594D01*
X147807189Y-98030102D01*
X147807189Y-95171497D01*
X147789168Y-94934847D01*
X147709230Y-94626113D01*
X147568072Y-94338342D01*
X147371876Y-94084878D01*
X147128673Y-93876095D01*
X146848422Y-93720542D01*
X146542594Y-93624589D01*
X146230102Y-93592811D01*
X146190643Y-93592811D01*
X146207189Y-93430102D01*
X146207189Y-90660251D01*
X146255713Y-90684292D01*
G36*
X157654310Y-81355383D02*
G01*
X157414814Y-81496175D01*
X157199371Y-81671574D01*
X157012937Y-81877543D01*
X156859804Y-82109342D01*
X156743493Y-82361637D01*
X156666684Y-82628622D01*
X156631144Y-82904154D01*
X156637689Y-83181890D01*
X156686170Y-83455443D01*
X156775471Y-83718513D01*
X156903535Y-83965049D01*
X157067418Y-84189377D01*
X157263348Y-84386335D01*
X157486814Y-84551391D01*
X157732677Y-84680744D01*
X157998419Y-84772506D01*
X158413129Y-84826000D01*
X158530542Y-84826000D01*
X158737014Y-84810294D01*
X159007653Y-84747564D01*
X159095124Y-84712666D01*
X159268419Y-84772506D01*
X159683129Y-84826000D01*
X159800542Y-84826000D01*
X160007014Y-84810294D01*
X160141040Y-84779229D01*
X160203070Y-84800934D01*
X160492924Y-84833593D01*
X161507076Y-84833593D01*
X161796930Y-84800934D01*
X162078970Y-84702244D01*
X162331979Y-84543268D01*
X162450403Y-84424844D01*
X164545274Y-84424844D01*
X164620199Y-84993958D01*
X164747199Y-85213928D01*
X165202604Y-85563372D01*
X165771719Y-85488447D01*
X165991689Y-85361447D01*
X166176733Y-85120292D01*
X167140723Y-85120292D01*
X167215648Y-85689406D01*
X167342648Y-85909376D01*
X167798053Y-86258821D01*
X168367167Y-86183896D01*
X168391778Y-86169686D01*
X168391778Y-84549307D01*
X168279251Y-84462962D01*
X167710137Y-84537887D01*
X167490167Y-84664887D01*
X167140723Y-85120292D01*
X166176733Y-85120292D01*
X166341133Y-84906042D01*
X166266208Y-84336928D01*
X166139208Y-84116958D01*
X165683803Y-83767514D01*
X165114689Y-83842439D01*
X164894719Y-83969439D01*
X164545274Y-84424844D01*
X162450403Y-84424844D01*
X162543268Y-84331979D01*
X162702244Y-84078970D01*
X162800934Y-83796930D01*
X162833593Y-83507076D01*
X162833593Y-82779395D01*
X163595274Y-82779395D01*
X163670199Y-83348509D01*
X163797199Y-83568480D01*
X164252604Y-83917924D01*
X164821719Y-83842999D01*
X165041689Y-83715999D01*
X165226733Y-83474844D01*
X166190723Y-83474844D01*
X166265648Y-84043958D01*
X166392648Y-84263928D01*
X166848053Y-84613372D01*
X167417167Y-84538447D01*
X167637137Y-84411447D01*
X167986581Y-83956042D01*
X167911656Y-83386928D01*
X167784656Y-83166958D01*
X167329251Y-82817514D01*
X166760137Y-82892439D01*
X166540167Y-83019439D01*
X166190723Y-83474844D01*
X165226733Y-83474844D01*
X165391133Y-83260594D01*
X165316208Y-82691480D01*
X165189208Y-82471509D01*
X164733803Y-82122065D01*
X164164689Y-82196990D01*
X163944719Y-82323990D01*
X163595274Y-82779395D01*
X162833593Y-82779395D01*
X162833593Y-82492924D01*
X162800934Y-82203070D01*
X162702244Y-81921030D01*
X162644666Y-81829395D01*
X165240723Y-81829395D01*
X165315648Y-82398509D01*
X165442648Y-82618480D01*
X165898053Y-82967924D01*
X166467167Y-82892999D01*
X166687137Y-82765999D01*
X167036581Y-82310594D01*
X166961656Y-81741480D01*
X166884719Y-81608220D01*
X165410436Y-81608220D01*
X165240723Y-81829395D01*
X162644666Y-81829395D01*
X162543268Y-81668021D01*
X162331979Y-81456732D01*
X162123920Y-81326000D01*
X168383846Y-81326000D01*
X168390105Y-81326597D01*
X168526848Y-81337839D01*
X168552963Y-81344399D01*
X168577675Y-81355144D01*
X168600292Y-81369776D01*
X168620212Y-81387902D01*
X168636902Y-81409035D01*
X168649922Y-81432620D01*
X168658916Y-81458020D01*
X168667735Y-81507526D01*
X168670609Y-81568476D01*
X168674001Y-81592765D01*
X168674001Y-89211719D01*
X168428970Y-89057756D01*
X168146930Y-88959066D01*
X167857076Y-88926407D01*
X166142924Y-88926407D01*
X165853070Y-88959066D01*
X165571030Y-89057756D01*
X165318021Y-89216732D01*
X165106732Y-89428021D01*
X164947756Y-89681030D01*
X164849066Y-89963070D01*
X164816407Y-90252924D01*
X164816407Y-91967076D01*
X164849066Y-92256930D01*
X164947756Y-92538970D01*
X165042120Y-92689150D01*
X165039449Y-92693776D01*
X164925448Y-92975938D01*
X164851826Y-93271219D01*
X164820016Y-93573873D01*
X164830637Y-93878010D01*
X164883481Y-94177708D01*
X164977523Y-94467134D01*
X165110927Y-94740656D01*
X165231412Y-94919282D01*
X165191610Y-94970226D01*
X165039449Y-95233775D01*
X164925448Y-95515938D01*
X164851826Y-95811219D01*
X164820016Y-96113873D01*
X164830637Y-96418010D01*
X164883481Y-96717708D01*
X164977523Y-97007134D01*
X165110927Y-97280656D01*
X165281102Y-97532950D01*
X165484733Y-97759105D01*
X165717856Y-97954719D01*
X165975936Y-98115985D01*
X166253947Y-98239763D01*
X166548606Y-98324255D01*
X166945778Y-98366000D01*
X167075975Y-98366000D01*
X167303580Y-98350084D01*
X167601251Y-98286813D01*
X167887220Y-98182728D01*
X168155920Y-98039858D01*
X168402121Y-97860982D01*
X168621031Y-97649583D01*
X168674001Y-97581784D01*
X168674000Y-101163566D01*
X168612590Y-101124100D01*
X168379285Y-100996705D01*
X168215351Y-100921838D01*
X167966290Y-100828944D01*
X167793382Y-100778173D01*
X167533635Y-100721668D01*
X167355249Y-100696020D01*
X167092350Y-100677218D01*
X167002249Y-100674000D01*
X165537136Y-100674000D01*
X165335253Y-100663808D01*
X165135435Y-100633338D01*
X161199900Y-99828342D01*
X161030259Y-99786983D01*
X154664875Y-97980591D01*
X154644628Y-97656637D01*
X156827136Y-97656637D01*
X156902062Y-98225751D01*
X156968590Y-98340981D01*
X158136445Y-98672399D01*
X158273551Y-98593240D01*
X158458595Y-98352085D01*
X159422585Y-98352085D01*
X159497510Y-98921199D01*
X159592415Y-99085580D01*
X160684167Y-99395402D01*
X160868999Y-99288689D01*
X161054044Y-99047533D01*
X162018033Y-99047533D01*
X162092958Y-99616647D01*
X162162549Y-99737183D01*
X163439709Y-99998420D01*
X163464448Y-99984137D01*
X163649493Y-99742981D01*
X164613481Y-99742981D01*
X164680524Y-100252222D01*
X165185012Y-100355413D01*
X165363708Y-100382662D01*
X165544269Y-100391778D01*
X166280739Y-100391778D01*
X166409340Y-100224180D01*
X166334415Y-99655066D01*
X166207415Y-99435096D01*
X165752010Y-99085651D01*
X165182896Y-99160577D01*
X164962925Y-99287577D01*
X164613481Y-99742981D01*
X163649493Y-99742981D01*
X163813892Y-99528732D01*
X163738967Y-98959618D01*
X163611967Y-98739647D01*
X163156562Y-98390203D01*
X162587448Y-98465128D01*
X162367477Y-98592128D01*
X162018033Y-99047533D01*
X161054044Y-99047533D01*
X161218444Y-98833284D01*
X161143518Y-98264170D01*
X161016518Y-98044199D01*
X160561114Y-97694755D01*
X159991999Y-97769680D01*
X159772029Y-97896680D01*
X159422585Y-98352085D01*
X158458595Y-98352085D01*
X158622995Y-98137836D01*
X158548070Y-97568721D01*
X158421070Y-97348751D01*
X157965665Y-96999307D01*
X157396551Y-97074232D01*
X157176581Y-97201232D01*
X156827136Y-97656637D01*
X154644628Y-97656637D01*
X154630552Y-97431428D01*
X154626000Y-97285627D01*
X154626000Y-96011188D01*
X155877136Y-96011188D01*
X155952062Y-96580303D01*
X156079062Y-96800273D01*
X156534466Y-97149717D01*
X157103581Y-97074792D01*
X157323551Y-96947792D01*
X157508595Y-96706637D01*
X158472585Y-96706637D01*
X158547510Y-97275751D01*
X158674510Y-97495721D01*
X159129915Y-97845166D01*
X159699029Y-97770240D01*
X159918999Y-97643240D01*
X160104044Y-97402085D01*
X161068033Y-97402085D01*
X161142958Y-97971199D01*
X161269958Y-98191170D01*
X161725363Y-98540614D01*
X162294477Y-98465689D01*
X162514448Y-98338689D01*
X162699493Y-98097533D01*
X163663481Y-98097533D01*
X163738406Y-98666647D01*
X163865406Y-98886618D01*
X164320811Y-99236062D01*
X164889925Y-99161137D01*
X165109896Y-99034137D01*
X165294941Y-98792981D01*
X166258929Y-98792981D01*
X166333855Y-99362096D01*
X166460855Y-99582066D01*
X166916259Y-99931510D01*
X167485374Y-99856585D01*
X167705344Y-99729585D01*
X168054788Y-99274180D01*
X167979863Y-98705066D01*
X167857859Y-98493748D01*
X167697777Y-98552014D01*
X167659926Y-98562867D01*
X167362256Y-98626139D01*
X167323266Y-98631619D01*
X167095661Y-98647535D01*
X167075973Y-98648222D01*
X166945775Y-98648221D01*
X166916276Y-98646675D01*
X166519104Y-98604930D01*
X166470814Y-98595544D01*
X166421320Y-98581351D01*
X166258929Y-98792981D01*
X165294941Y-98792981D01*
X165459340Y-98578732D01*
X165389407Y-98047531D01*
X165303323Y-97975298D01*
X165275000Y-97947947D01*
X165071369Y-97721792D01*
X165047129Y-97690766D01*
X164959778Y-97561262D01*
X164802010Y-97440203D01*
X164232896Y-97515128D01*
X164012925Y-97642128D01*
X163663481Y-98097533D01*
X162699493Y-98097533D01*
X162863892Y-97883284D01*
X162788967Y-97314170D01*
X162661967Y-97094199D01*
X162206562Y-96744755D01*
X161637448Y-96819680D01*
X161417477Y-96946680D01*
X161068033Y-97402085D01*
X160104044Y-97402085D01*
X160268444Y-97187836D01*
X160193518Y-96618721D01*
X160066518Y-96398751D01*
X159611114Y-96049307D01*
X159041999Y-96124232D01*
X158822029Y-96251232D01*
X158472585Y-96706637D01*
X157508595Y-96706637D01*
X157672995Y-96492387D01*
X157598070Y-95923273D01*
X157471070Y-95703303D01*
X157015665Y-95353858D01*
X156446551Y-95428784D01*
X156226581Y-95555784D01*
X155877136Y-96011188D01*
X154626000Y-96011188D01*
X154626000Y-95053105D01*
X154623811Y-94978772D01*
X154602701Y-94620715D01*
X154585233Y-94473082D01*
X154566071Y-94365740D01*
X154927136Y-94365740D01*
X155002062Y-94934854D01*
X155129062Y-95154825D01*
X155584466Y-95504269D01*
X156153581Y-95429344D01*
X156373551Y-95302344D01*
X156558596Y-95061188D01*
X157522585Y-95061188D01*
X157597510Y-95630303D01*
X157724510Y-95850273D01*
X158179915Y-96199717D01*
X158749029Y-96124792D01*
X158968999Y-95997792D01*
X159154043Y-95756637D01*
X160118033Y-95756637D01*
X160192958Y-96325751D01*
X160319958Y-96545721D01*
X160775363Y-96895166D01*
X161344477Y-96820240D01*
X161564448Y-96693240D01*
X161749492Y-96452085D01*
X162713481Y-96452085D01*
X162788406Y-97021199D01*
X162915406Y-97241170D01*
X163370811Y-97590614D01*
X163939925Y-97515689D01*
X164159896Y-97388689D01*
X164509340Y-96933284D01*
X164434415Y-96364170D01*
X164307415Y-96144199D01*
X163852010Y-95794755D01*
X163282896Y-95869680D01*
X163062925Y-95996680D01*
X162713481Y-96452085D01*
X161749492Y-96452085D01*
X161913892Y-96237836D01*
X161838967Y-95668721D01*
X161711967Y-95448751D01*
X161256562Y-95099307D01*
X160687448Y-95174232D01*
X160467477Y-95301232D01*
X160118033Y-95756637D01*
X159154043Y-95756637D01*
X159318444Y-95542387D01*
X159243518Y-94973273D01*
X159116518Y-94753303D01*
X158661114Y-94403858D01*
X158091999Y-94478784D01*
X157872029Y-94605784D01*
X157522585Y-95061188D01*
X156558596Y-95061188D01*
X156722995Y-94846939D01*
X156648070Y-94277825D01*
X156521070Y-94057854D01*
X156065665Y-93708410D01*
X155496551Y-93783335D01*
X155276581Y-93910335D01*
X154927136Y-94365740D01*
X154566071Y-94365740D01*
X154522199Y-94119985D01*
X154506981Y-94047192D01*
X154074009Y-92243142D01*
X154364244Y-92243142D01*
X154748407Y-93843820D01*
X155203581Y-93783896D01*
X155423551Y-93656896D01*
X155608596Y-93415740D01*
X156572585Y-93415740D01*
X156647510Y-93984854D01*
X156774510Y-94204825D01*
X157229915Y-94554269D01*
X157799029Y-94479344D01*
X158018999Y-94352344D01*
X158204044Y-94111188D01*
X159168033Y-94111188D01*
X159242958Y-94680303D01*
X159369958Y-94900273D01*
X159825363Y-95249717D01*
X160394477Y-95174792D01*
X160614448Y-95047792D01*
X160799492Y-94806637D01*
X161763481Y-94806637D01*
X161838406Y-95375751D01*
X161965406Y-95595721D01*
X162420811Y-95945166D01*
X162989925Y-95870240D01*
X163209896Y-95743240D01*
X163559340Y-95287836D01*
X163484415Y-94718721D01*
X163357415Y-94498751D01*
X162902010Y-94149307D01*
X162332896Y-94224232D01*
X162112925Y-94351232D01*
X161763481Y-94806637D01*
X160799492Y-94806637D01*
X160963892Y-94592387D01*
X160888967Y-94023273D01*
X160761967Y-93803303D01*
X160306562Y-93453858D01*
X159737448Y-93528784D01*
X159517477Y-93655784D01*
X159168033Y-94111188D01*
X158204044Y-94111188D01*
X158368444Y-93896939D01*
X158293518Y-93327825D01*
X158166518Y-93107854D01*
X157711114Y-92758410D01*
X157141999Y-92833335D01*
X156922029Y-92960335D01*
X156572585Y-93415740D01*
X155608596Y-93415740D01*
X155772995Y-93201491D01*
X155698070Y-92632376D01*
X155571070Y-92412406D01*
X155115665Y-92062962D01*
X154546551Y-92137887D01*
X154364244Y-92243142D01*
X154074009Y-92243142D01*
X153960526Y-91770292D01*
X155622585Y-91770292D01*
X155697510Y-92339406D01*
X155824510Y-92559376D01*
X156279915Y-92908821D01*
X156849029Y-92833896D01*
X157068999Y-92706896D01*
X157254044Y-92465740D01*
X158218033Y-92465740D01*
X158292958Y-93034854D01*
X158419958Y-93254825D01*
X158875363Y-93604269D01*
X159444477Y-93529344D01*
X159664448Y-93402344D01*
X159849493Y-93161188D01*
X160813481Y-93161188D01*
X160888406Y-93730303D01*
X161015406Y-93950273D01*
X161470811Y-94299717D01*
X162039925Y-94224792D01*
X162259896Y-94097792D01*
X162444940Y-93856637D01*
X163408929Y-93856637D01*
X163483855Y-94425751D01*
X163610855Y-94645721D01*
X164066259Y-94995166D01*
X164635374Y-94920240D01*
X164829774Y-94808003D01*
X164723862Y-94590851D01*
X164709113Y-94554346D01*
X164615072Y-94264920D01*
X164605546Y-94226715D01*
X164552701Y-93927017D01*
X164548586Y-93887859D01*
X164537965Y-93583722D01*
X164539339Y-93544373D01*
X164571148Y-93241719D01*
X164574913Y-93220373D01*
X164547458Y-93199307D01*
X163978344Y-93274232D01*
X163758374Y-93401232D01*
X163408929Y-93856637D01*
X162444940Y-93856637D01*
X162609340Y-93642387D01*
X162534415Y-93073273D01*
X162407415Y-92853303D01*
X161952010Y-92503858D01*
X161382896Y-92578784D01*
X161162925Y-92705784D01*
X160813481Y-93161188D01*
X159849493Y-93161188D01*
X160013892Y-92946939D01*
X159938967Y-92377825D01*
X159811967Y-92157854D01*
X159356562Y-91808410D01*
X158787448Y-91883335D01*
X158567477Y-92010335D01*
X158218033Y-92465740D01*
X157254044Y-92465740D01*
X157418444Y-92251491D01*
X157343518Y-91682376D01*
X157216518Y-91462406D01*
X156761114Y-91112962D01*
X156191999Y-91187887D01*
X155972029Y-91314887D01*
X155622585Y-91770292D01*
X153960526Y-91770292D01*
X153565618Y-90124844D01*
X154672585Y-90124844D01*
X154747510Y-90693958D01*
X154874510Y-90913928D01*
X155329915Y-91263372D01*
X155899029Y-91188447D01*
X156118999Y-91061447D01*
X156304043Y-90820292D01*
X157268033Y-90820292D01*
X157342958Y-91389406D01*
X157469958Y-91609376D01*
X157925363Y-91958821D01*
X158494477Y-91883896D01*
X158714448Y-91756896D01*
X158899493Y-91515740D01*
X159863481Y-91515740D01*
X159938406Y-92084854D01*
X160065406Y-92304825D01*
X160520811Y-92654269D01*
X161089925Y-92579344D01*
X161309896Y-92452344D01*
X161494941Y-92211188D01*
X162458929Y-92211188D01*
X162533855Y-92780303D01*
X162660855Y-93000273D01*
X163116259Y-93349717D01*
X163685374Y-93274792D01*
X163905344Y-93147792D01*
X164254788Y-92692387D01*
X164179863Y-92123273D01*
X164052863Y-91903303D01*
X163597458Y-91553858D01*
X163028344Y-91628784D01*
X162808374Y-91755784D01*
X162458929Y-92211188D01*
X161494941Y-92211188D01*
X161659340Y-91996939D01*
X161584415Y-91427825D01*
X161457415Y-91207854D01*
X161002010Y-90858410D01*
X160432896Y-90933335D01*
X160212925Y-91060335D01*
X159863481Y-91515740D01*
X158899493Y-91515740D01*
X159063892Y-91301491D01*
X158988967Y-90732376D01*
X158861967Y-90512406D01*
X158406562Y-90162962D01*
X157837448Y-90237887D01*
X157617477Y-90364887D01*
X157268033Y-90820292D01*
X156304043Y-90820292D01*
X156468444Y-90606042D01*
X156393518Y-90036928D01*
X156266518Y-89816958D01*
X155811114Y-89467514D01*
X155241999Y-89542439D01*
X155022029Y-89669439D01*
X154672585Y-90124844D01*
X153565618Y-90124844D01*
X153459426Y-89682381D01*
X153443119Y-89621230D01*
X153357088Y-89328303D01*
X153315392Y-89208825D01*
X153200481Y-88925975D01*
X153175199Y-88867956D01*
X152994166Y-88479395D01*
X153722585Y-88479395D01*
X153797510Y-89048509D01*
X153924510Y-89268480D01*
X154379915Y-89617924D01*
X154949029Y-89542999D01*
X155168999Y-89415999D01*
X155354043Y-89174844D01*
X156318033Y-89174844D01*
X156392958Y-89743958D01*
X156519958Y-89963928D01*
X156975363Y-90313372D01*
X157544477Y-90238447D01*
X157764448Y-90111447D01*
X157949492Y-89870292D01*
X158913481Y-89870292D01*
X158988406Y-90439406D01*
X159115406Y-90659376D01*
X159570811Y-91008821D01*
X160139925Y-90933896D01*
X160359896Y-90806896D01*
X160544941Y-90565740D01*
X161508929Y-90565740D01*
X161583855Y-91134854D01*
X161710855Y-91354825D01*
X162166259Y-91704269D01*
X162735374Y-91629344D01*
X162955344Y-91502344D01*
X163304788Y-91046939D01*
X163229863Y-90477825D01*
X163102863Y-90257854D01*
X162647458Y-89908410D01*
X162078344Y-89983335D01*
X161858374Y-90110335D01*
X161508929Y-90565740D01*
X160544941Y-90565740D01*
X160709340Y-90351491D01*
X160634415Y-89782376D01*
X160507415Y-89562406D01*
X160052010Y-89212962D01*
X159482896Y-89287887D01*
X159262925Y-89414887D01*
X158913481Y-89870292D01*
X157949492Y-89870292D01*
X158113892Y-89656042D01*
X158038967Y-89086928D01*
X157911967Y-88866958D01*
X157456562Y-88517514D01*
X156887448Y-88592439D01*
X156667477Y-88719439D01*
X156318033Y-89174844D01*
X155354043Y-89174844D01*
X155518444Y-88960594D01*
X155443518Y-88391480D01*
X155316518Y-88171509D01*
X154861114Y-87822065D01*
X154291999Y-87896990D01*
X154072029Y-88023990D01*
X153722585Y-88479395D01*
X152994166Y-88479395D01*
X152227537Y-86833947D01*
X152772585Y-86833947D01*
X152847510Y-87403061D01*
X152974510Y-87623032D01*
X153429915Y-87972476D01*
X153999029Y-87897551D01*
X154218999Y-87770551D01*
X154404044Y-87529395D01*
X155368033Y-87529395D01*
X155442958Y-88098509D01*
X155569958Y-88318480D01*
X156025363Y-88667924D01*
X156594477Y-88592999D01*
X156814448Y-88465999D01*
X156999492Y-88224844D01*
X157963481Y-88224844D01*
X158038406Y-88793958D01*
X158165406Y-89013928D01*
X158620811Y-89363372D01*
X159189925Y-89288447D01*
X159409896Y-89161447D01*
X159594940Y-88920292D01*
X160558929Y-88920292D01*
X160633855Y-89489406D01*
X160760855Y-89709376D01*
X161216259Y-90058821D01*
X161785374Y-89983896D01*
X162005344Y-89856896D01*
X162190389Y-89615740D01*
X163154378Y-89615740D01*
X163229303Y-90184854D01*
X163356303Y-90404825D01*
X163811708Y-90754269D01*
X164380822Y-90679344D01*
X164534185Y-90590800D01*
X164534184Y-90252923D01*
X164535959Y-90221324D01*
X164568617Y-89931471D01*
X164582680Y-89869858D01*
X164681370Y-89587818D01*
X164708790Y-89530879D01*
X164796490Y-89391303D01*
X164748311Y-89307854D01*
X164292907Y-88958410D01*
X163723792Y-89033335D01*
X163503822Y-89160335D01*
X163154378Y-89615740D01*
X162190389Y-89615740D01*
X162354788Y-89401491D01*
X162279863Y-88832376D01*
X162152863Y-88612406D01*
X161697458Y-88262962D01*
X161128344Y-88337887D01*
X160908374Y-88464887D01*
X160558929Y-88920292D01*
X159594940Y-88920292D01*
X159759340Y-88706042D01*
X159684415Y-88136928D01*
X159557415Y-87916958D01*
X159102010Y-87567514D01*
X158532896Y-87642439D01*
X158312925Y-87769439D01*
X157963481Y-88224844D01*
X156999492Y-88224844D01*
X157163892Y-88010594D01*
X157088967Y-87441480D01*
X156961967Y-87221509D01*
X156506562Y-86872065D01*
X155937448Y-86946990D01*
X155717477Y-87073990D01*
X155368033Y-87529395D01*
X154404044Y-87529395D01*
X154568444Y-87315146D01*
X154493518Y-86746032D01*
X154366518Y-86526061D01*
X153911114Y-86176617D01*
X153341999Y-86251542D01*
X153122029Y-86378542D01*
X152772585Y-86833947D01*
X152227537Y-86833947D01*
X151460908Y-85188499D01*
X151822585Y-85188499D01*
X151842408Y-85339070D01*
X152204101Y-86115389D01*
X152479915Y-86327028D01*
X153049029Y-86252102D01*
X153268999Y-86125102D01*
X153454044Y-85883947D01*
X154418033Y-85883947D01*
X154492958Y-86453061D01*
X154619958Y-86673032D01*
X155075363Y-87022476D01*
X155644477Y-86947551D01*
X155864448Y-86820551D01*
X156049493Y-86579395D01*
X157013481Y-86579395D01*
X157088406Y-87148509D01*
X157215406Y-87368480D01*
X157670811Y-87717924D01*
X158239925Y-87642999D01*
X158459896Y-87515999D01*
X158644940Y-87274844D01*
X159608929Y-87274844D01*
X159683855Y-87843958D01*
X159810855Y-88063928D01*
X160266259Y-88413372D01*
X160835374Y-88338447D01*
X161055344Y-88211447D01*
X161240388Y-87970292D01*
X162204378Y-87970292D01*
X162279303Y-88539406D01*
X162406303Y-88759376D01*
X162861708Y-89108821D01*
X163430822Y-89033896D01*
X163650792Y-88906896D01*
X164000237Y-88451491D01*
X163925311Y-87882376D01*
X163798311Y-87662406D01*
X163342907Y-87312962D01*
X162773792Y-87387887D01*
X162553822Y-87514887D01*
X162204378Y-87970292D01*
X161240388Y-87970292D01*
X161404788Y-87756042D01*
X161329863Y-87186928D01*
X161202863Y-86966958D01*
X160747458Y-86617514D01*
X160178344Y-86692439D01*
X159958374Y-86819439D01*
X159608929Y-87274844D01*
X158644940Y-87274844D01*
X158809340Y-87060594D01*
X158734415Y-86491480D01*
X158607415Y-86271509D01*
X158152010Y-85922065D01*
X157582896Y-85996990D01*
X157362925Y-86123990D01*
X157013481Y-86579395D01*
X156049493Y-86579395D01*
X156213892Y-86365146D01*
X156138967Y-85796032D01*
X156011967Y-85576061D01*
X155556562Y-85226617D01*
X154987448Y-85301542D01*
X154767477Y-85428542D01*
X154418033Y-85883947D01*
X153454044Y-85883947D01*
X153618444Y-85669698D01*
X153543518Y-85100583D01*
X153416518Y-84880613D01*
X152961114Y-84531169D01*
X152391999Y-84606094D01*
X152172029Y-84733094D01*
X151822585Y-85188499D01*
X151460908Y-85188499D01*
X150644016Y-83435171D01*
X150955364Y-83435171D01*
X151535720Y-84680815D01*
X152099029Y-84606654D01*
X152318999Y-84479654D01*
X152504043Y-84238499D01*
X153468033Y-84238499D01*
X153542958Y-84807613D01*
X153669958Y-85027583D01*
X154125363Y-85377028D01*
X154694477Y-85302102D01*
X154914448Y-85175102D01*
X155099492Y-84933947D01*
X156063481Y-84933947D01*
X156138406Y-85503061D01*
X156265406Y-85723032D01*
X156720811Y-86072476D01*
X157289925Y-85997551D01*
X157509896Y-85870551D01*
X157694941Y-85629395D01*
X158658929Y-85629395D01*
X158733855Y-86198509D01*
X158860855Y-86418480D01*
X159316259Y-86767924D01*
X159885374Y-86692999D01*
X160105344Y-86565999D01*
X160290388Y-86324844D01*
X161254378Y-86324844D01*
X161329303Y-86893958D01*
X161456303Y-87113928D01*
X161911708Y-87463372D01*
X162480822Y-87388447D01*
X162700792Y-87261447D01*
X162885836Y-87020292D01*
X163849826Y-87020292D01*
X163924751Y-87589406D01*
X164051751Y-87809376D01*
X164507156Y-88158821D01*
X165076270Y-88083896D01*
X165296241Y-87956896D01*
X165481286Y-87715740D01*
X166445274Y-87715740D01*
X166520199Y-88284854D01*
X166647199Y-88504825D01*
X166828817Y-88644185D01*
X167857075Y-88644185D01*
X167888674Y-88645959D01*
X167895959Y-88646779D01*
X168241133Y-88196939D01*
X168166208Y-87627825D01*
X168039208Y-87407854D01*
X167583803Y-87058410D01*
X167014689Y-87133335D01*
X166794719Y-87260335D01*
X166445274Y-87715740D01*
X165481286Y-87715740D01*
X165645685Y-87501491D01*
X165570760Y-86932376D01*
X165443760Y-86712406D01*
X164988355Y-86362962D01*
X164419241Y-86437887D01*
X164199270Y-86564887D01*
X163849826Y-87020292D01*
X162885836Y-87020292D01*
X163050237Y-86806042D01*
X162975311Y-86236928D01*
X162848311Y-86016958D01*
X162392907Y-85667514D01*
X161823792Y-85742439D01*
X161603822Y-85869439D01*
X161254378Y-86324844D01*
X160290388Y-86324844D01*
X160454788Y-86110594D01*
X160379863Y-85541480D01*
X160283656Y-85374844D01*
X162899826Y-85374844D01*
X162974751Y-85943958D01*
X163101751Y-86163928D01*
X163557156Y-86513372D01*
X164126270Y-86438447D01*
X164346241Y-86311447D01*
X164531285Y-86070292D01*
X165495274Y-86070292D01*
X165570199Y-86639406D01*
X165697199Y-86859376D01*
X166152604Y-87208821D01*
X166721719Y-87133896D01*
X166941689Y-87006896D01*
X167291133Y-86551491D01*
X167216208Y-85982376D01*
X167089208Y-85762406D01*
X166633803Y-85412962D01*
X166064689Y-85487887D01*
X165844719Y-85614887D01*
X165495274Y-86070292D01*
X164531285Y-86070292D01*
X164695685Y-85856042D01*
X164620760Y-85286928D01*
X164493760Y-85066958D01*
X164038355Y-84717514D01*
X163469241Y-84792439D01*
X163249270Y-84919439D01*
X162899826Y-85374844D01*
X160283656Y-85374844D01*
X160252863Y-85321509D01*
X159960141Y-85096896D01*
X159821946Y-85107408D01*
X159800541Y-85108222D01*
X159683128Y-85108222D01*
X159647024Y-85105902D01*
X159232313Y-85052409D01*
X159222817Y-85050181D01*
X159008374Y-85173990D01*
X158658929Y-85629395D01*
X157694941Y-85629395D01*
X157859340Y-85415146D01*
X157805262Y-85004381D01*
X157640561Y-84947509D01*
X157601271Y-84930507D01*
X157355408Y-84801154D01*
X157319139Y-84778402D01*
X157095672Y-84613346D01*
X157063263Y-84585373D01*
X156867334Y-84388415D01*
X156839529Y-84355860D01*
X156818522Y-84327104D01*
X156632896Y-84351542D01*
X156412925Y-84478542D01*
X156063481Y-84933947D01*
X155099492Y-84933947D01*
X155263892Y-84719698D01*
X155188967Y-84150583D01*
X155061967Y-83930613D01*
X154606562Y-83581169D01*
X154037448Y-83656094D01*
X153817477Y-83783094D01*
X153468033Y-84238499D01*
X152504043Y-84238499D01*
X152668444Y-84024249D01*
X152593518Y-83455135D01*
X152466518Y-83235165D01*
X152011114Y-82885720D01*
X151441999Y-82960646D01*
X151222029Y-83087646D01*
X150955364Y-83435171D01*
X150644016Y-83435171D01*
X149808110Y-81641032D01*
X150119457Y-81641032D01*
X150758494Y-83012621D01*
X151149029Y-82961206D01*
X151368999Y-82834206D01*
X151554044Y-82593050D01*
X152518033Y-82593050D01*
X152592958Y-83162165D01*
X152719958Y-83382135D01*
X153175363Y-83731579D01*
X153744477Y-83656654D01*
X153964448Y-83529654D01*
X154149492Y-83288499D01*
X155113481Y-83288499D01*
X155188406Y-83857613D01*
X155315406Y-84077583D01*
X155770811Y-84427028D01*
X156339925Y-84352102D01*
X156559896Y-84225102D01*
X156656005Y-84099852D01*
X156653085Y-84095143D01*
X156525022Y-83848608D01*
X156508226Y-83809230D01*
X156418925Y-83546160D01*
X156408278Y-83504692D01*
X156359796Y-83231140D01*
X156355544Y-83188538D01*
X156348999Y-82910802D01*
X156351239Y-82868049D01*
X156370106Y-82721786D01*
X156252010Y-82631169D01*
X155682896Y-82706094D01*
X155462925Y-82833094D01*
X155113481Y-83288499D01*
X154149492Y-83288499D01*
X154313892Y-83074249D01*
X154238967Y-82505135D01*
X154111967Y-82285165D01*
X153656562Y-81935720D01*
X153087448Y-82010646D01*
X152867477Y-82137646D01*
X152518033Y-82593050D01*
X151554044Y-82593050D01*
X151718444Y-82378801D01*
X151643518Y-81809687D01*
X151547311Y-81643050D01*
X154163481Y-81643050D01*
X154238406Y-82212165D01*
X154365406Y-82432135D01*
X154820811Y-82781579D01*
X155389925Y-82706654D01*
X155609896Y-82579654D01*
X155959340Y-82124249D01*
X155891404Y-81608221D01*
X154190207Y-81608221D01*
X154163481Y-81643050D01*
X151547311Y-81643050D01*
X151527202Y-81608221D01*
X150144634Y-81608222D01*
X150119457Y-81641032D01*
X149808110Y-81641032D01*
X149771138Y-81561679D01*
X149730461Y-81481890D01*
X149643891Y-81326000D01*
X157727959Y-81326000D01*
X157654310Y-81355383D01*
G37*
X157654310Y-81355383D02*
X157414814Y-81496175D01*
X157199371Y-81671574D01*
X157012937Y-81877543D01*
X156859804Y-82109342D01*
X156743493Y-82361637D01*
X156666684Y-82628622D01*
X156631144Y-82904154D01*
X156637689Y-83181890D01*
X156686170Y-83455443D01*
X156775471Y-83718513D01*
X156903535Y-83965049D01*
X157067418Y-84189377D01*
X157263348Y-84386335D01*
X157486814Y-84551391D01*
X157732677Y-84680744D01*
X157998419Y-84772506D01*
X158413129Y-84826000D01*
X158530542Y-84826000D01*
X158737014Y-84810294D01*
X159007653Y-84747564D01*
X159095124Y-84712666D01*
X159268419Y-84772506D01*
X159683129Y-84826000D01*
X159800542Y-84826000D01*
X160007014Y-84810294D01*
X160141040Y-84779229D01*
X160203070Y-84800934D01*
X160492924Y-84833593D01*
X161507076Y-84833593D01*
X161796930Y-84800934D01*
X162078970Y-84702244D01*
X162331979Y-84543268D01*
X162450403Y-84424844D01*
X164545274Y-84424844D01*
X164620199Y-84993958D01*
X164747199Y-85213928D01*
X165202604Y-85563372D01*
X165771719Y-85488447D01*
X165991689Y-85361447D01*
X166176733Y-85120292D01*
X167140723Y-85120292D01*
X167215648Y-85689406D01*
X167342648Y-85909376D01*
X167798053Y-86258821D01*
X168367167Y-86183896D01*
X168391778Y-86169686D01*
X168391778Y-84549307D01*
X168279251Y-84462962D01*
X167710137Y-84537887D01*
X167490167Y-84664887D01*
X167140723Y-85120292D01*
X166176733Y-85120292D01*
X166341133Y-84906042D01*
X166266208Y-84336928D01*
X166139208Y-84116958D01*
X165683803Y-83767514D01*
X165114689Y-83842439D01*
X164894719Y-83969439D01*
X164545274Y-84424844D01*
X162450403Y-84424844D01*
X162543268Y-84331979D01*
X162702244Y-84078970D01*
X162800934Y-83796930D01*
X162833593Y-83507076D01*
X162833593Y-82779395D01*
X163595274Y-82779395D01*
X163670199Y-83348509D01*
X163797199Y-83568480D01*
X164252604Y-83917924D01*
X164821719Y-83842999D01*
X165041689Y-83715999D01*
X165226733Y-83474844D01*
X166190723Y-83474844D01*
X166265648Y-84043958D01*
X166392648Y-84263928D01*
X166848053Y-84613372D01*
X167417167Y-84538447D01*
X167637137Y-84411447D01*
X167986581Y-83956042D01*
X167911656Y-83386928D01*
X167784656Y-83166958D01*
X167329251Y-82817514D01*
X166760137Y-82892439D01*
X166540167Y-83019439D01*
X166190723Y-83474844D01*
X165226733Y-83474844D01*
X165391133Y-83260594D01*
X165316208Y-82691480D01*
X165189208Y-82471509D01*
X164733803Y-82122065D01*
X164164689Y-82196990D01*
X163944719Y-82323990D01*
X163595274Y-82779395D01*
X162833593Y-82779395D01*
X162833593Y-82492924D01*
X162800934Y-82203070D01*
X162702244Y-81921030D01*
X162644666Y-81829395D01*
X165240723Y-81829395D01*
X165315648Y-82398509D01*
X165442648Y-82618480D01*
X165898053Y-82967924D01*
X166467167Y-82892999D01*
X166687137Y-82765999D01*
X167036581Y-82310594D01*
X166961656Y-81741480D01*
X166884719Y-81608220D01*
X165410436Y-81608220D01*
X165240723Y-81829395D01*
X162644666Y-81829395D01*
X162543268Y-81668021D01*
X162331979Y-81456732D01*
X162123920Y-81326000D01*
X168383846Y-81326000D01*
X168390105Y-81326597D01*
X168526848Y-81337839D01*
X168552963Y-81344399D01*
X168577675Y-81355144D01*
X168600292Y-81369776D01*
X168620212Y-81387902D01*
X168636902Y-81409035D01*
X168649922Y-81432620D01*
X168658916Y-81458020D01*
X168667735Y-81507526D01*
X168670609Y-81568476D01*
X168674001Y-81592765D01*
X168674001Y-89211719D01*
X168428970Y-89057756D01*
X168146930Y-88959066D01*
X167857076Y-88926407D01*
X166142924Y-88926407D01*
X165853070Y-88959066D01*
X165571030Y-89057756D01*
X165318021Y-89216732D01*
X165106732Y-89428021D01*
X164947756Y-89681030D01*
X164849066Y-89963070D01*
X164816407Y-90252924D01*
X164816407Y-91967076D01*
X164849066Y-92256930D01*
X164947756Y-92538970D01*
X165042120Y-92689150D01*
X165039449Y-92693776D01*
X164925448Y-92975938D01*
X164851826Y-93271219D01*
X164820016Y-93573873D01*
X164830637Y-93878010D01*
X164883481Y-94177708D01*
X164977523Y-94467134D01*
X165110927Y-94740656D01*
X165231412Y-94919282D01*
X165191610Y-94970226D01*
X165039449Y-95233775D01*
X164925448Y-95515938D01*
X164851826Y-95811219D01*
X164820016Y-96113873D01*
X164830637Y-96418010D01*
X164883481Y-96717708D01*
X164977523Y-97007134D01*
X165110927Y-97280656D01*
X165281102Y-97532950D01*
X165484733Y-97759105D01*
X165717856Y-97954719D01*
X165975936Y-98115985D01*
X166253947Y-98239763D01*
X166548606Y-98324255D01*
X166945778Y-98366000D01*
X167075975Y-98366000D01*
X167303580Y-98350084D01*
X167601251Y-98286813D01*
X167887220Y-98182728D01*
X168155920Y-98039858D01*
X168402121Y-97860982D01*
X168621031Y-97649583D01*
X168674001Y-97581784D01*
X168674000Y-101163566D01*
X168612590Y-101124100D01*
X168379285Y-100996705D01*
X168215351Y-100921838D01*
X167966290Y-100828944D01*
X167793382Y-100778173D01*
X167533635Y-100721668D01*
X167355249Y-100696020D01*
X167092350Y-100677218D01*
X167002249Y-100674000D01*
X165537136Y-100674000D01*
X165335253Y-100663808D01*
X165135435Y-100633338D01*
X161199900Y-99828342D01*
X161030259Y-99786983D01*
X154664875Y-97980591D01*
X154644628Y-97656637D01*
X156827136Y-97656637D01*
X156902062Y-98225751D01*
X156968590Y-98340981D01*
X158136445Y-98672399D01*
X158273551Y-98593240D01*
X158458595Y-98352085D01*
X159422585Y-98352085D01*
X159497510Y-98921199D01*
X159592415Y-99085580D01*
X160684167Y-99395402D01*
X160868999Y-99288689D01*
X161054044Y-99047533D01*
X162018033Y-99047533D01*
X162092958Y-99616647D01*
X162162549Y-99737183D01*
X163439709Y-99998420D01*
X163464448Y-99984137D01*
X163649493Y-99742981D01*
X164613481Y-99742981D01*
X164680524Y-100252222D01*
X165185012Y-100355413D01*
X165363708Y-100382662D01*
X165544269Y-100391778D01*
X166280739Y-100391778D01*
X166409340Y-100224180D01*
X166334415Y-99655066D01*
X166207415Y-99435096D01*
X165752010Y-99085651D01*
X165182896Y-99160577D01*
X164962925Y-99287577D01*
X164613481Y-99742981D01*
X163649493Y-99742981D01*
X163813892Y-99528732D01*
X163738967Y-98959618D01*
X163611967Y-98739647D01*
X163156562Y-98390203D01*
X162587448Y-98465128D01*
X162367477Y-98592128D01*
X162018033Y-99047533D01*
X161054044Y-99047533D01*
X161218444Y-98833284D01*
X161143518Y-98264170D01*
X161016518Y-98044199D01*
X160561114Y-97694755D01*
X159991999Y-97769680D01*
X159772029Y-97896680D01*
X159422585Y-98352085D01*
X158458595Y-98352085D01*
X158622995Y-98137836D01*
X158548070Y-97568721D01*
X158421070Y-97348751D01*
X157965665Y-96999307D01*
X157396551Y-97074232D01*
X157176581Y-97201232D01*
X156827136Y-97656637D01*
X154644628Y-97656637D01*
X154630552Y-97431428D01*
X154626000Y-97285627D01*
X154626000Y-96011188D01*
X155877136Y-96011188D01*
X155952062Y-96580303D01*
X156079062Y-96800273D01*
X156534466Y-97149717D01*
X157103581Y-97074792D01*
X157323551Y-96947792D01*
X157508595Y-96706637D01*
X158472585Y-96706637D01*
X158547510Y-97275751D01*
X158674510Y-97495721D01*
X159129915Y-97845166D01*
X159699029Y-97770240D01*
X159918999Y-97643240D01*
X160104044Y-97402085D01*
X161068033Y-97402085D01*
X161142958Y-97971199D01*
X161269958Y-98191170D01*
X161725363Y-98540614D01*
X162294477Y-98465689D01*
X162514448Y-98338689D01*
X162699493Y-98097533D01*
X163663481Y-98097533D01*
X163738406Y-98666647D01*
X163865406Y-98886618D01*
X164320811Y-99236062D01*
X164889925Y-99161137D01*
X165109896Y-99034137D01*
X165294941Y-98792981D01*
X166258929Y-98792981D01*
X166333855Y-99362096D01*
X166460855Y-99582066D01*
X166916259Y-99931510D01*
X167485374Y-99856585D01*
X167705344Y-99729585D01*
X168054788Y-99274180D01*
X167979863Y-98705066D01*
X167857859Y-98493748D01*
X167697777Y-98552014D01*
X167659926Y-98562867D01*
X167362256Y-98626139D01*
X167323266Y-98631619D01*
X167095661Y-98647535D01*
X167075973Y-98648222D01*
X166945775Y-98648221D01*
X166916276Y-98646675D01*
X166519104Y-98604930D01*
X166470814Y-98595544D01*
X166421320Y-98581351D01*
X166258929Y-98792981D01*
X165294941Y-98792981D01*
X165459340Y-98578732D01*
X165389407Y-98047531D01*
X165303323Y-97975298D01*
X165275000Y-97947947D01*
X165071369Y-97721792D01*
X165047129Y-97690766D01*
X164959778Y-97561262D01*
X164802010Y-97440203D01*
X164232896Y-97515128D01*
X164012925Y-97642128D01*
X163663481Y-98097533D01*
X162699493Y-98097533D01*
X162863892Y-97883284D01*
X162788967Y-97314170D01*
X162661967Y-97094199D01*
X162206562Y-96744755D01*
X161637448Y-96819680D01*
X161417477Y-96946680D01*
X161068033Y-97402085D01*
X160104044Y-97402085D01*
X160268444Y-97187836D01*
X160193518Y-96618721D01*
X160066518Y-96398751D01*
X159611114Y-96049307D01*
X159041999Y-96124232D01*
X158822029Y-96251232D01*
X158472585Y-96706637D01*
X157508595Y-96706637D01*
X157672995Y-96492387D01*
X157598070Y-95923273D01*
X157471070Y-95703303D01*
X157015665Y-95353858D01*
X156446551Y-95428784D01*
X156226581Y-95555784D01*
X155877136Y-96011188D01*
X154626000Y-96011188D01*
X154626000Y-95053105D01*
X154623811Y-94978772D01*
X154602701Y-94620715D01*
X154585233Y-94473082D01*
X154566071Y-94365740D01*
X154927136Y-94365740D01*
X155002062Y-94934854D01*
X155129062Y-95154825D01*
X155584466Y-95504269D01*
X156153581Y-95429344D01*
X156373551Y-95302344D01*
X156558596Y-95061188D01*
X157522585Y-95061188D01*
X157597510Y-95630303D01*
X157724510Y-95850273D01*
X158179915Y-96199717D01*
X158749029Y-96124792D01*
X158968999Y-95997792D01*
X159154043Y-95756637D01*
X160118033Y-95756637D01*
X160192958Y-96325751D01*
X160319958Y-96545721D01*
X160775363Y-96895166D01*
X161344477Y-96820240D01*
X161564448Y-96693240D01*
X161749492Y-96452085D01*
X162713481Y-96452085D01*
X162788406Y-97021199D01*
X162915406Y-97241170D01*
X163370811Y-97590614D01*
X163939925Y-97515689D01*
X164159896Y-97388689D01*
X164509340Y-96933284D01*
X164434415Y-96364170D01*
X164307415Y-96144199D01*
X163852010Y-95794755D01*
X163282896Y-95869680D01*
X163062925Y-95996680D01*
X162713481Y-96452085D01*
X161749492Y-96452085D01*
X161913892Y-96237836D01*
X161838967Y-95668721D01*
X161711967Y-95448751D01*
X161256562Y-95099307D01*
X160687448Y-95174232D01*
X160467477Y-95301232D01*
X160118033Y-95756637D01*
X159154043Y-95756637D01*
X159318444Y-95542387D01*
X159243518Y-94973273D01*
X159116518Y-94753303D01*
X158661114Y-94403858D01*
X158091999Y-94478784D01*
X157872029Y-94605784D01*
X157522585Y-95061188D01*
X156558596Y-95061188D01*
X156722995Y-94846939D01*
X156648070Y-94277825D01*
X156521070Y-94057854D01*
X156065665Y-93708410D01*
X155496551Y-93783335D01*
X155276581Y-93910335D01*
X154927136Y-94365740D01*
X154566071Y-94365740D01*
X154522199Y-94119985D01*
X154506981Y-94047192D01*
X154074009Y-92243142D01*
X154364244Y-92243142D01*
X154748407Y-93843820D01*
X155203581Y-93783896D01*
X155423551Y-93656896D01*
X155608596Y-93415740D01*
X156572585Y-93415740D01*
X156647510Y-93984854D01*
X156774510Y-94204825D01*
X157229915Y-94554269D01*
X157799029Y-94479344D01*
X158018999Y-94352344D01*
X158204044Y-94111188D01*
X159168033Y-94111188D01*
X159242958Y-94680303D01*
X159369958Y-94900273D01*
X159825363Y-95249717D01*
X160394477Y-95174792D01*
X160614448Y-95047792D01*
X160799492Y-94806637D01*
X161763481Y-94806637D01*
X161838406Y-95375751D01*
X161965406Y-95595721D01*
X162420811Y-95945166D01*
X162989925Y-95870240D01*
X163209896Y-95743240D01*
X163559340Y-95287836D01*
X163484415Y-94718721D01*
X163357415Y-94498751D01*
X162902010Y-94149307D01*
X162332896Y-94224232D01*
X162112925Y-94351232D01*
X161763481Y-94806637D01*
X160799492Y-94806637D01*
X160963892Y-94592387D01*
X160888967Y-94023273D01*
X160761967Y-93803303D01*
X160306562Y-93453858D01*
X159737448Y-93528784D01*
X159517477Y-93655784D01*
X159168033Y-94111188D01*
X158204044Y-94111188D01*
X158368444Y-93896939D01*
X158293518Y-93327825D01*
X158166518Y-93107854D01*
X157711114Y-92758410D01*
X157141999Y-92833335D01*
X156922029Y-92960335D01*
X156572585Y-93415740D01*
X155608596Y-93415740D01*
X155772995Y-93201491D01*
X155698070Y-92632376D01*
X155571070Y-92412406D01*
X155115665Y-92062962D01*
X154546551Y-92137887D01*
X154364244Y-92243142D01*
X154074009Y-92243142D01*
X153960526Y-91770292D01*
X155622585Y-91770292D01*
X155697510Y-92339406D01*
X155824510Y-92559376D01*
X156279915Y-92908821D01*
X156849029Y-92833896D01*
X157068999Y-92706896D01*
X157254044Y-92465740D01*
X158218033Y-92465740D01*
X158292958Y-93034854D01*
X158419958Y-93254825D01*
X158875363Y-93604269D01*
X159444477Y-93529344D01*
X159664448Y-93402344D01*
X159849493Y-93161188D01*
X160813481Y-93161188D01*
X160888406Y-93730303D01*
X161015406Y-93950273D01*
X161470811Y-94299717D01*
X162039925Y-94224792D01*
X162259896Y-94097792D01*
X162444940Y-93856637D01*
X163408929Y-93856637D01*
X163483855Y-94425751D01*
X163610855Y-94645721D01*
X164066259Y-94995166D01*
X164635374Y-94920240D01*
X164829774Y-94808003D01*
X164723862Y-94590851D01*
X164709113Y-94554346D01*
X164615072Y-94264920D01*
X164605546Y-94226715D01*
X164552701Y-93927017D01*
X164548586Y-93887859D01*
X164537965Y-93583722D01*
X164539339Y-93544373D01*
X164571148Y-93241719D01*
X164574913Y-93220373D01*
X164547458Y-93199307D01*
X163978344Y-93274232D01*
X163758374Y-93401232D01*
X163408929Y-93856637D01*
X162444940Y-93856637D01*
X162609340Y-93642387D01*
X162534415Y-93073273D01*
X162407415Y-92853303D01*
X161952010Y-92503858D01*
X161382896Y-92578784D01*
X161162925Y-92705784D01*
X160813481Y-93161188D01*
X159849493Y-93161188D01*
X160013892Y-92946939D01*
X159938967Y-92377825D01*
X159811967Y-92157854D01*
X159356562Y-91808410D01*
X158787448Y-91883335D01*
X158567477Y-92010335D01*
X158218033Y-92465740D01*
X157254044Y-92465740D01*
X157418444Y-92251491D01*
X157343518Y-91682376D01*
X157216518Y-91462406D01*
X156761114Y-91112962D01*
X156191999Y-91187887D01*
X155972029Y-91314887D01*
X155622585Y-91770292D01*
X153960526Y-91770292D01*
X153565618Y-90124844D01*
X154672585Y-90124844D01*
X154747510Y-90693958D01*
X154874510Y-90913928D01*
X155329915Y-91263372D01*
X155899029Y-91188447D01*
X156118999Y-91061447D01*
X156304043Y-90820292D01*
X157268033Y-90820292D01*
X157342958Y-91389406D01*
X157469958Y-91609376D01*
X157925363Y-91958821D01*
X158494477Y-91883896D01*
X158714448Y-91756896D01*
X158899493Y-91515740D01*
X159863481Y-91515740D01*
X159938406Y-92084854D01*
X160065406Y-92304825D01*
X160520811Y-92654269D01*
X161089925Y-92579344D01*
X161309896Y-92452344D01*
X161494941Y-92211188D01*
X162458929Y-92211188D01*
X162533855Y-92780303D01*
X162660855Y-93000273D01*
X163116259Y-93349717D01*
X163685374Y-93274792D01*
X163905344Y-93147792D01*
X164254788Y-92692387D01*
X164179863Y-92123273D01*
X164052863Y-91903303D01*
X163597458Y-91553858D01*
X163028344Y-91628784D01*
X162808374Y-91755784D01*
X162458929Y-92211188D01*
X161494941Y-92211188D01*
X161659340Y-91996939D01*
X161584415Y-91427825D01*
X161457415Y-91207854D01*
X161002010Y-90858410D01*
X160432896Y-90933335D01*
X160212925Y-91060335D01*
X159863481Y-91515740D01*
X158899493Y-91515740D01*
X159063892Y-91301491D01*
X158988967Y-90732376D01*
X158861967Y-90512406D01*
X158406562Y-90162962D01*
X157837448Y-90237887D01*
X157617477Y-90364887D01*
X157268033Y-90820292D01*
X156304043Y-90820292D01*
X156468444Y-90606042D01*
X156393518Y-90036928D01*
X156266518Y-89816958D01*
X155811114Y-89467514D01*
X155241999Y-89542439D01*
X155022029Y-89669439D01*
X154672585Y-90124844D01*
X153565618Y-90124844D01*
X153459426Y-89682381D01*
X153443119Y-89621230D01*
X153357088Y-89328303D01*
X153315392Y-89208825D01*
X153200481Y-88925975D01*
X153175199Y-88867956D01*
X152994166Y-88479395D01*
X153722585Y-88479395D01*
X153797510Y-89048509D01*
X153924510Y-89268480D01*
X154379915Y-89617924D01*
X154949029Y-89542999D01*
X155168999Y-89415999D01*
X155354043Y-89174844D01*
X156318033Y-89174844D01*
X156392958Y-89743958D01*
X156519958Y-89963928D01*
X156975363Y-90313372D01*
X157544477Y-90238447D01*
X157764448Y-90111447D01*
X157949492Y-89870292D01*
X158913481Y-89870292D01*
X158988406Y-90439406D01*
X159115406Y-90659376D01*
X159570811Y-91008821D01*
X160139925Y-90933896D01*
X160359896Y-90806896D01*
X160544941Y-90565740D01*
X161508929Y-90565740D01*
X161583855Y-91134854D01*
X161710855Y-91354825D01*
X162166259Y-91704269D01*
X162735374Y-91629344D01*
X162955344Y-91502344D01*
X163304788Y-91046939D01*
X163229863Y-90477825D01*
X163102863Y-90257854D01*
X162647458Y-89908410D01*
X162078344Y-89983335D01*
X161858374Y-90110335D01*
X161508929Y-90565740D01*
X160544941Y-90565740D01*
X160709340Y-90351491D01*
X160634415Y-89782376D01*
X160507415Y-89562406D01*
X160052010Y-89212962D01*
X159482896Y-89287887D01*
X159262925Y-89414887D01*
X158913481Y-89870292D01*
X157949492Y-89870292D01*
X158113892Y-89656042D01*
X158038967Y-89086928D01*
X157911967Y-88866958D01*
X157456562Y-88517514D01*
X156887448Y-88592439D01*
X156667477Y-88719439D01*
X156318033Y-89174844D01*
X155354043Y-89174844D01*
X155518444Y-88960594D01*
X155443518Y-88391480D01*
X155316518Y-88171509D01*
X154861114Y-87822065D01*
X154291999Y-87896990D01*
X154072029Y-88023990D01*
X153722585Y-88479395D01*
X152994166Y-88479395D01*
X152227537Y-86833947D01*
X152772585Y-86833947D01*
X152847510Y-87403061D01*
X152974510Y-87623032D01*
X153429915Y-87972476D01*
X153999029Y-87897551D01*
X154218999Y-87770551D01*
X154404044Y-87529395D01*
X155368033Y-87529395D01*
X155442958Y-88098509D01*
X155569958Y-88318480D01*
X156025363Y-88667924D01*
X156594477Y-88592999D01*
X156814448Y-88465999D01*
X156999492Y-88224844D01*
X157963481Y-88224844D01*
X158038406Y-88793958D01*
X158165406Y-89013928D01*
X158620811Y-89363372D01*
X159189925Y-89288447D01*
X159409896Y-89161447D01*
X159594940Y-88920292D01*
X160558929Y-88920292D01*
X160633855Y-89489406D01*
X160760855Y-89709376D01*
X161216259Y-90058821D01*
X161785374Y-89983896D01*
X162005344Y-89856896D01*
X162190389Y-89615740D01*
X163154378Y-89615740D01*
X163229303Y-90184854D01*
X163356303Y-90404825D01*
X163811708Y-90754269D01*
X164380822Y-90679344D01*
X164534185Y-90590800D01*
X164534184Y-90252923D01*
X164535959Y-90221324D01*
X164568617Y-89931471D01*
X164582680Y-89869858D01*
X164681370Y-89587818D01*
X164708790Y-89530879D01*
X164796490Y-89391303D01*
X164748311Y-89307854D01*
X164292907Y-88958410D01*
X163723792Y-89033335D01*
X163503822Y-89160335D01*
X163154378Y-89615740D01*
X162190389Y-89615740D01*
X162354788Y-89401491D01*
X162279863Y-88832376D01*
X162152863Y-88612406D01*
X161697458Y-88262962D01*
X161128344Y-88337887D01*
X160908374Y-88464887D01*
X160558929Y-88920292D01*
X159594940Y-88920292D01*
X159759340Y-88706042D01*
X159684415Y-88136928D01*
X159557415Y-87916958D01*
X159102010Y-87567514D01*
X158532896Y-87642439D01*
X158312925Y-87769439D01*
X157963481Y-88224844D01*
X156999492Y-88224844D01*
X157163892Y-88010594D01*
X157088967Y-87441480D01*
X156961967Y-87221509D01*
X156506562Y-86872065D01*
X155937448Y-86946990D01*
X155717477Y-87073990D01*
X155368033Y-87529395D01*
X154404044Y-87529395D01*
X154568444Y-87315146D01*
X154493518Y-86746032D01*
X154366518Y-86526061D01*
X153911114Y-86176617D01*
X153341999Y-86251542D01*
X153122029Y-86378542D01*
X152772585Y-86833947D01*
X152227537Y-86833947D01*
X151460908Y-85188499D01*
X151822585Y-85188499D01*
X151842408Y-85339070D01*
X152204101Y-86115389D01*
X152479915Y-86327028D01*
X153049029Y-86252102D01*
X153268999Y-86125102D01*
X153454044Y-85883947D01*
X154418033Y-85883947D01*
X154492958Y-86453061D01*
X154619958Y-86673032D01*
X155075363Y-87022476D01*
X155644477Y-86947551D01*
X155864448Y-86820551D01*
X156049493Y-86579395D01*
X157013481Y-86579395D01*
X157088406Y-87148509D01*
X157215406Y-87368480D01*
X157670811Y-87717924D01*
X158239925Y-87642999D01*
X158459896Y-87515999D01*
X158644940Y-87274844D01*
X159608929Y-87274844D01*
X159683855Y-87843958D01*
X159810855Y-88063928D01*
X160266259Y-88413372D01*
X160835374Y-88338447D01*
X161055344Y-88211447D01*
X161240388Y-87970292D01*
X162204378Y-87970292D01*
X162279303Y-88539406D01*
X162406303Y-88759376D01*
X162861708Y-89108821D01*
X163430822Y-89033896D01*
X163650792Y-88906896D01*
X164000237Y-88451491D01*
X163925311Y-87882376D01*
X163798311Y-87662406D01*
X163342907Y-87312962D01*
X162773792Y-87387887D01*
X162553822Y-87514887D01*
X162204378Y-87970292D01*
X161240388Y-87970292D01*
X161404788Y-87756042D01*
X161329863Y-87186928D01*
X161202863Y-86966958D01*
X160747458Y-86617514D01*
X160178344Y-86692439D01*
X159958374Y-86819439D01*
X159608929Y-87274844D01*
X158644940Y-87274844D01*
X158809340Y-87060594D01*
X158734415Y-86491480D01*
X158607415Y-86271509D01*
X158152010Y-85922065D01*
X157582896Y-85996990D01*
X157362925Y-86123990D01*
X157013481Y-86579395D01*
X156049493Y-86579395D01*
X156213892Y-86365146D01*
X156138967Y-85796032D01*
X156011967Y-85576061D01*
X155556562Y-85226617D01*
X154987448Y-85301542D01*
X154767477Y-85428542D01*
X154418033Y-85883947D01*
X153454044Y-85883947D01*
X153618444Y-85669698D01*
X153543518Y-85100583D01*
X153416518Y-84880613D01*
X152961114Y-84531169D01*
X152391999Y-84606094D01*
X152172029Y-84733094D01*
X151822585Y-85188499D01*
X151460908Y-85188499D01*
X150644016Y-83435171D01*
X150955364Y-83435171D01*
X151535720Y-84680815D01*
X152099029Y-84606654D01*
X152318999Y-84479654D01*
X152504043Y-84238499D01*
X153468033Y-84238499D01*
X153542958Y-84807613D01*
X153669958Y-85027583D01*
X154125363Y-85377028D01*
X154694477Y-85302102D01*
X154914448Y-85175102D01*
X155099492Y-84933947D01*
X156063481Y-84933947D01*
X156138406Y-85503061D01*
X156265406Y-85723032D01*
X156720811Y-86072476D01*
X157289925Y-85997551D01*
X157509896Y-85870551D01*
X157694941Y-85629395D01*
X158658929Y-85629395D01*
X158733855Y-86198509D01*
X158860855Y-86418480D01*
X159316259Y-86767924D01*
X159885374Y-86692999D01*
X160105344Y-86565999D01*
X160290388Y-86324844D01*
X161254378Y-86324844D01*
X161329303Y-86893958D01*
X161456303Y-87113928D01*
X161911708Y-87463372D01*
X162480822Y-87388447D01*
X162700792Y-87261447D01*
X162885836Y-87020292D01*
X163849826Y-87020292D01*
X163924751Y-87589406D01*
X164051751Y-87809376D01*
X164507156Y-88158821D01*
X165076270Y-88083896D01*
X165296241Y-87956896D01*
X165481286Y-87715740D01*
X166445274Y-87715740D01*
X166520199Y-88284854D01*
X166647199Y-88504825D01*
X166828817Y-88644185D01*
X167857075Y-88644185D01*
X167888674Y-88645959D01*
X167895959Y-88646779D01*
X168241133Y-88196939D01*
X168166208Y-87627825D01*
X168039208Y-87407854D01*
X167583803Y-87058410D01*
X167014689Y-87133335D01*
X166794719Y-87260335D01*
X166445274Y-87715740D01*
X165481286Y-87715740D01*
X165645685Y-87501491D01*
X165570760Y-86932376D01*
X165443760Y-86712406D01*
X164988355Y-86362962D01*
X164419241Y-86437887D01*
X164199270Y-86564887D01*
X163849826Y-87020292D01*
X162885836Y-87020292D01*
X163050237Y-86806042D01*
X162975311Y-86236928D01*
X162848311Y-86016958D01*
X162392907Y-85667514D01*
X161823792Y-85742439D01*
X161603822Y-85869439D01*
X161254378Y-86324844D01*
X160290388Y-86324844D01*
X160454788Y-86110594D01*
X160379863Y-85541480D01*
X160283656Y-85374844D01*
X162899826Y-85374844D01*
X162974751Y-85943958D01*
X163101751Y-86163928D01*
X163557156Y-86513372D01*
X164126270Y-86438447D01*
X164346241Y-86311447D01*
X164531285Y-86070292D01*
X165495274Y-86070292D01*
X165570199Y-86639406D01*
X165697199Y-86859376D01*
X166152604Y-87208821D01*
X166721719Y-87133896D01*
X166941689Y-87006896D01*
X167291133Y-86551491D01*
X167216208Y-85982376D01*
X167089208Y-85762406D01*
X166633803Y-85412962D01*
X166064689Y-85487887D01*
X165844719Y-85614887D01*
X165495274Y-86070292D01*
X164531285Y-86070292D01*
X164695685Y-85856042D01*
X164620760Y-85286928D01*
X164493760Y-85066958D01*
X164038355Y-84717514D01*
X163469241Y-84792439D01*
X163249270Y-84919439D01*
X162899826Y-85374844D01*
X160283656Y-85374844D01*
X160252863Y-85321509D01*
X159960141Y-85096896D01*
X159821946Y-85107408D01*
X159800541Y-85108222D01*
X159683128Y-85108222D01*
X159647024Y-85105902D01*
X159232313Y-85052409D01*
X159222817Y-85050181D01*
X159008374Y-85173990D01*
X158658929Y-85629395D01*
X157694941Y-85629395D01*
X157859340Y-85415146D01*
X157805262Y-85004381D01*
X157640561Y-84947509D01*
X157601271Y-84930507D01*
X157355408Y-84801154D01*
X157319139Y-84778402D01*
X157095672Y-84613346D01*
X157063263Y-84585373D01*
X156867334Y-84388415D01*
X156839529Y-84355860D01*
X156818522Y-84327104D01*
X156632896Y-84351542D01*
X156412925Y-84478542D01*
X156063481Y-84933947D01*
X155099492Y-84933947D01*
X155263892Y-84719698D01*
X155188967Y-84150583D01*
X155061967Y-83930613D01*
X154606562Y-83581169D01*
X154037448Y-83656094D01*
X153817477Y-83783094D01*
X153468033Y-84238499D01*
X152504043Y-84238499D01*
X152668444Y-84024249D01*
X152593518Y-83455135D01*
X152466518Y-83235165D01*
X152011114Y-82885720D01*
X151441999Y-82960646D01*
X151222029Y-83087646D01*
X150955364Y-83435171D01*
X150644016Y-83435171D01*
X149808110Y-81641032D01*
X150119457Y-81641032D01*
X150758494Y-83012621D01*
X151149029Y-82961206D01*
X151368999Y-82834206D01*
X151554044Y-82593050D01*
X152518033Y-82593050D01*
X152592958Y-83162165D01*
X152719958Y-83382135D01*
X153175363Y-83731579D01*
X153744477Y-83656654D01*
X153964448Y-83529654D01*
X154149492Y-83288499D01*
X155113481Y-83288499D01*
X155188406Y-83857613D01*
X155315406Y-84077583D01*
X155770811Y-84427028D01*
X156339925Y-84352102D01*
X156559896Y-84225102D01*
X156656005Y-84099852D01*
X156653085Y-84095143D01*
X156525022Y-83848608D01*
X156508226Y-83809230D01*
X156418925Y-83546160D01*
X156408278Y-83504692D01*
X156359796Y-83231140D01*
X156355544Y-83188538D01*
X156348999Y-82910802D01*
X156351239Y-82868049D01*
X156370106Y-82721786D01*
X156252010Y-82631169D01*
X155682896Y-82706094D01*
X155462925Y-82833094D01*
X155113481Y-83288499D01*
X154149492Y-83288499D01*
X154313892Y-83074249D01*
X154238967Y-82505135D01*
X154111967Y-82285165D01*
X153656562Y-81935720D01*
X153087448Y-82010646D01*
X152867477Y-82137646D01*
X152518033Y-82593050D01*
X151554044Y-82593050D01*
X151718444Y-82378801D01*
X151643518Y-81809687D01*
X151547311Y-81643050D01*
X154163481Y-81643050D01*
X154238406Y-82212165D01*
X154365406Y-82432135D01*
X154820811Y-82781579D01*
X155389925Y-82706654D01*
X155609896Y-82579654D01*
X155959340Y-82124249D01*
X155891404Y-81608221D01*
X154190207Y-81608221D01*
X154163481Y-81643050D01*
X151547311Y-81643050D01*
X151527202Y-81608221D01*
X150144634Y-81608222D01*
X150119457Y-81641032D01*
X149808110Y-81641032D01*
X149771138Y-81561679D01*
X149730461Y-81481890D01*
X149643891Y-81326000D01*
X157727959Y-81326000D01*
X157654310Y-81355383D01*
G36*
X143712838Y-98562562D02*
G01*
X143715770Y-98573887D01*
X143854873Y-98857468D01*
X142146181Y-98512034D01*
X143712838Y-98562562D01*
G37*
X143712838Y-98562562D02*
X143715770Y-98573887D01*
X143854873Y-98857468D01*
X142146181Y-98512034D01*
X143712838Y-98562562D01*
G36*
X142415576Y-94466615D02*
G01*
X141494650Y-94436914D01*
X142300022Y-94317331D01*
X142415576Y-94466615D01*
G37*
X142415576Y-94466615D02*
X141494650Y-94436914D01*
X142300022Y-94317331D01*
X142415576Y-94466615D01*
G36*
X141249066Y-88896930D02*
G01*
X141347756Y-89178970D01*
X141506732Y-89431979D01*
X141718021Y-89643268D01*
X141971030Y-89802244D01*
X142186568Y-89877664D01*
X142145542Y-89951578D01*
X142049589Y-90257406D01*
X142049518Y-90258103D01*
X137401605Y-90948231D01*
X141235865Y-88779766D01*
X141249066Y-88896930D01*
G37*
X141249066Y-88896930D02*
X141347756Y-89178970D01*
X141506732Y-89431979D01*
X141718021Y-89643268D01*
X141971030Y-89802244D01*
X142186568Y-89877664D01*
X142145542Y-89951578D01*
X142049589Y-90257406D01*
X142049518Y-90258103D01*
X137401605Y-90948231D01*
X141235865Y-88779766D01*
X141249066Y-88896930D01*
G36*
X141249066Y-81503070D02*
G01*
X141216407Y-81792924D01*
X141216407Y-84135648D01*
X132745438Y-88926407D01*
X132142924Y-88926407D01*
X131853070Y-88959066D01*
X131571030Y-89057756D01*
X131326000Y-89211718D01*
X131326000Y-88054421D01*
X131608222Y-88054421D01*
X131608222Y-88411443D01*
X131643027Y-88675820D01*
X131670761Y-88723857D01*
X131759857Y-88692681D01*
X131821470Y-88678618D01*
X132111324Y-88645959D01*
X132142923Y-88644185D01*
X132671159Y-88644185D01*
X133322849Y-88275622D01*
X133289036Y-88018790D01*
X133162036Y-87798820D01*
X132706631Y-87449376D01*
X132137517Y-87524301D01*
X131917546Y-87651301D01*
X131608222Y-88054421D01*
X131326000Y-88054421D01*
X131326000Y-87156706D01*
X133213550Y-87156706D01*
X133288475Y-87725820D01*
X133415475Y-87945790D01*
X133623631Y-88105514D01*
X134970676Y-87343692D01*
X134934484Y-87068790D01*
X134807484Y-86848820D01*
X134352079Y-86499376D01*
X133782965Y-86574301D01*
X133562994Y-86701301D01*
X133213550Y-87156706D01*
X131326000Y-87156706D01*
X131326000Y-85511257D01*
X132263550Y-85511257D01*
X132338475Y-86080372D01*
X132465475Y-86300342D01*
X132920880Y-86649786D01*
X133489994Y-86574861D01*
X133709965Y-86447861D01*
X133895009Y-86206706D01*
X134858999Y-86206706D01*
X134933924Y-86775820D01*
X135060924Y-86995790D01*
X135283646Y-87166691D01*
X136618503Y-86411763D01*
X136579932Y-86118790D01*
X136452932Y-85898820D01*
X135997527Y-85549376D01*
X135428413Y-85624301D01*
X135208443Y-85751301D01*
X134858999Y-86206706D01*
X133895009Y-86206706D01*
X134059409Y-85992456D01*
X133984484Y-85423342D01*
X133857484Y-85203372D01*
X133402079Y-84853927D01*
X132832965Y-84928853D01*
X132612994Y-85055853D01*
X132263550Y-85511257D01*
X131326000Y-85511257D01*
X131326000Y-83481786D01*
X131608221Y-83481786D01*
X131608221Y-84726060D01*
X131970880Y-85004338D01*
X132539994Y-84929413D01*
X132759965Y-84802413D01*
X132945010Y-84561257D01*
X133908999Y-84561257D01*
X133983924Y-85130372D01*
X134110924Y-85350342D01*
X134566329Y-85699786D01*
X135135443Y-85624861D01*
X135355413Y-85497861D01*
X135540457Y-85256706D01*
X136504447Y-85256706D01*
X136579372Y-85825820D01*
X136706372Y-86045790D01*
X136943662Y-86227869D01*
X138266330Y-85479835D01*
X138225381Y-85168790D01*
X138098381Y-84948820D01*
X137642976Y-84599376D01*
X137073861Y-84674301D01*
X136853891Y-84801301D01*
X136504447Y-85256706D01*
X135540457Y-85256706D01*
X135704857Y-85042456D01*
X135629932Y-84473342D01*
X135502932Y-84253372D01*
X135047527Y-83903927D01*
X134478413Y-83978853D01*
X134258443Y-84105853D01*
X133908999Y-84561257D01*
X132945010Y-84561257D01*
X133109409Y-84347008D01*
X133034484Y-83777894D01*
X132907484Y-83557923D01*
X132452079Y-83208479D01*
X131882965Y-83283404D01*
X131662994Y-83410404D01*
X131608221Y-83481786D01*
X131326000Y-83481786D01*
X131326000Y-82915809D01*
X132958999Y-82915809D01*
X133033924Y-83484923D01*
X133160924Y-83704894D01*
X133616329Y-84054338D01*
X134185443Y-83979413D01*
X134405413Y-83852413D01*
X134590458Y-83611257D01*
X135554447Y-83611257D01*
X135629372Y-84180372D01*
X135756372Y-84400342D01*
X136211777Y-84749786D01*
X136780891Y-84674861D01*
X137000861Y-84547861D01*
X137185905Y-84306706D01*
X138149895Y-84306706D01*
X138224820Y-84875820D01*
X138351820Y-85095790D01*
X138603678Y-85289047D01*
X139914157Y-84547905D01*
X139870829Y-84218790D01*
X139743829Y-83998820D01*
X139288424Y-83649376D01*
X138719310Y-83724301D01*
X138499339Y-83851301D01*
X138149895Y-84306706D01*
X137185905Y-84306706D01*
X137350306Y-84092456D01*
X137275381Y-83523342D01*
X137148381Y-83303372D01*
X136692976Y-82953927D01*
X136123861Y-83028853D01*
X135903891Y-83155853D01*
X135554447Y-83611257D01*
X134590458Y-83611257D01*
X134754857Y-83397008D01*
X134679932Y-82827894D01*
X134552932Y-82607923D01*
X134097527Y-82258479D01*
X133528413Y-82333404D01*
X133308443Y-82460404D01*
X132958999Y-82915809D01*
X131326000Y-82915809D01*
X131326000Y-81965809D01*
X134604447Y-81965809D01*
X134679372Y-82534923D01*
X134806372Y-82754894D01*
X135261777Y-83104338D01*
X135830891Y-83029413D01*
X136050861Y-82902413D01*
X136235906Y-82661257D01*
X137199895Y-82661257D01*
X137274820Y-83230372D01*
X137401820Y-83450342D01*
X137857225Y-83799786D01*
X138426339Y-83724861D01*
X138646310Y-83597861D01*
X138995754Y-83142456D01*
X138920829Y-82573342D01*
X138793829Y-82353372D01*
X138338424Y-82003927D01*
X137769310Y-82078853D01*
X137549339Y-82205853D01*
X137199895Y-82661257D01*
X136235906Y-82661257D01*
X136400306Y-82447008D01*
X136325381Y-81877894D01*
X136229174Y-81711257D01*
X138845343Y-81711257D01*
X138920269Y-82280372D01*
X139047269Y-82500342D01*
X139502673Y-82849786D01*
X140071788Y-82774861D01*
X140291758Y-82647861D01*
X140641202Y-82192456D01*
X140566277Y-81623342D01*
X140557547Y-81608221D01*
X138924405Y-81608221D01*
X138845343Y-81711257D01*
X136229174Y-81711257D01*
X136198381Y-81657923D01*
X136133607Y-81608221D01*
X134878834Y-81608221D01*
X134604447Y-81965809D01*
X131326000Y-81965809D01*
X131326000Y-81616154D01*
X131326597Y-81609895D01*
X131337839Y-81473152D01*
X131344399Y-81447037D01*
X131355144Y-81422325D01*
X131369776Y-81399708D01*
X131387902Y-81379788D01*
X131409035Y-81363098D01*
X131432620Y-81350078D01*
X131458020Y-81341084D01*
X131507526Y-81332265D01*
X131568476Y-81329391D01*
X131592758Y-81326000D01*
X141311025Y-81326000D01*
X141249066Y-81503070D01*
G37*
X141249066Y-81503070D02*
X141216407Y-81792924D01*
X141216407Y-84135648D01*
X132745438Y-88926407D01*
X132142924Y-88926407D01*
X131853070Y-88959066D01*
X131571030Y-89057756D01*
X131326000Y-89211718D01*
X131326000Y-88054421D01*
X131608222Y-88054421D01*
X131608222Y-88411443D01*
X131643027Y-88675820D01*
X131670761Y-88723857D01*
X131759857Y-88692681D01*
X131821470Y-88678618D01*
X132111324Y-88645959D01*
X132142923Y-88644185D01*
X132671159Y-88644185D01*
X133322849Y-88275622D01*
X133289036Y-88018790D01*
X133162036Y-87798820D01*
X132706631Y-87449376D01*
X132137517Y-87524301D01*
X131917546Y-87651301D01*
X131608222Y-88054421D01*
X131326000Y-88054421D01*
X131326000Y-87156706D01*
X133213550Y-87156706D01*
X133288475Y-87725820D01*
X133415475Y-87945790D01*
X133623631Y-88105514D01*
X134970676Y-87343692D01*
X134934484Y-87068790D01*
X134807484Y-86848820D01*
X134352079Y-86499376D01*
X133782965Y-86574301D01*
X133562994Y-86701301D01*
X133213550Y-87156706D01*
X131326000Y-87156706D01*
X131326000Y-85511257D01*
X132263550Y-85511257D01*
X132338475Y-86080372D01*
X132465475Y-86300342D01*
X132920880Y-86649786D01*
X133489994Y-86574861D01*
X133709965Y-86447861D01*
X133895009Y-86206706D01*
X134858999Y-86206706D01*
X134933924Y-86775820D01*
X135060924Y-86995790D01*
X135283646Y-87166691D01*
X136618503Y-86411763D01*
X136579932Y-86118790D01*
X136452932Y-85898820D01*
X135997527Y-85549376D01*
X135428413Y-85624301D01*
X135208443Y-85751301D01*
X134858999Y-86206706D01*
X133895009Y-86206706D01*
X134059409Y-85992456D01*
X133984484Y-85423342D01*
X133857484Y-85203372D01*
X133402079Y-84853927D01*
X132832965Y-84928853D01*
X132612994Y-85055853D01*
X132263550Y-85511257D01*
X131326000Y-85511257D01*
X131326000Y-83481786D01*
X131608221Y-83481786D01*
X131608221Y-84726060D01*
X131970880Y-85004338D01*
X132539994Y-84929413D01*
X132759965Y-84802413D01*
X132945010Y-84561257D01*
X133908999Y-84561257D01*
X133983924Y-85130372D01*
X134110924Y-85350342D01*
X134566329Y-85699786D01*
X135135443Y-85624861D01*
X135355413Y-85497861D01*
X135540457Y-85256706D01*
X136504447Y-85256706D01*
X136579372Y-85825820D01*
X136706372Y-86045790D01*
X136943662Y-86227869D01*
X138266330Y-85479835D01*
X138225381Y-85168790D01*
X138098381Y-84948820D01*
X137642976Y-84599376D01*
X137073861Y-84674301D01*
X136853891Y-84801301D01*
X136504447Y-85256706D01*
X135540457Y-85256706D01*
X135704857Y-85042456D01*
X135629932Y-84473342D01*
X135502932Y-84253372D01*
X135047527Y-83903927D01*
X134478413Y-83978853D01*
X134258443Y-84105853D01*
X133908999Y-84561257D01*
X132945010Y-84561257D01*
X133109409Y-84347008D01*
X133034484Y-83777894D01*
X132907484Y-83557923D01*
X132452079Y-83208479D01*
X131882965Y-83283404D01*
X131662994Y-83410404D01*
X131608221Y-83481786D01*
X131326000Y-83481786D01*
X131326000Y-82915809D01*
X132958999Y-82915809D01*
X133033924Y-83484923D01*
X133160924Y-83704894D01*
X133616329Y-84054338D01*
X134185443Y-83979413D01*
X134405413Y-83852413D01*
X134590458Y-83611257D01*
X135554447Y-83611257D01*
X135629372Y-84180372D01*
X135756372Y-84400342D01*
X136211777Y-84749786D01*
X136780891Y-84674861D01*
X137000861Y-84547861D01*
X137185905Y-84306706D01*
X138149895Y-84306706D01*
X138224820Y-84875820D01*
X138351820Y-85095790D01*
X138603678Y-85289047D01*
X139914157Y-84547905D01*
X139870829Y-84218790D01*
X139743829Y-83998820D01*
X139288424Y-83649376D01*
X138719310Y-83724301D01*
X138499339Y-83851301D01*
X138149895Y-84306706D01*
X137185905Y-84306706D01*
X137350306Y-84092456D01*
X137275381Y-83523342D01*
X137148381Y-83303372D01*
X136692976Y-82953927D01*
X136123861Y-83028853D01*
X135903891Y-83155853D01*
X135554447Y-83611257D01*
X134590458Y-83611257D01*
X134754857Y-83397008D01*
X134679932Y-82827894D01*
X134552932Y-82607923D01*
X134097527Y-82258479D01*
X133528413Y-82333404D01*
X133308443Y-82460404D01*
X132958999Y-82915809D01*
X131326000Y-82915809D01*
X131326000Y-81965809D01*
X134604447Y-81965809D01*
X134679372Y-82534923D01*
X134806372Y-82754894D01*
X135261777Y-83104338D01*
X135830891Y-83029413D01*
X136050861Y-82902413D01*
X136235906Y-82661257D01*
X137199895Y-82661257D01*
X137274820Y-83230372D01*
X137401820Y-83450342D01*
X137857225Y-83799786D01*
X138426339Y-83724861D01*
X138646310Y-83597861D01*
X138995754Y-83142456D01*
X138920829Y-82573342D01*
X138793829Y-82353372D01*
X138338424Y-82003927D01*
X137769310Y-82078853D01*
X137549339Y-82205853D01*
X137199895Y-82661257D01*
X136235906Y-82661257D01*
X136400306Y-82447008D01*
X136325381Y-81877894D01*
X136229174Y-81711257D01*
X138845343Y-81711257D01*
X138920269Y-82280372D01*
X139047269Y-82500342D01*
X139502673Y-82849786D01*
X140071788Y-82774861D01*
X140291758Y-82647861D01*
X140641202Y-82192456D01*
X140566277Y-81623342D01*
X140557547Y-81608221D01*
X138924405Y-81608221D01*
X138845343Y-81711257D01*
X136229174Y-81711257D01*
X136198381Y-81657923D01*
X136133607Y-81608221D01*
X134878834Y-81608221D01*
X134604447Y-81965809D01*
X131326000Y-81965809D01*
X131326000Y-81616154D01*
X131326597Y-81609895D01*
X131337839Y-81473152D01*
X131344399Y-81447037D01*
X131355144Y-81422325D01*
X131369776Y-81399708D01*
X131387902Y-81379788D01*
X131409035Y-81363098D01*
X131432620Y-81350078D01*
X131458020Y-81341084D01*
X131507526Y-81332265D01*
X131568476Y-81329391D01*
X131592758Y-81326000D01*
X141311025Y-81326000D01*
X141249066Y-81503070D01*
M02*
