M48
; DRILL file {KiCad 5.99.0-unknown-df3fabf~86~ubuntu18.04.1} date Wed 30 Oct 2019 06:29:15 PM EDT
; FORMAT={-:-/ absolute / inch / decimal}
; #@! TF.CreationDate,2019-10-30T18:29:15-04:00
; #@! TF.GenerationSoftware,Kicad,Pcbnew,5.99.0-unknown-df3fabf~86~ubuntu18.04.1
; #@! TF.FileFunction,Plated,1,2,PTH
FMAT,2
INCH
T1C0.0118
T2C0.0236
T3C0.0256
T4C0.0276
T5C0.0335
T6C0.0394
T7C0.0630
%
G90
G05
T1
X3.4488Y-3.5472
X3.4567Y-2.8307
X3.4724Y-4.1772
X3.5591Y-3.2402
X3.5709Y-3.7992
X3.6299Y-3.6063
X3.6417Y-3.8386
X3.6693Y-3.8819
X3.7402Y-3.2362
X3.7559Y-3.315
X3.7795Y-3.1378
X3.7948Y-4.0034
X3.8031Y-3.2992
X3.8031Y-3.563
X3.815Y-4.0276
X3.8168Y-3.0491
X3.8386Y-3.378
X3.8425Y-3.252
X3.8465Y-2.9803
X3.8465Y-3.878
X3.878Y-3.0827
X3.878Y-3.122
X3.9252Y-3.5512
X3.9803Y-3.2913
X3.9843Y-3.5748
X3.9882Y-3.3583
X4.0039Y-3.5512
X4.0118Y-3.3819
X4.0276Y-3.5276
X4.0433Y-3.2874
X4.0709Y-3.2283
X4.0787Y-3.5512
X4.1108Y-3.558
X4.1299Y-2.9449
X4.1497Y-3.579
X4.2026Y-3.3372
X4.2441Y-3.9055
X4.3307Y-3.0276
X4.3819Y-3.9055
X4.4567Y-3.1457
X4.4606Y-3.8622
X4.4819Y-3.3803
X4.4843Y-3.5157
X4.497Y-4.0088
X4.5Y-3.6339
X4.5079Y-3.4528
X4.5079Y-3.4921
X4.5118Y-3.8346
X4.5669Y-3.8031
X4.6654Y-3.2795
X4.674Y-2.985
X4.7008Y-3.1535
X4.7077Y-3.8189
X4.7165Y-3.2559
X4.748Y-3.8346
X4.7598Y-3.1181
X4.7638Y-3.3819
X4.7638Y-3.4567
X4.7638Y-3.9921
X4.7835Y-3.2835
X4.7835Y-4.0404
X4.811Y-3.9134
X4.8228Y-3.811
X4.8263Y-3.6766
X4.8307Y-2.9488
X4.8504Y-3.8937
X4.8819Y-3.2244
X4.8819Y-3.8937
X4.8858Y-3.0394
X4.9252Y-3.3661
X4.937Y-3.2953
X4.9371Y-3.8582
X4.9528Y-3.9291
X4.9572Y-3.8323
X4.9736Y-3.2407
X4.9803Y-3.6662
X4.9834Y-3.3898
X4.9978Y-3.6379
X5.0051Y-3.2403
X5.0118Y-3.5079
X5.0236Y-3.9291
X5.0354Y-3.6811
X5.0394Y-3.2403
X5.0433Y-3.8543
X5.0512Y-3.5354
X5.0576Y-3.4988
X5.0669Y-3.6732
X5.0709Y-3.2402
X5.0866Y-3.4055
X5.0866Y-3.937
X5.0906Y-3.622
X5.1063Y-3.2402
X5.1148Y-3.5506
X5.126Y-3.6102
X5.1339Y-3.6969
X5.1378Y-3.4095
X5.1403Y-3.2397
X5.1516Y-3.8661
X5.1614Y-3.4882
X5.1732Y-3.6969
X5.1772Y-3.8404
X5.2323Y-3.5394
X5.2362Y-3.4606
X5.2382Y-3.6831
X5.252Y-3.9488
X5.2677Y-3.5276
X5.2697Y-3.6909
X5.2717Y-3.9134
X5.2756Y-3.4213
X5.3661Y-3.3425
X5.3661Y-4.126
X5.4055Y-3.4724
X5.4055Y-3.7992
X5.4091Y-3.3425
X5.4252Y-3.9528
X5.4321Y-3.4213
X5.437Y-3.3898
X5.437Y-3.185
X5.4528Y-3.7992
X5.4646Y-4.126
X5.4715Y-3.6466
X5.4727Y-3.5869
X5.4764Y-3.3858
X5.4803Y-3.5039
X5.5039Y-3.2638
X5.5079Y-3.311
X5.5079Y-3.6496
X5.5236Y-3.6811
X5.5276Y-3.5984
X5.5591Y-3.6102
X5.5866Y-3.315
X5.5906Y-2.9331
X5.5945Y-3.248
X5.5951Y-3.4134
X5.626Y-3.0
X5.6339Y-4.126
X5.6496Y-3.1299
X5.6614Y-3.4854
X5.6614Y-3.3976
X5.6732Y-3.5157
X5.675Y-2.9742
X5.685Y-3.2441
X5.7242Y-3.2635
X5.7953Y-3.2598
X5.8189Y-3.1378
X5.8268Y-3.2598
X5.8543Y-3.1693
X5.8858Y-3.1693
X5.9016Y-3.8425
X5.9764Y-3.8189
X6.0197Y-3.9764
X6.0669Y-3.0157
X6.0945Y-3.2638
T3
X5.0917Y-2.874
X5.1417Y-2.874
X5.1917Y-2.874
X5.2417Y-2.874
X5.2917Y-2.874
X5.3417Y-2.874
X5.3917Y-2.874
X5.4417Y-2.874
X5.4917Y-2.874
X5.5417Y-2.874
X5.5917Y-2.874
X5.6417Y-2.874
X5.6917Y-2.874
X5.7417Y-2.874
X5.7917Y-2.874
X5.8417Y-2.874
X5.8917Y-2.874
X5.9417Y-2.874
X5.9917Y-2.874
X6.0417Y-2.874
X6.0917Y-2.874
X6.1417Y-2.874
X4.5591Y-3.9528
X4.5591Y-4.0028
X5.0917Y-4.2126
X5.1417Y-4.2126
X5.1917Y-4.2126
X5.2417Y-4.2126
X5.2917Y-4.2126
X5.3417Y-4.2126
X5.3917Y-4.2126
X5.4417Y-4.2126
X5.4917Y-4.2126
X5.5417Y-4.2126
X5.5917Y-4.2126
X5.6417Y-4.2126
X5.6917Y-4.2126
X5.7417Y-4.2126
X5.7917Y-4.2126
X5.8417Y-4.2126
X5.8917Y-4.2126
X5.9417Y-4.2126
X5.9917Y-4.2126
X6.0417Y-4.2126
X6.0917Y-4.2126
X6.1417Y-4.2126
T4
X4.4134Y-3.3917
X4.4134Y-3.4417
X4.4134Y-3.4917
X4.4134Y-3.5417
X4.4134Y-3.5917
X4.4134Y-3.6417
X4.3661Y-2.8488
X4.3661Y-2.8988
X4.3661Y-2.9488
X4.2008Y-2.8461
X4.2008Y-2.8961
X4.2008Y-2.9461
X4.2008Y-2.9961
X4.126Y-3.1654
X4.176Y-3.1654
X4.226Y-3.1654
X4.276Y-3.1654
X4.326Y-3.1654
X4.376Y-3.1654
T5
X4.5472Y-4.1668
X4.7441Y-4.1668
X4.5472Y-2.9198
X4.7441Y-2.9198
T6
X3.8189Y-2.874
X3.9189Y-2.874
X4.0189Y-2.874
X3.8976Y-4.2126
X4.2126Y-4.2126
T7
X3.2894Y-3.1634
X3.2894Y-3.9232
X6.1594Y-3.1635
X6.1594Y-3.9232
T2
G00X4.5079Y-4.2869
M15
G01X4.5079Y-4.2594
M16
G05
G00X4.7835Y-4.2594
M15
G01X4.7835Y-4.2869
M16
G05
G00X4.5079Y-2.8273
M15
G01X4.5079Y-2.7997
M16
G05
G00X4.7835Y-2.7997
M15
G01X4.7835Y-2.8273
M16
G05
T0
M30
