G04 #@! TF.GenerationSoftware,KiCad,Pcbnew,5.99.0-unknown-f1fcf3f~86~ubuntu18.04.1*
G04 #@! TF.CreationDate,2020-01-20T18:37:52-05:00*
G04 #@! TF.ProjectId,module_benchmark_extension_board,6d6f6475-6c65-45f6-9265-6e63686d6172,rev?*
G04 #@! TF.SameCoordinates,Original*
G04 #@! TF.FileFunction,Copper,L2,Bot*
G04 #@! TF.FilePolarity,Positive*
%FSLAX46Y46*%
G04 Gerber Fmt 4.6, Leading zero omitted, Abs format (unit mm)*
G04 Created by KiCad (PCBNEW 5.99.0-unknown-f1fcf3f~86~ubuntu18.04.1) date 2020-01-20 18:37:52*
%MOMM*%
%LPD*%
G04 APERTURE LIST*
%ADD10O,1.000000X1.000000*%
%ADD11R,1.000000X1.000000*%
%ADD12O,1.700000X1.700000*%
%ADD13R,1.700000X1.700000*%
%ADD14C,0.750000*%
%ADD15C,0.950000*%
%ADD16C,0.500000*%
%ADD17C,1.000000*%
%ADD18C,0.254000*%
G04 APERTURE END LIST*
D10*
X141230000Y-142000000D03*
D11*
X142500000Y-142000000D03*
D10*
X134730000Y-103500000D03*
D11*
X136000000Y-103500000D03*
D12*
X128080000Y-98000000D03*
X125540000Y-98000000D03*
D13*
X123000000Y-98000000D03*
D14*
X132100000Y-126840000D03*
D15*
X140400000Y-135840000D03*
D12*
X102500000Y-123870000D03*
X102500000Y-121330000D03*
X102500000Y-118790000D03*
D13*
X102500000Y-116250000D03*
D12*
X102500000Y-128840000D03*
X102500000Y-131380000D03*
X102500000Y-133920000D03*
X102500000Y-136460000D03*
D13*
X102500000Y-139000000D03*
D12*
X102500000Y-105670000D03*
X102500000Y-108210000D03*
D13*
X102500000Y-110750000D03*
D12*
X135920000Y-98000000D03*
X138460000Y-98000000D03*
D13*
X141000000Y-98000000D03*
D12*
X116000000Y-100540000D03*
D13*
X116000000Y-98000000D03*
D10*
X111330000Y-142000000D03*
X112600000Y-142000000D03*
X113870000Y-142000000D03*
X115140000Y-142000000D03*
X116410000Y-142000000D03*
X117680000Y-142000000D03*
X118950000Y-142000000D03*
X120220000Y-142000000D03*
X121490000Y-142000000D03*
X122760000Y-142000000D03*
X124030000Y-142000000D03*
X125300000Y-142000000D03*
X126570000Y-142000000D03*
X127840000Y-142000000D03*
X129110000Y-142000000D03*
X130380000Y-142000000D03*
X131650000Y-142000000D03*
X132920000Y-142000000D03*
X134190000Y-142000000D03*
X135460000Y-142000000D03*
X136730000Y-142000000D03*
D11*
X138000000Y-142000000D03*
D10*
X111330000Y-108000000D03*
X112600000Y-108000000D03*
X113870000Y-108000000D03*
X115140000Y-108000000D03*
X116410000Y-108000000D03*
X117680000Y-108000000D03*
X118950000Y-108000000D03*
X120220000Y-108000000D03*
X121490000Y-108000000D03*
X122760000Y-108000000D03*
X124030000Y-108000000D03*
X125300000Y-108000000D03*
X126570000Y-108000000D03*
X127840000Y-108000000D03*
X129110000Y-108000000D03*
X130380000Y-108000000D03*
X131650000Y-108000000D03*
X132920000Y-108000000D03*
X134190000Y-108000000D03*
X135460000Y-108000000D03*
X136730000Y-108000000D03*
D11*
X138000000Y-108000000D03*
D16*
X134730000Y-103500000D02*
X134730000Y-99190000D01*
X134730000Y-99190000D02*
X135920000Y-98000000D01*
D17*
X136730000Y-142000000D02*
X138000000Y-142000000D01*
X136730000Y-108000000D02*
X136730000Y-142000000D01*
X136730000Y-108000000D02*
X138000000Y-108000000D01*
D16*
X121490000Y-102050000D02*
X121490000Y-108000000D01*
X120220000Y-99680000D02*
X120220000Y-107292894D01*
X120220000Y-107292894D02*
X120220000Y-108000000D01*
X125540000Y-98000000D02*
X121490000Y-102050000D01*
X123000000Y-98000000D02*
X121900000Y-98000000D01*
X121900000Y-98000000D02*
X120220000Y-99680000D01*
X118950000Y-108000000D02*
X118950000Y-103490000D01*
X118950000Y-103490000D02*
X116000000Y-100540000D01*
D17*
X138460000Y-98000000D02*
X138460000Y-107540000D01*
X138460000Y-107540000D02*
X138000000Y-108000000D01*
X135920000Y-98000000D02*
X138460000Y-98000000D01*
D16*
X124030000Y-108707106D02*
X124030000Y-108000000D01*
X115500000Y-111000000D02*
X121737106Y-111000000D01*
X121737106Y-111000000D02*
X124030000Y-108707106D01*
X102500000Y-118790000D02*
X107710000Y-118790000D01*
X107710000Y-118790000D02*
X115500000Y-111000000D01*
X107170000Y-121330000D02*
X102500000Y-121330000D01*
X116250000Y-112250000D02*
X107170000Y-121330000D01*
X125300000Y-108000000D02*
X125300000Y-108707106D01*
X121757106Y-112250000D02*
X116250000Y-112250000D01*
X125300000Y-108707106D02*
X121757106Y-112250000D01*
X126570000Y-108707106D02*
X126570000Y-108000000D01*
X121777106Y-113500000D02*
X126570000Y-108707106D01*
X116750000Y-113500000D02*
X121777106Y-113500000D01*
X102500000Y-123870000D02*
X106380000Y-123870000D01*
X106380000Y-123870000D02*
X116750000Y-113500000D01*
X125300000Y-138800000D02*
X125300000Y-142000000D01*
X102500000Y-128840000D02*
X115340000Y-128840000D01*
X115340000Y-128840000D02*
X125300000Y-138800000D01*
X102500000Y-131380000D02*
X102750000Y-131380000D01*
X102880000Y-131000000D02*
X102500000Y-131380000D01*
X115750000Y-131000000D02*
X102880000Y-131000000D01*
X124030000Y-142000000D02*
X124030000Y-139280000D01*
X124030000Y-139280000D02*
X115750000Y-131000000D01*
X102500000Y-133920000D02*
X102750000Y-133920000D01*
X116000000Y-133000000D02*
X103420000Y-133000000D01*
X122760000Y-142000000D02*
X122760000Y-139760000D01*
X103420000Y-133000000D02*
X102500000Y-133920000D01*
X122760000Y-139760000D02*
X116000000Y-133000000D01*
X102500000Y-136460000D02*
X102750000Y-136460000D01*
X103710000Y-135250000D02*
X102500000Y-136460000D01*
X121490000Y-142000000D02*
X121490000Y-140740000D01*
X116000000Y-135250000D02*
X103710000Y-135250000D01*
X121490000Y-140740000D02*
X116000000Y-135250000D01*
G36*
X142938507Y-95636375D02*
G01*
X142954480Y-95637601D01*
X143191499Y-95654383D01*
X143379203Y-95694794D01*
X143559324Y-95761244D01*
X143728285Y-95852410D01*
X143882709Y-95966470D01*
X144019528Y-96101156D01*
X144136010Y-96253781D01*
X144229820Y-96421294D01*
X144299090Y-96600345D01*
X144342442Y-96787379D01*
X144360747Y-96998723D01*
X144360866Y-97013999D01*
X144366001Y-97047949D01*
X144366000Y-142928138D01*
X144363625Y-142938507D01*
X144362399Y-142954478D01*
X144345617Y-143191499D01*
X144305205Y-143379205D01*
X144238759Y-143559317D01*
X144147589Y-143728286D01*
X144033531Y-143882708D01*
X143898838Y-144019534D01*
X143746217Y-144136010D01*
X143578706Y-144229820D01*
X143399655Y-144299090D01*
X143212621Y-144342442D01*
X143001278Y-144360747D01*
X142986001Y-144360866D01*
X142952057Y-144366000D01*
X102071860Y-144366000D01*
X102061494Y-144363626D01*
X102045522Y-144362399D01*
X101808501Y-144345617D01*
X101620795Y-144305205D01*
X101440683Y-144238759D01*
X101271714Y-144147589D01*
X101117292Y-144033531D01*
X100980466Y-143898838D01*
X100904983Y-143799930D01*
X104053550Y-143799930D01*
X104483277Y-143985000D01*
X105909725Y-143985000D01*
X106389828Y-142870212D01*
X105464637Y-142471762D01*
X107391090Y-142471762D01*
X109024087Y-143175042D01*
X109475014Y-142127999D01*
X110200506Y-142127999D01*
X110234660Y-142314084D01*
X110316527Y-142520855D01*
X110436996Y-142707786D01*
X110591479Y-142867759D01*
X110774093Y-142994679D01*
X110977881Y-143083711D01*
X111202000Y-143132986D01*
X111202001Y-142128000D01*
X110200506Y-142127999D01*
X109475014Y-142127999D01*
X109585265Y-141872000D01*
X110197829Y-141872000D01*
X111202000Y-141872001D01*
X111457999Y-141872001D01*
X111458000Y-141872001D01*
X111457999Y-143128971D01*
X111636431Y-143097505D01*
X111843766Y-143017085D01*
X111965331Y-142939938D01*
X112044093Y-142994679D01*
X112247881Y-143083711D01*
X112472000Y-143132986D01*
X112472001Y-142127999D01*
X112472000Y-142127999D01*
X112472000Y-141872001D01*
X112727999Y-141872001D01*
X112728000Y-141872001D01*
X112727999Y-143128971D01*
X112906431Y-143097505D01*
X113113766Y-143017085D01*
X113235331Y-142939938D01*
X113314093Y-142994679D01*
X113517881Y-143083711D01*
X113742000Y-143132986D01*
X113742001Y-142127999D01*
X113742000Y-142127999D01*
X113742000Y-141872001D01*
X113997999Y-141872001D01*
X113998000Y-141872001D01*
X113997999Y-143128971D01*
X114176431Y-143097505D01*
X114383766Y-143017085D01*
X114505331Y-142939938D01*
X114584093Y-142994679D01*
X114787881Y-143083711D01*
X115012000Y-143132986D01*
X115012001Y-142127999D01*
X115012000Y-142127999D01*
X115012001Y-140869926D01*
X114818278Y-140906880D01*
X114612083Y-140990188D01*
X114504887Y-141060335D01*
X114411965Y-140997657D01*
X114206954Y-140911479D01*
X113998000Y-140868587D01*
X113997999Y-141872001D01*
X113742000Y-141872001D01*
X113742001Y-140869926D01*
X113548278Y-140906880D01*
X113342083Y-140990188D01*
X113234887Y-141060335D01*
X113141965Y-140997657D01*
X112936954Y-140911479D01*
X112728000Y-140868587D01*
X112727999Y-141872001D01*
X112472000Y-141872001D01*
X112472001Y-140869926D01*
X112278278Y-140906880D01*
X112072083Y-140990188D01*
X111964887Y-141060335D01*
X111871965Y-140997657D01*
X111666954Y-140911479D01*
X111458000Y-140868587D01*
X111457999Y-141872001D01*
X111202000Y-141872001D01*
X111202001Y-140869926D01*
X111008278Y-140906880D01*
X110802083Y-140990188D01*
X110615996Y-141111959D01*
X110457107Y-141267555D01*
X110331465Y-141451051D01*
X110243857Y-141655455D01*
X110197829Y-141872000D01*
X109585265Y-141872000D01*
X109727367Y-141542044D01*
X108094370Y-140838764D01*
X107391090Y-142471762D01*
X105464637Y-142471762D01*
X104756830Y-142166933D01*
X104053550Y-143799930D01*
X100904983Y-143799930D01*
X100863990Y-143746217D01*
X100770180Y-143578706D01*
X100700910Y-143399655D01*
X100657558Y-143212621D01*
X100639253Y-143001278D01*
X100639134Y-142986001D01*
X100634000Y-142952057D01*
X100634000Y-142795245D01*
X101720696Y-142795245D01*
X103353694Y-143498525D01*
X104056974Y-141865527D01*
X103131782Y-141467076D01*
X105058236Y-141467076D01*
X106691233Y-142170356D01*
X107394513Y-140537359D01*
X106469321Y-140138908D01*
X108395775Y-140138908D01*
X110028773Y-140842188D01*
X110470966Y-139815426D01*
X114066168Y-139815426D01*
X115699166Y-140518705D01*
X115712862Y-140486901D01*
X116542525Y-140486901D01*
X116605719Y-140493542D01*
X116823565Y-140538260D01*
X116894597Y-140560249D01*
X117043856Y-140622992D01*
X117215551Y-140553622D01*
X117286884Y-140532628D01*
X117505333Y-140490957D01*
X117579384Y-140484218D01*
X117801766Y-140485769D01*
X117875719Y-140493542D01*
X118093565Y-140538260D01*
X118164597Y-140560248D01*
X118313857Y-140622991D01*
X118442110Y-140571173D01*
X118735300Y-139890393D01*
X117102302Y-139187113D01*
X116542525Y-140486901D01*
X115712862Y-140486901D01*
X116402446Y-138885708D01*
X114769448Y-138182428D01*
X114066168Y-139815426D01*
X110470966Y-139815426D01*
X110732053Y-139209190D01*
X109806862Y-138810740D01*
X111733315Y-138810740D01*
X113366312Y-139514020D01*
X114069592Y-137881022D01*
X112436594Y-137177742D01*
X111733315Y-138810740D01*
X109806862Y-138810740D01*
X109099055Y-138505911D01*
X108395775Y-140138908D01*
X106469321Y-140138908D01*
X105761516Y-139834079D01*
X105058236Y-141467076D01*
X103131782Y-141467076D01*
X102423976Y-141162247D01*
X101720696Y-142795245D01*
X100634000Y-142795245D01*
X100634000Y-139866588D01*
X101008163Y-139866588D01*
X101088795Y-140167512D01*
X101236185Y-140343165D01*
X101429814Y-140454956D01*
X101638976Y-140491837D01*
X102372000Y-140491837D01*
X102627999Y-140491837D01*
X103366588Y-140491837D01*
X103667512Y-140411205D01*
X103843165Y-140263815D01*
X103954956Y-140070186D01*
X103991837Y-139861024D01*
X103991837Y-139134223D01*
X106062921Y-139134223D01*
X107695919Y-139837503D01*
X108399199Y-138204505D01*
X107474007Y-137806054D01*
X109400461Y-137806054D01*
X111033458Y-138509334D01*
X111736738Y-136876337D01*
X110897722Y-136514999D01*
X109956477Y-136514999D01*
X109400461Y-137806054D01*
X107474007Y-137806054D01*
X106766201Y-137501225D01*
X106062921Y-139134223D01*
X103991837Y-139134223D01*
X103991837Y-139128000D01*
X102628000Y-139127999D01*
X102627999Y-140491837D01*
X102372000Y-140491837D01*
X102372001Y-139128000D01*
X101008163Y-139127999D01*
X101008163Y-139866588D01*
X100634000Y-139866588D01*
X100634000Y-126788751D01*
X103083102Y-126788751D01*
X104716100Y-127492031D01*
X105419380Y-125859033D01*
X104494187Y-125460582D01*
X106420642Y-125460582D01*
X108053639Y-126163862D01*
X108756919Y-124530865D01*
X107884036Y-124154942D01*
X107359336Y-124679641D01*
X107301694Y-124745718D01*
X107240720Y-124798258D01*
X107230988Y-124807989D01*
X107188211Y-124844847D01*
X107177151Y-124853031D01*
X107109868Y-124911006D01*
X107028328Y-124963154D01*
X107026267Y-124964679D01*
X107024276Y-124965745D01*
X107018868Y-124969204D01*
X107011923Y-124972362D01*
X106929011Y-125016771D01*
X106857373Y-125042633D01*
X106788353Y-125074015D01*
X106694126Y-125101567D01*
X106690487Y-125102881D01*
X106687558Y-125103488D01*
X106684656Y-125104336D01*
X106680784Y-125104890D01*
X106584698Y-125124790D01*
X106564723Y-125126029D01*
X106420642Y-125460582D01*
X104494187Y-125460582D01*
X103835956Y-125177103D01*
X103804655Y-125208679D01*
X103739828Y-125263850D01*
X103083102Y-126788751D01*
X100634000Y-126788751D01*
X100634000Y-116378000D01*
X101008163Y-116378000D01*
X101008163Y-117116588D01*
X101088795Y-117417512D01*
X101236185Y-117593165D01*
X101429814Y-117704956D01*
X101477030Y-117713281D01*
X101348296Y-117845661D01*
X101205650Y-118053212D01*
X101100014Y-118281829D01*
X101034407Y-118524978D01*
X101010707Y-118775703D01*
X101029589Y-119026837D01*
X101090516Y-119271201D01*
X101191744Y-119501804D01*
X101330378Y-119712055D01*
X101502457Y-119895942D01*
X101703058Y-120048206D01*
X101724055Y-120059136D01*
X101523872Y-120205113D01*
X101348296Y-120385661D01*
X101205650Y-120593212D01*
X101100014Y-120821829D01*
X101034407Y-121064978D01*
X101010707Y-121315703D01*
X101029589Y-121566837D01*
X101090516Y-121811201D01*
X101191744Y-122041804D01*
X101330378Y-122252055D01*
X101502457Y-122435942D01*
X101703058Y-122588206D01*
X101724055Y-122599136D01*
X101523872Y-122745113D01*
X101348296Y-122925661D01*
X101205650Y-123133212D01*
X101100014Y-123361829D01*
X101034407Y-123604978D01*
X101010707Y-123855703D01*
X101029589Y-124106837D01*
X101090516Y-124351201D01*
X101191744Y-124581804D01*
X101330378Y-124792055D01*
X101502457Y-124975942D01*
X101703058Y-125128206D01*
X101926446Y-125244494D01*
X102166233Y-125321482D01*
X102415564Y-125356966D01*
X102667309Y-125349934D01*
X102914270Y-125300587D01*
X103149387Y-125210334D01*
X103365934Y-125081757D01*
X103557723Y-124918533D01*
X103695293Y-124754000D01*
X106280970Y-124754000D01*
X106308377Y-124760202D01*
X106408338Y-124754000D01*
X106443400Y-124754000D01*
X106470192Y-124750163D01*
X106561105Y-124744523D01*
X106594985Y-124732291D01*
X106630657Y-124727183D01*
X106713603Y-124689470D01*
X106799643Y-124658409D01*
X106827895Y-124637504D01*
X106861166Y-124622376D01*
X106939157Y-124555174D01*
X106961584Y-124538579D01*
X106981308Y-124518855D01*
X107052992Y-124457088D01*
X107071261Y-124428902D01*
X107367749Y-124132414D01*
X109758181Y-124132414D01*
X111391179Y-124835694D01*
X112094459Y-123202696D01*
X111169268Y-122804246D01*
X113095720Y-122804246D01*
X114728718Y-123507526D01*
X115431998Y-121874528D01*
X114506808Y-121476078D01*
X116433260Y-121476078D01*
X118066257Y-122179358D01*
X118769537Y-120546360D01*
X117844345Y-120147909D01*
X119770799Y-120147909D01*
X121403797Y-120851189D01*
X122107077Y-119218192D01*
X121181885Y-118819741D01*
X123108339Y-118819741D01*
X124741336Y-119523021D01*
X125444616Y-117890023D01*
X124519425Y-117491573D01*
X126445878Y-117491573D01*
X128078876Y-118194853D01*
X128782156Y-116561855D01*
X127856966Y-116163405D01*
X129783417Y-116163405D01*
X131416415Y-116866685D01*
X132119695Y-115233687D01*
X131194505Y-114835237D01*
X133120957Y-114835237D01*
X134753954Y-115538516D01*
X135214999Y-114467982D01*
X135215000Y-113801196D01*
X133824237Y-113202239D01*
X133120957Y-114835237D01*
X131194505Y-114835237D01*
X130486697Y-114530407D01*
X129783417Y-116163405D01*
X127856966Y-116163405D01*
X127149158Y-115858575D01*
X126445878Y-117491573D01*
X124519425Y-117491573D01*
X123811618Y-117186744D01*
X123108339Y-118819741D01*
X121181885Y-118819741D01*
X120474079Y-118514912D01*
X119770799Y-120147909D01*
X117844345Y-120147909D01*
X117136540Y-119843080D01*
X116433260Y-121476078D01*
X114506808Y-121476078D01*
X113799000Y-121171248D01*
X113095720Y-122804246D01*
X111169268Y-122804246D01*
X110461461Y-122499417D01*
X109758181Y-124132414D01*
X107367749Y-124132414D01*
X109700603Y-121799560D01*
X110762867Y-121799560D01*
X112395864Y-122502840D01*
X113099144Y-120869843D01*
X112173953Y-120471392D01*
X114100406Y-120471392D01*
X115733404Y-121174672D01*
X116436684Y-119541674D01*
X115511494Y-119143224D01*
X117437945Y-119143224D01*
X119070943Y-119846504D01*
X119774223Y-118213506D01*
X118849033Y-117815056D01*
X120775485Y-117815056D01*
X122408482Y-118518336D01*
X123111762Y-116885338D01*
X122186570Y-116486887D01*
X124113024Y-116486887D01*
X125746022Y-117190167D01*
X126449302Y-115557170D01*
X125524110Y-115158719D01*
X127450564Y-115158719D01*
X129083561Y-115861999D01*
X129786841Y-114229001D01*
X128861650Y-113830551D01*
X130788103Y-113830551D01*
X132421101Y-114533831D01*
X133124380Y-112900833D01*
X131491383Y-112197553D01*
X130788103Y-113830551D01*
X128861650Y-113830551D01*
X128153843Y-113525722D01*
X127450564Y-115158719D01*
X125524110Y-115158719D01*
X124816304Y-114853890D01*
X124113024Y-116486887D01*
X122186570Y-116486887D01*
X121478765Y-116182058D01*
X120775485Y-117815056D01*
X118849033Y-117815056D01*
X118141225Y-117510226D01*
X117437945Y-119143224D01*
X115511494Y-119143224D01*
X114803686Y-118838394D01*
X114100406Y-120471392D01*
X112173953Y-120471392D01*
X111750118Y-120288860D01*
X111158827Y-120880151D01*
X110762867Y-121799560D01*
X109700603Y-121799560D01*
X113361625Y-118138538D01*
X115105092Y-118138538D01*
X116738089Y-118841818D01*
X117441369Y-117208821D01*
X116516177Y-116810370D01*
X118442631Y-116810370D01*
X120075629Y-117513650D01*
X120778909Y-115880652D01*
X119853719Y-115482202D01*
X121780170Y-115482202D01*
X123413168Y-116185482D01*
X124116448Y-114552484D01*
X123191259Y-114154034D01*
X125117710Y-114154034D01*
X126750707Y-114857314D01*
X127453987Y-113224316D01*
X126528795Y-112825865D01*
X128455249Y-112825865D01*
X130088247Y-113529145D01*
X130791527Y-111896148D01*
X129866335Y-111497697D01*
X131792788Y-111497697D01*
X133425786Y-112200977D01*
X134129066Y-110567979D01*
X132496068Y-109864700D01*
X131792788Y-111497697D01*
X129866335Y-111497697D01*
X129158529Y-111192868D01*
X128455249Y-112825865D01*
X126528795Y-112825865D01*
X125820990Y-112521036D01*
X125117710Y-114154034D01*
X123191259Y-114154034D01*
X122996099Y-114069985D01*
X122756445Y-114309638D01*
X122698800Y-114375718D01*
X122637822Y-114428259D01*
X122628103Y-114437980D01*
X122585318Y-114474847D01*
X122574250Y-114483036D01*
X122506971Y-114541008D01*
X122425427Y-114593160D01*
X122423373Y-114594679D01*
X122421389Y-114595742D01*
X122415981Y-114599201D01*
X122409032Y-114602361D01*
X122326118Y-114646772D01*
X122254477Y-114672634D01*
X122185456Y-114704016D01*
X122105204Y-114727482D01*
X121780170Y-115482202D01*
X119853719Y-115482202D01*
X119145911Y-115177372D01*
X118442631Y-116810370D01*
X116516177Y-116810370D01*
X115808371Y-116505541D01*
X115105092Y-118138538D01*
X113361625Y-118138538D01*
X115657297Y-115842866D01*
X116196112Y-115842866D01*
X117742775Y-116508964D01*
X118446055Y-114875967D01*
X118188390Y-114764999D01*
X117273980Y-114764999D01*
X116196112Y-115842866D01*
X115657297Y-115842866D01*
X117116164Y-114384000D01*
X121678076Y-114384000D01*
X121705483Y-114390202D01*
X121805444Y-114384000D01*
X121840506Y-114384000D01*
X121867298Y-114380163D01*
X121958211Y-114374523D01*
X121992091Y-114362291D01*
X122027763Y-114357183D01*
X122110709Y-114319470D01*
X122196749Y-114288409D01*
X122225001Y-114267504D01*
X122258272Y-114252376D01*
X122336263Y-114185174D01*
X122358690Y-114168579D01*
X122378414Y-114148855D01*
X122450098Y-114087088D01*
X122468367Y-114058902D01*
X124706089Y-111821180D01*
X126122395Y-111821180D01*
X127755393Y-112524460D01*
X128458673Y-110891462D01*
X127533483Y-110493012D01*
X129459935Y-110493012D01*
X131092932Y-111196292D01*
X131796212Y-109563294D01*
X131686733Y-109516144D01*
X131507099Y-109512381D01*
X131433265Y-109503576D01*
X131216065Y-109455822D01*
X131145347Y-109432845D01*
X131018417Y-109377391D01*
X130824207Y-109452720D01*
X130752590Y-109472716D01*
X130533581Y-109511334D01*
X130459439Y-109517039D01*
X130237099Y-109512382D01*
X130163264Y-109503576D01*
X129946066Y-109455822D01*
X129911461Y-109444578D01*
X129459935Y-110493012D01*
X127533483Y-110493012D01*
X126862181Y-110203904D01*
X126786169Y-110279916D01*
X126122395Y-111821180D01*
X124706089Y-111821180D01*
X127125055Y-109402215D01*
X127148821Y-109387220D01*
X127215129Y-109312141D01*
X127239913Y-109287358D01*
X127256144Y-109265701D01*
X127316442Y-109197427D01*
X127331753Y-109164814D01*
X127353361Y-109135983D01*
X127385338Y-109050682D01*
X127389924Y-109040915D01*
X127487881Y-109083711D01*
X127705080Y-109131466D01*
X127927420Y-109136123D01*
X128146429Y-109097505D01*
X128353766Y-109017085D01*
X128475331Y-108939938D01*
X128554093Y-108994679D01*
X128757881Y-109083711D01*
X128975080Y-109131466D01*
X129197420Y-109136123D01*
X129416429Y-109097505D01*
X129623766Y-109017085D01*
X129745331Y-108939938D01*
X129824093Y-108994679D01*
X130027881Y-109083711D01*
X130245080Y-109131466D01*
X130467420Y-109136123D01*
X130686429Y-109097505D01*
X130893766Y-109017085D01*
X131015331Y-108939938D01*
X131094093Y-108994679D01*
X131297881Y-109083711D01*
X131515080Y-109131466D01*
X131737420Y-109136123D01*
X131956429Y-109097505D01*
X132163766Y-109017085D01*
X132285331Y-108939938D01*
X132364093Y-108994679D01*
X132567881Y-109083711D01*
X132785080Y-109131466D01*
X133007420Y-109136123D01*
X133226429Y-109097505D01*
X133433766Y-109017085D01*
X133555331Y-108939938D01*
X133634093Y-108994679D01*
X133837881Y-109083711D01*
X134055080Y-109131466D01*
X134277420Y-109136123D01*
X134496429Y-109097505D01*
X134703766Y-109017085D01*
X134825331Y-108939938D01*
X134904093Y-108994679D01*
X135107881Y-109083711D01*
X135325080Y-109131466D01*
X135547420Y-109136123D01*
X135596000Y-109127557D01*
X135596001Y-140870229D01*
X135579108Y-140866761D01*
X135356726Y-140865209D01*
X135138277Y-140906880D01*
X134932083Y-140990188D01*
X134824887Y-141060335D01*
X134731965Y-140997657D01*
X134526954Y-140911479D01*
X134309108Y-140866761D01*
X134086726Y-140865209D01*
X133868277Y-140906880D01*
X133662083Y-140990188D01*
X133554887Y-141060335D01*
X133461965Y-140997657D01*
X133256954Y-140911479D01*
X133039108Y-140866761D01*
X132816726Y-140865209D01*
X132598277Y-140906880D01*
X132392083Y-140990188D01*
X132284887Y-141060335D01*
X132191965Y-140997657D01*
X131986954Y-140911479D01*
X131769108Y-140866761D01*
X131546726Y-140865209D01*
X131328277Y-140906880D01*
X131122083Y-140990188D01*
X131014887Y-141060335D01*
X130921965Y-140997657D01*
X130716954Y-140911479D01*
X130499108Y-140866761D01*
X130276726Y-140865209D01*
X130058277Y-140906880D01*
X129852083Y-140990188D01*
X129744887Y-141060335D01*
X129651965Y-140997657D01*
X129446954Y-140911479D01*
X129229108Y-140866761D01*
X129006726Y-140865209D01*
X128788277Y-140906880D01*
X128582083Y-140990188D01*
X128474887Y-141060335D01*
X128381965Y-140997657D01*
X128176954Y-140911479D01*
X127959108Y-140866761D01*
X127736726Y-140865209D01*
X127518277Y-140906880D01*
X127312083Y-140990188D01*
X127204887Y-141060335D01*
X127111965Y-140997657D01*
X126906954Y-140911479D01*
X126689108Y-140866761D01*
X126466726Y-140865209D01*
X126248277Y-140906880D01*
X126184000Y-140932850D01*
X126184000Y-140173146D01*
X127739809Y-140173146D01*
X128634052Y-140558268D01*
X128645550Y-140553622D01*
X128716884Y-140532628D01*
X128935333Y-140490957D01*
X129009384Y-140484218D01*
X129231766Y-140485770D01*
X129305719Y-140493542D01*
X129518859Y-140537294D01*
X129814999Y-139849663D01*
X133410202Y-139849663D01*
X135024793Y-140545016D01*
X135049781Y-140537662D01*
X135215000Y-140154027D01*
X135214999Y-138691054D01*
X134113482Y-138216665D01*
X133410202Y-139849663D01*
X129814999Y-139849663D01*
X130076086Y-139243428D01*
X129150896Y-138844978D01*
X131077348Y-138844978D01*
X132710346Y-139548257D01*
X133413626Y-137915260D01*
X131780628Y-137211980D01*
X131077348Y-138844978D01*
X129150896Y-138844978D01*
X128443088Y-138540148D01*
X127739809Y-140173146D01*
X126184000Y-140173146D01*
X126184000Y-138899030D01*
X126190202Y-138871623D01*
X126184000Y-138771661D01*
X126184000Y-138736600D01*
X126180163Y-138709808D01*
X126174523Y-138618894D01*
X126162291Y-138585013D01*
X126157182Y-138549343D01*
X126119471Y-138466398D01*
X126088408Y-138380354D01*
X126067502Y-138352101D01*
X126052377Y-138318836D01*
X125985179Y-138240849D01*
X125968579Y-138218414D01*
X125948843Y-138198679D01*
X125887088Y-138127009D01*
X125858905Y-138108741D01*
X125485388Y-137735224D01*
X126024204Y-137735224D01*
X126109642Y-137820662D01*
X126175718Y-137878305D01*
X126228248Y-137939269D01*
X126237980Y-137949000D01*
X126274853Y-137991793D01*
X126283042Y-138002860D01*
X126341008Y-138070132D01*
X126393134Y-138151640D01*
X126394676Y-138153723D01*
X126395755Y-138155737D01*
X126399211Y-138161142D01*
X126402364Y-138168076D01*
X126446770Y-138250980D01*
X126472637Y-138322632D01*
X126504017Y-138391652D01*
X126531575Y-138485891D01*
X126532884Y-138489517D01*
X126533488Y-138492433D01*
X126534331Y-138495317D01*
X126534884Y-138499171D01*
X126554792Y-138595305D01*
X126559484Y-138670942D01*
X126561150Y-138682578D01*
X126565000Y-138736603D01*
X126565000Y-138759866D01*
X126570470Y-138848027D01*
X126564999Y-138916016D01*
X126564999Y-139667193D01*
X127039952Y-139871740D01*
X127743232Y-138238742D01*
X126818041Y-137840292D01*
X128744494Y-137840292D01*
X130377492Y-138543572D01*
X131080772Y-136910574D01*
X130155582Y-136512124D01*
X132082034Y-136512124D01*
X133715031Y-137215404D01*
X134418311Y-135582406D01*
X132785313Y-134879126D01*
X132082034Y-136512124D01*
X130155582Y-136512124D01*
X129447774Y-136207294D01*
X128744494Y-137840292D01*
X126818041Y-137840292D01*
X126110235Y-137535463D01*
X126024204Y-137735224D01*
X125485388Y-137735224D01*
X124585770Y-136835606D01*
X126411640Y-136835606D01*
X128044638Y-137538886D01*
X128747918Y-135905889D01*
X127822726Y-135507438D01*
X129749180Y-135507438D01*
X131382177Y-136210718D01*
X132085457Y-134577720D01*
X131160266Y-134179270D01*
X133086719Y-134179270D01*
X134719717Y-134882550D01*
X135214999Y-133732516D01*
X135215000Y-133159975D01*
X133789999Y-132546272D01*
X133086719Y-134179270D01*
X131160266Y-134179270D01*
X130452460Y-133874441D01*
X129749180Y-135507438D01*
X127822726Y-135507438D01*
X127114920Y-135202609D01*
X126411640Y-136835606D01*
X124585770Y-136835606D01*
X123552348Y-135802184D01*
X124091163Y-135802184D01*
X124151000Y-135862021D01*
X125711784Y-136534201D01*
X126415064Y-134901203D01*
X125489874Y-134502753D01*
X127416326Y-134502753D01*
X129049324Y-135206033D01*
X129752603Y-133573035D01*
X128827411Y-133174584D01*
X130753865Y-133174584D01*
X132386863Y-133877864D01*
X133090143Y-132244867D01*
X131457145Y-131541587D01*
X130753865Y-133174584D01*
X128827411Y-133174584D01*
X128119606Y-132869755D01*
X127416326Y-134502753D01*
X125489874Y-134502753D01*
X124782066Y-134197923D01*
X124091163Y-135802184D01*
X123552348Y-135802184D01*
X121619306Y-133869142D01*
X122158122Y-133869142D01*
X123511251Y-135222271D01*
X124082210Y-133896517D01*
X123157019Y-133498067D01*
X125083472Y-133498067D01*
X126716470Y-134201347D01*
X127419750Y-132568349D01*
X126494560Y-132169899D01*
X128421011Y-132169899D01*
X130054009Y-132873179D01*
X130757289Y-131240181D01*
X129832099Y-130841731D01*
X131758551Y-130841731D01*
X133391549Y-131545010D01*
X134094828Y-129912013D01*
X132461831Y-129208733D01*
X131758551Y-130841731D01*
X129832099Y-130841731D01*
X129124291Y-130536901D01*
X128421011Y-132169899D01*
X126494560Y-132169899D01*
X125786752Y-131865069D01*
X125083472Y-133498067D01*
X123157019Y-133498067D01*
X122449213Y-133193238D01*
X122158122Y-133869142D01*
X121619306Y-133869142D01*
X120243545Y-132493381D01*
X122750618Y-132493381D01*
X124383616Y-133196661D01*
X125086896Y-131563664D01*
X124161704Y-131165213D01*
X126088158Y-131165213D01*
X127721155Y-131868493D01*
X128424435Y-130235495D01*
X127499244Y-129837045D01*
X129425697Y-129837045D01*
X131058695Y-130540325D01*
X131761975Y-128907327D01*
X130836785Y-128508877D01*
X132763236Y-128508877D01*
X134396234Y-129212157D01*
X135099514Y-127579159D01*
X133489997Y-126885992D01*
X133489998Y-126946050D01*
X133481673Y-127025262D01*
X133437575Y-127232728D01*
X133412961Y-127308483D01*
X133326692Y-127502245D01*
X133286868Y-127571222D01*
X133162198Y-127742815D01*
X133108902Y-127802007D01*
X133041542Y-127862659D01*
X132763236Y-128508877D01*
X130836785Y-128508877D01*
X130128977Y-128204047D01*
X129425697Y-129837045D01*
X127499244Y-129837045D01*
X126791438Y-129532216D01*
X126088158Y-131165213D01*
X124161704Y-131165213D01*
X123453898Y-130860384D01*
X122750618Y-132493381D01*
X120243545Y-132493381D01*
X119238860Y-131488696D01*
X120417764Y-131488696D01*
X122050762Y-132191976D01*
X122754042Y-130558978D01*
X121828852Y-130160528D01*
X123755304Y-130160528D01*
X125388302Y-130863808D01*
X126091581Y-129230810D01*
X125166389Y-128832359D01*
X127092843Y-128832359D01*
X128725841Y-129535639D01*
X129429121Y-127902642D01*
X127796123Y-127199362D01*
X127092843Y-128832359D01*
X125166389Y-128832359D01*
X124458584Y-128527530D01*
X123755304Y-130160528D01*
X121828852Y-130160528D01*
X121121044Y-129855698D01*
X120417764Y-131488696D01*
X119238860Y-131488696D01*
X117753225Y-130003061D01*
X118292040Y-130003061D01*
X119293482Y-131004503D01*
X119717908Y-131187290D01*
X120421188Y-129554293D01*
X119495996Y-129155842D01*
X121422450Y-129155842D01*
X123055448Y-129859122D01*
X123758728Y-128226124D01*
X122833538Y-127827674D01*
X124759989Y-127827674D01*
X126392987Y-128530954D01*
X127096267Y-126897956D01*
X126171077Y-126499506D01*
X128097529Y-126499506D01*
X129730527Y-127202786D01*
X129932439Y-126733950D01*
X131091001Y-126733950D01*
X131091001Y-126946050D01*
X131135099Y-127153516D01*
X131221368Y-127347278D01*
X131346037Y-127518871D01*
X131503658Y-127660794D01*
X131687343Y-127766844D01*
X131889062Y-127832386D01*
X132100000Y-127854557D01*
X132310938Y-127832386D01*
X132512657Y-127766844D01*
X132696342Y-127660794D01*
X132853963Y-127518871D01*
X132978632Y-127347278D01*
X133064901Y-127153516D01*
X133108999Y-126946050D01*
X133108999Y-126733950D01*
X133064901Y-126526484D01*
X132978632Y-126332722D01*
X132864785Y-126176023D01*
X133767922Y-126176023D01*
X135215000Y-126799233D01*
X135214999Y-124863355D01*
X134471202Y-124543025D01*
X133767922Y-126176023D01*
X132864785Y-126176023D01*
X132853963Y-126161129D01*
X132696342Y-126019206D01*
X132512657Y-125913156D01*
X132310938Y-125847614D01*
X132100000Y-125825443D01*
X131889062Y-125847614D01*
X131687343Y-125913156D01*
X131503658Y-126019206D01*
X131346037Y-126161129D01*
X131221368Y-126332722D01*
X131135099Y-126526484D01*
X131091001Y-126733950D01*
X129932439Y-126733950D01*
X130433806Y-125569788D01*
X129508614Y-125171337D01*
X131435068Y-125171337D01*
X132074055Y-125446529D01*
X132139827Y-125446529D01*
X132350764Y-125468701D01*
X132428670Y-125485260D01*
X132630390Y-125550801D01*
X132703156Y-125583198D01*
X132886841Y-125689249D01*
X132951281Y-125736067D01*
X133078430Y-125850553D01*
X133771346Y-124241620D01*
X132138348Y-123538340D01*
X131435068Y-125171337D01*
X129508614Y-125171337D01*
X128800809Y-124866508D01*
X128097529Y-126499506D01*
X126171077Y-126499506D01*
X125463269Y-126194676D01*
X124759989Y-127827674D01*
X122833538Y-127827674D01*
X122125730Y-127522844D01*
X121422450Y-129155842D01*
X119495996Y-129155842D01*
X118788191Y-128851013D01*
X118292040Y-130003061D01*
X117753225Y-130003061D01*
X116035113Y-128284950D01*
X116020114Y-128261178D01*
X115945021Y-128194858D01*
X115920251Y-128170087D01*
X115898608Y-128153868D01*
X115895538Y-128151156D01*
X119089596Y-128151156D01*
X120722594Y-128854436D01*
X121425874Y-127221439D01*
X120500682Y-126822988D01*
X122427136Y-126822988D01*
X124060133Y-127526268D01*
X124763413Y-125893270D01*
X123838222Y-125494820D01*
X125764675Y-125494820D01*
X127397673Y-126198100D01*
X128100953Y-124565102D01*
X127175763Y-124166652D01*
X129102214Y-124166652D01*
X130735212Y-124869932D01*
X131438492Y-123236934D01*
X130513302Y-122838484D01*
X132439754Y-122838484D01*
X134072751Y-123541763D01*
X134776031Y-121908766D01*
X133143034Y-121205486D01*
X132439754Y-122838484D01*
X130513302Y-122838484D01*
X129805494Y-122533654D01*
X129102214Y-124166652D01*
X127175763Y-124166652D01*
X126467955Y-123861822D01*
X125764675Y-125494820D01*
X123838222Y-125494820D01*
X123130416Y-125189991D01*
X122427136Y-126822988D01*
X120500682Y-126822988D01*
X119792876Y-126518159D01*
X119089596Y-128151156D01*
X115895538Y-128151156D01*
X115830320Y-128093557D01*
X115797708Y-128078246D01*
X115768879Y-128056639D01*
X115683572Y-128024660D01*
X115600755Y-127985777D01*
X115565993Y-127980582D01*
X115531775Y-127967755D01*
X115429127Y-127960127D01*
X115401513Y-127956000D01*
X115373605Y-127956000D01*
X115279258Y-127948989D01*
X115246414Y-127956000D01*
X103693463Y-127956000D01*
X103577658Y-127811966D01*
X103389038Y-127645089D01*
X103275994Y-127574999D01*
X105510030Y-127574999D01*
X107445908Y-127574999D01*
X107491147Y-127469954D01*
X111086349Y-127469954D01*
X111330263Y-127574999D01*
X112976987Y-127574999D01*
X113161540Y-127146471D01*
X116756742Y-127146471D01*
X118389740Y-127849751D01*
X119093020Y-126216753D01*
X118167830Y-125818303D01*
X120094282Y-125818303D01*
X121727280Y-126521583D01*
X122430559Y-124888585D01*
X121505367Y-124490134D01*
X123431821Y-124490134D01*
X125064819Y-125193414D01*
X125768099Y-123560417D01*
X124842907Y-123161966D01*
X126769361Y-123161966D01*
X128402358Y-123865246D01*
X129105638Y-122232248D01*
X128180447Y-121833798D01*
X130106900Y-121833798D01*
X131739898Y-122537078D01*
X132443178Y-120904080D01*
X131517988Y-120505630D01*
X133444439Y-120505630D01*
X135077437Y-121208910D01*
X135214999Y-120889493D01*
X135215000Y-119332276D01*
X134147719Y-118872632D01*
X133444439Y-120505630D01*
X131517988Y-120505630D01*
X130810180Y-120200800D01*
X130106900Y-121833798D01*
X128180447Y-121833798D01*
X127472641Y-121528969D01*
X126769361Y-123161966D01*
X124842907Y-123161966D01*
X124135101Y-122857137D01*
X123431821Y-124490134D01*
X121505367Y-124490134D01*
X120797562Y-124185305D01*
X120094282Y-125818303D01*
X118167830Y-125818303D01*
X117460022Y-125513473D01*
X116756742Y-127146471D01*
X113161540Y-127146471D01*
X113422627Y-126540236D01*
X112497435Y-126141785D01*
X114423889Y-126141785D01*
X116056886Y-126845065D01*
X116760166Y-125212068D01*
X115834974Y-124813617D01*
X117761428Y-124813617D01*
X119394426Y-125516897D01*
X120097706Y-123883899D01*
X119172516Y-123485449D01*
X121098967Y-123485449D01*
X122731965Y-124188729D01*
X123435245Y-122555731D01*
X122510055Y-122157281D01*
X124436507Y-122157281D01*
X126069504Y-122860561D01*
X126772784Y-121227563D01*
X125847592Y-120829112D01*
X127774046Y-120829112D01*
X129407044Y-121532392D01*
X130110324Y-119899395D01*
X129185132Y-119500944D01*
X131111586Y-119500944D01*
X132744583Y-120204224D01*
X133447863Y-118571226D01*
X131814865Y-117867947D01*
X131111586Y-119500944D01*
X129185132Y-119500944D01*
X128477326Y-119196115D01*
X127774046Y-120829112D01*
X125847592Y-120829112D01*
X125139787Y-120524283D01*
X124436507Y-122157281D01*
X122510055Y-122157281D01*
X121802247Y-121852451D01*
X121098967Y-123485449D01*
X119172516Y-123485449D01*
X118464708Y-123180619D01*
X117761428Y-124813617D01*
X115834974Y-124813617D01*
X115127169Y-124508788D01*
X114423889Y-126141785D01*
X112497435Y-126141785D01*
X111789629Y-125836956D01*
X111086349Y-127469954D01*
X107491147Y-127469954D01*
X107752234Y-126863718D01*
X106827043Y-126465268D01*
X108753495Y-126465268D01*
X110386493Y-127168548D01*
X111089773Y-125535550D01*
X110164583Y-125137100D01*
X112091035Y-125137100D01*
X113724033Y-125840380D01*
X114427312Y-124207382D01*
X113502122Y-123808932D01*
X115428574Y-123808932D01*
X117061572Y-124512211D01*
X117764852Y-122879214D01*
X116839660Y-122480763D01*
X118766114Y-122480763D01*
X120399111Y-123184043D01*
X121102391Y-121551046D01*
X120177199Y-121152595D01*
X122103653Y-121152595D01*
X123736651Y-121855875D01*
X124439931Y-120222877D01*
X123514741Y-119824427D01*
X125441192Y-119824427D01*
X127074190Y-120527707D01*
X127777470Y-118894709D01*
X126852280Y-118496259D01*
X128778732Y-118496259D01*
X130411729Y-119199539D01*
X131115009Y-117566541D01*
X130189817Y-117168090D01*
X132116271Y-117168090D01*
X133749269Y-117871370D01*
X134452549Y-116238373D01*
X132819551Y-115535093D01*
X132116271Y-117168090D01*
X130189817Y-117168090D01*
X129482012Y-116863261D01*
X128778732Y-118496259D01*
X126852280Y-118496259D01*
X126144472Y-118191429D01*
X125441192Y-119824427D01*
X123514741Y-119824427D01*
X122806933Y-119519597D01*
X122103653Y-121152595D01*
X120177199Y-121152595D01*
X119469394Y-120847766D01*
X118766114Y-122480763D01*
X116839660Y-122480763D01*
X116131854Y-122175934D01*
X115428574Y-123808932D01*
X113502122Y-123808932D01*
X112794315Y-123504102D01*
X112091035Y-125137100D01*
X110164583Y-125137100D01*
X109456775Y-124832270D01*
X108753495Y-126465268D01*
X106827043Y-126465268D01*
X106119236Y-126160439D01*
X105510030Y-127574999D01*
X103275994Y-127574999D01*
X103174998Y-127512380D01*
X102941657Y-127417630D01*
X102695689Y-127363551D01*
X102444125Y-127351686D01*
X102194159Y-127382379D01*
X101952938Y-127454749D01*
X101727359Y-127566727D01*
X101523872Y-127715113D01*
X101348296Y-127895661D01*
X101205650Y-128103212D01*
X101100014Y-128331829D01*
X101034407Y-128574978D01*
X101010707Y-128825703D01*
X101029589Y-129076837D01*
X101090516Y-129321201D01*
X101191744Y-129551804D01*
X101330378Y-129762055D01*
X101502457Y-129945942D01*
X101703058Y-130098206D01*
X101724055Y-130109136D01*
X101523872Y-130255113D01*
X101348296Y-130435661D01*
X101205650Y-130643212D01*
X101100014Y-130871829D01*
X101034407Y-131114978D01*
X101010707Y-131365703D01*
X101029589Y-131616837D01*
X101090516Y-131861201D01*
X101191744Y-132091804D01*
X101330378Y-132302055D01*
X101502457Y-132485942D01*
X101703058Y-132638206D01*
X101724055Y-132649136D01*
X101523872Y-132795113D01*
X101348296Y-132975661D01*
X101205650Y-133183212D01*
X101100014Y-133411829D01*
X101034407Y-133654978D01*
X101010707Y-133905703D01*
X101029589Y-134156837D01*
X101090516Y-134401201D01*
X101191744Y-134631804D01*
X101330378Y-134842055D01*
X101502457Y-135025942D01*
X101703058Y-135178206D01*
X101724055Y-135189136D01*
X101523872Y-135335113D01*
X101348296Y-135515661D01*
X101205650Y-135723212D01*
X101100014Y-135951829D01*
X101034407Y-136194978D01*
X101010707Y-136445703D01*
X101029589Y-136696837D01*
X101090516Y-136941201D01*
X101191744Y-137171804D01*
X101330378Y-137382055D01*
X101485481Y-137547801D01*
X101332489Y-137588795D01*
X101156835Y-137736185D01*
X101045044Y-137929814D01*
X101008163Y-138138976D01*
X101008163Y-138872000D01*
X102372001Y-138872001D01*
X102372001Y-138872000D01*
X103991837Y-138872001D01*
X103991837Y-138133412D01*
X103911205Y-137832489D01*
X103763815Y-137656835D01*
X103570186Y-137545044D01*
X103524324Y-137536957D01*
X103557723Y-137508533D01*
X103610137Y-137445846D01*
X104084135Y-137445846D01*
X104203068Y-137587586D01*
X104279223Y-137733877D01*
X104359855Y-138034800D01*
X104372836Y-138133411D01*
X104372836Y-138406357D01*
X105363065Y-138832817D01*
X106066345Y-137199819D01*
X104476211Y-136514999D01*
X104425397Y-136514999D01*
X104356784Y-136674318D01*
X104355704Y-136685180D01*
X104308399Y-136933162D01*
X104291018Y-136995201D01*
X104202819Y-137231097D01*
X104175238Y-137289315D01*
X104084135Y-137445846D01*
X103610137Y-137445846D01*
X103719268Y-137315327D01*
X103845949Y-137097666D01*
X103934148Y-136861771D01*
X103981453Y-136613789D01*
X103984132Y-136334679D01*
X103968272Y-136241892D01*
X104076164Y-136134000D01*
X115633837Y-136134000D01*
X120373697Y-140873861D01*
X120339108Y-140866761D01*
X120116726Y-140865209D01*
X119898277Y-140906880D01*
X119692083Y-140990188D01*
X119584887Y-141060335D01*
X119491965Y-140997657D01*
X119286954Y-140911479D01*
X119069108Y-140866761D01*
X118846726Y-140865209D01*
X118628277Y-140906880D01*
X118422083Y-140990188D01*
X118314887Y-141060335D01*
X118221965Y-140997657D01*
X118016954Y-140911479D01*
X117799108Y-140866761D01*
X117576726Y-140865209D01*
X117358277Y-140906880D01*
X117152083Y-140990188D01*
X117044887Y-141060335D01*
X116951965Y-140997657D01*
X116746954Y-140911479D01*
X116529108Y-140866761D01*
X116306726Y-140865209D01*
X116088277Y-140906880D01*
X115882083Y-140990188D01*
X115774887Y-141060335D01*
X115681965Y-140997657D01*
X115476954Y-140911479D01*
X115268000Y-140868587D01*
X115267999Y-141872001D01*
X115268000Y-141872001D01*
X115267999Y-143128971D01*
X115446431Y-143097505D01*
X115653766Y-143017085D01*
X115775331Y-142939938D01*
X115854093Y-142994679D01*
X116057881Y-143083711D01*
X116275080Y-143131466D01*
X116497420Y-143136123D01*
X116716429Y-143097505D01*
X116923766Y-143017085D01*
X117045331Y-142939938D01*
X117124093Y-142994679D01*
X117327881Y-143083711D01*
X117545080Y-143131466D01*
X117767420Y-143136123D01*
X117986429Y-143097505D01*
X118193766Y-143017085D01*
X118315331Y-142939938D01*
X118394093Y-142994679D01*
X118597881Y-143083711D01*
X118815080Y-143131466D01*
X119037420Y-143136123D01*
X119256429Y-143097505D01*
X119463766Y-143017085D01*
X119585331Y-142939938D01*
X119664093Y-142994679D01*
X119867881Y-143083711D01*
X120085080Y-143131466D01*
X120307420Y-143136123D01*
X120526429Y-143097505D01*
X120733766Y-143017085D01*
X120855331Y-142939938D01*
X120934093Y-142994679D01*
X121137881Y-143083711D01*
X121355080Y-143131466D01*
X121577420Y-143136123D01*
X121796429Y-143097505D01*
X122003766Y-143017085D01*
X122125331Y-142939938D01*
X122204093Y-142994679D01*
X122407881Y-143083711D01*
X122625080Y-143131466D01*
X122847420Y-143136123D01*
X123066429Y-143097505D01*
X123273766Y-143017085D01*
X123395331Y-142939938D01*
X123474093Y-142994679D01*
X123677881Y-143083711D01*
X123895080Y-143131466D01*
X124117420Y-143136123D01*
X124336429Y-143097505D01*
X124543766Y-143017085D01*
X124665331Y-142939938D01*
X124744093Y-142994679D01*
X124947881Y-143083711D01*
X125165080Y-143131466D01*
X125387420Y-143136123D01*
X125606429Y-143097505D01*
X125813766Y-143017085D01*
X125935331Y-142939938D01*
X126014093Y-142994679D01*
X126217881Y-143083711D01*
X126435080Y-143131466D01*
X126657420Y-143136123D01*
X126876429Y-143097505D01*
X127083766Y-143017085D01*
X127205331Y-142939938D01*
X127284093Y-142994679D01*
X127487881Y-143083711D01*
X127705080Y-143131466D01*
X127927420Y-143136123D01*
X128146429Y-143097505D01*
X128353766Y-143017085D01*
X128475331Y-142939938D01*
X128554093Y-142994679D01*
X128757881Y-143083711D01*
X128975080Y-143131466D01*
X129197420Y-143136123D01*
X129416429Y-143097505D01*
X129623766Y-143017085D01*
X129745331Y-142939938D01*
X129824093Y-142994679D01*
X130027881Y-143083711D01*
X130245080Y-143131466D01*
X130467420Y-143136123D01*
X130686429Y-143097505D01*
X130893766Y-143017085D01*
X131015331Y-142939938D01*
X131094093Y-142994679D01*
X131297881Y-143083711D01*
X131515080Y-143131466D01*
X131737420Y-143136123D01*
X131956429Y-143097505D01*
X132163766Y-143017085D01*
X132285331Y-142939938D01*
X132364093Y-142994679D01*
X132567881Y-143083711D01*
X132785080Y-143131466D01*
X133007420Y-143136123D01*
X133226429Y-143097505D01*
X133433766Y-143017085D01*
X133555331Y-142939938D01*
X133634093Y-142994679D01*
X133837881Y-143083711D01*
X134055080Y-143131466D01*
X134277420Y-143136123D01*
X134496429Y-143097505D01*
X134703766Y-143017085D01*
X134825331Y-142939938D01*
X134904093Y-142994679D01*
X135107881Y-143083711D01*
X135325080Y-143131466D01*
X135547420Y-143136123D01*
X135766429Y-143097505D01*
X135973766Y-143017085D01*
X136089127Y-142943875D01*
X136136282Y-142968842D01*
X136190195Y-143006732D01*
X136257134Y-143032831D01*
X136320630Y-143066449D01*
X136362366Y-143076933D01*
X136377879Y-143083710D01*
X136400246Y-143088628D01*
X136446229Y-143106556D01*
X136514766Y-143115213D01*
X136586830Y-143133314D01*
X136661122Y-143133703D01*
X136663471Y-143134000D01*
X136716084Y-143134000D01*
X136817419Y-143136123D01*
X136826236Y-143134568D01*
X136861298Y-143134752D01*
X136864430Y-143134000D01*
X137444529Y-143134000D01*
X137488976Y-143141837D01*
X138516588Y-143141837D01*
X138817512Y-143061205D01*
X138993165Y-142913815D01*
X139104956Y-142720186D01*
X139141837Y-142511024D01*
X139141837Y-142095349D01*
X140094515Y-142095349D01*
X140134660Y-142314084D01*
X140216527Y-142520855D01*
X140336996Y-142707786D01*
X140491479Y-142867759D01*
X140674093Y-142994679D01*
X140877881Y-143083711D01*
X141095080Y-143131466D01*
X141317420Y-143136123D01*
X141536429Y-143097505D01*
X141674291Y-143044033D01*
X141779814Y-143104956D01*
X141988976Y-143141837D01*
X143016588Y-143141837D01*
X143317512Y-143061205D01*
X143493165Y-142913815D01*
X143604956Y-142720186D01*
X143641837Y-142511024D01*
X143641837Y-141483412D01*
X143561205Y-141182489D01*
X143413815Y-141006835D01*
X143220186Y-140895044D01*
X143011024Y-140858163D01*
X141983412Y-140858163D01*
X141682489Y-140938795D01*
X141665617Y-140952952D01*
X141566954Y-140911479D01*
X141349108Y-140866761D01*
X141126726Y-140865209D01*
X140908277Y-140906880D01*
X140702083Y-140990188D01*
X140515996Y-141111959D01*
X140357107Y-141267555D01*
X140231465Y-141451051D01*
X140143857Y-141655455D01*
X140097620Y-141872984D01*
X140094515Y-142095349D01*
X139141837Y-142095349D01*
X139141837Y-141483412D01*
X139061205Y-141182489D01*
X138913815Y-141006835D01*
X138720186Y-140895044D01*
X138511024Y-140858163D01*
X137864000Y-140858163D01*
X137864000Y-140494260D01*
X141429214Y-140494260D01*
X141643567Y-140538261D01*
X141672175Y-140547117D01*
X141884802Y-140490145D01*
X141983411Y-140477162D01*
X143011023Y-140477162D01*
X143077183Y-140482950D01*
X143286345Y-140519831D01*
X143344901Y-140541143D01*
X143749726Y-139601148D01*
X142116729Y-138897868D01*
X141429214Y-140494260D01*
X137864000Y-140494260D01*
X137864000Y-139526180D01*
X139080595Y-139526180D01*
X140713593Y-140229460D01*
X141416873Y-138596463D01*
X140491681Y-138198012D01*
X142418134Y-138198012D01*
X143984999Y-138872811D01*
X143984999Y-136936933D01*
X143121414Y-136565015D01*
X142418134Y-138198012D01*
X140491681Y-138198012D01*
X139783875Y-137893183D01*
X139080595Y-139526180D01*
X137864000Y-139526180D01*
X137864000Y-135836109D01*
X139285289Y-135836109D01*
X139307274Y-136060332D01*
X139373898Y-136275554D01*
X139482435Y-136472985D01*
X139628456Y-136644559D01*
X139805993Y-136783266D01*
X140007796Y-136883441D01*
X140225620Y-136940993D01*
X140450567Y-136953570D01*
X140673449Y-136920658D01*
X140885159Y-136843601D01*
X141077052Y-136725547D01*
X141241288Y-136571321D01*
X141371157Y-136387219D01*
X141461356Y-136180764D01*
X141508244Y-135960172D01*
X141509056Y-135727568D01*
X141463708Y-135506654D01*
X141374954Y-135299575D01*
X141246372Y-135114570D01*
X141083218Y-134959200D01*
X140892154Y-134839811D01*
X140680986Y-134761278D01*
X140458341Y-134726810D01*
X140233311Y-134737816D01*
X140015091Y-134793845D01*
X139812593Y-134892609D01*
X139634091Y-135030075D01*
X139486877Y-135200624D01*
X139376963Y-135397292D01*
X139308839Y-135612045D01*
X139285289Y-135836109D01*
X137864000Y-135836109D01*
X137864000Y-134587587D01*
X141207489Y-134587587D01*
X141285115Y-134636092D01*
X141345963Y-134683289D01*
X141509117Y-134838659D01*
X141559228Y-134897126D01*
X141687811Y-135082131D01*
X141713889Y-135129176D01*
X142722964Y-135563753D01*
X143426244Y-133930755D01*
X141793246Y-133227475D01*
X141207489Y-134587587D01*
X137864000Y-134587587D01*
X137864000Y-133855787D01*
X138757112Y-133855787D01*
X140019350Y-134399393D01*
X140138562Y-134368785D01*
X140214698Y-134357271D01*
X140439728Y-134346264D01*
X140480830Y-134348419D01*
X141093390Y-132926070D01*
X140168198Y-132527619D01*
X142094652Y-132527619D01*
X143727649Y-133230899D01*
X143985000Y-132633338D01*
X143985000Y-131405854D01*
X142797932Y-130894621D01*
X142094652Y-132527619D01*
X140168198Y-132527619D01*
X139460392Y-132222790D01*
X138757112Y-133855787D01*
X137864000Y-133855787D01*
X137864000Y-131522933D01*
X139761798Y-131522933D01*
X141394796Y-132226213D01*
X142098075Y-130593216D01*
X140465078Y-129889936D01*
X139761798Y-131522933D01*
X137864000Y-131522933D01*
X137864000Y-130869697D01*
X138244999Y-130869697D01*
X139061942Y-131221528D01*
X139765222Y-129588530D01*
X138840031Y-129190080D01*
X140766483Y-129190080D01*
X142399481Y-129893360D01*
X143102761Y-128260362D01*
X141469763Y-127557082D01*
X140766483Y-129190080D01*
X138840031Y-129190080D01*
X138244999Y-128933819D01*
X138244999Y-130869697D01*
X137864000Y-130869697D01*
X137864000Y-128185394D01*
X138433630Y-128185394D01*
X140066627Y-128888674D01*
X140769907Y-127255676D01*
X139844717Y-126857226D01*
X141771169Y-126857226D01*
X143404167Y-127560506D01*
X143985000Y-126211827D01*
X143984999Y-125874774D01*
X142474449Y-125224228D01*
X141771169Y-126857226D01*
X139844717Y-126857226D01*
X139136910Y-126552396D01*
X138433630Y-128185394D01*
X137864000Y-128185394D01*
X137864000Y-125852540D01*
X139438315Y-125852540D01*
X141071313Y-126555820D01*
X141774593Y-124922823D01*
X140849401Y-124524372D01*
X142775855Y-124524372D01*
X143984999Y-125045112D01*
X143984999Y-123109234D01*
X143479135Y-122891374D01*
X142775855Y-124524372D01*
X140849401Y-124524372D01*
X140141595Y-124219543D01*
X139438315Y-125852540D01*
X137864000Y-125852540D01*
X137864000Y-125338617D01*
X138244999Y-125338617D01*
X138738459Y-125551135D01*
X139441739Y-123918137D01*
X138516547Y-123519686D01*
X140443001Y-123519686D01*
X142075998Y-124222966D01*
X142779278Y-122589969D01*
X141146281Y-121886689D01*
X140443001Y-123519686D01*
X138516547Y-123519686D01*
X138244999Y-123402739D01*
X138244999Y-125338617D01*
X137864000Y-125338617D01*
X137864000Y-122201878D01*
X138244999Y-122201878D01*
X138244999Y-122573077D01*
X139743145Y-123218281D01*
X140446425Y-121585283D01*
X139521235Y-121186833D01*
X141447686Y-121186833D01*
X143080684Y-121890113D01*
X143783964Y-120257115D01*
X142150966Y-119553835D01*
X141447686Y-121186833D01*
X139521235Y-121186833D01*
X138813427Y-120882003D01*
X138244999Y-122201878D01*
X137864000Y-122201878D01*
X137864000Y-120182147D01*
X139114833Y-120182147D01*
X140747830Y-120885427D01*
X141451110Y-119252429D01*
X140525920Y-118853979D01*
X142452372Y-118853979D01*
X143985000Y-119514033D01*
X143985000Y-117578155D01*
X143155652Y-117220981D01*
X142452372Y-118853979D01*
X140525920Y-118853979D01*
X139818112Y-118549149D01*
X139114833Y-120182147D01*
X137864000Y-120182147D01*
X137864000Y-117849293D01*
X140119518Y-117849293D01*
X141752516Y-118552573D01*
X142455796Y-116919576D01*
X140822798Y-116216296D01*
X140119518Y-117849293D01*
X137864000Y-117849293D01*
X137864000Y-115780366D01*
X138244999Y-115780366D01*
X138244999Y-117041998D01*
X139419662Y-117547888D01*
X140122942Y-115914890D01*
X139197750Y-115516439D01*
X141124204Y-115516439D01*
X142757201Y-116219719D01*
X143460481Y-114586722D01*
X141827484Y-113883442D01*
X141124204Y-115516439D01*
X139197750Y-115516439D01*
X138489944Y-115211610D01*
X138244999Y-115780366D01*
X137864000Y-115780366D01*
X137864000Y-114511754D01*
X138791350Y-114511754D01*
X140424348Y-115215034D01*
X141127627Y-113582036D01*
X140202437Y-113183586D01*
X142128889Y-113183586D01*
X143761887Y-113886866D01*
X143985000Y-113368804D01*
X143984999Y-112047075D01*
X142832169Y-111550588D01*
X142128889Y-113183586D01*
X140202437Y-113183586D01*
X139494630Y-112878756D01*
X138791350Y-114511754D01*
X137864000Y-114511754D01*
X137864000Y-112178900D01*
X139796035Y-112178900D01*
X141429033Y-112882180D01*
X142132313Y-111249182D01*
X140499315Y-110545902D01*
X139796035Y-112178900D01*
X137864000Y-112178900D01*
X137864000Y-111510918D01*
X138244999Y-111510918D01*
X139096179Y-111877494D01*
X139799459Y-110244497D01*
X138874268Y-109846046D01*
X140800721Y-109846046D01*
X142433719Y-110549326D01*
X143136999Y-108916329D01*
X141504001Y-108213049D01*
X140800721Y-109846046D01*
X138874268Y-109846046D01*
X138244999Y-109575040D01*
X138244999Y-111510918D01*
X137864000Y-111510918D01*
X137864000Y-109141837D01*
X138516588Y-109141837D01*
X138817512Y-109061205D01*
X138993165Y-108913815D01*
X139104956Y-108720186D01*
X139141837Y-108511024D01*
X139141837Y-108461879D01*
X139234041Y-108369675D01*
X139308910Y-108304363D01*
X139370746Y-108216380D01*
X139437101Y-108131754D01*
X139449461Y-108104379D01*
X139466733Y-108079804D01*
X139505790Y-107979624D01*
X139550049Y-107881603D01*
X139555524Y-107852068D01*
X139566555Y-107823771D01*
X139578946Y-107725691D01*
X139600068Y-107611727D01*
X139594387Y-107513192D01*
X141805407Y-107513192D01*
X143438404Y-108216472D01*
X143985000Y-106947292D01*
X143985000Y-106515996D01*
X142508687Y-105880195D01*
X141805407Y-107513192D01*
X139594387Y-107513192D01*
X139594000Y-107506498D01*
X139594000Y-105341839D01*
X139974999Y-105341839D01*
X139974999Y-106724894D01*
X141105551Y-107211787D01*
X141808830Y-105578789D01*
X140883640Y-105180339D01*
X142810092Y-105180339D01*
X143985000Y-105686334D01*
X143985000Y-103750456D01*
X143513372Y-103547341D01*
X142810092Y-105180339D01*
X140883640Y-105180339D01*
X140175833Y-104875509D01*
X139974999Y-105341839D01*
X139594000Y-105341839D01*
X139594000Y-104175653D01*
X140477238Y-104175653D01*
X142110236Y-104878933D01*
X142813516Y-103245935D01*
X141180518Y-102542655D01*
X140477238Y-104175653D01*
X139594000Y-104175653D01*
X139594000Y-101842799D01*
X141481924Y-101842799D01*
X143114922Y-102546079D01*
X143818202Y-100913082D01*
X142185204Y-100209802D01*
X141481924Y-101842799D01*
X139594000Y-101842799D01*
X139594000Y-101193815D01*
X139975000Y-101193815D01*
X140782068Y-101541394D01*
X141485348Y-99908396D01*
X141402778Y-99872836D01*
X140138976Y-99872836D01*
X140072816Y-99867047D01*
X139975000Y-99849800D01*
X139975000Y-101193815D01*
X139594000Y-101193815D01*
X139594000Y-99554180D01*
X142589321Y-99554180D01*
X143985000Y-100155254D01*
X143985000Y-98219376D01*
X143189889Y-97876948D01*
X142872836Y-98613137D01*
X142872836Y-98861023D01*
X142867048Y-98927183D01*
X142830167Y-99136345D01*
X142784911Y-99260684D01*
X142673120Y-99454313D01*
X142589321Y-99554180D01*
X139594000Y-99554180D01*
X139594000Y-99173715D01*
X139736185Y-99343165D01*
X139929814Y-99454956D01*
X140138976Y-99491837D01*
X141866588Y-99491837D01*
X142167512Y-99411205D01*
X142343165Y-99263815D01*
X142454956Y-99070186D01*
X142491837Y-98861024D01*
X142491837Y-97133412D01*
X142411205Y-96832489D01*
X142263815Y-96656835D01*
X142070186Y-96545044D01*
X141861024Y-96508163D01*
X140133412Y-96508163D01*
X139832489Y-96588795D01*
X139656835Y-96736185D01*
X139545044Y-96929814D01*
X139537618Y-96971930D01*
X139349038Y-96805089D01*
X139134998Y-96672380D01*
X138901657Y-96577630D01*
X138655689Y-96523551D01*
X138404125Y-96511686D01*
X138154159Y-96542379D01*
X137912938Y-96614749D01*
X137687359Y-96726727D01*
X137496369Y-96866000D01*
X136877886Y-96866000D01*
X136809038Y-96805089D01*
X136594998Y-96672380D01*
X136361657Y-96577630D01*
X136115689Y-96523551D01*
X135864125Y-96511686D01*
X135614159Y-96542379D01*
X135372938Y-96614749D01*
X135147359Y-96726727D01*
X134943872Y-96875113D01*
X134768296Y-97055661D01*
X134625650Y-97263212D01*
X134520014Y-97491829D01*
X134454407Y-97734978D01*
X134430707Y-97985703D01*
X134448429Y-98221408D01*
X134174948Y-98494889D01*
X134151179Y-98509886D01*
X134084867Y-98584970D01*
X134060089Y-98609747D01*
X134043862Y-98631399D01*
X133983559Y-98699679D01*
X133968249Y-98732288D01*
X133946639Y-98761123D01*
X133914654Y-98846441D01*
X133875778Y-98929246D01*
X133870584Y-98964003D01*
X133857755Y-98998224D01*
X133850126Y-99100887D01*
X133846001Y-99128487D01*
X133846001Y-99156382D01*
X133838989Y-99250742D01*
X133846001Y-99283590D01*
X133846000Y-102783776D01*
X133731465Y-102951051D01*
X133643857Y-103155455D01*
X133597620Y-103372984D01*
X133594515Y-103595349D01*
X133634660Y-103814084D01*
X133716527Y-104020855D01*
X133836996Y-104207786D01*
X133991479Y-104367759D01*
X134174093Y-104494679D01*
X134377881Y-104583711D01*
X134595080Y-104631466D01*
X134817420Y-104636123D01*
X135036429Y-104597505D01*
X135174291Y-104544033D01*
X135279814Y-104604956D01*
X135488976Y-104641837D01*
X136516588Y-104641837D01*
X136817512Y-104561205D01*
X136993165Y-104413815D01*
X137104956Y-104220186D01*
X137141837Y-104011024D01*
X137141837Y-102983412D01*
X137061205Y-102682489D01*
X136913815Y-102506835D01*
X136720186Y-102395044D01*
X136511024Y-102358163D01*
X135614000Y-102358163D01*
X135614000Y-99556163D01*
X135702180Y-99467983D01*
X135835564Y-99486966D01*
X136087309Y-99479934D01*
X136334270Y-99430587D01*
X136569387Y-99340334D01*
X136785934Y-99211757D01*
X136877299Y-99134000D01*
X137326000Y-99134000D01*
X137326001Y-106866000D01*
X136742234Y-106866000D01*
X136733451Y-106865954D01*
X136626729Y-106865209D01*
X136625781Y-106865390D01*
X136598704Y-106865248D01*
X136528851Y-106882019D01*
X136457517Y-106890651D01*
X136420986Y-106904455D01*
X136408278Y-106906879D01*
X136383356Y-106916949D01*
X136331819Y-106929322D01*
X136267976Y-106962274D01*
X136200767Y-106987670D01*
X136146469Y-107024988D01*
X136087920Y-107055207D01*
X136087643Y-107055448D01*
X136001965Y-106997657D01*
X135796954Y-106911479D01*
X135579108Y-106866761D01*
X135356726Y-106865209D01*
X135138277Y-106906880D01*
X134932083Y-106990188D01*
X134824887Y-107060335D01*
X134731965Y-106997657D01*
X134526954Y-106911479D01*
X134309108Y-106866761D01*
X134086726Y-106865209D01*
X133868277Y-106906880D01*
X133662083Y-106990188D01*
X133554887Y-107060335D01*
X133461965Y-106997657D01*
X133256954Y-106911479D01*
X133039108Y-106866761D01*
X132816726Y-106865209D01*
X132598277Y-106906880D01*
X132392083Y-106990188D01*
X132284887Y-107060335D01*
X132191965Y-106997657D01*
X131986954Y-106911479D01*
X131769108Y-106866761D01*
X131546726Y-106865209D01*
X131328277Y-106906880D01*
X131122083Y-106990188D01*
X131014887Y-107060335D01*
X130921965Y-106997657D01*
X130716954Y-106911479D01*
X130499108Y-106866761D01*
X130276726Y-106865209D01*
X130058277Y-106906880D01*
X129852083Y-106990188D01*
X129744887Y-107060335D01*
X129651965Y-106997657D01*
X129446954Y-106911479D01*
X129229108Y-106866761D01*
X129006726Y-106865209D01*
X128788277Y-106906880D01*
X128582083Y-106990188D01*
X128474887Y-107060335D01*
X128381965Y-106997657D01*
X128176954Y-106911479D01*
X127959108Y-106866761D01*
X127736726Y-106865209D01*
X127518277Y-106906880D01*
X127312083Y-106990188D01*
X127204887Y-107060335D01*
X127111965Y-106997657D01*
X126906954Y-106911479D01*
X126689108Y-106866761D01*
X126466726Y-106865209D01*
X126248277Y-106906880D01*
X126042083Y-106990188D01*
X125934887Y-107060335D01*
X125841965Y-106997657D01*
X125636954Y-106911479D01*
X125419108Y-106866761D01*
X125196726Y-106865209D01*
X124978277Y-106906880D01*
X124772083Y-106990188D01*
X124664887Y-107060335D01*
X124571965Y-106997657D01*
X124366954Y-106911479D01*
X124149108Y-106866761D01*
X123926726Y-106865209D01*
X123708277Y-106906880D01*
X123502083Y-106990188D01*
X123394887Y-107060335D01*
X123301965Y-106997657D01*
X123096954Y-106911479D01*
X122879108Y-106866761D01*
X122656726Y-106865209D01*
X122438277Y-106906880D01*
X122374000Y-106932850D01*
X122374000Y-106150787D01*
X125798913Y-106150787D01*
X126574838Y-106484953D01*
X126691767Y-106485769D01*
X126765719Y-106493542D01*
X126983565Y-106538260D01*
X127054594Y-106560248D01*
X127203857Y-106622991D01*
X127375550Y-106553622D01*
X127446884Y-106532628D01*
X127581394Y-106506969D01*
X127582355Y-106504737D01*
X133943097Y-106504737D01*
X134015334Y-106490957D01*
X134089383Y-106484218D01*
X134311765Y-106485769D01*
X134385718Y-106493542D01*
X134603565Y-106538260D01*
X134674596Y-106560248D01*
X134823857Y-106622992D01*
X134995551Y-106553622D01*
X135066884Y-106532627D01*
X135285332Y-106490956D01*
X135359384Y-106484217D01*
X135581766Y-106485769D01*
X135655719Y-106493542D01*
X135865271Y-106536557D01*
X136138437Y-105902272D01*
X134505440Y-105198992D01*
X133943097Y-106504737D01*
X127582355Y-106504737D01*
X127874103Y-105827304D01*
X131469306Y-105827304D01*
X132997528Y-106485460D01*
X133041768Y-106485769D01*
X133115719Y-106493543D01*
X133118050Y-106494021D01*
X133805583Y-104897586D01*
X132172586Y-104194306D01*
X131469306Y-105827304D01*
X127874103Y-105827304D01*
X128135190Y-105221069D01*
X127209998Y-104822618D01*
X129136452Y-104822618D01*
X130769450Y-105525898D01*
X131472730Y-103892901D01*
X129839732Y-103189621D01*
X129136452Y-104822618D01*
X127209998Y-104822618D01*
X126502193Y-104517789D01*
X125798913Y-106150787D01*
X122374000Y-106150787D01*
X122374000Y-105146101D01*
X123466059Y-105146101D01*
X125099057Y-105849381D01*
X125802336Y-104216383D01*
X124877146Y-103817933D01*
X126803598Y-103817933D01*
X128436596Y-104521213D01*
X129139876Y-102888215D01*
X128214686Y-102489765D01*
X130141138Y-102489765D01*
X131774135Y-103193044D01*
X132477415Y-101560047D01*
X130844418Y-100856767D01*
X130141138Y-102489765D01*
X128214686Y-102489765D01*
X127506878Y-102184935D01*
X126803598Y-103817933D01*
X124877146Y-103817933D01*
X124169339Y-103513103D01*
X123466059Y-105146101D01*
X122374000Y-105146101D01*
X122374000Y-102813247D01*
X124470744Y-102813247D01*
X126103742Y-103516527D01*
X126807022Y-101883529D01*
X125881831Y-101485079D01*
X127808284Y-101485079D01*
X129441281Y-102188359D01*
X130144561Y-100555361D01*
X129219371Y-100156911D01*
X131145823Y-100156911D01*
X132778821Y-100860191D01*
X133462464Y-99272790D01*
X133459035Y-99222504D01*
X133459413Y-99217422D01*
X131849103Y-98523913D01*
X131145823Y-100156911D01*
X129219371Y-100156911D01*
X128511564Y-99852081D01*
X127808284Y-101485079D01*
X125881831Y-101485079D01*
X125174024Y-101180250D01*
X124470744Y-102813247D01*
X122374000Y-102813247D01*
X122374000Y-102416163D01*
X124309770Y-100480393D01*
X125475430Y-100480393D01*
X127108428Y-101183673D01*
X127692031Y-99828561D01*
X127629762Y-99814242D01*
X127389975Y-99737255D01*
X127330519Y-99712445D01*
X127107131Y-99596156D01*
X127052706Y-99561683D01*
X126955354Y-99487789D01*
X128207999Y-99487789D01*
X128494270Y-99430587D01*
X128630338Y-99378355D01*
X129338036Y-99378355D01*
X130445967Y-99855505D01*
X131149247Y-98222507D01*
X130224056Y-97824057D01*
X132150509Y-97824057D01*
X133675950Y-98481016D01*
X133697986Y-98447469D01*
X133748157Y-98390662D01*
X133755206Y-98381255D01*
X133790685Y-98340335D01*
X133807108Y-98323911D01*
X133865606Y-98257675D01*
X133917563Y-98213457D01*
X133919533Y-98211488D01*
X134056792Y-97892775D01*
X134075097Y-97699122D01*
X134086561Y-97635724D01*
X134152168Y-97392575D01*
X134174150Y-97332017D01*
X134279787Y-97103399D01*
X134311657Y-97047411D01*
X134432830Y-96871102D01*
X132853789Y-96191059D01*
X132150509Y-97824057D01*
X130224056Y-97824057D01*
X129919591Y-97692934D01*
X129939226Y-97807805D01*
X129917732Y-97999434D01*
X129939456Y-98050738D01*
X129940624Y-98199392D01*
X129888399Y-98473162D01*
X129871018Y-98535201D01*
X129782819Y-98771096D01*
X129755238Y-98829315D01*
X129628556Y-99046976D01*
X129591557Y-99099717D01*
X129430013Y-99292923D01*
X129384654Y-99338680D01*
X129338036Y-99378355D01*
X128630338Y-99378355D01*
X128729387Y-99340334D01*
X128945934Y-99211757D01*
X129137723Y-99048533D01*
X129299268Y-98855327D01*
X129425949Y-98637666D01*
X129514148Y-98401771D01*
X129566373Y-98128000D01*
X128208000Y-98127999D01*
X128207999Y-99487789D01*
X126955354Y-99487789D01*
X126852105Y-99409419D01*
X126808134Y-99369759D01*
X126652865Y-99501903D01*
X126600451Y-99539358D01*
X126383904Y-99667936D01*
X126325925Y-99696027D01*
X126090808Y-99786280D01*
X126028924Y-99804200D01*
X125781962Y-99853547D01*
X125743521Y-99857893D01*
X125475430Y-100480393D01*
X124309770Y-100480393D01*
X125322180Y-99467983D01*
X125455564Y-99486966D01*
X125707309Y-99479934D01*
X125954270Y-99430587D01*
X126189387Y-99340334D01*
X126405934Y-99211757D01*
X126597723Y-99048533D01*
X126759268Y-98855327D01*
X126809486Y-98769043D01*
X126910378Y-98922055D01*
X127082457Y-99105942D01*
X127283058Y-99258206D01*
X127506446Y-99374494D01*
X127746233Y-99451482D01*
X127952000Y-99480765D01*
X127952001Y-98127999D01*
X127952000Y-98127999D01*
X127952000Y-97872000D01*
X128207999Y-97872000D01*
X129563674Y-97872001D01*
X129521596Y-97625835D01*
X129437944Y-97388291D01*
X129315463Y-97168237D01*
X129157658Y-96971966D01*
X128985181Y-96819371D01*
X129817655Y-96819371D01*
X131450653Y-97522651D01*
X132099950Y-96015000D01*
X130164072Y-96015000D01*
X129817655Y-96819371D01*
X128985181Y-96819371D01*
X128969038Y-96805089D01*
X128754998Y-96672380D01*
X128521658Y-96577630D01*
X128208000Y-96508667D01*
X128207999Y-97872000D01*
X127952000Y-97872000D01*
X127952001Y-96520543D01*
X127774159Y-96542379D01*
X127532938Y-96614749D01*
X127307359Y-96726727D01*
X127103872Y-96875113D01*
X126928296Y-97055661D01*
X126809230Y-97228903D01*
X126775463Y-97168237D01*
X126617658Y-96971966D01*
X126429038Y-96805089D01*
X126214998Y-96672380D01*
X125981657Y-96577630D01*
X125735689Y-96523551D01*
X125484125Y-96511686D01*
X125234159Y-96542379D01*
X124992938Y-96614749D01*
X124767359Y-96726727D01*
X124563872Y-96875113D01*
X124453137Y-96988983D01*
X124411205Y-96832489D01*
X124263815Y-96656835D01*
X124070186Y-96545044D01*
X123861024Y-96508163D01*
X122133412Y-96508163D01*
X121832489Y-96588795D01*
X121656835Y-96736185D01*
X121545044Y-96929814D01*
X121508163Y-97138976D01*
X121508163Y-97201553D01*
X121480354Y-97211592D01*
X121452102Y-97232498D01*
X121418836Y-97247622D01*
X121340850Y-97314819D01*
X121318413Y-97331422D01*
X121298684Y-97351152D01*
X121227008Y-97412912D01*
X121208741Y-97441095D01*
X119664950Y-98984887D01*
X119641177Y-98999886D01*
X119574860Y-99074977D01*
X119550089Y-99099747D01*
X119533860Y-99121400D01*
X119473557Y-99189681D01*
X119458248Y-99222290D01*
X119436639Y-99251122D01*
X119404658Y-99336433D01*
X119365778Y-99419245D01*
X119360582Y-99454007D01*
X119347755Y-99488225D01*
X119340125Y-99590886D01*
X119336000Y-99618488D01*
X119336000Y-99646395D01*
X119328989Y-99740742D01*
X119336000Y-99773586D01*
X119336000Y-102625836D01*
X117469037Y-100758874D01*
X117481453Y-100693790D01*
X117484132Y-100414679D01*
X117441596Y-100165835D01*
X117357944Y-99928291D01*
X117235463Y-99708237D01*
X117113482Y-99556522D01*
X117587059Y-99556522D01*
X117690850Y-99742995D01*
X117717312Y-99801738D01*
X117760076Y-99923177D01*
X118955000Y-100437792D01*
X118955000Y-99799983D01*
X118949036Y-99712509D01*
X118955000Y-99632255D01*
X118955000Y-99618482D01*
X118959184Y-99562171D01*
X118961220Y-99548550D01*
X118967802Y-99459986D01*
X118988583Y-99365466D01*
X118988964Y-99362914D01*
X118989622Y-99360739D01*
X118990996Y-99354490D01*
X118993666Y-99347368D01*
X119020897Y-99257325D01*
X119053271Y-99188369D01*
X119079881Y-99117384D01*
X119127020Y-99031287D01*
X119128671Y-99027768D01*
X119130322Y-99025256D01*
X119131766Y-99022617D01*
X119134101Y-99019502D01*
X119187983Y-98937472D01*
X119238163Y-98880653D01*
X119245209Y-98871252D01*
X119280695Y-98830324D01*
X119297109Y-98813912D01*
X119355599Y-98747681D01*
X119407559Y-98703461D01*
X119412202Y-98698817D01*
X118175463Y-98166193D01*
X117871972Y-98870890D01*
X117867047Y-98927183D01*
X117830166Y-99136345D01*
X117784911Y-99260684D01*
X117673120Y-99454313D01*
X117588067Y-99555676D01*
X117587059Y-99556522D01*
X117113482Y-99556522D01*
X117077658Y-99511966D01*
X117011130Y-99453107D01*
X117167512Y-99411205D01*
X117343165Y-99263815D01*
X117454956Y-99070186D01*
X117491837Y-98861024D01*
X117491837Y-98128000D01*
X114508163Y-98128000D01*
X114508163Y-98866588D01*
X114588795Y-99167512D01*
X114736185Y-99343165D01*
X114929814Y-99454956D01*
X114977030Y-99463281D01*
X114848296Y-99595661D01*
X114705650Y-99803212D01*
X114600014Y-100031829D01*
X114534407Y-100274978D01*
X114510707Y-100525703D01*
X114529589Y-100776837D01*
X114590516Y-101021201D01*
X114691744Y-101251804D01*
X114830378Y-101462055D01*
X115002457Y-101645942D01*
X115203058Y-101798206D01*
X115426446Y-101914494D01*
X115666233Y-101991482D01*
X115915564Y-102026966D01*
X116167309Y-102019934D01*
X116219368Y-102009531D01*
X118066001Y-103856165D01*
X118066000Y-106932096D01*
X118016954Y-106911479D01*
X117799108Y-106866761D01*
X117576726Y-106865209D01*
X117358277Y-106906880D01*
X117152083Y-106990188D01*
X117044887Y-107060335D01*
X116951965Y-106997657D01*
X116746954Y-106911479D01*
X116529108Y-106866761D01*
X116306726Y-106865209D01*
X116088277Y-106906880D01*
X115882083Y-106990188D01*
X115774887Y-107060335D01*
X115681965Y-106997657D01*
X115476954Y-106911479D01*
X115259108Y-106866761D01*
X115036726Y-106865209D01*
X114818277Y-106906880D01*
X114612083Y-106990188D01*
X114504887Y-107060335D01*
X114411965Y-106997657D01*
X114206954Y-106911479D01*
X113989108Y-106866761D01*
X113766726Y-106865209D01*
X113548277Y-106906880D01*
X113342083Y-106990188D01*
X113234887Y-107060335D01*
X113141965Y-106997657D01*
X112936954Y-106911479D01*
X112719108Y-106866761D01*
X112496726Y-106865209D01*
X112278277Y-106906880D01*
X112072083Y-106990188D01*
X111964887Y-107060335D01*
X111871965Y-106997657D01*
X111666954Y-106911479D01*
X111449108Y-106866761D01*
X111226726Y-106865209D01*
X111008277Y-106906880D01*
X110802083Y-106990188D01*
X110615996Y-107111959D01*
X110457107Y-107267555D01*
X110331465Y-107451051D01*
X110243857Y-107655455D01*
X110197620Y-107872984D01*
X110194515Y-108095349D01*
X110234660Y-108314084D01*
X110316527Y-108520855D01*
X110436996Y-108707786D01*
X110591479Y-108867759D01*
X110774093Y-108994679D01*
X110977881Y-109083711D01*
X111195080Y-109131466D01*
X111417420Y-109136123D01*
X111636429Y-109097505D01*
X111843766Y-109017085D01*
X111965331Y-108939938D01*
X112044093Y-108994679D01*
X112247881Y-109083711D01*
X112465080Y-109131466D01*
X112687420Y-109136123D01*
X112906429Y-109097505D01*
X113113766Y-109017085D01*
X113235331Y-108939938D01*
X113314093Y-108994679D01*
X113517881Y-109083711D01*
X113735080Y-109131466D01*
X113957420Y-109136123D01*
X114176429Y-109097505D01*
X114383766Y-109017085D01*
X114505331Y-108939938D01*
X114584093Y-108994679D01*
X114787881Y-109083711D01*
X115005080Y-109131466D01*
X115227420Y-109136123D01*
X115446429Y-109097505D01*
X115653766Y-109017085D01*
X115775331Y-108939938D01*
X115854093Y-108994679D01*
X116057881Y-109083711D01*
X116275080Y-109131466D01*
X116497420Y-109136123D01*
X116716429Y-109097505D01*
X116923766Y-109017085D01*
X117045331Y-108939938D01*
X117124093Y-108994679D01*
X117327881Y-109083711D01*
X117545080Y-109131466D01*
X117767420Y-109136123D01*
X117986429Y-109097505D01*
X118193766Y-109017085D01*
X118315331Y-108939938D01*
X118394093Y-108994679D01*
X118597881Y-109083711D01*
X118815080Y-109131466D01*
X119037420Y-109136123D01*
X119256429Y-109097505D01*
X119463766Y-109017085D01*
X119585331Y-108939938D01*
X119664093Y-108994679D01*
X119867881Y-109083711D01*
X120085080Y-109131466D01*
X120307420Y-109136123D01*
X120526429Y-109097505D01*
X120733766Y-109017085D01*
X120855331Y-108939938D01*
X120934093Y-108994679D01*
X121137881Y-109083711D01*
X121355080Y-109131466D01*
X121577420Y-109136123D01*
X121796429Y-109097505D01*
X122003766Y-109017085D01*
X122125331Y-108939938D01*
X122204093Y-108994679D01*
X122404645Y-109082297D01*
X121370943Y-110116000D01*
X115599031Y-110116000D01*
X115571624Y-110109798D01*
X115471662Y-110116000D01*
X115436600Y-110116000D01*
X115409808Y-110119837D01*
X115318894Y-110125477D01*
X115285013Y-110137709D01*
X115249343Y-110142818D01*
X115166398Y-110180529D01*
X115080354Y-110211592D01*
X115052102Y-110232498D01*
X115018836Y-110247622D01*
X114940850Y-110314819D01*
X114918413Y-110331422D01*
X114898684Y-110351152D01*
X114827008Y-110412912D01*
X114808741Y-110441095D01*
X107343837Y-117906000D01*
X103693463Y-117906000D01*
X103577658Y-117761966D01*
X103511130Y-117703107D01*
X103667512Y-117661205D01*
X103843165Y-117513815D01*
X103954956Y-117320186D01*
X103991837Y-117111024D01*
X103991837Y-116452650D01*
X104768991Y-116452650D01*
X106401988Y-117155930D01*
X107105268Y-115522932D01*
X106180078Y-115124482D01*
X108106530Y-115124482D01*
X109141017Y-115570002D01*
X110387249Y-114323770D01*
X110442808Y-114194764D01*
X108809810Y-113491484D01*
X108106530Y-115124482D01*
X106180078Y-115124482D01*
X105472271Y-114819652D01*
X104768991Y-116452650D01*
X103991837Y-116452650D01*
X103991837Y-116378000D01*
X101008163Y-116378000D01*
X100634000Y-116378000D01*
X100634000Y-115388976D01*
X101008163Y-115388976D01*
X101008163Y-116122000D01*
X102372000Y-116122000D01*
X102372000Y-114758163D01*
X102628000Y-114758163D01*
X102628000Y-116122000D01*
X103991837Y-116122000D01*
X103991837Y-115383412D01*
X103911205Y-115082489D01*
X103763815Y-114906835D01*
X103570186Y-114795044D01*
X103361024Y-114758163D01*
X102628000Y-114758163D01*
X102372000Y-114758163D01*
X101633412Y-114758163D01*
X101332489Y-114838795D01*
X101156835Y-114986185D01*
X101045044Y-115179814D01*
X101008163Y-115388976D01*
X100634000Y-115388976D01*
X100634000Y-114119796D01*
X105773676Y-114119796D01*
X107406674Y-114823076D01*
X108109954Y-113190078D01*
X107184764Y-112791628D01*
X109111216Y-112791628D01*
X110744213Y-113494908D01*
X111447493Y-111861910D01*
X110522303Y-111463460D01*
X112448755Y-111463460D01*
X113007099Y-111703920D01*
X114360227Y-110350792D01*
X113152035Y-109830462D01*
X112448755Y-111463460D01*
X110522303Y-111463460D01*
X109814496Y-111158630D01*
X109111216Y-112791628D01*
X107184764Y-112791628D01*
X106476956Y-112486798D01*
X105773676Y-114119796D01*
X100634000Y-114119796D01*
X100634000Y-113115110D01*
X103440823Y-113115110D01*
X105073820Y-113818390D01*
X105777100Y-112185393D01*
X104851908Y-111786942D01*
X106778362Y-111786942D01*
X108411360Y-112490222D01*
X109114639Y-110857224D01*
X108189448Y-110458774D01*
X110115901Y-110458774D01*
X111748899Y-111162054D01*
X112452179Y-109529056D01*
X112396750Y-109505185D01*
X112383265Y-109503577D01*
X112166066Y-109455822D01*
X112095348Y-109432845D01*
X111968417Y-109377391D01*
X111774206Y-109452720D01*
X111702588Y-109472715D01*
X111483580Y-109511333D01*
X111409442Y-109517038D01*
X111187102Y-109512382D01*
X111113263Y-109503577D01*
X110896064Y-109455821D01*
X110825350Y-109432845D01*
X110621561Y-109343813D01*
X110601023Y-109332334D01*
X110115901Y-110458774D01*
X108189448Y-110458774D01*
X107481642Y-110153945D01*
X106778362Y-111786942D01*
X104851908Y-111786942D01*
X104372836Y-111580621D01*
X104372836Y-111611022D01*
X104367048Y-111677182D01*
X104330167Y-111886344D01*
X104284911Y-112010683D01*
X104173120Y-112204313D01*
X104088065Y-112305677D01*
X103912413Y-112453067D01*
X103766122Y-112529222D01*
X103683627Y-112551326D01*
X103440823Y-113115110D01*
X100634000Y-113115110D01*
X100634000Y-111616588D01*
X101008163Y-111616588D01*
X101088795Y-111917512D01*
X101236185Y-112093165D01*
X101429814Y-112204956D01*
X101638976Y-112241837D01*
X102372000Y-112241837D01*
X102627999Y-112241837D01*
X103366588Y-112241837D01*
X103667512Y-112161205D01*
X103843165Y-112013815D01*
X103954956Y-111820186D01*
X103991837Y-111611024D01*
X103991837Y-110878000D01*
X102628000Y-110877999D01*
X102627999Y-112241837D01*
X102372000Y-112241837D01*
X102372001Y-110878000D01*
X101008163Y-110877999D01*
X101008163Y-111616588D01*
X100634000Y-111616588D01*
X100634000Y-110782257D01*
X104445508Y-110782257D01*
X106078506Y-111485537D01*
X106781786Y-109852539D01*
X105856594Y-109454088D01*
X107783047Y-109454088D01*
X109416045Y-110157368D01*
X110017660Y-108760434D01*
X109996270Y-108727245D01*
X109962282Y-108661111D01*
X109880415Y-108454339D01*
X109869665Y-108416850D01*
X108486327Y-107821091D01*
X107783047Y-109454088D01*
X105856594Y-109454088D01*
X105148788Y-109149259D01*
X104445508Y-110782257D01*
X100634000Y-110782257D01*
X100634000Y-108337999D01*
X101002454Y-108337999D01*
X101090516Y-108691201D01*
X101191744Y-108921804D01*
X101330378Y-109132055D01*
X101485481Y-109297801D01*
X101332489Y-109338795D01*
X101156835Y-109486185D01*
X101045044Y-109679814D01*
X101008163Y-109888976D01*
X101008163Y-110622000D01*
X102372001Y-110622001D01*
X102372001Y-110622000D01*
X103991837Y-110622001D01*
X103991837Y-109883412D01*
X103911205Y-109582489D01*
X103763815Y-109406835D01*
X103570186Y-109295044D01*
X103524324Y-109286957D01*
X103557723Y-109258533D01*
X103719268Y-109065327D01*
X103845949Y-108847666D01*
X103934148Y-108611771D01*
X103965121Y-108449403D01*
X105450194Y-108449403D01*
X107083191Y-109152683D01*
X107786471Y-107519685D01*
X106861281Y-107121235D01*
X108787733Y-107121235D01*
X109868923Y-107586868D01*
X109871182Y-107576239D01*
X109893666Y-107505362D01*
X109981274Y-107300958D01*
X110017096Y-107235798D01*
X110142739Y-107052301D01*
X110190535Y-106995340D01*
X110349423Y-106839744D01*
X110407374Y-106793150D01*
X110593461Y-106671379D01*
X110659356Y-106636930D01*
X110729611Y-106608545D01*
X114539612Y-106608545D01*
X114675549Y-106553622D01*
X114746884Y-106532627D01*
X114965334Y-106490956D01*
X115039386Y-106484217D01*
X115261767Y-106485769D01*
X115335719Y-106493542D01*
X115553565Y-106538260D01*
X115624595Y-106560248D01*
X115773857Y-106622991D01*
X115945550Y-106553622D01*
X116016884Y-106532628D01*
X116235333Y-106490957D01*
X116309384Y-106484218D01*
X116528375Y-106485746D01*
X116794404Y-105868034D01*
X115161406Y-105164754D01*
X114539612Y-106608545D01*
X110729611Y-106608545D01*
X110865550Y-106553622D01*
X110936884Y-106532628D01*
X110980705Y-106524268D01*
X111124011Y-106191517D01*
X110198819Y-105793066D01*
X112125272Y-105793066D01*
X113736958Y-106487168D01*
X113763254Y-106484775D01*
X114461550Y-104863349D01*
X113536358Y-104464898D01*
X115462812Y-104464898D01*
X117095809Y-105168178D01*
X117620615Y-103949593D01*
X116757716Y-103086694D01*
X116166092Y-102831900D01*
X115462812Y-104464898D01*
X113536358Y-104464898D01*
X112828552Y-104160069D01*
X112125272Y-105793066D01*
X110198819Y-105793066D01*
X109491013Y-105488237D01*
X108787733Y-107121235D01*
X106861281Y-107121235D01*
X106153474Y-106816405D01*
X105450194Y-108449403D01*
X103965121Y-108449403D01*
X103986373Y-108338000D01*
X102627999Y-108337999D01*
X102627999Y-108338000D01*
X101002454Y-108337999D01*
X100634000Y-108337999D01*
X100634000Y-108082000D01*
X100997436Y-108082000D01*
X102372001Y-108082001D01*
X102372001Y-108082000D01*
X103983674Y-108082001D01*
X103941596Y-107835835D01*
X103857944Y-107598291D01*
X103735463Y-107378237D01*
X103577658Y-107181966D01*
X103389038Y-107015089D01*
X103267887Y-106939973D01*
X103270029Y-106938701D01*
X103870266Y-106938701D01*
X103874585Y-106943229D01*
X104032391Y-107139500D01*
X104068369Y-107192942D01*
X104190850Y-107412996D01*
X104217310Y-107471736D01*
X104300963Y-107709280D01*
X104317149Y-107771640D01*
X104352169Y-107976519D01*
X104750338Y-108147997D01*
X105453617Y-106514999D01*
X104528427Y-106116549D01*
X106454879Y-106116549D01*
X108087877Y-106819829D01*
X108791157Y-105186831D01*
X107865967Y-104788381D01*
X109792419Y-104788381D01*
X111425416Y-105491661D01*
X112128696Y-103858663D01*
X111203506Y-103460213D01*
X113129958Y-103460213D01*
X114762956Y-104163492D01*
X115466236Y-102530495D01*
X113833238Y-101827215D01*
X113129958Y-103460213D01*
X111203506Y-103460213D01*
X110495699Y-103155383D01*
X109792419Y-104788381D01*
X107865967Y-104788381D01*
X107158159Y-104483551D01*
X106454879Y-106116549D01*
X104528427Y-106116549D01*
X104329795Y-106031005D01*
X104308399Y-106143163D01*
X104291018Y-106205202D01*
X104202819Y-106441097D01*
X104175238Y-106499315D01*
X104048557Y-106716976D01*
X104011557Y-106769719D01*
X103870266Y-106938701D01*
X103270029Y-106938701D01*
X103365934Y-106881757D01*
X103557723Y-106718533D01*
X103719268Y-106525327D01*
X103845949Y-106307666D01*
X103934148Y-106071771D01*
X103981453Y-105823789D01*
X103984132Y-105544679D01*
X103941596Y-105295835D01*
X103857944Y-105058291D01*
X103776318Y-104911637D01*
X104208257Y-104911637D01*
X104217311Y-104931737D01*
X104300963Y-105169281D01*
X104306704Y-105191399D01*
X105755023Y-105815143D01*
X106458303Y-104182146D01*
X105533111Y-103783695D01*
X107459565Y-103783695D01*
X109092562Y-104486975D01*
X109795842Y-102853977D01*
X108870651Y-102455527D01*
X110797104Y-102455527D01*
X112430102Y-103158807D01*
X113133382Y-101525809D01*
X111500384Y-100822529D01*
X110797104Y-102455527D01*
X108870651Y-102455527D01*
X108162845Y-102150698D01*
X107459565Y-103783695D01*
X105533111Y-103783695D01*
X104825305Y-103478866D01*
X104208257Y-104911637D01*
X103776318Y-104911637D01*
X103735463Y-104838237D01*
X103577658Y-104641966D01*
X103389038Y-104475089D01*
X103174998Y-104342380D01*
X102941657Y-104247630D01*
X102695689Y-104193551D01*
X102444125Y-104181686D01*
X102194159Y-104212379D01*
X101952938Y-104284749D01*
X101727359Y-104396727D01*
X101523872Y-104545113D01*
X101348296Y-104725661D01*
X101205650Y-104933212D01*
X101100014Y-105161829D01*
X101034407Y-105404978D01*
X101010707Y-105655703D01*
X101029589Y-105906837D01*
X101090516Y-106151201D01*
X101191744Y-106381804D01*
X101330378Y-106592055D01*
X101502457Y-106775942D01*
X101703058Y-106928206D01*
X101724055Y-106939136D01*
X101523872Y-107085113D01*
X101348296Y-107265661D01*
X101205650Y-107473212D01*
X101100014Y-107701829D01*
X100997436Y-108082000D01*
X100634000Y-108082000D01*
X100634000Y-103910719D01*
X101873780Y-103910719D01*
X102084674Y-103847448D01*
X102147724Y-103834218D01*
X102397690Y-103803525D01*
X102462074Y-103801108D01*
X102713638Y-103812973D01*
X102777503Y-103821438D01*
X103023470Y-103875517D01*
X103084996Y-103894622D01*
X103318338Y-103989371D01*
X103375766Y-104018569D01*
X103589806Y-104151278D01*
X103641496Y-104189736D01*
X103676252Y-104220485D01*
X104125449Y-103177460D01*
X103200259Y-102779010D01*
X105126711Y-102779010D01*
X106759709Y-103482290D01*
X107462989Y-101849292D01*
X106537797Y-101450841D01*
X108464250Y-101450841D01*
X110097248Y-102154121D01*
X110800528Y-100521124D01*
X109875336Y-100122673D01*
X111801790Y-100122673D01*
X113434787Y-100825953D01*
X114138067Y-99192955D01*
X112505070Y-98489676D01*
X111801790Y-100122673D01*
X109875336Y-100122673D01*
X109167530Y-99817844D01*
X108464250Y-101450841D01*
X106537797Y-101450841D01*
X105829991Y-101146012D01*
X105126711Y-102779010D01*
X103200259Y-102779010D01*
X102492452Y-102474180D01*
X101873780Y-103910719D01*
X100634000Y-103910719D01*
X100634000Y-101774324D01*
X102793857Y-101774324D01*
X104426855Y-102477604D01*
X105130135Y-100844606D01*
X104204945Y-100446156D01*
X106131397Y-100446156D01*
X107764394Y-101149436D01*
X108467674Y-99516438D01*
X107542484Y-99117988D01*
X109468936Y-99117988D01*
X111101934Y-99821268D01*
X111805214Y-98188270D01*
X110880022Y-97789819D01*
X112806475Y-97789819D01*
X114127163Y-98358597D01*
X114127163Y-98127999D01*
X114152623Y-98000000D01*
X114127162Y-97871999D01*
X114127163Y-97138976D01*
X114508163Y-97138976D01*
X114508163Y-97872000D01*
X115872000Y-97872000D01*
X115872000Y-96508163D01*
X116128000Y-96508163D01*
X116128000Y-97872000D01*
X117491837Y-97872000D01*
X117491837Y-97466337D01*
X118476869Y-97466337D01*
X119992115Y-98118905D01*
X120237300Y-97873720D01*
X120813146Y-96536619D01*
X119601959Y-96014999D01*
X119101913Y-96014999D01*
X118476869Y-97466337D01*
X117491837Y-97466337D01*
X117491837Y-97133412D01*
X117411205Y-96832489D01*
X117263815Y-96656835D01*
X117070186Y-96545044D01*
X116861024Y-96508163D01*
X116128000Y-96508163D01*
X115872000Y-96508163D01*
X115133412Y-96508163D01*
X114832489Y-96588795D01*
X114656835Y-96736185D01*
X114545044Y-96929814D01*
X114508163Y-97138976D01*
X114127163Y-97138976D01*
X114132951Y-97072816D01*
X114169832Y-96863653D01*
X114215088Y-96739313D01*
X114326879Y-96545684D01*
X114349656Y-96518540D01*
X113509755Y-96156822D01*
X112806475Y-97789819D01*
X110880022Y-97789819D01*
X110172216Y-97484990D01*
X109468936Y-99117988D01*
X107542484Y-99117988D01*
X106834677Y-98813158D01*
X106131397Y-100446156D01*
X104204945Y-100446156D01*
X103497137Y-100141326D01*
X102793857Y-101774324D01*
X100634000Y-101774324D01*
X100634000Y-99483274D01*
X101014999Y-99483274D01*
X101014999Y-101008227D01*
X102094001Y-101472918D01*
X102797281Y-99839921D01*
X101872089Y-99441470D01*
X103798543Y-99441470D01*
X105431540Y-100144750D01*
X106134820Y-98511752D01*
X105209629Y-98113302D01*
X107136082Y-98113302D01*
X108769080Y-98816582D01*
X109472360Y-97183584D01*
X108547170Y-96785134D01*
X110473622Y-96785134D01*
X112106619Y-97488414D01*
X112741172Y-96014999D01*
X110805294Y-96014999D01*
X110473622Y-96785134D01*
X108547170Y-96785134D01*
X107839362Y-96480304D01*
X107136082Y-98113302D01*
X105209629Y-98113302D01*
X104501823Y-97808473D01*
X103798543Y-99441470D01*
X101872089Y-99441470D01*
X101164283Y-99136641D01*
X101014999Y-99483274D01*
X100634000Y-99483274D01*
X100634000Y-98436785D01*
X101465689Y-98436785D01*
X103098687Y-99140065D01*
X103801967Y-97507067D01*
X102876775Y-97108616D01*
X104803228Y-97108616D01*
X106436226Y-97811896D01*
X107139506Y-96178899D01*
X106758935Y-96014999D01*
X105274214Y-96014999D01*
X104803228Y-97108616D01*
X102876775Y-97108616D01*
X102168969Y-96803787D01*
X101465689Y-98436785D01*
X100634000Y-98436785D01*
X100634000Y-97071862D01*
X100636375Y-97061493D01*
X100637601Y-97045520D01*
X100654383Y-96808501D01*
X100694794Y-96620797D01*
X100761244Y-96440676D01*
X100852410Y-96271715D01*
X100966470Y-96117291D01*
X101101156Y-95980472D01*
X101253781Y-95863990D01*
X101421294Y-95770180D01*
X101600345Y-95700910D01*
X101787379Y-95657558D01*
X101998723Y-95639253D01*
X102013999Y-95639134D01*
X102047943Y-95634000D01*
X142928138Y-95634000D01*
X142938507Y-95636375D01*
G37*
D18*
X142938507Y-95636375D02*
X142954480Y-95637601D01*
X143191499Y-95654383D01*
X143379203Y-95694794D01*
X143559324Y-95761244D01*
X143728285Y-95852410D01*
X143882709Y-95966470D01*
X144019528Y-96101156D01*
X144136010Y-96253781D01*
X144229820Y-96421294D01*
X144299090Y-96600345D01*
X144342442Y-96787379D01*
X144360747Y-96998723D01*
X144360866Y-97013999D01*
X144366001Y-97047949D01*
X144366000Y-142928138D01*
X144363625Y-142938507D01*
X144362399Y-142954478D01*
X144345617Y-143191499D01*
X144305205Y-143379205D01*
X144238759Y-143559317D01*
X144147589Y-143728286D01*
X144033531Y-143882708D01*
X143898838Y-144019534D01*
X143746217Y-144136010D01*
X143578706Y-144229820D01*
X143399655Y-144299090D01*
X143212621Y-144342442D01*
X143001278Y-144360747D01*
X142986001Y-144360866D01*
X142952057Y-144366000D01*
X102071860Y-144366000D01*
X102061494Y-144363626D01*
X102045522Y-144362399D01*
X101808501Y-144345617D01*
X101620795Y-144305205D01*
X101440683Y-144238759D01*
X101271714Y-144147589D01*
X101117292Y-144033531D01*
X100980466Y-143898838D01*
X100904983Y-143799930D01*
X104053550Y-143799930D01*
X104483277Y-143985000D01*
X105909725Y-143985000D01*
X106389828Y-142870212D01*
X105464637Y-142471762D01*
X107391090Y-142471762D01*
X109024087Y-143175042D01*
X109475014Y-142127999D01*
X110200506Y-142127999D01*
X110234660Y-142314084D01*
X110316527Y-142520855D01*
X110436996Y-142707786D01*
X110591479Y-142867759D01*
X110774093Y-142994679D01*
X110977881Y-143083711D01*
X111202000Y-143132986D01*
X111202001Y-142128000D01*
X110200506Y-142127999D01*
X109475014Y-142127999D01*
X109585265Y-141872000D01*
X110197829Y-141872000D01*
X111202000Y-141872001D01*
X111457999Y-141872001D01*
X111458000Y-141872001D01*
X111457999Y-143128971D01*
X111636431Y-143097505D01*
X111843766Y-143017085D01*
X111965331Y-142939938D01*
X112044093Y-142994679D01*
X112247881Y-143083711D01*
X112472000Y-143132986D01*
X112472001Y-142127999D01*
X112472000Y-142127999D01*
X112472000Y-141872001D01*
X112727999Y-141872001D01*
X112728000Y-141872001D01*
X112727999Y-143128971D01*
X112906431Y-143097505D01*
X113113766Y-143017085D01*
X113235331Y-142939938D01*
X113314093Y-142994679D01*
X113517881Y-143083711D01*
X113742000Y-143132986D01*
X113742001Y-142127999D01*
X113742000Y-142127999D01*
X113742000Y-141872001D01*
X113997999Y-141872001D01*
X113998000Y-141872001D01*
X113997999Y-143128971D01*
X114176431Y-143097505D01*
X114383766Y-143017085D01*
X114505331Y-142939938D01*
X114584093Y-142994679D01*
X114787881Y-143083711D01*
X115012000Y-143132986D01*
X115012001Y-142127999D01*
X115012000Y-142127999D01*
X115012001Y-140869926D01*
X114818278Y-140906880D01*
X114612083Y-140990188D01*
X114504887Y-141060335D01*
X114411965Y-140997657D01*
X114206954Y-140911479D01*
X113998000Y-140868587D01*
X113997999Y-141872001D01*
X113742000Y-141872001D01*
X113742001Y-140869926D01*
X113548278Y-140906880D01*
X113342083Y-140990188D01*
X113234887Y-141060335D01*
X113141965Y-140997657D01*
X112936954Y-140911479D01*
X112728000Y-140868587D01*
X112727999Y-141872001D01*
X112472000Y-141872001D01*
X112472001Y-140869926D01*
X112278278Y-140906880D01*
X112072083Y-140990188D01*
X111964887Y-141060335D01*
X111871965Y-140997657D01*
X111666954Y-140911479D01*
X111458000Y-140868587D01*
X111457999Y-141872001D01*
X111202000Y-141872001D01*
X111202001Y-140869926D01*
X111008278Y-140906880D01*
X110802083Y-140990188D01*
X110615996Y-141111959D01*
X110457107Y-141267555D01*
X110331465Y-141451051D01*
X110243857Y-141655455D01*
X110197829Y-141872000D01*
X109585265Y-141872000D01*
X109727367Y-141542044D01*
X108094370Y-140838764D01*
X107391090Y-142471762D01*
X105464637Y-142471762D01*
X104756830Y-142166933D01*
X104053550Y-143799930D01*
X100904983Y-143799930D01*
X100863990Y-143746217D01*
X100770180Y-143578706D01*
X100700910Y-143399655D01*
X100657558Y-143212621D01*
X100639253Y-143001278D01*
X100639134Y-142986001D01*
X100634000Y-142952057D01*
X100634000Y-142795245D01*
X101720696Y-142795245D01*
X103353694Y-143498525D01*
X104056974Y-141865527D01*
X103131782Y-141467076D01*
X105058236Y-141467076D01*
X106691233Y-142170356D01*
X107394513Y-140537359D01*
X106469321Y-140138908D01*
X108395775Y-140138908D01*
X110028773Y-140842188D01*
X110470966Y-139815426D01*
X114066168Y-139815426D01*
X115699166Y-140518705D01*
X115712862Y-140486901D01*
X116542525Y-140486901D01*
X116605719Y-140493542D01*
X116823565Y-140538260D01*
X116894597Y-140560249D01*
X117043856Y-140622992D01*
X117215551Y-140553622D01*
X117286884Y-140532628D01*
X117505333Y-140490957D01*
X117579384Y-140484218D01*
X117801766Y-140485769D01*
X117875719Y-140493542D01*
X118093565Y-140538260D01*
X118164597Y-140560248D01*
X118313857Y-140622991D01*
X118442110Y-140571173D01*
X118735300Y-139890393D01*
X117102302Y-139187113D01*
X116542525Y-140486901D01*
X115712862Y-140486901D01*
X116402446Y-138885708D01*
X114769448Y-138182428D01*
X114066168Y-139815426D01*
X110470966Y-139815426D01*
X110732053Y-139209190D01*
X109806862Y-138810740D01*
X111733315Y-138810740D01*
X113366312Y-139514020D01*
X114069592Y-137881022D01*
X112436594Y-137177742D01*
X111733315Y-138810740D01*
X109806862Y-138810740D01*
X109099055Y-138505911D01*
X108395775Y-140138908D01*
X106469321Y-140138908D01*
X105761516Y-139834079D01*
X105058236Y-141467076D01*
X103131782Y-141467076D01*
X102423976Y-141162247D01*
X101720696Y-142795245D01*
X100634000Y-142795245D01*
X100634000Y-139866588D01*
X101008163Y-139866588D01*
X101088795Y-140167512D01*
X101236185Y-140343165D01*
X101429814Y-140454956D01*
X101638976Y-140491837D01*
X102372000Y-140491837D01*
X102627999Y-140491837D01*
X103366588Y-140491837D01*
X103667512Y-140411205D01*
X103843165Y-140263815D01*
X103954956Y-140070186D01*
X103991837Y-139861024D01*
X103991837Y-139134223D01*
X106062921Y-139134223D01*
X107695919Y-139837503D01*
X108399199Y-138204505D01*
X107474007Y-137806054D01*
X109400461Y-137806054D01*
X111033458Y-138509334D01*
X111736738Y-136876337D01*
X110897722Y-136514999D01*
X109956477Y-136514999D01*
X109400461Y-137806054D01*
X107474007Y-137806054D01*
X106766201Y-137501225D01*
X106062921Y-139134223D01*
X103991837Y-139134223D01*
X103991837Y-139128000D01*
X102628000Y-139127999D01*
X102627999Y-140491837D01*
X102372000Y-140491837D01*
X102372001Y-139128000D01*
X101008163Y-139127999D01*
X101008163Y-139866588D01*
X100634000Y-139866588D01*
X100634000Y-126788751D01*
X103083102Y-126788751D01*
X104716100Y-127492031D01*
X105419380Y-125859033D01*
X104494187Y-125460582D01*
X106420642Y-125460582D01*
X108053639Y-126163862D01*
X108756919Y-124530865D01*
X107884036Y-124154942D01*
X107359336Y-124679641D01*
X107301694Y-124745718D01*
X107240720Y-124798258D01*
X107230988Y-124807989D01*
X107188211Y-124844847D01*
X107177151Y-124853031D01*
X107109868Y-124911006D01*
X107028328Y-124963154D01*
X107026267Y-124964679D01*
X107024276Y-124965745D01*
X107018868Y-124969204D01*
X107011923Y-124972362D01*
X106929011Y-125016771D01*
X106857373Y-125042633D01*
X106788353Y-125074015D01*
X106694126Y-125101567D01*
X106690487Y-125102881D01*
X106687558Y-125103488D01*
X106684656Y-125104336D01*
X106680784Y-125104890D01*
X106584698Y-125124790D01*
X106564723Y-125126029D01*
X106420642Y-125460582D01*
X104494187Y-125460582D01*
X103835956Y-125177103D01*
X103804655Y-125208679D01*
X103739828Y-125263850D01*
X103083102Y-126788751D01*
X100634000Y-126788751D01*
X100634000Y-116378000D01*
X101008163Y-116378000D01*
X101008163Y-117116588D01*
X101088795Y-117417512D01*
X101236185Y-117593165D01*
X101429814Y-117704956D01*
X101477030Y-117713281D01*
X101348296Y-117845661D01*
X101205650Y-118053212D01*
X101100014Y-118281829D01*
X101034407Y-118524978D01*
X101010707Y-118775703D01*
X101029589Y-119026837D01*
X101090516Y-119271201D01*
X101191744Y-119501804D01*
X101330378Y-119712055D01*
X101502457Y-119895942D01*
X101703058Y-120048206D01*
X101724055Y-120059136D01*
X101523872Y-120205113D01*
X101348296Y-120385661D01*
X101205650Y-120593212D01*
X101100014Y-120821829D01*
X101034407Y-121064978D01*
X101010707Y-121315703D01*
X101029589Y-121566837D01*
X101090516Y-121811201D01*
X101191744Y-122041804D01*
X101330378Y-122252055D01*
X101502457Y-122435942D01*
X101703058Y-122588206D01*
X101724055Y-122599136D01*
X101523872Y-122745113D01*
X101348296Y-122925661D01*
X101205650Y-123133212D01*
X101100014Y-123361829D01*
X101034407Y-123604978D01*
X101010707Y-123855703D01*
X101029589Y-124106837D01*
X101090516Y-124351201D01*
X101191744Y-124581804D01*
X101330378Y-124792055D01*
X101502457Y-124975942D01*
X101703058Y-125128206D01*
X101926446Y-125244494D01*
X102166233Y-125321482D01*
X102415564Y-125356966D01*
X102667309Y-125349934D01*
X102914270Y-125300587D01*
X103149387Y-125210334D01*
X103365934Y-125081757D01*
X103557723Y-124918533D01*
X103695293Y-124754000D01*
X106280970Y-124754000D01*
X106308377Y-124760202D01*
X106408338Y-124754000D01*
X106443400Y-124754000D01*
X106470192Y-124750163D01*
X106561105Y-124744523D01*
X106594985Y-124732291D01*
X106630657Y-124727183D01*
X106713603Y-124689470D01*
X106799643Y-124658409D01*
X106827895Y-124637504D01*
X106861166Y-124622376D01*
X106939157Y-124555174D01*
X106961584Y-124538579D01*
X106981308Y-124518855D01*
X107052992Y-124457088D01*
X107071261Y-124428902D01*
X107367749Y-124132414D01*
X109758181Y-124132414D01*
X111391179Y-124835694D01*
X112094459Y-123202696D01*
X111169268Y-122804246D01*
X113095720Y-122804246D01*
X114728718Y-123507526D01*
X115431998Y-121874528D01*
X114506808Y-121476078D01*
X116433260Y-121476078D01*
X118066257Y-122179358D01*
X118769537Y-120546360D01*
X117844345Y-120147909D01*
X119770799Y-120147909D01*
X121403797Y-120851189D01*
X122107077Y-119218192D01*
X121181885Y-118819741D01*
X123108339Y-118819741D01*
X124741336Y-119523021D01*
X125444616Y-117890023D01*
X124519425Y-117491573D01*
X126445878Y-117491573D01*
X128078876Y-118194853D01*
X128782156Y-116561855D01*
X127856966Y-116163405D01*
X129783417Y-116163405D01*
X131416415Y-116866685D01*
X132119695Y-115233687D01*
X131194505Y-114835237D01*
X133120957Y-114835237D01*
X134753954Y-115538516D01*
X135214999Y-114467982D01*
X135215000Y-113801196D01*
X133824237Y-113202239D01*
X133120957Y-114835237D01*
X131194505Y-114835237D01*
X130486697Y-114530407D01*
X129783417Y-116163405D01*
X127856966Y-116163405D01*
X127149158Y-115858575D01*
X126445878Y-117491573D01*
X124519425Y-117491573D01*
X123811618Y-117186744D01*
X123108339Y-118819741D01*
X121181885Y-118819741D01*
X120474079Y-118514912D01*
X119770799Y-120147909D01*
X117844345Y-120147909D01*
X117136540Y-119843080D01*
X116433260Y-121476078D01*
X114506808Y-121476078D01*
X113799000Y-121171248D01*
X113095720Y-122804246D01*
X111169268Y-122804246D01*
X110461461Y-122499417D01*
X109758181Y-124132414D01*
X107367749Y-124132414D01*
X109700603Y-121799560D01*
X110762867Y-121799560D01*
X112395864Y-122502840D01*
X113099144Y-120869843D01*
X112173953Y-120471392D01*
X114100406Y-120471392D01*
X115733404Y-121174672D01*
X116436684Y-119541674D01*
X115511494Y-119143224D01*
X117437945Y-119143224D01*
X119070943Y-119846504D01*
X119774223Y-118213506D01*
X118849033Y-117815056D01*
X120775485Y-117815056D01*
X122408482Y-118518336D01*
X123111762Y-116885338D01*
X122186570Y-116486887D01*
X124113024Y-116486887D01*
X125746022Y-117190167D01*
X126449302Y-115557170D01*
X125524110Y-115158719D01*
X127450564Y-115158719D01*
X129083561Y-115861999D01*
X129786841Y-114229001D01*
X128861650Y-113830551D01*
X130788103Y-113830551D01*
X132421101Y-114533831D01*
X133124380Y-112900833D01*
X131491383Y-112197553D01*
X130788103Y-113830551D01*
X128861650Y-113830551D01*
X128153843Y-113525722D01*
X127450564Y-115158719D01*
X125524110Y-115158719D01*
X124816304Y-114853890D01*
X124113024Y-116486887D01*
X122186570Y-116486887D01*
X121478765Y-116182058D01*
X120775485Y-117815056D01*
X118849033Y-117815056D01*
X118141225Y-117510226D01*
X117437945Y-119143224D01*
X115511494Y-119143224D01*
X114803686Y-118838394D01*
X114100406Y-120471392D01*
X112173953Y-120471392D01*
X111750118Y-120288860D01*
X111158827Y-120880151D01*
X110762867Y-121799560D01*
X109700603Y-121799560D01*
X113361625Y-118138538D01*
X115105092Y-118138538D01*
X116738089Y-118841818D01*
X117441369Y-117208821D01*
X116516177Y-116810370D01*
X118442631Y-116810370D01*
X120075629Y-117513650D01*
X120778909Y-115880652D01*
X119853719Y-115482202D01*
X121780170Y-115482202D01*
X123413168Y-116185482D01*
X124116448Y-114552484D01*
X123191259Y-114154034D01*
X125117710Y-114154034D01*
X126750707Y-114857314D01*
X127453987Y-113224316D01*
X126528795Y-112825865D01*
X128455249Y-112825865D01*
X130088247Y-113529145D01*
X130791527Y-111896148D01*
X129866335Y-111497697D01*
X131792788Y-111497697D01*
X133425786Y-112200977D01*
X134129066Y-110567979D01*
X132496068Y-109864700D01*
X131792788Y-111497697D01*
X129866335Y-111497697D01*
X129158529Y-111192868D01*
X128455249Y-112825865D01*
X126528795Y-112825865D01*
X125820990Y-112521036D01*
X125117710Y-114154034D01*
X123191259Y-114154034D01*
X122996099Y-114069985D01*
X122756445Y-114309638D01*
X122698800Y-114375718D01*
X122637822Y-114428259D01*
X122628103Y-114437980D01*
X122585318Y-114474847D01*
X122574250Y-114483036D01*
X122506971Y-114541008D01*
X122425427Y-114593160D01*
X122423373Y-114594679D01*
X122421389Y-114595742D01*
X122415981Y-114599201D01*
X122409032Y-114602361D01*
X122326118Y-114646772D01*
X122254477Y-114672634D01*
X122185456Y-114704016D01*
X122105204Y-114727482D01*
X121780170Y-115482202D01*
X119853719Y-115482202D01*
X119145911Y-115177372D01*
X118442631Y-116810370D01*
X116516177Y-116810370D01*
X115808371Y-116505541D01*
X115105092Y-118138538D01*
X113361625Y-118138538D01*
X115657297Y-115842866D01*
X116196112Y-115842866D01*
X117742775Y-116508964D01*
X118446055Y-114875967D01*
X118188390Y-114764999D01*
X117273980Y-114764999D01*
X116196112Y-115842866D01*
X115657297Y-115842866D01*
X117116164Y-114384000D01*
X121678076Y-114384000D01*
X121705483Y-114390202D01*
X121805444Y-114384000D01*
X121840506Y-114384000D01*
X121867298Y-114380163D01*
X121958211Y-114374523D01*
X121992091Y-114362291D01*
X122027763Y-114357183D01*
X122110709Y-114319470D01*
X122196749Y-114288409D01*
X122225001Y-114267504D01*
X122258272Y-114252376D01*
X122336263Y-114185174D01*
X122358690Y-114168579D01*
X122378414Y-114148855D01*
X122450098Y-114087088D01*
X122468367Y-114058902D01*
X124706089Y-111821180D01*
X126122395Y-111821180D01*
X127755393Y-112524460D01*
X128458673Y-110891462D01*
X127533483Y-110493012D01*
X129459935Y-110493012D01*
X131092932Y-111196292D01*
X131796212Y-109563294D01*
X131686733Y-109516144D01*
X131507099Y-109512381D01*
X131433265Y-109503576D01*
X131216065Y-109455822D01*
X131145347Y-109432845D01*
X131018417Y-109377391D01*
X130824207Y-109452720D01*
X130752590Y-109472716D01*
X130533581Y-109511334D01*
X130459439Y-109517039D01*
X130237099Y-109512382D01*
X130163264Y-109503576D01*
X129946066Y-109455822D01*
X129911461Y-109444578D01*
X129459935Y-110493012D01*
X127533483Y-110493012D01*
X126862181Y-110203904D01*
X126786169Y-110279916D01*
X126122395Y-111821180D01*
X124706089Y-111821180D01*
X127125055Y-109402215D01*
X127148821Y-109387220D01*
X127215129Y-109312141D01*
X127239913Y-109287358D01*
X127256144Y-109265701D01*
X127316442Y-109197427D01*
X127331753Y-109164814D01*
X127353361Y-109135983D01*
X127385338Y-109050682D01*
X127389924Y-109040915D01*
X127487881Y-109083711D01*
X127705080Y-109131466D01*
X127927420Y-109136123D01*
X128146429Y-109097505D01*
X128353766Y-109017085D01*
X128475331Y-108939938D01*
X128554093Y-108994679D01*
X128757881Y-109083711D01*
X128975080Y-109131466D01*
X129197420Y-109136123D01*
X129416429Y-109097505D01*
X129623766Y-109017085D01*
X129745331Y-108939938D01*
X129824093Y-108994679D01*
X130027881Y-109083711D01*
X130245080Y-109131466D01*
X130467420Y-109136123D01*
X130686429Y-109097505D01*
X130893766Y-109017085D01*
X131015331Y-108939938D01*
X131094093Y-108994679D01*
X131297881Y-109083711D01*
X131515080Y-109131466D01*
X131737420Y-109136123D01*
X131956429Y-109097505D01*
X132163766Y-109017085D01*
X132285331Y-108939938D01*
X132364093Y-108994679D01*
X132567881Y-109083711D01*
X132785080Y-109131466D01*
X133007420Y-109136123D01*
X133226429Y-109097505D01*
X133433766Y-109017085D01*
X133555331Y-108939938D01*
X133634093Y-108994679D01*
X133837881Y-109083711D01*
X134055080Y-109131466D01*
X134277420Y-109136123D01*
X134496429Y-109097505D01*
X134703766Y-109017085D01*
X134825331Y-108939938D01*
X134904093Y-108994679D01*
X135107881Y-109083711D01*
X135325080Y-109131466D01*
X135547420Y-109136123D01*
X135596000Y-109127557D01*
X135596001Y-140870229D01*
X135579108Y-140866761D01*
X135356726Y-140865209D01*
X135138277Y-140906880D01*
X134932083Y-140990188D01*
X134824887Y-141060335D01*
X134731965Y-140997657D01*
X134526954Y-140911479D01*
X134309108Y-140866761D01*
X134086726Y-140865209D01*
X133868277Y-140906880D01*
X133662083Y-140990188D01*
X133554887Y-141060335D01*
X133461965Y-140997657D01*
X133256954Y-140911479D01*
X133039108Y-140866761D01*
X132816726Y-140865209D01*
X132598277Y-140906880D01*
X132392083Y-140990188D01*
X132284887Y-141060335D01*
X132191965Y-140997657D01*
X131986954Y-140911479D01*
X131769108Y-140866761D01*
X131546726Y-140865209D01*
X131328277Y-140906880D01*
X131122083Y-140990188D01*
X131014887Y-141060335D01*
X130921965Y-140997657D01*
X130716954Y-140911479D01*
X130499108Y-140866761D01*
X130276726Y-140865209D01*
X130058277Y-140906880D01*
X129852083Y-140990188D01*
X129744887Y-141060335D01*
X129651965Y-140997657D01*
X129446954Y-140911479D01*
X129229108Y-140866761D01*
X129006726Y-140865209D01*
X128788277Y-140906880D01*
X128582083Y-140990188D01*
X128474887Y-141060335D01*
X128381965Y-140997657D01*
X128176954Y-140911479D01*
X127959108Y-140866761D01*
X127736726Y-140865209D01*
X127518277Y-140906880D01*
X127312083Y-140990188D01*
X127204887Y-141060335D01*
X127111965Y-140997657D01*
X126906954Y-140911479D01*
X126689108Y-140866761D01*
X126466726Y-140865209D01*
X126248277Y-140906880D01*
X126184000Y-140932850D01*
X126184000Y-140173146D01*
X127739809Y-140173146D01*
X128634052Y-140558268D01*
X128645550Y-140553622D01*
X128716884Y-140532628D01*
X128935333Y-140490957D01*
X129009384Y-140484218D01*
X129231766Y-140485770D01*
X129305719Y-140493542D01*
X129518859Y-140537294D01*
X129814999Y-139849663D01*
X133410202Y-139849663D01*
X135024793Y-140545016D01*
X135049781Y-140537662D01*
X135215000Y-140154027D01*
X135214999Y-138691054D01*
X134113482Y-138216665D01*
X133410202Y-139849663D01*
X129814999Y-139849663D01*
X130076086Y-139243428D01*
X129150896Y-138844978D01*
X131077348Y-138844978D01*
X132710346Y-139548257D01*
X133413626Y-137915260D01*
X131780628Y-137211980D01*
X131077348Y-138844978D01*
X129150896Y-138844978D01*
X128443088Y-138540148D01*
X127739809Y-140173146D01*
X126184000Y-140173146D01*
X126184000Y-138899030D01*
X126190202Y-138871623D01*
X126184000Y-138771661D01*
X126184000Y-138736600D01*
X126180163Y-138709808D01*
X126174523Y-138618894D01*
X126162291Y-138585013D01*
X126157182Y-138549343D01*
X126119471Y-138466398D01*
X126088408Y-138380354D01*
X126067502Y-138352101D01*
X126052377Y-138318836D01*
X125985179Y-138240849D01*
X125968579Y-138218414D01*
X125948843Y-138198679D01*
X125887088Y-138127009D01*
X125858905Y-138108741D01*
X125485388Y-137735224D01*
X126024204Y-137735224D01*
X126109642Y-137820662D01*
X126175718Y-137878305D01*
X126228248Y-137939269D01*
X126237980Y-137949000D01*
X126274853Y-137991793D01*
X126283042Y-138002860D01*
X126341008Y-138070132D01*
X126393134Y-138151640D01*
X126394676Y-138153723D01*
X126395755Y-138155737D01*
X126399211Y-138161142D01*
X126402364Y-138168076D01*
X126446770Y-138250980D01*
X126472637Y-138322632D01*
X126504017Y-138391652D01*
X126531575Y-138485891D01*
X126532884Y-138489517D01*
X126533488Y-138492433D01*
X126534331Y-138495317D01*
X126534884Y-138499171D01*
X126554792Y-138595305D01*
X126559484Y-138670942D01*
X126561150Y-138682578D01*
X126565000Y-138736603D01*
X126565000Y-138759866D01*
X126570470Y-138848027D01*
X126564999Y-138916016D01*
X126564999Y-139667193D01*
X127039952Y-139871740D01*
X127743232Y-138238742D01*
X126818041Y-137840292D01*
X128744494Y-137840292D01*
X130377492Y-138543572D01*
X131080772Y-136910574D01*
X130155582Y-136512124D01*
X132082034Y-136512124D01*
X133715031Y-137215404D01*
X134418311Y-135582406D01*
X132785313Y-134879126D01*
X132082034Y-136512124D01*
X130155582Y-136512124D01*
X129447774Y-136207294D01*
X128744494Y-137840292D01*
X126818041Y-137840292D01*
X126110235Y-137535463D01*
X126024204Y-137735224D01*
X125485388Y-137735224D01*
X124585770Y-136835606D01*
X126411640Y-136835606D01*
X128044638Y-137538886D01*
X128747918Y-135905889D01*
X127822726Y-135507438D01*
X129749180Y-135507438D01*
X131382177Y-136210718D01*
X132085457Y-134577720D01*
X131160266Y-134179270D01*
X133086719Y-134179270D01*
X134719717Y-134882550D01*
X135214999Y-133732516D01*
X135215000Y-133159975D01*
X133789999Y-132546272D01*
X133086719Y-134179270D01*
X131160266Y-134179270D01*
X130452460Y-133874441D01*
X129749180Y-135507438D01*
X127822726Y-135507438D01*
X127114920Y-135202609D01*
X126411640Y-136835606D01*
X124585770Y-136835606D01*
X123552348Y-135802184D01*
X124091163Y-135802184D01*
X124151000Y-135862021D01*
X125711784Y-136534201D01*
X126415064Y-134901203D01*
X125489874Y-134502753D01*
X127416326Y-134502753D01*
X129049324Y-135206033D01*
X129752603Y-133573035D01*
X128827411Y-133174584D01*
X130753865Y-133174584D01*
X132386863Y-133877864D01*
X133090143Y-132244867D01*
X131457145Y-131541587D01*
X130753865Y-133174584D01*
X128827411Y-133174584D01*
X128119606Y-132869755D01*
X127416326Y-134502753D01*
X125489874Y-134502753D01*
X124782066Y-134197923D01*
X124091163Y-135802184D01*
X123552348Y-135802184D01*
X121619306Y-133869142D01*
X122158122Y-133869142D01*
X123511251Y-135222271D01*
X124082210Y-133896517D01*
X123157019Y-133498067D01*
X125083472Y-133498067D01*
X126716470Y-134201347D01*
X127419750Y-132568349D01*
X126494560Y-132169899D01*
X128421011Y-132169899D01*
X130054009Y-132873179D01*
X130757289Y-131240181D01*
X129832099Y-130841731D01*
X131758551Y-130841731D01*
X133391549Y-131545010D01*
X134094828Y-129912013D01*
X132461831Y-129208733D01*
X131758551Y-130841731D01*
X129832099Y-130841731D01*
X129124291Y-130536901D01*
X128421011Y-132169899D01*
X126494560Y-132169899D01*
X125786752Y-131865069D01*
X125083472Y-133498067D01*
X123157019Y-133498067D01*
X122449213Y-133193238D01*
X122158122Y-133869142D01*
X121619306Y-133869142D01*
X120243545Y-132493381D01*
X122750618Y-132493381D01*
X124383616Y-133196661D01*
X125086896Y-131563664D01*
X124161704Y-131165213D01*
X126088158Y-131165213D01*
X127721155Y-131868493D01*
X128424435Y-130235495D01*
X127499244Y-129837045D01*
X129425697Y-129837045D01*
X131058695Y-130540325D01*
X131761975Y-128907327D01*
X130836785Y-128508877D01*
X132763236Y-128508877D01*
X134396234Y-129212157D01*
X135099514Y-127579159D01*
X133489997Y-126885992D01*
X133489998Y-126946050D01*
X133481673Y-127025262D01*
X133437575Y-127232728D01*
X133412961Y-127308483D01*
X133326692Y-127502245D01*
X133286868Y-127571222D01*
X133162198Y-127742815D01*
X133108902Y-127802007D01*
X133041542Y-127862659D01*
X132763236Y-128508877D01*
X130836785Y-128508877D01*
X130128977Y-128204047D01*
X129425697Y-129837045D01*
X127499244Y-129837045D01*
X126791438Y-129532216D01*
X126088158Y-131165213D01*
X124161704Y-131165213D01*
X123453898Y-130860384D01*
X122750618Y-132493381D01*
X120243545Y-132493381D01*
X119238860Y-131488696D01*
X120417764Y-131488696D01*
X122050762Y-132191976D01*
X122754042Y-130558978D01*
X121828852Y-130160528D01*
X123755304Y-130160528D01*
X125388302Y-130863808D01*
X126091581Y-129230810D01*
X125166389Y-128832359D01*
X127092843Y-128832359D01*
X128725841Y-129535639D01*
X129429121Y-127902642D01*
X127796123Y-127199362D01*
X127092843Y-128832359D01*
X125166389Y-128832359D01*
X124458584Y-128527530D01*
X123755304Y-130160528D01*
X121828852Y-130160528D01*
X121121044Y-129855698D01*
X120417764Y-131488696D01*
X119238860Y-131488696D01*
X117753225Y-130003061D01*
X118292040Y-130003061D01*
X119293482Y-131004503D01*
X119717908Y-131187290D01*
X120421188Y-129554293D01*
X119495996Y-129155842D01*
X121422450Y-129155842D01*
X123055448Y-129859122D01*
X123758728Y-128226124D01*
X122833538Y-127827674D01*
X124759989Y-127827674D01*
X126392987Y-128530954D01*
X127096267Y-126897956D01*
X126171077Y-126499506D01*
X128097529Y-126499506D01*
X129730527Y-127202786D01*
X129932439Y-126733950D01*
X131091001Y-126733950D01*
X131091001Y-126946050D01*
X131135099Y-127153516D01*
X131221368Y-127347278D01*
X131346037Y-127518871D01*
X131503658Y-127660794D01*
X131687343Y-127766844D01*
X131889062Y-127832386D01*
X132100000Y-127854557D01*
X132310938Y-127832386D01*
X132512657Y-127766844D01*
X132696342Y-127660794D01*
X132853963Y-127518871D01*
X132978632Y-127347278D01*
X133064901Y-127153516D01*
X133108999Y-126946050D01*
X133108999Y-126733950D01*
X133064901Y-126526484D01*
X132978632Y-126332722D01*
X132864785Y-126176023D01*
X133767922Y-126176023D01*
X135215000Y-126799233D01*
X135214999Y-124863355D01*
X134471202Y-124543025D01*
X133767922Y-126176023D01*
X132864785Y-126176023D01*
X132853963Y-126161129D01*
X132696342Y-126019206D01*
X132512657Y-125913156D01*
X132310938Y-125847614D01*
X132100000Y-125825443D01*
X131889062Y-125847614D01*
X131687343Y-125913156D01*
X131503658Y-126019206D01*
X131346037Y-126161129D01*
X131221368Y-126332722D01*
X131135099Y-126526484D01*
X131091001Y-126733950D01*
X129932439Y-126733950D01*
X130433806Y-125569788D01*
X129508614Y-125171337D01*
X131435068Y-125171337D01*
X132074055Y-125446529D01*
X132139827Y-125446529D01*
X132350764Y-125468701D01*
X132428670Y-125485260D01*
X132630390Y-125550801D01*
X132703156Y-125583198D01*
X132886841Y-125689249D01*
X132951281Y-125736067D01*
X133078430Y-125850553D01*
X133771346Y-124241620D01*
X132138348Y-123538340D01*
X131435068Y-125171337D01*
X129508614Y-125171337D01*
X128800809Y-124866508D01*
X128097529Y-126499506D01*
X126171077Y-126499506D01*
X125463269Y-126194676D01*
X124759989Y-127827674D01*
X122833538Y-127827674D01*
X122125730Y-127522844D01*
X121422450Y-129155842D01*
X119495996Y-129155842D01*
X118788191Y-128851013D01*
X118292040Y-130003061D01*
X117753225Y-130003061D01*
X116035113Y-128284950D01*
X116020114Y-128261178D01*
X115945021Y-128194858D01*
X115920251Y-128170087D01*
X115898608Y-128153868D01*
X115895538Y-128151156D01*
X119089596Y-128151156D01*
X120722594Y-128854436D01*
X121425874Y-127221439D01*
X120500682Y-126822988D01*
X122427136Y-126822988D01*
X124060133Y-127526268D01*
X124763413Y-125893270D01*
X123838222Y-125494820D01*
X125764675Y-125494820D01*
X127397673Y-126198100D01*
X128100953Y-124565102D01*
X127175763Y-124166652D01*
X129102214Y-124166652D01*
X130735212Y-124869932D01*
X131438492Y-123236934D01*
X130513302Y-122838484D01*
X132439754Y-122838484D01*
X134072751Y-123541763D01*
X134776031Y-121908766D01*
X133143034Y-121205486D01*
X132439754Y-122838484D01*
X130513302Y-122838484D01*
X129805494Y-122533654D01*
X129102214Y-124166652D01*
X127175763Y-124166652D01*
X126467955Y-123861822D01*
X125764675Y-125494820D01*
X123838222Y-125494820D01*
X123130416Y-125189991D01*
X122427136Y-126822988D01*
X120500682Y-126822988D01*
X119792876Y-126518159D01*
X119089596Y-128151156D01*
X115895538Y-128151156D01*
X115830320Y-128093557D01*
X115797708Y-128078246D01*
X115768879Y-128056639D01*
X115683572Y-128024660D01*
X115600755Y-127985777D01*
X115565993Y-127980582D01*
X115531775Y-127967755D01*
X115429127Y-127960127D01*
X115401513Y-127956000D01*
X115373605Y-127956000D01*
X115279258Y-127948989D01*
X115246414Y-127956000D01*
X103693463Y-127956000D01*
X103577658Y-127811966D01*
X103389038Y-127645089D01*
X103275994Y-127574999D01*
X105510030Y-127574999D01*
X107445908Y-127574999D01*
X107491147Y-127469954D01*
X111086349Y-127469954D01*
X111330263Y-127574999D01*
X112976987Y-127574999D01*
X113161540Y-127146471D01*
X116756742Y-127146471D01*
X118389740Y-127849751D01*
X119093020Y-126216753D01*
X118167830Y-125818303D01*
X120094282Y-125818303D01*
X121727280Y-126521583D01*
X122430559Y-124888585D01*
X121505367Y-124490134D01*
X123431821Y-124490134D01*
X125064819Y-125193414D01*
X125768099Y-123560417D01*
X124842907Y-123161966D01*
X126769361Y-123161966D01*
X128402358Y-123865246D01*
X129105638Y-122232248D01*
X128180447Y-121833798D01*
X130106900Y-121833798D01*
X131739898Y-122537078D01*
X132443178Y-120904080D01*
X131517988Y-120505630D01*
X133444439Y-120505630D01*
X135077437Y-121208910D01*
X135214999Y-120889493D01*
X135215000Y-119332276D01*
X134147719Y-118872632D01*
X133444439Y-120505630D01*
X131517988Y-120505630D01*
X130810180Y-120200800D01*
X130106900Y-121833798D01*
X128180447Y-121833798D01*
X127472641Y-121528969D01*
X126769361Y-123161966D01*
X124842907Y-123161966D01*
X124135101Y-122857137D01*
X123431821Y-124490134D01*
X121505367Y-124490134D01*
X120797562Y-124185305D01*
X120094282Y-125818303D01*
X118167830Y-125818303D01*
X117460022Y-125513473D01*
X116756742Y-127146471D01*
X113161540Y-127146471D01*
X113422627Y-126540236D01*
X112497435Y-126141785D01*
X114423889Y-126141785D01*
X116056886Y-126845065D01*
X116760166Y-125212068D01*
X115834974Y-124813617D01*
X117761428Y-124813617D01*
X119394426Y-125516897D01*
X120097706Y-123883899D01*
X119172516Y-123485449D01*
X121098967Y-123485449D01*
X122731965Y-124188729D01*
X123435245Y-122555731D01*
X122510055Y-122157281D01*
X124436507Y-122157281D01*
X126069504Y-122860561D01*
X126772784Y-121227563D01*
X125847592Y-120829112D01*
X127774046Y-120829112D01*
X129407044Y-121532392D01*
X130110324Y-119899395D01*
X129185132Y-119500944D01*
X131111586Y-119500944D01*
X132744583Y-120204224D01*
X133447863Y-118571226D01*
X131814865Y-117867947D01*
X131111586Y-119500944D01*
X129185132Y-119500944D01*
X128477326Y-119196115D01*
X127774046Y-120829112D01*
X125847592Y-120829112D01*
X125139787Y-120524283D01*
X124436507Y-122157281D01*
X122510055Y-122157281D01*
X121802247Y-121852451D01*
X121098967Y-123485449D01*
X119172516Y-123485449D01*
X118464708Y-123180619D01*
X117761428Y-124813617D01*
X115834974Y-124813617D01*
X115127169Y-124508788D01*
X114423889Y-126141785D01*
X112497435Y-126141785D01*
X111789629Y-125836956D01*
X111086349Y-127469954D01*
X107491147Y-127469954D01*
X107752234Y-126863718D01*
X106827043Y-126465268D01*
X108753495Y-126465268D01*
X110386493Y-127168548D01*
X111089773Y-125535550D01*
X110164583Y-125137100D01*
X112091035Y-125137100D01*
X113724033Y-125840380D01*
X114427312Y-124207382D01*
X113502122Y-123808932D01*
X115428574Y-123808932D01*
X117061572Y-124512211D01*
X117764852Y-122879214D01*
X116839660Y-122480763D01*
X118766114Y-122480763D01*
X120399111Y-123184043D01*
X121102391Y-121551046D01*
X120177199Y-121152595D01*
X122103653Y-121152595D01*
X123736651Y-121855875D01*
X124439931Y-120222877D01*
X123514741Y-119824427D01*
X125441192Y-119824427D01*
X127074190Y-120527707D01*
X127777470Y-118894709D01*
X126852280Y-118496259D01*
X128778732Y-118496259D01*
X130411729Y-119199539D01*
X131115009Y-117566541D01*
X130189817Y-117168090D01*
X132116271Y-117168090D01*
X133749269Y-117871370D01*
X134452549Y-116238373D01*
X132819551Y-115535093D01*
X132116271Y-117168090D01*
X130189817Y-117168090D01*
X129482012Y-116863261D01*
X128778732Y-118496259D01*
X126852280Y-118496259D01*
X126144472Y-118191429D01*
X125441192Y-119824427D01*
X123514741Y-119824427D01*
X122806933Y-119519597D01*
X122103653Y-121152595D01*
X120177199Y-121152595D01*
X119469394Y-120847766D01*
X118766114Y-122480763D01*
X116839660Y-122480763D01*
X116131854Y-122175934D01*
X115428574Y-123808932D01*
X113502122Y-123808932D01*
X112794315Y-123504102D01*
X112091035Y-125137100D01*
X110164583Y-125137100D01*
X109456775Y-124832270D01*
X108753495Y-126465268D01*
X106827043Y-126465268D01*
X106119236Y-126160439D01*
X105510030Y-127574999D01*
X103275994Y-127574999D01*
X103174998Y-127512380D01*
X102941657Y-127417630D01*
X102695689Y-127363551D01*
X102444125Y-127351686D01*
X102194159Y-127382379D01*
X101952938Y-127454749D01*
X101727359Y-127566727D01*
X101523872Y-127715113D01*
X101348296Y-127895661D01*
X101205650Y-128103212D01*
X101100014Y-128331829D01*
X101034407Y-128574978D01*
X101010707Y-128825703D01*
X101029589Y-129076837D01*
X101090516Y-129321201D01*
X101191744Y-129551804D01*
X101330378Y-129762055D01*
X101502457Y-129945942D01*
X101703058Y-130098206D01*
X101724055Y-130109136D01*
X101523872Y-130255113D01*
X101348296Y-130435661D01*
X101205650Y-130643212D01*
X101100014Y-130871829D01*
X101034407Y-131114978D01*
X101010707Y-131365703D01*
X101029589Y-131616837D01*
X101090516Y-131861201D01*
X101191744Y-132091804D01*
X101330378Y-132302055D01*
X101502457Y-132485942D01*
X101703058Y-132638206D01*
X101724055Y-132649136D01*
X101523872Y-132795113D01*
X101348296Y-132975661D01*
X101205650Y-133183212D01*
X101100014Y-133411829D01*
X101034407Y-133654978D01*
X101010707Y-133905703D01*
X101029589Y-134156837D01*
X101090516Y-134401201D01*
X101191744Y-134631804D01*
X101330378Y-134842055D01*
X101502457Y-135025942D01*
X101703058Y-135178206D01*
X101724055Y-135189136D01*
X101523872Y-135335113D01*
X101348296Y-135515661D01*
X101205650Y-135723212D01*
X101100014Y-135951829D01*
X101034407Y-136194978D01*
X101010707Y-136445703D01*
X101029589Y-136696837D01*
X101090516Y-136941201D01*
X101191744Y-137171804D01*
X101330378Y-137382055D01*
X101485481Y-137547801D01*
X101332489Y-137588795D01*
X101156835Y-137736185D01*
X101045044Y-137929814D01*
X101008163Y-138138976D01*
X101008163Y-138872000D01*
X102372001Y-138872001D01*
X102372001Y-138872000D01*
X103991837Y-138872001D01*
X103991837Y-138133412D01*
X103911205Y-137832489D01*
X103763815Y-137656835D01*
X103570186Y-137545044D01*
X103524324Y-137536957D01*
X103557723Y-137508533D01*
X103610137Y-137445846D01*
X104084135Y-137445846D01*
X104203068Y-137587586D01*
X104279223Y-137733877D01*
X104359855Y-138034800D01*
X104372836Y-138133411D01*
X104372836Y-138406357D01*
X105363065Y-138832817D01*
X106066345Y-137199819D01*
X104476211Y-136514999D01*
X104425397Y-136514999D01*
X104356784Y-136674318D01*
X104355704Y-136685180D01*
X104308399Y-136933162D01*
X104291018Y-136995201D01*
X104202819Y-137231097D01*
X104175238Y-137289315D01*
X104084135Y-137445846D01*
X103610137Y-137445846D01*
X103719268Y-137315327D01*
X103845949Y-137097666D01*
X103934148Y-136861771D01*
X103981453Y-136613789D01*
X103984132Y-136334679D01*
X103968272Y-136241892D01*
X104076164Y-136134000D01*
X115633837Y-136134000D01*
X120373697Y-140873861D01*
X120339108Y-140866761D01*
X120116726Y-140865209D01*
X119898277Y-140906880D01*
X119692083Y-140990188D01*
X119584887Y-141060335D01*
X119491965Y-140997657D01*
X119286954Y-140911479D01*
X119069108Y-140866761D01*
X118846726Y-140865209D01*
X118628277Y-140906880D01*
X118422083Y-140990188D01*
X118314887Y-141060335D01*
X118221965Y-140997657D01*
X118016954Y-140911479D01*
X117799108Y-140866761D01*
X117576726Y-140865209D01*
X117358277Y-140906880D01*
X117152083Y-140990188D01*
X117044887Y-141060335D01*
X116951965Y-140997657D01*
X116746954Y-140911479D01*
X116529108Y-140866761D01*
X116306726Y-140865209D01*
X116088277Y-140906880D01*
X115882083Y-140990188D01*
X115774887Y-141060335D01*
X115681965Y-140997657D01*
X115476954Y-140911479D01*
X115268000Y-140868587D01*
X115267999Y-141872001D01*
X115268000Y-141872001D01*
X115267999Y-143128971D01*
X115446431Y-143097505D01*
X115653766Y-143017085D01*
X115775331Y-142939938D01*
X115854093Y-142994679D01*
X116057881Y-143083711D01*
X116275080Y-143131466D01*
X116497420Y-143136123D01*
X116716429Y-143097505D01*
X116923766Y-143017085D01*
X117045331Y-142939938D01*
X117124093Y-142994679D01*
X117327881Y-143083711D01*
X117545080Y-143131466D01*
X117767420Y-143136123D01*
X117986429Y-143097505D01*
X118193766Y-143017085D01*
X118315331Y-142939938D01*
X118394093Y-142994679D01*
X118597881Y-143083711D01*
X118815080Y-143131466D01*
X119037420Y-143136123D01*
X119256429Y-143097505D01*
X119463766Y-143017085D01*
X119585331Y-142939938D01*
X119664093Y-142994679D01*
X119867881Y-143083711D01*
X120085080Y-143131466D01*
X120307420Y-143136123D01*
X120526429Y-143097505D01*
X120733766Y-143017085D01*
X120855331Y-142939938D01*
X120934093Y-142994679D01*
X121137881Y-143083711D01*
X121355080Y-143131466D01*
X121577420Y-143136123D01*
X121796429Y-143097505D01*
X122003766Y-143017085D01*
X122125331Y-142939938D01*
X122204093Y-142994679D01*
X122407881Y-143083711D01*
X122625080Y-143131466D01*
X122847420Y-143136123D01*
X123066429Y-143097505D01*
X123273766Y-143017085D01*
X123395331Y-142939938D01*
X123474093Y-142994679D01*
X123677881Y-143083711D01*
X123895080Y-143131466D01*
X124117420Y-143136123D01*
X124336429Y-143097505D01*
X124543766Y-143017085D01*
X124665331Y-142939938D01*
X124744093Y-142994679D01*
X124947881Y-143083711D01*
X125165080Y-143131466D01*
X125387420Y-143136123D01*
X125606429Y-143097505D01*
X125813766Y-143017085D01*
X125935331Y-142939938D01*
X126014093Y-142994679D01*
X126217881Y-143083711D01*
X126435080Y-143131466D01*
X126657420Y-143136123D01*
X126876429Y-143097505D01*
X127083766Y-143017085D01*
X127205331Y-142939938D01*
X127284093Y-142994679D01*
X127487881Y-143083711D01*
X127705080Y-143131466D01*
X127927420Y-143136123D01*
X128146429Y-143097505D01*
X128353766Y-143017085D01*
X128475331Y-142939938D01*
X128554093Y-142994679D01*
X128757881Y-143083711D01*
X128975080Y-143131466D01*
X129197420Y-143136123D01*
X129416429Y-143097505D01*
X129623766Y-143017085D01*
X129745331Y-142939938D01*
X129824093Y-142994679D01*
X130027881Y-143083711D01*
X130245080Y-143131466D01*
X130467420Y-143136123D01*
X130686429Y-143097505D01*
X130893766Y-143017085D01*
X131015331Y-142939938D01*
X131094093Y-142994679D01*
X131297881Y-143083711D01*
X131515080Y-143131466D01*
X131737420Y-143136123D01*
X131956429Y-143097505D01*
X132163766Y-143017085D01*
X132285331Y-142939938D01*
X132364093Y-142994679D01*
X132567881Y-143083711D01*
X132785080Y-143131466D01*
X133007420Y-143136123D01*
X133226429Y-143097505D01*
X133433766Y-143017085D01*
X133555331Y-142939938D01*
X133634093Y-142994679D01*
X133837881Y-143083711D01*
X134055080Y-143131466D01*
X134277420Y-143136123D01*
X134496429Y-143097505D01*
X134703766Y-143017085D01*
X134825331Y-142939938D01*
X134904093Y-142994679D01*
X135107881Y-143083711D01*
X135325080Y-143131466D01*
X135547420Y-143136123D01*
X135766429Y-143097505D01*
X135973766Y-143017085D01*
X136089127Y-142943875D01*
X136136282Y-142968842D01*
X136190195Y-143006732D01*
X136257134Y-143032831D01*
X136320630Y-143066449D01*
X136362366Y-143076933D01*
X136377879Y-143083710D01*
X136400246Y-143088628D01*
X136446229Y-143106556D01*
X136514766Y-143115213D01*
X136586830Y-143133314D01*
X136661122Y-143133703D01*
X136663471Y-143134000D01*
X136716084Y-143134000D01*
X136817419Y-143136123D01*
X136826236Y-143134568D01*
X136861298Y-143134752D01*
X136864430Y-143134000D01*
X137444529Y-143134000D01*
X137488976Y-143141837D01*
X138516588Y-143141837D01*
X138817512Y-143061205D01*
X138993165Y-142913815D01*
X139104956Y-142720186D01*
X139141837Y-142511024D01*
X139141837Y-142095349D01*
X140094515Y-142095349D01*
X140134660Y-142314084D01*
X140216527Y-142520855D01*
X140336996Y-142707786D01*
X140491479Y-142867759D01*
X140674093Y-142994679D01*
X140877881Y-143083711D01*
X141095080Y-143131466D01*
X141317420Y-143136123D01*
X141536429Y-143097505D01*
X141674291Y-143044033D01*
X141779814Y-143104956D01*
X141988976Y-143141837D01*
X143016588Y-143141837D01*
X143317512Y-143061205D01*
X143493165Y-142913815D01*
X143604956Y-142720186D01*
X143641837Y-142511024D01*
X143641837Y-141483412D01*
X143561205Y-141182489D01*
X143413815Y-141006835D01*
X143220186Y-140895044D01*
X143011024Y-140858163D01*
X141983412Y-140858163D01*
X141682489Y-140938795D01*
X141665617Y-140952952D01*
X141566954Y-140911479D01*
X141349108Y-140866761D01*
X141126726Y-140865209D01*
X140908277Y-140906880D01*
X140702083Y-140990188D01*
X140515996Y-141111959D01*
X140357107Y-141267555D01*
X140231465Y-141451051D01*
X140143857Y-141655455D01*
X140097620Y-141872984D01*
X140094515Y-142095349D01*
X139141837Y-142095349D01*
X139141837Y-141483412D01*
X139061205Y-141182489D01*
X138913815Y-141006835D01*
X138720186Y-140895044D01*
X138511024Y-140858163D01*
X137864000Y-140858163D01*
X137864000Y-140494260D01*
X141429214Y-140494260D01*
X141643567Y-140538261D01*
X141672175Y-140547117D01*
X141884802Y-140490145D01*
X141983411Y-140477162D01*
X143011023Y-140477162D01*
X143077183Y-140482950D01*
X143286345Y-140519831D01*
X143344901Y-140541143D01*
X143749726Y-139601148D01*
X142116729Y-138897868D01*
X141429214Y-140494260D01*
X137864000Y-140494260D01*
X137864000Y-139526180D01*
X139080595Y-139526180D01*
X140713593Y-140229460D01*
X141416873Y-138596463D01*
X140491681Y-138198012D01*
X142418134Y-138198012D01*
X143984999Y-138872811D01*
X143984999Y-136936933D01*
X143121414Y-136565015D01*
X142418134Y-138198012D01*
X140491681Y-138198012D01*
X139783875Y-137893183D01*
X139080595Y-139526180D01*
X137864000Y-139526180D01*
X137864000Y-135836109D01*
X139285289Y-135836109D01*
X139307274Y-136060332D01*
X139373898Y-136275554D01*
X139482435Y-136472985D01*
X139628456Y-136644559D01*
X139805993Y-136783266D01*
X140007796Y-136883441D01*
X140225620Y-136940993D01*
X140450567Y-136953570D01*
X140673449Y-136920658D01*
X140885159Y-136843601D01*
X141077052Y-136725547D01*
X141241288Y-136571321D01*
X141371157Y-136387219D01*
X141461356Y-136180764D01*
X141508244Y-135960172D01*
X141509056Y-135727568D01*
X141463708Y-135506654D01*
X141374954Y-135299575D01*
X141246372Y-135114570D01*
X141083218Y-134959200D01*
X140892154Y-134839811D01*
X140680986Y-134761278D01*
X140458341Y-134726810D01*
X140233311Y-134737816D01*
X140015091Y-134793845D01*
X139812593Y-134892609D01*
X139634091Y-135030075D01*
X139486877Y-135200624D01*
X139376963Y-135397292D01*
X139308839Y-135612045D01*
X139285289Y-135836109D01*
X137864000Y-135836109D01*
X137864000Y-134587587D01*
X141207489Y-134587587D01*
X141285115Y-134636092D01*
X141345963Y-134683289D01*
X141509117Y-134838659D01*
X141559228Y-134897126D01*
X141687811Y-135082131D01*
X141713889Y-135129176D01*
X142722964Y-135563753D01*
X143426244Y-133930755D01*
X141793246Y-133227475D01*
X141207489Y-134587587D01*
X137864000Y-134587587D01*
X137864000Y-133855787D01*
X138757112Y-133855787D01*
X140019350Y-134399393D01*
X140138562Y-134368785D01*
X140214698Y-134357271D01*
X140439728Y-134346264D01*
X140480830Y-134348419D01*
X141093390Y-132926070D01*
X140168198Y-132527619D01*
X142094652Y-132527619D01*
X143727649Y-133230899D01*
X143985000Y-132633338D01*
X143985000Y-131405854D01*
X142797932Y-130894621D01*
X142094652Y-132527619D01*
X140168198Y-132527619D01*
X139460392Y-132222790D01*
X138757112Y-133855787D01*
X137864000Y-133855787D01*
X137864000Y-131522933D01*
X139761798Y-131522933D01*
X141394796Y-132226213D01*
X142098075Y-130593216D01*
X140465078Y-129889936D01*
X139761798Y-131522933D01*
X137864000Y-131522933D01*
X137864000Y-130869697D01*
X138244999Y-130869697D01*
X139061942Y-131221528D01*
X139765222Y-129588530D01*
X138840031Y-129190080D01*
X140766483Y-129190080D01*
X142399481Y-129893360D01*
X143102761Y-128260362D01*
X141469763Y-127557082D01*
X140766483Y-129190080D01*
X138840031Y-129190080D01*
X138244999Y-128933819D01*
X138244999Y-130869697D01*
X137864000Y-130869697D01*
X137864000Y-128185394D01*
X138433630Y-128185394D01*
X140066627Y-128888674D01*
X140769907Y-127255676D01*
X139844717Y-126857226D01*
X141771169Y-126857226D01*
X143404167Y-127560506D01*
X143985000Y-126211827D01*
X143984999Y-125874774D01*
X142474449Y-125224228D01*
X141771169Y-126857226D01*
X139844717Y-126857226D01*
X139136910Y-126552396D01*
X138433630Y-128185394D01*
X137864000Y-128185394D01*
X137864000Y-125852540D01*
X139438315Y-125852540D01*
X141071313Y-126555820D01*
X141774593Y-124922823D01*
X140849401Y-124524372D01*
X142775855Y-124524372D01*
X143984999Y-125045112D01*
X143984999Y-123109234D01*
X143479135Y-122891374D01*
X142775855Y-124524372D01*
X140849401Y-124524372D01*
X140141595Y-124219543D01*
X139438315Y-125852540D01*
X137864000Y-125852540D01*
X137864000Y-125338617D01*
X138244999Y-125338617D01*
X138738459Y-125551135D01*
X139441739Y-123918137D01*
X138516547Y-123519686D01*
X140443001Y-123519686D01*
X142075998Y-124222966D01*
X142779278Y-122589969D01*
X141146281Y-121886689D01*
X140443001Y-123519686D01*
X138516547Y-123519686D01*
X138244999Y-123402739D01*
X138244999Y-125338617D01*
X137864000Y-125338617D01*
X137864000Y-122201878D01*
X138244999Y-122201878D01*
X138244999Y-122573077D01*
X139743145Y-123218281D01*
X140446425Y-121585283D01*
X139521235Y-121186833D01*
X141447686Y-121186833D01*
X143080684Y-121890113D01*
X143783964Y-120257115D01*
X142150966Y-119553835D01*
X141447686Y-121186833D01*
X139521235Y-121186833D01*
X138813427Y-120882003D01*
X138244999Y-122201878D01*
X137864000Y-122201878D01*
X137864000Y-120182147D01*
X139114833Y-120182147D01*
X140747830Y-120885427D01*
X141451110Y-119252429D01*
X140525920Y-118853979D01*
X142452372Y-118853979D01*
X143985000Y-119514033D01*
X143985000Y-117578155D01*
X143155652Y-117220981D01*
X142452372Y-118853979D01*
X140525920Y-118853979D01*
X139818112Y-118549149D01*
X139114833Y-120182147D01*
X137864000Y-120182147D01*
X137864000Y-117849293D01*
X140119518Y-117849293D01*
X141752516Y-118552573D01*
X142455796Y-116919576D01*
X140822798Y-116216296D01*
X140119518Y-117849293D01*
X137864000Y-117849293D01*
X137864000Y-115780366D01*
X138244999Y-115780366D01*
X138244999Y-117041998D01*
X139419662Y-117547888D01*
X140122942Y-115914890D01*
X139197750Y-115516439D01*
X141124204Y-115516439D01*
X142757201Y-116219719D01*
X143460481Y-114586722D01*
X141827484Y-113883442D01*
X141124204Y-115516439D01*
X139197750Y-115516439D01*
X138489944Y-115211610D01*
X138244999Y-115780366D01*
X137864000Y-115780366D01*
X137864000Y-114511754D01*
X138791350Y-114511754D01*
X140424348Y-115215034D01*
X141127627Y-113582036D01*
X140202437Y-113183586D01*
X142128889Y-113183586D01*
X143761887Y-113886866D01*
X143985000Y-113368804D01*
X143984999Y-112047075D01*
X142832169Y-111550588D01*
X142128889Y-113183586D01*
X140202437Y-113183586D01*
X139494630Y-112878756D01*
X138791350Y-114511754D01*
X137864000Y-114511754D01*
X137864000Y-112178900D01*
X139796035Y-112178900D01*
X141429033Y-112882180D01*
X142132313Y-111249182D01*
X140499315Y-110545902D01*
X139796035Y-112178900D01*
X137864000Y-112178900D01*
X137864000Y-111510918D01*
X138244999Y-111510918D01*
X139096179Y-111877494D01*
X139799459Y-110244497D01*
X138874268Y-109846046D01*
X140800721Y-109846046D01*
X142433719Y-110549326D01*
X143136999Y-108916329D01*
X141504001Y-108213049D01*
X140800721Y-109846046D01*
X138874268Y-109846046D01*
X138244999Y-109575040D01*
X138244999Y-111510918D01*
X137864000Y-111510918D01*
X137864000Y-109141837D01*
X138516588Y-109141837D01*
X138817512Y-109061205D01*
X138993165Y-108913815D01*
X139104956Y-108720186D01*
X139141837Y-108511024D01*
X139141837Y-108461879D01*
X139234041Y-108369675D01*
X139308910Y-108304363D01*
X139370746Y-108216380D01*
X139437101Y-108131754D01*
X139449461Y-108104379D01*
X139466733Y-108079804D01*
X139505790Y-107979624D01*
X139550049Y-107881603D01*
X139555524Y-107852068D01*
X139566555Y-107823771D01*
X139578946Y-107725691D01*
X139600068Y-107611727D01*
X139594387Y-107513192D01*
X141805407Y-107513192D01*
X143438404Y-108216472D01*
X143985000Y-106947292D01*
X143985000Y-106515996D01*
X142508687Y-105880195D01*
X141805407Y-107513192D01*
X139594387Y-107513192D01*
X139594000Y-107506498D01*
X139594000Y-105341839D01*
X139974999Y-105341839D01*
X139974999Y-106724894D01*
X141105551Y-107211787D01*
X141808830Y-105578789D01*
X140883640Y-105180339D01*
X142810092Y-105180339D01*
X143985000Y-105686334D01*
X143985000Y-103750456D01*
X143513372Y-103547341D01*
X142810092Y-105180339D01*
X140883640Y-105180339D01*
X140175833Y-104875509D01*
X139974999Y-105341839D01*
X139594000Y-105341839D01*
X139594000Y-104175653D01*
X140477238Y-104175653D01*
X142110236Y-104878933D01*
X142813516Y-103245935D01*
X141180518Y-102542655D01*
X140477238Y-104175653D01*
X139594000Y-104175653D01*
X139594000Y-101842799D01*
X141481924Y-101842799D01*
X143114922Y-102546079D01*
X143818202Y-100913082D01*
X142185204Y-100209802D01*
X141481924Y-101842799D01*
X139594000Y-101842799D01*
X139594000Y-101193815D01*
X139975000Y-101193815D01*
X140782068Y-101541394D01*
X141485348Y-99908396D01*
X141402778Y-99872836D01*
X140138976Y-99872836D01*
X140072816Y-99867047D01*
X139975000Y-99849800D01*
X139975000Y-101193815D01*
X139594000Y-101193815D01*
X139594000Y-99554180D01*
X142589321Y-99554180D01*
X143985000Y-100155254D01*
X143985000Y-98219376D01*
X143189889Y-97876948D01*
X142872836Y-98613137D01*
X142872836Y-98861023D01*
X142867048Y-98927183D01*
X142830167Y-99136345D01*
X142784911Y-99260684D01*
X142673120Y-99454313D01*
X142589321Y-99554180D01*
X139594000Y-99554180D01*
X139594000Y-99173715D01*
X139736185Y-99343165D01*
X139929814Y-99454956D01*
X140138976Y-99491837D01*
X141866588Y-99491837D01*
X142167512Y-99411205D01*
X142343165Y-99263815D01*
X142454956Y-99070186D01*
X142491837Y-98861024D01*
X142491837Y-97133412D01*
X142411205Y-96832489D01*
X142263815Y-96656835D01*
X142070186Y-96545044D01*
X141861024Y-96508163D01*
X140133412Y-96508163D01*
X139832489Y-96588795D01*
X139656835Y-96736185D01*
X139545044Y-96929814D01*
X139537618Y-96971930D01*
X139349038Y-96805089D01*
X139134998Y-96672380D01*
X138901657Y-96577630D01*
X138655689Y-96523551D01*
X138404125Y-96511686D01*
X138154159Y-96542379D01*
X137912938Y-96614749D01*
X137687359Y-96726727D01*
X137496369Y-96866000D01*
X136877886Y-96866000D01*
X136809038Y-96805089D01*
X136594998Y-96672380D01*
X136361657Y-96577630D01*
X136115689Y-96523551D01*
X135864125Y-96511686D01*
X135614159Y-96542379D01*
X135372938Y-96614749D01*
X135147359Y-96726727D01*
X134943872Y-96875113D01*
X134768296Y-97055661D01*
X134625650Y-97263212D01*
X134520014Y-97491829D01*
X134454407Y-97734978D01*
X134430707Y-97985703D01*
X134448429Y-98221408D01*
X134174948Y-98494889D01*
X134151179Y-98509886D01*
X134084867Y-98584970D01*
X134060089Y-98609747D01*
X134043862Y-98631399D01*
X133983559Y-98699679D01*
X133968249Y-98732288D01*
X133946639Y-98761123D01*
X133914654Y-98846441D01*
X133875778Y-98929246D01*
X133870584Y-98964003D01*
X133857755Y-98998224D01*
X133850126Y-99100887D01*
X133846001Y-99128487D01*
X133846001Y-99156382D01*
X133838989Y-99250742D01*
X133846001Y-99283590D01*
X133846000Y-102783776D01*
X133731465Y-102951051D01*
X133643857Y-103155455D01*
X133597620Y-103372984D01*
X133594515Y-103595349D01*
X133634660Y-103814084D01*
X133716527Y-104020855D01*
X133836996Y-104207786D01*
X133991479Y-104367759D01*
X134174093Y-104494679D01*
X134377881Y-104583711D01*
X134595080Y-104631466D01*
X134817420Y-104636123D01*
X135036429Y-104597505D01*
X135174291Y-104544033D01*
X135279814Y-104604956D01*
X135488976Y-104641837D01*
X136516588Y-104641837D01*
X136817512Y-104561205D01*
X136993165Y-104413815D01*
X137104956Y-104220186D01*
X137141837Y-104011024D01*
X137141837Y-102983412D01*
X137061205Y-102682489D01*
X136913815Y-102506835D01*
X136720186Y-102395044D01*
X136511024Y-102358163D01*
X135614000Y-102358163D01*
X135614000Y-99556163D01*
X135702180Y-99467983D01*
X135835564Y-99486966D01*
X136087309Y-99479934D01*
X136334270Y-99430587D01*
X136569387Y-99340334D01*
X136785934Y-99211757D01*
X136877299Y-99134000D01*
X137326000Y-99134000D01*
X137326001Y-106866000D01*
X136742234Y-106866000D01*
X136733451Y-106865954D01*
X136626729Y-106865209D01*
X136625781Y-106865390D01*
X136598704Y-106865248D01*
X136528851Y-106882019D01*
X136457517Y-106890651D01*
X136420986Y-106904455D01*
X136408278Y-106906879D01*
X136383356Y-106916949D01*
X136331819Y-106929322D01*
X136267976Y-106962274D01*
X136200767Y-106987670D01*
X136146469Y-107024988D01*
X136087920Y-107055207D01*
X136087643Y-107055448D01*
X136001965Y-106997657D01*
X135796954Y-106911479D01*
X135579108Y-106866761D01*
X135356726Y-106865209D01*
X135138277Y-106906880D01*
X134932083Y-106990188D01*
X134824887Y-107060335D01*
X134731965Y-106997657D01*
X134526954Y-106911479D01*
X134309108Y-106866761D01*
X134086726Y-106865209D01*
X133868277Y-106906880D01*
X133662083Y-106990188D01*
X133554887Y-107060335D01*
X133461965Y-106997657D01*
X133256954Y-106911479D01*
X133039108Y-106866761D01*
X132816726Y-106865209D01*
X132598277Y-106906880D01*
X132392083Y-106990188D01*
X132284887Y-107060335D01*
X132191965Y-106997657D01*
X131986954Y-106911479D01*
X131769108Y-106866761D01*
X131546726Y-106865209D01*
X131328277Y-106906880D01*
X131122083Y-106990188D01*
X131014887Y-107060335D01*
X130921965Y-106997657D01*
X130716954Y-106911479D01*
X130499108Y-106866761D01*
X130276726Y-106865209D01*
X130058277Y-106906880D01*
X129852083Y-106990188D01*
X129744887Y-107060335D01*
X129651965Y-106997657D01*
X129446954Y-106911479D01*
X129229108Y-106866761D01*
X129006726Y-106865209D01*
X128788277Y-106906880D01*
X128582083Y-106990188D01*
X128474887Y-107060335D01*
X128381965Y-106997657D01*
X128176954Y-106911479D01*
X127959108Y-106866761D01*
X127736726Y-106865209D01*
X127518277Y-106906880D01*
X127312083Y-106990188D01*
X127204887Y-107060335D01*
X127111965Y-106997657D01*
X126906954Y-106911479D01*
X126689108Y-106866761D01*
X126466726Y-106865209D01*
X126248277Y-106906880D01*
X126042083Y-106990188D01*
X125934887Y-107060335D01*
X125841965Y-106997657D01*
X125636954Y-106911479D01*
X125419108Y-106866761D01*
X125196726Y-106865209D01*
X124978277Y-106906880D01*
X124772083Y-106990188D01*
X124664887Y-107060335D01*
X124571965Y-106997657D01*
X124366954Y-106911479D01*
X124149108Y-106866761D01*
X123926726Y-106865209D01*
X123708277Y-106906880D01*
X123502083Y-106990188D01*
X123394887Y-107060335D01*
X123301965Y-106997657D01*
X123096954Y-106911479D01*
X122879108Y-106866761D01*
X122656726Y-106865209D01*
X122438277Y-106906880D01*
X122374000Y-106932850D01*
X122374000Y-106150787D01*
X125798913Y-106150787D01*
X126574838Y-106484953D01*
X126691767Y-106485769D01*
X126765719Y-106493542D01*
X126983565Y-106538260D01*
X127054594Y-106560248D01*
X127203857Y-106622991D01*
X127375550Y-106553622D01*
X127446884Y-106532628D01*
X127581394Y-106506969D01*
X127582355Y-106504737D01*
X133943097Y-106504737D01*
X134015334Y-106490957D01*
X134089383Y-106484218D01*
X134311765Y-106485769D01*
X134385718Y-106493542D01*
X134603565Y-106538260D01*
X134674596Y-106560248D01*
X134823857Y-106622992D01*
X134995551Y-106553622D01*
X135066884Y-106532627D01*
X135285332Y-106490956D01*
X135359384Y-106484217D01*
X135581766Y-106485769D01*
X135655719Y-106493542D01*
X135865271Y-106536557D01*
X136138437Y-105902272D01*
X134505440Y-105198992D01*
X133943097Y-106504737D01*
X127582355Y-106504737D01*
X127874103Y-105827304D01*
X131469306Y-105827304D01*
X132997528Y-106485460D01*
X133041768Y-106485769D01*
X133115719Y-106493543D01*
X133118050Y-106494021D01*
X133805583Y-104897586D01*
X132172586Y-104194306D01*
X131469306Y-105827304D01*
X127874103Y-105827304D01*
X128135190Y-105221069D01*
X127209998Y-104822618D01*
X129136452Y-104822618D01*
X130769450Y-105525898D01*
X131472730Y-103892901D01*
X129839732Y-103189621D01*
X129136452Y-104822618D01*
X127209998Y-104822618D01*
X126502193Y-104517789D01*
X125798913Y-106150787D01*
X122374000Y-106150787D01*
X122374000Y-105146101D01*
X123466059Y-105146101D01*
X125099057Y-105849381D01*
X125802336Y-104216383D01*
X124877146Y-103817933D01*
X126803598Y-103817933D01*
X128436596Y-104521213D01*
X129139876Y-102888215D01*
X128214686Y-102489765D01*
X130141138Y-102489765D01*
X131774135Y-103193044D01*
X132477415Y-101560047D01*
X130844418Y-100856767D01*
X130141138Y-102489765D01*
X128214686Y-102489765D01*
X127506878Y-102184935D01*
X126803598Y-103817933D01*
X124877146Y-103817933D01*
X124169339Y-103513103D01*
X123466059Y-105146101D01*
X122374000Y-105146101D01*
X122374000Y-102813247D01*
X124470744Y-102813247D01*
X126103742Y-103516527D01*
X126807022Y-101883529D01*
X125881831Y-101485079D01*
X127808284Y-101485079D01*
X129441281Y-102188359D01*
X130144561Y-100555361D01*
X129219371Y-100156911D01*
X131145823Y-100156911D01*
X132778821Y-100860191D01*
X133462464Y-99272790D01*
X133459035Y-99222504D01*
X133459413Y-99217422D01*
X131849103Y-98523913D01*
X131145823Y-100156911D01*
X129219371Y-100156911D01*
X128511564Y-99852081D01*
X127808284Y-101485079D01*
X125881831Y-101485079D01*
X125174024Y-101180250D01*
X124470744Y-102813247D01*
X122374000Y-102813247D01*
X122374000Y-102416163D01*
X124309770Y-100480393D01*
X125475430Y-100480393D01*
X127108428Y-101183673D01*
X127692031Y-99828561D01*
X127629762Y-99814242D01*
X127389975Y-99737255D01*
X127330519Y-99712445D01*
X127107131Y-99596156D01*
X127052706Y-99561683D01*
X126955354Y-99487789D01*
X128207999Y-99487789D01*
X128494270Y-99430587D01*
X128630338Y-99378355D01*
X129338036Y-99378355D01*
X130445967Y-99855505D01*
X131149247Y-98222507D01*
X130224056Y-97824057D01*
X132150509Y-97824057D01*
X133675950Y-98481016D01*
X133697986Y-98447469D01*
X133748157Y-98390662D01*
X133755206Y-98381255D01*
X133790685Y-98340335D01*
X133807108Y-98323911D01*
X133865606Y-98257675D01*
X133917563Y-98213457D01*
X133919533Y-98211488D01*
X134056792Y-97892775D01*
X134075097Y-97699122D01*
X134086561Y-97635724D01*
X134152168Y-97392575D01*
X134174150Y-97332017D01*
X134279787Y-97103399D01*
X134311657Y-97047411D01*
X134432830Y-96871102D01*
X132853789Y-96191059D01*
X132150509Y-97824057D01*
X130224056Y-97824057D01*
X129919591Y-97692934D01*
X129939226Y-97807805D01*
X129917732Y-97999434D01*
X129939456Y-98050738D01*
X129940624Y-98199392D01*
X129888399Y-98473162D01*
X129871018Y-98535201D01*
X129782819Y-98771096D01*
X129755238Y-98829315D01*
X129628556Y-99046976D01*
X129591557Y-99099717D01*
X129430013Y-99292923D01*
X129384654Y-99338680D01*
X129338036Y-99378355D01*
X128630338Y-99378355D01*
X128729387Y-99340334D01*
X128945934Y-99211757D01*
X129137723Y-99048533D01*
X129299268Y-98855327D01*
X129425949Y-98637666D01*
X129514148Y-98401771D01*
X129566373Y-98128000D01*
X128208000Y-98127999D01*
X128207999Y-99487789D01*
X126955354Y-99487789D01*
X126852105Y-99409419D01*
X126808134Y-99369759D01*
X126652865Y-99501903D01*
X126600451Y-99539358D01*
X126383904Y-99667936D01*
X126325925Y-99696027D01*
X126090808Y-99786280D01*
X126028924Y-99804200D01*
X125781962Y-99853547D01*
X125743521Y-99857893D01*
X125475430Y-100480393D01*
X124309770Y-100480393D01*
X125322180Y-99467983D01*
X125455564Y-99486966D01*
X125707309Y-99479934D01*
X125954270Y-99430587D01*
X126189387Y-99340334D01*
X126405934Y-99211757D01*
X126597723Y-99048533D01*
X126759268Y-98855327D01*
X126809486Y-98769043D01*
X126910378Y-98922055D01*
X127082457Y-99105942D01*
X127283058Y-99258206D01*
X127506446Y-99374494D01*
X127746233Y-99451482D01*
X127952000Y-99480765D01*
X127952001Y-98127999D01*
X127952000Y-98127999D01*
X127952000Y-97872000D01*
X128207999Y-97872000D01*
X129563674Y-97872001D01*
X129521596Y-97625835D01*
X129437944Y-97388291D01*
X129315463Y-97168237D01*
X129157658Y-96971966D01*
X128985181Y-96819371D01*
X129817655Y-96819371D01*
X131450653Y-97522651D01*
X132099950Y-96015000D01*
X130164072Y-96015000D01*
X129817655Y-96819371D01*
X128985181Y-96819371D01*
X128969038Y-96805089D01*
X128754998Y-96672380D01*
X128521658Y-96577630D01*
X128208000Y-96508667D01*
X128207999Y-97872000D01*
X127952000Y-97872000D01*
X127952001Y-96520543D01*
X127774159Y-96542379D01*
X127532938Y-96614749D01*
X127307359Y-96726727D01*
X127103872Y-96875113D01*
X126928296Y-97055661D01*
X126809230Y-97228903D01*
X126775463Y-97168237D01*
X126617658Y-96971966D01*
X126429038Y-96805089D01*
X126214998Y-96672380D01*
X125981657Y-96577630D01*
X125735689Y-96523551D01*
X125484125Y-96511686D01*
X125234159Y-96542379D01*
X124992938Y-96614749D01*
X124767359Y-96726727D01*
X124563872Y-96875113D01*
X124453137Y-96988983D01*
X124411205Y-96832489D01*
X124263815Y-96656835D01*
X124070186Y-96545044D01*
X123861024Y-96508163D01*
X122133412Y-96508163D01*
X121832489Y-96588795D01*
X121656835Y-96736185D01*
X121545044Y-96929814D01*
X121508163Y-97138976D01*
X121508163Y-97201553D01*
X121480354Y-97211592D01*
X121452102Y-97232498D01*
X121418836Y-97247622D01*
X121340850Y-97314819D01*
X121318413Y-97331422D01*
X121298684Y-97351152D01*
X121227008Y-97412912D01*
X121208741Y-97441095D01*
X119664950Y-98984887D01*
X119641177Y-98999886D01*
X119574860Y-99074977D01*
X119550089Y-99099747D01*
X119533860Y-99121400D01*
X119473557Y-99189681D01*
X119458248Y-99222290D01*
X119436639Y-99251122D01*
X119404658Y-99336433D01*
X119365778Y-99419245D01*
X119360582Y-99454007D01*
X119347755Y-99488225D01*
X119340125Y-99590886D01*
X119336000Y-99618488D01*
X119336000Y-99646395D01*
X119328989Y-99740742D01*
X119336000Y-99773586D01*
X119336000Y-102625836D01*
X117469037Y-100758874D01*
X117481453Y-100693790D01*
X117484132Y-100414679D01*
X117441596Y-100165835D01*
X117357944Y-99928291D01*
X117235463Y-99708237D01*
X117113482Y-99556522D01*
X117587059Y-99556522D01*
X117690850Y-99742995D01*
X117717312Y-99801738D01*
X117760076Y-99923177D01*
X118955000Y-100437792D01*
X118955000Y-99799983D01*
X118949036Y-99712509D01*
X118955000Y-99632255D01*
X118955000Y-99618482D01*
X118959184Y-99562171D01*
X118961220Y-99548550D01*
X118967802Y-99459986D01*
X118988583Y-99365466D01*
X118988964Y-99362914D01*
X118989622Y-99360739D01*
X118990996Y-99354490D01*
X118993666Y-99347368D01*
X119020897Y-99257325D01*
X119053271Y-99188369D01*
X119079881Y-99117384D01*
X119127020Y-99031287D01*
X119128671Y-99027768D01*
X119130322Y-99025256D01*
X119131766Y-99022617D01*
X119134101Y-99019502D01*
X119187983Y-98937472D01*
X119238163Y-98880653D01*
X119245209Y-98871252D01*
X119280695Y-98830324D01*
X119297109Y-98813912D01*
X119355599Y-98747681D01*
X119407559Y-98703461D01*
X119412202Y-98698817D01*
X118175463Y-98166193D01*
X117871972Y-98870890D01*
X117867047Y-98927183D01*
X117830166Y-99136345D01*
X117784911Y-99260684D01*
X117673120Y-99454313D01*
X117588067Y-99555676D01*
X117587059Y-99556522D01*
X117113482Y-99556522D01*
X117077658Y-99511966D01*
X117011130Y-99453107D01*
X117167512Y-99411205D01*
X117343165Y-99263815D01*
X117454956Y-99070186D01*
X117491837Y-98861024D01*
X117491837Y-98128000D01*
X114508163Y-98128000D01*
X114508163Y-98866588D01*
X114588795Y-99167512D01*
X114736185Y-99343165D01*
X114929814Y-99454956D01*
X114977030Y-99463281D01*
X114848296Y-99595661D01*
X114705650Y-99803212D01*
X114600014Y-100031829D01*
X114534407Y-100274978D01*
X114510707Y-100525703D01*
X114529589Y-100776837D01*
X114590516Y-101021201D01*
X114691744Y-101251804D01*
X114830378Y-101462055D01*
X115002457Y-101645942D01*
X115203058Y-101798206D01*
X115426446Y-101914494D01*
X115666233Y-101991482D01*
X115915564Y-102026966D01*
X116167309Y-102019934D01*
X116219368Y-102009531D01*
X118066001Y-103856165D01*
X118066000Y-106932096D01*
X118016954Y-106911479D01*
X117799108Y-106866761D01*
X117576726Y-106865209D01*
X117358277Y-106906880D01*
X117152083Y-106990188D01*
X117044887Y-107060335D01*
X116951965Y-106997657D01*
X116746954Y-106911479D01*
X116529108Y-106866761D01*
X116306726Y-106865209D01*
X116088277Y-106906880D01*
X115882083Y-106990188D01*
X115774887Y-107060335D01*
X115681965Y-106997657D01*
X115476954Y-106911479D01*
X115259108Y-106866761D01*
X115036726Y-106865209D01*
X114818277Y-106906880D01*
X114612083Y-106990188D01*
X114504887Y-107060335D01*
X114411965Y-106997657D01*
X114206954Y-106911479D01*
X113989108Y-106866761D01*
X113766726Y-106865209D01*
X113548277Y-106906880D01*
X113342083Y-106990188D01*
X113234887Y-107060335D01*
X113141965Y-106997657D01*
X112936954Y-106911479D01*
X112719108Y-106866761D01*
X112496726Y-106865209D01*
X112278277Y-106906880D01*
X112072083Y-106990188D01*
X111964887Y-107060335D01*
X111871965Y-106997657D01*
X111666954Y-106911479D01*
X111449108Y-106866761D01*
X111226726Y-106865209D01*
X111008277Y-106906880D01*
X110802083Y-106990188D01*
X110615996Y-107111959D01*
X110457107Y-107267555D01*
X110331465Y-107451051D01*
X110243857Y-107655455D01*
X110197620Y-107872984D01*
X110194515Y-108095349D01*
X110234660Y-108314084D01*
X110316527Y-108520855D01*
X110436996Y-108707786D01*
X110591479Y-108867759D01*
X110774093Y-108994679D01*
X110977881Y-109083711D01*
X111195080Y-109131466D01*
X111417420Y-109136123D01*
X111636429Y-109097505D01*
X111843766Y-109017085D01*
X111965331Y-108939938D01*
X112044093Y-108994679D01*
X112247881Y-109083711D01*
X112465080Y-109131466D01*
X112687420Y-109136123D01*
X112906429Y-109097505D01*
X113113766Y-109017085D01*
X113235331Y-108939938D01*
X113314093Y-108994679D01*
X113517881Y-109083711D01*
X113735080Y-109131466D01*
X113957420Y-109136123D01*
X114176429Y-109097505D01*
X114383766Y-109017085D01*
X114505331Y-108939938D01*
X114584093Y-108994679D01*
X114787881Y-109083711D01*
X115005080Y-109131466D01*
X115227420Y-109136123D01*
X115446429Y-109097505D01*
X115653766Y-109017085D01*
X115775331Y-108939938D01*
X115854093Y-108994679D01*
X116057881Y-109083711D01*
X116275080Y-109131466D01*
X116497420Y-109136123D01*
X116716429Y-109097505D01*
X116923766Y-109017085D01*
X117045331Y-108939938D01*
X117124093Y-108994679D01*
X117327881Y-109083711D01*
X117545080Y-109131466D01*
X117767420Y-109136123D01*
X117986429Y-109097505D01*
X118193766Y-109017085D01*
X118315331Y-108939938D01*
X118394093Y-108994679D01*
X118597881Y-109083711D01*
X118815080Y-109131466D01*
X119037420Y-109136123D01*
X119256429Y-109097505D01*
X119463766Y-109017085D01*
X119585331Y-108939938D01*
X119664093Y-108994679D01*
X119867881Y-109083711D01*
X120085080Y-109131466D01*
X120307420Y-109136123D01*
X120526429Y-109097505D01*
X120733766Y-109017085D01*
X120855331Y-108939938D01*
X120934093Y-108994679D01*
X121137881Y-109083711D01*
X121355080Y-109131466D01*
X121577420Y-109136123D01*
X121796429Y-109097505D01*
X122003766Y-109017085D01*
X122125331Y-108939938D01*
X122204093Y-108994679D01*
X122404645Y-109082297D01*
X121370943Y-110116000D01*
X115599031Y-110116000D01*
X115571624Y-110109798D01*
X115471662Y-110116000D01*
X115436600Y-110116000D01*
X115409808Y-110119837D01*
X115318894Y-110125477D01*
X115285013Y-110137709D01*
X115249343Y-110142818D01*
X115166398Y-110180529D01*
X115080354Y-110211592D01*
X115052102Y-110232498D01*
X115018836Y-110247622D01*
X114940850Y-110314819D01*
X114918413Y-110331422D01*
X114898684Y-110351152D01*
X114827008Y-110412912D01*
X114808741Y-110441095D01*
X107343837Y-117906000D01*
X103693463Y-117906000D01*
X103577658Y-117761966D01*
X103511130Y-117703107D01*
X103667512Y-117661205D01*
X103843165Y-117513815D01*
X103954956Y-117320186D01*
X103991837Y-117111024D01*
X103991837Y-116452650D01*
X104768991Y-116452650D01*
X106401988Y-117155930D01*
X107105268Y-115522932D01*
X106180078Y-115124482D01*
X108106530Y-115124482D01*
X109141017Y-115570002D01*
X110387249Y-114323770D01*
X110442808Y-114194764D01*
X108809810Y-113491484D01*
X108106530Y-115124482D01*
X106180078Y-115124482D01*
X105472271Y-114819652D01*
X104768991Y-116452650D01*
X103991837Y-116452650D01*
X103991837Y-116378000D01*
X101008163Y-116378000D01*
X100634000Y-116378000D01*
X100634000Y-115388976D01*
X101008163Y-115388976D01*
X101008163Y-116122000D01*
X102372000Y-116122000D01*
X102372000Y-114758163D01*
X102628000Y-114758163D01*
X102628000Y-116122000D01*
X103991837Y-116122000D01*
X103991837Y-115383412D01*
X103911205Y-115082489D01*
X103763815Y-114906835D01*
X103570186Y-114795044D01*
X103361024Y-114758163D01*
X102628000Y-114758163D01*
X102372000Y-114758163D01*
X101633412Y-114758163D01*
X101332489Y-114838795D01*
X101156835Y-114986185D01*
X101045044Y-115179814D01*
X101008163Y-115388976D01*
X100634000Y-115388976D01*
X100634000Y-114119796D01*
X105773676Y-114119796D01*
X107406674Y-114823076D01*
X108109954Y-113190078D01*
X107184764Y-112791628D01*
X109111216Y-112791628D01*
X110744213Y-113494908D01*
X111447493Y-111861910D01*
X110522303Y-111463460D01*
X112448755Y-111463460D01*
X113007099Y-111703920D01*
X114360227Y-110350792D01*
X113152035Y-109830462D01*
X112448755Y-111463460D01*
X110522303Y-111463460D01*
X109814496Y-111158630D01*
X109111216Y-112791628D01*
X107184764Y-112791628D01*
X106476956Y-112486798D01*
X105773676Y-114119796D01*
X100634000Y-114119796D01*
X100634000Y-113115110D01*
X103440823Y-113115110D01*
X105073820Y-113818390D01*
X105777100Y-112185393D01*
X104851908Y-111786942D01*
X106778362Y-111786942D01*
X108411360Y-112490222D01*
X109114639Y-110857224D01*
X108189448Y-110458774D01*
X110115901Y-110458774D01*
X111748899Y-111162054D01*
X112452179Y-109529056D01*
X112396750Y-109505185D01*
X112383265Y-109503577D01*
X112166066Y-109455822D01*
X112095348Y-109432845D01*
X111968417Y-109377391D01*
X111774206Y-109452720D01*
X111702588Y-109472715D01*
X111483580Y-109511333D01*
X111409442Y-109517038D01*
X111187102Y-109512382D01*
X111113263Y-109503577D01*
X110896064Y-109455821D01*
X110825350Y-109432845D01*
X110621561Y-109343813D01*
X110601023Y-109332334D01*
X110115901Y-110458774D01*
X108189448Y-110458774D01*
X107481642Y-110153945D01*
X106778362Y-111786942D01*
X104851908Y-111786942D01*
X104372836Y-111580621D01*
X104372836Y-111611022D01*
X104367048Y-111677182D01*
X104330167Y-111886344D01*
X104284911Y-112010683D01*
X104173120Y-112204313D01*
X104088065Y-112305677D01*
X103912413Y-112453067D01*
X103766122Y-112529222D01*
X103683627Y-112551326D01*
X103440823Y-113115110D01*
X100634000Y-113115110D01*
X100634000Y-111616588D01*
X101008163Y-111616588D01*
X101088795Y-111917512D01*
X101236185Y-112093165D01*
X101429814Y-112204956D01*
X101638976Y-112241837D01*
X102372000Y-112241837D01*
X102627999Y-112241837D01*
X103366588Y-112241837D01*
X103667512Y-112161205D01*
X103843165Y-112013815D01*
X103954956Y-111820186D01*
X103991837Y-111611024D01*
X103991837Y-110878000D01*
X102628000Y-110877999D01*
X102627999Y-112241837D01*
X102372000Y-112241837D01*
X102372001Y-110878000D01*
X101008163Y-110877999D01*
X101008163Y-111616588D01*
X100634000Y-111616588D01*
X100634000Y-110782257D01*
X104445508Y-110782257D01*
X106078506Y-111485537D01*
X106781786Y-109852539D01*
X105856594Y-109454088D01*
X107783047Y-109454088D01*
X109416045Y-110157368D01*
X110017660Y-108760434D01*
X109996270Y-108727245D01*
X109962282Y-108661111D01*
X109880415Y-108454339D01*
X109869665Y-108416850D01*
X108486327Y-107821091D01*
X107783047Y-109454088D01*
X105856594Y-109454088D01*
X105148788Y-109149259D01*
X104445508Y-110782257D01*
X100634000Y-110782257D01*
X100634000Y-108337999D01*
X101002454Y-108337999D01*
X101090516Y-108691201D01*
X101191744Y-108921804D01*
X101330378Y-109132055D01*
X101485481Y-109297801D01*
X101332489Y-109338795D01*
X101156835Y-109486185D01*
X101045044Y-109679814D01*
X101008163Y-109888976D01*
X101008163Y-110622000D01*
X102372001Y-110622001D01*
X102372001Y-110622000D01*
X103991837Y-110622001D01*
X103991837Y-109883412D01*
X103911205Y-109582489D01*
X103763815Y-109406835D01*
X103570186Y-109295044D01*
X103524324Y-109286957D01*
X103557723Y-109258533D01*
X103719268Y-109065327D01*
X103845949Y-108847666D01*
X103934148Y-108611771D01*
X103965121Y-108449403D01*
X105450194Y-108449403D01*
X107083191Y-109152683D01*
X107786471Y-107519685D01*
X106861281Y-107121235D01*
X108787733Y-107121235D01*
X109868923Y-107586868D01*
X109871182Y-107576239D01*
X109893666Y-107505362D01*
X109981274Y-107300958D01*
X110017096Y-107235798D01*
X110142739Y-107052301D01*
X110190535Y-106995340D01*
X110349423Y-106839744D01*
X110407374Y-106793150D01*
X110593461Y-106671379D01*
X110659356Y-106636930D01*
X110729611Y-106608545D01*
X114539612Y-106608545D01*
X114675549Y-106553622D01*
X114746884Y-106532627D01*
X114965334Y-106490956D01*
X115039386Y-106484217D01*
X115261767Y-106485769D01*
X115335719Y-106493542D01*
X115553565Y-106538260D01*
X115624595Y-106560248D01*
X115773857Y-106622991D01*
X115945550Y-106553622D01*
X116016884Y-106532628D01*
X116235333Y-106490957D01*
X116309384Y-106484218D01*
X116528375Y-106485746D01*
X116794404Y-105868034D01*
X115161406Y-105164754D01*
X114539612Y-106608545D01*
X110729611Y-106608545D01*
X110865550Y-106553622D01*
X110936884Y-106532628D01*
X110980705Y-106524268D01*
X111124011Y-106191517D01*
X110198819Y-105793066D01*
X112125272Y-105793066D01*
X113736958Y-106487168D01*
X113763254Y-106484775D01*
X114461550Y-104863349D01*
X113536358Y-104464898D01*
X115462812Y-104464898D01*
X117095809Y-105168178D01*
X117620615Y-103949593D01*
X116757716Y-103086694D01*
X116166092Y-102831900D01*
X115462812Y-104464898D01*
X113536358Y-104464898D01*
X112828552Y-104160069D01*
X112125272Y-105793066D01*
X110198819Y-105793066D01*
X109491013Y-105488237D01*
X108787733Y-107121235D01*
X106861281Y-107121235D01*
X106153474Y-106816405D01*
X105450194Y-108449403D01*
X103965121Y-108449403D01*
X103986373Y-108338000D01*
X102627999Y-108337999D01*
X102627999Y-108338000D01*
X101002454Y-108337999D01*
X100634000Y-108337999D01*
X100634000Y-108082000D01*
X100997436Y-108082000D01*
X102372001Y-108082001D01*
X102372001Y-108082000D01*
X103983674Y-108082001D01*
X103941596Y-107835835D01*
X103857944Y-107598291D01*
X103735463Y-107378237D01*
X103577658Y-107181966D01*
X103389038Y-107015089D01*
X103267887Y-106939973D01*
X103270029Y-106938701D01*
X103870266Y-106938701D01*
X103874585Y-106943229D01*
X104032391Y-107139500D01*
X104068369Y-107192942D01*
X104190850Y-107412996D01*
X104217310Y-107471736D01*
X104300963Y-107709280D01*
X104317149Y-107771640D01*
X104352169Y-107976519D01*
X104750338Y-108147997D01*
X105453617Y-106514999D01*
X104528427Y-106116549D01*
X106454879Y-106116549D01*
X108087877Y-106819829D01*
X108791157Y-105186831D01*
X107865967Y-104788381D01*
X109792419Y-104788381D01*
X111425416Y-105491661D01*
X112128696Y-103858663D01*
X111203506Y-103460213D01*
X113129958Y-103460213D01*
X114762956Y-104163492D01*
X115466236Y-102530495D01*
X113833238Y-101827215D01*
X113129958Y-103460213D01*
X111203506Y-103460213D01*
X110495699Y-103155383D01*
X109792419Y-104788381D01*
X107865967Y-104788381D01*
X107158159Y-104483551D01*
X106454879Y-106116549D01*
X104528427Y-106116549D01*
X104329795Y-106031005D01*
X104308399Y-106143163D01*
X104291018Y-106205202D01*
X104202819Y-106441097D01*
X104175238Y-106499315D01*
X104048557Y-106716976D01*
X104011557Y-106769719D01*
X103870266Y-106938701D01*
X103270029Y-106938701D01*
X103365934Y-106881757D01*
X103557723Y-106718533D01*
X103719268Y-106525327D01*
X103845949Y-106307666D01*
X103934148Y-106071771D01*
X103981453Y-105823789D01*
X103984132Y-105544679D01*
X103941596Y-105295835D01*
X103857944Y-105058291D01*
X103776318Y-104911637D01*
X104208257Y-104911637D01*
X104217311Y-104931737D01*
X104300963Y-105169281D01*
X104306704Y-105191399D01*
X105755023Y-105815143D01*
X106458303Y-104182146D01*
X105533111Y-103783695D01*
X107459565Y-103783695D01*
X109092562Y-104486975D01*
X109795842Y-102853977D01*
X108870651Y-102455527D01*
X110797104Y-102455527D01*
X112430102Y-103158807D01*
X113133382Y-101525809D01*
X111500384Y-100822529D01*
X110797104Y-102455527D01*
X108870651Y-102455527D01*
X108162845Y-102150698D01*
X107459565Y-103783695D01*
X105533111Y-103783695D01*
X104825305Y-103478866D01*
X104208257Y-104911637D01*
X103776318Y-104911637D01*
X103735463Y-104838237D01*
X103577658Y-104641966D01*
X103389038Y-104475089D01*
X103174998Y-104342380D01*
X102941657Y-104247630D01*
X102695689Y-104193551D01*
X102444125Y-104181686D01*
X102194159Y-104212379D01*
X101952938Y-104284749D01*
X101727359Y-104396727D01*
X101523872Y-104545113D01*
X101348296Y-104725661D01*
X101205650Y-104933212D01*
X101100014Y-105161829D01*
X101034407Y-105404978D01*
X101010707Y-105655703D01*
X101029589Y-105906837D01*
X101090516Y-106151201D01*
X101191744Y-106381804D01*
X101330378Y-106592055D01*
X101502457Y-106775942D01*
X101703058Y-106928206D01*
X101724055Y-106939136D01*
X101523872Y-107085113D01*
X101348296Y-107265661D01*
X101205650Y-107473212D01*
X101100014Y-107701829D01*
X100997436Y-108082000D01*
X100634000Y-108082000D01*
X100634000Y-103910719D01*
X101873780Y-103910719D01*
X102084674Y-103847448D01*
X102147724Y-103834218D01*
X102397690Y-103803525D01*
X102462074Y-103801108D01*
X102713638Y-103812973D01*
X102777503Y-103821438D01*
X103023470Y-103875517D01*
X103084996Y-103894622D01*
X103318338Y-103989371D01*
X103375766Y-104018569D01*
X103589806Y-104151278D01*
X103641496Y-104189736D01*
X103676252Y-104220485D01*
X104125449Y-103177460D01*
X103200259Y-102779010D01*
X105126711Y-102779010D01*
X106759709Y-103482290D01*
X107462989Y-101849292D01*
X106537797Y-101450841D01*
X108464250Y-101450841D01*
X110097248Y-102154121D01*
X110800528Y-100521124D01*
X109875336Y-100122673D01*
X111801790Y-100122673D01*
X113434787Y-100825953D01*
X114138067Y-99192955D01*
X112505070Y-98489676D01*
X111801790Y-100122673D01*
X109875336Y-100122673D01*
X109167530Y-99817844D01*
X108464250Y-101450841D01*
X106537797Y-101450841D01*
X105829991Y-101146012D01*
X105126711Y-102779010D01*
X103200259Y-102779010D01*
X102492452Y-102474180D01*
X101873780Y-103910719D01*
X100634000Y-103910719D01*
X100634000Y-101774324D01*
X102793857Y-101774324D01*
X104426855Y-102477604D01*
X105130135Y-100844606D01*
X104204945Y-100446156D01*
X106131397Y-100446156D01*
X107764394Y-101149436D01*
X108467674Y-99516438D01*
X107542484Y-99117988D01*
X109468936Y-99117988D01*
X111101934Y-99821268D01*
X111805214Y-98188270D01*
X110880022Y-97789819D01*
X112806475Y-97789819D01*
X114127163Y-98358597D01*
X114127163Y-98127999D01*
X114152623Y-98000000D01*
X114127162Y-97871999D01*
X114127163Y-97138976D01*
X114508163Y-97138976D01*
X114508163Y-97872000D01*
X115872000Y-97872000D01*
X115872000Y-96508163D01*
X116128000Y-96508163D01*
X116128000Y-97872000D01*
X117491837Y-97872000D01*
X117491837Y-97466337D01*
X118476869Y-97466337D01*
X119992115Y-98118905D01*
X120237300Y-97873720D01*
X120813146Y-96536619D01*
X119601959Y-96014999D01*
X119101913Y-96014999D01*
X118476869Y-97466337D01*
X117491837Y-97466337D01*
X117491837Y-97133412D01*
X117411205Y-96832489D01*
X117263815Y-96656835D01*
X117070186Y-96545044D01*
X116861024Y-96508163D01*
X116128000Y-96508163D01*
X115872000Y-96508163D01*
X115133412Y-96508163D01*
X114832489Y-96588795D01*
X114656835Y-96736185D01*
X114545044Y-96929814D01*
X114508163Y-97138976D01*
X114127163Y-97138976D01*
X114132951Y-97072816D01*
X114169832Y-96863653D01*
X114215088Y-96739313D01*
X114326879Y-96545684D01*
X114349656Y-96518540D01*
X113509755Y-96156822D01*
X112806475Y-97789819D01*
X110880022Y-97789819D01*
X110172216Y-97484990D01*
X109468936Y-99117988D01*
X107542484Y-99117988D01*
X106834677Y-98813158D01*
X106131397Y-100446156D01*
X104204945Y-100446156D01*
X103497137Y-100141326D01*
X102793857Y-101774324D01*
X100634000Y-101774324D01*
X100634000Y-99483274D01*
X101014999Y-99483274D01*
X101014999Y-101008227D01*
X102094001Y-101472918D01*
X102797281Y-99839921D01*
X101872089Y-99441470D01*
X103798543Y-99441470D01*
X105431540Y-100144750D01*
X106134820Y-98511752D01*
X105209629Y-98113302D01*
X107136082Y-98113302D01*
X108769080Y-98816582D01*
X109472360Y-97183584D01*
X108547170Y-96785134D01*
X110473622Y-96785134D01*
X112106619Y-97488414D01*
X112741172Y-96014999D01*
X110805294Y-96014999D01*
X110473622Y-96785134D01*
X108547170Y-96785134D01*
X107839362Y-96480304D01*
X107136082Y-98113302D01*
X105209629Y-98113302D01*
X104501823Y-97808473D01*
X103798543Y-99441470D01*
X101872089Y-99441470D01*
X101164283Y-99136641D01*
X101014999Y-99483274D01*
X100634000Y-99483274D01*
X100634000Y-98436785D01*
X101465689Y-98436785D01*
X103098687Y-99140065D01*
X103801967Y-97507067D01*
X102876775Y-97108616D01*
X104803228Y-97108616D01*
X106436226Y-97811896D01*
X107139506Y-96178899D01*
X106758935Y-96014999D01*
X105274214Y-96014999D01*
X104803228Y-97108616D01*
X102876775Y-97108616D01*
X102168969Y-96803787D01*
X101465689Y-98436785D01*
X100634000Y-98436785D01*
X100634000Y-97071862D01*
X100636375Y-97061493D01*
X100637601Y-97045520D01*
X100654383Y-96808501D01*
X100694794Y-96620797D01*
X100761244Y-96440676D01*
X100852410Y-96271715D01*
X100966470Y-96117291D01*
X101101156Y-95980472D01*
X101253781Y-95863990D01*
X101421294Y-95770180D01*
X101600345Y-95700910D01*
X101787379Y-95657558D01*
X101998723Y-95639253D01*
X102013999Y-95639134D01*
X102047943Y-95634000D01*
X142928138Y-95634000D01*
X142938507Y-95636375D01*
M02*
