G04 #@! TF.GenerationSoftware,KiCad,Pcbnew,5.99.0-unknown-f1fcf3f~86~ubuntu18.04.1*
G04 #@! TF.CreationDate,2020-01-20T18:37:52-05:00*
G04 #@! TF.ProjectId,module_benchmark_extension_board,6d6f6475-6c65-45f6-9265-6e63686d6172,rev?*
G04 #@! TF.SameCoordinates,Original*
G04 #@! TF.FileFunction,Paste,Top*
G04 #@! TF.FilePolarity,Positive*
%FSLAX46Y46*%
G04 Gerber Fmt 4.6, Leading zero omitted, Abs format (unit mm)*
G04 Created by KiCad (PCBNEW 5.99.0-unknown-f1fcf3f~86~ubuntu18.04.1) date 2020-01-20 18:37:52*
%MOMM*%
%LPD*%
G04 APERTURE LIST*
%ADD10R,0.650000X0.460000*%
%ADD11R,1.100000X0.900000*%
%ADD12R,3.290000X1.000000*%
%ADD13R,1.200000X1.000000*%
G04 APERTURE END LIST*
G36*
X107839962Y-142291651D02*
G01*
X107910930Y-142339070D01*
X107958349Y-142410038D01*
X107975000Y-142493750D01*
X107975000Y-143006250D01*
X107958349Y-143089962D01*
X107910930Y-143160930D01*
X107839962Y-143208349D01*
X107756250Y-143225000D01*
X107318750Y-143225000D01*
X107235038Y-143208349D01*
X107164070Y-143160930D01*
X107116651Y-143089962D01*
X107100000Y-143006250D01*
X107100000Y-142493750D01*
X107116651Y-142410038D01*
X107164070Y-142339070D01*
X107235038Y-142291651D01*
X107318750Y-142275000D01*
X107756250Y-142275000D01*
X107839962Y-142291651D01*
G37*
G36*
X106264962Y-142291651D02*
G01*
X106335930Y-142339070D01*
X106383349Y-142410038D01*
X106400000Y-142493750D01*
X106400000Y-143006250D01*
X106383349Y-143089962D01*
X106335930Y-143160930D01*
X106264962Y-143208349D01*
X106181250Y-143225000D01*
X105743750Y-143225000D01*
X105660038Y-143208349D01*
X105589070Y-143160930D01*
X105541651Y-143089962D01*
X105525000Y-143006250D01*
X105525000Y-142493750D01*
X105541651Y-142410038D01*
X105589070Y-142339070D01*
X105660038Y-142291651D01*
X105743750Y-142275000D01*
X106181250Y-142275000D01*
X106264962Y-142291651D01*
G37*
G36*
X138514962Y-103041651D02*
G01*
X138585930Y-103089070D01*
X138633349Y-103160038D01*
X138650000Y-103243750D01*
X138650000Y-103756250D01*
X138633349Y-103839962D01*
X138585930Y-103910930D01*
X138514962Y-103958349D01*
X138431250Y-103975000D01*
X137993750Y-103975000D01*
X137910038Y-103958349D01*
X137839070Y-103910930D01*
X137791651Y-103839962D01*
X137775000Y-103756250D01*
X137775000Y-103243750D01*
X137791651Y-103160038D01*
X137839070Y-103089070D01*
X137910038Y-103041651D01*
X137993750Y-103025000D01*
X138431250Y-103025000D01*
X138514962Y-103041651D01*
G37*
G36*
X140089962Y-103041651D02*
G01*
X140160930Y-103089070D01*
X140208349Y-103160038D01*
X140225000Y-103243750D01*
X140225000Y-103756250D01*
X140208349Y-103839962D01*
X140160930Y-103910930D01*
X140089962Y-103958349D01*
X140006250Y-103975000D01*
X139568750Y-103975000D01*
X139485038Y-103958349D01*
X139414070Y-103910930D01*
X139366651Y-103839962D01*
X139350000Y-103756250D01*
X139350000Y-103243750D01*
X139366651Y-103160038D01*
X139414070Y-103089070D01*
X139485038Y-103041651D01*
X139568750Y-103025000D01*
X140006250Y-103025000D01*
X140089962Y-103041651D01*
G37*
D10*
X119550000Y-138500000D03*
X119550000Y-139500000D03*
X118500000Y-139000000D03*
G36*
X104089962Y-142291651D02*
G01*
X104160930Y-142339070D01*
X104208349Y-142410038D01*
X104225000Y-142493750D01*
X104225000Y-143006250D01*
X104208349Y-143089962D01*
X104160930Y-143160930D01*
X104089962Y-143208349D01*
X104006250Y-143225000D01*
X103568750Y-143225000D01*
X103485038Y-143208349D01*
X103414070Y-143160930D01*
X103366651Y-143089962D01*
X103350000Y-143006250D01*
X103350000Y-142493750D01*
X103366651Y-142410038D01*
X103414070Y-142339070D01*
X103485038Y-142291651D01*
X103568750Y-142275000D01*
X104006250Y-142275000D01*
X104089962Y-142291651D01*
G37*
G36*
X102514962Y-142291651D02*
G01*
X102585930Y-142339070D01*
X102633349Y-142410038D01*
X102650000Y-142493750D01*
X102650000Y-143006250D01*
X102633349Y-143089962D01*
X102585930Y-143160930D01*
X102514962Y-143208349D01*
X102431250Y-143225000D01*
X101993750Y-143225000D01*
X101910038Y-143208349D01*
X101839070Y-143160930D01*
X101791651Y-143089962D01*
X101775000Y-143006250D01*
X101775000Y-142493750D01*
X101791651Y-142410038D01*
X101839070Y-142339070D01*
X101910038Y-142291651D01*
X101993750Y-142275000D01*
X102431250Y-142275000D01*
X102514962Y-142291651D01*
G37*
G36*
X141764962Y-103041651D02*
G01*
X141835930Y-103089070D01*
X141883349Y-103160038D01*
X141900000Y-103243750D01*
X141900000Y-103756250D01*
X141883349Y-103839962D01*
X141835930Y-103910930D01*
X141764962Y-103958349D01*
X141681250Y-103975000D01*
X141243750Y-103975000D01*
X141160038Y-103958349D01*
X141089070Y-103910930D01*
X141041651Y-103839962D01*
X141025000Y-103756250D01*
X141025000Y-103243750D01*
X141041651Y-103160038D01*
X141089070Y-103089070D01*
X141160038Y-103041651D01*
X141243750Y-103025000D01*
X141681250Y-103025000D01*
X141764962Y-103041651D01*
G37*
G36*
X143339962Y-103041651D02*
G01*
X143410930Y-103089070D01*
X143458349Y-103160038D01*
X143475000Y-103243750D01*
X143475000Y-103756250D01*
X143458349Y-103839962D01*
X143410930Y-103910930D01*
X143339962Y-103958349D01*
X143256250Y-103975000D01*
X142818750Y-103975000D01*
X142735038Y-103958349D01*
X142664070Y-103910930D01*
X142616651Y-103839962D01*
X142600000Y-103756250D01*
X142600000Y-103243750D01*
X142616651Y-103160038D01*
X142664070Y-103089070D01*
X142735038Y-103041651D01*
X142818750Y-103025000D01*
X143256250Y-103025000D01*
X143339962Y-103041651D01*
G37*
D11*
X130270000Y-128960000D03*
X130270000Y-131500000D03*
X130270000Y-134040000D03*
X142220000Y-128960000D03*
X142220000Y-131500000D03*
X142220000Y-134040000D03*
D12*
X136250000Y-126115000D03*
X136250000Y-136885000D03*
D13*
X111140000Y-98950000D03*
X102960000Y-98950000D03*
M02*
