M48
; DRILL file {KiCad 5.99.0-unknown-f1fcf3f~86~ubuntu18.04.1} date Mon 20 Jan 2020 06:37:55 PM EST
; FORMAT={-:-/ absolute / inch / decimal}
; #@! TF.CreationDate,2020-01-20T18:37:55-05:00
; #@! TF.GenerationSoftware,Kicad,Pcbnew,5.99.0-unknown-f1fcf3f~86~ubuntu18.04.1
; #@! TF.FileFunction,Plated,1,2,PTH
FMAT,2
INCH
T1C0.0256
T2C0.0276
T3C0.0295
T4C0.0374
T5C0.0394
%
G90
G05
T1
X5.3043Y-4.0748
X5.3543Y-4.0748
X5.5602Y-5.5906
X5.6102Y-5.5906
T2
X4.3831Y-4.252
X4.4331Y-4.252
X4.4831Y-4.252
X4.5331Y-4.252
X4.5831Y-4.252
X4.6331Y-4.252
X4.6831Y-4.252
X4.7331Y-4.252
X4.7831Y-4.252
X4.8331Y-4.252
X4.8831Y-4.252
X4.9331Y-4.252
X4.9831Y-4.252
X5.0331Y-4.252
X5.0831Y-4.252
X5.1331Y-4.252
X5.1831Y-4.252
X5.2331Y-4.252
X5.2831Y-4.252
X5.3331Y-4.252
X5.3831Y-4.252
X5.4331Y-4.252
X4.3831Y-5.5906
X4.4331Y-5.5906
X4.4831Y-5.5906
X4.5331Y-5.5906
X4.5831Y-5.5906
X4.6331Y-5.5906
X4.6831Y-5.5906
X4.7331Y-5.5906
X4.7831Y-5.5906
X4.8331Y-5.5906
X4.8831Y-5.5906
X4.9331Y-5.5906
X4.9831Y-5.5906
X5.0331Y-5.5906
X5.0831Y-5.5906
X5.1331Y-5.5906
X5.1831Y-5.5906
X5.2331Y-5.5906
X5.2831Y-5.5906
X5.3331Y-5.5906
X5.3831Y-5.5906
X5.4331Y-5.5906
T3
X5.2008Y-4.9937
T4
X5.5276Y-5.348
T5
X4.0354Y-4.1602
X4.0354Y-4.2602
X4.0354Y-4.3602
X4.0354Y-5.0724
X4.0354Y-5.1724
X4.0354Y-5.2724
X4.0354Y-5.3724
X4.0354Y-5.4724
X4.5669Y-3.8583
X4.5669Y-3.9583
X4.8425Y-3.8583
X4.9425Y-3.8583
X5.0425Y-3.8583
X4.0354Y-4.5768
X4.0354Y-4.6768
X4.0354Y-4.7768
X4.0354Y-4.8768
X5.3512Y-3.8583
X5.4512Y-3.8583
X5.5512Y-3.8583
T0
M30
