G04 #@! TF.GenerationSoftware,KiCad,Pcbnew,5.99.0-unknown-f1fcf3f~86~ubuntu18.04.1*
G04 #@! TF.CreationDate,2020-01-20T18:37:53-05:00*
G04 #@! TF.ProjectId,module_benchmark_extension_board,6d6f6475-6c65-45f6-9265-6e63686d6172,rev?*
G04 #@! TF.SameCoordinates,Original*
G04 #@! TF.FileFunction,Soldermask,Bot*
G04 #@! TF.FilePolarity,Negative*
%FSLAX46Y46*%
G04 Gerber Fmt 4.6, Leading zero omitted, Abs format (unit mm)*
G04 Created by KiCad (PCBNEW 5.99.0-unknown-f1fcf3f~86~ubuntu18.04.1) date 2020-01-20 18:37:53*
%MOMM*%
%LPD*%
G04 APERTURE LIST*
G04 APERTURE END LIST*
G36*
X141247381Y-141446783D02*
G01*
X141270734Y-141445314D01*
X141321992Y-141456209D01*
X141365218Y-141461670D01*
X141386974Y-141470021D01*
X141418399Y-141476701D01*
X141457154Y-141496961D01*
X141489724Y-141509464D01*
X141515993Y-141527721D01*
X141552185Y-141546642D01*
X141577727Y-141570628D01*
X141599239Y-141585579D01*
X141626134Y-141616086D01*
X141662233Y-141649985D01*
X141675865Y-141672494D01*
X141687430Y-141685612D01*
X141709778Y-141728359D01*
X141758673Y-141779055D01*
X141827214Y-141795268D01*
X141893640Y-141771852D01*
X141936862Y-141716241D01*
X141945552Y-141670447D01*
X141945552Y-141512312D01*
X141951959Y-141480101D01*
X141963231Y-141463231D01*
X141980101Y-141451959D01*
X142012312Y-141445552D01*
X142987688Y-141445552D01*
X143019899Y-141451959D01*
X143036769Y-141463231D01*
X143048041Y-141480101D01*
X143054448Y-141512312D01*
X143054448Y-142487688D01*
X143051999Y-142500000D01*
X143048041Y-142519899D01*
X143036769Y-142536769D01*
X143019899Y-142548041D01*
X143000000Y-142551999D01*
X142987688Y-142554448D01*
X142012312Y-142554448D01*
X141980101Y-142548041D01*
X141963231Y-142536769D01*
X141951959Y-142519899D01*
X141945552Y-142487688D01*
X141945552Y-142329059D01*
X141925709Y-142261479D01*
X141872479Y-142215356D01*
X141802764Y-142205332D01*
X141738696Y-142234591D01*
X141715689Y-142263058D01*
X141704512Y-142280669D01*
X141680748Y-142323897D01*
X141668908Y-142336772D01*
X141654808Y-142358991D01*
X141618006Y-142392128D01*
X141590478Y-142422064D01*
X141568657Y-142436562D01*
X141542620Y-142460006D01*
X141506045Y-142478162D01*
X141479394Y-142495869D01*
X141446565Y-142507688D01*
X141407399Y-142527130D01*
X141375839Y-142533150D01*
X141353916Y-142541043D01*
X141310593Y-142545597D01*
X141259108Y-142555418D01*
X141235787Y-142553460D01*
X141221284Y-142554984D01*
X141169548Y-142547897D01*
X141108673Y-142542785D01*
X141094937Y-142537677D01*
X141089150Y-142536884D01*
X141032595Y-142514492D01*
X140967177Y-142490163D01*
X140908252Y-142447352D01*
X140856441Y-142410532D01*
X140854537Y-142408326D01*
X140845044Y-142401429D01*
X140805302Y-142351287D01*
X140769300Y-142309579D01*
X140764001Y-142299179D01*
X140751272Y-142283119D01*
X140729838Y-142232129D01*
X140708754Y-142190749D01*
X140704096Y-142170892D01*
X140692771Y-142143950D01*
X140686928Y-142097696D01*
X140678299Y-142060909D01*
X140678604Y-142031808D01*
X140673850Y-141994176D01*
X140679392Y-141956647D01*
X140679697Y-141927552D01*
X140689092Y-141890961D01*
X140695904Y-141844831D01*
X140707791Y-141818132D01*
X140712864Y-141798375D01*
X140734815Y-141757436D01*
X140757307Y-141706918D01*
X140770366Y-141691132D01*
X140775883Y-141680843D01*
X140812753Y-141639895D01*
X140853535Y-141590598D01*
X140863171Y-141583901D01*
X140865122Y-141581734D01*
X140917700Y-141546002D01*
X140977500Y-141504440D01*
X141043435Y-141481479D01*
X141100424Y-141460285D01*
X141106223Y-141459614D01*
X141120067Y-141454793D01*
X141181037Y-141450957D01*
X141232909Y-141444955D01*
X141247381Y-141446783D01*
G37*
G36*
X136747381Y-141446783D02*
G01*
X136770734Y-141445314D01*
X136821992Y-141456209D01*
X136865218Y-141461670D01*
X136886974Y-141470021D01*
X136918399Y-141476701D01*
X136957154Y-141496961D01*
X136989724Y-141509464D01*
X137015993Y-141527721D01*
X137052185Y-141546642D01*
X137077727Y-141570628D01*
X137099239Y-141585579D01*
X137126134Y-141616086D01*
X137162233Y-141649985D01*
X137175865Y-141672494D01*
X137187430Y-141685612D01*
X137209778Y-141728359D01*
X137258673Y-141779055D01*
X137327214Y-141795268D01*
X137393640Y-141771852D01*
X137436862Y-141716241D01*
X137445552Y-141670447D01*
X137445552Y-141512312D01*
X137451959Y-141480101D01*
X137463231Y-141463231D01*
X137480101Y-141451959D01*
X137512312Y-141445552D01*
X138487688Y-141445552D01*
X138519899Y-141451959D01*
X138536769Y-141463231D01*
X138548041Y-141480101D01*
X138554448Y-141512312D01*
X138554448Y-142487688D01*
X138551999Y-142500000D01*
X138548041Y-142519899D01*
X138536769Y-142536769D01*
X138519899Y-142548041D01*
X138500000Y-142551999D01*
X138487688Y-142554448D01*
X137512312Y-142554448D01*
X137480101Y-142548041D01*
X137463231Y-142536769D01*
X137451959Y-142519899D01*
X137445552Y-142487688D01*
X137445552Y-142329059D01*
X137425709Y-142261479D01*
X137372479Y-142215356D01*
X137302764Y-142205332D01*
X137238696Y-142234591D01*
X137215689Y-142263058D01*
X137204512Y-142280669D01*
X137180748Y-142323897D01*
X137168908Y-142336772D01*
X137154808Y-142358991D01*
X137118006Y-142392128D01*
X137090478Y-142422064D01*
X137068657Y-142436562D01*
X137042620Y-142460006D01*
X137006045Y-142478162D01*
X136979394Y-142495869D01*
X136946565Y-142507688D01*
X136907399Y-142527130D01*
X136875839Y-142533150D01*
X136853916Y-142541043D01*
X136810593Y-142545597D01*
X136759108Y-142555418D01*
X136735787Y-142553460D01*
X136721284Y-142554984D01*
X136669548Y-142547897D01*
X136608673Y-142542785D01*
X136594937Y-142537677D01*
X136589150Y-142536884D01*
X136532595Y-142514492D01*
X136467177Y-142490163D01*
X136408252Y-142447352D01*
X136356441Y-142410532D01*
X136354537Y-142408326D01*
X136345044Y-142401429D01*
X136305302Y-142351287D01*
X136269300Y-142309579D01*
X136264001Y-142299179D01*
X136251272Y-142283119D01*
X136229840Y-142232135D01*
X136206252Y-142185840D01*
X136157891Y-142134634D01*
X136089524Y-142117704D01*
X136022856Y-142140423D01*
X135984701Y-142195101D01*
X135982284Y-142193772D01*
X135970780Y-142214697D01*
X135965699Y-142231527D01*
X135934510Y-142280673D01*
X135910747Y-142323898D01*
X135898908Y-142336772D01*
X135884808Y-142358991D01*
X135848006Y-142392128D01*
X135820478Y-142422064D01*
X135798657Y-142436562D01*
X135772620Y-142460006D01*
X135736045Y-142478162D01*
X135709394Y-142495869D01*
X135676565Y-142507688D01*
X135637399Y-142527130D01*
X135605839Y-142533150D01*
X135583916Y-142541043D01*
X135540593Y-142545597D01*
X135489108Y-142555418D01*
X135465787Y-142553460D01*
X135451284Y-142554984D01*
X135399548Y-142547897D01*
X135338673Y-142542785D01*
X135324937Y-142537677D01*
X135319150Y-142536884D01*
X135262595Y-142514492D01*
X135197177Y-142490163D01*
X135138252Y-142447352D01*
X135086441Y-142410532D01*
X135084537Y-142408326D01*
X135075044Y-142401429D01*
X135035302Y-142351287D01*
X134999300Y-142309579D01*
X134994001Y-142299179D01*
X134981272Y-142283119D01*
X134959840Y-142232135D01*
X134936252Y-142185840D01*
X134887891Y-142134634D01*
X134819524Y-142117704D01*
X134752856Y-142140423D01*
X134714701Y-142195101D01*
X134712284Y-142193772D01*
X134700780Y-142214697D01*
X134695699Y-142231527D01*
X134664510Y-142280673D01*
X134640747Y-142323898D01*
X134628908Y-142336772D01*
X134614808Y-142358991D01*
X134578006Y-142392128D01*
X134550478Y-142422064D01*
X134528657Y-142436562D01*
X134502620Y-142460006D01*
X134466045Y-142478162D01*
X134439394Y-142495869D01*
X134406565Y-142507688D01*
X134367399Y-142527130D01*
X134335839Y-142533150D01*
X134313916Y-142541043D01*
X134270593Y-142545597D01*
X134219108Y-142555418D01*
X134195787Y-142553460D01*
X134181284Y-142554984D01*
X134129548Y-142547897D01*
X134068673Y-142542785D01*
X134054937Y-142537677D01*
X134049150Y-142536884D01*
X133992595Y-142514492D01*
X133927177Y-142490163D01*
X133868252Y-142447352D01*
X133816441Y-142410532D01*
X133814537Y-142408326D01*
X133805044Y-142401429D01*
X133765302Y-142351287D01*
X133729300Y-142309579D01*
X133724001Y-142299179D01*
X133711272Y-142283119D01*
X133689840Y-142232135D01*
X133666252Y-142185840D01*
X133617891Y-142134634D01*
X133549524Y-142117704D01*
X133482856Y-142140423D01*
X133444701Y-142195101D01*
X133442284Y-142193772D01*
X133430780Y-142214697D01*
X133425699Y-142231527D01*
X133394510Y-142280673D01*
X133370747Y-142323898D01*
X133358908Y-142336772D01*
X133344808Y-142358991D01*
X133308006Y-142392128D01*
X133280478Y-142422064D01*
X133258657Y-142436562D01*
X133232620Y-142460006D01*
X133196045Y-142478162D01*
X133169394Y-142495869D01*
X133136565Y-142507688D01*
X133097399Y-142527130D01*
X133065839Y-142533150D01*
X133043916Y-142541043D01*
X133000593Y-142545597D01*
X132949108Y-142555418D01*
X132925787Y-142553460D01*
X132911284Y-142554984D01*
X132859548Y-142547897D01*
X132798673Y-142542785D01*
X132784937Y-142537677D01*
X132779150Y-142536884D01*
X132722595Y-142514492D01*
X132657177Y-142490163D01*
X132598252Y-142447352D01*
X132546441Y-142410532D01*
X132544537Y-142408326D01*
X132535044Y-142401429D01*
X132495302Y-142351287D01*
X132459300Y-142309579D01*
X132454001Y-142299179D01*
X132441272Y-142283119D01*
X132419840Y-142232135D01*
X132396252Y-142185840D01*
X132347891Y-142134634D01*
X132279524Y-142117704D01*
X132212856Y-142140423D01*
X132174701Y-142195101D01*
X132172284Y-142193772D01*
X132160780Y-142214697D01*
X132155699Y-142231527D01*
X132124510Y-142280673D01*
X132100747Y-142323898D01*
X132088908Y-142336772D01*
X132074808Y-142358991D01*
X132038006Y-142392128D01*
X132010478Y-142422064D01*
X131988657Y-142436562D01*
X131962620Y-142460006D01*
X131926045Y-142478162D01*
X131899394Y-142495869D01*
X131866565Y-142507688D01*
X131827399Y-142527130D01*
X131795839Y-142533150D01*
X131773916Y-142541043D01*
X131730593Y-142545597D01*
X131679108Y-142555418D01*
X131655787Y-142553460D01*
X131641284Y-142554984D01*
X131589548Y-142547897D01*
X131528673Y-142542785D01*
X131514937Y-142537677D01*
X131509150Y-142536884D01*
X131452595Y-142514492D01*
X131387177Y-142490163D01*
X131328252Y-142447352D01*
X131276441Y-142410532D01*
X131274537Y-142408326D01*
X131265044Y-142401429D01*
X131225302Y-142351287D01*
X131189300Y-142309579D01*
X131184001Y-142299179D01*
X131171272Y-142283119D01*
X131149840Y-142232135D01*
X131126252Y-142185840D01*
X131077891Y-142134634D01*
X131009524Y-142117704D01*
X130942856Y-142140423D01*
X130904701Y-142195101D01*
X130902284Y-142193772D01*
X130890780Y-142214697D01*
X130885699Y-142231527D01*
X130854510Y-142280673D01*
X130830747Y-142323898D01*
X130818908Y-142336772D01*
X130804808Y-142358991D01*
X130768006Y-142392128D01*
X130740478Y-142422064D01*
X130718657Y-142436562D01*
X130692620Y-142460006D01*
X130656045Y-142478162D01*
X130629394Y-142495869D01*
X130596565Y-142507688D01*
X130557399Y-142527130D01*
X130525839Y-142533150D01*
X130503916Y-142541043D01*
X130460593Y-142545597D01*
X130409108Y-142555418D01*
X130385787Y-142553460D01*
X130371284Y-142554984D01*
X130319548Y-142547897D01*
X130258673Y-142542785D01*
X130244937Y-142537677D01*
X130239150Y-142536884D01*
X130182595Y-142514492D01*
X130117177Y-142490163D01*
X130058252Y-142447352D01*
X130006441Y-142410532D01*
X130004537Y-142408326D01*
X129995044Y-142401429D01*
X129955302Y-142351287D01*
X129919300Y-142309579D01*
X129914001Y-142299179D01*
X129901272Y-142283119D01*
X129879840Y-142232135D01*
X129856252Y-142185840D01*
X129807891Y-142134634D01*
X129739524Y-142117704D01*
X129672856Y-142140423D01*
X129634701Y-142195101D01*
X129632284Y-142193772D01*
X129620780Y-142214697D01*
X129615699Y-142231527D01*
X129584510Y-142280673D01*
X129560747Y-142323898D01*
X129548908Y-142336772D01*
X129534808Y-142358991D01*
X129498006Y-142392128D01*
X129470478Y-142422064D01*
X129448657Y-142436562D01*
X129422620Y-142460006D01*
X129386045Y-142478162D01*
X129359394Y-142495869D01*
X129326565Y-142507688D01*
X129287399Y-142527130D01*
X129255839Y-142533150D01*
X129233916Y-142541043D01*
X129190593Y-142545597D01*
X129139108Y-142555418D01*
X129115787Y-142553460D01*
X129101284Y-142554984D01*
X129049548Y-142547897D01*
X128988673Y-142542785D01*
X128974937Y-142537677D01*
X128969150Y-142536884D01*
X128912595Y-142514492D01*
X128847177Y-142490163D01*
X128788252Y-142447352D01*
X128736441Y-142410532D01*
X128734537Y-142408326D01*
X128725044Y-142401429D01*
X128685302Y-142351287D01*
X128649300Y-142309579D01*
X128644001Y-142299179D01*
X128631272Y-142283119D01*
X128609840Y-142232135D01*
X128586252Y-142185840D01*
X128537891Y-142134634D01*
X128469524Y-142117704D01*
X128402856Y-142140423D01*
X128364701Y-142195101D01*
X128362284Y-142193772D01*
X128350780Y-142214697D01*
X128345699Y-142231527D01*
X128314510Y-142280673D01*
X128290747Y-142323898D01*
X128278908Y-142336772D01*
X128264808Y-142358991D01*
X128228006Y-142392128D01*
X128200478Y-142422064D01*
X128178657Y-142436562D01*
X128152620Y-142460006D01*
X128116045Y-142478162D01*
X128089394Y-142495869D01*
X128056565Y-142507688D01*
X128017399Y-142527130D01*
X127985839Y-142533150D01*
X127963916Y-142541043D01*
X127920593Y-142545597D01*
X127869108Y-142555418D01*
X127845787Y-142553460D01*
X127831284Y-142554984D01*
X127779548Y-142547897D01*
X127718673Y-142542785D01*
X127704937Y-142537677D01*
X127699150Y-142536884D01*
X127642595Y-142514492D01*
X127577177Y-142490163D01*
X127518252Y-142447352D01*
X127466441Y-142410532D01*
X127464537Y-142408326D01*
X127455044Y-142401429D01*
X127415302Y-142351287D01*
X127379300Y-142309579D01*
X127374001Y-142299179D01*
X127361272Y-142283119D01*
X127339840Y-142232135D01*
X127316252Y-142185840D01*
X127267891Y-142134634D01*
X127199524Y-142117704D01*
X127132856Y-142140423D01*
X127094701Y-142195101D01*
X127092284Y-142193772D01*
X127080780Y-142214697D01*
X127075699Y-142231527D01*
X127044510Y-142280673D01*
X127020747Y-142323898D01*
X127008908Y-142336772D01*
X126994808Y-142358991D01*
X126958006Y-142392128D01*
X126930478Y-142422064D01*
X126908657Y-142436562D01*
X126882620Y-142460006D01*
X126846045Y-142478162D01*
X126819394Y-142495869D01*
X126786565Y-142507688D01*
X126747399Y-142527130D01*
X126715839Y-142533150D01*
X126693916Y-142541043D01*
X126650593Y-142545597D01*
X126599108Y-142555418D01*
X126575787Y-142553460D01*
X126561284Y-142554984D01*
X126509548Y-142547897D01*
X126448673Y-142542785D01*
X126434937Y-142537677D01*
X126429150Y-142536884D01*
X126372595Y-142514492D01*
X126307177Y-142490163D01*
X126248252Y-142447352D01*
X126196441Y-142410532D01*
X126194537Y-142408326D01*
X126185044Y-142401429D01*
X126145302Y-142351287D01*
X126109300Y-142309579D01*
X126104001Y-142299179D01*
X126091272Y-142283119D01*
X126069840Y-142232135D01*
X126046252Y-142185840D01*
X125997891Y-142134634D01*
X125929524Y-142117704D01*
X125862856Y-142140423D01*
X125824701Y-142195101D01*
X125822284Y-142193772D01*
X125810780Y-142214697D01*
X125805699Y-142231527D01*
X125774510Y-142280673D01*
X125750747Y-142323898D01*
X125738908Y-142336772D01*
X125724808Y-142358991D01*
X125688006Y-142392128D01*
X125660478Y-142422064D01*
X125638657Y-142436562D01*
X125612620Y-142460006D01*
X125576045Y-142478162D01*
X125549394Y-142495869D01*
X125516565Y-142507688D01*
X125477399Y-142527130D01*
X125445839Y-142533150D01*
X125423916Y-142541043D01*
X125380593Y-142545597D01*
X125329108Y-142555418D01*
X125305787Y-142553460D01*
X125291284Y-142554984D01*
X125239548Y-142547897D01*
X125178673Y-142542785D01*
X125164937Y-142537677D01*
X125159150Y-142536884D01*
X125102595Y-142514492D01*
X125037177Y-142490163D01*
X124978252Y-142447352D01*
X124926441Y-142410532D01*
X124924537Y-142408326D01*
X124915044Y-142401429D01*
X124875302Y-142351287D01*
X124839300Y-142309579D01*
X124834001Y-142299179D01*
X124821272Y-142283119D01*
X124799840Y-142232135D01*
X124776252Y-142185840D01*
X124727891Y-142134634D01*
X124659524Y-142117704D01*
X124592856Y-142140423D01*
X124554701Y-142195101D01*
X124552284Y-142193772D01*
X124540780Y-142214697D01*
X124535699Y-142231527D01*
X124504510Y-142280673D01*
X124480747Y-142323898D01*
X124468908Y-142336772D01*
X124454808Y-142358991D01*
X124418006Y-142392128D01*
X124390478Y-142422064D01*
X124368657Y-142436562D01*
X124342620Y-142460006D01*
X124306045Y-142478162D01*
X124279394Y-142495869D01*
X124246565Y-142507688D01*
X124207399Y-142527130D01*
X124175839Y-142533150D01*
X124153916Y-142541043D01*
X124110593Y-142545597D01*
X124059108Y-142555418D01*
X124035787Y-142553460D01*
X124021284Y-142554984D01*
X123969548Y-142547897D01*
X123908673Y-142542785D01*
X123894937Y-142537677D01*
X123889150Y-142536884D01*
X123832595Y-142514492D01*
X123767177Y-142490163D01*
X123708252Y-142447352D01*
X123656441Y-142410532D01*
X123654537Y-142408326D01*
X123645044Y-142401429D01*
X123605302Y-142351287D01*
X123569300Y-142309579D01*
X123564001Y-142299179D01*
X123551272Y-142283119D01*
X123529840Y-142232135D01*
X123506252Y-142185840D01*
X123457891Y-142134634D01*
X123389524Y-142117704D01*
X123322856Y-142140423D01*
X123284701Y-142195101D01*
X123282284Y-142193772D01*
X123270780Y-142214697D01*
X123265699Y-142231527D01*
X123234510Y-142280673D01*
X123210747Y-142323898D01*
X123198908Y-142336772D01*
X123184808Y-142358991D01*
X123148006Y-142392128D01*
X123120478Y-142422064D01*
X123098657Y-142436562D01*
X123072620Y-142460006D01*
X123036045Y-142478162D01*
X123009394Y-142495869D01*
X122976565Y-142507688D01*
X122937399Y-142527130D01*
X122905839Y-142533150D01*
X122883916Y-142541043D01*
X122840593Y-142545597D01*
X122789108Y-142555418D01*
X122765787Y-142553460D01*
X122751284Y-142554984D01*
X122699548Y-142547897D01*
X122638673Y-142542785D01*
X122624937Y-142537677D01*
X122619150Y-142536884D01*
X122562595Y-142514492D01*
X122497177Y-142490163D01*
X122438252Y-142447352D01*
X122386441Y-142410532D01*
X122384537Y-142408326D01*
X122375044Y-142401429D01*
X122335302Y-142351287D01*
X122299300Y-142309579D01*
X122294001Y-142299179D01*
X122281272Y-142283119D01*
X122259840Y-142232135D01*
X122236252Y-142185840D01*
X122187891Y-142134634D01*
X122119524Y-142117704D01*
X122052856Y-142140423D01*
X122014701Y-142195101D01*
X122012284Y-142193772D01*
X122000780Y-142214697D01*
X121995699Y-142231527D01*
X121964510Y-142280673D01*
X121940747Y-142323898D01*
X121928908Y-142336772D01*
X121914808Y-142358991D01*
X121878006Y-142392128D01*
X121850478Y-142422064D01*
X121828657Y-142436562D01*
X121802620Y-142460006D01*
X121766045Y-142478162D01*
X121739394Y-142495869D01*
X121706565Y-142507688D01*
X121667399Y-142527130D01*
X121635839Y-142533150D01*
X121613916Y-142541043D01*
X121570593Y-142545597D01*
X121519108Y-142555418D01*
X121495787Y-142553460D01*
X121481284Y-142554984D01*
X121429548Y-142547897D01*
X121368673Y-142542785D01*
X121354937Y-142537677D01*
X121349150Y-142536884D01*
X121292595Y-142514492D01*
X121227177Y-142490163D01*
X121168252Y-142447352D01*
X121116441Y-142410532D01*
X121114537Y-142408326D01*
X121105044Y-142401429D01*
X121065302Y-142351287D01*
X121029300Y-142309579D01*
X121024001Y-142299179D01*
X121011272Y-142283119D01*
X120989840Y-142232135D01*
X120966252Y-142185840D01*
X120917891Y-142134634D01*
X120849524Y-142117704D01*
X120782856Y-142140423D01*
X120744701Y-142195101D01*
X120742284Y-142193772D01*
X120730780Y-142214697D01*
X120725699Y-142231527D01*
X120694510Y-142280673D01*
X120670747Y-142323898D01*
X120658908Y-142336772D01*
X120644808Y-142358991D01*
X120608006Y-142392128D01*
X120580478Y-142422064D01*
X120558657Y-142436562D01*
X120532620Y-142460006D01*
X120496045Y-142478162D01*
X120469394Y-142495869D01*
X120436565Y-142507688D01*
X120397399Y-142527130D01*
X120365839Y-142533150D01*
X120343916Y-142541043D01*
X120300593Y-142545597D01*
X120249108Y-142555418D01*
X120225787Y-142553460D01*
X120211284Y-142554984D01*
X120159548Y-142547897D01*
X120098673Y-142542785D01*
X120084937Y-142537677D01*
X120079150Y-142536884D01*
X120022595Y-142514492D01*
X119957177Y-142490163D01*
X119898252Y-142447352D01*
X119846441Y-142410532D01*
X119844537Y-142408326D01*
X119835044Y-142401429D01*
X119795302Y-142351287D01*
X119759300Y-142309579D01*
X119754001Y-142299179D01*
X119741272Y-142283119D01*
X119719840Y-142232135D01*
X119696252Y-142185840D01*
X119647891Y-142134634D01*
X119579524Y-142117704D01*
X119512856Y-142140423D01*
X119474701Y-142195101D01*
X119472284Y-142193772D01*
X119460780Y-142214697D01*
X119455699Y-142231527D01*
X119424510Y-142280673D01*
X119400747Y-142323898D01*
X119388908Y-142336772D01*
X119374808Y-142358991D01*
X119338006Y-142392128D01*
X119310478Y-142422064D01*
X119288657Y-142436562D01*
X119262620Y-142460006D01*
X119226045Y-142478162D01*
X119199394Y-142495869D01*
X119166565Y-142507688D01*
X119127399Y-142527130D01*
X119095839Y-142533150D01*
X119073916Y-142541043D01*
X119030593Y-142545597D01*
X118979108Y-142555418D01*
X118955787Y-142553460D01*
X118941284Y-142554984D01*
X118889548Y-142547897D01*
X118828673Y-142542785D01*
X118814937Y-142537677D01*
X118809150Y-142536884D01*
X118752595Y-142514492D01*
X118687177Y-142490163D01*
X118628252Y-142447352D01*
X118576441Y-142410532D01*
X118574537Y-142408326D01*
X118565044Y-142401429D01*
X118525302Y-142351287D01*
X118489300Y-142309579D01*
X118484001Y-142299179D01*
X118471272Y-142283119D01*
X118449840Y-142232135D01*
X118426252Y-142185840D01*
X118377891Y-142134634D01*
X118309524Y-142117704D01*
X118242856Y-142140423D01*
X118204701Y-142195101D01*
X118202284Y-142193772D01*
X118190780Y-142214697D01*
X118185699Y-142231527D01*
X118154510Y-142280673D01*
X118130747Y-142323898D01*
X118118908Y-142336772D01*
X118104808Y-142358991D01*
X118068006Y-142392128D01*
X118040478Y-142422064D01*
X118018657Y-142436562D01*
X117992620Y-142460006D01*
X117956045Y-142478162D01*
X117929394Y-142495869D01*
X117896565Y-142507688D01*
X117857399Y-142527130D01*
X117825839Y-142533150D01*
X117803916Y-142541043D01*
X117760593Y-142545597D01*
X117709108Y-142555418D01*
X117685787Y-142553460D01*
X117671284Y-142554984D01*
X117619548Y-142547897D01*
X117558673Y-142542785D01*
X117544937Y-142537677D01*
X117539150Y-142536884D01*
X117482595Y-142514492D01*
X117417177Y-142490163D01*
X117358252Y-142447352D01*
X117306441Y-142410532D01*
X117304537Y-142408326D01*
X117295044Y-142401429D01*
X117255302Y-142351287D01*
X117219300Y-142309579D01*
X117214001Y-142299179D01*
X117201272Y-142283119D01*
X117179840Y-142232135D01*
X117156252Y-142185840D01*
X117107891Y-142134634D01*
X117039524Y-142117704D01*
X116972856Y-142140423D01*
X116934701Y-142195101D01*
X116932284Y-142193772D01*
X116920780Y-142214697D01*
X116915699Y-142231527D01*
X116884510Y-142280673D01*
X116860747Y-142323898D01*
X116848908Y-142336772D01*
X116834808Y-142358991D01*
X116798006Y-142392128D01*
X116770478Y-142422064D01*
X116748657Y-142436562D01*
X116722620Y-142460006D01*
X116686045Y-142478162D01*
X116659394Y-142495869D01*
X116626565Y-142507688D01*
X116587399Y-142527130D01*
X116555839Y-142533150D01*
X116533916Y-142541043D01*
X116490593Y-142545597D01*
X116439108Y-142555418D01*
X116415787Y-142553460D01*
X116401284Y-142554984D01*
X116349548Y-142547897D01*
X116288673Y-142542785D01*
X116274937Y-142537677D01*
X116269150Y-142536884D01*
X116212595Y-142514492D01*
X116147177Y-142490163D01*
X116088252Y-142447352D01*
X116036441Y-142410532D01*
X116034537Y-142408326D01*
X116025044Y-142401429D01*
X115985302Y-142351287D01*
X115949300Y-142309579D01*
X115944001Y-142299179D01*
X115931272Y-142283119D01*
X115909840Y-142232135D01*
X115886252Y-142185840D01*
X115837891Y-142134634D01*
X115769524Y-142117704D01*
X115702856Y-142140423D01*
X115664701Y-142195101D01*
X115662284Y-142193772D01*
X115650780Y-142214697D01*
X115645699Y-142231527D01*
X115614510Y-142280673D01*
X115590747Y-142323898D01*
X115578908Y-142336772D01*
X115564808Y-142358991D01*
X115528006Y-142392128D01*
X115500478Y-142422064D01*
X115478657Y-142436562D01*
X115452620Y-142460006D01*
X115416045Y-142478162D01*
X115389394Y-142495869D01*
X115356565Y-142507688D01*
X115317399Y-142527130D01*
X115285839Y-142533150D01*
X115263916Y-142541043D01*
X115220593Y-142545597D01*
X115169108Y-142555418D01*
X115145787Y-142553460D01*
X115131284Y-142554984D01*
X115079548Y-142547897D01*
X115018673Y-142542785D01*
X115004937Y-142537677D01*
X114999150Y-142536884D01*
X114942595Y-142514492D01*
X114877177Y-142490163D01*
X114818252Y-142447352D01*
X114766441Y-142410532D01*
X114764537Y-142408326D01*
X114755044Y-142401429D01*
X114715302Y-142351287D01*
X114679300Y-142309579D01*
X114674001Y-142299179D01*
X114661272Y-142283119D01*
X114639840Y-142232135D01*
X114616252Y-142185840D01*
X114567891Y-142134634D01*
X114499524Y-142117704D01*
X114432856Y-142140423D01*
X114394701Y-142195101D01*
X114392284Y-142193772D01*
X114380780Y-142214697D01*
X114375699Y-142231527D01*
X114344510Y-142280673D01*
X114320747Y-142323898D01*
X114308908Y-142336772D01*
X114294808Y-142358991D01*
X114258006Y-142392128D01*
X114230478Y-142422064D01*
X114208657Y-142436562D01*
X114182620Y-142460006D01*
X114146045Y-142478162D01*
X114119394Y-142495869D01*
X114086565Y-142507688D01*
X114047399Y-142527130D01*
X114015839Y-142533150D01*
X113993916Y-142541043D01*
X113950593Y-142545597D01*
X113899108Y-142555418D01*
X113875787Y-142553460D01*
X113861284Y-142554984D01*
X113809548Y-142547897D01*
X113748673Y-142542785D01*
X113734937Y-142537677D01*
X113729150Y-142536884D01*
X113672595Y-142514492D01*
X113607177Y-142490163D01*
X113548252Y-142447352D01*
X113496441Y-142410532D01*
X113494537Y-142408326D01*
X113485044Y-142401429D01*
X113445302Y-142351287D01*
X113409300Y-142309579D01*
X113404001Y-142299179D01*
X113391272Y-142283119D01*
X113369840Y-142232135D01*
X113346252Y-142185840D01*
X113297891Y-142134634D01*
X113229524Y-142117704D01*
X113162856Y-142140423D01*
X113124701Y-142195101D01*
X113122284Y-142193772D01*
X113110780Y-142214697D01*
X113105699Y-142231527D01*
X113074510Y-142280673D01*
X113050747Y-142323898D01*
X113038908Y-142336772D01*
X113024808Y-142358991D01*
X112988006Y-142392128D01*
X112960478Y-142422064D01*
X112938657Y-142436562D01*
X112912620Y-142460006D01*
X112876045Y-142478162D01*
X112849394Y-142495869D01*
X112816565Y-142507688D01*
X112777399Y-142527130D01*
X112745839Y-142533150D01*
X112723916Y-142541043D01*
X112680593Y-142545597D01*
X112629108Y-142555418D01*
X112605787Y-142553460D01*
X112591284Y-142554984D01*
X112539548Y-142547897D01*
X112478673Y-142542785D01*
X112464937Y-142537677D01*
X112459150Y-142536884D01*
X112402595Y-142514492D01*
X112337177Y-142490163D01*
X112278252Y-142447352D01*
X112226441Y-142410532D01*
X112224537Y-142408326D01*
X112215044Y-142401429D01*
X112175302Y-142351287D01*
X112139300Y-142309579D01*
X112134001Y-142299179D01*
X112121272Y-142283119D01*
X112099840Y-142232135D01*
X112076252Y-142185840D01*
X112027891Y-142134634D01*
X111959524Y-142117704D01*
X111892856Y-142140423D01*
X111854701Y-142195101D01*
X111852284Y-142193772D01*
X111840780Y-142214697D01*
X111835699Y-142231527D01*
X111804510Y-142280673D01*
X111780747Y-142323898D01*
X111768908Y-142336772D01*
X111754808Y-142358991D01*
X111718006Y-142392128D01*
X111690478Y-142422064D01*
X111668657Y-142436562D01*
X111642620Y-142460006D01*
X111606045Y-142478162D01*
X111579394Y-142495869D01*
X111546565Y-142507688D01*
X111507399Y-142527130D01*
X111475839Y-142533150D01*
X111453916Y-142541043D01*
X111410593Y-142545597D01*
X111359108Y-142555418D01*
X111335787Y-142553460D01*
X111321284Y-142554984D01*
X111269548Y-142547897D01*
X111208673Y-142542785D01*
X111194937Y-142537677D01*
X111189150Y-142536884D01*
X111132595Y-142514492D01*
X111067177Y-142490163D01*
X111008252Y-142447352D01*
X110956441Y-142410532D01*
X110954537Y-142408326D01*
X110945044Y-142401429D01*
X110905302Y-142351287D01*
X110869300Y-142309579D01*
X110864001Y-142299179D01*
X110851272Y-142283119D01*
X110829838Y-142232129D01*
X110808754Y-142190749D01*
X110804096Y-142170892D01*
X110792771Y-142143950D01*
X110786928Y-142097696D01*
X110778299Y-142060909D01*
X110778604Y-142031808D01*
X110773850Y-141994176D01*
X110779392Y-141956647D01*
X110779697Y-141927552D01*
X110789092Y-141890961D01*
X110795904Y-141844831D01*
X110807791Y-141818132D01*
X110812864Y-141798375D01*
X110834815Y-141757436D01*
X110857307Y-141706918D01*
X110870366Y-141691132D01*
X110875883Y-141680843D01*
X110912753Y-141639895D01*
X110953535Y-141590598D01*
X110963171Y-141583901D01*
X110965122Y-141581734D01*
X111017700Y-141546002D01*
X111077500Y-141504440D01*
X111143435Y-141481479D01*
X111200424Y-141460285D01*
X111206223Y-141459614D01*
X111220067Y-141454793D01*
X111281037Y-141450957D01*
X111332909Y-141444955D01*
X111347381Y-141446783D01*
X111370734Y-141445314D01*
X111421992Y-141456209D01*
X111465218Y-141461670D01*
X111486974Y-141470021D01*
X111518399Y-141476701D01*
X111557154Y-141496961D01*
X111589724Y-141509464D01*
X111615993Y-141527721D01*
X111652185Y-141546642D01*
X111677727Y-141570628D01*
X111699239Y-141585579D01*
X111726135Y-141616086D01*
X111762233Y-141649985D01*
X111775865Y-141672493D01*
X111787433Y-141685615D01*
X111810288Y-141729333D01*
X111840437Y-141779114D01*
X111845164Y-141796043D01*
X111854110Y-141813156D01*
X111903004Y-141863852D01*
X111971545Y-141880065D01*
X112037971Y-141856649D01*
X112070536Y-141808930D01*
X112075715Y-141811707D01*
X112104816Y-141757433D01*
X112127307Y-141706918D01*
X112140366Y-141691132D01*
X112145883Y-141680843D01*
X112182753Y-141639895D01*
X112223535Y-141590598D01*
X112233171Y-141583901D01*
X112235122Y-141581734D01*
X112287700Y-141546002D01*
X112347500Y-141504440D01*
X112413435Y-141481479D01*
X112470424Y-141460285D01*
X112476223Y-141459614D01*
X112490067Y-141454793D01*
X112551037Y-141450957D01*
X112602909Y-141444955D01*
X112617381Y-141446783D01*
X112640734Y-141445314D01*
X112691992Y-141456209D01*
X112735218Y-141461670D01*
X112756974Y-141470021D01*
X112788399Y-141476701D01*
X112827154Y-141496961D01*
X112859724Y-141509464D01*
X112885993Y-141527721D01*
X112922185Y-141546642D01*
X112947727Y-141570628D01*
X112969239Y-141585579D01*
X112996135Y-141616086D01*
X113032233Y-141649985D01*
X113045865Y-141672493D01*
X113057433Y-141685615D01*
X113080288Y-141729333D01*
X113110437Y-141779114D01*
X113115164Y-141796043D01*
X113124110Y-141813156D01*
X113173004Y-141863852D01*
X113241545Y-141880065D01*
X113307971Y-141856649D01*
X113340536Y-141808930D01*
X113345715Y-141811707D01*
X113374816Y-141757433D01*
X113397307Y-141706918D01*
X113410366Y-141691132D01*
X113415883Y-141680843D01*
X113452753Y-141639895D01*
X113493535Y-141590598D01*
X113503171Y-141583901D01*
X113505122Y-141581734D01*
X113557700Y-141546002D01*
X113617500Y-141504440D01*
X113683435Y-141481479D01*
X113740424Y-141460285D01*
X113746223Y-141459614D01*
X113760067Y-141454793D01*
X113821037Y-141450957D01*
X113872909Y-141444955D01*
X113887381Y-141446783D01*
X113910734Y-141445314D01*
X113961992Y-141456209D01*
X114005218Y-141461670D01*
X114026974Y-141470021D01*
X114058399Y-141476701D01*
X114097154Y-141496961D01*
X114129724Y-141509464D01*
X114155993Y-141527721D01*
X114192185Y-141546642D01*
X114217727Y-141570628D01*
X114239239Y-141585579D01*
X114266135Y-141616086D01*
X114302233Y-141649985D01*
X114315865Y-141672493D01*
X114327433Y-141685615D01*
X114350288Y-141729333D01*
X114380437Y-141779114D01*
X114385164Y-141796043D01*
X114394110Y-141813156D01*
X114443004Y-141863852D01*
X114511545Y-141880065D01*
X114577971Y-141856649D01*
X114610536Y-141808930D01*
X114615715Y-141811707D01*
X114644816Y-141757433D01*
X114667307Y-141706918D01*
X114680366Y-141691132D01*
X114685883Y-141680843D01*
X114722753Y-141639895D01*
X114763535Y-141590598D01*
X114773171Y-141583901D01*
X114775122Y-141581734D01*
X114827700Y-141546002D01*
X114887500Y-141504440D01*
X114953435Y-141481479D01*
X115010424Y-141460285D01*
X115016223Y-141459614D01*
X115030067Y-141454793D01*
X115091037Y-141450957D01*
X115142909Y-141444955D01*
X115157381Y-141446783D01*
X115180734Y-141445314D01*
X115231992Y-141456209D01*
X115275218Y-141461670D01*
X115296974Y-141470021D01*
X115328399Y-141476701D01*
X115367154Y-141496961D01*
X115399724Y-141509464D01*
X115425993Y-141527721D01*
X115462185Y-141546642D01*
X115487727Y-141570628D01*
X115509239Y-141585579D01*
X115536135Y-141616086D01*
X115572233Y-141649985D01*
X115585865Y-141672493D01*
X115597433Y-141685615D01*
X115620288Y-141729333D01*
X115650437Y-141779114D01*
X115655164Y-141796043D01*
X115664110Y-141813156D01*
X115713004Y-141863852D01*
X115781545Y-141880065D01*
X115847971Y-141856649D01*
X115880536Y-141808930D01*
X115885715Y-141811707D01*
X115914816Y-141757433D01*
X115937307Y-141706918D01*
X115950366Y-141691132D01*
X115955883Y-141680843D01*
X115992753Y-141639895D01*
X116033535Y-141590598D01*
X116043171Y-141583901D01*
X116045122Y-141581734D01*
X116097700Y-141546002D01*
X116157500Y-141504440D01*
X116223435Y-141481479D01*
X116280424Y-141460285D01*
X116286223Y-141459614D01*
X116300067Y-141454793D01*
X116361037Y-141450957D01*
X116412909Y-141444955D01*
X116427381Y-141446783D01*
X116450734Y-141445314D01*
X116501992Y-141456209D01*
X116545218Y-141461670D01*
X116566974Y-141470021D01*
X116598399Y-141476701D01*
X116637154Y-141496961D01*
X116669724Y-141509464D01*
X116695993Y-141527721D01*
X116732185Y-141546642D01*
X116757727Y-141570628D01*
X116779239Y-141585579D01*
X116806135Y-141616086D01*
X116842233Y-141649985D01*
X116855865Y-141672493D01*
X116867433Y-141685615D01*
X116890288Y-141729333D01*
X116920437Y-141779114D01*
X116925164Y-141796043D01*
X116934110Y-141813156D01*
X116983004Y-141863852D01*
X117051545Y-141880065D01*
X117117971Y-141856649D01*
X117150536Y-141808930D01*
X117155715Y-141811707D01*
X117184816Y-141757433D01*
X117207307Y-141706918D01*
X117220366Y-141691132D01*
X117225883Y-141680843D01*
X117262753Y-141639895D01*
X117303535Y-141590598D01*
X117313171Y-141583901D01*
X117315122Y-141581734D01*
X117367700Y-141546002D01*
X117427500Y-141504440D01*
X117493435Y-141481479D01*
X117550424Y-141460285D01*
X117556223Y-141459614D01*
X117570067Y-141454793D01*
X117631037Y-141450957D01*
X117682909Y-141444955D01*
X117697381Y-141446783D01*
X117720734Y-141445314D01*
X117771992Y-141456209D01*
X117815218Y-141461670D01*
X117836974Y-141470021D01*
X117868399Y-141476701D01*
X117907154Y-141496961D01*
X117939724Y-141509464D01*
X117965993Y-141527721D01*
X118002185Y-141546642D01*
X118027727Y-141570628D01*
X118049239Y-141585579D01*
X118076135Y-141616086D01*
X118112233Y-141649985D01*
X118125865Y-141672493D01*
X118137433Y-141685615D01*
X118160288Y-141729333D01*
X118190437Y-141779114D01*
X118195164Y-141796043D01*
X118204110Y-141813156D01*
X118253004Y-141863852D01*
X118321545Y-141880065D01*
X118387971Y-141856649D01*
X118420536Y-141808930D01*
X118425715Y-141811707D01*
X118454816Y-141757433D01*
X118477307Y-141706918D01*
X118490366Y-141691132D01*
X118495883Y-141680843D01*
X118532753Y-141639895D01*
X118573535Y-141590598D01*
X118583171Y-141583901D01*
X118585122Y-141581734D01*
X118637700Y-141546002D01*
X118697500Y-141504440D01*
X118763435Y-141481479D01*
X118820424Y-141460285D01*
X118826223Y-141459614D01*
X118840067Y-141454793D01*
X118901037Y-141450957D01*
X118952909Y-141444955D01*
X118967381Y-141446783D01*
X118990734Y-141445314D01*
X119041992Y-141456209D01*
X119085218Y-141461670D01*
X119106974Y-141470021D01*
X119138399Y-141476701D01*
X119177154Y-141496961D01*
X119209724Y-141509464D01*
X119235993Y-141527721D01*
X119272185Y-141546642D01*
X119297727Y-141570628D01*
X119319239Y-141585579D01*
X119346135Y-141616086D01*
X119382233Y-141649985D01*
X119395865Y-141672493D01*
X119407433Y-141685615D01*
X119430288Y-141729333D01*
X119460437Y-141779114D01*
X119465164Y-141796043D01*
X119474110Y-141813156D01*
X119523004Y-141863852D01*
X119591545Y-141880065D01*
X119657971Y-141856649D01*
X119690536Y-141808930D01*
X119695715Y-141811707D01*
X119724816Y-141757433D01*
X119747307Y-141706918D01*
X119760366Y-141691132D01*
X119765883Y-141680843D01*
X119802753Y-141639895D01*
X119843535Y-141590598D01*
X119853171Y-141583901D01*
X119855122Y-141581734D01*
X119907700Y-141546002D01*
X119967500Y-141504440D01*
X120033435Y-141481479D01*
X120090424Y-141460285D01*
X120096223Y-141459614D01*
X120110067Y-141454793D01*
X120171037Y-141450957D01*
X120222909Y-141444955D01*
X120237381Y-141446783D01*
X120260734Y-141445314D01*
X120311992Y-141456209D01*
X120355218Y-141461670D01*
X120376974Y-141470021D01*
X120408399Y-141476701D01*
X120447154Y-141496961D01*
X120479724Y-141509464D01*
X120505993Y-141527721D01*
X120542185Y-141546642D01*
X120567727Y-141570628D01*
X120589239Y-141585579D01*
X120616135Y-141616086D01*
X120652233Y-141649985D01*
X120665865Y-141672493D01*
X120677433Y-141685615D01*
X120700288Y-141729333D01*
X120730437Y-141779114D01*
X120735164Y-141796043D01*
X120744110Y-141813156D01*
X120793004Y-141863852D01*
X120861545Y-141880065D01*
X120927971Y-141856649D01*
X120960536Y-141808930D01*
X120965715Y-141811707D01*
X120994816Y-141757433D01*
X121017307Y-141706918D01*
X121030366Y-141691132D01*
X121035883Y-141680843D01*
X121072753Y-141639895D01*
X121113535Y-141590598D01*
X121123171Y-141583901D01*
X121125122Y-141581734D01*
X121177700Y-141546002D01*
X121237500Y-141504440D01*
X121303435Y-141481479D01*
X121360424Y-141460285D01*
X121366223Y-141459614D01*
X121380067Y-141454793D01*
X121441037Y-141450957D01*
X121492909Y-141444955D01*
X121507381Y-141446783D01*
X121530734Y-141445314D01*
X121581992Y-141456209D01*
X121625218Y-141461670D01*
X121646974Y-141470021D01*
X121678399Y-141476701D01*
X121717154Y-141496961D01*
X121749724Y-141509464D01*
X121775993Y-141527721D01*
X121812185Y-141546642D01*
X121837727Y-141570628D01*
X121859239Y-141585579D01*
X121886135Y-141616086D01*
X121922233Y-141649985D01*
X121935865Y-141672493D01*
X121947433Y-141685615D01*
X121970288Y-141729333D01*
X122000437Y-141779114D01*
X122005164Y-141796043D01*
X122014110Y-141813156D01*
X122063004Y-141863852D01*
X122131545Y-141880065D01*
X122197971Y-141856649D01*
X122230536Y-141808930D01*
X122235715Y-141811707D01*
X122264816Y-141757433D01*
X122287307Y-141706918D01*
X122300366Y-141691132D01*
X122305883Y-141680843D01*
X122342753Y-141639895D01*
X122383535Y-141590598D01*
X122393171Y-141583901D01*
X122395122Y-141581734D01*
X122447700Y-141546002D01*
X122507500Y-141504440D01*
X122573435Y-141481479D01*
X122630424Y-141460285D01*
X122636223Y-141459614D01*
X122650067Y-141454793D01*
X122711037Y-141450957D01*
X122762909Y-141444955D01*
X122777381Y-141446783D01*
X122800734Y-141445314D01*
X122851992Y-141456209D01*
X122895218Y-141461670D01*
X122916974Y-141470021D01*
X122948399Y-141476701D01*
X122987154Y-141496961D01*
X123019724Y-141509464D01*
X123045993Y-141527721D01*
X123082185Y-141546642D01*
X123107727Y-141570628D01*
X123129239Y-141585579D01*
X123156135Y-141616086D01*
X123192233Y-141649985D01*
X123205865Y-141672493D01*
X123217433Y-141685615D01*
X123240288Y-141729333D01*
X123270437Y-141779114D01*
X123275164Y-141796043D01*
X123284110Y-141813156D01*
X123333004Y-141863852D01*
X123401545Y-141880065D01*
X123467971Y-141856649D01*
X123500536Y-141808930D01*
X123505715Y-141811707D01*
X123534816Y-141757433D01*
X123557307Y-141706918D01*
X123570366Y-141691132D01*
X123575883Y-141680843D01*
X123612753Y-141639895D01*
X123653535Y-141590598D01*
X123663171Y-141583901D01*
X123665122Y-141581734D01*
X123717700Y-141546002D01*
X123777500Y-141504440D01*
X123843435Y-141481479D01*
X123900424Y-141460285D01*
X123906223Y-141459614D01*
X123920067Y-141454793D01*
X123981037Y-141450957D01*
X124032909Y-141444955D01*
X124047381Y-141446783D01*
X124070734Y-141445314D01*
X124121992Y-141456209D01*
X124165218Y-141461670D01*
X124186974Y-141470021D01*
X124218399Y-141476701D01*
X124257154Y-141496961D01*
X124289724Y-141509464D01*
X124315993Y-141527721D01*
X124352185Y-141546642D01*
X124377727Y-141570628D01*
X124399239Y-141585579D01*
X124426135Y-141616086D01*
X124462233Y-141649985D01*
X124475865Y-141672493D01*
X124487433Y-141685615D01*
X124510288Y-141729333D01*
X124540437Y-141779114D01*
X124545164Y-141796043D01*
X124554110Y-141813156D01*
X124603004Y-141863852D01*
X124671545Y-141880065D01*
X124737971Y-141856649D01*
X124770536Y-141808930D01*
X124775715Y-141811707D01*
X124804816Y-141757433D01*
X124827307Y-141706918D01*
X124840366Y-141691132D01*
X124845883Y-141680843D01*
X124882753Y-141639895D01*
X124923535Y-141590598D01*
X124933171Y-141583901D01*
X124935122Y-141581734D01*
X124987700Y-141546002D01*
X125047500Y-141504440D01*
X125113435Y-141481479D01*
X125170424Y-141460285D01*
X125176223Y-141459614D01*
X125190067Y-141454793D01*
X125251037Y-141450957D01*
X125302909Y-141444955D01*
X125317381Y-141446783D01*
X125340734Y-141445314D01*
X125391992Y-141456209D01*
X125435218Y-141461670D01*
X125456974Y-141470021D01*
X125488399Y-141476701D01*
X125527154Y-141496961D01*
X125559724Y-141509464D01*
X125585993Y-141527721D01*
X125622185Y-141546642D01*
X125647727Y-141570628D01*
X125669239Y-141585579D01*
X125696135Y-141616086D01*
X125732233Y-141649985D01*
X125745865Y-141672493D01*
X125757433Y-141685615D01*
X125780288Y-141729333D01*
X125810437Y-141779114D01*
X125815164Y-141796043D01*
X125824110Y-141813156D01*
X125873004Y-141863852D01*
X125941545Y-141880065D01*
X126007971Y-141856649D01*
X126040536Y-141808930D01*
X126045715Y-141811707D01*
X126074816Y-141757433D01*
X126097307Y-141706918D01*
X126110366Y-141691132D01*
X126115883Y-141680843D01*
X126152753Y-141639895D01*
X126193535Y-141590598D01*
X126203171Y-141583901D01*
X126205122Y-141581734D01*
X126257700Y-141546002D01*
X126317500Y-141504440D01*
X126383435Y-141481479D01*
X126440424Y-141460285D01*
X126446223Y-141459614D01*
X126460067Y-141454793D01*
X126521037Y-141450957D01*
X126572909Y-141444955D01*
X126587381Y-141446783D01*
X126610734Y-141445314D01*
X126661992Y-141456209D01*
X126705218Y-141461670D01*
X126726974Y-141470021D01*
X126758399Y-141476701D01*
X126797154Y-141496961D01*
X126829724Y-141509464D01*
X126855993Y-141527721D01*
X126892185Y-141546642D01*
X126917727Y-141570628D01*
X126939239Y-141585579D01*
X126966135Y-141616086D01*
X127002233Y-141649985D01*
X127015865Y-141672493D01*
X127027433Y-141685615D01*
X127050288Y-141729333D01*
X127080437Y-141779114D01*
X127085164Y-141796043D01*
X127094110Y-141813156D01*
X127143004Y-141863852D01*
X127211545Y-141880065D01*
X127277971Y-141856649D01*
X127310536Y-141808930D01*
X127315715Y-141811707D01*
X127344816Y-141757433D01*
X127367307Y-141706918D01*
X127380366Y-141691132D01*
X127385883Y-141680843D01*
X127422753Y-141639895D01*
X127463535Y-141590598D01*
X127473171Y-141583901D01*
X127475122Y-141581734D01*
X127527700Y-141546002D01*
X127587500Y-141504440D01*
X127653435Y-141481479D01*
X127710424Y-141460285D01*
X127716223Y-141459614D01*
X127730067Y-141454793D01*
X127791037Y-141450957D01*
X127842909Y-141444955D01*
X127857381Y-141446783D01*
X127880734Y-141445314D01*
X127931992Y-141456209D01*
X127975218Y-141461670D01*
X127996974Y-141470021D01*
X128028399Y-141476701D01*
X128067154Y-141496961D01*
X128099724Y-141509464D01*
X128125993Y-141527721D01*
X128162185Y-141546642D01*
X128187727Y-141570628D01*
X128209239Y-141585579D01*
X128236135Y-141616086D01*
X128272233Y-141649985D01*
X128285865Y-141672493D01*
X128297433Y-141685615D01*
X128320288Y-141729333D01*
X128350437Y-141779114D01*
X128355164Y-141796043D01*
X128364110Y-141813156D01*
X128413004Y-141863852D01*
X128481545Y-141880065D01*
X128547971Y-141856649D01*
X128580536Y-141808930D01*
X128585715Y-141811707D01*
X128614816Y-141757433D01*
X128637307Y-141706918D01*
X128650366Y-141691132D01*
X128655883Y-141680843D01*
X128692753Y-141639895D01*
X128733535Y-141590598D01*
X128743171Y-141583901D01*
X128745122Y-141581734D01*
X128797700Y-141546002D01*
X128857500Y-141504440D01*
X128923435Y-141481479D01*
X128980424Y-141460285D01*
X128986223Y-141459614D01*
X129000067Y-141454793D01*
X129061037Y-141450957D01*
X129112909Y-141444955D01*
X129127381Y-141446783D01*
X129150734Y-141445314D01*
X129201992Y-141456209D01*
X129245218Y-141461670D01*
X129266974Y-141470021D01*
X129298399Y-141476701D01*
X129337154Y-141496961D01*
X129369724Y-141509464D01*
X129395993Y-141527721D01*
X129432185Y-141546642D01*
X129457727Y-141570628D01*
X129479239Y-141585579D01*
X129506135Y-141616086D01*
X129542233Y-141649985D01*
X129555865Y-141672493D01*
X129567433Y-141685615D01*
X129590288Y-141729333D01*
X129620437Y-141779114D01*
X129625164Y-141796043D01*
X129634110Y-141813156D01*
X129683004Y-141863852D01*
X129751545Y-141880065D01*
X129817971Y-141856649D01*
X129850536Y-141808930D01*
X129855715Y-141811707D01*
X129884816Y-141757433D01*
X129907307Y-141706918D01*
X129920366Y-141691132D01*
X129925883Y-141680843D01*
X129962753Y-141639895D01*
X130003535Y-141590598D01*
X130013171Y-141583901D01*
X130015122Y-141581734D01*
X130067700Y-141546002D01*
X130127500Y-141504440D01*
X130193435Y-141481479D01*
X130250424Y-141460285D01*
X130256223Y-141459614D01*
X130270067Y-141454793D01*
X130331037Y-141450957D01*
X130382909Y-141444955D01*
X130397381Y-141446783D01*
X130420734Y-141445314D01*
X130471992Y-141456209D01*
X130515218Y-141461670D01*
X130536974Y-141470021D01*
X130568399Y-141476701D01*
X130607154Y-141496961D01*
X130639724Y-141509464D01*
X130665993Y-141527721D01*
X130702185Y-141546642D01*
X130727727Y-141570628D01*
X130749239Y-141585579D01*
X130776135Y-141616086D01*
X130812233Y-141649985D01*
X130825865Y-141672493D01*
X130837433Y-141685615D01*
X130860288Y-141729333D01*
X130890437Y-141779114D01*
X130895164Y-141796043D01*
X130904110Y-141813156D01*
X130953004Y-141863852D01*
X131021545Y-141880065D01*
X131087971Y-141856649D01*
X131120536Y-141808930D01*
X131125715Y-141811707D01*
X131154816Y-141757433D01*
X131177307Y-141706918D01*
X131190366Y-141691132D01*
X131195883Y-141680843D01*
X131232753Y-141639895D01*
X131273535Y-141590598D01*
X131283171Y-141583901D01*
X131285122Y-141581734D01*
X131337700Y-141546002D01*
X131397500Y-141504440D01*
X131463435Y-141481479D01*
X131520424Y-141460285D01*
X131526223Y-141459614D01*
X131540067Y-141454793D01*
X131601037Y-141450957D01*
X131652909Y-141444955D01*
X131667381Y-141446783D01*
X131690734Y-141445314D01*
X131741992Y-141456209D01*
X131785218Y-141461670D01*
X131806974Y-141470021D01*
X131838399Y-141476701D01*
X131877154Y-141496961D01*
X131909724Y-141509464D01*
X131935993Y-141527721D01*
X131972185Y-141546642D01*
X131997727Y-141570628D01*
X132019239Y-141585579D01*
X132046135Y-141616086D01*
X132082233Y-141649985D01*
X132095865Y-141672493D01*
X132107433Y-141685615D01*
X132130288Y-141729333D01*
X132160437Y-141779114D01*
X132165164Y-141796043D01*
X132174110Y-141813156D01*
X132223004Y-141863852D01*
X132291545Y-141880065D01*
X132357971Y-141856649D01*
X132390536Y-141808930D01*
X132395715Y-141811707D01*
X132424816Y-141757433D01*
X132447307Y-141706918D01*
X132460366Y-141691132D01*
X132465883Y-141680843D01*
X132502753Y-141639895D01*
X132543535Y-141590598D01*
X132553171Y-141583901D01*
X132555122Y-141581734D01*
X132607700Y-141546002D01*
X132667500Y-141504440D01*
X132733435Y-141481479D01*
X132790424Y-141460285D01*
X132796223Y-141459614D01*
X132810067Y-141454793D01*
X132871037Y-141450957D01*
X132922909Y-141444955D01*
X132937381Y-141446783D01*
X132960734Y-141445314D01*
X133011992Y-141456209D01*
X133055218Y-141461670D01*
X133076974Y-141470021D01*
X133108399Y-141476701D01*
X133147154Y-141496961D01*
X133179724Y-141509464D01*
X133205993Y-141527721D01*
X133242185Y-141546642D01*
X133267727Y-141570628D01*
X133289239Y-141585579D01*
X133316135Y-141616086D01*
X133352233Y-141649985D01*
X133365865Y-141672493D01*
X133377433Y-141685615D01*
X133400288Y-141729333D01*
X133430437Y-141779114D01*
X133435164Y-141796043D01*
X133444110Y-141813156D01*
X133493004Y-141863852D01*
X133561545Y-141880065D01*
X133627971Y-141856649D01*
X133660536Y-141808930D01*
X133665715Y-141811707D01*
X133694816Y-141757433D01*
X133717307Y-141706918D01*
X133730366Y-141691132D01*
X133735883Y-141680843D01*
X133772753Y-141639895D01*
X133813535Y-141590598D01*
X133823171Y-141583901D01*
X133825122Y-141581734D01*
X133877700Y-141546002D01*
X133937500Y-141504440D01*
X134003435Y-141481479D01*
X134060424Y-141460285D01*
X134066223Y-141459614D01*
X134080067Y-141454793D01*
X134141037Y-141450957D01*
X134192909Y-141444955D01*
X134207381Y-141446783D01*
X134230734Y-141445314D01*
X134281992Y-141456209D01*
X134325218Y-141461670D01*
X134346974Y-141470021D01*
X134378399Y-141476701D01*
X134417154Y-141496961D01*
X134449724Y-141509464D01*
X134475993Y-141527721D01*
X134512185Y-141546642D01*
X134537727Y-141570628D01*
X134559239Y-141585579D01*
X134586135Y-141616086D01*
X134622233Y-141649985D01*
X134635865Y-141672493D01*
X134647433Y-141685615D01*
X134670288Y-141729333D01*
X134700437Y-141779114D01*
X134705164Y-141796043D01*
X134714110Y-141813156D01*
X134763004Y-141863852D01*
X134831545Y-141880065D01*
X134897971Y-141856649D01*
X134930536Y-141808930D01*
X134935715Y-141811707D01*
X134964816Y-141757433D01*
X134987307Y-141706918D01*
X135000366Y-141691132D01*
X135005883Y-141680843D01*
X135042753Y-141639895D01*
X135083535Y-141590598D01*
X135093171Y-141583901D01*
X135095122Y-141581734D01*
X135147700Y-141546002D01*
X135207500Y-141504440D01*
X135273435Y-141481479D01*
X135330424Y-141460285D01*
X135336223Y-141459614D01*
X135350067Y-141454793D01*
X135411037Y-141450957D01*
X135462909Y-141444955D01*
X135477381Y-141446783D01*
X135500734Y-141445314D01*
X135551992Y-141456209D01*
X135595218Y-141461670D01*
X135616974Y-141470021D01*
X135648399Y-141476701D01*
X135687154Y-141496961D01*
X135719724Y-141509464D01*
X135745993Y-141527721D01*
X135782185Y-141546642D01*
X135807727Y-141570628D01*
X135829239Y-141585579D01*
X135856135Y-141616086D01*
X135892233Y-141649985D01*
X135905865Y-141672493D01*
X135917433Y-141685615D01*
X135940288Y-141729333D01*
X135970437Y-141779114D01*
X135975164Y-141796043D01*
X135984110Y-141813156D01*
X136033004Y-141863852D01*
X136101545Y-141880065D01*
X136167971Y-141856649D01*
X136200536Y-141808930D01*
X136205715Y-141811707D01*
X136234816Y-141757433D01*
X136257307Y-141706918D01*
X136270366Y-141691132D01*
X136275883Y-141680843D01*
X136312753Y-141639895D01*
X136353535Y-141590598D01*
X136363171Y-141583901D01*
X136365122Y-141581734D01*
X136417700Y-141546002D01*
X136477500Y-141504440D01*
X136543435Y-141481479D01*
X136600424Y-141460285D01*
X136606223Y-141459614D01*
X136620067Y-141454793D01*
X136681037Y-141450957D01*
X136732909Y-141444955D01*
X136747381Y-141446783D01*
G37*
G36*
X103369899Y-138101959D02*
G01*
X103386769Y-138113231D01*
X103398041Y-138130101D01*
X103404448Y-138162312D01*
X103404448Y-139837688D01*
X103401999Y-139850000D01*
X103398041Y-139869899D01*
X103386769Y-139886769D01*
X103369899Y-139898041D01*
X103350000Y-139901999D01*
X103337688Y-139904448D01*
X101662312Y-139904448D01*
X101630101Y-139898041D01*
X101613231Y-139886769D01*
X101601959Y-139869899D01*
X101595552Y-139837688D01*
X101595552Y-138162312D01*
X101601959Y-138130101D01*
X101613231Y-138113231D01*
X101630101Y-138101959D01*
X101662312Y-138095552D01*
X103337688Y-138095552D01*
X103369899Y-138101959D01*
G37*
G36*
X102549902Y-135559283D02*
G01*
X102594637Y-135559595D01*
X102638460Y-135568590D01*
X102688360Y-135573835D01*
X102730132Y-135587408D01*
X102767723Y-135595124D01*
X102814851Y-135614935D01*
X102868488Y-135632363D01*
X102901099Y-135651191D01*
X102930614Y-135663598D01*
X102978301Y-135695763D01*
X103032511Y-135727061D01*
X103055826Y-135748054D01*
X103077101Y-135762404D01*
X103122183Y-135807802D01*
X103173261Y-135853793D01*
X103188003Y-135874083D01*
X103201608Y-135887784D01*
X103240643Y-135946537D01*
X103284586Y-136007019D01*
X103292221Y-136024168D01*
X103299388Y-136034955D01*
X103328865Y-136106472D01*
X103361621Y-136180042D01*
X103364211Y-136192225D01*
X103366724Y-136198323D01*
X103383292Y-136281997D01*
X103400999Y-136365301D01*
X103400999Y-136554699D01*
X103398115Y-136568269D01*
X103398030Y-136574331D01*
X103379342Y-136656585D01*
X103361621Y-136739958D01*
X103359129Y-136745555D01*
X103359078Y-136745780D01*
X103287210Y-136907197D01*
X103287078Y-136907385D01*
X103284586Y-136912981D01*
X103234480Y-136981946D01*
X103185357Y-137051582D01*
X103180585Y-137056126D01*
X103173261Y-137066207D01*
X103113396Y-137120110D01*
X103057396Y-137173438D01*
X103046464Y-137180376D01*
X103032511Y-137192939D01*
X102967764Y-137230321D01*
X102908211Y-137268114D01*
X102890209Y-137275097D01*
X102868488Y-137287637D01*
X102803115Y-137308878D01*
X102743468Y-137332014D01*
X102718200Y-137336469D01*
X102688360Y-137346165D01*
X102626095Y-137352709D01*
X102569460Y-137362695D01*
X102537459Y-137362025D01*
X102500000Y-137365962D01*
X102443902Y-137360066D01*
X102392799Y-137358996D01*
X102355323Y-137350756D01*
X102311640Y-137346165D01*
X102263917Y-137330659D01*
X102220225Y-137321052D01*
X102179230Y-137303142D01*
X102131512Y-137287637D01*
X102093473Y-137265675D01*
X102058310Y-137250313D01*
X102016337Y-137221141D01*
X101967489Y-137192939D01*
X101939504Y-137167741D01*
X101913215Y-137149470D01*
X101873257Y-137108092D01*
X101826739Y-137066207D01*
X101808296Y-137040823D01*
X101790473Y-137022366D01*
X101755821Y-136968597D01*
X101715414Y-136912981D01*
X101705212Y-136890066D01*
X101694754Y-136873839D01*
X101668789Y-136808261D01*
X101638379Y-136739958D01*
X101634476Y-136721596D01*
X101629707Y-136709551D01*
X101615740Y-136633448D01*
X101599001Y-136554699D01*
X101599001Y-136542246D01*
X101597811Y-136535762D01*
X101599001Y-136450535D01*
X101599001Y-136365301D01*
X101600275Y-136359308D01*
X101600278Y-136359077D01*
X101637015Y-136186246D01*
X101637105Y-136186036D01*
X101638379Y-136180042D01*
X101673042Y-136102188D01*
X101706622Y-136023839D01*
X101710348Y-136018397D01*
X101715414Y-136007019D01*
X101762746Y-135941872D01*
X101806452Y-135878041D01*
X101815706Y-135868979D01*
X101826739Y-135853793D01*
X101882297Y-135803769D01*
X101932693Y-135754417D01*
X101948848Y-135743846D01*
X101967489Y-135727061D01*
X102027026Y-135692687D01*
X102080551Y-135657662D01*
X102104340Y-135648050D01*
X102131512Y-135632363D01*
X102191045Y-135613019D01*
X102244376Y-135591472D01*
X102275820Y-135585474D01*
X102311640Y-135573835D01*
X102367744Y-135567938D01*
X102417945Y-135558362D01*
X102456312Y-135558630D01*
X102500000Y-135554038D01*
X102549902Y-135559283D01*
G37*
G36*
X140471799Y-135317477D02*
G01*
X140499345Y-135319210D01*
X140536030Y-135331130D01*
X140579851Y-135340444D01*
X140604735Y-135353453D01*
X140625740Y-135360278D01*
X140662905Y-135383864D01*
X140707566Y-135407212D01*
X140723973Y-135422619D01*
X140737950Y-135431489D01*
X140771762Y-135467496D01*
X140812622Y-135505865D01*
X140821392Y-135520346D01*
X140828924Y-135528367D01*
X140855244Y-135576242D01*
X140887277Y-135629136D01*
X140890326Y-135640057D01*
X140892949Y-135644828D01*
X140907711Y-135702320D01*
X140926033Y-135767942D01*
X140925975Y-135773455D01*
X140926000Y-135773551D01*
X140926000Y-135906449D01*
X140924522Y-135912207D01*
X140924408Y-135923058D01*
X140906540Y-135982239D01*
X140892949Y-136035172D01*
X140887647Y-136044817D01*
X140882754Y-136061022D01*
X140852718Y-136108352D01*
X140828924Y-136151633D01*
X140817596Y-136163696D01*
X140805534Y-136182703D01*
X140768076Y-136216430D01*
X140737950Y-136248511D01*
X140719302Y-136260345D01*
X140698435Y-136279134D01*
X140658309Y-136299053D01*
X140625740Y-136319722D01*
X140599491Y-136328251D01*
X140569350Y-136343213D01*
X140530822Y-136350562D01*
X140499345Y-136360790D01*
X140466313Y-136362868D01*
X140427788Y-136370217D01*
X140394255Y-136367401D01*
X140366711Y-136369134D01*
X140328823Y-136361907D01*
X140284178Y-136358158D01*
X140257861Y-136348371D01*
X140236163Y-136344232D01*
X140196330Y-136325488D01*
X140149102Y-136307924D01*
X140130896Y-136294697D01*
X140115917Y-136287648D01*
X140077855Y-136256160D01*
X140032510Y-136223215D01*
X140021994Y-136209948D01*
X140013514Y-136202932D01*
X139981396Y-136158725D01*
X139942993Y-136110273D01*
X139938599Y-136099821D01*
X139935399Y-136095416D01*
X139913537Y-136040200D01*
X139887147Y-135977419D01*
X139869084Y-135834440D01*
X139879032Y-135767073D01*
X139886476Y-135708149D01*
X139888481Y-135703085D01*
X139890137Y-135691871D01*
X139915279Y-135635401D01*
X139935399Y-135584584D01*
X139941869Y-135575679D01*
X139948754Y-135560215D01*
X139984481Y-135517029D01*
X140013514Y-135477068D01*
X140026268Y-135466517D01*
X140040616Y-135449173D01*
X140082003Y-135420409D01*
X140115917Y-135392352D01*
X140135903Y-135382947D01*
X140158956Y-135366925D01*
X140201253Y-135352195D01*
X140236163Y-135335768D01*
X140263279Y-135330596D01*
X140295055Y-135319530D01*
X140334202Y-135317067D01*
X140366711Y-135310866D01*
X140399739Y-135312944D01*
X140438885Y-135310481D01*
X140471799Y-135317477D01*
G37*
G36*
X102549902Y-133019283D02*
G01*
X102594637Y-133019595D01*
X102638460Y-133028590D01*
X102688360Y-133033835D01*
X102730132Y-133047408D01*
X102767723Y-133055124D01*
X102814851Y-133074935D01*
X102868488Y-133092363D01*
X102901099Y-133111191D01*
X102930614Y-133123598D01*
X102978301Y-133155763D01*
X103032511Y-133187061D01*
X103055826Y-133208054D01*
X103077101Y-133222404D01*
X103122183Y-133267802D01*
X103173261Y-133313793D01*
X103188003Y-133334083D01*
X103201608Y-133347784D01*
X103240643Y-133406537D01*
X103284586Y-133467019D01*
X103292221Y-133484168D01*
X103299388Y-133494955D01*
X103328865Y-133566472D01*
X103361621Y-133640042D01*
X103364211Y-133652225D01*
X103366724Y-133658323D01*
X103383292Y-133741997D01*
X103400999Y-133825301D01*
X103400999Y-134014699D01*
X103398115Y-134028269D01*
X103398030Y-134034331D01*
X103379342Y-134116585D01*
X103361621Y-134199958D01*
X103359129Y-134205555D01*
X103359078Y-134205780D01*
X103287210Y-134367197D01*
X103287078Y-134367385D01*
X103284586Y-134372981D01*
X103234480Y-134441946D01*
X103185357Y-134511582D01*
X103180585Y-134516126D01*
X103173261Y-134526207D01*
X103113396Y-134580110D01*
X103057396Y-134633438D01*
X103046464Y-134640376D01*
X103032511Y-134652939D01*
X102967764Y-134690321D01*
X102908211Y-134728114D01*
X102890209Y-134735097D01*
X102868488Y-134747637D01*
X102803115Y-134768878D01*
X102743468Y-134792014D01*
X102718200Y-134796469D01*
X102688360Y-134806165D01*
X102626095Y-134812709D01*
X102569460Y-134822695D01*
X102537459Y-134822025D01*
X102500000Y-134825962D01*
X102443902Y-134820066D01*
X102392799Y-134818996D01*
X102355323Y-134810756D01*
X102311640Y-134806165D01*
X102263917Y-134790659D01*
X102220225Y-134781052D01*
X102179230Y-134763142D01*
X102131512Y-134747637D01*
X102093473Y-134725675D01*
X102058310Y-134710313D01*
X102016337Y-134681141D01*
X101967489Y-134652939D01*
X101939504Y-134627741D01*
X101913215Y-134609470D01*
X101873257Y-134568092D01*
X101826739Y-134526207D01*
X101808296Y-134500823D01*
X101790473Y-134482366D01*
X101755821Y-134428597D01*
X101715414Y-134372981D01*
X101705212Y-134350066D01*
X101694754Y-134333839D01*
X101668789Y-134268261D01*
X101638379Y-134199958D01*
X101634476Y-134181596D01*
X101629707Y-134169551D01*
X101615740Y-134093448D01*
X101599001Y-134014699D01*
X101599001Y-134002246D01*
X101597811Y-133995762D01*
X101599001Y-133910535D01*
X101599001Y-133825301D01*
X101600275Y-133819308D01*
X101600278Y-133819077D01*
X101637015Y-133646246D01*
X101637105Y-133646036D01*
X101638379Y-133640042D01*
X101673042Y-133562188D01*
X101706622Y-133483839D01*
X101710348Y-133478397D01*
X101715414Y-133467019D01*
X101762746Y-133401872D01*
X101806452Y-133338041D01*
X101815706Y-133328979D01*
X101826739Y-133313793D01*
X101882297Y-133263769D01*
X101932693Y-133214417D01*
X101948848Y-133203846D01*
X101967489Y-133187061D01*
X102027026Y-133152687D01*
X102080551Y-133117662D01*
X102104340Y-133108050D01*
X102131512Y-133092363D01*
X102191045Y-133073019D01*
X102244376Y-133051472D01*
X102275820Y-133045474D01*
X102311640Y-133033835D01*
X102367744Y-133027938D01*
X102417945Y-133018362D01*
X102456312Y-133018630D01*
X102500000Y-133014038D01*
X102549902Y-133019283D01*
G37*
G36*
X102549902Y-130479283D02*
G01*
X102594637Y-130479595D01*
X102638460Y-130488590D01*
X102688360Y-130493835D01*
X102730132Y-130507408D01*
X102767723Y-130515124D01*
X102814851Y-130534935D01*
X102868488Y-130552363D01*
X102901099Y-130571191D01*
X102930614Y-130583598D01*
X102978301Y-130615763D01*
X103032511Y-130647061D01*
X103055826Y-130668054D01*
X103077101Y-130682404D01*
X103122183Y-130727802D01*
X103173261Y-130773793D01*
X103188003Y-130794083D01*
X103201608Y-130807784D01*
X103240643Y-130866537D01*
X103284586Y-130927019D01*
X103292221Y-130944168D01*
X103299388Y-130954955D01*
X103328865Y-131026472D01*
X103361621Y-131100042D01*
X103364211Y-131112225D01*
X103366724Y-131118323D01*
X103383292Y-131201997D01*
X103400999Y-131285301D01*
X103400999Y-131474699D01*
X103398115Y-131488269D01*
X103398030Y-131494331D01*
X103379342Y-131576585D01*
X103361621Y-131659958D01*
X103359129Y-131665555D01*
X103359078Y-131665780D01*
X103287210Y-131827197D01*
X103287078Y-131827385D01*
X103284586Y-131832981D01*
X103234480Y-131901946D01*
X103185357Y-131971582D01*
X103180585Y-131976126D01*
X103173261Y-131986207D01*
X103113396Y-132040110D01*
X103057396Y-132093438D01*
X103046464Y-132100376D01*
X103032511Y-132112939D01*
X102967764Y-132150321D01*
X102908211Y-132188114D01*
X102890209Y-132195097D01*
X102868488Y-132207637D01*
X102803115Y-132228878D01*
X102743468Y-132252014D01*
X102718200Y-132256469D01*
X102688360Y-132266165D01*
X102626095Y-132272709D01*
X102569460Y-132282695D01*
X102537459Y-132282025D01*
X102500000Y-132285962D01*
X102443902Y-132280066D01*
X102392799Y-132278996D01*
X102355323Y-132270756D01*
X102311640Y-132266165D01*
X102263917Y-132250659D01*
X102220225Y-132241052D01*
X102179230Y-132223142D01*
X102131512Y-132207637D01*
X102093473Y-132185675D01*
X102058310Y-132170313D01*
X102016337Y-132141141D01*
X101967489Y-132112939D01*
X101939504Y-132087741D01*
X101913215Y-132069470D01*
X101873257Y-132028092D01*
X101826739Y-131986207D01*
X101808296Y-131960823D01*
X101790473Y-131942366D01*
X101755821Y-131888597D01*
X101715414Y-131832981D01*
X101705212Y-131810066D01*
X101694754Y-131793839D01*
X101668789Y-131728261D01*
X101638379Y-131659958D01*
X101634476Y-131641596D01*
X101629707Y-131629551D01*
X101615740Y-131553448D01*
X101599001Y-131474699D01*
X101599001Y-131462246D01*
X101597811Y-131455762D01*
X101599001Y-131370535D01*
X101599001Y-131285301D01*
X101600275Y-131279308D01*
X101600278Y-131279077D01*
X101637015Y-131106246D01*
X101637105Y-131106036D01*
X101638379Y-131100042D01*
X101673042Y-131022188D01*
X101706622Y-130943839D01*
X101710348Y-130938397D01*
X101715414Y-130927019D01*
X101762746Y-130861872D01*
X101806452Y-130798041D01*
X101815706Y-130788979D01*
X101826739Y-130773793D01*
X101882297Y-130723769D01*
X101932693Y-130674417D01*
X101948848Y-130663846D01*
X101967489Y-130647061D01*
X102027026Y-130612687D01*
X102080551Y-130577662D01*
X102104340Y-130568050D01*
X102131512Y-130552363D01*
X102191045Y-130533019D01*
X102244376Y-130511472D01*
X102275820Y-130505474D01*
X102311640Y-130493835D01*
X102367744Y-130487938D01*
X102417945Y-130478362D01*
X102456312Y-130478630D01*
X102500000Y-130474038D01*
X102549902Y-130479283D01*
G37*
G36*
X102549902Y-127939283D02*
G01*
X102594637Y-127939595D01*
X102638460Y-127948590D01*
X102688360Y-127953835D01*
X102730132Y-127967408D01*
X102767723Y-127975124D01*
X102814851Y-127994935D01*
X102868488Y-128012363D01*
X102901099Y-128031191D01*
X102930614Y-128043598D01*
X102978301Y-128075763D01*
X103032511Y-128107061D01*
X103055826Y-128128054D01*
X103077101Y-128142404D01*
X103122183Y-128187802D01*
X103173261Y-128233793D01*
X103188003Y-128254083D01*
X103201608Y-128267784D01*
X103240643Y-128326537D01*
X103284586Y-128387019D01*
X103292221Y-128404168D01*
X103299388Y-128414955D01*
X103328865Y-128486472D01*
X103361621Y-128560042D01*
X103364211Y-128572225D01*
X103366724Y-128578323D01*
X103383292Y-128661997D01*
X103400999Y-128745301D01*
X103400999Y-128934699D01*
X103398115Y-128948269D01*
X103398030Y-128954331D01*
X103379342Y-129036585D01*
X103361621Y-129119958D01*
X103359129Y-129125555D01*
X103359078Y-129125780D01*
X103287210Y-129287197D01*
X103287078Y-129287385D01*
X103284586Y-129292981D01*
X103234480Y-129361946D01*
X103185357Y-129431582D01*
X103180585Y-129436126D01*
X103173261Y-129446207D01*
X103113396Y-129500110D01*
X103057396Y-129553438D01*
X103046464Y-129560376D01*
X103032511Y-129572939D01*
X102967764Y-129610321D01*
X102908211Y-129648114D01*
X102890209Y-129655097D01*
X102868488Y-129667637D01*
X102803115Y-129688878D01*
X102743468Y-129712014D01*
X102718200Y-129716469D01*
X102688360Y-129726165D01*
X102626095Y-129732709D01*
X102569460Y-129742695D01*
X102537459Y-129742025D01*
X102500000Y-129745962D01*
X102443902Y-129740066D01*
X102392799Y-129738996D01*
X102355323Y-129730756D01*
X102311640Y-129726165D01*
X102263917Y-129710659D01*
X102220225Y-129701052D01*
X102179230Y-129683142D01*
X102131512Y-129667637D01*
X102093473Y-129645675D01*
X102058310Y-129630313D01*
X102016337Y-129601141D01*
X101967489Y-129572939D01*
X101939504Y-129547741D01*
X101913215Y-129529470D01*
X101873257Y-129488092D01*
X101826739Y-129446207D01*
X101808296Y-129420823D01*
X101790473Y-129402366D01*
X101755821Y-129348597D01*
X101715414Y-129292981D01*
X101705212Y-129270066D01*
X101694754Y-129253839D01*
X101668789Y-129188261D01*
X101638379Y-129119958D01*
X101634476Y-129101596D01*
X101629707Y-129089551D01*
X101615740Y-129013448D01*
X101599001Y-128934699D01*
X101599001Y-128922246D01*
X101597811Y-128915762D01*
X101599001Y-128830535D01*
X101599001Y-128745301D01*
X101600275Y-128739308D01*
X101600278Y-128739077D01*
X101637015Y-128566246D01*
X101637105Y-128566036D01*
X101638379Y-128560042D01*
X101673042Y-128482188D01*
X101706622Y-128403839D01*
X101710348Y-128398397D01*
X101715414Y-128387019D01*
X101762746Y-128321872D01*
X101806452Y-128258041D01*
X101815706Y-128248979D01*
X101826739Y-128233793D01*
X101882297Y-128183769D01*
X101932693Y-128134417D01*
X101948848Y-128123846D01*
X101967489Y-128107061D01*
X102027026Y-128072687D01*
X102080551Y-128037662D01*
X102104340Y-128028050D01*
X102131512Y-128012363D01*
X102191045Y-127993019D01*
X102244376Y-127971472D01*
X102275820Y-127965474D01*
X102311640Y-127953835D01*
X102367744Y-127947938D01*
X102417945Y-127938362D01*
X102456312Y-127938630D01*
X102500000Y-127934038D01*
X102549902Y-127939283D01*
G37*
G36*
X132144940Y-126414000D02*
G01*
X132167472Y-126414000D01*
X132210097Y-126427850D01*
X132245660Y-126435409D01*
X132265856Y-126445967D01*
X132295811Y-126455700D01*
X132324898Y-126476833D01*
X132349099Y-126489485D01*
X132372303Y-126511275D01*
X132404982Y-126535018D01*
X132420864Y-126556877D01*
X132434181Y-126569383D01*
X132455372Y-126604373D01*
X132484300Y-126644189D01*
X132489873Y-126661342D01*
X132494647Y-126669224D01*
X132508161Y-126717625D01*
X132526000Y-126772528D01*
X132526000Y-126907472D01*
X132507033Y-126965847D01*
X132490983Y-127019006D01*
X132488477Y-127022954D01*
X132484300Y-127035811D01*
X132452831Y-127079124D01*
X132428442Y-127117555D01*
X132418226Y-127126754D01*
X132404982Y-127144982D01*
X132368724Y-127171325D01*
X132341703Y-127195655D01*
X132321291Y-127205788D01*
X132295811Y-127224300D01*
X132261615Y-127235411D01*
X132237157Y-127247552D01*
X132205895Y-127253516D01*
X132167472Y-127266000D01*
X132140450Y-127266000D01*
X132122506Y-127269423D01*
X132081742Y-127266000D01*
X132032528Y-127266000D01*
X132015377Y-127260427D01*
X132006193Y-127259656D01*
X131959092Y-127242139D01*
X131904189Y-127224300D01*
X131896916Y-127219016D01*
X131896798Y-127218972D01*
X131802370Y-127150366D01*
X131802291Y-127150266D01*
X131795018Y-127144982D01*
X131761085Y-127098277D01*
X131729869Y-127058893D01*
X131726298Y-127050398D01*
X131715700Y-127035811D01*
X131700495Y-126989015D01*
X131684639Y-126951295D01*
X131682349Y-126933167D01*
X131674000Y-126907472D01*
X131674000Y-126867082D01*
X131670010Y-126835499D01*
X131674000Y-126808480D01*
X131674000Y-126772528D01*
X131683733Y-126742573D01*
X131687062Y-126720030D01*
X131701849Y-126686817D01*
X131715700Y-126644189D01*
X131728945Y-126625959D01*
X131734536Y-126613401D01*
X131763554Y-126578324D01*
X131795018Y-126535018D01*
X131805951Y-126527074D01*
X131808934Y-126523469D01*
X131854548Y-126491767D01*
X131904189Y-126455700D01*
X131962568Y-126436732D01*
X132015005Y-126418471D01*
X132019671Y-126418177D01*
X132032528Y-126414000D01*
X132086068Y-126414000D01*
X132131494Y-126411142D01*
X132144940Y-126414000D01*
G37*
G36*
X102549902Y-122969283D02*
G01*
X102594637Y-122969595D01*
X102638460Y-122978590D01*
X102688360Y-122983835D01*
X102730132Y-122997408D01*
X102767723Y-123005124D01*
X102814851Y-123024935D01*
X102868488Y-123042363D01*
X102901099Y-123061191D01*
X102930614Y-123073598D01*
X102978301Y-123105763D01*
X103032511Y-123137061D01*
X103055826Y-123158054D01*
X103077101Y-123172404D01*
X103122183Y-123217802D01*
X103173261Y-123263793D01*
X103188003Y-123284083D01*
X103201608Y-123297784D01*
X103240643Y-123356537D01*
X103284586Y-123417019D01*
X103292221Y-123434168D01*
X103299388Y-123444955D01*
X103328865Y-123516472D01*
X103361621Y-123590042D01*
X103364211Y-123602225D01*
X103366724Y-123608323D01*
X103383292Y-123691997D01*
X103400999Y-123775301D01*
X103400999Y-123964699D01*
X103398115Y-123978269D01*
X103398030Y-123984331D01*
X103379342Y-124066585D01*
X103361621Y-124149958D01*
X103359129Y-124155555D01*
X103359078Y-124155780D01*
X103287210Y-124317197D01*
X103287078Y-124317385D01*
X103284586Y-124322981D01*
X103234480Y-124391946D01*
X103185357Y-124461582D01*
X103180585Y-124466126D01*
X103173261Y-124476207D01*
X103113396Y-124530110D01*
X103057396Y-124583438D01*
X103046464Y-124590376D01*
X103032511Y-124602939D01*
X102967764Y-124640321D01*
X102908211Y-124678114D01*
X102890209Y-124685097D01*
X102868488Y-124697637D01*
X102803115Y-124718878D01*
X102743468Y-124742014D01*
X102718200Y-124746469D01*
X102688360Y-124756165D01*
X102626095Y-124762709D01*
X102569460Y-124772695D01*
X102537459Y-124772025D01*
X102500000Y-124775962D01*
X102443902Y-124770066D01*
X102392799Y-124768996D01*
X102355323Y-124760756D01*
X102311640Y-124756165D01*
X102263917Y-124740659D01*
X102220225Y-124731052D01*
X102179230Y-124713142D01*
X102131512Y-124697637D01*
X102093473Y-124675675D01*
X102058310Y-124660313D01*
X102016337Y-124631141D01*
X101967489Y-124602939D01*
X101939504Y-124577741D01*
X101913215Y-124559470D01*
X101873257Y-124518092D01*
X101826739Y-124476207D01*
X101808296Y-124450823D01*
X101790473Y-124432366D01*
X101755821Y-124378597D01*
X101715414Y-124322981D01*
X101705212Y-124300066D01*
X101694754Y-124283839D01*
X101668789Y-124218261D01*
X101638379Y-124149958D01*
X101634476Y-124131596D01*
X101629707Y-124119551D01*
X101615740Y-124043448D01*
X101599001Y-123964699D01*
X101599001Y-123952246D01*
X101597811Y-123945762D01*
X101599001Y-123860535D01*
X101599001Y-123775301D01*
X101600275Y-123769308D01*
X101600278Y-123769077D01*
X101637015Y-123596246D01*
X101637105Y-123596036D01*
X101638379Y-123590042D01*
X101673042Y-123512188D01*
X101706622Y-123433839D01*
X101710348Y-123428397D01*
X101715414Y-123417019D01*
X101762746Y-123351872D01*
X101806452Y-123288041D01*
X101815706Y-123278979D01*
X101826739Y-123263793D01*
X101882297Y-123213769D01*
X101932693Y-123164417D01*
X101948848Y-123153846D01*
X101967489Y-123137061D01*
X102027026Y-123102687D01*
X102080551Y-123067662D01*
X102104340Y-123058050D01*
X102131512Y-123042363D01*
X102191045Y-123023019D01*
X102244376Y-123001472D01*
X102275820Y-122995474D01*
X102311640Y-122983835D01*
X102367744Y-122977938D01*
X102417945Y-122968362D01*
X102456312Y-122968630D01*
X102500000Y-122964038D01*
X102549902Y-122969283D01*
G37*
G36*
X102549902Y-120429283D02*
G01*
X102594637Y-120429595D01*
X102638460Y-120438590D01*
X102688360Y-120443835D01*
X102730132Y-120457408D01*
X102767723Y-120465124D01*
X102814851Y-120484935D01*
X102868488Y-120502363D01*
X102901099Y-120521191D01*
X102930614Y-120533598D01*
X102978301Y-120565763D01*
X103032511Y-120597061D01*
X103055826Y-120618054D01*
X103077101Y-120632404D01*
X103122183Y-120677802D01*
X103173261Y-120723793D01*
X103188003Y-120744083D01*
X103201608Y-120757784D01*
X103240643Y-120816537D01*
X103284586Y-120877019D01*
X103292221Y-120894168D01*
X103299388Y-120904955D01*
X103328865Y-120976472D01*
X103361621Y-121050042D01*
X103364211Y-121062225D01*
X103366724Y-121068323D01*
X103383292Y-121151997D01*
X103400999Y-121235301D01*
X103400999Y-121424699D01*
X103398115Y-121438269D01*
X103398030Y-121444331D01*
X103379342Y-121526585D01*
X103361621Y-121609958D01*
X103359129Y-121615555D01*
X103359078Y-121615780D01*
X103287210Y-121777197D01*
X103287078Y-121777385D01*
X103284586Y-121782981D01*
X103234480Y-121851946D01*
X103185357Y-121921582D01*
X103180585Y-121926126D01*
X103173261Y-121936207D01*
X103113396Y-121990110D01*
X103057396Y-122043438D01*
X103046464Y-122050376D01*
X103032511Y-122062939D01*
X102967764Y-122100321D01*
X102908211Y-122138114D01*
X102890209Y-122145097D01*
X102868488Y-122157637D01*
X102803115Y-122178878D01*
X102743468Y-122202014D01*
X102718200Y-122206469D01*
X102688360Y-122216165D01*
X102626095Y-122222709D01*
X102569460Y-122232695D01*
X102537459Y-122232025D01*
X102500000Y-122235962D01*
X102443902Y-122230066D01*
X102392799Y-122228996D01*
X102355323Y-122220756D01*
X102311640Y-122216165D01*
X102263917Y-122200659D01*
X102220225Y-122191052D01*
X102179230Y-122173142D01*
X102131512Y-122157637D01*
X102093473Y-122135675D01*
X102058310Y-122120313D01*
X102016337Y-122091141D01*
X101967489Y-122062939D01*
X101939504Y-122037741D01*
X101913215Y-122019470D01*
X101873257Y-121978092D01*
X101826739Y-121936207D01*
X101808296Y-121910823D01*
X101790473Y-121892366D01*
X101755821Y-121838597D01*
X101715414Y-121782981D01*
X101705212Y-121760066D01*
X101694754Y-121743839D01*
X101668789Y-121678261D01*
X101638379Y-121609958D01*
X101634476Y-121591596D01*
X101629707Y-121579551D01*
X101615740Y-121503448D01*
X101599001Y-121424699D01*
X101599001Y-121412246D01*
X101597811Y-121405762D01*
X101599001Y-121320535D01*
X101599001Y-121235301D01*
X101600275Y-121229308D01*
X101600278Y-121229077D01*
X101637015Y-121056246D01*
X101637105Y-121056036D01*
X101638379Y-121050042D01*
X101673042Y-120972188D01*
X101706622Y-120893839D01*
X101710348Y-120888397D01*
X101715414Y-120877019D01*
X101762746Y-120811872D01*
X101806452Y-120748041D01*
X101815706Y-120738979D01*
X101826739Y-120723793D01*
X101882297Y-120673769D01*
X101932693Y-120624417D01*
X101948848Y-120613846D01*
X101967489Y-120597061D01*
X102027026Y-120562687D01*
X102080551Y-120527662D01*
X102104340Y-120518050D01*
X102131512Y-120502363D01*
X102191045Y-120483019D01*
X102244376Y-120461472D01*
X102275820Y-120455474D01*
X102311640Y-120443835D01*
X102367744Y-120437938D01*
X102417945Y-120428362D01*
X102456312Y-120428630D01*
X102500000Y-120424038D01*
X102549902Y-120429283D01*
G37*
G36*
X102549902Y-117889283D02*
G01*
X102594637Y-117889595D01*
X102638460Y-117898590D01*
X102688360Y-117903835D01*
X102730132Y-117917408D01*
X102767723Y-117925124D01*
X102814851Y-117944935D01*
X102868488Y-117962363D01*
X102901099Y-117981191D01*
X102930614Y-117993598D01*
X102978301Y-118025763D01*
X103032511Y-118057061D01*
X103055826Y-118078054D01*
X103077101Y-118092404D01*
X103122183Y-118137802D01*
X103173261Y-118183793D01*
X103188003Y-118204083D01*
X103201608Y-118217784D01*
X103240643Y-118276537D01*
X103284586Y-118337019D01*
X103292221Y-118354168D01*
X103299388Y-118364955D01*
X103328865Y-118436472D01*
X103361621Y-118510042D01*
X103364211Y-118522225D01*
X103366724Y-118528323D01*
X103383292Y-118611997D01*
X103400999Y-118695301D01*
X103400999Y-118884699D01*
X103398115Y-118898269D01*
X103398030Y-118904331D01*
X103379342Y-118986585D01*
X103361621Y-119069958D01*
X103359129Y-119075555D01*
X103359078Y-119075780D01*
X103287210Y-119237197D01*
X103287078Y-119237385D01*
X103284586Y-119242981D01*
X103234480Y-119311946D01*
X103185357Y-119381582D01*
X103180585Y-119386126D01*
X103173261Y-119396207D01*
X103113396Y-119450110D01*
X103057396Y-119503438D01*
X103046464Y-119510376D01*
X103032511Y-119522939D01*
X102967764Y-119560321D01*
X102908211Y-119598114D01*
X102890209Y-119605097D01*
X102868488Y-119617637D01*
X102803115Y-119638878D01*
X102743468Y-119662014D01*
X102718200Y-119666469D01*
X102688360Y-119676165D01*
X102626095Y-119682709D01*
X102569460Y-119692695D01*
X102537459Y-119692025D01*
X102500000Y-119695962D01*
X102443902Y-119690066D01*
X102392799Y-119688996D01*
X102355323Y-119680756D01*
X102311640Y-119676165D01*
X102263917Y-119660659D01*
X102220225Y-119651052D01*
X102179230Y-119633142D01*
X102131512Y-119617637D01*
X102093473Y-119595675D01*
X102058310Y-119580313D01*
X102016337Y-119551141D01*
X101967489Y-119522939D01*
X101939504Y-119497741D01*
X101913215Y-119479470D01*
X101873257Y-119438092D01*
X101826739Y-119396207D01*
X101808296Y-119370823D01*
X101790473Y-119352366D01*
X101755821Y-119298597D01*
X101715414Y-119242981D01*
X101705212Y-119220066D01*
X101694754Y-119203839D01*
X101668789Y-119138261D01*
X101638379Y-119069958D01*
X101634476Y-119051596D01*
X101629707Y-119039551D01*
X101615740Y-118963448D01*
X101599001Y-118884699D01*
X101599001Y-118872246D01*
X101597811Y-118865762D01*
X101599001Y-118780535D01*
X101599001Y-118695301D01*
X101600275Y-118689308D01*
X101600278Y-118689077D01*
X101637015Y-118516246D01*
X101637105Y-118516036D01*
X101638379Y-118510042D01*
X101673042Y-118432188D01*
X101706622Y-118353839D01*
X101710348Y-118348397D01*
X101715414Y-118337019D01*
X101762746Y-118271872D01*
X101806452Y-118208041D01*
X101815706Y-118198979D01*
X101826739Y-118183793D01*
X101882297Y-118133769D01*
X101932693Y-118084417D01*
X101948848Y-118073846D01*
X101967489Y-118057061D01*
X102027026Y-118022687D01*
X102080551Y-117987662D01*
X102104340Y-117978050D01*
X102131512Y-117962363D01*
X102191045Y-117943019D01*
X102244376Y-117921472D01*
X102275820Y-117915474D01*
X102311640Y-117903835D01*
X102367744Y-117897938D01*
X102417945Y-117888362D01*
X102456312Y-117888630D01*
X102500000Y-117884038D01*
X102549902Y-117889283D01*
G37*
G36*
X103369899Y-115351959D02*
G01*
X103386769Y-115363231D01*
X103398041Y-115380101D01*
X103404448Y-115412312D01*
X103404448Y-117087688D01*
X103401999Y-117100000D01*
X103398041Y-117119899D01*
X103386769Y-117136769D01*
X103369899Y-117148041D01*
X103350000Y-117151999D01*
X103337688Y-117154448D01*
X101662312Y-117154448D01*
X101630101Y-117148041D01*
X101613231Y-117136769D01*
X101601959Y-117119899D01*
X101595552Y-117087688D01*
X101595552Y-115412312D01*
X101601959Y-115380101D01*
X101613231Y-115363231D01*
X101630101Y-115351959D01*
X101662312Y-115345552D01*
X103337688Y-115345552D01*
X103369899Y-115351959D01*
G37*
G36*
X103369899Y-109851959D02*
G01*
X103386769Y-109863231D01*
X103398041Y-109880101D01*
X103404448Y-109912312D01*
X103404448Y-111587688D01*
X103401999Y-111600000D01*
X103398041Y-111619899D01*
X103386769Y-111636769D01*
X103369899Y-111648041D01*
X103350000Y-111651999D01*
X103337688Y-111654448D01*
X101662312Y-111654448D01*
X101630101Y-111648041D01*
X101613231Y-111636769D01*
X101601959Y-111619899D01*
X101595552Y-111587688D01*
X101595552Y-109912312D01*
X101601959Y-109880101D01*
X101613231Y-109863231D01*
X101630101Y-109851959D01*
X101662312Y-109845552D01*
X103337688Y-109845552D01*
X103369899Y-109851959D01*
G37*
G36*
X102549902Y-107309283D02*
G01*
X102594637Y-107309595D01*
X102638460Y-107318590D01*
X102688360Y-107323835D01*
X102730132Y-107337408D01*
X102767723Y-107345124D01*
X102814851Y-107364935D01*
X102868488Y-107382363D01*
X102901099Y-107401191D01*
X102930614Y-107413598D01*
X102978301Y-107445763D01*
X103032511Y-107477061D01*
X103055826Y-107498054D01*
X103077101Y-107512404D01*
X103122183Y-107557802D01*
X103173261Y-107603793D01*
X103188003Y-107624083D01*
X103201608Y-107637784D01*
X103240643Y-107696537D01*
X103284586Y-107757019D01*
X103292221Y-107774168D01*
X103299388Y-107784955D01*
X103328865Y-107856472D01*
X103361621Y-107930042D01*
X103364211Y-107942225D01*
X103366724Y-107948323D01*
X103383292Y-108031997D01*
X103400999Y-108115301D01*
X103400999Y-108304699D01*
X103398115Y-108318269D01*
X103398030Y-108324331D01*
X103379342Y-108406585D01*
X103361621Y-108489958D01*
X103359129Y-108495555D01*
X103359078Y-108495780D01*
X103287210Y-108657197D01*
X103287078Y-108657385D01*
X103284586Y-108662981D01*
X103234480Y-108731946D01*
X103185357Y-108801582D01*
X103180585Y-108806126D01*
X103173261Y-108816207D01*
X103113396Y-108870110D01*
X103057396Y-108923438D01*
X103046464Y-108930376D01*
X103032511Y-108942939D01*
X102967764Y-108980321D01*
X102908211Y-109018114D01*
X102890209Y-109025097D01*
X102868488Y-109037637D01*
X102803115Y-109058878D01*
X102743468Y-109082014D01*
X102718200Y-109086469D01*
X102688360Y-109096165D01*
X102626095Y-109102709D01*
X102569460Y-109112695D01*
X102537459Y-109112025D01*
X102500000Y-109115962D01*
X102443902Y-109110066D01*
X102392799Y-109108996D01*
X102355323Y-109100756D01*
X102311640Y-109096165D01*
X102263917Y-109080659D01*
X102220225Y-109071052D01*
X102179230Y-109053142D01*
X102131512Y-109037637D01*
X102093473Y-109015675D01*
X102058310Y-109000313D01*
X102016337Y-108971141D01*
X101967489Y-108942939D01*
X101939504Y-108917741D01*
X101913215Y-108899470D01*
X101873257Y-108858092D01*
X101826739Y-108816207D01*
X101808296Y-108790823D01*
X101790473Y-108772366D01*
X101755821Y-108718597D01*
X101715414Y-108662981D01*
X101705212Y-108640066D01*
X101694754Y-108623839D01*
X101668789Y-108558261D01*
X101638379Y-108489958D01*
X101634476Y-108471596D01*
X101629707Y-108459551D01*
X101615740Y-108383448D01*
X101599001Y-108304699D01*
X101599001Y-108292246D01*
X101597811Y-108285762D01*
X101599001Y-108200535D01*
X101599001Y-108115301D01*
X101600275Y-108109308D01*
X101600278Y-108109077D01*
X101637015Y-107936246D01*
X101637105Y-107936036D01*
X101638379Y-107930042D01*
X101673042Y-107852188D01*
X101706622Y-107773839D01*
X101710348Y-107768397D01*
X101715414Y-107757019D01*
X101762746Y-107691872D01*
X101806452Y-107628041D01*
X101815706Y-107618979D01*
X101826739Y-107603793D01*
X101882297Y-107553769D01*
X101932693Y-107504417D01*
X101948848Y-107493846D01*
X101967489Y-107477061D01*
X102027026Y-107442687D01*
X102080551Y-107407662D01*
X102104340Y-107398050D01*
X102131512Y-107382363D01*
X102191045Y-107363019D01*
X102244376Y-107341472D01*
X102275820Y-107335474D01*
X102311640Y-107323835D01*
X102367744Y-107317938D01*
X102417945Y-107308362D01*
X102456312Y-107308630D01*
X102500000Y-107304038D01*
X102549902Y-107309283D01*
G37*
G36*
X136747381Y-107446783D02*
G01*
X136770734Y-107445314D01*
X136821992Y-107456209D01*
X136865218Y-107461670D01*
X136886974Y-107470021D01*
X136918399Y-107476701D01*
X136957154Y-107496961D01*
X136989724Y-107509464D01*
X137015993Y-107527721D01*
X137052185Y-107546642D01*
X137077727Y-107570628D01*
X137099239Y-107585579D01*
X137126134Y-107616086D01*
X137162233Y-107649985D01*
X137175865Y-107672494D01*
X137187430Y-107685612D01*
X137209778Y-107728359D01*
X137258673Y-107779055D01*
X137327214Y-107795268D01*
X137393640Y-107771852D01*
X137436862Y-107716241D01*
X137445552Y-107670447D01*
X137445552Y-107512312D01*
X137451959Y-107480101D01*
X137463231Y-107463231D01*
X137480101Y-107451959D01*
X137512312Y-107445552D01*
X138487688Y-107445552D01*
X138519899Y-107451959D01*
X138536769Y-107463231D01*
X138548041Y-107480101D01*
X138554448Y-107512312D01*
X138554448Y-108487688D01*
X138551999Y-108500000D01*
X138548041Y-108519899D01*
X138536769Y-108536769D01*
X138519899Y-108548041D01*
X138500000Y-108551999D01*
X138487688Y-108554448D01*
X137512312Y-108554448D01*
X137480101Y-108548041D01*
X137463231Y-108536769D01*
X137451959Y-108519899D01*
X137445552Y-108487688D01*
X137445552Y-108329059D01*
X137425709Y-108261479D01*
X137372479Y-108215356D01*
X137302764Y-108205332D01*
X137238696Y-108234591D01*
X137215689Y-108263058D01*
X137204512Y-108280669D01*
X137180748Y-108323897D01*
X137168908Y-108336772D01*
X137154808Y-108358991D01*
X137118006Y-108392128D01*
X137090478Y-108422064D01*
X137068657Y-108436562D01*
X137042620Y-108460006D01*
X137006045Y-108478162D01*
X136979394Y-108495869D01*
X136946565Y-108507688D01*
X136907399Y-108527130D01*
X136875839Y-108533150D01*
X136853916Y-108541043D01*
X136810593Y-108545597D01*
X136759108Y-108555418D01*
X136735787Y-108553460D01*
X136721284Y-108554984D01*
X136669548Y-108547897D01*
X136608673Y-108542785D01*
X136594937Y-108537677D01*
X136589150Y-108536884D01*
X136532595Y-108514492D01*
X136467177Y-108490163D01*
X136408252Y-108447352D01*
X136356441Y-108410532D01*
X136354537Y-108408326D01*
X136345044Y-108401429D01*
X136305302Y-108351287D01*
X136269300Y-108309579D01*
X136264001Y-108299179D01*
X136251272Y-108283119D01*
X136229840Y-108232135D01*
X136206252Y-108185840D01*
X136157891Y-108134634D01*
X136089524Y-108117704D01*
X136022856Y-108140423D01*
X135984701Y-108195101D01*
X135982284Y-108193772D01*
X135970780Y-108214697D01*
X135965699Y-108231527D01*
X135934510Y-108280673D01*
X135910747Y-108323898D01*
X135898908Y-108336772D01*
X135884808Y-108358991D01*
X135848006Y-108392128D01*
X135820478Y-108422064D01*
X135798657Y-108436562D01*
X135772620Y-108460006D01*
X135736045Y-108478162D01*
X135709394Y-108495869D01*
X135676565Y-108507688D01*
X135637399Y-108527130D01*
X135605839Y-108533150D01*
X135583916Y-108541043D01*
X135540593Y-108545597D01*
X135489108Y-108555418D01*
X135465787Y-108553460D01*
X135451284Y-108554984D01*
X135399548Y-108547897D01*
X135338673Y-108542785D01*
X135324937Y-108537677D01*
X135319150Y-108536884D01*
X135262595Y-108514492D01*
X135197177Y-108490163D01*
X135138252Y-108447352D01*
X135086441Y-108410532D01*
X135084537Y-108408326D01*
X135075044Y-108401429D01*
X135035302Y-108351287D01*
X134999300Y-108309579D01*
X134994001Y-108299179D01*
X134981272Y-108283119D01*
X134959840Y-108232135D01*
X134936252Y-108185840D01*
X134887891Y-108134634D01*
X134819524Y-108117704D01*
X134752856Y-108140423D01*
X134714701Y-108195101D01*
X134712284Y-108193772D01*
X134700780Y-108214697D01*
X134695699Y-108231527D01*
X134664510Y-108280673D01*
X134640747Y-108323898D01*
X134628908Y-108336772D01*
X134614808Y-108358991D01*
X134578006Y-108392128D01*
X134550478Y-108422064D01*
X134528657Y-108436562D01*
X134502620Y-108460006D01*
X134466045Y-108478162D01*
X134439394Y-108495869D01*
X134406565Y-108507688D01*
X134367399Y-108527130D01*
X134335839Y-108533150D01*
X134313916Y-108541043D01*
X134270593Y-108545597D01*
X134219108Y-108555418D01*
X134195787Y-108553460D01*
X134181284Y-108554984D01*
X134129548Y-108547897D01*
X134068673Y-108542785D01*
X134054937Y-108537677D01*
X134049150Y-108536884D01*
X133992595Y-108514492D01*
X133927177Y-108490163D01*
X133868252Y-108447352D01*
X133816441Y-108410532D01*
X133814537Y-108408326D01*
X133805044Y-108401429D01*
X133765302Y-108351287D01*
X133729300Y-108309579D01*
X133724001Y-108299179D01*
X133711272Y-108283119D01*
X133689840Y-108232135D01*
X133666252Y-108185840D01*
X133617891Y-108134634D01*
X133549524Y-108117704D01*
X133482856Y-108140423D01*
X133444701Y-108195101D01*
X133442284Y-108193772D01*
X133430780Y-108214697D01*
X133425699Y-108231527D01*
X133394510Y-108280673D01*
X133370747Y-108323898D01*
X133358908Y-108336772D01*
X133344808Y-108358991D01*
X133308006Y-108392128D01*
X133280478Y-108422064D01*
X133258657Y-108436562D01*
X133232620Y-108460006D01*
X133196045Y-108478162D01*
X133169394Y-108495869D01*
X133136565Y-108507688D01*
X133097399Y-108527130D01*
X133065839Y-108533150D01*
X133043916Y-108541043D01*
X133000593Y-108545597D01*
X132949108Y-108555418D01*
X132925787Y-108553460D01*
X132911284Y-108554984D01*
X132859548Y-108547897D01*
X132798673Y-108542785D01*
X132784937Y-108537677D01*
X132779150Y-108536884D01*
X132722595Y-108514492D01*
X132657177Y-108490163D01*
X132598252Y-108447352D01*
X132546441Y-108410532D01*
X132544537Y-108408326D01*
X132535044Y-108401429D01*
X132495302Y-108351287D01*
X132459300Y-108309579D01*
X132454001Y-108299179D01*
X132441272Y-108283119D01*
X132419840Y-108232135D01*
X132396252Y-108185840D01*
X132347891Y-108134634D01*
X132279524Y-108117704D01*
X132212856Y-108140423D01*
X132174701Y-108195101D01*
X132172284Y-108193772D01*
X132160780Y-108214697D01*
X132155699Y-108231527D01*
X132124510Y-108280673D01*
X132100747Y-108323898D01*
X132088908Y-108336772D01*
X132074808Y-108358991D01*
X132038006Y-108392128D01*
X132010478Y-108422064D01*
X131988657Y-108436562D01*
X131962620Y-108460006D01*
X131926045Y-108478162D01*
X131899394Y-108495869D01*
X131866565Y-108507688D01*
X131827399Y-108527130D01*
X131795839Y-108533150D01*
X131773916Y-108541043D01*
X131730593Y-108545597D01*
X131679108Y-108555418D01*
X131655787Y-108553460D01*
X131641284Y-108554984D01*
X131589548Y-108547897D01*
X131528673Y-108542785D01*
X131514937Y-108537677D01*
X131509150Y-108536884D01*
X131452595Y-108514492D01*
X131387177Y-108490163D01*
X131328252Y-108447352D01*
X131276441Y-108410532D01*
X131274537Y-108408326D01*
X131265044Y-108401429D01*
X131225302Y-108351287D01*
X131189300Y-108309579D01*
X131184001Y-108299179D01*
X131171272Y-108283119D01*
X131149840Y-108232135D01*
X131126252Y-108185840D01*
X131077891Y-108134634D01*
X131009524Y-108117704D01*
X130942856Y-108140423D01*
X130904701Y-108195101D01*
X130902284Y-108193772D01*
X130890780Y-108214697D01*
X130885699Y-108231527D01*
X130854510Y-108280673D01*
X130830747Y-108323898D01*
X130818908Y-108336772D01*
X130804808Y-108358991D01*
X130768006Y-108392128D01*
X130740478Y-108422064D01*
X130718657Y-108436562D01*
X130692620Y-108460006D01*
X130656045Y-108478162D01*
X130629394Y-108495869D01*
X130596565Y-108507688D01*
X130557399Y-108527130D01*
X130525839Y-108533150D01*
X130503916Y-108541043D01*
X130460593Y-108545597D01*
X130409108Y-108555418D01*
X130385787Y-108553460D01*
X130371284Y-108554984D01*
X130319548Y-108547897D01*
X130258673Y-108542785D01*
X130244937Y-108537677D01*
X130239150Y-108536884D01*
X130182595Y-108514492D01*
X130117177Y-108490163D01*
X130058252Y-108447352D01*
X130006441Y-108410532D01*
X130004537Y-108408326D01*
X129995044Y-108401429D01*
X129955302Y-108351287D01*
X129919300Y-108309579D01*
X129914001Y-108299179D01*
X129901272Y-108283119D01*
X129879840Y-108232135D01*
X129856252Y-108185840D01*
X129807891Y-108134634D01*
X129739524Y-108117704D01*
X129672856Y-108140423D01*
X129634701Y-108195101D01*
X129632284Y-108193772D01*
X129620780Y-108214697D01*
X129615699Y-108231527D01*
X129584510Y-108280673D01*
X129560747Y-108323898D01*
X129548908Y-108336772D01*
X129534808Y-108358991D01*
X129498006Y-108392128D01*
X129470478Y-108422064D01*
X129448657Y-108436562D01*
X129422620Y-108460006D01*
X129386045Y-108478162D01*
X129359394Y-108495869D01*
X129326565Y-108507688D01*
X129287399Y-108527130D01*
X129255839Y-108533150D01*
X129233916Y-108541043D01*
X129190593Y-108545597D01*
X129139108Y-108555418D01*
X129115787Y-108553460D01*
X129101284Y-108554984D01*
X129049548Y-108547897D01*
X128988673Y-108542785D01*
X128974937Y-108537677D01*
X128969150Y-108536884D01*
X128912595Y-108514492D01*
X128847177Y-108490163D01*
X128788252Y-108447352D01*
X128736441Y-108410532D01*
X128734537Y-108408326D01*
X128725044Y-108401429D01*
X128685302Y-108351287D01*
X128649300Y-108309579D01*
X128644001Y-108299179D01*
X128631272Y-108283119D01*
X128609840Y-108232135D01*
X128586252Y-108185840D01*
X128537891Y-108134634D01*
X128469524Y-108117704D01*
X128402856Y-108140423D01*
X128364701Y-108195101D01*
X128362284Y-108193772D01*
X128350780Y-108214697D01*
X128345699Y-108231527D01*
X128314510Y-108280673D01*
X128290747Y-108323898D01*
X128278908Y-108336772D01*
X128264808Y-108358991D01*
X128228006Y-108392128D01*
X128200478Y-108422064D01*
X128178657Y-108436562D01*
X128152620Y-108460006D01*
X128116045Y-108478162D01*
X128089394Y-108495869D01*
X128056565Y-108507688D01*
X128017399Y-108527130D01*
X127985839Y-108533150D01*
X127963916Y-108541043D01*
X127920593Y-108545597D01*
X127869108Y-108555418D01*
X127845787Y-108553460D01*
X127831284Y-108554984D01*
X127779548Y-108547897D01*
X127718673Y-108542785D01*
X127704937Y-108537677D01*
X127699150Y-108536884D01*
X127642595Y-108514492D01*
X127577177Y-108490163D01*
X127518252Y-108447352D01*
X127466441Y-108410532D01*
X127464537Y-108408326D01*
X127455044Y-108401429D01*
X127415302Y-108351287D01*
X127379300Y-108309579D01*
X127374001Y-108299179D01*
X127361272Y-108283119D01*
X127339840Y-108232135D01*
X127316252Y-108185840D01*
X127267891Y-108134634D01*
X127199524Y-108117704D01*
X127132856Y-108140423D01*
X127094701Y-108195101D01*
X127092284Y-108193772D01*
X127080780Y-108214697D01*
X127075699Y-108231527D01*
X127044510Y-108280673D01*
X127020747Y-108323898D01*
X127008908Y-108336772D01*
X126994808Y-108358991D01*
X126958006Y-108392128D01*
X126930478Y-108422064D01*
X126908657Y-108436562D01*
X126882620Y-108460006D01*
X126846045Y-108478162D01*
X126819394Y-108495869D01*
X126786565Y-108507688D01*
X126747399Y-108527130D01*
X126715839Y-108533150D01*
X126693916Y-108541043D01*
X126650593Y-108545597D01*
X126599108Y-108555418D01*
X126575787Y-108553460D01*
X126561284Y-108554984D01*
X126509548Y-108547897D01*
X126448673Y-108542785D01*
X126434937Y-108537677D01*
X126429150Y-108536884D01*
X126372595Y-108514492D01*
X126307177Y-108490163D01*
X126248252Y-108447352D01*
X126196441Y-108410532D01*
X126194537Y-108408326D01*
X126185044Y-108401429D01*
X126145302Y-108351287D01*
X126109300Y-108309579D01*
X126104001Y-108299179D01*
X126091272Y-108283119D01*
X126069840Y-108232135D01*
X126046252Y-108185840D01*
X125997891Y-108134634D01*
X125929524Y-108117704D01*
X125862856Y-108140423D01*
X125824701Y-108195101D01*
X125822284Y-108193772D01*
X125810780Y-108214697D01*
X125805699Y-108231527D01*
X125774510Y-108280673D01*
X125750747Y-108323898D01*
X125738908Y-108336772D01*
X125724808Y-108358991D01*
X125688006Y-108392128D01*
X125660478Y-108422064D01*
X125638657Y-108436562D01*
X125612620Y-108460006D01*
X125576045Y-108478162D01*
X125549394Y-108495869D01*
X125516565Y-108507688D01*
X125477399Y-108527130D01*
X125445839Y-108533150D01*
X125423916Y-108541043D01*
X125380593Y-108545597D01*
X125329108Y-108555418D01*
X125305787Y-108553460D01*
X125291284Y-108554984D01*
X125239548Y-108547897D01*
X125178673Y-108542785D01*
X125164937Y-108537677D01*
X125159150Y-108536884D01*
X125102595Y-108514492D01*
X125037177Y-108490163D01*
X124978252Y-108447352D01*
X124926441Y-108410532D01*
X124924537Y-108408326D01*
X124915044Y-108401429D01*
X124875302Y-108351287D01*
X124839300Y-108309579D01*
X124834001Y-108299179D01*
X124821272Y-108283119D01*
X124799840Y-108232135D01*
X124776252Y-108185840D01*
X124727891Y-108134634D01*
X124659524Y-108117704D01*
X124592856Y-108140423D01*
X124554701Y-108195101D01*
X124552284Y-108193772D01*
X124540780Y-108214697D01*
X124535699Y-108231527D01*
X124504510Y-108280673D01*
X124480747Y-108323898D01*
X124468908Y-108336772D01*
X124454808Y-108358991D01*
X124418006Y-108392128D01*
X124390478Y-108422064D01*
X124368657Y-108436562D01*
X124342620Y-108460006D01*
X124306045Y-108478162D01*
X124279394Y-108495869D01*
X124246565Y-108507688D01*
X124207399Y-108527130D01*
X124175839Y-108533150D01*
X124153916Y-108541043D01*
X124110593Y-108545597D01*
X124059108Y-108555418D01*
X124035787Y-108553460D01*
X124021284Y-108554984D01*
X123969548Y-108547897D01*
X123908673Y-108542785D01*
X123894937Y-108537677D01*
X123889150Y-108536884D01*
X123832595Y-108514492D01*
X123767177Y-108490163D01*
X123708252Y-108447352D01*
X123656441Y-108410532D01*
X123654537Y-108408326D01*
X123645044Y-108401429D01*
X123605302Y-108351287D01*
X123569300Y-108309579D01*
X123564001Y-108299179D01*
X123551272Y-108283119D01*
X123529840Y-108232135D01*
X123506252Y-108185840D01*
X123457891Y-108134634D01*
X123389524Y-108117704D01*
X123322856Y-108140423D01*
X123284701Y-108195101D01*
X123282284Y-108193772D01*
X123270780Y-108214697D01*
X123265699Y-108231527D01*
X123234510Y-108280673D01*
X123210747Y-108323898D01*
X123198908Y-108336772D01*
X123184808Y-108358991D01*
X123148006Y-108392128D01*
X123120478Y-108422064D01*
X123098657Y-108436562D01*
X123072620Y-108460006D01*
X123036045Y-108478162D01*
X123009394Y-108495869D01*
X122976565Y-108507688D01*
X122937399Y-108527130D01*
X122905839Y-108533150D01*
X122883916Y-108541043D01*
X122840593Y-108545597D01*
X122789108Y-108555418D01*
X122765787Y-108553460D01*
X122751284Y-108554984D01*
X122699548Y-108547897D01*
X122638673Y-108542785D01*
X122624937Y-108537677D01*
X122619150Y-108536884D01*
X122562595Y-108514492D01*
X122497177Y-108490163D01*
X122438252Y-108447352D01*
X122386441Y-108410532D01*
X122384537Y-108408326D01*
X122375044Y-108401429D01*
X122335302Y-108351287D01*
X122299300Y-108309579D01*
X122294001Y-108299179D01*
X122281272Y-108283119D01*
X122259840Y-108232135D01*
X122236252Y-108185840D01*
X122187891Y-108134634D01*
X122119524Y-108117704D01*
X122052856Y-108140423D01*
X122014701Y-108195101D01*
X122012284Y-108193772D01*
X122000780Y-108214697D01*
X121995699Y-108231527D01*
X121964510Y-108280673D01*
X121940747Y-108323898D01*
X121928908Y-108336772D01*
X121914808Y-108358991D01*
X121878006Y-108392128D01*
X121850478Y-108422064D01*
X121828657Y-108436562D01*
X121802620Y-108460006D01*
X121766045Y-108478162D01*
X121739394Y-108495869D01*
X121706565Y-108507688D01*
X121667399Y-108527130D01*
X121635839Y-108533150D01*
X121613916Y-108541043D01*
X121570593Y-108545597D01*
X121519108Y-108555418D01*
X121495787Y-108553460D01*
X121481284Y-108554984D01*
X121429548Y-108547897D01*
X121368673Y-108542785D01*
X121354937Y-108537677D01*
X121349150Y-108536884D01*
X121292595Y-108514492D01*
X121227177Y-108490163D01*
X121168252Y-108447352D01*
X121116441Y-108410532D01*
X121114537Y-108408326D01*
X121105044Y-108401429D01*
X121065302Y-108351287D01*
X121029300Y-108309579D01*
X121024001Y-108299179D01*
X121011272Y-108283119D01*
X120989840Y-108232135D01*
X120966252Y-108185840D01*
X120917891Y-108134634D01*
X120849524Y-108117704D01*
X120782856Y-108140423D01*
X120744701Y-108195101D01*
X120742284Y-108193772D01*
X120730780Y-108214697D01*
X120725699Y-108231527D01*
X120694510Y-108280673D01*
X120670747Y-108323898D01*
X120658908Y-108336772D01*
X120644808Y-108358991D01*
X120608006Y-108392128D01*
X120580478Y-108422064D01*
X120558657Y-108436562D01*
X120532620Y-108460006D01*
X120496045Y-108478162D01*
X120469394Y-108495869D01*
X120436565Y-108507688D01*
X120397399Y-108527130D01*
X120365839Y-108533150D01*
X120343916Y-108541043D01*
X120300593Y-108545597D01*
X120249108Y-108555418D01*
X120225787Y-108553460D01*
X120211284Y-108554984D01*
X120159548Y-108547897D01*
X120098673Y-108542785D01*
X120084937Y-108537677D01*
X120079150Y-108536884D01*
X120022595Y-108514492D01*
X119957177Y-108490163D01*
X119898252Y-108447352D01*
X119846441Y-108410532D01*
X119844537Y-108408326D01*
X119835044Y-108401429D01*
X119795302Y-108351287D01*
X119759300Y-108309579D01*
X119754001Y-108299179D01*
X119741272Y-108283119D01*
X119719840Y-108232135D01*
X119696252Y-108185840D01*
X119647891Y-108134634D01*
X119579524Y-108117704D01*
X119512856Y-108140423D01*
X119474701Y-108195101D01*
X119472284Y-108193772D01*
X119460780Y-108214697D01*
X119455699Y-108231527D01*
X119424510Y-108280673D01*
X119400747Y-108323898D01*
X119388908Y-108336772D01*
X119374808Y-108358991D01*
X119338006Y-108392128D01*
X119310478Y-108422064D01*
X119288657Y-108436562D01*
X119262620Y-108460006D01*
X119226045Y-108478162D01*
X119199394Y-108495869D01*
X119166565Y-108507688D01*
X119127399Y-108527130D01*
X119095839Y-108533150D01*
X119073916Y-108541043D01*
X119030593Y-108545597D01*
X118979108Y-108555418D01*
X118955787Y-108553460D01*
X118941284Y-108554984D01*
X118889548Y-108547897D01*
X118828673Y-108542785D01*
X118814937Y-108537677D01*
X118809150Y-108536884D01*
X118752595Y-108514492D01*
X118687177Y-108490163D01*
X118628252Y-108447352D01*
X118576441Y-108410532D01*
X118574537Y-108408326D01*
X118565044Y-108401429D01*
X118525302Y-108351287D01*
X118489300Y-108309579D01*
X118484001Y-108299179D01*
X118471272Y-108283119D01*
X118449840Y-108232135D01*
X118426252Y-108185840D01*
X118377891Y-108134634D01*
X118309524Y-108117704D01*
X118242856Y-108140423D01*
X118204701Y-108195101D01*
X118202284Y-108193772D01*
X118190780Y-108214697D01*
X118185699Y-108231527D01*
X118154510Y-108280673D01*
X118130747Y-108323898D01*
X118118908Y-108336772D01*
X118104808Y-108358991D01*
X118068006Y-108392128D01*
X118040478Y-108422064D01*
X118018657Y-108436562D01*
X117992620Y-108460006D01*
X117956045Y-108478162D01*
X117929394Y-108495869D01*
X117896565Y-108507688D01*
X117857399Y-108527130D01*
X117825839Y-108533150D01*
X117803916Y-108541043D01*
X117760593Y-108545597D01*
X117709108Y-108555418D01*
X117685787Y-108553460D01*
X117671284Y-108554984D01*
X117619548Y-108547897D01*
X117558673Y-108542785D01*
X117544937Y-108537677D01*
X117539150Y-108536884D01*
X117482595Y-108514492D01*
X117417177Y-108490163D01*
X117358252Y-108447352D01*
X117306441Y-108410532D01*
X117304537Y-108408326D01*
X117295044Y-108401429D01*
X117255302Y-108351287D01*
X117219300Y-108309579D01*
X117214001Y-108299179D01*
X117201272Y-108283119D01*
X117179840Y-108232135D01*
X117156252Y-108185840D01*
X117107891Y-108134634D01*
X117039524Y-108117704D01*
X116972856Y-108140423D01*
X116934701Y-108195101D01*
X116932284Y-108193772D01*
X116920780Y-108214697D01*
X116915699Y-108231527D01*
X116884510Y-108280673D01*
X116860747Y-108323898D01*
X116848908Y-108336772D01*
X116834808Y-108358991D01*
X116798006Y-108392128D01*
X116770478Y-108422064D01*
X116748657Y-108436562D01*
X116722620Y-108460006D01*
X116686045Y-108478162D01*
X116659394Y-108495869D01*
X116626565Y-108507688D01*
X116587399Y-108527130D01*
X116555839Y-108533150D01*
X116533916Y-108541043D01*
X116490593Y-108545597D01*
X116439108Y-108555418D01*
X116415787Y-108553460D01*
X116401284Y-108554984D01*
X116349548Y-108547897D01*
X116288673Y-108542785D01*
X116274937Y-108537677D01*
X116269150Y-108536884D01*
X116212595Y-108514492D01*
X116147177Y-108490163D01*
X116088252Y-108447352D01*
X116036441Y-108410532D01*
X116034537Y-108408326D01*
X116025044Y-108401429D01*
X115985302Y-108351287D01*
X115949300Y-108309579D01*
X115944001Y-108299179D01*
X115931272Y-108283119D01*
X115909840Y-108232135D01*
X115886252Y-108185840D01*
X115837891Y-108134634D01*
X115769524Y-108117704D01*
X115702856Y-108140423D01*
X115664701Y-108195101D01*
X115662284Y-108193772D01*
X115650780Y-108214697D01*
X115645699Y-108231527D01*
X115614510Y-108280673D01*
X115590747Y-108323898D01*
X115578908Y-108336772D01*
X115564808Y-108358991D01*
X115528006Y-108392128D01*
X115500478Y-108422064D01*
X115478657Y-108436562D01*
X115452620Y-108460006D01*
X115416045Y-108478162D01*
X115389394Y-108495869D01*
X115356565Y-108507688D01*
X115317399Y-108527130D01*
X115285839Y-108533150D01*
X115263916Y-108541043D01*
X115220593Y-108545597D01*
X115169108Y-108555418D01*
X115145787Y-108553460D01*
X115131284Y-108554984D01*
X115079548Y-108547897D01*
X115018673Y-108542785D01*
X115004937Y-108537677D01*
X114999150Y-108536884D01*
X114942595Y-108514492D01*
X114877177Y-108490163D01*
X114818252Y-108447352D01*
X114766441Y-108410532D01*
X114764537Y-108408326D01*
X114755044Y-108401429D01*
X114715302Y-108351287D01*
X114679300Y-108309579D01*
X114674001Y-108299179D01*
X114661272Y-108283119D01*
X114639840Y-108232135D01*
X114616252Y-108185840D01*
X114567891Y-108134634D01*
X114499524Y-108117704D01*
X114432856Y-108140423D01*
X114394701Y-108195101D01*
X114392284Y-108193772D01*
X114380780Y-108214697D01*
X114375699Y-108231527D01*
X114344510Y-108280673D01*
X114320747Y-108323898D01*
X114308908Y-108336772D01*
X114294808Y-108358991D01*
X114258006Y-108392128D01*
X114230478Y-108422064D01*
X114208657Y-108436562D01*
X114182620Y-108460006D01*
X114146045Y-108478162D01*
X114119394Y-108495869D01*
X114086565Y-108507688D01*
X114047399Y-108527130D01*
X114015839Y-108533150D01*
X113993916Y-108541043D01*
X113950593Y-108545597D01*
X113899108Y-108555418D01*
X113875787Y-108553460D01*
X113861284Y-108554984D01*
X113809548Y-108547897D01*
X113748673Y-108542785D01*
X113734937Y-108537677D01*
X113729150Y-108536884D01*
X113672595Y-108514492D01*
X113607177Y-108490163D01*
X113548252Y-108447352D01*
X113496441Y-108410532D01*
X113494537Y-108408326D01*
X113485044Y-108401429D01*
X113445302Y-108351287D01*
X113409300Y-108309579D01*
X113404001Y-108299179D01*
X113391272Y-108283119D01*
X113369840Y-108232135D01*
X113346252Y-108185840D01*
X113297891Y-108134634D01*
X113229524Y-108117704D01*
X113162856Y-108140423D01*
X113124701Y-108195101D01*
X113122284Y-108193772D01*
X113110780Y-108214697D01*
X113105699Y-108231527D01*
X113074510Y-108280673D01*
X113050747Y-108323898D01*
X113038908Y-108336772D01*
X113024808Y-108358991D01*
X112988006Y-108392128D01*
X112960478Y-108422064D01*
X112938657Y-108436562D01*
X112912620Y-108460006D01*
X112876045Y-108478162D01*
X112849394Y-108495869D01*
X112816565Y-108507688D01*
X112777399Y-108527130D01*
X112745839Y-108533150D01*
X112723916Y-108541043D01*
X112680593Y-108545597D01*
X112629108Y-108555418D01*
X112605787Y-108553460D01*
X112591284Y-108554984D01*
X112539548Y-108547897D01*
X112478673Y-108542785D01*
X112464937Y-108537677D01*
X112459150Y-108536884D01*
X112402595Y-108514492D01*
X112337177Y-108490163D01*
X112278252Y-108447352D01*
X112226441Y-108410532D01*
X112224537Y-108408326D01*
X112215044Y-108401429D01*
X112175302Y-108351287D01*
X112139300Y-108309579D01*
X112134001Y-108299179D01*
X112121272Y-108283119D01*
X112099840Y-108232135D01*
X112076252Y-108185840D01*
X112027891Y-108134634D01*
X111959524Y-108117704D01*
X111892856Y-108140423D01*
X111854701Y-108195101D01*
X111852284Y-108193772D01*
X111840780Y-108214697D01*
X111835699Y-108231527D01*
X111804510Y-108280673D01*
X111780747Y-108323898D01*
X111768908Y-108336772D01*
X111754808Y-108358991D01*
X111718006Y-108392128D01*
X111690478Y-108422064D01*
X111668657Y-108436562D01*
X111642620Y-108460006D01*
X111606045Y-108478162D01*
X111579394Y-108495869D01*
X111546565Y-108507688D01*
X111507399Y-108527130D01*
X111475839Y-108533150D01*
X111453916Y-108541043D01*
X111410593Y-108545597D01*
X111359108Y-108555418D01*
X111335787Y-108553460D01*
X111321284Y-108554984D01*
X111269548Y-108547897D01*
X111208673Y-108542785D01*
X111194937Y-108537677D01*
X111189150Y-108536884D01*
X111132595Y-108514492D01*
X111067177Y-108490163D01*
X111008252Y-108447352D01*
X110956441Y-108410532D01*
X110954537Y-108408326D01*
X110945044Y-108401429D01*
X110905302Y-108351287D01*
X110869300Y-108309579D01*
X110864001Y-108299179D01*
X110851272Y-108283119D01*
X110829838Y-108232129D01*
X110808754Y-108190749D01*
X110804096Y-108170892D01*
X110792771Y-108143950D01*
X110786928Y-108097696D01*
X110778299Y-108060909D01*
X110778604Y-108031808D01*
X110773850Y-107994176D01*
X110779392Y-107956647D01*
X110779697Y-107927552D01*
X110789092Y-107890961D01*
X110795904Y-107844831D01*
X110807791Y-107818132D01*
X110812864Y-107798375D01*
X110834815Y-107757436D01*
X110857307Y-107706918D01*
X110870366Y-107691132D01*
X110875883Y-107680843D01*
X110912753Y-107639895D01*
X110953535Y-107590598D01*
X110963171Y-107583901D01*
X110965122Y-107581734D01*
X111017700Y-107546002D01*
X111077500Y-107504440D01*
X111143435Y-107481479D01*
X111200424Y-107460285D01*
X111206223Y-107459614D01*
X111220067Y-107454793D01*
X111281037Y-107450957D01*
X111332909Y-107444955D01*
X111347381Y-107446783D01*
X111370734Y-107445314D01*
X111421992Y-107456209D01*
X111465218Y-107461670D01*
X111486974Y-107470021D01*
X111518399Y-107476701D01*
X111557154Y-107496961D01*
X111589724Y-107509464D01*
X111615993Y-107527721D01*
X111652185Y-107546642D01*
X111677727Y-107570628D01*
X111699239Y-107585579D01*
X111726135Y-107616086D01*
X111762233Y-107649985D01*
X111775865Y-107672493D01*
X111787433Y-107685615D01*
X111810288Y-107729333D01*
X111840437Y-107779114D01*
X111845164Y-107796043D01*
X111854110Y-107813156D01*
X111903004Y-107863852D01*
X111971545Y-107880065D01*
X112037971Y-107856649D01*
X112070536Y-107808930D01*
X112075715Y-107811707D01*
X112104816Y-107757433D01*
X112127307Y-107706918D01*
X112140366Y-107691132D01*
X112145883Y-107680843D01*
X112182753Y-107639895D01*
X112223535Y-107590598D01*
X112233171Y-107583901D01*
X112235122Y-107581734D01*
X112287700Y-107546002D01*
X112347500Y-107504440D01*
X112413435Y-107481479D01*
X112470424Y-107460285D01*
X112476223Y-107459614D01*
X112490067Y-107454793D01*
X112551037Y-107450957D01*
X112602909Y-107444955D01*
X112617381Y-107446783D01*
X112640734Y-107445314D01*
X112691992Y-107456209D01*
X112735218Y-107461670D01*
X112756974Y-107470021D01*
X112788399Y-107476701D01*
X112827154Y-107496961D01*
X112859724Y-107509464D01*
X112885993Y-107527721D01*
X112922185Y-107546642D01*
X112947727Y-107570628D01*
X112969239Y-107585579D01*
X112996135Y-107616086D01*
X113032233Y-107649985D01*
X113045865Y-107672493D01*
X113057433Y-107685615D01*
X113080288Y-107729333D01*
X113110437Y-107779114D01*
X113115164Y-107796043D01*
X113124110Y-107813156D01*
X113173004Y-107863852D01*
X113241545Y-107880065D01*
X113307971Y-107856649D01*
X113340536Y-107808930D01*
X113345715Y-107811707D01*
X113374816Y-107757433D01*
X113397307Y-107706918D01*
X113410366Y-107691132D01*
X113415883Y-107680843D01*
X113452753Y-107639895D01*
X113493535Y-107590598D01*
X113503171Y-107583901D01*
X113505122Y-107581734D01*
X113557700Y-107546002D01*
X113617500Y-107504440D01*
X113683435Y-107481479D01*
X113740424Y-107460285D01*
X113746223Y-107459614D01*
X113760067Y-107454793D01*
X113821037Y-107450957D01*
X113872909Y-107444955D01*
X113887381Y-107446783D01*
X113910734Y-107445314D01*
X113961992Y-107456209D01*
X114005218Y-107461670D01*
X114026974Y-107470021D01*
X114058399Y-107476701D01*
X114097154Y-107496961D01*
X114129724Y-107509464D01*
X114155993Y-107527721D01*
X114192185Y-107546642D01*
X114217727Y-107570628D01*
X114239239Y-107585579D01*
X114266135Y-107616086D01*
X114302233Y-107649985D01*
X114315865Y-107672493D01*
X114327433Y-107685615D01*
X114350288Y-107729333D01*
X114380437Y-107779114D01*
X114385164Y-107796043D01*
X114394110Y-107813156D01*
X114443004Y-107863852D01*
X114511545Y-107880065D01*
X114577971Y-107856649D01*
X114610536Y-107808930D01*
X114615715Y-107811707D01*
X114644816Y-107757433D01*
X114667307Y-107706918D01*
X114680366Y-107691132D01*
X114685883Y-107680843D01*
X114722753Y-107639895D01*
X114763535Y-107590598D01*
X114773171Y-107583901D01*
X114775122Y-107581734D01*
X114827700Y-107546002D01*
X114887500Y-107504440D01*
X114953435Y-107481479D01*
X115010424Y-107460285D01*
X115016223Y-107459614D01*
X115030067Y-107454793D01*
X115091037Y-107450957D01*
X115142909Y-107444955D01*
X115157381Y-107446783D01*
X115180734Y-107445314D01*
X115231992Y-107456209D01*
X115275218Y-107461670D01*
X115296974Y-107470021D01*
X115328399Y-107476701D01*
X115367154Y-107496961D01*
X115399724Y-107509464D01*
X115425993Y-107527721D01*
X115462185Y-107546642D01*
X115487727Y-107570628D01*
X115509239Y-107585579D01*
X115536135Y-107616086D01*
X115572233Y-107649985D01*
X115585865Y-107672493D01*
X115597433Y-107685615D01*
X115620288Y-107729333D01*
X115650437Y-107779114D01*
X115655164Y-107796043D01*
X115664110Y-107813156D01*
X115713004Y-107863852D01*
X115781545Y-107880065D01*
X115847971Y-107856649D01*
X115880536Y-107808930D01*
X115885715Y-107811707D01*
X115914816Y-107757433D01*
X115937307Y-107706918D01*
X115950366Y-107691132D01*
X115955883Y-107680843D01*
X115992753Y-107639895D01*
X116033535Y-107590598D01*
X116043171Y-107583901D01*
X116045122Y-107581734D01*
X116097700Y-107546002D01*
X116157500Y-107504440D01*
X116223435Y-107481479D01*
X116280424Y-107460285D01*
X116286223Y-107459614D01*
X116300067Y-107454793D01*
X116361037Y-107450957D01*
X116412909Y-107444955D01*
X116427381Y-107446783D01*
X116450734Y-107445314D01*
X116501992Y-107456209D01*
X116545218Y-107461670D01*
X116566974Y-107470021D01*
X116598399Y-107476701D01*
X116637154Y-107496961D01*
X116669724Y-107509464D01*
X116695993Y-107527721D01*
X116732185Y-107546642D01*
X116757727Y-107570628D01*
X116779239Y-107585579D01*
X116806135Y-107616086D01*
X116842233Y-107649985D01*
X116855865Y-107672493D01*
X116867433Y-107685615D01*
X116890288Y-107729333D01*
X116920437Y-107779114D01*
X116925164Y-107796043D01*
X116934110Y-107813156D01*
X116983004Y-107863852D01*
X117051545Y-107880065D01*
X117117971Y-107856649D01*
X117150536Y-107808930D01*
X117155715Y-107811707D01*
X117184816Y-107757433D01*
X117207307Y-107706918D01*
X117220366Y-107691132D01*
X117225883Y-107680843D01*
X117262753Y-107639895D01*
X117303535Y-107590598D01*
X117313171Y-107583901D01*
X117315122Y-107581734D01*
X117367700Y-107546002D01*
X117427500Y-107504440D01*
X117493435Y-107481479D01*
X117550424Y-107460285D01*
X117556223Y-107459614D01*
X117570067Y-107454793D01*
X117631037Y-107450957D01*
X117682909Y-107444955D01*
X117697381Y-107446783D01*
X117720734Y-107445314D01*
X117771992Y-107456209D01*
X117815218Y-107461670D01*
X117836974Y-107470021D01*
X117868399Y-107476701D01*
X117907154Y-107496961D01*
X117939724Y-107509464D01*
X117965993Y-107527721D01*
X118002185Y-107546642D01*
X118027727Y-107570628D01*
X118049239Y-107585579D01*
X118076135Y-107616086D01*
X118112233Y-107649985D01*
X118125865Y-107672493D01*
X118137433Y-107685615D01*
X118160288Y-107729333D01*
X118190437Y-107779114D01*
X118195164Y-107796043D01*
X118204110Y-107813156D01*
X118253004Y-107863852D01*
X118321545Y-107880065D01*
X118387971Y-107856649D01*
X118420536Y-107808930D01*
X118425715Y-107811707D01*
X118454816Y-107757433D01*
X118477307Y-107706918D01*
X118490366Y-107691132D01*
X118495883Y-107680843D01*
X118532753Y-107639895D01*
X118573535Y-107590598D01*
X118583171Y-107583901D01*
X118585122Y-107581734D01*
X118637700Y-107546002D01*
X118697500Y-107504440D01*
X118763435Y-107481479D01*
X118820424Y-107460285D01*
X118826223Y-107459614D01*
X118840067Y-107454793D01*
X118901037Y-107450957D01*
X118952909Y-107444955D01*
X118967381Y-107446783D01*
X118990734Y-107445314D01*
X119041992Y-107456209D01*
X119085218Y-107461670D01*
X119106974Y-107470021D01*
X119138399Y-107476701D01*
X119177154Y-107496961D01*
X119209724Y-107509464D01*
X119235993Y-107527721D01*
X119272185Y-107546642D01*
X119297727Y-107570628D01*
X119319239Y-107585579D01*
X119346135Y-107616086D01*
X119382233Y-107649985D01*
X119395865Y-107672493D01*
X119407433Y-107685615D01*
X119430288Y-107729333D01*
X119460437Y-107779114D01*
X119465164Y-107796043D01*
X119474110Y-107813156D01*
X119523004Y-107863852D01*
X119591545Y-107880065D01*
X119657971Y-107856649D01*
X119690536Y-107808930D01*
X119695715Y-107811707D01*
X119724816Y-107757433D01*
X119747307Y-107706918D01*
X119760366Y-107691132D01*
X119765883Y-107680843D01*
X119802753Y-107639895D01*
X119843535Y-107590598D01*
X119853171Y-107583901D01*
X119855122Y-107581734D01*
X119907700Y-107546002D01*
X119967500Y-107504440D01*
X120033435Y-107481479D01*
X120090424Y-107460285D01*
X120096223Y-107459614D01*
X120110067Y-107454793D01*
X120171037Y-107450957D01*
X120222909Y-107444955D01*
X120237381Y-107446783D01*
X120260734Y-107445314D01*
X120311992Y-107456209D01*
X120355218Y-107461670D01*
X120376974Y-107470021D01*
X120408399Y-107476701D01*
X120447154Y-107496961D01*
X120479724Y-107509464D01*
X120505993Y-107527721D01*
X120542185Y-107546642D01*
X120567727Y-107570628D01*
X120589239Y-107585579D01*
X120616135Y-107616086D01*
X120652233Y-107649985D01*
X120665865Y-107672493D01*
X120677433Y-107685615D01*
X120700288Y-107729333D01*
X120730437Y-107779114D01*
X120735164Y-107796043D01*
X120744110Y-107813156D01*
X120793004Y-107863852D01*
X120861545Y-107880065D01*
X120927971Y-107856649D01*
X120960536Y-107808930D01*
X120965715Y-107811707D01*
X120994816Y-107757433D01*
X121017307Y-107706918D01*
X121030366Y-107691132D01*
X121035883Y-107680843D01*
X121072753Y-107639895D01*
X121113535Y-107590598D01*
X121123171Y-107583901D01*
X121125122Y-107581734D01*
X121177700Y-107546002D01*
X121237500Y-107504440D01*
X121303435Y-107481479D01*
X121360424Y-107460285D01*
X121366223Y-107459614D01*
X121380067Y-107454793D01*
X121441037Y-107450957D01*
X121492909Y-107444955D01*
X121507381Y-107446783D01*
X121530734Y-107445314D01*
X121581992Y-107456209D01*
X121625218Y-107461670D01*
X121646974Y-107470021D01*
X121678399Y-107476701D01*
X121717154Y-107496961D01*
X121749724Y-107509464D01*
X121775993Y-107527721D01*
X121812185Y-107546642D01*
X121837727Y-107570628D01*
X121859239Y-107585579D01*
X121886135Y-107616086D01*
X121922233Y-107649985D01*
X121935865Y-107672493D01*
X121947433Y-107685615D01*
X121970288Y-107729333D01*
X122000437Y-107779114D01*
X122005164Y-107796043D01*
X122014110Y-107813156D01*
X122063004Y-107863852D01*
X122131545Y-107880065D01*
X122197971Y-107856649D01*
X122230536Y-107808930D01*
X122235715Y-107811707D01*
X122264816Y-107757433D01*
X122287307Y-107706918D01*
X122300366Y-107691132D01*
X122305883Y-107680843D01*
X122342753Y-107639895D01*
X122383535Y-107590598D01*
X122393171Y-107583901D01*
X122395122Y-107581734D01*
X122447700Y-107546002D01*
X122507500Y-107504440D01*
X122573435Y-107481479D01*
X122630424Y-107460285D01*
X122636223Y-107459614D01*
X122650067Y-107454793D01*
X122711037Y-107450957D01*
X122762909Y-107444955D01*
X122777381Y-107446783D01*
X122800734Y-107445314D01*
X122851992Y-107456209D01*
X122895218Y-107461670D01*
X122916974Y-107470021D01*
X122948399Y-107476701D01*
X122987154Y-107496961D01*
X123019724Y-107509464D01*
X123045993Y-107527721D01*
X123082185Y-107546642D01*
X123107727Y-107570628D01*
X123129239Y-107585579D01*
X123156135Y-107616086D01*
X123192233Y-107649985D01*
X123205865Y-107672493D01*
X123217433Y-107685615D01*
X123240288Y-107729333D01*
X123270437Y-107779114D01*
X123275164Y-107796043D01*
X123284110Y-107813156D01*
X123333004Y-107863852D01*
X123401545Y-107880065D01*
X123467971Y-107856649D01*
X123500536Y-107808930D01*
X123505715Y-107811707D01*
X123534816Y-107757433D01*
X123557307Y-107706918D01*
X123570366Y-107691132D01*
X123575883Y-107680843D01*
X123612753Y-107639895D01*
X123653535Y-107590598D01*
X123663171Y-107583901D01*
X123665122Y-107581734D01*
X123717700Y-107546002D01*
X123777500Y-107504440D01*
X123843435Y-107481479D01*
X123900424Y-107460285D01*
X123906223Y-107459614D01*
X123920067Y-107454793D01*
X123981037Y-107450957D01*
X124032909Y-107444955D01*
X124047381Y-107446783D01*
X124070734Y-107445314D01*
X124121992Y-107456209D01*
X124165218Y-107461670D01*
X124186974Y-107470021D01*
X124218399Y-107476701D01*
X124257154Y-107496961D01*
X124289724Y-107509464D01*
X124315993Y-107527721D01*
X124352185Y-107546642D01*
X124377727Y-107570628D01*
X124399239Y-107585579D01*
X124426135Y-107616086D01*
X124462233Y-107649985D01*
X124475865Y-107672493D01*
X124487433Y-107685615D01*
X124510288Y-107729333D01*
X124540437Y-107779114D01*
X124545164Y-107796043D01*
X124554110Y-107813156D01*
X124603004Y-107863852D01*
X124671545Y-107880065D01*
X124737971Y-107856649D01*
X124770536Y-107808930D01*
X124775715Y-107811707D01*
X124804816Y-107757433D01*
X124827307Y-107706918D01*
X124840366Y-107691132D01*
X124845883Y-107680843D01*
X124882753Y-107639895D01*
X124923535Y-107590598D01*
X124933171Y-107583901D01*
X124935122Y-107581734D01*
X124987700Y-107546002D01*
X125047500Y-107504440D01*
X125113435Y-107481479D01*
X125170424Y-107460285D01*
X125176223Y-107459614D01*
X125190067Y-107454793D01*
X125251037Y-107450957D01*
X125302909Y-107444955D01*
X125317381Y-107446783D01*
X125340734Y-107445314D01*
X125391992Y-107456209D01*
X125435218Y-107461670D01*
X125456974Y-107470021D01*
X125488399Y-107476701D01*
X125527154Y-107496961D01*
X125559724Y-107509464D01*
X125585993Y-107527721D01*
X125622185Y-107546642D01*
X125647727Y-107570628D01*
X125669239Y-107585579D01*
X125696135Y-107616086D01*
X125732233Y-107649985D01*
X125745865Y-107672493D01*
X125757433Y-107685615D01*
X125780288Y-107729333D01*
X125810437Y-107779114D01*
X125815164Y-107796043D01*
X125824110Y-107813156D01*
X125873004Y-107863852D01*
X125941545Y-107880065D01*
X126007971Y-107856649D01*
X126040536Y-107808930D01*
X126045715Y-107811707D01*
X126074816Y-107757433D01*
X126097307Y-107706918D01*
X126110366Y-107691132D01*
X126115883Y-107680843D01*
X126152753Y-107639895D01*
X126193535Y-107590598D01*
X126203171Y-107583901D01*
X126205122Y-107581734D01*
X126257700Y-107546002D01*
X126317500Y-107504440D01*
X126383435Y-107481479D01*
X126440424Y-107460285D01*
X126446223Y-107459614D01*
X126460067Y-107454793D01*
X126521037Y-107450957D01*
X126572909Y-107444955D01*
X126587381Y-107446783D01*
X126610734Y-107445314D01*
X126661992Y-107456209D01*
X126705218Y-107461670D01*
X126726974Y-107470021D01*
X126758399Y-107476701D01*
X126797154Y-107496961D01*
X126829724Y-107509464D01*
X126855993Y-107527721D01*
X126892185Y-107546642D01*
X126917727Y-107570628D01*
X126939239Y-107585579D01*
X126966135Y-107616086D01*
X127002233Y-107649985D01*
X127015865Y-107672493D01*
X127027433Y-107685615D01*
X127050288Y-107729333D01*
X127080437Y-107779114D01*
X127085164Y-107796043D01*
X127094110Y-107813156D01*
X127143004Y-107863852D01*
X127211545Y-107880065D01*
X127277971Y-107856649D01*
X127310536Y-107808930D01*
X127315715Y-107811707D01*
X127344816Y-107757433D01*
X127367307Y-107706918D01*
X127380366Y-107691132D01*
X127385883Y-107680843D01*
X127422753Y-107639895D01*
X127463535Y-107590598D01*
X127473171Y-107583901D01*
X127475122Y-107581734D01*
X127527700Y-107546002D01*
X127587500Y-107504440D01*
X127653435Y-107481479D01*
X127710424Y-107460285D01*
X127716223Y-107459614D01*
X127730067Y-107454793D01*
X127791037Y-107450957D01*
X127842909Y-107444955D01*
X127857381Y-107446783D01*
X127880734Y-107445314D01*
X127931992Y-107456209D01*
X127975218Y-107461670D01*
X127996974Y-107470021D01*
X128028399Y-107476701D01*
X128067154Y-107496961D01*
X128099724Y-107509464D01*
X128125993Y-107527721D01*
X128162185Y-107546642D01*
X128187727Y-107570628D01*
X128209239Y-107585579D01*
X128236135Y-107616086D01*
X128272233Y-107649985D01*
X128285865Y-107672493D01*
X128297433Y-107685615D01*
X128320288Y-107729333D01*
X128350437Y-107779114D01*
X128355164Y-107796043D01*
X128364110Y-107813156D01*
X128413004Y-107863852D01*
X128481545Y-107880065D01*
X128547971Y-107856649D01*
X128580536Y-107808930D01*
X128585715Y-107811707D01*
X128614816Y-107757433D01*
X128637307Y-107706918D01*
X128650366Y-107691132D01*
X128655883Y-107680843D01*
X128692753Y-107639895D01*
X128733535Y-107590598D01*
X128743171Y-107583901D01*
X128745122Y-107581734D01*
X128797700Y-107546002D01*
X128857500Y-107504440D01*
X128923435Y-107481479D01*
X128980424Y-107460285D01*
X128986223Y-107459614D01*
X129000067Y-107454793D01*
X129061037Y-107450957D01*
X129112909Y-107444955D01*
X129127381Y-107446783D01*
X129150734Y-107445314D01*
X129201992Y-107456209D01*
X129245218Y-107461670D01*
X129266974Y-107470021D01*
X129298399Y-107476701D01*
X129337154Y-107496961D01*
X129369724Y-107509464D01*
X129395993Y-107527721D01*
X129432185Y-107546642D01*
X129457727Y-107570628D01*
X129479239Y-107585579D01*
X129506135Y-107616086D01*
X129542233Y-107649985D01*
X129555865Y-107672493D01*
X129567433Y-107685615D01*
X129590288Y-107729333D01*
X129620437Y-107779114D01*
X129625164Y-107796043D01*
X129634110Y-107813156D01*
X129683004Y-107863852D01*
X129751545Y-107880065D01*
X129817971Y-107856649D01*
X129850536Y-107808930D01*
X129855715Y-107811707D01*
X129884816Y-107757433D01*
X129907307Y-107706918D01*
X129920366Y-107691132D01*
X129925883Y-107680843D01*
X129962753Y-107639895D01*
X130003535Y-107590598D01*
X130013171Y-107583901D01*
X130015122Y-107581734D01*
X130067700Y-107546002D01*
X130127500Y-107504440D01*
X130193435Y-107481479D01*
X130250424Y-107460285D01*
X130256223Y-107459614D01*
X130270067Y-107454793D01*
X130331037Y-107450957D01*
X130382909Y-107444955D01*
X130397381Y-107446783D01*
X130420734Y-107445314D01*
X130471992Y-107456209D01*
X130515218Y-107461670D01*
X130536974Y-107470021D01*
X130568399Y-107476701D01*
X130607154Y-107496961D01*
X130639724Y-107509464D01*
X130665993Y-107527721D01*
X130702185Y-107546642D01*
X130727727Y-107570628D01*
X130749239Y-107585579D01*
X130776135Y-107616086D01*
X130812233Y-107649985D01*
X130825865Y-107672493D01*
X130837433Y-107685615D01*
X130860288Y-107729333D01*
X130890437Y-107779114D01*
X130895164Y-107796043D01*
X130904110Y-107813156D01*
X130953004Y-107863852D01*
X131021545Y-107880065D01*
X131087971Y-107856649D01*
X131120536Y-107808930D01*
X131125715Y-107811707D01*
X131154816Y-107757433D01*
X131177307Y-107706918D01*
X131190366Y-107691132D01*
X131195883Y-107680843D01*
X131232753Y-107639895D01*
X131273535Y-107590598D01*
X131283171Y-107583901D01*
X131285122Y-107581734D01*
X131337700Y-107546002D01*
X131397500Y-107504440D01*
X131463435Y-107481479D01*
X131520424Y-107460285D01*
X131526223Y-107459614D01*
X131540067Y-107454793D01*
X131601037Y-107450957D01*
X131652909Y-107444955D01*
X131667381Y-107446783D01*
X131690734Y-107445314D01*
X131741992Y-107456209D01*
X131785218Y-107461670D01*
X131806974Y-107470021D01*
X131838399Y-107476701D01*
X131877154Y-107496961D01*
X131909724Y-107509464D01*
X131935993Y-107527721D01*
X131972185Y-107546642D01*
X131997727Y-107570628D01*
X132019239Y-107585579D01*
X132046135Y-107616086D01*
X132082233Y-107649985D01*
X132095865Y-107672493D01*
X132107433Y-107685615D01*
X132130288Y-107729333D01*
X132160437Y-107779114D01*
X132165164Y-107796043D01*
X132174110Y-107813156D01*
X132223004Y-107863852D01*
X132291545Y-107880065D01*
X132357971Y-107856649D01*
X132390536Y-107808930D01*
X132395715Y-107811707D01*
X132424816Y-107757433D01*
X132447307Y-107706918D01*
X132460366Y-107691132D01*
X132465883Y-107680843D01*
X132502753Y-107639895D01*
X132543535Y-107590598D01*
X132553171Y-107583901D01*
X132555122Y-107581734D01*
X132607700Y-107546002D01*
X132667500Y-107504440D01*
X132733435Y-107481479D01*
X132790424Y-107460285D01*
X132796223Y-107459614D01*
X132810067Y-107454793D01*
X132871037Y-107450957D01*
X132922909Y-107444955D01*
X132937381Y-107446783D01*
X132960734Y-107445314D01*
X133011992Y-107456209D01*
X133055218Y-107461670D01*
X133076974Y-107470021D01*
X133108399Y-107476701D01*
X133147154Y-107496961D01*
X133179724Y-107509464D01*
X133205993Y-107527721D01*
X133242185Y-107546642D01*
X133267727Y-107570628D01*
X133289239Y-107585579D01*
X133316135Y-107616086D01*
X133352233Y-107649985D01*
X133365865Y-107672493D01*
X133377433Y-107685615D01*
X133400288Y-107729333D01*
X133430437Y-107779114D01*
X133435164Y-107796043D01*
X133444110Y-107813156D01*
X133493004Y-107863852D01*
X133561545Y-107880065D01*
X133627971Y-107856649D01*
X133660536Y-107808930D01*
X133665715Y-107811707D01*
X133694816Y-107757433D01*
X133717307Y-107706918D01*
X133730366Y-107691132D01*
X133735883Y-107680843D01*
X133772753Y-107639895D01*
X133813535Y-107590598D01*
X133823171Y-107583901D01*
X133825122Y-107581734D01*
X133877700Y-107546002D01*
X133937500Y-107504440D01*
X134003435Y-107481479D01*
X134060424Y-107460285D01*
X134066223Y-107459614D01*
X134080067Y-107454793D01*
X134141037Y-107450957D01*
X134192909Y-107444955D01*
X134207381Y-107446783D01*
X134230734Y-107445314D01*
X134281992Y-107456209D01*
X134325218Y-107461670D01*
X134346974Y-107470021D01*
X134378399Y-107476701D01*
X134417154Y-107496961D01*
X134449724Y-107509464D01*
X134475993Y-107527721D01*
X134512185Y-107546642D01*
X134537727Y-107570628D01*
X134559239Y-107585579D01*
X134586135Y-107616086D01*
X134622233Y-107649985D01*
X134635865Y-107672493D01*
X134647433Y-107685615D01*
X134670288Y-107729333D01*
X134700437Y-107779114D01*
X134705164Y-107796043D01*
X134714110Y-107813156D01*
X134763004Y-107863852D01*
X134831545Y-107880065D01*
X134897971Y-107856649D01*
X134930536Y-107808930D01*
X134935715Y-107811707D01*
X134964816Y-107757433D01*
X134987307Y-107706918D01*
X135000366Y-107691132D01*
X135005883Y-107680843D01*
X135042753Y-107639895D01*
X135083535Y-107590598D01*
X135093171Y-107583901D01*
X135095122Y-107581734D01*
X135147700Y-107546002D01*
X135207500Y-107504440D01*
X135273435Y-107481479D01*
X135330424Y-107460285D01*
X135336223Y-107459614D01*
X135350067Y-107454793D01*
X135411037Y-107450957D01*
X135462909Y-107444955D01*
X135477381Y-107446783D01*
X135500734Y-107445314D01*
X135551992Y-107456209D01*
X135595218Y-107461670D01*
X135616974Y-107470021D01*
X135648399Y-107476701D01*
X135687154Y-107496961D01*
X135719724Y-107509464D01*
X135745993Y-107527721D01*
X135782185Y-107546642D01*
X135807727Y-107570628D01*
X135829239Y-107585579D01*
X135856135Y-107616086D01*
X135892233Y-107649985D01*
X135905865Y-107672493D01*
X135917433Y-107685615D01*
X135940288Y-107729333D01*
X135970437Y-107779114D01*
X135975164Y-107796043D01*
X135984110Y-107813156D01*
X136033004Y-107863852D01*
X136101545Y-107880065D01*
X136167971Y-107856649D01*
X136200536Y-107808930D01*
X136205715Y-107811707D01*
X136234816Y-107757433D01*
X136257307Y-107706918D01*
X136270366Y-107691132D01*
X136275883Y-107680843D01*
X136312753Y-107639895D01*
X136353535Y-107590598D01*
X136363171Y-107583901D01*
X136365122Y-107581734D01*
X136417700Y-107546002D01*
X136477500Y-107504440D01*
X136543435Y-107481479D01*
X136600424Y-107460285D01*
X136606223Y-107459614D01*
X136620067Y-107454793D01*
X136681037Y-107450957D01*
X136732909Y-107444955D01*
X136747381Y-107446783D01*
G37*
G36*
X102549902Y-104769283D02*
G01*
X102594637Y-104769595D01*
X102638460Y-104778590D01*
X102688360Y-104783835D01*
X102730132Y-104797408D01*
X102767723Y-104805124D01*
X102814851Y-104824935D01*
X102868488Y-104842363D01*
X102901099Y-104861191D01*
X102930614Y-104873598D01*
X102978301Y-104905763D01*
X103032511Y-104937061D01*
X103055826Y-104958054D01*
X103077101Y-104972404D01*
X103122183Y-105017802D01*
X103173261Y-105063793D01*
X103188003Y-105084083D01*
X103201608Y-105097784D01*
X103240643Y-105156537D01*
X103284586Y-105217019D01*
X103292221Y-105234168D01*
X103299388Y-105244955D01*
X103328865Y-105316472D01*
X103361621Y-105390042D01*
X103364211Y-105402225D01*
X103366724Y-105408323D01*
X103383292Y-105491997D01*
X103400999Y-105575301D01*
X103400999Y-105764699D01*
X103398115Y-105778269D01*
X103398030Y-105784331D01*
X103379342Y-105866585D01*
X103361621Y-105949958D01*
X103359129Y-105955555D01*
X103359078Y-105955780D01*
X103287210Y-106117197D01*
X103287078Y-106117385D01*
X103284586Y-106122981D01*
X103234480Y-106191946D01*
X103185357Y-106261582D01*
X103180585Y-106266126D01*
X103173261Y-106276207D01*
X103113396Y-106330110D01*
X103057396Y-106383438D01*
X103046464Y-106390376D01*
X103032511Y-106402939D01*
X102967764Y-106440321D01*
X102908211Y-106478114D01*
X102890209Y-106485097D01*
X102868488Y-106497637D01*
X102803115Y-106518878D01*
X102743468Y-106542014D01*
X102718200Y-106546469D01*
X102688360Y-106556165D01*
X102626095Y-106562709D01*
X102569460Y-106572695D01*
X102537459Y-106572025D01*
X102500000Y-106575962D01*
X102443902Y-106570066D01*
X102392799Y-106568996D01*
X102355323Y-106560756D01*
X102311640Y-106556165D01*
X102263917Y-106540659D01*
X102220225Y-106531052D01*
X102179230Y-106513142D01*
X102131512Y-106497637D01*
X102093473Y-106475675D01*
X102058310Y-106460313D01*
X102016337Y-106431141D01*
X101967489Y-106402939D01*
X101939504Y-106377741D01*
X101913215Y-106359470D01*
X101873257Y-106318092D01*
X101826739Y-106276207D01*
X101808296Y-106250823D01*
X101790473Y-106232366D01*
X101755821Y-106178597D01*
X101715414Y-106122981D01*
X101705212Y-106100066D01*
X101694754Y-106083839D01*
X101668789Y-106018261D01*
X101638379Y-105949958D01*
X101634476Y-105931596D01*
X101629707Y-105919551D01*
X101615740Y-105843448D01*
X101599001Y-105764699D01*
X101599001Y-105752246D01*
X101597811Y-105745762D01*
X101599001Y-105660535D01*
X101599001Y-105575301D01*
X101600275Y-105569308D01*
X101600278Y-105569077D01*
X101637015Y-105396246D01*
X101637105Y-105396036D01*
X101638379Y-105390042D01*
X101673042Y-105312188D01*
X101706622Y-105233839D01*
X101710348Y-105228397D01*
X101715414Y-105217019D01*
X101762746Y-105151872D01*
X101806452Y-105088041D01*
X101815706Y-105078979D01*
X101826739Y-105063793D01*
X101882297Y-105013769D01*
X101932693Y-104964417D01*
X101948848Y-104953846D01*
X101967489Y-104937061D01*
X102027026Y-104902687D01*
X102080551Y-104867662D01*
X102104340Y-104858050D01*
X102131512Y-104842363D01*
X102191045Y-104823019D01*
X102244376Y-104801472D01*
X102275820Y-104795474D01*
X102311640Y-104783835D01*
X102367744Y-104777938D01*
X102417945Y-104768362D01*
X102456312Y-104768630D01*
X102500000Y-104764038D01*
X102549902Y-104769283D01*
G37*
G36*
X134747381Y-102946783D02*
G01*
X134770734Y-102945314D01*
X134821992Y-102956209D01*
X134865218Y-102961670D01*
X134886974Y-102970021D01*
X134918399Y-102976701D01*
X134957154Y-102996961D01*
X134989724Y-103009464D01*
X135015993Y-103027721D01*
X135052185Y-103046642D01*
X135077727Y-103070628D01*
X135099239Y-103085579D01*
X135126134Y-103116086D01*
X135162233Y-103149985D01*
X135175865Y-103172494D01*
X135187430Y-103185612D01*
X135209778Y-103228359D01*
X135258673Y-103279055D01*
X135327214Y-103295268D01*
X135393640Y-103271852D01*
X135436862Y-103216241D01*
X135445552Y-103170447D01*
X135445552Y-103012312D01*
X135451959Y-102980101D01*
X135463231Y-102963231D01*
X135480101Y-102951959D01*
X135512312Y-102945552D01*
X136487688Y-102945552D01*
X136519899Y-102951959D01*
X136536769Y-102963231D01*
X136548041Y-102980101D01*
X136554448Y-103012312D01*
X136554448Y-103987688D01*
X136551999Y-104000000D01*
X136548041Y-104019899D01*
X136536769Y-104036769D01*
X136519899Y-104048041D01*
X136500000Y-104051999D01*
X136487688Y-104054448D01*
X135512312Y-104054448D01*
X135480101Y-104048041D01*
X135463231Y-104036769D01*
X135451959Y-104019899D01*
X135445552Y-103987688D01*
X135445552Y-103829059D01*
X135425709Y-103761479D01*
X135372479Y-103715356D01*
X135302764Y-103705332D01*
X135238696Y-103734591D01*
X135215689Y-103763058D01*
X135204512Y-103780669D01*
X135180748Y-103823897D01*
X135168908Y-103836772D01*
X135154808Y-103858991D01*
X135118006Y-103892128D01*
X135090478Y-103922064D01*
X135068657Y-103936562D01*
X135042620Y-103960006D01*
X135006045Y-103978162D01*
X134979394Y-103995869D01*
X134946565Y-104007688D01*
X134907399Y-104027130D01*
X134875839Y-104033150D01*
X134853916Y-104041043D01*
X134810593Y-104045597D01*
X134759108Y-104055418D01*
X134735787Y-104053460D01*
X134721284Y-104054984D01*
X134669548Y-104047897D01*
X134608673Y-104042785D01*
X134594937Y-104037677D01*
X134589150Y-104036884D01*
X134532595Y-104014492D01*
X134467177Y-103990163D01*
X134408252Y-103947352D01*
X134356441Y-103910532D01*
X134354537Y-103908326D01*
X134345044Y-103901429D01*
X134305302Y-103851287D01*
X134269300Y-103809579D01*
X134264001Y-103799179D01*
X134251272Y-103783119D01*
X134229838Y-103732129D01*
X134208754Y-103690749D01*
X134204096Y-103670892D01*
X134192771Y-103643950D01*
X134186928Y-103597696D01*
X134178299Y-103560909D01*
X134178604Y-103531808D01*
X134173850Y-103494176D01*
X134179392Y-103456647D01*
X134179697Y-103427552D01*
X134189092Y-103390961D01*
X134195904Y-103344831D01*
X134207791Y-103318132D01*
X134212864Y-103298375D01*
X134234815Y-103257436D01*
X134257307Y-103206918D01*
X134270366Y-103191132D01*
X134275883Y-103180843D01*
X134312753Y-103139895D01*
X134353535Y-103090598D01*
X134363171Y-103083901D01*
X134365122Y-103081734D01*
X134417700Y-103046002D01*
X134477500Y-103004440D01*
X134543435Y-102981479D01*
X134600424Y-102960285D01*
X134606223Y-102959614D01*
X134620067Y-102954793D01*
X134681037Y-102950957D01*
X134732909Y-102944955D01*
X134747381Y-102946783D01*
G37*
G36*
X116049902Y-99639283D02*
G01*
X116094637Y-99639595D01*
X116138460Y-99648590D01*
X116188360Y-99653835D01*
X116230132Y-99667408D01*
X116267723Y-99675124D01*
X116314851Y-99694935D01*
X116368488Y-99712363D01*
X116401099Y-99731191D01*
X116430614Y-99743598D01*
X116478301Y-99775763D01*
X116532511Y-99807061D01*
X116555826Y-99828054D01*
X116577101Y-99842404D01*
X116622183Y-99887802D01*
X116673261Y-99933793D01*
X116688003Y-99954083D01*
X116701608Y-99967784D01*
X116740643Y-100026537D01*
X116784586Y-100087019D01*
X116792221Y-100104168D01*
X116799388Y-100114955D01*
X116828865Y-100186472D01*
X116861621Y-100260042D01*
X116864211Y-100272225D01*
X116866724Y-100278323D01*
X116883292Y-100361997D01*
X116900999Y-100445301D01*
X116900999Y-100634699D01*
X116898115Y-100648269D01*
X116898030Y-100654331D01*
X116879342Y-100736585D01*
X116861621Y-100819958D01*
X116859129Y-100825555D01*
X116859078Y-100825780D01*
X116787210Y-100987197D01*
X116787078Y-100987385D01*
X116784586Y-100992981D01*
X116734480Y-101061946D01*
X116685357Y-101131582D01*
X116680585Y-101136126D01*
X116673261Y-101146207D01*
X116613396Y-101200110D01*
X116557396Y-101253438D01*
X116546464Y-101260376D01*
X116532511Y-101272939D01*
X116467764Y-101310321D01*
X116408211Y-101348114D01*
X116390209Y-101355097D01*
X116368488Y-101367637D01*
X116303115Y-101388878D01*
X116243468Y-101412014D01*
X116218200Y-101416469D01*
X116188360Y-101426165D01*
X116126095Y-101432709D01*
X116069460Y-101442695D01*
X116037459Y-101442025D01*
X116000000Y-101445962D01*
X115943902Y-101440066D01*
X115892799Y-101438996D01*
X115855323Y-101430756D01*
X115811640Y-101426165D01*
X115763917Y-101410659D01*
X115720225Y-101401052D01*
X115679230Y-101383142D01*
X115631512Y-101367637D01*
X115593473Y-101345675D01*
X115558310Y-101330313D01*
X115516337Y-101301141D01*
X115467489Y-101272939D01*
X115439504Y-101247741D01*
X115413215Y-101229470D01*
X115373257Y-101188092D01*
X115326739Y-101146207D01*
X115308296Y-101120823D01*
X115290473Y-101102366D01*
X115255821Y-101048597D01*
X115215414Y-100992981D01*
X115205212Y-100970066D01*
X115194754Y-100953839D01*
X115168789Y-100888261D01*
X115138379Y-100819958D01*
X115134476Y-100801596D01*
X115129707Y-100789551D01*
X115115740Y-100713448D01*
X115099001Y-100634699D01*
X115099001Y-100622246D01*
X115097811Y-100615762D01*
X115099001Y-100530535D01*
X115099001Y-100445301D01*
X115100275Y-100439308D01*
X115100278Y-100439077D01*
X115137015Y-100266246D01*
X115137105Y-100266036D01*
X115138379Y-100260042D01*
X115173042Y-100182188D01*
X115206622Y-100103839D01*
X115210348Y-100098397D01*
X115215414Y-100087019D01*
X115262746Y-100021872D01*
X115306452Y-99958041D01*
X115315706Y-99948979D01*
X115326739Y-99933793D01*
X115382297Y-99883769D01*
X115432693Y-99834417D01*
X115448848Y-99823846D01*
X115467489Y-99807061D01*
X115527026Y-99772687D01*
X115580551Y-99737662D01*
X115604340Y-99728050D01*
X115631512Y-99712363D01*
X115691045Y-99693019D01*
X115744376Y-99671472D01*
X115775820Y-99665474D01*
X115811640Y-99653835D01*
X115867744Y-99647938D01*
X115917945Y-99638362D01*
X115956312Y-99638630D01*
X116000000Y-99634038D01*
X116049902Y-99639283D01*
G37*
G36*
X135969902Y-97099283D02*
G01*
X136014637Y-97099595D01*
X136058460Y-97108590D01*
X136108360Y-97113835D01*
X136150132Y-97127408D01*
X136187723Y-97135124D01*
X136234851Y-97154935D01*
X136288488Y-97172363D01*
X136321099Y-97191191D01*
X136350614Y-97203598D01*
X136398301Y-97235763D01*
X136452511Y-97267061D01*
X136475826Y-97288054D01*
X136497101Y-97302404D01*
X136542183Y-97347802D01*
X136593261Y-97393793D01*
X136608003Y-97414083D01*
X136621608Y-97427784D01*
X136660643Y-97486537D01*
X136704586Y-97547019D01*
X136712221Y-97564168D01*
X136719388Y-97574955D01*
X136748865Y-97646472D01*
X136781621Y-97720042D01*
X136784211Y-97732225D01*
X136786724Y-97738323D01*
X136803292Y-97821997D01*
X136820999Y-97905301D01*
X136820999Y-98094699D01*
X136818115Y-98108269D01*
X136818030Y-98114331D01*
X136799342Y-98196585D01*
X136781621Y-98279958D01*
X136779129Y-98285555D01*
X136779078Y-98285780D01*
X136707210Y-98447197D01*
X136707078Y-98447385D01*
X136704586Y-98452981D01*
X136654480Y-98521946D01*
X136605357Y-98591582D01*
X136600585Y-98596126D01*
X136593261Y-98606207D01*
X136533396Y-98660110D01*
X136477396Y-98713438D01*
X136466464Y-98720376D01*
X136452511Y-98732939D01*
X136387764Y-98770321D01*
X136328211Y-98808114D01*
X136310209Y-98815097D01*
X136288488Y-98827637D01*
X136223115Y-98848878D01*
X136163468Y-98872014D01*
X136138200Y-98876469D01*
X136108360Y-98886165D01*
X136046095Y-98892709D01*
X135989460Y-98902695D01*
X135957459Y-98902025D01*
X135920000Y-98905962D01*
X135863902Y-98900066D01*
X135812799Y-98898996D01*
X135775323Y-98890756D01*
X135731640Y-98886165D01*
X135683917Y-98870659D01*
X135640225Y-98861052D01*
X135599230Y-98843142D01*
X135551512Y-98827637D01*
X135513473Y-98805675D01*
X135478310Y-98790313D01*
X135436337Y-98761141D01*
X135387489Y-98732939D01*
X135359504Y-98707741D01*
X135333215Y-98689470D01*
X135293257Y-98648092D01*
X135246739Y-98606207D01*
X135228296Y-98580823D01*
X135210473Y-98562366D01*
X135175821Y-98508597D01*
X135135414Y-98452981D01*
X135125212Y-98430066D01*
X135114754Y-98413839D01*
X135088789Y-98348261D01*
X135058379Y-98279958D01*
X135054476Y-98261596D01*
X135049707Y-98249551D01*
X135035740Y-98173448D01*
X135019001Y-98094699D01*
X135019001Y-98082246D01*
X135017811Y-98075762D01*
X135019001Y-97990535D01*
X135019001Y-97905301D01*
X135020275Y-97899308D01*
X135020278Y-97899077D01*
X135057015Y-97726246D01*
X135057105Y-97726036D01*
X135058379Y-97720042D01*
X135093042Y-97642188D01*
X135126622Y-97563839D01*
X135130348Y-97558397D01*
X135135414Y-97547019D01*
X135182746Y-97481872D01*
X135226452Y-97418041D01*
X135235706Y-97408979D01*
X135246739Y-97393793D01*
X135302297Y-97343769D01*
X135352693Y-97294417D01*
X135368848Y-97283846D01*
X135387489Y-97267061D01*
X135447026Y-97232687D01*
X135500551Y-97197662D01*
X135524340Y-97188050D01*
X135551512Y-97172363D01*
X135611045Y-97153019D01*
X135664376Y-97131472D01*
X135695820Y-97125474D01*
X135731640Y-97113835D01*
X135787744Y-97107938D01*
X135837945Y-97098362D01*
X135876312Y-97098630D01*
X135920000Y-97094038D01*
X135969902Y-97099283D01*
G37*
G36*
X128129902Y-97099283D02*
G01*
X128174637Y-97099595D01*
X128218460Y-97108590D01*
X128268360Y-97113835D01*
X128310132Y-97127408D01*
X128347723Y-97135124D01*
X128394851Y-97154935D01*
X128448488Y-97172363D01*
X128481099Y-97191191D01*
X128510614Y-97203598D01*
X128558301Y-97235763D01*
X128612511Y-97267061D01*
X128635826Y-97288054D01*
X128657101Y-97302404D01*
X128702183Y-97347802D01*
X128753261Y-97393793D01*
X128768003Y-97414083D01*
X128781608Y-97427784D01*
X128820643Y-97486537D01*
X128864586Y-97547019D01*
X128872221Y-97564168D01*
X128879388Y-97574955D01*
X128908865Y-97646472D01*
X128941621Y-97720042D01*
X128944211Y-97732225D01*
X128946724Y-97738323D01*
X128963292Y-97821997D01*
X128980999Y-97905301D01*
X128980999Y-98094699D01*
X128978115Y-98108269D01*
X128978030Y-98114331D01*
X128959342Y-98196585D01*
X128941621Y-98279958D01*
X128939129Y-98285555D01*
X128939078Y-98285780D01*
X128867210Y-98447197D01*
X128867078Y-98447385D01*
X128864586Y-98452981D01*
X128814480Y-98521946D01*
X128765357Y-98591582D01*
X128760585Y-98596126D01*
X128753261Y-98606207D01*
X128693396Y-98660110D01*
X128637396Y-98713438D01*
X128626464Y-98720376D01*
X128612511Y-98732939D01*
X128547764Y-98770321D01*
X128488211Y-98808114D01*
X128470209Y-98815097D01*
X128448488Y-98827637D01*
X128383115Y-98848878D01*
X128323468Y-98872014D01*
X128298200Y-98876469D01*
X128268360Y-98886165D01*
X128206095Y-98892709D01*
X128149460Y-98902695D01*
X128117459Y-98902025D01*
X128080000Y-98905962D01*
X128023902Y-98900066D01*
X127972799Y-98898996D01*
X127935323Y-98890756D01*
X127891640Y-98886165D01*
X127843917Y-98870659D01*
X127800225Y-98861052D01*
X127759230Y-98843142D01*
X127711512Y-98827637D01*
X127673473Y-98805675D01*
X127638310Y-98790313D01*
X127596337Y-98761141D01*
X127547489Y-98732939D01*
X127519504Y-98707741D01*
X127493215Y-98689470D01*
X127453257Y-98648092D01*
X127406739Y-98606207D01*
X127388296Y-98580823D01*
X127370473Y-98562366D01*
X127335821Y-98508597D01*
X127295414Y-98452981D01*
X127285212Y-98430066D01*
X127274754Y-98413839D01*
X127248789Y-98348261D01*
X127218379Y-98279958D01*
X127214476Y-98261596D01*
X127209707Y-98249551D01*
X127195740Y-98173448D01*
X127179001Y-98094699D01*
X127179001Y-98082246D01*
X127177811Y-98075762D01*
X127179001Y-97990535D01*
X127179001Y-97905301D01*
X127180275Y-97899308D01*
X127180278Y-97899077D01*
X127217015Y-97726246D01*
X127217105Y-97726036D01*
X127218379Y-97720042D01*
X127253042Y-97642188D01*
X127286622Y-97563839D01*
X127290348Y-97558397D01*
X127295414Y-97547019D01*
X127342746Y-97481872D01*
X127386452Y-97418041D01*
X127395706Y-97408979D01*
X127406739Y-97393793D01*
X127462297Y-97343769D01*
X127512693Y-97294417D01*
X127528848Y-97283846D01*
X127547489Y-97267061D01*
X127607026Y-97232687D01*
X127660551Y-97197662D01*
X127684340Y-97188050D01*
X127711512Y-97172363D01*
X127771045Y-97153019D01*
X127824376Y-97131472D01*
X127855820Y-97125474D01*
X127891640Y-97113835D01*
X127947744Y-97107938D01*
X127997945Y-97098362D01*
X128036312Y-97098630D01*
X128080000Y-97094038D01*
X128129902Y-97099283D01*
G37*
G36*
X138509902Y-97099283D02*
G01*
X138554637Y-97099595D01*
X138598460Y-97108590D01*
X138648360Y-97113835D01*
X138690132Y-97127408D01*
X138727723Y-97135124D01*
X138774851Y-97154935D01*
X138828488Y-97172363D01*
X138861099Y-97191191D01*
X138890614Y-97203598D01*
X138938301Y-97235763D01*
X138992511Y-97267061D01*
X139015826Y-97288054D01*
X139037101Y-97302404D01*
X139082183Y-97347802D01*
X139133261Y-97393793D01*
X139148003Y-97414083D01*
X139161608Y-97427784D01*
X139200643Y-97486537D01*
X139244586Y-97547019D01*
X139252221Y-97564168D01*
X139259388Y-97574955D01*
X139288865Y-97646472D01*
X139321621Y-97720042D01*
X139324211Y-97732225D01*
X139326724Y-97738323D01*
X139343292Y-97821997D01*
X139360999Y-97905301D01*
X139360999Y-98094699D01*
X139358115Y-98108269D01*
X139358030Y-98114331D01*
X139339342Y-98196585D01*
X139321621Y-98279958D01*
X139319129Y-98285555D01*
X139319078Y-98285780D01*
X139247210Y-98447197D01*
X139247078Y-98447385D01*
X139244586Y-98452981D01*
X139194480Y-98521946D01*
X139145357Y-98591582D01*
X139140585Y-98596126D01*
X139133261Y-98606207D01*
X139073396Y-98660110D01*
X139017396Y-98713438D01*
X139006464Y-98720376D01*
X138992511Y-98732939D01*
X138927764Y-98770321D01*
X138868211Y-98808114D01*
X138850209Y-98815097D01*
X138828488Y-98827637D01*
X138763115Y-98848878D01*
X138703468Y-98872014D01*
X138678200Y-98876469D01*
X138648360Y-98886165D01*
X138586095Y-98892709D01*
X138529460Y-98902695D01*
X138497459Y-98902025D01*
X138460000Y-98905962D01*
X138403902Y-98900066D01*
X138352799Y-98898996D01*
X138315323Y-98890756D01*
X138271640Y-98886165D01*
X138223917Y-98870659D01*
X138180225Y-98861052D01*
X138139230Y-98843142D01*
X138091512Y-98827637D01*
X138053473Y-98805675D01*
X138018310Y-98790313D01*
X137976337Y-98761141D01*
X137927489Y-98732939D01*
X137899504Y-98707741D01*
X137873215Y-98689470D01*
X137833257Y-98648092D01*
X137786739Y-98606207D01*
X137768296Y-98580823D01*
X137750473Y-98562366D01*
X137715821Y-98508597D01*
X137675414Y-98452981D01*
X137665212Y-98430066D01*
X137654754Y-98413839D01*
X137628789Y-98348261D01*
X137598379Y-98279958D01*
X137594476Y-98261596D01*
X137589707Y-98249551D01*
X137575740Y-98173448D01*
X137559001Y-98094699D01*
X137559001Y-98082246D01*
X137557811Y-98075762D01*
X137559001Y-97990535D01*
X137559001Y-97905301D01*
X137560275Y-97899308D01*
X137560278Y-97899077D01*
X137597015Y-97726246D01*
X137597105Y-97726036D01*
X137598379Y-97720042D01*
X137633042Y-97642188D01*
X137666622Y-97563839D01*
X137670348Y-97558397D01*
X137675414Y-97547019D01*
X137722746Y-97481872D01*
X137766452Y-97418041D01*
X137775706Y-97408979D01*
X137786739Y-97393793D01*
X137842297Y-97343769D01*
X137892693Y-97294417D01*
X137908848Y-97283846D01*
X137927489Y-97267061D01*
X137987026Y-97232687D01*
X138040551Y-97197662D01*
X138064340Y-97188050D01*
X138091512Y-97172363D01*
X138151045Y-97153019D01*
X138204376Y-97131472D01*
X138235820Y-97125474D01*
X138271640Y-97113835D01*
X138327744Y-97107938D01*
X138377945Y-97098362D01*
X138416312Y-97098630D01*
X138460000Y-97094038D01*
X138509902Y-97099283D01*
G37*
G36*
X125589902Y-97099283D02*
G01*
X125634637Y-97099595D01*
X125678460Y-97108590D01*
X125728360Y-97113835D01*
X125770132Y-97127408D01*
X125807723Y-97135124D01*
X125854851Y-97154935D01*
X125908488Y-97172363D01*
X125941099Y-97191191D01*
X125970614Y-97203598D01*
X126018301Y-97235763D01*
X126072511Y-97267061D01*
X126095826Y-97288054D01*
X126117101Y-97302404D01*
X126162183Y-97347802D01*
X126213261Y-97393793D01*
X126228003Y-97414083D01*
X126241608Y-97427784D01*
X126280643Y-97486537D01*
X126324586Y-97547019D01*
X126332221Y-97564168D01*
X126339388Y-97574955D01*
X126368865Y-97646472D01*
X126401621Y-97720042D01*
X126404211Y-97732225D01*
X126406724Y-97738323D01*
X126423292Y-97821997D01*
X126440999Y-97905301D01*
X126440999Y-98094699D01*
X126438115Y-98108269D01*
X126438030Y-98114331D01*
X126419342Y-98196585D01*
X126401621Y-98279958D01*
X126399129Y-98285555D01*
X126399078Y-98285780D01*
X126327210Y-98447197D01*
X126327078Y-98447385D01*
X126324586Y-98452981D01*
X126274480Y-98521946D01*
X126225357Y-98591582D01*
X126220585Y-98596126D01*
X126213261Y-98606207D01*
X126153396Y-98660110D01*
X126097396Y-98713438D01*
X126086464Y-98720376D01*
X126072511Y-98732939D01*
X126007764Y-98770321D01*
X125948211Y-98808114D01*
X125930209Y-98815097D01*
X125908488Y-98827637D01*
X125843115Y-98848878D01*
X125783468Y-98872014D01*
X125758200Y-98876469D01*
X125728360Y-98886165D01*
X125666095Y-98892709D01*
X125609460Y-98902695D01*
X125577459Y-98902025D01*
X125540000Y-98905962D01*
X125483902Y-98900066D01*
X125432799Y-98898996D01*
X125395323Y-98890756D01*
X125351640Y-98886165D01*
X125303917Y-98870659D01*
X125260225Y-98861052D01*
X125219230Y-98843142D01*
X125171512Y-98827637D01*
X125133473Y-98805675D01*
X125098310Y-98790313D01*
X125056337Y-98761141D01*
X125007489Y-98732939D01*
X124979504Y-98707741D01*
X124953215Y-98689470D01*
X124913257Y-98648092D01*
X124866739Y-98606207D01*
X124848296Y-98580823D01*
X124830473Y-98562366D01*
X124795821Y-98508597D01*
X124755414Y-98452981D01*
X124745212Y-98430066D01*
X124734754Y-98413839D01*
X124708789Y-98348261D01*
X124678379Y-98279958D01*
X124674476Y-98261596D01*
X124669707Y-98249551D01*
X124655740Y-98173448D01*
X124639001Y-98094699D01*
X124639001Y-98082246D01*
X124637811Y-98075762D01*
X124639001Y-97990535D01*
X124639001Y-97905301D01*
X124640275Y-97899308D01*
X124640278Y-97899077D01*
X124677015Y-97726246D01*
X124677105Y-97726036D01*
X124678379Y-97720042D01*
X124713042Y-97642188D01*
X124746622Y-97563839D01*
X124750348Y-97558397D01*
X124755414Y-97547019D01*
X124802746Y-97481872D01*
X124846452Y-97418041D01*
X124855706Y-97408979D01*
X124866739Y-97393793D01*
X124922297Y-97343769D01*
X124972693Y-97294417D01*
X124988848Y-97283846D01*
X125007489Y-97267061D01*
X125067026Y-97232687D01*
X125120551Y-97197662D01*
X125144340Y-97188050D01*
X125171512Y-97172363D01*
X125231045Y-97153019D01*
X125284376Y-97131472D01*
X125315820Y-97125474D01*
X125351640Y-97113835D01*
X125407744Y-97107938D01*
X125457945Y-97098362D01*
X125496312Y-97098630D01*
X125540000Y-97094038D01*
X125589902Y-97099283D01*
G37*
G36*
X123869899Y-97101959D02*
G01*
X123886769Y-97113231D01*
X123898041Y-97130101D01*
X123904448Y-97162312D01*
X123904448Y-98837688D01*
X123901999Y-98850000D01*
X123898041Y-98869899D01*
X123886769Y-98886769D01*
X123869899Y-98898041D01*
X123850000Y-98901999D01*
X123837688Y-98904448D01*
X122162312Y-98904448D01*
X122130101Y-98898041D01*
X122113231Y-98886769D01*
X122101959Y-98869899D01*
X122095552Y-98837688D01*
X122095552Y-97162312D01*
X122101959Y-97130101D01*
X122113231Y-97113231D01*
X122130101Y-97101959D01*
X122162312Y-97095552D01*
X123837688Y-97095552D01*
X123869899Y-97101959D01*
G37*
G36*
X141869899Y-97101959D02*
G01*
X141886769Y-97113231D01*
X141898041Y-97130101D01*
X141904448Y-97162312D01*
X141904448Y-98837688D01*
X141901999Y-98850000D01*
X141898041Y-98869899D01*
X141886769Y-98886769D01*
X141869899Y-98898041D01*
X141850000Y-98901999D01*
X141837688Y-98904448D01*
X140162312Y-98904448D01*
X140130101Y-98898041D01*
X140113231Y-98886769D01*
X140101959Y-98869899D01*
X140095552Y-98837688D01*
X140095552Y-97162312D01*
X140101959Y-97130101D01*
X140113231Y-97113231D01*
X140130101Y-97101959D01*
X140162312Y-97095552D01*
X141837688Y-97095552D01*
X141869899Y-97101959D01*
G37*
G36*
X116869899Y-97101959D02*
G01*
X116886769Y-97113231D01*
X116898041Y-97130101D01*
X116904448Y-97162312D01*
X116904448Y-98837688D01*
X116901999Y-98850000D01*
X116898041Y-98869899D01*
X116886769Y-98886769D01*
X116869899Y-98898041D01*
X116850000Y-98901999D01*
X116837688Y-98904448D01*
X115162312Y-98904448D01*
X115130101Y-98898041D01*
X115113231Y-98886769D01*
X115101959Y-98869899D01*
X115095552Y-98837688D01*
X115095552Y-97162312D01*
X115101959Y-97130101D01*
X115113231Y-97113231D01*
X115130101Y-97101959D01*
X115162312Y-97095552D01*
X116837688Y-97095552D01*
X116869899Y-97101959D01*
G37*
M02*
