G04 #@! TF.GenerationSoftware,KiCad,Pcbnew,5.99.0-unknown-f1fcf3f~86~ubuntu18.04.1*
G04 #@! TF.CreationDate,2020-01-20T18:37:53-05:00*
G04 #@! TF.ProjectId,module_benchmark_extension_board,6d6f6475-6c65-45f6-9265-6e63686d6172,rev?*
G04 #@! TF.SameCoordinates,Original*
G04 #@! TF.FileFunction,Legend,Top*
G04 #@! TF.FilePolarity,Positive*
%FSLAX46Y46*%
G04 Gerber Fmt 4.6, Leading zero omitted, Abs format (unit mm)*
G04 Created by KiCad (PCBNEW 5.99.0-unknown-f1fcf3f~86~ubuntu18.04.1) date 2020-01-20 18:37:53*
%MOMM*%
%LPD*%
G04 APERTURE LIST*
%ADD10C,0.150000*%
%ADD11C,0.120000*%
%ADD12C,0.300000*%
G04 APERTURE END LIST*
D10*
X139292857Y-99952380D02*
X139292857Y-100190476D01*
X139102380Y-100095238D02*
X139292857Y-100190476D01*
X139483333Y-100095238D01*
X139178571Y-100380952D02*
X139292857Y-100190476D01*
X139407142Y-100380952D01*
X139788095Y-100428571D02*
X140054761Y-100428571D01*
X140169047Y-100952380D02*
X139788095Y-100952380D01*
X139788095Y-99952380D01*
X140169047Y-99952380D01*
X140435714Y-99952380D02*
X140969047Y-100952380D01*
X140969047Y-99952380D02*
X140435714Y-100952380D01*
X141159523Y-99952380D02*
X141616666Y-99952380D01*
X141388095Y-100952380D02*
X141388095Y-99952380D01*
X141807142Y-99952380D02*
X142302380Y-99952380D01*
X142035714Y-100333333D01*
X142150000Y-100333333D01*
X142226190Y-100380952D01*
X142264285Y-100428571D01*
X142302380Y-100523809D01*
X142302380Y-100761904D01*
X142264285Y-100857142D01*
X142226190Y-100904761D01*
X142150000Y-100952380D01*
X141921428Y-100952380D01*
X141845238Y-100904761D01*
X141807142Y-100857142D01*
X142530952Y-99952380D02*
X142797619Y-100952380D01*
X143064285Y-99952380D01*
X143254761Y-99952380D02*
X143750000Y-99952380D01*
X143483333Y-100333333D01*
X143597619Y-100333333D01*
X143673809Y-100380952D01*
X143711904Y-100428571D01*
X143750000Y-100523809D01*
X143750000Y-100761904D01*
X143711904Y-100857142D01*
X143673809Y-100904761D01*
X143597619Y-100952380D01*
X143369047Y-100952380D01*
X143292857Y-100904761D01*
X143254761Y-100857142D01*
X144207142Y-99952380D02*
X144207142Y-100190476D01*
X144016666Y-100095238D02*
X144207142Y-100190476D01*
X144397619Y-100095238D01*
X144092857Y-100380952D02*
X144207142Y-100190476D01*
X144321428Y-100380952D01*
X139292857Y-105452380D02*
X139292857Y-104452380D01*
X139597619Y-104452380D01*
X139673809Y-104500000D01*
X139711904Y-104547619D01*
X139750000Y-104642857D01*
X139750000Y-104785714D01*
X139711904Y-104880952D01*
X139673809Y-104928571D01*
X139597619Y-104976190D01*
X139292857Y-104976190D01*
X140016666Y-104452380D02*
X140207142Y-105452380D01*
X140359523Y-104738095D01*
X140511904Y-105452380D01*
X140702380Y-104452380D01*
X141464285Y-105452380D02*
X141197619Y-104976190D01*
X141007142Y-105452380D02*
X141007142Y-104452380D01*
X141311904Y-104452380D01*
X141388095Y-104500000D01*
X141426190Y-104547619D01*
X141464285Y-104642857D01*
X141464285Y-104785714D01*
X141426190Y-104880952D01*
X141388095Y-104928571D01*
X141311904Y-104976190D01*
X141007142Y-104976190D01*
X142797619Y-105452380D02*
X142416666Y-105452380D01*
X142416666Y-104452380D01*
X143064285Y-104928571D02*
X143330952Y-104928571D01*
X143445238Y-105452380D02*
X143064285Y-105452380D01*
X143064285Y-104452380D01*
X143445238Y-104452380D01*
X143788095Y-105452380D02*
X143788095Y-104452380D01*
X143978571Y-104452380D01*
X144092857Y-104500000D01*
X144169047Y-104595238D01*
X144207142Y-104690476D01*
X144245238Y-104880952D01*
X144245238Y-105023809D01*
X144207142Y-105214285D01*
X144169047Y-105309523D01*
X144092857Y-105404761D01*
X143978571Y-105452380D01*
X143788095Y-105452380D01*
X101464285Y-144452380D02*
X101464285Y-143452380D01*
X101921428Y-144452380D01*
X101921428Y-143452380D01*
X102302380Y-143928571D02*
X102569047Y-143928571D01*
X102683333Y-144452380D02*
X102302380Y-144452380D01*
X102302380Y-143452380D01*
X102683333Y-143452380D01*
X102911904Y-143452380D02*
X103369047Y-143452380D01*
X103140476Y-144452380D02*
X103140476Y-143452380D01*
X104626190Y-144452380D02*
X104245238Y-144452380D01*
X104245238Y-143452380D01*
X104892857Y-143928571D02*
X105159523Y-143928571D01*
X105273809Y-144452380D02*
X104892857Y-144452380D01*
X104892857Y-143452380D01*
X105273809Y-143452380D01*
X105616666Y-144452380D02*
X105616666Y-143452380D01*
X105807142Y-143452380D01*
X105921428Y-143500000D01*
X105997619Y-143595238D01*
X106035714Y-143690476D01*
X106073809Y-143880952D01*
X106073809Y-144023809D01*
X106035714Y-144214285D01*
X105997619Y-144309523D01*
X105921428Y-144404761D01*
X105807142Y-144452380D01*
X105616666Y-144452380D01*
X139714285Y-139952380D02*
X139714285Y-138952380D01*
X140171428Y-139952380D01*
X140171428Y-138952380D01*
X140552380Y-139428571D02*
X140819047Y-139428571D01*
X140933333Y-139952380D02*
X140552380Y-139952380D01*
X140552380Y-138952380D01*
X140933333Y-138952380D01*
X141161904Y-138952380D02*
X141619047Y-138952380D01*
X141390476Y-139952380D02*
X141390476Y-138952380D01*
X142876190Y-139952380D02*
X142495238Y-139952380D01*
X142495238Y-138952380D01*
X143142857Y-139428571D02*
X143409523Y-139428571D01*
X143523809Y-139952380D02*
X143142857Y-139952380D01*
X143142857Y-138952380D01*
X143523809Y-138952380D01*
X143866666Y-139952380D02*
X143866666Y-138952380D01*
X144057142Y-138952380D01*
X144171428Y-139000000D01*
X144247619Y-139095238D01*
X144285714Y-139190476D01*
X144323809Y-139380952D01*
X144323809Y-139523809D01*
X144285714Y-139714285D01*
X144247619Y-139809523D01*
X144171428Y-139904761D01*
X144057142Y-139952380D01*
X143866666Y-139952380D01*
X126285714Y-122452380D02*
X126619047Y-123452380D01*
X126952380Y-122452380D01*
X127666666Y-123404761D02*
X127571428Y-123452380D01*
X127380952Y-123452380D01*
X127285714Y-123404761D01*
X127238095Y-123309523D01*
X127238095Y-122928571D01*
X127285714Y-122833333D01*
X127380952Y-122785714D01*
X127571428Y-122785714D01*
X127666666Y-122833333D01*
X127714285Y-122928571D01*
X127714285Y-123023809D01*
X127238095Y-123119047D01*
X128142857Y-123452380D02*
X128142857Y-122785714D01*
X128142857Y-122976190D02*
X128190476Y-122880952D01*
X128238095Y-122833333D01*
X128333333Y-122785714D01*
X128428571Y-122785714D01*
X129476190Y-122547619D02*
X129523809Y-122500000D01*
X129619047Y-122452380D01*
X129857142Y-122452380D01*
X129952380Y-122500000D01*
X130000000Y-122547619D01*
X130047619Y-122642857D01*
X130047619Y-122738095D01*
X130000000Y-122880952D01*
X129428571Y-123452380D01*
X130047619Y-123452380D01*
X130476190Y-123357142D02*
X130523809Y-123404761D01*
X130476190Y-123452380D01*
X130428571Y-123404761D01*
X130476190Y-123357142D01*
X130476190Y-123452380D01*
X131142857Y-122452380D02*
X131238095Y-122452380D01*
X131333333Y-122500000D01*
X131380952Y-122547619D01*
X131428571Y-122642857D01*
X131476190Y-122833333D01*
X131476190Y-123071428D01*
X131428571Y-123261904D01*
X131380952Y-123357142D01*
X131333333Y-123404761D01*
X131238095Y-123452380D01*
X131142857Y-123452380D01*
X131047619Y-123404761D01*
X131000000Y-123357142D01*
X130952380Y-123261904D01*
X130904761Y-123071428D01*
X130904761Y-122833333D01*
X130952380Y-122642857D01*
X131000000Y-122547619D01*
X131047619Y-122500000D01*
X131142857Y-122452380D01*
X133000000Y-122928571D02*
X133142857Y-122976190D01*
X133190476Y-123023809D01*
X133238095Y-123119047D01*
X133238095Y-123261904D01*
X133190476Y-123357142D01*
X133142857Y-123404761D01*
X133047619Y-123452380D01*
X132666666Y-123452380D01*
X132666666Y-122452380D01*
X133000000Y-122452380D01*
X133095238Y-122500000D01*
X133142857Y-122547619D01*
X133190476Y-122642857D01*
X133190476Y-122738095D01*
X133142857Y-122833333D01*
X133095238Y-122880952D01*
X133000000Y-122928571D01*
X132666666Y-122928571D01*
X133571428Y-122785714D02*
X133809523Y-123452380D01*
X134047619Y-122785714D02*
X133809523Y-123452380D01*
X133714285Y-123690476D01*
X133666666Y-123738095D01*
X133571428Y-123785714D01*
X135190476Y-123452380D02*
X135190476Y-122452380D01*
X135428571Y-122452380D01*
X135571428Y-122500000D01*
X135666666Y-122595238D01*
X135714285Y-122690476D01*
X135761904Y-122880952D01*
X135761904Y-123023809D01*
X135714285Y-123214285D01*
X135666666Y-123309523D01*
X135571428Y-123404761D01*
X135428571Y-123452380D01*
X135190476Y-123452380D01*
X136380952Y-122976190D02*
X136380952Y-123452380D01*
X136047619Y-122452380D02*
X136380952Y-122976190D01*
X136714285Y-122452380D01*
X105988095Y-115750000D02*
X105892857Y-115702380D01*
X105750000Y-115702380D01*
X105607142Y-115750000D01*
X105511904Y-115845238D01*
X105464285Y-115940476D01*
X105416666Y-116130952D01*
X105416666Y-116273809D01*
X105464285Y-116464285D01*
X105511904Y-116559523D01*
X105607142Y-116654761D01*
X105750000Y-116702380D01*
X105845238Y-116702380D01*
X105988095Y-116654761D01*
X106035714Y-116607142D01*
X106035714Y-116273809D01*
X105845238Y-116273809D01*
X106464285Y-116702380D02*
X106464285Y-115702380D01*
X107035714Y-116702380D01*
X107035714Y-115702380D01*
X107511904Y-116702380D02*
X107511904Y-115702380D01*
X107750000Y-115702380D01*
X107892857Y-115750000D01*
X107988095Y-115845238D01*
X108035714Y-115940476D01*
X108083333Y-116130952D01*
X108083333Y-116273809D01*
X108035714Y-116464285D01*
X107988095Y-116559523D01*
X107892857Y-116654761D01*
X107750000Y-116702380D01*
X107511904Y-116702380D01*
X105285714Y-118202380D02*
X105285714Y-119011904D01*
X105333333Y-119107142D01*
X105380952Y-119154761D01*
X105476190Y-119202380D01*
X105666666Y-119202380D01*
X105761904Y-119154761D01*
X105809523Y-119107142D01*
X105857142Y-119011904D01*
X105857142Y-118202380D01*
X106285714Y-119154761D02*
X106428571Y-119202380D01*
X106666666Y-119202380D01*
X106761904Y-119154761D01*
X106809523Y-119107142D01*
X106857142Y-119011904D01*
X106857142Y-118916666D01*
X106809523Y-118821428D01*
X106761904Y-118773809D01*
X106666666Y-118726190D01*
X106476190Y-118678571D01*
X106380952Y-118630952D01*
X106333333Y-118583333D01*
X106285714Y-118488095D01*
X106285714Y-118392857D01*
X106333333Y-118297619D01*
X106380952Y-118250000D01*
X106476190Y-118202380D01*
X106714285Y-118202380D01*
X106857142Y-118250000D01*
X107619047Y-118678571D02*
X107761904Y-118726190D01*
X107809523Y-118773809D01*
X107857142Y-118869047D01*
X107857142Y-119011904D01*
X107809523Y-119107142D01*
X107761904Y-119154761D01*
X107666666Y-119202380D01*
X107285714Y-119202380D01*
X107285714Y-118202380D01*
X107619047Y-118202380D01*
X107714285Y-118250000D01*
X107761904Y-118297619D01*
X107809523Y-118392857D01*
X107809523Y-118488095D01*
X107761904Y-118583333D01*
X107714285Y-118630952D01*
X107619047Y-118678571D01*
X107285714Y-118678571D01*
X108047619Y-119297619D02*
X108809523Y-119297619D01*
X109047619Y-119202380D02*
X109047619Y-118202380D01*
X109285714Y-118202380D01*
X109428571Y-118250000D01*
X109523809Y-118345238D01*
X109571428Y-118440476D01*
X109619047Y-118630952D01*
X109619047Y-118773809D01*
X109571428Y-118964285D01*
X109523809Y-119059523D01*
X109428571Y-119154761D01*
X109285714Y-119202380D01*
X109047619Y-119202380D01*
X110047619Y-119202380D02*
X110047619Y-118202380D01*
X110380952Y-118916666D01*
X110714285Y-118202380D01*
X110714285Y-119202380D01*
X105357142Y-120702380D02*
X105357142Y-121511904D01*
X105404761Y-121607142D01*
X105452380Y-121654761D01*
X105547619Y-121702380D01*
X105738095Y-121702380D01*
X105833333Y-121654761D01*
X105880952Y-121607142D01*
X105928571Y-121511904D01*
X105928571Y-120702380D01*
X106357142Y-121654761D02*
X106500000Y-121702380D01*
X106738095Y-121702380D01*
X106833333Y-121654761D01*
X106880952Y-121607142D01*
X106928571Y-121511904D01*
X106928571Y-121416666D01*
X106880952Y-121321428D01*
X106833333Y-121273809D01*
X106738095Y-121226190D01*
X106547619Y-121178571D01*
X106452380Y-121130952D01*
X106404761Y-121083333D01*
X106357142Y-120988095D01*
X106357142Y-120892857D01*
X106404761Y-120797619D01*
X106452380Y-120750000D01*
X106547619Y-120702380D01*
X106785714Y-120702380D01*
X106928571Y-120750000D01*
X107690476Y-121178571D02*
X107833333Y-121226190D01*
X107880952Y-121273809D01*
X107928571Y-121369047D01*
X107928571Y-121511904D01*
X107880952Y-121607142D01*
X107833333Y-121654761D01*
X107738095Y-121702380D01*
X107357142Y-121702380D01*
X107357142Y-120702380D01*
X107690476Y-120702380D01*
X107785714Y-120750000D01*
X107833333Y-120797619D01*
X107880952Y-120892857D01*
X107880952Y-120988095D01*
X107833333Y-121083333D01*
X107785714Y-121130952D01*
X107690476Y-121178571D01*
X107357142Y-121178571D01*
X108119047Y-121797619D02*
X108880952Y-121797619D01*
X109119047Y-121702380D02*
X109119047Y-120702380D01*
X109357142Y-120702380D01*
X109500000Y-120750000D01*
X109595238Y-120845238D01*
X109642857Y-120940476D01*
X109690476Y-121130952D01*
X109690476Y-121273809D01*
X109642857Y-121464285D01*
X109595238Y-121559523D01*
X109500000Y-121654761D01*
X109357142Y-121702380D01*
X109119047Y-121702380D01*
X110119047Y-121702380D02*
X110119047Y-120702380D01*
X110500000Y-120702380D01*
X110595238Y-120750000D01*
X110642857Y-120797619D01*
X110690476Y-120892857D01*
X110690476Y-121035714D01*
X110642857Y-121130952D01*
X110595238Y-121178571D01*
X110500000Y-121226190D01*
X110119047Y-121226190D01*
X105214285Y-123202380D02*
X105214285Y-124011904D01*
X105261904Y-124107142D01*
X105309523Y-124154761D01*
X105404761Y-124202380D01*
X105595238Y-124202380D01*
X105690476Y-124154761D01*
X105738095Y-124107142D01*
X105785714Y-124011904D01*
X105785714Y-123202380D01*
X106214285Y-124154761D02*
X106357142Y-124202380D01*
X106595238Y-124202380D01*
X106690476Y-124154761D01*
X106738095Y-124107142D01*
X106785714Y-124011904D01*
X106785714Y-123916666D01*
X106738095Y-123821428D01*
X106690476Y-123773809D01*
X106595238Y-123726190D01*
X106404761Y-123678571D01*
X106309523Y-123630952D01*
X106261904Y-123583333D01*
X106214285Y-123488095D01*
X106214285Y-123392857D01*
X106261904Y-123297619D01*
X106309523Y-123250000D01*
X106404761Y-123202380D01*
X106642857Y-123202380D01*
X106785714Y-123250000D01*
X107547619Y-123678571D02*
X107690476Y-123726190D01*
X107738095Y-123773809D01*
X107785714Y-123869047D01*
X107785714Y-124011904D01*
X107738095Y-124107142D01*
X107690476Y-124154761D01*
X107595238Y-124202380D01*
X107214285Y-124202380D01*
X107214285Y-123202380D01*
X107547619Y-123202380D01*
X107642857Y-123250000D01*
X107690476Y-123297619D01*
X107738095Y-123392857D01*
X107738095Y-123488095D01*
X107690476Y-123583333D01*
X107642857Y-123630952D01*
X107547619Y-123678571D01*
X107214285Y-123678571D01*
X108214285Y-123821428D02*
X108976190Y-123821428D01*
X108595238Y-124202380D02*
X108595238Y-123440476D01*
X109928571Y-123202380D02*
X109452380Y-123202380D01*
X109404761Y-123678571D01*
X109452380Y-123630952D01*
X109547619Y-123583333D01*
X109785714Y-123583333D01*
X109880952Y-123630952D01*
X109928571Y-123678571D01*
X109976190Y-123773809D01*
X109976190Y-124011904D01*
X109928571Y-124107142D01*
X109880952Y-124154761D01*
X109785714Y-124202380D01*
X109547619Y-124202380D01*
X109452380Y-124154761D01*
X109404761Y-124107142D01*
X110261904Y-123202380D02*
X110595238Y-124202380D01*
X110928571Y-123202380D01*
D11*
X125500000Y-99000000D02*
X124500000Y-101500000D01*
X123000000Y-99000000D02*
X122000000Y-103000000D01*
D10*
X105000000Y-136952380D02*
X105000000Y-135952380D01*
X105333333Y-136666666D01*
X105666666Y-135952380D01*
X105666666Y-136952380D01*
X105904761Y-137047619D02*
X106666666Y-137047619D01*
X106857142Y-136666666D02*
X107333333Y-136666666D01*
X106761904Y-136952380D02*
X107095238Y-135952380D01*
X107428571Y-136952380D01*
X107761904Y-135952380D02*
X107761904Y-136761904D01*
X107809523Y-136857142D01*
X107857142Y-136904761D01*
X107952380Y-136952380D01*
X108142857Y-136952380D01*
X108238095Y-136904761D01*
X108285714Y-136857142D01*
X108333333Y-136761904D01*
X108333333Y-135952380D01*
X108714285Y-135952380D02*
X109380952Y-136952380D01*
X109380952Y-135952380D02*
X108714285Y-136952380D01*
X109523809Y-137047619D02*
X110285714Y-137047619D01*
X111095238Y-136952380D02*
X110761904Y-136476190D01*
X110523809Y-136952380D02*
X110523809Y-135952380D01*
X110904761Y-135952380D01*
X111000000Y-136000000D01*
X111047619Y-136047619D01*
X111095238Y-136142857D01*
X111095238Y-136285714D01*
X111047619Y-136380952D01*
X111000000Y-136428571D01*
X110904761Y-136476190D01*
X110523809Y-136476190D01*
X111428571Y-135952380D02*
X112095238Y-136952380D01*
X112095238Y-135952380D02*
X111428571Y-136952380D01*
X104869047Y-134452380D02*
X104869047Y-133452380D01*
X105202380Y-134166666D01*
X105535714Y-133452380D01*
X105535714Y-134452380D01*
X105773809Y-134547619D02*
X106535714Y-134547619D01*
X106726190Y-134166666D02*
X107202380Y-134166666D01*
X106630952Y-134452380D02*
X106964285Y-133452380D01*
X107297619Y-134452380D01*
X107630952Y-133452380D02*
X107630952Y-134261904D01*
X107678571Y-134357142D01*
X107726190Y-134404761D01*
X107821428Y-134452380D01*
X108011904Y-134452380D01*
X108107142Y-134404761D01*
X108154761Y-134357142D01*
X108202380Y-134261904D01*
X108202380Y-133452380D01*
X108583333Y-133452380D02*
X109250000Y-134452380D01*
X109250000Y-133452380D02*
X108583333Y-134452380D01*
X109392857Y-134547619D02*
X110154761Y-134547619D01*
X110250000Y-133452380D02*
X110821428Y-133452380D01*
X110535714Y-134452380D02*
X110535714Y-133452380D01*
X111059523Y-133452380D02*
X111726190Y-134452380D01*
X111726190Y-133452380D02*
X111059523Y-134452380D01*
X104928571Y-131952380D02*
X104928571Y-130952380D01*
X105261904Y-131666666D01*
X105595238Y-130952380D01*
X105595238Y-131952380D01*
X105833333Y-132047619D02*
X106595238Y-132047619D01*
X106833333Y-131952380D02*
X106833333Y-130952380D01*
X107071428Y-130952380D01*
X107214285Y-131000000D01*
X107309523Y-131095238D01*
X107357142Y-131190476D01*
X107404761Y-131380952D01*
X107404761Y-131523809D01*
X107357142Y-131714285D01*
X107309523Y-131809523D01*
X107214285Y-131904761D01*
X107071428Y-131952380D01*
X106833333Y-131952380D01*
X108166666Y-131428571D02*
X108309523Y-131476190D01*
X108357142Y-131523809D01*
X108404761Y-131619047D01*
X108404761Y-131761904D01*
X108357142Y-131857142D01*
X108309523Y-131904761D01*
X108214285Y-131952380D01*
X107833333Y-131952380D01*
X107833333Y-130952380D01*
X108166666Y-130952380D01*
X108261904Y-131000000D01*
X108309523Y-131047619D01*
X108357142Y-131142857D01*
X108357142Y-131238095D01*
X108309523Y-131333333D01*
X108261904Y-131380952D01*
X108166666Y-131428571D01*
X107833333Y-131428571D01*
X109357142Y-131000000D02*
X109261904Y-130952380D01*
X109119047Y-130952380D01*
X108976190Y-131000000D01*
X108880952Y-131095238D01*
X108833333Y-131190476D01*
X108785714Y-131380952D01*
X108785714Y-131523809D01*
X108833333Y-131714285D01*
X108880952Y-131809523D01*
X108976190Y-131904761D01*
X109119047Y-131952380D01*
X109214285Y-131952380D01*
X109357142Y-131904761D01*
X109404761Y-131857142D01*
X109404761Y-131523809D01*
X109214285Y-131523809D01*
X109595238Y-132047619D02*
X110357142Y-132047619D01*
X111166666Y-131952380D02*
X110833333Y-131476190D01*
X110595238Y-131952380D02*
X110595238Y-130952380D01*
X110976190Y-130952380D01*
X111071428Y-131000000D01*
X111119047Y-131047619D01*
X111166666Y-131142857D01*
X111166666Y-131285714D01*
X111119047Y-131380952D01*
X111071428Y-131428571D01*
X110976190Y-131476190D01*
X110595238Y-131476190D01*
X111500000Y-130952380D02*
X112166666Y-131952380D01*
X112166666Y-130952380D02*
X111500000Y-131952380D01*
D11*
X115750000Y-139500000D02*
X110250000Y-139500000D01*
X115750000Y-144500000D02*
X115750000Y-139500000D01*
X110250000Y-144500000D02*
X115750000Y-144500000D01*
X110250000Y-139500000D02*
X110250000Y-144500000D01*
X126000000Y-139250000D02*
X120750000Y-139250000D01*
X126000000Y-144500000D02*
X126000000Y-139250000D01*
X120750000Y-144500000D02*
X126000000Y-144500000D01*
X120750000Y-139250000D02*
X120750000Y-144500000D01*
X139000000Y-139500000D02*
X129750000Y-139500000D01*
X139000000Y-144500000D02*
X139000000Y-139500000D01*
X129750000Y-144500000D02*
X139000000Y-144500000D01*
X129750000Y-139500000D02*
X129750000Y-144500000D01*
X139000000Y-110500000D02*
X139000000Y-105500000D01*
X135750000Y-110500000D02*
X139000000Y-110500000D01*
X135750000Y-105500000D02*
X135750000Y-110500000D01*
X139000000Y-105500000D02*
X135750000Y-105500000D01*
X122250000Y-106000000D02*
X118250000Y-106000000D01*
X122250000Y-110250000D02*
X122250000Y-106000000D01*
X118250000Y-110250000D02*
X122250000Y-110250000D01*
X118250000Y-106000000D02*
X118250000Y-110250000D01*
D10*
X112238095Y-138250000D02*
X112142857Y-138202380D01*
X112000000Y-138202380D01*
X111857142Y-138250000D01*
X111761904Y-138345238D01*
X111714285Y-138440476D01*
X111666666Y-138630952D01*
X111666666Y-138773809D01*
X111714285Y-138964285D01*
X111761904Y-139059523D01*
X111857142Y-139154761D01*
X112000000Y-139202380D01*
X112095238Y-139202380D01*
X112238095Y-139154761D01*
X112285714Y-139107142D01*
X112285714Y-138773809D01*
X112095238Y-138773809D01*
X112714285Y-139202380D02*
X112714285Y-138202380D01*
X113285714Y-139202380D01*
X113285714Y-138202380D01*
X113761904Y-139202380D02*
X113761904Y-138202380D01*
X114000000Y-138202380D01*
X114142857Y-138250000D01*
X114238095Y-138345238D01*
X114285714Y-138440476D01*
X114333333Y-138630952D01*
X114333333Y-138773809D01*
X114285714Y-138964285D01*
X114238095Y-139059523D01*
X114142857Y-139154761D01*
X114000000Y-139202380D01*
X113761904Y-139202380D01*
X105488095Y-138750000D02*
X105392857Y-138702380D01*
X105250000Y-138702380D01*
X105107142Y-138750000D01*
X105011904Y-138845238D01*
X104964285Y-138940476D01*
X104916666Y-139130952D01*
X104916666Y-139273809D01*
X104964285Y-139464285D01*
X105011904Y-139559523D01*
X105107142Y-139654761D01*
X105250000Y-139702380D01*
X105345238Y-139702380D01*
X105488095Y-139654761D01*
X105535714Y-139607142D01*
X105535714Y-139273809D01*
X105345238Y-139273809D01*
X105964285Y-139702380D02*
X105964285Y-138702380D01*
X106535714Y-139702380D01*
X106535714Y-138702380D01*
X107011904Y-139702380D02*
X107011904Y-138702380D01*
X107250000Y-138702380D01*
X107392857Y-138750000D01*
X107488095Y-138845238D01*
X107535714Y-138940476D01*
X107583333Y-139130952D01*
X107583333Y-139273809D01*
X107535714Y-139464285D01*
X107488095Y-139559523D01*
X107392857Y-139654761D01*
X107250000Y-139702380D01*
X107011904Y-139702380D01*
X105488095Y-110250000D02*
X105392857Y-110202380D01*
X105250000Y-110202380D01*
X105107142Y-110250000D01*
X105011904Y-110345238D01*
X104964285Y-110440476D01*
X104916666Y-110630952D01*
X104916666Y-110773809D01*
X104964285Y-110964285D01*
X105011904Y-111059523D01*
X105107142Y-111154761D01*
X105250000Y-111202380D01*
X105345238Y-111202380D01*
X105488095Y-111154761D01*
X105535714Y-111107142D01*
X105535714Y-110773809D01*
X105345238Y-110773809D01*
X105964285Y-111202380D02*
X105964285Y-110202380D01*
X106535714Y-111202380D01*
X106535714Y-110202380D01*
X107011904Y-111202380D02*
X107011904Y-110202380D01*
X107250000Y-110202380D01*
X107392857Y-110250000D01*
X107488095Y-110345238D01*
X107535714Y-110440476D01*
X107583333Y-110630952D01*
X107583333Y-110773809D01*
X107535714Y-110964285D01*
X107488095Y-111059523D01*
X107392857Y-111154761D01*
X107250000Y-111202380D01*
X107011904Y-111202380D01*
X104678571Y-104952380D02*
X104678571Y-105190476D01*
X104488095Y-105095238D02*
X104678571Y-105190476D01*
X104869047Y-105095238D01*
X104564285Y-105380952D02*
X104678571Y-105190476D01*
X104792857Y-105380952D01*
X105173809Y-105428571D02*
X105440476Y-105428571D01*
X105554761Y-105952380D02*
X105173809Y-105952380D01*
X105173809Y-104952380D01*
X105554761Y-104952380D01*
X105821428Y-104952380D02*
X106354761Y-105952380D01*
X106354761Y-104952380D02*
X105821428Y-105952380D01*
X106545238Y-104952380D02*
X107002380Y-104952380D01*
X106773809Y-105952380D02*
X106773809Y-104952380D01*
X107688095Y-105000000D02*
X107611904Y-104952380D01*
X107497619Y-104952380D01*
X107383333Y-105000000D01*
X107307142Y-105095238D01*
X107269047Y-105190476D01*
X107230952Y-105380952D01*
X107230952Y-105523809D01*
X107269047Y-105714285D01*
X107307142Y-105809523D01*
X107383333Y-105904761D01*
X107497619Y-105952380D01*
X107573809Y-105952380D01*
X107688095Y-105904761D01*
X107726190Y-105857142D01*
X107726190Y-105523809D01*
X107573809Y-105523809D01*
X108069047Y-105952380D02*
X108069047Y-104952380D01*
X108526190Y-105952380D01*
X108526190Y-104952380D01*
X108907142Y-105952380D02*
X108907142Y-104952380D01*
X109097619Y-104952380D01*
X109211904Y-105000000D01*
X109288095Y-105095238D01*
X109326190Y-105190476D01*
X109364285Y-105380952D01*
X109364285Y-105523809D01*
X109326190Y-105714285D01*
X109288095Y-105809523D01*
X109211904Y-105904761D01*
X109097619Y-105952380D01*
X108907142Y-105952380D01*
X109821428Y-104952380D02*
X109821428Y-105190476D01*
X109630952Y-105095238D02*
X109821428Y-105190476D01*
X110011904Y-105095238D01*
X109707142Y-105380952D02*
X109821428Y-105190476D01*
X109935714Y-105380952D01*
X105488095Y-107750000D02*
X105392857Y-107702380D01*
X105250000Y-107702380D01*
X105107142Y-107750000D01*
X105011904Y-107845238D01*
X104964285Y-107940476D01*
X104916666Y-108130952D01*
X104916666Y-108273809D01*
X104964285Y-108464285D01*
X105011904Y-108559523D01*
X105107142Y-108654761D01*
X105250000Y-108702380D01*
X105345238Y-108702380D01*
X105488095Y-108654761D01*
X105535714Y-108607142D01*
X105535714Y-108273809D01*
X105345238Y-108273809D01*
X105964285Y-108702380D02*
X105964285Y-107702380D01*
X106535714Y-108702380D01*
X106535714Y-107702380D01*
X107011904Y-108702380D02*
X107011904Y-107702380D01*
X107250000Y-107702380D01*
X107392857Y-107750000D01*
X107488095Y-107845238D01*
X107535714Y-107940476D01*
X107583333Y-108130952D01*
X107583333Y-108273809D01*
X107535714Y-108464285D01*
X107488095Y-108559523D01*
X107392857Y-108654761D01*
X107250000Y-108702380D01*
X107011904Y-108702380D01*
X104797619Y-129202380D02*
X104797619Y-128202380D01*
X105130952Y-128916666D01*
X105464285Y-128202380D01*
X105464285Y-129202380D01*
X105702380Y-129297619D02*
X106464285Y-129297619D01*
X106702380Y-129202380D02*
X106702380Y-128202380D01*
X106940476Y-128202380D01*
X107083333Y-128250000D01*
X107178571Y-128345238D01*
X107226190Y-128440476D01*
X107273809Y-128630952D01*
X107273809Y-128773809D01*
X107226190Y-128964285D01*
X107178571Y-129059523D01*
X107083333Y-129154761D01*
X106940476Y-129202380D01*
X106702380Y-129202380D01*
X108035714Y-128678571D02*
X108178571Y-128726190D01*
X108226190Y-128773809D01*
X108273809Y-128869047D01*
X108273809Y-129011904D01*
X108226190Y-129107142D01*
X108178571Y-129154761D01*
X108083333Y-129202380D01*
X107702380Y-129202380D01*
X107702380Y-128202380D01*
X108035714Y-128202380D01*
X108130952Y-128250000D01*
X108178571Y-128297619D01*
X108226190Y-128392857D01*
X108226190Y-128488095D01*
X108178571Y-128583333D01*
X108130952Y-128630952D01*
X108035714Y-128678571D01*
X107702380Y-128678571D01*
X109226190Y-128250000D02*
X109130952Y-128202380D01*
X108988095Y-128202380D01*
X108845238Y-128250000D01*
X108750000Y-128345238D01*
X108702380Y-128440476D01*
X108654761Y-128630952D01*
X108654761Y-128773809D01*
X108702380Y-128964285D01*
X108750000Y-129059523D01*
X108845238Y-129154761D01*
X108988095Y-129202380D01*
X109083333Y-129202380D01*
X109226190Y-129154761D01*
X109273809Y-129107142D01*
X109273809Y-128773809D01*
X109083333Y-128773809D01*
X109464285Y-129297619D02*
X110226190Y-129297619D01*
X110321428Y-128202380D02*
X110892857Y-128202380D01*
X110607142Y-129202380D02*
X110607142Y-128202380D01*
X111130952Y-128202380D02*
X111797619Y-129202380D01*
X111797619Y-128202380D02*
X111130952Y-129202380D01*
X135011904Y-99952380D02*
X135630952Y-99952380D01*
X135297619Y-100333333D01*
X135440476Y-100333333D01*
X135535714Y-100380952D01*
X135583333Y-100428571D01*
X135630952Y-100523809D01*
X135630952Y-100761904D01*
X135583333Y-100857142D01*
X135535714Y-100904761D01*
X135440476Y-100952380D01*
X135154761Y-100952380D01*
X135059523Y-100904761D01*
X135011904Y-100857142D01*
X135916666Y-99952380D02*
X136250000Y-100952380D01*
X136583333Y-99952380D01*
X136821428Y-99952380D02*
X137440476Y-99952380D01*
X137107142Y-100333333D01*
X137250000Y-100333333D01*
X137345238Y-100380952D01*
X137392857Y-100428571D01*
X137440476Y-100523809D01*
X137440476Y-100761904D01*
X137392857Y-100857142D01*
X137345238Y-100904761D01*
X137250000Y-100952380D01*
X136964285Y-100952380D01*
X136869047Y-100904761D01*
X136821428Y-100857142D01*
X109809523Y-103452380D02*
X109809523Y-102452380D01*
X110190476Y-102452380D01*
X110285714Y-102500000D01*
X110333333Y-102547619D01*
X110380952Y-102642857D01*
X110380952Y-102785714D01*
X110333333Y-102880952D01*
X110285714Y-102928571D01*
X110190476Y-102976190D01*
X109809523Y-102976190D01*
X110714285Y-102452380D02*
X110952380Y-103452380D01*
X111142857Y-102738095D01*
X111333333Y-103452380D01*
X111571428Y-102452380D01*
X112523809Y-103452380D02*
X112190476Y-102976190D01*
X111952380Y-103452380D02*
X111952380Y-102452380D01*
X112333333Y-102452380D01*
X112428571Y-102500000D01*
X112476190Y-102547619D01*
X112523809Y-102642857D01*
X112523809Y-102785714D01*
X112476190Y-102880952D01*
X112428571Y-102928571D01*
X112333333Y-102976190D01*
X111952380Y-102976190D01*
X112714285Y-103547619D02*
X113476190Y-103547619D01*
X113714285Y-103452380D02*
X113714285Y-102452380D01*
X114285714Y-103452380D02*
X113857142Y-102880952D01*
X114285714Y-102452380D02*
X113714285Y-103023809D01*
X114714285Y-102928571D02*
X115047619Y-102928571D01*
X115190476Y-103452380D02*
X114714285Y-103452380D01*
X114714285Y-102452380D01*
X115190476Y-102452380D01*
X115809523Y-102976190D02*
X115809523Y-103452380D01*
X115476190Y-102452380D02*
X115809523Y-102976190D01*
X116142857Y-102452380D01*
X116476190Y-103071428D02*
X117238095Y-103071428D01*
X116857142Y-103452380D02*
X116857142Y-102690476D01*
X118238095Y-103452380D02*
X117666666Y-103452380D01*
X117952380Y-103452380D02*
X117952380Y-102452380D01*
X117857142Y-102595238D01*
X117761904Y-102690476D01*
X117666666Y-102738095D01*
X101404761Y-102452380D02*
X101404761Y-101452380D01*
X101785714Y-101452380D01*
X101880952Y-101500000D01*
X101928571Y-101547619D01*
X101976190Y-101642857D01*
X101976190Y-101785714D01*
X101928571Y-101880952D01*
X101880952Y-101928571D01*
X101785714Y-101976190D01*
X101404761Y-101976190D01*
X102309523Y-101452380D02*
X102547619Y-102452380D01*
X102738095Y-101738095D01*
X102928571Y-102452380D01*
X103166666Y-101452380D01*
X104119047Y-102452380D02*
X103785714Y-101976190D01*
X103547619Y-102452380D02*
X103547619Y-101452380D01*
X103928571Y-101452380D01*
X104023809Y-101500000D01*
X104071428Y-101547619D01*
X104119047Y-101642857D01*
X104119047Y-101785714D01*
X104071428Y-101880952D01*
X104023809Y-101928571D01*
X103928571Y-101976190D01*
X103547619Y-101976190D01*
X104309523Y-102547619D02*
X105071428Y-102547619D01*
X105309523Y-102452380D02*
X105309523Y-101452380D01*
X105880952Y-102452380D02*
X105452380Y-101880952D01*
X105880952Y-101452380D02*
X105309523Y-102023809D01*
X106309523Y-101928571D02*
X106642857Y-101928571D01*
X106785714Y-102452380D02*
X106309523Y-102452380D01*
X106309523Y-101452380D01*
X106785714Y-101452380D01*
X107404761Y-101976190D02*
X107404761Y-102452380D01*
X107071428Y-101452380D02*
X107404761Y-101976190D01*
X107738095Y-101452380D01*
X127488095Y-100000000D02*
X127392857Y-99952380D01*
X127250000Y-99952380D01*
X127107142Y-100000000D01*
X127011904Y-100095238D01*
X126964285Y-100190476D01*
X126916666Y-100380952D01*
X126916666Y-100523809D01*
X126964285Y-100714285D01*
X127011904Y-100809523D01*
X127107142Y-100904761D01*
X127250000Y-100952380D01*
X127345238Y-100952380D01*
X127488095Y-100904761D01*
X127535714Y-100857142D01*
X127535714Y-100523809D01*
X127345238Y-100523809D01*
X127964285Y-100952380D02*
X127964285Y-99952380D01*
X128535714Y-100952380D01*
X128535714Y-99952380D01*
X129011904Y-100952380D02*
X129011904Y-99952380D01*
X129250000Y-99952380D01*
X129392857Y-100000000D01*
X129488095Y-100095238D01*
X129535714Y-100190476D01*
X129583333Y-100380952D01*
X129583333Y-100523809D01*
X129535714Y-100714285D01*
X129488095Y-100809523D01*
X129392857Y-100904761D01*
X129250000Y-100952380D01*
X129011904Y-100952380D01*
X124035714Y-102702380D02*
X124035714Y-101702380D01*
X124369047Y-102416666D01*
X124702380Y-101702380D01*
X124702380Y-102702380D01*
X124940476Y-102797619D02*
X125702380Y-102797619D01*
X125940476Y-102702380D02*
X125940476Y-101702380D01*
X126273809Y-102416666D01*
X126607142Y-101702380D01*
X126607142Y-102702380D01*
X127035714Y-102416666D02*
X127511904Y-102416666D01*
X126940476Y-102702380D02*
X127273809Y-101702380D01*
X127607142Y-102702380D01*
X127940476Y-102702380D02*
X127940476Y-101702380D01*
X128416666Y-102702380D02*
X128416666Y-101702380D01*
X128988095Y-102702380D01*
X128988095Y-101702380D01*
X129226190Y-102797619D02*
X129988095Y-102797619D01*
X130083333Y-101702380D02*
X130654761Y-101702380D01*
X130369047Y-102702380D02*
X130369047Y-101702380D01*
X130892857Y-101702380D02*
X131559523Y-102702380D01*
X131559523Y-101702380D02*
X130892857Y-102702380D01*
X121166666Y-104452380D02*
X121166666Y-103452380D01*
X121500000Y-104166666D01*
X121833333Y-103452380D01*
X121833333Y-104452380D01*
X122071428Y-104547619D02*
X122833333Y-104547619D01*
X123071428Y-104452380D02*
X123071428Y-103452380D01*
X123404761Y-104166666D01*
X123738095Y-103452380D01*
X123738095Y-104452380D01*
X124166666Y-104166666D02*
X124642857Y-104166666D01*
X124071428Y-104452380D02*
X124404761Y-103452380D01*
X124738095Y-104452380D01*
X125071428Y-104452380D02*
X125071428Y-103452380D01*
X125547619Y-104452380D02*
X125547619Y-103452380D01*
X126119047Y-104452380D01*
X126119047Y-103452380D01*
X126357142Y-104547619D02*
X127119047Y-104547619D01*
X127928571Y-104452380D02*
X127595238Y-103976190D01*
X127357142Y-104452380D02*
X127357142Y-103452380D01*
X127738095Y-103452380D01*
X127833333Y-103500000D01*
X127880952Y-103547619D01*
X127928571Y-103642857D01*
X127928571Y-103785714D01*
X127880952Y-103880952D01*
X127833333Y-103928571D01*
X127738095Y-103976190D01*
X127357142Y-103976190D01*
X128261904Y-103452380D02*
X128928571Y-104452380D01*
X128928571Y-103452380D02*
X128261904Y-104452380D01*
D12*
X116126428Y-117294761D02*
X116126428Y-115294761D01*
X116626428Y-116723333D01*
X117126428Y-115294761D01*
X117126428Y-117294761D01*
X118055000Y-117294761D02*
X117912142Y-117199523D01*
X117840714Y-117104285D01*
X117769285Y-116913809D01*
X117769285Y-116342380D01*
X117840714Y-116151904D01*
X117912142Y-116056666D01*
X118055000Y-115961428D01*
X118269285Y-115961428D01*
X118412142Y-116056666D01*
X118483571Y-116151904D01*
X118555000Y-116342380D01*
X118555000Y-116913809D01*
X118483571Y-117104285D01*
X118412142Y-117199523D01*
X118269285Y-117294761D01*
X118055000Y-117294761D01*
X119840714Y-117294761D02*
X119840714Y-115294761D01*
X119840714Y-117199523D02*
X119697857Y-117294761D01*
X119412142Y-117294761D01*
X119269285Y-117199523D01*
X119197857Y-117104285D01*
X119126428Y-116913809D01*
X119126428Y-116342380D01*
X119197857Y-116151904D01*
X119269285Y-116056666D01*
X119412142Y-115961428D01*
X119697857Y-115961428D01*
X119840714Y-116056666D01*
X121197857Y-115961428D02*
X121197857Y-117294761D01*
X120555000Y-115961428D02*
X120555000Y-117009047D01*
X120626428Y-117199523D01*
X120769285Y-117294761D01*
X120983571Y-117294761D01*
X121126428Y-117199523D01*
X121197857Y-117104285D01*
X122126428Y-117294761D02*
X121983571Y-117199523D01*
X121912142Y-117009047D01*
X121912142Y-115294761D01*
X123269285Y-117199523D02*
X123126428Y-117294761D01*
X122840714Y-117294761D01*
X122697857Y-117199523D01*
X122626428Y-117009047D01*
X122626428Y-116247142D01*
X122697857Y-116056666D01*
X122840714Y-115961428D01*
X123126428Y-115961428D01*
X123269285Y-116056666D01*
X123340714Y-116247142D01*
X123340714Y-116437619D01*
X122626428Y-116628095D01*
X125626428Y-116247142D02*
X125840714Y-116342380D01*
X125912142Y-116437619D01*
X125983571Y-116628095D01*
X125983571Y-116913809D01*
X125912142Y-117104285D01*
X125840714Y-117199523D01*
X125697857Y-117294761D01*
X125126428Y-117294761D01*
X125126428Y-115294761D01*
X125626428Y-115294761D01*
X125769285Y-115390000D01*
X125840714Y-115485238D01*
X125912142Y-115675714D01*
X125912142Y-115866190D01*
X125840714Y-116056666D01*
X125769285Y-116151904D01*
X125626428Y-116247142D01*
X125126428Y-116247142D01*
X127197857Y-117199523D02*
X127055000Y-117294761D01*
X126769285Y-117294761D01*
X126626428Y-117199523D01*
X126555000Y-117009047D01*
X126555000Y-116247142D01*
X126626428Y-116056666D01*
X126769285Y-115961428D01*
X127055000Y-115961428D01*
X127197857Y-116056666D01*
X127269285Y-116247142D01*
X127269285Y-116437619D01*
X126555000Y-116628095D01*
X127912142Y-115961428D02*
X127912142Y-117294761D01*
X127912142Y-116151904D02*
X127983571Y-116056666D01*
X128126428Y-115961428D01*
X128340714Y-115961428D01*
X128483571Y-116056666D01*
X128555000Y-116247142D01*
X128555000Y-117294761D01*
X129912142Y-117199523D02*
X129769285Y-117294761D01*
X129483571Y-117294761D01*
X129340714Y-117199523D01*
X129269285Y-117104285D01*
X129197857Y-116913809D01*
X129197857Y-116342380D01*
X129269285Y-116151904D01*
X129340714Y-116056666D01*
X129483571Y-115961428D01*
X129769285Y-115961428D01*
X129912142Y-116056666D01*
X130555000Y-117294761D02*
X130555000Y-115294761D01*
X131197857Y-117294761D02*
X131197857Y-116247142D01*
X131126428Y-116056666D01*
X130983571Y-115961428D01*
X130769285Y-115961428D01*
X130626428Y-116056666D01*
X130555000Y-116151904D01*
X131912142Y-117294761D02*
X131912142Y-115961428D01*
X131912142Y-116151904D02*
X131983571Y-116056666D01*
X132126428Y-115961428D01*
X132340714Y-115961428D01*
X132483571Y-116056666D01*
X132555000Y-116247142D01*
X132555000Y-117294761D01*
X132555000Y-116247142D02*
X132626428Y-116056666D01*
X132769285Y-115961428D01*
X132983571Y-115961428D01*
X133126428Y-116056666D01*
X133197857Y-116247142D01*
X133197857Y-117294761D01*
X134555000Y-117294761D02*
X134555000Y-116247142D01*
X134483571Y-116056666D01*
X134340714Y-115961428D01*
X134055000Y-115961428D01*
X133912142Y-116056666D01*
X134555000Y-117199523D02*
X134412142Y-117294761D01*
X134055000Y-117294761D01*
X133912142Y-117199523D01*
X133840714Y-117009047D01*
X133840714Y-116818571D01*
X133912142Y-116628095D01*
X134055000Y-116532857D01*
X134412142Y-116532857D01*
X134555000Y-116437619D01*
X135269285Y-117294761D02*
X135269285Y-115961428D01*
X135269285Y-116342380D02*
X135340714Y-116151904D01*
X135412142Y-116056666D01*
X135555000Y-115961428D01*
X135697857Y-115961428D01*
X136197857Y-117294761D02*
X136197857Y-115294761D01*
X136340714Y-116532857D02*
X136769285Y-117294761D01*
X136769285Y-115961428D02*
X136197857Y-116723333D01*
X119055000Y-119467142D02*
X119555000Y-119467142D01*
X119769285Y-120514761D02*
X119055000Y-120514761D01*
X119055000Y-118514761D01*
X119769285Y-118514761D01*
X120269285Y-120514761D02*
X121055000Y-119181428D01*
X120269285Y-119181428D02*
X121055000Y-120514761D01*
X121412142Y-119181428D02*
X121983571Y-119181428D01*
X121626428Y-118514761D02*
X121626428Y-120229047D01*
X121697857Y-120419523D01*
X121840714Y-120514761D01*
X121983571Y-120514761D01*
X123055000Y-120419523D02*
X122912142Y-120514761D01*
X122626428Y-120514761D01*
X122483571Y-120419523D01*
X122412142Y-120229047D01*
X122412142Y-119467142D01*
X122483571Y-119276666D01*
X122626428Y-119181428D01*
X122912142Y-119181428D01*
X123055000Y-119276666D01*
X123126428Y-119467142D01*
X123126428Y-119657619D01*
X122412142Y-119848095D01*
X123769285Y-119181428D02*
X123769285Y-120514761D01*
X123769285Y-119371904D02*
X123840714Y-119276666D01*
X123983571Y-119181428D01*
X124197857Y-119181428D01*
X124340714Y-119276666D01*
X124412142Y-119467142D01*
X124412142Y-120514761D01*
X125055000Y-120419523D02*
X125197857Y-120514761D01*
X125483571Y-120514761D01*
X125626428Y-120419523D01*
X125697857Y-120229047D01*
X125697857Y-120133809D01*
X125626428Y-119943333D01*
X125483571Y-119848095D01*
X125269285Y-119848095D01*
X125126428Y-119752857D01*
X125055000Y-119562380D01*
X125055000Y-119467142D01*
X125126428Y-119276666D01*
X125269285Y-119181428D01*
X125483571Y-119181428D01*
X125626428Y-119276666D01*
X126340714Y-120514761D02*
X126340714Y-119181428D01*
X126340714Y-118514761D02*
X126269285Y-118610000D01*
X126340714Y-118705238D01*
X126412142Y-118610000D01*
X126340714Y-118514761D01*
X126340714Y-118705238D01*
X127269285Y-120514761D02*
X127126428Y-120419523D01*
X127055000Y-120324285D01*
X126983571Y-120133809D01*
X126983571Y-119562380D01*
X127055000Y-119371904D01*
X127126428Y-119276666D01*
X127269285Y-119181428D01*
X127483571Y-119181428D01*
X127626428Y-119276666D01*
X127697857Y-119371904D01*
X127769285Y-119562380D01*
X127769285Y-120133809D01*
X127697857Y-120324285D01*
X127626428Y-120419523D01*
X127483571Y-120514761D01*
X127269285Y-120514761D01*
X128412142Y-119181428D02*
X128412142Y-120514761D01*
X128412142Y-119371904D02*
X128483571Y-119276666D01*
X128626428Y-119181428D01*
X128840714Y-119181428D01*
X128983571Y-119276666D01*
X129055000Y-119467142D01*
X129055000Y-120514761D01*
X131412142Y-119467142D02*
X131626428Y-119562380D01*
X131697857Y-119657619D01*
X131769285Y-119848095D01*
X131769285Y-120133809D01*
X131697857Y-120324285D01*
X131626428Y-120419523D01*
X131483571Y-120514761D01*
X130912142Y-120514761D01*
X130912142Y-118514761D01*
X131412142Y-118514761D01*
X131555000Y-118610000D01*
X131626428Y-118705238D01*
X131697857Y-118895714D01*
X131697857Y-119086190D01*
X131626428Y-119276666D01*
X131555000Y-119371904D01*
X131412142Y-119467142D01*
X130912142Y-119467142D01*
X132626428Y-120514761D02*
X132483571Y-120419523D01*
X132412142Y-120324285D01*
X132340714Y-120133809D01*
X132340714Y-119562380D01*
X132412142Y-119371904D01*
X132483571Y-119276666D01*
X132626428Y-119181428D01*
X132840714Y-119181428D01*
X132983571Y-119276666D01*
X133055000Y-119371904D01*
X133126428Y-119562380D01*
X133126428Y-120133809D01*
X133055000Y-120324285D01*
X132983571Y-120419523D01*
X132840714Y-120514761D01*
X132626428Y-120514761D01*
X134412142Y-120514761D02*
X134412142Y-119467142D01*
X134340714Y-119276666D01*
X134197857Y-119181428D01*
X133912142Y-119181428D01*
X133769285Y-119276666D01*
X134412142Y-120419523D02*
X134269285Y-120514761D01*
X133912142Y-120514761D01*
X133769285Y-120419523D01*
X133697857Y-120229047D01*
X133697857Y-120038571D01*
X133769285Y-119848095D01*
X133912142Y-119752857D01*
X134269285Y-119752857D01*
X134412142Y-119657619D01*
X135126428Y-120514761D02*
X135126428Y-119181428D01*
X135126428Y-119562380D02*
X135197857Y-119371904D01*
X135269285Y-119276666D01*
X135412142Y-119181428D01*
X135555000Y-119181428D01*
X136697857Y-120514761D02*
X136697857Y-118514761D01*
X136697857Y-120419523D02*
X136555000Y-120514761D01*
X136269285Y-120514761D01*
X136126428Y-120419523D01*
X136055000Y-120324285D01*
X135983571Y-120133809D01*
X135983571Y-119562380D01*
X136055000Y-119371904D01*
X136126428Y-119276666D01*
X136269285Y-119181428D01*
X136555000Y-119181428D01*
X136697857Y-119276666D01*
D11*
X106587221Y-142240000D02*
X106912779Y-142240000D01*
X106587221Y-143260000D02*
X106912779Y-143260000D01*
X139162779Y-104010000D02*
X138837221Y-104010000D01*
X139162779Y-102990000D02*
X138837221Y-102990000D01*
X119100000Y-139600000D02*
X118700000Y-139600000D01*
X118700000Y-139600000D02*
X118700000Y-139400000D01*
X118700000Y-138600000D02*
X118700000Y-138400000D01*
X118700000Y-138400000D02*
X119100000Y-138400000D01*
X119500000Y-139200000D02*
X119500000Y-138800000D01*
X140535000Y-140890000D02*
X140535000Y-141692470D01*
X140535000Y-142307530D02*
X140535000Y-143110000D01*
X141740000Y-140890000D02*
X140535000Y-140890000D01*
X141740000Y-143110000D02*
X140535000Y-143110000D01*
X141740000Y-140890000D02*
X141740000Y-141436529D01*
X141740000Y-142563471D02*
X141740000Y-143110000D01*
X142500000Y-140890000D02*
X143260000Y-140890000D01*
X143260000Y-140890000D02*
X143260000Y-142000000D01*
X134035000Y-102390000D02*
X134035000Y-103192470D01*
X134035000Y-103807530D02*
X134035000Y-104610000D01*
X135240000Y-102390000D02*
X134035000Y-102390000D01*
X135240000Y-104610000D02*
X134035000Y-104610000D01*
X135240000Y-102390000D02*
X135240000Y-102936529D01*
X135240000Y-104063471D02*
X135240000Y-104610000D01*
X136000000Y-102390000D02*
X136760000Y-102390000D01*
X136760000Y-102390000D02*
X136760000Y-103500000D01*
X129410000Y-99330000D02*
X129410000Y-96670000D01*
X124270000Y-99330000D02*
X129410000Y-99330000D01*
X124270000Y-96670000D02*
X129410000Y-96670000D01*
X124270000Y-99330000D02*
X124270000Y-96670000D01*
X123000000Y-99330000D02*
X121670000Y-99330000D01*
X121670000Y-99330000D02*
X121670000Y-98000000D01*
X103800000Y-142015000D02*
X101515000Y-142015000D01*
X101515000Y-142015000D02*
X101515000Y-143485000D01*
X101515000Y-143485000D02*
X103800000Y-143485000D01*
X141450000Y-104235000D02*
X143735000Y-104235000D01*
X143735000Y-104235000D02*
X143735000Y-102765000D01*
X143735000Y-102765000D02*
X141450000Y-102765000D01*
X138250000Y-137000000D02*
X142950000Y-137000000D01*
X142950000Y-137000000D02*
X142950000Y-126000000D01*
X142950000Y-126000000D02*
X138250000Y-126000000D01*
X129550000Y-126000000D02*
X129550000Y-137000000D01*
X129550000Y-137000000D02*
X134250000Y-137000000D01*
X129550000Y-126000000D02*
X134250000Y-126000000D01*
X101170000Y-114920000D02*
X102500000Y-114920000D01*
X101170000Y-116250000D02*
X101170000Y-114920000D01*
X101170000Y-117520000D02*
X103830000Y-117520000D01*
X103830000Y-117520000D02*
X103830000Y-125200000D01*
X101170000Y-117520000D02*
X101170000Y-125200000D01*
X101170000Y-125200000D02*
X103830000Y-125200000D01*
X110110000Y-100760000D02*
X103990000Y-100760000D01*
X103990000Y-100760000D02*
X103990000Y-97140000D01*
X110110000Y-97140000D02*
X110110000Y-100760000D01*
X103990000Y-97140000D02*
X110110000Y-97140000D01*
X103830000Y-127510000D02*
X101170000Y-127510000D01*
X103830000Y-137730000D02*
X103830000Y-127510000D01*
X101170000Y-137730000D02*
X101170000Y-127510000D01*
X103830000Y-137730000D02*
X101170000Y-137730000D01*
X103830000Y-139000000D02*
X103830000Y-140330000D01*
X103830000Y-140330000D02*
X102500000Y-140330000D01*
X103830000Y-104340000D02*
X101170000Y-104340000D01*
X103830000Y-109480000D02*
X103830000Y-104340000D01*
X101170000Y-109480000D02*
X101170000Y-104340000D01*
X103830000Y-109480000D02*
X101170000Y-109480000D01*
X103830000Y-110750000D02*
X103830000Y-112080000D01*
X103830000Y-112080000D02*
X102500000Y-112080000D01*
X134590000Y-96670000D02*
X134590000Y-99330000D01*
X139730000Y-96670000D02*
X134590000Y-96670000D01*
X139730000Y-99330000D02*
X134590000Y-99330000D01*
X139730000Y-96670000D02*
X139730000Y-99330000D01*
X141000000Y-96670000D02*
X142330000Y-96670000D01*
X142330000Y-96670000D02*
X142330000Y-98000000D01*
X114670000Y-101870000D02*
X117330000Y-101870000D01*
X114670000Y-99270000D02*
X114670000Y-101870000D01*
X117330000Y-99270000D02*
X117330000Y-101870000D01*
X114670000Y-99270000D02*
X117330000Y-99270000D01*
X114670000Y-98000000D02*
X114670000Y-96670000D01*
X114670000Y-96670000D02*
X116000000Y-96670000D01*
X137365000Y-140670000D02*
X137365000Y-141240000D01*
X137365000Y-142760000D02*
X137365000Y-143330000D01*
X137365000Y-140670000D02*
X110635000Y-140670000D01*
X110635000Y-140670000D02*
X110635000Y-141692470D01*
X110635000Y-142307530D02*
X110635000Y-143330000D01*
X137365000Y-143330000D02*
X110635000Y-143330000D01*
X138760000Y-143330000D02*
X138000000Y-143330000D01*
X138760000Y-142000000D02*
X138760000Y-143330000D01*
X137365000Y-106670000D02*
X137365000Y-107240000D01*
X137365000Y-108760000D02*
X137365000Y-109330000D01*
X137365000Y-106670000D02*
X110635000Y-106670000D01*
X110635000Y-106670000D02*
X110635000Y-107692470D01*
X110635000Y-108307530D02*
X110635000Y-109330000D01*
X137365000Y-109330000D02*
X110635000Y-109330000D01*
X138760000Y-109330000D02*
X138000000Y-109330000D01*
X138760000Y-108000000D02*
X138760000Y-109330000D01*
D10*
X136202380Y-131833333D02*
X136916666Y-131833333D01*
X137059523Y-131880952D01*
X137154761Y-131976190D01*
X137202380Y-132119047D01*
X137202380Y-132214285D01*
X137202380Y-131309523D02*
X137202380Y-131119047D01*
X137154761Y-131023809D01*
X137107142Y-130976190D01*
X136964285Y-130880952D01*
X136773809Y-130833333D01*
X136392857Y-130833333D01*
X136297619Y-130880952D01*
X136250000Y-130928571D01*
X136202380Y-131023809D01*
X136202380Y-131214285D01*
X136250000Y-131309523D01*
X136297619Y-131357142D01*
X136392857Y-131404761D01*
X136630952Y-131404761D01*
X136726190Y-131357142D01*
X136773809Y-131309523D01*
X136821428Y-131214285D01*
X136821428Y-131023809D01*
X136773809Y-130928571D01*
X136726190Y-130880952D01*
X136630952Y-130833333D01*
M02*
