M48
; DRILL file {KiCad 5.99.0-unknown-89e9857~86~ubuntu18.04.1} date Tue 15 Oct 2019 01:47:50 PM EDT
; FORMAT={-:-/ absolute / inch / decimal}
; #@! TF.CreationDate,2019-10-15T13:47:50-04:00
; #@! TF.GenerationSoftware,Kicad,Pcbnew,5.99.0-unknown-89e9857~86~ubuntu18.04.1
; #@! TF.FileFunction,Plated,1,2,PTH
FMAT,2
INCH
T1C0.0118
T2C0.0256
%
G90
G05
T1
X5.1654Y-4.4252
X5.1772Y-3.2087
X5.1772Y-4.126
X5.1772Y-4.6654
X5.2165Y-4.2441
X5.252Y-3.378
X5.2717Y-4.4252
X5.2795Y-3.5512
X5.3228Y-3.811
X5.3583Y-3.7795
X5.374Y-3.7323
X5.4016Y-4.1457
X5.4213Y-4.2087
X5.4252Y-4.4764
X5.4488Y-3.6693
X5.4606Y-4.2323
X5.4961Y-3.4528
X5.5748Y-4.5394
X5.6654Y-4.6693
X5.7008Y-4.5236
X5.7402Y-4.6732
X5.8425Y-4.4252
X5.8858Y-4.4528
X5.936Y-4.4822
X5.9685Y-4.6732
X5.9843Y-4.5118
X6.061Y-4.1043
X6.0748Y-3.9921
X6.0827Y-3.685
X6.0945Y-3.7717
X6.1378Y-3.5197
X6.2362Y-3.7835
X6.2362Y-3.8346
X6.2441Y-3.6457
X6.2441Y-3.6811
X6.2559Y-4.6732
X6.2638Y-4.0039
X6.2677Y-4.3425
X6.2953Y-3.8346
X6.3031Y-3.6457
X6.3031Y-3.6811
X6.3228Y-3.7835
X6.3543Y-3.8346
X6.3622Y-3.6457
X6.3622Y-3.6811
X6.3701Y-3.7835
X6.4134Y-3.8346
X6.4173Y-3.7835
X6.4213Y-3.6457
X6.4213Y-3.6811
X6.4528Y-4.3189
X6.4567Y-3.4488
X6.4646Y-4.6496
X6.4724Y-3.8346
X6.4803Y-3.5945
X6.4803Y-3.6457
X6.4803Y-3.6811
X6.4921Y-3.8819
X6.5079Y-3.7835
X6.5197Y-3.5591
X6.5472Y-3.9055
X6.5787Y-3.5591
X6.5906Y-4.4803
X6.6063Y-3.9055
X6.6181Y-4.3976
X6.6339Y-3.2087
X6.6339Y-4.6654
X6.6378Y-3.5591
X6.6575Y-3.9055
T2
X5.2886Y-4.6063
X5.3386Y-4.6063
X5.3886Y-4.6063
X5.4386Y-4.6063
X5.4886Y-4.6063
X5.5386Y-4.6063
X5.5886Y-4.6063
X5.6386Y-4.6063
X5.6886Y-4.6063
X5.7386Y-4.6063
X5.7886Y-4.6063
X5.8386Y-4.6063
X5.8886Y-4.6063
X5.9386Y-4.6063
X5.9886Y-4.6063
X6.0386Y-4.6063
X6.0886Y-4.6063
X6.1386Y-4.6063
X6.1886Y-4.6063
X6.2386Y-4.6063
X6.2886Y-4.6063
X6.3386Y-4.6063
X5.2886Y-3.2677
X5.3386Y-3.2677
X5.3886Y-3.2677
X5.4386Y-3.2677
X5.4886Y-3.2677
X5.5386Y-3.2677
X5.5886Y-3.2677
X5.6386Y-3.2677
X5.6886Y-3.2677
X5.7386Y-3.2677
X5.7886Y-3.2677
X5.8386Y-3.2677
X5.8886Y-3.2677
X5.9386Y-3.2677
X5.9886Y-3.2677
X6.0386Y-3.2677
X6.0886Y-3.2677
X6.1386Y-3.2677
X6.1886Y-3.2677
X6.2386Y-3.2677
X6.2886Y-3.2677
X6.3386Y-3.2677
T0
M30
