G04 #@! TF.GenerationSoftware,KiCad,Pcbnew,5.99.0-unknown-df3fabf~86~ubuntu18.04.1*
G04 #@! TF.CreationDate,2019-10-25T19:04:56-04:00*
G04 #@! TF.ProjectId,bc95_bc35_module_board,62633935-5f62-4633-9335-5f6d6f64756c,rev?*
G04 #@! TF.SameCoordinates,Original*
G04 #@! TF.FileFunction,Legend,Bot*
G04 #@! TF.FilePolarity,Positive*
%FSLAX46Y46*%
G04 Gerber Fmt 4.6, Leading zero omitted, Abs format (unit mm)*
G04 Created by KiCad (PCBNEW 5.99.0-unknown-df3fabf~86~ubuntu18.04.1) date 2019-10-25 19:04:56*
%MOMM*%
%LPD*%
G04 APERTURE LIST*
%ADD10C,0.010000*%
G04 APERTURE END LIST*
G36*
X168277631Y-117396891D02*
G01*
X168394000Y-117397375D01*
X168408175Y-117397443D01*
X168469937Y-117398029D01*
X168513620Y-117399352D01*
X168543001Y-117401897D01*
X168561855Y-117406152D01*
X168573959Y-117412604D01*
X168583089Y-117421738D01*
X168600506Y-117455196D01*
X168597604Y-117490144D01*
X168573100Y-117521047D01*
X168559897Y-117530056D01*
X168541361Y-117537508D01*
X168515333Y-117541876D01*
X168476787Y-117543931D01*
X168420700Y-117544444D01*
X168298045Y-117544444D01*
X168298045Y-118041155D01*
X168432871Y-118041155D01*
X168468662Y-118041228D01*
X168514992Y-118041991D01*
X168545526Y-118044167D01*
X168564557Y-118048464D01*
X168576374Y-118055588D01*
X168585271Y-118066245D01*
X168600341Y-118098496D01*
X168597673Y-118133783D01*
X168573100Y-118164514D01*
X168566845Y-118169169D01*
X168556321Y-118175105D01*
X168542391Y-118179636D01*
X168522317Y-118182952D01*
X168493360Y-118185241D01*
X168452780Y-118186692D01*
X168397840Y-118187495D01*
X168325799Y-118187838D01*
X168233920Y-118187911D01*
X167924485Y-118187911D01*
X167896776Y-118160202D01*
X167874533Y-118128823D01*
X167871844Y-118095594D01*
X167891645Y-118063733D01*
X167901415Y-118055447D01*
X167917307Y-118048035D01*
X167941275Y-118043698D01*
X167978148Y-118041662D01*
X168032756Y-118041155D01*
X168151289Y-118041155D01*
X168151289Y-117544444D01*
X168035776Y-117544444D01*
X167984078Y-117544006D01*
X167949554Y-117542042D01*
X167926978Y-117537526D01*
X167911126Y-117529433D01*
X167896776Y-117516735D01*
X167874533Y-117485357D01*
X167871844Y-117452128D01*
X167891645Y-117420266D01*
X167897835Y-117414634D01*
X167906041Y-117409544D01*
X167917817Y-117405457D01*
X167935276Y-117402279D01*
X167960530Y-117399913D01*
X167995690Y-117398262D01*
X168042869Y-117397231D01*
X168104177Y-117396723D01*
X168181727Y-117396641D01*
X168277631Y-117396891D01*
G37*
D10*
X168277631Y-117396891D02*
X168394000Y-117397375D01*
X168408175Y-117397443D01*
X168469937Y-117398029D01*
X168513620Y-117399352D01*
X168543001Y-117401897D01*
X168561855Y-117406152D01*
X168573959Y-117412604D01*
X168583089Y-117421738D01*
X168600506Y-117455196D01*
X168597604Y-117490144D01*
X168573100Y-117521047D01*
X168559897Y-117530056D01*
X168541361Y-117537508D01*
X168515333Y-117541876D01*
X168476787Y-117543931D01*
X168420700Y-117544444D01*
X168298045Y-117544444D01*
X168298045Y-118041155D01*
X168432871Y-118041155D01*
X168468662Y-118041228D01*
X168514992Y-118041991D01*
X168545526Y-118044167D01*
X168564557Y-118048464D01*
X168576374Y-118055588D01*
X168585271Y-118066245D01*
X168600341Y-118098496D01*
X168597673Y-118133783D01*
X168573100Y-118164514D01*
X168566845Y-118169169D01*
X168556321Y-118175105D01*
X168542391Y-118179636D01*
X168522317Y-118182952D01*
X168493360Y-118185241D01*
X168452780Y-118186692D01*
X168397840Y-118187495D01*
X168325799Y-118187838D01*
X168233920Y-118187911D01*
X167924485Y-118187911D01*
X167896776Y-118160202D01*
X167874533Y-118128823D01*
X167871844Y-118095594D01*
X167891645Y-118063733D01*
X167901415Y-118055447D01*
X167917307Y-118048035D01*
X167941275Y-118043698D01*
X167978148Y-118041662D01*
X168032756Y-118041155D01*
X168151289Y-118041155D01*
X168151289Y-117544444D01*
X168035776Y-117544444D01*
X167984078Y-117544006D01*
X167949554Y-117542042D01*
X167926978Y-117537526D01*
X167911126Y-117529433D01*
X167896776Y-117516735D01*
X167874533Y-117485357D01*
X167871844Y-117452128D01*
X167891645Y-117420266D01*
X167897835Y-117414634D01*
X167906041Y-117409544D01*
X167917817Y-117405457D01*
X167935276Y-117402279D01*
X167960530Y-117399913D01*
X167995690Y-117398262D01*
X168042869Y-117397231D01*
X168104177Y-117396723D01*
X168181727Y-117396641D01*
X168277631Y-117396891D01*
G36*
X167995178Y-116389083D02*
G01*
X167996631Y-116390443D01*
X168004992Y-116401646D01*
X168010547Y-116418748D01*
X168013840Y-116445918D01*
X168015418Y-116487322D01*
X168015822Y-116547127D01*
X168015822Y-116686489D01*
X168279589Y-116686489D01*
X168355417Y-116686564D01*
X168422083Y-116686972D01*
X168471867Y-116687954D01*
X168507784Y-116689750D01*
X168532850Y-116692601D01*
X168550081Y-116696747D01*
X168562492Y-116702429D01*
X168573100Y-116709886D01*
X168575906Y-116712176D01*
X168598548Y-116743354D01*
X168600112Y-116777734D01*
X168580267Y-116810666D01*
X168572191Y-116817645D01*
X168561593Y-116823117D01*
X168545749Y-116827137D01*
X168521773Y-116829928D01*
X168486774Y-116831712D01*
X168437864Y-116832711D01*
X168372154Y-116833148D01*
X168286756Y-116833244D01*
X168015822Y-116833244D01*
X168015822Y-116979180D01*
X168015821Y-116990280D01*
X168015596Y-117046798D01*
X168014457Y-117085642D01*
X168011657Y-117111035D01*
X168006450Y-117127196D01*
X167998089Y-117138348D01*
X167985826Y-117148711D01*
X167955138Y-117164559D01*
X167921358Y-117161457D01*
X167888822Y-117135813D01*
X167885105Y-117130871D01*
X167880269Y-117120662D01*
X167876506Y-117105236D01*
X167873683Y-117082114D01*
X167871670Y-117048817D01*
X167870333Y-117002863D01*
X167869542Y-116941772D01*
X167869163Y-116863065D01*
X167869067Y-116764260D01*
X167869068Y-116744233D01*
X167869158Y-116650110D01*
X167869498Y-116575595D01*
X167870239Y-116518189D01*
X167871535Y-116475389D01*
X167873537Y-116444696D01*
X167876396Y-116423609D01*
X167880266Y-116409627D01*
X167885298Y-116400250D01*
X167891645Y-116392978D01*
X167924362Y-116374172D01*
X167961939Y-116372725D01*
X167995178Y-116389083D01*
G37*
X167995178Y-116389083D02*
X167996631Y-116390443D01*
X168004992Y-116401646D01*
X168010547Y-116418748D01*
X168013840Y-116445918D01*
X168015418Y-116487322D01*
X168015822Y-116547127D01*
X168015822Y-116686489D01*
X168279589Y-116686489D01*
X168355417Y-116686564D01*
X168422083Y-116686972D01*
X168471867Y-116687954D01*
X168507784Y-116689750D01*
X168532850Y-116692601D01*
X168550081Y-116696747D01*
X168562492Y-116702429D01*
X168573100Y-116709886D01*
X168575906Y-116712176D01*
X168598548Y-116743354D01*
X168600112Y-116777734D01*
X168580267Y-116810666D01*
X168572191Y-116817645D01*
X168561593Y-116823117D01*
X168545749Y-116827137D01*
X168521773Y-116829928D01*
X168486774Y-116831712D01*
X168437864Y-116832711D01*
X168372154Y-116833148D01*
X168286756Y-116833244D01*
X168015822Y-116833244D01*
X168015822Y-116979180D01*
X168015821Y-116990280D01*
X168015596Y-117046798D01*
X168014457Y-117085642D01*
X168011657Y-117111035D01*
X168006450Y-117127196D01*
X167998089Y-117138348D01*
X167985826Y-117148711D01*
X167955138Y-117164559D01*
X167921358Y-117161457D01*
X167888822Y-117135813D01*
X167885105Y-117130871D01*
X167880269Y-117120662D01*
X167876506Y-117105236D01*
X167873683Y-117082114D01*
X167871670Y-117048817D01*
X167870333Y-117002863D01*
X167869542Y-116941772D01*
X167869163Y-116863065D01*
X167869067Y-116764260D01*
X167869068Y-116744233D01*
X167869158Y-116650110D01*
X167869498Y-116575595D01*
X167870239Y-116518189D01*
X167871535Y-116475389D01*
X167873537Y-116444696D01*
X167876396Y-116423609D01*
X167880266Y-116409627D01*
X167885298Y-116400250D01*
X167891645Y-116392978D01*
X167924362Y-116374172D01*
X167961939Y-116372725D01*
X167995178Y-116389083D01*
G36*
X168581264Y-116018873D02*
G01*
X168598739Y-116050233D01*
X168599575Y-116086034D01*
X168579082Y-116117472D01*
X168574416Y-116121348D01*
X168564949Y-116126814D01*
X168551267Y-116131021D01*
X168530748Y-116134133D01*
X168500768Y-116136313D01*
X168458704Y-116137724D01*
X168401932Y-116138529D01*
X168327830Y-116138893D01*
X168233773Y-116138978D01*
X167912227Y-116138978D01*
X167890647Y-116112327D01*
X167875877Y-116088614D01*
X167869067Y-116065600D01*
X167874949Y-116044594D01*
X167890647Y-116018873D01*
X167912227Y-115992222D01*
X168559684Y-115992222D01*
X168581264Y-116018873D01*
G37*
X168581264Y-116018873D02*
X168598739Y-116050233D01*
X168599575Y-116086034D01*
X168579082Y-116117472D01*
X168574416Y-116121348D01*
X168564949Y-116126814D01*
X168551267Y-116131021D01*
X168530748Y-116134133D01*
X168500768Y-116136313D01*
X168458704Y-116137724D01*
X168401932Y-116138529D01*
X168327830Y-116138893D01*
X168233773Y-116138978D01*
X167912227Y-116138978D01*
X167890647Y-116112327D01*
X167875877Y-116088614D01*
X167869067Y-116065600D01*
X167874949Y-116044594D01*
X167890647Y-116018873D01*
X167912227Y-115992222D01*
X168559684Y-115992222D01*
X168581264Y-116018873D01*
G36*
X167951915Y-114604772D02*
G01*
X167986481Y-114617636D01*
X168034826Y-114637395D01*
X168093825Y-114662619D01*
X168160355Y-114691881D01*
X168231291Y-114723750D01*
X168303507Y-114756799D01*
X168373880Y-114789599D01*
X168439285Y-114820720D01*
X168496597Y-114848735D01*
X168542692Y-114872214D01*
X168574446Y-114889728D01*
X168588733Y-114899849D01*
X168602102Y-114934257D01*
X168595741Y-114975954D01*
X168591044Y-114981319D01*
X168568893Y-114997148D01*
X168532132Y-115019350D01*
X168484415Y-115045767D01*
X168429393Y-115074240D01*
X168270150Y-115154014D01*
X168416742Y-115227201D01*
X168436032Y-115236897D01*
X168488380Y-115263875D01*
X168533170Y-115287904D01*
X168566154Y-115306668D01*
X168583089Y-115317854D01*
X168584332Y-115319000D01*
X168599619Y-115347121D01*
X168601302Y-115382183D01*
X168588733Y-115413224D01*
X168585884Y-115415650D01*
X168565259Y-115427910D01*
X168527708Y-115447648D01*
X168475880Y-115473552D01*
X168412423Y-115504315D01*
X168339985Y-115538625D01*
X168261216Y-115575175D01*
X168217093Y-115595415D01*
X168136365Y-115632188D01*
X168072687Y-115660645D01*
X168023752Y-115681669D01*
X167987257Y-115696146D01*
X167960895Y-115704961D01*
X167942361Y-115708996D01*
X167929352Y-115709138D01*
X167919561Y-115706270D01*
X167898678Y-115691613D01*
X167878377Y-115665010D01*
X167878035Y-115664255D01*
X167871034Y-115644665D01*
X167870504Y-115627210D01*
X167878478Y-115610298D01*
X167896989Y-115592337D01*
X167928071Y-115571737D01*
X167973756Y-115546905D01*
X168036078Y-115516250D01*
X168117071Y-115478180D01*
X168148454Y-115463546D01*
X168211638Y-115433797D01*
X168266244Y-115407703D01*
X168309290Y-115386708D01*
X168337793Y-115372261D01*
X168348770Y-115365809D01*
X168348189Y-115364450D01*
X168334242Y-115354458D01*
X168304704Y-115337167D01*
X168263087Y-115314570D01*
X168212903Y-115288662D01*
X168181414Y-115272689D01*
X168126061Y-115243739D01*
X168087044Y-115221251D01*
X168061566Y-115203035D01*
X168046831Y-115186904D01*
X168040042Y-115170670D01*
X168038400Y-115152143D01*
X168038875Y-115141640D01*
X168043082Y-115125524D01*
X168053946Y-115110210D01*
X168074219Y-115093612D01*
X168106654Y-115073643D01*
X168154004Y-115048217D01*
X168219022Y-115015248D01*
X168238277Y-115005515D01*
X168284946Y-114981057D01*
X168321109Y-114960822D01*
X168343497Y-114946689D01*
X168348845Y-114940540D01*
X168345573Y-114939173D01*
X168324664Y-114929798D01*
X168287725Y-114912938D01*
X168237874Y-114890021D01*
X168178226Y-114862480D01*
X168111898Y-114831745D01*
X168054677Y-114805030D01*
X167992688Y-114775407D01*
X167946949Y-114752336D01*
X167914908Y-114734357D01*
X167894014Y-114720010D01*
X167881718Y-114707834D01*
X167875466Y-114696368D01*
X167872574Y-114686958D01*
X167872425Y-114661853D01*
X167887768Y-114634710D01*
X167888753Y-114633410D01*
X167911388Y-114611326D01*
X167933613Y-114600277D01*
X167934253Y-114600231D01*
X167951915Y-114604772D01*
G37*
X167951915Y-114604772D02*
X167986481Y-114617636D01*
X168034826Y-114637395D01*
X168093825Y-114662619D01*
X168160355Y-114691881D01*
X168231291Y-114723750D01*
X168303507Y-114756799D01*
X168373880Y-114789599D01*
X168439285Y-114820720D01*
X168496597Y-114848735D01*
X168542692Y-114872214D01*
X168574446Y-114889728D01*
X168588733Y-114899849D01*
X168602102Y-114934257D01*
X168595741Y-114975954D01*
X168591044Y-114981319D01*
X168568893Y-114997148D01*
X168532132Y-115019350D01*
X168484415Y-115045767D01*
X168429393Y-115074240D01*
X168270150Y-115154014D01*
X168416742Y-115227201D01*
X168436032Y-115236897D01*
X168488380Y-115263875D01*
X168533170Y-115287904D01*
X168566154Y-115306668D01*
X168583089Y-115317854D01*
X168584332Y-115319000D01*
X168599619Y-115347121D01*
X168601302Y-115382183D01*
X168588733Y-115413224D01*
X168585884Y-115415650D01*
X168565259Y-115427910D01*
X168527708Y-115447648D01*
X168475880Y-115473552D01*
X168412423Y-115504315D01*
X168339985Y-115538625D01*
X168261216Y-115575175D01*
X168217093Y-115595415D01*
X168136365Y-115632188D01*
X168072687Y-115660645D01*
X168023752Y-115681669D01*
X167987257Y-115696146D01*
X167960895Y-115704961D01*
X167942361Y-115708996D01*
X167929352Y-115709138D01*
X167919561Y-115706270D01*
X167898678Y-115691613D01*
X167878377Y-115665010D01*
X167878035Y-115664255D01*
X167871034Y-115644665D01*
X167870504Y-115627210D01*
X167878478Y-115610298D01*
X167896989Y-115592337D01*
X167928071Y-115571737D01*
X167973756Y-115546905D01*
X168036078Y-115516250D01*
X168117071Y-115478180D01*
X168148454Y-115463546D01*
X168211638Y-115433797D01*
X168266244Y-115407703D01*
X168309290Y-115386708D01*
X168337793Y-115372261D01*
X168348770Y-115365809D01*
X168348189Y-115364450D01*
X168334242Y-115354458D01*
X168304704Y-115337167D01*
X168263087Y-115314570D01*
X168212903Y-115288662D01*
X168181414Y-115272689D01*
X168126061Y-115243739D01*
X168087044Y-115221251D01*
X168061566Y-115203035D01*
X168046831Y-115186904D01*
X168040042Y-115170670D01*
X168038400Y-115152143D01*
X168038875Y-115141640D01*
X168043082Y-115125524D01*
X168053946Y-115110210D01*
X168074219Y-115093612D01*
X168106654Y-115073643D01*
X168154004Y-115048217D01*
X168219022Y-115015248D01*
X168238277Y-115005515D01*
X168284946Y-114981057D01*
X168321109Y-114960822D01*
X168343497Y-114946689D01*
X168348845Y-114940540D01*
X168345573Y-114939173D01*
X168324664Y-114929798D01*
X168287725Y-114912938D01*
X168237874Y-114890021D01*
X168178226Y-114862480D01*
X168111898Y-114831745D01*
X168054677Y-114805030D01*
X167992688Y-114775407D01*
X167946949Y-114752336D01*
X167914908Y-114734357D01*
X167894014Y-114720010D01*
X167881718Y-114707834D01*
X167875466Y-114696368D01*
X167872574Y-114686958D01*
X167872425Y-114661853D01*
X167887768Y-114634710D01*
X167888753Y-114633410D01*
X167911388Y-114611326D01*
X167933613Y-114600277D01*
X167934253Y-114600231D01*
X167951915Y-114604772D01*
G36*
X168295526Y-112712825D02*
G01*
X168374311Y-112713050D01*
X168435021Y-112713668D01*
X168456089Y-112714225D01*
X168480396Y-112714867D01*
X168513175Y-112716837D01*
X168536095Y-112719765D01*
X168551897Y-112723842D01*
X168563319Y-112729257D01*
X168573100Y-112736197D01*
X168602845Y-112759594D01*
X168602251Y-112925286D01*
X168601953Y-112960082D01*
X168598522Y-113058565D01*
X168590839Y-113139527D01*
X168578282Y-113206621D01*
X168560227Y-113263504D01*
X168536052Y-113313831D01*
X168534135Y-113317190D01*
X168497417Y-113375002D01*
X168460451Y-113417356D01*
X168416966Y-113450172D01*
X168360689Y-113479372D01*
X168351073Y-113483654D01*
X168287887Y-113506231D01*
X168232509Y-113513203D01*
X168177483Y-113504601D01*
X168115351Y-113480459D01*
X168113658Y-113479663D01*
X168044236Y-113439212D01*
X167987638Y-113388527D01*
X167943070Y-113325802D01*
X167909741Y-113249226D01*
X167886861Y-113156991D01*
X167873636Y-113047288D01*
X167869275Y-112918309D01*
X167869270Y-112914737D01*
X167869372Y-112870844D01*
X168015822Y-112870844D01*
X168016270Y-112958333D01*
X168018746Y-113025253D01*
X168029998Y-113117651D01*
X168049537Y-113196966D01*
X168076511Y-113258940D01*
X168097240Y-113289880D01*
X168127006Y-113318000D01*
X168169434Y-113341340D01*
X168185400Y-113348467D01*
X168217902Y-113360291D01*
X168242333Y-113362721D01*
X168267061Y-113357108D01*
X168282939Y-113351382D01*
X168342847Y-113318452D01*
X168388600Y-113271114D01*
X168421736Y-113207348D01*
X168443790Y-113125139D01*
X168444292Y-113122345D01*
X168450255Y-113076060D01*
X168454483Y-113019664D01*
X168456089Y-112964726D01*
X168456089Y-112870844D01*
X168015822Y-112870844D01*
X167869372Y-112870844D01*
X167869410Y-112854717D01*
X167870446Y-112812786D01*
X167873040Y-112784672D01*
X167877853Y-112766103D01*
X167885544Y-112752806D01*
X167896776Y-112740509D01*
X167924485Y-112712800D01*
X168233920Y-112712800D01*
X168295526Y-112712825D01*
G37*
X168295526Y-112712825D02*
X168374311Y-112713050D01*
X168435021Y-112713668D01*
X168456089Y-112714225D01*
X168480396Y-112714867D01*
X168513175Y-112716837D01*
X168536095Y-112719765D01*
X168551897Y-112723842D01*
X168563319Y-112729257D01*
X168573100Y-112736197D01*
X168602845Y-112759594D01*
X168602251Y-112925286D01*
X168601953Y-112960082D01*
X168598522Y-113058565D01*
X168590839Y-113139527D01*
X168578282Y-113206621D01*
X168560227Y-113263504D01*
X168536052Y-113313831D01*
X168534135Y-113317190D01*
X168497417Y-113375002D01*
X168460451Y-113417356D01*
X168416966Y-113450172D01*
X168360689Y-113479372D01*
X168351073Y-113483654D01*
X168287887Y-113506231D01*
X168232509Y-113513203D01*
X168177483Y-113504601D01*
X168115351Y-113480459D01*
X168113658Y-113479663D01*
X168044236Y-113439212D01*
X167987638Y-113388527D01*
X167943070Y-113325802D01*
X167909741Y-113249226D01*
X167886861Y-113156991D01*
X167873636Y-113047288D01*
X167869275Y-112918309D01*
X167869270Y-112914737D01*
X167869372Y-112870844D01*
X168015822Y-112870844D01*
X168016270Y-112958333D01*
X168018746Y-113025253D01*
X168029998Y-113117651D01*
X168049537Y-113196966D01*
X168076511Y-113258940D01*
X168097240Y-113289880D01*
X168127006Y-113318000D01*
X168169434Y-113341340D01*
X168185400Y-113348467D01*
X168217902Y-113360291D01*
X168242333Y-113362721D01*
X168267061Y-113357108D01*
X168282939Y-113351382D01*
X168342847Y-113318452D01*
X168388600Y-113271114D01*
X168421736Y-113207348D01*
X168443790Y-113125139D01*
X168444292Y-113122345D01*
X168450255Y-113076060D01*
X168454483Y-113019664D01*
X168456089Y-112964726D01*
X168456089Y-112870844D01*
X168015822Y-112870844D01*
X167869372Y-112870844D01*
X167869410Y-112854717D01*
X167870446Y-112812786D01*
X167873040Y-112784672D01*
X167877853Y-112766103D01*
X167885544Y-112752806D01*
X167896776Y-112740509D01*
X167924485Y-112712800D01*
X168233920Y-112712800D01*
X168295526Y-112712825D01*
G36*
X168306911Y-111696829D02*
G01*
X168385228Y-111697061D01*
X168445496Y-111697681D01*
X168490393Y-111698874D01*
X168522602Y-111700821D01*
X168544800Y-111703706D01*
X168559669Y-111707712D01*
X168569889Y-111713021D01*
X168578138Y-111719817D01*
X168582795Y-111724332D01*
X168589282Y-111732562D01*
X168594194Y-111743922D01*
X168597749Y-111761190D01*
X168600167Y-111787145D01*
X168601667Y-111824564D01*
X168602467Y-111876227D01*
X168602787Y-111944911D01*
X168602845Y-112033394D01*
X168602838Y-112053069D01*
X168602572Y-112140094D01*
X168601806Y-112207746D01*
X168600392Y-112258701D01*
X168598180Y-112295633D01*
X168595022Y-112321217D01*
X168590769Y-112338129D01*
X168585271Y-112349043D01*
X168575285Y-112359536D01*
X168544168Y-112372797D01*
X168508280Y-112371614D01*
X168476733Y-112355450D01*
X168474457Y-112353261D01*
X168468189Y-112344573D01*
X168463523Y-112331231D01*
X168460227Y-112310248D01*
X168458068Y-112278637D01*
X168456814Y-112233410D01*
X168456231Y-112171580D01*
X168456089Y-112090161D01*
X168456089Y-111843555D01*
X168298045Y-111843555D01*
X168298045Y-112005994D01*
X168297964Y-112041662D01*
X168297167Y-112097432D01*
X168295162Y-112136570D01*
X168291521Y-112163024D01*
X168285812Y-112180741D01*
X168277607Y-112193671D01*
X168274423Y-112197314D01*
X168243448Y-112215722D01*
X168207112Y-112216356D01*
X168173493Y-112198817D01*
X168173424Y-112198755D01*
X168164798Y-112189084D01*
X168158742Y-112175791D01*
X168154811Y-112155083D01*
X168152556Y-112123172D01*
X168151531Y-112076266D01*
X168151289Y-112010576D01*
X168151289Y-111842429D01*
X168086378Y-111845814D01*
X168021467Y-111849200D01*
X168018414Y-112091277D01*
X168018086Y-112116293D01*
X168016606Y-112197913D01*
X168014222Y-112260232D01*
X168010227Y-112305846D01*
X168003913Y-112337348D01*
X167994574Y-112357333D01*
X167981503Y-112368396D01*
X167963992Y-112373131D01*
X167941335Y-112374133D01*
X167938970Y-112374127D01*
X167918939Y-112372973D01*
X167903146Y-112368176D01*
X167891090Y-112357368D01*
X167882267Y-112338183D01*
X167876175Y-112308255D01*
X167872311Y-112265217D01*
X167870174Y-112206701D01*
X167869260Y-112130343D01*
X167869067Y-112033774D01*
X167869067Y-111743594D01*
X167898811Y-111720197D01*
X167905495Y-111715248D01*
X167916066Y-111709404D01*
X167930153Y-111704943D01*
X167950478Y-111701679D01*
X167979765Y-111699426D01*
X168020737Y-111697998D01*
X168076117Y-111697208D01*
X168148628Y-111696871D01*
X168240994Y-111696800D01*
X168306911Y-111696829D01*
G37*
X168306911Y-111696829D02*
X168385228Y-111697061D01*
X168445496Y-111697681D01*
X168490393Y-111698874D01*
X168522602Y-111700821D01*
X168544800Y-111703706D01*
X168559669Y-111707712D01*
X168569889Y-111713021D01*
X168578138Y-111719817D01*
X168582795Y-111724332D01*
X168589282Y-111732562D01*
X168594194Y-111743922D01*
X168597749Y-111761190D01*
X168600167Y-111787145D01*
X168601667Y-111824564D01*
X168602467Y-111876227D01*
X168602787Y-111944911D01*
X168602845Y-112033394D01*
X168602838Y-112053069D01*
X168602572Y-112140094D01*
X168601806Y-112207746D01*
X168600392Y-112258701D01*
X168598180Y-112295633D01*
X168595022Y-112321217D01*
X168590769Y-112338129D01*
X168585271Y-112349043D01*
X168575285Y-112359536D01*
X168544168Y-112372797D01*
X168508280Y-112371614D01*
X168476733Y-112355450D01*
X168474457Y-112353261D01*
X168468189Y-112344573D01*
X168463523Y-112331231D01*
X168460227Y-112310248D01*
X168458068Y-112278637D01*
X168456814Y-112233410D01*
X168456231Y-112171580D01*
X168456089Y-112090161D01*
X168456089Y-111843555D01*
X168298045Y-111843555D01*
X168298045Y-112005994D01*
X168297964Y-112041662D01*
X168297167Y-112097432D01*
X168295162Y-112136570D01*
X168291521Y-112163024D01*
X168285812Y-112180741D01*
X168277607Y-112193671D01*
X168274423Y-112197314D01*
X168243448Y-112215722D01*
X168207112Y-112216356D01*
X168173493Y-112198817D01*
X168173424Y-112198755D01*
X168164798Y-112189084D01*
X168158742Y-112175791D01*
X168154811Y-112155083D01*
X168152556Y-112123172D01*
X168151531Y-112076266D01*
X168151289Y-112010576D01*
X168151289Y-111842429D01*
X168086378Y-111845814D01*
X168021467Y-111849200D01*
X168018414Y-112091277D01*
X168018086Y-112116293D01*
X168016606Y-112197913D01*
X168014222Y-112260232D01*
X168010227Y-112305846D01*
X168003913Y-112337348D01*
X167994574Y-112357333D01*
X167981503Y-112368396D01*
X167963992Y-112373131D01*
X167941335Y-112374133D01*
X167938970Y-112374127D01*
X167918939Y-112372973D01*
X167903146Y-112368176D01*
X167891090Y-112357368D01*
X167882267Y-112338183D01*
X167876175Y-112308255D01*
X167872311Y-112265217D01*
X167870174Y-112206701D01*
X167869260Y-112130343D01*
X167869067Y-112033774D01*
X167869067Y-111743594D01*
X167898811Y-111720197D01*
X167905495Y-111715248D01*
X167916066Y-111709404D01*
X167930153Y-111704943D01*
X167950478Y-111701679D01*
X167979765Y-111699426D01*
X168020737Y-111697998D01*
X168076117Y-111697208D01*
X168148628Y-111696871D01*
X168240994Y-111696800D01*
X168306911Y-111696829D01*
G36*
X168294486Y-110511489D02*
G01*
X168373573Y-110511708D01*
X168434516Y-110512317D01*
X168480062Y-110513508D01*
X168512963Y-110515471D01*
X168535968Y-110518397D01*
X168551826Y-110522477D01*
X168563286Y-110527903D01*
X168573100Y-110534864D01*
X168597493Y-110565292D01*
X168600372Y-110600235D01*
X168581282Y-110637216D01*
X168577807Y-110641400D01*
X168569279Y-110649576D01*
X168557728Y-110655636D01*
X168539896Y-110660019D01*
X168512524Y-110663161D01*
X168472354Y-110665498D01*
X168416128Y-110667469D01*
X168340589Y-110669511D01*
X168121458Y-110675155D01*
X168362099Y-110940444D01*
X168428875Y-111014278D01*
X168486991Y-111079458D01*
X168531949Y-111131652D01*
X168564871Y-111172727D01*
X168586879Y-111204545D01*
X168599094Y-111228974D01*
X168602639Y-111247876D01*
X168598636Y-111263117D01*
X168588207Y-111276561D01*
X168572474Y-111290073D01*
X168563991Y-111296318D01*
X168553413Y-111301950D01*
X168539255Y-111306161D01*
X168518803Y-111309113D01*
X168489342Y-111310968D01*
X168448161Y-111311887D01*
X168392544Y-111312032D01*
X168319779Y-111311565D01*
X168227151Y-111310648D01*
X167912199Y-111307333D01*
X167890633Y-111280682D01*
X167874441Y-111254617D01*
X167871670Y-111221759D01*
X167890623Y-111187228D01*
X167894208Y-111182916D01*
X167902737Y-111174784D01*
X167914329Y-111168755D01*
X167932235Y-111164394D01*
X167959706Y-111161266D01*
X167999994Y-111158937D01*
X168056351Y-111156971D01*
X168132029Y-111154933D01*
X168351878Y-111149289D01*
X168188084Y-110968666D01*
X168109451Y-110881928D01*
X168041058Y-110806157D01*
X167985708Y-110744020D01*
X167942338Y-110693922D01*
X167909881Y-110654265D01*
X167887273Y-110623452D01*
X167873448Y-110599886D01*
X167867343Y-110581970D01*
X167867892Y-110568107D01*
X167874029Y-110556699D01*
X167884691Y-110546150D01*
X167898811Y-110534864D01*
X167904772Y-110530411D01*
X167915268Y-110524412D01*
X167929093Y-110519833D01*
X167948998Y-110516481D01*
X167977732Y-110514167D01*
X168018045Y-110512699D01*
X168072687Y-110511887D01*
X168144407Y-110511540D01*
X168235956Y-110511466D01*
X168294486Y-110511489D01*
G37*
X168294486Y-110511489D02*
X168373573Y-110511708D01*
X168434516Y-110512317D01*
X168480062Y-110513508D01*
X168512963Y-110515471D01*
X168535968Y-110518397D01*
X168551826Y-110522477D01*
X168563286Y-110527903D01*
X168573100Y-110534864D01*
X168597493Y-110565292D01*
X168600372Y-110600235D01*
X168581282Y-110637216D01*
X168577807Y-110641400D01*
X168569279Y-110649576D01*
X168557728Y-110655636D01*
X168539896Y-110660019D01*
X168512524Y-110663161D01*
X168472354Y-110665498D01*
X168416128Y-110667469D01*
X168340589Y-110669511D01*
X168121458Y-110675155D01*
X168362099Y-110940444D01*
X168428875Y-111014278D01*
X168486991Y-111079458D01*
X168531949Y-111131652D01*
X168564871Y-111172727D01*
X168586879Y-111204545D01*
X168599094Y-111228974D01*
X168602639Y-111247876D01*
X168598636Y-111263117D01*
X168588207Y-111276561D01*
X168572474Y-111290073D01*
X168563991Y-111296318D01*
X168553413Y-111301950D01*
X168539255Y-111306161D01*
X168518803Y-111309113D01*
X168489342Y-111310968D01*
X168448161Y-111311887D01*
X168392544Y-111312032D01*
X168319779Y-111311565D01*
X168227151Y-111310648D01*
X167912199Y-111307333D01*
X167890633Y-111280682D01*
X167874441Y-111254617D01*
X167871670Y-111221759D01*
X167890623Y-111187228D01*
X167894208Y-111182916D01*
X167902737Y-111174784D01*
X167914329Y-111168755D01*
X167932235Y-111164394D01*
X167959706Y-111161266D01*
X167999994Y-111158937D01*
X168056351Y-111156971D01*
X168132029Y-111154933D01*
X168351878Y-111149289D01*
X168188084Y-110968666D01*
X168109451Y-110881928D01*
X168041058Y-110806157D01*
X167985708Y-110744020D01*
X167942338Y-110693922D01*
X167909881Y-110654265D01*
X167887273Y-110623452D01*
X167873448Y-110599886D01*
X167867343Y-110581970D01*
X167867892Y-110568107D01*
X167874029Y-110556699D01*
X167884691Y-110546150D01*
X167898811Y-110534864D01*
X167904772Y-110530411D01*
X167915268Y-110524412D01*
X167929093Y-110519833D01*
X167948998Y-110516481D01*
X167977732Y-110514167D01*
X168018045Y-110512699D01*
X168072687Y-110511887D01*
X168144407Y-110511540D01*
X168235956Y-110511466D01*
X168294486Y-110511489D01*
G36*
X168254259Y-109327702D02*
G01*
X168305592Y-109340643D01*
X168362118Y-109363806D01*
X168416035Y-109393698D01*
X168459539Y-109426827D01*
X168469887Y-109437023D01*
X168521662Y-109504108D01*
X168561554Y-109584234D01*
X168585956Y-109670444D01*
X168594068Y-109725408D01*
X168600673Y-109818861D01*
X168598586Y-109908642D01*
X168588340Y-109991131D01*
X168570470Y-110062714D01*
X168545508Y-110119772D01*
X168513988Y-110158689D01*
X168512012Y-110160064D01*
X168486786Y-110167152D01*
X168439535Y-110171391D01*
X168370071Y-110172800D01*
X168307838Y-110171940D01*
X168260456Y-110167220D01*
X168228353Y-110155530D01*
X168208800Y-110133761D01*
X168199070Y-110098802D01*
X168196433Y-110047544D01*
X168198161Y-109976877D01*
X168201173Y-109928257D01*
X168209366Y-109878061D01*
X168223419Y-109845567D01*
X168244654Y-109828108D01*
X168274394Y-109823017D01*
X168278936Y-109823123D01*
X168313730Y-109831825D01*
X168337147Y-109855835D01*
X168350347Y-109897100D01*
X168354489Y-109957569D01*
X168354489Y-110026044D01*
X168392841Y-110026044D01*
X168401976Y-110025994D01*
X168419227Y-110023773D01*
X168429521Y-110014506D01*
X168436459Y-109993125D01*
X168443641Y-109954564D01*
X168444575Y-109949090D01*
X168454478Y-109852140D01*
X168451559Y-109762148D01*
X168436829Y-109681240D01*
X168411299Y-109611541D01*
X168375978Y-109555176D01*
X168331879Y-109514271D01*
X168280012Y-109490949D01*
X168221388Y-109487337D01*
X168192494Y-109492855D01*
X168136604Y-109519539D01*
X168090945Y-109565727D01*
X168056108Y-109630709D01*
X168032690Y-109713771D01*
X168028241Y-109738445D01*
X168017742Y-109827774D01*
X168018971Y-109907581D01*
X168031906Y-109985674D01*
X168038696Y-110020817D01*
X168039713Y-110066255D01*
X168027182Y-110097570D01*
X168000395Y-110117723D01*
X167972148Y-110124107D01*
X167940924Y-110114621D01*
X167927499Y-110105292D01*
X167903967Y-110071057D01*
X167886095Y-110018435D01*
X167874599Y-109949919D01*
X167870192Y-109868000D01*
X167874179Y-109770850D01*
X167890494Y-109664843D01*
X167918545Y-109571031D01*
X167957452Y-109492235D01*
X168006334Y-109431281D01*
X168039195Y-109405211D01*
X168088394Y-109375703D01*
X168142252Y-109350432D01*
X168193419Y-109332782D01*
X168234544Y-109326142D01*
X168254259Y-109327702D01*
G37*
X168254259Y-109327702D02*
X168305592Y-109340643D01*
X168362118Y-109363806D01*
X168416035Y-109393698D01*
X168459539Y-109426827D01*
X168469887Y-109437023D01*
X168521662Y-109504108D01*
X168561554Y-109584234D01*
X168585956Y-109670444D01*
X168594068Y-109725408D01*
X168600673Y-109818861D01*
X168598586Y-109908642D01*
X168588340Y-109991131D01*
X168570470Y-110062714D01*
X168545508Y-110119772D01*
X168513988Y-110158689D01*
X168512012Y-110160064D01*
X168486786Y-110167152D01*
X168439535Y-110171391D01*
X168370071Y-110172800D01*
X168307838Y-110171940D01*
X168260456Y-110167220D01*
X168228353Y-110155530D01*
X168208800Y-110133761D01*
X168199070Y-110098802D01*
X168196433Y-110047544D01*
X168198161Y-109976877D01*
X168201173Y-109928257D01*
X168209366Y-109878061D01*
X168223419Y-109845567D01*
X168244654Y-109828108D01*
X168274394Y-109823017D01*
X168278936Y-109823123D01*
X168313730Y-109831825D01*
X168337147Y-109855835D01*
X168350347Y-109897100D01*
X168354489Y-109957569D01*
X168354489Y-110026044D01*
X168392841Y-110026044D01*
X168401976Y-110025994D01*
X168419227Y-110023773D01*
X168429521Y-110014506D01*
X168436459Y-109993125D01*
X168443641Y-109954564D01*
X168444575Y-109949090D01*
X168454478Y-109852140D01*
X168451559Y-109762148D01*
X168436829Y-109681240D01*
X168411299Y-109611541D01*
X168375978Y-109555176D01*
X168331879Y-109514271D01*
X168280012Y-109490949D01*
X168221388Y-109487337D01*
X168192494Y-109492855D01*
X168136604Y-109519539D01*
X168090945Y-109565727D01*
X168056108Y-109630709D01*
X168032690Y-109713771D01*
X168028241Y-109738445D01*
X168017742Y-109827774D01*
X168018971Y-109907581D01*
X168031906Y-109985674D01*
X168038696Y-110020817D01*
X168039713Y-110066255D01*
X168027182Y-110097570D01*
X168000395Y-110117723D01*
X167972148Y-110124107D01*
X167940924Y-110114621D01*
X167927499Y-110105292D01*
X167903967Y-110071057D01*
X167886095Y-110018435D01*
X167874599Y-109949919D01*
X167870192Y-109868000D01*
X167874179Y-109770850D01*
X167890494Y-109664843D01*
X167918545Y-109571031D01*
X167957452Y-109492235D01*
X168006334Y-109431281D01*
X168039195Y-109405211D01*
X168088394Y-109375703D01*
X168142252Y-109350432D01*
X168193419Y-109332782D01*
X168234544Y-109326142D01*
X168254259Y-109327702D01*
G36*
X168321567Y-108852041D02*
G01*
X168395789Y-108852299D01*
X168452541Y-108852970D01*
X168494512Y-108854248D01*
X168524389Y-108856327D01*
X168544861Y-108859401D01*
X168558614Y-108863666D01*
X168568337Y-108869316D01*
X168576717Y-108876545D01*
X168598181Y-108908009D01*
X168599947Y-108943174D01*
X168580267Y-108976178D01*
X168574398Y-108981484D01*
X168565314Y-108986934D01*
X168551973Y-108991100D01*
X168531757Y-108994154D01*
X168502049Y-108996268D01*
X168460232Y-108997614D01*
X168403689Y-108998362D01*
X168329802Y-108998686D01*
X168235956Y-108998755D01*
X168160294Y-108998716D01*
X168082385Y-108998461D01*
X168022375Y-108997817D01*
X167977648Y-108996613D01*
X167945585Y-108994676D01*
X167923571Y-108991836D01*
X167908987Y-108987921D01*
X167899218Y-108982758D01*
X167891645Y-108976178D01*
X167872623Y-108946994D01*
X167873463Y-108913863D01*
X167896776Y-108879709D01*
X167924485Y-108852000D01*
X168237537Y-108852000D01*
X168321567Y-108852041D01*
G37*
X168321567Y-108852041D02*
X168395789Y-108852299D01*
X168452541Y-108852970D01*
X168494512Y-108854248D01*
X168524389Y-108856327D01*
X168544861Y-108859401D01*
X168558614Y-108863666D01*
X168568337Y-108869316D01*
X168576717Y-108876545D01*
X168598181Y-108908009D01*
X168599947Y-108943174D01*
X168580267Y-108976178D01*
X168574398Y-108981484D01*
X168565314Y-108986934D01*
X168551973Y-108991100D01*
X168531757Y-108994154D01*
X168502049Y-108996268D01*
X168460232Y-108997614D01*
X168403689Y-108998362D01*
X168329802Y-108998686D01*
X168235956Y-108998755D01*
X168160294Y-108998716D01*
X168082385Y-108998461D01*
X168022375Y-108997817D01*
X167977648Y-108996613D01*
X167945585Y-108994676D01*
X167923571Y-108991836D01*
X167908987Y-108987921D01*
X167899218Y-108982758D01*
X167891645Y-108976178D01*
X167872623Y-108946994D01*
X167873463Y-108913863D01*
X167896776Y-108879709D01*
X167924485Y-108852000D01*
X168237537Y-108852000D01*
X168321567Y-108852041D01*
G36*
X168120232Y-107724048D02*
G01*
X168145029Y-107729840D01*
X168166699Y-107744647D01*
X168194049Y-107772620D01*
X168201378Y-107780598D01*
X168222281Y-107804308D01*
X168239251Y-107826702D01*
X168253205Y-107850735D01*
X168265056Y-107879363D01*
X168275720Y-107915540D01*
X168286111Y-107962220D01*
X168297146Y-108022359D01*
X168309738Y-108098910D01*
X168324804Y-108194829D01*
X168327838Y-108213192D01*
X168341458Y-108275522D01*
X168357192Y-108320740D01*
X168374263Y-108347024D01*
X168391897Y-108352553D01*
X168396168Y-108349932D01*
X168411233Y-108332000D01*
X168427867Y-108303874D01*
X168433857Y-108291074D01*
X168441050Y-108269776D01*
X168445827Y-108243390D01*
X168448646Y-108207546D01*
X168449964Y-108157872D01*
X168450237Y-108090000D01*
X168450164Y-108072215D01*
X168449053Y-108004594D01*
X168446828Y-107939655D01*
X168443762Y-107884030D01*
X168440127Y-107844349D01*
X168436059Y-107808838D01*
X168435276Y-107779585D01*
X168439876Y-107760685D01*
X168450551Y-107745571D01*
X168454144Y-107741915D01*
X168485918Y-107725573D01*
X168521572Y-107726893D01*
X168552190Y-107745850D01*
X168563796Y-107766220D01*
X168576491Y-107802204D01*
X168586541Y-107844628D01*
X168587140Y-107848078D01*
X168592356Y-107890748D01*
X168596730Y-107948134D01*
X168599818Y-108013151D01*
X168601177Y-108078711D01*
X168601218Y-108094943D01*
X168598741Y-108193256D01*
X168590735Y-108273308D01*
X168576203Y-108338487D01*
X168554149Y-108392183D01*
X168523576Y-108437784D01*
X168483486Y-108478677D01*
X168457259Y-108498798D01*
X168427712Y-108510424D01*
X168387995Y-108513333D01*
X168376026Y-108513192D01*
X168343345Y-108509319D01*
X168316819Y-108496935D01*
X168285971Y-108471770D01*
X168263831Y-108450558D01*
X168241285Y-108424162D01*
X168222917Y-108394445D01*
X168207661Y-108358215D01*
X168194449Y-108312283D01*
X168182214Y-108253456D01*
X168169889Y-108178544D01*
X168156406Y-108084355D01*
X168149396Y-108039043D01*
X168134837Y-107971089D01*
X168118337Y-107921953D01*
X168100439Y-107892386D01*
X168081685Y-107883136D01*
X168062615Y-107894952D01*
X168043771Y-107928584D01*
X168042557Y-107931630D01*
X168030479Y-107977989D01*
X168022279Y-108040639D01*
X168018119Y-108114073D01*
X168018161Y-108192783D01*
X168022569Y-108271261D01*
X168031505Y-108344000D01*
X168032154Y-108347927D01*
X168039861Y-108396743D01*
X168043473Y-108428995D01*
X168042876Y-108449992D01*
X168037954Y-108465046D01*
X168028596Y-108479466D01*
X168027725Y-108480636D01*
X167997351Y-108505153D01*
X167961850Y-108509946D01*
X167927269Y-108494140D01*
X167922813Y-108489594D01*
X167907673Y-108459980D01*
X167894550Y-108412998D01*
X167883750Y-108352694D01*
X167875581Y-108283112D01*
X167870351Y-108208297D01*
X167868367Y-108132294D01*
X167869936Y-108059147D01*
X167875366Y-107992900D01*
X167884964Y-107937600D01*
X167899825Y-107886717D01*
X167932958Y-107815405D01*
X167975640Y-107764248D01*
X168027705Y-107733425D01*
X168088983Y-107723111D01*
X168120232Y-107724048D01*
G37*
X168120232Y-107724048D02*
X168145029Y-107729840D01*
X168166699Y-107744647D01*
X168194049Y-107772620D01*
X168201378Y-107780598D01*
X168222281Y-107804308D01*
X168239251Y-107826702D01*
X168253205Y-107850735D01*
X168265056Y-107879363D01*
X168275720Y-107915540D01*
X168286111Y-107962220D01*
X168297146Y-108022359D01*
X168309738Y-108098910D01*
X168324804Y-108194829D01*
X168327838Y-108213192D01*
X168341458Y-108275522D01*
X168357192Y-108320740D01*
X168374263Y-108347024D01*
X168391897Y-108352553D01*
X168396168Y-108349932D01*
X168411233Y-108332000D01*
X168427867Y-108303874D01*
X168433857Y-108291074D01*
X168441050Y-108269776D01*
X168445827Y-108243390D01*
X168448646Y-108207546D01*
X168449964Y-108157872D01*
X168450237Y-108090000D01*
X168450164Y-108072215D01*
X168449053Y-108004594D01*
X168446828Y-107939655D01*
X168443762Y-107884030D01*
X168440127Y-107844349D01*
X168436059Y-107808838D01*
X168435276Y-107779585D01*
X168439876Y-107760685D01*
X168450551Y-107745571D01*
X168454144Y-107741915D01*
X168485918Y-107725573D01*
X168521572Y-107726893D01*
X168552190Y-107745850D01*
X168563796Y-107766220D01*
X168576491Y-107802204D01*
X168586541Y-107844628D01*
X168587140Y-107848078D01*
X168592356Y-107890748D01*
X168596730Y-107948134D01*
X168599818Y-108013151D01*
X168601177Y-108078711D01*
X168601218Y-108094943D01*
X168598741Y-108193256D01*
X168590735Y-108273308D01*
X168576203Y-108338487D01*
X168554149Y-108392183D01*
X168523576Y-108437784D01*
X168483486Y-108478677D01*
X168457259Y-108498798D01*
X168427712Y-108510424D01*
X168387995Y-108513333D01*
X168376026Y-108513192D01*
X168343345Y-108509319D01*
X168316819Y-108496935D01*
X168285971Y-108471770D01*
X168263831Y-108450558D01*
X168241285Y-108424162D01*
X168222917Y-108394445D01*
X168207661Y-108358215D01*
X168194449Y-108312283D01*
X168182214Y-108253456D01*
X168169889Y-108178544D01*
X168156406Y-108084355D01*
X168149396Y-108039043D01*
X168134837Y-107971089D01*
X168118337Y-107921953D01*
X168100439Y-107892386D01*
X168081685Y-107883136D01*
X168062615Y-107894952D01*
X168043771Y-107928584D01*
X168042557Y-107931630D01*
X168030479Y-107977989D01*
X168022279Y-108040639D01*
X168018119Y-108114073D01*
X168018161Y-108192783D01*
X168022569Y-108271261D01*
X168031505Y-108344000D01*
X168032154Y-108347927D01*
X168039861Y-108396743D01*
X168043473Y-108428995D01*
X168042876Y-108449992D01*
X168037954Y-108465046D01*
X168028596Y-108479466D01*
X168027725Y-108480636D01*
X167997351Y-108505153D01*
X167961850Y-108509946D01*
X167927269Y-108494140D01*
X167922813Y-108489594D01*
X167907673Y-108459980D01*
X167894550Y-108412998D01*
X167883750Y-108352694D01*
X167875581Y-108283112D01*
X167870351Y-108208297D01*
X167868367Y-108132294D01*
X167869936Y-108059147D01*
X167875366Y-107992900D01*
X167884964Y-107937600D01*
X167899825Y-107886717D01*
X167932958Y-107815405D01*
X167975640Y-107764248D01*
X168027705Y-107733425D01*
X168088983Y-107723111D01*
X168120232Y-107724048D01*
G36*
X168310713Y-106752303D02*
G01*
X168388889Y-106752552D01*
X168449103Y-106753188D01*
X168493982Y-106754385D01*
X168526152Y-106756316D01*
X168548239Y-106759154D01*
X168562870Y-106763073D01*
X168572670Y-106768245D01*
X168580267Y-106774844D01*
X168583444Y-106778178D01*
X168589554Y-106786700D01*
X168594229Y-106798702D01*
X168597659Y-106816913D01*
X168600036Y-106844060D01*
X168601552Y-106882871D01*
X168602398Y-106936076D01*
X168602765Y-107006402D01*
X168602845Y-107096578D01*
X168602833Y-107138686D01*
X168602651Y-107219833D01*
X168602098Y-107282325D01*
X168600982Y-107328891D01*
X168599113Y-107362259D01*
X168596298Y-107385156D01*
X168592346Y-107400312D01*
X168587066Y-107410454D01*
X168580267Y-107418311D01*
X168558667Y-107433037D01*
X168529467Y-107440889D01*
X168505560Y-107435390D01*
X168478667Y-107418311D01*
X168474059Y-107413332D01*
X168467772Y-107403557D01*
X168463146Y-107389441D01*
X168459930Y-107367946D01*
X168457870Y-107336032D01*
X168456712Y-107290658D01*
X168456202Y-107228787D01*
X168456089Y-107147378D01*
X168456089Y-106899022D01*
X168298045Y-106899022D01*
X168298045Y-107060199D01*
X168297899Y-107096017D01*
X168296176Y-107161641D01*
X168291741Y-107208882D01*
X168283637Y-107240617D01*
X168270906Y-107259723D01*
X168252592Y-107269077D01*
X168227738Y-107271555D01*
X168207482Y-107270758D01*
X168185656Y-107265506D01*
X168170304Y-107252712D01*
X168160309Y-107229372D01*
X168154553Y-107192483D01*
X168151919Y-107139041D01*
X168151289Y-107066042D01*
X168151289Y-106897895D01*
X168086378Y-106901281D01*
X168021467Y-106904666D01*
X168018418Y-107152383D01*
X168017539Y-107214974D01*
X168016095Y-107283435D01*
X168014164Y-107334339D01*
X168011514Y-107370592D01*
X168007910Y-107395099D01*
X168003121Y-107410765D01*
X167996913Y-107420494D01*
X167990510Y-107426509D01*
X167958828Y-107439518D01*
X167923142Y-107435957D01*
X167892084Y-107416182D01*
X167889161Y-107412931D01*
X167882810Y-107403951D01*
X167877957Y-107391847D01*
X167874403Y-107373841D01*
X167871946Y-107347153D01*
X167870385Y-107309003D01*
X167869518Y-107256614D01*
X167869146Y-107187206D01*
X167869067Y-107097999D01*
X167869083Y-107043266D01*
X167869275Y-106966169D01*
X167869860Y-106907223D01*
X167871051Y-106863636D01*
X167873064Y-106832617D01*
X167876112Y-106811375D01*
X167880409Y-106797118D01*
X167886172Y-106787055D01*
X167893612Y-106778394D01*
X167895293Y-106776609D01*
X167902832Y-106769365D01*
X167911850Y-106763723D01*
X167924984Y-106759483D01*
X167944872Y-106756444D01*
X167974151Y-106754406D01*
X168015458Y-106753170D01*
X168071431Y-106752535D01*
X168144707Y-106752300D01*
X168237923Y-106752266D01*
X168310713Y-106752303D01*
G37*
X168310713Y-106752303D02*
X168388889Y-106752552D01*
X168449103Y-106753188D01*
X168493982Y-106754385D01*
X168526152Y-106756316D01*
X168548239Y-106759154D01*
X168562870Y-106763073D01*
X168572670Y-106768245D01*
X168580267Y-106774844D01*
X168583444Y-106778178D01*
X168589554Y-106786700D01*
X168594229Y-106798702D01*
X168597659Y-106816913D01*
X168600036Y-106844060D01*
X168601552Y-106882871D01*
X168602398Y-106936076D01*
X168602765Y-107006402D01*
X168602845Y-107096578D01*
X168602833Y-107138686D01*
X168602651Y-107219833D01*
X168602098Y-107282325D01*
X168600982Y-107328891D01*
X168599113Y-107362259D01*
X168596298Y-107385156D01*
X168592346Y-107400312D01*
X168587066Y-107410454D01*
X168580267Y-107418311D01*
X168558667Y-107433037D01*
X168529467Y-107440889D01*
X168505560Y-107435390D01*
X168478667Y-107418311D01*
X168474059Y-107413332D01*
X168467772Y-107403557D01*
X168463146Y-107389441D01*
X168459930Y-107367946D01*
X168457870Y-107336032D01*
X168456712Y-107290658D01*
X168456202Y-107228787D01*
X168456089Y-107147378D01*
X168456089Y-106899022D01*
X168298045Y-106899022D01*
X168298045Y-107060199D01*
X168297899Y-107096017D01*
X168296176Y-107161641D01*
X168291741Y-107208882D01*
X168283637Y-107240617D01*
X168270906Y-107259723D01*
X168252592Y-107269077D01*
X168227738Y-107271555D01*
X168207482Y-107270758D01*
X168185656Y-107265506D01*
X168170304Y-107252712D01*
X168160309Y-107229372D01*
X168154553Y-107192483D01*
X168151919Y-107139041D01*
X168151289Y-107066042D01*
X168151289Y-106897895D01*
X168086378Y-106901281D01*
X168021467Y-106904666D01*
X168018418Y-107152383D01*
X168017539Y-107214974D01*
X168016095Y-107283435D01*
X168014164Y-107334339D01*
X168011514Y-107370592D01*
X168007910Y-107395099D01*
X168003121Y-107410765D01*
X167996913Y-107420494D01*
X167990510Y-107426509D01*
X167958828Y-107439518D01*
X167923142Y-107435957D01*
X167892084Y-107416182D01*
X167889161Y-107412931D01*
X167882810Y-107403951D01*
X167877957Y-107391847D01*
X167874403Y-107373841D01*
X167871946Y-107347153D01*
X167870385Y-107309003D01*
X167869518Y-107256614D01*
X167869146Y-107187206D01*
X167869067Y-107097999D01*
X167869083Y-107043266D01*
X167869275Y-106966169D01*
X167869860Y-106907223D01*
X167871051Y-106863636D01*
X167873064Y-106832617D01*
X167876112Y-106811375D01*
X167880409Y-106797118D01*
X167886172Y-106787055D01*
X167893612Y-106778394D01*
X167895293Y-106776609D01*
X167902832Y-106769365D01*
X167911850Y-106763723D01*
X167924984Y-106759483D01*
X167944872Y-106756444D01*
X167974151Y-106754406D01*
X168015458Y-106753170D01*
X168071431Y-106752535D01*
X168144707Y-106752300D01*
X168237923Y-106752266D01*
X168310713Y-106752303D01*
G36*
X168135041Y-105623130D02*
G01*
X168235956Y-105623378D01*
X168311617Y-105623417D01*
X168389526Y-105623672D01*
X168449536Y-105624316D01*
X168494264Y-105625520D01*
X168526326Y-105627457D01*
X168548340Y-105630297D01*
X168562924Y-105634212D01*
X168572694Y-105639374D01*
X168580267Y-105645955D01*
X168586501Y-105652923D01*
X168593801Y-105665921D01*
X168598554Y-105685069D01*
X168601292Y-105714472D01*
X168602545Y-105758238D01*
X168602845Y-105820472D01*
X168602469Y-105869418D01*
X168598041Y-105976278D01*
X168587953Y-106065506D01*
X168571365Y-106140304D01*
X168547435Y-106203875D01*
X168515321Y-106259421D01*
X168474182Y-106310146D01*
X168468330Y-106316134D01*
X168419821Y-106353001D01*
X168359013Y-106384101D01*
X168294769Y-106405583D01*
X168235956Y-106413600D01*
X168214739Y-106412321D01*
X168157323Y-106400009D01*
X168097413Y-106377480D01*
X168043363Y-106348250D01*
X168003532Y-106315833D01*
X167986510Y-106296292D01*
X167947322Y-106241580D01*
X167917193Y-106181277D01*
X167895232Y-106112081D01*
X167880550Y-106030689D01*
X167872259Y-105933800D01*
X167870149Y-105846333D01*
X168015808Y-105846333D01*
X168015817Y-105849361D01*
X168017782Y-105900481D01*
X168022507Y-105960584D01*
X168029035Y-106017292D01*
X168038331Y-106067250D01*
X168064600Y-106142002D01*
X168103899Y-106199511D01*
X168156933Y-106241012D01*
X168208200Y-106262229D01*
X168256026Y-106263647D01*
X168306961Y-106245365D01*
X168352878Y-106215695D01*
X168395287Y-106168998D01*
X168425090Y-106107608D01*
X168444226Y-106028462D01*
X168444464Y-106026972D01*
X168450256Y-105978001D01*
X168454396Y-105919307D01*
X168456004Y-105863266D01*
X168456089Y-105770133D01*
X168015822Y-105770133D01*
X168015808Y-105846333D01*
X167870149Y-105846333D01*
X167869467Y-105818111D01*
X167869066Y-105778629D01*
X167868653Y-105732918D01*
X167870457Y-105697117D01*
X167876739Y-105670026D01*
X167889759Y-105650444D01*
X167911778Y-105637170D01*
X167945055Y-105629002D01*
X167991851Y-105624740D01*
X168015822Y-105624143D01*
X168054427Y-105623183D01*
X168135041Y-105623130D01*
G37*
X168135041Y-105623130D02*
X168235956Y-105623378D01*
X168311617Y-105623417D01*
X168389526Y-105623672D01*
X168449536Y-105624316D01*
X168494264Y-105625520D01*
X168526326Y-105627457D01*
X168548340Y-105630297D01*
X168562924Y-105634212D01*
X168572694Y-105639374D01*
X168580267Y-105645955D01*
X168586501Y-105652923D01*
X168593801Y-105665921D01*
X168598554Y-105685069D01*
X168601292Y-105714472D01*
X168602545Y-105758238D01*
X168602845Y-105820472D01*
X168602469Y-105869418D01*
X168598041Y-105976278D01*
X168587953Y-106065506D01*
X168571365Y-106140304D01*
X168547435Y-106203875D01*
X168515321Y-106259421D01*
X168474182Y-106310146D01*
X168468330Y-106316134D01*
X168419821Y-106353001D01*
X168359013Y-106384101D01*
X168294769Y-106405583D01*
X168235956Y-106413600D01*
X168214739Y-106412321D01*
X168157323Y-106400009D01*
X168097413Y-106377480D01*
X168043363Y-106348250D01*
X168003532Y-106315833D01*
X167986510Y-106296292D01*
X167947322Y-106241580D01*
X167917193Y-106181277D01*
X167895232Y-106112081D01*
X167880550Y-106030689D01*
X167872259Y-105933800D01*
X167870149Y-105846333D01*
X168015808Y-105846333D01*
X168015817Y-105849361D01*
X168017782Y-105900481D01*
X168022507Y-105960584D01*
X168029035Y-106017292D01*
X168038331Y-106067250D01*
X168064600Y-106142002D01*
X168103899Y-106199511D01*
X168156933Y-106241012D01*
X168208200Y-106262229D01*
X168256026Y-106263647D01*
X168306961Y-106245365D01*
X168352878Y-106215695D01*
X168395287Y-106168998D01*
X168425090Y-106107608D01*
X168444226Y-106028462D01*
X168444464Y-106026972D01*
X168450256Y-105978001D01*
X168454396Y-105919307D01*
X168456004Y-105863266D01*
X168456089Y-105770133D01*
X168015822Y-105770133D01*
X168015808Y-105846333D01*
X167870149Y-105846333D01*
X167869467Y-105818111D01*
X167869066Y-105778629D01*
X167868653Y-105732918D01*
X167870457Y-105697117D01*
X167876739Y-105670026D01*
X167889759Y-105650444D01*
X167911778Y-105637170D01*
X167945055Y-105629002D01*
X167991851Y-105624740D01*
X168015822Y-105624143D01*
X168054427Y-105623183D01*
X168135041Y-105623130D01*
G36*
X163134307Y-109095331D02*
G01*
X163175450Y-109097540D01*
X163207582Y-109103106D01*
X163238122Y-109113414D01*
X163274489Y-109129852D01*
X163301728Y-109143800D01*
X163387429Y-109202335D01*
X163456617Y-109274381D01*
X163507741Y-109358053D01*
X163539250Y-109451469D01*
X163546225Y-109484566D01*
X163553094Y-109525040D01*
X163554919Y-109558001D01*
X163551947Y-109592302D01*
X163544426Y-109636800D01*
X163532002Y-109688066D01*
X163494112Y-109778566D01*
X163439836Y-109857655D01*
X163371770Y-109923472D01*
X163292511Y-109974160D01*
X163204654Y-110007860D01*
X163110795Y-110022714D01*
X163013530Y-110016864D01*
X162917220Y-109990601D01*
X162828494Y-109945582D01*
X162753419Y-109884627D01*
X162693641Y-109809816D01*
X162650809Y-109723232D01*
X162626571Y-109626957D01*
X162622576Y-109523072D01*
X162632850Y-109445438D01*
X162660053Y-109362687D01*
X162705484Y-109287594D01*
X162771302Y-109215702D01*
X162815567Y-109177154D01*
X162873961Y-109137744D01*
X162934586Y-109112554D01*
X163003865Y-109099139D01*
X163088222Y-109095052D01*
X163134307Y-109095331D01*
G37*
X163134307Y-109095331D02*
X163175450Y-109097540D01*
X163207582Y-109103106D01*
X163238122Y-109113414D01*
X163274489Y-109129852D01*
X163301728Y-109143800D01*
X163387429Y-109202335D01*
X163456617Y-109274381D01*
X163507741Y-109358053D01*
X163539250Y-109451469D01*
X163546225Y-109484566D01*
X163553094Y-109525040D01*
X163554919Y-109558001D01*
X163551947Y-109592302D01*
X163544426Y-109636800D01*
X163532002Y-109688066D01*
X163494112Y-109778566D01*
X163439836Y-109857655D01*
X163371770Y-109923472D01*
X163292511Y-109974160D01*
X163204654Y-110007860D01*
X163110795Y-110022714D01*
X163013530Y-110016864D01*
X162917220Y-109990601D01*
X162828494Y-109945582D01*
X162753419Y-109884627D01*
X162693641Y-109809816D01*
X162650809Y-109723232D01*
X162626571Y-109626957D01*
X162622576Y-109523072D01*
X162632850Y-109445438D01*
X162660053Y-109362687D01*
X162705484Y-109287594D01*
X162771302Y-109215702D01*
X162815567Y-109177154D01*
X162873961Y-109137744D01*
X162934586Y-109112554D01*
X163003865Y-109099139D01*
X163088222Y-109095052D01*
X163134307Y-109095331D01*
G36*
X165920158Y-115714732D02*
G01*
X166071594Y-115723311D01*
X166208283Y-115742167D01*
X166334276Y-115772163D01*
X166453625Y-115814164D01*
X166570381Y-115869031D01*
X166681179Y-115935833D01*
X166794739Y-116026637D01*
X166890211Y-116130292D01*
X166967073Y-116246113D01*
X167024797Y-116373414D01*
X167062858Y-116511511D01*
X167068666Y-116549207D01*
X167074396Y-116628248D01*
X167074583Y-116716371D01*
X167069539Y-116805764D01*
X167059578Y-116888616D01*
X167045012Y-116957113D01*
X167035364Y-116987965D01*
X167005123Y-117065270D01*
X166967617Y-117142321D01*
X166926614Y-117211800D01*
X166885879Y-117266385D01*
X166866505Y-117289084D01*
X166848662Y-117311799D01*
X166841778Y-117323221D01*
X166843424Y-117324463D01*
X166861205Y-117327272D01*
X166894370Y-117329224D01*
X166937733Y-117329955D01*
X167033689Y-117329955D01*
X167033689Y-118188104D01*
X166972974Y-118153839D01*
X166963868Y-118148645D01*
X166949249Y-118140285D01*
X166935173Y-118132712D01*
X166920540Y-118125888D01*
X166904249Y-118119773D01*
X166885198Y-118114327D01*
X166862286Y-118109513D01*
X166834413Y-118105292D01*
X166800478Y-118101623D01*
X166759379Y-118098469D01*
X166710015Y-118095789D01*
X166651286Y-118093546D01*
X166582090Y-118091701D01*
X166501326Y-118090213D01*
X166407894Y-118089045D01*
X166300692Y-118088156D01*
X166178620Y-118087509D01*
X166040576Y-118087064D01*
X165885459Y-118086782D01*
X165712168Y-118086625D01*
X165519603Y-118086552D01*
X165306662Y-118086526D01*
X165072245Y-118086507D01*
X163387378Y-118086311D01*
X163387378Y-117180983D01*
X163424067Y-117205415D01*
X163433647Y-117211682D01*
X163479981Y-117237792D01*
X163527102Y-117255531D01*
X163582251Y-117267092D01*
X163652667Y-117274669D01*
X163659650Y-117275161D01*
X163697641Y-117276938D01*
X163751576Y-117278556D01*
X163818703Y-117280001D01*
X163896271Y-117281260D01*
X163981528Y-117282320D01*
X164071724Y-117283171D01*
X164164107Y-117283797D01*
X164255925Y-117284188D01*
X164344427Y-117284330D01*
X164426862Y-117284210D01*
X164500479Y-117283817D01*
X164562526Y-117283138D01*
X164610251Y-117282159D01*
X164640904Y-117280868D01*
X164651733Y-117279253D01*
X164647333Y-117271043D01*
X164632362Y-117249353D01*
X164610448Y-117219986D01*
X164576236Y-117171121D01*
X164529714Y-117082875D01*
X164496046Y-116984084D01*
X164493232Y-116969557D01*
X165047465Y-116969557D01*
X165059389Y-117054681D01*
X165086040Y-117138867D01*
X165126962Y-117217392D01*
X165170530Y-117284800D01*
X166320721Y-117284800D01*
X166367089Y-117214244D01*
X166390791Y-117173583D01*
X166416639Y-117119454D01*
X166434829Y-117070311D01*
X166450551Y-117006835D01*
X166461541Y-116910669D01*
X166453365Y-116826100D01*
X166425805Y-116752781D01*
X166378642Y-116690363D01*
X166311658Y-116638498D01*
X166224633Y-116596840D01*
X166117350Y-116565038D01*
X166105009Y-116562455D01*
X166043772Y-116554000D01*
X165966692Y-116548337D01*
X165879002Y-116545424D01*
X165785934Y-116545217D01*
X165692720Y-116547670D01*
X165604594Y-116552739D01*
X165526788Y-116560381D01*
X165464533Y-116570552D01*
X165458666Y-116571833D01*
X165348121Y-116600874D01*
X165257575Y-116635390D01*
X165184953Y-116676544D01*
X165128181Y-116725501D01*
X165085184Y-116783426D01*
X165069615Y-116815380D01*
X165050722Y-116888216D01*
X165047465Y-116969557D01*
X164493232Y-116969557D01*
X164474231Y-116871490D01*
X164463265Y-116741836D01*
X164462219Y-116649330D01*
X164472014Y-116527989D01*
X164496174Y-116417901D01*
X164535785Y-116314611D01*
X164591932Y-116213662D01*
X164622883Y-116168497D01*
X164714115Y-116063089D01*
X164823106Y-115971462D01*
X164949726Y-115893668D01*
X165093845Y-115829759D01*
X165255332Y-115779786D01*
X165434059Y-115743802D01*
X165629895Y-115721857D01*
X165785934Y-115716100D01*
X165842711Y-115714006D01*
X165920158Y-115714732D01*
G37*
X165920158Y-115714732D02*
X166071594Y-115723311D01*
X166208283Y-115742167D01*
X166334276Y-115772163D01*
X166453625Y-115814164D01*
X166570381Y-115869031D01*
X166681179Y-115935833D01*
X166794739Y-116026637D01*
X166890211Y-116130292D01*
X166967073Y-116246113D01*
X167024797Y-116373414D01*
X167062858Y-116511511D01*
X167068666Y-116549207D01*
X167074396Y-116628248D01*
X167074583Y-116716371D01*
X167069539Y-116805764D01*
X167059578Y-116888616D01*
X167045012Y-116957113D01*
X167035364Y-116987965D01*
X167005123Y-117065270D01*
X166967617Y-117142321D01*
X166926614Y-117211800D01*
X166885879Y-117266385D01*
X166866505Y-117289084D01*
X166848662Y-117311799D01*
X166841778Y-117323221D01*
X166843424Y-117324463D01*
X166861205Y-117327272D01*
X166894370Y-117329224D01*
X166937733Y-117329955D01*
X167033689Y-117329955D01*
X167033689Y-118188104D01*
X166972974Y-118153839D01*
X166963868Y-118148645D01*
X166949249Y-118140285D01*
X166935173Y-118132712D01*
X166920540Y-118125888D01*
X166904249Y-118119773D01*
X166885198Y-118114327D01*
X166862286Y-118109513D01*
X166834413Y-118105292D01*
X166800478Y-118101623D01*
X166759379Y-118098469D01*
X166710015Y-118095789D01*
X166651286Y-118093546D01*
X166582090Y-118091701D01*
X166501326Y-118090213D01*
X166407894Y-118089045D01*
X166300692Y-118088156D01*
X166178620Y-118087509D01*
X166040576Y-118087064D01*
X165885459Y-118086782D01*
X165712168Y-118086625D01*
X165519603Y-118086552D01*
X165306662Y-118086526D01*
X165072245Y-118086507D01*
X163387378Y-118086311D01*
X163387378Y-117180983D01*
X163424067Y-117205415D01*
X163433647Y-117211682D01*
X163479981Y-117237792D01*
X163527102Y-117255531D01*
X163582251Y-117267092D01*
X163652667Y-117274669D01*
X163659650Y-117275161D01*
X163697641Y-117276938D01*
X163751576Y-117278556D01*
X163818703Y-117280001D01*
X163896271Y-117281260D01*
X163981528Y-117282320D01*
X164071724Y-117283171D01*
X164164107Y-117283797D01*
X164255925Y-117284188D01*
X164344427Y-117284330D01*
X164426862Y-117284210D01*
X164500479Y-117283817D01*
X164562526Y-117283138D01*
X164610251Y-117282159D01*
X164640904Y-117280868D01*
X164651733Y-117279253D01*
X164647333Y-117271043D01*
X164632362Y-117249353D01*
X164610448Y-117219986D01*
X164576236Y-117171121D01*
X164529714Y-117082875D01*
X164496046Y-116984084D01*
X164493232Y-116969557D01*
X165047465Y-116969557D01*
X165059389Y-117054681D01*
X165086040Y-117138867D01*
X165126962Y-117217392D01*
X165170530Y-117284800D01*
X166320721Y-117284800D01*
X166367089Y-117214244D01*
X166390791Y-117173583D01*
X166416639Y-117119454D01*
X166434829Y-117070311D01*
X166450551Y-117006835D01*
X166461541Y-116910669D01*
X166453365Y-116826100D01*
X166425805Y-116752781D01*
X166378642Y-116690363D01*
X166311658Y-116638498D01*
X166224633Y-116596840D01*
X166117350Y-116565038D01*
X166105009Y-116562455D01*
X166043772Y-116554000D01*
X165966692Y-116548337D01*
X165879002Y-116545424D01*
X165785934Y-116545217D01*
X165692720Y-116547670D01*
X165604594Y-116552739D01*
X165526788Y-116560381D01*
X165464533Y-116570552D01*
X165458666Y-116571833D01*
X165348121Y-116600874D01*
X165257575Y-116635390D01*
X165184953Y-116676544D01*
X165128181Y-116725501D01*
X165085184Y-116783426D01*
X165069615Y-116815380D01*
X165050722Y-116888216D01*
X165047465Y-116969557D01*
X164493232Y-116969557D01*
X164474231Y-116871490D01*
X164463265Y-116741836D01*
X164462219Y-116649330D01*
X164472014Y-116527989D01*
X164496174Y-116417901D01*
X164535785Y-116314611D01*
X164591932Y-116213662D01*
X164622883Y-116168497D01*
X164714115Y-116063089D01*
X164823106Y-115971462D01*
X164949726Y-115893668D01*
X165093845Y-115829759D01*
X165255332Y-115779786D01*
X165434059Y-115743802D01*
X165629895Y-115721857D01*
X165785934Y-115716100D01*
X165842711Y-115714006D01*
X165920158Y-115714732D01*
G36*
X166277363Y-113172739D02*
G01*
X166352202Y-113176368D01*
X166414401Y-113183978D01*
X166470984Y-113196312D01*
X166597076Y-113240687D01*
X166711679Y-113303600D01*
X166812568Y-113383762D01*
X166898924Y-113480260D01*
X166969932Y-113592178D01*
X167024776Y-113718603D01*
X167062638Y-113858622D01*
X167068351Y-113894851D01*
X167074313Y-113973845D01*
X167074646Y-114062159D01*
X167069659Y-114151925D01*
X167059666Y-114235278D01*
X167044978Y-114304349D01*
X167014749Y-114390813D01*
X166960057Y-114500714D01*
X166892543Y-114598044D01*
X166841556Y-114660133D01*
X166937622Y-114663395D01*
X167033689Y-114666657D01*
X167033689Y-115089550D01*
X167033686Y-115100457D01*
X167033380Y-115194944D01*
X167032616Y-115281669D01*
X167031451Y-115358163D01*
X167029942Y-115421957D01*
X167028147Y-115470582D01*
X167026121Y-115501567D01*
X167023922Y-115512444D01*
X167023463Y-115512422D01*
X167007910Y-115505386D01*
X166985071Y-115489566D01*
X166979638Y-115485266D01*
X166965606Y-115474223D01*
X166952186Y-115464689D01*
X166937722Y-115456539D01*
X166920556Y-115449648D01*
X166899034Y-115443889D01*
X166871498Y-115439138D01*
X166836292Y-115435269D01*
X166791760Y-115432156D01*
X166736246Y-115429675D01*
X166668093Y-115427700D01*
X166585645Y-115426106D01*
X166487246Y-115424766D01*
X166371239Y-115423556D01*
X166235968Y-115422351D01*
X166079778Y-115421025D01*
X165937012Y-115419772D01*
X165791942Y-115418349D01*
X165666027Y-115416824D01*
X165557436Y-115415067D01*
X165464334Y-115412949D01*
X165384891Y-115410340D01*
X165317273Y-115407110D01*
X165259649Y-115403131D01*
X165210185Y-115398272D01*
X165167050Y-115392403D01*
X165128410Y-115385396D01*
X165092434Y-115377120D01*
X165057289Y-115367446D01*
X165021142Y-115356244D01*
X164982161Y-115343384D01*
X164939091Y-115327910D01*
X164846871Y-115285006D01*
X164767099Y-115231265D01*
X164692965Y-115162424D01*
X164629405Y-115084815D01*
X164567725Y-114980239D01*
X164520202Y-114860756D01*
X164486567Y-114725492D01*
X164466552Y-114573574D01*
X164459889Y-114404128D01*
X164460287Y-114346110D01*
X164462335Y-114280602D01*
X164466704Y-114219307D01*
X164474035Y-114157903D01*
X164484969Y-114092068D01*
X164500147Y-114017480D01*
X164520209Y-113929816D01*
X164545797Y-113824755D01*
X164552820Y-113796194D01*
X164570776Y-113720946D01*
X164586820Y-113650612D01*
X164600028Y-113589433D01*
X164609474Y-113541646D01*
X164614231Y-113511489D01*
X164617910Y-113483217D01*
X164623187Y-113456940D01*
X164627942Y-113446941D01*
X164636781Y-113450048D01*
X164664072Y-113460806D01*
X164706906Y-113478136D01*
X164762425Y-113500874D01*
X164827772Y-113527853D01*
X164900089Y-113557910D01*
X164915879Y-113564507D01*
X165006484Y-113603093D01*
X165076217Y-113634232D01*
X165125405Y-113658083D01*
X165154374Y-113674802D01*
X165163452Y-113684546D01*
X165161405Y-113692234D01*
X165151760Y-113718585D01*
X165136190Y-113757018D01*
X165116815Y-113802178D01*
X165078814Y-113896707D01*
X165037780Y-114033520D01*
X165012612Y-114174711D01*
X165008611Y-114212686D01*
X165006447Y-114315941D01*
X165019622Y-114403048D01*
X165048756Y-114474871D01*
X165094466Y-114532269D01*
X165157372Y-114576104D01*
X165238092Y-114607238D01*
X165337245Y-114626530D01*
X165396224Y-114633950D01*
X165389445Y-114472064D01*
X165389111Y-114446106D01*
X165911842Y-114446106D01*
X165911857Y-114454993D01*
X165912655Y-114510340D01*
X165914488Y-114557264D01*
X165917111Y-114591047D01*
X165920274Y-114606972D01*
X165926741Y-114611057D01*
X165948875Y-114615428D01*
X165987988Y-114618396D01*
X166045939Y-114620086D01*
X166124586Y-114620622D01*
X166320462Y-114620622D01*
X166376973Y-114575952D01*
X166392212Y-114563215D01*
X166434844Y-114516396D01*
X166470672Y-114455745D01*
X166475850Y-114445103D01*
X166492745Y-114406324D01*
X166502909Y-114371308D01*
X166508325Y-114331278D01*
X166510978Y-114277459D01*
X166511383Y-114259352D01*
X166508540Y-114183989D01*
X166496620Y-114123257D01*
X166474037Y-114071548D01*
X166439211Y-114023254D01*
X166434798Y-114018197D01*
X166379160Y-113969728D01*
X166315333Y-113941541D01*
X166240282Y-113932248D01*
X166168693Y-113939480D01*
X166105645Y-113964204D01*
X166047758Y-114008751D01*
X166000808Y-114063681D01*
X165960961Y-114136106D01*
X165933263Y-114222660D01*
X165917096Y-114325330D01*
X165911842Y-114446106D01*
X165389111Y-114446106D01*
X165387813Y-114345505D01*
X165394194Y-114194049D01*
X165408777Y-114045604D01*
X165430882Y-113909422D01*
X165445821Y-113844755D01*
X165488741Y-113712510D01*
X165545340Y-113590238D01*
X165614017Y-113480315D01*
X165693170Y-113385117D01*
X165781196Y-113307020D01*
X165876493Y-113248401D01*
X165928864Y-113224405D01*
X165999590Y-113198768D01*
X166070812Y-113182522D01*
X166149712Y-113174178D01*
X166240282Y-113172310D01*
X166243467Y-113172245D01*
X166277363Y-113172739D01*
G37*
X166277363Y-113172739D02*
X166352202Y-113176368D01*
X166414401Y-113183978D01*
X166470984Y-113196312D01*
X166597076Y-113240687D01*
X166711679Y-113303600D01*
X166812568Y-113383762D01*
X166898924Y-113480260D01*
X166969932Y-113592178D01*
X167024776Y-113718603D01*
X167062638Y-113858622D01*
X167068351Y-113894851D01*
X167074313Y-113973845D01*
X167074646Y-114062159D01*
X167069659Y-114151925D01*
X167059666Y-114235278D01*
X167044978Y-114304349D01*
X167014749Y-114390813D01*
X166960057Y-114500714D01*
X166892543Y-114598044D01*
X166841556Y-114660133D01*
X166937622Y-114663395D01*
X167033689Y-114666657D01*
X167033689Y-115089550D01*
X167033686Y-115100457D01*
X167033380Y-115194944D01*
X167032616Y-115281669D01*
X167031451Y-115358163D01*
X167029942Y-115421957D01*
X167028147Y-115470582D01*
X167026121Y-115501567D01*
X167023922Y-115512444D01*
X167023463Y-115512422D01*
X167007910Y-115505386D01*
X166985071Y-115489566D01*
X166979638Y-115485266D01*
X166965606Y-115474223D01*
X166952186Y-115464689D01*
X166937722Y-115456539D01*
X166920556Y-115449648D01*
X166899034Y-115443889D01*
X166871498Y-115439138D01*
X166836292Y-115435269D01*
X166791760Y-115432156D01*
X166736246Y-115429675D01*
X166668093Y-115427700D01*
X166585645Y-115426106D01*
X166487246Y-115424766D01*
X166371239Y-115423556D01*
X166235968Y-115422351D01*
X166079778Y-115421025D01*
X165937012Y-115419772D01*
X165791942Y-115418349D01*
X165666027Y-115416824D01*
X165557436Y-115415067D01*
X165464334Y-115412949D01*
X165384891Y-115410340D01*
X165317273Y-115407110D01*
X165259649Y-115403131D01*
X165210185Y-115398272D01*
X165167050Y-115392403D01*
X165128410Y-115385396D01*
X165092434Y-115377120D01*
X165057289Y-115367446D01*
X165021142Y-115356244D01*
X164982161Y-115343384D01*
X164939091Y-115327910D01*
X164846871Y-115285006D01*
X164767099Y-115231265D01*
X164692965Y-115162424D01*
X164629405Y-115084815D01*
X164567725Y-114980239D01*
X164520202Y-114860756D01*
X164486567Y-114725492D01*
X164466552Y-114573574D01*
X164459889Y-114404128D01*
X164460287Y-114346110D01*
X164462335Y-114280602D01*
X164466704Y-114219307D01*
X164474035Y-114157903D01*
X164484969Y-114092068D01*
X164500147Y-114017480D01*
X164520209Y-113929816D01*
X164545797Y-113824755D01*
X164552820Y-113796194D01*
X164570776Y-113720946D01*
X164586820Y-113650612D01*
X164600028Y-113589433D01*
X164609474Y-113541646D01*
X164614231Y-113511489D01*
X164617910Y-113483217D01*
X164623187Y-113456940D01*
X164627942Y-113446941D01*
X164636781Y-113450048D01*
X164664072Y-113460806D01*
X164706906Y-113478136D01*
X164762425Y-113500874D01*
X164827772Y-113527853D01*
X164900089Y-113557910D01*
X164915879Y-113564507D01*
X165006484Y-113603093D01*
X165076217Y-113634232D01*
X165125405Y-113658083D01*
X165154374Y-113674802D01*
X165163452Y-113684546D01*
X165161405Y-113692234D01*
X165151760Y-113718585D01*
X165136190Y-113757018D01*
X165116815Y-113802178D01*
X165078814Y-113896707D01*
X165037780Y-114033520D01*
X165012612Y-114174711D01*
X165008611Y-114212686D01*
X165006447Y-114315941D01*
X165019622Y-114403048D01*
X165048756Y-114474871D01*
X165094466Y-114532269D01*
X165157372Y-114576104D01*
X165238092Y-114607238D01*
X165337245Y-114626530D01*
X165396224Y-114633950D01*
X165389445Y-114472064D01*
X165389111Y-114446106D01*
X165911842Y-114446106D01*
X165911857Y-114454993D01*
X165912655Y-114510340D01*
X165914488Y-114557264D01*
X165917111Y-114591047D01*
X165920274Y-114606972D01*
X165926741Y-114611057D01*
X165948875Y-114615428D01*
X165987988Y-114618396D01*
X166045939Y-114620086D01*
X166124586Y-114620622D01*
X166320462Y-114620622D01*
X166376973Y-114575952D01*
X166392212Y-114563215D01*
X166434844Y-114516396D01*
X166470672Y-114455745D01*
X166475850Y-114445103D01*
X166492745Y-114406324D01*
X166502909Y-114371308D01*
X166508325Y-114331278D01*
X166510978Y-114277459D01*
X166511383Y-114259352D01*
X166508540Y-114183989D01*
X166496620Y-114123257D01*
X166474037Y-114071548D01*
X166439211Y-114023254D01*
X166434798Y-114018197D01*
X166379160Y-113969728D01*
X166315333Y-113941541D01*
X166240282Y-113932248D01*
X166168693Y-113939480D01*
X166105645Y-113964204D01*
X166047758Y-114008751D01*
X166000808Y-114063681D01*
X165960961Y-114136106D01*
X165933263Y-114222660D01*
X165917096Y-114325330D01*
X165911842Y-114446106D01*
X165389111Y-114446106D01*
X165387813Y-114345505D01*
X165394194Y-114194049D01*
X165408777Y-114045604D01*
X165430882Y-113909422D01*
X165445821Y-113844755D01*
X165488741Y-113712510D01*
X165545340Y-113590238D01*
X165614017Y-113480315D01*
X165693170Y-113385117D01*
X165781196Y-113307020D01*
X165876493Y-113248401D01*
X165928864Y-113224405D01*
X165999590Y-113198768D01*
X166070812Y-113182522D01*
X166149712Y-113174178D01*
X166240282Y-113172310D01*
X166243467Y-113172245D01*
X166277363Y-113172739D01*
G36*
X165421325Y-110582449D02*
G01*
X165622581Y-110599209D01*
X165817128Y-110632708D01*
X166000756Y-110682956D01*
X166118053Y-110726810D01*
X166280951Y-110804652D01*
X166434866Y-110898172D01*
X166576671Y-111005178D01*
X166703239Y-111123481D01*
X166811441Y-111250889D01*
X166864120Y-111328394D01*
X166933750Y-111455275D01*
X166992468Y-111592757D01*
X167037587Y-111734284D01*
X167066422Y-111873298D01*
X167068106Y-111887403D01*
X167071434Y-111930847D01*
X167074275Y-111988277D01*
X167076373Y-112053878D01*
X167077468Y-112121833D01*
X167075140Y-112248622D01*
X167062136Y-112396327D01*
X167037133Y-112534221D01*
X166999318Y-112667986D01*
X166990889Y-112691438D01*
X166971408Y-112739388D01*
X166946473Y-112795860D01*
X166917722Y-112857621D01*
X166886790Y-112921437D01*
X166855315Y-112984074D01*
X166824934Y-113042297D01*
X166797283Y-113092873D01*
X166773999Y-113132567D01*
X166756718Y-113158146D01*
X166747079Y-113166375D01*
X166743984Y-113164924D01*
X166724079Y-113153750D01*
X166688420Y-113132866D01*
X166639459Y-113103735D01*
X166579646Y-113067819D01*
X166511433Y-113026580D01*
X166437271Y-112981483D01*
X166140008Y-112800215D01*
X166184539Y-112753685D01*
X166262865Y-112662277D01*
X166337439Y-112548666D01*
X166391474Y-112430878D01*
X166424290Y-112310441D01*
X166435211Y-112188883D01*
X166433868Y-112147415D01*
X166415612Y-112029920D01*
X166376617Y-111919911D01*
X166317670Y-111818570D01*
X166239557Y-111727079D01*
X166143064Y-111646620D01*
X166028978Y-111578373D01*
X165994724Y-111562092D01*
X165871240Y-111516018D01*
X165732918Y-111480894D01*
X165583561Y-111456803D01*
X165426973Y-111443827D01*
X165266956Y-111442051D01*
X165107314Y-111451557D01*
X164951850Y-111472428D01*
X164804366Y-111504748D01*
X164668667Y-111548601D01*
X164582076Y-111586018D01*
X164468688Y-111650815D01*
X164375070Y-111726228D01*
X164300959Y-111812582D01*
X164246094Y-111910205D01*
X164210212Y-112019423D01*
X164193051Y-112140561D01*
X164191880Y-112209962D01*
X164206141Y-112332832D01*
X164241241Y-112448336D01*
X164296682Y-112555047D01*
X164371964Y-112651536D01*
X164386440Y-112667280D01*
X164412962Y-112697850D01*
X164430138Y-112720191D01*
X164434787Y-112730309D01*
X164432597Y-112732294D01*
X164413721Y-112746759D01*
X164380397Y-112770600D01*
X164335380Y-112801971D01*
X164281425Y-112839026D01*
X164221285Y-112879917D01*
X164157718Y-112922798D01*
X164093476Y-112965822D01*
X164031315Y-113007143D01*
X163973991Y-113044914D01*
X163924257Y-113077288D01*
X163884868Y-113102418D01*
X163858580Y-113118458D01*
X163848147Y-113123561D01*
X163843941Y-113118950D01*
X163838933Y-113099733D01*
X163836386Y-113090162D01*
X163825249Y-113062191D01*
X163806802Y-113020552D01*
X163782725Y-112969005D01*
X163754699Y-112911310D01*
X163749154Y-112900043D01*
X163669889Y-112722313D01*
X163610385Y-112552510D01*
X163570245Y-112388570D01*
X163549071Y-112228429D01*
X163546466Y-112070023D01*
X163562033Y-111911289D01*
X163579523Y-111815732D01*
X163624564Y-111651442D01*
X163687656Y-111497411D01*
X163769915Y-111351491D01*
X163872457Y-111211534D01*
X163996399Y-111075392D01*
X164041661Y-111031527D01*
X164173865Y-110919242D01*
X164311832Y-110826028D01*
X164459750Y-110749281D01*
X164621803Y-110686397D01*
X164633391Y-110682580D01*
X164819392Y-110632493D01*
X165015521Y-110599101D01*
X165217568Y-110582416D01*
X165421325Y-110582449D01*
G37*
X165421325Y-110582449D02*
X165622581Y-110599209D01*
X165817128Y-110632708D01*
X166000756Y-110682956D01*
X166118053Y-110726810D01*
X166280951Y-110804652D01*
X166434866Y-110898172D01*
X166576671Y-111005178D01*
X166703239Y-111123481D01*
X166811441Y-111250889D01*
X166864120Y-111328394D01*
X166933750Y-111455275D01*
X166992468Y-111592757D01*
X167037587Y-111734284D01*
X167066422Y-111873298D01*
X167068106Y-111887403D01*
X167071434Y-111930847D01*
X167074275Y-111988277D01*
X167076373Y-112053878D01*
X167077468Y-112121833D01*
X167075140Y-112248622D01*
X167062136Y-112396327D01*
X167037133Y-112534221D01*
X166999318Y-112667986D01*
X166990889Y-112691438D01*
X166971408Y-112739388D01*
X166946473Y-112795860D01*
X166917722Y-112857621D01*
X166886790Y-112921437D01*
X166855315Y-112984074D01*
X166824934Y-113042297D01*
X166797283Y-113092873D01*
X166773999Y-113132567D01*
X166756718Y-113158146D01*
X166747079Y-113166375D01*
X166743984Y-113164924D01*
X166724079Y-113153750D01*
X166688420Y-113132866D01*
X166639459Y-113103735D01*
X166579646Y-113067819D01*
X166511433Y-113026580D01*
X166437271Y-112981483D01*
X166140008Y-112800215D01*
X166184539Y-112753685D01*
X166262865Y-112662277D01*
X166337439Y-112548666D01*
X166391474Y-112430878D01*
X166424290Y-112310441D01*
X166435211Y-112188883D01*
X166433868Y-112147415D01*
X166415612Y-112029920D01*
X166376617Y-111919911D01*
X166317670Y-111818570D01*
X166239557Y-111727079D01*
X166143064Y-111646620D01*
X166028978Y-111578373D01*
X165994724Y-111562092D01*
X165871240Y-111516018D01*
X165732918Y-111480894D01*
X165583561Y-111456803D01*
X165426973Y-111443827D01*
X165266956Y-111442051D01*
X165107314Y-111451557D01*
X164951850Y-111472428D01*
X164804366Y-111504748D01*
X164668667Y-111548601D01*
X164582076Y-111586018D01*
X164468688Y-111650815D01*
X164375070Y-111726228D01*
X164300959Y-111812582D01*
X164246094Y-111910205D01*
X164210212Y-112019423D01*
X164193051Y-112140561D01*
X164191880Y-112209962D01*
X164206141Y-112332832D01*
X164241241Y-112448336D01*
X164296682Y-112555047D01*
X164371964Y-112651536D01*
X164386440Y-112667280D01*
X164412962Y-112697850D01*
X164430138Y-112720191D01*
X164434787Y-112730309D01*
X164432597Y-112732294D01*
X164413721Y-112746759D01*
X164380397Y-112770600D01*
X164335380Y-112801971D01*
X164281425Y-112839026D01*
X164221285Y-112879917D01*
X164157718Y-112922798D01*
X164093476Y-112965822D01*
X164031315Y-113007143D01*
X163973991Y-113044914D01*
X163924257Y-113077288D01*
X163884868Y-113102418D01*
X163858580Y-113118458D01*
X163848147Y-113123561D01*
X163843941Y-113118950D01*
X163838933Y-113099733D01*
X163836386Y-113090162D01*
X163825249Y-113062191D01*
X163806802Y-113020552D01*
X163782725Y-112969005D01*
X163754699Y-112911310D01*
X163749154Y-112900043D01*
X163669889Y-112722313D01*
X163610385Y-112552510D01*
X163570245Y-112388570D01*
X163549071Y-112228429D01*
X163546466Y-112070023D01*
X163562033Y-111911289D01*
X163579523Y-111815732D01*
X163624564Y-111651442D01*
X163687656Y-111497411D01*
X163769915Y-111351491D01*
X163872457Y-111211534D01*
X163996399Y-111075392D01*
X164041661Y-111031527D01*
X164173865Y-110919242D01*
X164311832Y-110826028D01*
X164459750Y-110749281D01*
X164621803Y-110686397D01*
X164633391Y-110682580D01*
X164819392Y-110632493D01*
X165015521Y-110599101D01*
X165217568Y-110582416D01*
X165421325Y-110582449D01*
G36*
X163843011Y-105623941D02*
G01*
X163990216Y-105623638D01*
X164154349Y-105623452D01*
X164336352Y-105623358D01*
X164537165Y-105623329D01*
X164757732Y-105623339D01*
X164998992Y-105623364D01*
X165261889Y-105623378D01*
X165304040Y-105623378D01*
X165564668Y-105623354D01*
X165803796Y-105623315D01*
X166022360Y-105623292D01*
X166221295Y-105623313D01*
X166401535Y-105623407D01*
X166564015Y-105623605D01*
X166709670Y-105623937D01*
X166839434Y-105624431D01*
X166954243Y-105625117D01*
X167055030Y-105626024D01*
X167142730Y-105627183D01*
X167218279Y-105628622D01*
X167282611Y-105630371D01*
X167336661Y-105632460D01*
X167381363Y-105634917D01*
X167417652Y-105637773D01*
X167446463Y-105641057D01*
X167468731Y-105644798D01*
X167485390Y-105649026D01*
X167497375Y-105653771D01*
X167505621Y-105659061D01*
X167511062Y-105664927D01*
X167514634Y-105671398D01*
X167517270Y-105678503D01*
X167519906Y-105686272D01*
X167523477Y-105694734D01*
X167525145Y-105699092D01*
X167527111Y-105707605D01*
X167528911Y-105720306D01*
X167530555Y-105738115D01*
X167532047Y-105761951D01*
X167533397Y-105792734D01*
X167534611Y-105831383D01*
X167535697Y-105878818D01*
X167536661Y-105935957D01*
X167537511Y-106003721D01*
X167538253Y-106083029D01*
X167538897Y-106174801D01*
X167539447Y-106279956D01*
X167539913Y-106399413D01*
X167540300Y-106534092D01*
X167540616Y-106684912D01*
X167540869Y-106852794D01*
X167541066Y-107038655D01*
X167541213Y-107243417D01*
X167541318Y-107467998D01*
X167541389Y-107713318D01*
X167541432Y-107980296D01*
X167541437Y-108018679D01*
X167541480Y-108284078D01*
X167541525Y-108527950D01*
X167541548Y-108751217D01*
X167541524Y-108954804D01*
X167541430Y-109139633D01*
X167541243Y-109306627D01*
X167540939Y-109456710D01*
X167540494Y-109590804D01*
X167539885Y-109709834D01*
X167539089Y-109814721D01*
X167538080Y-109906390D01*
X167536837Y-109985763D01*
X167535335Y-110053763D01*
X167533551Y-110111314D01*
X167531461Y-110159338D01*
X167529042Y-110198760D01*
X167526270Y-110230501D01*
X167523121Y-110255486D01*
X167519572Y-110274636D01*
X167515598Y-110288877D01*
X167511178Y-110299129D01*
X167506286Y-110306318D01*
X167500900Y-110311365D01*
X167494996Y-110315195D01*
X167488549Y-110318729D01*
X167481537Y-110322892D01*
X167479687Y-110323975D01*
X167474180Y-110326187D01*
X167465868Y-110328214D01*
X167453809Y-110330062D01*
X167437063Y-110331739D01*
X167414687Y-110333255D01*
X167385740Y-110334617D01*
X167349280Y-110335833D01*
X167304367Y-110336911D01*
X167250057Y-110337860D01*
X167185410Y-110338688D01*
X167109484Y-110339403D01*
X167021338Y-110340013D01*
X166920029Y-110340526D01*
X166804617Y-110340950D01*
X166674160Y-110341294D01*
X166527716Y-110341566D01*
X166364344Y-110341773D01*
X166183101Y-110341924D01*
X165983048Y-110342028D01*
X165763241Y-110342092D01*
X165522739Y-110342124D01*
X165260602Y-110342133D01*
X163069031Y-110342133D01*
X163030649Y-110303751D01*
X163006911Y-110276645D01*
X162995111Y-110249747D01*
X162992267Y-110213440D01*
X162992267Y-110161511D01*
X163080206Y-110161511D01*
X163130102Y-110159573D01*
X163240523Y-110140801D01*
X163341987Y-110103783D01*
X163433152Y-110050631D01*
X163512673Y-109983454D01*
X163579205Y-109904362D01*
X163631406Y-109815466D01*
X163667930Y-109718875D01*
X163687434Y-109616700D01*
X163688561Y-109512147D01*
X164504978Y-109512147D01*
X164504978Y-109957805D01*
X165681845Y-109960880D01*
X166858711Y-109963955D01*
X166917622Y-109990593D01*
X166942183Y-110002515D01*
X166972434Y-110019754D01*
X166989560Y-110032926D01*
X166997591Y-110040924D01*
X167012493Y-110048622D01*
X167013765Y-110044740D01*
X167015791Y-110021480D01*
X167017626Y-109979126D01*
X167019227Y-109919868D01*
X167020549Y-109845893D01*
X167021548Y-109759390D01*
X167022180Y-109662548D01*
X167022400Y-109557555D01*
X167022349Y-109488644D01*
X167022091Y-109390393D01*
X167021637Y-109300970D01*
X167021010Y-109222667D01*
X167020235Y-109157777D01*
X167019335Y-109108589D01*
X167018334Y-109077396D01*
X167017257Y-109066489D01*
X167014037Y-109067678D01*
X166996452Y-109077824D01*
X166970158Y-109094960D01*
X166957691Y-109103460D01*
X166943622Y-109112671D01*
X166929351Y-109120767D01*
X166913479Y-109127815D01*
X166894609Y-109133883D01*
X166871341Y-109139039D01*
X166842278Y-109143349D01*
X166806021Y-109146881D01*
X166761170Y-109149703D01*
X166706328Y-109151882D01*
X166640097Y-109153486D01*
X166561077Y-109154581D01*
X166467871Y-109155235D01*
X166359079Y-109155516D01*
X166233303Y-109155491D01*
X166089145Y-109155228D01*
X165925207Y-109154794D01*
X165740089Y-109154255D01*
X165561232Y-109153721D01*
X165402374Y-109153195D01*
X165263316Y-109152650D01*
X165142665Y-109152055D01*
X165039028Y-109151381D01*
X164951011Y-109150597D01*
X164877223Y-109149674D01*
X164816269Y-109148581D01*
X164766757Y-109147288D01*
X164727293Y-109145765D01*
X164696484Y-109143981D01*
X164672938Y-109141908D01*
X164655260Y-109139514D01*
X164642059Y-109136770D01*
X164631940Y-109133644D01*
X164623511Y-109130108D01*
X164615375Y-109126209D01*
X164578544Y-109106562D01*
X164548391Y-109087775D01*
X164546908Y-109086728D01*
X164524659Y-109072398D01*
X164511702Y-109066489D01*
X164511249Y-109067496D01*
X164509803Y-109084695D01*
X164508480Y-109121344D01*
X164507316Y-109175038D01*
X164506347Y-109243370D01*
X164505611Y-109323936D01*
X164505142Y-109414330D01*
X164504978Y-109512147D01*
X163688561Y-109512147D01*
X163688573Y-109511050D01*
X163670005Y-109404036D01*
X163630384Y-109297768D01*
X163572516Y-109200781D01*
X163497684Y-109115707D01*
X163409615Y-109046985D01*
X163310616Y-108996082D01*
X163202993Y-108964465D01*
X163089054Y-108953600D01*
X162992267Y-108953600D01*
X162992267Y-107333247D01*
X162992280Y-107122103D01*
X162992330Y-106917980D01*
X162992430Y-106734314D01*
X162992592Y-106570009D01*
X162992829Y-106423971D01*
X162993153Y-106295106D01*
X162993575Y-106182317D01*
X162994109Y-106084512D01*
X162994767Y-106000596D01*
X162995561Y-105929473D01*
X162995587Y-105927803D01*
X163601867Y-105927803D01*
X163601867Y-106987686D01*
X163664966Y-106949689D01*
X163690005Y-106935007D01*
X163717586Y-106920469D01*
X163745700Y-106908373D01*
X163776551Y-106898468D01*
X163812344Y-106890506D01*
X163855283Y-106884239D01*
X163907574Y-106879418D01*
X163971419Y-106875794D01*
X164049025Y-106873119D01*
X164142594Y-106871143D01*
X164254333Y-106869618D01*
X164386445Y-106868296D01*
X164506434Y-106867387D01*
X164623063Y-106866980D01*
X164718531Y-106867233D01*
X164792556Y-106868143D01*
X164844855Y-106869707D01*
X164875149Y-106871921D01*
X164883156Y-106874780D01*
X164879858Y-106877839D01*
X164858408Y-106895994D01*
X164821889Y-106925725D01*
X164772442Y-106965361D01*
X164712207Y-107013229D01*
X164643327Y-107067657D01*
X164567943Y-107126973D01*
X164488196Y-107189505D01*
X164406228Y-107253579D01*
X164324180Y-107317525D01*
X164244194Y-107379669D01*
X164168411Y-107438339D01*
X164098973Y-107491863D01*
X164038021Y-107538570D01*
X163987696Y-107576786D01*
X163950140Y-107604839D01*
X163927495Y-107621057D01*
X163855212Y-107666365D01*
X163775463Y-107706339D01*
X163707188Y-107727870D01*
X163649844Y-107731173D01*
X163601867Y-107725884D01*
X163602117Y-108857644D01*
X163632722Y-108818133D01*
X163640089Y-108808752D01*
X163694438Y-108745817D01*
X163762259Y-108677003D01*
X163845516Y-108600404D01*
X163946178Y-108514112D01*
X163966847Y-108496948D01*
X164016409Y-108456167D01*
X164077326Y-108406412D01*
X164147898Y-108349045D01*
X164226424Y-108285431D01*
X164311204Y-108216931D01*
X164400537Y-108144910D01*
X164492722Y-108070730D01*
X164511702Y-108055483D01*
X164586060Y-107995754D01*
X164678848Y-107921347D01*
X164769388Y-107848869D01*
X164855978Y-107779686D01*
X164936918Y-107715159D01*
X165010506Y-107656653D01*
X165075044Y-107605530D01*
X165128829Y-107563153D01*
X165170162Y-107530885D01*
X165197342Y-107510090D01*
X165208668Y-107502131D01*
X165212771Y-107503889D01*
X165233334Y-107516770D01*
X165269561Y-107541115D01*
X165319824Y-107575753D01*
X165382492Y-107619514D01*
X165455936Y-107671225D01*
X165538527Y-107729716D01*
X165628636Y-107793816D01*
X165724631Y-107862354D01*
X165824885Y-107934157D01*
X165927768Y-108008056D01*
X166031650Y-108082879D01*
X166134901Y-108157455D01*
X166235892Y-108230613D01*
X166332994Y-108301181D01*
X166424577Y-108367989D01*
X166509011Y-108429865D01*
X166584667Y-108485639D01*
X166649916Y-108534138D01*
X166703128Y-108574193D01*
X166742673Y-108604631D01*
X166768026Y-108625056D01*
X166822295Y-108671101D01*
X166878775Y-108721388D01*
X166928669Y-108768185D01*
X167022400Y-108859349D01*
X167022400Y-107704910D01*
X166946200Y-107705544D01*
X166904160Y-107704426D01*
X166868334Y-107698696D01*
X166830772Y-107686110D01*
X166782577Y-107664432D01*
X166775897Y-107661211D01*
X166726359Y-107635812D01*
X166678369Y-107609004D01*
X166641466Y-107586083D01*
X166634834Y-107581515D01*
X166603593Y-107559484D01*
X166558654Y-107527307D01*
X166502147Y-107486543D01*
X166436204Y-107438755D01*
X166362957Y-107385502D01*
X166284536Y-107328345D01*
X166203072Y-107268845D01*
X166120698Y-107208563D01*
X166039544Y-107149060D01*
X165961742Y-107091895D01*
X165889423Y-107038630D01*
X165824718Y-106990826D01*
X165769759Y-106950043D01*
X165726676Y-106917842D01*
X165697602Y-106895784D01*
X165684667Y-106885429D01*
X165680351Y-106880956D01*
X165678312Y-106876764D01*
X165680926Y-106873357D01*
X165689986Y-106870675D01*
X165707285Y-106868659D01*
X165734614Y-106867252D01*
X165773765Y-106866395D01*
X165826533Y-106866030D01*
X165894707Y-106866097D01*
X165980082Y-106866540D01*
X166084449Y-106867298D01*
X166209600Y-106868315D01*
X166254300Y-106868692D01*
X166375395Y-106869831D01*
X166476688Y-106871028D01*
X166560262Y-106872364D01*
X166628204Y-106873923D01*
X166682599Y-106875785D01*
X166725532Y-106878034D01*
X166759089Y-106880752D01*
X166785355Y-106884021D01*
X166806416Y-106887922D01*
X166824357Y-106892539D01*
X166850770Y-106900808D01*
X166912772Y-106924417D01*
X166965573Y-106950315D01*
X167002645Y-106975465D01*
X167004075Y-106976661D01*
X167008424Y-106978832D01*
X167012026Y-106976672D01*
X167014951Y-106968356D01*
X167017269Y-106952060D01*
X167019051Y-106925959D01*
X167020367Y-106888229D01*
X167021286Y-106837044D01*
X167021878Y-106770580D01*
X167022215Y-106687013D01*
X167022365Y-106584517D01*
X167022400Y-106461268D01*
X167022400Y-105929704D01*
X166964783Y-105968477D01*
X166955893Y-105974568D01*
X166941069Y-105985024D01*
X166927422Y-105994421D01*
X166913765Y-106002817D01*
X166898911Y-106010267D01*
X166881670Y-106016827D01*
X166860855Y-106022554D01*
X166835280Y-106027505D01*
X166803755Y-106031734D01*
X166765093Y-106035299D01*
X166718107Y-106038256D01*
X166661608Y-106040660D01*
X166594409Y-106042569D01*
X166515322Y-106044038D01*
X166423160Y-106045124D01*
X166316734Y-106045882D01*
X166194857Y-106046370D01*
X166056341Y-106046642D01*
X165899999Y-106046757D01*
X165724642Y-106046769D01*
X165529082Y-106046735D01*
X165312133Y-106046711D01*
X165189513Y-106046720D01*
X164984447Y-106046757D01*
X164800116Y-106046773D01*
X164635334Y-106046712D01*
X164488916Y-106046516D01*
X164359674Y-106046130D01*
X164246422Y-106045495D01*
X164147975Y-106044556D01*
X164063144Y-106043255D01*
X163990744Y-106041536D01*
X163929589Y-106039341D01*
X163878492Y-106036615D01*
X163836267Y-106033299D01*
X163801727Y-106029338D01*
X163773686Y-106024675D01*
X163750958Y-106019253D01*
X163732356Y-106013014D01*
X163716693Y-106005903D01*
X163702784Y-105997862D01*
X163689441Y-105988834D01*
X163675479Y-105978764D01*
X163659711Y-105967593D01*
X163601867Y-105927803D01*
X162995587Y-105927803D01*
X162996504Y-105870050D01*
X162997608Y-105821232D01*
X162998884Y-105781923D01*
X163000347Y-105751031D01*
X163002007Y-105727459D01*
X163003878Y-105710114D01*
X163005972Y-105697901D01*
X163008300Y-105689725D01*
X163010876Y-105684492D01*
X163014445Y-105678496D01*
X163017978Y-105671721D01*
X163021488Y-105665522D01*
X163025918Y-105659874D01*
X163032208Y-105654753D01*
X163041301Y-105650131D01*
X163054139Y-105645985D01*
X163071662Y-105642287D01*
X163094813Y-105639013D01*
X163124534Y-105636137D01*
X163161765Y-105633633D01*
X163207449Y-105631476D01*
X163262527Y-105629640D01*
X163327941Y-105628100D01*
X163404633Y-105626830D01*
X163493544Y-105625805D01*
X163595617Y-105624999D01*
X163601867Y-105624966D01*
X163711792Y-105624386D01*
X163843011Y-105623941D01*
G37*
X163843011Y-105623941D02*
X163990216Y-105623638D01*
X164154349Y-105623452D01*
X164336352Y-105623358D01*
X164537165Y-105623329D01*
X164757732Y-105623339D01*
X164998992Y-105623364D01*
X165261889Y-105623378D01*
X165304040Y-105623378D01*
X165564668Y-105623354D01*
X165803796Y-105623315D01*
X166022360Y-105623292D01*
X166221295Y-105623313D01*
X166401535Y-105623407D01*
X166564015Y-105623605D01*
X166709670Y-105623937D01*
X166839434Y-105624431D01*
X166954243Y-105625117D01*
X167055030Y-105626024D01*
X167142730Y-105627183D01*
X167218279Y-105628622D01*
X167282611Y-105630371D01*
X167336661Y-105632460D01*
X167381363Y-105634917D01*
X167417652Y-105637773D01*
X167446463Y-105641057D01*
X167468731Y-105644798D01*
X167485390Y-105649026D01*
X167497375Y-105653771D01*
X167505621Y-105659061D01*
X167511062Y-105664927D01*
X167514634Y-105671398D01*
X167517270Y-105678503D01*
X167519906Y-105686272D01*
X167523477Y-105694734D01*
X167525145Y-105699092D01*
X167527111Y-105707605D01*
X167528911Y-105720306D01*
X167530555Y-105738115D01*
X167532047Y-105761951D01*
X167533397Y-105792734D01*
X167534611Y-105831383D01*
X167535697Y-105878818D01*
X167536661Y-105935957D01*
X167537511Y-106003721D01*
X167538253Y-106083029D01*
X167538897Y-106174801D01*
X167539447Y-106279956D01*
X167539913Y-106399413D01*
X167540300Y-106534092D01*
X167540616Y-106684912D01*
X167540869Y-106852794D01*
X167541066Y-107038655D01*
X167541213Y-107243417D01*
X167541318Y-107467998D01*
X167541389Y-107713318D01*
X167541432Y-107980296D01*
X167541437Y-108018679D01*
X167541480Y-108284078D01*
X167541525Y-108527950D01*
X167541548Y-108751217D01*
X167541524Y-108954804D01*
X167541430Y-109139633D01*
X167541243Y-109306627D01*
X167540939Y-109456710D01*
X167540494Y-109590804D01*
X167539885Y-109709834D01*
X167539089Y-109814721D01*
X167538080Y-109906390D01*
X167536837Y-109985763D01*
X167535335Y-110053763D01*
X167533551Y-110111314D01*
X167531461Y-110159338D01*
X167529042Y-110198760D01*
X167526270Y-110230501D01*
X167523121Y-110255486D01*
X167519572Y-110274636D01*
X167515598Y-110288877D01*
X167511178Y-110299129D01*
X167506286Y-110306318D01*
X167500900Y-110311365D01*
X167494996Y-110315195D01*
X167488549Y-110318729D01*
X167481537Y-110322892D01*
X167479687Y-110323975D01*
X167474180Y-110326187D01*
X167465868Y-110328214D01*
X167453809Y-110330062D01*
X167437063Y-110331739D01*
X167414687Y-110333255D01*
X167385740Y-110334617D01*
X167349280Y-110335833D01*
X167304367Y-110336911D01*
X167250057Y-110337860D01*
X167185410Y-110338688D01*
X167109484Y-110339403D01*
X167021338Y-110340013D01*
X166920029Y-110340526D01*
X166804617Y-110340950D01*
X166674160Y-110341294D01*
X166527716Y-110341566D01*
X166364344Y-110341773D01*
X166183101Y-110341924D01*
X165983048Y-110342028D01*
X165763241Y-110342092D01*
X165522739Y-110342124D01*
X165260602Y-110342133D01*
X163069031Y-110342133D01*
X163030649Y-110303751D01*
X163006911Y-110276645D01*
X162995111Y-110249747D01*
X162992267Y-110213440D01*
X162992267Y-110161511D01*
X163080206Y-110161511D01*
X163130102Y-110159573D01*
X163240523Y-110140801D01*
X163341987Y-110103783D01*
X163433152Y-110050631D01*
X163512673Y-109983454D01*
X163579205Y-109904362D01*
X163631406Y-109815466D01*
X163667930Y-109718875D01*
X163687434Y-109616700D01*
X163688561Y-109512147D01*
X164504978Y-109512147D01*
X164504978Y-109957805D01*
X165681845Y-109960880D01*
X166858711Y-109963955D01*
X166917622Y-109990593D01*
X166942183Y-110002515D01*
X166972434Y-110019754D01*
X166989560Y-110032926D01*
X166997591Y-110040924D01*
X167012493Y-110048622D01*
X167013765Y-110044740D01*
X167015791Y-110021480D01*
X167017626Y-109979126D01*
X167019227Y-109919868D01*
X167020549Y-109845893D01*
X167021548Y-109759390D01*
X167022180Y-109662548D01*
X167022400Y-109557555D01*
X167022349Y-109488644D01*
X167022091Y-109390393D01*
X167021637Y-109300970D01*
X167021010Y-109222667D01*
X167020235Y-109157777D01*
X167019335Y-109108589D01*
X167018334Y-109077396D01*
X167017257Y-109066489D01*
X167014037Y-109067678D01*
X166996452Y-109077824D01*
X166970158Y-109094960D01*
X166957691Y-109103460D01*
X166943622Y-109112671D01*
X166929351Y-109120767D01*
X166913479Y-109127815D01*
X166894609Y-109133883D01*
X166871341Y-109139039D01*
X166842278Y-109143349D01*
X166806021Y-109146881D01*
X166761170Y-109149703D01*
X166706328Y-109151882D01*
X166640097Y-109153486D01*
X166561077Y-109154581D01*
X166467871Y-109155235D01*
X166359079Y-109155516D01*
X166233303Y-109155491D01*
X166089145Y-109155228D01*
X165925207Y-109154794D01*
X165740089Y-109154255D01*
X165561232Y-109153721D01*
X165402374Y-109153195D01*
X165263316Y-109152650D01*
X165142665Y-109152055D01*
X165039028Y-109151381D01*
X164951011Y-109150597D01*
X164877223Y-109149674D01*
X164816269Y-109148581D01*
X164766757Y-109147288D01*
X164727293Y-109145765D01*
X164696484Y-109143981D01*
X164672938Y-109141908D01*
X164655260Y-109139514D01*
X164642059Y-109136770D01*
X164631940Y-109133644D01*
X164623511Y-109130108D01*
X164615375Y-109126209D01*
X164578544Y-109106562D01*
X164548391Y-109087775D01*
X164546908Y-109086728D01*
X164524659Y-109072398D01*
X164511702Y-109066489D01*
X164511249Y-109067496D01*
X164509803Y-109084695D01*
X164508480Y-109121344D01*
X164507316Y-109175038D01*
X164506347Y-109243370D01*
X164505611Y-109323936D01*
X164505142Y-109414330D01*
X164504978Y-109512147D01*
X163688561Y-109512147D01*
X163688573Y-109511050D01*
X163670005Y-109404036D01*
X163630384Y-109297768D01*
X163572516Y-109200781D01*
X163497684Y-109115707D01*
X163409615Y-109046985D01*
X163310616Y-108996082D01*
X163202993Y-108964465D01*
X163089054Y-108953600D01*
X162992267Y-108953600D01*
X162992267Y-107333247D01*
X162992280Y-107122103D01*
X162992330Y-106917980D01*
X162992430Y-106734314D01*
X162992592Y-106570009D01*
X162992829Y-106423971D01*
X162993153Y-106295106D01*
X162993575Y-106182317D01*
X162994109Y-106084512D01*
X162994767Y-106000596D01*
X162995561Y-105929473D01*
X162995587Y-105927803D01*
X163601867Y-105927803D01*
X163601867Y-106987686D01*
X163664966Y-106949689D01*
X163690005Y-106935007D01*
X163717586Y-106920469D01*
X163745700Y-106908373D01*
X163776551Y-106898468D01*
X163812344Y-106890506D01*
X163855283Y-106884239D01*
X163907574Y-106879418D01*
X163971419Y-106875794D01*
X164049025Y-106873119D01*
X164142594Y-106871143D01*
X164254333Y-106869618D01*
X164386445Y-106868296D01*
X164506434Y-106867387D01*
X164623063Y-106866980D01*
X164718531Y-106867233D01*
X164792556Y-106868143D01*
X164844855Y-106869707D01*
X164875149Y-106871921D01*
X164883156Y-106874780D01*
X164879858Y-106877839D01*
X164858408Y-106895994D01*
X164821889Y-106925725D01*
X164772442Y-106965361D01*
X164712207Y-107013229D01*
X164643327Y-107067657D01*
X164567943Y-107126973D01*
X164488196Y-107189505D01*
X164406228Y-107253579D01*
X164324180Y-107317525D01*
X164244194Y-107379669D01*
X164168411Y-107438339D01*
X164098973Y-107491863D01*
X164038021Y-107538570D01*
X163987696Y-107576786D01*
X163950140Y-107604839D01*
X163927495Y-107621057D01*
X163855212Y-107666365D01*
X163775463Y-107706339D01*
X163707188Y-107727870D01*
X163649844Y-107731173D01*
X163601867Y-107725884D01*
X163602117Y-108857644D01*
X163632722Y-108818133D01*
X163640089Y-108808752D01*
X163694438Y-108745817D01*
X163762259Y-108677003D01*
X163845516Y-108600404D01*
X163946178Y-108514112D01*
X163966847Y-108496948D01*
X164016409Y-108456167D01*
X164077326Y-108406412D01*
X164147898Y-108349045D01*
X164226424Y-108285431D01*
X164311204Y-108216931D01*
X164400537Y-108144910D01*
X164492722Y-108070730D01*
X164511702Y-108055483D01*
X164586060Y-107995754D01*
X164678848Y-107921347D01*
X164769388Y-107848869D01*
X164855978Y-107779686D01*
X164936918Y-107715159D01*
X165010506Y-107656653D01*
X165075044Y-107605530D01*
X165128829Y-107563153D01*
X165170162Y-107530885D01*
X165197342Y-107510090D01*
X165208668Y-107502131D01*
X165212771Y-107503889D01*
X165233334Y-107516770D01*
X165269561Y-107541115D01*
X165319824Y-107575753D01*
X165382492Y-107619514D01*
X165455936Y-107671225D01*
X165538527Y-107729716D01*
X165628636Y-107793816D01*
X165724631Y-107862354D01*
X165824885Y-107934157D01*
X165927768Y-108008056D01*
X166031650Y-108082879D01*
X166134901Y-108157455D01*
X166235892Y-108230613D01*
X166332994Y-108301181D01*
X166424577Y-108367989D01*
X166509011Y-108429865D01*
X166584667Y-108485639D01*
X166649916Y-108534138D01*
X166703128Y-108574193D01*
X166742673Y-108604631D01*
X166768026Y-108625056D01*
X166822295Y-108671101D01*
X166878775Y-108721388D01*
X166928669Y-108768185D01*
X167022400Y-108859349D01*
X167022400Y-107704910D01*
X166946200Y-107705544D01*
X166904160Y-107704426D01*
X166868334Y-107698696D01*
X166830772Y-107686110D01*
X166782577Y-107664432D01*
X166775897Y-107661211D01*
X166726359Y-107635812D01*
X166678369Y-107609004D01*
X166641466Y-107586083D01*
X166634834Y-107581515D01*
X166603593Y-107559484D01*
X166558654Y-107527307D01*
X166502147Y-107486543D01*
X166436204Y-107438755D01*
X166362957Y-107385502D01*
X166284536Y-107328345D01*
X166203072Y-107268845D01*
X166120698Y-107208563D01*
X166039544Y-107149060D01*
X165961742Y-107091895D01*
X165889423Y-107038630D01*
X165824718Y-106990826D01*
X165769759Y-106950043D01*
X165726676Y-106917842D01*
X165697602Y-106895784D01*
X165684667Y-106885429D01*
X165680351Y-106880956D01*
X165678312Y-106876764D01*
X165680926Y-106873357D01*
X165689986Y-106870675D01*
X165707285Y-106868659D01*
X165734614Y-106867252D01*
X165773765Y-106866395D01*
X165826533Y-106866030D01*
X165894707Y-106866097D01*
X165980082Y-106866540D01*
X166084449Y-106867298D01*
X166209600Y-106868315D01*
X166254300Y-106868692D01*
X166375395Y-106869831D01*
X166476688Y-106871028D01*
X166560262Y-106872364D01*
X166628204Y-106873923D01*
X166682599Y-106875785D01*
X166725532Y-106878034D01*
X166759089Y-106880752D01*
X166785355Y-106884021D01*
X166806416Y-106887922D01*
X166824357Y-106892539D01*
X166850770Y-106900808D01*
X166912772Y-106924417D01*
X166965573Y-106950315D01*
X167002645Y-106975465D01*
X167004075Y-106976661D01*
X167008424Y-106978832D01*
X167012026Y-106976672D01*
X167014951Y-106968356D01*
X167017269Y-106952060D01*
X167019051Y-106925959D01*
X167020367Y-106888229D01*
X167021286Y-106837044D01*
X167021878Y-106770580D01*
X167022215Y-106687013D01*
X167022365Y-106584517D01*
X167022400Y-106461268D01*
X167022400Y-105929704D01*
X166964783Y-105968477D01*
X166955893Y-105974568D01*
X166941069Y-105985024D01*
X166927422Y-105994421D01*
X166913765Y-106002817D01*
X166898911Y-106010267D01*
X166881670Y-106016827D01*
X166860855Y-106022554D01*
X166835280Y-106027505D01*
X166803755Y-106031734D01*
X166765093Y-106035299D01*
X166718107Y-106038256D01*
X166661608Y-106040660D01*
X166594409Y-106042569D01*
X166515322Y-106044038D01*
X166423160Y-106045124D01*
X166316734Y-106045882D01*
X166194857Y-106046370D01*
X166056341Y-106046642D01*
X165899999Y-106046757D01*
X165724642Y-106046769D01*
X165529082Y-106046735D01*
X165312133Y-106046711D01*
X165189513Y-106046720D01*
X164984447Y-106046757D01*
X164800116Y-106046773D01*
X164635334Y-106046712D01*
X164488916Y-106046516D01*
X164359674Y-106046130D01*
X164246422Y-106045495D01*
X164147975Y-106044556D01*
X164063144Y-106043255D01*
X163990744Y-106041536D01*
X163929589Y-106039341D01*
X163878492Y-106036615D01*
X163836267Y-106033299D01*
X163801727Y-106029338D01*
X163773686Y-106024675D01*
X163750958Y-106019253D01*
X163732356Y-106013014D01*
X163716693Y-106005903D01*
X163702784Y-105997862D01*
X163689441Y-105988834D01*
X163675479Y-105978764D01*
X163659711Y-105967593D01*
X163601867Y-105927803D01*
X162995587Y-105927803D01*
X162996504Y-105870050D01*
X162997608Y-105821232D01*
X162998884Y-105781923D01*
X163000347Y-105751031D01*
X163002007Y-105727459D01*
X163003878Y-105710114D01*
X163005972Y-105697901D01*
X163008300Y-105689725D01*
X163010876Y-105684492D01*
X163014445Y-105678496D01*
X163017978Y-105671721D01*
X163021488Y-105665522D01*
X163025918Y-105659874D01*
X163032208Y-105654753D01*
X163041301Y-105650131D01*
X163054139Y-105645985D01*
X163071662Y-105642287D01*
X163094813Y-105639013D01*
X163124534Y-105636137D01*
X163161765Y-105633633D01*
X163207449Y-105631476D01*
X163262527Y-105629640D01*
X163327941Y-105628100D01*
X163404633Y-105626830D01*
X163493544Y-105625805D01*
X163595617Y-105624999D01*
X163601867Y-105624966D01*
X163711792Y-105624386D01*
X163843011Y-105623941D01*
G36*
X150836333Y-94041000D02*
G01*
X150841082Y-94035974D01*
X150842378Y-94035504D01*
X150836333Y-94041000D01*
G37*
X150836333Y-94041000D02*
X150841082Y-94035974D01*
X150842378Y-94035504D01*
X150836333Y-94041000D01*
G36*
X151009005Y-93904632D02*
G01*
X151003449Y-93910474D01*
X150931524Y-93979279D01*
X150871950Y-94024784D01*
X150842378Y-94035504D01*
X150991556Y-93899889D01*
X151146778Y-93758778D01*
X151009005Y-93904632D01*
G37*
X151009005Y-93904632D02*
X151003449Y-93910474D01*
X150931524Y-93979279D01*
X150871950Y-94024784D01*
X150842378Y-94035504D01*
X150991556Y-93899889D01*
X151146778Y-93758778D01*
X151009005Y-93904632D01*
G36*
X150580747Y-90577102D02*
G01*
X150620123Y-90572274D01*
X150705049Y-90543947D01*
X150831125Y-90493858D01*
X150993946Y-90423748D01*
X151189111Y-90335355D01*
X151201729Y-90329580D01*
X151395944Y-90257120D01*
X151570111Y-90226301D01*
X151663114Y-90215705D01*
X151801484Y-90190586D01*
X151930725Y-90158466D01*
X152122005Y-90101902D01*
X152290558Y-90231600D01*
X152374308Y-90298918D01*
X152427839Y-90352872D01*
X152452898Y-90400064D01*
X152459111Y-90453147D01*
X152458735Y-90465543D01*
X152427100Y-90564275D01*
X152352415Y-90645524D01*
X152245790Y-90703041D01*
X152118334Y-90730580D01*
X151981156Y-90721896D01*
X151949111Y-90718241D01*
X151835634Y-90730494D01*
X151684768Y-90772871D01*
X151502689Y-90843409D01*
X151295569Y-90940142D01*
X151126731Y-91049257D01*
X150963499Y-91210450D01*
X150836346Y-91402197D01*
X150830497Y-91414555D01*
X150801766Y-91493519D01*
X150768860Y-91604345D01*
X150736773Y-91728079D01*
X150710501Y-91845764D01*
X150695038Y-91938445D01*
X150690106Y-91965141D01*
X150669550Y-92045243D01*
X150637648Y-92154232D01*
X150598847Y-92276486D01*
X150575025Y-92351540D01*
X150544688Y-92458009D01*
X150526364Y-92537573D01*
X150523365Y-92577045D01*
X150540543Y-92589295D01*
X150604438Y-92600060D01*
X150702717Y-92602000D01*
X150822616Y-92595531D01*
X150951373Y-92581069D01*
X151076222Y-92559029D01*
X151139389Y-92545410D01*
X151275379Y-92516871D01*
X151368042Y-92499241D01*
X151425894Y-92491221D01*
X151457450Y-92491513D01*
X151471225Y-92498820D01*
X151485967Y-92508196D01*
X151543594Y-92530080D01*
X151626556Y-92554140D01*
X151707726Y-92582714D01*
X151822499Y-92638139D01*
X151929945Y-92703642D01*
X151937957Y-92709216D01*
X152015983Y-92761220D01*
X152071243Y-92794002D01*
X152092222Y-92800676D01*
X152092351Y-92800104D01*
X152113710Y-92812394D01*
X152164548Y-92854795D01*
X152234627Y-92918818D01*
X152237532Y-92921556D01*
X152310770Y-92987745D01*
X152367947Y-93034379D01*
X152396905Y-93051515D01*
X152416640Y-93061866D01*
X152467023Y-93102772D01*
X152532950Y-93164404D01*
X152579090Y-93209324D01*
X152662611Y-93288371D01*
X152730505Y-93350042D01*
X152746574Y-93364469D01*
X152822954Y-93439450D01*
X152896556Y-93519375D01*
X152925432Y-93553769D01*
X152952318Y-93593878D01*
X152968521Y-93639460D01*
X152976524Y-93703258D01*
X152978812Y-93798012D01*
X152977868Y-93936463D01*
X152977340Y-93981593D01*
X152974420Y-94108195D01*
X152968195Y-94193863D01*
X152956503Y-94250668D01*
X152937180Y-94290688D01*
X152908061Y-94325996D01*
X152871525Y-94358018D01*
X152801868Y-94381752D01*
X152717242Y-94362768D01*
X152607720Y-94300214D01*
X152606004Y-94299053D01*
X152542806Y-94250481D01*
X152505176Y-94199622D01*
X152484388Y-94128424D01*
X152471718Y-94018837D01*
X152469698Y-93997359D01*
X152457620Y-93929970D01*
X152431337Y-93874052D01*
X152381151Y-93813711D01*
X152297366Y-93733051D01*
X152278472Y-93715666D01*
X152201624Y-93647249D01*
X152142770Y-93598428D01*
X152113389Y-93578826D01*
X152090005Y-93568162D01*
X152045955Y-93531229D01*
X152009176Y-93487355D01*
X151998712Y-93456805D01*
X151995814Y-93437738D01*
X151955937Y-93409386D01*
X151889424Y-93386920D01*
X151813693Y-93377778D01*
X151747847Y-93382021D01*
X151677107Y-93400594D01*
X151599397Y-93439487D01*
X151503162Y-93504630D01*
X151376847Y-93601954D01*
X151315535Y-93649423D01*
X151229880Y-93711059D01*
X151166691Y-93750615D01*
X151136474Y-93761131D01*
X151135077Y-93760596D01*
X151103038Y-93776408D01*
X151045935Y-93824032D01*
X150975135Y-93894101D01*
X150841082Y-94035974D01*
X150837138Y-94037404D01*
X150813627Y-94036735D01*
X150769430Y-94064822D01*
X150738699Y-94088512D01*
X150666396Y-94127176D01*
X150574408Y-94166314D01*
X150499778Y-94194352D01*
X150422569Y-94226600D01*
X150368251Y-94260843D01*
X150332701Y-94306152D01*
X150311797Y-94371597D01*
X150301418Y-94466246D01*
X150297440Y-94599171D01*
X150295741Y-94779440D01*
X150294382Y-94897106D01*
X150290222Y-95087148D01*
X150283057Y-95237079D01*
X150271719Y-95357650D01*
X150255037Y-95459617D01*
X150231841Y-95553732D01*
X150200962Y-95650748D01*
X150193625Y-95672291D01*
X150170111Y-95752202D01*
X150162115Y-95819474D01*
X150168936Y-95896596D01*
X150189870Y-96006056D01*
X150215863Y-96117062D01*
X150247165Y-96228555D01*
X150275467Y-96309441D01*
X150281278Y-96323388D01*
X150310682Y-96405149D01*
X150326551Y-96468111D01*
X150326567Y-96468229D01*
X150338018Y-96535717D01*
X150355086Y-96618644D01*
X150371577Y-96675662D01*
X150398651Y-96700464D01*
X150450440Y-96694097D01*
X150512289Y-96683593D01*
X150611283Y-96672810D01*
X150723212Y-96664654D01*
X150823031Y-96656175D01*
X150974713Y-96635819D01*
X151109428Y-96610316D01*
X151207846Y-96590891D01*
X151291498Y-96580763D01*
X151338958Y-96582843D01*
X151356260Y-96584139D01*
X151422090Y-96573291D01*
X151519250Y-96547891D01*
X151633631Y-96511361D01*
X151669213Y-96499179D01*
X151776434Y-96465537D01*
X151872724Y-96442808D01*
X151974927Y-96428398D01*
X152099885Y-96419711D01*
X152264441Y-96414150D01*
X152642418Y-96404476D01*
X152730340Y-96497701D01*
X152743760Y-96511977D01*
X152779901Y-96554262D01*
X152801124Y-96595177D01*
X152810488Y-96649158D01*
X152811056Y-96730645D01*
X152805887Y-96854074D01*
X152803204Y-96906957D01*
X152794707Y-97018027D01*
X152782173Y-97090171D01*
X152762636Y-97136217D01*
X152733135Y-97168991D01*
X152732757Y-97169314D01*
X152663722Y-97205529D01*
X152572990Y-97204306D01*
X152564154Y-97202853D01*
X152488456Y-97190685D01*
X152438482Y-97183112D01*
X152425910Y-97176041D01*
X152391762Y-97129901D01*
X152357037Y-97056074D01*
X152352789Y-97045072D01*
X152319092Y-96973776D01*
X152282694Y-96941411D01*
X152228694Y-96933778D01*
X152200460Y-96936836D01*
X152109072Y-96964432D01*
X151990773Y-97015707D01*
X151858912Y-97084516D01*
X151726839Y-97164716D01*
X151699496Y-97181643D01*
X151658826Y-97200003D01*
X151653854Y-97189273D01*
X151647574Y-97184804D01*
X151602514Y-97200426D01*
X151523821Y-97236014D01*
X151420175Y-97287058D01*
X151300261Y-97349049D01*
X151172761Y-97417478D01*
X151046357Y-97487837D01*
X150929732Y-97555616D01*
X150831568Y-97616305D01*
X150741390Y-97681741D01*
X150643450Y-97769155D01*
X150575259Y-97849230D01*
X150556892Y-97877716D01*
X150525202Y-97937618D01*
X150507825Y-98000248D01*
X150501035Y-98083483D01*
X150501111Y-98205197D01*
X150498803Y-98349261D01*
X150484537Y-98461215D01*
X150456251Y-98545670D01*
X150435582Y-98590699D01*
X150423147Y-98639943D01*
X150438110Y-98684709D01*
X150483811Y-98749734D01*
X150507821Y-98779902D01*
X150552330Y-98824275D01*
X150578177Y-98833527D01*
X150587231Y-98830026D01*
X150596445Y-98857216D01*
X150596445Y-98857293D01*
X150616599Y-98909834D01*
X150667295Y-98980690D01*
X150734149Y-99054072D01*
X150802781Y-99114191D01*
X150858807Y-99145258D01*
X150873457Y-99151046D01*
X150936750Y-99196044D01*
X151025724Y-99278058D01*
X151134373Y-99390948D01*
X151256689Y-99528575D01*
X151386667Y-99684797D01*
X151453585Y-99766542D01*
X151549059Y-99880381D01*
X151633611Y-99978471D01*
X151690623Y-100046609D01*
X151736115Y-100108461D01*
X151753556Y-100142887D01*
X151768295Y-100171327D01*
X151813462Y-100228626D01*
X151878447Y-100299643D01*
X151937054Y-100363058D01*
X151979420Y-100415685D01*
X151991000Y-100440482D01*
X151990697Y-100440902D01*
X152004707Y-100467164D01*
X152049547Y-100520982D01*
X152116005Y-100591243D01*
X152186684Y-100665472D01*
X152240056Y-100727119D01*
X152264507Y-100762778D01*
X152281908Y-100790725D01*
X152329352Y-100849676D01*
X152394138Y-100921826D01*
X152447394Y-100982119D01*
X152487617Y-101036440D01*
X152497122Y-101063248D01*
X152495517Y-101073835D01*
X152510965Y-101122547D01*
X152545949Y-101193162D01*
X152567419Y-101229440D01*
X152603280Y-101280399D01*
X152623108Y-101294744D01*
X152633299Y-101297798D01*
X152669062Y-101333103D01*
X152718409Y-101395724D01*
X152744778Y-101434061D01*
X152780646Y-101504629D01*
X152798448Y-101584908D01*
X152804834Y-101698164D01*
X152805216Y-101793829D01*
X152792192Y-101979062D01*
X152758433Y-102115421D01*
X152702347Y-102206030D01*
X152622338Y-102254010D01*
X152516813Y-102262485D01*
X152430053Y-102245400D01*
X152368992Y-102202246D01*
X152335282Y-102123851D01*
X152321560Y-102000328D01*
X152315473Y-101928573D01*
X152295937Y-101817338D01*
X152269307Y-101732217D01*
X152241010Y-101676995D01*
X152184061Y-101591351D01*
X152126595Y-101529411D01*
X152080247Y-101505151D01*
X152050953Y-101488010D01*
X151996054Y-101438219D01*
X151929569Y-101367308D01*
X151867851Y-101303210D01*
X151788860Y-101235242D01*
X151725316Y-101195326D01*
X151718973Y-101192617D01*
X151668420Y-101162684D01*
X151655361Y-101137946D01*
X151656432Y-101132314D01*
X151634861Y-101096720D01*
X151583071Y-101049499D01*
X151521892Y-101000744D01*
X151434104Y-100927825D01*
X151342659Y-100849611D01*
X151336125Y-100843957D01*
X151255991Y-100779052D01*
X151189973Y-100733037D01*
X151151801Y-100715556D01*
X151114887Y-100703433D01*
X151060377Y-100665021D01*
X151026894Y-100640666D01*
X150948951Y-100593501D01*
X150843461Y-100535063D01*
X150723445Y-100472781D01*
X150441222Y-100331076D01*
X150116667Y-100324058D01*
X150037098Y-100322055D01*
X149844895Y-100315695D01*
X149644255Y-100307441D01*
X149467556Y-100298565D01*
X149418560Y-100295803D01*
X149226091Y-100285994D01*
X149078083Y-100281391D01*
X148964837Y-100282789D01*
X148876651Y-100290984D01*
X148803825Y-100306771D01*
X148736658Y-100330944D01*
X148665448Y-100364299D01*
X148606168Y-100396187D01*
X148408977Y-100534427D01*
X148232995Y-100705731D01*
X148095838Y-100893723D01*
X148077344Y-100925704D01*
X148033244Y-101011324D01*
X148007113Y-101089044D01*
X147993241Y-101180308D01*
X147985917Y-101306564D01*
X147984149Y-101346111D01*
X147976917Y-101457144D01*
X147967993Y-101543956D01*
X147958909Y-101590445D01*
X147954577Y-101597562D01*
X147912552Y-101638354D01*
X147838617Y-101695693D01*
X147745457Y-101759531D01*
X147709623Y-101782127D01*
X147575308Y-101851514D01*
X147547741Y-101857852D01*
X147534333Y-101844445D01*
X147520222Y-101858556D01*
X147524794Y-101863128D01*
X147458869Y-101878285D01*
X147348315Y-101861157D01*
X147231652Y-101798843D01*
X147096889Y-101690060D01*
X147043313Y-101645306D01*
X146938573Y-101569331D01*
X146842889Y-101511862D01*
X146773645Y-101470912D01*
X146691702Y-101413760D01*
X146609791Y-101350416D01*
X146539579Y-101290353D01*
X146492734Y-101243046D01*
X146480923Y-101217966D01*
X146482665Y-101214063D01*
X146474819Y-101174953D01*
X146448797Y-101114034D01*
X146414348Y-101049874D01*
X146381223Y-101001040D01*
X146359172Y-100986101D01*
X146344761Y-100984186D01*
X146334889Y-100946018D01*
X146332756Y-100920657D01*
X146315273Y-100891285D01*
X146271752Y-100876755D01*
X146192239Y-100874722D01*
X146066778Y-100882841D01*
X145948644Y-100891070D01*
X145843790Y-100892710D01*
X145781731Y-100883347D01*
X145755220Y-100861658D01*
X145757007Y-100826321D01*
X145761026Y-100788703D01*
X145730013Y-100772000D01*
X145708730Y-100768201D01*
X145685778Y-100741406D01*
X145694256Y-100725731D01*
X145735863Y-100673666D01*
X145806235Y-100593989D01*
X145898733Y-100494144D01*
X146006719Y-100381573D01*
X146086566Y-100298395D01*
X146230727Y-100138653D01*
X146330541Y-100011853D01*
X146386549Y-99917335D01*
X146407805Y-99864046D01*
X146421604Y-99813405D01*
X146414184Y-99801653D01*
X146399447Y-99805346D01*
X146404872Y-99778821D01*
X146435290Y-99723391D01*
X146484772Y-99647947D01*
X146547392Y-99561380D01*
X146617221Y-99472583D01*
X146688331Y-99390447D01*
X146736037Y-99338238D01*
X146881361Y-99172784D01*
X146994321Y-99031455D01*
X147082750Y-98903996D01*
X147154481Y-98780152D01*
X147161390Y-98766985D01*
X147197843Y-98693176D01*
X147219415Y-98631530D01*
X147228756Y-98564937D01*
X147228516Y-98476284D01*
X147221345Y-98348461D01*
X147217522Y-98295433D01*
X147203911Y-98156134D01*
X147186985Y-98028808D01*
X147169533Y-97935667D01*
X147159820Y-97891085D01*
X147139547Y-97763245D01*
X147128429Y-97641042D01*
X147124452Y-97580154D01*
X147114571Y-97501000D01*
X147102686Y-97457597D01*
X147093065Y-97422993D01*
X147083389Y-97346451D01*
X147077263Y-97248160D01*
X147071836Y-97163172D01*
X147058817Y-97056706D01*
X147042289Y-96980048D01*
X147026821Y-96914579D01*
X147010265Y-96810163D01*
X146997989Y-96695808D01*
X146997929Y-96695052D01*
X146986553Y-96592588D01*
X146971767Y-96511501D01*
X146956753Y-96469287D01*
X146953816Y-96464491D01*
X146939577Y-96412914D01*
X146925896Y-96324460D01*
X146915378Y-96215126D01*
X146913273Y-96187712D01*
X146902115Y-96085272D01*
X146888723Y-96009791D01*
X146875547Y-95975981D01*
X146866155Y-95959106D01*
X146853581Y-95898065D01*
X146846639Y-95811460D01*
X146841398Y-95735563D01*
X146825482Y-95605776D01*
X146803684Y-95480889D01*
X146786552Y-95389535D01*
X146777153Y-95318214D01*
X146778294Y-95286225D01*
X146779638Y-95282831D01*
X146779501Y-95239049D01*
X146771657Y-95157470D01*
X146757381Y-95052352D01*
X146750810Y-95002037D01*
X146738243Y-94851853D01*
X146729512Y-94666186D01*
X146724617Y-94458151D01*
X146723555Y-94240861D01*
X146726324Y-94027429D01*
X146732923Y-93830971D01*
X146743349Y-93664599D01*
X146757601Y-93541428D01*
X146760485Y-93523599D01*
X146774905Y-93413061D01*
X146781440Y-93321235D01*
X146778682Y-93266475D01*
X146776008Y-93243562D01*
X146782567Y-93167406D01*
X146803254Y-93077172D01*
X146811825Y-93047350D01*
X146841209Y-92873184D01*
X146825607Y-92717402D01*
X146763861Y-92564949D01*
X146753865Y-92547617D01*
X146701819Y-92469974D01*
X146631191Y-92376149D01*
X146550683Y-92276394D01*
X146468997Y-92180960D01*
X146394837Y-92100101D01*
X146336905Y-92044067D01*
X146303904Y-92023111D01*
X146282820Y-92015649D01*
X146224247Y-91985303D01*
X146146264Y-91939565D01*
X146090352Y-91907346D01*
X146003517Y-91864661D01*
X145939778Y-91842125D01*
X145900084Y-91832404D01*
X145812689Y-91806454D01*
X145714000Y-91773585D01*
X145491331Y-91704122D01*
X145118064Y-91629324D01*
X144754445Y-91610066D01*
X144664846Y-91613526D01*
X144545362Y-91622496D01*
X144452698Y-91634673D01*
X144401667Y-91648447D01*
X144306753Y-91699176D01*
X144207964Y-91747844D01*
X144127588Y-91783271D01*
X144076031Y-91800908D01*
X144063697Y-91796206D01*
X144064678Y-91794594D01*
X144069072Y-91773756D01*
X144042813Y-91783639D01*
X143996231Y-91816905D01*
X143939658Y-91866217D01*
X143883426Y-91924237D01*
X143855601Y-91956567D01*
X143807451Y-92018925D01*
X143796909Y-92046159D01*
X143825190Y-92035938D01*
X143831853Y-92035653D01*
X143826589Y-92065977D01*
X143799324Y-92127307D01*
X143740512Y-92274627D01*
X143715887Y-92414411D01*
X143727124Y-92533481D01*
X143774767Y-92620860D01*
X143808853Y-92660291D01*
X143868126Y-92740203D01*
X143928502Y-92830828D01*
X143977949Y-92913830D01*
X144004437Y-92970876D01*
X144007957Y-92989331D01*
X143988952Y-93052153D01*
X143925668Y-93101541D01*
X143868896Y-93120327D01*
X143879556Y-93109667D01*
X143865445Y-93095556D01*
X143851333Y-93109667D01*
X143863710Y-93122043D01*
X143827129Y-93134148D01*
X143702358Y-93146626D01*
X143560377Y-93135627D01*
X143516528Y-93122557D01*
X143419235Y-93066092D01*
X143315226Y-92979116D01*
X143217261Y-92874453D01*
X143138102Y-92764930D01*
X143090507Y-92663371D01*
X143082365Y-92636619D01*
X143054620Y-92554535D01*
X143031874Y-92498995D01*
X143029843Y-92493551D01*
X143026385Y-92436917D01*
X143033014Y-92343277D01*
X143047579Y-92227693D01*
X143067930Y-92105230D01*
X143091916Y-91990953D01*
X143117387Y-91899925D01*
X143132584Y-91836546D01*
X143130492Y-91795433D01*
X143128722Y-91782478D01*
X143145638Y-91727115D01*
X143185004Y-91645330D01*
X143239497Y-91550323D01*
X143301794Y-91455295D01*
X143364573Y-91373448D01*
X143396765Y-91340683D01*
X143464125Y-91283211D01*
X143549112Y-91217940D01*
X143642776Y-91150847D01*
X143736165Y-91087909D01*
X143820331Y-91035103D01*
X143886321Y-90998405D01*
X143925186Y-90983792D01*
X143927975Y-90997240D01*
X143927643Y-90998115D01*
X143951574Y-90997292D01*
X144018335Y-90980918D01*
X144118356Y-90951593D01*
X144242069Y-90911915D01*
X144287333Y-90896955D01*
X144423269Y-90854256D01*
X144530125Y-90826898D01*
X144626619Y-90811644D01*
X144731470Y-90805260D01*
X144863398Y-90804508D01*
X144908267Y-90805232D01*
X145067644Y-90813728D01*
X145217281Y-90829776D01*
X145333865Y-90851068D01*
X145422397Y-90871720D01*
X145497695Y-90886091D01*
X145535356Y-90889097D01*
X145563539Y-90892809D01*
X145631324Y-90912524D01*
X145720247Y-90944091D01*
X145794439Y-90971227D01*
X145885080Y-91001268D01*
X145946025Y-91017723D01*
X145985920Y-91029453D01*
X146068053Y-91062251D01*
X146161347Y-91106003D01*
X146168398Y-91109557D01*
X146275828Y-91160444D01*
X146354957Y-91189129D01*
X146424595Y-91202507D01*
X146440004Y-91208950D01*
X146481040Y-91241001D01*
X146486274Y-91245791D01*
X146532315Y-91280688D01*
X146598324Y-91325164D01*
X146667736Y-91368748D01*
X146723990Y-91400969D01*
X146750520Y-91411358D01*
X146761590Y-91408840D01*
X146802864Y-91417985D01*
X146844009Y-91438237D01*
X146857587Y-91457718D01*
X146870413Y-91477203D01*
X146922272Y-91513838D01*
X147001746Y-91558033D01*
X147075279Y-91596837D01*
X147149854Y-91640052D01*
X147191342Y-91669080D01*
X147235907Y-91704650D01*
X147299041Y-91746468D01*
X147364121Y-91784614D01*
X147415007Y-91809635D01*
X147435556Y-91812081D01*
X147439782Y-91806195D01*
X147470833Y-91816276D01*
X147485347Y-91823252D01*
X147563984Y-91836861D01*
X147677645Y-91836789D01*
X147811593Y-91824733D01*
X147951093Y-91802393D01*
X148081411Y-91771465D01*
X148187809Y-91733650D01*
X148230824Y-91719641D01*
X148272476Y-91720569D01*
X148280190Y-91722809D01*
X148333392Y-91720833D01*
X148434639Y-91706246D01*
X148586170Y-91678690D01*
X148790222Y-91637806D01*
X148825239Y-91632251D01*
X148914169Y-91623206D01*
X149016000Y-91616942D01*
X149038233Y-91615786D01*
X149160047Y-91598580D01*
X149277329Y-91559928D01*
X149397733Y-91495070D01*
X149528915Y-91399245D01*
X149678529Y-91267692D01*
X149854231Y-91095651D01*
X149953251Y-90996605D01*
X150086036Y-90870125D01*
X150196015Y-90775409D01*
X150291517Y-90705462D01*
X150380867Y-90653288D01*
X150392247Y-90647506D01*
X150481340Y-90605704D01*
X150501836Y-90597889D01*
X150540000Y-90597889D01*
X150554111Y-90612000D01*
X150568222Y-90597889D01*
X150554111Y-90583778D01*
X150540000Y-90597889D01*
X150501836Y-90597889D01*
X150548333Y-90580161D01*
X150554111Y-90579428D01*
X150579474Y-90576214D01*
X150580747Y-90577102D01*
G37*
X150580747Y-90577102D02*
X150620123Y-90572274D01*
X150705049Y-90543947D01*
X150831125Y-90493858D01*
X150993946Y-90423748D01*
X151189111Y-90335355D01*
X151201729Y-90329580D01*
X151395944Y-90257120D01*
X151570111Y-90226301D01*
X151663114Y-90215705D01*
X151801484Y-90190586D01*
X151930725Y-90158466D01*
X152122005Y-90101902D01*
X152290558Y-90231600D01*
X152374308Y-90298918D01*
X152427839Y-90352872D01*
X152452898Y-90400064D01*
X152459111Y-90453147D01*
X152458735Y-90465543D01*
X152427100Y-90564275D01*
X152352415Y-90645524D01*
X152245790Y-90703041D01*
X152118334Y-90730580D01*
X151981156Y-90721896D01*
X151949111Y-90718241D01*
X151835634Y-90730494D01*
X151684768Y-90772871D01*
X151502689Y-90843409D01*
X151295569Y-90940142D01*
X151126731Y-91049257D01*
X150963499Y-91210450D01*
X150836346Y-91402197D01*
X150830497Y-91414555D01*
X150801766Y-91493519D01*
X150768860Y-91604345D01*
X150736773Y-91728079D01*
X150710501Y-91845764D01*
X150695038Y-91938445D01*
X150690106Y-91965141D01*
X150669550Y-92045243D01*
X150637648Y-92154232D01*
X150598847Y-92276486D01*
X150575025Y-92351540D01*
X150544688Y-92458009D01*
X150526364Y-92537573D01*
X150523365Y-92577045D01*
X150540543Y-92589295D01*
X150604438Y-92600060D01*
X150702717Y-92602000D01*
X150822616Y-92595531D01*
X150951373Y-92581069D01*
X151076222Y-92559029D01*
X151139389Y-92545410D01*
X151275379Y-92516871D01*
X151368042Y-92499241D01*
X151425894Y-92491221D01*
X151457450Y-92491513D01*
X151471225Y-92498820D01*
X151485967Y-92508196D01*
X151543594Y-92530080D01*
X151626556Y-92554140D01*
X151707726Y-92582714D01*
X151822499Y-92638139D01*
X151929945Y-92703642D01*
X151937957Y-92709216D01*
X152015983Y-92761220D01*
X152071243Y-92794002D01*
X152092222Y-92800676D01*
X152092351Y-92800104D01*
X152113710Y-92812394D01*
X152164548Y-92854795D01*
X152234627Y-92918818D01*
X152237532Y-92921556D01*
X152310770Y-92987745D01*
X152367947Y-93034379D01*
X152396905Y-93051515D01*
X152416640Y-93061866D01*
X152467023Y-93102772D01*
X152532950Y-93164404D01*
X152579090Y-93209324D01*
X152662611Y-93288371D01*
X152730505Y-93350042D01*
X152746574Y-93364469D01*
X152822954Y-93439450D01*
X152896556Y-93519375D01*
X152925432Y-93553769D01*
X152952318Y-93593878D01*
X152968521Y-93639460D01*
X152976524Y-93703258D01*
X152978812Y-93798012D01*
X152977868Y-93936463D01*
X152977340Y-93981593D01*
X152974420Y-94108195D01*
X152968195Y-94193863D01*
X152956503Y-94250668D01*
X152937180Y-94290688D01*
X152908061Y-94325996D01*
X152871525Y-94358018D01*
X152801868Y-94381752D01*
X152717242Y-94362768D01*
X152607720Y-94300214D01*
X152606004Y-94299053D01*
X152542806Y-94250481D01*
X152505176Y-94199622D01*
X152484388Y-94128424D01*
X152471718Y-94018837D01*
X152469698Y-93997359D01*
X152457620Y-93929970D01*
X152431337Y-93874052D01*
X152381151Y-93813711D01*
X152297366Y-93733051D01*
X152278472Y-93715666D01*
X152201624Y-93647249D01*
X152142770Y-93598428D01*
X152113389Y-93578826D01*
X152090005Y-93568162D01*
X152045955Y-93531229D01*
X152009176Y-93487355D01*
X151998712Y-93456805D01*
X151995814Y-93437738D01*
X151955937Y-93409386D01*
X151889424Y-93386920D01*
X151813693Y-93377778D01*
X151747847Y-93382021D01*
X151677107Y-93400594D01*
X151599397Y-93439487D01*
X151503162Y-93504630D01*
X151376847Y-93601954D01*
X151315535Y-93649423D01*
X151229880Y-93711059D01*
X151166691Y-93750615D01*
X151136474Y-93761131D01*
X151135077Y-93760596D01*
X151103038Y-93776408D01*
X151045935Y-93824032D01*
X150975135Y-93894101D01*
X150841082Y-94035974D01*
X150837138Y-94037404D01*
X150813627Y-94036735D01*
X150769430Y-94064822D01*
X150738699Y-94088512D01*
X150666396Y-94127176D01*
X150574408Y-94166314D01*
X150499778Y-94194352D01*
X150422569Y-94226600D01*
X150368251Y-94260843D01*
X150332701Y-94306152D01*
X150311797Y-94371597D01*
X150301418Y-94466246D01*
X150297440Y-94599171D01*
X150295741Y-94779440D01*
X150294382Y-94897106D01*
X150290222Y-95087148D01*
X150283057Y-95237079D01*
X150271719Y-95357650D01*
X150255037Y-95459617D01*
X150231841Y-95553732D01*
X150200962Y-95650748D01*
X150193625Y-95672291D01*
X150170111Y-95752202D01*
X150162115Y-95819474D01*
X150168936Y-95896596D01*
X150189870Y-96006056D01*
X150215863Y-96117062D01*
X150247165Y-96228555D01*
X150275467Y-96309441D01*
X150281278Y-96323388D01*
X150310682Y-96405149D01*
X150326551Y-96468111D01*
X150326567Y-96468229D01*
X150338018Y-96535717D01*
X150355086Y-96618644D01*
X150371577Y-96675662D01*
X150398651Y-96700464D01*
X150450440Y-96694097D01*
X150512289Y-96683593D01*
X150611283Y-96672810D01*
X150723212Y-96664654D01*
X150823031Y-96656175D01*
X150974713Y-96635819D01*
X151109428Y-96610316D01*
X151207846Y-96590891D01*
X151291498Y-96580763D01*
X151338958Y-96582843D01*
X151356260Y-96584139D01*
X151422090Y-96573291D01*
X151519250Y-96547891D01*
X151633631Y-96511361D01*
X151669213Y-96499179D01*
X151776434Y-96465537D01*
X151872724Y-96442808D01*
X151974927Y-96428398D01*
X152099885Y-96419711D01*
X152264441Y-96414150D01*
X152642418Y-96404476D01*
X152730340Y-96497701D01*
X152743760Y-96511977D01*
X152779901Y-96554262D01*
X152801124Y-96595177D01*
X152810488Y-96649158D01*
X152811056Y-96730645D01*
X152805887Y-96854074D01*
X152803204Y-96906957D01*
X152794707Y-97018027D01*
X152782173Y-97090171D01*
X152762636Y-97136217D01*
X152733135Y-97168991D01*
X152732757Y-97169314D01*
X152663722Y-97205529D01*
X152572990Y-97204306D01*
X152564154Y-97202853D01*
X152488456Y-97190685D01*
X152438482Y-97183112D01*
X152425910Y-97176041D01*
X152391762Y-97129901D01*
X152357037Y-97056074D01*
X152352789Y-97045072D01*
X152319092Y-96973776D01*
X152282694Y-96941411D01*
X152228694Y-96933778D01*
X152200460Y-96936836D01*
X152109072Y-96964432D01*
X151990773Y-97015707D01*
X151858912Y-97084516D01*
X151726839Y-97164716D01*
X151699496Y-97181643D01*
X151658826Y-97200003D01*
X151653854Y-97189273D01*
X151647574Y-97184804D01*
X151602514Y-97200426D01*
X151523821Y-97236014D01*
X151420175Y-97287058D01*
X151300261Y-97349049D01*
X151172761Y-97417478D01*
X151046357Y-97487837D01*
X150929732Y-97555616D01*
X150831568Y-97616305D01*
X150741390Y-97681741D01*
X150643450Y-97769155D01*
X150575259Y-97849230D01*
X150556892Y-97877716D01*
X150525202Y-97937618D01*
X150507825Y-98000248D01*
X150501035Y-98083483D01*
X150501111Y-98205197D01*
X150498803Y-98349261D01*
X150484537Y-98461215D01*
X150456251Y-98545670D01*
X150435582Y-98590699D01*
X150423147Y-98639943D01*
X150438110Y-98684709D01*
X150483811Y-98749734D01*
X150507821Y-98779902D01*
X150552330Y-98824275D01*
X150578177Y-98833527D01*
X150587231Y-98830026D01*
X150596445Y-98857216D01*
X150596445Y-98857293D01*
X150616599Y-98909834D01*
X150667295Y-98980690D01*
X150734149Y-99054072D01*
X150802781Y-99114191D01*
X150858807Y-99145258D01*
X150873457Y-99151046D01*
X150936750Y-99196044D01*
X151025724Y-99278058D01*
X151134373Y-99390948D01*
X151256689Y-99528575D01*
X151386667Y-99684797D01*
X151453585Y-99766542D01*
X151549059Y-99880381D01*
X151633611Y-99978471D01*
X151690623Y-100046609D01*
X151736115Y-100108461D01*
X151753556Y-100142887D01*
X151768295Y-100171327D01*
X151813462Y-100228626D01*
X151878447Y-100299643D01*
X151937054Y-100363058D01*
X151979420Y-100415685D01*
X151991000Y-100440482D01*
X151990697Y-100440902D01*
X152004707Y-100467164D01*
X152049547Y-100520982D01*
X152116005Y-100591243D01*
X152186684Y-100665472D01*
X152240056Y-100727119D01*
X152264507Y-100762778D01*
X152281908Y-100790725D01*
X152329352Y-100849676D01*
X152394138Y-100921826D01*
X152447394Y-100982119D01*
X152487617Y-101036440D01*
X152497122Y-101063248D01*
X152495517Y-101073835D01*
X152510965Y-101122547D01*
X152545949Y-101193162D01*
X152567419Y-101229440D01*
X152603280Y-101280399D01*
X152623108Y-101294744D01*
X152633299Y-101297798D01*
X152669062Y-101333103D01*
X152718409Y-101395724D01*
X152744778Y-101434061D01*
X152780646Y-101504629D01*
X152798448Y-101584908D01*
X152804834Y-101698164D01*
X152805216Y-101793829D01*
X152792192Y-101979062D01*
X152758433Y-102115421D01*
X152702347Y-102206030D01*
X152622338Y-102254010D01*
X152516813Y-102262485D01*
X152430053Y-102245400D01*
X152368992Y-102202246D01*
X152335282Y-102123851D01*
X152321560Y-102000328D01*
X152315473Y-101928573D01*
X152295937Y-101817338D01*
X152269307Y-101732217D01*
X152241010Y-101676995D01*
X152184061Y-101591351D01*
X152126595Y-101529411D01*
X152080247Y-101505151D01*
X152050953Y-101488010D01*
X151996054Y-101438219D01*
X151929569Y-101367308D01*
X151867851Y-101303210D01*
X151788860Y-101235242D01*
X151725316Y-101195326D01*
X151718973Y-101192617D01*
X151668420Y-101162684D01*
X151655361Y-101137946D01*
X151656432Y-101132314D01*
X151634861Y-101096720D01*
X151583071Y-101049499D01*
X151521892Y-101000744D01*
X151434104Y-100927825D01*
X151342659Y-100849611D01*
X151336125Y-100843957D01*
X151255991Y-100779052D01*
X151189973Y-100733037D01*
X151151801Y-100715556D01*
X151114887Y-100703433D01*
X151060377Y-100665021D01*
X151026894Y-100640666D01*
X150948951Y-100593501D01*
X150843461Y-100535063D01*
X150723445Y-100472781D01*
X150441222Y-100331076D01*
X150116667Y-100324058D01*
X150037098Y-100322055D01*
X149844895Y-100315695D01*
X149644255Y-100307441D01*
X149467556Y-100298565D01*
X149418560Y-100295803D01*
X149226091Y-100285994D01*
X149078083Y-100281391D01*
X148964837Y-100282789D01*
X148876651Y-100290984D01*
X148803825Y-100306771D01*
X148736658Y-100330944D01*
X148665448Y-100364299D01*
X148606168Y-100396187D01*
X148408977Y-100534427D01*
X148232995Y-100705731D01*
X148095838Y-100893723D01*
X148077344Y-100925704D01*
X148033244Y-101011324D01*
X148007113Y-101089044D01*
X147993241Y-101180308D01*
X147985917Y-101306564D01*
X147984149Y-101346111D01*
X147976917Y-101457144D01*
X147967993Y-101543956D01*
X147958909Y-101590445D01*
X147954577Y-101597562D01*
X147912552Y-101638354D01*
X147838617Y-101695693D01*
X147745457Y-101759531D01*
X147709623Y-101782127D01*
X147575308Y-101851514D01*
X147547741Y-101857852D01*
X147534333Y-101844445D01*
X147520222Y-101858556D01*
X147524794Y-101863128D01*
X147458869Y-101878285D01*
X147348315Y-101861157D01*
X147231652Y-101798843D01*
X147096889Y-101690060D01*
X147043313Y-101645306D01*
X146938573Y-101569331D01*
X146842889Y-101511862D01*
X146773645Y-101470912D01*
X146691702Y-101413760D01*
X146609791Y-101350416D01*
X146539579Y-101290353D01*
X146492734Y-101243046D01*
X146480923Y-101217966D01*
X146482665Y-101214063D01*
X146474819Y-101174953D01*
X146448797Y-101114034D01*
X146414348Y-101049874D01*
X146381223Y-101001040D01*
X146359172Y-100986101D01*
X146344761Y-100984186D01*
X146334889Y-100946018D01*
X146332756Y-100920657D01*
X146315273Y-100891285D01*
X146271752Y-100876755D01*
X146192239Y-100874722D01*
X146066778Y-100882841D01*
X145948644Y-100891070D01*
X145843790Y-100892710D01*
X145781731Y-100883347D01*
X145755220Y-100861658D01*
X145757007Y-100826321D01*
X145761026Y-100788703D01*
X145730013Y-100772000D01*
X145708730Y-100768201D01*
X145685778Y-100741406D01*
X145694256Y-100725731D01*
X145735863Y-100673666D01*
X145806235Y-100593989D01*
X145898733Y-100494144D01*
X146006719Y-100381573D01*
X146086566Y-100298395D01*
X146230727Y-100138653D01*
X146330541Y-100011853D01*
X146386549Y-99917335D01*
X146407805Y-99864046D01*
X146421604Y-99813405D01*
X146414184Y-99801653D01*
X146399447Y-99805346D01*
X146404872Y-99778821D01*
X146435290Y-99723391D01*
X146484772Y-99647947D01*
X146547392Y-99561380D01*
X146617221Y-99472583D01*
X146688331Y-99390447D01*
X146736037Y-99338238D01*
X146881361Y-99172784D01*
X146994321Y-99031455D01*
X147082750Y-98903996D01*
X147154481Y-98780152D01*
X147161390Y-98766985D01*
X147197843Y-98693176D01*
X147219415Y-98631530D01*
X147228756Y-98564937D01*
X147228516Y-98476284D01*
X147221345Y-98348461D01*
X147217522Y-98295433D01*
X147203911Y-98156134D01*
X147186985Y-98028808D01*
X147169533Y-97935667D01*
X147159820Y-97891085D01*
X147139547Y-97763245D01*
X147128429Y-97641042D01*
X147124452Y-97580154D01*
X147114571Y-97501000D01*
X147102686Y-97457597D01*
X147093065Y-97422993D01*
X147083389Y-97346451D01*
X147077263Y-97248160D01*
X147071836Y-97163172D01*
X147058817Y-97056706D01*
X147042289Y-96980048D01*
X147026821Y-96914579D01*
X147010265Y-96810163D01*
X146997989Y-96695808D01*
X146997929Y-96695052D01*
X146986553Y-96592588D01*
X146971767Y-96511501D01*
X146956753Y-96469287D01*
X146953816Y-96464491D01*
X146939577Y-96412914D01*
X146925896Y-96324460D01*
X146915378Y-96215126D01*
X146913273Y-96187712D01*
X146902115Y-96085272D01*
X146888723Y-96009791D01*
X146875547Y-95975981D01*
X146866155Y-95959106D01*
X146853581Y-95898065D01*
X146846639Y-95811460D01*
X146841398Y-95735563D01*
X146825482Y-95605776D01*
X146803684Y-95480889D01*
X146786552Y-95389535D01*
X146777153Y-95318214D01*
X146778294Y-95286225D01*
X146779638Y-95282831D01*
X146779501Y-95239049D01*
X146771657Y-95157470D01*
X146757381Y-95052352D01*
X146750810Y-95002037D01*
X146738243Y-94851853D01*
X146729512Y-94666186D01*
X146724617Y-94458151D01*
X146723555Y-94240861D01*
X146726324Y-94027429D01*
X146732923Y-93830971D01*
X146743349Y-93664599D01*
X146757601Y-93541428D01*
X146760485Y-93523599D01*
X146774905Y-93413061D01*
X146781440Y-93321235D01*
X146778682Y-93266475D01*
X146776008Y-93243562D01*
X146782567Y-93167406D01*
X146803254Y-93077172D01*
X146811825Y-93047350D01*
X146841209Y-92873184D01*
X146825607Y-92717402D01*
X146763861Y-92564949D01*
X146753865Y-92547617D01*
X146701819Y-92469974D01*
X146631191Y-92376149D01*
X146550683Y-92276394D01*
X146468997Y-92180960D01*
X146394837Y-92100101D01*
X146336905Y-92044067D01*
X146303904Y-92023111D01*
X146282820Y-92015649D01*
X146224247Y-91985303D01*
X146146264Y-91939565D01*
X146090352Y-91907346D01*
X146003517Y-91864661D01*
X145939778Y-91842125D01*
X145900084Y-91832404D01*
X145812689Y-91806454D01*
X145714000Y-91773585D01*
X145491331Y-91704122D01*
X145118064Y-91629324D01*
X144754445Y-91610066D01*
X144664846Y-91613526D01*
X144545362Y-91622496D01*
X144452698Y-91634673D01*
X144401667Y-91648447D01*
X144306753Y-91699176D01*
X144207964Y-91747844D01*
X144127588Y-91783271D01*
X144076031Y-91800908D01*
X144063697Y-91796206D01*
X144064678Y-91794594D01*
X144069072Y-91773756D01*
X144042813Y-91783639D01*
X143996231Y-91816905D01*
X143939658Y-91866217D01*
X143883426Y-91924237D01*
X143855601Y-91956567D01*
X143807451Y-92018925D01*
X143796909Y-92046159D01*
X143825190Y-92035938D01*
X143831853Y-92035653D01*
X143826589Y-92065977D01*
X143799324Y-92127307D01*
X143740512Y-92274627D01*
X143715887Y-92414411D01*
X143727124Y-92533481D01*
X143774767Y-92620860D01*
X143808853Y-92660291D01*
X143868126Y-92740203D01*
X143928502Y-92830828D01*
X143977949Y-92913830D01*
X144004437Y-92970876D01*
X144007957Y-92989331D01*
X143988952Y-93052153D01*
X143925668Y-93101541D01*
X143868896Y-93120327D01*
X143879556Y-93109667D01*
X143865445Y-93095556D01*
X143851333Y-93109667D01*
X143863710Y-93122043D01*
X143827129Y-93134148D01*
X143702358Y-93146626D01*
X143560377Y-93135627D01*
X143516528Y-93122557D01*
X143419235Y-93066092D01*
X143315226Y-92979116D01*
X143217261Y-92874453D01*
X143138102Y-92764930D01*
X143090507Y-92663371D01*
X143082365Y-92636619D01*
X143054620Y-92554535D01*
X143031874Y-92498995D01*
X143029843Y-92493551D01*
X143026385Y-92436917D01*
X143033014Y-92343277D01*
X143047579Y-92227693D01*
X143067930Y-92105230D01*
X143091916Y-91990953D01*
X143117387Y-91899925D01*
X143132584Y-91836546D01*
X143130492Y-91795433D01*
X143128722Y-91782478D01*
X143145638Y-91727115D01*
X143185004Y-91645330D01*
X143239497Y-91550323D01*
X143301794Y-91455295D01*
X143364573Y-91373448D01*
X143396765Y-91340683D01*
X143464125Y-91283211D01*
X143549112Y-91217940D01*
X143642776Y-91150847D01*
X143736165Y-91087909D01*
X143820331Y-91035103D01*
X143886321Y-90998405D01*
X143925186Y-90983792D01*
X143927975Y-90997240D01*
X143927643Y-90998115D01*
X143951574Y-90997292D01*
X144018335Y-90980918D01*
X144118356Y-90951593D01*
X144242069Y-90911915D01*
X144287333Y-90896955D01*
X144423269Y-90854256D01*
X144530125Y-90826898D01*
X144626619Y-90811644D01*
X144731470Y-90805260D01*
X144863398Y-90804508D01*
X144908267Y-90805232D01*
X145067644Y-90813728D01*
X145217281Y-90829776D01*
X145333865Y-90851068D01*
X145422397Y-90871720D01*
X145497695Y-90886091D01*
X145535356Y-90889097D01*
X145563539Y-90892809D01*
X145631324Y-90912524D01*
X145720247Y-90944091D01*
X145794439Y-90971227D01*
X145885080Y-91001268D01*
X145946025Y-91017723D01*
X145985920Y-91029453D01*
X146068053Y-91062251D01*
X146161347Y-91106003D01*
X146168398Y-91109557D01*
X146275828Y-91160444D01*
X146354957Y-91189129D01*
X146424595Y-91202507D01*
X146440004Y-91208950D01*
X146481040Y-91241001D01*
X146486274Y-91245791D01*
X146532315Y-91280688D01*
X146598324Y-91325164D01*
X146667736Y-91368748D01*
X146723990Y-91400969D01*
X146750520Y-91411358D01*
X146761590Y-91408840D01*
X146802864Y-91417985D01*
X146844009Y-91438237D01*
X146857587Y-91457718D01*
X146870413Y-91477203D01*
X146922272Y-91513838D01*
X147001746Y-91558033D01*
X147075279Y-91596837D01*
X147149854Y-91640052D01*
X147191342Y-91669080D01*
X147235907Y-91704650D01*
X147299041Y-91746468D01*
X147364121Y-91784614D01*
X147415007Y-91809635D01*
X147435556Y-91812081D01*
X147439782Y-91806195D01*
X147470833Y-91816276D01*
X147485347Y-91823252D01*
X147563984Y-91836861D01*
X147677645Y-91836789D01*
X147811593Y-91824733D01*
X147951093Y-91802393D01*
X148081411Y-91771465D01*
X148187809Y-91733650D01*
X148230824Y-91719641D01*
X148272476Y-91720569D01*
X148280190Y-91722809D01*
X148333392Y-91720833D01*
X148434639Y-91706246D01*
X148586170Y-91678690D01*
X148790222Y-91637806D01*
X148825239Y-91632251D01*
X148914169Y-91623206D01*
X149016000Y-91616942D01*
X149038233Y-91615786D01*
X149160047Y-91598580D01*
X149277329Y-91559928D01*
X149397733Y-91495070D01*
X149528915Y-91399245D01*
X149678529Y-91267692D01*
X149854231Y-91095651D01*
X149953251Y-90996605D01*
X150086036Y-90870125D01*
X150196015Y-90775409D01*
X150291517Y-90705462D01*
X150380867Y-90653288D01*
X150392247Y-90647506D01*
X150481340Y-90605704D01*
X150501836Y-90597889D01*
X150540000Y-90597889D01*
X150554111Y-90612000D01*
X150568222Y-90597889D01*
X150554111Y-90583778D01*
X150540000Y-90597889D01*
X150501836Y-90597889D01*
X150548333Y-90580161D01*
X150554111Y-90579428D01*
X150579474Y-90576214D01*
X150580747Y-90577102D01*
M02*
