G04 #@! TF.GenerationSoftware,KiCad,Pcbnew,5.99.0-unknown-df3fabf~86~ubuntu18.04.1*
G04 #@! TF.CreationDate,2019-10-25T19:04:55-04:00*
G04 #@! TF.ProjectId,bc95_bc35_module_board,62633935-5f62-4633-9335-5f6d6f64756c,rev?*
G04 #@! TF.SameCoordinates,Original*
G04 #@! TF.FileFunction,Paste,Top*
G04 #@! TF.FilePolarity,Positive*
%FSLAX46Y46*%
G04 Gerber Fmt 4.6, Leading zero omitted, Abs format (unit mm)*
G04 Created by KiCad (PCBNEW 5.99.0-unknown-df3fabf~86~ubuntu18.04.1) date 2019-10-25 19:04:55*
%MOMM*%
%LPD*%
G04 APERTURE LIST*
%ADD10R,1.000000X1.000000*%
%ADD11O,0.750000X2.400000*%
%ADD12O,2.400000X0.750000*%
%ADD13R,1.600000X2.180000*%
%ADD14R,4.064000X1.524000*%
%ADD15R,4.064000X1.270000*%
G04 APERTURE END LIST*
D10*
X137350000Y-102550000D03*
X137350000Y-100850000D03*
X137350000Y-99150000D03*
X139050000Y-102550000D03*
X139050000Y-100850000D03*
X139050000Y-99150000D03*
X150950000Y-102550000D03*
X150950000Y-100850000D03*
X150950000Y-99150000D03*
X152650000Y-102550000D03*
X152650000Y-100850000D03*
X152650000Y-99150000D03*
X140750000Y-105950000D03*
X142450000Y-105950000D03*
X144150000Y-105950000D03*
X145850000Y-105950000D03*
X147550000Y-105950000D03*
X140750000Y-104250000D03*
X142450000Y-104250000D03*
X144150000Y-104250000D03*
X145850000Y-104250000D03*
X147550000Y-104250000D03*
X140750000Y-95750000D03*
X142450000Y-95750000D03*
X144150000Y-95750000D03*
X145850000Y-95750000D03*
X147550000Y-95750000D03*
X140750000Y-94050000D03*
X142450000Y-94050000D03*
X144150000Y-94050000D03*
X145850000Y-94050000D03*
X147550000Y-94050000D03*
X139050000Y-97450000D03*
X137350000Y-97450000D03*
X149250000Y-104250000D03*
X149250000Y-105950000D03*
X152650000Y-97450000D03*
X150950000Y-97450000D03*
X149250000Y-94050000D03*
X149250000Y-95750000D03*
D11*
X153600000Y-109800000D03*
X152500000Y-109800000D03*
X151400000Y-109800000D03*
X150300000Y-109800000D03*
X149200000Y-109800000D03*
X148100000Y-109800000D03*
X147000000Y-109800000D03*
X145900000Y-109800000D03*
X143100000Y-109800000D03*
X142000000Y-109800000D03*
X140900000Y-109800000D03*
X139800000Y-109800000D03*
X138700000Y-109800000D03*
X137600000Y-109800000D03*
D12*
X133350000Y-100550000D03*
X133350000Y-101650000D03*
X133350000Y-102750000D03*
X133350000Y-103850000D03*
X133350000Y-104950000D03*
X156650000Y-98050000D03*
X156650000Y-96950000D03*
X156650000Y-95850000D03*
X156650000Y-94750000D03*
X156650000Y-100550000D03*
X156650000Y-101650000D03*
X156650000Y-102750000D03*
X156650000Y-103850000D03*
X156650000Y-104950000D03*
X133350000Y-98050000D03*
X133350000Y-96950000D03*
X133350000Y-95850000D03*
X133350000Y-94750000D03*
X133350000Y-106050000D03*
X156650000Y-106050000D03*
X156650000Y-93650000D03*
X133350000Y-93650000D03*
D11*
X136500000Y-109800000D03*
X144800000Y-109800000D03*
X136500000Y-90200000D03*
X137600000Y-90200000D03*
X138700000Y-90200000D03*
X139800000Y-90200000D03*
X140900000Y-90200000D03*
X142000000Y-90200000D03*
X143100000Y-90200000D03*
X144800000Y-90200000D03*
X145900000Y-90200000D03*
X147000000Y-90200000D03*
X148100000Y-90200000D03*
X149200000Y-90200000D03*
X150300000Y-90200000D03*
X151400000Y-90200000D03*
X152500000Y-90200000D03*
X153600000Y-90200000D03*
D13*
X164700000Y-104710000D03*
X164700000Y-113890000D03*
G36*
X133214962Y-86441651D02*
G01*
X133285930Y-86489070D01*
X133333349Y-86560038D01*
X133350000Y-86643750D01*
X133350000Y-87156250D01*
X133333349Y-87239962D01*
X133285930Y-87310930D01*
X133214962Y-87358349D01*
X133131250Y-87375000D01*
X132693750Y-87375000D01*
X132610038Y-87358349D01*
X132539070Y-87310930D01*
X132491651Y-87239962D01*
X132475000Y-87156250D01*
X132475000Y-86643750D01*
X132491651Y-86560038D01*
X132539070Y-86489070D01*
X132610038Y-86441651D01*
X132693750Y-86425000D01*
X133131250Y-86425000D01*
X133214962Y-86441651D01*
G37*
G36*
X134789962Y-86441651D02*
G01*
X134860930Y-86489070D01*
X134908349Y-86560038D01*
X134925000Y-86643750D01*
X134925000Y-87156250D01*
X134908349Y-87239962D01*
X134860930Y-87310930D01*
X134789962Y-87358349D01*
X134706250Y-87375000D01*
X134268750Y-87375000D01*
X134185038Y-87358349D01*
X134114070Y-87310930D01*
X134066651Y-87239962D01*
X134050000Y-87156250D01*
X134050000Y-86643750D01*
X134066651Y-86560038D01*
X134114070Y-86489070D01*
X134185038Y-86441651D01*
X134268750Y-86425000D01*
X134706250Y-86425000D01*
X134789962Y-86441651D01*
G37*
G36*
X161314962Y-94341651D02*
G01*
X161385930Y-94389070D01*
X161433349Y-94460038D01*
X161450000Y-94543750D01*
X161450000Y-95056250D01*
X161433349Y-95139962D01*
X161385930Y-95210930D01*
X161314962Y-95258349D01*
X161231250Y-95275000D01*
X160793750Y-95275000D01*
X160710038Y-95258349D01*
X160639070Y-95210930D01*
X160591651Y-95139962D01*
X160575000Y-95056250D01*
X160575000Y-94543750D01*
X160591651Y-94460038D01*
X160639070Y-94389070D01*
X160710038Y-94341651D01*
X160793750Y-94325000D01*
X161231250Y-94325000D01*
X161314962Y-94341651D01*
G37*
G36*
X162889962Y-94341651D02*
G01*
X162960930Y-94389070D01*
X163008349Y-94460038D01*
X163025000Y-94543750D01*
X163025000Y-95056250D01*
X163008349Y-95139962D01*
X162960930Y-95210930D01*
X162889962Y-95258349D01*
X162806250Y-95275000D01*
X162368750Y-95275000D01*
X162285038Y-95258349D01*
X162214070Y-95210930D01*
X162166651Y-95139962D01*
X162150000Y-95056250D01*
X162150000Y-94543750D01*
X162166651Y-94460038D01*
X162214070Y-94389070D01*
X162285038Y-94341651D01*
X162368750Y-94325000D01*
X162806250Y-94325000D01*
X162889962Y-94341651D01*
G37*
D14*
X167900000Y-97340000D03*
X167900000Y-92260000D03*
D15*
X167900000Y-94800000D03*
G36*
X164439962Y-95966651D02*
G01*
X164510930Y-96014070D01*
X164558349Y-96085038D01*
X164575000Y-96168750D01*
X164575000Y-96606250D01*
X164558349Y-96689962D01*
X164510930Y-96760930D01*
X164439962Y-96808349D01*
X164356250Y-96825000D01*
X163843750Y-96825000D01*
X163760038Y-96808349D01*
X163689070Y-96760930D01*
X163641651Y-96689962D01*
X163625000Y-96606250D01*
X163625000Y-96168750D01*
X163641651Y-96085038D01*
X163689070Y-96014070D01*
X163760038Y-95966651D01*
X163843750Y-95950000D01*
X164356250Y-95950000D01*
X164439962Y-95966651D01*
G37*
G36*
X164439962Y-94391651D02*
G01*
X164510930Y-94439070D01*
X164558349Y-94510038D01*
X164575000Y-94593750D01*
X164575000Y-95031250D01*
X164558349Y-95114962D01*
X164510930Y-95185930D01*
X164439962Y-95233349D01*
X164356250Y-95250000D01*
X163843750Y-95250000D01*
X163760038Y-95233349D01*
X163689070Y-95185930D01*
X163641651Y-95114962D01*
X163625000Y-95031250D01*
X163625000Y-94593750D01*
X163641651Y-94510038D01*
X163689070Y-94439070D01*
X163760038Y-94391651D01*
X163843750Y-94375000D01*
X164356250Y-94375000D01*
X164439962Y-94391651D01*
G37*
G36*
X159839962Y-95954151D02*
G01*
X159910930Y-96001570D01*
X159958349Y-96072538D01*
X159975000Y-96156250D01*
X159975000Y-96593750D01*
X159958349Y-96677462D01*
X159910930Y-96748430D01*
X159839962Y-96795849D01*
X159756250Y-96812500D01*
X159243750Y-96812500D01*
X159160038Y-96795849D01*
X159089070Y-96748430D01*
X159041651Y-96677462D01*
X159025000Y-96593750D01*
X159025000Y-96156250D01*
X159041651Y-96072538D01*
X159089070Y-96001570D01*
X159160038Y-95954151D01*
X159243750Y-95937500D01*
X159756250Y-95937500D01*
X159839962Y-95954151D01*
G37*
G36*
X159839962Y-94379151D02*
G01*
X159910930Y-94426570D01*
X159958349Y-94497538D01*
X159975000Y-94581250D01*
X159975000Y-95018750D01*
X159958349Y-95102462D01*
X159910930Y-95173430D01*
X159839962Y-95220849D01*
X159756250Y-95237500D01*
X159243750Y-95237500D01*
X159160038Y-95220849D01*
X159089070Y-95173430D01*
X159041651Y-95102462D01*
X159025000Y-95018750D01*
X159025000Y-94581250D01*
X159041651Y-94497538D01*
X159089070Y-94426570D01*
X159160038Y-94379151D01*
X159243750Y-94362500D01*
X159756250Y-94362500D01*
X159839962Y-94379151D01*
G37*
G36*
X168239962Y-109866651D02*
G01*
X168310930Y-109914070D01*
X168358349Y-109985038D01*
X168375000Y-110068750D01*
X168375000Y-110506250D01*
X168358349Y-110589962D01*
X168310930Y-110660930D01*
X168239962Y-110708349D01*
X168156250Y-110725000D01*
X167643750Y-110725000D01*
X167560038Y-110708349D01*
X167489070Y-110660930D01*
X167441651Y-110589962D01*
X167425000Y-110506250D01*
X167425000Y-110068750D01*
X167441651Y-109985038D01*
X167489070Y-109914070D01*
X167560038Y-109866651D01*
X167643750Y-109850000D01*
X168156250Y-109850000D01*
X168239962Y-109866651D01*
G37*
G36*
X168239962Y-108291651D02*
G01*
X168310930Y-108339070D01*
X168358349Y-108410038D01*
X168375000Y-108493750D01*
X168375000Y-108931250D01*
X168358349Y-109014962D01*
X168310930Y-109085930D01*
X168239962Y-109133349D01*
X168156250Y-109150000D01*
X167643750Y-109150000D01*
X167560038Y-109133349D01*
X167489070Y-109085930D01*
X167441651Y-109014962D01*
X167425000Y-108931250D01*
X167425000Y-108493750D01*
X167441651Y-108410038D01*
X167489070Y-108339070D01*
X167560038Y-108291651D01*
X167643750Y-108275000D01*
X168156250Y-108275000D01*
X168239962Y-108291651D01*
G37*
M02*
