G04 #@! TF.GenerationSoftware,KiCad,Pcbnew,5.99.0-unknown-df3fabf~86~ubuntu18.04.1*
G04 #@! TF.CreationDate,2019-10-25T19:04:55-04:00*
G04 #@! TF.ProjectId,bc95_bc35_module_board,62633935-5f62-4633-9335-5f6d6f64756c,rev?*
G04 #@! TF.SameCoordinates,Original*
G04 #@! TF.FileFunction,Copper,L1,Top*
G04 #@! TF.FilePolarity,Positive*
%FSLAX46Y46*%
G04 Gerber Fmt 4.6, Leading zero omitted, Abs format (unit mm)*
G04 Created by KiCad (PCBNEW 5.99.0-unknown-df3fabf~86~ubuntu18.04.1) date 2019-10-25 19:04:55*
%MOMM*%
%LPD*%
G04 APERTURE LIST*
%ADD10R,1.000000X1.000000*%
%ADD11O,0.750000X2.400000*%
%ADD12O,2.400000X0.750000*%
%ADD13R,1.600000X2.180000*%
%ADD14O,1.000000X1.000000*%
%ADD15R,4.064000X1.524000*%
%ADD16R,4.064000X1.270000*%
%ADD17C,0.600000*%
%ADD18C,1.290000*%
%ADD19C,0.800000*%
%ADD20C,0.250000*%
%ADD21C,0.700000*%
%ADD22C,0.254000*%
G04 APERTURE END LIST*
D10*
X137350000Y-102550000D03*
X137350000Y-100850000D03*
X137350000Y-99150000D03*
X139050000Y-102550000D03*
X139050000Y-100850000D03*
X139050000Y-99150000D03*
X150950000Y-102550000D03*
X150950000Y-100850000D03*
X150950000Y-99150000D03*
X152650000Y-102550000D03*
X152650000Y-100850000D03*
X152650000Y-99150000D03*
X140750000Y-105950000D03*
X142450000Y-105950000D03*
X144150000Y-105950000D03*
X145850000Y-105950000D03*
X147550000Y-105950000D03*
X140750000Y-104250000D03*
X142450000Y-104250000D03*
X144150000Y-104250000D03*
X145850000Y-104250000D03*
X147550000Y-104250000D03*
X140750000Y-95750000D03*
X142450000Y-95750000D03*
X144150000Y-95750000D03*
X145850000Y-95750000D03*
X147550000Y-95750000D03*
X140750000Y-94050000D03*
X142450000Y-94050000D03*
X144150000Y-94050000D03*
X145850000Y-94050000D03*
X147550000Y-94050000D03*
X139050000Y-97450000D03*
X137350000Y-97450000D03*
X149250000Y-104250000D03*
X149250000Y-105950000D03*
X152650000Y-97450000D03*
X150950000Y-97450000D03*
X149250000Y-94050000D03*
X149250000Y-95750000D03*
D11*
X153600000Y-109800000D03*
X152500000Y-109800000D03*
X151400000Y-109800000D03*
X150300000Y-109800000D03*
X149200000Y-109800000D03*
X148100000Y-109800000D03*
X147000000Y-109800000D03*
X145900000Y-109800000D03*
X143100000Y-109800000D03*
X142000000Y-109800000D03*
X140900000Y-109800000D03*
X139800000Y-109800000D03*
X138700000Y-109800000D03*
X137600000Y-109800000D03*
D12*
X133350000Y-100550000D03*
X133350000Y-101650000D03*
X133350000Y-102750000D03*
X133350000Y-103850000D03*
X133350000Y-104950000D03*
X156650000Y-98050000D03*
X156650000Y-96950000D03*
X156650000Y-95850000D03*
X156650000Y-94750000D03*
X156650000Y-100550000D03*
X156650000Y-101650000D03*
X156650000Y-102750000D03*
X156650000Y-103850000D03*
X156650000Y-104950000D03*
X133350000Y-98050000D03*
X133350000Y-96950000D03*
X133350000Y-95850000D03*
X133350000Y-94750000D03*
X133350000Y-106050000D03*
X156650000Y-106050000D03*
X156650000Y-93650000D03*
X133350000Y-93650000D03*
D11*
X136500000Y-109800000D03*
X144800000Y-109800000D03*
X136500000Y-90200000D03*
X137600000Y-90200000D03*
X138700000Y-90200000D03*
X139800000Y-90200000D03*
X140900000Y-90200000D03*
X142000000Y-90200000D03*
X143100000Y-90200000D03*
X144800000Y-90200000D03*
X145900000Y-90200000D03*
X147000000Y-90200000D03*
X148100000Y-90200000D03*
X149200000Y-90200000D03*
X150300000Y-90200000D03*
X151400000Y-90200000D03*
X152500000Y-90200000D03*
X153600000Y-90200000D03*
D13*
X164700000Y-104710000D03*
X164700000Y-113890000D03*
G04 #@! TA.AperFunction,SMDPad,CuDef*
G36*
X133214962Y-86441651D02*
G01*
X133285930Y-86489070D01*
X133333349Y-86560038D01*
X133350000Y-86643750D01*
X133350000Y-87156250D01*
X133333349Y-87239962D01*
X133285930Y-87310930D01*
X133214962Y-87358349D01*
X133131250Y-87375000D01*
X132693750Y-87375000D01*
X132610038Y-87358349D01*
X132539070Y-87310930D01*
X132491651Y-87239962D01*
X132475000Y-87156250D01*
X132475000Y-86643750D01*
X132491651Y-86560038D01*
X132539070Y-86489070D01*
X132610038Y-86441651D01*
X132693750Y-86425000D01*
X133131250Y-86425000D01*
X133214962Y-86441651D01*
G37*
G04 #@! TD.AperFunction*
G04 #@! TA.AperFunction,SMDPad,CuDef*
G36*
X134789962Y-86441651D02*
G01*
X134860930Y-86489070D01*
X134908349Y-86560038D01*
X134925000Y-86643750D01*
X134925000Y-87156250D01*
X134908349Y-87239962D01*
X134860930Y-87310930D01*
X134789962Y-87358349D01*
X134706250Y-87375000D01*
X134268750Y-87375000D01*
X134185038Y-87358349D01*
X134114070Y-87310930D01*
X134066651Y-87239962D01*
X134050000Y-87156250D01*
X134050000Y-86643750D01*
X134066651Y-86560038D01*
X134114070Y-86489070D01*
X134185038Y-86441651D01*
X134268750Y-86425000D01*
X134706250Y-86425000D01*
X134789962Y-86441651D01*
G37*
G04 #@! TD.AperFunction*
G04 #@! TA.AperFunction,SMDPad,CuDef*
G36*
X161314962Y-94341651D02*
G01*
X161385930Y-94389070D01*
X161433349Y-94460038D01*
X161450000Y-94543750D01*
X161450000Y-95056250D01*
X161433349Y-95139962D01*
X161385930Y-95210930D01*
X161314962Y-95258349D01*
X161231250Y-95275000D01*
X160793750Y-95275000D01*
X160710038Y-95258349D01*
X160639070Y-95210930D01*
X160591651Y-95139962D01*
X160575000Y-95056250D01*
X160575000Y-94543750D01*
X160591651Y-94460038D01*
X160639070Y-94389070D01*
X160710038Y-94341651D01*
X160793750Y-94325000D01*
X161231250Y-94325000D01*
X161314962Y-94341651D01*
G37*
G04 #@! TD.AperFunction*
G04 #@! TA.AperFunction,SMDPad,CuDef*
G36*
X162889962Y-94341651D02*
G01*
X162960930Y-94389070D01*
X163008349Y-94460038D01*
X163025000Y-94543750D01*
X163025000Y-95056250D01*
X163008349Y-95139962D01*
X162960930Y-95210930D01*
X162889962Y-95258349D01*
X162806250Y-95275000D01*
X162368750Y-95275000D01*
X162285038Y-95258349D01*
X162214070Y-95210930D01*
X162166651Y-95139962D01*
X162150000Y-95056250D01*
X162150000Y-94543750D01*
X162166651Y-94460038D01*
X162214070Y-94389070D01*
X162285038Y-94341651D01*
X162368750Y-94325000D01*
X162806250Y-94325000D01*
X162889962Y-94341651D01*
G37*
G04 #@! TD.AperFunction*
D14*
X134330000Y-117000000D03*
X135600000Y-117000000D03*
X136870000Y-117000000D03*
X138140000Y-117000000D03*
X139410000Y-117000000D03*
X140680000Y-117000000D03*
X141950000Y-117000000D03*
X143220000Y-117000000D03*
X144490000Y-117000000D03*
X145760000Y-117000000D03*
X147030000Y-117000000D03*
X148300000Y-117000000D03*
X149570000Y-117000000D03*
X150840000Y-117000000D03*
X152110000Y-117000000D03*
X153380000Y-117000000D03*
X154650000Y-117000000D03*
X155920000Y-117000000D03*
X157190000Y-117000000D03*
X158460000Y-117000000D03*
X159730000Y-117000000D03*
D10*
X161000000Y-117000000D03*
D14*
X134330000Y-83000000D03*
X135600000Y-83000000D03*
X136870000Y-83000000D03*
X138140000Y-83000000D03*
X139410000Y-83000000D03*
X140680000Y-83000000D03*
X141950000Y-83000000D03*
X143220000Y-83000000D03*
X144490000Y-83000000D03*
X145760000Y-83000000D03*
X147030000Y-83000000D03*
X148300000Y-83000000D03*
X149570000Y-83000000D03*
X150840000Y-83000000D03*
X152110000Y-83000000D03*
X153380000Y-83000000D03*
X154650000Y-83000000D03*
X155920000Y-83000000D03*
X157190000Y-83000000D03*
X158460000Y-83000000D03*
X159730000Y-83000000D03*
D10*
X161000000Y-83000000D03*
D15*
X167900000Y-97340000D03*
X167900000Y-92260000D03*
D16*
X167900000Y-94800000D03*
G04 #@! TA.AperFunction,SMDPad,CuDef*
G36*
X164439962Y-95966651D02*
G01*
X164510930Y-96014070D01*
X164558349Y-96085038D01*
X164575000Y-96168750D01*
X164575000Y-96606250D01*
X164558349Y-96689962D01*
X164510930Y-96760930D01*
X164439962Y-96808349D01*
X164356250Y-96825000D01*
X163843750Y-96825000D01*
X163760038Y-96808349D01*
X163689070Y-96760930D01*
X163641651Y-96689962D01*
X163625000Y-96606250D01*
X163625000Y-96168750D01*
X163641651Y-96085038D01*
X163689070Y-96014070D01*
X163760038Y-95966651D01*
X163843750Y-95950000D01*
X164356250Y-95950000D01*
X164439962Y-95966651D01*
G37*
G04 #@! TD.AperFunction*
G04 #@! TA.AperFunction,SMDPad,CuDef*
G36*
X164439962Y-94391651D02*
G01*
X164510930Y-94439070D01*
X164558349Y-94510038D01*
X164575000Y-94593750D01*
X164575000Y-95031250D01*
X164558349Y-95114962D01*
X164510930Y-95185930D01*
X164439962Y-95233349D01*
X164356250Y-95250000D01*
X163843750Y-95250000D01*
X163760038Y-95233349D01*
X163689070Y-95185930D01*
X163641651Y-95114962D01*
X163625000Y-95031250D01*
X163625000Y-94593750D01*
X163641651Y-94510038D01*
X163689070Y-94439070D01*
X163760038Y-94391651D01*
X163843750Y-94375000D01*
X164356250Y-94375000D01*
X164439962Y-94391651D01*
G37*
G04 #@! TD.AperFunction*
G04 #@! TA.AperFunction,SMDPad,CuDef*
G36*
X159839962Y-95954151D02*
G01*
X159910930Y-96001570D01*
X159958349Y-96072538D01*
X159975000Y-96156250D01*
X159975000Y-96593750D01*
X159958349Y-96677462D01*
X159910930Y-96748430D01*
X159839962Y-96795849D01*
X159756250Y-96812500D01*
X159243750Y-96812500D01*
X159160038Y-96795849D01*
X159089070Y-96748430D01*
X159041651Y-96677462D01*
X159025000Y-96593750D01*
X159025000Y-96156250D01*
X159041651Y-96072538D01*
X159089070Y-96001570D01*
X159160038Y-95954151D01*
X159243750Y-95937500D01*
X159756250Y-95937500D01*
X159839962Y-95954151D01*
G37*
G04 #@! TD.AperFunction*
G04 #@! TA.AperFunction,SMDPad,CuDef*
G36*
X159839962Y-94379151D02*
G01*
X159910930Y-94426570D01*
X159958349Y-94497538D01*
X159975000Y-94581250D01*
X159975000Y-95018750D01*
X159958349Y-95102462D01*
X159910930Y-95173430D01*
X159839962Y-95220849D01*
X159756250Y-95237500D01*
X159243750Y-95237500D01*
X159160038Y-95220849D01*
X159089070Y-95173430D01*
X159041651Y-95102462D01*
X159025000Y-95018750D01*
X159025000Y-94581250D01*
X159041651Y-94497538D01*
X159089070Y-94426570D01*
X159160038Y-94379151D01*
X159243750Y-94362500D01*
X159756250Y-94362500D01*
X159839962Y-94379151D01*
G37*
G04 #@! TD.AperFunction*
G04 #@! TA.AperFunction,SMDPad,CuDef*
G36*
X168239962Y-109866651D02*
G01*
X168310930Y-109914070D01*
X168358349Y-109985038D01*
X168375000Y-110068750D01*
X168375000Y-110506250D01*
X168358349Y-110589962D01*
X168310930Y-110660930D01*
X168239962Y-110708349D01*
X168156250Y-110725000D01*
X167643750Y-110725000D01*
X167560038Y-110708349D01*
X167489070Y-110660930D01*
X167441651Y-110589962D01*
X167425000Y-110506250D01*
X167425000Y-110068750D01*
X167441651Y-109985038D01*
X167489070Y-109914070D01*
X167560038Y-109866651D01*
X167643750Y-109850000D01*
X168156250Y-109850000D01*
X168239962Y-109866651D01*
G37*
G04 #@! TD.AperFunction*
G04 #@! TA.AperFunction,SMDPad,CuDef*
G36*
X168239962Y-108291651D02*
G01*
X168310930Y-108339070D01*
X168358349Y-108410038D01*
X168375000Y-108493750D01*
X168375000Y-108931250D01*
X168358349Y-109014962D01*
X168310930Y-109085930D01*
X168239962Y-109133349D01*
X168156250Y-109150000D01*
X167643750Y-109150000D01*
X167560038Y-109133349D01*
X167489070Y-109085930D01*
X167441651Y-109014962D01*
X167425000Y-108931250D01*
X167425000Y-108493750D01*
X167441651Y-108410038D01*
X167489070Y-108339070D01*
X167560038Y-108291651D01*
X167643750Y-108275000D01*
X168156250Y-108275000D01*
X168239962Y-108291651D01*
G37*
G04 #@! TD.AperFunction*
D17*
X152000000Y-114600000D03*
X150775000Y-113848415D03*
X149500000Y-113100000D03*
X148400000Y-112400000D03*
X138700000Y-107500000D03*
X137700000Y-106900000D03*
X139600000Y-87700000D03*
X144800000Y-114900000D03*
X138400000Y-93200000D03*
X136100000Y-96000000D03*
X135200000Y-96800000D03*
X136500000Y-94800000D03*
X137200000Y-105300000D03*
X133400000Y-85800000D03*
X131500000Y-104800000D03*
X168500000Y-81500000D03*
X131500000Y-81500000D03*
X131500000Y-118500000D03*
X168500000Y-118500000D03*
X153950000Y-104250000D03*
X158600000Y-93500000D03*
X158400000Y-96100000D03*
X160600000Y-96100000D03*
X161800000Y-96100000D03*
X163000000Y-96100000D03*
X165300000Y-96100000D03*
X160100000Y-93500000D03*
X161600000Y-93500000D03*
X163100000Y-93500000D03*
X164600000Y-93500000D03*
X158600000Y-92600000D03*
X160100000Y-92600000D03*
X161600000Y-92600000D03*
X163100000Y-92600000D03*
X164600000Y-92600000D03*
X158400000Y-97400000D03*
X159900000Y-97400000D03*
X161400000Y-97400000D03*
X162900000Y-97400000D03*
X164400000Y-97400000D03*
X133900000Y-112400000D03*
X141600000Y-115300000D03*
X143900000Y-118600000D03*
X131200000Y-112400000D03*
X132500000Y-107800000D03*
X155900000Y-89400000D03*
X154500000Y-93600000D03*
X154800000Y-95800000D03*
X159100000Y-101700000D03*
X154300000Y-101400000D03*
X159200000Y-110300000D03*
X167400000Y-113800000D03*
X168100000Y-111700000D03*
X145800000Y-118700000D03*
X137800000Y-113700000D03*
X164200000Y-118100000D03*
X163900000Y-109700000D03*
X164000000Y-87600000D03*
X168600000Y-90400000D03*
X167100000Y-90400000D03*
X165600000Y-90400000D03*
X164600000Y-91300000D03*
X164900000Y-98600000D03*
X166300000Y-99200000D03*
X167800000Y-99200000D03*
X169100000Y-99200000D03*
X134100000Y-90200000D03*
X158900000Y-118700000D03*
X151600000Y-118700000D03*
D18*
X161012500Y-94800000D02*
X159500000Y-94800000D01*
X167900000Y-94800000D02*
X162602510Y-94800000D01*
X159500000Y-94800000D02*
X158400000Y-94800000D01*
D19*
X158350000Y-94750000D02*
X156650000Y-94750000D01*
X158400000Y-94800000D02*
X158350000Y-94750000D01*
D20*
X152500000Y-109800000D02*
X152500000Y-114200000D01*
X153380000Y-115080000D02*
X153380000Y-117000000D01*
X152500000Y-114200000D02*
X153380000Y-115080000D01*
X151400000Y-109800000D02*
X151400000Y-114000000D01*
X151400000Y-114000000D02*
X152000000Y-114600000D01*
X150300000Y-113373415D02*
X150300000Y-109800000D01*
X150775000Y-113848415D02*
X150300000Y-113373415D01*
X149500000Y-113100000D02*
X149200000Y-112800000D01*
X149200000Y-112800000D02*
X149200000Y-109800000D01*
X148400000Y-112400000D02*
X148100000Y-112100000D01*
X148100000Y-112100000D02*
X148100000Y-109800000D01*
X137600000Y-86080000D02*
X140680000Y-83000000D01*
X134487500Y-86900000D02*
X137600000Y-86900000D01*
X137600000Y-90200000D02*
X137600000Y-86900000D01*
X137600000Y-86900000D02*
X137600000Y-86080000D01*
X143100000Y-115850000D02*
X143100000Y-109800000D01*
X141950000Y-117000000D02*
X143100000Y-115850000D01*
D21*
X159730000Y-117000000D02*
X161000000Y-117000000D01*
X161000000Y-117000000D02*
X161000000Y-106500000D01*
X159450000Y-104950000D02*
X156650000Y-104950000D01*
X156650000Y-103850000D02*
X158550000Y-103850000D01*
X159800000Y-105100000D02*
X159800000Y-105300000D01*
X158550000Y-103850000D02*
X159800000Y-105100000D01*
X161000000Y-106500000D02*
X159800000Y-105300000D01*
X159800000Y-105300000D02*
X159450000Y-104950000D01*
X161000000Y-83000000D02*
X159730000Y-83000000D01*
D20*
X138700000Y-107500000D02*
X138700000Y-109800000D01*
X137600000Y-107000000D02*
X137600000Y-109800000D01*
X137700000Y-106900000D02*
X137600000Y-107000000D01*
X145760000Y-83000000D02*
X141060000Y-87700000D01*
X141060000Y-87700000D02*
X139600000Y-87700000D01*
X147030000Y-117000000D02*
X144930000Y-114900000D01*
X144930000Y-114900000D02*
X144800000Y-114900000D01*
X135950000Y-95850000D02*
X136100000Y-96000000D01*
X138400000Y-94625004D02*
X138400000Y-93624264D01*
X138400000Y-93624264D02*
X138400000Y-93200000D01*
X134975004Y-98050000D02*
X138400000Y-94625004D01*
X133350000Y-98050000D02*
X134975004Y-98050000D01*
X133350000Y-95850000D02*
X135950000Y-95850000D01*
X133350000Y-96950000D02*
X135050000Y-96950000D01*
X135050000Y-96950000D02*
X135200000Y-96800000D01*
X133350000Y-94750000D02*
X136450000Y-94750000D01*
X136450000Y-94750000D02*
X136500000Y-94800000D01*
X132912500Y-86900000D02*
X132912500Y-86287500D01*
X132912500Y-86287500D02*
X133400000Y-85800000D01*
X142720001Y-117499999D02*
X143220000Y-117000000D01*
X133800000Y-118500000D02*
X141720000Y-118500000D01*
X137200000Y-105300000D02*
X137200000Y-105800000D01*
X141720000Y-118500000D02*
X142720001Y-117499999D01*
X137200000Y-105800000D02*
X132500000Y-110500000D01*
X132500000Y-110500000D02*
X132500000Y-117200000D01*
X132500000Y-117200000D02*
X133800000Y-118500000D01*
D21*
X137350000Y-97450000D02*
X137350000Y-99150000D01*
X139050000Y-97450000D02*
X137350000Y-97450000D01*
X142450000Y-94050000D02*
X140750000Y-94050000D01*
X131650000Y-104950000D02*
X131500000Y-104800000D01*
X133350000Y-104950000D02*
X131650000Y-104950000D01*
D20*
X164700000Y-105700000D02*
X167712500Y-108712500D01*
X164700000Y-102870000D02*
X164700000Y-105700000D01*
X167712500Y-108712500D02*
X167900000Y-108712500D01*
X161330000Y-99500000D02*
X164700000Y-102870000D01*
X137600000Y-90914963D02*
X139485037Y-92800000D01*
X139485037Y-92800000D02*
X150700000Y-92800000D01*
X137600000Y-90200000D02*
X137600000Y-90914963D01*
X150700000Y-92800000D02*
X154000000Y-96100000D01*
X155000000Y-99500000D02*
X161330000Y-99500000D01*
X154000000Y-96100000D02*
X154000000Y-98500000D01*
X154000000Y-98500000D02*
X155000000Y-99500000D01*
D21*
X154350000Y-103850000D02*
X153950000Y-104250000D01*
X156650000Y-103850000D02*
X154350000Y-103850000D01*
X154650000Y-104950000D02*
X153950000Y-104250000D01*
X156650000Y-104950000D02*
X154650000Y-104950000D01*
G36*
X168446608Y-80528388D02*
G01*
X168657969Y-80545765D01*
X168811703Y-80584380D01*
X168957064Y-80647585D01*
X168991989Y-80670179D01*
X169329111Y-81007301D01*
X169382222Y-81103511D01*
X169435134Y-81252930D01*
X169464565Y-81418151D01*
X169470071Y-81534917D01*
X169474001Y-81553894D01*
X169474001Y-90426000D01*
X169574001Y-90426000D01*
X169574001Y-91066123D01*
X168028000Y-91066123D01*
X168028000Y-93453877D01*
X169574001Y-93453877D01*
X169574001Y-93733123D01*
X167972893Y-93733123D01*
X167951280Y-93729000D01*
X162535135Y-93729000D01*
X162334046Y-93754404D01*
X162082452Y-93854017D01*
X161863533Y-94013070D01*
X161809104Y-94078863D01*
X161647020Y-93926657D01*
X161406355Y-93794350D01*
X161063780Y-93729000D01*
X158332625Y-93729000D01*
X158131536Y-93754404D01*
X158071938Y-93778000D01*
X154989630Y-93778000D01*
X155157648Y-94103532D01*
X155241989Y-94200214D01*
X155162434Y-94289504D01*
X155071716Y-94460841D01*
X155024487Y-94648872D01*
X155023471Y-94842740D01*
X155068730Y-95031255D01*
X155157648Y-95203532D01*
X155241989Y-95300214D01*
X155162434Y-95389504D01*
X154986386Y-95722000D01*
X157853985Y-95722000D01*
X158006145Y-95805650D01*
X158348720Y-95871000D01*
X158669281Y-95871000D01*
X158628092Y-95947111D01*
X158578049Y-96247000D01*
X160417494Y-96247000D01*
X160386271Y-95996513D01*
X160331216Y-95871000D01*
X161079875Y-95871000D01*
X161280964Y-95845596D01*
X161532558Y-95745983D01*
X161751477Y-95586930D01*
X161805906Y-95521137D01*
X161967990Y-95673343D01*
X162208655Y-95805650D01*
X162551230Y-95871000D01*
X163276046Y-95871000D01*
X163228092Y-95959611D01*
X163178049Y-96259500D01*
X165017494Y-96259500D01*
X164986271Y-96009013D01*
X164925733Y-95871000D01*
X167967375Y-95871000D01*
X168000009Y-95866877D01*
X169574001Y-95866877D01*
X169574001Y-96146123D01*
X168028000Y-96146123D01*
X168028000Y-98533877D01*
X169574001Y-98533877D01*
X169574001Y-99274000D01*
X169474001Y-99274000D01*
X169474000Y-118436812D01*
X169471612Y-118446607D01*
X169454235Y-118657969D01*
X169415619Y-118811708D01*
X169352417Y-118957061D01*
X169329821Y-118991989D01*
X168992700Y-119329110D01*
X168896490Y-119382221D01*
X168747068Y-119435134D01*
X168581847Y-119464565D01*
X168465083Y-119470071D01*
X168446110Y-119474000D01*
X131563188Y-119474000D01*
X131553393Y-119471612D01*
X131342031Y-119454235D01*
X131188292Y-119415619D01*
X131042939Y-119352417D01*
X131008011Y-119329821D01*
X130670890Y-118992700D01*
X130617779Y-118896490D01*
X130564866Y-118747068D01*
X130535435Y-118581847D01*
X130529929Y-118465083D01*
X130526000Y-118446110D01*
X130526000Y-117168911D01*
X131840742Y-117168911D01*
X131849001Y-117238700D01*
X131849001Y-117254025D01*
X131855276Y-117291726D01*
X131866876Y-117389728D01*
X131873434Y-117400818D01*
X131875593Y-117413785D01*
X131978505Y-117604514D01*
X132049374Y-117670025D01*
X133290562Y-118911214D01*
X133311850Y-118944183D01*
X133367039Y-118987691D01*
X133377874Y-118998527D01*
X133408987Y-119020761D01*
X133486474Y-119081846D01*
X133498951Y-119085050D01*
X133509644Y-119092691D01*
X133717281Y-119154787D01*
X133813684Y-119151000D01*
X141650549Y-119151000D01*
X141688911Y-119159259D01*
X141758693Y-119151000D01*
X141774026Y-119151000D01*
X141811757Y-119144720D01*
X141909729Y-119133124D01*
X141920816Y-119126567D01*
X141933783Y-119124409D01*
X142124514Y-119021496D01*
X142190025Y-118950627D01*
X143119558Y-118021095D01*
X143166233Y-118026000D01*
X143273767Y-118026000D01*
X143434492Y-118009107D01*
X143639610Y-117942460D01*
X143826389Y-117834624D01*
X143855000Y-117808862D01*
X143883611Y-117834624D01*
X144070390Y-117942460D01*
X144275508Y-118009107D01*
X144436233Y-118026000D01*
X144543767Y-118026000D01*
X144704492Y-118009107D01*
X144909610Y-117942460D01*
X145096389Y-117834624D01*
X145125000Y-117808862D01*
X145153611Y-117834624D01*
X145340390Y-117942460D01*
X145545508Y-118009107D01*
X145706233Y-118026000D01*
X145813767Y-118026000D01*
X145974492Y-118009107D01*
X146179610Y-117942460D01*
X146366389Y-117834624D01*
X146395000Y-117808862D01*
X146423611Y-117834624D01*
X146610390Y-117942460D01*
X146815508Y-118009107D01*
X146976233Y-118026000D01*
X147083767Y-118026000D01*
X147244492Y-118009107D01*
X147449610Y-117942460D01*
X147636389Y-117834624D01*
X147665000Y-117808862D01*
X147693611Y-117834624D01*
X147880390Y-117942460D01*
X148085508Y-118009107D01*
X148246233Y-118026000D01*
X148353767Y-118026000D01*
X148514492Y-118009107D01*
X148719610Y-117942460D01*
X148906389Y-117834624D01*
X148935000Y-117808862D01*
X148963611Y-117834624D01*
X149150390Y-117942460D01*
X149355508Y-118009107D01*
X149516233Y-118026000D01*
X149623767Y-118026000D01*
X149784492Y-118009107D01*
X149989610Y-117942460D01*
X150176389Y-117834624D01*
X150205000Y-117808862D01*
X150233611Y-117834624D01*
X150420390Y-117942460D01*
X150625508Y-118009107D01*
X150786233Y-118026000D01*
X150893767Y-118026000D01*
X151054492Y-118009107D01*
X151259610Y-117942460D01*
X151446389Y-117834624D01*
X151475000Y-117808862D01*
X151503611Y-117834624D01*
X151690390Y-117942460D01*
X151895508Y-118009107D01*
X152056233Y-118026000D01*
X152163767Y-118026000D01*
X152324492Y-118009107D01*
X152529610Y-117942460D01*
X152716389Y-117834624D01*
X152745000Y-117808862D01*
X152773611Y-117834624D01*
X152960390Y-117942460D01*
X153165508Y-118009107D01*
X153326233Y-118026000D01*
X153433767Y-118026000D01*
X153594492Y-118009107D01*
X153799610Y-117942460D01*
X153986389Y-117834624D01*
X154015000Y-117808862D01*
X154043611Y-117834624D01*
X154230390Y-117942460D01*
X154435508Y-118009107D01*
X154596233Y-118026000D01*
X154703767Y-118026000D01*
X154864492Y-118009107D01*
X155069610Y-117942460D01*
X155256389Y-117834624D01*
X155285000Y-117808862D01*
X155313611Y-117834624D01*
X155500390Y-117942460D01*
X155705508Y-118009107D01*
X155866233Y-118026000D01*
X155973767Y-118026000D01*
X156134492Y-118009107D01*
X156339610Y-117942460D01*
X156526389Y-117834624D01*
X156555000Y-117808862D01*
X156583611Y-117834624D01*
X156770390Y-117942460D01*
X156975508Y-118009107D01*
X157136233Y-118026000D01*
X157243767Y-118026000D01*
X157404492Y-118009107D01*
X157609610Y-117942460D01*
X157796389Y-117834624D01*
X157825000Y-117808862D01*
X157853611Y-117834624D01*
X158040390Y-117942460D01*
X158245508Y-118009107D01*
X158406233Y-118026000D01*
X158513767Y-118026000D01*
X158674492Y-118009107D01*
X158879610Y-117942460D01*
X159066389Y-117834624D01*
X159095000Y-117808862D01*
X159123611Y-117834624D01*
X159310390Y-117942460D01*
X159515508Y-118009107D01*
X159676233Y-118026000D01*
X159783767Y-118026000D01*
X159944492Y-118009107D01*
X160149610Y-117942460D01*
X160184911Y-117922079D01*
X160294765Y-117995480D01*
X160487590Y-118033836D01*
X161512410Y-118033836D01*
X161705235Y-117995480D01*
X161879225Y-117879225D01*
X161995480Y-117705235D01*
X162033836Y-117512410D01*
X162033836Y-116487590D01*
X161995480Y-116294765D01*
X161879225Y-116120775D01*
X161876000Y-116118620D01*
X161876000Y-114018000D01*
X163366164Y-114018000D01*
X163366164Y-114992410D01*
X163404520Y-115185235D01*
X163520775Y-115359225D01*
X163694765Y-115475480D01*
X163887590Y-115513836D01*
X164572000Y-115513836D01*
X164572000Y-114018000D01*
X164828000Y-114018000D01*
X164828000Y-115513836D01*
X165512410Y-115513836D01*
X165705235Y-115475480D01*
X165879225Y-115359225D01*
X165995480Y-115185235D01*
X166033836Y-114992410D01*
X166033836Y-114018000D01*
X164828000Y-114018000D01*
X164572000Y-114018000D01*
X163366164Y-114018000D01*
X161876000Y-114018000D01*
X161876000Y-112787590D01*
X163366164Y-112787590D01*
X163366164Y-113762000D01*
X164572000Y-113762000D01*
X164572000Y-112266164D01*
X164828000Y-112266164D01*
X164828000Y-113762000D01*
X166033836Y-113762000D01*
X166033836Y-112787590D01*
X165995480Y-112594765D01*
X165879225Y-112420775D01*
X165705235Y-112304520D01*
X165512410Y-112266164D01*
X164828000Y-112266164D01*
X164572000Y-112266164D01*
X163887590Y-112266164D01*
X163694765Y-112304520D01*
X163520775Y-112420775D01*
X163404520Y-112594765D01*
X163366164Y-112787590D01*
X161876000Y-112787590D01*
X161876000Y-110415500D01*
X166878502Y-110415500D01*
X166929348Y-110736532D01*
X167036451Y-110946733D01*
X167203267Y-111113549D01*
X167413468Y-111220652D01*
X167772000Y-111277436D01*
X167772000Y-110415500D01*
X168028000Y-110415500D01*
X168028000Y-111277436D01*
X168386532Y-111220652D01*
X168596733Y-111113549D01*
X168763549Y-110946733D01*
X168870652Y-110736532D01*
X168921498Y-110415500D01*
X168028000Y-110415500D01*
X167772000Y-110415500D01*
X166878502Y-110415500D01*
X161876000Y-110415500D01*
X161876000Y-106598139D01*
X161882147Y-106570975D01*
X161876000Y-106471905D01*
X161876000Y-106437174D01*
X161872199Y-106410624D01*
X161866609Y-106320533D01*
X161854487Y-106286954D01*
X161849425Y-106251610D01*
X161812062Y-106169433D01*
X161781273Y-106084148D01*
X161760554Y-106056148D01*
X161745568Y-106023189D01*
X161678993Y-105945926D01*
X161662534Y-105923683D01*
X161642980Y-105904130D01*
X161581775Y-105833098D01*
X161553845Y-105814995D01*
X160667087Y-104928237D01*
X160666609Y-104920533D01*
X160654487Y-104886954D01*
X160649425Y-104851610D01*
X160612062Y-104769433D01*
X160581273Y-104684148D01*
X160560554Y-104656148D01*
X160545568Y-104623189D01*
X160478986Y-104545917D01*
X160462534Y-104523683D01*
X160442975Y-104504125D01*
X160381773Y-104433097D01*
X160353844Y-104414995D01*
X159238825Y-103299976D01*
X159223960Y-103276416D01*
X159149537Y-103210688D01*
X159124999Y-103186149D01*
X159103555Y-103170078D01*
X159035884Y-103110313D01*
X159003563Y-103095138D01*
X158974996Y-103073728D01*
X158890470Y-103042040D01*
X158808392Y-103003505D01*
X158773939Y-102998357D01*
X158740041Y-102985648D01*
X158638331Y-102978090D01*
X158610965Y-102974000D01*
X158583307Y-102974000D01*
X158489807Y-102967052D01*
X158457258Y-102974000D01*
X158351699Y-102974000D01*
X158385883Y-102878000D01*
X154916752Y-102878000D01*
X154949433Y-102974000D01*
X154448139Y-102974000D01*
X154420975Y-102967853D01*
X154321905Y-102974000D01*
X154287174Y-102974000D01*
X154260624Y-102977801D01*
X154170533Y-102983391D01*
X154136954Y-102995513D01*
X154101610Y-103000575D01*
X154019433Y-103037938D01*
X153934148Y-103068727D01*
X153906148Y-103089446D01*
X153873189Y-103104432D01*
X153795912Y-103171019D01*
X153773685Y-103187465D01*
X153754137Y-103207014D01*
X153683098Y-103268225D01*
X153664993Y-103296158D01*
X153339391Y-103621760D01*
X153245073Y-103714931D01*
X153213152Y-103772400D01*
X153173728Y-103825005D01*
X153152538Y-103881527D01*
X153123232Y-103934289D01*
X153108725Y-103998403D01*
X153085648Y-104059960D01*
X153081175Y-104120151D01*
X153067853Y-104179024D01*
X153071924Y-104244632D01*
X153067052Y-104310193D01*
X153079654Y-104369228D01*
X153083391Y-104429466D01*
X153105712Y-104491296D01*
X153119436Y-104555587D01*
X153148096Y-104608704D01*
X153168727Y-104665851D01*
X153206409Y-104716774D01*
X153238589Y-104776416D01*
X153286232Y-104824645D01*
X153287476Y-104826326D01*
X153321766Y-104860615D01*
X153414936Y-104954932D01*
X153417513Y-104956363D01*
X153961179Y-105500030D01*
X153976039Y-105523583D01*
X154050446Y-105589297D01*
X154074999Y-105613851D01*
X154096460Y-105629936D01*
X154164116Y-105689687D01*
X154196431Y-105704859D01*
X154225003Y-105726272D01*
X154309525Y-105757957D01*
X154391607Y-105796495D01*
X154426063Y-105801644D01*
X154459960Y-105814351D01*
X154561667Y-105821910D01*
X154589034Y-105826000D01*
X154616705Y-105826000D01*
X154710192Y-105832947D01*
X154742736Y-105826000D01*
X154948300Y-105826000D01*
X154942263Y-105842955D01*
X154918329Y-106043670D01*
X154939458Y-106244699D01*
X155004600Y-106436052D01*
X155110516Y-106608216D01*
X155251943Y-106752637D01*
X155421853Y-106862136D01*
X155612217Y-106931422D01*
X155776397Y-106951000D01*
X157525755Y-106951000D01*
X157675876Y-106934161D01*
X157866769Y-106867686D01*
X158038191Y-106760570D01*
X158181620Y-106618137D01*
X158289930Y-106447468D01*
X158357737Y-106257045D01*
X158381671Y-106056330D01*
X158360542Y-105855301D01*
X158350567Y-105826000D01*
X159087151Y-105826000D01*
X159157017Y-105895866D01*
X159218226Y-105966902D01*
X159246153Y-105985003D01*
X160124001Y-106862852D01*
X160124000Y-116049219D01*
X159944492Y-115990893D01*
X159783767Y-115974000D01*
X159676233Y-115974000D01*
X159515508Y-115990893D01*
X159310390Y-116057540D01*
X159123611Y-116165376D01*
X159095000Y-116191138D01*
X159066389Y-116165376D01*
X158879610Y-116057540D01*
X158674492Y-115990893D01*
X158513767Y-115974000D01*
X158406233Y-115974000D01*
X158245508Y-115990893D01*
X158040390Y-116057540D01*
X157853611Y-116165376D01*
X157825000Y-116191138D01*
X157796389Y-116165376D01*
X157609610Y-116057540D01*
X157404492Y-115990893D01*
X157243767Y-115974000D01*
X157136233Y-115974000D01*
X156975508Y-115990893D01*
X156770390Y-116057540D01*
X156583611Y-116165376D01*
X156555000Y-116191138D01*
X156526389Y-116165376D01*
X156339610Y-116057540D01*
X156134492Y-115990893D01*
X155973767Y-115974000D01*
X155866233Y-115974000D01*
X155705508Y-115990893D01*
X155500390Y-116057540D01*
X155313611Y-116165376D01*
X155285000Y-116191138D01*
X155256389Y-116165376D01*
X155069610Y-116057540D01*
X154864492Y-115990893D01*
X154703767Y-115974000D01*
X154596233Y-115974000D01*
X154435508Y-115990893D01*
X154230390Y-116057540D01*
X154043611Y-116165376D01*
X154031000Y-116176731D01*
X154031000Y-115149451D01*
X154039259Y-115111089D01*
X154031000Y-115041307D01*
X154031000Y-115025973D01*
X154024718Y-114988236D01*
X154013124Y-114890270D01*
X154006566Y-114879182D01*
X154004408Y-114866216D01*
X153901496Y-114675486D01*
X153830639Y-114609986D01*
X153151000Y-113930348D01*
X153151000Y-111407227D01*
X153202532Y-111439930D01*
X153472000Y-111535883D01*
X153472000Y-109928000D01*
X153728000Y-109928000D01*
X153728000Y-111533248D01*
X153986051Y-111445400D01*
X154158214Y-111339484D01*
X154302637Y-111198057D01*
X154412136Y-111028147D01*
X154481422Y-110837783D01*
X154501000Y-110673603D01*
X154501000Y-109928000D01*
X153728000Y-109928000D01*
X153472000Y-109928000D01*
X153472000Y-109672000D01*
X153728000Y-109672000D01*
X154501000Y-109672000D01*
X154501000Y-108924245D01*
X154484161Y-108774124D01*
X154417686Y-108583231D01*
X154310570Y-108411809D01*
X154168137Y-108268380D01*
X153997468Y-108160070D01*
X153728000Y-108064117D01*
X153728000Y-109672000D01*
X153472000Y-109672000D01*
X153472000Y-108066752D01*
X153213949Y-108154600D01*
X153048874Y-108256155D01*
X152897468Y-108160070D01*
X152707045Y-108092263D01*
X152506330Y-108068329D01*
X152305302Y-108089458D01*
X152113949Y-108154600D01*
X151948874Y-108256155D01*
X151797468Y-108160070D01*
X151607045Y-108092263D01*
X151406330Y-108068329D01*
X151205302Y-108089458D01*
X151013949Y-108154600D01*
X150848874Y-108256155D01*
X150697468Y-108160070D01*
X150507045Y-108092263D01*
X150306330Y-108068329D01*
X150105302Y-108089458D01*
X149913949Y-108154600D01*
X149748874Y-108256155D01*
X149597468Y-108160070D01*
X149407045Y-108092263D01*
X149206330Y-108068329D01*
X149005302Y-108089458D01*
X148813949Y-108154600D01*
X148648874Y-108256155D01*
X148497468Y-108160070D01*
X148307045Y-108092263D01*
X148106330Y-108068329D01*
X147905302Y-108089458D01*
X147713949Y-108154600D01*
X147548874Y-108256155D01*
X147397468Y-108160070D01*
X147207045Y-108092263D01*
X147006330Y-108068329D01*
X146805302Y-108089458D01*
X146613949Y-108154600D01*
X146448874Y-108256155D01*
X146297468Y-108160070D01*
X146107045Y-108092263D01*
X145906330Y-108068329D01*
X145705302Y-108089458D01*
X145513949Y-108154600D01*
X145348874Y-108256155D01*
X145197468Y-108160070D01*
X145007045Y-108092263D01*
X144806330Y-108068329D01*
X144605302Y-108089458D01*
X144413949Y-108154600D01*
X144241785Y-108260516D01*
X144097364Y-108401943D01*
X143987865Y-108571853D01*
X143949975Y-108675955D01*
X143917686Y-108583231D01*
X143810570Y-108411809D01*
X143668137Y-108268380D01*
X143497468Y-108160070D01*
X143307045Y-108092263D01*
X143106330Y-108068329D01*
X142905302Y-108089458D01*
X142713949Y-108154600D01*
X142548874Y-108256155D01*
X142397468Y-108160070D01*
X142207045Y-108092263D01*
X142006330Y-108068329D01*
X141805302Y-108089458D01*
X141613949Y-108154600D01*
X141448874Y-108256155D01*
X141297468Y-108160070D01*
X141107045Y-108092263D01*
X140906330Y-108068329D01*
X140705302Y-108089458D01*
X140513949Y-108154600D01*
X140348874Y-108256155D01*
X140197468Y-108160070D01*
X140007045Y-108092263D01*
X139806330Y-108068329D01*
X139605302Y-108089458D01*
X139413949Y-108154600D01*
X139351000Y-108193327D01*
X139351000Y-108010232D01*
X139446907Y-107874022D01*
X139524022Y-107637386D01*
X139526295Y-107377016D01*
X139453321Y-107139069D01*
X139313890Y-106933519D01*
X139120184Y-106778053D01*
X138889327Y-106686417D01*
X138641731Y-106666712D01*
X138502006Y-106697817D01*
X138453321Y-106539069D01*
X138313890Y-106333519D01*
X138120184Y-106178053D01*
X137889327Y-106086417D01*
X137796088Y-106078997D01*
X137796386Y-106078000D01*
X139716164Y-106078000D01*
X139716164Y-106462410D01*
X139754520Y-106655235D01*
X139870775Y-106829225D01*
X140044765Y-106945480D01*
X140237590Y-106983836D01*
X140622000Y-106983836D01*
X140622000Y-106078000D01*
X139716164Y-106078000D01*
X137796386Y-106078000D01*
X137854787Y-105882719D01*
X137851890Y-105808968D01*
X137946907Y-105674022D01*
X138024022Y-105437386D01*
X138026295Y-105177016D01*
X137953321Y-104939069D01*
X137813890Y-104733519D01*
X137620184Y-104578053D01*
X137389327Y-104486417D01*
X137141731Y-104466712D01*
X136899287Y-104520684D01*
X136683430Y-104643556D01*
X136513245Y-104824469D01*
X136403779Y-105047424D01*
X136364710Y-105292710D01*
X136399492Y-105538642D01*
X136444609Y-105634739D01*
X132088791Y-109990558D01*
X132055817Y-110011849D01*
X132012305Y-110067043D01*
X132001473Y-110077875D01*
X131979238Y-110108989D01*
X131918154Y-110186475D01*
X131914950Y-110198953D01*
X131907310Y-110209644D01*
X131845213Y-110417282D01*
X131849000Y-110513674D01*
X131849001Y-117130546D01*
X131840742Y-117168911D01*
X130526000Y-117168911D01*
X130526000Y-104729024D01*
X130617853Y-104729024D01*
X130633391Y-104979466D01*
X130718727Y-105215851D01*
X130837466Y-105376316D01*
X130961175Y-105500024D01*
X130976040Y-105523584D01*
X131050463Y-105589312D01*
X131075001Y-105613851D01*
X131096445Y-105629922D01*
X131164116Y-105689687D01*
X131196437Y-105704862D01*
X131225004Y-105726272D01*
X131309530Y-105757960D01*
X131391608Y-105796495D01*
X131426061Y-105801643D01*
X131459959Y-105814352D01*
X131561669Y-105821910D01*
X131589035Y-105826000D01*
X131616693Y-105826000D01*
X131647486Y-105828288D01*
X131642263Y-105842955D01*
X131618329Y-106043670D01*
X131639458Y-106244699D01*
X131704600Y-106436052D01*
X131810516Y-106608216D01*
X131951943Y-106752637D01*
X132121853Y-106862136D01*
X132312217Y-106931422D01*
X132476397Y-106951000D01*
X134225755Y-106951000D01*
X134375876Y-106934161D01*
X134566769Y-106867686D01*
X134738191Y-106760570D01*
X134881620Y-106618137D01*
X134989930Y-106447468D01*
X135057737Y-106257045D01*
X135081671Y-106056330D01*
X135060542Y-105855301D01*
X134995400Y-105663948D01*
X134893845Y-105498873D01*
X134989930Y-105347468D01*
X135057737Y-105157045D01*
X135081671Y-104956330D01*
X135060542Y-104755301D01*
X134995400Y-104563948D01*
X134893845Y-104398873D01*
X134989930Y-104247468D01*
X135057737Y-104057045D01*
X135081671Y-103856330D01*
X135060542Y-103655301D01*
X134995400Y-103463948D01*
X134893845Y-103298873D01*
X134989930Y-103147468D01*
X135057737Y-102957045D01*
X135081671Y-102756330D01*
X135073439Y-102678000D01*
X136316164Y-102678000D01*
X136316164Y-103062410D01*
X136354520Y-103255235D01*
X136470775Y-103429225D01*
X136644765Y-103545480D01*
X136837590Y-103583836D01*
X137222000Y-103583836D01*
X137222000Y-102678000D01*
X136316164Y-102678000D01*
X135073439Y-102678000D01*
X135060542Y-102555301D01*
X134995400Y-102363948D01*
X134893845Y-102198873D01*
X134989930Y-102047468D01*
X135057737Y-101857045D01*
X135081671Y-101656330D01*
X135060542Y-101455301D01*
X134995400Y-101263948D01*
X134893845Y-101098873D01*
X134989930Y-100947468D01*
X135057737Y-100757045D01*
X135081671Y-100556330D01*
X135060542Y-100355301D01*
X134995400Y-100163948D01*
X134889484Y-99991784D01*
X134748057Y-99847363D01*
X134578147Y-99737864D01*
X134387783Y-99668578D01*
X134223603Y-99649000D01*
X132474245Y-99649000D01*
X132324124Y-99665839D01*
X132133231Y-99732314D01*
X131961809Y-99839430D01*
X131818380Y-99981863D01*
X131710070Y-100152532D01*
X131642263Y-100342955D01*
X131618329Y-100543670D01*
X131639458Y-100744699D01*
X131704600Y-100936052D01*
X131806155Y-101101127D01*
X131710070Y-101252532D01*
X131642263Y-101442955D01*
X131618329Y-101643670D01*
X131639458Y-101844699D01*
X131704600Y-102036052D01*
X131806155Y-102201127D01*
X131710070Y-102352532D01*
X131642263Y-102542955D01*
X131618329Y-102743670D01*
X131639458Y-102944699D01*
X131704600Y-103136052D01*
X131806155Y-103301127D01*
X131710070Y-103452532D01*
X131642263Y-103642955D01*
X131618329Y-103843670D01*
X131627508Y-103931001D01*
X131439807Y-103917052D01*
X131194412Y-103969436D01*
X130973584Y-104088590D01*
X130795073Y-104264931D01*
X130673232Y-104484288D01*
X130617853Y-104729024D01*
X130526000Y-104729024D01*
X130526000Y-93643670D01*
X131618329Y-93643670D01*
X131639458Y-93844699D01*
X131704600Y-94036052D01*
X131806155Y-94201127D01*
X131710070Y-94352532D01*
X131642263Y-94542955D01*
X131618329Y-94743670D01*
X131639458Y-94944699D01*
X131704600Y-95136052D01*
X131806155Y-95301127D01*
X131710070Y-95452532D01*
X131642263Y-95642955D01*
X131618329Y-95843670D01*
X131639458Y-96044699D01*
X131704600Y-96236052D01*
X131806155Y-96401127D01*
X131710070Y-96552532D01*
X131642263Y-96742955D01*
X131618329Y-96943670D01*
X131639458Y-97144699D01*
X131704600Y-97336052D01*
X131806155Y-97501127D01*
X131710070Y-97652532D01*
X131642263Y-97842955D01*
X131618329Y-98043670D01*
X131639458Y-98244699D01*
X131704600Y-98436052D01*
X131810516Y-98608216D01*
X131951943Y-98752637D01*
X132121853Y-98862136D01*
X132312217Y-98931422D01*
X132476397Y-98951000D01*
X134225755Y-98951000D01*
X134375876Y-98934161D01*
X134566769Y-98867686D01*
X134738190Y-98760570D01*
X134798178Y-98701000D01*
X134905553Y-98701000D01*
X134943915Y-98709259D01*
X135013697Y-98701000D01*
X135029030Y-98701000D01*
X135066761Y-98694720D01*
X135164733Y-98683124D01*
X135175820Y-98676567D01*
X135188787Y-98674409D01*
X135379518Y-98571496D01*
X135445042Y-98500613D01*
X136316164Y-97629491D01*
X136316164Y-97962410D01*
X136354520Y-98155235D01*
X136451248Y-98300000D01*
X136354520Y-98444765D01*
X136316164Y-98637590D01*
X136316164Y-99022000D01*
X137478000Y-99022000D01*
X137478000Y-99278000D01*
X136316164Y-99278000D01*
X136316164Y-99662410D01*
X136354520Y-99855235D01*
X136451248Y-100000000D01*
X136354520Y-100144765D01*
X136316164Y-100337590D01*
X136316164Y-100722000D01*
X137478000Y-100722000D01*
X137478000Y-100978000D01*
X136316164Y-100978000D01*
X136316164Y-101362410D01*
X136354520Y-101555235D01*
X136451248Y-101700000D01*
X136354520Y-101844765D01*
X136316164Y-102037590D01*
X136316164Y-102422000D01*
X137478000Y-102422000D01*
X137478000Y-103583836D01*
X137862410Y-103583836D01*
X138055235Y-103545480D01*
X138200000Y-103448752D01*
X138344765Y-103545480D01*
X138537590Y-103583836D01*
X139562410Y-103583836D01*
X139754342Y-103545658D01*
X139716164Y-103737590D01*
X139716164Y-104762410D01*
X139754520Y-104955235D01*
X139851248Y-105100000D01*
X139754520Y-105244765D01*
X139716164Y-105437590D01*
X139716164Y-105822000D01*
X140878000Y-105822000D01*
X140878000Y-106983836D01*
X141262410Y-106983836D01*
X141455235Y-106945480D01*
X141600000Y-106848752D01*
X141744765Y-106945480D01*
X141937590Y-106983836D01*
X142322000Y-106983836D01*
X142322000Y-105822000D01*
X142578000Y-105822000D01*
X142578000Y-106983836D01*
X142962410Y-106983836D01*
X143155235Y-106945480D01*
X143300000Y-106848752D01*
X143444765Y-106945480D01*
X143637590Y-106983836D01*
X144662410Y-106983836D01*
X144855235Y-106945480D01*
X145000000Y-106848752D01*
X145144765Y-106945480D01*
X145337590Y-106983836D01*
X146362410Y-106983836D01*
X146555235Y-106945480D01*
X146700000Y-106848752D01*
X146844765Y-106945480D01*
X147037590Y-106983836D01*
X148062410Y-106983836D01*
X148255235Y-106945480D01*
X148400000Y-106848752D01*
X148544765Y-106945480D01*
X148737590Y-106983836D01*
X149762410Y-106983836D01*
X149955235Y-106945480D01*
X150129225Y-106829225D01*
X150245480Y-106655235D01*
X150283836Y-106462410D01*
X150283836Y-105437590D01*
X150245480Y-105244765D01*
X150148752Y-105100000D01*
X150245480Y-104955235D01*
X150283836Y-104762410D01*
X150283836Y-103737590D01*
X150245658Y-103545658D01*
X150437590Y-103583836D01*
X151462410Y-103583836D01*
X151655235Y-103545480D01*
X151800000Y-103448752D01*
X151944765Y-103545480D01*
X152137590Y-103583836D01*
X152522000Y-103583836D01*
X152522000Y-102678000D01*
X152778000Y-102678000D01*
X152778000Y-103583836D01*
X153162410Y-103583836D01*
X153355235Y-103545480D01*
X153529225Y-103429225D01*
X153645480Y-103255235D01*
X153683836Y-103062410D01*
X153683836Y-102678000D01*
X152778000Y-102678000D01*
X152522000Y-102678000D01*
X152522000Y-102622000D01*
X154914117Y-102622000D01*
X158383248Y-102622000D01*
X158295400Y-102363948D01*
X158193845Y-102198873D01*
X158289930Y-102047468D01*
X158385883Y-101778000D01*
X154916752Y-101778000D01*
X155004600Y-102036052D01*
X155106155Y-102201127D01*
X155010070Y-102352532D01*
X154914117Y-102622000D01*
X152522000Y-102622000D01*
X152522000Y-102422000D01*
X153683836Y-102422000D01*
X153683836Y-102037590D01*
X153645480Y-101844765D01*
X153548752Y-101700000D01*
X153645480Y-101555235D01*
X153683836Y-101362410D01*
X153683836Y-100978000D01*
X152522000Y-100978000D01*
X152522000Y-100722000D01*
X153683836Y-100722000D01*
X153683836Y-100337590D01*
X153645480Y-100144765D01*
X153548752Y-100000000D01*
X153645480Y-99855235D01*
X153683836Y-99662410D01*
X153683836Y-99278000D01*
X152522000Y-99278000D01*
X152522000Y-99022000D01*
X153581877Y-99022000D01*
X153581877Y-98871841D01*
X153584760Y-98876518D01*
X153637047Y-98916278D01*
X153994768Y-99274000D01*
X153853347Y-99274000D01*
X154490565Y-99911219D01*
X154511850Y-99944183D01*
X154567035Y-99987688D01*
X154577874Y-99998528D01*
X154608989Y-100020762D01*
X154686474Y-100081846D01*
X154698951Y-100085050D01*
X154709644Y-100092691D01*
X154917281Y-100154787D01*
X155010975Y-100151106D01*
X155010070Y-100152532D01*
X154942263Y-100342955D01*
X154918329Y-100543670D01*
X154939458Y-100744699D01*
X155004600Y-100936052D01*
X155106155Y-101101127D01*
X155010070Y-101252532D01*
X154914117Y-101522000D01*
X158383248Y-101522000D01*
X158295400Y-101263948D01*
X158193845Y-101098873D01*
X158289930Y-100947468D01*
X158357737Y-100757045D01*
X158381671Y-100556330D01*
X158360542Y-100355301D01*
X158295400Y-100163948D01*
X158287434Y-100151000D01*
X161060349Y-100151000D01*
X163995512Y-103086164D01*
X163887590Y-103086164D01*
X163694765Y-103124520D01*
X163520775Y-103240775D01*
X163404520Y-103414765D01*
X163366164Y-103607590D01*
X163366164Y-105812410D01*
X163404520Y-106005235D01*
X163520775Y-106179225D01*
X163694765Y-106295480D01*
X163887590Y-106333836D01*
X164413185Y-106333836D01*
X166894014Y-108814666D01*
X166894014Y-108938439D01*
X166929348Y-109161533D01*
X167036451Y-109371733D01*
X167164718Y-109500000D01*
X167036451Y-109628267D01*
X166929348Y-109838468D01*
X166878502Y-110159500D01*
X168921498Y-110159500D01*
X168870652Y-109838468D01*
X168763549Y-109628267D01*
X168635282Y-109500000D01*
X168763549Y-109371733D01*
X168870652Y-109161533D01*
X168905986Y-108938439D01*
X168905986Y-108486561D01*
X168870652Y-108263467D01*
X168763549Y-108053267D01*
X168596733Y-107886451D01*
X168386533Y-107779348D01*
X168163439Y-107744014D01*
X167664666Y-107744014D01*
X165967605Y-106046954D01*
X165995480Y-106005235D01*
X166033836Y-105812410D01*
X166033836Y-103607590D01*
X165995480Y-103414765D01*
X165879225Y-103240775D01*
X165705235Y-103124520D01*
X165512410Y-103086164D01*
X165351000Y-103086164D01*
X165351000Y-102939455D01*
X165359260Y-102901089D01*
X165351000Y-102831300D01*
X165351000Y-102815974D01*
X165344722Y-102778257D01*
X165333124Y-102680269D01*
X165326566Y-102669181D01*
X165324408Y-102656216D01*
X165221496Y-102465486D01*
X165150626Y-102399974D01*
X162024651Y-99274000D01*
X161883230Y-99274000D01*
X161784756Y-99175526D01*
X161780003Y-99165801D01*
X161711311Y-99102081D01*
X161683441Y-99074210D01*
X161675090Y-99068481D01*
X161624802Y-99021832D01*
X161594147Y-99012955D01*
X161557092Y-98987535D01*
X161357380Y-98940142D01*
X161292297Y-98949000D01*
X155228232Y-98949000D01*
X154551000Y-98271769D01*
X154551000Y-97078000D01*
X154989630Y-97078000D01*
X155157648Y-97403532D01*
X155241989Y-97500214D01*
X155162434Y-97589504D01*
X155071716Y-97760841D01*
X155024487Y-97948872D01*
X155023471Y-98142740D01*
X155068730Y-98331255D01*
X155157648Y-98503532D01*
X155285095Y-98649627D01*
X155443710Y-98761102D01*
X155624650Y-98831648D01*
X155777834Y-98851000D01*
X157523559Y-98851000D01*
X157667467Y-98833586D01*
X157848822Y-98765056D01*
X158008597Y-98655247D01*
X158137566Y-98510496D01*
X158228284Y-98339159D01*
X158275513Y-98151128D01*
X158276529Y-97957260D01*
X158231270Y-97768745D01*
X158142352Y-97596468D01*
X158058011Y-97499786D01*
X158086331Y-97468000D01*
X165436123Y-97468000D01*
X165436123Y-98114410D01*
X165466718Y-98268217D01*
X165560871Y-98409129D01*
X165701783Y-98503282D01*
X165855590Y-98533877D01*
X167772000Y-98533877D01*
X167772000Y-97468000D01*
X165436123Y-97468000D01*
X158086331Y-97468000D01*
X158137566Y-97410496D01*
X158313614Y-97078000D01*
X154989630Y-97078000D01*
X154551000Y-97078000D01*
X154551000Y-96822000D01*
X154986386Y-96822000D01*
X158310370Y-96822000D01*
X158145724Y-96503000D01*
X158582506Y-96503000D01*
X158613729Y-96753487D01*
X158699203Y-96948350D01*
X158845126Y-97106864D01*
X159034611Y-97209408D01*
X159372000Y-97265708D01*
X159372000Y-96503000D01*
X159628000Y-96503000D01*
X159628000Y-97259670D01*
X159915987Y-97223771D01*
X160110850Y-97138297D01*
X160269364Y-96992374D01*
X160371908Y-96802889D01*
X160419865Y-96515500D01*
X163182506Y-96515500D01*
X163213729Y-96765987D01*
X163299203Y-96960850D01*
X163445126Y-97119364D01*
X163634611Y-97221908D01*
X163972000Y-97278208D01*
X163972000Y-96515500D01*
X164228000Y-96515500D01*
X164228000Y-97272170D01*
X164515987Y-97236271D01*
X164710850Y-97150797D01*
X164869364Y-97004874D01*
X164971908Y-96815389D01*
X165013592Y-96565590D01*
X165436123Y-96565590D01*
X165436123Y-97212000D01*
X167772000Y-97212000D01*
X167772000Y-96146123D01*
X165855590Y-96146123D01*
X165701783Y-96176718D01*
X165560871Y-96270871D01*
X165466718Y-96411783D01*
X165436123Y-96565590D01*
X165013592Y-96565590D01*
X165021951Y-96515500D01*
X164228000Y-96515500D01*
X163972000Y-96515500D01*
X163182506Y-96515500D01*
X160419865Y-96515500D01*
X160421951Y-96503000D01*
X159628000Y-96503000D01*
X159372000Y-96503000D01*
X158582506Y-96503000D01*
X158145724Y-96503000D01*
X158142352Y-96496468D01*
X158058011Y-96399786D01*
X158137566Y-96310496D01*
X158313614Y-95978000D01*
X154989630Y-95978000D01*
X155157648Y-96303532D01*
X155241989Y-96400214D01*
X155162434Y-96489504D01*
X154986386Y-96822000D01*
X154551000Y-96822000D01*
X154551000Y-96192118D01*
X154554514Y-96181884D01*
X154551000Y-96088291D01*
X154551000Y-96048846D01*
X154549146Y-96038889D01*
X154546572Y-95970340D01*
X154531174Y-95942389D01*
X154522946Y-95898211D01*
X154415241Y-95723481D01*
X154362949Y-95683718D01*
X153172082Y-94492852D01*
X153170511Y-94349859D01*
X152342652Y-93522000D01*
X154986386Y-93522000D01*
X156522000Y-93522000D01*
X156522000Y-92849000D01*
X156778000Y-92849000D01*
X156778000Y-93522000D01*
X158310370Y-93522000D01*
X158142352Y-93196468D01*
X158014905Y-93050373D01*
X157856290Y-92938898D01*
X157675350Y-92868352D01*
X157522166Y-92849000D01*
X156778000Y-92849000D01*
X156522000Y-92849000D01*
X155776441Y-92849000D01*
X155632533Y-92866414D01*
X155451178Y-92934944D01*
X155291403Y-93044753D01*
X155162434Y-93189504D01*
X154986386Y-93522000D01*
X152342652Y-93522000D01*
X151209442Y-92388791D01*
X151208932Y-92388000D01*
X165436123Y-92388000D01*
X165436123Y-93034410D01*
X165466718Y-93188217D01*
X165560871Y-93329129D01*
X165701783Y-93423282D01*
X165855590Y-93453877D01*
X167772000Y-93453877D01*
X167772000Y-92388000D01*
X165436123Y-92388000D01*
X151208932Y-92388000D01*
X151188151Y-92355817D01*
X151132956Y-92312304D01*
X151122124Y-92301472D01*
X151091020Y-92279244D01*
X151013529Y-92218156D01*
X151001049Y-92214951D01*
X150990355Y-92207309D01*
X150782718Y-92145213D01*
X150686326Y-92149000D01*
X139754689Y-92149000D01*
X139469446Y-91863757D01*
X139592955Y-91907737D01*
X139793670Y-91931671D01*
X139994698Y-91910542D01*
X140186051Y-91845400D01*
X140351126Y-91743845D01*
X140502532Y-91839930D01*
X140692955Y-91907737D01*
X140893670Y-91931671D01*
X141094698Y-91910542D01*
X141286051Y-91845400D01*
X141451126Y-91743845D01*
X141602532Y-91839930D01*
X141792955Y-91907737D01*
X141993670Y-91931671D01*
X142194698Y-91910542D01*
X142386051Y-91845400D01*
X142551126Y-91743845D01*
X142702532Y-91839930D01*
X142892955Y-91907737D01*
X143093670Y-91931671D01*
X143294698Y-91910542D01*
X143486051Y-91845400D01*
X143658214Y-91739484D01*
X143802637Y-91598057D01*
X143912136Y-91428147D01*
X143950025Y-91324046D01*
X143982314Y-91416768D01*
X144089430Y-91588189D01*
X144231863Y-91731620D01*
X144402532Y-91839930D01*
X144592955Y-91907737D01*
X144793670Y-91931671D01*
X144994698Y-91910542D01*
X145186051Y-91845400D01*
X145351126Y-91743845D01*
X145502532Y-91839930D01*
X145692955Y-91907737D01*
X145893670Y-91931671D01*
X146094698Y-91910542D01*
X146286051Y-91845400D01*
X146451126Y-91743845D01*
X146602532Y-91839930D01*
X146792955Y-91907737D01*
X146993670Y-91931671D01*
X147194698Y-91910542D01*
X147386051Y-91845400D01*
X147551126Y-91743845D01*
X147702532Y-91839930D01*
X147892955Y-91907737D01*
X148093670Y-91931671D01*
X148294698Y-91910542D01*
X148486051Y-91845400D01*
X148651126Y-91743845D01*
X148802532Y-91839930D01*
X148992955Y-91907737D01*
X149193670Y-91931671D01*
X149394698Y-91910542D01*
X149586051Y-91845400D01*
X149751126Y-91743845D01*
X149902532Y-91839930D01*
X150092955Y-91907737D01*
X150293670Y-91931671D01*
X150494698Y-91910542D01*
X150686051Y-91845400D01*
X150851126Y-91743845D01*
X151002532Y-91839930D01*
X151192955Y-91907737D01*
X151393670Y-91931671D01*
X151594698Y-91910542D01*
X151786051Y-91845400D01*
X151951126Y-91743845D01*
X152102532Y-91839930D01*
X152372000Y-91935883D01*
X152372000Y-91933248D01*
X152628000Y-91933248D01*
X152886051Y-91845400D01*
X153051126Y-91743845D01*
X153142512Y-91801840D01*
X153141266Y-91688498D01*
X153310841Y-91778284D01*
X153498872Y-91825513D01*
X153692739Y-91826529D01*
X153881254Y-91781270D01*
X154053531Y-91692352D01*
X154199626Y-91564906D01*
X154255369Y-91485590D01*
X165436123Y-91485590D01*
X165436123Y-92132000D01*
X167772000Y-92132000D01*
X167772000Y-91066123D01*
X165855590Y-91066123D01*
X165701783Y-91096718D01*
X165560871Y-91190871D01*
X165466718Y-91331783D01*
X165436123Y-91485590D01*
X154255369Y-91485590D01*
X154311102Y-91406290D01*
X154381648Y-91225350D01*
X154401000Y-91072166D01*
X154401000Y-90426000D01*
X154501000Y-90426000D01*
X154501000Y-89324245D01*
X154484161Y-89174124D01*
X154417686Y-88983231D01*
X154310570Y-88811809D01*
X154168137Y-88668380D01*
X153997468Y-88560070D01*
X153807045Y-88492263D01*
X153606330Y-88468329D01*
X153405302Y-88489458D01*
X153213949Y-88554600D01*
X153048874Y-88656155D01*
X152897468Y-88560070D01*
X152628000Y-88464117D01*
X152628000Y-91933248D01*
X152372000Y-91933248D01*
X152372000Y-88466752D01*
X152113949Y-88554600D01*
X151948874Y-88656155D01*
X151797468Y-88560070D01*
X151607045Y-88492263D01*
X151406330Y-88468329D01*
X151205302Y-88489458D01*
X151013949Y-88554600D01*
X150848874Y-88656155D01*
X150697468Y-88560070D01*
X150507045Y-88492263D01*
X150306330Y-88468329D01*
X150105302Y-88489458D01*
X149913949Y-88554600D01*
X149748874Y-88656155D01*
X149597468Y-88560070D01*
X149407045Y-88492263D01*
X149206330Y-88468329D01*
X149005302Y-88489458D01*
X148813949Y-88554600D01*
X148648874Y-88656155D01*
X148497468Y-88560070D01*
X148307045Y-88492263D01*
X148106330Y-88468329D01*
X147905302Y-88489458D01*
X147713949Y-88554600D01*
X147548874Y-88656155D01*
X147397468Y-88560070D01*
X147207045Y-88492263D01*
X147006330Y-88468329D01*
X146805302Y-88489458D01*
X146613949Y-88554600D01*
X146448874Y-88656155D01*
X146297468Y-88560070D01*
X146107045Y-88492263D01*
X145906330Y-88468329D01*
X145705302Y-88489458D01*
X145513949Y-88554600D01*
X145348874Y-88656155D01*
X145197468Y-88560070D01*
X145007045Y-88492263D01*
X144806330Y-88468329D01*
X144605302Y-88489458D01*
X144413949Y-88554600D01*
X144241785Y-88660516D01*
X144097364Y-88801943D01*
X143987865Y-88971853D01*
X143949975Y-89075955D01*
X143917686Y-88983231D01*
X143810570Y-88811809D01*
X143668137Y-88668380D01*
X143497468Y-88560070D01*
X143307045Y-88492263D01*
X143106330Y-88468329D01*
X142905302Y-88489458D01*
X142713949Y-88554600D01*
X142548874Y-88656155D01*
X142397468Y-88560070D01*
X142207045Y-88492263D01*
X142006330Y-88468329D01*
X141805302Y-88489458D01*
X141613949Y-88554600D01*
X141448874Y-88656155D01*
X141297468Y-88560070D01*
X141107045Y-88492263D01*
X140906330Y-88468329D01*
X140705302Y-88489458D01*
X140513949Y-88554600D01*
X140348874Y-88656155D01*
X140197468Y-88560070D01*
X140007045Y-88492263D01*
X139880234Y-88477142D01*
X140007520Y-88429171D01*
X140108480Y-88351000D01*
X140990549Y-88351000D01*
X141028911Y-88359259D01*
X141098693Y-88351000D01*
X141114026Y-88351000D01*
X141151757Y-88344720D01*
X141249729Y-88333124D01*
X141260816Y-88326567D01*
X141273783Y-88324409D01*
X141464514Y-88221496D01*
X141530038Y-88150613D01*
X145659557Y-84021095D01*
X145706233Y-84026000D01*
X145813767Y-84026000D01*
X145974492Y-84009107D01*
X146179610Y-83942460D01*
X146366389Y-83834624D01*
X146395000Y-83808862D01*
X146423611Y-83834624D01*
X146610390Y-83942460D01*
X146815508Y-84009107D01*
X146976233Y-84026000D01*
X147083767Y-84026000D01*
X147244492Y-84009107D01*
X147449610Y-83942460D01*
X147636389Y-83834624D01*
X147665000Y-83808862D01*
X147693611Y-83834624D01*
X147880390Y-83942460D01*
X148085508Y-84009107D01*
X148246233Y-84026000D01*
X148353767Y-84026000D01*
X148514492Y-84009107D01*
X148719610Y-83942460D01*
X148906389Y-83834624D01*
X148935000Y-83808862D01*
X148963611Y-83834624D01*
X149150390Y-83942460D01*
X149355508Y-84009107D01*
X149516233Y-84026000D01*
X149623767Y-84026000D01*
X149784492Y-84009107D01*
X149989610Y-83942460D01*
X150176389Y-83834624D01*
X150205000Y-83808862D01*
X150233611Y-83834624D01*
X150420390Y-83942460D01*
X150625508Y-84009107D01*
X150786233Y-84026000D01*
X150893767Y-84026000D01*
X151054492Y-84009107D01*
X151259610Y-83942460D01*
X151446389Y-83834624D01*
X151475000Y-83808862D01*
X151503611Y-83834624D01*
X151690390Y-83942460D01*
X151895508Y-84009107D01*
X152056233Y-84026000D01*
X152163767Y-84026000D01*
X152324492Y-84009107D01*
X152529610Y-83942460D01*
X152716389Y-83834624D01*
X152745000Y-83808862D01*
X152773611Y-83834624D01*
X152960390Y-83942460D01*
X153165508Y-84009107D01*
X153326233Y-84026000D01*
X153433767Y-84026000D01*
X153594492Y-84009107D01*
X153799610Y-83942460D01*
X153986389Y-83834624D01*
X154015000Y-83808862D01*
X154043611Y-83834624D01*
X154230390Y-83942460D01*
X154435508Y-84009107D01*
X154596233Y-84026000D01*
X154703767Y-84026000D01*
X154864492Y-84009107D01*
X155069610Y-83942460D01*
X155256389Y-83834624D01*
X155285000Y-83808862D01*
X155313611Y-83834624D01*
X155500390Y-83942460D01*
X155705508Y-84009107D01*
X155866233Y-84026000D01*
X155973767Y-84026000D01*
X156134492Y-84009107D01*
X156339610Y-83942460D01*
X156526389Y-83834624D01*
X156555000Y-83808862D01*
X156583611Y-83834624D01*
X156770390Y-83942460D01*
X156975508Y-84009107D01*
X157136233Y-84026000D01*
X157243767Y-84026000D01*
X157404492Y-84009107D01*
X157609610Y-83942460D01*
X157796389Y-83834624D01*
X157825000Y-83808862D01*
X157853611Y-83834624D01*
X158040390Y-83942460D01*
X158245508Y-84009107D01*
X158406233Y-84026000D01*
X158513767Y-84026000D01*
X158674492Y-84009107D01*
X158879610Y-83942460D01*
X159066389Y-83834624D01*
X159095000Y-83808862D01*
X159123611Y-83834624D01*
X159310390Y-83942460D01*
X159515508Y-84009107D01*
X159676233Y-84026000D01*
X159783767Y-84026000D01*
X159944492Y-84009107D01*
X160149610Y-83942460D01*
X160184911Y-83922079D01*
X160294765Y-83995480D01*
X160487590Y-84033836D01*
X161512410Y-84033836D01*
X161705235Y-83995480D01*
X161879225Y-83879225D01*
X161995480Y-83705235D01*
X162033836Y-83512410D01*
X162033836Y-82487590D01*
X161995480Y-82294765D01*
X161879225Y-82120775D01*
X161705235Y-82004520D01*
X161512410Y-81966164D01*
X160487590Y-81966164D01*
X160294765Y-82004520D01*
X160184911Y-82077921D01*
X160149610Y-82057540D01*
X159944492Y-81990893D01*
X159783767Y-81974000D01*
X159676233Y-81974000D01*
X159515508Y-81990893D01*
X159310390Y-82057540D01*
X159123611Y-82165376D01*
X159095000Y-82191138D01*
X159066389Y-82165376D01*
X158879610Y-82057540D01*
X158674492Y-81990893D01*
X158513767Y-81974000D01*
X158406233Y-81974000D01*
X158245508Y-81990893D01*
X158040390Y-82057540D01*
X157853611Y-82165376D01*
X157825000Y-82191138D01*
X157796389Y-82165376D01*
X157609610Y-82057540D01*
X157404492Y-81990893D01*
X157243767Y-81974000D01*
X157136233Y-81974000D01*
X156975508Y-81990893D01*
X156770390Y-82057540D01*
X156583611Y-82165376D01*
X156555000Y-82191138D01*
X156526389Y-82165376D01*
X156339610Y-82057540D01*
X156134492Y-81990893D01*
X155973767Y-81974000D01*
X155866233Y-81974000D01*
X155705508Y-81990893D01*
X155500390Y-82057540D01*
X155313611Y-82165376D01*
X155285000Y-82191138D01*
X155256389Y-82165376D01*
X155069610Y-82057540D01*
X154864492Y-81990893D01*
X154703767Y-81974000D01*
X154596233Y-81974000D01*
X154435508Y-81990893D01*
X154230390Y-82057540D01*
X154043611Y-82165376D01*
X154015000Y-82191138D01*
X153986389Y-82165376D01*
X153799610Y-82057540D01*
X153594492Y-81990893D01*
X153433767Y-81974000D01*
X153326233Y-81974000D01*
X153165508Y-81990893D01*
X152960390Y-82057540D01*
X152773611Y-82165376D01*
X152745000Y-82191138D01*
X152716389Y-82165376D01*
X152529610Y-82057540D01*
X152324492Y-81990893D01*
X152163767Y-81974000D01*
X152056233Y-81974000D01*
X151895508Y-81990893D01*
X151690390Y-82057540D01*
X151503611Y-82165376D01*
X151475000Y-82191138D01*
X151446389Y-82165376D01*
X151259610Y-82057540D01*
X151054492Y-81990893D01*
X150893767Y-81974000D01*
X150786233Y-81974000D01*
X150625508Y-81990893D01*
X150420390Y-82057540D01*
X150233611Y-82165376D01*
X150205000Y-82191138D01*
X150176389Y-82165376D01*
X149989610Y-82057540D01*
X149784492Y-81990893D01*
X149623767Y-81974000D01*
X149516233Y-81974000D01*
X149355508Y-81990893D01*
X149150390Y-82057540D01*
X148963611Y-82165376D01*
X148935000Y-82191138D01*
X148906389Y-82165376D01*
X148719610Y-82057540D01*
X148514492Y-81990893D01*
X148353767Y-81974000D01*
X148246233Y-81974000D01*
X148085508Y-81990893D01*
X147880390Y-82057540D01*
X147693611Y-82165376D01*
X147665000Y-82191138D01*
X147636389Y-82165376D01*
X147449610Y-82057540D01*
X147244492Y-81990893D01*
X147083767Y-81974000D01*
X146976233Y-81974000D01*
X146815508Y-81990893D01*
X146610390Y-82057540D01*
X146423611Y-82165376D01*
X146395000Y-82191138D01*
X146366389Y-82165376D01*
X146179610Y-82057540D01*
X145974492Y-81990893D01*
X145813767Y-81974000D01*
X145706233Y-81974000D01*
X145545508Y-81990893D01*
X145340390Y-82057540D01*
X145153611Y-82165376D01*
X145125000Y-82191138D01*
X145096389Y-82165376D01*
X144909610Y-82057540D01*
X144704492Y-81990893D01*
X144543767Y-81974000D01*
X144436233Y-81974000D01*
X144275508Y-81990893D01*
X144070390Y-82057540D01*
X143883611Y-82165376D01*
X143855000Y-82191138D01*
X143826389Y-82165376D01*
X143639610Y-82057540D01*
X143434492Y-81990893D01*
X143273767Y-81974000D01*
X143166233Y-81974000D01*
X143005508Y-81990893D01*
X142800390Y-82057540D01*
X142613611Y-82165376D01*
X142585000Y-82191138D01*
X142556389Y-82165376D01*
X142369610Y-82057540D01*
X142164492Y-81990893D01*
X142003767Y-81974000D01*
X141896233Y-81974000D01*
X141735508Y-81990893D01*
X141530390Y-82057540D01*
X141343611Y-82165376D01*
X141315000Y-82191138D01*
X141286389Y-82165376D01*
X141099610Y-82057540D01*
X140894492Y-81990893D01*
X140733767Y-81974000D01*
X140626233Y-81974000D01*
X140465508Y-81990893D01*
X140260390Y-82057540D01*
X140073611Y-82165376D01*
X140045000Y-82191138D01*
X140016389Y-82165376D01*
X139829610Y-82057540D01*
X139624492Y-81990893D01*
X139463767Y-81974000D01*
X139356233Y-81974000D01*
X139195508Y-81990893D01*
X138990390Y-82057540D01*
X138803611Y-82165376D01*
X138775000Y-82191138D01*
X138746389Y-82165376D01*
X138559610Y-82057540D01*
X138354492Y-81990893D01*
X138193767Y-81974000D01*
X138086233Y-81974000D01*
X137925508Y-81990893D01*
X137720390Y-82057540D01*
X137533611Y-82165376D01*
X137505000Y-82191138D01*
X137476389Y-82165376D01*
X137289610Y-82057540D01*
X137084492Y-81990893D01*
X136923767Y-81974000D01*
X136816233Y-81974000D01*
X136655508Y-81990893D01*
X136450390Y-82057540D01*
X136263611Y-82165376D01*
X136235000Y-82191138D01*
X136206389Y-82165376D01*
X136019610Y-82057540D01*
X135814492Y-81990893D01*
X135653767Y-81974000D01*
X135546233Y-81974000D01*
X135385508Y-81990893D01*
X135180390Y-82057540D01*
X134993611Y-82165376D01*
X134965000Y-82191138D01*
X134936389Y-82165376D01*
X134749610Y-82057540D01*
X134544492Y-81990893D01*
X134383767Y-81974000D01*
X134276233Y-81974000D01*
X134115508Y-81990893D01*
X133910390Y-82057540D01*
X133723611Y-82165376D01*
X133563334Y-82309691D01*
X133436564Y-82484174D01*
X133348842Y-82681202D01*
X133304000Y-82892163D01*
X133304000Y-83107837D01*
X133348842Y-83318798D01*
X133436564Y-83515825D01*
X133563334Y-83690309D01*
X133723611Y-83834624D01*
X133910390Y-83942460D01*
X134115508Y-84009107D01*
X134276233Y-84026000D01*
X134383767Y-84026000D01*
X134544492Y-84009107D01*
X134749610Y-83942460D01*
X134936389Y-83834624D01*
X134965000Y-83808862D01*
X134993611Y-83834624D01*
X135180390Y-83942460D01*
X135385508Y-84009107D01*
X135546233Y-84026000D01*
X135653767Y-84026000D01*
X135814492Y-84009107D01*
X136019610Y-83942460D01*
X136206389Y-83834624D01*
X136235000Y-83808862D01*
X136263611Y-83834624D01*
X136450390Y-83942460D01*
X136655508Y-84009107D01*
X136816233Y-84026000D01*
X136923767Y-84026000D01*
X137084492Y-84009107D01*
X137289610Y-83942460D01*
X137476389Y-83834624D01*
X137505000Y-83808862D01*
X137533611Y-83834624D01*
X137720390Y-83942460D01*
X137925508Y-84009107D01*
X138086233Y-84026000D01*
X138193767Y-84026000D01*
X138354492Y-84009107D01*
X138559610Y-83942460D01*
X138746389Y-83834624D01*
X138775000Y-83808862D01*
X138803611Y-83834624D01*
X138880394Y-83878955D01*
X137188788Y-85570561D01*
X137155818Y-85591849D01*
X137112309Y-85647039D01*
X137101472Y-85657876D01*
X137079234Y-85688995D01*
X137018155Y-85766474D01*
X137014951Y-85778951D01*
X137007310Y-85789644D01*
X136945213Y-85997282D01*
X136949000Y-86093674D01*
X136949000Y-86249000D01*
X135336851Y-86249000D01*
X135313549Y-86203267D01*
X135146733Y-86036451D01*
X134936533Y-85929348D01*
X134713439Y-85894014D01*
X134261561Y-85894014D01*
X134224349Y-85899908D01*
X134226295Y-85677016D01*
X134153321Y-85439069D01*
X134013890Y-85233519D01*
X133820184Y-85078053D01*
X133589327Y-84986417D01*
X133341731Y-84966712D01*
X133099287Y-85020684D01*
X132883430Y-85143556D01*
X132713245Y-85324469D01*
X132603779Y-85547424D01*
X132579501Y-85699846D01*
X132501285Y-85778063D01*
X132468318Y-85799349D01*
X132424809Y-85854539D01*
X132413972Y-85865376D01*
X132391734Y-85896495D01*
X132330655Y-85973974D01*
X132327452Y-85986450D01*
X132319810Y-85997143D01*
X132317904Y-86003517D01*
X132253267Y-86036451D01*
X132086451Y-86203267D01*
X131979348Y-86413467D01*
X131944014Y-86636561D01*
X131944014Y-87163439D01*
X131979348Y-87386533D01*
X132086451Y-87596733D01*
X132253267Y-87763549D01*
X132463467Y-87870652D01*
X132686561Y-87905986D01*
X133138439Y-87905986D01*
X133361533Y-87870652D01*
X133571733Y-87763549D01*
X133700000Y-87635282D01*
X133828267Y-87763549D01*
X134038467Y-87870652D01*
X134261561Y-87905986D01*
X134713439Y-87905986D01*
X134936533Y-87870652D01*
X135146733Y-87763549D01*
X135313549Y-87596733D01*
X135336851Y-87551000D01*
X136949001Y-87551000D01*
X136949000Y-88592773D01*
X136897468Y-88560070D01*
X136707045Y-88492263D01*
X136506330Y-88468329D01*
X136305302Y-88489458D01*
X136113949Y-88554600D01*
X135941785Y-88660516D01*
X135797364Y-88801943D01*
X135687865Y-88971853D01*
X135618579Y-89162217D01*
X135599001Y-89326397D01*
X135599000Y-91075754D01*
X135615839Y-91225875D01*
X135682314Y-91416768D01*
X135789430Y-91588189D01*
X135931863Y-91731620D01*
X136102532Y-91839930D01*
X136292955Y-91907737D01*
X136493670Y-91931671D01*
X136694698Y-91910542D01*
X136886051Y-91845400D01*
X137051126Y-91743845D01*
X137202532Y-91839930D01*
X137392955Y-91907737D01*
X137593670Y-91931671D01*
X137686318Y-91921934D01*
X138169449Y-92405065D01*
X138099287Y-92420684D01*
X137883430Y-92543556D01*
X137713245Y-92724469D01*
X137603779Y-92947424D01*
X137564710Y-93192710D01*
X137599492Y-93438642D01*
X137705051Y-93663474D01*
X137749001Y-93711860D01*
X137749000Y-94355352D01*
X137325405Y-94778947D01*
X137326295Y-94677016D01*
X137253321Y-94439069D01*
X137113890Y-94233519D01*
X136920184Y-94078053D01*
X136689327Y-93986417D01*
X136441731Y-93966712D01*
X136199287Y-94020684D01*
X136061704Y-94099000D01*
X134957227Y-94099000D01*
X134989930Y-94047468D01*
X135057737Y-93857045D01*
X135081671Y-93656330D01*
X135060542Y-93455301D01*
X134995400Y-93263948D01*
X134889484Y-93091784D01*
X134748057Y-92947363D01*
X134578147Y-92837864D01*
X134387783Y-92768578D01*
X134223603Y-92749000D01*
X132474245Y-92749000D01*
X132324124Y-92765839D01*
X132133231Y-92832314D01*
X131961809Y-92939430D01*
X131818380Y-93081863D01*
X131710070Y-93252532D01*
X131642263Y-93442955D01*
X131618329Y-93643670D01*
X130526000Y-93643670D01*
X130526000Y-81563187D01*
X130528388Y-81553392D01*
X130545765Y-81342031D01*
X130584380Y-81188297D01*
X130647585Y-81042936D01*
X130670179Y-81008011D01*
X131007301Y-80670889D01*
X131103511Y-80617778D01*
X131252930Y-80564866D01*
X131418151Y-80535435D01*
X131534917Y-80529929D01*
X131553890Y-80526000D01*
X168436813Y-80526000D01*
X168446608Y-80528388D01*
G37*
D22*
X168446608Y-80528388D02*
X168657969Y-80545765D01*
X168811703Y-80584380D01*
X168957064Y-80647585D01*
X168991989Y-80670179D01*
X169329111Y-81007301D01*
X169382222Y-81103511D01*
X169435134Y-81252930D01*
X169464565Y-81418151D01*
X169470071Y-81534917D01*
X169474001Y-81553894D01*
X169474001Y-90426000D01*
X169574001Y-90426000D01*
X169574001Y-91066123D01*
X168028000Y-91066123D01*
X168028000Y-93453877D01*
X169574001Y-93453877D01*
X169574001Y-93733123D01*
X167972893Y-93733123D01*
X167951280Y-93729000D01*
X162535135Y-93729000D01*
X162334046Y-93754404D01*
X162082452Y-93854017D01*
X161863533Y-94013070D01*
X161809104Y-94078863D01*
X161647020Y-93926657D01*
X161406355Y-93794350D01*
X161063780Y-93729000D01*
X158332625Y-93729000D01*
X158131536Y-93754404D01*
X158071938Y-93778000D01*
X154989630Y-93778000D01*
X155157648Y-94103532D01*
X155241989Y-94200214D01*
X155162434Y-94289504D01*
X155071716Y-94460841D01*
X155024487Y-94648872D01*
X155023471Y-94842740D01*
X155068730Y-95031255D01*
X155157648Y-95203532D01*
X155241989Y-95300214D01*
X155162434Y-95389504D01*
X154986386Y-95722000D01*
X157853985Y-95722000D01*
X158006145Y-95805650D01*
X158348720Y-95871000D01*
X158669281Y-95871000D01*
X158628092Y-95947111D01*
X158578049Y-96247000D01*
X160417494Y-96247000D01*
X160386271Y-95996513D01*
X160331216Y-95871000D01*
X161079875Y-95871000D01*
X161280964Y-95845596D01*
X161532558Y-95745983D01*
X161751477Y-95586930D01*
X161805906Y-95521137D01*
X161967990Y-95673343D01*
X162208655Y-95805650D01*
X162551230Y-95871000D01*
X163276046Y-95871000D01*
X163228092Y-95959611D01*
X163178049Y-96259500D01*
X165017494Y-96259500D01*
X164986271Y-96009013D01*
X164925733Y-95871000D01*
X167967375Y-95871000D01*
X168000009Y-95866877D01*
X169574001Y-95866877D01*
X169574001Y-96146123D01*
X168028000Y-96146123D01*
X168028000Y-98533877D01*
X169574001Y-98533877D01*
X169574001Y-99274000D01*
X169474001Y-99274000D01*
X169474000Y-118436812D01*
X169471612Y-118446607D01*
X169454235Y-118657969D01*
X169415619Y-118811708D01*
X169352417Y-118957061D01*
X169329821Y-118991989D01*
X168992700Y-119329110D01*
X168896490Y-119382221D01*
X168747068Y-119435134D01*
X168581847Y-119464565D01*
X168465083Y-119470071D01*
X168446110Y-119474000D01*
X131563188Y-119474000D01*
X131553393Y-119471612D01*
X131342031Y-119454235D01*
X131188292Y-119415619D01*
X131042939Y-119352417D01*
X131008011Y-119329821D01*
X130670890Y-118992700D01*
X130617779Y-118896490D01*
X130564866Y-118747068D01*
X130535435Y-118581847D01*
X130529929Y-118465083D01*
X130526000Y-118446110D01*
X130526000Y-117168911D01*
X131840742Y-117168911D01*
X131849001Y-117238700D01*
X131849001Y-117254025D01*
X131855276Y-117291726D01*
X131866876Y-117389728D01*
X131873434Y-117400818D01*
X131875593Y-117413785D01*
X131978505Y-117604514D01*
X132049374Y-117670025D01*
X133290562Y-118911214D01*
X133311850Y-118944183D01*
X133367039Y-118987691D01*
X133377874Y-118998527D01*
X133408987Y-119020761D01*
X133486474Y-119081846D01*
X133498951Y-119085050D01*
X133509644Y-119092691D01*
X133717281Y-119154787D01*
X133813684Y-119151000D01*
X141650549Y-119151000D01*
X141688911Y-119159259D01*
X141758693Y-119151000D01*
X141774026Y-119151000D01*
X141811757Y-119144720D01*
X141909729Y-119133124D01*
X141920816Y-119126567D01*
X141933783Y-119124409D01*
X142124514Y-119021496D01*
X142190025Y-118950627D01*
X143119558Y-118021095D01*
X143166233Y-118026000D01*
X143273767Y-118026000D01*
X143434492Y-118009107D01*
X143639610Y-117942460D01*
X143826389Y-117834624D01*
X143855000Y-117808862D01*
X143883611Y-117834624D01*
X144070390Y-117942460D01*
X144275508Y-118009107D01*
X144436233Y-118026000D01*
X144543767Y-118026000D01*
X144704492Y-118009107D01*
X144909610Y-117942460D01*
X145096389Y-117834624D01*
X145125000Y-117808862D01*
X145153611Y-117834624D01*
X145340390Y-117942460D01*
X145545508Y-118009107D01*
X145706233Y-118026000D01*
X145813767Y-118026000D01*
X145974492Y-118009107D01*
X146179610Y-117942460D01*
X146366389Y-117834624D01*
X146395000Y-117808862D01*
X146423611Y-117834624D01*
X146610390Y-117942460D01*
X146815508Y-118009107D01*
X146976233Y-118026000D01*
X147083767Y-118026000D01*
X147244492Y-118009107D01*
X147449610Y-117942460D01*
X147636389Y-117834624D01*
X147665000Y-117808862D01*
X147693611Y-117834624D01*
X147880390Y-117942460D01*
X148085508Y-118009107D01*
X148246233Y-118026000D01*
X148353767Y-118026000D01*
X148514492Y-118009107D01*
X148719610Y-117942460D01*
X148906389Y-117834624D01*
X148935000Y-117808862D01*
X148963611Y-117834624D01*
X149150390Y-117942460D01*
X149355508Y-118009107D01*
X149516233Y-118026000D01*
X149623767Y-118026000D01*
X149784492Y-118009107D01*
X149989610Y-117942460D01*
X150176389Y-117834624D01*
X150205000Y-117808862D01*
X150233611Y-117834624D01*
X150420390Y-117942460D01*
X150625508Y-118009107D01*
X150786233Y-118026000D01*
X150893767Y-118026000D01*
X151054492Y-118009107D01*
X151259610Y-117942460D01*
X151446389Y-117834624D01*
X151475000Y-117808862D01*
X151503611Y-117834624D01*
X151690390Y-117942460D01*
X151895508Y-118009107D01*
X152056233Y-118026000D01*
X152163767Y-118026000D01*
X152324492Y-118009107D01*
X152529610Y-117942460D01*
X152716389Y-117834624D01*
X152745000Y-117808862D01*
X152773611Y-117834624D01*
X152960390Y-117942460D01*
X153165508Y-118009107D01*
X153326233Y-118026000D01*
X153433767Y-118026000D01*
X153594492Y-118009107D01*
X153799610Y-117942460D01*
X153986389Y-117834624D01*
X154015000Y-117808862D01*
X154043611Y-117834624D01*
X154230390Y-117942460D01*
X154435508Y-118009107D01*
X154596233Y-118026000D01*
X154703767Y-118026000D01*
X154864492Y-118009107D01*
X155069610Y-117942460D01*
X155256389Y-117834624D01*
X155285000Y-117808862D01*
X155313611Y-117834624D01*
X155500390Y-117942460D01*
X155705508Y-118009107D01*
X155866233Y-118026000D01*
X155973767Y-118026000D01*
X156134492Y-118009107D01*
X156339610Y-117942460D01*
X156526389Y-117834624D01*
X156555000Y-117808862D01*
X156583611Y-117834624D01*
X156770390Y-117942460D01*
X156975508Y-118009107D01*
X157136233Y-118026000D01*
X157243767Y-118026000D01*
X157404492Y-118009107D01*
X157609610Y-117942460D01*
X157796389Y-117834624D01*
X157825000Y-117808862D01*
X157853611Y-117834624D01*
X158040390Y-117942460D01*
X158245508Y-118009107D01*
X158406233Y-118026000D01*
X158513767Y-118026000D01*
X158674492Y-118009107D01*
X158879610Y-117942460D01*
X159066389Y-117834624D01*
X159095000Y-117808862D01*
X159123611Y-117834624D01*
X159310390Y-117942460D01*
X159515508Y-118009107D01*
X159676233Y-118026000D01*
X159783767Y-118026000D01*
X159944492Y-118009107D01*
X160149610Y-117942460D01*
X160184911Y-117922079D01*
X160294765Y-117995480D01*
X160487590Y-118033836D01*
X161512410Y-118033836D01*
X161705235Y-117995480D01*
X161879225Y-117879225D01*
X161995480Y-117705235D01*
X162033836Y-117512410D01*
X162033836Y-116487590D01*
X161995480Y-116294765D01*
X161879225Y-116120775D01*
X161876000Y-116118620D01*
X161876000Y-114018000D01*
X163366164Y-114018000D01*
X163366164Y-114992410D01*
X163404520Y-115185235D01*
X163520775Y-115359225D01*
X163694765Y-115475480D01*
X163887590Y-115513836D01*
X164572000Y-115513836D01*
X164572000Y-114018000D01*
X164828000Y-114018000D01*
X164828000Y-115513836D01*
X165512410Y-115513836D01*
X165705235Y-115475480D01*
X165879225Y-115359225D01*
X165995480Y-115185235D01*
X166033836Y-114992410D01*
X166033836Y-114018000D01*
X164828000Y-114018000D01*
X164572000Y-114018000D01*
X163366164Y-114018000D01*
X161876000Y-114018000D01*
X161876000Y-112787590D01*
X163366164Y-112787590D01*
X163366164Y-113762000D01*
X164572000Y-113762000D01*
X164572000Y-112266164D01*
X164828000Y-112266164D01*
X164828000Y-113762000D01*
X166033836Y-113762000D01*
X166033836Y-112787590D01*
X165995480Y-112594765D01*
X165879225Y-112420775D01*
X165705235Y-112304520D01*
X165512410Y-112266164D01*
X164828000Y-112266164D01*
X164572000Y-112266164D01*
X163887590Y-112266164D01*
X163694765Y-112304520D01*
X163520775Y-112420775D01*
X163404520Y-112594765D01*
X163366164Y-112787590D01*
X161876000Y-112787590D01*
X161876000Y-110415500D01*
X166878502Y-110415500D01*
X166929348Y-110736532D01*
X167036451Y-110946733D01*
X167203267Y-111113549D01*
X167413468Y-111220652D01*
X167772000Y-111277436D01*
X167772000Y-110415500D01*
X168028000Y-110415500D01*
X168028000Y-111277436D01*
X168386532Y-111220652D01*
X168596733Y-111113549D01*
X168763549Y-110946733D01*
X168870652Y-110736532D01*
X168921498Y-110415500D01*
X168028000Y-110415500D01*
X167772000Y-110415500D01*
X166878502Y-110415500D01*
X161876000Y-110415500D01*
X161876000Y-106598139D01*
X161882147Y-106570975D01*
X161876000Y-106471905D01*
X161876000Y-106437174D01*
X161872199Y-106410624D01*
X161866609Y-106320533D01*
X161854487Y-106286954D01*
X161849425Y-106251610D01*
X161812062Y-106169433D01*
X161781273Y-106084148D01*
X161760554Y-106056148D01*
X161745568Y-106023189D01*
X161678993Y-105945926D01*
X161662534Y-105923683D01*
X161642980Y-105904130D01*
X161581775Y-105833098D01*
X161553845Y-105814995D01*
X160667087Y-104928237D01*
X160666609Y-104920533D01*
X160654487Y-104886954D01*
X160649425Y-104851610D01*
X160612062Y-104769433D01*
X160581273Y-104684148D01*
X160560554Y-104656148D01*
X160545568Y-104623189D01*
X160478986Y-104545917D01*
X160462534Y-104523683D01*
X160442975Y-104504125D01*
X160381773Y-104433097D01*
X160353844Y-104414995D01*
X159238825Y-103299976D01*
X159223960Y-103276416D01*
X159149537Y-103210688D01*
X159124999Y-103186149D01*
X159103555Y-103170078D01*
X159035884Y-103110313D01*
X159003563Y-103095138D01*
X158974996Y-103073728D01*
X158890470Y-103042040D01*
X158808392Y-103003505D01*
X158773939Y-102998357D01*
X158740041Y-102985648D01*
X158638331Y-102978090D01*
X158610965Y-102974000D01*
X158583307Y-102974000D01*
X158489807Y-102967052D01*
X158457258Y-102974000D01*
X158351699Y-102974000D01*
X158385883Y-102878000D01*
X154916752Y-102878000D01*
X154949433Y-102974000D01*
X154448139Y-102974000D01*
X154420975Y-102967853D01*
X154321905Y-102974000D01*
X154287174Y-102974000D01*
X154260624Y-102977801D01*
X154170533Y-102983391D01*
X154136954Y-102995513D01*
X154101610Y-103000575D01*
X154019433Y-103037938D01*
X153934148Y-103068727D01*
X153906148Y-103089446D01*
X153873189Y-103104432D01*
X153795912Y-103171019D01*
X153773685Y-103187465D01*
X153754137Y-103207014D01*
X153683098Y-103268225D01*
X153664993Y-103296158D01*
X153339391Y-103621760D01*
X153245073Y-103714931D01*
X153213152Y-103772400D01*
X153173728Y-103825005D01*
X153152538Y-103881527D01*
X153123232Y-103934289D01*
X153108725Y-103998403D01*
X153085648Y-104059960D01*
X153081175Y-104120151D01*
X153067853Y-104179024D01*
X153071924Y-104244632D01*
X153067052Y-104310193D01*
X153079654Y-104369228D01*
X153083391Y-104429466D01*
X153105712Y-104491296D01*
X153119436Y-104555587D01*
X153148096Y-104608704D01*
X153168727Y-104665851D01*
X153206409Y-104716774D01*
X153238589Y-104776416D01*
X153286232Y-104824645D01*
X153287476Y-104826326D01*
X153321766Y-104860615D01*
X153414936Y-104954932D01*
X153417513Y-104956363D01*
X153961179Y-105500030D01*
X153976039Y-105523583D01*
X154050446Y-105589297D01*
X154074999Y-105613851D01*
X154096460Y-105629936D01*
X154164116Y-105689687D01*
X154196431Y-105704859D01*
X154225003Y-105726272D01*
X154309525Y-105757957D01*
X154391607Y-105796495D01*
X154426063Y-105801644D01*
X154459960Y-105814351D01*
X154561667Y-105821910D01*
X154589034Y-105826000D01*
X154616705Y-105826000D01*
X154710192Y-105832947D01*
X154742736Y-105826000D01*
X154948300Y-105826000D01*
X154942263Y-105842955D01*
X154918329Y-106043670D01*
X154939458Y-106244699D01*
X155004600Y-106436052D01*
X155110516Y-106608216D01*
X155251943Y-106752637D01*
X155421853Y-106862136D01*
X155612217Y-106931422D01*
X155776397Y-106951000D01*
X157525755Y-106951000D01*
X157675876Y-106934161D01*
X157866769Y-106867686D01*
X158038191Y-106760570D01*
X158181620Y-106618137D01*
X158289930Y-106447468D01*
X158357737Y-106257045D01*
X158381671Y-106056330D01*
X158360542Y-105855301D01*
X158350567Y-105826000D01*
X159087151Y-105826000D01*
X159157017Y-105895866D01*
X159218226Y-105966902D01*
X159246153Y-105985003D01*
X160124001Y-106862852D01*
X160124000Y-116049219D01*
X159944492Y-115990893D01*
X159783767Y-115974000D01*
X159676233Y-115974000D01*
X159515508Y-115990893D01*
X159310390Y-116057540D01*
X159123611Y-116165376D01*
X159095000Y-116191138D01*
X159066389Y-116165376D01*
X158879610Y-116057540D01*
X158674492Y-115990893D01*
X158513767Y-115974000D01*
X158406233Y-115974000D01*
X158245508Y-115990893D01*
X158040390Y-116057540D01*
X157853611Y-116165376D01*
X157825000Y-116191138D01*
X157796389Y-116165376D01*
X157609610Y-116057540D01*
X157404492Y-115990893D01*
X157243767Y-115974000D01*
X157136233Y-115974000D01*
X156975508Y-115990893D01*
X156770390Y-116057540D01*
X156583611Y-116165376D01*
X156555000Y-116191138D01*
X156526389Y-116165376D01*
X156339610Y-116057540D01*
X156134492Y-115990893D01*
X155973767Y-115974000D01*
X155866233Y-115974000D01*
X155705508Y-115990893D01*
X155500390Y-116057540D01*
X155313611Y-116165376D01*
X155285000Y-116191138D01*
X155256389Y-116165376D01*
X155069610Y-116057540D01*
X154864492Y-115990893D01*
X154703767Y-115974000D01*
X154596233Y-115974000D01*
X154435508Y-115990893D01*
X154230390Y-116057540D01*
X154043611Y-116165376D01*
X154031000Y-116176731D01*
X154031000Y-115149451D01*
X154039259Y-115111089D01*
X154031000Y-115041307D01*
X154031000Y-115025973D01*
X154024718Y-114988236D01*
X154013124Y-114890270D01*
X154006566Y-114879182D01*
X154004408Y-114866216D01*
X153901496Y-114675486D01*
X153830639Y-114609986D01*
X153151000Y-113930348D01*
X153151000Y-111407227D01*
X153202532Y-111439930D01*
X153472000Y-111535883D01*
X153472000Y-109928000D01*
X153728000Y-109928000D01*
X153728000Y-111533248D01*
X153986051Y-111445400D01*
X154158214Y-111339484D01*
X154302637Y-111198057D01*
X154412136Y-111028147D01*
X154481422Y-110837783D01*
X154501000Y-110673603D01*
X154501000Y-109928000D01*
X153728000Y-109928000D01*
X153472000Y-109928000D01*
X153472000Y-109672000D01*
X153728000Y-109672000D01*
X154501000Y-109672000D01*
X154501000Y-108924245D01*
X154484161Y-108774124D01*
X154417686Y-108583231D01*
X154310570Y-108411809D01*
X154168137Y-108268380D01*
X153997468Y-108160070D01*
X153728000Y-108064117D01*
X153728000Y-109672000D01*
X153472000Y-109672000D01*
X153472000Y-108066752D01*
X153213949Y-108154600D01*
X153048874Y-108256155D01*
X152897468Y-108160070D01*
X152707045Y-108092263D01*
X152506330Y-108068329D01*
X152305302Y-108089458D01*
X152113949Y-108154600D01*
X151948874Y-108256155D01*
X151797468Y-108160070D01*
X151607045Y-108092263D01*
X151406330Y-108068329D01*
X151205302Y-108089458D01*
X151013949Y-108154600D01*
X150848874Y-108256155D01*
X150697468Y-108160070D01*
X150507045Y-108092263D01*
X150306330Y-108068329D01*
X150105302Y-108089458D01*
X149913949Y-108154600D01*
X149748874Y-108256155D01*
X149597468Y-108160070D01*
X149407045Y-108092263D01*
X149206330Y-108068329D01*
X149005302Y-108089458D01*
X148813949Y-108154600D01*
X148648874Y-108256155D01*
X148497468Y-108160070D01*
X148307045Y-108092263D01*
X148106330Y-108068329D01*
X147905302Y-108089458D01*
X147713949Y-108154600D01*
X147548874Y-108256155D01*
X147397468Y-108160070D01*
X147207045Y-108092263D01*
X147006330Y-108068329D01*
X146805302Y-108089458D01*
X146613949Y-108154600D01*
X146448874Y-108256155D01*
X146297468Y-108160070D01*
X146107045Y-108092263D01*
X145906330Y-108068329D01*
X145705302Y-108089458D01*
X145513949Y-108154600D01*
X145348874Y-108256155D01*
X145197468Y-108160070D01*
X145007045Y-108092263D01*
X144806330Y-108068329D01*
X144605302Y-108089458D01*
X144413949Y-108154600D01*
X144241785Y-108260516D01*
X144097364Y-108401943D01*
X143987865Y-108571853D01*
X143949975Y-108675955D01*
X143917686Y-108583231D01*
X143810570Y-108411809D01*
X143668137Y-108268380D01*
X143497468Y-108160070D01*
X143307045Y-108092263D01*
X143106330Y-108068329D01*
X142905302Y-108089458D01*
X142713949Y-108154600D01*
X142548874Y-108256155D01*
X142397468Y-108160070D01*
X142207045Y-108092263D01*
X142006330Y-108068329D01*
X141805302Y-108089458D01*
X141613949Y-108154600D01*
X141448874Y-108256155D01*
X141297468Y-108160070D01*
X141107045Y-108092263D01*
X140906330Y-108068329D01*
X140705302Y-108089458D01*
X140513949Y-108154600D01*
X140348874Y-108256155D01*
X140197468Y-108160070D01*
X140007045Y-108092263D01*
X139806330Y-108068329D01*
X139605302Y-108089458D01*
X139413949Y-108154600D01*
X139351000Y-108193327D01*
X139351000Y-108010232D01*
X139446907Y-107874022D01*
X139524022Y-107637386D01*
X139526295Y-107377016D01*
X139453321Y-107139069D01*
X139313890Y-106933519D01*
X139120184Y-106778053D01*
X138889327Y-106686417D01*
X138641731Y-106666712D01*
X138502006Y-106697817D01*
X138453321Y-106539069D01*
X138313890Y-106333519D01*
X138120184Y-106178053D01*
X137889327Y-106086417D01*
X137796088Y-106078997D01*
X137796386Y-106078000D01*
X139716164Y-106078000D01*
X139716164Y-106462410D01*
X139754520Y-106655235D01*
X139870775Y-106829225D01*
X140044765Y-106945480D01*
X140237590Y-106983836D01*
X140622000Y-106983836D01*
X140622000Y-106078000D01*
X139716164Y-106078000D01*
X137796386Y-106078000D01*
X137854787Y-105882719D01*
X137851890Y-105808968D01*
X137946907Y-105674022D01*
X138024022Y-105437386D01*
X138026295Y-105177016D01*
X137953321Y-104939069D01*
X137813890Y-104733519D01*
X137620184Y-104578053D01*
X137389327Y-104486417D01*
X137141731Y-104466712D01*
X136899287Y-104520684D01*
X136683430Y-104643556D01*
X136513245Y-104824469D01*
X136403779Y-105047424D01*
X136364710Y-105292710D01*
X136399492Y-105538642D01*
X136444609Y-105634739D01*
X132088791Y-109990558D01*
X132055817Y-110011849D01*
X132012305Y-110067043D01*
X132001473Y-110077875D01*
X131979238Y-110108989D01*
X131918154Y-110186475D01*
X131914950Y-110198953D01*
X131907310Y-110209644D01*
X131845213Y-110417282D01*
X131849000Y-110513674D01*
X131849001Y-117130546D01*
X131840742Y-117168911D01*
X130526000Y-117168911D01*
X130526000Y-104729024D01*
X130617853Y-104729024D01*
X130633391Y-104979466D01*
X130718727Y-105215851D01*
X130837466Y-105376316D01*
X130961175Y-105500024D01*
X130976040Y-105523584D01*
X131050463Y-105589312D01*
X131075001Y-105613851D01*
X131096445Y-105629922D01*
X131164116Y-105689687D01*
X131196437Y-105704862D01*
X131225004Y-105726272D01*
X131309530Y-105757960D01*
X131391608Y-105796495D01*
X131426061Y-105801643D01*
X131459959Y-105814352D01*
X131561669Y-105821910D01*
X131589035Y-105826000D01*
X131616693Y-105826000D01*
X131647486Y-105828288D01*
X131642263Y-105842955D01*
X131618329Y-106043670D01*
X131639458Y-106244699D01*
X131704600Y-106436052D01*
X131810516Y-106608216D01*
X131951943Y-106752637D01*
X132121853Y-106862136D01*
X132312217Y-106931422D01*
X132476397Y-106951000D01*
X134225755Y-106951000D01*
X134375876Y-106934161D01*
X134566769Y-106867686D01*
X134738191Y-106760570D01*
X134881620Y-106618137D01*
X134989930Y-106447468D01*
X135057737Y-106257045D01*
X135081671Y-106056330D01*
X135060542Y-105855301D01*
X134995400Y-105663948D01*
X134893845Y-105498873D01*
X134989930Y-105347468D01*
X135057737Y-105157045D01*
X135081671Y-104956330D01*
X135060542Y-104755301D01*
X134995400Y-104563948D01*
X134893845Y-104398873D01*
X134989930Y-104247468D01*
X135057737Y-104057045D01*
X135081671Y-103856330D01*
X135060542Y-103655301D01*
X134995400Y-103463948D01*
X134893845Y-103298873D01*
X134989930Y-103147468D01*
X135057737Y-102957045D01*
X135081671Y-102756330D01*
X135073439Y-102678000D01*
X136316164Y-102678000D01*
X136316164Y-103062410D01*
X136354520Y-103255235D01*
X136470775Y-103429225D01*
X136644765Y-103545480D01*
X136837590Y-103583836D01*
X137222000Y-103583836D01*
X137222000Y-102678000D01*
X136316164Y-102678000D01*
X135073439Y-102678000D01*
X135060542Y-102555301D01*
X134995400Y-102363948D01*
X134893845Y-102198873D01*
X134989930Y-102047468D01*
X135057737Y-101857045D01*
X135081671Y-101656330D01*
X135060542Y-101455301D01*
X134995400Y-101263948D01*
X134893845Y-101098873D01*
X134989930Y-100947468D01*
X135057737Y-100757045D01*
X135081671Y-100556330D01*
X135060542Y-100355301D01*
X134995400Y-100163948D01*
X134889484Y-99991784D01*
X134748057Y-99847363D01*
X134578147Y-99737864D01*
X134387783Y-99668578D01*
X134223603Y-99649000D01*
X132474245Y-99649000D01*
X132324124Y-99665839D01*
X132133231Y-99732314D01*
X131961809Y-99839430D01*
X131818380Y-99981863D01*
X131710070Y-100152532D01*
X131642263Y-100342955D01*
X131618329Y-100543670D01*
X131639458Y-100744699D01*
X131704600Y-100936052D01*
X131806155Y-101101127D01*
X131710070Y-101252532D01*
X131642263Y-101442955D01*
X131618329Y-101643670D01*
X131639458Y-101844699D01*
X131704600Y-102036052D01*
X131806155Y-102201127D01*
X131710070Y-102352532D01*
X131642263Y-102542955D01*
X131618329Y-102743670D01*
X131639458Y-102944699D01*
X131704600Y-103136052D01*
X131806155Y-103301127D01*
X131710070Y-103452532D01*
X131642263Y-103642955D01*
X131618329Y-103843670D01*
X131627508Y-103931001D01*
X131439807Y-103917052D01*
X131194412Y-103969436D01*
X130973584Y-104088590D01*
X130795073Y-104264931D01*
X130673232Y-104484288D01*
X130617853Y-104729024D01*
X130526000Y-104729024D01*
X130526000Y-93643670D01*
X131618329Y-93643670D01*
X131639458Y-93844699D01*
X131704600Y-94036052D01*
X131806155Y-94201127D01*
X131710070Y-94352532D01*
X131642263Y-94542955D01*
X131618329Y-94743670D01*
X131639458Y-94944699D01*
X131704600Y-95136052D01*
X131806155Y-95301127D01*
X131710070Y-95452532D01*
X131642263Y-95642955D01*
X131618329Y-95843670D01*
X131639458Y-96044699D01*
X131704600Y-96236052D01*
X131806155Y-96401127D01*
X131710070Y-96552532D01*
X131642263Y-96742955D01*
X131618329Y-96943670D01*
X131639458Y-97144699D01*
X131704600Y-97336052D01*
X131806155Y-97501127D01*
X131710070Y-97652532D01*
X131642263Y-97842955D01*
X131618329Y-98043670D01*
X131639458Y-98244699D01*
X131704600Y-98436052D01*
X131810516Y-98608216D01*
X131951943Y-98752637D01*
X132121853Y-98862136D01*
X132312217Y-98931422D01*
X132476397Y-98951000D01*
X134225755Y-98951000D01*
X134375876Y-98934161D01*
X134566769Y-98867686D01*
X134738190Y-98760570D01*
X134798178Y-98701000D01*
X134905553Y-98701000D01*
X134943915Y-98709259D01*
X135013697Y-98701000D01*
X135029030Y-98701000D01*
X135066761Y-98694720D01*
X135164733Y-98683124D01*
X135175820Y-98676567D01*
X135188787Y-98674409D01*
X135379518Y-98571496D01*
X135445042Y-98500613D01*
X136316164Y-97629491D01*
X136316164Y-97962410D01*
X136354520Y-98155235D01*
X136451248Y-98300000D01*
X136354520Y-98444765D01*
X136316164Y-98637590D01*
X136316164Y-99022000D01*
X137478000Y-99022000D01*
X137478000Y-99278000D01*
X136316164Y-99278000D01*
X136316164Y-99662410D01*
X136354520Y-99855235D01*
X136451248Y-100000000D01*
X136354520Y-100144765D01*
X136316164Y-100337590D01*
X136316164Y-100722000D01*
X137478000Y-100722000D01*
X137478000Y-100978000D01*
X136316164Y-100978000D01*
X136316164Y-101362410D01*
X136354520Y-101555235D01*
X136451248Y-101700000D01*
X136354520Y-101844765D01*
X136316164Y-102037590D01*
X136316164Y-102422000D01*
X137478000Y-102422000D01*
X137478000Y-103583836D01*
X137862410Y-103583836D01*
X138055235Y-103545480D01*
X138200000Y-103448752D01*
X138344765Y-103545480D01*
X138537590Y-103583836D01*
X139562410Y-103583836D01*
X139754342Y-103545658D01*
X139716164Y-103737590D01*
X139716164Y-104762410D01*
X139754520Y-104955235D01*
X139851248Y-105100000D01*
X139754520Y-105244765D01*
X139716164Y-105437590D01*
X139716164Y-105822000D01*
X140878000Y-105822000D01*
X140878000Y-106983836D01*
X141262410Y-106983836D01*
X141455235Y-106945480D01*
X141600000Y-106848752D01*
X141744765Y-106945480D01*
X141937590Y-106983836D01*
X142322000Y-106983836D01*
X142322000Y-105822000D01*
X142578000Y-105822000D01*
X142578000Y-106983836D01*
X142962410Y-106983836D01*
X143155235Y-106945480D01*
X143300000Y-106848752D01*
X143444765Y-106945480D01*
X143637590Y-106983836D01*
X144662410Y-106983836D01*
X144855235Y-106945480D01*
X145000000Y-106848752D01*
X145144765Y-106945480D01*
X145337590Y-106983836D01*
X146362410Y-106983836D01*
X146555235Y-106945480D01*
X146700000Y-106848752D01*
X146844765Y-106945480D01*
X147037590Y-106983836D01*
X148062410Y-106983836D01*
X148255235Y-106945480D01*
X148400000Y-106848752D01*
X148544765Y-106945480D01*
X148737590Y-106983836D01*
X149762410Y-106983836D01*
X149955235Y-106945480D01*
X150129225Y-106829225D01*
X150245480Y-106655235D01*
X150283836Y-106462410D01*
X150283836Y-105437590D01*
X150245480Y-105244765D01*
X150148752Y-105100000D01*
X150245480Y-104955235D01*
X150283836Y-104762410D01*
X150283836Y-103737590D01*
X150245658Y-103545658D01*
X150437590Y-103583836D01*
X151462410Y-103583836D01*
X151655235Y-103545480D01*
X151800000Y-103448752D01*
X151944765Y-103545480D01*
X152137590Y-103583836D01*
X152522000Y-103583836D01*
X152522000Y-102678000D01*
X152778000Y-102678000D01*
X152778000Y-103583836D01*
X153162410Y-103583836D01*
X153355235Y-103545480D01*
X153529225Y-103429225D01*
X153645480Y-103255235D01*
X153683836Y-103062410D01*
X153683836Y-102678000D01*
X152778000Y-102678000D01*
X152522000Y-102678000D01*
X152522000Y-102622000D01*
X154914117Y-102622000D01*
X158383248Y-102622000D01*
X158295400Y-102363948D01*
X158193845Y-102198873D01*
X158289930Y-102047468D01*
X158385883Y-101778000D01*
X154916752Y-101778000D01*
X155004600Y-102036052D01*
X155106155Y-102201127D01*
X155010070Y-102352532D01*
X154914117Y-102622000D01*
X152522000Y-102622000D01*
X152522000Y-102422000D01*
X153683836Y-102422000D01*
X153683836Y-102037590D01*
X153645480Y-101844765D01*
X153548752Y-101700000D01*
X153645480Y-101555235D01*
X153683836Y-101362410D01*
X153683836Y-100978000D01*
X152522000Y-100978000D01*
X152522000Y-100722000D01*
X153683836Y-100722000D01*
X153683836Y-100337590D01*
X153645480Y-100144765D01*
X153548752Y-100000000D01*
X153645480Y-99855235D01*
X153683836Y-99662410D01*
X153683836Y-99278000D01*
X152522000Y-99278000D01*
X152522000Y-99022000D01*
X153581877Y-99022000D01*
X153581877Y-98871841D01*
X153584760Y-98876518D01*
X153637047Y-98916278D01*
X153994768Y-99274000D01*
X153853347Y-99274000D01*
X154490565Y-99911219D01*
X154511850Y-99944183D01*
X154567035Y-99987688D01*
X154577874Y-99998528D01*
X154608989Y-100020762D01*
X154686474Y-100081846D01*
X154698951Y-100085050D01*
X154709644Y-100092691D01*
X154917281Y-100154787D01*
X155010975Y-100151106D01*
X155010070Y-100152532D01*
X154942263Y-100342955D01*
X154918329Y-100543670D01*
X154939458Y-100744699D01*
X155004600Y-100936052D01*
X155106155Y-101101127D01*
X155010070Y-101252532D01*
X154914117Y-101522000D01*
X158383248Y-101522000D01*
X158295400Y-101263948D01*
X158193845Y-101098873D01*
X158289930Y-100947468D01*
X158357737Y-100757045D01*
X158381671Y-100556330D01*
X158360542Y-100355301D01*
X158295400Y-100163948D01*
X158287434Y-100151000D01*
X161060349Y-100151000D01*
X163995512Y-103086164D01*
X163887590Y-103086164D01*
X163694765Y-103124520D01*
X163520775Y-103240775D01*
X163404520Y-103414765D01*
X163366164Y-103607590D01*
X163366164Y-105812410D01*
X163404520Y-106005235D01*
X163520775Y-106179225D01*
X163694765Y-106295480D01*
X163887590Y-106333836D01*
X164413185Y-106333836D01*
X166894014Y-108814666D01*
X166894014Y-108938439D01*
X166929348Y-109161533D01*
X167036451Y-109371733D01*
X167164718Y-109500000D01*
X167036451Y-109628267D01*
X166929348Y-109838468D01*
X166878502Y-110159500D01*
X168921498Y-110159500D01*
X168870652Y-109838468D01*
X168763549Y-109628267D01*
X168635282Y-109500000D01*
X168763549Y-109371733D01*
X168870652Y-109161533D01*
X168905986Y-108938439D01*
X168905986Y-108486561D01*
X168870652Y-108263467D01*
X168763549Y-108053267D01*
X168596733Y-107886451D01*
X168386533Y-107779348D01*
X168163439Y-107744014D01*
X167664666Y-107744014D01*
X165967605Y-106046954D01*
X165995480Y-106005235D01*
X166033836Y-105812410D01*
X166033836Y-103607590D01*
X165995480Y-103414765D01*
X165879225Y-103240775D01*
X165705235Y-103124520D01*
X165512410Y-103086164D01*
X165351000Y-103086164D01*
X165351000Y-102939455D01*
X165359260Y-102901089D01*
X165351000Y-102831300D01*
X165351000Y-102815974D01*
X165344722Y-102778257D01*
X165333124Y-102680269D01*
X165326566Y-102669181D01*
X165324408Y-102656216D01*
X165221496Y-102465486D01*
X165150626Y-102399974D01*
X162024651Y-99274000D01*
X161883230Y-99274000D01*
X161784756Y-99175526D01*
X161780003Y-99165801D01*
X161711311Y-99102081D01*
X161683441Y-99074210D01*
X161675090Y-99068481D01*
X161624802Y-99021832D01*
X161594147Y-99012955D01*
X161557092Y-98987535D01*
X161357380Y-98940142D01*
X161292297Y-98949000D01*
X155228232Y-98949000D01*
X154551000Y-98271769D01*
X154551000Y-97078000D01*
X154989630Y-97078000D01*
X155157648Y-97403532D01*
X155241989Y-97500214D01*
X155162434Y-97589504D01*
X155071716Y-97760841D01*
X155024487Y-97948872D01*
X155023471Y-98142740D01*
X155068730Y-98331255D01*
X155157648Y-98503532D01*
X155285095Y-98649627D01*
X155443710Y-98761102D01*
X155624650Y-98831648D01*
X155777834Y-98851000D01*
X157523559Y-98851000D01*
X157667467Y-98833586D01*
X157848822Y-98765056D01*
X158008597Y-98655247D01*
X158137566Y-98510496D01*
X158228284Y-98339159D01*
X158275513Y-98151128D01*
X158276529Y-97957260D01*
X158231270Y-97768745D01*
X158142352Y-97596468D01*
X158058011Y-97499786D01*
X158086331Y-97468000D01*
X165436123Y-97468000D01*
X165436123Y-98114410D01*
X165466718Y-98268217D01*
X165560871Y-98409129D01*
X165701783Y-98503282D01*
X165855590Y-98533877D01*
X167772000Y-98533877D01*
X167772000Y-97468000D01*
X165436123Y-97468000D01*
X158086331Y-97468000D01*
X158137566Y-97410496D01*
X158313614Y-97078000D01*
X154989630Y-97078000D01*
X154551000Y-97078000D01*
X154551000Y-96822000D01*
X154986386Y-96822000D01*
X158310370Y-96822000D01*
X158145724Y-96503000D01*
X158582506Y-96503000D01*
X158613729Y-96753487D01*
X158699203Y-96948350D01*
X158845126Y-97106864D01*
X159034611Y-97209408D01*
X159372000Y-97265708D01*
X159372000Y-96503000D01*
X159628000Y-96503000D01*
X159628000Y-97259670D01*
X159915987Y-97223771D01*
X160110850Y-97138297D01*
X160269364Y-96992374D01*
X160371908Y-96802889D01*
X160419865Y-96515500D01*
X163182506Y-96515500D01*
X163213729Y-96765987D01*
X163299203Y-96960850D01*
X163445126Y-97119364D01*
X163634611Y-97221908D01*
X163972000Y-97278208D01*
X163972000Y-96515500D01*
X164228000Y-96515500D01*
X164228000Y-97272170D01*
X164515987Y-97236271D01*
X164710850Y-97150797D01*
X164869364Y-97004874D01*
X164971908Y-96815389D01*
X165013592Y-96565590D01*
X165436123Y-96565590D01*
X165436123Y-97212000D01*
X167772000Y-97212000D01*
X167772000Y-96146123D01*
X165855590Y-96146123D01*
X165701783Y-96176718D01*
X165560871Y-96270871D01*
X165466718Y-96411783D01*
X165436123Y-96565590D01*
X165013592Y-96565590D01*
X165021951Y-96515500D01*
X164228000Y-96515500D01*
X163972000Y-96515500D01*
X163182506Y-96515500D01*
X160419865Y-96515500D01*
X160421951Y-96503000D01*
X159628000Y-96503000D01*
X159372000Y-96503000D01*
X158582506Y-96503000D01*
X158145724Y-96503000D01*
X158142352Y-96496468D01*
X158058011Y-96399786D01*
X158137566Y-96310496D01*
X158313614Y-95978000D01*
X154989630Y-95978000D01*
X155157648Y-96303532D01*
X155241989Y-96400214D01*
X155162434Y-96489504D01*
X154986386Y-96822000D01*
X154551000Y-96822000D01*
X154551000Y-96192118D01*
X154554514Y-96181884D01*
X154551000Y-96088291D01*
X154551000Y-96048846D01*
X154549146Y-96038889D01*
X154546572Y-95970340D01*
X154531174Y-95942389D01*
X154522946Y-95898211D01*
X154415241Y-95723481D01*
X154362949Y-95683718D01*
X153172082Y-94492852D01*
X153170511Y-94349859D01*
X152342652Y-93522000D01*
X154986386Y-93522000D01*
X156522000Y-93522000D01*
X156522000Y-92849000D01*
X156778000Y-92849000D01*
X156778000Y-93522000D01*
X158310370Y-93522000D01*
X158142352Y-93196468D01*
X158014905Y-93050373D01*
X157856290Y-92938898D01*
X157675350Y-92868352D01*
X157522166Y-92849000D01*
X156778000Y-92849000D01*
X156522000Y-92849000D01*
X155776441Y-92849000D01*
X155632533Y-92866414D01*
X155451178Y-92934944D01*
X155291403Y-93044753D01*
X155162434Y-93189504D01*
X154986386Y-93522000D01*
X152342652Y-93522000D01*
X151209442Y-92388791D01*
X151208932Y-92388000D01*
X165436123Y-92388000D01*
X165436123Y-93034410D01*
X165466718Y-93188217D01*
X165560871Y-93329129D01*
X165701783Y-93423282D01*
X165855590Y-93453877D01*
X167772000Y-93453877D01*
X167772000Y-92388000D01*
X165436123Y-92388000D01*
X151208932Y-92388000D01*
X151188151Y-92355817D01*
X151132956Y-92312304D01*
X151122124Y-92301472D01*
X151091020Y-92279244D01*
X151013529Y-92218156D01*
X151001049Y-92214951D01*
X150990355Y-92207309D01*
X150782718Y-92145213D01*
X150686326Y-92149000D01*
X139754689Y-92149000D01*
X139469446Y-91863757D01*
X139592955Y-91907737D01*
X139793670Y-91931671D01*
X139994698Y-91910542D01*
X140186051Y-91845400D01*
X140351126Y-91743845D01*
X140502532Y-91839930D01*
X140692955Y-91907737D01*
X140893670Y-91931671D01*
X141094698Y-91910542D01*
X141286051Y-91845400D01*
X141451126Y-91743845D01*
X141602532Y-91839930D01*
X141792955Y-91907737D01*
X141993670Y-91931671D01*
X142194698Y-91910542D01*
X142386051Y-91845400D01*
X142551126Y-91743845D01*
X142702532Y-91839930D01*
X142892955Y-91907737D01*
X143093670Y-91931671D01*
X143294698Y-91910542D01*
X143486051Y-91845400D01*
X143658214Y-91739484D01*
X143802637Y-91598057D01*
X143912136Y-91428147D01*
X143950025Y-91324046D01*
X143982314Y-91416768D01*
X144089430Y-91588189D01*
X144231863Y-91731620D01*
X144402532Y-91839930D01*
X144592955Y-91907737D01*
X144793670Y-91931671D01*
X144994698Y-91910542D01*
X145186051Y-91845400D01*
X145351126Y-91743845D01*
X145502532Y-91839930D01*
X145692955Y-91907737D01*
X145893670Y-91931671D01*
X146094698Y-91910542D01*
X146286051Y-91845400D01*
X146451126Y-91743845D01*
X146602532Y-91839930D01*
X146792955Y-91907737D01*
X146993670Y-91931671D01*
X147194698Y-91910542D01*
X147386051Y-91845400D01*
X147551126Y-91743845D01*
X147702532Y-91839930D01*
X147892955Y-91907737D01*
X148093670Y-91931671D01*
X148294698Y-91910542D01*
X148486051Y-91845400D01*
X148651126Y-91743845D01*
X148802532Y-91839930D01*
X148992955Y-91907737D01*
X149193670Y-91931671D01*
X149394698Y-91910542D01*
X149586051Y-91845400D01*
X149751126Y-91743845D01*
X149902532Y-91839930D01*
X150092955Y-91907737D01*
X150293670Y-91931671D01*
X150494698Y-91910542D01*
X150686051Y-91845400D01*
X150851126Y-91743845D01*
X151002532Y-91839930D01*
X151192955Y-91907737D01*
X151393670Y-91931671D01*
X151594698Y-91910542D01*
X151786051Y-91845400D01*
X151951126Y-91743845D01*
X152102532Y-91839930D01*
X152372000Y-91935883D01*
X152372000Y-91933248D01*
X152628000Y-91933248D01*
X152886051Y-91845400D01*
X153051126Y-91743845D01*
X153142512Y-91801840D01*
X153141266Y-91688498D01*
X153310841Y-91778284D01*
X153498872Y-91825513D01*
X153692739Y-91826529D01*
X153881254Y-91781270D01*
X154053531Y-91692352D01*
X154199626Y-91564906D01*
X154255369Y-91485590D01*
X165436123Y-91485590D01*
X165436123Y-92132000D01*
X167772000Y-92132000D01*
X167772000Y-91066123D01*
X165855590Y-91066123D01*
X165701783Y-91096718D01*
X165560871Y-91190871D01*
X165466718Y-91331783D01*
X165436123Y-91485590D01*
X154255369Y-91485590D01*
X154311102Y-91406290D01*
X154381648Y-91225350D01*
X154401000Y-91072166D01*
X154401000Y-90426000D01*
X154501000Y-90426000D01*
X154501000Y-89324245D01*
X154484161Y-89174124D01*
X154417686Y-88983231D01*
X154310570Y-88811809D01*
X154168137Y-88668380D01*
X153997468Y-88560070D01*
X153807045Y-88492263D01*
X153606330Y-88468329D01*
X153405302Y-88489458D01*
X153213949Y-88554600D01*
X153048874Y-88656155D01*
X152897468Y-88560070D01*
X152628000Y-88464117D01*
X152628000Y-91933248D01*
X152372000Y-91933248D01*
X152372000Y-88466752D01*
X152113949Y-88554600D01*
X151948874Y-88656155D01*
X151797468Y-88560070D01*
X151607045Y-88492263D01*
X151406330Y-88468329D01*
X151205302Y-88489458D01*
X151013949Y-88554600D01*
X150848874Y-88656155D01*
X150697468Y-88560070D01*
X150507045Y-88492263D01*
X150306330Y-88468329D01*
X150105302Y-88489458D01*
X149913949Y-88554600D01*
X149748874Y-88656155D01*
X149597468Y-88560070D01*
X149407045Y-88492263D01*
X149206330Y-88468329D01*
X149005302Y-88489458D01*
X148813949Y-88554600D01*
X148648874Y-88656155D01*
X148497468Y-88560070D01*
X148307045Y-88492263D01*
X148106330Y-88468329D01*
X147905302Y-88489458D01*
X147713949Y-88554600D01*
X147548874Y-88656155D01*
X147397468Y-88560070D01*
X147207045Y-88492263D01*
X147006330Y-88468329D01*
X146805302Y-88489458D01*
X146613949Y-88554600D01*
X146448874Y-88656155D01*
X146297468Y-88560070D01*
X146107045Y-88492263D01*
X145906330Y-88468329D01*
X145705302Y-88489458D01*
X145513949Y-88554600D01*
X145348874Y-88656155D01*
X145197468Y-88560070D01*
X145007045Y-88492263D01*
X144806330Y-88468329D01*
X144605302Y-88489458D01*
X144413949Y-88554600D01*
X144241785Y-88660516D01*
X144097364Y-88801943D01*
X143987865Y-88971853D01*
X143949975Y-89075955D01*
X143917686Y-88983231D01*
X143810570Y-88811809D01*
X143668137Y-88668380D01*
X143497468Y-88560070D01*
X143307045Y-88492263D01*
X143106330Y-88468329D01*
X142905302Y-88489458D01*
X142713949Y-88554600D01*
X142548874Y-88656155D01*
X142397468Y-88560070D01*
X142207045Y-88492263D01*
X142006330Y-88468329D01*
X141805302Y-88489458D01*
X141613949Y-88554600D01*
X141448874Y-88656155D01*
X141297468Y-88560070D01*
X141107045Y-88492263D01*
X140906330Y-88468329D01*
X140705302Y-88489458D01*
X140513949Y-88554600D01*
X140348874Y-88656155D01*
X140197468Y-88560070D01*
X140007045Y-88492263D01*
X139880234Y-88477142D01*
X140007520Y-88429171D01*
X140108480Y-88351000D01*
X140990549Y-88351000D01*
X141028911Y-88359259D01*
X141098693Y-88351000D01*
X141114026Y-88351000D01*
X141151757Y-88344720D01*
X141249729Y-88333124D01*
X141260816Y-88326567D01*
X141273783Y-88324409D01*
X141464514Y-88221496D01*
X141530038Y-88150613D01*
X145659557Y-84021095D01*
X145706233Y-84026000D01*
X145813767Y-84026000D01*
X145974492Y-84009107D01*
X146179610Y-83942460D01*
X146366389Y-83834624D01*
X146395000Y-83808862D01*
X146423611Y-83834624D01*
X146610390Y-83942460D01*
X146815508Y-84009107D01*
X146976233Y-84026000D01*
X147083767Y-84026000D01*
X147244492Y-84009107D01*
X147449610Y-83942460D01*
X147636389Y-83834624D01*
X147665000Y-83808862D01*
X147693611Y-83834624D01*
X147880390Y-83942460D01*
X148085508Y-84009107D01*
X148246233Y-84026000D01*
X148353767Y-84026000D01*
X148514492Y-84009107D01*
X148719610Y-83942460D01*
X148906389Y-83834624D01*
X148935000Y-83808862D01*
X148963611Y-83834624D01*
X149150390Y-83942460D01*
X149355508Y-84009107D01*
X149516233Y-84026000D01*
X149623767Y-84026000D01*
X149784492Y-84009107D01*
X149989610Y-83942460D01*
X150176389Y-83834624D01*
X150205000Y-83808862D01*
X150233611Y-83834624D01*
X150420390Y-83942460D01*
X150625508Y-84009107D01*
X150786233Y-84026000D01*
X150893767Y-84026000D01*
X151054492Y-84009107D01*
X151259610Y-83942460D01*
X151446389Y-83834624D01*
X151475000Y-83808862D01*
X151503611Y-83834624D01*
X151690390Y-83942460D01*
X151895508Y-84009107D01*
X152056233Y-84026000D01*
X152163767Y-84026000D01*
X152324492Y-84009107D01*
X152529610Y-83942460D01*
X152716389Y-83834624D01*
X152745000Y-83808862D01*
X152773611Y-83834624D01*
X152960390Y-83942460D01*
X153165508Y-84009107D01*
X153326233Y-84026000D01*
X153433767Y-84026000D01*
X153594492Y-84009107D01*
X153799610Y-83942460D01*
X153986389Y-83834624D01*
X154015000Y-83808862D01*
X154043611Y-83834624D01*
X154230390Y-83942460D01*
X154435508Y-84009107D01*
X154596233Y-84026000D01*
X154703767Y-84026000D01*
X154864492Y-84009107D01*
X155069610Y-83942460D01*
X155256389Y-83834624D01*
X155285000Y-83808862D01*
X155313611Y-83834624D01*
X155500390Y-83942460D01*
X155705508Y-84009107D01*
X155866233Y-84026000D01*
X155973767Y-84026000D01*
X156134492Y-84009107D01*
X156339610Y-83942460D01*
X156526389Y-83834624D01*
X156555000Y-83808862D01*
X156583611Y-83834624D01*
X156770390Y-83942460D01*
X156975508Y-84009107D01*
X157136233Y-84026000D01*
X157243767Y-84026000D01*
X157404492Y-84009107D01*
X157609610Y-83942460D01*
X157796389Y-83834624D01*
X157825000Y-83808862D01*
X157853611Y-83834624D01*
X158040390Y-83942460D01*
X158245508Y-84009107D01*
X158406233Y-84026000D01*
X158513767Y-84026000D01*
X158674492Y-84009107D01*
X158879610Y-83942460D01*
X159066389Y-83834624D01*
X159095000Y-83808862D01*
X159123611Y-83834624D01*
X159310390Y-83942460D01*
X159515508Y-84009107D01*
X159676233Y-84026000D01*
X159783767Y-84026000D01*
X159944492Y-84009107D01*
X160149610Y-83942460D01*
X160184911Y-83922079D01*
X160294765Y-83995480D01*
X160487590Y-84033836D01*
X161512410Y-84033836D01*
X161705235Y-83995480D01*
X161879225Y-83879225D01*
X161995480Y-83705235D01*
X162033836Y-83512410D01*
X162033836Y-82487590D01*
X161995480Y-82294765D01*
X161879225Y-82120775D01*
X161705235Y-82004520D01*
X161512410Y-81966164D01*
X160487590Y-81966164D01*
X160294765Y-82004520D01*
X160184911Y-82077921D01*
X160149610Y-82057540D01*
X159944492Y-81990893D01*
X159783767Y-81974000D01*
X159676233Y-81974000D01*
X159515508Y-81990893D01*
X159310390Y-82057540D01*
X159123611Y-82165376D01*
X159095000Y-82191138D01*
X159066389Y-82165376D01*
X158879610Y-82057540D01*
X158674492Y-81990893D01*
X158513767Y-81974000D01*
X158406233Y-81974000D01*
X158245508Y-81990893D01*
X158040390Y-82057540D01*
X157853611Y-82165376D01*
X157825000Y-82191138D01*
X157796389Y-82165376D01*
X157609610Y-82057540D01*
X157404492Y-81990893D01*
X157243767Y-81974000D01*
X157136233Y-81974000D01*
X156975508Y-81990893D01*
X156770390Y-82057540D01*
X156583611Y-82165376D01*
X156555000Y-82191138D01*
X156526389Y-82165376D01*
X156339610Y-82057540D01*
X156134492Y-81990893D01*
X155973767Y-81974000D01*
X155866233Y-81974000D01*
X155705508Y-81990893D01*
X155500390Y-82057540D01*
X155313611Y-82165376D01*
X155285000Y-82191138D01*
X155256389Y-82165376D01*
X155069610Y-82057540D01*
X154864492Y-81990893D01*
X154703767Y-81974000D01*
X154596233Y-81974000D01*
X154435508Y-81990893D01*
X154230390Y-82057540D01*
X154043611Y-82165376D01*
X154015000Y-82191138D01*
X153986389Y-82165376D01*
X153799610Y-82057540D01*
X153594492Y-81990893D01*
X153433767Y-81974000D01*
X153326233Y-81974000D01*
X153165508Y-81990893D01*
X152960390Y-82057540D01*
X152773611Y-82165376D01*
X152745000Y-82191138D01*
X152716389Y-82165376D01*
X152529610Y-82057540D01*
X152324492Y-81990893D01*
X152163767Y-81974000D01*
X152056233Y-81974000D01*
X151895508Y-81990893D01*
X151690390Y-82057540D01*
X151503611Y-82165376D01*
X151475000Y-82191138D01*
X151446389Y-82165376D01*
X151259610Y-82057540D01*
X151054492Y-81990893D01*
X150893767Y-81974000D01*
X150786233Y-81974000D01*
X150625508Y-81990893D01*
X150420390Y-82057540D01*
X150233611Y-82165376D01*
X150205000Y-82191138D01*
X150176389Y-82165376D01*
X149989610Y-82057540D01*
X149784492Y-81990893D01*
X149623767Y-81974000D01*
X149516233Y-81974000D01*
X149355508Y-81990893D01*
X149150390Y-82057540D01*
X148963611Y-82165376D01*
X148935000Y-82191138D01*
X148906389Y-82165376D01*
X148719610Y-82057540D01*
X148514492Y-81990893D01*
X148353767Y-81974000D01*
X148246233Y-81974000D01*
X148085508Y-81990893D01*
X147880390Y-82057540D01*
X147693611Y-82165376D01*
X147665000Y-82191138D01*
X147636389Y-82165376D01*
X147449610Y-82057540D01*
X147244492Y-81990893D01*
X147083767Y-81974000D01*
X146976233Y-81974000D01*
X146815508Y-81990893D01*
X146610390Y-82057540D01*
X146423611Y-82165376D01*
X146395000Y-82191138D01*
X146366389Y-82165376D01*
X146179610Y-82057540D01*
X145974492Y-81990893D01*
X145813767Y-81974000D01*
X145706233Y-81974000D01*
X145545508Y-81990893D01*
X145340390Y-82057540D01*
X145153611Y-82165376D01*
X145125000Y-82191138D01*
X145096389Y-82165376D01*
X144909610Y-82057540D01*
X144704492Y-81990893D01*
X144543767Y-81974000D01*
X144436233Y-81974000D01*
X144275508Y-81990893D01*
X144070390Y-82057540D01*
X143883611Y-82165376D01*
X143855000Y-82191138D01*
X143826389Y-82165376D01*
X143639610Y-82057540D01*
X143434492Y-81990893D01*
X143273767Y-81974000D01*
X143166233Y-81974000D01*
X143005508Y-81990893D01*
X142800390Y-82057540D01*
X142613611Y-82165376D01*
X142585000Y-82191138D01*
X142556389Y-82165376D01*
X142369610Y-82057540D01*
X142164492Y-81990893D01*
X142003767Y-81974000D01*
X141896233Y-81974000D01*
X141735508Y-81990893D01*
X141530390Y-82057540D01*
X141343611Y-82165376D01*
X141315000Y-82191138D01*
X141286389Y-82165376D01*
X141099610Y-82057540D01*
X140894492Y-81990893D01*
X140733767Y-81974000D01*
X140626233Y-81974000D01*
X140465508Y-81990893D01*
X140260390Y-82057540D01*
X140073611Y-82165376D01*
X140045000Y-82191138D01*
X140016389Y-82165376D01*
X139829610Y-82057540D01*
X139624492Y-81990893D01*
X139463767Y-81974000D01*
X139356233Y-81974000D01*
X139195508Y-81990893D01*
X138990390Y-82057540D01*
X138803611Y-82165376D01*
X138775000Y-82191138D01*
X138746389Y-82165376D01*
X138559610Y-82057540D01*
X138354492Y-81990893D01*
X138193767Y-81974000D01*
X138086233Y-81974000D01*
X137925508Y-81990893D01*
X137720390Y-82057540D01*
X137533611Y-82165376D01*
X137505000Y-82191138D01*
X137476389Y-82165376D01*
X137289610Y-82057540D01*
X137084492Y-81990893D01*
X136923767Y-81974000D01*
X136816233Y-81974000D01*
X136655508Y-81990893D01*
X136450390Y-82057540D01*
X136263611Y-82165376D01*
X136235000Y-82191138D01*
X136206389Y-82165376D01*
X136019610Y-82057540D01*
X135814492Y-81990893D01*
X135653767Y-81974000D01*
X135546233Y-81974000D01*
X135385508Y-81990893D01*
X135180390Y-82057540D01*
X134993611Y-82165376D01*
X134965000Y-82191138D01*
X134936389Y-82165376D01*
X134749610Y-82057540D01*
X134544492Y-81990893D01*
X134383767Y-81974000D01*
X134276233Y-81974000D01*
X134115508Y-81990893D01*
X133910390Y-82057540D01*
X133723611Y-82165376D01*
X133563334Y-82309691D01*
X133436564Y-82484174D01*
X133348842Y-82681202D01*
X133304000Y-82892163D01*
X133304000Y-83107837D01*
X133348842Y-83318798D01*
X133436564Y-83515825D01*
X133563334Y-83690309D01*
X133723611Y-83834624D01*
X133910390Y-83942460D01*
X134115508Y-84009107D01*
X134276233Y-84026000D01*
X134383767Y-84026000D01*
X134544492Y-84009107D01*
X134749610Y-83942460D01*
X134936389Y-83834624D01*
X134965000Y-83808862D01*
X134993611Y-83834624D01*
X135180390Y-83942460D01*
X135385508Y-84009107D01*
X135546233Y-84026000D01*
X135653767Y-84026000D01*
X135814492Y-84009107D01*
X136019610Y-83942460D01*
X136206389Y-83834624D01*
X136235000Y-83808862D01*
X136263611Y-83834624D01*
X136450390Y-83942460D01*
X136655508Y-84009107D01*
X136816233Y-84026000D01*
X136923767Y-84026000D01*
X137084492Y-84009107D01*
X137289610Y-83942460D01*
X137476389Y-83834624D01*
X137505000Y-83808862D01*
X137533611Y-83834624D01*
X137720390Y-83942460D01*
X137925508Y-84009107D01*
X138086233Y-84026000D01*
X138193767Y-84026000D01*
X138354492Y-84009107D01*
X138559610Y-83942460D01*
X138746389Y-83834624D01*
X138775000Y-83808862D01*
X138803611Y-83834624D01*
X138880394Y-83878955D01*
X137188788Y-85570561D01*
X137155818Y-85591849D01*
X137112309Y-85647039D01*
X137101472Y-85657876D01*
X137079234Y-85688995D01*
X137018155Y-85766474D01*
X137014951Y-85778951D01*
X137007310Y-85789644D01*
X136945213Y-85997282D01*
X136949000Y-86093674D01*
X136949000Y-86249000D01*
X135336851Y-86249000D01*
X135313549Y-86203267D01*
X135146733Y-86036451D01*
X134936533Y-85929348D01*
X134713439Y-85894014D01*
X134261561Y-85894014D01*
X134224349Y-85899908D01*
X134226295Y-85677016D01*
X134153321Y-85439069D01*
X134013890Y-85233519D01*
X133820184Y-85078053D01*
X133589327Y-84986417D01*
X133341731Y-84966712D01*
X133099287Y-85020684D01*
X132883430Y-85143556D01*
X132713245Y-85324469D01*
X132603779Y-85547424D01*
X132579501Y-85699846D01*
X132501285Y-85778063D01*
X132468318Y-85799349D01*
X132424809Y-85854539D01*
X132413972Y-85865376D01*
X132391734Y-85896495D01*
X132330655Y-85973974D01*
X132327452Y-85986450D01*
X132319810Y-85997143D01*
X132317904Y-86003517D01*
X132253267Y-86036451D01*
X132086451Y-86203267D01*
X131979348Y-86413467D01*
X131944014Y-86636561D01*
X131944014Y-87163439D01*
X131979348Y-87386533D01*
X132086451Y-87596733D01*
X132253267Y-87763549D01*
X132463467Y-87870652D01*
X132686561Y-87905986D01*
X133138439Y-87905986D01*
X133361533Y-87870652D01*
X133571733Y-87763549D01*
X133700000Y-87635282D01*
X133828267Y-87763549D01*
X134038467Y-87870652D01*
X134261561Y-87905986D01*
X134713439Y-87905986D01*
X134936533Y-87870652D01*
X135146733Y-87763549D01*
X135313549Y-87596733D01*
X135336851Y-87551000D01*
X136949001Y-87551000D01*
X136949000Y-88592773D01*
X136897468Y-88560070D01*
X136707045Y-88492263D01*
X136506330Y-88468329D01*
X136305302Y-88489458D01*
X136113949Y-88554600D01*
X135941785Y-88660516D01*
X135797364Y-88801943D01*
X135687865Y-88971853D01*
X135618579Y-89162217D01*
X135599001Y-89326397D01*
X135599000Y-91075754D01*
X135615839Y-91225875D01*
X135682314Y-91416768D01*
X135789430Y-91588189D01*
X135931863Y-91731620D01*
X136102532Y-91839930D01*
X136292955Y-91907737D01*
X136493670Y-91931671D01*
X136694698Y-91910542D01*
X136886051Y-91845400D01*
X137051126Y-91743845D01*
X137202532Y-91839930D01*
X137392955Y-91907737D01*
X137593670Y-91931671D01*
X137686318Y-91921934D01*
X138169449Y-92405065D01*
X138099287Y-92420684D01*
X137883430Y-92543556D01*
X137713245Y-92724469D01*
X137603779Y-92947424D01*
X137564710Y-93192710D01*
X137599492Y-93438642D01*
X137705051Y-93663474D01*
X137749001Y-93711860D01*
X137749000Y-94355352D01*
X137325405Y-94778947D01*
X137326295Y-94677016D01*
X137253321Y-94439069D01*
X137113890Y-94233519D01*
X136920184Y-94078053D01*
X136689327Y-93986417D01*
X136441731Y-93966712D01*
X136199287Y-94020684D01*
X136061704Y-94099000D01*
X134957227Y-94099000D01*
X134989930Y-94047468D01*
X135057737Y-93857045D01*
X135081671Y-93656330D01*
X135060542Y-93455301D01*
X134995400Y-93263948D01*
X134889484Y-93091784D01*
X134748057Y-92947363D01*
X134578147Y-92837864D01*
X134387783Y-92768578D01*
X134223603Y-92749000D01*
X132474245Y-92749000D01*
X132324124Y-92765839D01*
X132133231Y-92832314D01*
X131961809Y-92939430D01*
X131818380Y-93081863D01*
X131710070Y-93252532D01*
X131642263Y-93442955D01*
X131618329Y-93643670D01*
X130526000Y-93643670D01*
X130526000Y-81563187D01*
X130528388Y-81553392D01*
X130545765Y-81342031D01*
X130584380Y-81188297D01*
X130647585Y-81042936D01*
X130670179Y-81008011D01*
X131007301Y-80670889D01*
X131103511Y-80617778D01*
X131252930Y-80564866D01*
X131418151Y-80535435D01*
X131534917Y-80529929D01*
X131553890Y-80526000D01*
X168436813Y-80526000D01*
X168446608Y-80528388D01*
G36*
X136899492Y-107138642D02*
G01*
X136949000Y-107244091D01*
X136949000Y-108192773D01*
X136897468Y-108160070D01*
X136707045Y-108092263D01*
X136506330Y-108068329D01*
X136305302Y-108089458D01*
X136113949Y-108154600D01*
X135941785Y-108260516D01*
X135797364Y-108401943D01*
X135687865Y-108571853D01*
X135618579Y-108762217D01*
X135599001Y-108926397D01*
X135599000Y-110675754D01*
X135615839Y-110825875D01*
X135682314Y-111016768D01*
X135789430Y-111188189D01*
X135931863Y-111331620D01*
X136102532Y-111439930D01*
X136292955Y-111507737D01*
X136493670Y-111531671D01*
X136694698Y-111510542D01*
X136886051Y-111445400D01*
X137051126Y-111343845D01*
X137202532Y-111439930D01*
X137392955Y-111507737D01*
X137593670Y-111531671D01*
X137794698Y-111510542D01*
X137986051Y-111445400D01*
X138151126Y-111343845D01*
X138302532Y-111439930D01*
X138492955Y-111507737D01*
X138693670Y-111531671D01*
X138894698Y-111510542D01*
X139086051Y-111445400D01*
X139251126Y-111343845D01*
X139402532Y-111439930D01*
X139592955Y-111507737D01*
X139793670Y-111531671D01*
X139994698Y-111510542D01*
X140186051Y-111445400D01*
X140351126Y-111343845D01*
X140502532Y-111439930D01*
X140692955Y-111507737D01*
X140893670Y-111531671D01*
X141094698Y-111510542D01*
X141286051Y-111445400D01*
X141451126Y-111343845D01*
X141602532Y-111439930D01*
X141792955Y-111507737D01*
X141993670Y-111531671D01*
X142194698Y-111510542D01*
X142386051Y-111445400D01*
X142449001Y-111406673D01*
X142449000Y-115580348D01*
X142050443Y-115978905D01*
X142003767Y-115974000D01*
X141896233Y-115974000D01*
X141735508Y-115990893D01*
X141530390Y-116057540D01*
X141343611Y-116165376D01*
X141315000Y-116191138D01*
X141286389Y-116165376D01*
X141099610Y-116057540D01*
X140894492Y-115990893D01*
X140733767Y-115974000D01*
X140626233Y-115974000D01*
X140465508Y-115990893D01*
X140260390Y-116057540D01*
X140073611Y-116165376D01*
X140045000Y-116191138D01*
X140016389Y-116165376D01*
X139829610Y-116057540D01*
X139624492Y-115990893D01*
X139463767Y-115974000D01*
X139356233Y-115974000D01*
X139195508Y-115990893D01*
X138990390Y-116057540D01*
X138803611Y-116165376D01*
X138775000Y-116191138D01*
X138746389Y-116165376D01*
X138559610Y-116057540D01*
X138268000Y-115962789D01*
X138268000Y-117128000D01*
X138012000Y-117128000D01*
X138012000Y-115962789D01*
X137720390Y-116057540D01*
X137533611Y-116165376D01*
X137505000Y-116191138D01*
X137476389Y-116165376D01*
X137289610Y-116057540D01*
X136998000Y-115962789D01*
X136998000Y-117128000D01*
X136742000Y-117128000D01*
X136742000Y-115962789D01*
X136450390Y-116057540D01*
X136263611Y-116165376D01*
X136235000Y-116191138D01*
X136206389Y-116165376D01*
X136019610Y-116057540D01*
X135728000Y-115962789D01*
X135728000Y-117128000D01*
X135472000Y-117128000D01*
X135472000Y-115962789D01*
X135180390Y-116057540D01*
X134993611Y-116165376D01*
X134965000Y-116191138D01*
X134936389Y-116165376D01*
X134749610Y-116057540D01*
X134458000Y-115962789D01*
X134458000Y-117128000D01*
X133348651Y-117128000D01*
X133151000Y-116930349D01*
X133151000Y-116872000D01*
X133308283Y-116872000D01*
X134202000Y-116872000D01*
X134202000Y-115962789D01*
X133910390Y-116057540D01*
X133723611Y-116165376D01*
X133563334Y-116309691D01*
X133436564Y-116484174D01*
X133348842Y-116681201D01*
X133308283Y-116872000D01*
X133151000Y-116872000D01*
X133151000Y-110769651D01*
X136884935Y-107035717D01*
X136899492Y-107138642D01*
G37*
X136899492Y-107138642D02*
X136949000Y-107244091D01*
X136949000Y-108192773D01*
X136897468Y-108160070D01*
X136707045Y-108092263D01*
X136506330Y-108068329D01*
X136305302Y-108089458D01*
X136113949Y-108154600D01*
X135941785Y-108260516D01*
X135797364Y-108401943D01*
X135687865Y-108571853D01*
X135618579Y-108762217D01*
X135599001Y-108926397D01*
X135599000Y-110675754D01*
X135615839Y-110825875D01*
X135682314Y-111016768D01*
X135789430Y-111188189D01*
X135931863Y-111331620D01*
X136102532Y-111439930D01*
X136292955Y-111507737D01*
X136493670Y-111531671D01*
X136694698Y-111510542D01*
X136886051Y-111445400D01*
X137051126Y-111343845D01*
X137202532Y-111439930D01*
X137392955Y-111507737D01*
X137593670Y-111531671D01*
X137794698Y-111510542D01*
X137986051Y-111445400D01*
X138151126Y-111343845D01*
X138302532Y-111439930D01*
X138492955Y-111507737D01*
X138693670Y-111531671D01*
X138894698Y-111510542D01*
X139086051Y-111445400D01*
X139251126Y-111343845D01*
X139402532Y-111439930D01*
X139592955Y-111507737D01*
X139793670Y-111531671D01*
X139994698Y-111510542D01*
X140186051Y-111445400D01*
X140351126Y-111343845D01*
X140502532Y-111439930D01*
X140692955Y-111507737D01*
X140893670Y-111531671D01*
X141094698Y-111510542D01*
X141286051Y-111445400D01*
X141451126Y-111343845D01*
X141602532Y-111439930D01*
X141792955Y-111507737D01*
X141993670Y-111531671D01*
X142194698Y-111510542D01*
X142386051Y-111445400D01*
X142449001Y-111406673D01*
X142449000Y-115580348D01*
X142050443Y-115978905D01*
X142003767Y-115974000D01*
X141896233Y-115974000D01*
X141735508Y-115990893D01*
X141530390Y-116057540D01*
X141343611Y-116165376D01*
X141315000Y-116191138D01*
X141286389Y-116165376D01*
X141099610Y-116057540D01*
X140894492Y-115990893D01*
X140733767Y-115974000D01*
X140626233Y-115974000D01*
X140465508Y-115990893D01*
X140260390Y-116057540D01*
X140073611Y-116165376D01*
X140045000Y-116191138D01*
X140016389Y-116165376D01*
X139829610Y-116057540D01*
X139624492Y-115990893D01*
X139463767Y-115974000D01*
X139356233Y-115974000D01*
X139195508Y-115990893D01*
X138990390Y-116057540D01*
X138803611Y-116165376D01*
X138775000Y-116191138D01*
X138746389Y-116165376D01*
X138559610Y-116057540D01*
X138268000Y-115962789D01*
X138268000Y-117128000D01*
X138012000Y-117128000D01*
X138012000Y-115962789D01*
X137720390Y-116057540D01*
X137533611Y-116165376D01*
X137505000Y-116191138D01*
X137476389Y-116165376D01*
X137289610Y-116057540D01*
X136998000Y-115962789D01*
X136998000Y-117128000D01*
X136742000Y-117128000D01*
X136742000Y-115962789D01*
X136450390Y-116057540D01*
X136263611Y-116165376D01*
X136235000Y-116191138D01*
X136206389Y-116165376D01*
X136019610Y-116057540D01*
X135728000Y-115962789D01*
X135728000Y-117128000D01*
X135472000Y-117128000D01*
X135472000Y-115962789D01*
X135180390Y-116057540D01*
X134993611Y-116165376D01*
X134965000Y-116191138D01*
X134936389Y-116165376D01*
X134749610Y-116057540D01*
X134458000Y-115962789D01*
X134458000Y-117128000D01*
X133348651Y-117128000D01*
X133151000Y-116930349D01*
X133151000Y-116872000D01*
X133308283Y-116872000D01*
X134202000Y-116872000D01*
X134202000Y-115962789D01*
X133910390Y-116057540D01*
X133723611Y-116165376D01*
X133563334Y-116309691D01*
X133436564Y-116484174D01*
X133348842Y-116681201D01*
X133308283Y-116872000D01*
X133151000Y-116872000D01*
X133151000Y-110769651D01*
X136884935Y-107035717D01*
X136899492Y-107138642D01*
G36*
X139402318Y-93454787D02*
G01*
X139498721Y-93451000D01*
X139733388Y-93451000D01*
X139716164Y-93537590D01*
X139716164Y-93922000D01*
X140878000Y-93922000D01*
X140878000Y-94178000D01*
X139716164Y-94178000D01*
X139716164Y-94562410D01*
X139754520Y-94755235D01*
X139851248Y-94900000D01*
X139754520Y-95044765D01*
X139716164Y-95237590D01*
X139716164Y-96262410D01*
X139754342Y-96454342D01*
X139562410Y-96416164D01*
X139178000Y-96416164D01*
X139178000Y-97322000D01*
X140083836Y-97322000D01*
X140083836Y-96937590D01*
X140045658Y-96745658D01*
X140237590Y-96783836D01*
X141262410Y-96783836D01*
X141455235Y-96745480D01*
X141600000Y-96648752D01*
X141744765Y-96745480D01*
X141937590Y-96783836D01*
X142962410Y-96783836D01*
X143155235Y-96745480D01*
X143300000Y-96648752D01*
X143444765Y-96745480D01*
X143637590Y-96783836D01*
X144662410Y-96783836D01*
X144855235Y-96745480D01*
X145000000Y-96648752D01*
X145144765Y-96745480D01*
X145337590Y-96783836D01*
X146362410Y-96783836D01*
X146555235Y-96745480D01*
X146700000Y-96648752D01*
X146844765Y-96745480D01*
X147037590Y-96783836D01*
X148062410Y-96783836D01*
X148255235Y-96745480D01*
X148400000Y-96648752D01*
X148544765Y-96745480D01*
X148737590Y-96783836D01*
X149762410Y-96783836D01*
X149954342Y-96745658D01*
X149916164Y-96937590D01*
X149916164Y-97322000D01*
X150822000Y-97322000D01*
X150822000Y-96416164D01*
X150437590Y-96416164D01*
X150245658Y-96454342D01*
X150283836Y-96262410D01*
X150283836Y-95237590D01*
X150245480Y-95044765D01*
X150148752Y-94900000D01*
X150245480Y-94755235D01*
X150283836Y-94562410D01*
X150283836Y-93537590D01*
X150266612Y-93451000D01*
X150430349Y-93451000D01*
X153190971Y-96211622D01*
X153189399Y-96068630D01*
X153449000Y-96328231D01*
X153449000Y-96637440D01*
X153316217Y-96548718D01*
X153194409Y-96524488D01*
X153193286Y-96422306D01*
X153162410Y-96416164D01*
X152778000Y-96416164D01*
X152778000Y-97578000D01*
X152522000Y-97578000D01*
X152522000Y-96416164D01*
X152137590Y-96416164D01*
X151944765Y-96454520D01*
X151800000Y-96551248D01*
X151655235Y-96454520D01*
X151462410Y-96416164D01*
X151078000Y-96416164D01*
X151078000Y-97578000D01*
X149916164Y-97578000D01*
X149916164Y-97962410D01*
X149954520Y-98155235D01*
X150051248Y-98300000D01*
X149954520Y-98444765D01*
X149916164Y-98637590D01*
X149916164Y-99022000D01*
X151078000Y-99022000D01*
X151078000Y-99278000D01*
X149916164Y-99278000D01*
X149916164Y-99662410D01*
X149954520Y-99855235D01*
X150051248Y-100000000D01*
X149954520Y-100144765D01*
X149916164Y-100337590D01*
X149916164Y-100722000D01*
X151078000Y-100722000D01*
X151078000Y-100978000D01*
X149916164Y-100978000D01*
X149916164Y-101362410D01*
X149954520Y-101555235D01*
X150051248Y-101700000D01*
X149954520Y-101844765D01*
X149916164Y-102037590D01*
X149916164Y-103062410D01*
X149954342Y-103254342D01*
X149762410Y-103216164D01*
X148737590Y-103216164D01*
X148544765Y-103254520D01*
X148400000Y-103351248D01*
X148255235Y-103254520D01*
X148062410Y-103216164D01*
X147037590Y-103216164D01*
X146844765Y-103254520D01*
X146700000Y-103351248D01*
X146555235Y-103254520D01*
X146362410Y-103216164D01*
X145337590Y-103216164D01*
X145144765Y-103254520D01*
X145000000Y-103351248D01*
X144855235Y-103254520D01*
X144662410Y-103216164D01*
X143637590Y-103216164D01*
X143444765Y-103254520D01*
X143300000Y-103351248D01*
X143155235Y-103254520D01*
X142962410Y-103216164D01*
X141937590Y-103216164D01*
X141744765Y-103254520D01*
X141600000Y-103351248D01*
X141455235Y-103254520D01*
X141262410Y-103216164D01*
X140237590Y-103216164D01*
X140045658Y-103254342D01*
X140083836Y-103062410D01*
X140083836Y-102037590D01*
X140045480Y-101844765D01*
X139948752Y-101700000D01*
X140045480Y-101555235D01*
X140083836Y-101362410D01*
X140083836Y-100978000D01*
X138922000Y-100978000D01*
X138922000Y-100722000D01*
X140083836Y-100722000D01*
X140083836Y-100337590D01*
X140045480Y-100144765D01*
X139948752Y-100000000D01*
X140045480Y-99855235D01*
X140083836Y-99662410D01*
X140083836Y-99278000D01*
X138922000Y-99278000D01*
X138922000Y-99022000D01*
X140083836Y-99022000D01*
X140083836Y-98637590D01*
X140045480Y-98444765D01*
X139948752Y-98300000D01*
X140045480Y-98155235D01*
X140083836Y-97962410D01*
X140083836Y-97578000D01*
X138922000Y-97578000D01*
X138922000Y-96416164D01*
X138537590Y-96416164D01*
X138344765Y-96454520D01*
X138200000Y-96551248D01*
X138055235Y-96454520D01*
X137862410Y-96416164D01*
X137529492Y-96416164D01*
X138811213Y-95134443D01*
X138844183Y-95113155D01*
X138887692Y-95057965D01*
X138898528Y-95047129D01*
X138920765Y-95016011D01*
X138981845Y-94938532D01*
X138985049Y-94926055D01*
X138992691Y-94915361D01*
X139054787Y-94707723D01*
X139051000Y-94611320D01*
X139051000Y-93710232D01*
X139146907Y-93574022D01*
X139204994Y-93395775D01*
X139402318Y-93454787D01*
G37*
X139402318Y-93454787D02*
X139498721Y-93451000D01*
X139733388Y-93451000D01*
X139716164Y-93537590D01*
X139716164Y-93922000D01*
X140878000Y-93922000D01*
X140878000Y-94178000D01*
X139716164Y-94178000D01*
X139716164Y-94562410D01*
X139754520Y-94755235D01*
X139851248Y-94900000D01*
X139754520Y-95044765D01*
X139716164Y-95237590D01*
X139716164Y-96262410D01*
X139754342Y-96454342D01*
X139562410Y-96416164D01*
X139178000Y-96416164D01*
X139178000Y-97322000D01*
X140083836Y-97322000D01*
X140083836Y-96937590D01*
X140045658Y-96745658D01*
X140237590Y-96783836D01*
X141262410Y-96783836D01*
X141455235Y-96745480D01*
X141600000Y-96648752D01*
X141744765Y-96745480D01*
X141937590Y-96783836D01*
X142962410Y-96783836D01*
X143155235Y-96745480D01*
X143300000Y-96648752D01*
X143444765Y-96745480D01*
X143637590Y-96783836D01*
X144662410Y-96783836D01*
X144855235Y-96745480D01*
X145000000Y-96648752D01*
X145144765Y-96745480D01*
X145337590Y-96783836D01*
X146362410Y-96783836D01*
X146555235Y-96745480D01*
X146700000Y-96648752D01*
X146844765Y-96745480D01*
X147037590Y-96783836D01*
X148062410Y-96783836D01*
X148255235Y-96745480D01*
X148400000Y-96648752D01*
X148544765Y-96745480D01*
X148737590Y-96783836D01*
X149762410Y-96783836D01*
X149954342Y-96745658D01*
X149916164Y-96937590D01*
X149916164Y-97322000D01*
X150822000Y-97322000D01*
X150822000Y-96416164D01*
X150437590Y-96416164D01*
X150245658Y-96454342D01*
X150283836Y-96262410D01*
X150283836Y-95237590D01*
X150245480Y-95044765D01*
X150148752Y-94900000D01*
X150245480Y-94755235D01*
X150283836Y-94562410D01*
X150283836Y-93537590D01*
X150266612Y-93451000D01*
X150430349Y-93451000D01*
X153190971Y-96211622D01*
X153189399Y-96068630D01*
X153449000Y-96328231D01*
X153449000Y-96637440D01*
X153316217Y-96548718D01*
X153194409Y-96524488D01*
X153193286Y-96422306D01*
X153162410Y-96416164D01*
X152778000Y-96416164D01*
X152778000Y-97578000D01*
X152522000Y-97578000D01*
X152522000Y-96416164D01*
X152137590Y-96416164D01*
X151944765Y-96454520D01*
X151800000Y-96551248D01*
X151655235Y-96454520D01*
X151462410Y-96416164D01*
X151078000Y-96416164D01*
X151078000Y-97578000D01*
X149916164Y-97578000D01*
X149916164Y-97962410D01*
X149954520Y-98155235D01*
X150051248Y-98300000D01*
X149954520Y-98444765D01*
X149916164Y-98637590D01*
X149916164Y-99022000D01*
X151078000Y-99022000D01*
X151078000Y-99278000D01*
X149916164Y-99278000D01*
X149916164Y-99662410D01*
X149954520Y-99855235D01*
X150051248Y-100000000D01*
X149954520Y-100144765D01*
X149916164Y-100337590D01*
X149916164Y-100722000D01*
X151078000Y-100722000D01*
X151078000Y-100978000D01*
X149916164Y-100978000D01*
X149916164Y-101362410D01*
X149954520Y-101555235D01*
X150051248Y-101700000D01*
X149954520Y-101844765D01*
X149916164Y-102037590D01*
X149916164Y-103062410D01*
X149954342Y-103254342D01*
X149762410Y-103216164D01*
X148737590Y-103216164D01*
X148544765Y-103254520D01*
X148400000Y-103351248D01*
X148255235Y-103254520D01*
X148062410Y-103216164D01*
X147037590Y-103216164D01*
X146844765Y-103254520D01*
X146700000Y-103351248D01*
X146555235Y-103254520D01*
X146362410Y-103216164D01*
X145337590Y-103216164D01*
X145144765Y-103254520D01*
X145000000Y-103351248D01*
X144855235Y-103254520D01*
X144662410Y-103216164D01*
X143637590Y-103216164D01*
X143444765Y-103254520D01*
X143300000Y-103351248D01*
X143155235Y-103254520D01*
X142962410Y-103216164D01*
X141937590Y-103216164D01*
X141744765Y-103254520D01*
X141600000Y-103351248D01*
X141455235Y-103254520D01*
X141262410Y-103216164D01*
X140237590Y-103216164D01*
X140045658Y-103254342D01*
X140083836Y-103062410D01*
X140083836Y-102037590D01*
X140045480Y-101844765D01*
X139948752Y-101700000D01*
X140045480Y-101555235D01*
X140083836Y-101362410D01*
X140083836Y-100978000D01*
X138922000Y-100978000D01*
X138922000Y-100722000D01*
X140083836Y-100722000D01*
X140083836Y-100337590D01*
X140045480Y-100144765D01*
X139948752Y-100000000D01*
X140045480Y-99855235D01*
X140083836Y-99662410D01*
X140083836Y-99278000D01*
X138922000Y-99278000D01*
X138922000Y-99022000D01*
X140083836Y-99022000D01*
X140083836Y-98637590D01*
X140045480Y-98444765D01*
X139948752Y-98300000D01*
X140045480Y-98155235D01*
X140083836Y-97962410D01*
X140083836Y-97578000D01*
X138922000Y-97578000D01*
X138922000Y-96416164D01*
X138537590Y-96416164D01*
X138344765Y-96454520D01*
X138200000Y-96551248D01*
X138055235Y-96454520D01*
X137862410Y-96416164D01*
X137529492Y-96416164D01*
X138811213Y-95134443D01*
X138844183Y-95113155D01*
X138887692Y-95057965D01*
X138898528Y-95047129D01*
X138920765Y-95016011D01*
X138981845Y-94938532D01*
X138985049Y-94926055D01*
X138992691Y-94915361D01*
X139054787Y-94707723D01*
X139051000Y-94611320D01*
X139051000Y-93710232D01*
X139146907Y-93574022D01*
X139204994Y-93395775D01*
X139402318Y-93454787D01*
M02*
