G04 #@! TF.GenerationSoftware,KiCad,Pcbnew,5.99.0-unknown-df3fabf~86~ubuntu18.04.1*
G04 #@! TF.CreationDate,2019-10-31T14:00:15-04:00*
G04 #@! TF.ProjectId,bg96_module_board,62673936-5f6d-46f6-9475-6c655f626f61,rev?*
G04 #@! TF.SameCoordinates,Original*
G04 #@! TF.FileFunction,Legend,Top*
G04 #@! TF.FilePolarity,Positive*
%FSLAX46Y46*%
G04 Gerber Fmt 4.6, Leading zero omitted, Abs format (unit mm)*
G04 Created by KiCad (PCBNEW 5.99.0-unknown-df3fabf~86~ubuntu18.04.1) date 2019-10-31 14:00:15*
%MOMM*%
%LPD*%
G04 APERTURE LIST*
%ADD10C,0.150000*%
%ADD11C,0.120000*%
%ADD12C,0.100000*%
G04 APERTURE END LIST*
D10*
X163968928Y-82218571D02*
X164111785Y-82266190D01*
X164159404Y-82313809D01*
X164207023Y-82409047D01*
X164207023Y-82551904D01*
X164159404Y-82647142D01*
X164111785Y-82694761D01*
X164016547Y-82742380D01*
X163635595Y-82742380D01*
X163635595Y-81742380D01*
X163968928Y-81742380D01*
X164064166Y-81790000D01*
X164111785Y-81837619D01*
X164159404Y-81932857D01*
X164159404Y-82028095D01*
X164111785Y-82123333D01*
X164064166Y-82170952D01*
X163968928Y-82218571D01*
X163635595Y-82218571D01*
X165159404Y-81790000D02*
X165064166Y-81742380D01*
X164921309Y-81742380D01*
X164778452Y-81790000D01*
X164683214Y-81885238D01*
X164635595Y-81980476D01*
X164587976Y-82170952D01*
X164587976Y-82313809D01*
X164635595Y-82504285D01*
X164683214Y-82599523D01*
X164778452Y-82694761D01*
X164921309Y-82742380D01*
X165016547Y-82742380D01*
X165159404Y-82694761D01*
X165207023Y-82647142D01*
X165207023Y-82313809D01*
X165016547Y-82313809D01*
X165683214Y-82742380D02*
X165873690Y-82742380D01*
X165968928Y-82694761D01*
X166016547Y-82647142D01*
X166111785Y-82504285D01*
X166159404Y-82313809D01*
X166159404Y-81932857D01*
X166111785Y-81837619D01*
X166064166Y-81790000D01*
X165968928Y-81742380D01*
X165778452Y-81742380D01*
X165683214Y-81790000D01*
X165635595Y-81837619D01*
X165587976Y-81932857D01*
X165587976Y-82170952D01*
X165635595Y-82266190D01*
X165683214Y-82313809D01*
X165778452Y-82361428D01*
X165968928Y-82361428D01*
X166064166Y-82313809D01*
X166111785Y-82266190D01*
X166159404Y-82170952D01*
X167016547Y-81742380D02*
X166826071Y-81742380D01*
X166730833Y-81790000D01*
X166683214Y-81837619D01*
X166587976Y-81980476D01*
X166540357Y-82170952D01*
X166540357Y-82551904D01*
X166587976Y-82647142D01*
X166635595Y-82694761D01*
X166730833Y-82742380D01*
X166921309Y-82742380D01*
X167016547Y-82694761D01*
X167064166Y-82647142D01*
X167111785Y-82551904D01*
X167111785Y-82313809D01*
X167064166Y-82218571D01*
X167016547Y-82170952D01*
X166921309Y-82123333D01*
X166730833Y-82123333D01*
X166635595Y-82170952D01*
X166587976Y-82218571D01*
X166540357Y-82313809D01*
X163492738Y-83352380D02*
X163826071Y-84352380D01*
X164159404Y-83352380D01*
X164873690Y-84304761D02*
X164778452Y-84352380D01*
X164587976Y-84352380D01*
X164492738Y-84304761D01*
X164445119Y-84209523D01*
X164445119Y-83828571D01*
X164492738Y-83733333D01*
X164587976Y-83685714D01*
X164778452Y-83685714D01*
X164873690Y-83733333D01*
X164921309Y-83828571D01*
X164921309Y-83923809D01*
X164445119Y-84019047D01*
X165349880Y-84352380D02*
X165349880Y-83685714D01*
X165349880Y-83876190D02*
X165397500Y-83780952D01*
X165445119Y-83733333D01*
X165540357Y-83685714D01*
X165635595Y-83685714D01*
X167254642Y-84352380D02*
X166683214Y-84352380D01*
X166968928Y-84352380D02*
X166968928Y-83352380D01*
X166873690Y-83495238D01*
X166778452Y-83590476D01*
X166683214Y-83638095D01*
X167683214Y-84257142D02*
X167730833Y-84304761D01*
X167683214Y-84352380D01*
X167635595Y-84304761D01*
X167683214Y-84257142D01*
X167683214Y-84352380D01*
X168349880Y-83352380D02*
X168445119Y-83352380D01*
X168540357Y-83400000D01*
X168587976Y-83447619D01*
X168635595Y-83542857D01*
X168683214Y-83733333D01*
X168683214Y-83971428D01*
X168635595Y-84161904D01*
X168587976Y-84257142D01*
X168540357Y-84304761D01*
X168445119Y-84352380D01*
X168349880Y-84352380D01*
X168254642Y-84304761D01*
X168207023Y-84257142D01*
X168159404Y-84161904D01*
X168111785Y-83971428D01*
X168111785Y-83733333D01*
X168159404Y-83542857D01*
X168207023Y-83447619D01*
X168254642Y-83400000D01*
X168349880Y-83352380D01*
X163968928Y-85438571D02*
X164111785Y-85486190D01*
X164159404Y-85533809D01*
X164207023Y-85629047D01*
X164207023Y-85771904D01*
X164159404Y-85867142D01*
X164111785Y-85914761D01*
X164016547Y-85962380D01*
X163635595Y-85962380D01*
X163635595Y-84962380D01*
X163968928Y-84962380D01*
X164064166Y-85010000D01*
X164111785Y-85057619D01*
X164159404Y-85152857D01*
X164159404Y-85248095D01*
X164111785Y-85343333D01*
X164064166Y-85390952D01*
X163968928Y-85438571D01*
X163635595Y-85438571D01*
X164540357Y-85295714D02*
X164778452Y-85962380D01*
X165016547Y-85295714D02*
X164778452Y-85962380D01*
X164683214Y-86200476D01*
X164635595Y-86248095D01*
X164540357Y-86295714D01*
X166159404Y-85962380D02*
X166159404Y-84962380D01*
X166397500Y-84962380D01*
X166540357Y-85010000D01*
X166635595Y-85105238D01*
X166683214Y-85200476D01*
X166730833Y-85390952D01*
X166730833Y-85533809D01*
X166683214Y-85724285D01*
X166635595Y-85819523D01*
X166540357Y-85914761D01*
X166397500Y-85962380D01*
X166159404Y-85962380D01*
X167349880Y-85486190D02*
X167349880Y-85962380D01*
X167016547Y-84962380D02*
X167349880Y-85486190D01*
X167683214Y-84962380D01*
X130466666Y-114704761D02*
X130580952Y-114752380D01*
X130771428Y-114752380D01*
X130847619Y-114704761D01*
X130885714Y-114657142D01*
X130923809Y-114561904D01*
X130923809Y-114466666D01*
X130885714Y-114371428D01*
X130847619Y-114323809D01*
X130771428Y-114276190D01*
X130619047Y-114228571D01*
X130542857Y-114180952D01*
X130504761Y-114133333D01*
X130466666Y-114038095D01*
X130466666Y-113942857D01*
X130504761Y-113847619D01*
X130542857Y-113800000D01*
X130619047Y-113752380D01*
X130809523Y-113752380D01*
X130923809Y-113800000D01*
X131152380Y-114085714D02*
X131457142Y-114085714D01*
X131266666Y-113752380D02*
X131266666Y-114609523D01*
X131304761Y-114704761D01*
X131380952Y-114752380D01*
X131457142Y-114752380D01*
X132066666Y-114752380D02*
X132066666Y-114228571D01*
X132028571Y-114133333D01*
X131952380Y-114085714D01*
X131800000Y-114085714D01*
X131723809Y-114133333D01*
X132066666Y-114704761D02*
X131990476Y-114752380D01*
X131800000Y-114752380D01*
X131723809Y-114704761D01*
X131685714Y-114609523D01*
X131685714Y-114514285D01*
X131723809Y-114419047D01*
X131800000Y-114371428D01*
X131990476Y-114371428D01*
X132066666Y-114323809D01*
X132333333Y-114085714D02*
X132638095Y-114085714D01*
X132447619Y-113752380D02*
X132447619Y-114609523D01*
X132485714Y-114704761D01*
X132561904Y-114752380D01*
X132638095Y-114752380D01*
X133247619Y-114085714D02*
X133247619Y-114752380D01*
X132904761Y-114085714D02*
X132904761Y-114609523D01*
X132942857Y-114704761D01*
X133019047Y-114752380D01*
X133133333Y-114752380D01*
X133209523Y-114704761D01*
X133247619Y-114657142D01*
X133590476Y-114704761D02*
X133666666Y-114752380D01*
X133819047Y-114752380D01*
X133895238Y-114704761D01*
X133933333Y-114609523D01*
X133933333Y-114561904D01*
X133895238Y-114466666D01*
X133819047Y-114419047D01*
X133704761Y-114419047D01*
X133628571Y-114371428D01*
X133590476Y-114276190D01*
X133590476Y-114228571D01*
X133628571Y-114133333D01*
X133704761Y-114085714D01*
X133819047Y-114085714D01*
X133895238Y-114133333D01*
D11*
X160610000Y-104537221D02*
X160610000Y-104862779D01*
X159590000Y-104537221D02*
X159590000Y-104862779D01*
D10*
X131750000Y-88750000D02*
X131750000Y-111250000D01*
X131750000Y-111250000D02*
X158250000Y-111250000D01*
X158250000Y-111250000D02*
X158250000Y-88750000D01*
X158250000Y-88750000D02*
X131750000Y-88750000D01*
X158250000Y-89700000D02*
X157300000Y-88750000D01*
D11*
X142100000Y-86000000D02*
X142100000Y-87690000D01*
D12*
X144700000Y-86100000D02*
X144700000Y-87100000D01*
D11*
X165590000Y-112960000D02*
X165590000Y-106840000D01*
X165590000Y-106840000D02*
X169210000Y-106840000D01*
X169210000Y-106840000D02*
X169210000Y-112960000D01*
X169210000Y-112960000D02*
X165590000Y-112960000D01*
X141790000Y-113762779D02*
X141790000Y-113437221D01*
X142810000Y-113762779D02*
X142810000Y-113437221D01*
X132237221Y-111890000D02*
X132562779Y-111890000D01*
X132237221Y-112910000D02*
X132562779Y-112910000D01*
X145737221Y-112290000D02*
X146062779Y-112290000D01*
X145737221Y-113310000D02*
X146062779Y-113310000D01*
X146075279Y-114910000D02*
X145749721Y-114910000D01*
X146075279Y-113890000D02*
X145749721Y-113890000D01*
X137010000Y-86337221D02*
X137010000Y-86662779D01*
X135990000Y-86337221D02*
X135990000Y-86662779D01*
X162162779Y-95310000D02*
X161837221Y-95310000D01*
X162162779Y-94290000D02*
X161837221Y-94290000D01*
X138840000Y-112020000D02*
X138840000Y-112950000D01*
X138840000Y-115180000D02*
X138840000Y-114250000D01*
X138840000Y-115180000D02*
X141000000Y-115180000D01*
X138840000Y-112020000D02*
X140300000Y-112020000D01*
X133635000Y-115890000D02*
X133635000Y-116692470D01*
X133635000Y-117307530D02*
X133635000Y-118110000D01*
X160240000Y-115890000D02*
X133635000Y-115890000D01*
X160240000Y-118110000D02*
X133635000Y-118110000D01*
X160240000Y-115890000D02*
X160240000Y-116436529D01*
X160240000Y-117563471D02*
X160240000Y-118110000D01*
X161000000Y-115890000D02*
X161760000Y-115890000D01*
X161760000Y-115890000D02*
X161760000Y-117000000D01*
X133635000Y-81890000D02*
X133635000Y-82692470D01*
X133635000Y-83307530D02*
X133635000Y-84110000D01*
X160240000Y-81890000D02*
X133635000Y-81890000D01*
X160240000Y-84110000D02*
X133635000Y-84110000D01*
X160240000Y-81890000D02*
X160240000Y-82436529D01*
X160240000Y-83563471D02*
X160240000Y-84110000D01*
X161000000Y-81890000D02*
X161760000Y-81890000D01*
X161760000Y-81890000D02*
X161760000Y-83000000D01*
X134900000Y-115260000D02*
X137585000Y-115260000D01*
X137585000Y-115260000D02*
X137585000Y-113340000D01*
X137585000Y-113340000D02*
X134900000Y-113340000D01*
X135737221Y-111890000D02*
X136062779Y-111890000D01*
X135737221Y-112910000D02*
X136062779Y-112910000D01*
X139537221Y-85290000D02*
X139862779Y-85290000D01*
X139537221Y-86310000D02*
X139862779Y-86310000D01*
X139537221Y-86890000D02*
X139862779Y-86890000D01*
X139537221Y-87910000D02*
X139862779Y-87910000D01*
X164810000Y-95437221D02*
X164810000Y-95762779D01*
X163790000Y-95437221D02*
X163790000Y-95762779D01*
X160210000Y-95437221D02*
X160210000Y-95762779D01*
X159190000Y-95437221D02*
X159190000Y-95762779D01*
X164410000Y-110237221D02*
X164410000Y-110562779D01*
X163390000Y-110237221D02*
X163390000Y-110562779D01*
M02*
