G04 #@! TF.GenerationSoftware,KiCad,Pcbnew,5.99.0-unknown-df3fabf~86~ubuntu18.04.1*
G04 #@! TF.CreationDate,2019-10-31T14:00:15-04:00*
G04 #@! TF.ProjectId,bg96_module_board,62673936-5f6d-46f6-9475-6c655f626f61,rev?*
G04 #@! TF.SameCoordinates,Original*
G04 #@! TF.FileFunction,Paste,Top*
G04 #@! TF.FilePolarity,Positive*
%FSLAX46Y46*%
G04 Gerber Fmt 4.6, Leading zero omitted, Abs format (unit mm)*
G04 Created by KiCad (PCBNEW 5.99.0-unknown-df3fabf~86~ubuntu18.04.1) date 2019-10-31 14:00:15*
%MOMM*%
%LPD*%
G04 APERTURE LIST*
%ADD10R,1.000000X1.000000*%
%ADD11R,1.150000X0.700000*%
%ADD12R,0.700000X1.150000*%
%ADD13R,0.250000X0.150000*%
%ADD14R,0.600000X0.200000*%
%ADD15R,0.200000X0.600000*%
%ADD16R,1.600000X2.180000*%
%ADD17R,0.900000X0.800000*%
%ADD18R,4.064000X1.524000*%
%ADD19R,4.064000X1.270000*%
G04 APERTURE END LIST*
G36*
X160439962Y-105066651D02*
G01*
X160510930Y-105114070D01*
X160558349Y-105185038D01*
X160575000Y-105268750D01*
X160575000Y-105706250D01*
X160558349Y-105789962D01*
X160510930Y-105860930D01*
X160439962Y-105908349D01*
X160356250Y-105925000D01*
X159843750Y-105925000D01*
X159760038Y-105908349D01*
X159689070Y-105860930D01*
X159641651Y-105789962D01*
X159625000Y-105706250D01*
X159625000Y-105268750D01*
X159641651Y-105185038D01*
X159689070Y-105114070D01*
X159760038Y-105066651D01*
X159843750Y-105050000D01*
X160356250Y-105050000D01*
X160439962Y-105066651D01*
G37*
G36*
X160439962Y-103491651D02*
G01*
X160510930Y-103539070D01*
X160558349Y-103610038D01*
X160575000Y-103693750D01*
X160575000Y-104131250D01*
X160558349Y-104214962D01*
X160510930Y-104285930D01*
X160439962Y-104333349D01*
X160356250Y-104350000D01*
X159843750Y-104350000D01*
X159760038Y-104333349D01*
X159689070Y-104285930D01*
X159641651Y-104214962D01*
X159625000Y-104131250D01*
X159625000Y-103693750D01*
X159641651Y-103610038D01*
X159689070Y-103539070D01*
X159760038Y-103491651D01*
X159843750Y-103475000D01*
X160356250Y-103475000D01*
X160439962Y-103491651D01*
G37*
D10*
X150950000Y-97450000D03*
X150950000Y-99150000D03*
X150950000Y-100850000D03*
X152650000Y-97450000D03*
X152650000Y-99150000D03*
X152650000Y-100850000D03*
X137350000Y-102550000D03*
X137350000Y-100850000D03*
X137350000Y-99150000D03*
X139050000Y-102550000D03*
X139050000Y-100850000D03*
X139050000Y-99150000D03*
X150950000Y-102550000D03*
X152650000Y-102550000D03*
X139050000Y-97450000D03*
X137350000Y-97450000D03*
X149250000Y-104250000D03*
X147550000Y-104250000D03*
X145850000Y-104250000D03*
X144150000Y-104250000D03*
X142450000Y-104250000D03*
X149250000Y-105950000D03*
X147550000Y-105950000D03*
X145850000Y-105950000D03*
X144150000Y-105950000D03*
X142450000Y-105950000D03*
X140750000Y-105950000D03*
X140750000Y-104250000D03*
X140750000Y-95750000D03*
X142450000Y-95750000D03*
X144150000Y-95750000D03*
X145850000Y-95750000D03*
X147550000Y-95750000D03*
X140750000Y-94050000D03*
X142450000Y-94050000D03*
X144150000Y-94050000D03*
X145850000Y-94050000D03*
X147550000Y-94050000D03*
X149250000Y-95750000D03*
X149250000Y-94050000D03*
D11*
X156030000Y-92550000D03*
X156030000Y-93650000D03*
X156030000Y-94750000D03*
X156030000Y-95850000D03*
X156030000Y-96950000D03*
X156030000Y-100550000D03*
X156030000Y-101650000D03*
X156030000Y-102750000D03*
X156030000Y-103850000D03*
X156030000Y-104950000D03*
X156030000Y-106050000D03*
X156030000Y-98050000D03*
X156030000Y-107150000D03*
X133970000Y-107150000D03*
X133970000Y-106050000D03*
X133970000Y-104950000D03*
X133970000Y-103850000D03*
X133970000Y-102750000D03*
X133970000Y-101650000D03*
X133970000Y-100550000D03*
X133970000Y-98050000D03*
X133970000Y-96950000D03*
X133970000Y-95850000D03*
X133970000Y-94750000D03*
X133970000Y-93650000D03*
D12*
X154700000Y-109180000D03*
X153600000Y-109180000D03*
X152500000Y-109180000D03*
X151400000Y-109180000D03*
X150300000Y-109180000D03*
X149200000Y-109180000D03*
X148100000Y-109180000D03*
X147000000Y-109180000D03*
X145900000Y-109180000D03*
X144800000Y-109180000D03*
X142900000Y-109180000D03*
X141800000Y-109180000D03*
X140700000Y-109180000D03*
X139600000Y-109180000D03*
X138500000Y-109180000D03*
X137400000Y-109180000D03*
X136300000Y-109180000D03*
X135200000Y-109180000D03*
D11*
X133970000Y-92550000D03*
D12*
X135200000Y-90820000D03*
X136300000Y-90820000D03*
X137400000Y-90820000D03*
X138500000Y-90820000D03*
X139600000Y-90820000D03*
X140700000Y-90820000D03*
X141800000Y-90820000D03*
X142900000Y-90820000D03*
X144800000Y-90820000D03*
X145900000Y-90820000D03*
X147000000Y-90820000D03*
X148100000Y-90820000D03*
X149200000Y-90820000D03*
X150300000Y-90820000D03*
X151400000Y-90820000D03*
X152500000Y-90820000D03*
X153600000Y-90820000D03*
X154700000Y-90820000D03*
D13*
X142425000Y-87025000D03*
D14*
X142600000Y-86600000D03*
D15*
X142600000Y-85950000D03*
X143000000Y-85950000D03*
X143400000Y-85950000D03*
X143800000Y-85950000D03*
X144200000Y-85950000D03*
D14*
X144200000Y-86600000D03*
D15*
X144200000Y-87250000D03*
X143800000Y-87250000D03*
X143400000Y-87250000D03*
X143000000Y-87250000D03*
X142600000Y-87250000D03*
D16*
X167400000Y-105310000D03*
X167400000Y-114490000D03*
G36*
X142639962Y-112391651D02*
G01*
X142710930Y-112439070D01*
X142758349Y-112510038D01*
X142775000Y-112593750D01*
X142775000Y-113031250D01*
X142758349Y-113114962D01*
X142710930Y-113185930D01*
X142639962Y-113233349D01*
X142556250Y-113250000D01*
X142043750Y-113250000D01*
X141960038Y-113233349D01*
X141889070Y-113185930D01*
X141841651Y-113114962D01*
X141825000Y-113031250D01*
X141825000Y-112593750D01*
X141841651Y-112510038D01*
X141889070Y-112439070D01*
X141960038Y-112391651D01*
X142043750Y-112375000D01*
X142556250Y-112375000D01*
X142639962Y-112391651D01*
G37*
G36*
X142639962Y-113966651D02*
G01*
X142710930Y-114014070D01*
X142758349Y-114085038D01*
X142775000Y-114168750D01*
X142775000Y-114606250D01*
X142758349Y-114689962D01*
X142710930Y-114760930D01*
X142639962Y-114808349D01*
X142556250Y-114825000D01*
X142043750Y-114825000D01*
X141960038Y-114808349D01*
X141889070Y-114760930D01*
X141841651Y-114689962D01*
X141825000Y-114606250D01*
X141825000Y-114168750D01*
X141841651Y-114085038D01*
X141889070Y-114014070D01*
X141960038Y-113966651D01*
X142043750Y-113950000D01*
X142556250Y-113950000D01*
X142639962Y-113966651D01*
G37*
G36*
X133489962Y-111941651D02*
G01*
X133560930Y-111989070D01*
X133608349Y-112060038D01*
X133625000Y-112143750D01*
X133625000Y-112656250D01*
X133608349Y-112739962D01*
X133560930Y-112810930D01*
X133489962Y-112858349D01*
X133406250Y-112875000D01*
X132968750Y-112875000D01*
X132885038Y-112858349D01*
X132814070Y-112810930D01*
X132766651Y-112739962D01*
X132750000Y-112656250D01*
X132750000Y-112143750D01*
X132766651Y-112060038D01*
X132814070Y-111989070D01*
X132885038Y-111941651D01*
X132968750Y-111925000D01*
X133406250Y-111925000D01*
X133489962Y-111941651D01*
G37*
G36*
X131914962Y-111941651D02*
G01*
X131985930Y-111989070D01*
X132033349Y-112060038D01*
X132050000Y-112143750D01*
X132050000Y-112656250D01*
X132033349Y-112739962D01*
X131985930Y-112810930D01*
X131914962Y-112858349D01*
X131831250Y-112875000D01*
X131393750Y-112875000D01*
X131310038Y-112858349D01*
X131239070Y-112810930D01*
X131191651Y-112739962D01*
X131175000Y-112656250D01*
X131175000Y-112143750D01*
X131191651Y-112060038D01*
X131239070Y-111989070D01*
X131310038Y-111941651D01*
X131393750Y-111925000D01*
X131831250Y-111925000D01*
X131914962Y-111941651D01*
G37*
G36*
X146989962Y-112341651D02*
G01*
X147060930Y-112389070D01*
X147108349Y-112460038D01*
X147125000Y-112543750D01*
X147125000Y-113056250D01*
X147108349Y-113139962D01*
X147060930Y-113210930D01*
X146989962Y-113258349D01*
X146906250Y-113275000D01*
X146468750Y-113275000D01*
X146385038Y-113258349D01*
X146314070Y-113210930D01*
X146266651Y-113139962D01*
X146250000Y-113056250D01*
X146250000Y-112543750D01*
X146266651Y-112460038D01*
X146314070Y-112389070D01*
X146385038Y-112341651D01*
X146468750Y-112325000D01*
X146906250Y-112325000D01*
X146989962Y-112341651D01*
G37*
G36*
X145414962Y-112341651D02*
G01*
X145485930Y-112389070D01*
X145533349Y-112460038D01*
X145550000Y-112543750D01*
X145550000Y-113056250D01*
X145533349Y-113139962D01*
X145485930Y-113210930D01*
X145414962Y-113258349D01*
X145331250Y-113275000D01*
X144893750Y-113275000D01*
X144810038Y-113258349D01*
X144739070Y-113210930D01*
X144691651Y-113139962D01*
X144675000Y-113056250D01*
X144675000Y-112543750D01*
X144691651Y-112460038D01*
X144739070Y-112389070D01*
X144810038Y-112341651D01*
X144893750Y-112325000D01*
X145331250Y-112325000D01*
X145414962Y-112341651D01*
G37*
G36*
X145427462Y-113941651D02*
G01*
X145498430Y-113989070D01*
X145545849Y-114060038D01*
X145562500Y-114143750D01*
X145562500Y-114656250D01*
X145545849Y-114739962D01*
X145498430Y-114810930D01*
X145427462Y-114858349D01*
X145343750Y-114875000D01*
X144906250Y-114875000D01*
X144822538Y-114858349D01*
X144751570Y-114810930D01*
X144704151Y-114739962D01*
X144687500Y-114656250D01*
X144687500Y-114143750D01*
X144704151Y-114060038D01*
X144751570Y-113989070D01*
X144822538Y-113941651D01*
X144906250Y-113925000D01*
X145343750Y-113925000D01*
X145427462Y-113941651D01*
G37*
G36*
X147002462Y-113941651D02*
G01*
X147073430Y-113989070D01*
X147120849Y-114060038D01*
X147137500Y-114143750D01*
X147137500Y-114656250D01*
X147120849Y-114739962D01*
X147073430Y-114810930D01*
X147002462Y-114858349D01*
X146918750Y-114875000D01*
X146481250Y-114875000D01*
X146397538Y-114858349D01*
X146326570Y-114810930D01*
X146279151Y-114739962D01*
X146262500Y-114656250D01*
X146262500Y-114143750D01*
X146279151Y-114060038D01*
X146326570Y-113989070D01*
X146397538Y-113941651D01*
X146481250Y-113925000D01*
X146918750Y-113925000D01*
X147002462Y-113941651D01*
G37*
G36*
X136839962Y-86866651D02*
G01*
X136910930Y-86914070D01*
X136958349Y-86985038D01*
X136975000Y-87068750D01*
X136975000Y-87506250D01*
X136958349Y-87589962D01*
X136910930Y-87660930D01*
X136839962Y-87708349D01*
X136756250Y-87725000D01*
X136243750Y-87725000D01*
X136160038Y-87708349D01*
X136089070Y-87660930D01*
X136041651Y-87589962D01*
X136025000Y-87506250D01*
X136025000Y-87068750D01*
X136041651Y-86985038D01*
X136089070Y-86914070D01*
X136160038Y-86866651D01*
X136243750Y-86850000D01*
X136756250Y-86850000D01*
X136839962Y-86866651D01*
G37*
G36*
X136839962Y-85291651D02*
G01*
X136910930Y-85339070D01*
X136958349Y-85410038D01*
X136975000Y-85493750D01*
X136975000Y-85931250D01*
X136958349Y-86014962D01*
X136910930Y-86085930D01*
X136839962Y-86133349D01*
X136756250Y-86150000D01*
X136243750Y-86150000D01*
X136160038Y-86133349D01*
X136089070Y-86085930D01*
X136041651Y-86014962D01*
X136025000Y-85931250D01*
X136025000Y-85493750D01*
X136041651Y-85410038D01*
X136089070Y-85339070D01*
X136160038Y-85291651D01*
X136243750Y-85275000D01*
X136756250Y-85275000D01*
X136839962Y-85291651D01*
G37*
G36*
X161514962Y-94341651D02*
G01*
X161585930Y-94389070D01*
X161633349Y-94460038D01*
X161650000Y-94543750D01*
X161650000Y-95056250D01*
X161633349Y-95139962D01*
X161585930Y-95210930D01*
X161514962Y-95258349D01*
X161431250Y-95275000D01*
X160993750Y-95275000D01*
X160910038Y-95258349D01*
X160839070Y-95210930D01*
X160791651Y-95139962D01*
X160775000Y-95056250D01*
X160775000Y-94543750D01*
X160791651Y-94460038D01*
X160839070Y-94389070D01*
X160910038Y-94341651D01*
X160993750Y-94325000D01*
X161431250Y-94325000D01*
X161514962Y-94341651D01*
G37*
G36*
X163089962Y-94341651D02*
G01*
X163160930Y-94389070D01*
X163208349Y-94460038D01*
X163225000Y-94543750D01*
X163225000Y-95056250D01*
X163208349Y-95139962D01*
X163160930Y-95210930D01*
X163089962Y-95258349D01*
X163006250Y-95275000D01*
X162568750Y-95275000D01*
X162485038Y-95258349D01*
X162414070Y-95210930D01*
X162366651Y-95139962D01*
X162350000Y-95056250D01*
X162350000Y-94543750D01*
X162366651Y-94460038D01*
X162414070Y-94389070D01*
X162485038Y-94341651D01*
X162568750Y-94325000D01*
X163006250Y-94325000D01*
X163089962Y-94341651D01*
G37*
D17*
X138600000Y-113600000D03*
X140600000Y-112650000D03*
X140600000Y-114550000D03*
D18*
X167800000Y-97340000D03*
X167800000Y-92260000D03*
D19*
X167800000Y-94800000D03*
G36*
X135299529Y-113618554D02*
G01*
X135378607Y-113671393D01*
X135431446Y-113750471D01*
X135450000Y-113843750D01*
X135450000Y-114756250D01*
X135431446Y-114849529D01*
X135378607Y-114928607D01*
X135299529Y-114981446D01*
X135206250Y-115000000D01*
X134718750Y-115000000D01*
X134625471Y-114981446D01*
X134546393Y-114928607D01*
X134493554Y-114849529D01*
X134475000Y-114756250D01*
X134475000Y-113843750D01*
X134493554Y-113750471D01*
X134546393Y-113671393D01*
X134625471Y-113618554D01*
X134718750Y-113600000D01*
X135206250Y-113600000D01*
X135299529Y-113618554D01*
G37*
G36*
X137174529Y-113618554D02*
G01*
X137253607Y-113671393D01*
X137306446Y-113750471D01*
X137325000Y-113843750D01*
X137325000Y-114756250D01*
X137306446Y-114849529D01*
X137253607Y-114928607D01*
X137174529Y-114981446D01*
X137081250Y-115000000D01*
X136593750Y-115000000D01*
X136500471Y-114981446D01*
X136421393Y-114928607D01*
X136368554Y-114849529D01*
X136350000Y-114756250D01*
X136350000Y-113843750D01*
X136368554Y-113750471D01*
X136421393Y-113671393D01*
X136500471Y-113618554D01*
X136593750Y-113600000D01*
X137081250Y-113600000D01*
X137174529Y-113618554D01*
G37*
G36*
X136989962Y-111941651D02*
G01*
X137060930Y-111989070D01*
X137108349Y-112060038D01*
X137125000Y-112143750D01*
X137125000Y-112656250D01*
X137108349Y-112739962D01*
X137060930Y-112810930D01*
X136989962Y-112858349D01*
X136906250Y-112875000D01*
X136468750Y-112875000D01*
X136385038Y-112858349D01*
X136314070Y-112810930D01*
X136266651Y-112739962D01*
X136250000Y-112656250D01*
X136250000Y-112143750D01*
X136266651Y-112060038D01*
X136314070Y-111989070D01*
X136385038Y-111941651D01*
X136468750Y-111925000D01*
X136906250Y-111925000D01*
X136989962Y-111941651D01*
G37*
G36*
X135414962Y-111941651D02*
G01*
X135485930Y-111989070D01*
X135533349Y-112060038D01*
X135550000Y-112143750D01*
X135550000Y-112656250D01*
X135533349Y-112739962D01*
X135485930Y-112810930D01*
X135414962Y-112858349D01*
X135331250Y-112875000D01*
X134893750Y-112875000D01*
X134810038Y-112858349D01*
X134739070Y-112810930D01*
X134691651Y-112739962D01*
X134675000Y-112656250D01*
X134675000Y-112143750D01*
X134691651Y-112060038D01*
X134739070Y-111989070D01*
X134810038Y-111941651D01*
X134893750Y-111925000D01*
X135331250Y-111925000D01*
X135414962Y-111941651D01*
G37*
G36*
X140789962Y-85341651D02*
G01*
X140860930Y-85389070D01*
X140908349Y-85460038D01*
X140925000Y-85543750D01*
X140925000Y-86056250D01*
X140908349Y-86139962D01*
X140860930Y-86210930D01*
X140789962Y-86258349D01*
X140706250Y-86275000D01*
X140268750Y-86275000D01*
X140185038Y-86258349D01*
X140114070Y-86210930D01*
X140066651Y-86139962D01*
X140050000Y-86056250D01*
X140050000Y-85543750D01*
X140066651Y-85460038D01*
X140114070Y-85389070D01*
X140185038Y-85341651D01*
X140268750Y-85325000D01*
X140706250Y-85325000D01*
X140789962Y-85341651D01*
G37*
G36*
X139214962Y-85341651D02*
G01*
X139285930Y-85389070D01*
X139333349Y-85460038D01*
X139350000Y-85543750D01*
X139350000Y-86056250D01*
X139333349Y-86139962D01*
X139285930Y-86210930D01*
X139214962Y-86258349D01*
X139131250Y-86275000D01*
X138693750Y-86275000D01*
X138610038Y-86258349D01*
X138539070Y-86210930D01*
X138491651Y-86139962D01*
X138475000Y-86056250D01*
X138475000Y-85543750D01*
X138491651Y-85460038D01*
X138539070Y-85389070D01*
X138610038Y-85341651D01*
X138693750Y-85325000D01*
X139131250Y-85325000D01*
X139214962Y-85341651D01*
G37*
G36*
X140789962Y-86941651D02*
G01*
X140860930Y-86989070D01*
X140908349Y-87060038D01*
X140925000Y-87143750D01*
X140925000Y-87656250D01*
X140908349Y-87739962D01*
X140860930Y-87810930D01*
X140789962Y-87858349D01*
X140706250Y-87875000D01*
X140268750Y-87875000D01*
X140185038Y-87858349D01*
X140114070Y-87810930D01*
X140066651Y-87739962D01*
X140050000Y-87656250D01*
X140050000Y-87143750D01*
X140066651Y-87060038D01*
X140114070Y-86989070D01*
X140185038Y-86941651D01*
X140268750Y-86925000D01*
X140706250Y-86925000D01*
X140789962Y-86941651D01*
G37*
G36*
X139214962Y-86941651D02*
G01*
X139285930Y-86989070D01*
X139333349Y-87060038D01*
X139350000Y-87143750D01*
X139350000Y-87656250D01*
X139333349Y-87739962D01*
X139285930Y-87810930D01*
X139214962Y-87858349D01*
X139131250Y-87875000D01*
X138693750Y-87875000D01*
X138610038Y-87858349D01*
X138539070Y-87810930D01*
X138491651Y-87739962D01*
X138475000Y-87656250D01*
X138475000Y-87143750D01*
X138491651Y-87060038D01*
X138539070Y-86989070D01*
X138610038Y-86941651D01*
X138693750Y-86925000D01*
X139131250Y-86925000D01*
X139214962Y-86941651D01*
G37*
G36*
X164639962Y-95966651D02*
G01*
X164710930Y-96014070D01*
X164758349Y-96085038D01*
X164775000Y-96168750D01*
X164775000Y-96606250D01*
X164758349Y-96689962D01*
X164710930Y-96760930D01*
X164639962Y-96808349D01*
X164556250Y-96825000D01*
X164043750Y-96825000D01*
X163960038Y-96808349D01*
X163889070Y-96760930D01*
X163841651Y-96689962D01*
X163825000Y-96606250D01*
X163825000Y-96168750D01*
X163841651Y-96085038D01*
X163889070Y-96014070D01*
X163960038Y-95966651D01*
X164043750Y-95950000D01*
X164556250Y-95950000D01*
X164639962Y-95966651D01*
G37*
G36*
X164639962Y-94391651D02*
G01*
X164710930Y-94439070D01*
X164758349Y-94510038D01*
X164775000Y-94593750D01*
X164775000Y-95031250D01*
X164758349Y-95114962D01*
X164710930Y-95185930D01*
X164639962Y-95233349D01*
X164556250Y-95250000D01*
X164043750Y-95250000D01*
X163960038Y-95233349D01*
X163889070Y-95185930D01*
X163841651Y-95114962D01*
X163825000Y-95031250D01*
X163825000Y-94593750D01*
X163841651Y-94510038D01*
X163889070Y-94439070D01*
X163960038Y-94391651D01*
X164043750Y-94375000D01*
X164556250Y-94375000D01*
X164639962Y-94391651D01*
G37*
G36*
X160039962Y-95966651D02*
G01*
X160110930Y-96014070D01*
X160158349Y-96085038D01*
X160175000Y-96168750D01*
X160175000Y-96606250D01*
X160158349Y-96689962D01*
X160110930Y-96760930D01*
X160039962Y-96808349D01*
X159956250Y-96825000D01*
X159443750Y-96825000D01*
X159360038Y-96808349D01*
X159289070Y-96760930D01*
X159241651Y-96689962D01*
X159225000Y-96606250D01*
X159225000Y-96168750D01*
X159241651Y-96085038D01*
X159289070Y-96014070D01*
X159360038Y-95966651D01*
X159443750Y-95950000D01*
X159956250Y-95950000D01*
X160039962Y-95966651D01*
G37*
G36*
X160039962Y-94391651D02*
G01*
X160110930Y-94439070D01*
X160158349Y-94510038D01*
X160175000Y-94593750D01*
X160175000Y-95031250D01*
X160158349Y-95114962D01*
X160110930Y-95185930D01*
X160039962Y-95233349D01*
X159956250Y-95250000D01*
X159443750Y-95250000D01*
X159360038Y-95233349D01*
X159289070Y-95185930D01*
X159241651Y-95114962D01*
X159225000Y-95031250D01*
X159225000Y-94593750D01*
X159241651Y-94510038D01*
X159289070Y-94439070D01*
X159360038Y-94391651D01*
X159443750Y-94375000D01*
X159956250Y-94375000D01*
X160039962Y-94391651D01*
G37*
G36*
X164239962Y-110766651D02*
G01*
X164310930Y-110814070D01*
X164358349Y-110885038D01*
X164375000Y-110968750D01*
X164375000Y-111406250D01*
X164358349Y-111489962D01*
X164310930Y-111560930D01*
X164239962Y-111608349D01*
X164156250Y-111625000D01*
X163643750Y-111625000D01*
X163560038Y-111608349D01*
X163489070Y-111560930D01*
X163441651Y-111489962D01*
X163425000Y-111406250D01*
X163425000Y-110968750D01*
X163441651Y-110885038D01*
X163489070Y-110814070D01*
X163560038Y-110766651D01*
X163643750Y-110750000D01*
X164156250Y-110750000D01*
X164239962Y-110766651D01*
G37*
G36*
X164239962Y-109191651D02*
G01*
X164310930Y-109239070D01*
X164358349Y-109310038D01*
X164375000Y-109393750D01*
X164375000Y-109831250D01*
X164358349Y-109914962D01*
X164310930Y-109985930D01*
X164239962Y-110033349D01*
X164156250Y-110050000D01*
X163643750Y-110050000D01*
X163560038Y-110033349D01*
X163489070Y-109985930D01*
X163441651Y-109914962D01*
X163425000Y-109831250D01*
X163425000Y-109393750D01*
X163441651Y-109310038D01*
X163489070Y-109239070D01*
X163560038Y-109191651D01*
X163643750Y-109175000D01*
X164156250Y-109175000D01*
X164239962Y-109191651D01*
G37*
M02*
