G04 #@! TF.GenerationSoftware,KiCad,Pcbnew,5.99.0-unknown-df3fabf~86~ubuntu18.04.1*
G04 #@! TF.CreationDate,2019-10-31T14:00:15-04:00*
G04 #@! TF.ProjectId,bg96_module_board,62673936-5f6d-46f6-9475-6c655f626f61,rev?*
G04 #@! TF.SameCoordinates,Original*
G04 #@! TF.FileFunction,Legend,Bot*
G04 #@! TF.FilePolarity,Positive*
%FSLAX46Y46*%
G04 Gerber Fmt 4.6, Leading zero omitted, Abs format (unit mm)*
G04 Created by KiCad (PCBNEW 5.99.0-unknown-df3fabf~86~ubuntu18.04.1) date 2019-10-31 14:00:15*
%MOMM*%
%LPD*%
G04 APERTURE LIST*
%ADD10C,0.010000*%
G04 APERTURE END LIST*
G36*
X164043011Y-105723941D02*
G01*
X164190216Y-105723638D01*
X164354349Y-105723452D01*
X164536352Y-105723358D01*
X164737165Y-105723329D01*
X164957732Y-105723339D01*
X165198992Y-105723364D01*
X165461889Y-105723378D01*
X165504040Y-105723378D01*
X165764668Y-105723354D01*
X166003796Y-105723315D01*
X166222360Y-105723292D01*
X166421295Y-105723313D01*
X166601535Y-105723407D01*
X166764015Y-105723605D01*
X166909670Y-105723937D01*
X167039434Y-105724431D01*
X167154243Y-105725117D01*
X167255030Y-105726024D01*
X167342730Y-105727183D01*
X167418279Y-105728622D01*
X167482611Y-105730371D01*
X167536661Y-105732460D01*
X167581363Y-105734917D01*
X167617652Y-105737773D01*
X167646463Y-105741057D01*
X167668731Y-105744798D01*
X167685390Y-105749026D01*
X167697375Y-105753771D01*
X167705621Y-105759061D01*
X167711062Y-105764927D01*
X167714634Y-105771398D01*
X167717270Y-105778503D01*
X167719906Y-105786272D01*
X167723477Y-105794734D01*
X167725145Y-105799092D01*
X167727111Y-105807605D01*
X167728911Y-105820306D01*
X167730555Y-105838115D01*
X167732047Y-105861951D01*
X167733397Y-105892734D01*
X167734611Y-105931383D01*
X167735697Y-105978818D01*
X167736661Y-106035957D01*
X167737511Y-106103721D01*
X167738253Y-106183029D01*
X167738897Y-106274801D01*
X167739447Y-106379956D01*
X167739913Y-106499413D01*
X167740300Y-106634092D01*
X167740616Y-106784912D01*
X167740869Y-106952794D01*
X167741066Y-107138655D01*
X167741213Y-107343417D01*
X167741318Y-107567998D01*
X167741389Y-107813318D01*
X167741432Y-108080296D01*
X167741437Y-108118679D01*
X167741480Y-108384078D01*
X167741525Y-108627950D01*
X167741548Y-108851217D01*
X167741524Y-109054804D01*
X167741430Y-109239633D01*
X167741243Y-109406627D01*
X167740939Y-109556710D01*
X167740494Y-109690804D01*
X167739885Y-109809834D01*
X167739089Y-109914721D01*
X167738080Y-110006390D01*
X167736837Y-110085763D01*
X167735335Y-110153763D01*
X167733551Y-110211314D01*
X167731461Y-110259338D01*
X167729042Y-110298760D01*
X167726270Y-110330501D01*
X167723121Y-110355486D01*
X167719572Y-110374636D01*
X167715598Y-110388877D01*
X167711178Y-110399129D01*
X167706286Y-110406318D01*
X167700900Y-110411365D01*
X167694996Y-110415195D01*
X167688549Y-110418729D01*
X167681537Y-110422892D01*
X167679687Y-110423975D01*
X167674180Y-110426187D01*
X167665868Y-110428214D01*
X167653809Y-110430062D01*
X167637063Y-110431739D01*
X167614687Y-110433255D01*
X167585740Y-110434617D01*
X167549280Y-110435833D01*
X167504367Y-110436911D01*
X167450057Y-110437860D01*
X167385410Y-110438688D01*
X167309484Y-110439403D01*
X167221338Y-110440013D01*
X167120029Y-110440526D01*
X167004617Y-110440950D01*
X166874160Y-110441294D01*
X166727716Y-110441566D01*
X166564344Y-110441773D01*
X166383101Y-110441924D01*
X166183048Y-110442028D01*
X165963241Y-110442092D01*
X165722739Y-110442124D01*
X165460602Y-110442133D01*
X163269031Y-110442133D01*
X163230649Y-110403751D01*
X163206911Y-110376645D01*
X163195111Y-110349747D01*
X163192267Y-110313440D01*
X163192267Y-110261511D01*
X163280206Y-110261511D01*
X163330102Y-110259573D01*
X163440523Y-110240801D01*
X163541987Y-110203783D01*
X163633152Y-110150631D01*
X163712673Y-110083454D01*
X163779205Y-110004362D01*
X163831406Y-109915466D01*
X163867930Y-109818875D01*
X163887434Y-109716700D01*
X163888561Y-109612147D01*
X164704978Y-109612147D01*
X164704978Y-110057805D01*
X165881845Y-110060880D01*
X167058711Y-110063955D01*
X167117622Y-110090593D01*
X167142183Y-110102515D01*
X167172434Y-110119754D01*
X167189560Y-110132926D01*
X167197591Y-110140924D01*
X167212493Y-110148622D01*
X167213765Y-110144740D01*
X167215791Y-110121480D01*
X167217626Y-110079126D01*
X167219227Y-110019868D01*
X167220549Y-109945893D01*
X167221548Y-109859390D01*
X167222180Y-109762548D01*
X167222400Y-109657555D01*
X167222349Y-109588644D01*
X167222091Y-109490393D01*
X167221637Y-109400970D01*
X167221010Y-109322667D01*
X167220235Y-109257777D01*
X167219335Y-109208589D01*
X167218334Y-109177396D01*
X167217257Y-109166489D01*
X167214037Y-109167678D01*
X167196452Y-109177824D01*
X167170158Y-109194960D01*
X167157691Y-109203460D01*
X167143622Y-109212671D01*
X167129351Y-109220767D01*
X167113479Y-109227815D01*
X167094609Y-109233883D01*
X167071341Y-109239039D01*
X167042278Y-109243349D01*
X167006021Y-109246881D01*
X166961170Y-109249703D01*
X166906328Y-109251882D01*
X166840097Y-109253486D01*
X166761077Y-109254581D01*
X166667871Y-109255235D01*
X166559079Y-109255516D01*
X166433303Y-109255491D01*
X166289145Y-109255228D01*
X166125207Y-109254794D01*
X165940089Y-109254255D01*
X165761232Y-109253721D01*
X165602374Y-109253195D01*
X165463316Y-109252650D01*
X165342665Y-109252055D01*
X165239028Y-109251381D01*
X165151011Y-109250597D01*
X165077223Y-109249674D01*
X165016269Y-109248581D01*
X164966757Y-109247288D01*
X164927293Y-109245765D01*
X164896484Y-109243981D01*
X164872938Y-109241908D01*
X164855260Y-109239514D01*
X164842059Y-109236770D01*
X164831940Y-109233644D01*
X164823511Y-109230108D01*
X164815375Y-109226209D01*
X164778544Y-109206562D01*
X164748391Y-109187775D01*
X164746908Y-109186728D01*
X164724659Y-109172398D01*
X164711702Y-109166489D01*
X164711249Y-109167496D01*
X164709803Y-109184695D01*
X164708480Y-109221344D01*
X164707316Y-109275038D01*
X164706347Y-109343370D01*
X164705611Y-109423936D01*
X164705142Y-109514330D01*
X164704978Y-109612147D01*
X163888561Y-109612147D01*
X163888573Y-109611050D01*
X163870005Y-109504036D01*
X163830384Y-109397768D01*
X163772516Y-109300781D01*
X163697684Y-109215707D01*
X163609615Y-109146985D01*
X163510616Y-109096082D01*
X163402993Y-109064465D01*
X163289054Y-109053600D01*
X163192267Y-109053600D01*
X163192267Y-107433247D01*
X163192280Y-107222103D01*
X163192330Y-107017980D01*
X163192430Y-106834314D01*
X163192592Y-106670009D01*
X163192829Y-106523971D01*
X163193153Y-106395106D01*
X163193575Y-106282317D01*
X163194109Y-106184512D01*
X163194767Y-106100596D01*
X163195561Y-106029473D01*
X163195587Y-106027803D01*
X163801867Y-106027803D01*
X163801867Y-107087686D01*
X163864966Y-107049689D01*
X163890005Y-107035007D01*
X163917586Y-107020469D01*
X163945700Y-107008373D01*
X163976551Y-106998468D01*
X164012344Y-106990506D01*
X164055283Y-106984239D01*
X164107574Y-106979418D01*
X164171419Y-106975794D01*
X164249025Y-106973119D01*
X164342594Y-106971143D01*
X164454333Y-106969618D01*
X164586445Y-106968296D01*
X164706434Y-106967387D01*
X164823063Y-106966980D01*
X164918531Y-106967233D01*
X164992556Y-106968143D01*
X165044855Y-106969707D01*
X165075149Y-106971921D01*
X165083156Y-106974780D01*
X165079858Y-106977839D01*
X165058408Y-106995994D01*
X165021889Y-107025725D01*
X164972442Y-107065361D01*
X164912207Y-107113229D01*
X164843327Y-107167657D01*
X164767943Y-107226973D01*
X164688196Y-107289505D01*
X164606228Y-107353579D01*
X164524180Y-107417525D01*
X164444194Y-107479669D01*
X164368411Y-107538339D01*
X164298973Y-107591863D01*
X164238021Y-107638570D01*
X164187696Y-107676786D01*
X164150140Y-107704839D01*
X164127495Y-107721057D01*
X164055212Y-107766365D01*
X163975463Y-107806339D01*
X163907188Y-107827870D01*
X163849844Y-107831173D01*
X163801867Y-107825884D01*
X163802117Y-108957644D01*
X163832722Y-108918133D01*
X163840089Y-108908752D01*
X163894438Y-108845817D01*
X163962259Y-108777003D01*
X164045516Y-108700404D01*
X164146178Y-108614112D01*
X164166847Y-108596948D01*
X164216409Y-108556167D01*
X164277326Y-108506412D01*
X164347898Y-108449045D01*
X164426424Y-108385431D01*
X164511204Y-108316931D01*
X164600537Y-108244910D01*
X164692722Y-108170730D01*
X164711702Y-108155483D01*
X164786060Y-108095754D01*
X164878848Y-108021347D01*
X164969388Y-107948869D01*
X165055978Y-107879686D01*
X165136918Y-107815159D01*
X165210506Y-107756653D01*
X165275044Y-107705530D01*
X165328829Y-107663153D01*
X165370162Y-107630885D01*
X165397342Y-107610090D01*
X165408668Y-107602131D01*
X165412771Y-107603889D01*
X165433334Y-107616770D01*
X165469561Y-107641115D01*
X165519824Y-107675753D01*
X165582492Y-107719514D01*
X165655936Y-107771225D01*
X165738527Y-107829716D01*
X165828636Y-107893816D01*
X165924631Y-107962354D01*
X166024885Y-108034157D01*
X166127768Y-108108056D01*
X166231650Y-108182879D01*
X166334901Y-108257455D01*
X166435892Y-108330613D01*
X166532994Y-108401181D01*
X166624577Y-108467989D01*
X166709011Y-108529865D01*
X166784667Y-108585639D01*
X166849916Y-108634138D01*
X166903128Y-108674193D01*
X166942673Y-108704631D01*
X166968026Y-108725056D01*
X167022295Y-108771101D01*
X167078775Y-108821388D01*
X167128669Y-108868185D01*
X167222400Y-108959349D01*
X167222400Y-107804910D01*
X167146200Y-107805544D01*
X167104160Y-107804426D01*
X167068334Y-107798696D01*
X167030772Y-107786110D01*
X166982577Y-107764432D01*
X166975897Y-107761211D01*
X166926359Y-107735812D01*
X166878369Y-107709004D01*
X166841466Y-107686083D01*
X166834834Y-107681515D01*
X166803593Y-107659484D01*
X166758654Y-107627307D01*
X166702147Y-107586543D01*
X166636204Y-107538755D01*
X166562957Y-107485502D01*
X166484536Y-107428345D01*
X166403072Y-107368845D01*
X166320698Y-107308563D01*
X166239544Y-107249060D01*
X166161742Y-107191895D01*
X166089423Y-107138630D01*
X166024718Y-107090826D01*
X165969759Y-107050043D01*
X165926676Y-107017842D01*
X165897602Y-106995784D01*
X165884667Y-106985429D01*
X165880351Y-106980956D01*
X165878312Y-106976764D01*
X165880926Y-106973357D01*
X165889986Y-106970675D01*
X165907285Y-106968659D01*
X165934614Y-106967252D01*
X165973765Y-106966395D01*
X166026533Y-106966030D01*
X166094707Y-106966097D01*
X166180082Y-106966540D01*
X166284449Y-106967298D01*
X166409600Y-106968315D01*
X166454300Y-106968692D01*
X166575395Y-106969831D01*
X166676688Y-106971028D01*
X166760262Y-106972364D01*
X166828204Y-106973923D01*
X166882599Y-106975785D01*
X166925532Y-106978034D01*
X166959089Y-106980752D01*
X166985355Y-106984021D01*
X167006416Y-106987922D01*
X167024357Y-106992539D01*
X167050770Y-107000808D01*
X167112772Y-107024417D01*
X167165573Y-107050315D01*
X167202645Y-107075465D01*
X167204075Y-107076661D01*
X167208424Y-107078832D01*
X167212026Y-107076672D01*
X167214951Y-107068356D01*
X167217269Y-107052060D01*
X167219051Y-107025959D01*
X167220367Y-106988229D01*
X167221286Y-106937044D01*
X167221878Y-106870580D01*
X167222215Y-106787013D01*
X167222365Y-106684517D01*
X167222400Y-106561268D01*
X167222400Y-106029704D01*
X167164783Y-106068477D01*
X167155893Y-106074568D01*
X167141069Y-106085024D01*
X167127422Y-106094421D01*
X167113765Y-106102817D01*
X167098911Y-106110267D01*
X167081670Y-106116827D01*
X167060855Y-106122554D01*
X167035280Y-106127505D01*
X167003755Y-106131734D01*
X166965093Y-106135299D01*
X166918107Y-106138256D01*
X166861608Y-106140660D01*
X166794409Y-106142569D01*
X166715322Y-106144038D01*
X166623160Y-106145124D01*
X166516734Y-106145882D01*
X166394857Y-106146370D01*
X166256341Y-106146642D01*
X166099999Y-106146757D01*
X165924642Y-106146769D01*
X165729082Y-106146735D01*
X165512133Y-106146711D01*
X165389513Y-106146720D01*
X165184447Y-106146757D01*
X165000116Y-106146773D01*
X164835334Y-106146712D01*
X164688916Y-106146516D01*
X164559674Y-106146130D01*
X164446422Y-106145495D01*
X164347975Y-106144556D01*
X164263144Y-106143255D01*
X164190744Y-106141536D01*
X164129589Y-106139341D01*
X164078492Y-106136615D01*
X164036267Y-106133299D01*
X164001727Y-106129338D01*
X163973686Y-106124675D01*
X163950958Y-106119253D01*
X163932356Y-106113014D01*
X163916693Y-106105903D01*
X163902784Y-106097862D01*
X163889441Y-106088834D01*
X163875479Y-106078764D01*
X163859711Y-106067593D01*
X163801867Y-106027803D01*
X163195587Y-106027803D01*
X163196504Y-105970050D01*
X163197608Y-105921232D01*
X163198884Y-105881923D01*
X163200347Y-105851031D01*
X163202007Y-105827459D01*
X163203878Y-105810114D01*
X163205972Y-105797901D01*
X163208300Y-105789725D01*
X163210876Y-105784492D01*
X163214445Y-105778496D01*
X163217978Y-105771721D01*
X163221488Y-105765522D01*
X163225918Y-105759874D01*
X163232208Y-105754753D01*
X163241301Y-105750131D01*
X163254139Y-105745985D01*
X163271662Y-105742287D01*
X163294813Y-105739013D01*
X163324534Y-105736137D01*
X163361765Y-105733633D01*
X163407449Y-105731476D01*
X163462527Y-105729640D01*
X163527941Y-105728100D01*
X163604633Y-105726830D01*
X163693544Y-105725805D01*
X163795617Y-105724999D01*
X163801867Y-105724966D01*
X163911792Y-105724386D01*
X164043011Y-105723941D01*
G37*
D10*
X164043011Y-105723941D02*
X164190216Y-105723638D01*
X164354349Y-105723452D01*
X164536352Y-105723358D01*
X164737165Y-105723329D01*
X164957732Y-105723339D01*
X165198992Y-105723364D01*
X165461889Y-105723378D01*
X165504040Y-105723378D01*
X165764668Y-105723354D01*
X166003796Y-105723315D01*
X166222360Y-105723292D01*
X166421295Y-105723313D01*
X166601535Y-105723407D01*
X166764015Y-105723605D01*
X166909670Y-105723937D01*
X167039434Y-105724431D01*
X167154243Y-105725117D01*
X167255030Y-105726024D01*
X167342730Y-105727183D01*
X167418279Y-105728622D01*
X167482611Y-105730371D01*
X167536661Y-105732460D01*
X167581363Y-105734917D01*
X167617652Y-105737773D01*
X167646463Y-105741057D01*
X167668731Y-105744798D01*
X167685390Y-105749026D01*
X167697375Y-105753771D01*
X167705621Y-105759061D01*
X167711062Y-105764927D01*
X167714634Y-105771398D01*
X167717270Y-105778503D01*
X167719906Y-105786272D01*
X167723477Y-105794734D01*
X167725145Y-105799092D01*
X167727111Y-105807605D01*
X167728911Y-105820306D01*
X167730555Y-105838115D01*
X167732047Y-105861951D01*
X167733397Y-105892734D01*
X167734611Y-105931383D01*
X167735697Y-105978818D01*
X167736661Y-106035957D01*
X167737511Y-106103721D01*
X167738253Y-106183029D01*
X167738897Y-106274801D01*
X167739447Y-106379956D01*
X167739913Y-106499413D01*
X167740300Y-106634092D01*
X167740616Y-106784912D01*
X167740869Y-106952794D01*
X167741066Y-107138655D01*
X167741213Y-107343417D01*
X167741318Y-107567998D01*
X167741389Y-107813318D01*
X167741432Y-108080296D01*
X167741437Y-108118679D01*
X167741480Y-108384078D01*
X167741525Y-108627950D01*
X167741548Y-108851217D01*
X167741524Y-109054804D01*
X167741430Y-109239633D01*
X167741243Y-109406627D01*
X167740939Y-109556710D01*
X167740494Y-109690804D01*
X167739885Y-109809834D01*
X167739089Y-109914721D01*
X167738080Y-110006390D01*
X167736837Y-110085763D01*
X167735335Y-110153763D01*
X167733551Y-110211314D01*
X167731461Y-110259338D01*
X167729042Y-110298760D01*
X167726270Y-110330501D01*
X167723121Y-110355486D01*
X167719572Y-110374636D01*
X167715598Y-110388877D01*
X167711178Y-110399129D01*
X167706286Y-110406318D01*
X167700900Y-110411365D01*
X167694996Y-110415195D01*
X167688549Y-110418729D01*
X167681537Y-110422892D01*
X167679687Y-110423975D01*
X167674180Y-110426187D01*
X167665868Y-110428214D01*
X167653809Y-110430062D01*
X167637063Y-110431739D01*
X167614687Y-110433255D01*
X167585740Y-110434617D01*
X167549280Y-110435833D01*
X167504367Y-110436911D01*
X167450057Y-110437860D01*
X167385410Y-110438688D01*
X167309484Y-110439403D01*
X167221338Y-110440013D01*
X167120029Y-110440526D01*
X167004617Y-110440950D01*
X166874160Y-110441294D01*
X166727716Y-110441566D01*
X166564344Y-110441773D01*
X166383101Y-110441924D01*
X166183048Y-110442028D01*
X165963241Y-110442092D01*
X165722739Y-110442124D01*
X165460602Y-110442133D01*
X163269031Y-110442133D01*
X163230649Y-110403751D01*
X163206911Y-110376645D01*
X163195111Y-110349747D01*
X163192267Y-110313440D01*
X163192267Y-110261511D01*
X163280206Y-110261511D01*
X163330102Y-110259573D01*
X163440523Y-110240801D01*
X163541987Y-110203783D01*
X163633152Y-110150631D01*
X163712673Y-110083454D01*
X163779205Y-110004362D01*
X163831406Y-109915466D01*
X163867930Y-109818875D01*
X163887434Y-109716700D01*
X163888561Y-109612147D01*
X164704978Y-109612147D01*
X164704978Y-110057805D01*
X165881845Y-110060880D01*
X167058711Y-110063955D01*
X167117622Y-110090593D01*
X167142183Y-110102515D01*
X167172434Y-110119754D01*
X167189560Y-110132926D01*
X167197591Y-110140924D01*
X167212493Y-110148622D01*
X167213765Y-110144740D01*
X167215791Y-110121480D01*
X167217626Y-110079126D01*
X167219227Y-110019868D01*
X167220549Y-109945893D01*
X167221548Y-109859390D01*
X167222180Y-109762548D01*
X167222400Y-109657555D01*
X167222349Y-109588644D01*
X167222091Y-109490393D01*
X167221637Y-109400970D01*
X167221010Y-109322667D01*
X167220235Y-109257777D01*
X167219335Y-109208589D01*
X167218334Y-109177396D01*
X167217257Y-109166489D01*
X167214037Y-109167678D01*
X167196452Y-109177824D01*
X167170158Y-109194960D01*
X167157691Y-109203460D01*
X167143622Y-109212671D01*
X167129351Y-109220767D01*
X167113479Y-109227815D01*
X167094609Y-109233883D01*
X167071341Y-109239039D01*
X167042278Y-109243349D01*
X167006021Y-109246881D01*
X166961170Y-109249703D01*
X166906328Y-109251882D01*
X166840097Y-109253486D01*
X166761077Y-109254581D01*
X166667871Y-109255235D01*
X166559079Y-109255516D01*
X166433303Y-109255491D01*
X166289145Y-109255228D01*
X166125207Y-109254794D01*
X165940089Y-109254255D01*
X165761232Y-109253721D01*
X165602374Y-109253195D01*
X165463316Y-109252650D01*
X165342665Y-109252055D01*
X165239028Y-109251381D01*
X165151011Y-109250597D01*
X165077223Y-109249674D01*
X165016269Y-109248581D01*
X164966757Y-109247288D01*
X164927293Y-109245765D01*
X164896484Y-109243981D01*
X164872938Y-109241908D01*
X164855260Y-109239514D01*
X164842059Y-109236770D01*
X164831940Y-109233644D01*
X164823511Y-109230108D01*
X164815375Y-109226209D01*
X164778544Y-109206562D01*
X164748391Y-109187775D01*
X164746908Y-109186728D01*
X164724659Y-109172398D01*
X164711702Y-109166489D01*
X164711249Y-109167496D01*
X164709803Y-109184695D01*
X164708480Y-109221344D01*
X164707316Y-109275038D01*
X164706347Y-109343370D01*
X164705611Y-109423936D01*
X164705142Y-109514330D01*
X164704978Y-109612147D01*
X163888561Y-109612147D01*
X163888573Y-109611050D01*
X163870005Y-109504036D01*
X163830384Y-109397768D01*
X163772516Y-109300781D01*
X163697684Y-109215707D01*
X163609615Y-109146985D01*
X163510616Y-109096082D01*
X163402993Y-109064465D01*
X163289054Y-109053600D01*
X163192267Y-109053600D01*
X163192267Y-107433247D01*
X163192280Y-107222103D01*
X163192330Y-107017980D01*
X163192430Y-106834314D01*
X163192592Y-106670009D01*
X163192829Y-106523971D01*
X163193153Y-106395106D01*
X163193575Y-106282317D01*
X163194109Y-106184512D01*
X163194767Y-106100596D01*
X163195561Y-106029473D01*
X163195587Y-106027803D01*
X163801867Y-106027803D01*
X163801867Y-107087686D01*
X163864966Y-107049689D01*
X163890005Y-107035007D01*
X163917586Y-107020469D01*
X163945700Y-107008373D01*
X163976551Y-106998468D01*
X164012344Y-106990506D01*
X164055283Y-106984239D01*
X164107574Y-106979418D01*
X164171419Y-106975794D01*
X164249025Y-106973119D01*
X164342594Y-106971143D01*
X164454333Y-106969618D01*
X164586445Y-106968296D01*
X164706434Y-106967387D01*
X164823063Y-106966980D01*
X164918531Y-106967233D01*
X164992556Y-106968143D01*
X165044855Y-106969707D01*
X165075149Y-106971921D01*
X165083156Y-106974780D01*
X165079858Y-106977839D01*
X165058408Y-106995994D01*
X165021889Y-107025725D01*
X164972442Y-107065361D01*
X164912207Y-107113229D01*
X164843327Y-107167657D01*
X164767943Y-107226973D01*
X164688196Y-107289505D01*
X164606228Y-107353579D01*
X164524180Y-107417525D01*
X164444194Y-107479669D01*
X164368411Y-107538339D01*
X164298973Y-107591863D01*
X164238021Y-107638570D01*
X164187696Y-107676786D01*
X164150140Y-107704839D01*
X164127495Y-107721057D01*
X164055212Y-107766365D01*
X163975463Y-107806339D01*
X163907188Y-107827870D01*
X163849844Y-107831173D01*
X163801867Y-107825884D01*
X163802117Y-108957644D01*
X163832722Y-108918133D01*
X163840089Y-108908752D01*
X163894438Y-108845817D01*
X163962259Y-108777003D01*
X164045516Y-108700404D01*
X164146178Y-108614112D01*
X164166847Y-108596948D01*
X164216409Y-108556167D01*
X164277326Y-108506412D01*
X164347898Y-108449045D01*
X164426424Y-108385431D01*
X164511204Y-108316931D01*
X164600537Y-108244910D01*
X164692722Y-108170730D01*
X164711702Y-108155483D01*
X164786060Y-108095754D01*
X164878848Y-108021347D01*
X164969388Y-107948869D01*
X165055978Y-107879686D01*
X165136918Y-107815159D01*
X165210506Y-107756653D01*
X165275044Y-107705530D01*
X165328829Y-107663153D01*
X165370162Y-107630885D01*
X165397342Y-107610090D01*
X165408668Y-107602131D01*
X165412771Y-107603889D01*
X165433334Y-107616770D01*
X165469561Y-107641115D01*
X165519824Y-107675753D01*
X165582492Y-107719514D01*
X165655936Y-107771225D01*
X165738527Y-107829716D01*
X165828636Y-107893816D01*
X165924631Y-107962354D01*
X166024885Y-108034157D01*
X166127768Y-108108056D01*
X166231650Y-108182879D01*
X166334901Y-108257455D01*
X166435892Y-108330613D01*
X166532994Y-108401181D01*
X166624577Y-108467989D01*
X166709011Y-108529865D01*
X166784667Y-108585639D01*
X166849916Y-108634138D01*
X166903128Y-108674193D01*
X166942673Y-108704631D01*
X166968026Y-108725056D01*
X167022295Y-108771101D01*
X167078775Y-108821388D01*
X167128669Y-108868185D01*
X167222400Y-108959349D01*
X167222400Y-107804910D01*
X167146200Y-107805544D01*
X167104160Y-107804426D01*
X167068334Y-107798696D01*
X167030772Y-107786110D01*
X166982577Y-107764432D01*
X166975897Y-107761211D01*
X166926359Y-107735812D01*
X166878369Y-107709004D01*
X166841466Y-107686083D01*
X166834834Y-107681515D01*
X166803593Y-107659484D01*
X166758654Y-107627307D01*
X166702147Y-107586543D01*
X166636204Y-107538755D01*
X166562957Y-107485502D01*
X166484536Y-107428345D01*
X166403072Y-107368845D01*
X166320698Y-107308563D01*
X166239544Y-107249060D01*
X166161742Y-107191895D01*
X166089423Y-107138630D01*
X166024718Y-107090826D01*
X165969759Y-107050043D01*
X165926676Y-107017842D01*
X165897602Y-106995784D01*
X165884667Y-106985429D01*
X165880351Y-106980956D01*
X165878312Y-106976764D01*
X165880926Y-106973357D01*
X165889986Y-106970675D01*
X165907285Y-106968659D01*
X165934614Y-106967252D01*
X165973765Y-106966395D01*
X166026533Y-106966030D01*
X166094707Y-106966097D01*
X166180082Y-106966540D01*
X166284449Y-106967298D01*
X166409600Y-106968315D01*
X166454300Y-106968692D01*
X166575395Y-106969831D01*
X166676688Y-106971028D01*
X166760262Y-106972364D01*
X166828204Y-106973923D01*
X166882599Y-106975785D01*
X166925532Y-106978034D01*
X166959089Y-106980752D01*
X166985355Y-106984021D01*
X167006416Y-106987922D01*
X167024357Y-106992539D01*
X167050770Y-107000808D01*
X167112772Y-107024417D01*
X167165573Y-107050315D01*
X167202645Y-107075465D01*
X167204075Y-107076661D01*
X167208424Y-107078832D01*
X167212026Y-107076672D01*
X167214951Y-107068356D01*
X167217269Y-107052060D01*
X167219051Y-107025959D01*
X167220367Y-106988229D01*
X167221286Y-106937044D01*
X167221878Y-106870580D01*
X167222215Y-106787013D01*
X167222365Y-106684517D01*
X167222400Y-106561268D01*
X167222400Y-106029704D01*
X167164783Y-106068477D01*
X167155893Y-106074568D01*
X167141069Y-106085024D01*
X167127422Y-106094421D01*
X167113765Y-106102817D01*
X167098911Y-106110267D01*
X167081670Y-106116827D01*
X167060855Y-106122554D01*
X167035280Y-106127505D01*
X167003755Y-106131734D01*
X166965093Y-106135299D01*
X166918107Y-106138256D01*
X166861608Y-106140660D01*
X166794409Y-106142569D01*
X166715322Y-106144038D01*
X166623160Y-106145124D01*
X166516734Y-106145882D01*
X166394857Y-106146370D01*
X166256341Y-106146642D01*
X166099999Y-106146757D01*
X165924642Y-106146769D01*
X165729082Y-106146735D01*
X165512133Y-106146711D01*
X165389513Y-106146720D01*
X165184447Y-106146757D01*
X165000116Y-106146773D01*
X164835334Y-106146712D01*
X164688916Y-106146516D01*
X164559674Y-106146130D01*
X164446422Y-106145495D01*
X164347975Y-106144556D01*
X164263144Y-106143255D01*
X164190744Y-106141536D01*
X164129589Y-106139341D01*
X164078492Y-106136615D01*
X164036267Y-106133299D01*
X164001727Y-106129338D01*
X163973686Y-106124675D01*
X163950958Y-106119253D01*
X163932356Y-106113014D01*
X163916693Y-106105903D01*
X163902784Y-106097862D01*
X163889441Y-106088834D01*
X163875479Y-106078764D01*
X163859711Y-106067593D01*
X163801867Y-106027803D01*
X163195587Y-106027803D01*
X163196504Y-105970050D01*
X163197608Y-105921232D01*
X163198884Y-105881923D01*
X163200347Y-105851031D01*
X163202007Y-105827459D01*
X163203878Y-105810114D01*
X163205972Y-105797901D01*
X163208300Y-105789725D01*
X163210876Y-105784492D01*
X163214445Y-105778496D01*
X163217978Y-105771721D01*
X163221488Y-105765522D01*
X163225918Y-105759874D01*
X163232208Y-105754753D01*
X163241301Y-105750131D01*
X163254139Y-105745985D01*
X163271662Y-105742287D01*
X163294813Y-105739013D01*
X163324534Y-105736137D01*
X163361765Y-105733633D01*
X163407449Y-105731476D01*
X163462527Y-105729640D01*
X163527941Y-105728100D01*
X163604633Y-105726830D01*
X163693544Y-105725805D01*
X163795617Y-105724999D01*
X163801867Y-105724966D01*
X163911792Y-105724386D01*
X164043011Y-105723941D01*
G36*
X165621325Y-110682449D02*
G01*
X165822581Y-110699209D01*
X166017128Y-110732708D01*
X166200756Y-110782956D01*
X166318053Y-110826810D01*
X166480951Y-110904652D01*
X166634866Y-110998172D01*
X166776671Y-111105178D01*
X166903239Y-111223481D01*
X167011441Y-111350889D01*
X167064120Y-111428394D01*
X167133750Y-111555275D01*
X167192468Y-111692757D01*
X167237587Y-111834284D01*
X167266422Y-111973298D01*
X167268106Y-111987403D01*
X167271434Y-112030847D01*
X167274275Y-112088277D01*
X167276373Y-112153878D01*
X167277468Y-112221833D01*
X167275140Y-112348622D01*
X167262136Y-112496327D01*
X167237133Y-112634221D01*
X167199318Y-112767986D01*
X167190889Y-112791438D01*
X167171408Y-112839388D01*
X167146473Y-112895860D01*
X167117722Y-112957621D01*
X167086790Y-113021437D01*
X167055315Y-113084074D01*
X167024934Y-113142297D01*
X166997283Y-113192873D01*
X166973999Y-113232567D01*
X166956718Y-113258146D01*
X166947079Y-113266375D01*
X166943984Y-113264924D01*
X166924079Y-113253750D01*
X166888420Y-113232866D01*
X166839459Y-113203735D01*
X166779646Y-113167819D01*
X166711433Y-113126580D01*
X166637271Y-113081483D01*
X166340008Y-112900215D01*
X166384539Y-112853685D01*
X166462865Y-112762277D01*
X166537439Y-112648666D01*
X166591474Y-112530878D01*
X166624290Y-112410441D01*
X166635211Y-112288883D01*
X166633868Y-112247415D01*
X166615612Y-112129920D01*
X166576617Y-112019911D01*
X166517670Y-111918570D01*
X166439557Y-111827079D01*
X166343064Y-111746620D01*
X166228978Y-111678373D01*
X166194724Y-111662092D01*
X166071240Y-111616018D01*
X165932918Y-111580894D01*
X165783561Y-111556803D01*
X165626973Y-111543827D01*
X165466956Y-111542051D01*
X165307314Y-111551557D01*
X165151850Y-111572428D01*
X165004366Y-111604748D01*
X164868667Y-111648601D01*
X164782076Y-111686018D01*
X164668688Y-111750815D01*
X164575070Y-111826228D01*
X164500959Y-111912582D01*
X164446094Y-112010205D01*
X164410212Y-112119423D01*
X164393051Y-112240561D01*
X164391880Y-112309962D01*
X164406141Y-112432832D01*
X164441241Y-112548336D01*
X164496682Y-112655047D01*
X164571964Y-112751536D01*
X164586440Y-112767280D01*
X164612962Y-112797850D01*
X164630138Y-112820191D01*
X164634787Y-112830309D01*
X164632597Y-112832294D01*
X164613721Y-112846759D01*
X164580397Y-112870600D01*
X164535380Y-112901971D01*
X164481425Y-112939026D01*
X164421285Y-112979917D01*
X164357718Y-113022798D01*
X164293476Y-113065822D01*
X164231315Y-113107143D01*
X164173991Y-113144914D01*
X164124257Y-113177288D01*
X164084868Y-113202418D01*
X164058580Y-113218458D01*
X164048147Y-113223561D01*
X164043941Y-113218950D01*
X164038933Y-113199733D01*
X164036386Y-113190162D01*
X164025249Y-113162191D01*
X164006802Y-113120552D01*
X163982725Y-113069005D01*
X163954699Y-113011310D01*
X163949154Y-113000043D01*
X163869889Y-112822313D01*
X163810385Y-112652510D01*
X163770245Y-112488570D01*
X163749071Y-112328429D01*
X163746466Y-112170023D01*
X163762033Y-112011289D01*
X163779523Y-111915732D01*
X163824564Y-111751442D01*
X163887656Y-111597411D01*
X163969915Y-111451491D01*
X164072457Y-111311534D01*
X164196399Y-111175392D01*
X164241661Y-111131527D01*
X164373865Y-111019242D01*
X164511832Y-110926028D01*
X164659750Y-110849281D01*
X164821803Y-110786397D01*
X164833391Y-110782580D01*
X165019392Y-110732493D01*
X165215521Y-110699101D01*
X165417568Y-110682416D01*
X165621325Y-110682449D01*
G37*
X165621325Y-110682449D02*
X165822581Y-110699209D01*
X166017128Y-110732708D01*
X166200756Y-110782956D01*
X166318053Y-110826810D01*
X166480951Y-110904652D01*
X166634866Y-110998172D01*
X166776671Y-111105178D01*
X166903239Y-111223481D01*
X167011441Y-111350889D01*
X167064120Y-111428394D01*
X167133750Y-111555275D01*
X167192468Y-111692757D01*
X167237587Y-111834284D01*
X167266422Y-111973298D01*
X167268106Y-111987403D01*
X167271434Y-112030847D01*
X167274275Y-112088277D01*
X167276373Y-112153878D01*
X167277468Y-112221833D01*
X167275140Y-112348622D01*
X167262136Y-112496327D01*
X167237133Y-112634221D01*
X167199318Y-112767986D01*
X167190889Y-112791438D01*
X167171408Y-112839388D01*
X167146473Y-112895860D01*
X167117722Y-112957621D01*
X167086790Y-113021437D01*
X167055315Y-113084074D01*
X167024934Y-113142297D01*
X166997283Y-113192873D01*
X166973999Y-113232567D01*
X166956718Y-113258146D01*
X166947079Y-113266375D01*
X166943984Y-113264924D01*
X166924079Y-113253750D01*
X166888420Y-113232866D01*
X166839459Y-113203735D01*
X166779646Y-113167819D01*
X166711433Y-113126580D01*
X166637271Y-113081483D01*
X166340008Y-112900215D01*
X166384539Y-112853685D01*
X166462865Y-112762277D01*
X166537439Y-112648666D01*
X166591474Y-112530878D01*
X166624290Y-112410441D01*
X166635211Y-112288883D01*
X166633868Y-112247415D01*
X166615612Y-112129920D01*
X166576617Y-112019911D01*
X166517670Y-111918570D01*
X166439557Y-111827079D01*
X166343064Y-111746620D01*
X166228978Y-111678373D01*
X166194724Y-111662092D01*
X166071240Y-111616018D01*
X165932918Y-111580894D01*
X165783561Y-111556803D01*
X165626973Y-111543827D01*
X165466956Y-111542051D01*
X165307314Y-111551557D01*
X165151850Y-111572428D01*
X165004366Y-111604748D01*
X164868667Y-111648601D01*
X164782076Y-111686018D01*
X164668688Y-111750815D01*
X164575070Y-111826228D01*
X164500959Y-111912582D01*
X164446094Y-112010205D01*
X164410212Y-112119423D01*
X164393051Y-112240561D01*
X164391880Y-112309962D01*
X164406141Y-112432832D01*
X164441241Y-112548336D01*
X164496682Y-112655047D01*
X164571964Y-112751536D01*
X164586440Y-112767280D01*
X164612962Y-112797850D01*
X164630138Y-112820191D01*
X164634787Y-112830309D01*
X164632597Y-112832294D01*
X164613721Y-112846759D01*
X164580397Y-112870600D01*
X164535380Y-112901971D01*
X164481425Y-112939026D01*
X164421285Y-112979917D01*
X164357718Y-113022798D01*
X164293476Y-113065822D01*
X164231315Y-113107143D01*
X164173991Y-113144914D01*
X164124257Y-113177288D01*
X164084868Y-113202418D01*
X164058580Y-113218458D01*
X164048147Y-113223561D01*
X164043941Y-113218950D01*
X164038933Y-113199733D01*
X164036386Y-113190162D01*
X164025249Y-113162191D01*
X164006802Y-113120552D01*
X163982725Y-113069005D01*
X163954699Y-113011310D01*
X163949154Y-113000043D01*
X163869889Y-112822313D01*
X163810385Y-112652510D01*
X163770245Y-112488570D01*
X163749071Y-112328429D01*
X163746466Y-112170023D01*
X163762033Y-112011289D01*
X163779523Y-111915732D01*
X163824564Y-111751442D01*
X163887656Y-111597411D01*
X163969915Y-111451491D01*
X164072457Y-111311534D01*
X164196399Y-111175392D01*
X164241661Y-111131527D01*
X164373865Y-111019242D01*
X164511832Y-110926028D01*
X164659750Y-110849281D01*
X164821803Y-110786397D01*
X164833391Y-110782580D01*
X165019392Y-110732493D01*
X165215521Y-110699101D01*
X165417568Y-110682416D01*
X165621325Y-110682449D01*
G36*
X166477363Y-113272739D02*
G01*
X166552202Y-113276368D01*
X166614401Y-113283978D01*
X166670984Y-113296312D01*
X166797076Y-113340687D01*
X166911679Y-113403600D01*
X167012568Y-113483762D01*
X167098924Y-113580260D01*
X167169932Y-113692178D01*
X167224776Y-113818603D01*
X167262638Y-113958622D01*
X167268351Y-113994851D01*
X167274313Y-114073845D01*
X167274646Y-114162159D01*
X167269659Y-114251925D01*
X167259666Y-114335278D01*
X167244978Y-114404349D01*
X167214749Y-114490813D01*
X167160057Y-114600714D01*
X167092543Y-114698044D01*
X167041556Y-114760133D01*
X167137622Y-114763395D01*
X167233689Y-114766657D01*
X167233689Y-115189550D01*
X167233686Y-115200457D01*
X167233380Y-115294944D01*
X167232616Y-115381669D01*
X167231451Y-115458163D01*
X167229942Y-115521957D01*
X167228147Y-115570582D01*
X167226121Y-115601567D01*
X167223922Y-115612444D01*
X167223463Y-115612422D01*
X167207910Y-115605386D01*
X167185071Y-115589566D01*
X167179638Y-115585266D01*
X167165606Y-115574223D01*
X167152186Y-115564689D01*
X167137722Y-115556539D01*
X167120556Y-115549648D01*
X167099034Y-115543889D01*
X167071498Y-115539138D01*
X167036292Y-115535269D01*
X166991760Y-115532156D01*
X166936246Y-115529675D01*
X166868093Y-115527700D01*
X166785645Y-115526106D01*
X166687246Y-115524766D01*
X166571239Y-115523556D01*
X166435968Y-115522351D01*
X166279778Y-115521025D01*
X166137012Y-115519772D01*
X165991942Y-115518349D01*
X165866027Y-115516824D01*
X165757436Y-115515067D01*
X165664334Y-115512949D01*
X165584891Y-115510340D01*
X165517273Y-115507110D01*
X165459649Y-115503131D01*
X165410185Y-115498272D01*
X165367050Y-115492403D01*
X165328410Y-115485396D01*
X165292434Y-115477120D01*
X165257289Y-115467446D01*
X165221142Y-115456244D01*
X165182161Y-115443384D01*
X165139091Y-115427910D01*
X165046871Y-115385006D01*
X164967099Y-115331265D01*
X164892965Y-115262424D01*
X164829405Y-115184815D01*
X164767725Y-115080239D01*
X164720202Y-114960756D01*
X164686567Y-114825492D01*
X164666552Y-114673574D01*
X164659889Y-114504128D01*
X164660287Y-114446110D01*
X164662335Y-114380602D01*
X164666704Y-114319307D01*
X164674035Y-114257903D01*
X164684969Y-114192068D01*
X164700147Y-114117480D01*
X164720209Y-114029816D01*
X164745797Y-113924755D01*
X164752820Y-113896194D01*
X164770776Y-113820946D01*
X164786820Y-113750612D01*
X164800028Y-113689433D01*
X164809474Y-113641646D01*
X164814231Y-113611489D01*
X164817910Y-113583217D01*
X164823187Y-113556940D01*
X164827942Y-113546941D01*
X164836781Y-113550048D01*
X164864072Y-113560806D01*
X164906906Y-113578136D01*
X164962425Y-113600874D01*
X165027772Y-113627853D01*
X165100089Y-113657910D01*
X165115879Y-113664507D01*
X165206484Y-113703093D01*
X165276217Y-113734232D01*
X165325405Y-113758083D01*
X165354374Y-113774802D01*
X165363452Y-113784546D01*
X165361405Y-113792234D01*
X165351760Y-113818585D01*
X165336190Y-113857018D01*
X165316815Y-113902178D01*
X165278814Y-113996707D01*
X165237780Y-114133520D01*
X165212612Y-114274711D01*
X165208611Y-114312686D01*
X165206447Y-114415941D01*
X165219622Y-114503048D01*
X165248756Y-114574871D01*
X165294466Y-114632269D01*
X165357372Y-114676104D01*
X165438092Y-114707238D01*
X165537245Y-114726530D01*
X165596224Y-114733950D01*
X165589445Y-114572064D01*
X165589111Y-114546106D01*
X166111842Y-114546106D01*
X166111857Y-114554993D01*
X166112655Y-114610340D01*
X166114488Y-114657264D01*
X166117111Y-114691047D01*
X166120274Y-114706972D01*
X166126741Y-114711057D01*
X166148875Y-114715428D01*
X166187988Y-114718396D01*
X166245939Y-114720086D01*
X166324586Y-114720622D01*
X166520462Y-114720622D01*
X166576973Y-114675952D01*
X166592212Y-114663215D01*
X166634844Y-114616396D01*
X166670672Y-114555745D01*
X166675850Y-114545103D01*
X166692745Y-114506324D01*
X166702909Y-114471308D01*
X166708325Y-114431278D01*
X166710978Y-114377459D01*
X166711383Y-114359352D01*
X166708540Y-114283989D01*
X166696620Y-114223257D01*
X166674037Y-114171548D01*
X166639211Y-114123254D01*
X166634798Y-114118197D01*
X166579160Y-114069728D01*
X166515333Y-114041541D01*
X166440282Y-114032248D01*
X166368693Y-114039480D01*
X166305645Y-114064204D01*
X166247758Y-114108751D01*
X166200808Y-114163681D01*
X166160961Y-114236106D01*
X166133263Y-114322660D01*
X166117096Y-114425330D01*
X166111842Y-114546106D01*
X165589111Y-114546106D01*
X165587813Y-114445505D01*
X165594194Y-114294049D01*
X165608777Y-114145604D01*
X165630882Y-114009422D01*
X165645821Y-113944755D01*
X165688741Y-113812510D01*
X165745340Y-113690238D01*
X165814017Y-113580315D01*
X165893170Y-113485117D01*
X165981196Y-113407020D01*
X166076493Y-113348401D01*
X166128864Y-113324405D01*
X166199590Y-113298768D01*
X166270812Y-113282522D01*
X166349712Y-113274178D01*
X166440282Y-113272310D01*
X166443467Y-113272245D01*
X166477363Y-113272739D01*
G37*
X166477363Y-113272739D02*
X166552202Y-113276368D01*
X166614401Y-113283978D01*
X166670984Y-113296312D01*
X166797076Y-113340687D01*
X166911679Y-113403600D01*
X167012568Y-113483762D01*
X167098924Y-113580260D01*
X167169932Y-113692178D01*
X167224776Y-113818603D01*
X167262638Y-113958622D01*
X167268351Y-113994851D01*
X167274313Y-114073845D01*
X167274646Y-114162159D01*
X167269659Y-114251925D01*
X167259666Y-114335278D01*
X167244978Y-114404349D01*
X167214749Y-114490813D01*
X167160057Y-114600714D01*
X167092543Y-114698044D01*
X167041556Y-114760133D01*
X167137622Y-114763395D01*
X167233689Y-114766657D01*
X167233689Y-115189550D01*
X167233686Y-115200457D01*
X167233380Y-115294944D01*
X167232616Y-115381669D01*
X167231451Y-115458163D01*
X167229942Y-115521957D01*
X167228147Y-115570582D01*
X167226121Y-115601567D01*
X167223922Y-115612444D01*
X167223463Y-115612422D01*
X167207910Y-115605386D01*
X167185071Y-115589566D01*
X167179638Y-115585266D01*
X167165606Y-115574223D01*
X167152186Y-115564689D01*
X167137722Y-115556539D01*
X167120556Y-115549648D01*
X167099034Y-115543889D01*
X167071498Y-115539138D01*
X167036292Y-115535269D01*
X166991760Y-115532156D01*
X166936246Y-115529675D01*
X166868093Y-115527700D01*
X166785645Y-115526106D01*
X166687246Y-115524766D01*
X166571239Y-115523556D01*
X166435968Y-115522351D01*
X166279778Y-115521025D01*
X166137012Y-115519772D01*
X165991942Y-115518349D01*
X165866027Y-115516824D01*
X165757436Y-115515067D01*
X165664334Y-115512949D01*
X165584891Y-115510340D01*
X165517273Y-115507110D01*
X165459649Y-115503131D01*
X165410185Y-115498272D01*
X165367050Y-115492403D01*
X165328410Y-115485396D01*
X165292434Y-115477120D01*
X165257289Y-115467446D01*
X165221142Y-115456244D01*
X165182161Y-115443384D01*
X165139091Y-115427910D01*
X165046871Y-115385006D01*
X164967099Y-115331265D01*
X164892965Y-115262424D01*
X164829405Y-115184815D01*
X164767725Y-115080239D01*
X164720202Y-114960756D01*
X164686567Y-114825492D01*
X164666552Y-114673574D01*
X164659889Y-114504128D01*
X164660287Y-114446110D01*
X164662335Y-114380602D01*
X164666704Y-114319307D01*
X164674035Y-114257903D01*
X164684969Y-114192068D01*
X164700147Y-114117480D01*
X164720209Y-114029816D01*
X164745797Y-113924755D01*
X164752820Y-113896194D01*
X164770776Y-113820946D01*
X164786820Y-113750612D01*
X164800028Y-113689433D01*
X164809474Y-113641646D01*
X164814231Y-113611489D01*
X164817910Y-113583217D01*
X164823187Y-113556940D01*
X164827942Y-113546941D01*
X164836781Y-113550048D01*
X164864072Y-113560806D01*
X164906906Y-113578136D01*
X164962425Y-113600874D01*
X165027772Y-113627853D01*
X165100089Y-113657910D01*
X165115879Y-113664507D01*
X165206484Y-113703093D01*
X165276217Y-113734232D01*
X165325405Y-113758083D01*
X165354374Y-113774802D01*
X165363452Y-113784546D01*
X165361405Y-113792234D01*
X165351760Y-113818585D01*
X165336190Y-113857018D01*
X165316815Y-113902178D01*
X165278814Y-113996707D01*
X165237780Y-114133520D01*
X165212612Y-114274711D01*
X165208611Y-114312686D01*
X165206447Y-114415941D01*
X165219622Y-114503048D01*
X165248756Y-114574871D01*
X165294466Y-114632269D01*
X165357372Y-114676104D01*
X165438092Y-114707238D01*
X165537245Y-114726530D01*
X165596224Y-114733950D01*
X165589445Y-114572064D01*
X165589111Y-114546106D01*
X166111842Y-114546106D01*
X166111857Y-114554993D01*
X166112655Y-114610340D01*
X166114488Y-114657264D01*
X166117111Y-114691047D01*
X166120274Y-114706972D01*
X166126741Y-114711057D01*
X166148875Y-114715428D01*
X166187988Y-114718396D01*
X166245939Y-114720086D01*
X166324586Y-114720622D01*
X166520462Y-114720622D01*
X166576973Y-114675952D01*
X166592212Y-114663215D01*
X166634844Y-114616396D01*
X166670672Y-114555745D01*
X166675850Y-114545103D01*
X166692745Y-114506324D01*
X166702909Y-114471308D01*
X166708325Y-114431278D01*
X166710978Y-114377459D01*
X166711383Y-114359352D01*
X166708540Y-114283989D01*
X166696620Y-114223257D01*
X166674037Y-114171548D01*
X166639211Y-114123254D01*
X166634798Y-114118197D01*
X166579160Y-114069728D01*
X166515333Y-114041541D01*
X166440282Y-114032248D01*
X166368693Y-114039480D01*
X166305645Y-114064204D01*
X166247758Y-114108751D01*
X166200808Y-114163681D01*
X166160961Y-114236106D01*
X166133263Y-114322660D01*
X166117096Y-114425330D01*
X166111842Y-114546106D01*
X165589111Y-114546106D01*
X165587813Y-114445505D01*
X165594194Y-114294049D01*
X165608777Y-114145604D01*
X165630882Y-114009422D01*
X165645821Y-113944755D01*
X165688741Y-113812510D01*
X165745340Y-113690238D01*
X165814017Y-113580315D01*
X165893170Y-113485117D01*
X165981196Y-113407020D01*
X166076493Y-113348401D01*
X166128864Y-113324405D01*
X166199590Y-113298768D01*
X166270812Y-113282522D01*
X166349712Y-113274178D01*
X166440282Y-113272310D01*
X166443467Y-113272245D01*
X166477363Y-113272739D01*
G36*
X166120158Y-115814732D02*
G01*
X166271594Y-115823311D01*
X166408283Y-115842167D01*
X166534276Y-115872163D01*
X166653625Y-115914164D01*
X166770381Y-115969031D01*
X166881179Y-116035833D01*
X166994739Y-116126637D01*
X167090211Y-116230292D01*
X167167073Y-116346113D01*
X167224797Y-116473414D01*
X167262858Y-116611511D01*
X167268666Y-116649207D01*
X167274396Y-116728248D01*
X167274583Y-116816371D01*
X167269539Y-116905764D01*
X167259578Y-116988616D01*
X167245012Y-117057113D01*
X167235364Y-117087965D01*
X167205123Y-117165270D01*
X167167617Y-117242321D01*
X167126614Y-117311800D01*
X167085879Y-117366385D01*
X167066505Y-117389084D01*
X167048662Y-117411799D01*
X167041778Y-117423221D01*
X167043424Y-117424463D01*
X167061205Y-117427272D01*
X167094370Y-117429224D01*
X167137733Y-117429955D01*
X167233689Y-117429955D01*
X167233689Y-118288104D01*
X167172974Y-118253839D01*
X167163868Y-118248645D01*
X167149249Y-118240285D01*
X167135173Y-118232712D01*
X167120540Y-118225888D01*
X167104249Y-118219773D01*
X167085198Y-118214327D01*
X167062286Y-118209513D01*
X167034413Y-118205292D01*
X167000478Y-118201623D01*
X166959379Y-118198469D01*
X166910015Y-118195789D01*
X166851286Y-118193546D01*
X166782090Y-118191701D01*
X166701326Y-118190213D01*
X166607894Y-118189045D01*
X166500692Y-118188156D01*
X166378620Y-118187509D01*
X166240576Y-118187064D01*
X166085459Y-118186782D01*
X165912168Y-118186625D01*
X165719603Y-118186552D01*
X165506662Y-118186526D01*
X165272245Y-118186507D01*
X163587378Y-118186311D01*
X163587378Y-117280983D01*
X163624067Y-117305415D01*
X163633647Y-117311682D01*
X163679981Y-117337792D01*
X163727102Y-117355531D01*
X163782251Y-117367092D01*
X163852667Y-117374669D01*
X163859650Y-117375161D01*
X163897641Y-117376938D01*
X163951576Y-117378556D01*
X164018703Y-117380001D01*
X164096271Y-117381260D01*
X164181528Y-117382320D01*
X164271724Y-117383171D01*
X164364107Y-117383797D01*
X164455925Y-117384188D01*
X164544427Y-117384330D01*
X164626862Y-117384210D01*
X164700479Y-117383817D01*
X164762526Y-117383138D01*
X164810251Y-117382159D01*
X164840904Y-117380868D01*
X164851733Y-117379253D01*
X164847333Y-117371043D01*
X164832362Y-117349353D01*
X164810448Y-117319986D01*
X164776236Y-117271121D01*
X164729714Y-117182875D01*
X164696046Y-117084084D01*
X164693232Y-117069557D01*
X165247465Y-117069557D01*
X165259389Y-117154681D01*
X165286040Y-117238867D01*
X165326962Y-117317392D01*
X165370530Y-117384800D01*
X166520721Y-117384800D01*
X166567089Y-117314244D01*
X166590791Y-117273583D01*
X166616639Y-117219454D01*
X166634829Y-117170311D01*
X166650551Y-117106835D01*
X166661541Y-117010669D01*
X166653365Y-116926100D01*
X166625805Y-116852781D01*
X166578642Y-116790363D01*
X166511658Y-116738498D01*
X166424633Y-116696840D01*
X166317350Y-116665038D01*
X166305009Y-116662455D01*
X166243772Y-116654000D01*
X166166692Y-116648337D01*
X166079002Y-116645424D01*
X165985934Y-116645217D01*
X165892720Y-116647670D01*
X165804594Y-116652739D01*
X165726788Y-116660381D01*
X165664533Y-116670552D01*
X165658666Y-116671833D01*
X165548121Y-116700874D01*
X165457575Y-116735390D01*
X165384953Y-116776544D01*
X165328181Y-116825501D01*
X165285184Y-116883426D01*
X165269615Y-116915380D01*
X165250722Y-116988216D01*
X165247465Y-117069557D01*
X164693232Y-117069557D01*
X164674231Y-116971490D01*
X164663265Y-116841836D01*
X164662219Y-116749330D01*
X164672014Y-116627989D01*
X164696174Y-116517901D01*
X164735785Y-116414611D01*
X164791932Y-116313662D01*
X164822883Y-116268497D01*
X164914115Y-116163089D01*
X165023106Y-116071462D01*
X165149726Y-115993668D01*
X165293845Y-115929759D01*
X165455332Y-115879786D01*
X165634059Y-115843802D01*
X165829895Y-115821857D01*
X165985934Y-115816100D01*
X166042711Y-115814006D01*
X166120158Y-115814732D01*
G37*
X166120158Y-115814732D02*
X166271594Y-115823311D01*
X166408283Y-115842167D01*
X166534276Y-115872163D01*
X166653625Y-115914164D01*
X166770381Y-115969031D01*
X166881179Y-116035833D01*
X166994739Y-116126637D01*
X167090211Y-116230292D01*
X167167073Y-116346113D01*
X167224797Y-116473414D01*
X167262858Y-116611511D01*
X167268666Y-116649207D01*
X167274396Y-116728248D01*
X167274583Y-116816371D01*
X167269539Y-116905764D01*
X167259578Y-116988616D01*
X167245012Y-117057113D01*
X167235364Y-117087965D01*
X167205123Y-117165270D01*
X167167617Y-117242321D01*
X167126614Y-117311800D01*
X167085879Y-117366385D01*
X167066505Y-117389084D01*
X167048662Y-117411799D01*
X167041778Y-117423221D01*
X167043424Y-117424463D01*
X167061205Y-117427272D01*
X167094370Y-117429224D01*
X167137733Y-117429955D01*
X167233689Y-117429955D01*
X167233689Y-118288104D01*
X167172974Y-118253839D01*
X167163868Y-118248645D01*
X167149249Y-118240285D01*
X167135173Y-118232712D01*
X167120540Y-118225888D01*
X167104249Y-118219773D01*
X167085198Y-118214327D01*
X167062286Y-118209513D01*
X167034413Y-118205292D01*
X167000478Y-118201623D01*
X166959379Y-118198469D01*
X166910015Y-118195789D01*
X166851286Y-118193546D01*
X166782090Y-118191701D01*
X166701326Y-118190213D01*
X166607894Y-118189045D01*
X166500692Y-118188156D01*
X166378620Y-118187509D01*
X166240576Y-118187064D01*
X166085459Y-118186782D01*
X165912168Y-118186625D01*
X165719603Y-118186552D01*
X165506662Y-118186526D01*
X165272245Y-118186507D01*
X163587378Y-118186311D01*
X163587378Y-117280983D01*
X163624067Y-117305415D01*
X163633647Y-117311682D01*
X163679981Y-117337792D01*
X163727102Y-117355531D01*
X163782251Y-117367092D01*
X163852667Y-117374669D01*
X163859650Y-117375161D01*
X163897641Y-117376938D01*
X163951576Y-117378556D01*
X164018703Y-117380001D01*
X164096271Y-117381260D01*
X164181528Y-117382320D01*
X164271724Y-117383171D01*
X164364107Y-117383797D01*
X164455925Y-117384188D01*
X164544427Y-117384330D01*
X164626862Y-117384210D01*
X164700479Y-117383817D01*
X164762526Y-117383138D01*
X164810251Y-117382159D01*
X164840904Y-117380868D01*
X164851733Y-117379253D01*
X164847333Y-117371043D01*
X164832362Y-117349353D01*
X164810448Y-117319986D01*
X164776236Y-117271121D01*
X164729714Y-117182875D01*
X164696046Y-117084084D01*
X164693232Y-117069557D01*
X165247465Y-117069557D01*
X165259389Y-117154681D01*
X165286040Y-117238867D01*
X165326962Y-117317392D01*
X165370530Y-117384800D01*
X166520721Y-117384800D01*
X166567089Y-117314244D01*
X166590791Y-117273583D01*
X166616639Y-117219454D01*
X166634829Y-117170311D01*
X166650551Y-117106835D01*
X166661541Y-117010669D01*
X166653365Y-116926100D01*
X166625805Y-116852781D01*
X166578642Y-116790363D01*
X166511658Y-116738498D01*
X166424633Y-116696840D01*
X166317350Y-116665038D01*
X166305009Y-116662455D01*
X166243772Y-116654000D01*
X166166692Y-116648337D01*
X166079002Y-116645424D01*
X165985934Y-116645217D01*
X165892720Y-116647670D01*
X165804594Y-116652739D01*
X165726788Y-116660381D01*
X165664533Y-116670552D01*
X165658666Y-116671833D01*
X165548121Y-116700874D01*
X165457575Y-116735390D01*
X165384953Y-116776544D01*
X165328181Y-116825501D01*
X165285184Y-116883426D01*
X165269615Y-116915380D01*
X165250722Y-116988216D01*
X165247465Y-117069557D01*
X164693232Y-117069557D01*
X164674231Y-116971490D01*
X164663265Y-116841836D01*
X164662219Y-116749330D01*
X164672014Y-116627989D01*
X164696174Y-116517901D01*
X164735785Y-116414611D01*
X164791932Y-116313662D01*
X164822883Y-116268497D01*
X164914115Y-116163089D01*
X165023106Y-116071462D01*
X165149726Y-115993668D01*
X165293845Y-115929759D01*
X165455332Y-115879786D01*
X165634059Y-115843802D01*
X165829895Y-115821857D01*
X165985934Y-115816100D01*
X166042711Y-115814006D01*
X166120158Y-115814732D01*
G36*
X163334307Y-109195331D02*
G01*
X163375450Y-109197540D01*
X163407582Y-109203106D01*
X163438122Y-109213414D01*
X163474489Y-109229852D01*
X163501728Y-109243800D01*
X163587429Y-109302335D01*
X163656617Y-109374381D01*
X163707741Y-109458053D01*
X163739250Y-109551469D01*
X163746225Y-109584566D01*
X163753094Y-109625040D01*
X163754919Y-109658001D01*
X163751947Y-109692302D01*
X163744426Y-109736800D01*
X163732002Y-109788066D01*
X163694112Y-109878566D01*
X163639836Y-109957655D01*
X163571770Y-110023472D01*
X163492511Y-110074160D01*
X163404654Y-110107860D01*
X163310795Y-110122714D01*
X163213530Y-110116864D01*
X163117220Y-110090601D01*
X163028494Y-110045582D01*
X162953419Y-109984627D01*
X162893641Y-109909816D01*
X162850809Y-109823232D01*
X162826571Y-109726957D01*
X162822576Y-109623072D01*
X162832850Y-109545438D01*
X162860053Y-109462687D01*
X162905484Y-109387594D01*
X162971302Y-109315702D01*
X163015567Y-109277154D01*
X163073961Y-109237744D01*
X163134586Y-109212554D01*
X163203865Y-109199139D01*
X163288222Y-109195052D01*
X163334307Y-109195331D01*
G37*
X163334307Y-109195331D02*
X163375450Y-109197540D01*
X163407582Y-109203106D01*
X163438122Y-109213414D01*
X163474489Y-109229852D01*
X163501728Y-109243800D01*
X163587429Y-109302335D01*
X163656617Y-109374381D01*
X163707741Y-109458053D01*
X163739250Y-109551469D01*
X163746225Y-109584566D01*
X163753094Y-109625040D01*
X163754919Y-109658001D01*
X163751947Y-109692302D01*
X163744426Y-109736800D01*
X163732002Y-109788066D01*
X163694112Y-109878566D01*
X163639836Y-109957655D01*
X163571770Y-110023472D01*
X163492511Y-110074160D01*
X163404654Y-110107860D01*
X163310795Y-110122714D01*
X163213530Y-110116864D01*
X163117220Y-110090601D01*
X163028494Y-110045582D01*
X162953419Y-109984627D01*
X162893641Y-109909816D01*
X162850809Y-109823232D01*
X162826571Y-109726957D01*
X162822576Y-109623072D01*
X162832850Y-109545438D01*
X162860053Y-109462687D01*
X162905484Y-109387594D01*
X162971302Y-109315702D01*
X163015567Y-109277154D01*
X163073961Y-109237744D01*
X163134586Y-109212554D01*
X163203865Y-109199139D01*
X163288222Y-109195052D01*
X163334307Y-109195331D01*
G36*
X168335041Y-105723130D02*
G01*
X168435956Y-105723378D01*
X168511617Y-105723417D01*
X168589526Y-105723672D01*
X168649536Y-105724316D01*
X168694264Y-105725520D01*
X168726326Y-105727457D01*
X168748340Y-105730297D01*
X168762924Y-105734212D01*
X168772694Y-105739374D01*
X168780267Y-105745955D01*
X168786501Y-105752923D01*
X168793801Y-105765921D01*
X168798554Y-105785069D01*
X168801292Y-105814472D01*
X168802545Y-105858238D01*
X168802845Y-105920472D01*
X168802469Y-105969418D01*
X168798041Y-106076278D01*
X168787953Y-106165506D01*
X168771365Y-106240304D01*
X168747435Y-106303875D01*
X168715321Y-106359421D01*
X168674182Y-106410146D01*
X168668330Y-106416134D01*
X168619821Y-106453001D01*
X168559013Y-106484101D01*
X168494769Y-106505583D01*
X168435956Y-106513600D01*
X168414739Y-106512321D01*
X168357323Y-106500009D01*
X168297413Y-106477480D01*
X168243363Y-106448250D01*
X168203532Y-106415833D01*
X168186510Y-106396292D01*
X168147322Y-106341580D01*
X168117193Y-106281277D01*
X168095232Y-106212081D01*
X168080550Y-106130689D01*
X168072259Y-106033800D01*
X168070149Y-105946333D01*
X168215808Y-105946333D01*
X168215817Y-105949361D01*
X168217782Y-106000481D01*
X168222507Y-106060584D01*
X168229035Y-106117292D01*
X168238331Y-106167250D01*
X168264600Y-106242002D01*
X168303899Y-106299511D01*
X168356933Y-106341012D01*
X168408200Y-106362229D01*
X168456026Y-106363647D01*
X168506961Y-106345365D01*
X168552878Y-106315695D01*
X168595287Y-106268998D01*
X168625090Y-106207608D01*
X168644226Y-106128462D01*
X168644464Y-106126972D01*
X168650256Y-106078001D01*
X168654396Y-106019307D01*
X168656004Y-105963266D01*
X168656089Y-105870133D01*
X168215822Y-105870133D01*
X168215808Y-105946333D01*
X168070149Y-105946333D01*
X168069467Y-105918111D01*
X168069066Y-105878629D01*
X168068653Y-105832918D01*
X168070457Y-105797117D01*
X168076739Y-105770026D01*
X168089759Y-105750444D01*
X168111778Y-105737170D01*
X168145055Y-105729002D01*
X168191851Y-105724740D01*
X168215822Y-105724143D01*
X168254427Y-105723183D01*
X168335041Y-105723130D01*
G37*
X168335041Y-105723130D02*
X168435956Y-105723378D01*
X168511617Y-105723417D01*
X168589526Y-105723672D01*
X168649536Y-105724316D01*
X168694264Y-105725520D01*
X168726326Y-105727457D01*
X168748340Y-105730297D01*
X168762924Y-105734212D01*
X168772694Y-105739374D01*
X168780267Y-105745955D01*
X168786501Y-105752923D01*
X168793801Y-105765921D01*
X168798554Y-105785069D01*
X168801292Y-105814472D01*
X168802545Y-105858238D01*
X168802845Y-105920472D01*
X168802469Y-105969418D01*
X168798041Y-106076278D01*
X168787953Y-106165506D01*
X168771365Y-106240304D01*
X168747435Y-106303875D01*
X168715321Y-106359421D01*
X168674182Y-106410146D01*
X168668330Y-106416134D01*
X168619821Y-106453001D01*
X168559013Y-106484101D01*
X168494769Y-106505583D01*
X168435956Y-106513600D01*
X168414739Y-106512321D01*
X168357323Y-106500009D01*
X168297413Y-106477480D01*
X168243363Y-106448250D01*
X168203532Y-106415833D01*
X168186510Y-106396292D01*
X168147322Y-106341580D01*
X168117193Y-106281277D01*
X168095232Y-106212081D01*
X168080550Y-106130689D01*
X168072259Y-106033800D01*
X168070149Y-105946333D01*
X168215808Y-105946333D01*
X168215817Y-105949361D01*
X168217782Y-106000481D01*
X168222507Y-106060584D01*
X168229035Y-106117292D01*
X168238331Y-106167250D01*
X168264600Y-106242002D01*
X168303899Y-106299511D01*
X168356933Y-106341012D01*
X168408200Y-106362229D01*
X168456026Y-106363647D01*
X168506961Y-106345365D01*
X168552878Y-106315695D01*
X168595287Y-106268998D01*
X168625090Y-106207608D01*
X168644226Y-106128462D01*
X168644464Y-106126972D01*
X168650256Y-106078001D01*
X168654396Y-106019307D01*
X168656004Y-105963266D01*
X168656089Y-105870133D01*
X168215822Y-105870133D01*
X168215808Y-105946333D01*
X168070149Y-105946333D01*
X168069467Y-105918111D01*
X168069066Y-105878629D01*
X168068653Y-105832918D01*
X168070457Y-105797117D01*
X168076739Y-105770026D01*
X168089759Y-105750444D01*
X168111778Y-105737170D01*
X168145055Y-105729002D01*
X168191851Y-105724740D01*
X168215822Y-105724143D01*
X168254427Y-105723183D01*
X168335041Y-105723130D01*
G36*
X168510713Y-106852303D02*
G01*
X168588889Y-106852552D01*
X168649103Y-106853188D01*
X168693982Y-106854385D01*
X168726152Y-106856316D01*
X168748239Y-106859154D01*
X168762870Y-106863073D01*
X168772670Y-106868245D01*
X168780267Y-106874844D01*
X168783444Y-106878178D01*
X168789554Y-106886700D01*
X168794229Y-106898702D01*
X168797659Y-106916913D01*
X168800036Y-106944060D01*
X168801552Y-106982871D01*
X168802398Y-107036076D01*
X168802765Y-107106402D01*
X168802845Y-107196578D01*
X168802833Y-107238686D01*
X168802651Y-107319833D01*
X168802098Y-107382325D01*
X168800982Y-107428891D01*
X168799113Y-107462259D01*
X168796298Y-107485156D01*
X168792346Y-107500312D01*
X168787066Y-107510454D01*
X168780267Y-107518311D01*
X168758667Y-107533037D01*
X168729467Y-107540889D01*
X168705560Y-107535390D01*
X168678667Y-107518311D01*
X168674059Y-107513332D01*
X168667772Y-107503557D01*
X168663146Y-107489441D01*
X168659930Y-107467946D01*
X168657870Y-107436032D01*
X168656712Y-107390658D01*
X168656202Y-107328787D01*
X168656089Y-107247378D01*
X168656089Y-106999022D01*
X168498045Y-106999022D01*
X168498045Y-107160199D01*
X168497899Y-107196017D01*
X168496176Y-107261641D01*
X168491741Y-107308882D01*
X168483637Y-107340617D01*
X168470906Y-107359723D01*
X168452592Y-107369077D01*
X168427738Y-107371555D01*
X168407482Y-107370758D01*
X168385656Y-107365506D01*
X168370304Y-107352712D01*
X168360309Y-107329372D01*
X168354553Y-107292483D01*
X168351919Y-107239041D01*
X168351289Y-107166042D01*
X168351289Y-106997895D01*
X168286378Y-107001281D01*
X168221467Y-107004666D01*
X168218418Y-107252383D01*
X168217539Y-107314974D01*
X168216095Y-107383435D01*
X168214164Y-107434339D01*
X168211514Y-107470592D01*
X168207910Y-107495099D01*
X168203121Y-107510765D01*
X168196913Y-107520494D01*
X168190510Y-107526509D01*
X168158828Y-107539518D01*
X168123142Y-107535957D01*
X168092084Y-107516182D01*
X168089161Y-107512931D01*
X168082810Y-107503951D01*
X168077957Y-107491847D01*
X168074403Y-107473841D01*
X168071946Y-107447153D01*
X168070385Y-107409003D01*
X168069518Y-107356614D01*
X168069146Y-107287206D01*
X168069067Y-107197999D01*
X168069083Y-107143266D01*
X168069275Y-107066169D01*
X168069860Y-107007223D01*
X168071051Y-106963636D01*
X168073064Y-106932617D01*
X168076112Y-106911375D01*
X168080409Y-106897118D01*
X168086172Y-106887055D01*
X168093612Y-106878394D01*
X168095293Y-106876609D01*
X168102832Y-106869365D01*
X168111850Y-106863723D01*
X168124984Y-106859483D01*
X168144872Y-106856444D01*
X168174151Y-106854406D01*
X168215458Y-106853170D01*
X168271431Y-106852535D01*
X168344707Y-106852300D01*
X168437923Y-106852266D01*
X168510713Y-106852303D01*
G37*
X168510713Y-106852303D02*
X168588889Y-106852552D01*
X168649103Y-106853188D01*
X168693982Y-106854385D01*
X168726152Y-106856316D01*
X168748239Y-106859154D01*
X168762870Y-106863073D01*
X168772670Y-106868245D01*
X168780267Y-106874844D01*
X168783444Y-106878178D01*
X168789554Y-106886700D01*
X168794229Y-106898702D01*
X168797659Y-106916913D01*
X168800036Y-106944060D01*
X168801552Y-106982871D01*
X168802398Y-107036076D01*
X168802765Y-107106402D01*
X168802845Y-107196578D01*
X168802833Y-107238686D01*
X168802651Y-107319833D01*
X168802098Y-107382325D01*
X168800982Y-107428891D01*
X168799113Y-107462259D01*
X168796298Y-107485156D01*
X168792346Y-107500312D01*
X168787066Y-107510454D01*
X168780267Y-107518311D01*
X168758667Y-107533037D01*
X168729467Y-107540889D01*
X168705560Y-107535390D01*
X168678667Y-107518311D01*
X168674059Y-107513332D01*
X168667772Y-107503557D01*
X168663146Y-107489441D01*
X168659930Y-107467946D01*
X168657870Y-107436032D01*
X168656712Y-107390658D01*
X168656202Y-107328787D01*
X168656089Y-107247378D01*
X168656089Y-106999022D01*
X168498045Y-106999022D01*
X168498045Y-107160199D01*
X168497899Y-107196017D01*
X168496176Y-107261641D01*
X168491741Y-107308882D01*
X168483637Y-107340617D01*
X168470906Y-107359723D01*
X168452592Y-107369077D01*
X168427738Y-107371555D01*
X168407482Y-107370758D01*
X168385656Y-107365506D01*
X168370304Y-107352712D01*
X168360309Y-107329372D01*
X168354553Y-107292483D01*
X168351919Y-107239041D01*
X168351289Y-107166042D01*
X168351289Y-106997895D01*
X168286378Y-107001281D01*
X168221467Y-107004666D01*
X168218418Y-107252383D01*
X168217539Y-107314974D01*
X168216095Y-107383435D01*
X168214164Y-107434339D01*
X168211514Y-107470592D01*
X168207910Y-107495099D01*
X168203121Y-107510765D01*
X168196913Y-107520494D01*
X168190510Y-107526509D01*
X168158828Y-107539518D01*
X168123142Y-107535957D01*
X168092084Y-107516182D01*
X168089161Y-107512931D01*
X168082810Y-107503951D01*
X168077957Y-107491847D01*
X168074403Y-107473841D01*
X168071946Y-107447153D01*
X168070385Y-107409003D01*
X168069518Y-107356614D01*
X168069146Y-107287206D01*
X168069067Y-107197999D01*
X168069083Y-107143266D01*
X168069275Y-107066169D01*
X168069860Y-107007223D01*
X168071051Y-106963636D01*
X168073064Y-106932617D01*
X168076112Y-106911375D01*
X168080409Y-106897118D01*
X168086172Y-106887055D01*
X168093612Y-106878394D01*
X168095293Y-106876609D01*
X168102832Y-106869365D01*
X168111850Y-106863723D01*
X168124984Y-106859483D01*
X168144872Y-106856444D01*
X168174151Y-106854406D01*
X168215458Y-106853170D01*
X168271431Y-106852535D01*
X168344707Y-106852300D01*
X168437923Y-106852266D01*
X168510713Y-106852303D01*
G36*
X168320232Y-107824048D02*
G01*
X168345029Y-107829840D01*
X168366699Y-107844647D01*
X168394049Y-107872620D01*
X168401378Y-107880598D01*
X168422281Y-107904308D01*
X168439251Y-107926702D01*
X168453205Y-107950735D01*
X168465056Y-107979363D01*
X168475720Y-108015540D01*
X168486111Y-108062220D01*
X168497146Y-108122359D01*
X168509738Y-108198910D01*
X168524804Y-108294829D01*
X168527838Y-108313192D01*
X168541458Y-108375522D01*
X168557192Y-108420740D01*
X168574263Y-108447024D01*
X168591897Y-108452553D01*
X168596168Y-108449932D01*
X168611233Y-108432000D01*
X168627867Y-108403874D01*
X168633857Y-108391074D01*
X168641050Y-108369776D01*
X168645827Y-108343390D01*
X168648646Y-108307546D01*
X168649964Y-108257872D01*
X168650237Y-108190000D01*
X168650164Y-108172215D01*
X168649053Y-108104594D01*
X168646828Y-108039655D01*
X168643762Y-107984030D01*
X168640127Y-107944349D01*
X168636059Y-107908838D01*
X168635276Y-107879585D01*
X168639876Y-107860685D01*
X168650551Y-107845571D01*
X168654144Y-107841915D01*
X168685918Y-107825573D01*
X168721572Y-107826893D01*
X168752190Y-107845850D01*
X168763796Y-107866220D01*
X168776491Y-107902204D01*
X168786541Y-107944628D01*
X168787140Y-107948078D01*
X168792356Y-107990748D01*
X168796730Y-108048134D01*
X168799818Y-108113151D01*
X168801177Y-108178711D01*
X168801218Y-108194943D01*
X168798741Y-108293256D01*
X168790735Y-108373308D01*
X168776203Y-108438487D01*
X168754149Y-108492183D01*
X168723576Y-108537784D01*
X168683486Y-108578677D01*
X168657259Y-108598798D01*
X168627712Y-108610424D01*
X168587995Y-108613333D01*
X168576026Y-108613192D01*
X168543345Y-108609319D01*
X168516819Y-108596935D01*
X168485971Y-108571770D01*
X168463831Y-108550558D01*
X168441285Y-108524162D01*
X168422917Y-108494445D01*
X168407661Y-108458215D01*
X168394449Y-108412283D01*
X168382214Y-108353456D01*
X168369889Y-108278544D01*
X168356406Y-108184355D01*
X168349396Y-108139043D01*
X168334837Y-108071089D01*
X168318337Y-108021953D01*
X168300439Y-107992386D01*
X168281685Y-107983136D01*
X168262615Y-107994952D01*
X168243771Y-108028584D01*
X168242557Y-108031630D01*
X168230479Y-108077989D01*
X168222279Y-108140639D01*
X168218119Y-108214073D01*
X168218161Y-108292783D01*
X168222569Y-108371261D01*
X168231505Y-108444000D01*
X168232154Y-108447927D01*
X168239861Y-108496743D01*
X168243473Y-108528995D01*
X168242876Y-108549992D01*
X168237954Y-108565046D01*
X168228596Y-108579466D01*
X168227725Y-108580636D01*
X168197351Y-108605153D01*
X168161850Y-108609946D01*
X168127269Y-108594140D01*
X168122813Y-108589594D01*
X168107673Y-108559980D01*
X168094550Y-108512998D01*
X168083750Y-108452694D01*
X168075581Y-108383112D01*
X168070351Y-108308297D01*
X168068367Y-108232294D01*
X168069936Y-108159147D01*
X168075366Y-108092900D01*
X168084964Y-108037600D01*
X168099825Y-107986717D01*
X168132958Y-107915405D01*
X168175640Y-107864248D01*
X168227705Y-107833425D01*
X168288983Y-107823111D01*
X168320232Y-107824048D01*
G37*
X168320232Y-107824048D02*
X168345029Y-107829840D01*
X168366699Y-107844647D01*
X168394049Y-107872620D01*
X168401378Y-107880598D01*
X168422281Y-107904308D01*
X168439251Y-107926702D01*
X168453205Y-107950735D01*
X168465056Y-107979363D01*
X168475720Y-108015540D01*
X168486111Y-108062220D01*
X168497146Y-108122359D01*
X168509738Y-108198910D01*
X168524804Y-108294829D01*
X168527838Y-108313192D01*
X168541458Y-108375522D01*
X168557192Y-108420740D01*
X168574263Y-108447024D01*
X168591897Y-108452553D01*
X168596168Y-108449932D01*
X168611233Y-108432000D01*
X168627867Y-108403874D01*
X168633857Y-108391074D01*
X168641050Y-108369776D01*
X168645827Y-108343390D01*
X168648646Y-108307546D01*
X168649964Y-108257872D01*
X168650237Y-108190000D01*
X168650164Y-108172215D01*
X168649053Y-108104594D01*
X168646828Y-108039655D01*
X168643762Y-107984030D01*
X168640127Y-107944349D01*
X168636059Y-107908838D01*
X168635276Y-107879585D01*
X168639876Y-107860685D01*
X168650551Y-107845571D01*
X168654144Y-107841915D01*
X168685918Y-107825573D01*
X168721572Y-107826893D01*
X168752190Y-107845850D01*
X168763796Y-107866220D01*
X168776491Y-107902204D01*
X168786541Y-107944628D01*
X168787140Y-107948078D01*
X168792356Y-107990748D01*
X168796730Y-108048134D01*
X168799818Y-108113151D01*
X168801177Y-108178711D01*
X168801218Y-108194943D01*
X168798741Y-108293256D01*
X168790735Y-108373308D01*
X168776203Y-108438487D01*
X168754149Y-108492183D01*
X168723576Y-108537784D01*
X168683486Y-108578677D01*
X168657259Y-108598798D01*
X168627712Y-108610424D01*
X168587995Y-108613333D01*
X168576026Y-108613192D01*
X168543345Y-108609319D01*
X168516819Y-108596935D01*
X168485971Y-108571770D01*
X168463831Y-108550558D01*
X168441285Y-108524162D01*
X168422917Y-108494445D01*
X168407661Y-108458215D01*
X168394449Y-108412283D01*
X168382214Y-108353456D01*
X168369889Y-108278544D01*
X168356406Y-108184355D01*
X168349396Y-108139043D01*
X168334837Y-108071089D01*
X168318337Y-108021953D01*
X168300439Y-107992386D01*
X168281685Y-107983136D01*
X168262615Y-107994952D01*
X168243771Y-108028584D01*
X168242557Y-108031630D01*
X168230479Y-108077989D01*
X168222279Y-108140639D01*
X168218119Y-108214073D01*
X168218161Y-108292783D01*
X168222569Y-108371261D01*
X168231505Y-108444000D01*
X168232154Y-108447927D01*
X168239861Y-108496743D01*
X168243473Y-108528995D01*
X168242876Y-108549992D01*
X168237954Y-108565046D01*
X168228596Y-108579466D01*
X168227725Y-108580636D01*
X168197351Y-108605153D01*
X168161850Y-108609946D01*
X168127269Y-108594140D01*
X168122813Y-108589594D01*
X168107673Y-108559980D01*
X168094550Y-108512998D01*
X168083750Y-108452694D01*
X168075581Y-108383112D01*
X168070351Y-108308297D01*
X168068367Y-108232294D01*
X168069936Y-108159147D01*
X168075366Y-108092900D01*
X168084964Y-108037600D01*
X168099825Y-107986717D01*
X168132958Y-107915405D01*
X168175640Y-107864248D01*
X168227705Y-107833425D01*
X168288983Y-107823111D01*
X168320232Y-107824048D01*
G36*
X168521567Y-108952041D02*
G01*
X168595789Y-108952299D01*
X168652541Y-108952970D01*
X168694512Y-108954248D01*
X168724389Y-108956327D01*
X168744861Y-108959401D01*
X168758614Y-108963666D01*
X168768337Y-108969316D01*
X168776717Y-108976545D01*
X168798181Y-109008009D01*
X168799947Y-109043174D01*
X168780267Y-109076178D01*
X168774398Y-109081484D01*
X168765314Y-109086934D01*
X168751973Y-109091100D01*
X168731757Y-109094154D01*
X168702049Y-109096268D01*
X168660232Y-109097614D01*
X168603689Y-109098362D01*
X168529802Y-109098686D01*
X168435956Y-109098755D01*
X168360294Y-109098716D01*
X168282385Y-109098461D01*
X168222375Y-109097817D01*
X168177648Y-109096613D01*
X168145585Y-109094676D01*
X168123571Y-109091836D01*
X168108987Y-109087921D01*
X168099218Y-109082758D01*
X168091645Y-109076178D01*
X168072623Y-109046994D01*
X168073463Y-109013863D01*
X168096776Y-108979709D01*
X168124485Y-108952000D01*
X168437537Y-108952000D01*
X168521567Y-108952041D01*
G37*
X168521567Y-108952041D02*
X168595789Y-108952299D01*
X168652541Y-108952970D01*
X168694512Y-108954248D01*
X168724389Y-108956327D01*
X168744861Y-108959401D01*
X168758614Y-108963666D01*
X168768337Y-108969316D01*
X168776717Y-108976545D01*
X168798181Y-109008009D01*
X168799947Y-109043174D01*
X168780267Y-109076178D01*
X168774398Y-109081484D01*
X168765314Y-109086934D01*
X168751973Y-109091100D01*
X168731757Y-109094154D01*
X168702049Y-109096268D01*
X168660232Y-109097614D01*
X168603689Y-109098362D01*
X168529802Y-109098686D01*
X168435956Y-109098755D01*
X168360294Y-109098716D01*
X168282385Y-109098461D01*
X168222375Y-109097817D01*
X168177648Y-109096613D01*
X168145585Y-109094676D01*
X168123571Y-109091836D01*
X168108987Y-109087921D01*
X168099218Y-109082758D01*
X168091645Y-109076178D01*
X168072623Y-109046994D01*
X168073463Y-109013863D01*
X168096776Y-108979709D01*
X168124485Y-108952000D01*
X168437537Y-108952000D01*
X168521567Y-108952041D01*
G36*
X168454259Y-109427702D02*
G01*
X168505592Y-109440643D01*
X168562118Y-109463806D01*
X168616035Y-109493698D01*
X168659539Y-109526827D01*
X168669887Y-109537023D01*
X168721662Y-109604108D01*
X168761554Y-109684234D01*
X168785956Y-109770444D01*
X168794068Y-109825408D01*
X168800673Y-109918861D01*
X168798586Y-110008642D01*
X168788340Y-110091131D01*
X168770470Y-110162714D01*
X168745508Y-110219772D01*
X168713988Y-110258689D01*
X168712012Y-110260064D01*
X168686786Y-110267152D01*
X168639535Y-110271391D01*
X168570071Y-110272800D01*
X168507838Y-110271940D01*
X168460456Y-110267220D01*
X168428353Y-110255530D01*
X168408800Y-110233761D01*
X168399070Y-110198802D01*
X168396433Y-110147544D01*
X168398161Y-110076877D01*
X168401173Y-110028257D01*
X168409366Y-109978061D01*
X168423419Y-109945567D01*
X168444654Y-109928108D01*
X168474394Y-109923017D01*
X168478936Y-109923123D01*
X168513730Y-109931825D01*
X168537147Y-109955835D01*
X168550347Y-109997100D01*
X168554489Y-110057569D01*
X168554489Y-110126044D01*
X168592841Y-110126044D01*
X168601976Y-110125994D01*
X168619227Y-110123773D01*
X168629521Y-110114506D01*
X168636459Y-110093125D01*
X168643641Y-110054564D01*
X168644575Y-110049090D01*
X168654478Y-109952140D01*
X168651559Y-109862148D01*
X168636829Y-109781240D01*
X168611299Y-109711541D01*
X168575978Y-109655176D01*
X168531879Y-109614271D01*
X168480012Y-109590949D01*
X168421388Y-109587337D01*
X168392494Y-109592855D01*
X168336604Y-109619539D01*
X168290945Y-109665727D01*
X168256108Y-109730709D01*
X168232690Y-109813771D01*
X168228241Y-109838445D01*
X168217742Y-109927774D01*
X168218971Y-110007581D01*
X168231906Y-110085674D01*
X168238696Y-110120817D01*
X168239713Y-110166255D01*
X168227182Y-110197570D01*
X168200395Y-110217723D01*
X168172148Y-110224107D01*
X168140924Y-110214621D01*
X168127499Y-110205292D01*
X168103967Y-110171057D01*
X168086095Y-110118435D01*
X168074599Y-110049919D01*
X168070192Y-109968000D01*
X168074179Y-109870850D01*
X168090494Y-109764843D01*
X168118545Y-109671031D01*
X168157452Y-109592235D01*
X168206334Y-109531281D01*
X168239195Y-109505211D01*
X168288394Y-109475703D01*
X168342252Y-109450432D01*
X168393419Y-109432782D01*
X168434544Y-109426142D01*
X168454259Y-109427702D01*
G37*
X168454259Y-109427702D02*
X168505592Y-109440643D01*
X168562118Y-109463806D01*
X168616035Y-109493698D01*
X168659539Y-109526827D01*
X168669887Y-109537023D01*
X168721662Y-109604108D01*
X168761554Y-109684234D01*
X168785956Y-109770444D01*
X168794068Y-109825408D01*
X168800673Y-109918861D01*
X168798586Y-110008642D01*
X168788340Y-110091131D01*
X168770470Y-110162714D01*
X168745508Y-110219772D01*
X168713988Y-110258689D01*
X168712012Y-110260064D01*
X168686786Y-110267152D01*
X168639535Y-110271391D01*
X168570071Y-110272800D01*
X168507838Y-110271940D01*
X168460456Y-110267220D01*
X168428353Y-110255530D01*
X168408800Y-110233761D01*
X168399070Y-110198802D01*
X168396433Y-110147544D01*
X168398161Y-110076877D01*
X168401173Y-110028257D01*
X168409366Y-109978061D01*
X168423419Y-109945567D01*
X168444654Y-109928108D01*
X168474394Y-109923017D01*
X168478936Y-109923123D01*
X168513730Y-109931825D01*
X168537147Y-109955835D01*
X168550347Y-109997100D01*
X168554489Y-110057569D01*
X168554489Y-110126044D01*
X168592841Y-110126044D01*
X168601976Y-110125994D01*
X168619227Y-110123773D01*
X168629521Y-110114506D01*
X168636459Y-110093125D01*
X168643641Y-110054564D01*
X168644575Y-110049090D01*
X168654478Y-109952140D01*
X168651559Y-109862148D01*
X168636829Y-109781240D01*
X168611299Y-109711541D01*
X168575978Y-109655176D01*
X168531879Y-109614271D01*
X168480012Y-109590949D01*
X168421388Y-109587337D01*
X168392494Y-109592855D01*
X168336604Y-109619539D01*
X168290945Y-109665727D01*
X168256108Y-109730709D01*
X168232690Y-109813771D01*
X168228241Y-109838445D01*
X168217742Y-109927774D01*
X168218971Y-110007581D01*
X168231906Y-110085674D01*
X168238696Y-110120817D01*
X168239713Y-110166255D01*
X168227182Y-110197570D01*
X168200395Y-110217723D01*
X168172148Y-110224107D01*
X168140924Y-110214621D01*
X168127499Y-110205292D01*
X168103967Y-110171057D01*
X168086095Y-110118435D01*
X168074599Y-110049919D01*
X168070192Y-109968000D01*
X168074179Y-109870850D01*
X168090494Y-109764843D01*
X168118545Y-109671031D01*
X168157452Y-109592235D01*
X168206334Y-109531281D01*
X168239195Y-109505211D01*
X168288394Y-109475703D01*
X168342252Y-109450432D01*
X168393419Y-109432782D01*
X168434544Y-109426142D01*
X168454259Y-109427702D01*
G36*
X168494486Y-110611489D02*
G01*
X168573573Y-110611708D01*
X168634516Y-110612317D01*
X168680062Y-110613508D01*
X168712963Y-110615471D01*
X168735968Y-110618397D01*
X168751826Y-110622477D01*
X168763286Y-110627903D01*
X168773100Y-110634864D01*
X168797493Y-110665292D01*
X168800372Y-110700235D01*
X168781282Y-110737216D01*
X168777807Y-110741400D01*
X168769279Y-110749576D01*
X168757728Y-110755636D01*
X168739896Y-110760019D01*
X168712524Y-110763161D01*
X168672354Y-110765498D01*
X168616128Y-110767469D01*
X168540589Y-110769511D01*
X168321458Y-110775155D01*
X168562099Y-111040444D01*
X168628875Y-111114278D01*
X168686991Y-111179458D01*
X168731949Y-111231652D01*
X168764871Y-111272727D01*
X168786879Y-111304545D01*
X168799094Y-111328974D01*
X168802639Y-111347876D01*
X168798636Y-111363117D01*
X168788207Y-111376561D01*
X168772474Y-111390073D01*
X168763991Y-111396318D01*
X168753413Y-111401950D01*
X168739255Y-111406161D01*
X168718803Y-111409113D01*
X168689342Y-111410968D01*
X168648161Y-111411887D01*
X168592544Y-111412032D01*
X168519779Y-111411565D01*
X168427151Y-111410648D01*
X168112199Y-111407333D01*
X168090633Y-111380682D01*
X168074441Y-111354617D01*
X168071670Y-111321759D01*
X168090623Y-111287228D01*
X168094208Y-111282916D01*
X168102737Y-111274784D01*
X168114329Y-111268755D01*
X168132235Y-111264394D01*
X168159706Y-111261266D01*
X168199994Y-111258937D01*
X168256351Y-111256971D01*
X168332029Y-111254933D01*
X168551878Y-111249289D01*
X168388084Y-111068666D01*
X168309451Y-110981928D01*
X168241058Y-110906157D01*
X168185708Y-110844020D01*
X168142338Y-110793922D01*
X168109881Y-110754265D01*
X168087273Y-110723452D01*
X168073448Y-110699886D01*
X168067343Y-110681970D01*
X168067892Y-110668107D01*
X168074029Y-110656699D01*
X168084691Y-110646150D01*
X168098811Y-110634864D01*
X168104772Y-110630411D01*
X168115268Y-110624412D01*
X168129093Y-110619833D01*
X168148998Y-110616481D01*
X168177732Y-110614167D01*
X168218045Y-110612699D01*
X168272687Y-110611887D01*
X168344407Y-110611540D01*
X168435956Y-110611466D01*
X168494486Y-110611489D01*
G37*
X168494486Y-110611489D02*
X168573573Y-110611708D01*
X168634516Y-110612317D01*
X168680062Y-110613508D01*
X168712963Y-110615471D01*
X168735968Y-110618397D01*
X168751826Y-110622477D01*
X168763286Y-110627903D01*
X168773100Y-110634864D01*
X168797493Y-110665292D01*
X168800372Y-110700235D01*
X168781282Y-110737216D01*
X168777807Y-110741400D01*
X168769279Y-110749576D01*
X168757728Y-110755636D01*
X168739896Y-110760019D01*
X168712524Y-110763161D01*
X168672354Y-110765498D01*
X168616128Y-110767469D01*
X168540589Y-110769511D01*
X168321458Y-110775155D01*
X168562099Y-111040444D01*
X168628875Y-111114278D01*
X168686991Y-111179458D01*
X168731949Y-111231652D01*
X168764871Y-111272727D01*
X168786879Y-111304545D01*
X168799094Y-111328974D01*
X168802639Y-111347876D01*
X168798636Y-111363117D01*
X168788207Y-111376561D01*
X168772474Y-111390073D01*
X168763991Y-111396318D01*
X168753413Y-111401950D01*
X168739255Y-111406161D01*
X168718803Y-111409113D01*
X168689342Y-111410968D01*
X168648161Y-111411887D01*
X168592544Y-111412032D01*
X168519779Y-111411565D01*
X168427151Y-111410648D01*
X168112199Y-111407333D01*
X168090633Y-111380682D01*
X168074441Y-111354617D01*
X168071670Y-111321759D01*
X168090623Y-111287228D01*
X168094208Y-111282916D01*
X168102737Y-111274784D01*
X168114329Y-111268755D01*
X168132235Y-111264394D01*
X168159706Y-111261266D01*
X168199994Y-111258937D01*
X168256351Y-111256971D01*
X168332029Y-111254933D01*
X168551878Y-111249289D01*
X168388084Y-111068666D01*
X168309451Y-110981928D01*
X168241058Y-110906157D01*
X168185708Y-110844020D01*
X168142338Y-110793922D01*
X168109881Y-110754265D01*
X168087273Y-110723452D01*
X168073448Y-110699886D01*
X168067343Y-110681970D01*
X168067892Y-110668107D01*
X168074029Y-110656699D01*
X168084691Y-110646150D01*
X168098811Y-110634864D01*
X168104772Y-110630411D01*
X168115268Y-110624412D01*
X168129093Y-110619833D01*
X168148998Y-110616481D01*
X168177732Y-110614167D01*
X168218045Y-110612699D01*
X168272687Y-110611887D01*
X168344407Y-110611540D01*
X168435956Y-110611466D01*
X168494486Y-110611489D01*
G36*
X168506911Y-111796829D02*
G01*
X168585228Y-111797061D01*
X168645496Y-111797681D01*
X168690393Y-111798874D01*
X168722602Y-111800821D01*
X168744800Y-111803706D01*
X168759669Y-111807712D01*
X168769889Y-111813021D01*
X168778138Y-111819817D01*
X168782795Y-111824332D01*
X168789282Y-111832562D01*
X168794194Y-111843922D01*
X168797749Y-111861190D01*
X168800167Y-111887145D01*
X168801667Y-111924564D01*
X168802467Y-111976227D01*
X168802787Y-112044911D01*
X168802845Y-112133394D01*
X168802838Y-112153069D01*
X168802572Y-112240094D01*
X168801806Y-112307746D01*
X168800392Y-112358701D01*
X168798180Y-112395633D01*
X168795022Y-112421217D01*
X168790769Y-112438129D01*
X168785271Y-112449043D01*
X168775285Y-112459536D01*
X168744168Y-112472797D01*
X168708280Y-112471614D01*
X168676733Y-112455450D01*
X168674457Y-112453261D01*
X168668189Y-112444573D01*
X168663523Y-112431231D01*
X168660227Y-112410248D01*
X168658068Y-112378637D01*
X168656814Y-112333410D01*
X168656231Y-112271580D01*
X168656089Y-112190161D01*
X168656089Y-111943555D01*
X168498045Y-111943555D01*
X168498045Y-112105994D01*
X168497964Y-112141662D01*
X168497167Y-112197432D01*
X168495162Y-112236570D01*
X168491521Y-112263024D01*
X168485812Y-112280741D01*
X168477607Y-112293671D01*
X168474423Y-112297314D01*
X168443448Y-112315722D01*
X168407112Y-112316356D01*
X168373493Y-112298817D01*
X168373424Y-112298755D01*
X168364798Y-112289084D01*
X168358742Y-112275791D01*
X168354811Y-112255083D01*
X168352556Y-112223172D01*
X168351531Y-112176266D01*
X168351289Y-112110576D01*
X168351289Y-111942429D01*
X168286378Y-111945814D01*
X168221467Y-111949200D01*
X168218414Y-112191277D01*
X168218086Y-112216293D01*
X168216606Y-112297913D01*
X168214222Y-112360232D01*
X168210227Y-112405846D01*
X168203913Y-112437348D01*
X168194574Y-112457333D01*
X168181503Y-112468396D01*
X168163992Y-112473131D01*
X168141335Y-112474133D01*
X168138970Y-112474127D01*
X168118939Y-112472973D01*
X168103146Y-112468176D01*
X168091090Y-112457368D01*
X168082267Y-112438183D01*
X168076175Y-112408255D01*
X168072311Y-112365217D01*
X168070174Y-112306701D01*
X168069260Y-112230343D01*
X168069067Y-112133774D01*
X168069067Y-111843594D01*
X168098811Y-111820197D01*
X168105495Y-111815248D01*
X168116066Y-111809404D01*
X168130153Y-111804943D01*
X168150478Y-111801679D01*
X168179765Y-111799426D01*
X168220737Y-111797998D01*
X168276117Y-111797208D01*
X168348628Y-111796871D01*
X168440994Y-111796800D01*
X168506911Y-111796829D01*
G37*
X168506911Y-111796829D02*
X168585228Y-111797061D01*
X168645496Y-111797681D01*
X168690393Y-111798874D01*
X168722602Y-111800821D01*
X168744800Y-111803706D01*
X168759669Y-111807712D01*
X168769889Y-111813021D01*
X168778138Y-111819817D01*
X168782795Y-111824332D01*
X168789282Y-111832562D01*
X168794194Y-111843922D01*
X168797749Y-111861190D01*
X168800167Y-111887145D01*
X168801667Y-111924564D01*
X168802467Y-111976227D01*
X168802787Y-112044911D01*
X168802845Y-112133394D01*
X168802838Y-112153069D01*
X168802572Y-112240094D01*
X168801806Y-112307746D01*
X168800392Y-112358701D01*
X168798180Y-112395633D01*
X168795022Y-112421217D01*
X168790769Y-112438129D01*
X168785271Y-112449043D01*
X168775285Y-112459536D01*
X168744168Y-112472797D01*
X168708280Y-112471614D01*
X168676733Y-112455450D01*
X168674457Y-112453261D01*
X168668189Y-112444573D01*
X168663523Y-112431231D01*
X168660227Y-112410248D01*
X168658068Y-112378637D01*
X168656814Y-112333410D01*
X168656231Y-112271580D01*
X168656089Y-112190161D01*
X168656089Y-111943555D01*
X168498045Y-111943555D01*
X168498045Y-112105994D01*
X168497964Y-112141662D01*
X168497167Y-112197432D01*
X168495162Y-112236570D01*
X168491521Y-112263024D01*
X168485812Y-112280741D01*
X168477607Y-112293671D01*
X168474423Y-112297314D01*
X168443448Y-112315722D01*
X168407112Y-112316356D01*
X168373493Y-112298817D01*
X168373424Y-112298755D01*
X168364798Y-112289084D01*
X168358742Y-112275791D01*
X168354811Y-112255083D01*
X168352556Y-112223172D01*
X168351531Y-112176266D01*
X168351289Y-112110576D01*
X168351289Y-111942429D01*
X168286378Y-111945814D01*
X168221467Y-111949200D01*
X168218414Y-112191277D01*
X168218086Y-112216293D01*
X168216606Y-112297913D01*
X168214222Y-112360232D01*
X168210227Y-112405846D01*
X168203913Y-112437348D01*
X168194574Y-112457333D01*
X168181503Y-112468396D01*
X168163992Y-112473131D01*
X168141335Y-112474133D01*
X168138970Y-112474127D01*
X168118939Y-112472973D01*
X168103146Y-112468176D01*
X168091090Y-112457368D01*
X168082267Y-112438183D01*
X168076175Y-112408255D01*
X168072311Y-112365217D01*
X168070174Y-112306701D01*
X168069260Y-112230343D01*
X168069067Y-112133774D01*
X168069067Y-111843594D01*
X168098811Y-111820197D01*
X168105495Y-111815248D01*
X168116066Y-111809404D01*
X168130153Y-111804943D01*
X168150478Y-111801679D01*
X168179765Y-111799426D01*
X168220737Y-111797998D01*
X168276117Y-111797208D01*
X168348628Y-111796871D01*
X168440994Y-111796800D01*
X168506911Y-111796829D01*
G36*
X168495526Y-112812825D02*
G01*
X168574311Y-112813050D01*
X168635021Y-112813668D01*
X168656089Y-112814225D01*
X168680396Y-112814867D01*
X168713175Y-112816837D01*
X168736095Y-112819765D01*
X168751897Y-112823842D01*
X168763319Y-112829257D01*
X168773100Y-112836197D01*
X168802845Y-112859594D01*
X168802251Y-113025286D01*
X168801953Y-113060082D01*
X168798522Y-113158565D01*
X168790839Y-113239527D01*
X168778282Y-113306621D01*
X168760227Y-113363504D01*
X168736052Y-113413831D01*
X168734135Y-113417190D01*
X168697417Y-113475002D01*
X168660451Y-113517356D01*
X168616966Y-113550172D01*
X168560689Y-113579372D01*
X168551073Y-113583654D01*
X168487887Y-113606231D01*
X168432509Y-113613203D01*
X168377483Y-113604601D01*
X168315351Y-113580459D01*
X168313658Y-113579663D01*
X168244236Y-113539212D01*
X168187638Y-113488527D01*
X168143070Y-113425802D01*
X168109741Y-113349226D01*
X168086861Y-113256991D01*
X168073636Y-113147288D01*
X168069275Y-113018309D01*
X168069270Y-113014737D01*
X168069372Y-112970844D01*
X168215822Y-112970844D01*
X168216270Y-113058333D01*
X168218746Y-113125253D01*
X168229998Y-113217651D01*
X168249537Y-113296966D01*
X168276511Y-113358940D01*
X168297240Y-113389880D01*
X168327006Y-113418000D01*
X168369434Y-113441340D01*
X168385400Y-113448467D01*
X168417902Y-113460291D01*
X168442333Y-113462721D01*
X168467061Y-113457108D01*
X168482939Y-113451382D01*
X168542847Y-113418452D01*
X168588600Y-113371114D01*
X168621736Y-113307348D01*
X168643790Y-113225139D01*
X168644292Y-113222345D01*
X168650255Y-113176060D01*
X168654483Y-113119664D01*
X168656089Y-113064726D01*
X168656089Y-112970844D01*
X168215822Y-112970844D01*
X168069372Y-112970844D01*
X168069410Y-112954717D01*
X168070446Y-112912786D01*
X168073040Y-112884672D01*
X168077853Y-112866103D01*
X168085544Y-112852806D01*
X168096776Y-112840509D01*
X168124485Y-112812800D01*
X168433920Y-112812800D01*
X168495526Y-112812825D01*
G37*
X168495526Y-112812825D02*
X168574311Y-112813050D01*
X168635021Y-112813668D01*
X168656089Y-112814225D01*
X168680396Y-112814867D01*
X168713175Y-112816837D01*
X168736095Y-112819765D01*
X168751897Y-112823842D01*
X168763319Y-112829257D01*
X168773100Y-112836197D01*
X168802845Y-112859594D01*
X168802251Y-113025286D01*
X168801953Y-113060082D01*
X168798522Y-113158565D01*
X168790839Y-113239527D01*
X168778282Y-113306621D01*
X168760227Y-113363504D01*
X168736052Y-113413831D01*
X168734135Y-113417190D01*
X168697417Y-113475002D01*
X168660451Y-113517356D01*
X168616966Y-113550172D01*
X168560689Y-113579372D01*
X168551073Y-113583654D01*
X168487887Y-113606231D01*
X168432509Y-113613203D01*
X168377483Y-113604601D01*
X168315351Y-113580459D01*
X168313658Y-113579663D01*
X168244236Y-113539212D01*
X168187638Y-113488527D01*
X168143070Y-113425802D01*
X168109741Y-113349226D01*
X168086861Y-113256991D01*
X168073636Y-113147288D01*
X168069275Y-113018309D01*
X168069270Y-113014737D01*
X168069372Y-112970844D01*
X168215822Y-112970844D01*
X168216270Y-113058333D01*
X168218746Y-113125253D01*
X168229998Y-113217651D01*
X168249537Y-113296966D01*
X168276511Y-113358940D01*
X168297240Y-113389880D01*
X168327006Y-113418000D01*
X168369434Y-113441340D01*
X168385400Y-113448467D01*
X168417902Y-113460291D01*
X168442333Y-113462721D01*
X168467061Y-113457108D01*
X168482939Y-113451382D01*
X168542847Y-113418452D01*
X168588600Y-113371114D01*
X168621736Y-113307348D01*
X168643790Y-113225139D01*
X168644292Y-113222345D01*
X168650255Y-113176060D01*
X168654483Y-113119664D01*
X168656089Y-113064726D01*
X168656089Y-112970844D01*
X168215822Y-112970844D01*
X168069372Y-112970844D01*
X168069410Y-112954717D01*
X168070446Y-112912786D01*
X168073040Y-112884672D01*
X168077853Y-112866103D01*
X168085544Y-112852806D01*
X168096776Y-112840509D01*
X168124485Y-112812800D01*
X168433920Y-112812800D01*
X168495526Y-112812825D01*
G36*
X168151915Y-114704772D02*
G01*
X168186481Y-114717636D01*
X168234826Y-114737395D01*
X168293825Y-114762619D01*
X168360355Y-114791881D01*
X168431291Y-114823750D01*
X168503507Y-114856799D01*
X168573880Y-114889599D01*
X168639285Y-114920720D01*
X168696597Y-114948735D01*
X168742692Y-114972214D01*
X168774446Y-114989728D01*
X168788733Y-114999849D01*
X168802102Y-115034257D01*
X168795741Y-115075954D01*
X168791044Y-115081319D01*
X168768893Y-115097148D01*
X168732132Y-115119350D01*
X168684415Y-115145767D01*
X168629393Y-115174240D01*
X168470150Y-115254014D01*
X168616742Y-115327201D01*
X168636032Y-115336897D01*
X168688380Y-115363875D01*
X168733170Y-115387904D01*
X168766154Y-115406668D01*
X168783089Y-115417854D01*
X168784332Y-115419000D01*
X168799619Y-115447121D01*
X168801302Y-115482183D01*
X168788733Y-115513224D01*
X168785884Y-115515650D01*
X168765259Y-115527910D01*
X168727708Y-115547648D01*
X168675880Y-115573552D01*
X168612423Y-115604315D01*
X168539985Y-115638625D01*
X168461216Y-115675175D01*
X168417093Y-115695415D01*
X168336365Y-115732188D01*
X168272687Y-115760645D01*
X168223752Y-115781669D01*
X168187257Y-115796146D01*
X168160895Y-115804961D01*
X168142361Y-115808996D01*
X168129352Y-115809138D01*
X168119561Y-115806270D01*
X168098678Y-115791613D01*
X168078377Y-115765010D01*
X168078035Y-115764255D01*
X168071034Y-115744665D01*
X168070504Y-115727210D01*
X168078478Y-115710298D01*
X168096989Y-115692337D01*
X168128071Y-115671737D01*
X168173756Y-115646905D01*
X168236078Y-115616250D01*
X168317071Y-115578180D01*
X168348454Y-115563546D01*
X168411638Y-115533797D01*
X168466244Y-115507703D01*
X168509290Y-115486708D01*
X168537793Y-115472261D01*
X168548770Y-115465809D01*
X168548189Y-115464450D01*
X168534242Y-115454458D01*
X168504704Y-115437167D01*
X168463087Y-115414570D01*
X168412903Y-115388662D01*
X168381414Y-115372689D01*
X168326061Y-115343739D01*
X168287044Y-115321251D01*
X168261566Y-115303035D01*
X168246831Y-115286904D01*
X168240042Y-115270670D01*
X168238400Y-115252143D01*
X168238875Y-115241640D01*
X168243082Y-115225524D01*
X168253946Y-115210210D01*
X168274219Y-115193612D01*
X168306654Y-115173643D01*
X168354004Y-115148217D01*
X168419022Y-115115248D01*
X168438277Y-115105515D01*
X168484946Y-115081057D01*
X168521109Y-115060822D01*
X168543497Y-115046689D01*
X168548845Y-115040540D01*
X168545573Y-115039173D01*
X168524664Y-115029798D01*
X168487725Y-115012938D01*
X168437874Y-114990021D01*
X168378226Y-114962480D01*
X168311898Y-114931745D01*
X168254677Y-114905030D01*
X168192688Y-114875407D01*
X168146949Y-114852336D01*
X168114908Y-114834357D01*
X168094014Y-114820010D01*
X168081718Y-114807834D01*
X168075466Y-114796368D01*
X168072574Y-114786958D01*
X168072425Y-114761853D01*
X168087768Y-114734710D01*
X168088753Y-114733410D01*
X168111388Y-114711326D01*
X168133613Y-114700277D01*
X168134253Y-114700231D01*
X168151915Y-114704772D01*
G37*
X168151915Y-114704772D02*
X168186481Y-114717636D01*
X168234826Y-114737395D01*
X168293825Y-114762619D01*
X168360355Y-114791881D01*
X168431291Y-114823750D01*
X168503507Y-114856799D01*
X168573880Y-114889599D01*
X168639285Y-114920720D01*
X168696597Y-114948735D01*
X168742692Y-114972214D01*
X168774446Y-114989728D01*
X168788733Y-114999849D01*
X168802102Y-115034257D01*
X168795741Y-115075954D01*
X168791044Y-115081319D01*
X168768893Y-115097148D01*
X168732132Y-115119350D01*
X168684415Y-115145767D01*
X168629393Y-115174240D01*
X168470150Y-115254014D01*
X168616742Y-115327201D01*
X168636032Y-115336897D01*
X168688380Y-115363875D01*
X168733170Y-115387904D01*
X168766154Y-115406668D01*
X168783089Y-115417854D01*
X168784332Y-115419000D01*
X168799619Y-115447121D01*
X168801302Y-115482183D01*
X168788733Y-115513224D01*
X168785884Y-115515650D01*
X168765259Y-115527910D01*
X168727708Y-115547648D01*
X168675880Y-115573552D01*
X168612423Y-115604315D01*
X168539985Y-115638625D01*
X168461216Y-115675175D01*
X168417093Y-115695415D01*
X168336365Y-115732188D01*
X168272687Y-115760645D01*
X168223752Y-115781669D01*
X168187257Y-115796146D01*
X168160895Y-115804961D01*
X168142361Y-115808996D01*
X168129352Y-115809138D01*
X168119561Y-115806270D01*
X168098678Y-115791613D01*
X168078377Y-115765010D01*
X168078035Y-115764255D01*
X168071034Y-115744665D01*
X168070504Y-115727210D01*
X168078478Y-115710298D01*
X168096989Y-115692337D01*
X168128071Y-115671737D01*
X168173756Y-115646905D01*
X168236078Y-115616250D01*
X168317071Y-115578180D01*
X168348454Y-115563546D01*
X168411638Y-115533797D01*
X168466244Y-115507703D01*
X168509290Y-115486708D01*
X168537793Y-115472261D01*
X168548770Y-115465809D01*
X168548189Y-115464450D01*
X168534242Y-115454458D01*
X168504704Y-115437167D01*
X168463087Y-115414570D01*
X168412903Y-115388662D01*
X168381414Y-115372689D01*
X168326061Y-115343739D01*
X168287044Y-115321251D01*
X168261566Y-115303035D01*
X168246831Y-115286904D01*
X168240042Y-115270670D01*
X168238400Y-115252143D01*
X168238875Y-115241640D01*
X168243082Y-115225524D01*
X168253946Y-115210210D01*
X168274219Y-115193612D01*
X168306654Y-115173643D01*
X168354004Y-115148217D01*
X168419022Y-115115248D01*
X168438277Y-115105515D01*
X168484946Y-115081057D01*
X168521109Y-115060822D01*
X168543497Y-115046689D01*
X168548845Y-115040540D01*
X168545573Y-115039173D01*
X168524664Y-115029798D01*
X168487725Y-115012938D01*
X168437874Y-114990021D01*
X168378226Y-114962480D01*
X168311898Y-114931745D01*
X168254677Y-114905030D01*
X168192688Y-114875407D01*
X168146949Y-114852336D01*
X168114908Y-114834357D01*
X168094014Y-114820010D01*
X168081718Y-114807834D01*
X168075466Y-114796368D01*
X168072574Y-114786958D01*
X168072425Y-114761853D01*
X168087768Y-114734710D01*
X168088753Y-114733410D01*
X168111388Y-114711326D01*
X168133613Y-114700277D01*
X168134253Y-114700231D01*
X168151915Y-114704772D01*
G36*
X168781264Y-116118873D02*
G01*
X168798739Y-116150233D01*
X168799575Y-116186034D01*
X168779082Y-116217472D01*
X168774416Y-116221348D01*
X168764949Y-116226814D01*
X168751267Y-116231021D01*
X168730748Y-116234133D01*
X168700768Y-116236313D01*
X168658704Y-116237724D01*
X168601932Y-116238529D01*
X168527830Y-116238893D01*
X168433773Y-116238978D01*
X168112227Y-116238978D01*
X168090647Y-116212327D01*
X168075877Y-116188614D01*
X168069067Y-116165600D01*
X168074949Y-116144594D01*
X168090647Y-116118873D01*
X168112227Y-116092222D01*
X168759684Y-116092222D01*
X168781264Y-116118873D01*
G37*
X168781264Y-116118873D02*
X168798739Y-116150233D01*
X168799575Y-116186034D01*
X168779082Y-116217472D01*
X168774416Y-116221348D01*
X168764949Y-116226814D01*
X168751267Y-116231021D01*
X168730748Y-116234133D01*
X168700768Y-116236313D01*
X168658704Y-116237724D01*
X168601932Y-116238529D01*
X168527830Y-116238893D01*
X168433773Y-116238978D01*
X168112227Y-116238978D01*
X168090647Y-116212327D01*
X168075877Y-116188614D01*
X168069067Y-116165600D01*
X168074949Y-116144594D01*
X168090647Y-116118873D01*
X168112227Y-116092222D01*
X168759684Y-116092222D01*
X168781264Y-116118873D01*
G36*
X168195178Y-116489083D02*
G01*
X168196631Y-116490443D01*
X168204992Y-116501646D01*
X168210547Y-116518748D01*
X168213840Y-116545918D01*
X168215418Y-116587322D01*
X168215822Y-116647127D01*
X168215822Y-116786489D01*
X168479589Y-116786489D01*
X168555417Y-116786564D01*
X168622083Y-116786972D01*
X168671867Y-116787954D01*
X168707784Y-116789750D01*
X168732850Y-116792601D01*
X168750081Y-116796747D01*
X168762492Y-116802429D01*
X168773100Y-116809886D01*
X168775906Y-116812176D01*
X168798548Y-116843354D01*
X168800112Y-116877734D01*
X168780267Y-116910666D01*
X168772191Y-116917645D01*
X168761593Y-116923117D01*
X168745749Y-116927137D01*
X168721773Y-116929928D01*
X168686774Y-116931712D01*
X168637864Y-116932711D01*
X168572154Y-116933148D01*
X168486756Y-116933244D01*
X168215822Y-116933244D01*
X168215822Y-117079180D01*
X168215821Y-117090280D01*
X168215596Y-117146798D01*
X168214457Y-117185642D01*
X168211657Y-117211035D01*
X168206450Y-117227196D01*
X168198089Y-117238348D01*
X168185826Y-117248711D01*
X168155138Y-117264559D01*
X168121358Y-117261457D01*
X168088822Y-117235813D01*
X168085105Y-117230871D01*
X168080269Y-117220662D01*
X168076506Y-117205236D01*
X168073683Y-117182114D01*
X168071670Y-117148817D01*
X168070333Y-117102863D01*
X168069542Y-117041772D01*
X168069163Y-116963065D01*
X168069067Y-116864260D01*
X168069068Y-116844233D01*
X168069158Y-116750110D01*
X168069498Y-116675595D01*
X168070239Y-116618189D01*
X168071535Y-116575389D01*
X168073537Y-116544696D01*
X168076396Y-116523609D01*
X168080266Y-116509627D01*
X168085298Y-116500250D01*
X168091645Y-116492978D01*
X168124362Y-116474172D01*
X168161939Y-116472725D01*
X168195178Y-116489083D01*
G37*
X168195178Y-116489083D02*
X168196631Y-116490443D01*
X168204992Y-116501646D01*
X168210547Y-116518748D01*
X168213840Y-116545918D01*
X168215418Y-116587322D01*
X168215822Y-116647127D01*
X168215822Y-116786489D01*
X168479589Y-116786489D01*
X168555417Y-116786564D01*
X168622083Y-116786972D01*
X168671867Y-116787954D01*
X168707784Y-116789750D01*
X168732850Y-116792601D01*
X168750081Y-116796747D01*
X168762492Y-116802429D01*
X168773100Y-116809886D01*
X168775906Y-116812176D01*
X168798548Y-116843354D01*
X168800112Y-116877734D01*
X168780267Y-116910666D01*
X168772191Y-116917645D01*
X168761593Y-116923117D01*
X168745749Y-116927137D01*
X168721773Y-116929928D01*
X168686774Y-116931712D01*
X168637864Y-116932711D01*
X168572154Y-116933148D01*
X168486756Y-116933244D01*
X168215822Y-116933244D01*
X168215822Y-117079180D01*
X168215821Y-117090280D01*
X168215596Y-117146798D01*
X168214457Y-117185642D01*
X168211657Y-117211035D01*
X168206450Y-117227196D01*
X168198089Y-117238348D01*
X168185826Y-117248711D01*
X168155138Y-117264559D01*
X168121358Y-117261457D01*
X168088822Y-117235813D01*
X168085105Y-117230871D01*
X168080269Y-117220662D01*
X168076506Y-117205236D01*
X168073683Y-117182114D01*
X168071670Y-117148817D01*
X168070333Y-117102863D01*
X168069542Y-117041772D01*
X168069163Y-116963065D01*
X168069067Y-116864260D01*
X168069068Y-116844233D01*
X168069158Y-116750110D01*
X168069498Y-116675595D01*
X168070239Y-116618189D01*
X168071535Y-116575389D01*
X168073537Y-116544696D01*
X168076396Y-116523609D01*
X168080266Y-116509627D01*
X168085298Y-116500250D01*
X168091645Y-116492978D01*
X168124362Y-116474172D01*
X168161939Y-116472725D01*
X168195178Y-116489083D01*
G36*
X168477631Y-117496891D02*
G01*
X168594000Y-117497375D01*
X168608175Y-117497443D01*
X168669937Y-117498029D01*
X168713620Y-117499352D01*
X168743001Y-117501897D01*
X168761855Y-117506152D01*
X168773959Y-117512604D01*
X168783089Y-117521738D01*
X168800506Y-117555196D01*
X168797604Y-117590144D01*
X168773100Y-117621047D01*
X168759897Y-117630056D01*
X168741361Y-117637508D01*
X168715333Y-117641876D01*
X168676787Y-117643931D01*
X168620700Y-117644444D01*
X168498045Y-117644444D01*
X168498045Y-118141155D01*
X168632871Y-118141155D01*
X168668662Y-118141228D01*
X168714992Y-118141991D01*
X168745526Y-118144167D01*
X168764557Y-118148464D01*
X168776374Y-118155588D01*
X168785271Y-118166245D01*
X168800341Y-118198496D01*
X168797673Y-118233783D01*
X168773100Y-118264514D01*
X168766845Y-118269169D01*
X168756321Y-118275105D01*
X168742391Y-118279636D01*
X168722317Y-118282952D01*
X168693360Y-118285241D01*
X168652780Y-118286692D01*
X168597840Y-118287495D01*
X168525799Y-118287838D01*
X168433920Y-118287911D01*
X168124485Y-118287911D01*
X168096776Y-118260202D01*
X168074533Y-118228823D01*
X168071844Y-118195594D01*
X168091645Y-118163733D01*
X168101415Y-118155447D01*
X168117307Y-118148035D01*
X168141275Y-118143698D01*
X168178148Y-118141662D01*
X168232756Y-118141155D01*
X168351289Y-118141155D01*
X168351289Y-117644444D01*
X168235776Y-117644444D01*
X168184078Y-117644006D01*
X168149554Y-117642042D01*
X168126978Y-117637526D01*
X168111126Y-117629433D01*
X168096776Y-117616735D01*
X168074533Y-117585357D01*
X168071844Y-117552128D01*
X168091645Y-117520266D01*
X168097835Y-117514634D01*
X168106041Y-117509544D01*
X168117817Y-117505457D01*
X168135276Y-117502279D01*
X168160530Y-117499913D01*
X168195690Y-117498262D01*
X168242869Y-117497231D01*
X168304177Y-117496723D01*
X168381727Y-117496641D01*
X168477631Y-117496891D01*
G37*
X168477631Y-117496891D02*
X168594000Y-117497375D01*
X168608175Y-117497443D01*
X168669937Y-117498029D01*
X168713620Y-117499352D01*
X168743001Y-117501897D01*
X168761855Y-117506152D01*
X168773959Y-117512604D01*
X168783089Y-117521738D01*
X168800506Y-117555196D01*
X168797604Y-117590144D01*
X168773100Y-117621047D01*
X168759897Y-117630056D01*
X168741361Y-117637508D01*
X168715333Y-117641876D01*
X168676787Y-117643931D01*
X168620700Y-117644444D01*
X168498045Y-117644444D01*
X168498045Y-118141155D01*
X168632871Y-118141155D01*
X168668662Y-118141228D01*
X168714992Y-118141991D01*
X168745526Y-118144167D01*
X168764557Y-118148464D01*
X168776374Y-118155588D01*
X168785271Y-118166245D01*
X168800341Y-118198496D01*
X168797673Y-118233783D01*
X168773100Y-118264514D01*
X168766845Y-118269169D01*
X168756321Y-118275105D01*
X168742391Y-118279636D01*
X168722317Y-118282952D01*
X168693360Y-118285241D01*
X168652780Y-118286692D01*
X168597840Y-118287495D01*
X168525799Y-118287838D01*
X168433920Y-118287911D01*
X168124485Y-118287911D01*
X168096776Y-118260202D01*
X168074533Y-118228823D01*
X168071844Y-118195594D01*
X168091645Y-118163733D01*
X168101415Y-118155447D01*
X168117307Y-118148035D01*
X168141275Y-118143698D01*
X168178148Y-118141662D01*
X168232756Y-118141155D01*
X168351289Y-118141155D01*
X168351289Y-117644444D01*
X168235776Y-117644444D01*
X168184078Y-117644006D01*
X168149554Y-117642042D01*
X168126978Y-117637526D01*
X168111126Y-117629433D01*
X168096776Y-117616735D01*
X168074533Y-117585357D01*
X168071844Y-117552128D01*
X168091645Y-117520266D01*
X168097835Y-117514634D01*
X168106041Y-117509544D01*
X168117817Y-117505457D01*
X168135276Y-117502279D01*
X168160530Y-117499913D01*
X168195690Y-117498262D01*
X168242869Y-117497231D01*
X168304177Y-117496723D01*
X168381727Y-117496641D01*
X168477631Y-117496891D01*
G36*
X152222898Y-103580747D02*
G01*
X152227726Y-103620123D01*
X152256053Y-103705049D01*
X152306142Y-103831125D01*
X152376252Y-103993946D01*
X152464645Y-104189111D01*
X152470420Y-104201729D01*
X152542880Y-104395944D01*
X152573699Y-104570111D01*
X152584295Y-104663114D01*
X152609414Y-104801484D01*
X152641534Y-104930725D01*
X152698098Y-105122005D01*
X152568400Y-105290558D01*
X152501082Y-105374308D01*
X152447128Y-105427839D01*
X152399936Y-105452898D01*
X152346853Y-105459111D01*
X152334457Y-105458735D01*
X152235725Y-105427100D01*
X152154476Y-105352415D01*
X152096959Y-105245790D01*
X152069420Y-105118334D01*
X152078104Y-104981156D01*
X152081759Y-104949111D01*
X152069506Y-104835634D01*
X152027129Y-104684768D01*
X151956591Y-104502689D01*
X151859858Y-104295569D01*
X151750743Y-104126731D01*
X151589550Y-103963499D01*
X151397803Y-103836346D01*
X151385445Y-103830497D01*
X151306481Y-103801766D01*
X151195655Y-103768860D01*
X151071921Y-103736773D01*
X150954236Y-103710501D01*
X150861555Y-103695038D01*
X150834859Y-103690106D01*
X150754757Y-103669550D01*
X150645768Y-103637648D01*
X150523514Y-103598847D01*
X150448460Y-103575025D01*
X150375062Y-103554111D01*
X152188000Y-103554111D01*
X152202111Y-103568222D01*
X152216222Y-103554111D01*
X152202111Y-103540000D01*
X152188000Y-103554111D01*
X150375062Y-103554111D01*
X150341991Y-103544688D01*
X150262427Y-103526364D01*
X150222955Y-103523365D01*
X150210705Y-103540543D01*
X150199940Y-103604438D01*
X150198000Y-103702717D01*
X150204469Y-103822616D01*
X150218931Y-103951373D01*
X150240971Y-104076222D01*
X150254590Y-104139389D01*
X150283129Y-104275379D01*
X150300759Y-104368042D01*
X150308779Y-104425894D01*
X150308487Y-104457450D01*
X150301180Y-104471225D01*
X150291804Y-104485967D01*
X150269920Y-104543594D01*
X150245860Y-104626556D01*
X150217286Y-104707726D01*
X150161861Y-104822499D01*
X150096358Y-104929945D01*
X150090784Y-104937957D01*
X150038780Y-105015983D01*
X150005998Y-105071243D01*
X149999324Y-105092222D01*
X149999896Y-105092351D01*
X149987606Y-105113710D01*
X149945205Y-105164548D01*
X149881182Y-105234627D01*
X149878444Y-105237532D01*
X149812255Y-105310770D01*
X149765621Y-105367947D01*
X149748485Y-105396905D01*
X149738134Y-105416640D01*
X149697228Y-105467023D01*
X149635596Y-105532950D01*
X149590676Y-105579090D01*
X149511629Y-105662611D01*
X149449958Y-105730505D01*
X149435531Y-105746574D01*
X149360550Y-105822954D01*
X149280625Y-105896556D01*
X149246231Y-105925432D01*
X149206122Y-105952318D01*
X149160540Y-105968521D01*
X149096742Y-105976524D01*
X149001988Y-105978812D01*
X148863537Y-105977868D01*
X148818407Y-105977340D01*
X148691805Y-105974420D01*
X148606137Y-105968195D01*
X148549332Y-105956503D01*
X148509312Y-105937180D01*
X148474004Y-105908061D01*
X148441982Y-105871525D01*
X148418248Y-105801868D01*
X148437232Y-105717242D01*
X148499786Y-105607720D01*
X148500947Y-105606004D01*
X148549519Y-105542806D01*
X148600378Y-105505176D01*
X148671576Y-105484388D01*
X148781163Y-105471718D01*
X148802641Y-105469698D01*
X148870030Y-105457620D01*
X148925948Y-105431337D01*
X148986289Y-105381151D01*
X149066949Y-105297366D01*
X149084334Y-105278472D01*
X149152751Y-105201624D01*
X149201572Y-105142770D01*
X149221174Y-105113389D01*
X149231838Y-105090005D01*
X149268771Y-105045955D01*
X149312645Y-105009176D01*
X149343195Y-104998712D01*
X149362262Y-104995814D01*
X149390614Y-104955937D01*
X149413080Y-104889424D01*
X149422222Y-104813693D01*
X149417979Y-104747847D01*
X149399406Y-104677107D01*
X149360513Y-104599397D01*
X149295370Y-104503162D01*
X149198046Y-104376847D01*
X149150577Y-104315535D01*
X149088941Y-104229880D01*
X149049385Y-104166691D01*
X149038869Y-104136474D01*
X149039404Y-104135077D01*
X149023592Y-104103038D01*
X148975968Y-104045935D01*
X148905899Y-103975135D01*
X148764026Y-103841082D01*
X148762596Y-103837138D01*
X148763265Y-103813627D01*
X148735178Y-103769430D01*
X148711488Y-103738699D01*
X148672824Y-103666396D01*
X148633686Y-103574408D01*
X148605648Y-103499778D01*
X148573400Y-103422569D01*
X148539157Y-103368251D01*
X148493848Y-103332701D01*
X148428403Y-103311797D01*
X148333754Y-103301418D01*
X148200829Y-103297440D01*
X148020560Y-103295741D01*
X147902894Y-103294382D01*
X147712852Y-103290222D01*
X147562921Y-103283057D01*
X147442350Y-103271719D01*
X147340383Y-103255037D01*
X147246268Y-103231841D01*
X147149252Y-103200962D01*
X147127709Y-103193625D01*
X147047798Y-103170111D01*
X146980526Y-103162115D01*
X146903404Y-103168936D01*
X146793944Y-103189870D01*
X146682938Y-103215863D01*
X146571445Y-103247165D01*
X146490559Y-103275467D01*
X146476612Y-103281278D01*
X146394851Y-103310682D01*
X146331889Y-103326551D01*
X146331771Y-103326567D01*
X146264283Y-103338018D01*
X146181356Y-103355086D01*
X146124338Y-103371577D01*
X146099536Y-103398651D01*
X146105903Y-103450440D01*
X146116407Y-103512289D01*
X146127190Y-103611283D01*
X146135346Y-103723212D01*
X146143825Y-103823031D01*
X146164181Y-103974713D01*
X146189684Y-104109428D01*
X146209109Y-104207846D01*
X146219237Y-104291498D01*
X146217157Y-104338958D01*
X146215861Y-104356260D01*
X146226709Y-104422090D01*
X146252109Y-104519250D01*
X146288639Y-104633631D01*
X146300821Y-104669213D01*
X146334463Y-104776434D01*
X146357192Y-104872724D01*
X146371602Y-104974927D01*
X146380289Y-105099885D01*
X146385850Y-105264441D01*
X146395524Y-105642418D01*
X146302299Y-105730340D01*
X146288023Y-105743760D01*
X146245738Y-105779901D01*
X146204823Y-105801124D01*
X146150842Y-105810488D01*
X146069355Y-105811056D01*
X145945926Y-105805887D01*
X145893043Y-105803204D01*
X145781973Y-105794707D01*
X145709829Y-105782173D01*
X145663783Y-105762636D01*
X145631009Y-105733135D01*
X145630686Y-105732757D01*
X145594471Y-105663722D01*
X145595694Y-105572990D01*
X145597147Y-105564154D01*
X145609315Y-105488456D01*
X145616888Y-105438482D01*
X145623959Y-105425910D01*
X145670099Y-105391762D01*
X145743926Y-105357037D01*
X145754928Y-105352789D01*
X145826224Y-105319092D01*
X145858589Y-105282694D01*
X145866222Y-105228694D01*
X145863164Y-105200460D01*
X145835568Y-105109072D01*
X145784293Y-104990773D01*
X145715484Y-104858912D01*
X145635284Y-104726839D01*
X145618357Y-104699496D01*
X145599997Y-104658826D01*
X145610727Y-104653854D01*
X145615196Y-104647574D01*
X145599574Y-104602514D01*
X145563986Y-104523821D01*
X145512942Y-104420175D01*
X145450951Y-104300261D01*
X145382522Y-104172761D01*
X145312163Y-104046357D01*
X145244384Y-103929732D01*
X145183695Y-103831568D01*
X145118259Y-103741390D01*
X145030845Y-103643450D01*
X144950770Y-103575259D01*
X144922284Y-103556892D01*
X144862382Y-103525202D01*
X144799752Y-103507825D01*
X144716517Y-103501035D01*
X144594803Y-103501111D01*
X144450739Y-103498803D01*
X144338785Y-103484537D01*
X144254330Y-103456251D01*
X144209301Y-103435582D01*
X144160057Y-103423147D01*
X144115291Y-103438110D01*
X144050266Y-103483811D01*
X144020098Y-103507821D01*
X143975725Y-103552330D01*
X143966473Y-103578177D01*
X143969974Y-103587231D01*
X143942784Y-103596445D01*
X143942707Y-103596445D01*
X143890166Y-103616599D01*
X143819310Y-103667295D01*
X143745928Y-103734149D01*
X143685809Y-103802781D01*
X143654742Y-103858807D01*
X143648954Y-103873457D01*
X143603956Y-103936750D01*
X143521942Y-104025724D01*
X143409052Y-104134373D01*
X143271425Y-104256689D01*
X143115203Y-104386667D01*
X143033458Y-104453585D01*
X142919619Y-104549059D01*
X142821529Y-104633611D01*
X142753391Y-104690623D01*
X142691539Y-104736115D01*
X142657113Y-104753556D01*
X142628673Y-104768295D01*
X142571374Y-104813462D01*
X142500357Y-104878447D01*
X142436942Y-104937054D01*
X142384315Y-104979420D01*
X142359518Y-104991000D01*
X142359098Y-104990697D01*
X142332836Y-105004707D01*
X142279018Y-105049547D01*
X142208757Y-105116005D01*
X142134528Y-105186684D01*
X142072881Y-105240056D01*
X142037222Y-105264507D01*
X142009275Y-105281908D01*
X141950324Y-105329352D01*
X141878174Y-105394138D01*
X141817881Y-105447394D01*
X141763560Y-105487617D01*
X141736752Y-105497122D01*
X141726165Y-105495517D01*
X141677453Y-105510965D01*
X141606838Y-105545949D01*
X141570560Y-105567419D01*
X141519601Y-105603280D01*
X141505256Y-105623108D01*
X141502202Y-105633299D01*
X141466897Y-105669062D01*
X141404276Y-105718409D01*
X141365939Y-105744778D01*
X141295371Y-105780646D01*
X141215092Y-105798448D01*
X141101836Y-105804834D01*
X141006171Y-105805216D01*
X140820938Y-105792192D01*
X140684579Y-105758433D01*
X140593970Y-105702347D01*
X140545990Y-105622338D01*
X140537515Y-105516813D01*
X140554600Y-105430053D01*
X140597754Y-105368992D01*
X140676149Y-105335282D01*
X140799672Y-105321560D01*
X140871427Y-105315473D01*
X140982662Y-105295937D01*
X141067783Y-105269307D01*
X141123005Y-105241010D01*
X141208649Y-105184061D01*
X141270589Y-105126595D01*
X141294849Y-105080247D01*
X141311990Y-105050953D01*
X141361781Y-104996054D01*
X141432692Y-104929569D01*
X141496790Y-104867851D01*
X141564758Y-104788860D01*
X141604674Y-104725316D01*
X141607383Y-104718973D01*
X141637316Y-104668420D01*
X141662054Y-104655361D01*
X141667686Y-104656432D01*
X141703280Y-104634861D01*
X141750501Y-104583071D01*
X141799256Y-104521892D01*
X141872175Y-104434104D01*
X141950389Y-104342659D01*
X141956043Y-104336125D01*
X142020948Y-104255991D01*
X142066963Y-104189973D01*
X142084444Y-104151801D01*
X142096567Y-104114887D01*
X142134979Y-104060377D01*
X142159334Y-104026894D01*
X142206499Y-103948951D01*
X142264937Y-103843461D01*
X142327219Y-103723445D01*
X142468924Y-103441222D01*
X142475942Y-103116667D01*
X142477945Y-103037098D01*
X142484305Y-102844895D01*
X142492559Y-102644255D01*
X142501435Y-102467556D01*
X142504197Y-102418560D01*
X142514006Y-102226091D01*
X142518609Y-102078083D01*
X142517211Y-101964837D01*
X142509016Y-101876651D01*
X142493229Y-101803825D01*
X142469056Y-101736658D01*
X142435701Y-101665448D01*
X142403813Y-101606168D01*
X142265573Y-101408977D01*
X142094269Y-101232995D01*
X141906277Y-101095838D01*
X141874296Y-101077344D01*
X141788676Y-101033244D01*
X141710956Y-101007113D01*
X141619692Y-100993241D01*
X141493436Y-100985917D01*
X141453889Y-100984149D01*
X141342856Y-100976917D01*
X141256044Y-100967993D01*
X141209555Y-100958909D01*
X141202438Y-100954577D01*
X141161646Y-100912552D01*
X141104307Y-100838617D01*
X141040469Y-100745457D01*
X141017873Y-100709623D01*
X140948486Y-100575308D01*
X140942148Y-100547741D01*
X140955555Y-100534333D01*
X140941444Y-100520222D01*
X140936872Y-100524794D01*
X140921715Y-100458869D01*
X140938843Y-100348315D01*
X141001157Y-100231652D01*
X141109940Y-100096889D01*
X141154694Y-100043313D01*
X141230669Y-99938573D01*
X141288138Y-99842889D01*
X141329088Y-99773645D01*
X141386240Y-99691702D01*
X141449584Y-99609791D01*
X141509647Y-99539579D01*
X141556954Y-99492734D01*
X141582034Y-99480923D01*
X141585937Y-99482665D01*
X141625047Y-99474819D01*
X141685966Y-99448797D01*
X141750126Y-99414348D01*
X141798960Y-99381223D01*
X141813899Y-99359172D01*
X141815814Y-99344761D01*
X141853982Y-99334889D01*
X141879343Y-99332756D01*
X141908715Y-99315273D01*
X141923245Y-99271752D01*
X141925278Y-99192239D01*
X141917159Y-99066778D01*
X141908930Y-98948644D01*
X141907290Y-98843790D01*
X141916653Y-98781731D01*
X141938342Y-98755220D01*
X141973679Y-98757007D01*
X142011297Y-98761026D01*
X142028000Y-98730013D01*
X142031799Y-98708730D01*
X142058594Y-98685778D01*
X142074269Y-98694256D01*
X142126334Y-98735863D01*
X142206011Y-98806235D01*
X142305856Y-98898733D01*
X142418427Y-99006719D01*
X142501605Y-99086566D01*
X142661347Y-99230727D01*
X142788147Y-99330541D01*
X142882665Y-99386549D01*
X142935954Y-99407805D01*
X142986595Y-99421604D01*
X142998347Y-99414184D01*
X142994654Y-99399447D01*
X143021179Y-99404872D01*
X143076609Y-99435290D01*
X143152053Y-99484772D01*
X143238620Y-99547392D01*
X143327417Y-99617221D01*
X143409553Y-99688331D01*
X143461762Y-99736037D01*
X143627216Y-99881361D01*
X143768545Y-99994321D01*
X143896004Y-100082750D01*
X144019848Y-100154481D01*
X144033015Y-100161390D01*
X144106824Y-100197843D01*
X144168470Y-100219415D01*
X144235063Y-100228756D01*
X144323716Y-100228516D01*
X144451539Y-100221345D01*
X144504567Y-100217522D01*
X144643866Y-100203911D01*
X144771192Y-100186985D01*
X144864333Y-100169533D01*
X144908915Y-100159820D01*
X145036755Y-100139547D01*
X145158958Y-100128429D01*
X145219846Y-100124452D01*
X145299000Y-100114571D01*
X145342403Y-100102686D01*
X145377007Y-100093065D01*
X145453549Y-100083389D01*
X145551840Y-100077263D01*
X145636828Y-100071836D01*
X145743294Y-100058817D01*
X145819952Y-100042289D01*
X145885421Y-100026821D01*
X145989837Y-100010265D01*
X146104192Y-99997989D01*
X146104948Y-99997929D01*
X146207412Y-99986553D01*
X146288499Y-99971767D01*
X146330713Y-99956753D01*
X146335509Y-99953816D01*
X146387086Y-99939577D01*
X146475540Y-99925896D01*
X146584874Y-99915378D01*
X146612288Y-99913273D01*
X146714728Y-99902115D01*
X146790209Y-99888723D01*
X146824019Y-99875547D01*
X146840894Y-99866155D01*
X146901935Y-99853581D01*
X146988540Y-99846639D01*
X147064437Y-99841398D01*
X147194224Y-99825482D01*
X147319111Y-99803684D01*
X147410465Y-99786552D01*
X147481786Y-99777153D01*
X147513775Y-99778294D01*
X147517169Y-99779638D01*
X147560951Y-99779501D01*
X147642530Y-99771657D01*
X147747648Y-99757381D01*
X147797963Y-99750810D01*
X147948147Y-99738243D01*
X148133814Y-99729512D01*
X148341849Y-99724617D01*
X148559139Y-99723555D01*
X148772571Y-99726324D01*
X148969029Y-99732923D01*
X149135401Y-99743349D01*
X149258572Y-99757601D01*
X149276401Y-99760485D01*
X149386939Y-99774905D01*
X149478765Y-99781440D01*
X149533525Y-99778682D01*
X149556438Y-99776008D01*
X149632594Y-99782567D01*
X149722828Y-99803254D01*
X149752650Y-99811825D01*
X149926816Y-99841209D01*
X150082598Y-99825607D01*
X150235051Y-99763861D01*
X150252383Y-99753865D01*
X150330026Y-99701819D01*
X150423851Y-99631191D01*
X150523606Y-99550683D01*
X150619040Y-99468997D01*
X150699899Y-99394837D01*
X150755933Y-99336905D01*
X150776889Y-99303904D01*
X150784351Y-99282820D01*
X150814697Y-99224247D01*
X150860435Y-99146264D01*
X150892654Y-99090352D01*
X150935339Y-99003517D01*
X150957875Y-98939778D01*
X150967596Y-98900084D01*
X150993546Y-98812689D01*
X151026415Y-98714000D01*
X151095878Y-98491331D01*
X151170676Y-98118064D01*
X151189934Y-97754445D01*
X151186474Y-97664846D01*
X151177504Y-97545362D01*
X151165327Y-97452698D01*
X151151553Y-97401667D01*
X151100824Y-97306753D01*
X151052156Y-97207964D01*
X151016729Y-97127588D01*
X150999092Y-97076031D01*
X151003794Y-97063697D01*
X151005406Y-97064678D01*
X151026244Y-97069072D01*
X151016361Y-97042813D01*
X150983095Y-96996231D01*
X150933783Y-96939658D01*
X150875763Y-96883426D01*
X150843433Y-96855601D01*
X150781075Y-96807451D01*
X150753841Y-96796909D01*
X150764062Y-96825190D01*
X150764347Y-96831853D01*
X150734023Y-96826589D01*
X150672693Y-96799324D01*
X150525373Y-96740512D01*
X150385589Y-96715887D01*
X150266519Y-96727124D01*
X150179140Y-96774767D01*
X150139709Y-96808853D01*
X150059797Y-96868126D01*
X149969172Y-96928502D01*
X149886170Y-96977949D01*
X149829124Y-97004437D01*
X149810669Y-97007957D01*
X149747847Y-96988952D01*
X149698459Y-96925668D01*
X149679673Y-96868896D01*
X149690333Y-96879556D01*
X149704444Y-96865445D01*
X149690333Y-96851333D01*
X149677957Y-96863710D01*
X149665852Y-96827129D01*
X149653374Y-96702358D01*
X149664373Y-96560377D01*
X149677443Y-96516528D01*
X149733908Y-96419235D01*
X149820884Y-96315226D01*
X149925547Y-96217261D01*
X150035070Y-96138102D01*
X150136629Y-96090507D01*
X150163381Y-96082365D01*
X150245465Y-96054620D01*
X150301005Y-96031874D01*
X150306449Y-96029843D01*
X150363083Y-96026385D01*
X150456723Y-96033014D01*
X150572307Y-96047579D01*
X150694770Y-96067930D01*
X150809047Y-96091916D01*
X150900075Y-96117387D01*
X150963454Y-96132584D01*
X151004567Y-96130492D01*
X151017522Y-96128722D01*
X151072885Y-96145638D01*
X151154670Y-96185004D01*
X151249677Y-96239497D01*
X151344705Y-96301794D01*
X151426552Y-96364573D01*
X151459317Y-96396765D01*
X151516789Y-96464125D01*
X151582060Y-96549112D01*
X151649153Y-96642776D01*
X151712091Y-96736165D01*
X151764897Y-96820331D01*
X151801595Y-96886321D01*
X151816208Y-96925186D01*
X151802760Y-96927975D01*
X151801885Y-96927643D01*
X151802708Y-96951574D01*
X151819082Y-97018335D01*
X151848407Y-97118356D01*
X151888085Y-97242069D01*
X151903045Y-97287333D01*
X151945744Y-97423269D01*
X151973102Y-97530125D01*
X151988356Y-97626619D01*
X151994740Y-97731470D01*
X151995492Y-97863398D01*
X151994768Y-97908267D01*
X151986272Y-98067644D01*
X151970224Y-98217281D01*
X151948932Y-98333865D01*
X151928280Y-98422397D01*
X151913909Y-98497695D01*
X151910903Y-98535356D01*
X151907191Y-98563539D01*
X151887476Y-98631324D01*
X151855909Y-98720247D01*
X151828773Y-98794439D01*
X151798732Y-98885080D01*
X151782277Y-98946025D01*
X151770547Y-98985920D01*
X151737749Y-99068053D01*
X151693997Y-99161347D01*
X151690443Y-99168398D01*
X151639556Y-99275828D01*
X151610871Y-99354957D01*
X151597493Y-99424595D01*
X151591050Y-99440004D01*
X151558999Y-99481040D01*
X151554209Y-99486274D01*
X151519312Y-99532315D01*
X151474836Y-99598324D01*
X151431252Y-99667736D01*
X151399031Y-99723990D01*
X151388642Y-99750520D01*
X151391160Y-99761590D01*
X151382015Y-99802864D01*
X151361763Y-99844009D01*
X151342282Y-99857587D01*
X151322797Y-99870413D01*
X151286162Y-99922272D01*
X151241967Y-100001746D01*
X151203163Y-100075279D01*
X151159948Y-100149854D01*
X151130920Y-100191342D01*
X151095350Y-100235907D01*
X151053532Y-100299041D01*
X151015386Y-100364121D01*
X150990365Y-100415007D01*
X150987919Y-100435556D01*
X150993805Y-100439782D01*
X150983724Y-100470833D01*
X150976748Y-100485347D01*
X150963139Y-100563984D01*
X150963211Y-100677645D01*
X150975267Y-100811593D01*
X150997607Y-100951093D01*
X151028535Y-101081411D01*
X151066350Y-101187809D01*
X151080359Y-101230824D01*
X151079431Y-101272476D01*
X151077191Y-101280190D01*
X151079167Y-101333392D01*
X151093754Y-101434639D01*
X151121310Y-101586170D01*
X151162194Y-101790222D01*
X151167749Y-101825239D01*
X151176794Y-101914169D01*
X151183058Y-102016000D01*
X151184214Y-102038233D01*
X151201420Y-102160047D01*
X151240072Y-102277329D01*
X151304930Y-102397733D01*
X151400755Y-102528915D01*
X151532308Y-102678529D01*
X151704349Y-102854231D01*
X151803395Y-102953251D01*
X151929875Y-103086036D01*
X152024591Y-103196015D01*
X152094538Y-103291517D01*
X152146712Y-103380867D01*
X152152494Y-103392247D01*
X152194296Y-103481340D01*
X152219839Y-103548333D01*
X152220572Y-103554111D01*
X152223786Y-103579474D01*
X152222898Y-103580747D01*
G37*
X152222898Y-103580747D02*
X152227726Y-103620123D01*
X152256053Y-103705049D01*
X152306142Y-103831125D01*
X152376252Y-103993946D01*
X152464645Y-104189111D01*
X152470420Y-104201729D01*
X152542880Y-104395944D01*
X152573699Y-104570111D01*
X152584295Y-104663114D01*
X152609414Y-104801484D01*
X152641534Y-104930725D01*
X152698098Y-105122005D01*
X152568400Y-105290558D01*
X152501082Y-105374308D01*
X152447128Y-105427839D01*
X152399936Y-105452898D01*
X152346853Y-105459111D01*
X152334457Y-105458735D01*
X152235725Y-105427100D01*
X152154476Y-105352415D01*
X152096959Y-105245790D01*
X152069420Y-105118334D01*
X152078104Y-104981156D01*
X152081759Y-104949111D01*
X152069506Y-104835634D01*
X152027129Y-104684768D01*
X151956591Y-104502689D01*
X151859858Y-104295569D01*
X151750743Y-104126731D01*
X151589550Y-103963499D01*
X151397803Y-103836346D01*
X151385445Y-103830497D01*
X151306481Y-103801766D01*
X151195655Y-103768860D01*
X151071921Y-103736773D01*
X150954236Y-103710501D01*
X150861555Y-103695038D01*
X150834859Y-103690106D01*
X150754757Y-103669550D01*
X150645768Y-103637648D01*
X150523514Y-103598847D01*
X150448460Y-103575025D01*
X150375062Y-103554111D01*
X152188000Y-103554111D01*
X152202111Y-103568222D01*
X152216222Y-103554111D01*
X152202111Y-103540000D01*
X152188000Y-103554111D01*
X150375062Y-103554111D01*
X150341991Y-103544688D01*
X150262427Y-103526364D01*
X150222955Y-103523365D01*
X150210705Y-103540543D01*
X150199940Y-103604438D01*
X150198000Y-103702717D01*
X150204469Y-103822616D01*
X150218931Y-103951373D01*
X150240971Y-104076222D01*
X150254590Y-104139389D01*
X150283129Y-104275379D01*
X150300759Y-104368042D01*
X150308779Y-104425894D01*
X150308487Y-104457450D01*
X150301180Y-104471225D01*
X150291804Y-104485967D01*
X150269920Y-104543594D01*
X150245860Y-104626556D01*
X150217286Y-104707726D01*
X150161861Y-104822499D01*
X150096358Y-104929945D01*
X150090784Y-104937957D01*
X150038780Y-105015983D01*
X150005998Y-105071243D01*
X149999324Y-105092222D01*
X149999896Y-105092351D01*
X149987606Y-105113710D01*
X149945205Y-105164548D01*
X149881182Y-105234627D01*
X149878444Y-105237532D01*
X149812255Y-105310770D01*
X149765621Y-105367947D01*
X149748485Y-105396905D01*
X149738134Y-105416640D01*
X149697228Y-105467023D01*
X149635596Y-105532950D01*
X149590676Y-105579090D01*
X149511629Y-105662611D01*
X149449958Y-105730505D01*
X149435531Y-105746574D01*
X149360550Y-105822954D01*
X149280625Y-105896556D01*
X149246231Y-105925432D01*
X149206122Y-105952318D01*
X149160540Y-105968521D01*
X149096742Y-105976524D01*
X149001988Y-105978812D01*
X148863537Y-105977868D01*
X148818407Y-105977340D01*
X148691805Y-105974420D01*
X148606137Y-105968195D01*
X148549332Y-105956503D01*
X148509312Y-105937180D01*
X148474004Y-105908061D01*
X148441982Y-105871525D01*
X148418248Y-105801868D01*
X148437232Y-105717242D01*
X148499786Y-105607720D01*
X148500947Y-105606004D01*
X148549519Y-105542806D01*
X148600378Y-105505176D01*
X148671576Y-105484388D01*
X148781163Y-105471718D01*
X148802641Y-105469698D01*
X148870030Y-105457620D01*
X148925948Y-105431337D01*
X148986289Y-105381151D01*
X149066949Y-105297366D01*
X149084334Y-105278472D01*
X149152751Y-105201624D01*
X149201572Y-105142770D01*
X149221174Y-105113389D01*
X149231838Y-105090005D01*
X149268771Y-105045955D01*
X149312645Y-105009176D01*
X149343195Y-104998712D01*
X149362262Y-104995814D01*
X149390614Y-104955937D01*
X149413080Y-104889424D01*
X149422222Y-104813693D01*
X149417979Y-104747847D01*
X149399406Y-104677107D01*
X149360513Y-104599397D01*
X149295370Y-104503162D01*
X149198046Y-104376847D01*
X149150577Y-104315535D01*
X149088941Y-104229880D01*
X149049385Y-104166691D01*
X149038869Y-104136474D01*
X149039404Y-104135077D01*
X149023592Y-104103038D01*
X148975968Y-104045935D01*
X148905899Y-103975135D01*
X148764026Y-103841082D01*
X148762596Y-103837138D01*
X148763265Y-103813627D01*
X148735178Y-103769430D01*
X148711488Y-103738699D01*
X148672824Y-103666396D01*
X148633686Y-103574408D01*
X148605648Y-103499778D01*
X148573400Y-103422569D01*
X148539157Y-103368251D01*
X148493848Y-103332701D01*
X148428403Y-103311797D01*
X148333754Y-103301418D01*
X148200829Y-103297440D01*
X148020560Y-103295741D01*
X147902894Y-103294382D01*
X147712852Y-103290222D01*
X147562921Y-103283057D01*
X147442350Y-103271719D01*
X147340383Y-103255037D01*
X147246268Y-103231841D01*
X147149252Y-103200962D01*
X147127709Y-103193625D01*
X147047798Y-103170111D01*
X146980526Y-103162115D01*
X146903404Y-103168936D01*
X146793944Y-103189870D01*
X146682938Y-103215863D01*
X146571445Y-103247165D01*
X146490559Y-103275467D01*
X146476612Y-103281278D01*
X146394851Y-103310682D01*
X146331889Y-103326551D01*
X146331771Y-103326567D01*
X146264283Y-103338018D01*
X146181356Y-103355086D01*
X146124338Y-103371577D01*
X146099536Y-103398651D01*
X146105903Y-103450440D01*
X146116407Y-103512289D01*
X146127190Y-103611283D01*
X146135346Y-103723212D01*
X146143825Y-103823031D01*
X146164181Y-103974713D01*
X146189684Y-104109428D01*
X146209109Y-104207846D01*
X146219237Y-104291498D01*
X146217157Y-104338958D01*
X146215861Y-104356260D01*
X146226709Y-104422090D01*
X146252109Y-104519250D01*
X146288639Y-104633631D01*
X146300821Y-104669213D01*
X146334463Y-104776434D01*
X146357192Y-104872724D01*
X146371602Y-104974927D01*
X146380289Y-105099885D01*
X146385850Y-105264441D01*
X146395524Y-105642418D01*
X146302299Y-105730340D01*
X146288023Y-105743760D01*
X146245738Y-105779901D01*
X146204823Y-105801124D01*
X146150842Y-105810488D01*
X146069355Y-105811056D01*
X145945926Y-105805887D01*
X145893043Y-105803204D01*
X145781973Y-105794707D01*
X145709829Y-105782173D01*
X145663783Y-105762636D01*
X145631009Y-105733135D01*
X145630686Y-105732757D01*
X145594471Y-105663722D01*
X145595694Y-105572990D01*
X145597147Y-105564154D01*
X145609315Y-105488456D01*
X145616888Y-105438482D01*
X145623959Y-105425910D01*
X145670099Y-105391762D01*
X145743926Y-105357037D01*
X145754928Y-105352789D01*
X145826224Y-105319092D01*
X145858589Y-105282694D01*
X145866222Y-105228694D01*
X145863164Y-105200460D01*
X145835568Y-105109072D01*
X145784293Y-104990773D01*
X145715484Y-104858912D01*
X145635284Y-104726839D01*
X145618357Y-104699496D01*
X145599997Y-104658826D01*
X145610727Y-104653854D01*
X145615196Y-104647574D01*
X145599574Y-104602514D01*
X145563986Y-104523821D01*
X145512942Y-104420175D01*
X145450951Y-104300261D01*
X145382522Y-104172761D01*
X145312163Y-104046357D01*
X145244384Y-103929732D01*
X145183695Y-103831568D01*
X145118259Y-103741390D01*
X145030845Y-103643450D01*
X144950770Y-103575259D01*
X144922284Y-103556892D01*
X144862382Y-103525202D01*
X144799752Y-103507825D01*
X144716517Y-103501035D01*
X144594803Y-103501111D01*
X144450739Y-103498803D01*
X144338785Y-103484537D01*
X144254330Y-103456251D01*
X144209301Y-103435582D01*
X144160057Y-103423147D01*
X144115291Y-103438110D01*
X144050266Y-103483811D01*
X144020098Y-103507821D01*
X143975725Y-103552330D01*
X143966473Y-103578177D01*
X143969974Y-103587231D01*
X143942784Y-103596445D01*
X143942707Y-103596445D01*
X143890166Y-103616599D01*
X143819310Y-103667295D01*
X143745928Y-103734149D01*
X143685809Y-103802781D01*
X143654742Y-103858807D01*
X143648954Y-103873457D01*
X143603956Y-103936750D01*
X143521942Y-104025724D01*
X143409052Y-104134373D01*
X143271425Y-104256689D01*
X143115203Y-104386667D01*
X143033458Y-104453585D01*
X142919619Y-104549059D01*
X142821529Y-104633611D01*
X142753391Y-104690623D01*
X142691539Y-104736115D01*
X142657113Y-104753556D01*
X142628673Y-104768295D01*
X142571374Y-104813462D01*
X142500357Y-104878447D01*
X142436942Y-104937054D01*
X142384315Y-104979420D01*
X142359518Y-104991000D01*
X142359098Y-104990697D01*
X142332836Y-105004707D01*
X142279018Y-105049547D01*
X142208757Y-105116005D01*
X142134528Y-105186684D01*
X142072881Y-105240056D01*
X142037222Y-105264507D01*
X142009275Y-105281908D01*
X141950324Y-105329352D01*
X141878174Y-105394138D01*
X141817881Y-105447394D01*
X141763560Y-105487617D01*
X141736752Y-105497122D01*
X141726165Y-105495517D01*
X141677453Y-105510965D01*
X141606838Y-105545949D01*
X141570560Y-105567419D01*
X141519601Y-105603280D01*
X141505256Y-105623108D01*
X141502202Y-105633299D01*
X141466897Y-105669062D01*
X141404276Y-105718409D01*
X141365939Y-105744778D01*
X141295371Y-105780646D01*
X141215092Y-105798448D01*
X141101836Y-105804834D01*
X141006171Y-105805216D01*
X140820938Y-105792192D01*
X140684579Y-105758433D01*
X140593970Y-105702347D01*
X140545990Y-105622338D01*
X140537515Y-105516813D01*
X140554600Y-105430053D01*
X140597754Y-105368992D01*
X140676149Y-105335282D01*
X140799672Y-105321560D01*
X140871427Y-105315473D01*
X140982662Y-105295937D01*
X141067783Y-105269307D01*
X141123005Y-105241010D01*
X141208649Y-105184061D01*
X141270589Y-105126595D01*
X141294849Y-105080247D01*
X141311990Y-105050953D01*
X141361781Y-104996054D01*
X141432692Y-104929569D01*
X141496790Y-104867851D01*
X141564758Y-104788860D01*
X141604674Y-104725316D01*
X141607383Y-104718973D01*
X141637316Y-104668420D01*
X141662054Y-104655361D01*
X141667686Y-104656432D01*
X141703280Y-104634861D01*
X141750501Y-104583071D01*
X141799256Y-104521892D01*
X141872175Y-104434104D01*
X141950389Y-104342659D01*
X141956043Y-104336125D01*
X142020948Y-104255991D01*
X142066963Y-104189973D01*
X142084444Y-104151801D01*
X142096567Y-104114887D01*
X142134979Y-104060377D01*
X142159334Y-104026894D01*
X142206499Y-103948951D01*
X142264937Y-103843461D01*
X142327219Y-103723445D01*
X142468924Y-103441222D01*
X142475942Y-103116667D01*
X142477945Y-103037098D01*
X142484305Y-102844895D01*
X142492559Y-102644255D01*
X142501435Y-102467556D01*
X142504197Y-102418560D01*
X142514006Y-102226091D01*
X142518609Y-102078083D01*
X142517211Y-101964837D01*
X142509016Y-101876651D01*
X142493229Y-101803825D01*
X142469056Y-101736658D01*
X142435701Y-101665448D01*
X142403813Y-101606168D01*
X142265573Y-101408977D01*
X142094269Y-101232995D01*
X141906277Y-101095838D01*
X141874296Y-101077344D01*
X141788676Y-101033244D01*
X141710956Y-101007113D01*
X141619692Y-100993241D01*
X141493436Y-100985917D01*
X141453889Y-100984149D01*
X141342856Y-100976917D01*
X141256044Y-100967993D01*
X141209555Y-100958909D01*
X141202438Y-100954577D01*
X141161646Y-100912552D01*
X141104307Y-100838617D01*
X141040469Y-100745457D01*
X141017873Y-100709623D01*
X140948486Y-100575308D01*
X140942148Y-100547741D01*
X140955555Y-100534333D01*
X140941444Y-100520222D01*
X140936872Y-100524794D01*
X140921715Y-100458869D01*
X140938843Y-100348315D01*
X141001157Y-100231652D01*
X141109940Y-100096889D01*
X141154694Y-100043313D01*
X141230669Y-99938573D01*
X141288138Y-99842889D01*
X141329088Y-99773645D01*
X141386240Y-99691702D01*
X141449584Y-99609791D01*
X141509647Y-99539579D01*
X141556954Y-99492734D01*
X141582034Y-99480923D01*
X141585937Y-99482665D01*
X141625047Y-99474819D01*
X141685966Y-99448797D01*
X141750126Y-99414348D01*
X141798960Y-99381223D01*
X141813899Y-99359172D01*
X141815814Y-99344761D01*
X141853982Y-99334889D01*
X141879343Y-99332756D01*
X141908715Y-99315273D01*
X141923245Y-99271752D01*
X141925278Y-99192239D01*
X141917159Y-99066778D01*
X141908930Y-98948644D01*
X141907290Y-98843790D01*
X141916653Y-98781731D01*
X141938342Y-98755220D01*
X141973679Y-98757007D01*
X142011297Y-98761026D01*
X142028000Y-98730013D01*
X142031799Y-98708730D01*
X142058594Y-98685778D01*
X142074269Y-98694256D01*
X142126334Y-98735863D01*
X142206011Y-98806235D01*
X142305856Y-98898733D01*
X142418427Y-99006719D01*
X142501605Y-99086566D01*
X142661347Y-99230727D01*
X142788147Y-99330541D01*
X142882665Y-99386549D01*
X142935954Y-99407805D01*
X142986595Y-99421604D01*
X142998347Y-99414184D01*
X142994654Y-99399447D01*
X143021179Y-99404872D01*
X143076609Y-99435290D01*
X143152053Y-99484772D01*
X143238620Y-99547392D01*
X143327417Y-99617221D01*
X143409553Y-99688331D01*
X143461762Y-99736037D01*
X143627216Y-99881361D01*
X143768545Y-99994321D01*
X143896004Y-100082750D01*
X144019848Y-100154481D01*
X144033015Y-100161390D01*
X144106824Y-100197843D01*
X144168470Y-100219415D01*
X144235063Y-100228756D01*
X144323716Y-100228516D01*
X144451539Y-100221345D01*
X144504567Y-100217522D01*
X144643866Y-100203911D01*
X144771192Y-100186985D01*
X144864333Y-100169533D01*
X144908915Y-100159820D01*
X145036755Y-100139547D01*
X145158958Y-100128429D01*
X145219846Y-100124452D01*
X145299000Y-100114571D01*
X145342403Y-100102686D01*
X145377007Y-100093065D01*
X145453549Y-100083389D01*
X145551840Y-100077263D01*
X145636828Y-100071836D01*
X145743294Y-100058817D01*
X145819952Y-100042289D01*
X145885421Y-100026821D01*
X145989837Y-100010265D01*
X146104192Y-99997989D01*
X146104948Y-99997929D01*
X146207412Y-99986553D01*
X146288499Y-99971767D01*
X146330713Y-99956753D01*
X146335509Y-99953816D01*
X146387086Y-99939577D01*
X146475540Y-99925896D01*
X146584874Y-99915378D01*
X146612288Y-99913273D01*
X146714728Y-99902115D01*
X146790209Y-99888723D01*
X146824019Y-99875547D01*
X146840894Y-99866155D01*
X146901935Y-99853581D01*
X146988540Y-99846639D01*
X147064437Y-99841398D01*
X147194224Y-99825482D01*
X147319111Y-99803684D01*
X147410465Y-99786552D01*
X147481786Y-99777153D01*
X147513775Y-99778294D01*
X147517169Y-99779638D01*
X147560951Y-99779501D01*
X147642530Y-99771657D01*
X147747648Y-99757381D01*
X147797963Y-99750810D01*
X147948147Y-99738243D01*
X148133814Y-99729512D01*
X148341849Y-99724617D01*
X148559139Y-99723555D01*
X148772571Y-99726324D01*
X148969029Y-99732923D01*
X149135401Y-99743349D01*
X149258572Y-99757601D01*
X149276401Y-99760485D01*
X149386939Y-99774905D01*
X149478765Y-99781440D01*
X149533525Y-99778682D01*
X149556438Y-99776008D01*
X149632594Y-99782567D01*
X149722828Y-99803254D01*
X149752650Y-99811825D01*
X149926816Y-99841209D01*
X150082598Y-99825607D01*
X150235051Y-99763861D01*
X150252383Y-99753865D01*
X150330026Y-99701819D01*
X150423851Y-99631191D01*
X150523606Y-99550683D01*
X150619040Y-99468997D01*
X150699899Y-99394837D01*
X150755933Y-99336905D01*
X150776889Y-99303904D01*
X150784351Y-99282820D01*
X150814697Y-99224247D01*
X150860435Y-99146264D01*
X150892654Y-99090352D01*
X150935339Y-99003517D01*
X150957875Y-98939778D01*
X150967596Y-98900084D01*
X150993546Y-98812689D01*
X151026415Y-98714000D01*
X151095878Y-98491331D01*
X151170676Y-98118064D01*
X151189934Y-97754445D01*
X151186474Y-97664846D01*
X151177504Y-97545362D01*
X151165327Y-97452698D01*
X151151553Y-97401667D01*
X151100824Y-97306753D01*
X151052156Y-97207964D01*
X151016729Y-97127588D01*
X150999092Y-97076031D01*
X151003794Y-97063697D01*
X151005406Y-97064678D01*
X151026244Y-97069072D01*
X151016361Y-97042813D01*
X150983095Y-96996231D01*
X150933783Y-96939658D01*
X150875763Y-96883426D01*
X150843433Y-96855601D01*
X150781075Y-96807451D01*
X150753841Y-96796909D01*
X150764062Y-96825190D01*
X150764347Y-96831853D01*
X150734023Y-96826589D01*
X150672693Y-96799324D01*
X150525373Y-96740512D01*
X150385589Y-96715887D01*
X150266519Y-96727124D01*
X150179140Y-96774767D01*
X150139709Y-96808853D01*
X150059797Y-96868126D01*
X149969172Y-96928502D01*
X149886170Y-96977949D01*
X149829124Y-97004437D01*
X149810669Y-97007957D01*
X149747847Y-96988952D01*
X149698459Y-96925668D01*
X149679673Y-96868896D01*
X149690333Y-96879556D01*
X149704444Y-96865445D01*
X149690333Y-96851333D01*
X149677957Y-96863710D01*
X149665852Y-96827129D01*
X149653374Y-96702358D01*
X149664373Y-96560377D01*
X149677443Y-96516528D01*
X149733908Y-96419235D01*
X149820884Y-96315226D01*
X149925547Y-96217261D01*
X150035070Y-96138102D01*
X150136629Y-96090507D01*
X150163381Y-96082365D01*
X150245465Y-96054620D01*
X150301005Y-96031874D01*
X150306449Y-96029843D01*
X150363083Y-96026385D01*
X150456723Y-96033014D01*
X150572307Y-96047579D01*
X150694770Y-96067930D01*
X150809047Y-96091916D01*
X150900075Y-96117387D01*
X150963454Y-96132584D01*
X151004567Y-96130492D01*
X151017522Y-96128722D01*
X151072885Y-96145638D01*
X151154670Y-96185004D01*
X151249677Y-96239497D01*
X151344705Y-96301794D01*
X151426552Y-96364573D01*
X151459317Y-96396765D01*
X151516789Y-96464125D01*
X151582060Y-96549112D01*
X151649153Y-96642776D01*
X151712091Y-96736165D01*
X151764897Y-96820331D01*
X151801595Y-96886321D01*
X151816208Y-96925186D01*
X151802760Y-96927975D01*
X151801885Y-96927643D01*
X151802708Y-96951574D01*
X151819082Y-97018335D01*
X151848407Y-97118356D01*
X151888085Y-97242069D01*
X151903045Y-97287333D01*
X151945744Y-97423269D01*
X151973102Y-97530125D01*
X151988356Y-97626619D01*
X151994740Y-97731470D01*
X151995492Y-97863398D01*
X151994768Y-97908267D01*
X151986272Y-98067644D01*
X151970224Y-98217281D01*
X151948932Y-98333865D01*
X151928280Y-98422397D01*
X151913909Y-98497695D01*
X151910903Y-98535356D01*
X151907191Y-98563539D01*
X151887476Y-98631324D01*
X151855909Y-98720247D01*
X151828773Y-98794439D01*
X151798732Y-98885080D01*
X151782277Y-98946025D01*
X151770547Y-98985920D01*
X151737749Y-99068053D01*
X151693997Y-99161347D01*
X151690443Y-99168398D01*
X151639556Y-99275828D01*
X151610871Y-99354957D01*
X151597493Y-99424595D01*
X151591050Y-99440004D01*
X151558999Y-99481040D01*
X151554209Y-99486274D01*
X151519312Y-99532315D01*
X151474836Y-99598324D01*
X151431252Y-99667736D01*
X151399031Y-99723990D01*
X151388642Y-99750520D01*
X151391160Y-99761590D01*
X151382015Y-99802864D01*
X151361763Y-99844009D01*
X151342282Y-99857587D01*
X151322797Y-99870413D01*
X151286162Y-99922272D01*
X151241967Y-100001746D01*
X151203163Y-100075279D01*
X151159948Y-100149854D01*
X151130920Y-100191342D01*
X151095350Y-100235907D01*
X151053532Y-100299041D01*
X151015386Y-100364121D01*
X150990365Y-100415007D01*
X150987919Y-100435556D01*
X150993805Y-100439782D01*
X150983724Y-100470833D01*
X150976748Y-100485347D01*
X150963139Y-100563984D01*
X150963211Y-100677645D01*
X150975267Y-100811593D01*
X150997607Y-100951093D01*
X151028535Y-101081411D01*
X151066350Y-101187809D01*
X151080359Y-101230824D01*
X151079431Y-101272476D01*
X151077191Y-101280190D01*
X151079167Y-101333392D01*
X151093754Y-101434639D01*
X151121310Y-101586170D01*
X151162194Y-101790222D01*
X151167749Y-101825239D01*
X151176794Y-101914169D01*
X151183058Y-102016000D01*
X151184214Y-102038233D01*
X151201420Y-102160047D01*
X151240072Y-102277329D01*
X151304930Y-102397733D01*
X151400755Y-102528915D01*
X151532308Y-102678529D01*
X151704349Y-102854231D01*
X151803395Y-102953251D01*
X151929875Y-103086036D01*
X152024591Y-103196015D01*
X152094538Y-103291517D01*
X152146712Y-103380867D01*
X152152494Y-103392247D01*
X152194296Y-103481340D01*
X152219839Y-103548333D01*
X152220572Y-103554111D01*
X152223786Y-103579474D01*
X152222898Y-103580747D01*
G36*
X148900111Y-103991556D02*
G01*
X149041222Y-104146778D01*
X148895368Y-104009005D01*
X148889526Y-104003449D01*
X148820721Y-103931524D01*
X148775216Y-103871950D01*
X148764496Y-103842378D01*
X148900111Y-103991556D01*
G37*
X148900111Y-103991556D02*
X149041222Y-104146778D01*
X148895368Y-104009005D01*
X148889526Y-104003449D01*
X148820721Y-103931524D01*
X148775216Y-103871950D01*
X148764496Y-103842378D01*
X148900111Y-103991556D01*
G36*
X148764026Y-103841082D02*
G01*
X148764496Y-103842378D01*
X148759000Y-103836333D01*
X148764026Y-103841082D01*
G37*
X148764026Y-103841082D02*
X148764496Y-103842378D01*
X148759000Y-103836333D01*
X148764026Y-103841082D01*
M02*
