M48
; DRILL file {KiCad 5.99.0-unknown-df3fabf~86~ubuntu18.04.1} date Tue 29 Oct 2019 07:41:33 PM EDT
; FORMAT={-:-/ absolute / inch / decimal}
; #@! TF.CreationDate,2019-10-29T19:41:33-04:00
; #@! TF.GenerationSoftware,Kicad,Pcbnew,5.99.0-unknown-df3fabf~86~ubuntu18.04.1
; #@! TF.FileFunction,Plated,1,2,PTH
FMAT,2
INCH
T1C0.0118
T2C0.0256
%
G90
G05
T1
X5.1575Y-3.3661
X5.1575Y-3.5039
X5.1772Y-3.2087
X5.2087Y-4.1299
X5.2165Y-4.2323
X5.2165Y-4.3307
X5.2165Y-4.5276
X5.2165Y-4.626
X5.2756Y-4.5472
X5.2953Y-4.685
X5.315Y-3.189
X5.3228Y-3.4961
X5.3228Y-4.1063
X5.3248Y-3.7303
X5.3277Y-3.4064
X5.3307Y-4.0669
X5.3465Y-3.6929
X5.3484Y-3.7736
X5.3543Y-4.5472
X5.3543Y-4.685
X5.3661Y-3.5
X5.3681Y-3.8189
X5.3957Y-3.6437
X5.4134Y-4.685
X5.4252Y-4.1535
X5.4291Y-3.7087
X5.4449Y-3.6673
X5.4514Y-4.1096
X5.4528Y-3.5276
X5.4528Y-4.5472
X5.4724Y-4.685
X5.4803Y-4.122
X5.4961Y-3.4665
X5.5276Y-3.8386
X5.5276Y-3.9685
X5.5315Y-3.8976
X5.5512Y-3.189
X5.5512Y-4.2205
X5.5827Y-3.3701
X5.6024Y-4.3543
X5.6102Y-4.2244
X5.622Y-3.8504
X5.6496Y-3.6535
X5.6693Y-3.4882
X5.6801Y-3.3277
X5.7087Y-4.2323
X5.752Y-3.4882
X5.7874Y-3.189
X5.7874Y-3.4961
X5.8071Y-4.2323
X5.8228Y-3.5039
X5.8504Y-4.4327
X5.8898Y-4.4606
X5.9055Y-4.2323
X5.935Y-4.4941
X6.0039Y-4.2323
X6.0118Y-4.5276
X6.0433Y-3.189
X6.0591Y-4.1969
X6.0827Y-3.6457
X6.0827Y-3.689
X6.0827Y-3.7283
X6.0827Y-3.7717
X6.0827Y-3.815
X6.0866Y-3.3268
X6.1417Y-3.6024
X6.1969Y-3.6811
X6.2008Y-3.5433
X6.2008Y-3.7835
X6.2008Y-4.2323
X6.2008Y-4.3307
X6.2008Y-4.4291
X6.2087Y-3.8228
X6.2126Y-3.6417
X6.221Y-4.091
X6.248Y-3.7835
X6.2559Y-3.6811
X6.2638Y-3.8386
X6.2717Y-3.6417
X6.2992Y-3.189
X6.2992Y-3.4449
X6.2992Y-3.5433
X6.2992Y-3.937
X6.2992Y-4.0354
X6.315Y-3.6811
X6.3268Y-3.8228
X6.3307Y-3.6417
X6.3346Y-3.7835
X6.374Y-3.6811
X6.378Y-3.7795
X6.3858Y-3.8228
X6.3898Y-3.6417
X6.3976Y-3.3465
X6.3976Y-3.4449
X6.3976Y-3.5433
X6.3976Y-3.937
X6.3976Y-4.0354
X6.3976Y-4.1339
X6.3976Y-4.2323
X6.3976Y-4.3307
X6.3976Y-4.4291
X6.3976Y-4.5276
X6.3976Y-4.626
X6.4213Y-3.7835
X6.4331Y-3.6811
X6.4449Y-3.8386
X6.4488Y-3.6417
X6.4921Y-3.6811
X6.4921Y-3.8622
X6.4961Y-3.248
X6.4961Y-3.3465
X6.4961Y-3.4449
X6.4961Y-3.5433
X6.4961Y-3.937
X6.4961Y-4.0354
X6.4961Y-4.1339
X6.4961Y-4.2323
X6.4961Y-4.4291
X6.4961Y-4.5276
X6.4961Y-4.626
X6.5079Y-3.6417
X6.5433Y-3.8976
X6.5551Y-3.189
X6.565Y-4.2815
X6.5945Y-3.248
X6.5945Y-3.3465
X6.5945Y-3.4449
X6.5945Y-3.5433
X6.5945Y-3.937
X6.5945Y-4.0354
X6.5945Y-4.3307
X6.5945Y-4.4291
X6.5945Y-4.626
T2
X5.2886Y-3.2677
X5.3386Y-3.2677
X5.3886Y-3.2677
X5.4386Y-3.2677
X5.4886Y-3.2677
X5.5386Y-3.2677
X5.5886Y-3.2677
X5.6386Y-3.2677
X5.6886Y-3.2677
X5.7386Y-3.2677
X5.7886Y-3.2677
X5.8386Y-3.2677
X5.8886Y-3.2677
X5.9386Y-3.2677
X5.9886Y-3.2677
X6.0386Y-3.2677
X6.0886Y-3.2677
X6.1386Y-3.2677
X6.1886Y-3.2677
X6.2386Y-3.2677
X6.2886Y-3.2677
X6.3386Y-3.2677
X5.2886Y-4.6063
X5.3386Y-4.6063
X5.3886Y-4.6063
X5.4386Y-4.6063
X5.4886Y-4.6063
X5.5386Y-4.6063
X5.5886Y-4.6063
X5.6386Y-4.6063
X5.6886Y-4.6063
X5.7386Y-4.6063
X5.7886Y-4.6063
X5.8386Y-4.6063
X5.8886Y-4.6063
X5.9386Y-4.6063
X5.9886Y-4.6063
X6.0386Y-4.6063
X6.0886Y-4.6063
X6.1386Y-4.6063
X6.1886Y-4.6063
X6.2386Y-4.6063
X6.2886Y-4.6063
X6.3386Y-4.6063
T0
M30
