G04 #@! TF.GenerationSoftware,KiCad,Pcbnew,(5.99.0-539-g3370e8996)*
G04 #@! TF.CreationDate,2019-12-31T23:23:20-05:00*
G04 #@! TF.ProjectId,node_base,6e6f6465-5f62-4617-9365-2e6b69636164,rev?*
G04 #@! TF.SameCoordinates,Original*
G04 #@! TF.FileFunction,Copper,L2,Bot*
G04 #@! TF.FilePolarity,Positive*
%FSLAX46Y46*%
G04 Gerber Fmt 4.6, Leading zero omitted, Abs format (unit mm)*
G04 Created by KiCad (PCBNEW (5.99.0-539-g3370e8996)) date 2019-12-31 23:23:20*
%MOMM*%
%LPD*%
G04 APERTURE LIST*
%ADD10O,1.000000X1.000000*%
%ADD11R,1.000000X1.000000*%
%ADD12C,3.000000*%
%ADD13O,1.700000X1.700000*%
%ADD14R,1.700000X1.700000*%
%ADD15C,1.200000*%
%ADD16O,1.200000X1.900000*%
%ADD17C,1.450000*%
%ADD18C,1.000000*%
%ADD19C,0.600000*%
%ADD20C,0.200000*%
%ADD21C,0.600000*%
%ADD22C,0.400000*%
%ADD23C,0.300000*%
%ADD24C,1.000000*%
%ADD25C,0.500000*%
G04 APERTURE END LIST*
D10*
X112100000Y-87440000D03*
X112100000Y-88710000D03*
X112100000Y-89980000D03*
D11*
X112100000Y-91250000D03*
D12*
X156450000Y-80352000D03*
X156450000Y-99650000D03*
X83550000Y-99650000D03*
X83550000Y-80350000D03*
D10*
X98020000Y-86770000D03*
X96750000Y-86770000D03*
X98020000Y-85500000D03*
D11*
X96750000Y-85500000D03*
D13*
X102080000Y-73000000D03*
X99540000Y-73000000D03*
D14*
X97000000Y-73000000D03*
D10*
X106700000Y-72290000D03*
X106700000Y-73560000D03*
X106700000Y-74830000D03*
D11*
X106700000Y-76100000D03*
D15*
X138900000Y-75200000D03*
D16*
X121500000Y-108537500D03*
X114500000Y-108537500D03*
D17*
X120500000Y-105837500D03*
X115500000Y-105837500D03*
D10*
X110900000Y-72360000D03*
X110900000Y-73630000D03*
D11*
X110900000Y-74900000D03*
D10*
X111150000Y-80400000D03*
X109880000Y-80400000D03*
X108610000Y-80400000D03*
X107340000Y-80400000D03*
X106070000Y-80400000D03*
D11*
X104800000Y-80400000D03*
D18*
X107000000Y-107000000D03*
X99000000Y-107000000D03*
D10*
X129330000Y-107000000D03*
X130600000Y-107000000D03*
X131870000Y-107000000D03*
X133140000Y-107000000D03*
X134410000Y-107000000D03*
X135680000Y-107000000D03*
X136950000Y-107000000D03*
X138220000Y-107000000D03*
X139490000Y-107000000D03*
X140760000Y-107000000D03*
X142030000Y-107000000D03*
X143300000Y-107000000D03*
X144570000Y-107000000D03*
X145840000Y-107000000D03*
X147110000Y-107000000D03*
X148380000Y-107000000D03*
X149650000Y-107000000D03*
X150920000Y-107000000D03*
X152190000Y-107000000D03*
X153460000Y-107000000D03*
X154730000Y-107000000D03*
D11*
X156000000Y-107000000D03*
D10*
X129330000Y-73000000D03*
X130600000Y-73000000D03*
X131870000Y-73000000D03*
X133140000Y-73000000D03*
X134410000Y-73000000D03*
X135680000Y-73000000D03*
X136950000Y-73000000D03*
X138220000Y-73000000D03*
X139490000Y-73000000D03*
X140760000Y-73000000D03*
X142030000Y-73000000D03*
X143300000Y-73000000D03*
X144570000Y-73000000D03*
X145840000Y-73000000D03*
X147110000Y-73000000D03*
X148380000Y-73000000D03*
X149650000Y-73000000D03*
X150920000Y-73000000D03*
X152190000Y-73000000D03*
X153460000Y-73000000D03*
X154730000Y-73000000D03*
D11*
X156000000Y-73000000D03*
D16*
X114500000Y-71462500D03*
X121500000Y-71462500D03*
D17*
X115500000Y-74162500D03*
X120500000Y-74162500D03*
D19*
X120500000Y-101250000D03*
X116250000Y-100449990D03*
X137300000Y-96500000D03*
X93000000Y-98750000D03*
X94000000Y-98750000D03*
X111500000Y-98750000D03*
X113500000Y-97750000D03*
X115250000Y-88750000D03*
X86500000Y-78000000D03*
X103750000Y-77500000D03*
X120750000Y-76750000D03*
X108000000Y-88000000D03*
X131500000Y-89750000D03*
X128500000Y-90000000D03*
X121500000Y-89500000D03*
X127300000Y-88899990D03*
X134750000Y-83318750D03*
X86750000Y-104750000D03*
X132250000Y-89000000D03*
X138000000Y-84000000D03*
X139750000Y-83500000D03*
X137750000Y-81250000D03*
X120500000Y-78750000D03*
X125400000Y-83649990D03*
X137000000Y-84500000D03*
X138000000Y-85000000D03*
X114000000Y-85500000D03*
X114533772Y-87850010D03*
X121000000Y-87850010D03*
X130604504Y-86744040D03*
X129500000Y-87000000D03*
X126579255Y-86100010D03*
X103500000Y-85300000D03*
X139800021Y-82500000D03*
X138750000Y-86899990D03*
X139000000Y-86100000D03*
X125500000Y-107500000D03*
X123000000Y-81900000D03*
X98500000Y-88250000D03*
X92750000Y-91600000D03*
X88230010Y-106100000D03*
X96000000Y-104250000D03*
X88750000Y-104000000D03*
X106745694Y-84764308D03*
X101700000Y-90200000D03*
X102300000Y-89600000D03*
X104414224Y-90372416D03*
X130850000Y-98200000D03*
X131500000Y-97547396D03*
X127900000Y-93499979D03*
X126500021Y-93122126D03*
X120999999Y-85900001D03*
X154800000Y-82900000D03*
X136300000Y-104800000D03*
X87800000Y-71900000D03*
X107800000Y-99200000D03*
X97700000Y-98500000D03*
X142000000Y-74500000D03*
X121500000Y-83400000D03*
X125100000Y-85500000D03*
X141900000Y-84200000D03*
X142100033Y-82500000D03*
X139200000Y-89000000D03*
X143800021Y-86300000D03*
X143800010Y-88530264D03*
X122586962Y-93385802D03*
X126945326Y-92402820D03*
X105402862Y-90905553D03*
X101200000Y-90800000D03*
X103600000Y-90200000D03*
X125799999Y-99799999D03*
X129300000Y-92000000D03*
X128700000Y-93300000D03*
X130400000Y-93900000D03*
X131400000Y-93900000D03*
X129914886Y-90185114D03*
X130200000Y-91700000D03*
X137800000Y-100400000D03*
X133400000Y-100300000D03*
X147800000Y-79700000D03*
X149500013Y-80500000D03*
X148700000Y-80500000D03*
X134000000Y-86900000D03*
X118500000Y-83300000D03*
X114300000Y-92300000D03*
X120600002Y-97399998D03*
X119575734Y-97000000D03*
X151800000Y-97000000D03*
X149900000Y-97600000D03*
X142115405Y-86700000D03*
X118718750Y-75818750D03*
X119400000Y-80100000D03*
X133850000Y-93750000D03*
X144144265Y-75544265D03*
X126328332Y-82313204D03*
X127128292Y-82304078D03*
X128800000Y-82300000D03*
X127999995Y-82303422D03*
X129700000Y-82300000D03*
X142900000Y-76200000D03*
X144400000Y-82400000D03*
X140400000Y-91400000D03*
X147200000Y-82800000D03*
X148000000Y-82800000D03*
X144100000Y-89300000D03*
X119799990Y-82700000D03*
X125911834Y-97340094D03*
X139900000Y-92700000D03*
X140300000Y-93500000D03*
X96387845Y-101685414D03*
X96900000Y-102300000D03*
X110000000Y-76900000D03*
X122700000Y-74900000D03*
X121500000Y-102625020D03*
X138500000Y-96500000D03*
X145393750Y-82893750D03*
X130564140Y-82287316D03*
X143500000Y-79500000D03*
X133000000Y-87900000D03*
X124000000Y-98900000D03*
X125401097Y-97998850D03*
X123200000Y-98900000D03*
X122200000Y-99400000D03*
X128099681Y-97899990D03*
X133900000Y-99400000D03*
X143100000Y-104800000D03*
X138800000Y-104800000D03*
X129200000Y-100000000D03*
X127599978Y-99799982D03*
X122500000Y-96800000D03*
X113200000Y-79900000D03*
X152900000Y-101000000D03*
X154100000Y-76600000D03*
X90400000Y-82300000D03*
X98500000Y-79300000D03*
X98500000Y-78300000D03*
X96000000Y-79700000D03*
X95000000Y-82200000D03*
X97600000Y-82600000D03*
X96600000Y-83800000D03*
X95400000Y-84200000D03*
X101100000Y-83600000D03*
X97700000Y-75700000D03*
X96946017Y-77446017D03*
X138975728Y-92624272D03*
X141200000Y-91700000D03*
X139007122Y-91107122D03*
X133049262Y-93550738D03*
X116000000Y-96600000D03*
X99700000Y-90200000D03*
X96600000Y-90500000D03*
X104900000Y-74800000D03*
X88750000Y-91000000D03*
D20*
X147110000Y-107000000D02*
X137300000Y-97190000D01*
X137300000Y-97190000D02*
X137300000Y-96500000D01*
X96699987Y-76153691D02*
X96699987Y-75146309D01*
X97246309Y-76700013D02*
X96699987Y-76153691D01*
X97788015Y-76700013D02*
X97246309Y-76700013D01*
X91750000Y-96612547D02*
X99300000Y-89062547D01*
X97246309Y-74599987D02*
X102400013Y-74599987D01*
X91750000Y-100138002D02*
X91750000Y-96612547D01*
X121800001Y-98199999D02*
X116499999Y-103500001D01*
X99300000Y-89062547D02*
X99300000Y-78211998D01*
X124188003Y-98199999D02*
X121800001Y-98199999D01*
X99300000Y-78211998D02*
X97788015Y-76700013D01*
X134200000Y-98000000D02*
X133300000Y-98900000D01*
X96699987Y-75146309D02*
X97246309Y-74599987D01*
X134900000Y-98000000D02*
X134200000Y-98000000D01*
X116499999Y-103500001D02*
X95111999Y-103500001D01*
X139100001Y-93799999D02*
X134900000Y-98000000D01*
X95111999Y-103500001D02*
X91750000Y-100138002D01*
X140300000Y-93500000D02*
X140000001Y-93799999D01*
X140000001Y-93799999D02*
X139100001Y-93799999D01*
X126900000Y-98500000D02*
X126399989Y-99000011D01*
X129798415Y-98900000D02*
X129398415Y-98500000D01*
X133300000Y-98900000D02*
X129798415Y-98900000D01*
X124988015Y-99000011D02*
X124188003Y-98199999D01*
X129398415Y-98500000D02*
X126900000Y-98500000D01*
X126399989Y-99000011D02*
X124988015Y-99000011D01*
X102400013Y-74599987D02*
X106035000Y-70965000D01*
X106035000Y-70965000D02*
X108235000Y-70965000D01*
X108235000Y-70965000D02*
X110400001Y-73130001D01*
X110400001Y-73130001D02*
X110900000Y-73630000D01*
X100000000Y-88928247D02*
X92250000Y-96678247D01*
X98200002Y-76300002D02*
X100000000Y-78100000D01*
X97411998Y-76300002D02*
X98200002Y-76300002D01*
X97411998Y-74999998D02*
X97099998Y-75311998D01*
X97099998Y-75988002D02*
X97411998Y-76300002D01*
X125153704Y-98600000D02*
X126234300Y-98600000D01*
X107400000Y-71400000D02*
X106252999Y-71400000D01*
X110900000Y-74900000D02*
X107400000Y-71400000D01*
X138492879Y-91407121D02*
X138707123Y-91407121D01*
X106252999Y-71400000D02*
X102653001Y-74999998D01*
X134100011Y-95799989D02*
X138492879Y-91407121D01*
X97099998Y-75311998D02*
X97099998Y-75988002D01*
X116400000Y-103000000D02*
X121600012Y-97799988D01*
X102653001Y-74999998D02*
X97411998Y-74999998D01*
X100000000Y-78100000D02*
X100000000Y-88928247D01*
X92250000Y-96678247D02*
X92250000Y-99650000D01*
X92250000Y-99650000D02*
X95600000Y-103000000D01*
X95600000Y-103000000D02*
X116400000Y-103000000D01*
X126234300Y-98600000D02*
X129034311Y-95799989D01*
X121600012Y-97799988D02*
X124353692Y-97799988D01*
X124353692Y-97799988D02*
X125153704Y-98600000D01*
X129034311Y-95799989D02*
X134100011Y-95799989D01*
X138707123Y-91407121D02*
X139007122Y-91107122D01*
X95250000Y-101000000D02*
X93299999Y-99049999D01*
X125122147Y-94500000D02*
X119028598Y-94500000D01*
X93299999Y-99049999D02*
X93000000Y-98750000D01*
X112528598Y-101000000D02*
X95250000Y-101000000D01*
X126500021Y-93122126D02*
X125122147Y-94500000D01*
X119028598Y-94500000D02*
X112528598Y-101000000D01*
X115200001Y-96499999D02*
X115200001Y-97699999D01*
X94299999Y-99049999D02*
X94000000Y-98750000D01*
X126945326Y-92402820D02*
X119297180Y-92402820D01*
X115200001Y-97699999D02*
X112600000Y-100300000D01*
X112600000Y-100300000D02*
X95550000Y-100300000D01*
X119297180Y-92402820D02*
X115200001Y-96499999D01*
X95550000Y-100300000D02*
X94299999Y-99049999D01*
X101200000Y-90800000D02*
X109150000Y-98750000D01*
X111075736Y-98750000D02*
X111500000Y-98750000D01*
X109150000Y-98750000D02*
X111075736Y-98750000D01*
X101700000Y-90200000D02*
X109250000Y-97750000D01*
X109250000Y-97750000D02*
X113075736Y-97750000D01*
X113075736Y-97750000D02*
X113500000Y-97750000D01*
X108297813Y-95175797D02*
X108297814Y-95142209D01*
X110554174Y-96750000D02*
X110285516Y-96481342D01*
X108305287Y-95208545D02*
X108297813Y-95175797D01*
X110250000Y-96325734D02*
X110179289Y-96255023D01*
X108411516Y-95335781D02*
X108340805Y-95265070D01*
X108468040Y-95371296D02*
X108437778Y-95356723D01*
X109993418Y-96234080D02*
X109967157Y-96255023D01*
X108534376Y-95378770D02*
X108500788Y-95378771D01*
X108892305Y-95088131D02*
X108862042Y-95102705D01*
X109967157Y-96255023D02*
X109755024Y-96467157D01*
X108958641Y-95080657D02*
X108925052Y-95080657D01*
X110292990Y-96415006D02*
X110285516Y-96382259D01*
X108991389Y-95088131D02*
X108958641Y-95080657D01*
X109021652Y-95102705D02*
X108991389Y-95088131D01*
X109047913Y-95123648D02*
X109021652Y-95102705D01*
X128999999Y-91699999D02*
X125811999Y-91699999D01*
X109118624Y-95194359D02*
X109047913Y-95123648D01*
X109161614Y-95283631D02*
X109154140Y-95250884D01*
X109161614Y-95317220D02*
X109161614Y-95283631D01*
X109154140Y-95349967D02*
X109161614Y-95317220D01*
X109436663Y-96339921D02*
X109429189Y-96307173D01*
X109139566Y-95380230D02*
X109154140Y-95349967D01*
X108885550Y-95644887D02*
X108906493Y-95618626D01*
X108885550Y-95804497D02*
X108870975Y-95774233D01*
X109472181Y-96396446D02*
X109451238Y-96370185D01*
X108906493Y-95830758D02*
X108885550Y-95804497D01*
X109033728Y-95936984D02*
X109003466Y-95922411D01*
X110285516Y-96382259D02*
X110270942Y-96351996D01*
X109066476Y-95944459D02*
X109033728Y-95936984D01*
X109698500Y-96502673D02*
X109665752Y-96510146D01*
X109132812Y-95936985D02*
X109100064Y-95944458D01*
X109163074Y-95922410D02*
X109132812Y-95936985D01*
X109189336Y-95901469D02*
X109163074Y-95922410D01*
X109401469Y-95689336D02*
X109189336Y-95901469D01*
X109457993Y-95653819D02*
X109427730Y-95668393D01*
X109490740Y-95646345D02*
X109457993Y-95653819D01*
X109557077Y-95653819D02*
X109524329Y-95646345D01*
X108862042Y-95102705D02*
X108835781Y-95123648D01*
X109524329Y-95646345D02*
X109490740Y-95646345D01*
X109755024Y-96467157D02*
X109728762Y-96488098D01*
X108376320Y-94996412D02*
X108383795Y-94963666D01*
X109719828Y-95915655D02*
X109727302Y-95882908D01*
X109719828Y-95816572D02*
X109705254Y-95786309D01*
X108437778Y-95356723D02*
X108411516Y-95335781D01*
X110292990Y-96448595D02*
X110292990Y-96415006D01*
X110023681Y-96219506D02*
X109993418Y-96234080D01*
X108340804Y-94840804D02*
X105402862Y-91902862D01*
X119399999Y-91700001D02*
X114350000Y-96750000D01*
X108383794Y-94930076D02*
X108376321Y-94897330D01*
X108835781Y-95123648D02*
X108623648Y-95335781D01*
X109728762Y-96488098D02*
X109698500Y-96502673D01*
X109705254Y-95945918D02*
X109719828Y-95915655D01*
X108906493Y-95618626D02*
X109118624Y-95406491D01*
X114350000Y-96750000D02*
X110554174Y-96750000D01*
X110090017Y-96212032D02*
X110056428Y-96212032D01*
X108361746Y-94867066D02*
X108340804Y-94840804D01*
X109118624Y-95406491D02*
X109139566Y-95380230D01*
X110153028Y-96234080D02*
X110122765Y-96219506D01*
X108623648Y-95335781D02*
X108597386Y-95356722D01*
X110122765Y-96219506D02*
X110090017Y-96212032D01*
X108319862Y-95238809D02*
X108305287Y-95208545D01*
X108597386Y-95356722D02*
X108567124Y-95371297D01*
X110270942Y-96351996D02*
X110250000Y-96325734D01*
X110179289Y-96255023D02*
X110153028Y-96234080D01*
X109427730Y-95668393D02*
X109401469Y-95689336D01*
X108567124Y-95371297D02*
X108534376Y-95378770D01*
X108977204Y-95901469D02*
X108906493Y-95830758D01*
X108340805Y-95265070D02*
X108319862Y-95238809D01*
X125811997Y-91700001D02*
X119399999Y-91700001D01*
X108925052Y-95080657D02*
X108892305Y-95088131D01*
X108500788Y-95378771D02*
X108468040Y-95371296D01*
X109451238Y-96370185D02*
X109436663Y-96339921D01*
X109100064Y-95944458D02*
X109066476Y-95944459D01*
X108863502Y-95707897D02*
X108870975Y-95675149D01*
X110056428Y-96212032D02*
X110023681Y-96219506D01*
X109727302Y-95882908D02*
X109727302Y-95849319D01*
X108870975Y-95675149D02*
X108885550Y-95644887D01*
X129300000Y-92000000D02*
X128999999Y-91699999D01*
X109003466Y-95922411D02*
X108977204Y-95901469D01*
X110285516Y-96481342D02*
X110292990Y-96448595D01*
X108863501Y-95741485D02*
X108863502Y-95707897D01*
X108870975Y-95774233D02*
X108863501Y-95741485D01*
X109139566Y-95220621D02*
X109118624Y-95194359D01*
X109665752Y-96510146D02*
X109632164Y-96510147D01*
X105402862Y-91902862D02*
X105402862Y-91329817D01*
X125811999Y-91699999D02*
X125811997Y-91700001D01*
X109451238Y-96210575D02*
X109472181Y-96184314D01*
X109154140Y-95250884D02*
X109139566Y-95220621D01*
X109632164Y-96510147D02*
X109599416Y-96502672D01*
X109599416Y-96502672D02*
X109569154Y-96488099D01*
X105402862Y-91329817D02*
X105402862Y-90905553D01*
X109569154Y-96488099D02*
X109542892Y-96467157D01*
X108361747Y-95026676D02*
X108376320Y-94996412D01*
X109542892Y-96467157D02*
X109472181Y-96396446D01*
X108376321Y-94897330D02*
X108361746Y-94867066D01*
X109727302Y-95849319D02*
X109719828Y-95816572D01*
X109613601Y-95689336D02*
X109587340Y-95668393D01*
X109587340Y-95668393D02*
X109557077Y-95653819D01*
X109429189Y-96307173D02*
X109429190Y-96273585D01*
X109429190Y-96273585D02*
X109436663Y-96240837D01*
X109436663Y-96240837D02*
X109451238Y-96210575D01*
X109472181Y-96184314D02*
X109684312Y-95972179D01*
X109684312Y-95972179D02*
X109705254Y-95945918D01*
X109705254Y-95786309D02*
X109684312Y-95760047D01*
X109684312Y-95760047D02*
X109613601Y-95689336D01*
X108297814Y-95142209D02*
X108305287Y-95109461D01*
X108305287Y-95109461D02*
X108319862Y-95079199D01*
X108319862Y-95079199D02*
X108361747Y-95026676D01*
X108383795Y-94963666D02*
X108383794Y-94930076D01*
X114800000Y-95400000D02*
X118950000Y-91250000D01*
X114200000Y-95400000D02*
X114800000Y-95400000D01*
X118950000Y-91250000D02*
X129750000Y-91250000D01*
X129750000Y-91250000D02*
X130200000Y-91700000D01*
X113326700Y-95112859D02*
X113355336Y-95102838D01*
X113301011Y-95129000D02*
X113326700Y-95112859D01*
X113279558Y-95150453D02*
X113301011Y-95129000D01*
X113263417Y-95176142D02*
X113279558Y-95150453D01*
X113253396Y-95204778D02*
X113263417Y-95176142D01*
X113250000Y-95234926D02*
X113253396Y-95204778D01*
X113250000Y-95505896D02*
X113250000Y-95234926D01*
X113236582Y-95564680D02*
X113246603Y-95536044D01*
X113220441Y-95590369D02*
X113236582Y-95564680D01*
X112863417Y-95564680D02*
X112879558Y-95590369D01*
X112853396Y-95536044D02*
X112863417Y-95564680D01*
X111232088Y-95475747D02*
X111238881Y-95536044D01*
X112850000Y-95505896D02*
X112853396Y-95536044D01*
X112846603Y-95204778D02*
X112850000Y-95234926D01*
X111635485Y-95370411D02*
X111650000Y-95370411D01*
X112836582Y-95176142D02*
X112846603Y-95204778D01*
X113198988Y-95611822D02*
X113220441Y-95590369D01*
X112820441Y-95150453D02*
X112836582Y-95176142D01*
X111622067Y-95564680D02*
X111632088Y-95536044D01*
X112773299Y-95112859D02*
X112798988Y-95129000D01*
X111222067Y-95447111D02*
X111232088Y-95475747D01*
X112585485Y-95099441D02*
X112714515Y-95099441D01*
X111650000Y-95370411D02*
X111650000Y-95234926D01*
X112526700Y-95112859D02*
X112555336Y-95102838D01*
X111205926Y-95421422D02*
X111222067Y-95447111D01*
X112479558Y-95150453D02*
X112501011Y-95129000D01*
X112450000Y-95234926D02*
X112453396Y-95204778D01*
X112446603Y-95536044D02*
X112450000Y-95505896D01*
X112436582Y-95564680D02*
X112446603Y-95536044D01*
X111944663Y-95102838D02*
X111973299Y-95112859D01*
X112398988Y-95611822D02*
X112420441Y-95590369D01*
X111584473Y-95611822D02*
X111605926Y-95590369D01*
X112185485Y-95641381D02*
X112314515Y-95641381D01*
X111238881Y-95536044D02*
X111248902Y-95564680D01*
X112126700Y-95627963D02*
X112155336Y-95637984D01*
X111632088Y-95536044D02*
X111635485Y-95505896D01*
X112101011Y-95611822D02*
X112126700Y-95627963D01*
X111265043Y-95590369D02*
X111286496Y-95611822D01*
X113173299Y-95627963D02*
X113198988Y-95611822D01*
X111605926Y-95590369D02*
X111622067Y-95564680D01*
X112798988Y-95129000D02*
X112820441Y-95150453D01*
X113114515Y-95641381D02*
X113144663Y-95637984D01*
X112463417Y-95176142D02*
X112479558Y-95150453D01*
X111558784Y-95627963D02*
X111584473Y-95611822D01*
X112926700Y-95627963D02*
X112955336Y-95637984D01*
X113144663Y-95637984D02*
X113173299Y-95627963D01*
X112879558Y-95590369D02*
X112901011Y-95611822D01*
X111370970Y-95641381D02*
X111500000Y-95641381D01*
X112501011Y-95129000D02*
X112526700Y-95112859D01*
X113246603Y-95536044D02*
X113250000Y-95505896D01*
X112901011Y-95611822D02*
X112926700Y-95627963D01*
X111500000Y-95641381D02*
X111530148Y-95637984D01*
X112850000Y-95234926D02*
X112850000Y-95505896D01*
X111530148Y-95637984D02*
X111558784Y-95627963D01*
X112744663Y-95102838D02*
X112773299Y-95112859D01*
X105550000Y-90300000D02*
X110623807Y-95373807D01*
X112555336Y-95102838D02*
X112585485Y-95099441D01*
X111248902Y-95564680D02*
X111265043Y-95590369D01*
X110623807Y-95373807D02*
X111130148Y-95373807D01*
X112955336Y-95637984D02*
X112985485Y-95641381D01*
X112314515Y-95641381D02*
X112344663Y-95637984D01*
X111914515Y-95099441D02*
X111944663Y-95102838D01*
X104414224Y-90372416D02*
X104486640Y-90300000D01*
X111755336Y-95102838D02*
X111785485Y-95099441D01*
X112714515Y-95099441D02*
X112744663Y-95102838D01*
X111130148Y-95373807D02*
X111158784Y-95383828D01*
X112450000Y-95505896D02*
X112450000Y-95234926D01*
X111158784Y-95383828D02*
X111184473Y-95399969D01*
X112036582Y-95176142D02*
X112046603Y-95204778D01*
X112344663Y-95637984D02*
X112373299Y-95627963D01*
X111286496Y-95611822D02*
X111312185Y-95627963D01*
X111701011Y-95129000D02*
X111726700Y-95112859D01*
X112373299Y-95627963D02*
X112398988Y-95611822D01*
X111340821Y-95637984D02*
X111370970Y-95641381D01*
X112453396Y-95204778D02*
X112463417Y-95176142D01*
X111184473Y-95399969D02*
X111205926Y-95421422D01*
X104486640Y-90300000D02*
X105550000Y-90300000D01*
X112063417Y-95564680D02*
X112079558Y-95590369D01*
X112020441Y-95150453D02*
X112036582Y-95176142D01*
X111998988Y-95129000D02*
X112020441Y-95150453D01*
X112420441Y-95590369D02*
X112436582Y-95564680D01*
X111635485Y-95505896D02*
X111635485Y-95370411D01*
X111663417Y-95176142D02*
X111679558Y-95150453D01*
X112046603Y-95204778D02*
X112050000Y-95234926D01*
X111653396Y-95204778D02*
X111663417Y-95176142D01*
X111650000Y-95234926D02*
X111653396Y-95204778D01*
X112050000Y-95234926D02*
X112050000Y-95505896D01*
X111679558Y-95150453D02*
X111701011Y-95129000D01*
X112050000Y-95505896D02*
X112053396Y-95536044D01*
X112053396Y-95536044D02*
X112063417Y-95564680D01*
X111726700Y-95112859D02*
X111755336Y-95102838D01*
X112079558Y-95590369D02*
X112101011Y-95611822D01*
X111785485Y-95099441D02*
X111914515Y-95099441D01*
X112155336Y-95637984D02*
X112185485Y-95641381D01*
X111973299Y-95112859D02*
X111998988Y-95129000D01*
X112985485Y-95641381D02*
X113114515Y-95641381D01*
X111312185Y-95627963D02*
X111340821Y-95637984D01*
X113355336Y-95102838D02*
X113385485Y-95099441D01*
X113385485Y-95099441D02*
X113514515Y-95099441D01*
X113514515Y-95099441D02*
X113544663Y-95102838D01*
X113544663Y-95102838D02*
X113573299Y-95112859D01*
X113573299Y-95112859D02*
X113598988Y-95129000D01*
X113598988Y-95129000D02*
X113620441Y-95150453D01*
X113620441Y-95150453D02*
X113636582Y-95176142D01*
X113636582Y-95176142D02*
X113646603Y-95204778D01*
X113646603Y-95204778D02*
X113653396Y-95265075D01*
X113653396Y-95265075D02*
X113663417Y-95293711D01*
X113663417Y-95293711D02*
X113679558Y-95319400D01*
X113679558Y-95319400D02*
X113701011Y-95340853D01*
X113701011Y-95340853D02*
X113726700Y-95356994D01*
X113726700Y-95356994D02*
X113755336Y-95367015D01*
X113755336Y-95367015D02*
X113785485Y-95370411D01*
X113785485Y-95370411D02*
X114200000Y-95370411D01*
X110419406Y-93919406D02*
X110750000Y-94250000D01*
X110394861Y-93899832D02*
X110419406Y-93919406D01*
X110366576Y-93886210D02*
X110394861Y-93899832D01*
X110335969Y-93879225D02*
X110366576Y-93886210D01*
X110245682Y-93899832D02*
X110273967Y-93886210D01*
X110196592Y-93938981D02*
X110245682Y-93899832D01*
X110168307Y-93952602D02*
X110196592Y-93938981D01*
X110137700Y-93959588D02*
X110168307Y-93952602D01*
X110106306Y-93959588D02*
X110137700Y-93959588D01*
X110075699Y-93952602D02*
X110106306Y-93959588D01*
X110047414Y-93938981D02*
X110075699Y-93952602D01*
X110022869Y-93919407D02*
X110047414Y-93938981D01*
X109938295Y-93834833D02*
X110022869Y-93919407D01*
X109918721Y-93810288D02*
X109938295Y-93834833D01*
X109905099Y-93782003D02*
X109918721Y-93810288D01*
X109898113Y-93751396D02*
X109905099Y-93782003D01*
X109898113Y-93720002D02*
X109898113Y-93751396D01*
X109938295Y-93636564D02*
X109918721Y-93661109D01*
X110136566Y-93438296D02*
X109938295Y-93636564D01*
X110156139Y-93413750D02*
X110136566Y-93438296D01*
X110169760Y-93385465D02*
X110156139Y-93413750D01*
X110176747Y-93323465D02*
X110176747Y-93354859D01*
X110169760Y-93292857D02*
X110176747Y-93323465D01*
X110156139Y-93264572D02*
X110169760Y-93292857D01*
X110051992Y-93155454D02*
X110136566Y-93240028D01*
X109999162Y-93122258D02*
X110027446Y-93135879D01*
X109968554Y-93115271D02*
X109999162Y-93122258D01*
X109937160Y-93115271D02*
X109968554Y-93115271D01*
X109906554Y-93122258D02*
X109937160Y-93115271D01*
X109878268Y-93135880D02*
X109906554Y-93122258D01*
X109853724Y-93155455D02*
X109878268Y-93135880D01*
X109655455Y-93353725D02*
X109853724Y-93155455D01*
X109602625Y-93386920D02*
X109630910Y-93373299D01*
X109540624Y-93393906D02*
X109572018Y-93393906D01*
X109510017Y-93386920D02*
X109540624Y-93393906D01*
X109372613Y-93269151D02*
X109457187Y-93353725D01*
X109353039Y-93244606D02*
X109372613Y-93269151D01*
X109339417Y-93216321D02*
X109353039Y-93244606D01*
X109332431Y-93185714D02*
X109339417Y-93216321D01*
X109030011Y-92814306D02*
X109058296Y-92800685D01*
X110273967Y-93886210D02*
X110304574Y-93879225D01*
X108999404Y-92821292D02*
X109030011Y-92814306D01*
X106000000Y-89500000D02*
X108800000Y-92300000D01*
X109918721Y-93661109D02*
X109905099Y-93689395D01*
X108937403Y-92814306D02*
X108968010Y-92821292D01*
X109461764Y-92570197D02*
X109486310Y-92589772D01*
X108884573Y-92781111D02*
X108909118Y-92800685D01*
X110304574Y-93879225D02*
X110335969Y-93879225D01*
X108840181Y-92414831D02*
X108833195Y-92445438D01*
X108799999Y-92696537D02*
X108884573Y-92781111D01*
X108766803Y-92643707D02*
X108780425Y-92671992D01*
X109481732Y-93373299D02*
X109510017Y-93386920D01*
X108759818Y-92581705D02*
X108759818Y-92613100D01*
X109433480Y-92556576D02*
X109461764Y-92570197D01*
X108800000Y-92300000D02*
X108819573Y-92324544D01*
X110027446Y-93135879D02*
X110051992Y-93155454D01*
X108819573Y-92473723D02*
X108780425Y-92522813D01*
X104300000Y-89500000D02*
X106000000Y-89500000D01*
X103600000Y-90200000D02*
X104300000Y-89500000D01*
X108780425Y-92671992D02*
X108799999Y-92696537D01*
X108819573Y-92324544D02*
X108833195Y-92352830D01*
X109611065Y-92789177D02*
X109604078Y-92819783D01*
X110136566Y-93240028D02*
X110156139Y-93264572D01*
X108759818Y-92613100D02*
X108766803Y-92643707D01*
X108780425Y-92522813D02*
X108766803Y-92551098D01*
X108833195Y-92445438D02*
X108819573Y-92473723D01*
X109604078Y-92727175D02*
X109611065Y-92757783D01*
X108909118Y-92800685D02*
X108937403Y-92814306D01*
X108840181Y-92383437D02*
X108840181Y-92414831D01*
X109630910Y-93373299D02*
X109655455Y-93353725D01*
X108833195Y-92352830D02*
X108840181Y-92383437D01*
X108968010Y-92821292D02*
X108999404Y-92821292D01*
X108766803Y-92551098D02*
X108759818Y-92581705D01*
X109058296Y-92800685D02*
X109082841Y-92781110D01*
X109457187Y-93353725D02*
X109481732Y-93373299D01*
X109082841Y-92781110D02*
X109181975Y-92681976D01*
X109590457Y-92848068D02*
X109570884Y-92872614D01*
X109905099Y-93689395D02*
X109898113Y-93720002D01*
X109181975Y-92681976D02*
X109188907Y-92688907D01*
X109372613Y-93070882D02*
X109353039Y-93095427D01*
X110176747Y-93354859D02*
X110169760Y-93385465D01*
X109188907Y-92688907D02*
X109288042Y-92589773D01*
X109288042Y-92589773D02*
X109312586Y-92570198D01*
X109570884Y-92872614D02*
X109372613Y-93070882D01*
X109572018Y-93393906D02*
X109602625Y-93386920D01*
X109340872Y-92556576D02*
X109371478Y-92549589D01*
X109332431Y-93154320D02*
X109332431Y-93185714D01*
X109402872Y-92549589D02*
X109433480Y-92556576D01*
X109312586Y-92570198D02*
X109340872Y-92556576D01*
X109604078Y-92819783D02*
X109590457Y-92848068D01*
X109486310Y-92589772D02*
X109570884Y-92674346D01*
X109570884Y-92674346D02*
X109590457Y-92698890D01*
X109590457Y-92698890D02*
X109604078Y-92727175D01*
X109611065Y-92757783D02*
X109611065Y-92789177D01*
X109371478Y-92549589D02*
X109402872Y-92549589D01*
X109353039Y-93095427D02*
X109339417Y-93123713D01*
X109339417Y-93123713D02*
X109332431Y-93154320D01*
X110750000Y-94250000D02*
X114650000Y-94250000D01*
X114650000Y-94250000D02*
X118150000Y-90750000D01*
X118150000Y-90750000D02*
X129350000Y-90750000D01*
X129350000Y-90750000D02*
X129914886Y-90185114D01*
X114500000Y-93000000D02*
X117200001Y-90299999D01*
X110800000Y-93000000D02*
X114500000Y-93000000D01*
X102300000Y-89600000D02*
X103000000Y-88900000D01*
X106700000Y-88900000D02*
X110800000Y-93000000D01*
X103000000Y-88900000D02*
X106700000Y-88900000D01*
X117200001Y-90299999D02*
X128200001Y-90299999D01*
X128200001Y-90299999D02*
X128500000Y-90000000D01*
X110565698Y-83250000D02*
X105538002Y-83250000D01*
X114015709Y-86700011D02*
X110565698Y-83250000D01*
X105538002Y-83250000D02*
X102000000Y-79711998D01*
X127500000Y-86500000D02*
X127299989Y-86700011D01*
X127299989Y-86700011D02*
X114015709Y-86700011D01*
X102000000Y-79711998D02*
X102000000Y-79475736D01*
X102000000Y-79475736D02*
X98224264Y-75700000D01*
X98224264Y-75700000D02*
X97700000Y-75700000D01*
X131950001Y-88700001D02*
X132250000Y-89000000D01*
X115238012Y-87850010D02*
X115838014Y-88450012D01*
X126349976Y-88450012D02*
X126500000Y-88299988D01*
X131549988Y-88299988D02*
X131950001Y-88700001D01*
X115838014Y-88450012D02*
X126349976Y-88450012D01*
X114533772Y-87850010D02*
X115238012Y-87850010D01*
X115399990Y-88899990D02*
X115250000Y-88750000D01*
X126500000Y-88299988D02*
X131549988Y-88299988D01*
X127300000Y-88899990D02*
X115399990Y-88899990D01*
X132575736Y-87900000D02*
X132525746Y-87850010D01*
X133000000Y-87900000D02*
X132575736Y-87900000D01*
X121424264Y-87850010D02*
X121000000Y-87850010D01*
X132525746Y-87850010D02*
X121424264Y-87850010D01*
D21*
X90400000Y-82300000D02*
X93600000Y-85500000D01*
X93600000Y-85500000D02*
X96750000Y-85500000D01*
X98020000Y-86770000D02*
X96750000Y-86770000D01*
X96750000Y-85500000D02*
X98020000Y-85500000D01*
D20*
X108420000Y-82750000D02*
X111250000Y-82750000D01*
X106070000Y-80400000D02*
X108420000Y-82750000D01*
X111250000Y-82750000D02*
X113700001Y-85200001D01*
X113700001Y-85200001D02*
X114000000Y-85500000D01*
X115400001Y-85900001D02*
X120575735Y-85900001D01*
X111750000Y-82250000D02*
X115400001Y-85900001D01*
X108500000Y-82250000D02*
X111750000Y-82250000D01*
X107340000Y-80400000D02*
X107340000Y-81090000D01*
X120575735Y-85900001D02*
X120999999Y-85900001D01*
X107340000Y-81090000D02*
X108500000Y-82250000D01*
X111900010Y-81650010D02*
X114750000Y-84500000D01*
X136361998Y-84750000D02*
X115000000Y-84750000D01*
X138000000Y-85000000D02*
X137700001Y-85299999D01*
X137700001Y-85299999D02*
X136911997Y-85299999D01*
X136911997Y-85299999D02*
X136361998Y-84750000D01*
X115000000Y-84750000D02*
X114750000Y-84500000D01*
X115250000Y-84250000D02*
X136750000Y-84250000D01*
X110730000Y-81250000D02*
X112250000Y-81250000D01*
X112250000Y-81250000D02*
X115250000Y-84250000D01*
X109880000Y-80400000D02*
X110730000Y-81250000D01*
X136750000Y-84250000D02*
X137000000Y-84500000D01*
X108610000Y-80400000D02*
X109860010Y-81650010D01*
X109860010Y-81650010D02*
X111900010Y-81650010D01*
X110750000Y-84000000D02*
X114000000Y-87250000D01*
X104750000Y-84000000D02*
X110750000Y-84000000D01*
X103500000Y-85300000D02*
X103500000Y-85250000D01*
X129075736Y-87000000D02*
X129500000Y-87000000D01*
X114000000Y-87250000D02*
X128825736Y-87250000D01*
X103500000Y-85250000D02*
X104750000Y-84000000D01*
X128825736Y-87250000D02*
X129075736Y-87000000D01*
X127750000Y-86250000D02*
X127500000Y-86500000D01*
X127500000Y-86500000D02*
X127400010Y-86599990D01*
X129638002Y-86250000D02*
X127750000Y-86250000D01*
X130604504Y-86744040D02*
X130132042Y-86744040D01*
X130132042Y-86744040D02*
X129638002Y-86250000D01*
X136846276Y-86899990D02*
X135696286Y-85750000D01*
X127353529Y-85750000D02*
X127003519Y-86100010D01*
X127003519Y-86100010D02*
X126579255Y-86100010D01*
X138750000Y-86899990D02*
X136846276Y-86899990D01*
X135696286Y-85750000D02*
X127353529Y-85750000D01*
X135761986Y-85250000D02*
X136611986Y-86100000D01*
X125774264Y-85250000D02*
X135761986Y-85250000D01*
X125100000Y-85500000D02*
X125524264Y-85500000D01*
X125524264Y-85500000D02*
X125774264Y-85250000D01*
X136611986Y-86100000D02*
X138575736Y-86100000D01*
X138575736Y-86100000D02*
X139000000Y-86100000D01*
D21*
X143500000Y-79500000D02*
X140500000Y-82500000D01*
X140500000Y-82500000D02*
X139800021Y-82500000D01*
X121899999Y-103899999D02*
X125500000Y-107500000D01*
X125500000Y-107500000D02*
X126800000Y-108800000D01*
D20*
X123299999Y-82199999D02*
X123000000Y-81900000D01*
X127303417Y-83000000D02*
X124100000Y-83000000D01*
X124100000Y-83000000D02*
X123299999Y-82199999D01*
X127999995Y-82303422D02*
X127303417Y-83000000D01*
X86150000Y-88250000D02*
X98075736Y-88250000D01*
X98075736Y-88250000D02*
X98500000Y-88250000D01*
X83700000Y-85800000D02*
X86150000Y-88250000D01*
X95750000Y-104000000D02*
X96000000Y-104250000D01*
X88750000Y-104000000D02*
X95750000Y-104000000D01*
X105135692Y-84764308D02*
X106745694Y-84764308D01*
X99700000Y-90200000D02*
X105135692Y-84764308D01*
X112408884Y-101685414D02*
X114894310Y-99199988D01*
X115231401Y-99599999D02*
X119531389Y-95300011D01*
X119531389Y-95300011D02*
X126099968Y-95300011D01*
X126099968Y-95300011D02*
X127600001Y-93799978D01*
X114894310Y-99199988D02*
X115065712Y-99199988D01*
X112431400Y-102300000D02*
X115131401Y-99599999D01*
X96387845Y-101685414D02*
X112408884Y-101685414D01*
X128299977Y-92899977D02*
X128400001Y-93000001D01*
X127600001Y-93799978D02*
X127900000Y-93499979D01*
X125611975Y-94900000D02*
X127611998Y-92899977D01*
X127611998Y-92899977D02*
X128299977Y-92899977D01*
X128400001Y-93000001D02*
X128700000Y-93300000D01*
X119365700Y-94900000D02*
X125611975Y-94900000D01*
X115065712Y-99199988D02*
X119365700Y-94900000D01*
X115131401Y-99599999D02*
X115231401Y-99599999D01*
X96900000Y-102300000D02*
X112431400Y-102300000D01*
X132300000Y-78800000D02*
X139400000Y-78800000D01*
X128800000Y-82300000D02*
X132300000Y-78800000D01*
X139400000Y-78800000D02*
X143630000Y-74570000D01*
X143630000Y-74570000D02*
X144270000Y-74570000D01*
X144270000Y-74570000D02*
X145340001Y-73499999D01*
X145340001Y-73499999D02*
X145840000Y-73000000D01*
X136840000Y-76700000D02*
X139800000Y-76700000D01*
X139800000Y-76700000D02*
X141700001Y-74799999D01*
X133140000Y-73000000D02*
X136840000Y-76700000D01*
X141700001Y-74799999D02*
X142000000Y-74500000D01*
X139200000Y-89000000D02*
X140500023Y-87699977D01*
X140500023Y-84100010D02*
X141800034Y-82799999D01*
X140500023Y-87699977D02*
X140500023Y-84100010D01*
X141800034Y-82799999D02*
X142100033Y-82500000D01*
X142115405Y-86700000D02*
X142115405Y-84415405D01*
X142115405Y-84415405D02*
X141900000Y-84200000D01*
X143800010Y-88530264D02*
X143800010Y-86300011D01*
X143800010Y-86300011D02*
X143800021Y-86300000D01*
X144400000Y-82400000D02*
X144699999Y-82699999D01*
X144699999Y-88700001D02*
X144399999Y-89000001D01*
X144399999Y-89000001D02*
X144100000Y-89300000D01*
X144699999Y-82699999D02*
X144699999Y-88700001D01*
X120475690Y-96100044D02*
X119875733Y-96700001D01*
X126479276Y-97040095D02*
X126211833Y-97040095D01*
X128619338Y-94900033D02*
X126479276Y-97040095D01*
X119875733Y-96700001D02*
X119575734Y-97000000D01*
X133099978Y-94500022D02*
X128453649Y-94500022D01*
X128453649Y-94500022D02*
X126853627Y-96100044D01*
X126211833Y-97040095D02*
X125911834Y-97340094D01*
X126853627Y-96100044D02*
X120475690Y-96100044D01*
X133865667Y-94900033D02*
X128619338Y-94900033D01*
X136532850Y-92232850D02*
X133865667Y-94900033D01*
X133850000Y-93750000D02*
X133099978Y-94500022D01*
D22*
X126899994Y-99500001D02*
X126599996Y-99799999D01*
X126599996Y-99799999D02*
X125799999Y-99799999D01*
D23*
X129411985Y-99149981D02*
X127250014Y-99149981D01*
X127250014Y-99149981D02*
X126899994Y-99500001D01*
X129662004Y-99400000D02*
X129411985Y-99149981D01*
X133900000Y-99400000D02*
X129662004Y-99400000D01*
D20*
X148000000Y-82800000D02*
X149500013Y-81299987D01*
X149500013Y-81299987D02*
X149500013Y-80500000D01*
X147200000Y-82000000D02*
X148700000Y-80500000D01*
X147200000Y-82800000D02*
X147200000Y-82000000D01*
X121200000Y-96800000D02*
X120600002Y-97399998D01*
X122500000Y-96800000D02*
X121200000Y-96800000D01*
X151800000Y-97000000D02*
X150500000Y-97000000D01*
X150500000Y-97000000D02*
X149900000Y-97600000D01*
X118700000Y-78700000D02*
X119400000Y-79400000D01*
X106700000Y-72290000D02*
X113110000Y-78700000D01*
X119400000Y-79400000D02*
X119400000Y-80100000D01*
X113110000Y-78700000D02*
X118700000Y-78700000D01*
X129330000Y-73000000D02*
X126328332Y-76001668D01*
X126328332Y-76001668D02*
X126328332Y-81888940D01*
X126328332Y-81888940D02*
X126328332Y-82313204D01*
X127100000Y-82332370D02*
X127128292Y-82304078D01*
X130600000Y-73000000D02*
X127100000Y-76500000D01*
X127100000Y-76500000D02*
X127100000Y-82332370D01*
X136532850Y-92232850D02*
X136465699Y-92300000D01*
X119400000Y-80100000D02*
X119799990Y-80499990D01*
X119799990Y-80499990D02*
X119799990Y-82700000D01*
D21*
X107800000Y-76100000D02*
X108600000Y-76900000D01*
X106700000Y-76100000D02*
X107800000Y-76100000D01*
X108600000Y-76900000D02*
X110000000Y-76900000D01*
X153637097Y-71199991D02*
X125500009Y-71199991D01*
X154730000Y-73000000D02*
X154730000Y-72292894D01*
X154730000Y-72292894D02*
X153637097Y-71199991D01*
X125500009Y-71199991D02*
X122700000Y-74000000D01*
D20*
X128000000Y-71800000D02*
X123981250Y-75818750D01*
X144570000Y-73000000D02*
X143370000Y-71800000D01*
X123981250Y-75818750D02*
X118718750Y-75818750D01*
X143370000Y-71800000D02*
X128000000Y-71800000D01*
D21*
X122700000Y-74000000D02*
X122700000Y-74900000D01*
X144937106Y-96500000D02*
X138500000Y-96500000D01*
X154730000Y-107000000D02*
X154730000Y-106292894D01*
X154730000Y-106292894D02*
X146068553Y-97631447D01*
X146068553Y-83568553D02*
X145393750Y-82893750D01*
X146068553Y-97631447D02*
X144937106Y-96500000D01*
X146068553Y-97631447D02*
X146068553Y-83568553D01*
D20*
X129999999Y-82599999D02*
X129700000Y-82300000D01*
X130300000Y-82900000D02*
X129999999Y-82599999D01*
X139888530Y-79800000D02*
X133900000Y-79800000D01*
X142888529Y-76800001D02*
X139888530Y-79800000D01*
X133900000Y-79800000D02*
X130800000Y-82900000D01*
X143312793Y-76800001D02*
X142888529Y-76800001D01*
X144144265Y-75968529D02*
X143312793Y-76800001D01*
X144144265Y-75544265D02*
X144144265Y-75968529D01*
X133551456Y-79300000D02*
X130864139Y-81987317D01*
X130864139Y-81987317D02*
X130564140Y-82287316D01*
X139800000Y-79300000D02*
X133551456Y-79300000D01*
X142900000Y-76200000D02*
X139800000Y-79300000D01*
X130800000Y-82900000D02*
X130300000Y-82900000D01*
D21*
X144098245Y-108800000D02*
X153637106Y-108800000D01*
X144098222Y-108800023D02*
X144098245Y-108800000D01*
X128531778Y-108800023D02*
X144098222Y-108800023D01*
X154730000Y-107707106D02*
X154730000Y-107000000D01*
X128531755Y-108800000D02*
X128531778Y-108800023D01*
X121500000Y-102625020D02*
X121899999Y-103025019D01*
X153637106Y-108800000D02*
X154730000Y-107707106D01*
X121899999Y-103025019D02*
X121899999Y-103899999D01*
X126800000Y-108800000D02*
X128531755Y-108800000D01*
D20*
X124000000Y-102854002D02*
X124000000Y-99324264D01*
X124000000Y-99324264D02*
X124000000Y-98900000D01*
X128945999Y-107800001D02*
X124000000Y-102854002D01*
X143769999Y-107800001D02*
X128945999Y-107800001D01*
X144570000Y-107000000D02*
X143769999Y-107800001D01*
X145840000Y-107000000D02*
X144640011Y-108199989D01*
X143849713Y-108199989D02*
X143849690Y-108200012D01*
X144640011Y-108199989D02*
X143849713Y-108199989D01*
X143849690Y-108200012D02*
X128780310Y-108200012D01*
X123200000Y-99324264D02*
X123200000Y-98900000D01*
X123200000Y-102619702D02*
X123200000Y-99324264D01*
X128780310Y-108200012D02*
X123200000Y-102619702D01*
D21*
X122200000Y-101925020D02*
X121500000Y-102625020D01*
X122200000Y-99400000D02*
X122200000Y-101925020D01*
D20*
X138800000Y-91800000D02*
X134400001Y-96199999D01*
X129799672Y-96199999D02*
X128399680Y-97599991D01*
X140000000Y-91800000D02*
X138800000Y-91800000D01*
X140400000Y-91400000D02*
X140000000Y-91800000D01*
X128399680Y-97599991D02*
X128099681Y-97899990D01*
X134400001Y-96199999D02*
X129799672Y-96199999D01*
D21*
X143100000Y-104800000D02*
X138800000Y-104800000D01*
D20*
X127599978Y-100189978D02*
X127599978Y-99799982D01*
X134410000Y-107000000D02*
X127599978Y-100189978D01*
X135680000Y-107000000D02*
X129200000Y-100520000D01*
X129200000Y-100520000D02*
X129200000Y-100000000D01*
D24*
X83550000Y-80350000D02*
X83550000Y-99650000D01*
X83550000Y-77550000D02*
X83550000Y-80350000D01*
X97000000Y-73000000D02*
X88100000Y-73000000D01*
X88100000Y-73000000D02*
X83550000Y-77550000D01*
D25*
X95600000Y-83300000D02*
X96946017Y-81953983D01*
X91400000Y-83300000D02*
X95600000Y-83300000D01*
X96946017Y-77870281D02*
X96946017Y-77446017D01*
X90400000Y-82300000D02*
X91400000Y-83300000D01*
X96946017Y-81953983D02*
X96946017Y-77870281D01*
D20*
X143200011Y-81699989D02*
X143200011Y-87800000D01*
X150920000Y-73000000D02*
X150920000Y-73980000D01*
X150920000Y-73980000D02*
X143200011Y-81699989D01*
X130850000Y-98200000D02*
X133434302Y-98200000D01*
X134600000Y-97500000D02*
X138875727Y-93224273D01*
X133434302Y-98200000D02*
X134134302Y-97500000D01*
X138875727Y-93224273D02*
X139375727Y-93224273D01*
X139600001Y-92999999D02*
X139900000Y-92700000D01*
X139375727Y-93224273D02*
X139600001Y-92999999D01*
X134134302Y-97500000D02*
X134600000Y-97500000D01*
X131500000Y-97547396D02*
X132247396Y-96800000D01*
X138551464Y-92624272D02*
X138975728Y-92624272D01*
X132247396Y-96800000D02*
X134375736Y-96800000D01*
X134375736Y-96800000D02*
X138551464Y-92624272D01*
X141200000Y-91130274D02*
X143800010Y-88530264D01*
X141200000Y-91700000D02*
X141200000Y-91130274D01*
X130699999Y-93600001D02*
X130400000Y-93900000D01*
X139700002Y-86899998D02*
X137600000Y-89000000D01*
X146610001Y-73499999D02*
X146610001Y-74189999D01*
X147110000Y-73000000D02*
X146610001Y-73499999D01*
X137600000Y-89000000D02*
X135300000Y-89000000D01*
X146610001Y-74189999D02*
X138700000Y-82100000D01*
X138700000Y-84711996D02*
X139700002Y-85711998D01*
X135300000Y-89000000D02*
X130699999Y-93600001D01*
X138700000Y-82100000D02*
X138700000Y-84711996D01*
X139700002Y-85711998D02*
X139700002Y-86899998D01*
X131699999Y-93600001D02*
X131400000Y-93900000D01*
X148380000Y-73000000D02*
X139100011Y-82279989D01*
X139100011Y-82279989D02*
X139100011Y-84200011D01*
X140100013Y-87099987D02*
X137800000Y-89400000D01*
X135900000Y-89400000D02*
X131699999Y-93600001D01*
X139100011Y-84200011D02*
X140100013Y-85200013D01*
X140100013Y-85200013D02*
X140100013Y-87099987D01*
X137800000Y-89400000D02*
X135900000Y-89400000D01*
X138800013Y-89899987D02*
X136532850Y-92167150D01*
X149650000Y-74650000D02*
X142800000Y-81500000D01*
X142800000Y-87600000D02*
X140500013Y-89899987D01*
X138199998Y-91065702D02*
X138965704Y-90299996D01*
X138965704Y-90299996D02*
X140747103Y-90299996D01*
X149650000Y-73000000D02*
X149650000Y-74650000D01*
X136532850Y-92167150D02*
X136532850Y-92232850D01*
X140500013Y-89899987D02*
X138800013Y-89899987D01*
X126511835Y-97628095D02*
X126511835Y-97588165D01*
X138199998Y-91131402D02*
X138199998Y-91065702D01*
X134031354Y-95300044D02*
X138199998Y-91131402D01*
X128799956Y-95300044D02*
X134031354Y-95300044D01*
X126511835Y-97588165D02*
X128799956Y-95300044D01*
X142800000Y-81500000D02*
X142800000Y-87600000D01*
X140747103Y-90299996D02*
X143200011Y-87847088D01*
X126141080Y-97998850D02*
X126511835Y-97628095D01*
X125401097Y-97998850D02*
X126141080Y-97998850D01*
X140760000Y-73000000D02*
X140760000Y-73040000D01*
X138900000Y-74900000D02*
X138900000Y-75200000D01*
X140760000Y-73040000D02*
X138900000Y-74900000D01*
G36*
X113430669Y-70558211D02*
G01*
X113344232Y-70772686D01*
X113301000Y-71070855D01*
X113301000Y-71311500D01*
X114349001Y-71311501D01*
X114349001Y-71311500D01*
X115699000Y-71311501D01*
X115699000Y-71055352D01*
X115682722Y-70884745D01*
X115618318Y-70665205D01*
X115513560Y-70461806D01*
X115464225Y-70399000D01*
X120533469Y-70399000D01*
X120430668Y-70558212D01*
X120344232Y-70772688D01*
X120301000Y-71070856D01*
X120301000Y-71311500D01*
X122699000Y-71311500D01*
X122699000Y-71055351D01*
X122682722Y-70884744D01*
X122618318Y-70665205D01*
X122513560Y-70461806D01*
X122464225Y-70399000D01*
X156944004Y-70399000D01*
X156966622Y-70402846D01*
X157224710Y-70421120D01*
X157444933Y-70468533D01*
X157656275Y-70546500D01*
X157854530Y-70653472D01*
X158035734Y-70787311D01*
X158196272Y-70945347D01*
X158332941Y-71124425D01*
X158443009Y-71320968D01*
X158524289Y-71531065D01*
X158575157Y-71750518D01*
X158595693Y-71987641D01*
X158595887Y-72012319D01*
X158601001Y-72038627D01*
X158601000Y-107944005D01*
X158597154Y-107966622D01*
X158578880Y-108224710D01*
X158531467Y-108444931D01*
X158453497Y-108656280D01*
X158346527Y-108854532D01*
X158212689Y-109035734D01*
X158054653Y-109196272D01*
X157875575Y-109332941D01*
X157679035Y-109443008D01*
X157468935Y-109524289D01*
X157249482Y-109575157D01*
X157012359Y-109595693D01*
X156987681Y-109595887D01*
X156961378Y-109601000D01*
X122466531Y-109601000D01*
X122569332Y-109441789D01*
X122655768Y-109227312D01*
X122699000Y-108929144D01*
X122699000Y-108688500D01*
X120301000Y-108688500D01*
X120301000Y-108944649D01*
X120317278Y-109115257D01*
X120381684Y-109334796D01*
X120486441Y-109538194D01*
X120535776Y-109601000D01*
X115466531Y-109601000D01*
X115569332Y-109441789D01*
X115655768Y-109227313D01*
X115699000Y-108929145D01*
X115699000Y-108688500D01*
X114650999Y-108688499D01*
X114650999Y-108688500D01*
X113301000Y-108688499D01*
X113301000Y-108944648D01*
X113317278Y-109115255D01*
X113381682Y-109334794D01*
X113486440Y-109538194D01*
X113535775Y-109601000D01*
X83055995Y-109601000D01*
X83033378Y-109597154D01*
X82775290Y-109578880D01*
X82555069Y-109531467D01*
X82343720Y-109453497D01*
X82145468Y-109346527D01*
X81964266Y-109212689D01*
X81803728Y-109054653D01*
X81667059Y-108875575D01*
X81556992Y-108679035D01*
X81475711Y-108468935D01*
X81424843Y-108249482D01*
X81415869Y-108145855D01*
X113301000Y-108145855D01*
X113301000Y-108386500D01*
X114349000Y-108386501D01*
X114349000Y-108386500D01*
X114650999Y-108386500D01*
X115699000Y-108386501D01*
X115699000Y-108145856D01*
X120301000Y-108145856D01*
X120301000Y-108386500D01*
X121349000Y-108386500D01*
X121651000Y-108386500D01*
X122699000Y-108386500D01*
X122699000Y-108130351D01*
X122682722Y-107959744D01*
X122618318Y-107740205D01*
X122513560Y-107536806D01*
X122372231Y-107356886D01*
X122199430Y-107206937D01*
X122001390Y-107092368D01*
X121785258Y-107017314D01*
X121651000Y-106997851D01*
X121651000Y-108386500D01*
X121349000Y-108386500D01*
X121349000Y-106990554D01*
X121107868Y-107048668D01*
X120899596Y-107143363D01*
X120712986Y-107275735D01*
X120554774Y-107441005D01*
X120430668Y-107633212D01*
X120344232Y-107847688D01*
X120301000Y-108145856D01*
X115699000Y-108145856D01*
X115699000Y-108130352D01*
X115682722Y-107959745D01*
X115618318Y-107740205D01*
X115513560Y-107536806D01*
X115372231Y-107356886D01*
X115199430Y-107206937D01*
X115001391Y-107092368D01*
X114785259Y-107017314D01*
X114651000Y-106997853D01*
X114650999Y-108386500D01*
X114349000Y-108386500D01*
X114349001Y-106990554D01*
X114107869Y-107048668D01*
X113899597Y-107143363D01*
X113712987Y-107275735D01*
X113554775Y-107441005D01*
X113430669Y-107633211D01*
X113344232Y-107847686D01*
X113301000Y-108145855D01*
X81415869Y-108145855D01*
X81404307Y-108012359D01*
X81404113Y-107987681D01*
X81399000Y-107961378D01*
X81399000Y-107088281D01*
X98099635Y-107088281D01*
X98141568Y-107285562D01*
X98226167Y-107468650D01*
X98349226Y-107628446D01*
X98504629Y-107757006D01*
X98684653Y-107847943D01*
X98880349Y-107896736D01*
X99081994Y-107900960D01*
X99279563Y-107860404D01*
X99463236Y-107777086D01*
X99623886Y-107655146D01*
X99753529Y-107500645D01*
X99845721Y-107321259D01*
X99896053Y-107125229D01*
X99896568Y-107088281D01*
X106099635Y-107088281D01*
X106141568Y-107285562D01*
X106226167Y-107468650D01*
X106349226Y-107628446D01*
X106504629Y-107757006D01*
X106684653Y-107847943D01*
X106880349Y-107896736D01*
X107081994Y-107900960D01*
X107279563Y-107860404D01*
X107463236Y-107777086D01*
X107623886Y-107655146D01*
X107753529Y-107500645D01*
X107845721Y-107321259D01*
X107896053Y-107125229D01*
X107899200Y-106899840D01*
X107893734Y-106875779D01*
X114675267Y-106875779D01*
X114829309Y-106985250D01*
X115043157Y-107085880D01*
X115271447Y-107147049D01*
X115506960Y-107166826D01*
X115742254Y-107144584D01*
X115969890Y-107081027D01*
X116182673Y-106978164D01*
X116323595Y-106875779D01*
X119675267Y-106875779D01*
X119829309Y-106985250D01*
X120043157Y-107085880D01*
X120271447Y-107147049D01*
X120506960Y-107166826D01*
X120742254Y-107144584D01*
X120969890Y-107081027D01*
X121182673Y-106978164D01*
X121324255Y-106875300D01*
X120500000Y-106051046D01*
X119675267Y-106875779D01*
X116323595Y-106875779D01*
X116324255Y-106875300D01*
X115500000Y-106051046D01*
X114675267Y-106875779D01*
X107893734Y-106875779D01*
X107854362Y-106702480D01*
X107767214Y-106520591D01*
X107641936Y-106362530D01*
X107484754Y-106236151D01*
X107303477Y-106147736D01*
X107107119Y-106101681D01*
X106905435Y-106100273D01*
X106708452Y-106143583D01*
X106525959Y-106229457D01*
X106367027Y-106353629D01*
X106239554Y-106509926D01*
X106149876Y-106690581D01*
X106102451Y-106886613D01*
X106099635Y-107088281D01*
X99896568Y-107088281D01*
X99899200Y-106899840D01*
X99854362Y-106702480D01*
X99767214Y-106520591D01*
X99641936Y-106362530D01*
X99484754Y-106236151D01*
X99303477Y-106147736D01*
X99107119Y-106101681D01*
X98905435Y-106100273D01*
X98708452Y-106143583D01*
X98525959Y-106229457D01*
X98367027Y-106353629D01*
X98239554Y-106509926D01*
X98149876Y-106690581D01*
X98102451Y-106886613D01*
X98099635Y-107088281D01*
X81399000Y-107088281D01*
X81399000Y-105802702D01*
X114171111Y-105802702D01*
X114185951Y-106038577D01*
X114242326Y-106268098D01*
X114338456Y-106484008D01*
X114460445Y-106663510D01*
X115286454Y-105837500D01*
X115713546Y-105837500D01*
X116540354Y-106664308D01*
X116668251Y-106471809D01*
X116762114Y-106254904D01*
X116816382Y-106023533D01*
X116822164Y-105802702D01*
X119171111Y-105802702D01*
X119185951Y-106038577D01*
X119242326Y-106268098D01*
X119338456Y-106484008D01*
X119460445Y-106663510D01*
X120286454Y-105837500D01*
X120713546Y-105837500D01*
X121540354Y-106664308D01*
X121668251Y-106471809D01*
X121762114Y-106254904D01*
X121816382Y-106023533D01*
X121824314Y-105720615D01*
X121782229Y-105486722D01*
X121699847Y-105265202D01*
X121545995Y-105005051D01*
X120713546Y-105837500D01*
X120286454Y-105837500D01*
X119462843Y-105013889D01*
X119373884Y-105131088D01*
X119266586Y-105341670D01*
X119198276Y-105567926D01*
X119171111Y-105802702D01*
X116822164Y-105802702D01*
X116824314Y-105720615D01*
X116782229Y-105486722D01*
X116699847Y-105265202D01*
X116545995Y-105005051D01*
X115713546Y-105837500D01*
X115286454Y-105837500D01*
X114462843Y-105013889D01*
X114373884Y-105131088D01*
X114266586Y-105341670D01*
X114198276Y-105567926D01*
X114171111Y-105802702D01*
X81399000Y-105802702D01*
X81399000Y-80439705D01*
X81647794Y-80439705D01*
X81681948Y-80719884D01*
X81757138Y-80991937D01*
X81871716Y-81249888D01*
X82023162Y-81488069D01*
X82208151Y-81701250D01*
X82422617Y-81884745D01*
X82651000Y-82027731D01*
X82651001Y-97977022D01*
X82507265Y-98056533D01*
X82283189Y-98228162D01*
X82086942Y-98431026D01*
X81922837Y-98660670D01*
X81794478Y-98912046D01*
X81704684Y-99179635D01*
X81655429Y-99457557D01*
X81647794Y-99739705D01*
X81681948Y-100019884D01*
X81757138Y-100291937D01*
X81871716Y-100549888D01*
X82023162Y-100788069D01*
X82208151Y-101001250D01*
X82422617Y-101184745D01*
X82661850Y-101334525D01*
X82920595Y-101447299D01*
X83193166Y-101520590D01*
X83473576Y-101552786D01*
X83755665Y-101543181D01*
X84033236Y-101491988D01*
X84300192Y-101400327D01*
X84550666Y-101270217D01*
X84779158Y-101104512D01*
X84980647Y-100906854D01*
X85150708Y-100681586D01*
X85285604Y-100433655D01*
X85382371Y-100168509D01*
X85439145Y-99890694D01*
X85449398Y-99511822D01*
X85407730Y-99231342D01*
X85325443Y-98961351D01*
X85204153Y-98706488D01*
X85046523Y-98472353D01*
X84856017Y-98264088D01*
X84636821Y-98086269D01*
X84449000Y-97975413D01*
X84449000Y-87254693D01*
X85762404Y-88568098D01*
X85790241Y-88609759D01*
X85955300Y-88720047D01*
X86091292Y-88747098D01*
X86149999Y-88758776D01*
X86199145Y-88749000D01*
X97998532Y-88749000D01*
X97999570Y-88750429D01*
X98178705Y-88880577D01*
X98389289Y-88949000D01*
X98610711Y-88949000D01*
X98754608Y-88902245D01*
X91431906Y-96224949D01*
X91390242Y-96252788D01*
X91321256Y-96356033D01*
X91279953Y-96417848D01*
X91241224Y-96612547D01*
X91251001Y-96661698D01*
X91251000Y-100088856D01*
X91241224Y-100138002D01*
X91252902Y-100196710D01*
X91279953Y-100332701D01*
X91390241Y-100497761D01*
X91431908Y-100525602D01*
X94407305Y-103501000D01*
X89251468Y-103501000D01*
X89250430Y-103499571D01*
X89071295Y-103369423D01*
X88860711Y-103301000D01*
X88639289Y-103301000D01*
X88428705Y-103369423D01*
X88249571Y-103499571D01*
X88119423Y-103678705D01*
X88051000Y-103889289D01*
X88051000Y-104110711D01*
X88119423Y-104321295D01*
X88249571Y-104500429D01*
X88428705Y-104630577D01*
X88639289Y-104699000D01*
X88860711Y-104699000D01*
X89071295Y-104630577D01*
X89250430Y-104500429D01*
X89251468Y-104499000D01*
X95345932Y-104499000D01*
X95369423Y-104571295D01*
X95499571Y-104750429D01*
X95678705Y-104880577D01*
X95889289Y-104949000D01*
X96110711Y-104949000D01*
X96321295Y-104880577D01*
X96438776Y-104795222D01*
X114671268Y-104795222D01*
X115500000Y-105623954D01*
X116328732Y-104795222D01*
X119671268Y-104795222D01*
X120500000Y-105623954D01*
X121337187Y-104786768D01*
X121034327Y-104620269D01*
X120810329Y-104544886D01*
X120576523Y-104510359D01*
X120340297Y-104517783D01*
X120109119Y-104566921D01*
X119890297Y-104656221D01*
X119671268Y-104795222D01*
X116328732Y-104795222D01*
X116337187Y-104786768D01*
X116034327Y-104620269D01*
X115810329Y-104544886D01*
X115576523Y-104510359D01*
X115340297Y-104517783D01*
X115109119Y-104566921D01*
X114890297Y-104656221D01*
X114671268Y-104795222D01*
X96438776Y-104795222D01*
X96500429Y-104750429D01*
X96630577Y-104571295D01*
X96699000Y-104360711D01*
X96699000Y-104139289D01*
X96653418Y-103999001D01*
X116450853Y-103999001D01*
X116499999Y-104008777D01*
X116558707Y-103997099D01*
X116694699Y-103970048D01*
X116859758Y-103859760D01*
X116887599Y-103818093D01*
X121529561Y-99176132D01*
X121526925Y-99181305D01*
X121518212Y-99236314D01*
X121501000Y-99289289D01*
X121501000Y-99352780D01*
X121501001Y-101635483D01*
X121044634Y-102091851D01*
X120999571Y-102124591D01*
X120869423Y-102303725D01*
X120801000Y-102514309D01*
X120801000Y-102735731D01*
X120869423Y-102946315D01*
X120999571Y-103125449D01*
X121044638Y-103158192D01*
X121200999Y-103314554D01*
X121200999Y-103955413D01*
X121201000Y-103955419D01*
X121201000Y-104010709D01*
X121218211Y-104063681D01*
X121226925Y-104118695D01*
X121252210Y-104168317D01*
X121269423Y-104221294D01*
X121302161Y-104266353D01*
X121327448Y-104315982D01*
X121372341Y-104360876D01*
X124966831Y-107955367D01*
X124999571Y-108000429D01*
X125044637Y-108033172D01*
X126238535Y-109227071D01*
X126384017Y-109372552D01*
X126433644Y-109397838D01*
X126478705Y-109430576D01*
X126531673Y-109447787D01*
X126581305Y-109473075D01*
X126636319Y-109481788D01*
X126689289Y-109499000D01*
X128421042Y-109499000D01*
X128421113Y-109499023D01*
X144153636Y-109499023D01*
X144153642Y-109499022D01*
X144208868Y-109499022D01*
X144208936Y-109499000D01*
X153692520Y-109499000D01*
X153692526Y-109498999D01*
X153747816Y-109498999D01*
X153800784Y-109481789D01*
X153855801Y-109473075D01*
X153905437Y-109447785D01*
X153958401Y-109430576D01*
X154003463Y-109397837D01*
X154053089Y-109372552D01*
X154209931Y-109215711D01*
X154209932Y-109215709D01*
X155257658Y-108167984D01*
X155302552Y-108123089D01*
X155327838Y-108073462D01*
X155360576Y-108028401D01*
X155377787Y-107975433D01*
X155403075Y-107925801D01*
X155408950Y-107888705D01*
X155490249Y-107904877D01*
X156509751Y-107904877D01*
X156655682Y-107875849D01*
X156787663Y-107787663D01*
X156875849Y-107655682D01*
X156904877Y-107509751D01*
X156904877Y-106490249D01*
X156875849Y-106344318D01*
X156787663Y-106212337D01*
X156655682Y-106124151D01*
X156509751Y-106095123D01*
X155490249Y-106095123D01*
X155408950Y-106111295D01*
X155403075Y-106074199D01*
X155377787Y-106024567D01*
X155360576Y-105971599D01*
X155327838Y-105926538D01*
X155302552Y-105876911D01*
X155157071Y-105731429D01*
X150670372Y-101244730D01*
X155068816Y-101244730D01*
X155363030Y-101451891D01*
X155627763Y-101587070D01*
X155908901Y-101683599D01*
X156200836Y-101739553D01*
X156497743Y-101753814D01*
X156793696Y-101726099D01*
X157082792Y-101656959D01*
X157359263Y-101547777D01*
X157617590Y-101400728D01*
X157825895Y-101239441D01*
X156450000Y-99863546D01*
X155068816Y-101244730D01*
X150670372Y-101244730D01*
X149156424Y-99730782D01*
X154347195Y-99730782D01*
X154379556Y-100026264D01*
X154453227Y-100314238D01*
X154566740Y-100588959D01*
X154717829Y-100844945D01*
X154861659Y-101024795D01*
X156236454Y-99650000D01*
X156663546Y-99650000D01*
X158042541Y-101028995D01*
X158234595Y-100765138D01*
X158373916Y-100502562D01*
X158474849Y-100222974D01*
X158535700Y-99930423D01*
X158549449Y-99504757D01*
X158507604Y-99208888D01*
X158424923Y-98923370D01*
X158302837Y-98652350D01*
X158143783Y-98401236D01*
X158037258Y-98276288D01*
X156663546Y-99650000D01*
X156236454Y-99650000D01*
X154852696Y-98266242D01*
X154631259Y-98591467D01*
X154500254Y-98858290D01*
X154408152Y-99140910D01*
X154356791Y-99433688D01*
X154347195Y-99730782D01*
X149156424Y-99730782D01*
X146914931Y-97489289D01*
X149201000Y-97489289D01*
X149201000Y-97710711D01*
X149269423Y-97921295D01*
X149399571Y-98100429D01*
X149578705Y-98230577D01*
X149789289Y-98299000D01*
X150010711Y-98299000D01*
X150221295Y-98230577D01*
X150400429Y-98100429D01*
X150428069Y-98062385D01*
X155075931Y-98062385D01*
X156450000Y-99436454D01*
X157823743Y-98062712D01*
X157728136Y-97978270D01*
X157479835Y-97814856D01*
X157210986Y-97688059D01*
X156926955Y-97600408D01*
X156633407Y-97553652D01*
X156336199Y-97548723D01*
X156041262Y-97585721D01*
X155754480Y-97663907D01*
X155481576Y-97781720D01*
X155227995Y-97936811D01*
X155075931Y-98062385D01*
X150428069Y-98062385D01*
X150530577Y-97921295D01*
X150599000Y-97710711D01*
X150599000Y-97606692D01*
X150706693Y-97499000D01*
X151298532Y-97499000D01*
X151299570Y-97500429D01*
X151478705Y-97630577D01*
X151689289Y-97699000D01*
X151910711Y-97699000D01*
X152121295Y-97630577D01*
X152300429Y-97500429D01*
X152430577Y-97321295D01*
X152499000Y-97110711D01*
X152499000Y-96889289D01*
X152430577Y-96678705D01*
X152300429Y-96499571D01*
X152121295Y-96369423D01*
X151910711Y-96301000D01*
X151689289Y-96301000D01*
X151478705Y-96369423D01*
X151299570Y-96499571D01*
X151298532Y-96501000D01*
X150549145Y-96501000D01*
X150499999Y-96491224D01*
X150441292Y-96502902D01*
X150305300Y-96529953D01*
X150140241Y-96640241D01*
X150112402Y-96681905D01*
X149893308Y-96901000D01*
X149789289Y-96901000D01*
X149578705Y-96969423D01*
X149399571Y-97099571D01*
X149269423Y-97278705D01*
X149201000Y-97489289D01*
X146914931Y-97489289D01*
X146767553Y-97341912D01*
X146767553Y-83457842D01*
X146750341Y-83404872D01*
X146741628Y-83349858D01*
X146726360Y-83319892D01*
X146878705Y-83430577D01*
X147089289Y-83499000D01*
X147310711Y-83499000D01*
X147521295Y-83430577D01*
X147600000Y-83373395D01*
X147678705Y-83430577D01*
X147889289Y-83499000D01*
X148110711Y-83499000D01*
X148321295Y-83430577D01*
X148500429Y-83300429D01*
X148630577Y-83121295D01*
X148699000Y-82910711D01*
X148699000Y-82806692D01*
X149558962Y-81946730D01*
X155068816Y-81946730D01*
X155363030Y-82153891D01*
X155627763Y-82289070D01*
X155908901Y-82385599D01*
X156200836Y-82441553D01*
X156497743Y-82455814D01*
X156793696Y-82428099D01*
X157082792Y-82358959D01*
X157359263Y-82249777D01*
X157617590Y-82102728D01*
X157825895Y-81941441D01*
X156450000Y-80565546D01*
X155068816Y-81946730D01*
X149558962Y-81946730D01*
X149818109Y-81687584D01*
X149859772Y-81659746D01*
X149970060Y-81494687D01*
X149997111Y-81358695D01*
X150008789Y-81299987D01*
X149999013Y-81250841D01*
X149999013Y-81001468D01*
X150000442Y-81000430D01*
X150130590Y-80821295D01*
X150199013Y-80610711D01*
X150199013Y-80432782D01*
X154347195Y-80432782D01*
X154379556Y-80728264D01*
X154453227Y-81016238D01*
X154566740Y-81290959D01*
X154717829Y-81546945D01*
X154861659Y-81726795D01*
X156236454Y-80352000D01*
X156663546Y-80352000D01*
X158042541Y-81730995D01*
X158234595Y-81467138D01*
X158373916Y-81204562D01*
X158474849Y-80924974D01*
X158535700Y-80632423D01*
X158549449Y-80206757D01*
X158507604Y-79910888D01*
X158424923Y-79625370D01*
X158302837Y-79354350D01*
X158143783Y-79103236D01*
X158037258Y-78978288D01*
X156663546Y-80352000D01*
X156236454Y-80352000D01*
X154852696Y-78968242D01*
X154631259Y-79293467D01*
X154500254Y-79560290D01*
X154408152Y-79842910D01*
X154356791Y-80135688D01*
X154347195Y-80432782D01*
X150199013Y-80432782D01*
X150199013Y-80389289D01*
X150130590Y-80178705D01*
X150000442Y-79999571D01*
X149821308Y-79869423D01*
X149610724Y-79801000D01*
X149389302Y-79801000D01*
X149178718Y-79869423D01*
X149100007Y-79926610D01*
X149021295Y-79869423D01*
X148810711Y-79801000D01*
X148589289Y-79801000D01*
X148378705Y-79869423D01*
X148199571Y-79999571D01*
X148069423Y-80178705D01*
X148001000Y-80389289D01*
X148001000Y-80493306D01*
X146881904Y-81612403D01*
X146840241Y-81640242D01*
X146797819Y-81703732D01*
X146729953Y-81805301D01*
X146691224Y-82000000D01*
X146701001Y-82049151D01*
X146701001Y-82298532D01*
X146699571Y-82299571D01*
X146569423Y-82478705D01*
X146501000Y-82689289D01*
X146501000Y-82910711D01*
X146549975Y-83061440D01*
X145926921Y-82438385D01*
X145894179Y-82393320D01*
X145715045Y-82263173D01*
X145504461Y-82194750D01*
X145283039Y-82194750D01*
X145088790Y-82257865D01*
X145030577Y-82078705D01*
X144900429Y-81899571D01*
X144721295Y-81769423D01*
X144510711Y-81701000D01*
X144289289Y-81701000D01*
X144078705Y-81769423D01*
X143899571Y-81899571D01*
X143769423Y-82078705D01*
X143701000Y-82289289D01*
X143701000Y-82510711D01*
X143769423Y-82721295D01*
X143899571Y-82900429D01*
X144078705Y-83030577D01*
X144200999Y-83070313D01*
X144201000Y-85727317D01*
X144121316Y-85669423D01*
X143910732Y-85601000D01*
X143699011Y-85601000D01*
X143699011Y-81906681D01*
X146841307Y-78764385D01*
X155075931Y-78764385D01*
X156450000Y-80138454D01*
X157823743Y-78764712D01*
X157728136Y-78680270D01*
X157479835Y-78516856D01*
X157210986Y-78390059D01*
X156926955Y-78302408D01*
X156633407Y-78255652D01*
X156336199Y-78250723D01*
X156041262Y-78287721D01*
X155754480Y-78365907D01*
X155481576Y-78483720D01*
X155227995Y-78638811D01*
X155075931Y-78764385D01*
X146841307Y-78764385D01*
X151238098Y-74367596D01*
X151279759Y-74339759D01*
X151390047Y-74174700D01*
X151417098Y-74038708D01*
X151428776Y-73980001D01*
X151419000Y-73930855D01*
X151419000Y-73749940D01*
X151543886Y-73655146D01*
X151555201Y-73641662D01*
X151694629Y-73757006D01*
X151874653Y-73847943D01*
X152070349Y-73896736D01*
X152271994Y-73900960D01*
X152469563Y-73860404D01*
X152653236Y-73777086D01*
X152813886Y-73655146D01*
X152825201Y-73641662D01*
X152964629Y-73757006D01*
X153144653Y-73847943D01*
X153340349Y-73896736D01*
X153541994Y-73900960D01*
X153739563Y-73860404D01*
X153923236Y-73777086D01*
X154083886Y-73655146D01*
X154095201Y-73641662D01*
X154234629Y-73757006D01*
X154414653Y-73847943D01*
X154610349Y-73896736D01*
X154811994Y-73900960D01*
X155009563Y-73860404D01*
X155193236Y-73777086D01*
X155201220Y-73771026D01*
X155212337Y-73787663D01*
X155344318Y-73875849D01*
X155490249Y-73904877D01*
X156509751Y-73904877D01*
X156655682Y-73875849D01*
X156787663Y-73787663D01*
X156875849Y-73655682D01*
X156904877Y-73509751D01*
X156904877Y-72490249D01*
X156875849Y-72344318D01*
X156787663Y-72212337D01*
X156655682Y-72124151D01*
X156509751Y-72095123D01*
X155490249Y-72095123D01*
X155408951Y-72111295D01*
X155403075Y-72074199D01*
X155377786Y-72024565D01*
X155360576Y-71971598D01*
X155327837Y-71926536D01*
X155302552Y-71876911D01*
X155157071Y-71731429D01*
X154209923Y-70784282D01*
X154209922Y-70784280D01*
X154053080Y-70627439D01*
X154003454Y-70602154D01*
X153958392Y-70569415D01*
X153905428Y-70552206D01*
X153855792Y-70526916D01*
X153800775Y-70518202D01*
X153747807Y-70500992D01*
X153692517Y-70500992D01*
X153692511Y-70500991D01*
X125389298Y-70500991D01*
X125336328Y-70518203D01*
X125281314Y-70526916D01*
X125231682Y-70552204D01*
X125178714Y-70569415D01*
X125133653Y-70602153D01*
X125084026Y-70627439D01*
X125039131Y-70672333D01*
X122284291Y-73427174D01*
X122284289Y-73427175D01*
X122127448Y-73584018D01*
X122102163Y-73633643D01*
X122069424Y-73678705D01*
X122052214Y-73731672D01*
X122026925Y-73781306D01*
X122018211Y-73836322D01*
X122001001Y-73889290D01*
X122001001Y-73944581D01*
X122001000Y-73944587D01*
X122001000Y-75010711D01*
X122018213Y-75063689D01*
X122026926Y-75118696D01*
X122052208Y-75168314D01*
X122069423Y-75221295D01*
X122102167Y-75266364D01*
X122127449Y-75315983D01*
X122131216Y-75319750D01*
X121148363Y-75319750D01*
X121182673Y-75303164D01*
X121324255Y-75200300D01*
X120500000Y-74376046D01*
X119675267Y-75200779D01*
X119829309Y-75310250D01*
X119849497Y-75319750D01*
X119220218Y-75319750D01*
X119219180Y-75318321D01*
X119040045Y-75188173D01*
X118829461Y-75119750D01*
X118608039Y-75119750D01*
X118397455Y-75188173D01*
X118218321Y-75318321D01*
X118088173Y-75497455D01*
X118019750Y-75708039D01*
X118019750Y-75929461D01*
X118088173Y-76140045D01*
X118218321Y-76319179D01*
X118397455Y-76449327D01*
X118608039Y-76517750D01*
X118829461Y-76517750D01*
X119040045Y-76449327D01*
X119219180Y-76319179D01*
X119220218Y-76317750D01*
X123932104Y-76317750D01*
X123981250Y-76327526D01*
X124039958Y-76315848D01*
X124175950Y-76288797D01*
X124341009Y-76178509D01*
X124368850Y-76136842D01*
X128206693Y-72299000D01*
X128766949Y-72299000D01*
X128697027Y-72353629D01*
X128569554Y-72509926D01*
X128479876Y-72690581D01*
X128432451Y-72886613D01*
X128429635Y-73088281D01*
X128448284Y-73176023D01*
X126010240Y-75614068D01*
X125968573Y-75641909D01*
X125884184Y-75768208D01*
X125858285Y-75806969D01*
X125819556Y-76001668D01*
X125829332Y-76050814D01*
X125829333Y-81811735D01*
X125827903Y-81812774D01*
X125697755Y-81991909D01*
X125629332Y-82202493D01*
X125629332Y-82423915D01*
X125654378Y-82501000D01*
X124306693Y-82501000D01*
X123699000Y-81893309D01*
X123699000Y-81789289D01*
X123630577Y-81578705D01*
X123500429Y-81399571D01*
X123321295Y-81269423D01*
X123110711Y-81201000D01*
X122889289Y-81201000D01*
X122678705Y-81269423D01*
X122499571Y-81399571D01*
X122369423Y-81578705D01*
X122301000Y-81789289D01*
X122301000Y-82010711D01*
X122369423Y-82221295D01*
X122499571Y-82400429D01*
X122678705Y-82530577D01*
X122889289Y-82599000D01*
X122993309Y-82599000D01*
X123712402Y-83318095D01*
X123740241Y-83359759D01*
X123905300Y-83470047D01*
X124041292Y-83497098D01*
X124099999Y-83508776D01*
X124149145Y-83499000D01*
X127254271Y-83499000D01*
X127303417Y-83508776D01*
X127362125Y-83497098D01*
X127498117Y-83470047D01*
X127663175Y-83359760D01*
X127691016Y-83318094D01*
X128006688Y-83002422D01*
X128110706Y-83002422D01*
X128321290Y-82933999D01*
X128402353Y-82875104D01*
X128478705Y-82930577D01*
X128689289Y-82999000D01*
X128910711Y-82999000D01*
X129121295Y-82930577D01*
X129250000Y-82837068D01*
X129378705Y-82930577D01*
X129589289Y-82999000D01*
X129693309Y-82999000D01*
X129912403Y-83218095D01*
X129940240Y-83259759D01*
X130105300Y-83370047D01*
X130241292Y-83397098D01*
X130299999Y-83408776D01*
X130349145Y-83399000D01*
X130750854Y-83399000D01*
X130800000Y-83408776D01*
X130858708Y-83397098D01*
X130994700Y-83370047D01*
X131159759Y-83259759D01*
X131187600Y-83218092D01*
X134106693Y-80299000D01*
X139795308Y-80299000D01*
X138381908Y-81712400D01*
X138340241Y-81740241D01*
X138252451Y-81871630D01*
X138229953Y-81905301D01*
X138191224Y-82100000D01*
X138201000Y-82149146D01*
X138201001Y-84330337D01*
X138110711Y-84301000D01*
X137889289Y-84301000D01*
X137691224Y-84365355D01*
X137630577Y-84178705D01*
X137500429Y-83999571D01*
X137321295Y-83869423D01*
X137110711Y-83801000D01*
X136976199Y-83801000D01*
X136944700Y-83779953D01*
X136808708Y-83752902D01*
X136750000Y-83741224D01*
X136700854Y-83751000D01*
X115456693Y-83751000D01*
X112637600Y-80931908D01*
X112609759Y-80890241D01*
X112444700Y-80779953D01*
X112308708Y-80752902D01*
X112250000Y-80741224D01*
X112200854Y-80751000D01*
X112195971Y-80751000D01*
X112201786Y-80737691D01*
X112241467Y-80551000D01*
X111300999Y-80550999D01*
X111300999Y-80551000D01*
X110999000Y-80550999D01*
X110999000Y-80249000D01*
X111300999Y-80249000D01*
X112240929Y-80249001D01*
X112204117Y-80069660D01*
X112116163Y-79864447D01*
X111988742Y-79681112D01*
X111827058Y-79527142D01*
X111637717Y-79408828D01*
X111428458Y-79331006D01*
X111301000Y-79311257D01*
X111300999Y-80249000D01*
X110999000Y-80249000D01*
X110999001Y-79304111D01*
X110768561Y-79363278D01*
X110567890Y-79461152D01*
X110390997Y-79597377D01*
X110359669Y-79633671D01*
X110183477Y-79547736D01*
X109987119Y-79501681D01*
X109785435Y-79500273D01*
X109588452Y-79543583D01*
X109405959Y-79629457D01*
X109247027Y-79753629D01*
X109244587Y-79756621D01*
X109094754Y-79636151D01*
X108913477Y-79547736D01*
X108717119Y-79501681D01*
X108515435Y-79500273D01*
X108318452Y-79543583D01*
X108135959Y-79629457D01*
X107977027Y-79753629D01*
X107974587Y-79756621D01*
X107824754Y-79636151D01*
X107643477Y-79547736D01*
X107447119Y-79501681D01*
X107245435Y-79500273D01*
X107048452Y-79543583D01*
X106865959Y-79629457D01*
X106707027Y-79753629D01*
X106704587Y-79756621D01*
X106554754Y-79636151D01*
X106373477Y-79547736D01*
X106177119Y-79501681D01*
X105975435Y-79500273D01*
X105778452Y-79543583D01*
X105598350Y-79628332D01*
X105587663Y-79612337D01*
X105455682Y-79524151D01*
X105309751Y-79495123D01*
X104290249Y-79495123D01*
X104144318Y-79524151D01*
X104012337Y-79612337D01*
X103924151Y-79744318D01*
X103895123Y-79890249D01*
X103895123Y-80901428D01*
X102502248Y-79508554D01*
X102508776Y-79475735D01*
X102494565Y-79404301D01*
X102494566Y-79404301D01*
X102470047Y-79281036D01*
X102359759Y-79115977D01*
X102318095Y-79088138D01*
X98728954Y-75498998D01*
X102603855Y-75498998D01*
X102653001Y-75508774D01*
X102711709Y-75497096D01*
X102847701Y-75470045D01*
X103012760Y-75359757D01*
X103040601Y-75318090D01*
X105831324Y-72527368D01*
X105841568Y-72575562D01*
X105926167Y-72758650D01*
X106049226Y-72918446D01*
X106057509Y-72925298D01*
X105939554Y-73069926D01*
X105849876Y-73250581D01*
X105802451Y-73446613D01*
X105799635Y-73648281D01*
X105841568Y-73845562D01*
X105926167Y-74028650D01*
X105932641Y-74037057D01*
X105795111Y-74196390D01*
X105686188Y-74391284D01*
X105594919Y-74679000D01*
X106549001Y-74679001D01*
X106549001Y-74679000D01*
X107790929Y-74679001D01*
X107754117Y-74499660D01*
X107666163Y-74294447D01*
X107538742Y-74111112D01*
X107464116Y-74040046D01*
X107545721Y-73881259D01*
X107553861Y-73849553D01*
X109905308Y-76201000D01*
X108889536Y-76201000D01*
X108372826Y-75684291D01*
X108372825Y-75684289D01*
X108215983Y-75527448D01*
X108166357Y-75502163D01*
X108121295Y-75469424D01*
X108068331Y-75452215D01*
X108018695Y-75426925D01*
X107963678Y-75418211D01*
X107910710Y-75401001D01*
X107855420Y-75401001D01*
X107855414Y-75401000D01*
X107642145Y-75401000D01*
X107662401Y-75372285D01*
X107751786Y-75167691D01*
X107791467Y-74981000D01*
X106850999Y-74980999D01*
X106850999Y-74981000D01*
X105596281Y-74980999D01*
X105683149Y-75261627D01*
X105790709Y-75457278D01*
X105815726Y-75486673D01*
X105795123Y-75590249D01*
X105795123Y-76609751D01*
X105824151Y-76755682D01*
X105912337Y-76887663D01*
X106044318Y-76975849D01*
X106190249Y-77004877D01*
X107209751Y-77004877D01*
X107355682Y-76975849D01*
X107487663Y-76887663D01*
X107532309Y-76820844D01*
X108038535Y-77327071D01*
X108184017Y-77472552D01*
X108233644Y-77497838D01*
X108278705Y-77530576D01*
X108331673Y-77547787D01*
X108381305Y-77573075D01*
X108436319Y-77581788D01*
X108489289Y-77599000D01*
X110110711Y-77599000D01*
X110163685Y-77581788D01*
X110218695Y-77573075D01*
X110268325Y-77547788D01*
X110321295Y-77530577D01*
X110366360Y-77497836D01*
X110415983Y-77472552D01*
X110455366Y-77433170D01*
X110500429Y-77400429D01*
X110533170Y-77355366D01*
X110572552Y-77315983D01*
X110597836Y-77266360D01*
X110630577Y-77221295D01*
X110647788Y-77168325D01*
X110673075Y-77118695D01*
X110681788Y-77063685D01*
X110699000Y-77010711D01*
X110699000Y-76994692D01*
X112722402Y-79018095D01*
X112750241Y-79059759D01*
X112889434Y-79152764D01*
X112915300Y-79170047D01*
X113110000Y-79208776D01*
X113159146Y-79199000D01*
X118493309Y-79199000D01*
X118897175Y-79602868D01*
X118769423Y-79778705D01*
X118701000Y-79989289D01*
X118701000Y-80210711D01*
X118769423Y-80421295D01*
X118899571Y-80600429D01*
X119078705Y-80730577D01*
X119289289Y-80799000D01*
X119300990Y-80799000D01*
X119300991Y-82198532D01*
X119299561Y-82199571D01*
X119169413Y-82378705D01*
X119100990Y-82589289D01*
X119100990Y-82810711D01*
X119169413Y-83021295D01*
X119299561Y-83200429D01*
X119478695Y-83330577D01*
X119689279Y-83399000D01*
X119910701Y-83399000D01*
X120121285Y-83330577D01*
X120300419Y-83200429D01*
X120430567Y-83021295D01*
X120498990Y-82810711D01*
X120498990Y-82589289D01*
X120430567Y-82378705D01*
X120300419Y-82199570D01*
X120298990Y-82198532D01*
X120298990Y-80549135D01*
X120308766Y-80499989D01*
X120286010Y-80385590D01*
X120270037Y-80305290D01*
X120159749Y-80140231D01*
X120118088Y-80112394D01*
X120099000Y-80093306D01*
X120099000Y-79989289D01*
X120030577Y-79778705D01*
X119900429Y-79599570D01*
X119899000Y-79598532D01*
X119899000Y-79449145D01*
X119908776Y-79399999D01*
X119885870Y-79284847D01*
X119870047Y-79205301D01*
X119759759Y-79040240D01*
X119718098Y-79012405D01*
X119087599Y-78381907D01*
X119059759Y-78340241D01*
X118894700Y-78229953D01*
X118758708Y-78202902D01*
X118700000Y-78191224D01*
X118650854Y-78201000D01*
X113316693Y-78201000D01*
X110920570Y-75804877D01*
X111409751Y-75804877D01*
X111555682Y-75775849D01*
X111687663Y-75687663D01*
X111775849Y-75555682D01*
X111804877Y-75409751D01*
X111804877Y-75200779D01*
X114675267Y-75200779D01*
X114829309Y-75310250D01*
X115043157Y-75410880D01*
X115271447Y-75472049D01*
X115506960Y-75491826D01*
X115742254Y-75469584D01*
X115969890Y-75406027D01*
X116182673Y-75303164D01*
X116324255Y-75200300D01*
X115500000Y-74376046D01*
X114675267Y-75200779D01*
X111804877Y-75200779D01*
X111804877Y-74390249D01*
X111775849Y-74244318D01*
X111697930Y-74127702D01*
X114171111Y-74127702D01*
X114185951Y-74363577D01*
X114242326Y-74593098D01*
X114338456Y-74809008D01*
X114460445Y-74988510D01*
X115286454Y-74162500D01*
X115713546Y-74162500D01*
X116540354Y-74989308D01*
X116668251Y-74796809D01*
X116762114Y-74579904D01*
X116816382Y-74348533D01*
X116822164Y-74127702D01*
X119171111Y-74127702D01*
X119185951Y-74363577D01*
X119242326Y-74593098D01*
X119338456Y-74809008D01*
X119460445Y-74988510D01*
X120286454Y-74162500D01*
X120713546Y-74162500D01*
X121540354Y-74989308D01*
X121668251Y-74796809D01*
X121762114Y-74579904D01*
X121816382Y-74348533D01*
X121824314Y-74045615D01*
X121782229Y-73811722D01*
X121699847Y-73590202D01*
X121545995Y-73330051D01*
X120713546Y-74162500D01*
X120286454Y-74162500D01*
X119462843Y-73338889D01*
X119373884Y-73456088D01*
X119266586Y-73666670D01*
X119198276Y-73892926D01*
X119171111Y-74127702D01*
X116822164Y-74127702D01*
X116824314Y-74045615D01*
X116782229Y-73811722D01*
X116699847Y-73590202D01*
X116545995Y-73330051D01*
X115713546Y-74162500D01*
X115286454Y-74162500D01*
X114462843Y-73338889D01*
X114373884Y-73456088D01*
X114266586Y-73666670D01*
X114198276Y-73892926D01*
X114171111Y-74127702D01*
X111697930Y-74127702D01*
X111687663Y-74112337D01*
X111669258Y-74100039D01*
X111745721Y-73951259D01*
X111796053Y-73755229D01*
X111799200Y-73529840D01*
X111754362Y-73332480D01*
X111667214Y-73150591D01*
X111665656Y-73148625D01*
X111695902Y-73120222D01*
X114671268Y-73120222D01*
X115500000Y-73948954D01*
X116328732Y-73120222D01*
X119671268Y-73120222D01*
X120500000Y-73948954D01*
X121337187Y-73111768D01*
X121034327Y-72945269D01*
X120810329Y-72869886D01*
X120576523Y-72835359D01*
X120340297Y-72842783D01*
X120109119Y-72891921D01*
X119890297Y-72981221D01*
X119671268Y-73120222D01*
X116328732Y-73120222D01*
X116337187Y-73111768D01*
X116034327Y-72945269D01*
X115810329Y-72869886D01*
X115576523Y-72835359D01*
X115340297Y-72842783D01*
X115109119Y-72891921D01*
X114890297Y-72981221D01*
X114671268Y-73120222D01*
X111695902Y-73120222D01*
X111733703Y-73084726D01*
X111786807Y-73009446D01*
X114650999Y-73009446D01*
X114892131Y-72951332D01*
X115100403Y-72856637D01*
X115287014Y-72724265D01*
X115445226Y-72558995D01*
X115569332Y-72366789D01*
X115655768Y-72152313D01*
X115699000Y-71854145D01*
X115699000Y-71613500D01*
X120301000Y-71613500D01*
X120301000Y-71869649D01*
X120317278Y-72040257D01*
X120381684Y-72259796D01*
X120486441Y-72463194D01*
X120627770Y-72643114D01*
X120800571Y-72793063D01*
X120998610Y-72907632D01*
X121214742Y-72982686D01*
X121349000Y-73002149D01*
X121349000Y-71613500D01*
X121651000Y-71613500D01*
X121651000Y-73009446D01*
X121892132Y-72951332D01*
X122100404Y-72856637D01*
X122287014Y-72724265D01*
X122445226Y-72558995D01*
X122569332Y-72366789D01*
X122655768Y-72152312D01*
X122699000Y-71854144D01*
X122699000Y-71613500D01*
X121651000Y-71613500D01*
X121349000Y-71613500D01*
X120301000Y-71613500D01*
X115699000Y-71613500D01*
X114651000Y-71613499D01*
X114650999Y-73009446D01*
X111786807Y-73009446D01*
X111862401Y-72902285D01*
X111951786Y-72697691D01*
X111991467Y-72511000D01*
X111050999Y-72510999D01*
X111050999Y-72511000D01*
X110749000Y-72510999D01*
X110749000Y-72209000D01*
X111050999Y-72209000D01*
X111990929Y-72209001D01*
X111954117Y-72029660D01*
X111885537Y-71869648D01*
X113301000Y-71869648D01*
X113317278Y-72040255D01*
X113381682Y-72259794D01*
X113486440Y-72463194D01*
X113627769Y-72643114D01*
X113800570Y-72793063D01*
X113998609Y-72907632D01*
X114214741Y-72982686D01*
X114349000Y-73002147D01*
X114349001Y-71613500D01*
X113301000Y-71613499D01*
X113301000Y-71869648D01*
X111885537Y-71869648D01*
X111866163Y-71824447D01*
X111738742Y-71641112D01*
X111577058Y-71487142D01*
X111387717Y-71368828D01*
X111178458Y-71291006D01*
X111051000Y-71271257D01*
X111050999Y-72209000D01*
X110749000Y-72209000D01*
X110749001Y-71264111D01*
X110518561Y-71323278D01*
X110317890Y-71421152D01*
X110140997Y-71557377D01*
X109995111Y-71726390D01*
X109890056Y-71914363D01*
X108622600Y-70646908D01*
X108594759Y-70605241D01*
X108429700Y-70494953D01*
X108293708Y-70467902D01*
X108235000Y-70456224D01*
X108185854Y-70466000D01*
X106084146Y-70466000D01*
X106035000Y-70456224D01*
X105976292Y-70467902D01*
X105840300Y-70494953D01*
X105675241Y-70605241D01*
X105647402Y-70646905D01*
X103327268Y-72967040D01*
X103329418Y-72887602D01*
X103287546Y-72660575D01*
X103205470Y-72446200D01*
X103085702Y-72250373D01*
X102932252Y-72079651D01*
X102750261Y-71939751D01*
X102545822Y-71835361D01*
X102325783Y-71769973D01*
X102097513Y-71745780D01*
X101868656Y-71763589D01*
X101646877Y-71822808D01*
X101439604Y-71921450D01*
X101253777Y-72056213D01*
X101095621Y-72222584D01*
X100970432Y-72414991D01*
X100882403Y-72626990D01*
X100834480Y-72851481D01*
X100828271Y-73080946D01*
X100863983Y-73307700D01*
X100940419Y-73524149D01*
X101055020Y-73723044D01*
X101203948Y-73897724D01*
X101382215Y-74042340D01*
X101490005Y-74100987D01*
X100138336Y-74100987D01*
X100151943Y-74094943D01*
X100341234Y-73965092D01*
X100503692Y-73802917D01*
X100633874Y-73613854D01*
X100727423Y-73404232D01*
X100781511Y-73179800D01*
X100789418Y-72887602D01*
X100747546Y-72660575D01*
X100665470Y-72446200D01*
X100545702Y-72250373D01*
X100392252Y-72079651D01*
X100210261Y-71939751D01*
X100005822Y-71835361D01*
X99785783Y-71769973D01*
X99557513Y-71745780D01*
X99328656Y-71763589D01*
X99106877Y-71822808D01*
X98899604Y-71921450D01*
X98713777Y-72056213D01*
X98555621Y-72222584D01*
X98430432Y-72414991D01*
X98342403Y-72626990D01*
X98294480Y-72851481D01*
X98288271Y-73080946D01*
X98323983Y-73307700D01*
X98400419Y-73524149D01*
X98515020Y-73723044D01*
X98663948Y-73897724D01*
X98842215Y-74042340D01*
X98950005Y-74100987D01*
X98162169Y-74100987D01*
X98225849Y-74005682D01*
X98254877Y-73859751D01*
X98254877Y-72140249D01*
X98225849Y-71994318D01*
X98137663Y-71862337D01*
X98005682Y-71774151D01*
X97859751Y-71745123D01*
X96140249Y-71745123D01*
X95994318Y-71774151D01*
X95862337Y-71862337D01*
X95774151Y-71994318D01*
X95752930Y-72101000D01*
X88120005Y-72101000D01*
X88014601Y-72096582D01*
X87935983Y-72115023D01*
X87855970Y-72125982D01*
X87816576Y-72143030D01*
X87771182Y-72153676D01*
X87729656Y-72180642D01*
X87629918Y-72223803D01*
X87438501Y-72378811D01*
X87410723Y-72417898D01*
X82928453Y-76900169D01*
X82850801Y-76971574D01*
X82808245Y-77040210D01*
X82759422Y-77104531D01*
X82743622Y-77144436D01*
X82719048Y-77184070D01*
X82708753Y-77232506D01*
X82668749Y-77333545D01*
X82643003Y-77578503D01*
X82651000Y-77625786D01*
X82651000Y-78677023D01*
X82507265Y-78756533D01*
X82283189Y-78928162D01*
X82086942Y-79131026D01*
X81922837Y-79360670D01*
X81794478Y-79612046D01*
X81704684Y-79879635D01*
X81655429Y-80157557D01*
X81647794Y-80439705D01*
X81399000Y-80439705D01*
X81399000Y-72055996D01*
X81402846Y-72033378D01*
X81421120Y-71775290D01*
X81468533Y-71555067D01*
X81546500Y-71343725D01*
X81653472Y-71145470D01*
X81787311Y-70964266D01*
X81945347Y-70803728D01*
X82124425Y-70667059D01*
X82320968Y-70556991D01*
X82531065Y-70475711D01*
X82750518Y-70424843D01*
X82987641Y-70404307D01*
X83012319Y-70404113D01*
X83038622Y-70399000D01*
X113533470Y-70399000D01*
X113430669Y-70558211D01*
G37*
X113430669Y-70558211D02*
X113344232Y-70772686D01*
X113301000Y-71070855D01*
X113301000Y-71311500D01*
X114349001Y-71311501D01*
X114349001Y-71311500D01*
X115699000Y-71311501D01*
X115699000Y-71055352D01*
X115682722Y-70884745D01*
X115618318Y-70665205D01*
X115513560Y-70461806D01*
X115464225Y-70399000D01*
X120533469Y-70399000D01*
X120430668Y-70558212D01*
X120344232Y-70772688D01*
X120301000Y-71070856D01*
X120301000Y-71311500D01*
X122699000Y-71311500D01*
X122699000Y-71055351D01*
X122682722Y-70884744D01*
X122618318Y-70665205D01*
X122513560Y-70461806D01*
X122464225Y-70399000D01*
X156944004Y-70399000D01*
X156966622Y-70402846D01*
X157224710Y-70421120D01*
X157444933Y-70468533D01*
X157656275Y-70546500D01*
X157854530Y-70653472D01*
X158035734Y-70787311D01*
X158196272Y-70945347D01*
X158332941Y-71124425D01*
X158443009Y-71320968D01*
X158524289Y-71531065D01*
X158575157Y-71750518D01*
X158595693Y-71987641D01*
X158595887Y-72012319D01*
X158601001Y-72038627D01*
X158601000Y-107944005D01*
X158597154Y-107966622D01*
X158578880Y-108224710D01*
X158531467Y-108444931D01*
X158453497Y-108656280D01*
X158346527Y-108854532D01*
X158212689Y-109035734D01*
X158054653Y-109196272D01*
X157875575Y-109332941D01*
X157679035Y-109443008D01*
X157468935Y-109524289D01*
X157249482Y-109575157D01*
X157012359Y-109595693D01*
X156987681Y-109595887D01*
X156961378Y-109601000D01*
X122466531Y-109601000D01*
X122569332Y-109441789D01*
X122655768Y-109227312D01*
X122699000Y-108929144D01*
X122699000Y-108688500D01*
X120301000Y-108688500D01*
X120301000Y-108944649D01*
X120317278Y-109115257D01*
X120381684Y-109334796D01*
X120486441Y-109538194D01*
X120535776Y-109601000D01*
X115466531Y-109601000D01*
X115569332Y-109441789D01*
X115655768Y-109227313D01*
X115699000Y-108929145D01*
X115699000Y-108688500D01*
X114650999Y-108688499D01*
X114650999Y-108688500D01*
X113301000Y-108688499D01*
X113301000Y-108944648D01*
X113317278Y-109115255D01*
X113381682Y-109334794D01*
X113486440Y-109538194D01*
X113535775Y-109601000D01*
X83055995Y-109601000D01*
X83033378Y-109597154D01*
X82775290Y-109578880D01*
X82555069Y-109531467D01*
X82343720Y-109453497D01*
X82145468Y-109346527D01*
X81964266Y-109212689D01*
X81803728Y-109054653D01*
X81667059Y-108875575D01*
X81556992Y-108679035D01*
X81475711Y-108468935D01*
X81424843Y-108249482D01*
X81415869Y-108145855D01*
X113301000Y-108145855D01*
X113301000Y-108386500D01*
X114349000Y-108386501D01*
X114349000Y-108386500D01*
X114650999Y-108386500D01*
X115699000Y-108386501D01*
X115699000Y-108145856D01*
X120301000Y-108145856D01*
X120301000Y-108386500D01*
X121349000Y-108386500D01*
X121651000Y-108386500D01*
X122699000Y-108386500D01*
X122699000Y-108130351D01*
X122682722Y-107959744D01*
X122618318Y-107740205D01*
X122513560Y-107536806D01*
X122372231Y-107356886D01*
X122199430Y-107206937D01*
X122001390Y-107092368D01*
X121785258Y-107017314D01*
X121651000Y-106997851D01*
X121651000Y-108386500D01*
X121349000Y-108386500D01*
X121349000Y-106990554D01*
X121107868Y-107048668D01*
X120899596Y-107143363D01*
X120712986Y-107275735D01*
X120554774Y-107441005D01*
X120430668Y-107633212D01*
X120344232Y-107847688D01*
X120301000Y-108145856D01*
X115699000Y-108145856D01*
X115699000Y-108130352D01*
X115682722Y-107959745D01*
X115618318Y-107740205D01*
X115513560Y-107536806D01*
X115372231Y-107356886D01*
X115199430Y-107206937D01*
X115001391Y-107092368D01*
X114785259Y-107017314D01*
X114651000Y-106997853D01*
X114650999Y-108386500D01*
X114349000Y-108386500D01*
X114349001Y-106990554D01*
X114107869Y-107048668D01*
X113899597Y-107143363D01*
X113712987Y-107275735D01*
X113554775Y-107441005D01*
X113430669Y-107633211D01*
X113344232Y-107847686D01*
X113301000Y-108145855D01*
X81415869Y-108145855D01*
X81404307Y-108012359D01*
X81404113Y-107987681D01*
X81399000Y-107961378D01*
X81399000Y-107088281D01*
X98099635Y-107088281D01*
X98141568Y-107285562D01*
X98226167Y-107468650D01*
X98349226Y-107628446D01*
X98504629Y-107757006D01*
X98684653Y-107847943D01*
X98880349Y-107896736D01*
X99081994Y-107900960D01*
X99279563Y-107860404D01*
X99463236Y-107777086D01*
X99623886Y-107655146D01*
X99753529Y-107500645D01*
X99845721Y-107321259D01*
X99896053Y-107125229D01*
X99896568Y-107088281D01*
X106099635Y-107088281D01*
X106141568Y-107285562D01*
X106226167Y-107468650D01*
X106349226Y-107628446D01*
X106504629Y-107757006D01*
X106684653Y-107847943D01*
X106880349Y-107896736D01*
X107081994Y-107900960D01*
X107279563Y-107860404D01*
X107463236Y-107777086D01*
X107623886Y-107655146D01*
X107753529Y-107500645D01*
X107845721Y-107321259D01*
X107896053Y-107125229D01*
X107899200Y-106899840D01*
X107893734Y-106875779D01*
X114675267Y-106875779D01*
X114829309Y-106985250D01*
X115043157Y-107085880D01*
X115271447Y-107147049D01*
X115506960Y-107166826D01*
X115742254Y-107144584D01*
X115969890Y-107081027D01*
X116182673Y-106978164D01*
X116323595Y-106875779D01*
X119675267Y-106875779D01*
X119829309Y-106985250D01*
X120043157Y-107085880D01*
X120271447Y-107147049D01*
X120506960Y-107166826D01*
X120742254Y-107144584D01*
X120969890Y-107081027D01*
X121182673Y-106978164D01*
X121324255Y-106875300D01*
X120500000Y-106051046D01*
X119675267Y-106875779D01*
X116323595Y-106875779D01*
X116324255Y-106875300D01*
X115500000Y-106051046D01*
X114675267Y-106875779D01*
X107893734Y-106875779D01*
X107854362Y-106702480D01*
X107767214Y-106520591D01*
X107641936Y-106362530D01*
X107484754Y-106236151D01*
X107303477Y-106147736D01*
X107107119Y-106101681D01*
X106905435Y-106100273D01*
X106708452Y-106143583D01*
X106525959Y-106229457D01*
X106367027Y-106353629D01*
X106239554Y-106509926D01*
X106149876Y-106690581D01*
X106102451Y-106886613D01*
X106099635Y-107088281D01*
X99896568Y-107088281D01*
X99899200Y-106899840D01*
X99854362Y-106702480D01*
X99767214Y-106520591D01*
X99641936Y-106362530D01*
X99484754Y-106236151D01*
X99303477Y-106147736D01*
X99107119Y-106101681D01*
X98905435Y-106100273D01*
X98708452Y-106143583D01*
X98525959Y-106229457D01*
X98367027Y-106353629D01*
X98239554Y-106509926D01*
X98149876Y-106690581D01*
X98102451Y-106886613D01*
X98099635Y-107088281D01*
X81399000Y-107088281D01*
X81399000Y-105802702D01*
X114171111Y-105802702D01*
X114185951Y-106038577D01*
X114242326Y-106268098D01*
X114338456Y-106484008D01*
X114460445Y-106663510D01*
X115286454Y-105837500D01*
X115713546Y-105837500D01*
X116540354Y-106664308D01*
X116668251Y-106471809D01*
X116762114Y-106254904D01*
X116816382Y-106023533D01*
X116822164Y-105802702D01*
X119171111Y-105802702D01*
X119185951Y-106038577D01*
X119242326Y-106268098D01*
X119338456Y-106484008D01*
X119460445Y-106663510D01*
X120286454Y-105837500D01*
X120713546Y-105837500D01*
X121540354Y-106664308D01*
X121668251Y-106471809D01*
X121762114Y-106254904D01*
X121816382Y-106023533D01*
X121824314Y-105720615D01*
X121782229Y-105486722D01*
X121699847Y-105265202D01*
X121545995Y-105005051D01*
X120713546Y-105837500D01*
X120286454Y-105837500D01*
X119462843Y-105013889D01*
X119373884Y-105131088D01*
X119266586Y-105341670D01*
X119198276Y-105567926D01*
X119171111Y-105802702D01*
X116822164Y-105802702D01*
X116824314Y-105720615D01*
X116782229Y-105486722D01*
X116699847Y-105265202D01*
X116545995Y-105005051D01*
X115713546Y-105837500D01*
X115286454Y-105837500D01*
X114462843Y-105013889D01*
X114373884Y-105131088D01*
X114266586Y-105341670D01*
X114198276Y-105567926D01*
X114171111Y-105802702D01*
X81399000Y-105802702D01*
X81399000Y-80439705D01*
X81647794Y-80439705D01*
X81681948Y-80719884D01*
X81757138Y-80991937D01*
X81871716Y-81249888D01*
X82023162Y-81488069D01*
X82208151Y-81701250D01*
X82422617Y-81884745D01*
X82651000Y-82027731D01*
X82651001Y-97977022D01*
X82507265Y-98056533D01*
X82283189Y-98228162D01*
X82086942Y-98431026D01*
X81922837Y-98660670D01*
X81794478Y-98912046D01*
X81704684Y-99179635D01*
X81655429Y-99457557D01*
X81647794Y-99739705D01*
X81681948Y-100019884D01*
X81757138Y-100291937D01*
X81871716Y-100549888D01*
X82023162Y-100788069D01*
X82208151Y-101001250D01*
X82422617Y-101184745D01*
X82661850Y-101334525D01*
X82920595Y-101447299D01*
X83193166Y-101520590D01*
X83473576Y-101552786D01*
X83755665Y-101543181D01*
X84033236Y-101491988D01*
X84300192Y-101400327D01*
X84550666Y-101270217D01*
X84779158Y-101104512D01*
X84980647Y-100906854D01*
X85150708Y-100681586D01*
X85285604Y-100433655D01*
X85382371Y-100168509D01*
X85439145Y-99890694D01*
X85449398Y-99511822D01*
X85407730Y-99231342D01*
X85325443Y-98961351D01*
X85204153Y-98706488D01*
X85046523Y-98472353D01*
X84856017Y-98264088D01*
X84636821Y-98086269D01*
X84449000Y-97975413D01*
X84449000Y-87254693D01*
X85762404Y-88568098D01*
X85790241Y-88609759D01*
X85955300Y-88720047D01*
X86091292Y-88747098D01*
X86149999Y-88758776D01*
X86199145Y-88749000D01*
X97998532Y-88749000D01*
X97999570Y-88750429D01*
X98178705Y-88880577D01*
X98389289Y-88949000D01*
X98610711Y-88949000D01*
X98754608Y-88902245D01*
X91431906Y-96224949D01*
X91390242Y-96252788D01*
X91321256Y-96356033D01*
X91279953Y-96417848D01*
X91241224Y-96612547D01*
X91251001Y-96661698D01*
X91251000Y-100088856D01*
X91241224Y-100138002D01*
X91252902Y-100196710D01*
X91279953Y-100332701D01*
X91390241Y-100497761D01*
X91431908Y-100525602D01*
X94407305Y-103501000D01*
X89251468Y-103501000D01*
X89250430Y-103499571D01*
X89071295Y-103369423D01*
X88860711Y-103301000D01*
X88639289Y-103301000D01*
X88428705Y-103369423D01*
X88249571Y-103499571D01*
X88119423Y-103678705D01*
X88051000Y-103889289D01*
X88051000Y-104110711D01*
X88119423Y-104321295D01*
X88249571Y-104500429D01*
X88428705Y-104630577D01*
X88639289Y-104699000D01*
X88860711Y-104699000D01*
X89071295Y-104630577D01*
X89250430Y-104500429D01*
X89251468Y-104499000D01*
X95345932Y-104499000D01*
X95369423Y-104571295D01*
X95499571Y-104750429D01*
X95678705Y-104880577D01*
X95889289Y-104949000D01*
X96110711Y-104949000D01*
X96321295Y-104880577D01*
X96438776Y-104795222D01*
X114671268Y-104795222D01*
X115500000Y-105623954D01*
X116328732Y-104795222D01*
X119671268Y-104795222D01*
X120500000Y-105623954D01*
X121337187Y-104786768D01*
X121034327Y-104620269D01*
X120810329Y-104544886D01*
X120576523Y-104510359D01*
X120340297Y-104517783D01*
X120109119Y-104566921D01*
X119890297Y-104656221D01*
X119671268Y-104795222D01*
X116328732Y-104795222D01*
X116337187Y-104786768D01*
X116034327Y-104620269D01*
X115810329Y-104544886D01*
X115576523Y-104510359D01*
X115340297Y-104517783D01*
X115109119Y-104566921D01*
X114890297Y-104656221D01*
X114671268Y-104795222D01*
X96438776Y-104795222D01*
X96500429Y-104750429D01*
X96630577Y-104571295D01*
X96699000Y-104360711D01*
X96699000Y-104139289D01*
X96653418Y-103999001D01*
X116450853Y-103999001D01*
X116499999Y-104008777D01*
X116558707Y-103997099D01*
X116694699Y-103970048D01*
X116859758Y-103859760D01*
X116887599Y-103818093D01*
X121529561Y-99176132D01*
X121526925Y-99181305D01*
X121518212Y-99236314D01*
X121501000Y-99289289D01*
X121501000Y-99352780D01*
X121501001Y-101635483D01*
X121044634Y-102091851D01*
X120999571Y-102124591D01*
X120869423Y-102303725D01*
X120801000Y-102514309D01*
X120801000Y-102735731D01*
X120869423Y-102946315D01*
X120999571Y-103125449D01*
X121044638Y-103158192D01*
X121200999Y-103314554D01*
X121200999Y-103955413D01*
X121201000Y-103955419D01*
X121201000Y-104010709D01*
X121218211Y-104063681D01*
X121226925Y-104118695D01*
X121252210Y-104168317D01*
X121269423Y-104221294D01*
X121302161Y-104266353D01*
X121327448Y-104315982D01*
X121372341Y-104360876D01*
X124966831Y-107955367D01*
X124999571Y-108000429D01*
X125044637Y-108033172D01*
X126238535Y-109227071D01*
X126384017Y-109372552D01*
X126433644Y-109397838D01*
X126478705Y-109430576D01*
X126531673Y-109447787D01*
X126581305Y-109473075D01*
X126636319Y-109481788D01*
X126689289Y-109499000D01*
X128421042Y-109499000D01*
X128421113Y-109499023D01*
X144153636Y-109499023D01*
X144153642Y-109499022D01*
X144208868Y-109499022D01*
X144208936Y-109499000D01*
X153692520Y-109499000D01*
X153692526Y-109498999D01*
X153747816Y-109498999D01*
X153800784Y-109481789D01*
X153855801Y-109473075D01*
X153905437Y-109447785D01*
X153958401Y-109430576D01*
X154003463Y-109397837D01*
X154053089Y-109372552D01*
X154209931Y-109215711D01*
X154209932Y-109215709D01*
X155257658Y-108167984D01*
X155302552Y-108123089D01*
X155327838Y-108073462D01*
X155360576Y-108028401D01*
X155377787Y-107975433D01*
X155403075Y-107925801D01*
X155408950Y-107888705D01*
X155490249Y-107904877D01*
X156509751Y-107904877D01*
X156655682Y-107875849D01*
X156787663Y-107787663D01*
X156875849Y-107655682D01*
X156904877Y-107509751D01*
X156904877Y-106490249D01*
X156875849Y-106344318D01*
X156787663Y-106212337D01*
X156655682Y-106124151D01*
X156509751Y-106095123D01*
X155490249Y-106095123D01*
X155408950Y-106111295D01*
X155403075Y-106074199D01*
X155377787Y-106024567D01*
X155360576Y-105971599D01*
X155327838Y-105926538D01*
X155302552Y-105876911D01*
X155157071Y-105731429D01*
X150670372Y-101244730D01*
X155068816Y-101244730D01*
X155363030Y-101451891D01*
X155627763Y-101587070D01*
X155908901Y-101683599D01*
X156200836Y-101739553D01*
X156497743Y-101753814D01*
X156793696Y-101726099D01*
X157082792Y-101656959D01*
X157359263Y-101547777D01*
X157617590Y-101400728D01*
X157825895Y-101239441D01*
X156450000Y-99863546D01*
X155068816Y-101244730D01*
X150670372Y-101244730D01*
X149156424Y-99730782D01*
X154347195Y-99730782D01*
X154379556Y-100026264D01*
X154453227Y-100314238D01*
X154566740Y-100588959D01*
X154717829Y-100844945D01*
X154861659Y-101024795D01*
X156236454Y-99650000D01*
X156663546Y-99650000D01*
X158042541Y-101028995D01*
X158234595Y-100765138D01*
X158373916Y-100502562D01*
X158474849Y-100222974D01*
X158535700Y-99930423D01*
X158549449Y-99504757D01*
X158507604Y-99208888D01*
X158424923Y-98923370D01*
X158302837Y-98652350D01*
X158143783Y-98401236D01*
X158037258Y-98276288D01*
X156663546Y-99650000D01*
X156236454Y-99650000D01*
X154852696Y-98266242D01*
X154631259Y-98591467D01*
X154500254Y-98858290D01*
X154408152Y-99140910D01*
X154356791Y-99433688D01*
X154347195Y-99730782D01*
X149156424Y-99730782D01*
X146914931Y-97489289D01*
X149201000Y-97489289D01*
X149201000Y-97710711D01*
X149269423Y-97921295D01*
X149399571Y-98100429D01*
X149578705Y-98230577D01*
X149789289Y-98299000D01*
X150010711Y-98299000D01*
X150221295Y-98230577D01*
X150400429Y-98100429D01*
X150428069Y-98062385D01*
X155075931Y-98062385D01*
X156450000Y-99436454D01*
X157823743Y-98062712D01*
X157728136Y-97978270D01*
X157479835Y-97814856D01*
X157210986Y-97688059D01*
X156926955Y-97600408D01*
X156633407Y-97553652D01*
X156336199Y-97548723D01*
X156041262Y-97585721D01*
X155754480Y-97663907D01*
X155481576Y-97781720D01*
X155227995Y-97936811D01*
X155075931Y-98062385D01*
X150428069Y-98062385D01*
X150530577Y-97921295D01*
X150599000Y-97710711D01*
X150599000Y-97606692D01*
X150706693Y-97499000D01*
X151298532Y-97499000D01*
X151299570Y-97500429D01*
X151478705Y-97630577D01*
X151689289Y-97699000D01*
X151910711Y-97699000D01*
X152121295Y-97630577D01*
X152300429Y-97500429D01*
X152430577Y-97321295D01*
X152499000Y-97110711D01*
X152499000Y-96889289D01*
X152430577Y-96678705D01*
X152300429Y-96499571D01*
X152121295Y-96369423D01*
X151910711Y-96301000D01*
X151689289Y-96301000D01*
X151478705Y-96369423D01*
X151299570Y-96499571D01*
X151298532Y-96501000D01*
X150549145Y-96501000D01*
X150499999Y-96491224D01*
X150441292Y-96502902D01*
X150305300Y-96529953D01*
X150140241Y-96640241D01*
X150112402Y-96681905D01*
X149893308Y-96901000D01*
X149789289Y-96901000D01*
X149578705Y-96969423D01*
X149399571Y-97099571D01*
X149269423Y-97278705D01*
X149201000Y-97489289D01*
X146914931Y-97489289D01*
X146767553Y-97341912D01*
X146767553Y-83457842D01*
X146750341Y-83404872D01*
X146741628Y-83349858D01*
X146726360Y-83319892D01*
X146878705Y-83430577D01*
X147089289Y-83499000D01*
X147310711Y-83499000D01*
X147521295Y-83430577D01*
X147600000Y-83373395D01*
X147678705Y-83430577D01*
X147889289Y-83499000D01*
X148110711Y-83499000D01*
X148321295Y-83430577D01*
X148500429Y-83300429D01*
X148630577Y-83121295D01*
X148699000Y-82910711D01*
X148699000Y-82806692D01*
X149558962Y-81946730D01*
X155068816Y-81946730D01*
X155363030Y-82153891D01*
X155627763Y-82289070D01*
X155908901Y-82385599D01*
X156200836Y-82441553D01*
X156497743Y-82455814D01*
X156793696Y-82428099D01*
X157082792Y-82358959D01*
X157359263Y-82249777D01*
X157617590Y-82102728D01*
X157825895Y-81941441D01*
X156450000Y-80565546D01*
X155068816Y-81946730D01*
X149558962Y-81946730D01*
X149818109Y-81687584D01*
X149859772Y-81659746D01*
X149970060Y-81494687D01*
X149997111Y-81358695D01*
X150008789Y-81299987D01*
X149999013Y-81250841D01*
X149999013Y-81001468D01*
X150000442Y-81000430D01*
X150130590Y-80821295D01*
X150199013Y-80610711D01*
X150199013Y-80432782D01*
X154347195Y-80432782D01*
X154379556Y-80728264D01*
X154453227Y-81016238D01*
X154566740Y-81290959D01*
X154717829Y-81546945D01*
X154861659Y-81726795D01*
X156236454Y-80352000D01*
X156663546Y-80352000D01*
X158042541Y-81730995D01*
X158234595Y-81467138D01*
X158373916Y-81204562D01*
X158474849Y-80924974D01*
X158535700Y-80632423D01*
X158549449Y-80206757D01*
X158507604Y-79910888D01*
X158424923Y-79625370D01*
X158302837Y-79354350D01*
X158143783Y-79103236D01*
X158037258Y-78978288D01*
X156663546Y-80352000D01*
X156236454Y-80352000D01*
X154852696Y-78968242D01*
X154631259Y-79293467D01*
X154500254Y-79560290D01*
X154408152Y-79842910D01*
X154356791Y-80135688D01*
X154347195Y-80432782D01*
X150199013Y-80432782D01*
X150199013Y-80389289D01*
X150130590Y-80178705D01*
X150000442Y-79999571D01*
X149821308Y-79869423D01*
X149610724Y-79801000D01*
X149389302Y-79801000D01*
X149178718Y-79869423D01*
X149100007Y-79926610D01*
X149021295Y-79869423D01*
X148810711Y-79801000D01*
X148589289Y-79801000D01*
X148378705Y-79869423D01*
X148199571Y-79999571D01*
X148069423Y-80178705D01*
X148001000Y-80389289D01*
X148001000Y-80493306D01*
X146881904Y-81612403D01*
X146840241Y-81640242D01*
X146797819Y-81703732D01*
X146729953Y-81805301D01*
X146691224Y-82000000D01*
X146701001Y-82049151D01*
X146701001Y-82298532D01*
X146699571Y-82299571D01*
X146569423Y-82478705D01*
X146501000Y-82689289D01*
X146501000Y-82910711D01*
X146549975Y-83061440D01*
X145926921Y-82438385D01*
X145894179Y-82393320D01*
X145715045Y-82263173D01*
X145504461Y-82194750D01*
X145283039Y-82194750D01*
X145088790Y-82257865D01*
X145030577Y-82078705D01*
X144900429Y-81899571D01*
X144721295Y-81769423D01*
X144510711Y-81701000D01*
X144289289Y-81701000D01*
X144078705Y-81769423D01*
X143899571Y-81899571D01*
X143769423Y-82078705D01*
X143701000Y-82289289D01*
X143701000Y-82510711D01*
X143769423Y-82721295D01*
X143899571Y-82900429D01*
X144078705Y-83030577D01*
X144200999Y-83070313D01*
X144201000Y-85727317D01*
X144121316Y-85669423D01*
X143910732Y-85601000D01*
X143699011Y-85601000D01*
X143699011Y-81906681D01*
X146841307Y-78764385D01*
X155075931Y-78764385D01*
X156450000Y-80138454D01*
X157823743Y-78764712D01*
X157728136Y-78680270D01*
X157479835Y-78516856D01*
X157210986Y-78390059D01*
X156926955Y-78302408D01*
X156633407Y-78255652D01*
X156336199Y-78250723D01*
X156041262Y-78287721D01*
X155754480Y-78365907D01*
X155481576Y-78483720D01*
X155227995Y-78638811D01*
X155075931Y-78764385D01*
X146841307Y-78764385D01*
X151238098Y-74367596D01*
X151279759Y-74339759D01*
X151390047Y-74174700D01*
X151417098Y-74038708D01*
X151428776Y-73980001D01*
X151419000Y-73930855D01*
X151419000Y-73749940D01*
X151543886Y-73655146D01*
X151555201Y-73641662D01*
X151694629Y-73757006D01*
X151874653Y-73847943D01*
X152070349Y-73896736D01*
X152271994Y-73900960D01*
X152469563Y-73860404D01*
X152653236Y-73777086D01*
X152813886Y-73655146D01*
X152825201Y-73641662D01*
X152964629Y-73757006D01*
X153144653Y-73847943D01*
X153340349Y-73896736D01*
X153541994Y-73900960D01*
X153739563Y-73860404D01*
X153923236Y-73777086D01*
X154083886Y-73655146D01*
X154095201Y-73641662D01*
X154234629Y-73757006D01*
X154414653Y-73847943D01*
X154610349Y-73896736D01*
X154811994Y-73900960D01*
X155009563Y-73860404D01*
X155193236Y-73777086D01*
X155201220Y-73771026D01*
X155212337Y-73787663D01*
X155344318Y-73875849D01*
X155490249Y-73904877D01*
X156509751Y-73904877D01*
X156655682Y-73875849D01*
X156787663Y-73787663D01*
X156875849Y-73655682D01*
X156904877Y-73509751D01*
X156904877Y-72490249D01*
X156875849Y-72344318D01*
X156787663Y-72212337D01*
X156655682Y-72124151D01*
X156509751Y-72095123D01*
X155490249Y-72095123D01*
X155408951Y-72111295D01*
X155403075Y-72074199D01*
X155377786Y-72024565D01*
X155360576Y-71971598D01*
X155327837Y-71926536D01*
X155302552Y-71876911D01*
X155157071Y-71731429D01*
X154209923Y-70784282D01*
X154209922Y-70784280D01*
X154053080Y-70627439D01*
X154003454Y-70602154D01*
X153958392Y-70569415D01*
X153905428Y-70552206D01*
X153855792Y-70526916D01*
X153800775Y-70518202D01*
X153747807Y-70500992D01*
X153692517Y-70500992D01*
X153692511Y-70500991D01*
X125389298Y-70500991D01*
X125336328Y-70518203D01*
X125281314Y-70526916D01*
X125231682Y-70552204D01*
X125178714Y-70569415D01*
X125133653Y-70602153D01*
X125084026Y-70627439D01*
X125039131Y-70672333D01*
X122284291Y-73427174D01*
X122284289Y-73427175D01*
X122127448Y-73584018D01*
X122102163Y-73633643D01*
X122069424Y-73678705D01*
X122052214Y-73731672D01*
X122026925Y-73781306D01*
X122018211Y-73836322D01*
X122001001Y-73889290D01*
X122001001Y-73944581D01*
X122001000Y-73944587D01*
X122001000Y-75010711D01*
X122018213Y-75063689D01*
X122026926Y-75118696D01*
X122052208Y-75168314D01*
X122069423Y-75221295D01*
X122102167Y-75266364D01*
X122127449Y-75315983D01*
X122131216Y-75319750D01*
X121148363Y-75319750D01*
X121182673Y-75303164D01*
X121324255Y-75200300D01*
X120500000Y-74376046D01*
X119675267Y-75200779D01*
X119829309Y-75310250D01*
X119849497Y-75319750D01*
X119220218Y-75319750D01*
X119219180Y-75318321D01*
X119040045Y-75188173D01*
X118829461Y-75119750D01*
X118608039Y-75119750D01*
X118397455Y-75188173D01*
X118218321Y-75318321D01*
X118088173Y-75497455D01*
X118019750Y-75708039D01*
X118019750Y-75929461D01*
X118088173Y-76140045D01*
X118218321Y-76319179D01*
X118397455Y-76449327D01*
X118608039Y-76517750D01*
X118829461Y-76517750D01*
X119040045Y-76449327D01*
X119219180Y-76319179D01*
X119220218Y-76317750D01*
X123932104Y-76317750D01*
X123981250Y-76327526D01*
X124039958Y-76315848D01*
X124175950Y-76288797D01*
X124341009Y-76178509D01*
X124368850Y-76136842D01*
X128206693Y-72299000D01*
X128766949Y-72299000D01*
X128697027Y-72353629D01*
X128569554Y-72509926D01*
X128479876Y-72690581D01*
X128432451Y-72886613D01*
X128429635Y-73088281D01*
X128448284Y-73176023D01*
X126010240Y-75614068D01*
X125968573Y-75641909D01*
X125884184Y-75768208D01*
X125858285Y-75806969D01*
X125819556Y-76001668D01*
X125829332Y-76050814D01*
X125829333Y-81811735D01*
X125827903Y-81812774D01*
X125697755Y-81991909D01*
X125629332Y-82202493D01*
X125629332Y-82423915D01*
X125654378Y-82501000D01*
X124306693Y-82501000D01*
X123699000Y-81893309D01*
X123699000Y-81789289D01*
X123630577Y-81578705D01*
X123500429Y-81399571D01*
X123321295Y-81269423D01*
X123110711Y-81201000D01*
X122889289Y-81201000D01*
X122678705Y-81269423D01*
X122499571Y-81399571D01*
X122369423Y-81578705D01*
X122301000Y-81789289D01*
X122301000Y-82010711D01*
X122369423Y-82221295D01*
X122499571Y-82400429D01*
X122678705Y-82530577D01*
X122889289Y-82599000D01*
X122993309Y-82599000D01*
X123712402Y-83318095D01*
X123740241Y-83359759D01*
X123905300Y-83470047D01*
X124041292Y-83497098D01*
X124099999Y-83508776D01*
X124149145Y-83499000D01*
X127254271Y-83499000D01*
X127303417Y-83508776D01*
X127362125Y-83497098D01*
X127498117Y-83470047D01*
X127663175Y-83359760D01*
X127691016Y-83318094D01*
X128006688Y-83002422D01*
X128110706Y-83002422D01*
X128321290Y-82933999D01*
X128402353Y-82875104D01*
X128478705Y-82930577D01*
X128689289Y-82999000D01*
X128910711Y-82999000D01*
X129121295Y-82930577D01*
X129250000Y-82837068D01*
X129378705Y-82930577D01*
X129589289Y-82999000D01*
X129693309Y-82999000D01*
X129912403Y-83218095D01*
X129940240Y-83259759D01*
X130105300Y-83370047D01*
X130241292Y-83397098D01*
X130299999Y-83408776D01*
X130349145Y-83399000D01*
X130750854Y-83399000D01*
X130800000Y-83408776D01*
X130858708Y-83397098D01*
X130994700Y-83370047D01*
X131159759Y-83259759D01*
X131187600Y-83218092D01*
X134106693Y-80299000D01*
X139795308Y-80299000D01*
X138381908Y-81712400D01*
X138340241Y-81740241D01*
X138252451Y-81871630D01*
X138229953Y-81905301D01*
X138191224Y-82100000D01*
X138201000Y-82149146D01*
X138201001Y-84330337D01*
X138110711Y-84301000D01*
X137889289Y-84301000D01*
X137691224Y-84365355D01*
X137630577Y-84178705D01*
X137500429Y-83999571D01*
X137321295Y-83869423D01*
X137110711Y-83801000D01*
X136976199Y-83801000D01*
X136944700Y-83779953D01*
X136808708Y-83752902D01*
X136750000Y-83741224D01*
X136700854Y-83751000D01*
X115456693Y-83751000D01*
X112637600Y-80931908D01*
X112609759Y-80890241D01*
X112444700Y-80779953D01*
X112308708Y-80752902D01*
X112250000Y-80741224D01*
X112200854Y-80751000D01*
X112195971Y-80751000D01*
X112201786Y-80737691D01*
X112241467Y-80551000D01*
X111300999Y-80550999D01*
X111300999Y-80551000D01*
X110999000Y-80550999D01*
X110999000Y-80249000D01*
X111300999Y-80249000D01*
X112240929Y-80249001D01*
X112204117Y-80069660D01*
X112116163Y-79864447D01*
X111988742Y-79681112D01*
X111827058Y-79527142D01*
X111637717Y-79408828D01*
X111428458Y-79331006D01*
X111301000Y-79311257D01*
X111300999Y-80249000D01*
X110999000Y-80249000D01*
X110999001Y-79304111D01*
X110768561Y-79363278D01*
X110567890Y-79461152D01*
X110390997Y-79597377D01*
X110359669Y-79633671D01*
X110183477Y-79547736D01*
X109987119Y-79501681D01*
X109785435Y-79500273D01*
X109588452Y-79543583D01*
X109405959Y-79629457D01*
X109247027Y-79753629D01*
X109244587Y-79756621D01*
X109094754Y-79636151D01*
X108913477Y-79547736D01*
X108717119Y-79501681D01*
X108515435Y-79500273D01*
X108318452Y-79543583D01*
X108135959Y-79629457D01*
X107977027Y-79753629D01*
X107974587Y-79756621D01*
X107824754Y-79636151D01*
X107643477Y-79547736D01*
X107447119Y-79501681D01*
X107245435Y-79500273D01*
X107048452Y-79543583D01*
X106865959Y-79629457D01*
X106707027Y-79753629D01*
X106704587Y-79756621D01*
X106554754Y-79636151D01*
X106373477Y-79547736D01*
X106177119Y-79501681D01*
X105975435Y-79500273D01*
X105778452Y-79543583D01*
X105598350Y-79628332D01*
X105587663Y-79612337D01*
X105455682Y-79524151D01*
X105309751Y-79495123D01*
X104290249Y-79495123D01*
X104144318Y-79524151D01*
X104012337Y-79612337D01*
X103924151Y-79744318D01*
X103895123Y-79890249D01*
X103895123Y-80901428D01*
X102502248Y-79508554D01*
X102508776Y-79475735D01*
X102494565Y-79404301D01*
X102494566Y-79404301D01*
X102470047Y-79281036D01*
X102359759Y-79115977D01*
X102318095Y-79088138D01*
X98728954Y-75498998D01*
X102603855Y-75498998D01*
X102653001Y-75508774D01*
X102711709Y-75497096D01*
X102847701Y-75470045D01*
X103012760Y-75359757D01*
X103040601Y-75318090D01*
X105831324Y-72527368D01*
X105841568Y-72575562D01*
X105926167Y-72758650D01*
X106049226Y-72918446D01*
X106057509Y-72925298D01*
X105939554Y-73069926D01*
X105849876Y-73250581D01*
X105802451Y-73446613D01*
X105799635Y-73648281D01*
X105841568Y-73845562D01*
X105926167Y-74028650D01*
X105932641Y-74037057D01*
X105795111Y-74196390D01*
X105686188Y-74391284D01*
X105594919Y-74679000D01*
X106549001Y-74679001D01*
X106549001Y-74679000D01*
X107790929Y-74679001D01*
X107754117Y-74499660D01*
X107666163Y-74294447D01*
X107538742Y-74111112D01*
X107464116Y-74040046D01*
X107545721Y-73881259D01*
X107553861Y-73849553D01*
X109905308Y-76201000D01*
X108889536Y-76201000D01*
X108372826Y-75684291D01*
X108372825Y-75684289D01*
X108215983Y-75527448D01*
X108166357Y-75502163D01*
X108121295Y-75469424D01*
X108068331Y-75452215D01*
X108018695Y-75426925D01*
X107963678Y-75418211D01*
X107910710Y-75401001D01*
X107855420Y-75401001D01*
X107855414Y-75401000D01*
X107642145Y-75401000D01*
X107662401Y-75372285D01*
X107751786Y-75167691D01*
X107791467Y-74981000D01*
X106850999Y-74980999D01*
X106850999Y-74981000D01*
X105596281Y-74980999D01*
X105683149Y-75261627D01*
X105790709Y-75457278D01*
X105815726Y-75486673D01*
X105795123Y-75590249D01*
X105795123Y-76609751D01*
X105824151Y-76755682D01*
X105912337Y-76887663D01*
X106044318Y-76975849D01*
X106190249Y-77004877D01*
X107209751Y-77004877D01*
X107355682Y-76975849D01*
X107487663Y-76887663D01*
X107532309Y-76820844D01*
X108038535Y-77327071D01*
X108184017Y-77472552D01*
X108233644Y-77497838D01*
X108278705Y-77530576D01*
X108331673Y-77547787D01*
X108381305Y-77573075D01*
X108436319Y-77581788D01*
X108489289Y-77599000D01*
X110110711Y-77599000D01*
X110163685Y-77581788D01*
X110218695Y-77573075D01*
X110268325Y-77547788D01*
X110321295Y-77530577D01*
X110366360Y-77497836D01*
X110415983Y-77472552D01*
X110455366Y-77433170D01*
X110500429Y-77400429D01*
X110533170Y-77355366D01*
X110572552Y-77315983D01*
X110597836Y-77266360D01*
X110630577Y-77221295D01*
X110647788Y-77168325D01*
X110673075Y-77118695D01*
X110681788Y-77063685D01*
X110699000Y-77010711D01*
X110699000Y-76994692D01*
X112722402Y-79018095D01*
X112750241Y-79059759D01*
X112889434Y-79152764D01*
X112915300Y-79170047D01*
X113110000Y-79208776D01*
X113159146Y-79199000D01*
X118493309Y-79199000D01*
X118897175Y-79602868D01*
X118769423Y-79778705D01*
X118701000Y-79989289D01*
X118701000Y-80210711D01*
X118769423Y-80421295D01*
X118899571Y-80600429D01*
X119078705Y-80730577D01*
X119289289Y-80799000D01*
X119300990Y-80799000D01*
X119300991Y-82198532D01*
X119299561Y-82199571D01*
X119169413Y-82378705D01*
X119100990Y-82589289D01*
X119100990Y-82810711D01*
X119169413Y-83021295D01*
X119299561Y-83200429D01*
X119478695Y-83330577D01*
X119689279Y-83399000D01*
X119910701Y-83399000D01*
X120121285Y-83330577D01*
X120300419Y-83200429D01*
X120430567Y-83021295D01*
X120498990Y-82810711D01*
X120498990Y-82589289D01*
X120430567Y-82378705D01*
X120300419Y-82199570D01*
X120298990Y-82198532D01*
X120298990Y-80549135D01*
X120308766Y-80499989D01*
X120286010Y-80385590D01*
X120270037Y-80305290D01*
X120159749Y-80140231D01*
X120118088Y-80112394D01*
X120099000Y-80093306D01*
X120099000Y-79989289D01*
X120030577Y-79778705D01*
X119900429Y-79599570D01*
X119899000Y-79598532D01*
X119899000Y-79449145D01*
X119908776Y-79399999D01*
X119885870Y-79284847D01*
X119870047Y-79205301D01*
X119759759Y-79040240D01*
X119718098Y-79012405D01*
X119087599Y-78381907D01*
X119059759Y-78340241D01*
X118894700Y-78229953D01*
X118758708Y-78202902D01*
X118700000Y-78191224D01*
X118650854Y-78201000D01*
X113316693Y-78201000D01*
X110920570Y-75804877D01*
X111409751Y-75804877D01*
X111555682Y-75775849D01*
X111687663Y-75687663D01*
X111775849Y-75555682D01*
X111804877Y-75409751D01*
X111804877Y-75200779D01*
X114675267Y-75200779D01*
X114829309Y-75310250D01*
X115043157Y-75410880D01*
X115271447Y-75472049D01*
X115506960Y-75491826D01*
X115742254Y-75469584D01*
X115969890Y-75406027D01*
X116182673Y-75303164D01*
X116324255Y-75200300D01*
X115500000Y-74376046D01*
X114675267Y-75200779D01*
X111804877Y-75200779D01*
X111804877Y-74390249D01*
X111775849Y-74244318D01*
X111697930Y-74127702D01*
X114171111Y-74127702D01*
X114185951Y-74363577D01*
X114242326Y-74593098D01*
X114338456Y-74809008D01*
X114460445Y-74988510D01*
X115286454Y-74162500D01*
X115713546Y-74162500D01*
X116540354Y-74989308D01*
X116668251Y-74796809D01*
X116762114Y-74579904D01*
X116816382Y-74348533D01*
X116822164Y-74127702D01*
X119171111Y-74127702D01*
X119185951Y-74363577D01*
X119242326Y-74593098D01*
X119338456Y-74809008D01*
X119460445Y-74988510D01*
X120286454Y-74162500D01*
X120713546Y-74162500D01*
X121540354Y-74989308D01*
X121668251Y-74796809D01*
X121762114Y-74579904D01*
X121816382Y-74348533D01*
X121824314Y-74045615D01*
X121782229Y-73811722D01*
X121699847Y-73590202D01*
X121545995Y-73330051D01*
X120713546Y-74162500D01*
X120286454Y-74162500D01*
X119462843Y-73338889D01*
X119373884Y-73456088D01*
X119266586Y-73666670D01*
X119198276Y-73892926D01*
X119171111Y-74127702D01*
X116822164Y-74127702D01*
X116824314Y-74045615D01*
X116782229Y-73811722D01*
X116699847Y-73590202D01*
X116545995Y-73330051D01*
X115713546Y-74162500D01*
X115286454Y-74162500D01*
X114462843Y-73338889D01*
X114373884Y-73456088D01*
X114266586Y-73666670D01*
X114198276Y-73892926D01*
X114171111Y-74127702D01*
X111697930Y-74127702D01*
X111687663Y-74112337D01*
X111669258Y-74100039D01*
X111745721Y-73951259D01*
X111796053Y-73755229D01*
X111799200Y-73529840D01*
X111754362Y-73332480D01*
X111667214Y-73150591D01*
X111665656Y-73148625D01*
X111695902Y-73120222D01*
X114671268Y-73120222D01*
X115500000Y-73948954D01*
X116328732Y-73120222D01*
X119671268Y-73120222D01*
X120500000Y-73948954D01*
X121337187Y-73111768D01*
X121034327Y-72945269D01*
X120810329Y-72869886D01*
X120576523Y-72835359D01*
X120340297Y-72842783D01*
X120109119Y-72891921D01*
X119890297Y-72981221D01*
X119671268Y-73120222D01*
X116328732Y-73120222D01*
X116337187Y-73111768D01*
X116034327Y-72945269D01*
X115810329Y-72869886D01*
X115576523Y-72835359D01*
X115340297Y-72842783D01*
X115109119Y-72891921D01*
X114890297Y-72981221D01*
X114671268Y-73120222D01*
X111695902Y-73120222D01*
X111733703Y-73084726D01*
X111786807Y-73009446D01*
X114650999Y-73009446D01*
X114892131Y-72951332D01*
X115100403Y-72856637D01*
X115287014Y-72724265D01*
X115445226Y-72558995D01*
X115569332Y-72366789D01*
X115655768Y-72152313D01*
X115699000Y-71854145D01*
X115699000Y-71613500D01*
X120301000Y-71613500D01*
X120301000Y-71869649D01*
X120317278Y-72040257D01*
X120381684Y-72259796D01*
X120486441Y-72463194D01*
X120627770Y-72643114D01*
X120800571Y-72793063D01*
X120998610Y-72907632D01*
X121214742Y-72982686D01*
X121349000Y-73002149D01*
X121349000Y-71613500D01*
X121651000Y-71613500D01*
X121651000Y-73009446D01*
X121892132Y-72951332D01*
X122100404Y-72856637D01*
X122287014Y-72724265D01*
X122445226Y-72558995D01*
X122569332Y-72366789D01*
X122655768Y-72152312D01*
X122699000Y-71854144D01*
X122699000Y-71613500D01*
X121651000Y-71613500D01*
X121349000Y-71613500D01*
X120301000Y-71613500D01*
X115699000Y-71613500D01*
X114651000Y-71613499D01*
X114650999Y-73009446D01*
X111786807Y-73009446D01*
X111862401Y-72902285D01*
X111951786Y-72697691D01*
X111991467Y-72511000D01*
X111050999Y-72510999D01*
X111050999Y-72511000D01*
X110749000Y-72510999D01*
X110749000Y-72209000D01*
X111050999Y-72209000D01*
X111990929Y-72209001D01*
X111954117Y-72029660D01*
X111885537Y-71869648D01*
X113301000Y-71869648D01*
X113317278Y-72040255D01*
X113381682Y-72259794D01*
X113486440Y-72463194D01*
X113627769Y-72643114D01*
X113800570Y-72793063D01*
X113998609Y-72907632D01*
X114214741Y-72982686D01*
X114349000Y-73002147D01*
X114349001Y-71613500D01*
X113301000Y-71613499D01*
X113301000Y-71869648D01*
X111885537Y-71869648D01*
X111866163Y-71824447D01*
X111738742Y-71641112D01*
X111577058Y-71487142D01*
X111387717Y-71368828D01*
X111178458Y-71291006D01*
X111051000Y-71271257D01*
X111050999Y-72209000D01*
X110749000Y-72209000D01*
X110749001Y-71264111D01*
X110518561Y-71323278D01*
X110317890Y-71421152D01*
X110140997Y-71557377D01*
X109995111Y-71726390D01*
X109890056Y-71914363D01*
X108622600Y-70646908D01*
X108594759Y-70605241D01*
X108429700Y-70494953D01*
X108293708Y-70467902D01*
X108235000Y-70456224D01*
X108185854Y-70466000D01*
X106084146Y-70466000D01*
X106035000Y-70456224D01*
X105976292Y-70467902D01*
X105840300Y-70494953D01*
X105675241Y-70605241D01*
X105647402Y-70646905D01*
X103327268Y-72967040D01*
X103329418Y-72887602D01*
X103287546Y-72660575D01*
X103205470Y-72446200D01*
X103085702Y-72250373D01*
X102932252Y-72079651D01*
X102750261Y-71939751D01*
X102545822Y-71835361D01*
X102325783Y-71769973D01*
X102097513Y-71745780D01*
X101868656Y-71763589D01*
X101646877Y-71822808D01*
X101439604Y-71921450D01*
X101253777Y-72056213D01*
X101095621Y-72222584D01*
X100970432Y-72414991D01*
X100882403Y-72626990D01*
X100834480Y-72851481D01*
X100828271Y-73080946D01*
X100863983Y-73307700D01*
X100940419Y-73524149D01*
X101055020Y-73723044D01*
X101203948Y-73897724D01*
X101382215Y-74042340D01*
X101490005Y-74100987D01*
X100138336Y-74100987D01*
X100151943Y-74094943D01*
X100341234Y-73965092D01*
X100503692Y-73802917D01*
X100633874Y-73613854D01*
X100727423Y-73404232D01*
X100781511Y-73179800D01*
X100789418Y-72887602D01*
X100747546Y-72660575D01*
X100665470Y-72446200D01*
X100545702Y-72250373D01*
X100392252Y-72079651D01*
X100210261Y-71939751D01*
X100005822Y-71835361D01*
X99785783Y-71769973D01*
X99557513Y-71745780D01*
X99328656Y-71763589D01*
X99106877Y-71822808D01*
X98899604Y-71921450D01*
X98713777Y-72056213D01*
X98555621Y-72222584D01*
X98430432Y-72414991D01*
X98342403Y-72626990D01*
X98294480Y-72851481D01*
X98288271Y-73080946D01*
X98323983Y-73307700D01*
X98400419Y-73524149D01*
X98515020Y-73723044D01*
X98663948Y-73897724D01*
X98842215Y-74042340D01*
X98950005Y-74100987D01*
X98162169Y-74100987D01*
X98225849Y-74005682D01*
X98254877Y-73859751D01*
X98254877Y-72140249D01*
X98225849Y-71994318D01*
X98137663Y-71862337D01*
X98005682Y-71774151D01*
X97859751Y-71745123D01*
X96140249Y-71745123D01*
X95994318Y-71774151D01*
X95862337Y-71862337D01*
X95774151Y-71994318D01*
X95752930Y-72101000D01*
X88120005Y-72101000D01*
X88014601Y-72096582D01*
X87935983Y-72115023D01*
X87855970Y-72125982D01*
X87816576Y-72143030D01*
X87771182Y-72153676D01*
X87729656Y-72180642D01*
X87629918Y-72223803D01*
X87438501Y-72378811D01*
X87410723Y-72417898D01*
X82928453Y-76900169D01*
X82850801Y-76971574D01*
X82808245Y-77040210D01*
X82759422Y-77104531D01*
X82743622Y-77144436D01*
X82719048Y-77184070D01*
X82708753Y-77232506D01*
X82668749Y-77333545D01*
X82643003Y-77578503D01*
X82651000Y-77625786D01*
X82651000Y-78677023D01*
X82507265Y-78756533D01*
X82283189Y-78928162D01*
X82086942Y-79131026D01*
X81922837Y-79360670D01*
X81794478Y-79612046D01*
X81704684Y-79879635D01*
X81655429Y-80157557D01*
X81647794Y-80439705D01*
X81399000Y-80439705D01*
X81399000Y-72055996D01*
X81402846Y-72033378D01*
X81421120Y-71775290D01*
X81468533Y-71555067D01*
X81546500Y-71343725D01*
X81653472Y-71145470D01*
X81787311Y-70964266D01*
X81945347Y-70803728D01*
X82124425Y-70667059D01*
X82320968Y-70556991D01*
X82531065Y-70475711D01*
X82750518Y-70424843D01*
X82987641Y-70404307D01*
X83012319Y-70404113D01*
X83038622Y-70399000D01*
X113533470Y-70399000D01*
X113430669Y-70558211D01*
G36*
X136799570Y-97000429D02*
G01*
X136801000Y-97001468D01*
X136801000Y-97140854D01*
X136791224Y-97190000D01*
X136822612Y-97347793D01*
X136829954Y-97384700D01*
X136940241Y-97549759D01*
X136981908Y-97577600D01*
X145548070Y-106143763D01*
X145365959Y-106229457D01*
X145207027Y-106353629D01*
X145204587Y-106356621D01*
X145054754Y-106236151D01*
X144873477Y-106147736D01*
X144677119Y-106101681D01*
X144475435Y-106100273D01*
X144278452Y-106143583D01*
X144095959Y-106229457D01*
X143937027Y-106353629D01*
X143934587Y-106356621D01*
X143784754Y-106236151D01*
X143603477Y-106147736D01*
X143407119Y-106101681D01*
X143205435Y-106100273D01*
X143008452Y-106143583D01*
X142825959Y-106229457D01*
X142667027Y-106353629D01*
X142664587Y-106356621D01*
X142514754Y-106236151D01*
X142333477Y-106147736D01*
X142137119Y-106101681D01*
X141935435Y-106100273D01*
X141738452Y-106143583D01*
X141555959Y-106229457D01*
X141397027Y-106353629D01*
X141394587Y-106356621D01*
X141244754Y-106236151D01*
X141063477Y-106147736D01*
X140867119Y-106101681D01*
X140665435Y-106100273D01*
X140468452Y-106143583D01*
X140285959Y-106229457D01*
X140127027Y-106353629D01*
X140124587Y-106356621D01*
X139974754Y-106236151D01*
X139793477Y-106147736D01*
X139597119Y-106101681D01*
X139395435Y-106100273D01*
X139198452Y-106143583D01*
X139015959Y-106229457D01*
X138857027Y-106353629D01*
X138854587Y-106356621D01*
X138704754Y-106236151D01*
X138523477Y-106147736D01*
X138327119Y-106101681D01*
X138125435Y-106100273D01*
X137928452Y-106143583D01*
X137745959Y-106229457D01*
X137587027Y-106353629D01*
X137584587Y-106356621D01*
X137434754Y-106236151D01*
X137253477Y-106147736D01*
X137057119Y-106101681D01*
X136855435Y-106100273D01*
X136658452Y-106143583D01*
X136475959Y-106229457D01*
X136317027Y-106353629D01*
X136314587Y-106356621D01*
X136164754Y-106236151D01*
X135983477Y-106147736D01*
X135787119Y-106101681D01*
X135585435Y-106100273D01*
X135503894Y-106118202D01*
X129778570Y-100392878D01*
X129830577Y-100321295D01*
X129899000Y-100110711D01*
X129899000Y-99949000D01*
X133466423Y-99949000D01*
X133578705Y-100030577D01*
X133789289Y-100099000D01*
X134010711Y-100099000D01*
X134221295Y-100030577D01*
X134400429Y-99900429D01*
X134530577Y-99721295D01*
X134599000Y-99510711D01*
X134599000Y-99289289D01*
X134530577Y-99078705D01*
X134400429Y-98899571D01*
X134221295Y-98769423D01*
X134157121Y-98748572D01*
X134406693Y-98499000D01*
X134850854Y-98499000D01*
X134900000Y-98508776D01*
X134958708Y-98497098D01*
X135094700Y-98470047D01*
X135259759Y-98359759D01*
X135287600Y-98318092D01*
X136717805Y-96887888D01*
X136799570Y-97000429D01*
G37*
X136799570Y-97000429D02*
X136801000Y-97001468D01*
X136801000Y-97140854D01*
X136791224Y-97190000D01*
X136822612Y-97347793D01*
X136829954Y-97384700D01*
X136940241Y-97549759D01*
X136981908Y-97577600D01*
X145548070Y-106143763D01*
X145365959Y-106229457D01*
X145207027Y-106353629D01*
X145204587Y-106356621D01*
X145054754Y-106236151D01*
X144873477Y-106147736D01*
X144677119Y-106101681D01*
X144475435Y-106100273D01*
X144278452Y-106143583D01*
X144095959Y-106229457D01*
X143937027Y-106353629D01*
X143934587Y-106356621D01*
X143784754Y-106236151D01*
X143603477Y-106147736D01*
X143407119Y-106101681D01*
X143205435Y-106100273D01*
X143008452Y-106143583D01*
X142825959Y-106229457D01*
X142667027Y-106353629D01*
X142664587Y-106356621D01*
X142514754Y-106236151D01*
X142333477Y-106147736D01*
X142137119Y-106101681D01*
X141935435Y-106100273D01*
X141738452Y-106143583D01*
X141555959Y-106229457D01*
X141397027Y-106353629D01*
X141394587Y-106356621D01*
X141244754Y-106236151D01*
X141063477Y-106147736D01*
X140867119Y-106101681D01*
X140665435Y-106100273D01*
X140468452Y-106143583D01*
X140285959Y-106229457D01*
X140127027Y-106353629D01*
X140124587Y-106356621D01*
X139974754Y-106236151D01*
X139793477Y-106147736D01*
X139597119Y-106101681D01*
X139395435Y-106100273D01*
X139198452Y-106143583D01*
X139015959Y-106229457D01*
X138857027Y-106353629D01*
X138854587Y-106356621D01*
X138704754Y-106236151D01*
X138523477Y-106147736D01*
X138327119Y-106101681D01*
X138125435Y-106100273D01*
X137928452Y-106143583D01*
X137745959Y-106229457D01*
X137587027Y-106353629D01*
X137584587Y-106356621D01*
X137434754Y-106236151D01*
X137253477Y-106147736D01*
X137057119Y-106101681D01*
X136855435Y-106100273D01*
X136658452Y-106143583D01*
X136475959Y-106229457D01*
X136317027Y-106353629D01*
X136314587Y-106356621D01*
X136164754Y-106236151D01*
X135983477Y-106147736D01*
X135787119Y-106101681D01*
X135585435Y-106100273D01*
X135503894Y-106118202D01*
X129778570Y-100392878D01*
X129830577Y-100321295D01*
X129899000Y-100110711D01*
X129899000Y-99949000D01*
X133466423Y-99949000D01*
X133578705Y-100030577D01*
X133789289Y-100099000D01*
X134010711Y-100099000D01*
X134221295Y-100030577D01*
X134400429Y-99900429D01*
X134530577Y-99721295D01*
X134599000Y-99510711D01*
X134599000Y-99289289D01*
X134530577Y-99078705D01*
X134400429Y-98899571D01*
X134221295Y-98769423D01*
X134157121Y-98748572D01*
X134406693Y-98499000D01*
X134850854Y-98499000D01*
X134900000Y-98508776D01*
X134958708Y-98497098D01*
X135094700Y-98470047D01*
X135259759Y-98359759D01*
X135287600Y-98318092D01*
X136717805Y-96887888D01*
X136799570Y-97000429D01*
G36*
X119569043Y-96301000D02*
G01*
X119465023Y-96301000D01*
X119254439Y-96369423D01*
X119075305Y-96499571D01*
X118945157Y-96678705D01*
X118876734Y-96889289D01*
X118876734Y-97110711D01*
X118945157Y-97321295D01*
X119075305Y-97500429D01*
X119254439Y-97630577D01*
X119465023Y-97699000D01*
X119686445Y-97699000D01*
X119897029Y-97630577D01*
X120076163Y-97500429D01*
X120206311Y-97321295D01*
X120274734Y-97110711D01*
X120274734Y-97006691D01*
X120682383Y-96599044D01*
X125973737Y-96599044D01*
X125910804Y-96641094D01*
X125801123Y-96641094D01*
X125590539Y-96709517D01*
X125411405Y-96839665D01*
X125281257Y-97018799D01*
X125212834Y-97229383D01*
X125212834Y-97325048D01*
X125079802Y-97368273D01*
X124900668Y-97498421D01*
X124840555Y-97581159D01*
X124741294Y-97481899D01*
X124713451Y-97440229D01*
X124548392Y-97329941D01*
X124412400Y-97302890D01*
X124353692Y-97291212D01*
X124304546Y-97300988D01*
X121649157Y-97300988D01*
X121600011Y-97291212D01*
X121541303Y-97302890D01*
X121405312Y-97329941D01*
X121240253Y-97440229D01*
X121212416Y-97481890D01*
X116193308Y-102501000D01*
X112936092Y-102501000D01*
X115352383Y-100084710D01*
X115426101Y-100070046D01*
X115591160Y-99959758D01*
X115619001Y-99918091D01*
X119738083Y-95799011D01*
X120071030Y-95799011D01*
X119569043Y-96301000D01*
G37*
X119569043Y-96301000D02*
X119465023Y-96301000D01*
X119254439Y-96369423D01*
X119075305Y-96499571D01*
X118945157Y-96678705D01*
X118876734Y-96889289D01*
X118876734Y-97110711D01*
X118945157Y-97321295D01*
X119075305Y-97500429D01*
X119254439Y-97630577D01*
X119465023Y-97699000D01*
X119686445Y-97699000D01*
X119897029Y-97630577D01*
X120076163Y-97500429D01*
X120206311Y-97321295D01*
X120274734Y-97110711D01*
X120274734Y-97006691D01*
X120682383Y-96599044D01*
X125973737Y-96599044D01*
X125910804Y-96641094D01*
X125801123Y-96641094D01*
X125590539Y-96709517D01*
X125411405Y-96839665D01*
X125281257Y-97018799D01*
X125212834Y-97229383D01*
X125212834Y-97325048D01*
X125079802Y-97368273D01*
X124900668Y-97498421D01*
X124840555Y-97581159D01*
X124741294Y-97481899D01*
X124713451Y-97440229D01*
X124548392Y-97329941D01*
X124412400Y-97302890D01*
X124353692Y-97291212D01*
X124304546Y-97300988D01*
X121649157Y-97300988D01*
X121600011Y-97291212D01*
X121541303Y-97302890D01*
X121405312Y-97329941D01*
X121240253Y-97440229D01*
X121212416Y-97481890D01*
X116193308Y-102501000D01*
X112936092Y-102501000D01*
X115352383Y-100084710D01*
X115426101Y-100070046D01*
X115591160Y-99959758D01*
X115619001Y-99918091D01*
X119738083Y-95799011D01*
X120071030Y-95799011D01*
X119569043Y-96301000D01*
G36*
X113612404Y-87568098D02*
G01*
X113640241Y-87609759D01*
X113805300Y-87720047D01*
X113838858Y-87726722D01*
X113834772Y-87739299D01*
X113834772Y-87960721D01*
X113903195Y-88171305D01*
X114033343Y-88350439D01*
X114212477Y-88480587D01*
X114423061Y-88549010D01*
X114580333Y-88549010D01*
X114551000Y-88639289D01*
X114551000Y-88860711D01*
X114619423Y-89071295D01*
X114749571Y-89250429D01*
X114928705Y-89380577D01*
X115139289Y-89449000D01*
X115360711Y-89449000D01*
X115514627Y-89398990D01*
X126798532Y-89398990D01*
X126799570Y-89400419D01*
X126978705Y-89530567D01*
X127189289Y-89598990D01*
X127410711Y-89598990D01*
X127621295Y-89530567D01*
X127800429Y-89400419D01*
X127930577Y-89221285D01*
X127999000Y-89010701D01*
X127999000Y-88798988D01*
X131343297Y-88798988D01*
X131551000Y-89006692D01*
X131551000Y-89110711D01*
X131619423Y-89321295D01*
X131749571Y-89500429D01*
X131928705Y-89630577D01*
X132139289Y-89699000D01*
X132360711Y-89699000D01*
X132571295Y-89630577D01*
X132750429Y-89500429D01*
X132880577Y-89321295D01*
X132949000Y-89110711D01*
X132949000Y-88889289D01*
X132880577Y-88678705D01*
X132802081Y-88570664D01*
X132889289Y-88599000D01*
X133110711Y-88599000D01*
X133321295Y-88530577D01*
X133500429Y-88400429D01*
X133630577Y-88221295D01*
X133699000Y-88010711D01*
X133699000Y-87789289D01*
X133630577Y-87578705D01*
X133500429Y-87399571D01*
X133321295Y-87269423D01*
X133110711Y-87201000D01*
X132889289Y-87201000D01*
X132678705Y-87269423D01*
X132568232Y-87349685D01*
X132525746Y-87341234D01*
X132476600Y-87351010D01*
X130958291Y-87351010D01*
X131104933Y-87244469D01*
X131235081Y-87065335D01*
X131303504Y-86854751D01*
X131303504Y-86633329D01*
X131235081Y-86422745D01*
X131108848Y-86249000D01*
X135489594Y-86249000D01*
X136458680Y-87218088D01*
X136486517Y-87259749D01*
X136651576Y-87370037D01*
X136787568Y-87397088D01*
X136846275Y-87408766D01*
X136895421Y-87398990D01*
X138248532Y-87398990D01*
X138249570Y-87400419D01*
X138391078Y-87503229D01*
X137393308Y-88501000D01*
X135349146Y-88501000D01*
X135300000Y-88491224D01*
X135241292Y-88502902D01*
X135105300Y-88529953D01*
X134940241Y-88640241D01*
X134912403Y-88681904D01*
X130393308Y-93201000D01*
X130289289Y-93201000D01*
X130078705Y-93269423D01*
X129899571Y-93399571D01*
X129769423Y-93578705D01*
X129701000Y-93789289D01*
X129701000Y-94001022D01*
X128502795Y-94001022D01*
X128453649Y-93991246D01*
X128397729Y-94002369D01*
X128400429Y-94000408D01*
X128437325Y-93949624D01*
X128589289Y-93999000D01*
X128810711Y-93999000D01*
X129021295Y-93930577D01*
X129200429Y-93800429D01*
X129330577Y-93621295D01*
X129399000Y-93410711D01*
X129399000Y-93189289D01*
X129330577Y-92978705D01*
X129200429Y-92799571D01*
X129021295Y-92669423D01*
X128810711Y-92601000D01*
X128706691Y-92601000D01*
X128687578Y-92581887D01*
X128659736Y-92540218D01*
X128494677Y-92429930D01*
X128358685Y-92402879D01*
X128299977Y-92391201D01*
X128250831Y-92400977D01*
X127661144Y-92400977D01*
X127644326Y-92397632D01*
X127644326Y-92292109D01*
X127614073Y-92198999D01*
X128629686Y-92198999D01*
X128669423Y-92321295D01*
X128799571Y-92500429D01*
X128978705Y-92630577D01*
X129189289Y-92699000D01*
X129410711Y-92699000D01*
X129621295Y-92630577D01*
X129800429Y-92500429D01*
X129915215Y-92342440D01*
X130089289Y-92399000D01*
X130310711Y-92399000D01*
X130521295Y-92330577D01*
X130700429Y-92200429D01*
X130830577Y-92021295D01*
X130899000Y-91810711D01*
X130899000Y-91589289D01*
X130830577Y-91378705D01*
X130700429Y-91199571D01*
X130521295Y-91069423D01*
X130310711Y-91001000D01*
X130206692Y-91001000D01*
X130137601Y-90931910D01*
X130109759Y-90890241D01*
X130076053Y-90867720D01*
X130236181Y-90815691D01*
X130415315Y-90685543D01*
X130545463Y-90506409D01*
X130613886Y-90295825D01*
X130613886Y-90074403D01*
X130545463Y-89863819D01*
X130415315Y-89684685D01*
X130236181Y-89554537D01*
X130025597Y-89486114D01*
X129804175Y-89486114D01*
X129593591Y-89554537D01*
X129414457Y-89684685D01*
X129284309Y-89863819D01*
X129215886Y-90074403D01*
X129215886Y-90178422D01*
X129158283Y-90236026D01*
X129199000Y-90110711D01*
X129199000Y-89889289D01*
X129130577Y-89678705D01*
X129000429Y-89499571D01*
X128821295Y-89369423D01*
X128610711Y-89301000D01*
X128389289Y-89301000D01*
X128178705Y-89369423D01*
X127999571Y-89499571D01*
X127869423Y-89678705D01*
X127829687Y-89800999D01*
X117249146Y-89800999D01*
X117200000Y-89791223D01*
X117087506Y-89813600D01*
X117005301Y-89829952D01*
X116840242Y-89940240D01*
X116812403Y-89981904D01*
X114293308Y-92501000D01*
X111006693Y-92501000D01*
X107366692Y-88860999D01*
X110996281Y-88860999D01*
X111083149Y-89141627D01*
X111190709Y-89337278D01*
X111332580Y-89503976D01*
X111249876Y-89670581D01*
X111202451Y-89866613D01*
X111199635Y-90068281D01*
X111241568Y-90265562D01*
X111326167Y-90448650D01*
X111328428Y-90451586D01*
X111312337Y-90462337D01*
X111224151Y-90594318D01*
X111195123Y-90740249D01*
X111195123Y-91759751D01*
X111224151Y-91905682D01*
X111312337Y-92037663D01*
X111444318Y-92125849D01*
X111590249Y-92154877D01*
X112609751Y-92154877D01*
X112755682Y-92125849D01*
X112887663Y-92037663D01*
X112975849Y-91905682D01*
X113004877Y-91759751D01*
X113004877Y-90740249D01*
X112975849Y-90594318D01*
X112887663Y-90462337D01*
X112869258Y-90450039D01*
X112945721Y-90301259D01*
X112996053Y-90105229D01*
X112999200Y-89879840D01*
X112954362Y-89682480D01*
X112867214Y-89500591D01*
X112865656Y-89498625D01*
X112933703Y-89434726D01*
X113062401Y-89252285D01*
X113151786Y-89047691D01*
X113191467Y-88861000D01*
X112250999Y-88860999D01*
X112250999Y-88861000D01*
X110996281Y-88860999D01*
X107366692Y-88860999D01*
X107087600Y-88581908D01*
X107072294Y-88559000D01*
X110994919Y-88559000D01*
X111949001Y-88559001D01*
X111949001Y-88559000D01*
X113190929Y-88559001D01*
X113154117Y-88379660D01*
X113066163Y-88174447D01*
X112938742Y-87991112D01*
X112864116Y-87920046D01*
X112945721Y-87761259D01*
X112996053Y-87565229D01*
X112999200Y-87339840D01*
X112954362Y-87142480D01*
X112867214Y-86960591D01*
X112741936Y-86802530D01*
X112584754Y-86676151D01*
X112403477Y-86587736D01*
X112207119Y-86541681D01*
X112005435Y-86540273D01*
X111808452Y-86583583D01*
X111625959Y-86669457D01*
X111467027Y-86793629D01*
X111339554Y-86949926D01*
X111249876Y-87130581D01*
X111202451Y-87326613D01*
X111199635Y-87528281D01*
X111241568Y-87725562D01*
X111326167Y-87908650D01*
X111332641Y-87917057D01*
X111195111Y-88076390D01*
X111086188Y-88271284D01*
X110994919Y-88559000D01*
X107072294Y-88559000D01*
X107059759Y-88540241D01*
X106894700Y-88429953D01*
X106758708Y-88402902D01*
X106700000Y-88391224D01*
X106650854Y-88401000D01*
X103049145Y-88401000D01*
X102999999Y-88391224D01*
X102941291Y-88402902D01*
X102805300Y-88429953D01*
X102640241Y-88540241D01*
X102612402Y-88581905D01*
X102293308Y-88901000D01*
X102189289Y-88901000D01*
X101978705Y-88969423D01*
X101799571Y-89099571D01*
X101669423Y-89278705D01*
X101601000Y-89489289D01*
X101601000Y-89501000D01*
X101589289Y-89501000D01*
X101378705Y-89569423D01*
X101199571Y-89699571D01*
X101069423Y-89878705D01*
X101001000Y-90089289D01*
X101001000Y-90129687D01*
X100878705Y-90169423D01*
X100699571Y-90299571D01*
X100569423Y-90478705D01*
X100501000Y-90689289D01*
X100501000Y-90910711D01*
X100569423Y-91121295D01*
X100699571Y-91300429D01*
X100878705Y-91430577D01*
X101089289Y-91499000D01*
X101193308Y-91499000D01*
X108762402Y-99068095D01*
X108790241Y-99109759D01*
X108906775Y-99187624D01*
X108955300Y-99220047D01*
X109150000Y-99258776D01*
X109199146Y-99249000D01*
X110998532Y-99249000D01*
X110999570Y-99250429D01*
X111178705Y-99380577D01*
X111389289Y-99449000D01*
X111610711Y-99449000D01*
X111821295Y-99380577D01*
X112000429Y-99250429D01*
X112130577Y-99071295D01*
X112199000Y-98860711D01*
X112199000Y-98639289D01*
X112130577Y-98428705D01*
X112000429Y-98249571D01*
X111999643Y-98249000D01*
X112998532Y-98249000D01*
X112999570Y-98250429D01*
X113178705Y-98380577D01*
X113389289Y-98449000D01*
X113610711Y-98449000D01*
X113810089Y-98384218D01*
X112393308Y-99801000D01*
X95756694Y-99801000D01*
X94699000Y-98743308D01*
X94699000Y-98639289D01*
X94630577Y-98428705D01*
X94500429Y-98249571D01*
X94321295Y-98119423D01*
X94110711Y-98051000D01*
X93889289Y-98051000D01*
X93678705Y-98119423D01*
X93500000Y-98249259D01*
X93321295Y-98119423D01*
X93110711Y-98051000D01*
X92889289Y-98051000D01*
X92749000Y-98096583D01*
X92749000Y-96884939D01*
X99087611Y-90546329D01*
X99199571Y-90700429D01*
X99378705Y-90830577D01*
X99589289Y-90899000D01*
X99810711Y-90899000D01*
X100021295Y-90830577D01*
X100200429Y-90700429D01*
X100330577Y-90521295D01*
X100399000Y-90310711D01*
X100399000Y-90206692D01*
X105342386Y-85263308D01*
X106244226Y-85263308D01*
X106245264Y-85264737D01*
X106424399Y-85394885D01*
X106634983Y-85463308D01*
X106856405Y-85463308D01*
X107066989Y-85394885D01*
X107246123Y-85264737D01*
X107376271Y-85085603D01*
X107444694Y-84875019D01*
X107444694Y-84653597D01*
X107394462Y-84499000D01*
X110543308Y-84499000D01*
X113612404Y-87568098D01*
G37*
X113612404Y-87568098D02*
X113640241Y-87609759D01*
X113805300Y-87720047D01*
X113838858Y-87726722D01*
X113834772Y-87739299D01*
X113834772Y-87960721D01*
X113903195Y-88171305D01*
X114033343Y-88350439D01*
X114212477Y-88480587D01*
X114423061Y-88549010D01*
X114580333Y-88549010D01*
X114551000Y-88639289D01*
X114551000Y-88860711D01*
X114619423Y-89071295D01*
X114749571Y-89250429D01*
X114928705Y-89380577D01*
X115139289Y-89449000D01*
X115360711Y-89449000D01*
X115514627Y-89398990D01*
X126798532Y-89398990D01*
X126799570Y-89400419D01*
X126978705Y-89530567D01*
X127189289Y-89598990D01*
X127410711Y-89598990D01*
X127621295Y-89530567D01*
X127800429Y-89400419D01*
X127930577Y-89221285D01*
X127999000Y-89010701D01*
X127999000Y-88798988D01*
X131343297Y-88798988D01*
X131551000Y-89006692D01*
X131551000Y-89110711D01*
X131619423Y-89321295D01*
X131749571Y-89500429D01*
X131928705Y-89630577D01*
X132139289Y-89699000D01*
X132360711Y-89699000D01*
X132571295Y-89630577D01*
X132750429Y-89500429D01*
X132880577Y-89321295D01*
X132949000Y-89110711D01*
X132949000Y-88889289D01*
X132880577Y-88678705D01*
X132802081Y-88570664D01*
X132889289Y-88599000D01*
X133110711Y-88599000D01*
X133321295Y-88530577D01*
X133500429Y-88400429D01*
X133630577Y-88221295D01*
X133699000Y-88010711D01*
X133699000Y-87789289D01*
X133630577Y-87578705D01*
X133500429Y-87399571D01*
X133321295Y-87269423D01*
X133110711Y-87201000D01*
X132889289Y-87201000D01*
X132678705Y-87269423D01*
X132568232Y-87349685D01*
X132525746Y-87341234D01*
X132476600Y-87351010D01*
X130958291Y-87351010D01*
X131104933Y-87244469D01*
X131235081Y-87065335D01*
X131303504Y-86854751D01*
X131303504Y-86633329D01*
X131235081Y-86422745D01*
X131108848Y-86249000D01*
X135489594Y-86249000D01*
X136458680Y-87218088D01*
X136486517Y-87259749D01*
X136651576Y-87370037D01*
X136787568Y-87397088D01*
X136846275Y-87408766D01*
X136895421Y-87398990D01*
X138248532Y-87398990D01*
X138249570Y-87400419D01*
X138391078Y-87503229D01*
X137393308Y-88501000D01*
X135349146Y-88501000D01*
X135300000Y-88491224D01*
X135241292Y-88502902D01*
X135105300Y-88529953D01*
X134940241Y-88640241D01*
X134912403Y-88681904D01*
X130393308Y-93201000D01*
X130289289Y-93201000D01*
X130078705Y-93269423D01*
X129899571Y-93399571D01*
X129769423Y-93578705D01*
X129701000Y-93789289D01*
X129701000Y-94001022D01*
X128502795Y-94001022D01*
X128453649Y-93991246D01*
X128397729Y-94002369D01*
X128400429Y-94000408D01*
X128437325Y-93949624D01*
X128589289Y-93999000D01*
X128810711Y-93999000D01*
X129021295Y-93930577D01*
X129200429Y-93800429D01*
X129330577Y-93621295D01*
X129399000Y-93410711D01*
X129399000Y-93189289D01*
X129330577Y-92978705D01*
X129200429Y-92799571D01*
X129021295Y-92669423D01*
X128810711Y-92601000D01*
X128706691Y-92601000D01*
X128687578Y-92581887D01*
X128659736Y-92540218D01*
X128494677Y-92429930D01*
X128358685Y-92402879D01*
X128299977Y-92391201D01*
X128250831Y-92400977D01*
X127661144Y-92400977D01*
X127644326Y-92397632D01*
X127644326Y-92292109D01*
X127614073Y-92198999D01*
X128629686Y-92198999D01*
X128669423Y-92321295D01*
X128799571Y-92500429D01*
X128978705Y-92630577D01*
X129189289Y-92699000D01*
X129410711Y-92699000D01*
X129621295Y-92630577D01*
X129800429Y-92500429D01*
X129915215Y-92342440D01*
X130089289Y-92399000D01*
X130310711Y-92399000D01*
X130521295Y-92330577D01*
X130700429Y-92200429D01*
X130830577Y-92021295D01*
X130899000Y-91810711D01*
X130899000Y-91589289D01*
X130830577Y-91378705D01*
X130700429Y-91199571D01*
X130521295Y-91069423D01*
X130310711Y-91001000D01*
X130206692Y-91001000D01*
X130137601Y-90931910D01*
X130109759Y-90890241D01*
X130076053Y-90867720D01*
X130236181Y-90815691D01*
X130415315Y-90685543D01*
X130545463Y-90506409D01*
X130613886Y-90295825D01*
X130613886Y-90074403D01*
X130545463Y-89863819D01*
X130415315Y-89684685D01*
X130236181Y-89554537D01*
X130025597Y-89486114D01*
X129804175Y-89486114D01*
X129593591Y-89554537D01*
X129414457Y-89684685D01*
X129284309Y-89863819D01*
X129215886Y-90074403D01*
X129215886Y-90178422D01*
X129158283Y-90236026D01*
X129199000Y-90110711D01*
X129199000Y-89889289D01*
X129130577Y-89678705D01*
X129000429Y-89499571D01*
X128821295Y-89369423D01*
X128610711Y-89301000D01*
X128389289Y-89301000D01*
X128178705Y-89369423D01*
X127999571Y-89499571D01*
X127869423Y-89678705D01*
X127829687Y-89800999D01*
X117249146Y-89800999D01*
X117200000Y-89791223D01*
X117087506Y-89813600D01*
X117005301Y-89829952D01*
X116840242Y-89940240D01*
X116812403Y-89981904D01*
X114293308Y-92501000D01*
X111006693Y-92501000D01*
X107366692Y-88860999D01*
X110996281Y-88860999D01*
X111083149Y-89141627D01*
X111190709Y-89337278D01*
X111332580Y-89503976D01*
X111249876Y-89670581D01*
X111202451Y-89866613D01*
X111199635Y-90068281D01*
X111241568Y-90265562D01*
X111326167Y-90448650D01*
X111328428Y-90451586D01*
X111312337Y-90462337D01*
X111224151Y-90594318D01*
X111195123Y-90740249D01*
X111195123Y-91759751D01*
X111224151Y-91905682D01*
X111312337Y-92037663D01*
X111444318Y-92125849D01*
X111590249Y-92154877D01*
X112609751Y-92154877D01*
X112755682Y-92125849D01*
X112887663Y-92037663D01*
X112975849Y-91905682D01*
X113004877Y-91759751D01*
X113004877Y-90740249D01*
X112975849Y-90594318D01*
X112887663Y-90462337D01*
X112869258Y-90450039D01*
X112945721Y-90301259D01*
X112996053Y-90105229D01*
X112999200Y-89879840D01*
X112954362Y-89682480D01*
X112867214Y-89500591D01*
X112865656Y-89498625D01*
X112933703Y-89434726D01*
X113062401Y-89252285D01*
X113151786Y-89047691D01*
X113191467Y-88861000D01*
X112250999Y-88860999D01*
X112250999Y-88861000D01*
X110996281Y-88860999D01*
X107366692Y-88860999D01*
X107087600Y-88581908D01*
X107072294Y-88559000D01*
X110994919Y-88559000D01*
X111949001Y-88559001D01*
X111949001Y-88559000D01*
X113190929Y-88559001D01*
X113154117Y-88379660D01*
X113066163Y-88174447D01*
X112938742Y-87991112D01*
X112864116Y-87920046D01*
X112945721Y-87761259D01*
X112996053Y-87565229D01*
X112999200Y-87339840D01*
X112954362Y-87142480D01*
X112867214Y-86960591D01*
X112741936Y-86802530D01*
X112584754Y-86676151D01*
X112403477Y-86587736D01*
X112207119Y-86541681D01*
X112005435Y-86540273D01*
X111808452Y-86583583D01*
X111625959Y-86669457D01*
X111467027Y-86793629D01*
X111339554Y-86949926D01*
X111249876Y-87130581D01*
X111202451Y-87326613D01*
X111199635Y-87528281D01*
X111241568Y-87725562D01*
X111326167Y-87908650D01*
X111332641Y-87917057D01*
X111195111Y-88076390D01*
X111086188Y-88271284D01*
X110994919Y-88559000D01*
X107072294Y-88559000D01*
X107059759Y-88540241D01*
X106894700Y-88429953D01*
X106758708Y-88402902D01*
X106700000Y-88391224D01*
X106650854Y-88401000D01*
X103049145Y-88401000D01*
X102999999Y-88391224D01*
X102941291Y-88402902D01*
X102805300Y-88429953D01*
X102640241Y-88540241D01*
X102612402Y-88581905D01*
X102293308Y-88901000D01*
X102189289Y-88901000D01*
X101978705Y-88969423D01*
X101799571Y-89099571D01*
X101669423Y-89278705D01*
X101601000Y-89489289D01*
X101601000Y-89501000D01*
X101589289Y-89501000D01*
X101378705Y-89569423D01*
X101199571Y-89699571D01*
X101069423Y-89878705D01*
X101001000Y-90089289D01*
X101001000Y-90129687D01*
X100878705Y-90169423D01*
X100699571Y-90299571D01*
X100569423Y-90478705D01*
X100501000Y-90689289D01*
X100501000Y-90910711D01*
X100569423Y-91121295D01*
X100699571Y-91300429D01*
X100878705Y-91430577D01*
X101089289Y-91499000D01*
X101193308Y-91499000D01*
X108762402Y-99068095D01*
X108790241Y-99109759D01*
X108906775Y-99187624D01*
X108955300Y-99220047D01*
X109150000Y-99258776D01*
X109199146Y-99249000D01*
X110998532Y-99249000D01*
X110999570Y-99250429D01*
X111178705Y-99380577D01*
X111389289Y-99449000D01*
X111610711Y-99449000D01*
X111821295Y-99380577D01*
X112000429Y-99250429D01*
X112130577Y-99071295D01*
X112199000Y-98860711D01*
X112199000Y-98639289D01*
X112130577Y-98428705D01*
X112000429Y-98249571D01*
X111999643Y-98249000D01*
X112998532Y-98249000D01*
X112999570Y-98250429D01*
X113178705Y-98380577D01*
X113389289Y-98449000D01*
X113610711Y-98449000D01*
X113810089Y-98384218D01*
X112393308Y-99801000D01*
X95756694Y-99801000D01*
X94699000Y-98743308D01*
X94699000Y-98639289D01*
X94630577Y-98428705D01*
X94500429Y-98249571D01*
X94321295Y-98119423D01*
X94110711Y-98051000D01*
X93889289Y-98051000D01*
X93678705Y-98119423D01*
X93500000Y-98249259D01*
X93321295Y-98119423D01*
X93110711Y-98051000D01*
X92889289Y-98051000D01*
X92749000Y-98096583D01*
X92749000Y-96884939D01*
X99087611Y-90546329D01*
X99199571Y-90700429D01*
X99378705Y-90830577D01*
X99589289Y-90899000D01*
X99810711Y-90899000D01*
X100021295Y-90830577D01*
X100200429Y-90700429D01*
X100330577Y-90521295D01*
X100399000Y-90310711D01*
X100399000Y-90206692D01*
X105342386Y-85263308D01*
X106244226Y-85263308D01*
X106245264Y-85264737D01*
X106424399Y-85394885D01*
X106634983Y-85463308D01*
X106856405Y-85463308D01*
X107066989Y-85394885D01*
X107246123Y-85264737D01*
X107376271Y-85085603D01*
X107444694Y-84875019D01*
X107444694Y-84653597D01*
X107394462Y-84499000D01*
X110543308Y-84499000D01*
X113612404Y-87568098D01*
G36*
X125801021Y-93011415D02*
G01*
X125801021Y-93115433D01*
X124915456Y-94001000D01*
X119077743Y-94001000D01*
X119028597Y-93991224D01*
X118969889Y-94002902D01*
X118833898Y-94029953D01*
X118668839Y-94140241D01*
X118641002Y-94181902D01*
X115699001Y-97123904D01*
X115699001Y-96706691D01*
X119503874Y-92901820D01*
X125836631Y-92901820D01*
X125801021Y-93011415D01*
G37*
X125801021Y-93011415D02*
X125801021Y-93115433D01*
X124915456Y-94001000D01*
X119077743Y-94001000D01*
X119028597Y-93991224D01*
X118969889Y-94002902D01*
X118833898Y-94029953D01*
X118668839Y-94140241D01*
X118641002Y-94181902D01*
X115699001Y-97123904D01*
X115699001Y-96706691D01*
X119503874Y-92901820D01*
X125836631Y-92901820D01*
X125801021Y-93011415D01*
G36*
X142301000Y-83627332D02*
G01*
X142221295Y-83569423D01*
X142010711Y-83501000D01*
X141789289Y-83501000D01*
X141578705Y-83569423D01*
X141399571Y-83699571D01*
X141269423Y-83878705D01*
X141201000Y-84089289D01*
X141201000Y-84310711D01*
X141269423Y-84521295D01*
X141399571Y-84700429D01*
X141578705Y-84830577D01*
X141616406Y-84842827D01*
X141616405Y-86198532D01*
X141614975Y-86199571D01*
X141484828Y-86378705D01*
X141416405Y-86589289D01*
X141416405Y-86810711D01*
X141484828Y-87021295D01*
X141614976Y-87200429D01*
X141794110Y-87330577D01*
X142004694Y-87399000D01*
X142226116Y-87399000D01*
X142301001Y-87374668D01*
X142301001Y-87393306D01*
X140293321Y-89400987D01*
X138849159Y-89400987D01*
X138800013Y-89391211D01*
X138741305Y-89402889D01*
X138605313Y-89429940D01*
X138440254Y-89540228D01*
X138412415Y-89581892D01*
X136214758Y-91779550D01*
X136173091Y-91807391D01*
X136084497Y-91939983D01*
X136062803Y-91972452D01*
X136056657Y-92003350D01*
X134517540Y-93542467D01*
X134480577Y-93428705D01*
X134350429Y-93249571D01*
X134171295Y-93119423D01*
X133960711Y-93051000D01*
X133739289Y-93051000D01*
X133528705Y-93119423D01*
X133349571Y-93249571D01*
X133219423Y-93428705D01*
X133151000Y-93639289D01*
X133151000Y-93743308D01*
X132893287Y-94001022D01*
X132099000Y-94001022D01*
X132099000Y-93906692D01*
X136106694Y-89899000D01*
X137750854Y-89899000D01*
X137800000Y-89908776D01*
X137858708Y-89897098D01*
X137994700Y-89870047D01*
X138159759Y-89759759D01*
X138187600Y-89718092D01*
X140418108Y-87487585D01*
X140459772Y-87459746D01*
X140570060Y-87294687D01*
X140597111Y-87158695D01*
X140608789Y-87099987D01*
X140599013Y-87050841D01*
X140599013Y-85249158D01*
X140608789Y-85200012D01*
X140596556Y-85138522D01*
X140596557Y-85138522D01*
X140570060Y-85005313D01*
X140459772Y-84840254D01*
X140418109Y-84812416D01*
X139599011Y-83993320D01*
X139599011Y-83175876D01*
X139636336Y-83181788D01*
X139689310Y-83199000D01*
X140555414Y-83199000D01*
X140555420Y-83198999D01*
X140610710Y-83198999D01*
X140663678Y-83181789D01*
X140718695Y-83173075D01*
X140768331Y-83147785D01*
X140821295Y-83130576D01*
X140866357Y-83097837D01*
X140915983Y-83072552D01*
X141072825Y-82915711D01*
X141072826Y-82915709D01*
X142301000Y-81687535D01*
X142301000Y-83627332D01*
G37*
X142301000Y-83627332D02*
X142221295Y-83569423D01*
X142010711Y-83501000D01*
X141789289Y-83501000D01*
X141578705Y-83569423D01*
X141399571Y-83699571D01*
X141269423Y-83878705D01*
X141201000Y-84089289D01*
X141201000Y-84310711D01*
X141269423Y-84521295D01*
X141399571Y-84700429D01*
X141578705Y-84830577D01*
X141616406Y-84842827D01*
X141616405Y-86198532D01*
X141614975Y-86199571D01*
X141484828Y-86378705D01*
X141416405Y-86589289D01*
X141416405Y-86810711D01*
X141484828Y-87021295D01*
X141614976Y-87200429D01*
X141794110Y-87330577D01*
X142004694Y-87399000D01*
X142226116Y-87399000D01*
X142301001Y-87374668D01*
X142301001Y-87393306D01*
X140293321Y-89400987D01*
X138849159Y-89400987D01*
X138800013Y-89391211D01*
X138741305Y-89402889D01*
X138605313Y-89429940D01*
X138440254Y-89540228D01*
X138412415Y-89581892D01*
X136214758Y-91779550D01*
X136173091Y-91807391D01*
X136084497Y-91939983D01*
X136062803Y-91972452D01*
X136056657Y-92003350D01*
X134517540Y-93542467D01*
X134480577Y-93428705D01*
X134350429Y-93249571D01*
X134171295Y-93119423D01*
X133960711Y-93051000D01*
X133739289Y-93051000D01*
X133528705Y-93119423D01*
X133349571Y-93249571D01*
X133219423Y-93428705D01*
X133151000Y-93639289D01*
X133151000Y-93743308D01*
X132893287Y-94001022D01*
X132099000Y-94001022D01*
X132099000Y-93906692D01*
X136106694Y-89899000D01*
X137750854Y-89899000D01*
X137800000Y-89908776D01*
X137858708Y-89897098D01*
X137994700Y-89870047D01*
X138159759Y-89759759D01*
X138187600Y-89718092D01*
X140418108Y-87487585D01*
X140459772Y-87459746D01*
X140570060Y-87294687D01*
X140597111Y-87158695D01*
X140608789Y-87099987D01*
X140599013Y-87050841D01*
X140599013Y-85249158D01*
X140608789Y-85200012D01*
X140596556Y-85138522D01*
X140596557Y-85138522D01*
X140570060Y-85005313D01*
X140459772Y-84840254D01*
X140418109Y-84812416D01*
X139599011Y-83993320D01*
X139599011Y-83175876D01*
X139636336Y-83181788D01*
X139689310Y-83199000D01*
X140555414Y-83199000D01*
X140555420Y-83198999D01*
X140610710Y-83198999D01*
X140663678Y-83181789D01*
X140718695Y-83173075D01*
X140768331Y-83147785D01*
X140821295Y-83130576D01*
X140866357Y-83097837D01*
X140915983Y-83072552D01*
X141072825Y-82915711D01*
X141072826Y-82915709D01*
X142301000Y-81687535D01*
X142301000Y-83627332D01*
G36*
X101497752Y-79679181D02*
G01*
X101491224Y-79711998D01*
X101502902Y-79770706D01*
X101529953Y-79906697D01*
X101640241Y-80071757D01*
X101681908Y-80099598D01*
X105083308Y-83501000D01*
X104799146Y-83501000D01*
X104750000Y-83491224D01*
X104691292Y-83502902D01*
X104555300Y-83529953D01*
X104390241Y-83640241D01*
X104362402Y-83681905D01*
X103443308Y-84601000D01*
X103389289Y-84601000D01*
X103178705Y-84669423D01*
X102999571Y-84799571D01*
X102869423Y-84978705D01*
X102801000Y-85189289D01*
X102801000Y-85410711D01*
X102869423Y-85621295D01*
X102999571Y-85800429D01*
X103178705Y-85930577D01*
X103242879Y-85951428D01*
X100499000Y-88695308D01*
X100499000Y-78680429D01*
X101497752Y-79679181D01*
G37*
X101497752Y-79679181D02*
X101491224Y-79711998D01*
X101502902Y-79770706D01*
X101529953Y-79906697D01*
X101640241Y-80071757D01*
X101681908Y-80099598D01*
X105083308Y-83501000D01*
X104799146Y-83501000D01*
X104750000Y-83491224D01*
X104691292Y-83502902D01*
X104555300Y-83529953D01*
X104390241Y-83640241D01*
X104362402Y-83681905D01*
X103443308Y-84601000D01*
X103389289Y-84601000D01*
X103178705Y-84669423D01*
X102999571Y-84799571D01*
X102869423Y-84978705D01*
X102801000Y-85189289D01*
X102801000Y-85410711D01*
X102869423Y-85621295D01*
X102999571Y-85800429D01*
X103178705Y-85930577D01*
X103242879Y-85951428D01*
X100499000Y-88695308D01*
X100499000Y-78680429D01*
X101497752Y-79679181D01*
G36*
X95774151Y-74005682D02*
G01*
X95862337Y-74137663D01*
X95994318Y-74225849D01*
X96140249Y-74254877D01*
X96876762Y-74254877D01*
X96858711Y-74281892D01*
X96381891Y-74758712D01*
X96340228Y-74786551D01*
X96275529Y-74883382D01*
X96229940Y-74951610D01*
X96191211Y-75146309D01*
X96200988Y-75195460D01*
X96200987Y-76104545D01*
X96191211Y-76153691D01*
X96219459Y-76295700D01*
X96229940Y-76348390D01*
X96340227Y-76513449D01*
X96381896Y-76541292D01*
X96648363Y-76807758D01*
X96624722Y-76815440D01*
X96445588Y-76945588D01*
X96315440Y-77124722D01*
X96247017Y-77335306D01*
X96247017Y-77556728D01*
X96297017Y-77710614D01*
X96297017Y-77924164D01*
X96297018Y-77924170D01*
X96297017Y-81685157D01*
X95331175Y-82651000D01*
X91739536Y-82651000D01*
X90933172Y-81844637D01*
X90900429Y-81799571D01*
X90721295Y-81669423D01*
X90510711Y-81601000D01*
X90289289Y-81601000D01*
X90078705Y-81669423D01*
X89899571Y-81799571D01*
X89769423Y-81978705D01*
X89701000Y-82189289D01*
X89701000Y-82410711D01*
X89769423Y-82621295D01*
X89899571Y-82800429D01*
X89944637Y-82833172D01*
X93144096Y-86032633D01*
X93144100Y-86032636D01*
X93184017Y-86072552D01*
X93233642Y-86097837D01*
X93278703Y-86130576D01*
X93331672Y-86147786D01*
X93381305Y-86173075D01*
X93436319Y-86181789D01*
X93489288Y-86198999D01*
X93544580Y-86198999D01*
X93544586Y-86199000D01*
X95903095Y-86199000D01*
X95962337Y-86287663D01*
X95979891Y-86299392D01*
X95899876Y-86460581D01*
X95852451Y-86656613D01*
X95849635Y-86858281D01*
X95891568Y-87055562D01*
X95976167Y-87238650D01*
X96099226Y-87398446D01*
X96254629Y-87527006D01*
X96434653Y-87617943D01*
X96630349Y-87666736D01*
X96831994Y-87670960D01*
X97029563Y-87630404D01*
X97213236Y-87547086D01*
X97316110Y-87469000D01*
X97454512Y-87469000D01*
X97524629Y-87527006D01*
X97704653Y-87617943D01*
X97900349Y-87666736D01*
X98101994Y-87670960D01*
X98110044Y-87669307D01*
X97999570Y-87749571D01*
X97998532Y-87751000D01*
X86356694Y-87751000D01*
X84449000Y-85843308D01*
X84449000Y-82023028D01*
X84550666Y-81970217D01*
X84779158Y-81804512D01*
X84980647Y-81606854D01*
X85150708Y-81381586D01*
X85285604Y-81133655D01*
X85382371Y-80868509D01*
X85439145Y-80590694D01*
X85449398Y-80211822D01*
X85407730Y-79931342D01*
X85325443Y-79661351D01*
X85204153Y-79406488D01*
X85046523Y-79172353D01*
X84856017Y-78964088D01*
X84636821Y-78786269D01*
X84449000Y-78675413D01*
X84449000Y-77922377D01*
X88472379Y-73899000D01*
X95752930Y-73899000D01*
X95774151Y-74005682D01*
G37*
X95774151Y-74005682D02*
X95862337Y-74137663D01*
X95994318Y-74225849D01*
X96140249Y-74254877D01*
X96876762Y-74254877D01*
X96858711Y-74281892D01*
X96381891Y-74758712D01*
X96340228Y-74786551D01*
X96275529Y-74883382D01*
X96229940Y-74951610D01*
X96191211Y-75146309D01*
X96200988Y-75195460D01*
X96200987Y-76104545D01*
X96191211Y-76153691D01*
X96219459Y-76295700D01*
X96229940Y-76348390D01*
X96340227Y-76513449D01*
X96381896Y-76541292D01*
X96648363Y-76807758D01*
X96624722Y-76815440D01*
X96445588Y-76945588D01*
X96315440Y-77124722D01*
X96247017Y-77335306D01*
X96247017Y-77556728D01*
X96297017Y-77710614D01*
X96297017Y-77924164D01*
X96297018Y-77924170D01*
X96297017Y-81685157D01*
X95331175Y-82651000D01*
X91739536Y-82651000D01*
X90933172Y-81844637D01*
X90900429Y-81799571D01*
X90721295Y-81669423D01*
X90510711Y-81601000D01*
X90289289Y-81601000D01*
X90078705Y-81669423D01*
X89899571Y-81799571D01*
X89769423Y-81978705D01*
X89701000Y-82189289D01*
X89701000Y-82410711D01*
X89769423Y-82621295D01*
X89899571Y-82800429D01*
X89944637Y-82833172D01*
X93144096Y-86032633D01*
X93144100Y-86032636D01*
X93184017Y-86072552D01*
X93233642Y-86097837D01*
X93278703Y-86130576D01*
X93331672Y-86147786D01*
X93381305Y-86173075D01*
X93436319Y-86181789D01*
X93489288Y-86198999D01*
X93544580Y-86198999D01*
X93544586Y-86199000D01*
X95903095Y-86199000D01*
X95962337Y-86287663D01*
X95979891Y-86299392D01*
X95899876Y-86460581D01*
X95852451Y-86656613D01*
X95849635Y-86858281D01*
X95891568Y-87055562D01*
X95976167Y-87238650D01*
X96099226Y-87398446D01*
X96254629Y-87527006D01*
X96434653Y-87617943D01*
X96630349Y-87666736D01*
X96831994Y-87670960D01*
X97029563Y-87630404D01*
X97213236Y-87547086D01*
X97316110Y-87469000D01*
X97454512Y-87469000D01*
X97524629Y-87527006D01*
X97704653Y-87617943D01*
X97900349Y-87666736D01*
X98101994Y-87670960D01*
X98110044Y-87669307D01*
X97999570Y-87749571D01*
X97998532Y-87751000D01*
X86356694Y-87751000D01*
X84449000Y-85843308D01*
X84449000Y-82023028D01*
X84550666Y-81970217D01*
X84779158Y-81804512D01*
X84980647Y-81606854D01*
X85150708Y-81381586D01*
X85285604Y-81133655D01*
X85382371Y-80868509D01*
X85439145Y-80590694D01*
X85449398Y-80211822D01*
X85407730Y-79931342D01*
X85325443Y-79661351D01*
X85204153Y-79406488D01*
X85046523Y-79172353D01*
X84856017Y-78964088D01*
X84636821Y-78786269D01*
X84449000Y-78675413D01*
X84449000Y-77922377D01*
X88472379Y-73899000D01*
X95752930Y-73899000D01*
X95774151Y-74005682D01*
G36*
X98801001Y-78418692D02*
G01*
X98801000Y-85049365D01*
X98787214Y-85020591D01*
X98661936Y-84862530D01*
X98504754Y-84736151D01*
X98323477Y-84647736D01*
X98127119Y-84601681D01*
X97925435Y-84600273D01*
X97728452Y-84643583D01*
X97548350Y-84728332D01*
X97537663Y-84712337D01*
X97405682Y-84624151D01*
X97259751Y-84595123D01*
X96240249Y-84595123D01*
X96094318Y-84624151D01*
X95962337Y-84712337D01*
X95903095Y-84801000D01*
X93889537Y-84801000D01*
X93037536Y-83949000D01*
X95530751Y-83949000D01*
X95569007Y-83957236D01*
X95638591Y-83949000D01*
X95653874Y-83949000D01*
X95691479Y-83942740D01*
X95787966Y-83931320D01*
X95798884Y-83924864D01*
X95813127Y-83922493D01*
X96003273Y-83819895D01*
X96068607Y-83749217D01*
X97355962Y-82461862D01*
X97388836Y-82440637D01*
X97432217Y-82385608D01*
X97443022Y-82374802D01*
X97465175Y-82343802D01*
X97525339Y-82267483D01*
X97528494Y-82255196D01*
X97536889Y-82243448D01*
X97598795Y-82036449D01*
X97595017Y-81940288D01*
X97595017Y-77710614D01*
X97645017Y-77556728D01*
X97645017Y-77335306D01*
X97610075Y-77227765D01*
X98801001Y-78418692D01*
G37*
X98801001Y-78418692D02*
X98801000Y-85049365D01*
X98787214Y-85020591D01*
X98661936Y-84862530D01*
X98504754Y-84736151D01*
X98323477Y-84647736D01*
X98127119Y-84601681D01*
X97925435Y-84600273D01*
X97728452Y-84643583D01*
X97548350Y-84728332D01*
X97537663Y-84712337D01*
X97405682Y-84624151D01*
X97259751Y-84595123D01*
X96240249Y-84595123D01*
X96094318Y-84624151D01*
X95962337Y-84712337D01*
X95903095Y-84801000D01*
X93889537Y-84801000D01*
X93037536Y-83949000D01*
X95530751Y-83949000D01*
X95569007Y-83957236D01*
X95638591Y-83949000D01*
X95653874Y-83949000D01*
X95691479Y-83942740D01*
X95787966Y-83931320D01*
X95798884Y-83924864D01*
X95813127Y-83922493D01*
X96003273Y-83819895D01*
X96068607Y-83749217D01*
X97355962Y-82461862D01*
X97388836Y-82440637D01*
X97432217Y-82385608D01*
X97443022Y-82374802D01*
X97465175Y-82343802D01*
X97525339Y-82267483D01*
X97528494Y-82255196D01*
X97536889Y-82243448D01*
X97598795Y-82036449D01*
X97595017Y-81940288D01*
X97595017Y-77710614D01*
X97645017Y-77556728D01*
X97645017Y-77335306D01*
X97610075Y-77227765D01*
X98801001Y-78418692D01*
M02*
