G04 #@! TF.GenerationSoftware,KiCad,Pcbnew,5.99.0-unknown-89e9857~86~ubuntu18.04.1*
G04 #@! TF.CreationDate,2019-10-10T16:09:35-04:00*
G04 #@! TF.ProjectId,node_base,6e6f6465-5f62-4617-9365-2e6b69636164,rev?*
G04 #@! TF.SameCoordinates,Original*
G04 #@! TF.FileFunction,Copper,L2,Bot*
G04 #@! TF.FilePolarity,Positive*
%FSLAX46Y46*%
G04 Gerber Fmt 4.6, Leading zero omitted, Abs format (unit mm)*
G04 Created by KiCad (PCBNEW 5.99.0-unknown-89e9857~86~ubuntu18.04.1) date 2019-10-10 16:09:35*
%MOMM*%
%LPD*%
G04 APERTURE LIST*
%ADD10C,3.000000*%
%ADD11O,1.700000X1.700000*%
%ADD12R,1.700000X1.700000*%
%ADD13O,1.000000X1.000000*%
%ADD14R,1.000000X1.000000*%
%ADD15C,1.200000*%
%ADD16O,1.200000X1.900000*%
%ADD17C,1.450000*%
%ADD18C,1.000000*%
%ADD19C,0.600000*%
%ADD20C,0.200000*%
%ADD21C,0.400000*%
%ADD22C,0.300000*%
%ADD23C,0.600000*%
G04 APERTURE END LIST*
D10*
X156450000Y-80352000D03*
X156450000Y-99650000D03*
X83550000Y-99650000D03*
X83550000Y-80350000D03*
D11*
X102080000Y-73000000D03*
X99540000Y-73000000D03*
D12*
X97000000Y-73000000D03*
D13*
X106700000Y-72290000D03*
X106700000Y-73560000D03*
X106700000Y-74830000D03*
D14*
X106700000Y-76100000D03*
D15*
X138400000Y-75300000D03*
D16*
X121500000Y-108537500D03*
X114500000Y-108537500D03*
D17*
X120500000Y-105837500D03*
X115500000Y-105837500D03*
D13*
X110900000Y-72360000D03*
X110900000Y-73630000D03*
D14*
X110900000Y-74900000D03*
D13*
X111150000Y-80400000D03*
X109880000Y-80400000D03*
X108610000Y-80400000D03*
X107340000Y-80400000D03*
X106070000Y-80400000D03*
D14*
X104800000Y-80400000D03*
D13*
X112100000Y-86150000D03*
X112100000Y-87420000D03*
X112100000Y-88690000D03*
X112100000Y-89960000D03*
X112100000Y-91230000D03*
D14*
X112100000Y-92500000D03*
D18*
X107000000Y-107000000D03*
X99000000Y-107000000D03*
D13*
X129330000Y-107000000D03*
X130600000Y-107000000D03*
X131870000Y-107000000D03*
X133140000Y-107000000D03*
X134410000Y-107000000D03*
X135680000Y-107000000D03*
X136950000Y-107000000D03*
X138220000Y-107000000D03*
X139490000Y-107000000D03*
X140760000Y-107000000D03*
X142030000Y-107000000D03*
X143300000Y-107000000D03*
X144570000Y-107000000D03*
X145840000Y-107000000D03*
X147110000Y-107000000D03*
X148380000Y-107000000D03*
X149650000Y-107000000D03*
X150920000Y-107000000D03*
X152190000Y-107000000D03*
X153460000Y-107000000D03*
X154730000Y-107000000D03*
D14*
X156000000Y-107000000D03*
D13*
X129330000Y-73000000D03*
X130600000Y-73000000D03*
X131870000Y-73000000D03*
X133140000Y-73000000D03*
X134410000Y-73000000D03*
X135680000Y-73000000D03*
X136950000Y-73000000D03*
X138220000Y-73000000D03*
X139490000Y-73000000D03*
X140760000Y-73000000D03*
X142030000Y-73000000D03*
X143300000Y-73000000D03*
X144570000Y-73000000D03*
X145840000Y-73000000D03*
X147110000Y-73000000D03*
X148380000Y-73000000D03*
X149650000Y-73000000D03*
X150920000Y-73000000D03*
X152190000Y-73000000D03*
X153460000Y-73000000D03*
X154730000Y-73000000D03*
D14*
X156000000Y-73000000D03*
D16*
X114500000Y-71462500D03*
X121500000Y-71462500D03*
D17*
X115500000Y-74162500D03*
X120500000Y-74162500D03*
D13*
X115800000Y-101670000D03*
D14*
X115800000Y-100400000D03*
D19*
X130850000Y-98200000D03*
X131500000Y-97547396D03*
X127900000Y-93499979D03*
X126500021Y-93122126D03*
X114600000Y-97400000D03*
X120999999Y-85900001D03*
X121000000Y-87800000D03*
X106700000Y-84800000D03*
X100000000Y-90200000D03*
X154800000Y-82900000D03*
X136300000Y-104800000D03*
X87800000Y-71900000D03*
X84500000Y-91200000D03*
X92200000Y-92300000D03*
X107800000Y-99200000D03*
X97700000Y-98500000D03*
X142000000Y-74500000D03*
X121500000Y-83400000D03*
X113841116Y-85858584D03*
X114500000Y-87700000D03*
X114500000Y-88700000D03*
X113900000Y-89300000D03*
X125400000Y-83700000D03*
X129200000Y-86500009D03*
X136300000Y-84900010D03*
X127500000Y-88900043D03*
X124099979Y-77200000D03*
X125100000Y-85500000D03*
X139900000Y-84100000D03*
X139100000Y-86000000D03*
X141900000Y-84200000D03*
X142100033Y-82500000D03*
X139200000Y-89000000D03*
X137300000Y-88200000D03*
X137975723Y-86899990D03*
X143800021Y-86300000D03*
X143800010Y-88530264D03*
X139300000Y-90900000D03*
X122586962Y-93385802D03*
X126945326Y-92402820D03*
X128300000Y-89799990D03*
X105402862Y-90905553D03*
X101200000Y-90800000D03*
X113300000Y-98100000D03*
X111300000Y-99200000D03*
X101904522Y-90255978D03*
X104414224Y-90372416D03*
X102650000Y-89850000D03*
X103600000Y-90200000D03*
X125799999Y-99799999D03*
X129300000Y-92000000D03*
X128700000Y-93300000D03*
X130400000Y-93900000D03*
X131400000Y-93900000D03*
X114224272Y-101824272D03*
X129914886Y-90185114D03*
X130200000Y-91700000D03*
X89000000Y-94100000D03*
X137800000Y-100400000D03*
X133400000Y-100300000D03*
X147800000Y-79700000D03*
X149500013Y-80500000D03*
X148700000Y-80500000D03*
X121000000Y-101400000D03*
X92500000Y-77900000D03*
X134000000Y-86900000D03*
X139800021Y-82900000D03*
X118500000Y-83300000D03*
X114300000Y-92300000D03*
X120600002Y-97399998D03*
X119575734Y-97000000D03*
X98700000Y-76400000D03*
X151800000Y-97000000D03*
X149900000Y-97600000D03*
X93000000Y-98600000D03*
X142115405Y-86700000D03*
X118718750Y-75818750D03*
X119400000Y-80100000D03*
X133850000Y-93750000D03*
X144144265Y-75544265D03*
X124000000Y-81900000D03*
X126328332Y-82313204D03*
X127128292Y-82304078D03*
X128800000Y-82300000D03*
X127999995Y-82303422D03*
X129700000Y-82300000D03*
X101500000Y-79900000D03*
X142900000Y-76200000D03*
X144400000Y-82400000D03*
X137391294Y-84899988D03*
X130500000Y-86600032D03*
X140400000Y-91400000D03*
X147200000Y-82800000D03*
X148000000Y-82800000D03*
X144100000Y-89300000D03*
X119799990Y-82700000D03*
X131100000Y-88600000D03*
X126579255Y-86099990D03*
X94600000Y-73900000D03*
X125911834Y-97340094D03*
X139112607Y-92558466D03*
X139900000Y-92700000D03*
X140300000Y-93500000D03*
X137300000Y-96500000D03*
X96387845Y-101685414D03*
X96900000Y-102300000D03*
X133800000Y-89600000D03*
X132900000Y-89900001D03*
X128463014Y-88869211D03*
X110000000Y-76900000D03*
X122700000Y-74900000D03*
X121500000Y-102625020D03*
X138500000Y-96500000D03*
X145393750Y-82893750D03*
X130564140Y-82287316D03*
X138099990Y-86100000D03*
X143500000Y-79500000D03*
X133000000Y-87900000D03*
X124000000Y-98900000D03*
X125401097Y-97998850D03*
X123200000Y-98900000D03*
X122200000Y-99400000D03*
X128099681Y-97899990D03*
X133900000Y-99400000D03*
X143100000Y-104800000D03*
X138800000Y-104800000D03*
X129200000Y-100000000D03*
X127599978Y-99799982D03*
X122500000Y-96800000D03*
X113200000Y-79900000D03*
X120900000Y-79200000D03*
X97100000Y-88600000D03*
X82300000Y-76700000D03*
X91500000Y-80400000D03*
X90600000Y-88500000D03*
X138100000Y-80900000D03*
X152900000Y-101000000D03*
X154100000Y-76600000D03*
D20*
X133052624Y-97547396D02*
X133800020Y-96800000D01*
X133800020Y-96800000D02*
X134446809Y-96800000D01*
X131500000Y-97547396D02*
X133052624Y-97547396D01*
X134446809Y-96800000D02*
X138688343Y-92558466D01*
X138688343Y-92558466D02*
X139112607Y-92558466D01*
X130850000Y-98200000D02*
X133434302Y-98200000D01*
X133434302Y-98200000D02*
X134134302Y-97500000D01*
X134134302Y-97500000D02*
X134600000Y-97500000D01*
X112408884Y-101685414D02*
X114894310Y-99199988D01*
X115231401Y-99599999D02*
X119531389Y-95300011D01*
X119531389Y-95300011D02*
X126099968Y-95300011D01*
X126099968Y-95300011D02*
X127600001Y-93799978D01*
X114894310Y-99199988D02*
X115065712Y-99199988D01*
X112431400Y-102300000D02*
X115131401Y-99599999D01*
X96387845Y-101685414D02*
X112408884Y-101685414D01*
X128299977Y-92899977D02*
X128400001Y-93000001D01*
X127600001Y-93799978D02*
X127900000Y-93499979D01*
X125611975Y-94900000D02*
X127611998Y-92899977D01*
X127611998Y-92899977D02*
X128299977Y-92899977D01*
X128400001Y-93000001D02*
X128700000Y-93300000D01*
X119365700Y-94900000D02*
X125611975Y-94900000D01*
X115065712Y-99199988D02*
X119365700Y-94900000D01*
X115131401Y-99599999D02*
X115231401Y-99599999D01*
X96900000Y-102300000D02*
X112431400Y-102300000D01*
X114728621Y-98799977D02*
X114900023Y-98799977D01*
X126200022Y-93422125D02*
X126500021Y-93122126D01*
X112528598Y-101000000D02*
X114728621Y-98799977D01*
X114900023Y-98799977D02*
X119200000Y-94500000D01*
X89000000Y-95488002D02*
X94511998Y-101000000D01*
X119200000Y-94500000D02*
X125122147Y-94500000D01*
X125122147Y-94500000D02*
X126200022Y-93422125D01*
X94511998Y-101000000D02*
X112528598Y-101000000D01*
X89000000Y-94100000D02*
X89000000Y-95488002D01*
X108863501Y-95741485D02*
X108863502Y-95707897D01*
X110056428Y-96212032D02*
X110023681Y-96219506D01*
X108411516Y-95335781D02*
X108340805Y-95265070D01*
X108870975Y-95774233D02*
X108863501Y-95741485D01*
X110090017Y-96212032D02*
X110056428Y-96212032D01*
X108437778Y-95356723D02*
X108411516Y-95335781D01*
X108863502Y-95707897D02*
X108870975Y-95675149D01*
X110023681Y-96219506D02*
X109993418Y-96234080D01*
X108340805Y-95265070D02*
X108319862Y-95238809D01*
X109003466Y-95922411D02*
X108977204Y-95901469D01*
X108885550Y-95804497D02*
X108870975Y-95774233D01*
X109100064Y-95944458D02*
X109066476Y-95944459D01*
X108885550Y-95644887D02*
X108906493Y-95618626D01*
X109698500Y-96502673D02*
X109665752Y-96510146D01*
X108906493Y-95830758D02*
X108885550Y-95804497D01*
X109132812Y-95936985D02*
X109100064Y-95944458D01*
X109524329Y-95646345D02*
X109490740Y-95646345D01*
X108870975Y-95675149D02*
X108885550Y-95644887D01*
X109728762Y-96488098D02*
X109698500Y-96502673D01*
X108319862Y-95238809D02*
X108305287Y-95208545D01*
X108977204Y-95901469D02*
X108906493Y-95830758D01*
X109163074Y-95922410D02*
X109132812Y-95936985D01*
X109557077Y-95653819D02*
X109524329Y-95646345D01*
X109189336Y-95901469D02*
X109163074Y-95922410D01*
X109033728Y-95936984D02*
X109003466Y-95922411D01*
X109401469Y-95689336D02*
X109189336Y-95901469D01*
X109066476Y-95944459D02*
X109033728Y-95936984D01*
X109427730Y-95668393D02*
X109401469Y-95689336D01*
X109684312Y-95760047D02*
X109613601Y-95689336D01*
X109490740Y-95646345D02*
X109457993Y-95653819D01*
X110292990Y-96415006D02*
X110285516Y-96382259D01*
X108305287Y-95109461D02*
X108319862Y-95079199D01*
X109613601Y-95689336D02*
X109587340Y-95668393D01*
X109727302Y-95849319D02*
X109719828Y-95816572D01*
X108468040Y-95371296D02*
X108437778Y-95356723D01*
X109587340Y-95668393D02*
X109557077Y-95653819D01*
X109727302Y-95882908D02*
X109727302Y-95849319D01*
X108500788Y-95378771D02*
X108468040Y-95371296D01*
X109436663Y-96240837D02*
X109451238Y-96210575D01*
X109429190Y-96273585D02*
X109436663Y-96240837D01*
X109429189Y-96307173D02*
X109429190Y-96273585D01*
X109436663Y-96339921D02*
X109429189Y-96307173D01*
X109719828Y-95915655D02*
X109727302Y-95882908D01*
X110214483Y-96594392D02*
X110229057Y-96564129D01*
X109705254Y-95945918D02*
X109719828Y-95915655D01*
X110207009Y-96627139D02*
X110214483Y-96594392D01*
X109719828Y-95816572D02*
X109705254Y-95786309D01*
X109472181Y-96184314D02*
X109684312Y-95972179D01*
X110214483Y-96693475D02*
X110207009Y-96660728D01*
X109457993Y-95653819D02*
X109427730Y-95668393D01*
X109569154Y-96488099D02*
X109542892Y-96467157D01*
X110285516Y-96382259D02*
X110270942Y-96351996D01*
X108319862Y-95079199D02*
X108361747Y-95026676D01*
X110250000Y-96750000D02*
X110229057Y-96723738D01*
X110285516Y-96481342D02*
X110292990Y-96448595D01*
X108297813Y-95175797D02*
X108297814Y-95142209D01*
X129300000Y-92000000D02*
X128999999Y-91699999D01*
X109705254Y-95786309D02*
X109684312Y-95760047D01*
X109684312Y-95972179D02*
X109705254Y-95945918D01*
X110207009Y-96660728D02*
X110207009Y-96627139D01*
X125811997Y-91700001D02*
X119399999Y-91700001D01*
X109542892Y-96467157D02*
X109472181Y-96396446D01*
X110270942Y-96351996D02*
X110250000Y-96325734D01*
X110229057Y-96723738D02*
X110214483Y-96693475D01*
X109118624Y-95406491D02*
X109139566Y-95380230D01*
X110292990Y-96448595D02*
X110292990Y-96415006D01*
X108297814Y-95142209D02*
X108305287Y-95109461D01*
X109451238Y-96210575D02*
X109472181Y-96184314D01*
X108597386Y-95356722D02*
X108567124Y-95371297D01*
X110270942Y-96511605D02*
X110285516Y-96481342D01*
X108305287Y-95208545D02*
X108297813Y-95175797D01*
X108906493Y-95618626D02*
X109118624Y-95406491D01*
X110122765Y-96219506D02*
X110090017Y-96212032D01*
X128999999Y-91699999D02*
X125811999Y-91699999D01*
X110500000Y-97000000D02*
X110250000Y-96750000D01*
X110250000Y-96325734D02*
X110179289Y-96255023D01*
X109472181Y-96396446D02*
X109451238Y-96370185D01*
X109451238Y-96370185D02*
X109436663Y-96339921D01*
X110179289Y-96255023D02*
X110153028Y-96234080D01*
X109665752Y-96510146D02*
X109632164Y-96510147D01*
X110229057Y-96564129D02*
X110270942Y-96511605D01*
X119399999Y-91700001D02*
X114100000Y-97000000D01*
X114100000Y-97000000D02*
X110500000Y-97000000D01*
X110153028Y-96234080D02*
X110122765Y-96219506D01*
X125811999Y-91699999D02*
X125811997Y-91700001D01*
X109632164Y-96510147D02*
X109599416Y-96502672D01*
X109993418Y-96234080D02*
X109967157Y-96255023D01*
X109599416Y-96502672D02*
X109569154Y-96488099D01*
X109967157Y-96255023D02*
X109755024Y-96467157D01*
X109755024Y-96467157D02*
X109728762Y-96488098D01*
X109139566Y-95380230D02*
X109154140Y-95349967D01*
X109154140Y-95349967D02*
X109161614Y-95317220D01*
X109161614Y-95317220D02*
X109161614Y-95283631D01*
X109161614Y-95283631D02*
X109154140Y-95250884D01*
X109154140Y-95250884D02*
X109139566Y-95220621D01*
X109139566Y-95220621D02*
X109118624Y-95194359D01*
X109118624Y-95194359D02*
X109047913Y-95123648D01*
X109047913Y-95123648D02*
X109021652Y-95102705D01*
X109021652Y-95102705D02*
X108991389Y-95088131D01*
X108383795Y-94963666D02*
X108383794Y-94930076D01*
X108991389Y-95088131D02*
X108958641Y-95080657D01*
X108958641Y-95080657D02*
X108925052Y-95080657D01*
X108925052Y-95080657D02*
X108892305Y-95088131D01*
X108892305Y-95088131D02*
X108862042Y-95102705D01*
X108862042Y-95102705D02*
X108835781Y-95123648D01*
X108835781Y-95123648D02*
X108623648Y-95335781D01*
X108623648Y-95335781D02*
X108597386Y-95356722D01*
X108567124Y-95371297D02*
X108534376Y-95378770D01*
X108534376Y-95378770D02*
X108500788Y-95378771D01*
X108361747Y-95026676D02*
X108376320Y-94996412D01*
X108376320Y-94996412D02*
X108383795Y-94963666D01*
X108383794Y-94930076D02*
X108376321Y-94897330D01*
X108376321Y-94897330D02*
X108361746Y-94867066D01*
X108361746Y-94867066D02*
X108340804Y-94840804D01*
X108340804Y-94840804D02*
X105402862Y-91902862D01*
X105402862Y-91902862D02*
X105402862Y-91329817D01*
X105402862Y-91329817D02*
X105402862Y-90905553D01*
X108640000Y-81700000D02*
X110600000Y-81700000D01*
X114800001Y-85900001D02*
X120575735Y-85900001D01*
X120575735Y-85900001D02*
X120999999Y-85900001D01*
X110600000Y-81700000D02*
X114800001Y-85900001D01*
X107340000Y-80400000D02*
X108640000Y-81700000D01*
X128580611Y-87900022D02*
X122799978Y-87900022D01*
X133000000Y-87900000D02*
X132600011Y-87500011D01*
X122799978Y-87900022D02*
X122299999Y-88400001D01*
X122299999Y-88400001D02*
X115200001Y-88400001D01*
X129980590Y-89300001D02*
X128580611Y-87900022D01*
X114799999Y-87999999D02*
X114500000Y-87700000D01*
X133500001Y-89300001D02*
X129980590Y-89300001D01*
X115200001Y-88400001D02*
X114799999Y-87999999D01*
X121424264Y-87800000D02*
X121000000Y-87800000D01*
X121724253Y-87500011D02*
X121424264Y-87800000D01*
X133800000Y-89600000D02*
X133500001Y-89300001D01*
X132600011Y-87500011D02*
X121724253Y-87500011D01*
X100000000Y-89300000D02*
X104500000Y-84800000D01*
X100000000Y-90200000D02*
X100000000Y-89300000D01*
X104500000Y-84800000D02*
X106700000Y-84800000D01*
X111220000Y-87420000D02*
X107800000Y-84000000D01*
X94899999Y-74199999D02*
X94600000Y-73900000D01*
X112100000Y-87420000D02*
X111220000Y-87420000D01*
X107800000Y-84000000D02*
X104700000Y-84000000D01*
X104700000Y-84000000D02*
X94899999Y-74199999D01*
X132300000Y-78800000D02*
X139400000Y-78800000D01*
X128800000Y-82300000D02*
X132300000Y-78800000D01*
X139400000Y-78800000D02*
X143630000Y-74570000D01*
X143630000Y-74570000D02*
X144270000Y-74570000D01*
X144270000Y-74570000D02*
X145340001Y-73499999D01*
X145340001Y-73499999D02*
X145840000Y-73000000D01*
X136840000Y-76700000D02*
X139800000Y-76700000D01*
X139800000Y-76700000D02*
X141700001Y-74799999D01*
X133140000Y-73000000D02*
X136840000Y-76700000D01*
X141700001Y-74799999D02*
X142000000Y-74500000D01*
X140760000Y-73000000D02*
X140760000Y-73040000D01*
X140760000Y-73040000D02*
X138500000Y-75300000D01*
X113558284Y-85858584D02*
X109799710Y-82100010D01*
X113841116Y-85858584D02*
X113558284Y-85858584D01*
X107770010Y-82100010D02*
X106569999Y-80899999D01*
X109799710Y-82100010D02*
X107770010Y-82100010D01*
X106569999Y-80899999D02*
X106070000Y-80400000D01*
X123199967Y-88300033D02*
X122688011Y-88811989D01*
X127893836Y-88300033D02*
X123199967Y-88300033D01*
X115036253Y-88811989D02*
X114924264Y-88700000D01*
X122688011Y-88811989D02*
X115036253Y-88811989D01*
X114924264Y-88700000D02*
X114500000Y-88700000D01*
X128463014Y-88869211D02*
X127893836Y-88300033D01*
X127100043Y-89300000D02*
X113900000Y-89300000D01*
X127500000Y-88900043D02*
X127100043Y-89300000D01*
X125524276Y-85499988D02*
X125524264Y-85500000D01*
X111234002Y-79300000D02*
X109500000Y-79300000D01*
X113127106Y-87100000D02*
X128911989Y-87100000D01*
X128775736Y-86500009D02*
X129200000Y-86500009D01*
X128911989Y-87100000D02*
X128911999Y-87100010D01*
X128911999Y-87100010D02*
X130000022Y-87100010D01*
X130000022Y-87100010D02*
X130200001Y-86900031D01*
X108610000Y-80190000D02*
X108610000Y-80400000D01*
X110465997Y-80899999D02*
X110765999Y-81200001D01*
X111534001Y-81200001D02*
X111567001Y-81167001D01*
X111567001Y-81167001D02*
X115299988Y-84899988D01*
X137391294Y-84899988D02*
X137188002Y-84899988D01*
X112100000Y-87420000D02*
X112807106Y-87420000D01*
X115299988Y-84899988D02*
X136299978Y-84899988D01*
X136299978Y-84899988D02*
X136300000Y-84900010D01*
X138099990Y-86100000D02*
X136611986Y-86100000D01*
X125524264Y-85500000D02*
X125100000Y-85500000D01*
X136611986Y-86100000D02*
X136011974Y-85499988D01*
X126579255Y-86099990D02*
X127003519Y-86099990D01*
X116234002Y-84300000D02*
X111234002Y-79300000D01*
X137188002Y-84899988D02*
X136588014Y-84300000D01*
X136846276Y-86899990D02*
X137551459Y-86899990D01*
X110379999Y-80899999D02*
X110465997Y-80899999D01*
X135846285Y-85899999D02*
X136846276Y-86899990D01*
X110765999Y-81200001D02*
X111534001Y-81200001D01*
X136011974Y-85499988D02*
X125524276Y-85499988D01*
X113834002Y-86700000D02*
X128575745Y-86700000D01*
X136588014Y-84300000D02*
X116234002Y-84300000D01*
X137551459Y-86899990D02*
X137975723Y-86899990D01*
X130200001Y-86900031D02*
X130500000Y-86600032D01*
X110534002Y-83400000D02*
X113834002Y-86700000D01*
X127003519Y-86099990D02*
X127203510Y-85899999D01*
X109500000Y-79300000D02*
X108610000Y-80190000D01*
X127203510Y-85899999D02*
X135846285Y-85899999D01*
X105000000Y-83400000D02*
X110534002Y-83400000D01*
X112807106Y-87420000D02*
X113127106Y-87100000D01*
X109880000Y-80400000D02*
X110379999Y-80899999D01*
X128575745Y-86700000D02*
X128775736Y-86500009D01*
X101500000Y-79900000D02*
X105000000Y-83400000D01*
X135699990Y-91600010D02*
X133699990Y-91600010D01*
X140100013Y-85200013D02*
X140100013Y-87199987D01*
X140100013Y-87199987D02*
X135699990Y-91600010D01*
X148380000Y-73000000D02*
X139100011Y-82279989D01*
X139100011Y-84200011D02*
X140100013Y-85200013D01*
X139100011Y-82279989D02*
X139100011Y-84200011D01*
X133699990Y-91600010D02*
X131699999Y-93600001D01*
X131699999Y-93600001D02*
X131400000Y-93900000D01*
X139700002Y-85711998D02*
X139700002Y-87034298D01*
X130699999Y-93600001D02*
X130400000Y-93900000D01*
X139200000Y-89000000D02*
X140500023Y-87699977D01*
X134000000Y-86900000D02*
X134600000Y-87500000D01*
X146610001Y-74189999D02*
X138700000Y-82100000D01*
X140500023Y-84100010D02*
X141800034Y-82799999D01*
X146610001Y-73499999D02*
X146610001Y-74189999D01*
X140500023Y-87699977D02*
X140500023Y-84100010D01*
X138700000Y-82100000D02*
X138700000Y-84711996D01*
X147110000Y-73000000D02*
X146610001Y-73499999D01*
X134600000Y-87500000D02*
X138300000Y-87500000D01*
X141800034Y-82799999D02*
X142100033Y-82500000D01*
X133100000Y-91200000D02*
X130699999Y-93600001D01*
X135534301Y-91199999D02*
X133100000Y-91200000D01*
X138700000Y-84711996D02*
X139700002Y-85711998D01*
X139100000Y-86700000D02*
X139100000Y-86424264D01*
X138300000Y-87500000D02*
X139100000Y-86700000D01*
X139700002Y-87034298D02*
X135534301Y-91199999D01*
X139100000Y-86424264D02*
X139100000Y-86000000D01*
X142115405Y-86700000D02*
X142115405Y-84415405D01*
X142115405Y-84415405D02*
X141900000Y-84200000D01*
X136900000Y-88600000D02*
X137300000Y-88200000D01*
X131100000Y-88600000D02*
X136900000Y-88600000D01*
X142800000Y-81500000D02*
X142800000Y-87681400D01*
X143800010Y-88530264D02*
X143800010Y-86300011D01*
X142800000Y-87681400D02*
X140681378Y-89800022D01*
X125825361Y-97998850D02*
X125401097Y-97998850D01*
X149650000Y-73000000D02*
X149650000Y-74650000D01*
X126141080Y-97998850D02*
X125825361Y-97998850D01*
X126511835Y-97588165D02*
X126511835Y-97628095D01*
X143800010Y-86300011D02*
X143800021Y-86300000D01*
X126511835Y-97628095D02*
X126141080Y-97998850D01*
X128799956Y-95300044D02*
X126511835Y-97588165D01*
X139131367Y-90200033D02*
X134031354Y-95300044D01*
X141465667Y-90200033D02*
X139131367Y-90200033D01*
X134031354Y-95300044D02*
X128799956Y-95300044D01*
X140681378Y-89800022D02*
X138965678Y-89800022D01*
X149650000Y-74650000D02*
X142800000Y-81500000D01*
X138965678Y-89800022D02*
X136532850Y-92232850D01*
X143200011Y-88465689D02*
X141465667Y-90200033D01*
X143200011Y-81699989D02*
X143200011Y-88465689D01*
X150920000Y-73980000D02*
X143200011Y-81699989D01*
X150920000Y-73000000D02*
X150920000Y-73980000D01*
X144400000Y-82400000D02*
X144699999Y-82699999D01*
X144699999Y-88700001D02*
X144399999Y-89000001D01*
X144399999Y-89000001D02*
X144100000Y-89300000D01*
X144699999Y-82699999D02*
X144699999Y-88700001D01*
X138834303Y-91199999D02*
X139000001Y-91199999D01*
X95610001Y-71489999D02*
X87712499Y-79387501D01*
X107575997Y-71489999D02*
X95610001Y-71489999D01*
X116400000Y-103000000D02*
X121600012Y-97799988D01*
X121600012Y-97799988D02*
X124353692Y-97799988D01*
X124353692Y-97799988D02*
X125153704Y-98600000D01*
X129034311Y-95799989D02*
X134234313Y-95799989D01*
X95600000Y-103000000D02*
X116400000Y-103000000D01*
X126234300Y-98600000D02*
X129034311Y-95799989D01*
X87712499Y-95112499D02*
X95600000Y-103000000D01*
X134234313Y-95799989D02*
X138834303Y-91199999D01*
X110900000Y-74814002D02*
X107575997Y-71489999D01*
X125153704Y-98600000D02*
X126234300Y-98600000D01*
X139000001Y-91199999D02*
X139300000Y-90900000D01*
X87712499Y-79387501D02*
X87712499Y-95112499D01*
X110900000Y-74900000D02*
X110900000Y-74814002D01*
X116841885Y-91036448D02*
X116814556Y-91049609D01*
X116956876Y-90926259D02*
X116865599Y-91017537D01*
X116995699Y-90845642D02*
X116988950Y-90875215D01*
X116578250Y-90921750D02*
X116482466Y-90825966D01*
X116199622Y-91300375D02*
X115121602Y-92378398D01*
X116975789Y-90758408D02*
X116988950Y-90785737D01*
X116865599Y-91017537D02*
X116841885Y-91036448D01*
X117109477Y-90282073D02*
X117082148Y-90268912D01*
X116674033Y-91017537D02*
X116578250Y-90921754D01*
X116871371Y-90628624D02*
X116861091Y-90638909D01*
X116775588Y-90532841D02*
X116871371Y-90628624D01*
X128300000Y-89799990D02*
X117700010Y-89799990D01*
X116756676Y-90509126D02*
X116775588Y-90532841D01*
X116775588Y-90341275D02*
X116756676Y-90364990D01*
X117034717Y-90231086D02*
X117007387Y-90217926D01*
X116725078Y-91049609D02*
X116697749Y-91036448D01*
X116743515Y-90481797D02*
X116756676Y-90509126D01*
X117700010Y-89799990D02*
X117250000Y-90250000D01*
X116988950Y-90785737D02*
X116995698Y-90815310D01*
X116736765Y-90452224D02*
X116743515Y-90481797D01*
X116956875Y-90734693D02*
X116975789Y-90758408D01*
X116743515Y-90392319D02*
X116736765Y-90421891D01*
X116697749Y-91036448D02*
X116674033Y-91017537D01*
X116756676Y-90364990D02*
X116743515Y-90392319D01*
X116167549Y-90968286D02*
X116160799Y-90997858D01*
X116736765Y-90421891D02*
X116736765Y-90452224D01*
X116754650Y-91056360D02*
X116725078Y-91049609D01*
X116861091Y-90638909D02*
X116956875Y-90734693D01*
X117198955Y-90282073D02*
X117169383Y-90288822D01*
X116314614Y-90807053D02*
X116290899Y-90825966D01*
X116947482Y-90211176D02*
X116917910Y-90217926D01*
X117226284Y-90268912D02*
X117198955Y-90282073D01*
X117250000Y-90250000D02*
X117226284Y-90268912D01*
X116988950Y-90875215D02*
X116975789Y-90902544D01*
X116431421Y-90793892D02*
X116401849Y-90787143D01*
X117082148Y-90268912D02*
X117034717Y-90231086D01*
X116995698Y-90815310D02*
X116995699Y-90845642D01*
X116890581Y-90231086D02*
X116866865Y-90249999D01*
X106600000Y-88700000D02*
X103800000Y-88700000D01*
X117007387Y-90217926D02*
X116977815Y-90211176D01*
X116290899Y-90825966D02*
X116199622Y-90917242D01*
X117139050Y-90288822D02*
X117109477Y-90282073D01*
X116977815Y-90211176D02*
X116947482Y-90211176D01*
X117169383Y-90288822D02*
X117139050Y-90288822D01*
X116199622Y-90917242D02*
X116180710Y-90940957D01*
X116917910Y-90217926D02*
X116890581Y-90231086D01*
X116975789Y-90902544D02*
X116956876Y-90926259D01*
X116866865Y-90249999D02*
X116775588Y-90341275D01*
X116814556Y-91049609D02*
X116784984Y-91056359D01*
X116784984Y-91056359D02*
X116754650Y-91056360D01*
X116578250Y-90921754D02*
X116578250Y-90921750D01*
X116458750Y-90807053D02*
X116431421Y-90793892D01*
X116482466Y-90825966D02*
X116458750Y-90807053D01*
X116401849Y-90787143D02*
X116371516Y-90787143D01*
X116371516Y-90787143D02*
X116341943Y-90793892D01*
X116341943Y-90793892D02*
X116314614Y-90807053D01*
X116180710Y-90940957D02*
X116167549Y-90968286D01*
X116160799Y-90997858D02*
X116160799Y-91028191D01*
X116160799Y-91028191D02*
X116167549Y-91057764D01*
X116231695Y-91159853D02*
X116238445Y-91189425D01*
X116167549Y-91057764D02*
X116180710Y-91085093D01*
X116180710Y-91085093D02*
X116218535Y-91132523D01*
X116218535Y-91132523D02*
X116231695Y-91159853D01*
X116218535Y-91276659D02*
X116199622Y-91300375D01*
X116238445Y-91189425D02*
X116238445Y-91219758D01*
X116238445Y-91219758D02*
X116231695Y-91249330D01*
X116231695Y-91249330D02*
X116218535Y-91276659D01*
X115121602Y-92378398D02*
X113500000Y-94000000D01*
X113500000Y-94000000D02*
X111900000Y-94000000D01*
X111900000Y-94000000D02*
X106600000Y-88700000D01*
X103800000Y-88700000D02*
X102650000Y-89850000D01*
X119148490Y-93985812D02*
X124614188Y-93985812D01*
X118400000Y-94500000D02*
X118634302Y-94500000D01*
X118634302Y-94500000D02*
X119148490Y-93985812D01*
X112600000Y-100300000D02*
X118400000Y-94500000D01*
X94700000Y-100300000D02*
X112600000Y-100300000D01*
X93000000Y-98600000D02*
X94700000Y-100300000D01*
X126521062Y-92402820D02*
X126945326Y-92402820D01*
X124614188Y-93985812D02*
X126197180Y-92402820D01*
X126197180Y-92402820D02*
X126521062Y-92402820D01*
X120475690Y-96100044D02*
X119875733Y-96700001D01*
X126479276Y-97040095D02*
X126211833Y-97040095D01*
X128619338Y-94900033D02*
X126479276Y-97040095D01*
X119875733Y-96700001D02*
X119575734Y-97000000D01*
X126687938Y-95700033D02*
X128287960Y-94100011D01*
X133099978Y-94500022D02*
X128453649Y-94500022D01*
X128453649Y-94500022D02*
X126853627Y-96100044D01*
X126211833Y-97040095D02*
X125911834Y-97340094D01*
X128287960Y-94100011D02*
X129124254Y-94100011D01*
X129124254Y-94100011D02*
X132900000Y-90324265D01*
X119799967Y-95700033D02*
X126687938Y-95700033D01*
X115800000Y-100400000D02*
X115800000Y-99700000D01*
X126853627Y-96100044D02*
X120475690Y-96100044D01*
X133865667Y-94900033D02*
X128619338Y-94900033D01*
X136532850Y-92232850D02*
X133865667Y-94900033D01*
X133850000Y-93750000D02*
X133099978Y-94500022D01*
X132900000Y-90324265D02*
X132900000Y-89900001D01*
X115800000Y-99700000D02*
X119799967Y-95700033D01*
X112846603Y-95834367D02*
X112850000Y-95864515D01*
X112836582Y-95805731D02*
X112846603Y-95834367D01*
X112714515Y-95729030D02*
X112744663Y-95732427D01*
X111679558Y-95780042D02*
X111701011Y-95758589D01*
X112453396Y-95834367D02*
X112463417Y-95805731D01*
X113573299Y-95742448D02*
X113598988Y-95758589D01*
X113646603Y-95834367D02*
X113653396Y-95894664D01*
X112744663Y-95732427D02*
X112773299Y-95742448D01*
X112436582Y-96194269D02*
X112446603Y-96165633D01*
X112450000Y-95864515D02*
X112453396Y-95834367D01*
X113544663Y-95732427D02*
X113573299Y-95742448D01*
X112420441Y-96219958D02*
X112436582Y-96194269D01*
X112773299Y-95742448D02*
X112798988Y-95758589D01*
X112555336Y-95732427D02*
X112585485Y-95729030D01*
X113636582Y-95805731D02*
X113646603Y-95834367D01*
X112501011Y-95758589D02*
X112526700Y-95742448D01*
X111584473Y-96241411D02*
X111605926Y-96219958D01*
X113326700Y-95742448D02*
X113355336Y-95732427D01*
X112398988Y-96241411D02*
X112420441Y-96219958D01*
X111238881Y-96165633D02*
X111248902Y-96194269D01*
X112344663Y-96267573D02*
X112373299Y-96257552D01*
X112526700Y-95742448D02*
X112555336Y-95732427D01*
X112479558Y-95780042D02*
X112501011Y-95758589D01*
X112314515Y-96270970D02*
X112344663Y-96267573D01*
X113620441Y-95780042D02*
X113636582Y-95805731D01*
X112798988Y-95758589D02*
X112820441Y-95780042D01*
X112450000Y-96135485D02*
X112450000Y-95864515D01*
X112101011Y-96241411D02*
X112126700Y-96257552D01*
X112446603Y-96165633D02*
X112450000Y-96135485D01*
X112079558Y-96219958D02*
X112101011Y-96241411D01*
X112050000Y-96135485D02*
X112053396Y-96165633D01*
X113726700Y-95986583D02*
X113755336Y-95996604D01*
X112046603Y-95834367D02*
X112050000Y-95864515D01*
X112036582Y-95805731D02*
X112046603Y-95834367D01*
X111998988Y-95758589D02*
X112020441Y-95780042D01*
X112463417Y-95805731D02*
X112479558Y-95780042D01*
X111944663Y-95732427D02*
X111973299Y-95742448D01*
X111914515Y-95729030D02*
X111944663Y-95732427D01*
X112926700Y-96257552D02*
X112955336Y-96267573D01*
X112850000Y-95864515D02*
X112850000Y-96135485D01*
X111785485Y-95729030D02*
X111914515Y-95729030D01*
X112901011Y-96241411D02*
X112926700Y-96257552D01*
X111755336Y-95732427D02*
X111785485Y-95729030D01*
X112050000Y-95864515D02*
X112050000Y-96135485D01*
X111248902Y-96194269D02*
X111265043Y-96219958D01*
X112020441Y-95780042D02*
X112036582Y-95805731D01*
X112373299Y-96257552D02*
X112398988Y-96241411D01*
X106500000Y-91600000D02*
X110900000Y-96000000D01*
X111222067Y-96076700D02*
X111232088Y-96105336D01*
X104486640Y-90300000D02*
X105685311Y-90300000D01*
X114200000Y-96000000D02*
X119200000Y-91000000D01*
X111650000Y-96000000D02*
X111650000Y-95864515D01*
X111130148Y-96003396D02*
X111158784Y-96013417D01*
X111232088Y-96105336D02*
X111238881Y-96165633D01*
X111650000Y-95864515D02*
X111653396Y-95834367D01*
X111265043Y-96219958D02*
X111286496Y-96241411D01*
X111632088Y-96165633D02*
X111635485Y-96135485D01*
X111530148Y-96267573D02*
X111558784Y-96257552D01*
X111635485Y-96000000D02*
X111650000Y-96000000D01*
X111340821Y-96267573D02*
X111370970Y-96270970D01*
X111184473Y-96029558D02*
X111205926Y-96051011D01*
X111653396Y-95834367D02*
X111663417Y-95805731D01*
X106500000Y-91114689D02*
X106500000Y-91600000D01*
X111701011Y-95758589D02*
X111726700Y-95742448D01*
X112155336Y-96267573D02*
X112185485Y-96270970D01*
X104414224Y-90372416D02*
X104486640Y-90300000D01*
X105685311Y-90300000D02*
X106500000Y-91114689D01*
X113173299Y-96257552D02*
X113198988Y-96241411D01*
X113246603Y-96165633D02*
X113250000Y-96135485D01*
X111558784Y-96257552D02*
X111584473Y-96241411D01*
X111286496Y-96241411D02*
X111312185Y-96257552D01*
X111635485Y-96135485D02*
X111635485Y-96000000D01*
X112585485Y-95729030D02*
X112714515Y-95729030D01*
X111663417Y-95805731D02*
X111679558Y-95780042D01*
X111312185Y-96257552D02*
X111340821Y-96267573D01*
X111500000Y-96270970D02*
X111530148Y-96267573D01*
X111158784Y-96013417D02*
X111184473Y-96029558D01*
X111370970Y-96270970D02*
X111500000Y-96270970D01*
X112820441Y-95780042D02*
X112836582Y-95805731D01*
X112126700Y-96257552D02*
X112155336Y-96267573D01*
X111622067Y-96194269D02*
X111632088Y-96165633D01*
X111605926Y-96219958D02*
X111622067Y-96194269D01*
X111205926Y-96051011D02*
X111222067Y-96076700D01*
X111973299Y-95742448D02*
X111998988Y-95758589D01*
X113755336Y-95996604D02*
X113785485Y-96000000D01*
X111100000Y-96000000D02*
X111130148Y-96003396D01*
X110900000Y-96000000D02*
X111100000Y-96000000D01*
X112185485Y-96270970D02*
X112314515Y-96270970D01*
X112053396Y-96165633D02*
X112063417Y-96194269D01*
X112063417Y-96194269D02*
X112079558Y-96219958D01*
X111726700Y-95742448D02*
X111755336Y-95732427D01*
X112850000Y-96135485D02*
X112853396Y-96165633D01*
X113385485Y-95729030D02*
X113514515Y-95729030D01*
X112853396Y-96165633D02*
X112863417Y-96194269D01*
X113514515Y-95729030D02*
X113544663Y-95732427D01*
X112863417Y-96194269D02*
X112879558Y-96219958D01*
X112879558Y-96219958D02*
X112901011Y-96241411D01*
X112955336Y-96267573D02*
X112985485Y-96270970D01*
X112985485Y-96270970D02*
X113114515Y-96270970D01*
X113114515Y-96270970D02*
X113144663Y-96267573D01*
X113198988Y-96241411D02*
X113220441Y-96219958D01*
X113144663Y-96267573D02*
X113173299Y-96257552D01*
X113220441Y-96219958D02*
X113236582Y-96194269D01*
X113236582Y-96194269D02*
X113246603Y-96165633D01*
X113250000Y-96135485D02*
X113250000Y-95864515D01*
X113250000Y-95864515D02*
X113253396Y-95834367D01*
X113253396Y-95834367D02*
X113263417Y-95805731D01*
X113263417Y-95805731D02*
X113279558Y-95780042D01*
X113279558Y-95780042D02*
X113301011Y-95758589D01*
X113301011Y-95758589D02*
X113326700Y-95742448D01*
X113355336Y-95732427D02*
X113385485Y-95729030D01*
X113598988Y-95758589D02*
X113620441Y-95780042D01*
X113653396Y-95894664D02*
X113663417Y-95923300D01*
X113663417Y-95923300D02*
X113679558Y-95948989D01*
X113679558Y-95948989D02*
X113701011Y-95970442D01*
X113701011Y-95970442D02*
X113726700Y-95986583D01*
X113785485Y-96000000D02*
X114200000Y-96000000D01*
X119200000Y-91000000D02*
X129500000Y-91000000D01*
X129500000Y-91000000D02*
X130200000Y-91700000D01*
X109878268Y-93135880D02*
X109906554Y-93122258D01*
X108799999Y-92696537D02*
X108884573Y-92781111D01*
X114000000Y-94900000D02*
X118500000Y-90400000D01*
X109630910Y-93373299D02*
X109655455Y-93353725D01*
X109602625Y-93386920D02*
X109630910Y-93373299D01*
X109402872Y-92549589D02*
X109433480Y-92556576D01*
X109540624Y-93393906D02*
X109572018Y-93393906D01*
X109461764Y-92570197D02*
X109486310Y-92589772D01*
X109481732Y-93373299D02*
X109510017Y-93386920D01*
X109510017Y-93386920D02*
X109540624Y-93393906D01*
X109457187Y-93353725D02*
X109481732Y-93373299D01*
X109898113Y-93720002D02*
X109898113Y-93751396D01*
X109372613Y-93269151D02*
X109457187Y-93353725D01*
X109938295Y-93834833D02*
X110022869Y-93919407D01*
X109353039Y-93244606D02*
X109372613Y-93269151D01*
X109853724Y-93155455D02*
X109878268Y-93135880D01*
X109433480Y-92556576D02*
X109461764Y-92570197D01*
X109339417Y-93216321D02*
X109353039Y-93244606D01*
X109332431Y-93185714D02*
X109339417Y-93216321D01*
X109572018Y-93393906D02*
X109602625Y-93386920D01*
X109332431Y-93154320D02*
X109332431Y-93185714D01*
X109590457Y-92848068D02*
X109570884Y-92872614D01*
X108999404Y-92821292D02*
X109030011Y-92814306D01*
X109968554Y-93115271D02*
X109999162Y-93122258D01*
X109339417Y-93123713D02*
X109332431Y-93154320D01*
X109353039Y-93095427D02*
X109339417Y-93123713D01*
X110137700Y-93959588D02*
X110168307Y-93952602D01*
X109372613Y-93070882D02*
X109353039Y-93095427D01*
X110106306Y-93959588D02*
X110137700Y-93959588D01*
X109604078Y-92819783D02*
X109590457Y-92848068D01*
X109611065Y-92789177D02*
X109604078Y-92819783D01*
X109611065Y-92757783D02*
X109611065Y-92789177D01*
X109340872Y-92556576D02*
X109371478Y-92549589D01*
X109655455Y-93353725D02*
X109853724Y-93155455D01*
X109604078Y-92727175D02*
X109611065Y-92757783D01*
X109486310Y-92589772D02*
X109570884Y-92674346D01*
X108819573Y-92324544D02*
X108833195Y-92352830D01*
X109371478Y-92549589D02*
X109402872Y-92549589D01*
X109312586Y-92570198D02*
X109340872Y-92556576D01*
X110136566Y-93240028D02*
X110156139Y-93264572D01*
X109181975Y-92681976D02*
X109188907Y-92688907D01*
X109058296Y-92800685D02*
X109082841Y-92781110D01*
X109898113Y-93751396D02*
X109905099Y-93782003D01*
X109288042Y-92589773D02*
X109312586Y-92570198D01*
X110051992Y-93155454D02*
X110136566Y-93240028D01*
X129700000Y-90400000D02*
X129914886Y-90185114D01*
X109188907Y-92688907D02*
X109288042Y-92589773D01*
X108780425Y-92522813D02*
X108766803Y-92551098D01*
X109082841Y-92781110D02*
X109181975Y-92681976D01*
X103600000Y-90200000D02*
X104300000Y-89500000D01*
X109999162Y-93122258D02*
X110027446Y-93135879D01*
X110394861Y-93899832D02*
X110419406Y-93919406D01*
X109570884Y-92872614D02*
X109372613Y-93070882D01*
X108759818Y-92581705D02*
X108759818Y-92613100D01*
X108884573Y-92781111D02*
X108909118Y-92800685D01*
X108909118Y-92800685D02*
X108937403Y-92814306D01*
X109906554Y-93122258D02*
X109937160Y-93115271D01*
X118500000Y-90400000D02*
X129700000Y-90400000D01*
X106000000Y-89500000D02*
X108800000Y-92300000D01*
X109918721Y-93661109D02*
X109905099Y-93689395D01*
X109937160Y-93115271D02*
X109968554Y-93115271D01*
X108819573Y-92473723D02*
X108780425Y-92522813D01*
X108833195Y-92352830D02*
X108840181Y-92383437D01*
X108840181Y-92383437D02*
X108840181Y-92414831D01*
X110335969Y-93879225D02*
X110366576Y-93886210D01*
X104300000Y-89500000D02*
X106000000Y-89500000D01*
X108759818Y-92613100D02*
X108766803Y-92643707D01*
X109590457Y-92698890D02*
X109604078Y-92727175D01*
X109570884Y-92674346D02*
X109590457Y-92698890D01*
X108833195Y-92445438D02*
X108819573Y-92473723D01*
X108766803Y-92551098D02*
X108759818Y-92581705D01*
X108780425Y-92671992D02*
X108799999Y-92696537D01*
X109030011Y-92814306D02*
X109058296Y-92800685D01*
X108937403Y-92814306D02*
X108968010Y-92821292D01*
X108968010Y-92821292D02*
X108999404Y-92821292D01*
X110136566Y-93438296D02*
X109938295Y-93636564D01*
X108800000Y-92300000D02*
X108819573Y-92324544D01*
X108840181Y-92414831D02*
X108833195Y-92445438D01*
X109905099Y-93689395D02*
X109898113Y-93720002D01*
X108766803Y-92643707D02*
X108780425Y-92671992D01*
X110027446Y-93135879D02*
X110051992Y-93155454D01*
X110156139Y-93264572D02*
X110169760Y-93292857D01*
X110169760Y-93292857D02*
X110176747Y-93323465D01*
X110176747Y-93323465D02*
X110176747Y-93354859D01*
X110176747Y-93354859D02*
X110169760Y-93385465D01*
X110169760Y-93385465D02*
X110156139Y-93413750D01*
X110156139Y-93413750D02*
X110136566Y-93438296D01*
X109938295Y-93636564D02*
X109918721Y-93661109D01*
X109905099Y-93782003D02*
X109918721Y-93810288D01*
X109918721Y-93810288D02*
X109938295Y-93834833D01*
X110022869Y-93919407D02*
X110047414Y-93938981D01*
X110419406Y-93919406D02*
X111400000Y-94900000D01*
X110047414Y-93938981D02*
X110075699Y-93952602D01*
X110075699Y-93952602D02*
X110106306Y-93959588D01*
X110168307Y-93952602D02*
X110196592Y-93938981D01*
X110196592Y-93938981D02*
X110245682Y-93899832D01*
X110245682Y-93899832D02*
X110273967Y-93886210D01*
X110273967Y-93886210D02*
X110304574Y-93879225D01*
X110304574Y-93879225D02*
X110335969Y-93879225D01*
X110366576Y-93886210D02*
X110394861Y-93899832D01*
X111400000Y-94900000D02*
X114000000Y-94900000D01*
X106808516Y-94815578D02*
X106842104Y-94815577D01*
X106931376Y-94858567D02*
X107002086Y-94929277D01*
X106745506Y-94837626D02*
X106775768Y-94823051D01*
X106480853Y-95091645D02*
X106507114Y-95070702D01*
X107524777Y-95796362D02*
X107524778Y-95829952D01*
X106775768Y-94823051D02*
X106808516Y-94815578D01*
X107045077Y-95052138D02*
X107037604Y-95084886D01*
X106719246Y-94858569D02*
X106745506Y-94837626D01*
X106874852Y-94823052D02*
X106905114Y-94837625D01*
X106351506Y-95106219D02*
X106384254Y-95113693D01*
X106507114Y-95070702D02*
X106719246Y-94858569D01*
X106384254Y-95113693D02*
X106417843Y-95113693D01*
X106450590Y-95106219D02*
X106480853Y-95091645D01*
X106417843Y-95113693D02*
X106450590Y-95106219D01*
X107023029Y-94955538D02*
X107037604Y-94985802D01*
X106321243Y-95091645D02*
X106351506Y-95106219D01*
X107045078Y-95018550D02*
X107045077Y-95052138D01*
X106789953Y-95565674D02*
X106860663Y-95636384D01*
X106267262Y-94698588D02*
X106259788Y-94731335D01*
X106746963Y-95442813D02*
X106746963Y-95476402D01*
X106842104Y-94815577D02*
X106874852Y-94823052D01*
X106769011Y-95539412D02*
X106789953Y-95565674D01*
X106267262Y-94664999D02*
X106267262Y-94698588D01*
X106259788Y-94731335D02*
X106245214Y-94761598D01*
X107072795Y-95636384D02*
X107284928Y-95424251D01*
X107407786Y-95381259D02*
X107440534Y-95388734D01*
X106905114Y-94837625D02*
X106931376Y-94858567D01*
X107470796Y-95403307D02*
X107497058Y-95424249D01*
X106181281Y-94877131D02*
X106181281Y-94910720D01*
X107037604Y-94985802D02*
X107045078Y-95018550D01*
X106259788Y-94632252D02*
X106267262Y-94664999D01*
X106294982Y-95070702D02*
X106321243Y-95091645D01*
X106224272Y-94999992D02*
X106294982Y-95070702D01*
X106188755Y-94943467D02*
X106203329Y-94973730D01*
X106245214Y-94601989D02*
X106259788Y-94632252D01*
X106224272Y-94575728D02*
X106245214Y-94601989D01*
X101904522Y-90255978D02*
X106224272Y-94575728D01*
X107497058Y-95424249D02*
X107567768Y-95494959D01*
X106245214Y-94761598D02*
X106203329Y-94814121D01*
X107341450Y-95388733D02*
X107374198Y-95381260D01*
X106203329Y-94973730D02*
X106224272Y-94999992D01*
X106203329Y-94814121D02*
X106188755Y-94844384D01*
X106188755Y-94844384D02*
X106181281Y-94877131D01*
X106181281Y-94910720D02*
X106188755Y-94943467D01*
X107002086Y-94929277D02*
X107023029Y-94955538D01*
X107037604Y-95084886D02*
X107023029Y-95115148D01*
X106949935Y-95679375D02*
X106983524Y-95679375D01*
X107567768Y-95494959D02*
X107588711Y-95521220D01*
X107603286Y-95551484D02*
X107610760Y-95584232D01*
X107023029Y-95115148D02*
X107002086Y-95141409D01*
X107002086Y-95141409D02*
X106789953Y-95353542D01*
X106789953Y-95353542D02*
X106769011Y-95379803D01*
X106886924Y-95657327D02*
X106917187Y-95671901D01*
X106769011Y-95379803D02*
X106754437Y-95410066D01*
X106754437Y-95410066D02*
X106746963Y-95442813D01*
X106746963Y-95476402D02*
X106754437Y-95509149D01*
X107610759Y-95617820D02*
X107603286Y-95650568D01*
X106754437Y-95509149D02*
X106769011Y-95539412D01*
X106860663Y-95636384D02*
X106886924Y-95657327D01*
X107374198Y-95381260D02*
X107407786Y-95381259D01*
X106917187Y-95671901D02*
X106949935Y-95679375D01*
X106983524Y-95679375D02*
X107016271Y-95671901D01*
X107016271Y-95671901D02*
X107046534Y-95657327D01*
X107046534Y-95657327D02*
X107072795Y-95636384D01*
X107524778Y-95829952D02*
X107532251Y-95862698D01*
X107284928Y-95424251D02*
X107311188Y-95403308D01*
X107311188Y-95403308D02*
X107341450Y-95388733D01*
X107440534Y-95388734D02*
X107470796Y-95403307D01*
X107588711Y-95521220D02*
X107603286Y-95551484D01*
X107610760Y-95584232D02*
X107610759Y-95617820D01*
X107603286Y-95650568D02*
X107588711Y-95680830D01*
X107588711Y-95680830D02*
X107546825Y-95733352D01*
X107546825Y-95733352D02*
X107532252Y-95763616D01*
X107532252Y-95763616D02*
X107524777Y-95796362D01*
X107532251Y-95862698D02*
X107546826Y-95892962D01*
X107546826Y-95892962D02*
X107567768Y-95919223D01*
X109748544Y-98100000D02*
X113300000Y-98100000D01*
X107567768Y-95919223D02*
X109748544Y-98100000D01*
X111250000Y-99200000D02*
X111300000Y-99200000D01*
X101200000Y-90800000D02*
X109600000Y-99200000D01*
X109600000Y-99200000D02*
X111250000Y-99200000D01*
D21*
X126899994Y-99500001D02*
X126599996Y-99799999D01*
X126599996Y-99799999D02*
X125799999Y-99799999D01*
D22*
X129411985Y-99149981D02*
X127250014Y-99149981D01*
X127250014Y-99149981D02*
X126899994Y-99500001D01*
X129662004Y-99400000D02*
X129411985Y-99149981D01*
X133900000Y-99400000D02*
X129662004Y-99400000D01*
D20*
X95111999Y-103500001D02*
X87000000Y-95388002D01*
X121800001Y-98199999D02*
X116499999Y-103500001D01*
X87000000Y-95388002D02*
X87000000Y-79300000D01*
X127100000Y-98500000D02*
X126600000Y-99000000D01*
X87000000Y-79300000D02*
X95400000Y-70900000D01*
X116499999Y-103500001D02*
X95111999Y-103500001D01*
X95400000Y-70900000D02*
X108170000Y-70900000D01*
X110400001Y-73130001D02*
X110900000Y-73630000D01*
X124188003Y-98199999D02*
X121800001Y-98199999D01*
X124988004Y-99000000D02*
X124188003Y-98199999D01*
X129798415Y-98900000D02*
X129398415Y-98500000D01*
X137900001Y-95899999D02*
X137000001Y-95899999D01*
X140300000Y-93500000D02*
X137900001Y-95899999D01*
X126600000Y-99000000D02*
X124988004Y-99000000D01*
X129398415Y-98500000D02*
X127100000Y-98500000D01*
X137000001Y-95899999D02*
X134900000Y-98000000D01*
X134900000Y-98000000D02*
X134200000Y-98000000D01*
X108170000Y-70900000D02*
X110400001Y-73130001D01*
X134200000Y-98000000D02*
X133300000Y-98900000D01*
X133300000Y-98900000D02*
X129798415Y-98900000D01*
X148000000Y-82800000D02*
X149500013Y-81299987D01*
X149500013Y-81299987D02*
X149500013Y-80500000D01*
X147200000Y-82000000D02*
X148700000Y-80500000D01*
X147200000Y-82800000D02*
X147200000Y-82000000D01*
D23*
X140100000Y-82900000D02*
X139800021Y-82900000D01*
X143500000Y-79500000D02*
X140100000Y-82900000D01*
D20*
X121200000Y-96800000D02*
X120600002Y-97399998D01*
X122500000Y-96800000D02*
X121200000Y-96800000D01*
X97000000Y-73000000D02*
X97000000Y-74700000D01*
X97000000Y-74700000D02*
X98700000Y-76400000D01*
D23*
X156000000Y-73000000D02*
X154730000Y-73000000D01*
X156000000Y-107000000D02*
X154730000Y-107000000D01*
D20*
X151800000Y-97000000D02*
X150500000Y-97000000D01*
X150500000Y-97000000D02*
X149900000Y-97600000D01*
X118700000Y-78700000D02*
X119400000Y-79400000D01*
X106700000Y-72290000D02*
X113110000Y-78700000D01*
X119400000Y-79400000D02*
X119400000Y-80100000D01*
X113110000Y-78700000D02*
X118700000Y-78700000D01*
X129330000Y-73000000D02*
X126328332Y-76001668D01*
X126328332Y-76001668D02*
X126328332Y-81888940D01*
X126328332Y-81888940D02*
X126328332Y-82313204D01*
X127100000Y-82332370D02*
X127128292Y-82304078D01*
X130600000Y-73000000D02*
X127100000Y-76500000D01*
X127100000Y-76500000D02*
X127100000Y-82332370D01*
X136532850Y-92232850D02*
X136465699Y-92300000D01*
X127999995Y-82500005D02*
X127999995Y-82303422D01*
X127500000Y-83000000D02*
X127999995Y-82500005D01*
X124000000Y-81900000D02*
X125100000Y-83000000D01*
X125100000Y-83000000D02*
X127500000Y-83000000D01*
X119400000Y-80100000D02*
X119799990Y-80499990D01*
X119799990Y-80499990D02*
X119799990Y-82700000D01*
X139399989Y-93200011D02*
X139600001Y-92999999D01*
X139600001Y-92999999D02*
X139900000Y-92700000D01*
X138899989Y-93200011D02*
X139399989Y-93200011D01*
X134600000Y-97500000D02*
X138899989Y-93200011D01*
X147110000Y-107000000D02*
X137300000Y-97190000D01*
X137300000Y-97190000D02*
X137300000Y-96500000D01*
D23*
X107800000Y-76100000D02*
X108600000Y-76900000D01*
X106700000Y-76100000D02*
X107800000Y-76100000D01*
X108600000Y-76900000D02*
X110000000Y-76900000D01*
X153637097Y-71199991D02*
X125500009Y-71199991D01*
X154730000Y-73000000D02*
X154730000Y-72292894D01*
X154730000Y-72292894D02*
X153637097Y-71199991D01*
X125500009Y-71199991D02*
X122700000Y-74000000D01*
D20*
X128000000Y-71800000D02*
X123981250Y-75818750D01*
X144570000Y-73000000D02*
X143370000Y-71800000D01*
X123981250Y-75818750D02*
X118718750Y-75818750D01*
X143370000Y-71800000D02*
X128000000Y-71800000D01*
D23*
X122700000Y-74000000D02*
X122700000Y-74900000D01*
X144937106Y-96500000D02*
X138500000Y-96500000D01*
X154730000Y-107000000D02*
X154730000Y-106292894D01*
X154730000Y-106292894D02*
X146068553Y-97631447D01*
X146068553Y-83568553D02*
X145393750Y-82893750D01*
X146068553Y-97631447D02*
X144937106Y-96500000D01*
X146068553Y-97631447D02*
X146068553Y-83568553D01*
D20*
X129999999Y-82599999D02*
X129700000Y-82300000D01*
X130300000Y-82900000D02*
X129999999Y-82599999D01*
X139888530Y-79800000D02*
X133900000Y-79800000D01*
X142888529Y-76800001D02*
X139888530Y-79800000D01*
X133900000Y-79800000D02*
X130800000Y-82900000D01*
X143312793Y-76800001D02*
X142888529Y-76800001D01*
X144144265Y-75968529D02*
X143312793Y-76800001D01*
X144144265Y-75544265D02*
X144144265Y-75968529D01*
X133551456Y-79300000D02*
X130864139Y-81987317D01*
X130864139Y-81987317D02*
X130564140Y-82287316D01*
X139800000Y-79300000D02*
X133551456Y-79300000D01*
X142900000Y-76200000D02*
X139800000Y-79300000D01*
X130800000Y-82900000D02*
X130300000Y-82900000D01*
D23*
X144098245Y-108800000D02*
X153637106Y-108800000D01*
X144098222Y-108800023D02*
X144098245Y-108800000D01*
X128531778Y-108800023D02*
X144098222Y-108800023D01*
X154730000Y-107707106D02*
X154730000Y-107000000D01*
X128531755Y-108800000D02*
X128531778Y-108800023D01*
X121500000Y-102625020D02*
X121899999Y-103025019D01*
X153637106Y-108800000D02*
X154730000Y-107707106D01*
X121899999Y-103025019D02*
X121899999Y-103899999D01*
X121899999Y-103899999D02*
X126800000Y-108800000D01*
X126800000Y-108800000D02*
X128531755Y-108800000D01*
D20*
X124000000Y-102854002D02*
X124000000Y-99324264D01*
X124000000Y-99324264D02*
X124000000Y-98900000D01*
X128945999Y-107800001D02*
X124000000Y-102854002D01*
X143769999Y-107800001D02*
X128945999Y-107800001D01*
X144570000Y-107000000D02*
X143769999Y-107800001D01*
X145840000Y-107000000D02*
X144640011Y-108199989D01*
X143849713Y-108199989D02*
X143849690Y-108200012D01*
X144640011Y-108199989D02*
X143849713Y-108199989D01*
X143849690Y-108200012D02*
X128780310Y-108200012D01*
X123200000Y-99324264D02*
X123200000Y-98900000D01*
X123200000Y-102619702D02*
X123200000Y-99324264D01*
X128780310Y-108200012D02*
X123200000Y-102619702D01*
D23*
X122200000Y-101925020D02*
X121500000Y-102625020D01*
X122200000Y-99400000D02*
X122200000Y-101925020D01*
D20*
X138800000Y-91800000D02*
X134400001Y-96199999D01*
X129799672Y-96199999D02*
X128399680Y-97599991D01*
X140000000Y-91800000D02*
X138800000Y-91800000D01*
X140400000Y-91400000D02*
X140000000Y-91800000D01*
X128399680Y-97599991D02*
X128099681Y-97899990D01*
X134400001Y-96199999D02*
X129799672Y-96199999D01*
D23*
X143100000Y-104800000D02*
X138800000Y-104800000D01*
D20*
X127599978Y-100189978D02*
X127599978Y-99799982D01*
X134410000Y-107000000D02*
X127599978Y-100189978D01*
X135680000Y-107000000D02*
X129200000Y-100520000D01*
X129200000Y-100520000D02*
X129200000Y-100000000D01*
G36*
X95341292Y-70402902D02*
G01*
X95205300Y-70429953D01*
X95040241Y-70540241D01*
X95012402Y-70581905D01*
X86681906Y-78912402D01*
X86640242Y-78940241D01*
X86585753Y-79021790D01*
X86529953Y-79105301D01*
X86491224Y-79300000D01*
X86501001Y-79349151D01*
X86501000Y-95338856D01*
X86491224Y-95388002D01*
X86515639Y-95510741D01*
X86529953Y-95582701D01*
X86640241Y-95747761D01*
X86681908Y-95775602D01*
X94724401Y-103818096D01*
X94752240Y-103859760D01*
X94917299Y-103970048D01*
X95111998Y-104008777D01*
X95161144Y-103999001D01*
X116450853Y-103999001D01*
X116499999Y-104008777D01*
X116558707Y-103997099D01*
X116694699Y-103970048D01*
X116859758Y-103859760D01*
X116887599Y-103818093D01*
X121529561Y-99176132D01*
X121526925Y-99181305D01*
X121518212Y-99236314D01*
X121501000Y-99289289D01*
X121501000Y-99352780D01*
X121501001Y-101635483D01*
X121044634Y-102091851D01*
X120999571Y-102124591D01*
X120869423Y-102303725D01*
X120801000Y-102514309D01*
X120801000Y-102735731D01*
X120869423Y-102946315D01*
X120999571Y-103125449D01*
X121044638Y-103158192D01*
X121200999Y-103314554D01*
X121200999Y-103955413D01*
X121201000Y-103955419D01*
X121201000Y-104010709D01*
X121218211Y-104063681D01*
X121226925Y-104118695D01*
X121252210Y-104168317D01*
X121269423Y-104221294D01*
X121302161Y-104266353D01*
X121327448Y-104315982D01*
X121372341Y-104360876D01*
X126238535Y-109227071D01*
X126384017Y-109372552D01*
X126433644Y-109397838D01*
X126478705Y-109430576D01*
X126531669Y-109447785D01*
X126581305Y-109473075D01*
X126636321Y-109481789D01*
X126689289Y-109498999D01*
X126744580Y-109498999D01*
X126744586Y-109499000D01*
X128421042Y-109499000D01*
X128421113Y-109499023D01*
X144153636Y-109499023D01*
X144153642Y-109499022D01*
X144208868Y-109499022D01*
X144208936Y-109499000D01*
X153692520Y-109499000D01*
X153692526Y-109498999D01*
X153747816Y-109498999D01*
X153800784Y-109481789D01*
X153855801Y-109473075D01*
X153905437Y-109447785D01*
X153958401Y-109430576D01*
X154003463Y-109397837D01*
X154053089Y-109372552D01*
X154209931Y-109215711D01*
X154209932Y-109215709D01*
X155257658Y-108167984D01*
X155302552Y-108123089D01*
X155327838Y-108073462D01*
X155360576Y-108028401D01*
X155377787Y-107975433D01*
X155403075Y-107925801D01*
X155408950Y-107888705D01*
X155490249Y-107904877D01*
X156509751Y-107904877D01*
X156655682Y-107875849D01*
X156787663Y-107787663D01*
X156875849Y-107655682D01*
X156904877Y-107509751D01*
X156904877Y-106490249D01*
X156875849Y-106344318D01*
X156787663Y-106212337D01*
X156655682Y-106124151D01*
X156509751Y-106095123D01*
X155490249Y-106095123D01*
X155408950Y-106111295D01*
X155403075Y-106074199D01*
X155377787Y-106024567D01*
X155360576Y-105971599D01*
X155327838Y-105926538D01*
X155302552Y-105876911D01*
X155157071Y-105731429D01*
X150670372Y-101244730D01*
X155068817Y-101244730D01*
X155363030Y-101451891D01*
X155627763Y-101587070D01*
X155908901Y-101683599D01*
X156200836Y-101739553D01*
X156497743Y-101753814D01*
X156793696Y-101726099D01*
X157082792Y-101656959D01*
X157359263Y-101547777D01*
X157617590Y-101400728D01*
X157825895Y-101239442D01*
X156450000Y-99863546D01*
X155068817Y-101244730D01*
X150670372Y-101244730D01*
X149156424Y-99730782D01*
X154347195Y-99730782D01*
X154379556Y-100026264D01*
X154453227Y-100314238D01*
X154566740Y-100588959D01*
X154717828Y-100844945D01*
X154861657Y-101024796D01*
X156236454Y-99650000D01*
X156663546Y-99650000D01*
X158042541Y-101028994D01*
X158234595Y-100765138D01*
X158373916Y-100502562D01*
X158474849Y-100222974D01*
X158535700Y-99930423D01*
X158549449Y-99504757D01*
X158507604Y-99208888D01*
X158424923Y-98923370D01*
X158302837Y-98652350D01*
X158143783Y-98401235D01*
X158037257Y-98276290D01*
X156663546Y-99650000D01*
X156236454Y-99650000D01*
X154852696Y-98266243D01*
X154631259Y-98591467D01*
X154500254Y-98858290D01*
X154408152Y-99140910D01*
X154356791Y-99433688D01*
X154347195Y-99730782D01*
X149156424Y-99730782D01*
X146914931Y-97489289D01*
X149201000Y-97489289D01*
X149201000Y-97710711D01*
X149269423Y-97921295D01*
X149399571Y-98100429D01*
X149578705Y-98230577D01*
X149789289Y-98299000D01*
X150010711Y-98299000D01*
X150221295Y-98230577D01*
X150400429Y-98100429D01*
X150428068Y-98062386D01*
X155075933Y-98062386D01*
X156450000Y-99436454D01*
X157823746Y-98062707D01*
X157728134Y-97978268D01*
X157479835Y-97814856D01*
X157210986Y-97688059D01*
X156926955Y-97600408D01*
X156633407Y-97553652D01*
X156336199Y-97548723D01*
X156041262Y-97585721D01*
X155754480Y-97663907D01*
X155481576Y-97781720D01*
X155227994Y-97936811D01*
X155075933Y-98062386D01*
X150428068Y-98062386D01*
X150530577Y-97921295D01*
X150599000Y-97710711D01*
X150599000Y-97606692D01*
X150706693Y-97499000D01*
X151298532Y-97499000D01*
X151299570Y-97500429D01*
X151478705Y-97630577D01*
X151689289Y-97699000D01*
X151910711Y-97699000D01*
X152121295Y-97630577D01*
X152300429Y-97500429D01*
X152430577Y-97321295D01*
X152499000Y-97110711D01*
X152499000Y-96889289D01*
X152430577Y-96678705D01*
X152300429Y-96499571D01*
X152121295Y-96369423D01*
X151910711Y-96301000D01*
X151689289Y-96301000D01*
X151478705Y-96369423D01*
X151299570Y-96499571D01*
X151298532Y-96501000D01*
X150549145Y-96501000D01*
X150499999Y-96491224D01*
X150441292Y-96502902D01*
X150305300Y-96529953D01*
X150140241Y-96640241D01*
X150112402Y-96681905D01*
X149893308Y-96901000D01*
X149789289Y-96901000D01*
X149578705Y-96969423D01*
X149399571Y-97099571D01*
X149269423Y-97278705D01*
X149201000Y-97489289D01*
X146914931Y-97489289D01*
X146767553Y-97341912D01*
X146767553Y-83457842D01*
X146750341Y-83404872D01*
X146741628Y-83349858D01*
X146726360Y-83319892D01*
X146878705Y-83430577D01*
X147089289Y-83499000D01*
X147310711Y-83499000D01*
X147521295Y-83430577D01*
X147600000Y-83373395D01*
X147678705Y-83430577D01*
X147889289Y-83499000D01*
X148110711Y-83499000D01*
X148321295Y-83430577D01*
X148500429Y-83300429D01*
X148630577Y-83121295D01*
X148699000Y-82910711D01*
X148699000Y-82806692D01*
X149558962Y-81946730D01*
X155068817Y-81946730D01*
X155363030Y-82153891D01*
X155627763Y-82289070D01*
X155908901Y-82385599D01*
X156200836Y-82441553D01*
X156497743Y-82455814D01*
X156793696Y-82428099D01*
X157082792Y-82358959D01*
X157359263Y-82249777D01*
X157617590Y-82102728D01*
X157825895Y-81941442D01*
X156450000Y-80565546D01*
X155068817Y-81946730D01*
X149558962Y-81946730D01*
X149818109Y-81687584D01*
X149859772Y-81659746D01*
X149970060Y-81494687D01*
X149997111Y-81358695D01*
X150008789Y-81299987D01*
X149999013Y-81250841D01*
X149999013Y-81001468D01*
X150000442Y-81000430D01*
X150130590Y-80821295D01*
X150199013Y-80610711D01*
X150199013Y-80432782D01*
X154347195Y-80432782D01*
X154379556Y-80728264D01*
X154453227Y-81016238D01*
X154566740Y-81290959D01*
X154717828Y-81546945D01*
X154861657Y-81726796D01*
X156236454Y-80352000D01*
X156663546Y-80352000D01*
X158042541Y-81730994D01*
X158234595Y-81467138D01*
X158373916Y-81204562D01*
X158474849Y-80924974D01*
X158535700Y-80632423D01*
X158549449Y-80206757D01*
X158507604Y-79910888D01*
X158424923Y-79625370D01*
X158302837Y-79354350D01*
X158143783Y-79103235D01*
X158037257Y-78978290D01*
X156663546Y-80352000D01*
X156236454Y-80352000D01*
X154852696Y-78968243D01*
X154631259Y-79293467D01*
X154500254Y-79560290D01*
X154408152Y-79842910D01*
X154356791Y-80135688D01*
X154347195Y-80432782D01*
X150199013Y-80432782D01*
X150199013Y-80389289D01*
X150130590Y-80178705D01*
X150000442Y-79999571D01*
X149821308Y-79869423D01*
X149610724Y-79801000D01*
X149389302Y-79801000D01*
X149178718Y-79869423D01*
X149100007Y-79926610D01*
X149021295Y-79869423D01*
X148810711Y-79801000D01*
X148589289Y-79801000D01*
X148378705Y-79869423D01*
X148199571Y-79999571D01*
X148069423Y-80178705D01*
X148001000Y-80389289D01*
X148001000Y-80493306D01*
X146881904Y-81612403D01*
X146840241Y-81640242D01*
X146795533Y-81707153D01*
X146729953Y-81805301D01*
X146691224Y-82000000D01*
X146701001Y-82049151D01*
X146701001Y-82298532D01*
X146699571Y-82299571D01*
X146569423Y-82478705D01*
X146501000Y-82689289D01*
X146501000Y-82910711D01*
X146549975Y-83061440D01*
X145926921Y-82438385D01*
X145894179Y-82393320D01*
X145715045Y-82263173D01*
X145504461Y-82194750D01*
X145283039Y-82194750D01*
X145088790Y-82257865D01*
X145030577Y-82078705D01*
X144900429Y-81899571D01*
X144721295Y-81769423D01*
X144510711Y-81701000D01*
X144289289Y-81701000D01*
X144078705Y-81769423D01*
X143899571Y-81899571D01*
X143769423Y-82078705D01*
X143701000Y-82289289D01*
X143701000Y-82510711D01*
X143769423Y-82721295D01*
X143899571Y-82900429D01*
X144078705Y-83030577D01*
X144200999Y-83070313D01*
X144201000Y-85727317D01*
X144121316Y-85669423D01*
X143910732Y-85601000D01*
X143699011Y-85601000D01*
X143699011Y-81906681D01*
X146841306Y-78764386D01*
X155075933Y-78764386D01*
X156450000Y-80138454D01*
X157823746Y-78764707D01*
X157728134Y-78680268D01*
X157479835Y-78516856D01*
X157210986Y-78390059D01*
X156926955Y-78302408D01*
X156633407Y-78255652D01*
X156336199Y-78250723D01*
X156041262Y-78287721D01*
X155754480Y-78365907D01*
X155481576Y-78483720D01*
X155227994Y-78638811D01*
X155075933Y-78764386D01*
X146841306Y-78764386D01*
X151238098Y-74367596D01*
X151279759Y-74339759D01*
X151390047Y-74174700D01*
X151417098Y-74038708D01*
X151428776Y-73980001D01*
X151419000Y-73930855D01*
X151419000Y-73748324D01*
X151481941Y-73708994D01*
X151554959Y-73636485D01*
X151618214Y-73701079D01*
X151787746Y-73810336D01*
X151977600Y-73879436D01*
X152141667Y-73899000D01*
X152240664Y-73899000D01*
X152390431Y-73882201D01*
X152580901Y-73815872D01*
X152751941Y-73708994D01*
X152824959Y-73636485D01*
X152888214Y-73701079D01*
X153057746Y-73810336D01*
X153247600Y-73879436D01*
X153411667Y-73899000D01*
X153510664Y-73899000D01*
X153660431Y-73882201D01*
X153850901Y-73815872D01*
X154021941Y-73708994D01*
X154094959Y-73636485D01*
X154158214Y-73701079D01*
X154327746Y-73810336D01*
X154517600Y-73879436D01*
X154681667Y-73899000D01*
X154780664Y-73899000D01*
X154930431Y-73882201D01*
X155120901Y-73815872D01*
X155198702Y-73767257D01*
X155212337Y-73787663D01*
X155344318Y-73875849D01*
X155490249Y-73904877D01*
X156509751Y-73904877D01*
X156655682Y-73875849D01*
X156787663Y-73787663D01*
X156875849Y-73655682D01*
X156904877Y-73509751D01*
X156904877Y-72490249D01*
X156875849Y-72344318D01*
X156787663Y-72212337D01*
X156655682Y-72124151D01*
X156509751Y-72095123D01*
X155490249Y-72095123D01*
X155408951Y-72111295D01*
X155403075Y-72074199D01*
X155377786Y-72024565D01*
X155360576Y-71971598D01*
X155327837Y-71926536D01*
X155302552Y-71876911D01*
X155157071Y-71731429D01*
X154209923Y-70784282D01*
X154209922Y-70784280D01*
X154053080Y-70627439D01*
X154003454Y-70602154D01*
X153958392Y-70569415D01*
X153905428Y-70552206D01*
X153855792Y-70526916D01*
X153800775Y-70518202D01*
X153747807Y-70500992D01*
X153692517Y-70500992D01*
X153692511Y-70500991D01*
X125389298Y-70500991D01*
X125336328Y-70518203D01*
X125281314Y-70526916D01*
X125231682Y-70552204D01*
X125178714Y-70569415D01*
X125133653Y-70602153D01*
X125084026Y-70627439D01*
X125039131Y-70672333D01*
X122284291Y-73427174D01*
X122284289Y-73427175D01*
X122127448Y-73584018D01*
X122102163Y-73633643D01*
X122069424Y-73678705D01*
X122052214Y-73731672D01*
X122026925Y-73781306D01*
X122018211Y-73836322D01*
X122001001Y-73889290D01*
X122001001Y-73944581D01*
X122001000Y-73944587D01*
X122001000Y-75010711D01*
X122018213Y-75063689D01*
X122026926Y-75118696D01*
X122052208Y-75168314D01*
X122069423Y-75221295D01*
X122102167Y-75266364D01*
X122127449Y-75315983D01*
X122131216Y-75319750D01*
X121148364Y-75319750D01*
X121182674Y-75303164D01*
X121324253Y-75200300D01*
X120500000Y-74376046D01*
X119675269Y-75200778D01*
X119829309Y-75310250D01*
X119849497Y-75319750D01*
X119220218Y-75319750D01*
X119219180Y-75318321D01*
X119040045Y-75188173D01*
X118829461Y-75119750D01*
X118608039Y-75119750D01*
X118397455Y-75188173D01*
X118218321Y-75318321D01*
X118088173Y-75497455D01*
X118019750Y-75708039D01*
X118019750Y-75929461D01*
X118088173Y-76140045D01*
X118218321Y-76319179D01*
X118397455Y-76449327D01*
X118608039Y-76517750D01*
X118829461Y-76517750D01*
X119040045Y-76449327D01*
X119219180Y-76319179D01*
X119220218Y-76317750D01*
X123932104Y-76317750D01*
X123981250Y-76327526D01*
X124039958Y-76315848D01*
X124175950Y-76288797D01*
X124341009Y-76178509D01*
X124368850Y-76136842D01*
X128206693Y-72299000D01*
X128760009Y-72299000D01*
X128624947Y-72433122D01*
X128516876Y-72603413D01*
X128449220Y-72793415D01*
X128425340Y-72993684D01*
X128444863Y-73179444D01*
X126010240Y-75614068D01*
X125968573Y-75641909D01*
X125884184Y-75768208D01*
X125858285Y-75806969D01*
X125819556Y-76001668D01*
X125829332Y-76050814D01*
X125829333Y-81811735D01*
X125827903Y-81812774D01*
X125697755Y-81991909D01*
X125629332Y-82202493D01*
X125629332Y-82423915D01*
X125654378Y-82501000D01*
X125306693Y-82501000D01*
X124699000Y-81893308D01*
X124699000Y-81789289D01*
X124630577Y-81578705D01*
X124500429Y-81399571D01*
X124321295Y-81269423D01*
X124110711Y-81201000D01*
X123889289Y-81201000D01*
X123678705Y-81269423D01*
X123499571Y-81399571D01*
X123369423Y-81578705D01*
X123301000Y-81789289D01*
X123301000Y-82010711D01*
X123369423Y-82221295D01*
X123499571Y-82400429D01*
X123678705Y-82530577D01*
X123889289Y-82599000D01*
X123993308Y-82599000D01*
X124712402Y-83318095D01*
X124740241Y-83359759D01*
X124905300Y-83470047D01*
X125100000Y-83508776D01*
X125149146Y-83499000D01*
X127450854Y-83499000D01*
X127500000Y-83508776D01*
X127558708Y-83497098D01*
X127694700Y-83470047D01*
X127859758Y-83359760D01*
X127887599Y-83318094D01*
X128247822Y-82957871D01*
X128321290Y-82933999D01*
X128402353Y-82875104D01*
X128478705Y-82930577D01*
X128689289Y-82999000D01*
X128910711Y-82999000D01*
X129121295Y-82930577D01*
X129250000Y-82837068D01*
X129378705Y-82930577D01*
X129589289Y-82999000D01*
X129693309Y-82999000D01*
X129912403Y-83218095D01*
X129940240Y-83259759D01*
X130105300Y-83370047D01*
X130241292Y-83397098D01*
X130299999Y-83408776D01*
X130349145Y-83399000D01*
X130750854Y-83399000D01*
X130800000Y-83408776D01*
X130858708Y-83397098D01*
X130994700Y-83370047D01*
X131159759Y-83259759D01*
X131187600Y-83218092D01*
X134106693Y-80299000D01*
X139795308Y-80299000D01*
X138381908Y-81712400D01*
X138340241Y-81740241D01*
X138252451Y-81871630D01*
X138229953Y-81905301D01*
X138191224Y-82100000D01*
X138201000Y-82149146D01*
X138201001Y-84662845D01*
X138191224Y-84711996D01*
X138231970Y-84916835D01*
X138246312Y-84931178D01*
X138340242Y-85071755D01*
X138381908Y-85099595D01*
X139201002Y-85918691D01*
X139201003Y-86827604D01*
X137984364Y-88044243D01*
X137930577Y-87878705D01*
X137800429Y-87699571D01*
X137621295Y-87569423D01*
X137410711Y-87501000D01*
X137189289Y-87501000D01*
X136978705Y-87569423D01*
X136799571Y-87699571D01*
X136669423Y-87878705D01*
X136601000Y-88089289D01*
X136601000Y-88101000D01*
X133669663Y-88101000D01*
X133699000Y-88010711D01*
X133699000Y-87789289D01*
X133630577Y-87578705D01*
X133500429Y-87399571D01*
X133321295Y-87269423D01*
X133110711Y-87201000D01*
X133006692Y-87201000D01*
X132987610Y-87181918D01*
X132959770Y-87140252D01*
X132794711Y-87029964D01*
X132658719Y-87002913D01*
X132600011Y-86991235D01*
X132550865Y-87001011D01*
X131072683Y-87001011D01*
X131130577Y-86921327D01*
X131199000Y-86710743D01*
X131199000Y-86489321D01*
X131169653Y-86398999D01*
X135639593Y-86398999D01*
X136458678Y-87218085D01*
X136486517Y-87259749D01*
X136630389Y-87355881D01*
X136651578Y-87370037D01*
X136846276Y-87408766D01*
X136895422Y-87398990D01*
X137474255Y-87398990D01*
X137475293Y-87400419D01*
X137654428Y-87530567D01*
X137865012Y-87598990D01*
X138086434Y-87598990D01*
X138297018Y-87530567D01*
X138476152Y-87400419D01*
X138606300Y-87221285D01*
X138674723Y-87010701D01*
X138674723Y-86789279D01*
X138609362Y-86588120D01*
X138730567Y-86421295D01*
X138798990Y-86210711D01*
X138798990Y-85989289D01*
X138730567Y-85778705D01*
X138600419Y-85599571D01*
X138421285Y-85469423D01*
X138210701Y-85401000D01*
X137989279Y-85401000D01*
X137811346Y-85458814D01*
X137891723Y-85400417D01*
X138021871Y-85221283D01*
X138090294Y-85010699D01*
X138090294Y-84789277D01*
X138021871Y-84578693D01*
X137891723Y-84399559D01*
X137712589Y-84269411D01*
X137502005Y-84200988D01*
X137280583Y-84200988D01*
X137215757Y-84222051D01*
X136975615Y-83981910D01*
X136947773Y-83940241D01*
X136782714Y-83829953D01*
X136646722Y-83802902D01*
X136588014Y-83791224D01*
X136538868Y-83801000D01*
X116440695Y-83801000D01*
X111621602Y-78981908D01*
X111593761Y-78940241D01*
X111428702Y-78829953D01*
X111292710Y-78802902D01*
X111234002Y-78791224D01*
X111184856Y-78801000D01*
X109549145Y-78801000D01*
X109499999Y-78791224D01*
X109441292Y-78802902D01*
X109305300Y-78829953D01*
X109140241Y-78940241D01*
X109112402Y-78981905D01*
X108593308Y-79501000D01*
X108559336Y-79501000D01*
X108409569Y-79517799D01*
X108219099Y-79584128D01*
X108048059Y-79691006D01*
X107975041Y-79763515D01*
X107911786Y-79698921D01*
X107742254Y-79589664D01*
X107552400Y-79520564D01*
X107388333Y-79501000D01*
X107289336Y-79501000D01*
X107139569Y-79517799D01*
X106949099Y-79584128D01*
X106778059Y-79691006D01*
X106705041Y-79763515D01*
X106641786Y-79698921D01*
X106472254Y-79589664D01*
X106282400Y-79520564D01*
X106118333Y-79501000D01*
X106019336Y-79501000D01*
X105869569Y-79517799D01*
X105679099Y-79584128D01*
X105601298Y-79632743D01*
X105587663Y-79612337D01*
X105455682Y-79524151D01*
X105309751Y-79495123D01*
X104290249Y-79495123D01*
X104144318Y-79524151D01*
X104012337Y-79612337D01*
X103924151Y-79744318D01*
X103895123Y-79890249D01*
X103895123Y-80909751D01*
X103924151Y-81055682D01*
X104012337Y-81187663D01*
X104144318Y-81275849D01*
X104290249Y-81304877D01*
X105309751Y-81304877D01*
X105455682Y-81275849D01*
X105587663Y-81187663D01*
X105601179Y-81167435D01*
X105667746Y-81210335D01*
X105857600Y-81279436D01*
X106021667Y-81299000D01*
X106120664Y-81299000D01*
X106248921Y-81284614D01*
X106251939Y-81287632D01*
X106251942Y-81287634D01*
X107382412Y-82418105D01*
X107410251Y-82459769D01*
X107575310Y-82570057D01*
X107653147Y-82585540D01*
X107770010Y-82608786D01*
X107819156Y-82599010D01*
X109593018Y-82599010D01*
X109895008Y-82901000D01*
X105206694Y-82901000D01*
X102199000Y-79893308D01*
X102199000Y-79789289D01*
X102130577Y-79578705D01*
X102000429Y-79399571D01*
X101821295Y-79269423D01*
X101610711Y-79201000D01*
X101389289Y-79201000D01*
X101178705Y-79269423D01*
X100999571Y-79399571D01*
X100917805Y-79512112D01*
X98463976Y-77058283D01*
X98589289Y-77099000D01*
X98810711Y-77099000D01*
X99021295Y-77030577D01*
X99200429Y-76900429D01*
X99330577Y-76721295D01*
X99399000Y-76510711D01*
X99399000Y-76289289D01*
X99330577Y-76078705D01*
X99200429Y-75899571D01*
X99021295Y-75769423D01*
X98810711Y-75701000D01*
X98706693Y-75701000D01*
X97499000Y-74493308D01*
X97499000Y-74254877D01*
X97859751Y-74254877D01*
X98005682Y-74225849D01*
X98137663Y-74137663D01*
X98225849Y-74005682D01*
X98254877Y-73859751D01*
X98254877Y-72140249D01*
X98225849Y-71994318D01*
X98222295Y-71988999D01*
X98806264Y-71988999D01*
X98700681Y-72067842D01*
X98544863Y-72236405D01*
X98422372Y-72430540D01*
X98337311Y-72643747D01*
X98292529Y-72868885D01*
X98289523Y-73098414D01*
X98328398Y-73324648D01*
X98407849Y-73540008D01*
X98525215Y-73737284D01*
X98676567Y-73909869D01*
X98856836Y-74051980D01*
X99059984Y-74158861D01*
X99279831Y-74227126D01*
X99487944Y-74249000D01*
X99598149Y-74249000D01*
X99768586Y-74233339D01*
X99989516Y-74171030D01*
X100195392Y-74069503D01*
X100379319Y-73932158D01*
X100535137Y-73763595D01*
X100657628Y-73569460D01*
X100742689Y-73356253D01*
X100787471Y-73131115D01*
X100790477Y-72901586D01*
X100751602Y-72675352D01*
X100672151Y-72459992D01*
X100554785Y-72262716D01*
X100403433Y-72090131D01*
X100275146Y-71988999D01*
X101346264Y-71988999D01*
X101240681Y-72067842D01*
X101084863Y-72236405D01*
X100962372Y-72430540D01*
X100877311Y-72643747D01*
X100832529Y-72868885D01*
X100829523Y-73098414D01*
X100868398Y-73324648D01*
X100947849Y-73540008D01*
X101065215Y-73737284D01*
X101216567Y-73909869D01*
X101396836Y-74051980D01*
X101599984Y-74158861D01*
X101819831Y-74227126D01*
X102027944Y-74249000D01*
X102138149Y-74249000D01*
X102308586Y-74233339D01*
X102529516Y-74171030D01*
X102735392Y-74069503D01*
X102919319Y-73932158D01*
X103075137Y-73763595D01*
X103197628Y-73569460D01*
X103282689Y-73356253D01*
X103327471Y-73131115D01*
X103330477Y-72901586D01*
X103291602Y-72675352D01*
X103212151Y-72459992D01*
X103094785Y-72262716D01*
X102943433Y-72090131D01*
X102815146Y-71988999D01*
X105852840Y-71988999D01*
X105819220Y-72083415D01*
X105795340Y-72283684D01*
X105816421Y-72484267D01*
X105881418Y-72675195D01*
X105987100Y-72846979D01*
X106063525Y-72925021D01*
X105994947Y-72993122D01*
X105886876Y-73163413D01*
X105819220Y-73353415D01*
X105795340Y-73553684D01*
X105816421Y-73754267D01*
X105881418Y-73945195D01*
X105937392Y-74036179D01*
X105900032Y-74068200D01*
X105763190Y-74244616D01*
X105664616Y-74444944D01*
X105603649Y-74679000D01*
X107815481Y-74679000D01*
X107692867Y-74345746D01*
X107575215Y-74155993D01*
X107462332Y-74036622D01*
X107513124Y-73956587D01*
X107551926Y-73847618D01*
X109905308Y-76201000D01*
X108889536Y-76201000D01*
X108372826Y-75684291D01*
X108372825Y-75684289D01*
X108215983Y-75527448D01*
X108166357Y-75502163D01*
X108121295Y-75469424D01*
X108068331Y-75452215D01*
X108018695Y-75426925D01*
X107963678Y-75418211D01*
X107910710Y-75401001D01*
X107855420Y-75401001D01*
X107855414Y-75401000D01*
X107643888Y-75401000D01*
X107735384Y-75215056D01*
X107796351Y-74981000D01*
X105584519Y-74981000D01*
X105707133Y-75314254D01*
X105815316Y-75488736D01*
X105795123Y-75590249D01*
X105795123Y-76609751D01*
X105824151Y-76755682D01*
X105912337Y-76887663D01*
X106044318Y-76975849D01*
X106190249Y-77004877D01*
X107209751Y-77004877D01*
X107355682Y-76975849D01*
X107487663Y-76887663D01*
X107532309Y-76820844D01*
X108038535Y-77327071D01*
X108184017Y-77472552D01*
X108233644Y-77497838D01*
X108278705Y-77530576D01*
X108331673Y-77547787D01*
X108381305Y-77573075D01*
X108436319Y-77581788D01*
X108489289Y-77599000D01*
X110110711Y-77599000D01*
X110163685Y-77581788D01*
X110218695Y-77573075D01*
X110268325Y-77547788D01*
X110321295Y-77530577D01*
X110366360Y-77497836D01*
X110415983Y-77472552D01*
X110455366Y-77433170D01*
X110500429Y-77400429D01*
X110533170Y-77355366D01*
X110572552Y-77315983D01*
X110597836Y-77266360D01*
X110630577Y-77221295D01*
X110647788Y-77168325D01*
X110673075Y-77118695D01*
X110681788Y-77063685D01*
X110699000Y-77010711D01*
X110699000Y-76994692D01*
X112722402Y-79018095D01*
X112750241Y-79059759D01*
X112889434Y-79152764D01*
X112915300Y-79170047D01*
X113110000Y-79208776D01*
X113159146Y-79199000D01*
X118493309Y-79199000D01*
X118897175Y-79602868D01*
X118769423Y-79778705D01*
X118701000Y-79989289D01*
X118701000Y-80210711D01*
X118769423Y-80421295D01*
X118899571Y-80600429D01*
X119078705Y-80730577D01*
X119289289Y-80799000D01*
X119300990Y-80799000D01*
X119300991Y-82198532D01*
X119299561Y-82199571D01*
X119169413Y-82378705D01*
X119100990Y-82589289D01*
X119100990Y-82810711D01*
X119169413Y-83021295D01*
X119299561Y-83200429D01*
X119478695Y-83330577D01*
X119689279Y-83399000D01*
X119910701Y-83399000D01*
X120121285Y-83330577D01*
X120300419Y-83200429D01*
X120430567Y-83021295D01*
X120498990Y-82810711D01*
X120498990Y-82589289D01*
X120430567Y-82378705D01*
X120300419Y-82199570D01*
X120298990Y-82198532D01*
X120298990Y-80549135D01*
X120308766Y-80499989D01*
X120293243Y-80421953D01*
X120270037Y-80305290D01*
X120159749Y-80140231D01*
X120118088Y-80112394D01*
X120099000Y-80093306D01*
X120099000Y-79989289D01*
X120030577Y-79778705D01*
X119900429Y-79599570D01*
X119899000Y-79598532D01*
X119899000Y-79449145D01*
X119908776Y-79399999D01*
X119894612Y-79328793D01*
X119870047Y-79205300D01*
X119759759Y-79040240D01*
X119718098Y-79012405D01*
X119087599Y-78381907D01*
X119059759Y-78340241D01*
X118894700Y-78229953D01*
X118758708Y-78202902D01*
X118700000Y-78191224D01*
X118650854Y-78201000D01*
X113316693Y-78201000D01*
X110920570Y-75804877D01*
X111409751Y-75804877D01*
X111555682Y-75775849D01*
X111687663Y-75687663D01*
X111775849Y-75555682D01*
X111804877Y-75409751D01*
X111804877Y-75200778D01*
X114675269Y-75200778D01*
X114829309Y-75310250D01*
X115043157Y-75410880D01*
X115271447Y-75472049D01*
X115506960Y-75491826D01*
X115742254Y-75469584D01*
X115969890Y-75406027D01*
X116182674Y-75303164D01*
X116324253Y-75200300D01*
X115500000Y-74376046D01*
X114675269Y-75200778D01*
X111804877Y-75200778D01*
X111804877Y-74390249D01*
X111775849Y-74244318D01*
X111697930Y-74127702D01*
X114171111Y-74127702D01*
X114185951Y-74363577D01*
X114242326Y-74593098D01*
X114338456Y-74809008D01*
X114460445Y-74988508D01*
X115286454Y-74162500D01*
X115713546Y-74162500D01*
X116540354Y-74989307D01*
X116668251Y-74796809D01*
X116762114Y-74579904D01*
X116816382Y-74348533D01*
X116822164Y-74127702D01*
X119171111Y-74127702D01*
X119185951Y-74363577D01*
X119242326Y-74593098D01*
X119338456Y-74809008D01*
X119460445Y-74988508D01*
X120286454Y-74162500D01*
X120713546Y-74162500D01*
X121540354Y-74989307D01*
X121668251Y-74796809D01*
X121762114Y-74579904D01*
X121816382Y-74348533D01*
X121824314Y-74045615D01*
X121782229Y-73811722D01*
X121699847Y-73590202D01*
X121545994Y-73330053D01*
X120713546Y-74162500D01*
X120286454Y-74162500D01*
X119462845Y-73338892D01*
X119373884Y-73456087D01*
X119266586Y-73666670D01*
X119198276Y-73892926D01*
X119171111Y-74127702D01*
X116822164Y-74127702D01*
X116824314Y-74045615D01*
X116782229Y-73811722D01*
X116699847Y-73590202D01*
X116545994Y-73330053D01*
X115713546Y-74162500D01*
X115286454Y-74162500D01*
X114462845Y-73338892D01*
X114373884Y-73456087D01*
X114266586Y-73666670D01*
X114198276Y-73892926D01*
X114171111Y-74127702D01*
X111697930Y-74127702D01*
X111687663Y-74112337D01*
X111667328Y-74098750D01*
X111713124Y-74026587D01*
X111780780Y-73836585D01*
X111804660Y-73636316D01*
X111783579Y-73435733D01*
X111718582Y-73244805D01*
X111662608Y-73153821D01*
X111699968Y-73121800D01*
X111701193Y-73120220D01*
X114671267Y-73120220D01*
X115500000Y-73948954D01*
X116328733Y-73120220D01*
X119671267Y-73120220D01*
X120500000Y-73948954D01*
X121337185Y-73111768D01*
X121034327Y-72945269D01*
X120810329Y-72869886D01*
X120576523Y-72835359D01*
X120340297Y-72842783D01*
X120109119Y-72891921D01*
X119890297Y-72981221D01*
X119671267Y-73120220D01*
X116328733Y-73120220D01*
X116337185Y-73111768D01*
X116034327Y-72945269D01*
X115810329Y-72869886D01*
X115576523Y-72835359D01*
X115340297Y-72842783D01*
X115109119Y-72891921D01*
X114890297Y-72981221D01*
X114671267Y-73120220D01*
X111701193Y-73120220D01*
X111836810Y-72945384D01*
X111935384Y-72745056D01*
X111996351Y-72511000D01*
X110749000Y-72511000D01*
X110749000Y-72209000D01*
X111051000Y-72209000D01*
X112015481Y-72209000D01*
X111892867Y-71875746D01*
X111775215Y-71685993D01*
X111706663Y-71613500D01*
X113301000Y-71613500D01*
X113301000Y-71869648D01*
X113317278Y-72040255D01*
X113381682Y-72259794D01*
X113486440Y-72463194D01*
X113627769Y-72643114D01*
X113800570Y-72793063D01*
X113998609Y-72907632D01*
X114214741Y-72982686D01*
X114349000Y-73002147D01*
X114349000Y-71613500D01*
X114651000Y-71613500D01*
X114651000Y-73009444D01*
X114892130Y-72951333D01*
X115100403Y-72856637D01*
X115287014Y-72724265D01*
X115445226Y-72558995D01*
X115569332Y-72366789D01*
X115655768Y-72152313D01*
X115699000Y-71854145D01*
X115699000Y-71613500D01*
X120301000Y-71613500D01*
X120301000Y-71869649D01*
X120317278Y-72040257D01*
X120381684Y-72259796D01*
X120486441Y-72463194D01*
X120627770Y-72643114D01*
X120800571Y-72793063D01*
X120998610Y-72907632D01*
X121214742Y-72982686D01*
X121349000Y-73002149D01*
X121349000Y-71613500D01*
X121651000Y-71613500D01*
X121651000Y-73009446D01*
X121892132Y-72951332D01*
X122100404Y-72856637D01*
X122287014Y-72724265D01*
X122445226Y-72558995D01*
X122569332Y-72366789D01*
X122655768Y-72152312D01*
X122699000Y-71854144D01*
X122699000Y-71613500D01*
X121651000Y-71613500D01*
X121349000Y-71613500D01*
X120301000Y-71613500D01*
X115699000Y-71613500D01*
X114651000Y-71613500D01*
X114349000Y-71613500D01*
X113301000Y-71613500D01*
X111706663Y-71613500D01*
X111621812Y-71523773D01*
X111438923Y-71395712D01*
X111231608Y-71306000D01*
X111051000Y-71278039D01*
X111051000Y-72209000D01*
X110749000Y-72209000D01*
X110749000Y-71255606D01*
X110464826Y-71344662D01*
X110269552Y-71452904D01*
X110100032Y-71598200D01*
X109963190Y-71774616D01*
X109892984Y-71917292D01*
X108557600Y-70581908D01*
X108529759Y-70540241D01*
X108364700Y-70429953D01*
X108228708Y-70402902D01*
X108209092Y-70399000D01*
X113533470Y-70399000D01*
X113430669Y-70558211D01*
X113344232Y-70772686D01*
X113301000Y-71070855D01*
X113301000Y-71311500D01*
X115699000Y-71311500D01*
X115699000Y-71055352D01*
X115682722Y-70884745D01*
X115618318Y-70665205D01*
X115513560Y-70461806D01*
X115464225Y-70399000D01*
X120533469Y-70399000D01*
X120430668Y-70558212D01*
X120344232Y-70772688D01*
X120301000Y-71070856D01*
X120301000Y-71311500D01*
X122699000Y-71311500D01*
X122699000Y-71055351D01*
X122682722Y-70884744D01*
X122618318Y-70665205D01*
X122513560Y-70461806D01*
X122464225Y-70399000D01*
X156704572Y-70399000D01*
X157651027Y-70791035D01*
X158208965Y-71348973D01*
X158601001Y-72295430D01*
X158601000Y-107704572D01*
X158208965Y-108651027D01*
X157651027Y-109208965D01*
X156704572Y-109601000D01*
X122466531Y-109601000D01*
X122569332Y-109441789D01*
X122655768Y-109227312D01*
X122699000Y-108929144D01*
X122699000Y-108688500D01*
X120301000Y-108688500D01*
X120301000Y-108944649D01*
X120317278Y-109115257D01*
X120381684Y-109334796D01*
X120486441Y-109538194D01*
X120535776Y-109601000D01*
X115466531Y-109601000D01*
X115569332Y-109441789D01*
X115655768Y-109227313D01*
X115699000Y-108929145D01*
X115699000Y-108688500D01*
X113301000Y-108688500D01*
X113301000Y-108944648D01*
X113317278Y-109115255D01*
X113381682Y-109334794D01*
X113486440Y-109538194D01*
X113535775Y-109601000D01*
X83295428Y-109601000D01*
X82348973Y-109208965D01*
X81791035Y-108651027D01*
X81581786Y-108145855D01*
X113301000Y-108145855D01*
X113301000Y-108386500D01*
X114349000Y-108386500D01*
X114651000Y-108386500D01*
X115699000Y-108386500D01*
X115699000Y-108145856D01*
X120301000Y-108145856D01*
X120301000Y-108386500D01*
X121349000Y-108386500D01*
X121651000Y-108386500D01*
X122699000Y-108386500D01*
X122699000Y-108130351D01*
X122682722Y-107959744D01*
X122618318Y-107740205D01*
X122513560Y-107536806D01*
X122372231Y-107356886D01*
X122199430Y-107206937D01*
X122001390Y-107092368D01*
X121785258Y-107017314D01*
X121651000Y-106997851D01*
X121651000Y-108386500D01*
X121349000Y-108386500D01*
X121349000Y-106990554D01*
X121107868Y-107048668D01*
X120899596Y-107143363D01*
X120712986Y-107275735D01*
X120554774Y-107441005D01*
X120430668Y-107633212D01*
X120344232Y-107847688D01*
X120301000Y-108145856D01*
X115699000Y-108145856D01*
X115699000Y-108130352D01*
X115682722Y-107959745D01*
X115618318Y-107740205D01*
X115513560Y-107536806D01*
X115372231Y-107356886D01*
X115199430Y-107206937D01*
X115001391Y-107092368D01*
X114785259Y-107017314D01*
X114651000Y-106997853D01*
X114651000Y-108386500D01*
X114349000Y-108386500D01*
X114349000Y-106990556D01*
X114107870Y-107048667D01*
X113899597Y-107143363D01*
X113712987Y-107275735D01*
X113554775Y-107441005D01*
X113430669Y-107633211D01*
X113344232Y-107847686D01*
X113301000Y-108145855D01*
X81581786Y-108145855D01*
X81399000Y-107704572D01*
X81399000Y-107088281D01*
X98099635Y-107088281D01*
X98141568Y-107285562D01*
X98226167Y-107468650D01*
X98349226Y-107628446D01*
X98504629Y-107757006D01*
X98684653Y-107847943D01*
X98880349Y-107896736D01*
X99081994Y-107900960D01*
X99279563Y-107860404D01*
X99463236Y-107777086D01*
X99623886Y-107655146D01*
X99753529Y-107500645D01*
X99845721Y-107321259D01*
X99896053Y-107125229D01*
X99896568Y-107088281D01*
X106099635Y-107088281D01*
X106141568Y-107285562D01*
X106226167Y-107468650D01*
X106349226Y-107628446D01*
X106504629Y-107757006D01*
X106684653Y-107847943D01*
X106880349Y-107896736D01*
X107081994Y-107900960D01*
X107279563Y-107860404D01*
X107463236Y-107777086D01*
X107623886Y-107655146D01*
X107753529Y-107500645D01*
X107845721Y-107321259D01*
X107896053Y-107125229D01*
X107899200Y-106899840D01*
X107893734Y-106875778D01*
X114675269Y-106875778D01*
X114829309Y-106985250D01*
X115043157Y-107085880D01*
X115271447Y-107147049D01*
X115506960Y-107166826D01*
X115742254Y-107144584D01*
X115969890Y-107081027D01*
X116182674Y-106978164D01*
X116323595Y-106875778D01*
X119675269Y-106875778D01*
X119829309Y-106985250D01*
X120043157Y-107085880D01*
X120271447Y-107147049D01*
X120506960Y-107166826D01*
X120742254Y-107144584D01*
X120969890Y-107081027D01*
X121182674Y-106978164D01*
X121324253Y-106875300D01*
X120500000Y-106051046D01*
X119675269Y-106875778D01*
X116323595Y-106875778D01*
X116324253Y-106875300D01*
X115500000Y-106051046D01*
X114675269Y-106875778D01*
X107893734Y-106875778D01*
X107854362Y-106702480D01*
X107767214Y-106520591D01*
X107641936Y-106362530D01*
X107484754Y-106236151D01*
X107303477Y-106147736D01*
X107107119Y-106101681D01*
X106905435Y-106100273D01*
X106708452Y-106143583D01*
X106525959Y-106229457D01*
X106367027Y-106353629D01*
X106239554Y-106509926D01*
X106149876Y-106690581D01*
X106102451Y-106886613D01*
X106099635Y-107088281D01*
X99896568Y-107088281D01*
X99899200Y-106899840D01*
X99854362Y-106702480D01*
X99767214Y-106520591D01*
X99641936Y-106362530D01*
X99484754Y-106236151D01*
X99303477Y-106147736D01*
X99107119Y-106101681D01*
X98905435Y-106100273D01*
X98708452Y-106143583D01*
X98525959Y-106229457D01*
X98367027Y-106353629D01*
X98239554Y-106509926D01*
X98149876Y-106690581D01*
X98102451Y-106886613D01*
X98099635Y-107088281D01*
X81399000Y-107088281D01*
X81399000Y-105802702D01*
X114171111Y-105802702D01*
X114185951Y-106038577D01*
X114242326Y-106268098D01*
X114338456Y-106484008D01*
X114460445Y-106663508D01*
X115286454Y-105837500D01*
X115713546Y-105837500D01*
X116540354Y-106664307D01*
X116668251Y-106471809D01*
X116762114Y-106254904D01*
X116816382Y-106023533D01*
X116822164Y-105802702D01*
X119171111Y-105802702D01*
X119185951Y-106038577D01*
X119242326Y-106268098D01*
X119338456Y-106484008D01*
X119460445Y-106663508D01*
X120286454Y-105837500D01*
X120713546Y-105837500D01*
X121540354Y-106664307D01*
X121668251Y-106471809D01*
X121762114Y-106254904D01*
X121816382Y-106023533D01*
X121824314Y-105720615D01*
X121782229Y-105486722D01*
X121699847Y-105265202D01*
X121545994Y-105005053D01*
X120713546Y-105837500D01*
X120286454Y-105837500D01*
X119462845Y-105013892D01*
X119373884Y-105131087D01*
X119266586Y-105341670D01*
X119198276Y-105567926D01*
X119171111Y-105802702D01*
X116822164Y-105802702D01*
X116824314Y-105720615D01*
X116782229Y-105486722D01*
X116699847Y-105265202D01*
X116545994Y-105005053D01*
X115713546Y-105837500D01*
X115286454Y-105837500D01*
X114462845Y-105013892D01*
X114373884Y-105131087D01*
X114266586Y-105341670D01*
X114198276Y-105567926D01*
X114171111Y-105802702D01*
X81399000Y-105802702D01*
X81399000Y-104795220D01*
X114671267Y-104795220D01*
X115500000Y-105623954D01*
X116328733Y-104795220D01*
X119671267Y-104795220D01*
X120500000Y-105623954D01*
X121337185Y-104786768D01*
X121034327Y-104620269D01*
X120810329Y-104544886D01*
X120576523Y-104510359D01*
X120340297Y-104517783D01*
X120109119Y-104566921D01*
X119890297Y-104656221D01*
X119671267Y-104795220D01*
X116328733Y-104795220D01*
X116337185Y-104786768D01*
X116034327Y-104620269D01*
X115810329Y-104544886D01*
X115576523Y-104510359D01*
X115340297Y-104517783D01*
X115109119Y-104566921D01*
X114890297Y-104656221D01*
X114671267Y-104795220D01*
X81399000Y-104795220D01*
X81399000Y-99739705D01*
X81647794Y-99739705D01*
X81681948Y-100019884D01*
X81757138Y-100291937D01*
X81871716Y-100549888D01*
X82023162Y-100788069D01*
X82208151Y-101001250D01*
X82422617Y-101184745D01*
X82661850Y-101334525D01*
X82920595Y-101447299D01*
X83193166Y-101520590D01*
X83473576Y-101552786D01*
X83755665Y-101543181D01*
X84033236Y-101491988D01*
X84300192Y-101400327D01*
X84550666Y-101270217D01*
X84779158Y-101104512D01*
X84980647Y-100906854D01*
X85150708Y-100681586D01*
X85285604Y-100433655D01*
X85382371Y-100168509D01*
X85439145Y-99890694D01*
X85449398Y-99511822D01*
X85407730Y-99231342D01*
X85325443Y-98961351D01*
X85204153Y-98706488D01*
X85046523Y-98472353D01*
X84856017Y-98264088D01*
X84636821Y-98086269D01*
X84393749Y-97942803D01*
X84132141Y-97836841D01*
X83857745Y-97770711D01*
X83576588Y-97745866D01*
X83294848Y-97762851D01*
X83018712Y-97821294D01*
X82754247Y-97919910D01*
X82507265Y-98056533D01*
X82283189Y-98228162D01*
X82086942Y-98431026D01*
X81922837Y-98660670D01*
X81794478Y-98912046D01*
X81704684Y-99179635D01*
X81655429Y-99457557D01*
X81647794Y-99739705D01*
X81399000Y-99739705D01*
X81399000Y-80439705D01*
X81647794Y-80439705D01*
X81681948Y-80719884D01*
X81757138Y-80991937D01*
X81871716Y-81249888D01*
X82023162Y-81488069D01*
X82208151Y-81701250D01*
X82422617Y-81884745D01*
X82661850Y-82034525D01*
X82920595Y-82147299D01*
X83193166Y-82220590D01*
X83473576Y-82252786D01*
X83755665Y-82243181D01*
X84033236Y-82191988D01*
X84300192Y-82100327D01*
X84550666Y-81970217D01*
X84779158Y-81804512D01*
X84980647Y-81606854D01*
X85150708Y-81381586D01*
X85285604Y-81133655D01*
X85382371Y-80868509D01*
X85439145Y-80590694D01*
X85449398Y-80211822D01*
X85407730Y-79931342D01*
X85325443Y-79661351D01*
X85204153Y-79406488D01*
X85046523Y-79172353D01*
X84856017Y-78964088D01*
X84636821Y-78786269D01*
X84393749Y-78642803D01*
X84132141Y-78536841D01*
X83857745Y-78470711D01*
X83576588Y-78445866D01*
X83294848Y-78462851D01*
X83018712Y-78521294D01*
X82754247Y-78619910D01*
X82507265Y-78756533D01*
X82283189Y-78928162D01*
X82086942Y-79131026D01*
X81922837Y-79360670D01*
X81794478Y-79612046D01*
X81704684Y-79879635D01*
X81655429Y-80157557D01*
X81647794Y-80439705D01*
X81399000Y-80439705D01*
X81399000Y-72295428D01*
X81791035Y-71348973D01*
X82348973Y-70791035D01*
X83295428Y-70399000D01*
X95360908Y-70399000D01*
X95341292Y-70402902D01*
X95341292Y-70402902D01*
G37*
X95341292Y-70402902D02*
X95205300Y-70429953D01*
X95040241Y-70540241D01*
X95012402Y-70581905D01*
X86681906Y-78912402D01*
X86640242Y-78940241D01*
X86585753Y-79021790D01*
X86529953Y-79105301D01*
X86491224Y-79300000D01*
X86501001Y-79349151D01*
X86501000Y-95338856D01*
X86491224Y-95388002D01*
X86515639Y-95510741D01*
X86529953Y-95582701D01*
X86640241Y-95747761D01*
X86681908Y-95775602D01*
X94724401Y-103818096D01*
X94752240Y-103859760D01*
X94917299Y-103970048D01*
X95111998Y-104008777D01*
X95161144Y-103999001D01*
X116450853Y-103999001D01*
X116499999Y-104008777D01*
X116558707Y-103997099D01*
X116694699Y-103970048D01*
X116859758Y-103859760D01*
X116887599Y-103818093D01*
X121529561Y-99176132D01*
X121526925Y-99181305D01*
X121518212Y-99236314D01*
X121501000Y-99289289D01*
X121501000Y-99352780D01*
X121501001Y-101635483D01*
X121044634Y-102091851D01*
X120999571Y-102124591D01*
X120869423Y-102303725D01*
X120801000Y-102514309D01*
X120801000Y-102735731D01*
X120869423Y-102946315D01*
X120999571Y-103125449D01*
X121044638Y-103158192D01*
X121200999Y-103314554D01*
X121200999Y-103955413D01*
X121201000Y-103955419D01*
X121201000Y-104010709D01*
X121218211Y-104063681D01*
X121226925Y-104118695D01*
X121252210Y-104168317D01*
X121269423Y-104221294D01*
X121302161Y-104266353D01*
X121327448Y-104315982D01*
X121372341Y-104360876D01*
X126238535Y-109227071D01*
X126384017Y-109372552D01*
X126433644Y-109397838D01*
X126478705Y-109430576D01*
X126531669Y-109447785D01*
X126581305Y-109473075D01*
X126636321Y-109481789D01*
X126689289Y-109498999D01*
X126744580Y-109498999D01*
X126744586Y-109499000D01*
X128421042Y-109499000D01*
X128421113Y-109499023D01*
X144153636Y-109499023D01*
X144153642Y-109499022D01*
X144208868Y-109499022D01*
X144208936Y-109499000D01*
X153692520Y-109499000D01*
X153692526Y-109498999D01*
X153747816Y-109498999D01*
X153800784Y-109481789D01*
X153855801Y-109473075D01*
X153905437Y-109447785D01*
X153958401Y-109430576D01*
X154003463Y-109397837D01*
X154053089Y-109372552D01*
X154209931Y-109215711D01*
X154209932Y-109215709D01*
X155257658Y-108167984D01*
X155302552Y-108123089D01*
X155327838Y-108073462D01*
X155360576Y-108028401D01*
X155377787Y-107975433D01*
X155403075Y-107925801D01*
X155408950Y-107888705D01*
X155490249Y-107904877D01*
X156509751Y-107904877D01*
X156655682Y-107875849D01*
X156787663Y-107787663D01*
X156875849Y-107655682D01*
X156904877Y-107509751D01*
X156904877Y-106490249D01*
X156875849Y-106344318D01*
X156787663Y-106212337D01*
X156655682Y-106124151D01*
X156509751Y-106095123D01*
X155490249Y-106095123D01*
X155408950Y-106111295D01*
X155403075Y-106074199D01*
X155377787Y-106024567D01*
X155360576Y-105971599D01*
X155327838Y-105926538D01*
X155302552Y-105876911D01*
X155157071Y-105731429D01*
X150670372Y-101244730D01*
X155068817Y-101244730D01*
X155363030Y-101451891D01*
X155627763Y-101587070D01*
X155908901Y-101683599D01*
X156200836Y-101739553D01*
X156497743Y-101753814D01*
X156793696Y-101726099D01*
X157082792Y-101656959D01*
X157359263Y-101547777D01*
X157617590Y-101400728D01*
X157825895Y-101239442D01*
X156450000Y-99863546D01*
X155068817Y-101244730D01*
X150670372Y-101244730D01*
X149156424Y-99730782D01*
X154347195Y-99730782D01*
X154379556Y-100026264D01*
X154453227Y-100314238D01*
X154566740Y-100588959D01*
X154717828Y-100844945D01*
X154861657Y-101024796D01*
X156236454Y-99650000D01*
X156663546Y-99650000D01*
X158042541Y-101028994D01*
X158234595Y-100765138D01*
X158373916Y-100502562D01*
X158474849Y-100222974D01*
X158535700Y-99930423D01*
X158549449Y-99504757D01*
X158507604Y-99208888D01*
X158424923Y-98923370D01*
X158302837Y-98652350D01*
X158143783Y-98401235D01*
X158037257Y-98276290D01*
X156663546Y-99650000D01*
X156236454Y-99650000D01*
X154852696Y-98266243D01*
X154631259Y-98591467D01*
X154500254Y-98858290D01*
X154408152Y-99140910D01*
X154356791Y-99433688D01*
X154347195Y-99730782D01*
X149156424Y-99730782D01*
X146914931Y-97489289D01*
X149201000Y-97489289D01*
X149201000Y-97710711D01*
X149269423Y-97921295D01*
X149399571Y-98100429D01*
X149578705Y-98230577D01*
X149789289Y-98299000D01*
X150010711Y-98299000D01*
X150221295Y-98230577D01*
X150400429Y-98100429D01*
X150428068Y-98062386D01*
X155075933Y-98062386D01*
X156450000Y-99436454D01*
X157823746Y-98062707D01*
X157728134Y-97978268D01*
X157479835Y-97814856D01*
X157210986Y-97688059D01*
X156926955Y-97600408D01*
X156633407Y-97553652D01*
X156336199Y-97548723D01*
X156041262Y-97585721D01*
X155754480Y-97663907D01*
X155481576Y-97781720D01*
X155227994Y-97936811D01*
X155075933Y-98062386D01*
X150428068Y-98062386D01*
X150530577Y-97921295D01*
X150599000Y-97710711D01*
X150599000Y-97606692D01*
X150706693Y-97499000D01*
X151298532Y-97499000D01*
X151299570Y-97500429D01*
X151478705Y-97630577D01*
X151689289Y-97699000D01*
X151910711Y-97699000D01*
X152121295Y-97630577D01*
X152300429Y-97500429D01*
X152430577Y-97321295D01*
X152499000Y-97110711D01*
X152499000Y-96889289D01*
X152430577Y-96678705D01*
X152300429Y-96499571D01*
X152121295Y-96369423D01*
X151910711Y-96301000D01*
X151689289Y-96301000D01*
X151478705Y-96369423D01*
X151299570Y-96499571D01*
X151298532Y-96501000D01*
X150549145Y-96501000D01*
X150499999Y-96491224D01*
X150441292Y-96502902D01*
X150305300Y-96529953D01*
X150140241Y-96640241D01*
X150112402Y-96681905D01*
X149893308Y-96901000D01*
X149789289Y-96901000D01*
X149578705Y-96969423D01*
X149399571Y-97099571D01*
X149269423Y-97278705D01*
X149201000Y-97489289D01*
X146914931Y-97489289D01*
X146767553Y-97341912D01*
X146767553Y-83457842D01*
X146750341Y-83404872D01*
X146741628Y-83349858D01*
X146726360Y-83319892D01*
X146878705Y-83430577D01*
X147089289Y-83499000D01*
X147310711Y-83499000D01*
X147521295Y-83430577D01*
X147600000Y-83373395D01*
X147678705Y-83430577D01*
X147889289Y-83499000D01*
X148110711Y-83499000D01*
X148321295Y-83430577D01*
X148500429Y-83300429D01*
X148630577Y-83121295D01*
X148699000Y-82910711D01*
X148699000Y-82806692D01*
X149558962Y-81946730D01*
X155068817Y-81946730D01*
X155363030Y-82153891D01*
X155627763Y-82289070D01*
X155908901Y-82385599D01*
X156200836Y-82441553D01*
X156497743Y-82455814D01*
X156793696Y-82428099D01*
X157082792Y-82358959D01*
X157359263Y-82249777D01*
X157617590Y-82102728D01*
X157825895Y-81941442D01*
X156450000Y-80565546D01*
X155068817Y-81946730D01*
X149558962Y-81946730D01*
X149818109Y-81687584D01*
X149859772Y-81659746D01*
X149970060Y-81494687D01*
X149997111Y-81358695D01*
X150008789Y-81299987D01*
X149999013Y-81250841D01*
X149999013Y-81001468D01*
X150000442Y-81000430D01*
X150130590Y-80821295D01*
X150199013Y-80610711D01*
X150199013Y-80432782D01*
X154347195Y-80432782D01*
X154379556Y-80728264D01*
X154453227Y-81016238D01*
X154566740Y-81290959D01*
X154717828Y-81546945D01*
X154861657Y-81726796D01*
X156236454Y-80352000D01*
X156663546Y-80352000D01*
X158042541Y-81730994D01*
X158234595Y-81467138D01*
X158373916Y-81204562D01*
X158474849Y-80924974D01*
X158535700Y-80632423D01*
X158549449Y-80206757D01*
X158507604Y-79910888D01*
X158424923Y-79625370D01*
X158302837Y-79354350D01*
X158143783Y-79103235D01*
X158037257Y-78978290D01*
X156663546Y-80352000D01*
X156236454Y-80352000D01*
X154852696Y-78968243D01*
X154631259Y-79293467D01*
X154500254Y-79560290D01*
X154408152Y-79842910D01*
X154356791Y-80135688D01*
X154347195Y-80432782D01*
X150199013Y-80432782D01*
X150199013Y-80389289D01*
X150130590Y-80178705D01*
X150000442Y-79999571D01*
X149821308Y-79869423D01*
X149610724Y-79801000D01*
X149389302Y-79801000D01*
X149178718Y-79869423D01*
X149100007Y-79926610D01*
X149021295Y-79869423D01*
X148810711Y-79801000D01*
X148589289Y-79801000D01*
X148378705Y-79869423D01*
X148199571Y-79999571D01*
X148069423Y-80178705D01*
X148001000Y-80389289D01*
X148001000Y-80493306D01*
X146881904Y-81612403D01*
X146840241Y-81640242D01*
X146795533Y-81707153D01*
X146729953Y-81805301D01*
X146691224Y-82000000D01*
X146701001Y-82049151D01*
X146701001Y-82298532D01*
X146699571Y-82299571D01*
X146569423Y-82478705D01*
X146501000Y-82689289D01*
X146501000Y-82910711D01*
X146549975Y-83061440D01*
X145926921Y-82438385D01*
X145894179Y-82393320D01*
X145715045Y-82263173D01*
X145504461Y-82194750D01*
X145283039Y-82194750D01*
X145088790Y-82257865D01*
X145030577Y-82078705D01*
X144900429Y-81899571D01*
X144721295Y-81769423D01*
X144510711Y-81701000D01*
X144289289Y-81701000D01*
X144078705Y-81769423D01*
X143899571Y-81899571D01*
X143769423Y-82078705D01*
X143701000Y-82289289D01*
X143701000Y-82510711D01*
X143769423Y-82721295D01*
X143899571Y-82900429D01*
X144078705Y-83030577D01*
X144200999Y-83070313D01*
X144201000Y-85727317D01*
X144121316Y-85669423D01*
X143910732Y-85601000D01*
X143699011Y-85601000D01*
X143699011Y-81906681D01*
X146841306Y-78764386D01*
X155075933Y-78764386D01*
X156450000Y-80138454D01*
X157823746Y-78764707D01*
X157728134Y-78680268D01*
X157479835Y-78516856D01*
X157210986Y-78390059D01*
X156926955Y-78302408D01*
X156633407Y-78255652D01*
X156336199Y-78250723D01*
X156041262Y-78287721D01*
X155754480Y-78365907D01*
X155481576Y-78483720D01*
X155227994Y-78638811D01*
X155075933Y-78764386D01*
X146841306Y-78764386D01*
X151238098Y-74367596D01*
X151279759Y-74339759D01*
X151390047Y-74174700D01*
X151417098Y-74038708D01*
X151428776Y-73980001D01*
X151419000Y-73930855D01*
X151419000Y-73748324D01*
X151481941Y-73708994D01*
X151554959Y-73636485D01*
X151618214Y-73701079D01*
X151787746Y-73810336D01*
X151977600Y-73879436D01*
X152141667Y-73899000D01*
X152240664Y-73899000D01*
X152390431Y-73882201D01*
X152580901Y-73815872D01*
X152751941Y-73708994D01*
X152824959Y-73636485D01*
X152888214Y-73701079D01*
X153057746Y-73810336D01*
X153247600Y-73879436D01*
X153411667Y-73899000D01*
X153510664Y-73899000D01*
X153660431Y-73882201D01*
X153850901Y-73815872D01*
X154021941Y-73708994D01*
X154094959Y-73636485D01*
X154158214Y-73701079D01*
X154327746Y-73810336D01*
X154517600Y-73879436D01*
X154681667Y-73899000D01*
X154780664Y-73899000D01*
X154930431Y-73882201D01*
X155120901Y-73815872D01*
X155198702Y-73767257D01*
X155212337Y-73787663D01*
X155344318Y-73875849D01*
X155490249Y-73904877D01*
X156509751Y-73904877D01*
X156655682Y-73875849D01*
X156787663Y-73787663D01*
X156875849Y-73655682D01*
X156904877Y-73509751D01*
X156904877Y-72490249D01*
X156875849Y-72344318D01*
X156787663Y-72212337D01*
X156655682Y-72124151D01*
X156509751Y-72095123D01*
X155490249Y-72095123D01*
X155408951Y-72111295D01*
X155403075Y-72074199D01*
X155377786Y-72024565D01*
X155360576Y-71971598D01*
X155327837Y-71926536D01*
X155302552Y-71876911D01*
X155157071Y-71731429D01*
X154209923Y-70784282D01*
X154209922Y-70784280D01*
X154053080Y-70627439D01*
X154003454Y-70602154D01*
X153958392Y-70569415D01*
X153905428Y-70552206D01*
X153855792Y-70526916D01*
X153800775Y-70518202D01*
X153747807Y-70500992D01*
X153692517Y-70500992D01*
X153692511Y-70500991D01*
X125389298Y-70500991D01*
X125336328Y-70518203D01*
X125281314Y-70526916D01*
X125231682Y-70552204D01*
X125178714Y-70569415D01*
X125133653Y-70602153D01*
X125084026Y-70627439D01*
X125039131Y-70672333D01*
X122284291Y-73427174D01*
X122284289Y-73427175D01*
X122127448Y-73584018D01*
X122102163Y-73633643D01*
X122069424Y-73678705D01*
X122052214Y-73731672D01*
X122026925Y-73781306D01*
X122018211Y-73836322D01*
X122001001Y-73889290D01*
X122001001Y-73944581D01*
X122001000Y-73944587D01*
X122001000Y-75010711D01*
X122018213Y-75063689D01*
X122026926Y-75118696D01*
X122052208Y-75168314D01*
X122069423Y-75221295D01*
X122102167Y-75266364D01*
X122127449Y-75315983D01*
X122131216Y-75319750D01*
X121148364Y-75319750D01*
X121182674Y-75303164D01*
X121324253Y-75200300D01*
X120500000Y-74376046D01*
X119675269Y-75200778D01*
X119829309Y-75310250D01*
X119849497Y-75319750D01*
X119220218Y-75319750D01*
X119219180Y-75318321D01*
X119040045Y-75188173D01*
X118829461Y-75119750D01*
X118608039Y-75119750D01*
X118397455Y-75188173D01*
X118218321Y-75318321D01*
X118088173Y-75497455D01*
X118019750Y-75708039D01*
X118019750Y-75929461D01*
X118088173Y-76140045D01*
X118218321Y-76319179D01*
X118397455Y-76449327D01*
X118608039Y-76517750D01*
X118829461Y-76517750D01*
X119040045Y-76449327D01*
X119219180Y-76319179D01*
X119220218Y-76317750D01*
X123932104Y-76317750D01*
X123981250Y-76327526D01*
X124039958Y-76315848D01*
X124175950Y-76288797D01*
X124341009Y-76178509D01*
X124368850Y-76136842D01*
X128206693Y-72299000D01*
X128760009Y-72299000D01*
X128624947Y-72433122D01*
X128516876Y-72603413D01*
X128449220Y-72793415D01*
X128425340Y-72993684D01*
X128444863Y-73179444D01*
X126010240Y-75614068D01*
X125968573Y-75641909D01*
X125884184Y-75768208D01*
X125858285Y-75806969D01*
X125819556Y-76001668D01*
X125829332Y-76050814D01*
X125829333Y-81811735D01*
X125827903Y-81812774D01*
X125697755Y-81991909D01*
X125629332Y-82202493D01*
X125629332Y-82423915D01*
X125654378Y-82501000D01*
X125306693Y-82501000D01*
X124699000Y-81893308D01*
X124699000Y-81789289D01*
X124630577Y-81578705D01*
X124500429Y-81399571D01*
X124321295Y-81269423D01*
X124110711Y-81201000D01*
X123889289Y-81201000D01*
X123678705Y-81269423D01*
X123499571Y-81399571D01*
X123369423Y-81578705D01*
X123301000Y-81789289D01*
X123301000Y-82010711D01*
X123369423Y-82221295D01*
X123499571Y-82400429D01*
X123678705Y-82530577D01*
X123889289Y-82599000D01*
X123993308Y-82599000D01*
X124712402Y-83318095D01*
X124740241Y-83359759D01*
X124905300Y-83470047D01*
X125100000Y-83508776D01*
X125149146Y-83499000D01*
X127450854Y-83499000D01*
X127500000Y-83508776D01*
X127558708Y-83497098D01*
X127694700Y-83470047D01*
X127859758Y-83359760D01*
X127887599Y-83318094D01*
X128247822Y-82957871D01*
X128321290Y-82933999D01*
X128402353Y-82875104D01*
X128478705Y-82930577D01*
X128689289Y-82999000D01*
X128910711Y-82999000D01*
X129121295Y-82930577D01*
X129250000Y-82837068D01*
X129378705Y-82930577D01*
X129589289Y-82999000D01*
X129693309Y-82999000D01*
X129912403Y-83218095D01*
X129940240Y-83259759D01*
X130105300Y-83370047D01*
X130241292Y-83397098D01*
X130299999Y-83408776D01*
X130349145Y-83399000D01*
X130750854Y-83399000D01*
X130800000Y-83408776D01*
X130858708Y-83397098D01*
X130994700Y-83370047D01*
X131159759Y-83259759D01*
X131187600Y-83218092D01*
X134106693Y-80299000D01*
X139795308Y-80299000D01*
X138381908Y-81712400D01*
X138340241Y-81740241D01*
X138252451Y-81871630D01*
X138229953Y-81905301D01*
X138191224Y-82100000D01*
X138201000Y-82149146D01*
X138201001Y-84662845D01*
X138191224Y-84711996D01*
X138231970Y-84916835D01*
X138246312Y-84931178D01*
X138340242Y-85071755D01*
X138381908Y-85099595D01*
X139201002Y-85918691D01*
X139201003Y-86827604D01*
X137984364Y-88044243D01*
X137930577Y-87878705D01*
X137800429Y-87699571D01*
X137621295Y-87569423D01*
X137410711Y-87501000D01*
X137189289Y-87501000D01*
X136978705Y-87569423D01*
X136799571Y-87699571D01*
X136669423Y-87878705D01*
X136601000Y-88089289D01*
X136601000Y-88101000D01*
X133669663Y-88101000D01*
X133699000Y-88010711D01*
X133699000Y-87789289D01*
X133630577Y-87578705D01*
X133500429Y-87399571D01*
X133321295Y-87269423D01*
X133110711Y-87201000D01*
X133006692Y-87201000D01*
X132987610Y-87181918D01*
X132959770Y-87140252D01*
X132794711Y-87029964D01*
X132658719Y-87002913D01*
X132600011Y-86991235D01*
X132550865Y-87001011D01*
X131072683Y-87001011D01*
X131130577Y-86921327D01*
X131199000Y-86710743D01*
X131199000Y-86489321D01*
X131169653Y-86398999D01*
X135639593Y-86398999D01*
X136458678Y-87218085D01*
X136486517Y-87259749D01*
X136630389Y-87355881D01*
X136651578Y-87370037D01*
X136846276Y-87408766D01*
X136895422Y-87398990D01*
X137474255Y-87398990D01*
X137475293Y-87400419D01*
X137654428Y-87530567D01*
X137865012Y-87598990D01*
X138086434Y-87598990D01*
X138297018Y-87530567D01*
X138476152Y-87400419D01*
X138606300Y-87221285D01*
X138674723Y-87010701D01*
X138674723Y-86789279D01*
X138609362Y-86588120D01*
X138730567Y-86421295D01*
X138798990Y-86210711D01*
X138798990Y-85989289D01*
X138730567Y-85778705D01*
X138600419Y-85599571D01*
X138421285Y-85469423D01*
X138210701Y-85401000D01*
X137989279Y-85401000D01*
X137811346Y-85458814D01*
X137891723Y-85400417D01*
X138021871Y-85221283D01*
X138090294Y-85010699D01*
X138090294Y-84789277D01*
X138021871Y-84578693D01*
X137891723Y-84399559D01*
X137712589Y-84269411D01*
X137502005Y-84200988D01*
X137280583Y-84200988D01*
X137215757Y-84222051D01*
X136975615Y-83981910D01*
X136947773Y-83940241D01*
X136782714Y-83829953D01*
X136646722Y-83802902D01*
X136588014Y-83791224D01*
X136538868Y-83801000D01*
X116440695Y-83801000D01*
X111621602Y-78981908D01*
X111593761Y-78940241D01*
X111428702Y-78829953D01*
X111292710Y-78802902D01*
X111234002Y-78791224D01*
X111184856Y-78801000D01*
X109549145Y-78801000D01*
X109499999Y-78791224D01*
X109441292Y-78802902D01*
X109305300Y-78829953D01*
X109140241Y-78940241D01*
X109112402Y-78981905D01*
X108593308Y-79501000D01*
X108559336Y-79501000D01*
X108409569Y-79517799D01*
X108219099Y-79584128D01*
X108048059Y-79691006D01*
X107975041Y-79763515D01*
X107911786Y-79698921D01*
X107742254Y-79589664D01*
X107552400Y-79520564D01*
X107388333Y-79501000D01*
X107289336Y-79501000D01*
X107139569Y-79517799D01*
X106949099Y-79584128D01*
X106778059Y-79691006D01*
X106705041Y-79763515D01*
X106641786Y-79698921D01*
X106472254Y-79589664D01*
X106282400Y-79520564D01*
X106118333Y-79501000D01*
X106019336Y-79501000D01*
X105869569Y-79517799D01*
X105679099Y-79584128D01*
X105601298Y-79632743D01*
X105587663Y-79612337D01*
X105455682Y-79524151D01*
X105309751Y-79495123D01*
X104290249Y-79495123D01*
X104144318Y-79524151D01*
X104012337Y-79612337D01*
X103924151Y-79744318D01*
X103895123Y-79890249D01*
X103895123Y-80909751D01*
X103924151Y-81055682D01*
X104012337Y-81187663D01*
X104144318Y-81275849D01*
X104290249Y-81304877D01*
X105309751Y-81304877D01*
X105455682Y-81275849D01*
X105587663Y-81187663D01*
X105601179Y-81167435D01*
X105667746Y-81210335D01*
X105857600Y-81279436D01*
X106021667Y-81299000D01*
X106120664Y-81299000D01*
X106248921Y-81284614D01*
X106251939Y-81287632D01*
X106251942Y-81287634D01*
X107382412Y-82418105D01*
X107410251Y-82459769D01*
X107575310Y-82570057D01*
X107653147Y-82585540D01*
X107770010Y-82608786D01*
X107819156Y-82599010D01*
X109593018Y-82599010D01*
X109895008Y-82901000D01*
X105206694Y-82901000D01*
X102199000Y-79893308D01*
X102199000Y-79789289D01*
X102130577Y-79578705D01*
X102000429Y-79399571D01*
X101821295Y-79269423D01*
X101610711Y-79201000D01*
X101389289Y-79201000D01*
X101178705Y-79269423D01*
X100999571Y-79399571D01*
X100917805Y-79512112D01*
X98463976Y-77058283D01*
X98589289Y-77099000D01*
X98810711Y-77099000D01*
X99021295Y-77030577D01*
X99200429Y-76900429D01*
X99330577Y-76721295D01*
X99399000Y-76510711D01*
X99399000Y-76289289D01*
X99330577Y-76078705D01*
X99200429Y-75899571D01*
X99021295Y-75769423D01*
X98810711Y-75701000D01*
X98706693Y-75701000D01*
X97499000Y-74493308D01*
X97499000Y-74254877D01*
X97859751Y-74254877D01*
X98005682Y-74225849D01*
X98137663Y-74137663D01*
X98225849Y-74005682D01*
X98254877Y-73859751D01*
X98254877Y-72140249D01*
X98225849Y-71994318D01*
X98222295Y-71988999D01*
X98806264Y-71988999D01*
X98700681Y-72067842D01*
X98544863Y-72236405D01*
X98422372Y-72430540D01*
X98337311Y-72643747D01*
X98292529Y-72868885D01*
X98289523Y-73098414D01*
X98328398Y-73324648D01*
X98407849Y-73540008D01*
X98525215Y-73737284D01*
X98676567Y-73909869D01*
X98856836Y-74051980D01*
X99059984Y-74158861D01*
X99279831Y-74227126D01*
X99487944Y-74249000D01*
X99598149Y-74249000D01*
X99768586Y-74233339D01*
X99989516Y-74171030D01*
X100195392Y-74069503D01*
X100379319Y-73932158D01*
X100535137Y-73763595D01*
X100657628Y-73569460D01*
X100742689Y-73356253D01*
X100787471Y-73131115D01*
X100790477Y-72901586D01*
X100751602Y-72675352D01*
X100672151Y-72459992D01*
X100554785Y-72262716D01*
X100403433Y-72090131D01*
X100275146Y-71988999D01*
X101346264Y-71988999D01*
X101240681Y-72067842D01*
X101084863Y-72236405D01*
X100962372Y-72430540D01*
X100877311Y-72643747D01*
X100832529Y-72868885D01*
X100829523Y-73098414D01*
X100868398Y-73324648D01*
X100947849Y-73540008D01*
X101065215Y-73737284D01*
X101216567Y-73909869D01*
X101396836Y-74051980D01*
X101599984Y-74158861D01*
X101819831Y-74227126D01*
X102027944Y-74249000D01*
X102138149Y-74249000D01*
X102308586Y-74233339D01*
X102529516Y-74171030D01*
X102735392Y-74069503D01*
X102919319Y-73932158D01*
X103075137Y-73763595D01*
X103197628Y-73569460D01*
X103282689Y-73356253D01*
X103327471Y-73131115D01*
X103330477Y-72901586D01*
X103291602Y-72675352D01*
X103212151Y-72459992D01*
X103094785Y-72262716D01*
X102943433Y-72090131D01*
X102815146Y-71988999D01*
X105852840Y-71988999D01*
X105819220Y-72083415D01*
X105795340Y-72283684D01*
X105816421Y-72484267D01*
X105881418Y-72675195D01*
X105987100Y-72846979D01*
X106063525Y-72925021D01*
X105994947Y-72993122D01*
X105886876Y-73163413D01*
X105819220Y-73353415D01*
X105795340Y-73553684D01*
X105816421Y-73754267D01*
X105881418Y-73945195D01*
X105937392Y-74036179D01*
X105900032Y-74068200D01*
X105763190Y-74244616D01*
X105664616Y-74444944D01*
X105603649Y-74679000D01*
X107815481Y-74679000D01*
X107692867Y-74345746D01*
X107575215Y-74155993D01*
X107462332Y-74036622D01*
X107513124Y-73956587D01*
X107551926Y-73847618D01*
X109905308Y-76201000D01*
X108889536Y-76201000D01*
X108372826Y-75684291D01*
X108372825Y-75684289D01*
X108215983Y-75527448D01*
X108166357Y-75502163D01*
X108121295Y-75469424D01*
X108068331Y-75452215D01*
X108018695Y-75426925D01*
X107963678Y-75418211D01*
X107910710Y-75401001D01*
X107855420Y-75401001D01*
X107855414Y-75401000D01*
X107643888Y-75401000D01*
X107735384Y-75215056D01*
X107796351Y-74981000D01*
X105584519Y-74981000D01*
X105707133Y-75314254D01*
X105815316Y-75488736D01*
X105795123Y-75590249D01*
X105795123Y-76609751D01*
X105824151Y-76755682D01*
X105912337Y-76887663D01*
X106044318Y-76975849D01*
X106190249Y-77004877D01*
X107209751Y-77004877D01*
X107355682Y-76975849D01*
X107487663Y-76887663D01*
X107532309Y-76820844D01*
X108038535Y-77327071D01*
X108184017Y-77472552D01*
X108233644Y-77497838D01*
X108278705Y-77530576D01*
X108331673Y-77547787D01*
X108381305Y-77573075D01*
X108436319Y-77581788D01*
X108489289Y-77599000D01*
X110110711Y-77599000D01*
X110163685Y-77581788D01*
X110218695Y-77573075D01*
X110268325Y-77547788D01*
X110321295Y-77530577D01*
X110366360Y-77497836D01*
X110415983Y-77472552D01*
X110455366Y-77433170D01*
X110500429Y-77400429D01*
X110533170Y-77355366D01*
X110572552Y-77315983D01*
X110597836Y-77266360D01*
X110630577Y-77221295D01*
X110647788Y-77168325D01*
X110673075Y-77118695D01*
X110681788Y-77063685D01*
X110699000Y-77010711D01*
X110699000Y-76994692D01*
X112722402Y-79018095D01*
X112750241Y-79059759D01*
X112889434Y-79152764D01*
X112915300Y-79170047D01*
X113110000Y-79208776D01*
X113159146Y-79199000D01*
X118493309Y-79199000D01*
X118897175Y-79602868D01*
X118769423Y-79778705D01*
X118701000Y-79989289D01*
X118701000Y-80210711D01*
X118769423Y-80421295D01*
X118899571Y-80600429D01*
X119078705Y-80730577D01*
X119289289Y-80799000D01*
X119300990Y-80799000D01*
X119300991Y-82198532D01*
X119299561Y-82199571D01*
X119169413Y-82378705D01*
X119100990Y-82589289D01*
X119100990Y-82810711D01*
X119169413Y-83021295D01*
X119299561Y-83200429D01*
X119478695Y-83330577D01*
X119689279Y-83399000D01*
X119910701Y-83399000D01*
X120121285Y-83330577D01*
X120300419Y-83200429D01*
X120430567Y-83021295D01*
X120498990Y-82810711D01*
X120498990Y-82589289D01*
X120430567Y-82378705D01*
X120300419Y-82199570D01*
X120298990Y-82198532D01*
X120298990Y-80549135D01*
X120308766Y-80499989D01*
X120293243Y-80421953D01*
X120270037Y-80305290D01*
X120159749Y-80140231D01*
X120118088Y-80112394D01*
X120099000Y-80093306D01*
X120099000Y-79989289D01*
X120030577Y-79778705D01*
X119900429Y-79599570D01*
X119899000Y-79598532D01*
X119899000Y-79449145D01*
X119908776Y-79399999D01*
X119894612Y-79328793D01*
X119870047Y-79205300D01*
X119759759Y-79040240D01*
X119718098Y-79012405D01*
X119087599Y-78381907D01*
X119059759Y-78340241D01*
X118894700Y-78229953D01*
X118758708Y-78202902D01*
X118700000Y-78191224D01*
X118650854Y-78201000D01*
X113316693Y-78201000D01*
X110920570Y-75804877D01*
X111409751Y-75804877D01*
X111555682Y-75775849D01*
X111687663Y-75687663D01*
X111775849Y-75555682D01*
X111804877Y-75409751D01*
X111804877Y-75200778D01*
X114675269Y-75200778D01*
X114829309Y-75310250D01*
X115043157Y-75410880D01*
X115271447Y-75472049D01*
X115506960Y-75491826D01*
X115742254Y-75469584D01*
X115969890Y-75406027D01*
X116182674Y-75303164D01*
X116324253Y-75200300D01*
X115500000Y-74376046D01*
X114675269Y-75200778D01*
X111804877Y-75200778D01*
X111804877Y-74390249D01*
X111775849Y-74244318D01*
X111697930Y-74127702D01*
X114171111Y-74127702D01*
X114185951Y-74363577D01*
X114242326Y-74593098D01*
X114338456Y-74809008D01*
X114460445Y-74988508D01*
X115286454Y-74162500D01*
X115713546Y-74162500D01*
X116540354Y-74989307D01*
X116668251Y-74796809D01*
X116762114Y-74579904D01*
X116816382Y-74348533D01*
X116822164Y-74127702D01*
X119171111Y-74127702D01*
X119185951Y-74363577D01*
X119242326Y-74593098D01*
X119338456Y-74809008D01*
X119460445Y-74988508D01*
X120286454Y-74162500D01*
X120713546Y-74162500D01*
X121540354Y-74989307D01*
X121668251Y-74796809D01*
X121762114Y-74579904D01*
X121816382Y-74348533D01*
X121824314Y-74045615D01*
X121782229Y-73811722D01*
X121699847Y-73590202D01*
X121545994Y-73330053D01*
X120713546Y-74162500D01*
X120286454Y-74162500D01*
X119462845Y-73338892D01*
X119373884Y-73456087D01*
X119266586Y-73666670D01*
X119198276Y-73892926D01*
X119171111Y-74127702D01*
X116822164Y-74127702D01*
X116824314Y-74045615D01*
X116782229Y-73811722D01*
X116699847Y-73590202D01*
X116545994Y-73330053D01*
X115713546Y-74162500D01*
X115286454Y-74162500D01*
X114462845Y-73338892D01*
X114373884Y-73456087D01*
X114266586Y-73666670D01*
X114198276Y-73892926D01*
X114171111Y-74127702D01*
X111697930Y-74127702D01*
X111687663Y-74112337D01*
X111667328Y-74098750D01*
X111713124Y-74026587D01*
X111780780Y-73836585D01*
X111804660Y-73636316D01*
X111783579Y-73435733D01*
X111718582Y-73244805D01*
X111662608Y-73153821D01*
X111699968Y-73121800D01*
X111701193Y-73120220D01*
X114671267Y-73120220D01*
X115500000Y-73948954D01*
X116328733Y-73120220D01*
X119671267Y-73120220D01*
X120500000Y-73948954D01*
X121337185Y-73111768D01*
X121034327Y-72945269D01*
X120810329Y-72869886D01*
X120576523Y-72835359D01*
X120340297Y-72842783D01*
X120109119Y-72891921D01*
X119890297Y-72981221D01*
X119671267Y-73120220D01*
X116328733Y-73120220D01*
X116337185Y-73111768D01*
X116034327Y-72945269D01*
X115810329Y-72869886D01*
X115576523Y-72835359D01*
X115340297Y-72842783D01*
X115109119Y-72891921D01*
X114890297Y-72981221D01*
X114671267Y-73120220D01*
X111701193Y-73120220D01*
X111836810Y-72945384D01*
X111935384Y-72745056D01*
X111996351Y-72511000D01*
X110749000Y-72511000D01*
X110749000Y-72209000D01*
X111051000Y-72209000D01*
X112015481Y-72209000D01*
X111892867Y-71875746D01*
X111775215Y-71685993D01*
X111706663Y-71613500D01*
X113301000Y-71613500D01*
X113301000Y-71869648D01*
X113317278Y-72040255D01*
X113381682Y-72259794D01*
X113486440Y-72463194D01*
X113627769Y-72643114D01*
X113800570Y-72793063D01*
X113998609Y-72907632D01*
X114214741Y-72982686D01*
X114349000Y-73002147D01*
X114349000Y-71613500D01*
X114651000Y-71613500D01*
X114651000Y-73009444D01*
X114892130Y-72951333D01*
X115100403Y-72856637D01*
X115287014Y-72724265D01*
X115445226Y-72558995D01*
X115569332Y-72366789D01*
X115655768Y-72152313D01*
X115699000Y-71854145D01*
X115699000Y-71613500D01*
X120301000Y-71613500D01*
X120301000Y-71869649D01*
X120317278Y-72040257D01*
X120381684Y-72259796D01*
X120486441Y-72463194D01*
X120627770Y-72643114D01*
X120800571Y-72793063D01*
X120998610Y-72907632D01*
X121214742Y-72982686D01*
X121349000Y-73002149D01*
X121349000Y-71613500D01*
X121651000Y-71613500D01*
X121651000Y-73009446D01*
X121892132Y-72951332D01*
X122100404Y-72856637D01*
X122287014Y-72724265D01*
X122445226Y-72558995D01*
X122569332Y-72366789D01*
X122655768Y-72152312D01*
X122699000Y-71854144D01*
X122699000Y-71613500D01*
X121651000Y-71613500D01*
X121349000Y-71613500D01*
X120301000Y-71613500D01*
X115699000Y-71613500D01*
X114651000Y-71613500D01*
X114349000Y-71613500D01*
X113301000Y-71613500D01*
X111706663Y-71613500D01*
X111621812Y-71523773D01*
X111438923Y-71395712D01*
X111231608Y-71306000D01*
X111051000Y-71278039D01*
X111051000Y-72209000D01*
X110749000Y-72209000D01*
X110749000Y-71255606D01*
X110464826Y-71344662D01*
X110269552Y-71452904D01*
X110100032Y-71598200D01*
X109963190Y-71774616D01*
X109892984Y-71917292D01*
X108557600Y-70581908D01*
X108529759Y-70540241D01*
X108364700Y-70429953D01*
X108228708Y-70402902D01*
X108209092Y-70399000D01*
X113533470Y-70399000D01*
X113430669Y-70558211D01*
X113344232Y-70772686D01*
X113301000Y-71070855D01*
X113301000Y-71311500D01*
X115699000Y-71311500D01*
X115699000Y-71055352D01*
X115682722Y-70884745D01*
X115618318Y-70665205D01*
X115513560Y-70461806D01*
X115464225Y-70399000D01*
X120533469Y-70399000D01*
X120430668Y-70558212D01*
X120344232Y-70772688D01*
X120301000Y-71070856D01*
X120301000Y-71311500D01*
X122699000Y-71311500D01*
X122699000Y-71055351D01*
X122682722Y-70884744D01*
X122618318Y-70665205D01*
X122513560Y-70461806D01*
X122464225Y-70399000D01*
X156704572Y-70399000D01*
X157651027Y-70791035D01*
X158208965Y-71348973D01*
X158601001Y-72295430D01*
X158601000Y-107704572D01*
X158208965Y-108651027D01*
X157651027Y-109208965D01*
X156704572Y-109601000D01*
X122466531Y-109601000D01*
X122569332Y-109441789D01*
X122655768Y-109227312D01*
X122699000Y-108929144D01*
X122699000Y-108688500D01*
X120301000Y-108688500D01*
X120301000Y-108944649D01*
X120317278Y-109115257D01*
X120381684Y-109334796D01*
X120486441Y-109538194D01*
X120535776Y-109601000D01*
X115466531Y-109601000D01*
X115569332Y-109441789D01*
X115655768Y-109227313D01*
X115699000Y-108929145D01*
X115699000Y-108688500D01*
X113301000Y-108688500D01*
X113301000Y-108944648D01*
X113317278Y-109115255D01*
X113381682Y-109334794D01*
X113486440Y-109538194D01*
X113535775Y-109601000D01*
X83295428Y-109601000D01*
X82348973Y-109208965D01*
X81791035Y-108651027D01*
X81581786Y-108145855D01*
X113301000Y-108145855D01*
X113301000Y-108386500D01*
X114349000Y-108386500D01*
X114651000Y-108386500D01*
X115699000Y-108386500D01*
X115699000Y-108145856D01*
X120301000Y-108145856D01*
X120301000Y-108386500D01*
X121349000Y-108386500D01*
X121651000Y-108386500D01*
X122699000Y-108386500D01*
X122699000Y-108130351D01*
X122682722Y-107959744D01*
X122618318Y-107740205D01*
X122513560Y-107536806D01*
X122372231Y-107356886D01*
X122199430Y-107206937D01*
X122001390Y-107092368D01*
X121785258Y-107017314D01*
X121651000Y-106997851D01*
X121651000Y-108386500D01*
X121349000Y-108386500D01*
X121349000Y-106990554D01*
X121107868Y-107048668D01*
X120899596Y-107143363D01*
X120712986Y-107275735D01*
X120554774Y-107441005D01*
X120430668Y-107633212D01*
X120344232Y-107847688D01*
X120301000Y-108145856D01*
X115699000Y-108145856D01*
X115699000Y-108130352D01*
X115682722Y-107959745D01*
X115618318Y-107740205D01*
X115513560Y-107536806D01*
X115372231Y-107356886D01*
X115199430Y-107206937D01*
X115001391Y-107092368D01*
X114785259Y-107017314D01*
X114651000Y-106997853D01*
X114651000Y-108386500D01*
X114349000Y-108386500D01*
X114349000Y-106990556D01*
X114107870Y-107048667D01*
X113899597Y-107143363D01*
X113712987Y-107275735D01*
X113554775Y-107441005D01*
X113430669Y-107633211D01*
X113344232Y-107847686D01*
X113301000Y-108145855D01*
X81581786Y-108145855D01*
X81399000Y-107704572D01*
X81399000Y-107088281D01*
X98099635Y-107088281D01*
X98141568Y-107285562D01*
X98226167Y-107468650D01*
X98349226Y-107628446D01*
X98504629Y-107757006D01*
X98684653Y-107847943D01*
X98880349Y-107896736D01*
X99081994Y-107900960D01*
X99279563Y-107860404D01*
X99463236Y-107777086D01*
X99623886Y-107655146D01*
X99753529Y-107500645D01*
X99845721Y-107321259D01*
X99896053Y-107125229D01*
X99896568Y-107088281D01*
X106099635Y-107088281D01*
X106141568Y-107285562D01*
X106226167Y-107468650D01*
X106349226Y-107628446D01*
X106504629Y-107757006D01*
X106684653Y-107847943D01*
X106880349Y-107896736D01*
X107081994Y-107900960D01*
X107279563Y-107860404D01*
X107463236Y-107777086D01*
X107623886Y-107655146D01*
X107753529Y-107500645D01*
X107845721Y-107321259D01*
X107896053Y-107125229D01*
X107899200Y-106899840D01*
X107893734Y-106875778D01*
X114675269Y-106875778D01*
X114829309Y-106985250D01*
X115043157Y-107085880D01*
X115271447Y-107147049D01*
X115506960Y-107166826D01*
X115742254Y-107144584D01*
X115969890Y-107081027D01*
X116182674Y-106978164D01*
X116323595Y-106875778D01*
X119675269Y-106875778D01*
X119829309Y-106985250D01*
X120043157Y-107085880D01*
X120271447Y-107147049D01*
X120506960Y-107166826D01*
X120742254Y-107144584D01*
X120969890Y-107081027D01*
X121182674Y-106978164D01*
X121324253Y-106875300D01*
X120500000Y-106051046D01*
X119675269Y-106875778D01*
X116323595Y-106875778D01*
X116324253Y-106875300D01*
X115500000Y-106051046D01*
X114675269Y-106875778D01*
X107893734Y-106875778D01*
X107854362Y-106702480D01*
X107767214Y-106520591D01*
X107641936Y-106362530D01*
X107484754Y-106236151D01*
X107303477Y-106147736D01*
X107107119Y-106101681D01*
X106905435Y-106100273D01*
X106708452Y-106143583D01*
X106525959Y-106229457D01*
X106367027Y-106353629D01*
X106239554Y-106509926D01*
X106149876Y-106690581D01*
X106102451Y-106886613D01*
X106099635Y-107088281D01*
X99896568Y-107088281D01*
X99899200Y-106899840D01*
X99854362Y-106702480D01*
X99767214Y-106520591D01*
X99641936Y-106362530D01*
X99484754Y-106236151D01*
X99303477Y-106147736D01*
X99107119Y-106101681D01*
X98905435Y-106100273D01*
X98708452Y-106143583D01*
X98525959Y-106229457D01*
X98367027Y-106353629D01*
X98239554Y-106509926D01*
X98149876Y-106690581D01*
X98102451Y-106886613D01*
X98099635Y-107088281D01*
X81399000Y-107088281D01*
X81399000Y-105802702D01*
X114171111Y-105802702D01*
X114185951Y-106038577D01*
X114242326Y-106268098D01*
X114338456Y-106484008D01*
X114460445Y-106663508D01*
X115286454Y-105837500D01*
X115713546Y-105837500D01*
X116540354Y-106664307D01*
X116668251Y-106471809D01*
X116762114Y-106254904D01*
X116816382Y-106023533D01*
X116822164Y-105802702D01*
X119171111Y-105802702D01*
X119185951Y-106038577D01*
X119242326Y-106268098D01*
X119338456Y-106484008D01*
X119460445Y-106663508D01*
X120286454Y-105837500D01*
X120713546Y-105837500D01*
X121540354Y-106664307D01*
X121668251Y-106471809D01*
X121762114Y-106254904D01*
X121816382Y-106023533D01*
X121824314Y-105720615D01*
X121782229Y-105486722D01*
X121699847Y-105265202D01*
X121545994Y-105005053D01*
X120713546Y-105837500D01*
X120286454Y-105837500D01*
X119462845Y-105013892D01*
X119373884Y-105131087D01*
X119266586Y-105341670D01*
X119198276Y-105567926D01*
X119171111Y-105802702D01*
X116822164Y-105802702D01*
X116824314Y-105720615D01*
X116782229Y-105486722D01*
X116699847Y-105265202D01*
X116545994Y-105005053D01*
X115713546Y-105837500D01*
X115286454Y-105837500D01*
X114462845Y-105013892D01*
X114373884Y-105131087D01*
X114266586Y-105341670D01*
X114198276Y-105567926D01*
X114171111Y-105802702D01*
X81399000Y-105802702D01*
X81399000Y-104795220D01*
X114671267Y-104795220D01*
X115500000Y-105623954D01*
X116328733Y-104795220D01*
X119671267Y-104795220D01*
X120500000Y-105623954D01*
X121337185Y-104786768D01*
X121034327Y-104620269D01*
X120810329Y-104544886D01*
X120576523Y-104510359D01*
X120340297Y-104517783D01*
X120109119Y-104566921D01*
X119890297Y-104656221D01*
X119671267Y-104795220D01*
X116328733Y-104795220D01*
X116337185Y-104786768D01*
X116034327Y-104620269D01*
X115810329Y-104544886D01*
X115576523Y-104510359D01*
X115340297Y-104517783D01*
X115109119Y-104566921D01*
X114890297Y-104656221D01*
X114671267Y-104795220D01*
X81399000Y-104795220D01*
X81399000Y-99739705D01*
X81647794Y-99739705D01*
X81681948Y-100019884D01*
X81757138Y-100291937D01*
X81871716Y-100549888D01*
X82023162Y-100788069D01*
X82208151Y-101001250D01*
X82422617Y-101184745D01*
X82661850Y-101334525D01*
X82920595Y-101447299D01*
X83193166Y-101520590D01*
X83473576Y-101552786D01*
X83755665Y-101543181D01*
X84033236Y-101491988D01*
X84300192Y-101400327D01*
X84550666Y-101270217D01*
X84779158Y-101104512D01*
X84980647Y-100906854D01*
X85150708Y-100681586D01*
X85285604Y-100433655D01*
X85382371Y-100168509D01*
X85439145Y-99890694D01*
X85449398Y-99511822D01*
X85407730Y-99231342D01*
X85325443Y-98961351D01*
X85204153Y-98706488D01*
X85046523Y-98472353D01*
X84856017Y-98264088D01*
X84636821Y-98086269D01*
X84393749Y-97942803D01*
X84132141Y-97836841D01*
X83857745Y-97770711D01*
X83576588Y-97745866D01*
X83294848Y-97762851D01*
X83018712Y-97821294D01*
X82754247Y-97919910D01*
X82507265Y-98056533D01*
X82283189Y-98228162D01*
X82086942Y-98431026D01*
X81922837Y-98660670D01*
X81794478Y-98912046D01*
X81704684Y-99179635D01*
X81655429Y-99457557D01*
X81647794Y-99739705D01*
X81399000Y-99739705D01*
X81399000Y-80439705D01*
X81647794Y-80439705D01*
X81681948Y-80719884D01*
X81757138Y-80991937D01*
X81871716Y-81249888D01*
X82023162Y-81488069D01*
X82208151Y-81701250D01*
X82422617Y-81884745D01*
X82661850Y-82034525D01*
X82920595Y-82147299D01*
X83193166Y-82220590D01*
X83473576Y-82252786D01*
X83755665Y-82243181D01*
X84033236Y-82191988D01*
X84300192Y-82100327D01*
X84550666Y-81970217D01*
X84779158Y-81804512D01*
X84980647Y-81606854D01*
X85150708Y-81381586D01*
X85285604Y-81133655D01*
X85382371Y-80868509D01*
X85439145Y-80590694D01*
X85449398Y-80211822D01*
X85407730Y-79931342D01*
X85325443Y-79661351D01*
X85204153Y-79406488D01*
X85046523Y-79172353D01*
X84856017Y-78964088D01*
X84636821Y-78786269D01*
X84393749Y-78642803D01*
X84132141Y-78536841D01*
X83857745Y-78470711D01*
X83576588Y-78445866D01*
X83294848Y-78462851D01*
X83018712Y-78521294D01*
X82754247Y-78619910D01*
X82507265Y-78756533D01*
X82283189Y-78928162D01*
X82086942Y-79131026D01*
X81922837Y-79360670D01*
X81794478Y-79612046D01*
X81704684Y-79879635D01*
X81655429Y-80157557D01*
X81647794Y-80439705D01*
X81399000Y-80439705D01*
X81399000Y-72295428D01*
X81791035Y-71348973D01*
X82348973Y-70791035D01*
X83295428Y-70399000D01*
X95360908Y-70399000D01*
X95341292Y-70402902D01*
G36*
X136799570Y-97000429D02*
G01*
X136801000Y-97001468D01*
X136801000Y-97140854D01*
X136791224Y-97190000D01*
X136822612Y-97347793D01*
X136829954Y-97384700D01*
X136940241Y-97549759D01*
X136981908Y-97577600D01*
X145552446Y-106148139D01*
X145449099Y-106184128D01*
X145278059Y-106291006D01*
X145205041Y-106363515D01*
X145141786Y-106298921D01*
X144972254Y-106189664D01*
X144782400Y-106120564D01*
X144618333Y-106101000D01*
X144519336Y-106101000D01*
X144369569Y-106117799D01*
X144179099Y-106184128D01*
X144008059Y-106291006D01*
X143935041Y-106363515D01*
X143871786Y-106298921D01*
X143702254Y-106189664D01*
X143512400Y-106120564D01*
X143348333Y-106101000D01*
X143249336Y-106101000D01*
X143099569Y-106117799D01*
X142909099Y-106184128D01*
X142738059Y-106291006D01*
X142665041Y-106363515D01*
X142601786Y-106298921D01*
X142432254Y-106189664D01*
X142242400Y-106120564D01*
X142078333Y-106101000D01*
X141979336Y-106101000D01*
X141829569Y-106117799D01*
X141639099Y-106184128D01*
X141468059Y-106291006D01*
X141395041Y-106363515D01*
X141331786Y-106298921D01*
X141162254Y-106189664D01*
X140972400Y-106120564D01*
X140808333Y-106101000D01*
X140709336Y-106101000D01*
X140559569Y-106117799D01*
X140369099Y-106184128D01*
X140198059Y-106291006D01*
X140125041Y-106363515D01*
X140061786Y-106298921D01*
X139892254Y-106189664D01*
X139702400Y-106120564D01*
X139538333Y-106101000D01*
X139439336Y-106101000D01*
X139289569Y-106117799D01*
X139099099Y-106184128D01*
X138928059Y-106291006D01*
X138855041Y-106363515D01*
X138791786Y-106298921D01*
X138622254Y-106189664D01*
X138432400Y-106120564D01*
X138268333Y-106101000D01*
X138169336Y-106101000D01*
X138019569Y-106117799D01*
X137829099Y-106184128D01*
X137658059Y-106291006D01*
X137585041Y-106363515D01*
X137521786Y-106298921D01*
X137352254Y-106189664D01*
X137162400Y-106120564D01*
X136998333Y-106101000D01*
X136899336Y-106101000D01*
X136749569Y-106117799D01*
X136559099Y-106184128D01*
X136388059Y-106291006D01*
X136315041Y-106363515D01*
X136251786Y-106298921D01*
X136082254Y-106189664D01*
X135892400Y-106120564D01*
X135728333Y-106101000D01*
X135629336Y-106101000D01*
X135501079Y-106115386D01*
X129778570Y-100392878D01*
X129830577Y-100321295D01*
X129899000Y-100110711D01*
X129899000Y-99949000D01*
X133466423Y-99949000D01*
X133578705Y-100030577D01*
X133789289Y-100099000D01*
X134010711Y-100099000D01*
X134221295Y-100030577D01*
X134400429Y-99900429D01*
X134530577Y-99721295D01*
X134599000Y-99510711D01*
X134599000Y-99289289D01*
X134530577Y-99078705D01*
X134400429Y-98899571D01*
X134221295Y-98769423D01*
X134157121Y-98748572D01*
X134406693Y-98499000D01*
X134850854Y-98499000D01*
X134900000Y-98508776D01*
X134958708Y-98497098D01*
X135094700Y-98470047D01*
X135259759Y-98359759D01*
X135287600Y-98318092D01*
X136717805Y-96887888D01*
X136799570Y-97000429D01*
X136799570Y-97000429D01*
G37*
X136799570Y-97000429D02*
X136801000Y-97001468D01*
X136801000Y-97140854D01*
X136791224Y-97190000D01*
X136822612Y-97347793D01*
X136829954Y-97384700D01*
X136940241Y-97549759D01*
X136981908Y-97577600D01*
X145552446Y-106148139D01*
X145449099Y-106184128D01*
X145278059Y-106291006D01*
X145205041Y-106363515D01*
X145141786Y-106298921D01*
X144972254Y-106189664D01*
X144782400Y-106120564D01*
X144618333Y-106101000D01*
X144519336Y-106101000D01*
X144369569Y-106117799D01*
X144179099Y-106184128D01*
X144008059Y-106291006D01*
X143935041Y-106363515D01*
X143871786Y-106298921D01*
X143702254Y-106189664D01*
X143512400Y-106120564D01*
X143348333Y-106101000D01*
X143249336Y-106101000D01*
X143099569Y-106117799D01*
X142909099Y-106184128D01*
X142738059Y-106291006D01*
X142665041Y-106363515D01*
X142601786Y-106298921D01*
X142432254Y-106189664D01*
X142242400Y-106120564D01*
X142078333Y-106101000D01*
X141979336Y-106101000D01*
X141829569Y-106117799D01*
X141639099Y-106184128D01*
X141468059Y-106291006D01*
X141395041Y-106363515D01*
X141331786Y-106298921D01*
X141162254Y-106189664D01*
X140972400Y-106120564D01*
X140808333Y-106101000D01*
X140709336Y-106101000D01*
X140559569Y-106117799D01*
X140369099Y-106184128D01*
X140198059Y-106291006D01*
X140125041Y-106363515D01*
X140061786Y-106298921D01*
X139892254Y-106189664D01*
X139702400Y-106120564D01*
X139538333Y-106101000D01*
X139439336Y-106101000D01*
X139289569Y-106117799D01*
X139099099Y-106184128D01*
X138928059Y-106291006D01*
X138855041Y-106363515D01*
X138791786Y-106298921D01*
X138622254Y-106189664D01*
X138432400Y-106120564D01*
X138268333Y-106101000D01*
X138169336Y-106101000D01*
X138019569Y-106117799D01*
X137829099Y-106184128D01*
X137658059Y-106291006D01*
X137585041Y-106363515D01*
X137521786Y-106298921D01*
X137352254Y-106189664D01*
X137162400Y-106120564D01*
X136998333Y-106101000D01*
X136899336Y-106101000D01*
X136749569Y-106117799D01*
X136559099Y-106184128D01*
X136388059Y-106291006D01*
X136315041Y-106363515D01*
X136251786Y-106298921D01*
X136082254Y-106189664D01*
X135892400Y-106120564D01*
X135728333Y-106101000D01*
X135629336Y-106101000D01*
X135501079Y-106115386D01*
X129778570Y-100392878D01*
X129830577Y-100321295D01*
X129899000Y-100110711D01*
X129899000Y-99949000D01*
X133466423Y-99949000D01*
X133578705Y-100030577D01*
X133789289Y-100099000D01*
X134010711Y-100099000D01*
X134221295Y-100030577D01*
X134400429Y-99900429D01*
X134530577Y-99721295D01*
X134599000Y-99510711D01*
X134599000Y-99289289D01*
X134530577Y-99078705D01*
X134400429Y-98899571D01*
X134221295Y-98769423D01*
X134157121Y-98748572D01*
X134406693Y-98499000D01*
X134850854Y-98499000D01*
X134900000Y-98508776D01*
X134958708Y-98497098D01*
X135094700Y-98470047D01*
X135259759Y-98359759D01*
X135287600Y-98318092D01*
X136717805Y-96887888D01*
X136799570Y-97000429D01*
G36*
X125910804Y-96641094D02*
G01*
X125801123Y-96641094D01*
X125590539Y-96709517D01*
X125411405Y-96839665D01*
X125281257Y-97018799D01*
X125212834Y-97229383D01*
X125212834Y-97325048D01*
X125079802Y-97368273D01*
X124900668Y-97498421D01*
X124840555Y-97581159D01*
X124741294Y-97481899D01*
X124713451Y-97440229D01*
X124548392Y-97329941D01*
X124412400Y-97302890D01*
X124353692Y-97291212D01*
X124304546Y-97300988D01*
X121649157Y-97300988D01*
X121600011Y-97291212D01*
X121541303Y-97302890D01*
X121405312Y-97329941D01*
X121240253Y-97440229D01*
X121212416Y-97481890D01*
X116873308Y-101821000D01*
X114684519Y-101821000D01*
X114807133Y-102154254D01*
X114924785Y-102344007D01*
X115073245Y-102501000D01*
X112936092Y-102501000D01*
X114895123Y-100541970D01*
X114895123Y-100909751D01*
X114916290Y-101016161D01*
X114863190Y-101084616D01*
X114764616Y-101284944D01*
X114703649Y-101519000D01*
X116915481Y-101519000D01*
X116792867Y-101185746D01*
X116684684Y-101011264D01*
X116704877Y-100909751D01*
X116704877Y-99890249D01*
X116675849Y-99744318D01*
X116589943Y-99615749D01*
X118930257Y-97275436D01*
X118945157Y-97321295D01*
X119075305Y-97500429D01*
X119254439Y-97630577D01*
X119465023Y-97699000D01*
X119686445Y-97699000D01*
X119897029Y-97630577D01*
X120076163Y-97500429D01*
X120206311Y-97321295D01*
X120274734Y-97110711D01*
X120274734Y-97006691D01*
X120682383Y-96599044D01*
X125973737Y-96599044D01*
X125910804Y-96641094D01*
X125910804Y-96641094D01*
G37*
X125910804Y-96641094D02*
X125801123Y-96641094D01*
X125590539Y-96709517D01*
X125411405Y-96839665D01*
X125281257Y-97018799D01*
X125212834Y-97229383D01*
X125212834Y-97325048D01*
X125079802Y-97368273D01*
X124900668Y-97498421D01*
X124840555Y-97581159D01*
X124741294Y-97481899D01*
X124713451Y-97440229D01*
X124548392Y-97329941D01*
X124412400Y-97302890D01*
X124353692Y-97291212D01*
X124304546Y-97300988D01*
X121649157Y-97300988D01*
X121600011Y-97291212D01*
X121541303Y-97302890D01*
X121405312Y-97329941D01*
X121240253Y-97440229D01*
X121212416Y-97481890D01*
X116873308Y-101821000D01*
X114684519Y-101821000D01*
X114807133Y-102154254D01*
X114924785Y-102344007D01*
X115073245Y-102501000D01*
X112936092Y-102501000D01*
X114895123Y-100541970D01*
X114895123Y-100909751D01*
X114916290Y-101016161D01*
X114863190Y-101084616D01*
X114764616Y-101284944D01*
X114703649Y-101519000D01*
X116915481Y-101519000D01*
X116792867Y-101185746D01*
X116684684Y-101011264D01*
X116704877Y-100909751D01*
X116704877Y-99890249D01*
X116675849Y-99744318D01*
X116589943Y-99615749D01*
X118930257Y-97275436D01*
X118945157Y-97321295D01*
X119075305Y-97500429D01*
X119254439Y-97630577D01*
X119465023Y-97699000D01*
X119686445Y-97699000D01*
X119897029Y-97630577D01*
X120076163Y-97500429D01*
X120206311Y-97321295D01*
X120274734Y-97110711D01*
X120274734Y-97006691D01*
X120682383Y-96599044D01*
X125973737Y-96599044D01*
X125910804Y-96641094D01*
G36*
X93901000Y-74010711D02*
G01*
X93969423Y-74221295D01*
X94099571Y-74400429D01*
X94278705Y-74530577D01*
X94489289Y-74599000D01*
X94593308Y-74599000D01*
X104312404Y-84318098D01*
X104318562Y-84327315D01*
X104305300Y-84329953D01*
X104140241Y-84440241D01*
X104112402Y-84481905D01*
X99681906Y-88912402D01*
X99640242Y-88940241D01*
X99575481Y-89037163D01*
X99529953Y-89105301D01*
X99491224Y-89300000D01*
X99501001Y-89349151D01*
X99501001Y-89698532D01*
X99499571Y-89699571D01*
X99369423Y-89878705D01*
X99301000Y-90089289D01*
X99301000Y-90310711D01*
X99369423Y-90521295D01*
X99499571Y-90700429D01*
X99678705Y-90830577D01*
X99889289Y-90899000D01*
X100110711Y-90899000D01*
X100321295Y-90830577D01*
X100500429Y-90700429D01*
X100501000Y-90699643D01*
X100501000Y-90910711D01*
X100569423Y-91121295D01*
X100699571Y-91300429D01*
X100878705Y-91430577D01*
X101089289Y-91499000D01*
X101193308Y-91499000D01*
X109212402Y-99518095D01*
X109240241Y-99559759D01*
X109405300Y-99670047D01*
X109541197Y-99697079D01*
X109600000Y-99708776D01*
X109649146Y-99699000D01*
X110798532Y-99699000D01*
X110799570Y-99700429D01*
X110937995Y-99801000D01*
X94906693Y-99801000D01*
X93699000Y-98593308D01*
X93699000Y-98489289D01*
X93630577Y-98278705D01*
X93500429Y-98099571D01*
X93321295Y-97969423D01*
X93110711Y-97901000D01*
X92889289Y-97901000D01*
X92678705Y-97969423D01*
X92499571Y-98099571D01*
X92422854Y-98205163D01*
X89499000Y-95281310D01*
X89499000Y-94601468D01*
X89500429Y-94600430D01*
X89630577Y-94421295D01*
X89699000Y-94210711D01*
X89699000Y-93989289D01*
X89630577Y-93778705D01*
X89500429Y-93599571D01*
X89321295Y-93469423D01*
X89110711Y-93401000D01*
X88889289Y-93401000D01*
X88678705Y-93469423D01*
X88499571Y-93599571D01*
X88369423Y-93778705D01*
X88301000Y-93989289D01*
X88301000Y-94210711D01*
X88369423Y-94421295D01*
X88499570Y-94600429D01*
X88501000Y-94601468D01*
X88501001Y-95195309D01*
X88211499Y-94905807D01*
X88211499Y-79594193D01*
X93901000Y-73904694D01*
X93901000Y-74010711D01*
X93901000Y-74010711D01*
G37*
X93901000Y-74010711D02*
X93969423Y-74221295D01*
X94099571Y-74400429D01*
X94278705Y-74530577D01*
X94489289Y-74599000D01*
X94593308Y-74599000D01*
X104312404Y-84318098D01*
X104318562Y-84327315D01*
X104305300Y-84329953D01*
X104140241Y-84440241D01*
X104112402Y-84481905D01*
X99681906Y-88912402D01*
X99640242Y-88940241D01*
X99575481Y-89037163D01*
X99529953Y-89105301D01*
X99491224Y-89300000D01*
X99501001Y-89349151D01*
X99501001Y-89698532D01*
X99499571Y-89699571D01*
X99369423Y-89878705D01*
X99301000Y-90089289D01*
X99301000Y-90310711D01*
X99369423Y-90521295D01*
X99499571Y-90700429D01*
X99678705Y-90830577D01*
X99889289Y-90899000D01*
X100110711Y-90899000D01*
X100321295Y-90830577D01*
X100500429Y-90700429D01*
X100501000Y-90699643D01*
X100501000Y-90910711D01*
X100569423Y-91121295D01*
X100699571Y-91300429D01*
X100878705Y-91430577D01*
X101089289Y-91499000D01*
X101193308Y-91499000D01*
X109212402Y-99518095D01*
X109240241Y-99559759D01*
X109405300Y-99670047D01*
X109541197Y-99697079D01*
X109600000Y-99708776D01*
X109649146Y-99699000D01*
X110798532Y-99699000D01*
X110799570Y-99700429D01*
X110937995Y-99801000D01*
X94906693Y-99801000D01*
X93699000Y-98593308D01*
X93699000Y-98489289D01*
X93630577Y-98278705D01*
X93500429Y-98099571D01*
X93321295Y-97969423D01*
X93110711Y-97901000D01*
X92889289Y-97901000D01*
X92678705Y-97969423D01*
X92499571Y-98099571D01*
X92422854Y-98205163D01*
X89499000Y-95281310D01*
X89499000Y-94601468D01*
X89500429Y-94600430D01*
X89630577Y-94421295D01*
X89699000Y-94210711D01*
X89699000Y-93989289D01*
X89630577Y-93778705D01*
X89500429Y-93599571D01*
X89321295Y-93469423D01*
X89110711Y-93401000D01*
X88889289Y-93401000D01*
X88678705Y-93469423D01*
X88499571Y-93599571D01*
X88369423Y-93778705D01*
X88301000Y-93989289D01*
X88301000Y-94210711D01*
X88369423Y-94421295D01*
X88499570Y-94600429D01*
X88501000Y-94601468D01*
X88501001Y-95195309D01*
X88211499Y-94905807D01*
X88211499Y-79594193D01*
X93901000Y-73904694D01*
X93901000Y-74010711D01*
G36*
X124407496Y-93486812D02*
G01*
X119197636Y-93486812D01*
X119148490Y-93477036D01*
X119089782Y-93488714D01*
X118953790Y-93515765D01*
X118788731Y-93626053D01*
X118760890Y-93667720D01*
X118431184Y-93997427D01*
X118400000Y-93991224D01*
X118341292Y-94002902D01*
X118205300Y-94029953D01*
X118040241Y-94140241D01*
X118012402Y-94181905D01*
X113999000Y-98195308D01*
X113999000Y-97989289D01*
X113930577Y-97778705D01*
X113800429Y-97599571D01*
X113662004Y-97499000D01*
X114050854Y-97499000D01*
X114100000Y-97508776D01*
X114158708Y-97497098D01*
X114294700Y-97470047D01*
X114459759Y-97359759D01*
X114487600Y-97318092D01*
X119606693Y-92199001D01*
X125695306Y-92199001D01*
X124407496Y-93486812D01*
X124407496Y-93486812D01*
G37*
X124407496Y-93486812D02*
X119197636Y-93486812D01*
X119148490Y-93477036D01*
X119089782Y-93488714D01*
X118953790Y-93515765D01*
X118788731Y-93626053D01*
X118760890Y-93667720D01*
X118431184Y-93997427D01*
X118400000Y-93991224D01*
X118341292Y-94002902D01*
X118205300Y-94029953D01*
X118040241Y-94140241D01*
X118012402Y-94181905D01*
X113999000Y-98195308D01*
X113999000Y-97989289D01*
X113930577Y-97778705D01*
X113800429Y-97599571D01*
X113662004Y-97499000D01*
X114050854Y-97499000D01*
X114100000Y-97508776D01*
X114158708Y-97497098D01*
X114294700Y-97470047D01*
X114459759Y-97359759D01*
X114487600Y-97318092D01*
X119606693Y-92199001D01*
X125695306Y-92199001D01*
X124407496Y-93486812D01*
G36*
X142301000Y-83627332D02*
G01*
X142221295Y-83569423D01*
X142010711Y-83501000D01*
X141789289Y-83501000D01*
X141578705Y-83569423D01*
X141399571Y-83699571D01*
X141269423Y-83878705D01*
X141201000Y-84089289D01*
X141201000Y-84310711D01*
X141269423Y-84521295D01*
X141399571Y-84700429D01*
X141578705Y-84830577D01*
X141616406Y-84842827D01*
X141616405Y-86198532D01*
X141614975Y-86199571D01*
X141484828Y-86378705D01*
X141416405Y-86589289D01*
X141416405Y-86810711D01*
X141484828Y-87021295D01*
X141614976Y-87200429D01*
X141794110Y-87330577D01*
X142004694Y-87399000D01*
X142226116Y-87399000D01*
X142301001Y-87374668D01*
X142301001Y-87474706D01*
X140474686Y-89301022D01*
X139014823Y-89301022D01*
X138965677Y-89291246D01*
X138906969Y-89302924D01*
X138770978Y-89329975D01*
X138605919Y-89440263D01*
X138578082Y-89481924D01*
X136214793Y-91845215D01*
X136214790Y-91845217D01*
X134517540Y-93542467D01*
X134480577Y-93428705D01*
X134350429Y-93249571D01*
X134171295Y-93119423D01*
X133960711Y-93051000D01*
X133739289Y-93051000D01*
X133528705Y-93119423D01*
X133349571Y-93249571D01*
X133219423Y-93428705D01*
X133151000Y-93639289D01*
X133151000Y-93743308D01*
X132893287Y-94001022D01*
X132099000Y-94001022D01*
X132099000Y-93906692D01*
X133906684Y-92099010D01*
X135650844Y-92099010D01*
X135699990Y-92108786D01*
X135758698Y-92097108D01*
X135894690Y-92070057D01*
X136059749Y-91959769D01*
X136087590Y-91918102D01*
X140418111Y-87587583D01*
X140459772Y-87559746D01*
X140570060Y-87394687D01*
X140597111Y-87258695D01*
X140608789Y-87199988D01*
X140599013Y-87150842D01*
X140599013Y-85249158D01*
X140608789Y-85200012D01*
X140595988Y-85135659D01*
X140570060Y-85005313D01*
X140459772Y-84840254D01*
X140418109Y-84812416D01*
X139599011Y-83993320D01*
X139599011Y-83575876D01*
X139636336Y-83581788D01*
X139689310Y-83599000D01*
X140155414Y-83599000D01*
X140155420Y-83598999D01*
X140210710Y-83598999D01*
X140263678Y-83581789D01*
X140318695Y-83573075D01*
X140368331Y-83547785D01*
X140421295Y-83530576D01*
X140466357Y-83497837D01*
X140515983Y-83472552D01*
X140672825Y-83315711D01*
X140672826Y-83315709D01*
X142301000Y-81687535D01*
X142301000Y-83627332D01*
X142301000Y-83627332D01*
G37*
X142301000Y-83627332D02*
X142221295Y-83569423D01*
X142010711Y-83501000D01*
X141789289Y-83501000D01*
X141578705Y-83569423D01*
X141399571Y-83699571D01*
X141269423Y-83878705D01*
X141201000Y-84089289D01*
X141201000Y-84310711D01*
X141269423Y-84521295D01*
X141399571Y-84700429D01*
X141578705Y-84830577D01*
X141616406Y-84842827D01*
X141616405Y-86198532D01*
X141614975Y-86199571D01*
X141484828Y-86378705D01*
X141416405Y-86589289D01*
X141416405Y-86810711D01*
X141484828Y-87021295D01*
X141614976Y-87200429D01*
X141794110Y-87330577D01*
X142004694Y-87399000D01*
X142226116Y-87399000D01*
X142301001Y-87374668D01*
X142301001Y-87474706D01*
X140474686Y-89301022D01*
X139014823Y-89301022D01*
X138965677Y-89291246D01*
X138906969Y-89302924D01*
X138770978Y-89329975D01*
X138605919Y-89440263D01*
X138578082Y-89481924D01*
X136214793Y-91845215D01*
X136214790Y-91845217D01*
X134517540Y-93542467D01*
X134480577Y-93428705D01*
X134350429Y-93249571D01*
X134171295Y-93119423D01*
X133960711Y-93051000D01*
X133739289Y-93051000D01*
X133528705Y-93119423D01*
X133349571Y-93249571D01*
X133219423Y-93428705D01*
X133151000Y-93639289D01*
X133151000Y-93743308D01*
X132893287Y-94001022D01*
X132099000Y-94001022D01*
X132099000Y-93906692D01*
X133906684Y-92099010D01*
X135650844Y-92099010D01*
X135699990Y-92108786D01*
X135758698Y-92097108D01*
X135894690Y-92070057D01*
X136059749Y-91959769D01*
X136087590Y-91918102D01*
X140418111Y-87587583D01*
X140459772Y-87559746D01*
X140570060Y-87394687D01*
X140597111Y-87258695D01*
X140608789Y-87199988D01*
X140599013Y-87150842D01*
X140599013Y-85249158D01*
X140608789Y-85200012D01*
X140595988Y-85135659D01*
X140570060Y-85005313D01*
X140459772Y-84840254D01*
X140418109Y-84812416D01*
X139599011Y-83993320D01*
X139599011Y-83575876D01*
X139636336Y-83581788D01*
X139689310Y-83599000D01*
X140155414Y-83599000D01*
X140155420Y-83598999D01*
X140210710Y-83598999D01*
X140263678Y-83581789D01*
X140318695Y-83573075D01*
X140368331Y-83547785D01*
X140421295Y-83530576D01*
X140466357Y-83497837D01*
X140515983Y-83472552D01*
X140672825Y-83315711D01*
X140672826Y-83315709D01*
X142301000Y-81687535D01*
X142301000Y-83627332D01*
G36*
X110832404Y-87738098D02*
G01*
X110860241Y-87779759D01*
X111025300Y-87890047D01*
X111161292Y-87917098D01*
X111219999Y-87928776D01*
X111269145Y-87919000D01*
X111351431Y-87919000D01*
X111387100Y-87976979D01*
X111463525Y-88055021D01*
X111394947Y-88123122D01*
X111286876Y-88293413D01*
X111219220Y-88483415D01*
X111195340Y-88683684D01*
X111216421Y-88884267D01*
X111281418Y-89075195D01*
X111337392Y-89166179D01*
X111300032Y-89198200D01*
X111163190Y-89374616D01*
X111064616Y-89574944D01*
X111003649Y-89809000D01*
X113215481Y-89809000D01*
X113092867Y-89475746D01*
X112975215Y-89285993D01*
X112862332Y-89166622D01*
X112913124Y-89086587D01*
X112980780Y-88896585D01*
X113004660Y-88696316D01*
X112983579Y-88495733D01*
X112918582Y-88304805D01*
X112812900Y-88133021D01*
X112736475Y-88054979D01*
X112805053Y-87986878D01*
X112846957Y-87920849D01*
X112865814Y-87917098D01*
X113001806Y-87890047D01*
X113166865Y-87779759D01*
X113194707Y-87738090D01*
X113333798Y-87599000D01*
X113801000Y-87599000D01*
X113801000Y-87810711D01*
X113869423Y-88021295D01*
X113999259Y-88200000D01*
X113869423Y-88378705D01*
X113801000Y-88589289D01*
X113801000Y-88601000D01*
X113789289Y-88601000D01*
X113578705Y-88669423D01*
X113399571Y-88799571D01*
X113269423Y-88978705D01*
X113201000Y-89189289D01*
X113201000Y-89410711D01*
X113269423Y-89621295D01*
X113399571Y-89800429D01*
X113578705Y-89930577D01*
X113789289Y-89999000D01*
X114010711Y-89999000D01*
X114221295Y-89930577D01*
X114400430Y-89800429D01*
X114401468Y-89799000D01*
X116632416Y-89799000D01*
X116623495Y-89802992D01*
X116612566Y-89814551D01*
X116584924Y-89836596D01*
X116565367Y-89851313D01*
X116548770Y-89862402D01*
X116543110Y-89868062D01*
X116511226Y-89892056D01*
X116500128Y-89910869D01*
X116499174Y-89911999D01*
X116437596Y-89973576D01*
X116436464Y-89974532D01*
X116417656Y-89985627D01*
X116393664Y-90017506D01*
X116387993Y-90023177D01*
X116376894Y-90039789D01*
X116362181Y-90059339D01*
X116340155Y-90086959D01*
X116328584Y-90097897D01*
X116299957Y-90161871D01*
X116267785Y-90224146D01*
X116267645Y-90225804D01*
X116266719Y-90227190D01*
X116253041Y-90295945D01*
X116251509Y-90301886D01*
X116245545Y-90303425D01*
X116176817Y-90317096D01*
X116175426Y-90318025D01*
X116173757Y-90318166D01*
X116111510Y-90350326D01*
X116047541Y-90378947D01*
X116036615Y-90390503D01*
X116008936Y-90412579D01*
X115989407Y-90427276D01*
X115972805Y-90438369D01*
X115967138Y-90444036D01*
X115935251Y-90468033D01*
X115924156Y-90486841D01*
X115923195Y-90487979D01*
X115861630Y-90549543D01*
X115860498Y-90550499D01*
X115841690Y-90561594D01*
X115817698Y-90593473D01*
X115812027Y-90599144D01*
X115800928Y-90615756D01*
X115786215Y-90635306D01*
X115764189Y-90662926D01*
X115752618Y-90673864D01*
X115723991Y-90737838D01*
X115691819Y-90800113D01*
X115691679Y-90801771D01*
X115690753Y-90803157D01*
X115677075Y-90871912D01*
X115659575Y-90939756D01*
X115659809Y-90941413D01*
X115659213Y-90942974D01*
X115661178Y-91013012D01*
X115659211Y-91083077D01*
X115659806Y-91084636D01*
X115659573Y-91086288D01*
X115669507Y-91124798D01*
X114796613Y-91997695D01*
X114796611Y-91997697D01*
X113293309Y-93501000D01*
X112106693Y-93501000D01*
X112010570Y-93404877D01*
X112609751Y-93404877D01*
X112755682Y-93375849D01*
X112887663Y-93287663D01*
X112975849Y-93155682D01*
X113004877Y-93009751D01*
X113004877Y-91990249D01*
X112975849Y-91844318D01*
X112887663Y-91712337D01*
X112867328Y-91698750D01*
X112913124Y-91626587D01*
X112980780Y-91436585D01*
X113004660Y-91236316D01*
X112983579Y-91035733D01*
X112918582Y-90844805D01*
X112862608Y-90753821D01*
X112899968Y-90721800D01*
X113036810Y-90545384D01*
X113135384Y-90345056D01*
X113196351Y-90111000D01*
X110984519Y-90111000D01*
X111107133Y-90444254D01*
X111224785Y-90634007D01*
X111337668Y-90753378D01*
X111286876Y-90833413D01*
X111219220Y-91023415D01*
X111195340Y-91223684D01*
X111216421Y-91424267D01*
X111281418Y-91615195D01*
X111332778Y-91698679D01*
X111312337Y-91712337D01*
X111224151Y-91844318D01*
X111195123Y-91990249D01*
X111195123Y-92589430D01*
X106987600Y-88381908D01*
X106959759Y-88340241D01*
X106794700Y-88229953D01*
X106658708Y-88202902D01*
X106600000Y-88191224D01*
X106550854Y-88201000D01*
X103849146Y-88201000D01*
X103800000Y-88191224D01*
X103741292Y-88202902D01*
X103605300Y-88229953D01*
X103440241Y-88340241D01*
X103412402Y-88381905D01*
X102643308Y-89151000D01*
X102539289Y-89151000D01*
X102328705Y-89219423D01*
X102149571Y-89349571D01*
X102019423Y-89528705D01*
X102010236Y-89556978D01*
X101793811Y-89556978D01*
X101583227Y-89625401D01*
X101404093Y-89755549D01*
X101273945Y-89934683D01*
X101219905Y-90101000D01*
X101089289Y-90101000D01*
X100878705Y-90169423D01*
X100699571Y-90299571D01*
X100699000Y-90300357D01*
X100699000Y-90089289D01*
X100630577Y-89878705D01*
X100500429Y-89699570D01*
X100499000Y-89698532D01*
X100499000Y-89506692D01*
X104706693Y-85299000D01*
X106198532Y-85299000D01*
X106199570Y-85300429D01*
X106378705Y-85430577D01*
X106589289Y-85499000D01*
X106810711Y-85499000D01*
X107021295Y-85430577D01*
X107200429Y-85300429D01*
X107330577Y-85121295D01*
X107399000Y-84910711D01*
X107399000Y-84689289D01*
X107337171Y-84499000D01*
X107593308Y-84499000D01*
X110832404Y-87738098D01*
X110832404Y-87738098D01*
G37*
X110832404Y-87738098D02*
X110860241Y-87779759D01*
X111025300Y-87890047D01*
X111161292Y-87917098D01*
X111219999Y-87928776D01*
X111269145Y-87919000D01*
X111351431Y-87919000D01*
X111387100Y-87976979D01*
X111463525Y-88055021D01*
X111394947Y-88123122D01*
X111286876Y-88293413D01*
X111219220Y-88483415D01*
X111195340Y-88683684D01*
X111216421Y-88884267D01*
X111281418Y-89075195D01*
X111337392Y-89166179D01*
X111300032Y-89198200D01*
X111163190Y-89374616D01*
X111064616Y-89574944D01*
X111003649Y-89809000D01*
X113215481Y-89809000D01*
X113092867Y-89475746D01*
X112975215Y-89285993D01*
X112862332Y-89166622D01*
X112913124Y-89086587D01*
X112980780Y-88896585D01*
X113004660Y-88696316D01*
X112983579Y-88495733D01*
X112918582Y-88304805D01*
X112812900Y-88133021D01*
X112736475Y-88054979D01*
X112805053Y-87986878D01*
X112846957Y-87920849D01*
X112865814Y-87917098D01*
X113001806Y-87890047D01*
X113166865Y-87779759D01*
X113194707Y-87738090D01*
X113333798Y-87599000D01*
X113801000Y-87599000D01*
X113801000Y-87810711D01*
X113869423Y-88021295D01*
X113999259Y-88200000D01*
X113869423Y-88378705D01*
X113801000Y-88589289D01*
X113801000Y-88601000D01*
X113789289Y-88601000D01*
X113578705Y-88669423D01*
X113399571Y-88799571D01*
X113269423Y-88978705D01*
X113201000Y-89189289D01*
X113201000Y-89410711D01*
X113269423Y-89621295D01*
X113399571Y-89800429D01*
X113578705Y-89930577D01*
X113789289Y-89999000D01*
X114010711Y-89999000D01*
X114221295Y-89930577D01*
X114400430Y-89800429D01*
X114401468Y-89799000D01*
X116632416Y-89799000D01*
X116623495Y-89802992D01*
X116612566Y-89814551D01*
X116584924Y-89836596D01*
X116565367Y-89851313D01*
X116548770Y-89862402D01*
X116543110Y-89868062D01*
X116511226Y-89892056D01*
X116500128Y-89910869D01*
X116499174Y-89911999D01*
X116437596Y-89973576D01*
X116436464Y-89974532D01*
X116417656Y-89985627D01*
X116393664Y-90017506D01*
X116387993Y-90023177D01*
X116376894Y-90039789D01*
X116362181Y-90059339D01*
X116340155Y-90086959D01*
X116328584Y-90097897D01*
X116299957Y-90161871D01*
X116267785Y-90224146D01*
X116267645Y-90225804D01*
X116266719Y-90227190D01*
X116253041Y-90295945D01*
X116251509Y-90301886D01*
X116245545Y-90303425D01*
X116176817Y-90317096D01*
X116175426Y-90318025D01*
X116173757Y-90318166D01*
X116111510Y-90350326D01*
X116047541Y-90378947D01*
X116036615Y-90390503D01*
X116008936Y-90412579D01*
X115989407Y-90427276D01*
X115972805Y-90438369D01*
X115967138Y-90444036D01*
X115935251Y-90468033D01*
X115924156Y-90486841D01*
X115923195Y-90487979D01*
X115861630Y-90549543D01*
X115860498Y-90550499D01*
X115841690Y-90561594D01*
X115817698Y-90593473D01*
X115812027Y-90599144D01*
X115800928Y-90615756D01*
X115786215Y-90635306D01*
X115764189Y-90662926D01*
X115752618Y-90673864D01*
X115723991Y-90737838D01*
X115691819Y-90800113D01*
X115691679Y-90801771D01*
X115690753Y-90803157D01*
X115677075Y-90871912D01*
X115659575Y-90939756D01*
X115659809Y-90941413D01*
X115659213Y-90942974D01*
X115661178Y-91013012D01*
X115659211Y-91083077D01*
X115659806Y-91084636D01*
X115659573Y-91086288D01*
X115669507Y-91124798D01*
X114796613Y-91997695D01*
X114796611Y-91997697D01*
X113293309Y-93501000D01*
X112106693Y-93501000D01*
X112010570Y-93404877D01*
X112609751Y-93404877D01*
X112755682Y-93375849D01*
X112887663Y-93287663D01*
X112975849Y-93155682D01*
X113004877Y-93009751D01*
X113004877Y-91990249D01*
X112975849Y-91844318D01*
X112887663Y-91712337D01*
X112867328Y-91698750D01*
X112913124Y-91626587D01*
X112980780Y-91436585D01*
X113004660Y-91236316D01*
X112983579Y-91035733D01*
X112918582Y-90844805D01*
X112862608Y-90753821D01*
X112899968Y-90721800D01*
X113036810Y-90545384D01*
X113135384Y-90345056D01*
X113196351Y-90111000D01*
X110984519Y-90111000D01*
X111107133Y-90444254D01*
X111224785Y-90634007D01*
X111337668Y-90753378D01*
X111286876Y-90833413D01*
X111219220Y-91023415D01*
X111195340Y-91223684D01*
X111216421Y-91424267D01*
X111281418Y-91615195D01*
X111332778Y-91698679D01*
X111312337Y-91712337D01*
X111224151Y-91844318D01*
X111195123Y-91990249D01*
X111195123Y-92589430D01*
X106987600Y-88381908D01*
X106959759Y-88340241D01*
X106794700Y-88229953D01*
X106658708Y-88202902D01*
X106600000Y-88191224D01*
X106550854Y-88201000D01*
X103849146Y-88201000D01*
X103800000Y-88191224D01*
X103741292Y-88202902D01*
X103605300Y-88229953D01*
X103440241Y-88340241D01*
X103412402Y-88381905D01*
X102643308Y-89151000D01*
X102539289Y-89151000D01*
X102328705Y-89219423D01*
X102149571Y-89349571D01*
X102019423Y-89528705D01*
X102010236Y-89556978D01*
X101793811Y-89556978D01*
X101583227Y-89625401D01*
X101404093Y-89755549D01*
X101273945Y-89934683D01*
X101219905Y-90101000D01*
X101089289Y-90101000D01*
X100878705Y-90169423D01*
X100699571Y-90299571D01*
X100699000Y-90300357D01*
X100699000Y-90089289D01*
X100630577Y-89878705D01*
X100500429Y-89699570D01*
X100499000Y-89698532D01*
X100499000Y-89506692D01*
X104706693Y-85299000D01*
X106198532Y-85299000D01*
X106199570Y-85300429D01*
X106378705Y-85430577D01*
X106589289Y-85499000D01*
X106810711Y-85499000D01*
X107021295Y-85430577D01*
X107200429Y-85300429D01*
X107330577Y-85121295D01*
X107399000Y-84910711D01*
X107399000Y-84689289D01*
X107337171Y-84499000D01*
X107593308Y-84499000D01*
X110832404Y-87738098D01*
M02*
