G04 #@! TF.GenerationSoftware,KiCad,Pcbnew,5.99.0-unknown-89e9857~86~ubuntu18.04.1*
G04 #@! TF.CreationDate,2019-10-10T16:09:36-04:00*
G04 #@! TF.ProjectId,node_base,6e6f6465-5f62-4617-9365-2e6b69636164,rev?*
G04 #@! TF.SameCoordinates,Original*
G04 #@! TF.FileFunction,Other,Fab,Bot*
%FSLAX46Y46*%
G04 Gerber Fmt 4.6, Leading zero omitted, Abs format (unit mm)*
G04 Created by KiCad (PCBNEW 5.99.0-unknown-89e9857~86~ubuntu18.04.1) date 2019-10-10 16:09:36*
%MOMM*%
%LPD*%
G04 APERTURE LIST*
%ADD10C,0.150000*%
G04 APERTURE END LIST*
D10*
X140542857Y-77802380D02*
X140542857Y-76802380D01*
X140209523Y-77516666D01*
X139876190Y-76802380D01*
X139876190Y-77802380D01*
X139638095Y-77897619D02*
X138876190Y-77897619D01*
X138685714Y-77516666D02*
X138209523Y-77516666D01*
X138780952Y-77802380D02*
X138447619Y-76802380D01*
X138114285Y-77802380D01*
X137780952Y-77802380D02*
X137780952Y-76802380D01*
X137542857Y-76802380D01*
X137400000Y-76850000D01*
X137304761Y-76945238D01*
X137257142Y-77040476D01*
X137209523Y-77230952D01*
X137209523Y-77373809D01*
X137257142Y-77564285D01*
X137304761Y-77659523D01*
X137400000Y-77754761D01*
X137542857Y-77802380D01*
X137780952Y-77802380D01*
X136209523Y-77707142D02*
X136257142Y-77754761D01*
X136400000Y-77802380D01*
X136495238Y-77802380D01*
X136638095Y-77754761D01*
X136733333Y-77659523D01*
X136780952Y-77564285D01*
X136828571Y-77373809D01*
X136828571Y-77230952D01*
X136780952Y-77040476D01*
X136733333Y-76945238D01*
X136638095Y-76850000D01*
X136495238Y-76802380D01*
X136400000Y-76802380D01*
X136257142Y-76850000D01*
X136209523Y-76897619D01*
M02*
