G04 #@! TF.GenerationSoftware,KiCad,Pcbnew,5.99.0-unknown-89e9857~86~ubuntu18.04.1*
G04 #@! TF.CreationDate,2019-10-10T16:09:36-04:00*
G04 #@! TF.ProjectId,node_base,6e6f6465-5f62-4617-9365-2e6b69636164,rev?*
G04 #@! TF.SameCoordinates,Original*
G04 #@! TF.FileFunction,Other,Fab,Top*
%FSLAX46Y46*%
G04 Gerber Fmt 4.6, Leading zero omitted, Abs format (unit mm)*
G04 Created by KiCad (PCBNEW 5.99.0-unknown-89e9857~86~ubuntu18.04.1) date 2019-10-10 16:09:36*
%MOMM*%
%LPD*%
G04 APERTURE LIST*
%ADD10C,0.100000*%
%ADD11C,0.120000*%
%ADD12C,0.150000*%
%ADD13C,0.060000*%
%ADD14C,0.080000*%
%ADD15C,0.075000*%
%ADD16C,0.110000*%
G04 APERTURE END LIST*
D10*
X105900000Y-93487500D02*
X105100000Y-93487500D01*
X105100000Y-93487500D02*
X105100000Y-91887500D01*
X105100000Y-91887500D02*
X105900000Y-91887500D01*
X105900000Y-91887500D02*
X105900000Y-93487500D01*
X126900000Y-80200000D02*
X127900000Y-81200000D01*
X126900000Y-78200000D02*
X127100000Y-78000000D01*
X126900000Y-81000000D02*
X126900000Y-78200000D01*
X127100000Y-81200000D02*
X126900000Y-81000000D01*
X131700000Y-81200000D02*
X127100000Y-81200000D01*
X131900000Y-81000000D02*
X131700000Y-81200000D01*
X131900000Y-78200000D02*
X131900000Y-81000000D01*
X131700000Y-78000000D02*
X131900000Y-78200000D01*
X127100000Y-78000000D02*
X131700000Y-78000000D01*
D11*
X158850000Y-70000000D02*
X81150000Y-70000000D01*
X158850000Y-110000000D02*
X158850000Y-70000000D01*
X158850000Y-110000000D02*
X81150000Y-110000000D01*
X81150000Y-70000000D02*
X81150000Y-110000000D01*
X93790000Y-80350000D02*
G75*
G03X93790000Y-80350000I-1600000J0D01*
G01*
X93790000Y-99650000D02*
G75*
G03X93790000Y-99650000I-1600000J0D01*
G01*
X149410000Y-99650000D02*
G75*
G03X149410000Y-99650000I-1600000J0D01*
G01*
X149410000Y-80350000D02*
G75*
G03X149410000Y-80350000I-1600000J0D01*
G01*
D10*
X86600000Y-106500000D02*
X85400000Y-106500000D01*
X86600000Y-108500000D02*
X86600000Y-106500000D01*
X85700000Y-108500000D02*
X86600000Y-108500000D01*
X85400000Y-108200000D02*
X85700000Y-108500000D01*
X85400000Y-106500000D02*
X85400000Y-108200000D01*
X96365000Y-74270000D02*
X95730000Y-73635000D01*
X103350000Y-74270000D02*
X96365000Y-74270000D01*
X103350000Y-71730000D02*
X103350000Y-74270000D01*
X95730000Y-71730000D02*
X103350000Y-71730000D01*
X95730000Y-73635000D02*
X95730000Y-71730000D01*
X107970000Y-71655000D02*
X107970000Y-76735000D01*
X105430000Y-71655000D02*
X107970000Y-71655000D01*
X105430000Y-76100000D02*
X105430000Y-71655000D01*
X106065000Y-76735000D02*
X105430000Y-76100000D01*
X107970000Y-76735000D02*
X106065000Y-76735000D01*
X119500000Y-93000000D02*
X119500000Y-94600000D01*
X118700000Y-93000000D02*
X119500000Y-93000000D01*
X118700000Y-94600000D02*
X118700000Y-93000000D01*
X119500000Y-94600000D02*
X118700000Y-94600000D01*
X121100000Y-93000000D02*
X121100000Y-94600000D01*
X120300000Y-93000000D02*
X121100000Y-93000000D01*
X120300000Y-94600000D02*
X120300000Y-93000000D01*
X121100000Y-94600000D02*
X120300000Y-94600000D01*
X140100000Y-97900000D02*
X138500000Y-97900000D01*
X140100000Y-97100000D02*
X140100000Y-97900000D01*
X138500000Y-97100000D02*
X140100000Y-97100000D01*
X138500000Y-97900000D02*
X138500000Y-97100000D01*
X140100000Y-99500000D02*
X138500000Y-99500000D01*
X140100000Y-98700000D02*
X140100000Y-99500000D01*
X138500000Y-98700000D02*
X140100000Y-98700000D01*
X138500000Y-99500000D02*
X138500000Y-98700000D01*
X93500000Y-102700000D02*
X93500000Y-104300000D01*
X93500000Y-104300000D02*
X90300000Y-104300000D01*
X90300000Y-104300000D02*
X90300000Y-102700000D01*
X90300000Y-102700000D02*
X93500000Y-102700000D01*
X141900000Y-91000000D02*
X142400000Y-90500000D01*
X141900000Y-91000000D02*
X140400000Y-91000000D01*
X142400000Y-87000000D02*
X142400000Y-90500000D01*
X140400000Y-87000000D02*
X142400000Y-87000000D01*
X140400000Y-91000000D02*
X140400000Y-87000000D01*
X94550000Y-93300000D02*
X91050000Y-93300000D01*
X91050000Y-93300000D02*
X91050000Y-91300000D01*
X91050000Y-91300000D02*
X94550000Y-91300000D01*
X94550000Y-91300000D02*
X94550000Y-93300000D01*
X94300000Y-91500000D02*
X91300000Y-91500000D01*
X94300000Y-93100000D02*
X91300000Y-93100000D01*
X91300000Y-93100000D02*
X91300000Y-91500000D01*
X94300000Y-93100000D02*
X94300000Y-91500000D01*
X95800000Y-90550000D02*
X89800000Y-90550000D01*
X95800000Y-94050000D02*
X89800000Y-94050000D01*
X95800000Y-94050000D02*
X95800000Y-90550000D01*
X89800000Y-94050000D02*
X89800000Y-90550000D01*
X104300000Y-91900000D02*
X100300000Y-91900000D01*
X100300000Y-91900000D02*
X100300000Y-93500000D01*
X100300000Y-93500000D02*
X104300000Y-93500000D01*
X104300000Y-93500000D02*
X104300000Y-91900000D01*
X103300000Y-87800000D02*
X107300000Y-87800000D01*
X107300000Y-87800000D02*
X107300000Y-86200000D01*
X107300000Y-86200000D02*
X103300000Y-86200000D01*
X103300000Y-86200000D02*
X103300000Y-87800000D01*
X91200000Y-100975000D02*
X91200000Y-100175000D01*
X91200000Y-100175000D02*
X92800000Y-100175000D01*
X92800000Y-100175000D02*
X92800000Y-100975000D01*
X92800000Y-100975000D02*
X91200000Y-100975000D01*
X125312500Y-102200000D02*
X125312500Y-103000000D01*
X125312500Y-103000000D02*
X123712500Y-103000000D01*
X123712500Y-103000000D02*
X123712500Y-102200000D01*
X123712500Y-102200000D02*
X125312500Y-102200000D01*
X125312500Y-103800000D02*
X125312500Y-104600000D01*
X125312500Y-104600000D02*
X123712500Y-104600000D01*
X123712500Y-104600000D02*
X123712500Y-103800000D01*
X123712500Y-103800000D02*
X125312500Y-103800000D01*
X125700000Y-73300000D02*
X125700000Y-74100000D01*
X125700000Y-74100000D02*
X124100000Y-74100000D01*
X124100000Y-74100000D02*
X124100000Y-73300000D01*
X124100000Y-73300000D02*
X125700000Y-73300000D01*
X125700000Y-71600000D02*
X125700000Y-72400000D01*
X125700000Y-72400000D02*
X124100000Y-72400000D01*
X124100000Y-72400000D02*
X124100000Y-71600000D01*
X124100000Y-71600000D02*
X125700000Y-71600000D01*
X115500000Y-93000000D02*
X116300000Y-93000000D01*
X116300000Y-93000000D02*
X116300000Y-94600000D01*
X116300000Y-94600000D02*
X115500000Y-94600000D01*
X115500000Y-94600000D02*
X115500000Y-93000000D01*
X117100000Y-86500000D02*
X117900000Y-86500000D01*
X117900000Y-86500000D02*
X117900000Y-88100000D01*
X117900000Y-88100000D02*
X117100000Y-88100000D01*
X117100000Y-88100000D02*
X117100000Y-86500000D01*
X115500000Y-86500000D02*
X116300000Y-86500000D01*
X116300000Y-86500000D02*
X116300000Y-88100000D01*
X116300000Y-88100000D02*
X115500000Y-88100000D01*
X115500000Y-88100000D02*
X115500000Y-86500000D01*
X117800000Y-100200000D02*
X118600000Y-100200000D01*
X118600000Y-100200000D02*
X118600000Y-101800000D01*
X118600000Y-101800000D02*
X117800000Y-101800000D01*
X117800000Y-101800000D02*
X117800000Y-100200000D01*
X101500000Y-77900000D02*
X101500000Y-78700000D01*
X101500000Y-78700000D02*
X99900000Y-78700000D01*
X99900000Y-78700000D02*
X99900000Y-77900000D01*
X99900000Y-77900000D02*
X101500000Y-77900000D01*
X99900000Y-77100000D02*
X99900000Y-76300000D01*
X99900000Y-76300000D02*
X101500000Y-76300000D01*
X101500000Y-76300000D02*
X101500000Y-77100000D01*
X101500000Y-77100000D02*
X99900000Y-77100000D01*
X88150000Y-102800000D02*
X85700000Y-102800000D01*
X88720000Y-103350000D02*
X88720000Y-104200000D01*
X88150000Y-102800000D02*
X88720000Y-103350000D01*
X88720000Y-104200000D02*
X85680000Y-104200000D01*
X85680000Y-102800000D02*
X85680000Y-104200000D01*
X121750000Y-110687500D02*
X121750000Y-105687500D01*
X115000000Y-109989204D02*
X121000000Y-109989204D01*
X114250000Y-110689204D02*
X121750000Y-110689204D01*
X114250000Y-105687500D02*
X121750000Y-105687500D01*
X114250000Y-110687500D02*
X114250000Y-105687500D01*
X116700000Y-105587500D02*
X116500000Y-105387500D01*
X116900000Y-105387500D02*
X116700000Y-105587500D01*
X116500000Y-105177500D02*
X116900000Y-105177500D01*
X116500000Y-105177500D02*
X116500000Y-105387500D01*
X116900000Y-105177500D02*
X116900000Y-105387500D01*
X112170000Y-75535000D02*
X110265000Y-75535000D01*
X110265000Y-75535000D02*
X109630000Y-74900000D01*
X109630000Y-74900000D02*
X109630000Y-71725000D01*
X109630000Y-71725000D02*
X112170000Y-71725000D01*
X112170000Y-71725000D02*
X112170000Y-75535000D01*
X104165000Y-81670000D02*
X104165000Y-79765000D01*
X104165000Y-79765000D02*
X104800000Y-79130000D01*
X104800000Y-79130000D02*
X111785000Y-79130000D01*
X111785000Y-79130000D02*
X111785000Y-81670000D01*
X111785000Y-81670000D02*
X104165000Y-81670000D01*
X113370000Y-93135000D02*
X111465000Y-93135000D01*
X111465000Y-93135000D02*
X110830000Y-92500000D01*
X110830000Y-92500000D02*
X110830000Y-85515000D01*
X110830000Y-85515000D02*
X113370000Y-85515000D01*
X113370000Y-85515000D02*
X113370000Y-93135000D01*
D11*
X96000000Y-95608000D02*
X96000000Y-110208000D01*
X96000000Y-110208000D02*
X112200000Y-110208000D01*
X112200000Y-110208000D02*
X112200000Y-95608000D01*
X112200000Y-95608000D02*
X96000000Y-95608000D01*
D10*
X82900000Y-106500000D02*
X82900000Y-108200000D01*
X82900000Y-108200000D02*
X83200000Y-108500000D01*
X83200000Y-108500000D02*
X84100000Y-108500000D01*
X84100000Y-108500000D02*
X84100000Y-106500000D01*
X84100000Y-106500000D02*
X82900000Y-106500000D01*
X89400000Y-106500000D02*
X89400000Y-108200000D01*
X89400000Y-108200000D02*
X89700000Y-108500000D01*
X89700000Y-108500000D02*
X90600000Y-108500000D01*
X90600000Y-108500000D02*
X90600000Y-106500000D01*
X90600000Y-106500000D02*
X89400000Y-106500000D01*
X91900000Y-106500000D02*
X91900000Y-108200000D01*
X91900000Y-108200000D02*
X92200000Y-108500000D01*
X92200000Y-108500000D02*
X93100000Y-108500000D01*
X93100000Y-108500000D02*
X93100000Y-106500000D01*
X93100000Y-106500000D02*
X91900000Y-106500000D01*
X142600000Y-83700000D02*
X143400000Y-83700000D01*
X143400000Y-83700000D02*
X143400000Y-85300000D01*
X143400000Y-85300000D02*
X142600000Y-85300000D01*
X142600000Y-85300000D02*
X142600000Y-83700000D01*
X142800000Y-93900000D02*
X143600000Y-93900000D01*
X143600000Y-93900000D02*
X143600000Y-95500000D01*
X143600000Y-95500000D02*
X142800000Y-95500000D01*
X142800000Y-95500000D02*
X142800000Y-93900000D01*
X153200000Y-77600000D02*
X154000000Y-77600000D01*
X154000000Y-77600000D02*
X154000000Y-79200000D01*
X154000000Y-79200000D02*
X153200000Y-79200000D01*
X153200000Y-79200000D02*
X153200000Y-77600000D01*
X135100000Y-99500000D02*
X135100000Y-98700000D01*
X135100000Y-98700000D02*
X136700000Y-98700000D01*
X136700000Y-98700000D02*
X136700000Y-99500000D01*
X136700000Y-99500000D02*
X135100000Y-99500000D01*
X88300000Y-96100000D02*
X88300000Y-95300000D01*
X88300000Y-95300000D02*
X89900000Y-95300000D01*
X89900000Y-95300000D02*
X89900000Y-96100000D01*
X89900000Y-96100000D02*
X88300000Y-96100000D01*
X88300000Y-97800000D02*
X88300000Y-97000000D01*
X88300000Y-97000000D02*
X89900000Y-97000000D01*
X89900000Y-97000000D02*
X89900000Y-97800000D01*
X89900000Y-97800000D02*
X88300000Y-97800000D01*
X119500000Y-88100000D02*
X118700000Y-88100000D01*
X118700000Y-88100000D02*
X118700000Y-86500000D01*
X118700000Y-86500000D02*
X119500000Y-86500000D01*
X119500000Y-86500000D02*
X119500000Y-88100000D01*
X115200000Y-81500000D02*
X114400000Y-81500000D01*
X114400000Y-81500000D02*
X114400000Y-79900000D01*
X114400000Y-79900000D02*
X115200000Y-79900000D01*
X115200000Y-79900000D02*
X115200000Y-81500000D01*
X117100000Y-93000000D02*
X117900000Y-93000000D01*
X117900000Y-93000000D02*
X117900000Y-94600000D01*
X117900000Y-94600000D02*
X117100000Y-94600000D01*
X117100000Y-94600000D02*
X117100000Y-93000000D01*
X136000000Y-83800000D02*
X136000000Y-83000000D01*
X136000000Y-83000000D02*
X137600000Y-83000000D01*
X137600000Y-83000000D02*
X137600000Y-83800000D01*
X137600000Y-83800000D02*
X136000000Y-83800000D01*
X123500000Y-79200000D02*
X124300000Y-79200000D01*
X124300000Y-79200000D02*
X124300000Y-80800000D01*
X124300000Y-80800000D02*
X123500000Y-80800000D01*
X123500000Y-80800000D02*
X123500000Y-79200000D01*
X120200000Y-101800000D02*
X119400000Y-101800000D01*
X119400000Y-101800000D02*
X119400000Y-100200000D01*
X119400000Y-100200000D02*
X120200000Y-100200000D01*
X120200000Y-100200000D02*
X120200000Y-101800000D01*
X134200000Y-78200000D02*
X133400000Y-78200000D01*
X133400000Y-78200000D02*
X133400000Y-76600000D01*
X133400000Y-76600000D02*
X134200000Y-76600000D01*
X134200000Y-76600000D02*
X134200000Y-78200000D01*
X136600000Y-78200000D02*
X135800000Y-78200000D01*
X135800000Y-78200000D02*
X135800000Y-76600000D01*
X135800000Y-76600000D02*
X136600000Y-76600000D01*
X136600000Y-76600000D02*
X136600000Y-78200000D01*
X127000000Y-77200000D02*
X127000000Y-76400000D01*
X127000000Y-76400000D02*
X128600000Y-76400000D01*
X128600000Y-76400000D02*
X128600000Y-77200000D01*
X128600000Y-77200000D02*
X127000000Y-77200000D01*
X131800000Y-76400000D02*
X131800000Y-77200000D01*
X131800000Y-77200000D02*
X130200000Y-77200000D01*
X130200000Y-77200000D02*
X130200000Y-76400000D01*
X130200000Y-76400000D02*
X131800000Y-76400000D01*
X85700000Y-76300000D02*
X85700000Y-77100000D01*
X85700000Y-77100000D02*
X84100000Y-77100000D01*
X84100000Y-77100000D02*
X84100000Y-76300000D01*
X84100000Y-76300000D02*
X85700000Y-76300000D01*
X136600000Y-80950000D02*
X136600000Y-79450000D01*
X133400000Y-80950000D02*
X133400000Y-79450000D01*
X136600000Y-80950000D02*
X133400000Y-80950000D01*
X136600000Y-79450000D02*
X133400000Y-79450000D01*
X119100000Y-79850000D02*
X119100000Y-82100000D01*
X119100000Y-82100000D02*
X116100000Y-82100000D01*
X116100000Y-82100000D02*
X116100000Y-79100000D01*
X116100000Y-79100000D02*
X118350000Y-79100000D01*
X118350000Y-79100000D02*
X119100000Y-79850000D01*
X139100000Y-102550000D02*
X138350000Y-103300000D01*
X139100000Y-100300000D02*
X139100000Y-102550000D01*
X136100000Y-100300000D02*
X139100000Y-100300000D01*
X136100000Y-103300000D02*
X136100000Y-100300000D01*
X138350000Y-103300000D02*
X136100000Y-103300000D01*
X90880000Y-79000000D02*
X90430000Y-79450000D01*
X89120000Y-79450000D02*
X90430000Y-79450000D01*
X90880000Y-79000000D02*
X90880000Y-76550000D01*
X89120000Y-76550000D02*
X90880000Y-76550000D01*
X89120000Y-79450000D02*
X89120000Y-76550000D01*
X149875000Y-81950000D02*
X146950000Y-81950000D01*
X146950000Y-81950000D02*
X146950000Y-77050000D01*
X146950000Y-77050000D02*
X150850000Y-77050000D01*
X150850000Y-77050000D02*
X150850000Y-80975000D01*
X150850000Y-80975000D02*
X149875000Y-81950000D01*
X135000000Y-86000000D02*
X135000000Y-95000000D01*
X135000000Y-95000000D02*
X125000000Y-95000000D01*
X125000000Y-95000000D02*
X125000000Y-85000000D01*
X125000000Y-85000000D02*
X134000000Y-85000000D01*
X134000000Y-85000000D02*
X135000000Y-86000000D01*
X85400000Y-89350000D02*
X85400000Y-92850000D01*
X85400000Y-92850000D02*
X83400000Y-92850000D01*
X83400000Y-92850000D02*
X83400000Y-89350000D01*
X83400000Y-89350000D02*
X85400000Y-89350000D01*
X83600000Y-89600000D02*
X83600000Y-92600000D01*
X85200000Y-89600000D02*
X85200000Y-92600000D01*
X85200000Y-92600000D02*
X83600000Y-92600000D01*
X85200000Y-89600000D02*
X83600000Y-89600000D01*
X82650000Y-88100000D02*
X82650000Y-94100000D01*
X86150000Y-88100000D02*
X86150000Y-94100000D01*
X86150000Y-88100000D02*
X82650000Y-88100000D01*
X86150000Y-94100000D02*
X82650000Y-94100000D01*
X86250000Y-72000000D02*
X89750000Y-72000000D01*
X89750000Y-72000000D02*
X89750000Y-74000000D01*
X89750000Y-74000000D02*
X86250000Y-74000000D01*
X86250000Y-74000000D02*
X86250000Y-72000000D01*
X86500000Y-73800000D02*
X89500000Y-73800000D01*
X86500000Y-72200000D02*
X89500000Y-72200000D01*
X89500000Y-72200000D02*
X89500000Y-73800000D01*
X86500000Y-72200000D02*
X86500000Y-73800000D01*
X85000000Y-74750000D02*
X91000000Y-74750000D01*
X85000000Y-71250000D02*
X91000000Y-71250000D01*
X85000000Y-71250000D02*
X85000000Y-74750000D01*
X91000000Y-71250000D02*
X91000000Y-74750000D01*
X132700000Y-104100000D02*
X131100000Y-104100000D01*
X131100000Y-104100000D02*
X131100000Y-100900000D01*
X131100000Y-100900000D02*
X132700000Y-100900000D01*
X132700000Y-100900000D02*
X132700000Y-104100000D01*
X122700000Y-80800000D02*
X121900000Y-80800000D01*
X121900000Y-80800000D02*
X121900000Y-79200000D01*
X121900000Y-79200000D02*
X122700000Y-79200000D01*
X122700000Y-79200000D02*
X122700000Y-80800000D01*
X94650000Y-88650000D02*
X94650000Y-86400000D01*
X94650000Y-81350000D02*
X94650000Y-83600000D01*
X87350000Y-88650000D02*
X87350000Y-86400000D01*
X87350000Y-81350000D02*
X87350000Y-83600000D01*
X94650000Y-88650000D02*
X87350000Y-88650000D01*
X87350000Y-81350000D02*
X94650000Y-81350000D01*
X88710000Y-87290000D02*
G75*
G03X93290000Y-87290000I2290000J2290000D01*
G01*
X93290000Y-82710000D02*
G75*
G03X88710000Y-82710000I-2290000J-2290000D01*
G01*
X156635000Y-106475000D02*
X156635000Y-108050000D01*
X156635000Y-108050000D02*
X128695000Y-108050000D01*
X128695000Y-108050000D02*
X128695000Y-105950000D01*
X128695000Y-105950000D02*
X156110000Y-105950000D01*
X156110000Y-105950000D02*
X156635000Y-106475000D01*
X156635000Y-72475000D02*
X156635000Y-74050000D01*
X156635000Y-74050000D02*
X128695000Y-74050000D01*
X128695000Y-74050000D02*
X128695000Y-71950000D01*
X128695000Y-71950000D02*
X156110000Y-71950000D01*
X156110000Y-71950000D02*
X156635000Y-72475000D01*
X114250000Y-69312500D02*
X114250000Y-74312500D01*
X121000000Y-70010796D02*
X115000000Y-70010796D01*
X121750000Y-69310796D02*
X114250000Y-69310796D01*
X121750000Y-74312500D02*
X114250000Y-74312500D01*
X121750000Y-69312500D02*
X121750000Y-74312500D01*
X119300000Y-74412500D02*
X119500000Y-74612500D01*
X119100000Y-74612500D02*
X119300000Y-74412500D01*
X119500000Y-74822500D02*
X119100000Y-74822500D01*
X119500000Y-74822500D02*
X119500000Y-74612500D01*
X119100000Y-74822500D02*
X119100000Y-74612500D01*
X115275000Y-99765000D02*
X116850000Y-99765000D01*
X116850000Y-99765000D02*
X116850000Y-102305000D01*
X116850000Y-102305000D02*
X114750000Y-102305000D01*
X114750000Y-102305000D02*
X114750000Y-100290000D01*
X114750000Y-100290000D02*
X115275000Y-99765000D01*
D12*
X158450000Y-94000000D02*
X158450000Y-86000000D01*
X158400000Y-86000000D02*
X146950000Y-86000000D01*
X146950000Y-86000000D02*
X146950000Y-94000000D01*
X146950000Y-94000000D02*
X158400000Y-94000000D01*
D10*
X101500000Y-85500000D02*
G75*
G03X101500000Y-85500000I-2000000J0D01*
G01*
X97350000Y-83350000D02*
X101650000Y-83350000D01*
X97350000Y-86650000D02*
X97350000Y-83350000D01*
X101650000Y-86650000D02*
X101650000Y-83350000D01*
X98350000Y-87650000D02*
X100650000Y-87650000D01*
X98350000Y-87650000D02*
X97350000Y-86650000D01*
X100650000Y-87650000D02*
X101650000Y-86650000D01*
X98500000Y-87074773D02*
X98500000Y-86674773D01*
X98300000Y-86874773D02*
X98700000Y-86874773D01*
X94750000Y-76400000D02*
X97250000Y-76400000D01*
X97250000Y-76400000D02*
X97250000Y-79600000D01*
X97250000Y-79600000D02*
X94750000Y-79600000D01*
X94750000Y-79600000D02*
X94750000Y-76400000D01*
D12*
X107382380Y-94235119D02*
X107382380Y-94806547D01*
X107382380Y-94520833D02*
X106382380Y-94520833D01*
X106525238Y-94616071D01*
X106620476Y-94711309D01*
X106668095Y-94806547D01*
X106382380Y-93616071D02*
X106382380Y-93520833D01*
X106430000Y-93425595D01*
X106477619Y-93377976D01*
X106572857Y-93330357D01*
X106763333Y-93282738D01*
X107001428Y-93282738D01*
X107191904Y-93330357D01*
X107287142Y-93377976D01*
X107334761Y-93425595D01*
X107382380Y-93520833D01*
X107382380Y-93616071D01*
X107334761Y-93711309D01*
X107287142Y-93758928D01*
X107191904Y-93806547D01*
X107001428Y-93854166D01*
X106763333Y-93854166D01*
X106572857Y-93806547D01*
X106477619Y-93758928D01*
X106430000Y-93711309D01*
X106382380Y-93616071D01*
X106382380Y-92663690D02*
X106382380Y-92568452D01*
X106430000Y-92473214D01*
X106477619Y-92425595D01*
X106572857Y-92377976D01*
X106763333Y-92330357D01*
X107001428Y-92330357D01*
X107191904Y-92377976D01*
X107287142Y-92425595D01*
X107334761Y-92473214D01*
X107382380Y-92568452D01*
X107382380Y-92663690D01*
X107334761Y-92758928D01*
X107287142Y-92806547D01*
X107191904Y-92854166D01*
X107001428Y-92901785D01*
X106763333Y-92901785D01*
X106572857Y-92854166D01*
X106477619Y-92806547D01*
X106430000Y-92758928D01*
X106382380Y-92663690D01*
X106715714Y-91901785D02*
X107382380Y-91901785D01*
X106810952Y-91901785D02*
X106763333Y-91854166D01*
X106715714Y-91758928D01*
X106715714Y-91616071D01*
X106763333Y-91520833D01*
X106858571Y-91473214D01*
X107382380Y-91473214D01*
X106858571Y-90663690D02*
X106858571Y-90997023D01*
X107382380Y-90997023D02*
X106382380Y-90997023D01*
X106382380Y-90520833D01*
D13*
X105642857Y-92944642D02*
X105661904Y-92963690D01*
X105680952Y-93020833D01*
X105680952Y-93058928D01*
X105661904Y-93116071D01*
X105623809Y-93154166D01*
X105585714Y-93173214D01*
X105509523Y-93192261D01*
X105452380Y-93192261D01*
X105376190Y-93173214D01*
X105338095Y-93154166D01*
X105300000Y-93116071D01*
X105280952Y-93058928D01*
X105280952Y-93020833D01*
X105300000Y-92963690D01*
X105319047Y-92944642D01*
X105319047Y-92792261D02*
X105300000Y-92773214D01*
X105280952Y-92735119D01*
X105280952Y-92639880D01*
X105300000Y-92601785D01*
X105319047Y-92582738D01*
X105357142Y-92563690D01*
X105395238Y-92563690D01*
X105452380Y-92582738D01*
X105680952Y-92811309D01*
X105680952Y-92563690D01*
X105280952Y-92316071D02*
X105280952Y-92277976D01*
X105300000Y-92239880D01*
X105319047Y-92220833D01*
X105357142Y-92201785D01*
X105433333Y-92182738D01*
X105528571Y-92182738D01*
X105604761Y-92201785D01*
X105642857Y-92220833D01*
X105661904Y-92239880D01*
X105680952Y-92277976D01*
X105680952Y-92316071D01*
X105661904Y-92354166D01*
X105642857Y-92373214D01*
X105604761Y-92392261D01*
X105528571Y-92411309D01*
X105433333Y-92411309D01*
X105357142Y-92392261D01*
X105319047Y-92373214D01*
X105300000Y-92354166D01*
X105280952Y-92316071D01*
D12*
X127804761Y-82280952D02*
X127709523Y-82233333D01*
X127661904Y-82185714D01*
X127614285Y-82090476D01*
X127614285Y-82042857D01*
X127661904Y-81947619D01*
X127709523Y-81900000D01*
X127804761Y-81852380D01*
X127995238Y-81852380D01*
X128090476Y-81900000D01*
X128138095Y-81947619D01*
X128185714Y-82042857D01*
X128185714Y-82090476D01*
X128138095Y-82185714D01*
X128090476Y-82233333D01*
X127995238Y-82280952D01*
X127804761Y-82280952D01*
X127709523Y-82328571D01*
X127661904Y-82376190D01*
X127614285Y-82471428D01*
X127614285Y-82661904D01*
X127661904Y-82757142D01*
X127709523Y-82804761D01*
X127804761Y-82852380D01*
X127995238Y-82852380D01*
X128090476Y-82804761D01*
X128138095Y-82757142D01*
X128185714Y-82661904D01*
X128185714Y-82471428D01*
X128138095Y-82376190D01*
X128090476Y-82328571D01*
X127995238Y-82280952D01*
X128614285Y-82852380D02*
X128614285Y-81852380D01*
X128947619Y-82566666D01*
X129280952Y-81852380D01*
X129280952Y-82852380D01*
X129757142Y-82852380D02*
X129757142Y-81852380D01*
X129757142Y-82328571D02*
X130328571Y-82328571D01*
X130328571Y-82852380D02*
X130328571Y-81852380D01*
X130709523Y-82185714D02*
X131233333Y-82185714D01*
X130709523Y-82852380D01*
X131233333Y-82852380D01*
X128923809Y-79576190D02*
X128923809Y-80052380D01*
X128590476Y-79052380D02*
X128923809Y-79576190D01*
X129257142Y-79052380D01*
X130114285Y-80052380D02*
X129542857Y-80052380D01*
X129828571Y-80052380D02*
X129828571Y-79052380D01*
X129733333Y-79195238D01*
X129638095Y-79290476D01*
X129542857Y-79338095D01*
X113857142Y-89428571D02*
X114000000Y-89476190D01*
X114047619Y-89523809D01*
X114095238Y-89619047D01*
X114095238Y-89761904D01*
X114047619Y-89857142D01*
X114000000Y-89904761D01*
X113904761Y-89952380D01*
X113523809Y-89952380D01*
X113523809Y-88952380D01*
X113857142Y-88952380D01*
X113952380Y-89000000D01*
X114000000Y-89047619D01*
X114047619Y-89142857D01*
X114047619Y-89238095D01*
X114000000Y-89333333D01*
X113952380Y-89380952D01*
X113857142Y-89428571D01*
X113523809Y-89428571D01*
X114952380Y-89952380D02*
X114952380Y-89428571D01*
X114904761Y-89333333D01*
X114809523Y-89285714D01*
X114619047Y-89285714D01*
X114523809Y-89333333D01*
X114952380Y-89904761D02*
X114857142Y-89952380D01*
X114619047Y-89952380D01*
X114523809Y-89904761D01*
X114476190Y-89809523D01*
X114476190Y-89714285D01*
X114523809Y-89619047D01*
X114619047Y-89571428D01*
X114857142Y-89571428D01*
X114952380Y-89523809D01*
X115285714Y-89285714D02*
X115666666Y-89285714D01*
X115428571Y-88952380D02*
X115428571Y-89809523D01*
X115476190Y-89904761D01*
X115571428Y-89952380D01*
X115666666Y-89952380D01*
X115857142Y-89285714D02*
X116238095Y-89285714D01*
X116000000Y-88952380D02*
X116000000Y-89809523D01*
X116047619Y-89904761D01*
X116142857Y-89952380D01*
X116238095Y-89952380D01*
X116952380Y-89904761D02*
X116857142Y-89952380D01*
X116666666Y-89952380D01*
X116571428Y-89904761D01*
X116523809Y-89809523D01*
X116523809Y-89428571D01*
X116571428Y-89333333D01*
X116666666Y-89285714D01*
X116857142Y-89285714D01*
X116952380Y-89333333D01*
X117000000Y-89428571D01*
X117000000Y-89523809D01*
X116523809Y-89619047D01*
X117428571Y-89952380D02*
X117428571Y-89285714D01*
X117428571Y-89476190D02*
X117476190Y-89380952D01*
X117523809Y-89333333D01*
X117619047Y-89285714D01*
X117714285Y-89285714D01*
X117952380Y-89285714D02*
X118190476Y-89952380D01*
X118428571Y-89285714D02*
X118190476Y-89952380D01*
X118095238Y-90190476D01*
X118047619Y-90238095D01*
X117952380Y-90285714D01*
X118571428Y-90047619D02*
X119333333Y-90047619D01*
X119571428Y-89952380D02*
X119571428Y-88952380D01*
X119571428Y-89428571D02*
X120142857Y-89428571D01*
X120142857Y-89952380D02*
X120142857Y-88952380D01*
X120761904Y-89952380D02*
X120666666Y-89904761D01*
X120619047Y-89857142D01*
X120571428Y-89761904D01*
X120571428Y-89476190D01*
X120619047Y-89380952D01*
X120666666Y-89333333D01*
X120761904Y-89285714D01*
X120904761Y-89285714D01*
X121000000Y-89333333D01*
X121047619Y-89380952D01*
X121095238Y-89476190D01*
X121095238Y-89761904D01*
X121047619Y-89857142D01*
X121000000Y-89904761D01*
X120904761Y-89952380D01*
X120761904Y-89952380D01*
X121666666Y-89952380D02*
X121571428Y-89904761D01*
X121523809Y-89809523D01*
X121523809Y-88952380D01*
X122476190Y-89952380D02*
X122476190Y-88952380D01*
X122476190Y-89904761D02*
X122380952Y-89952380D01*
X122190476Y-89952380D01*
X122095238Y-89904761D01*
X122047619Y-89857142D01*
X122000000Y-89761904D01*
X122000000Y-89476190D01*
X122047619Y-89380952D01*
X122095238Y-89333333D01*
X122190476Y-89285714D01*
X122380952Y-89285714D01*
X122476190Y-89333333D01*
X123333333Y-89904761D02*
X123238095Y-89952380D01*
X123047619Y-89952380D01*
X122952380Y-89904761D01*
X122904761Y-89809523D01*
X122904761Y-89428571D01*
X122952380Y-89333333D01*
X123047619Y-89285714D01*
X123238095Y-89285714D01*
X123333333Y-89333333D01*
X123380952Y-89428571D01*
X123380952Y-89523809D01*
X122904761Y-89619047D01*
X123809523Y-89952380D02*
X123809523Y-89285714D01*
X123809523Y-89476190D02*
X123857142Y-89380952D01*
X123904761Y-89333333D01*
X124000000Y-89285714D01*
X124095238Y-89285714D01*
X124190476Y-90047619D02*
X124952380Y-90047619D01*
X125142857Y-89047619D02*
X125190476Y-89000000D01*
X125285714Y-88952380D01*
X125523809Y-88952380D01*
X125619047Y-89000000D01*
X125666666Y-89047619D01*
X125714285Y-89142857D01*
X125714285Y-89238095D01*
X125666666Y-89380952D01*
X125095238Y-89952380D01*
X125714285Y-89952380D01*
X126047619Y-89952380D02*
X126571428Y-89285714D01*
X126047619Y-89285714D02*
X126571428Y-89952380D01*
X88102380Y-108142857D02*
X88102380Y-108619047D01*
X87102380Y-108619047D01*
X87578571Y-107809523D02*
X87578571Y-107476190D01*
X88102380Y-107333333D02*
X88102380Y-107809523D01*
X87102380Y-107809523D01*
X87102380Y-107333333D01*
X88102380Y-106904761D02*
X87102380Y-106904761D01*
X87102380Y-106666666D01*
X87150000Y-106523809D01*
X87245238Y-106428571D01*
X87340476Y-106380952D01*
X87530952Y-106333333D01*
X87673809Y-106333333D01*
X87864285Y-106380952D01*
X87959523Y-106428571D01*
X88054761Y-106523809D01*
X88102380Y-106666666D01*
X88102380Y-106904761D01*
D14*
X86226190Y-107869047D02*
X85726190Y-107869047D01*
X85726190Y-107750000D01*
X85750000Y-107678571D01*
X85797619Y-107630952D01*
X85845238Y-107607142D01*
X85940476Y-107583333D01*
X86011904Y-107583333D01*
X86107142Y-107607142D01*
X86154761Y-107630952D01*
X86202380Y-107678571D01*
X86226190Y-107750000D01*
X86226190Y-107869047D01*
X86226190Y-107107142D02*
X86226190Y-107392857D01*
X86226190Y-107250000D02*
X85726190Y-107250000D01*
X85797619Y-107297619D01*
X85845238Y-107345238D01*
X85869047Y-107392857D01*
D12*
X95619047Y-69052380D02*
X95619047Y-68052380D01*
X96000000Y-68052380D01*
X96095238Y-68100000D01*
X96142857Y-68147619D01*
X96190476Y-68242857D01*
X96190476Y-68385714D01*
X96142857Y-68480952D01*
X96095238Y-68528571D01*
X96000000Y-68576190D01*
X95619047Y-68576190D01*
X96523809Y-68052380D02*
X96761904Y-69052380D01*
X96952380Y-68338095D01*
X97142857Y-69052380D01*
X97380952Y-68052380D01*
X98333333Y-69052380D02*
X98000000Y-68576190D01*
X97761904Y-69052380D02*
X97761904Y-68052380D01*
X98142857Y-68052380D01*
X98238095Y-68100000D01*
X98285714Y-68147619D01*
X98333333Y-68242857D01*
X98333333Y-68385714D01*
X98285714Y-68480952D01*
X98238095Y-68528571D01*
X98142857Y-68576190D01*
X97761904Y-68576190D01*
X98523809Y-69147619D02*
X99285714Y-69147619D01*
X99476190Y-69004761D02*
X99619047Y-69052380D01*
X99857142Y-69052380D01*
X99952380Y-69004761D01*
X100000000Y-68957142D01*
X100047619Y-68861904D01*
X100047619Y-68766666D01*
X100000000Y-68671428D01*
X99952380Y-68623809D01*
X99857142Y-68576190D01*
X99666666Y-68528571D01*
X99571428Y-68480952D01*
X99523809Y-68433333D01*
X99476190Y-68338095D01*
X99476190Y-68242857D01*
X99523809Y-68147619D01*
X99571428Y-68100000D01*
X99666666Y-68052380D01*
X99904761Y-68052380D01*
X100047619Y-68100000D01*
X100476190Y-68528571D02*
X100809523Y-68528571D01*
X100952380Y-69052380D02*
X100476190Y-69052380D01*
X100476190Y-68052380D01*
X100952380Y-68052380D01*
X101857142Y-69052380D02*
X101380952Y-69052380D01*
X101380952Y-68052380D01*
X102190476Y-68528571D02*
X102523809Y-68528571D01*
X102666666Y-69052380D02*
X102190476Y-69052380D01*
X102190476Y-68052380D01*
X102666666Y-68052380D01*
X103666666Y-68957142D02*
X103619047Y-69004761D01*
X103476190Y-69052380D01*
X103380952Y-69052380D01*
X103238095Y-69004761D01*
X103142857Y-68909523D01*
X103095238Y-68814285D01*
X103047619Y-68623809D01*
X103047619Y-68480952D01*
X103095238Y-68290476D01*
X103142857Y-68195238D01*
X103238095Y-68100000D01*
X103380952Y-68052380D01*
X103476190Y-68052380D01*
X103619047Y-68100000D01*
X103666666Y-68147619D01*
X103952380Y-68052380D02*
X104523809Y-68052380D01*
X104238095Y-69052380D02*
X104238095Y-68052380D01*
X99206666Y-72452380D02*
X99206666Y-73166666D01*
X99159047Y-73309523D01*
X99063809Y-73404761D01*
X98920952Y-73452380D01*
X98825714Y-73452380D01*
X99825714Y-72880952D02*
X99730476Y-72833333D01*
X99682857Y-72785714D01*
X99635238Y-72690476D01*
X99635238Y-72642857D01*
X99682857Y-72547619D01*
X99730476Y-72500000D01*
X99825714Y-72452380D01*
X100016190Y-72452380D01*
X100111428Y-72500000D01*
X100159047Y-72547619D01*
X100206666Y-72642857D01*
X100206666Y-72690476D01*
X100159047Y-72785714D01*
X100111428Y-72833333D01*
X100016190Y-72880952D01*
X99825714Y-72880952D01*
X99730476Y-72928571D01*
X99682857Y-72976190D01*
X99635238Y-73071428D01*
X99635238Y-73261904D01*
X99682857Y-73357142D01*
X99730476Y-73404761D01*
X99825714Y-73452380D01*
X100016190Y-73452380D01*
X100111428Y-73404761D01*
X100159047Y-73357142D01*
X100206666Y-73261904D01*
X100206666Y-73071428D01*
X100159047Y-72976190D01*
X100111428Y-72928571D01*
X100016190Y-72880952D01*
X100204761Y-66952380D02*
X100204761Y-65952380D01*
X100442857Y-65952380D01*
X100585714Y-66000000D01*
X100680952Y-66095238D01*
X100728571Y-66190476D01*
X100776190Y-66380952D01*
X100776190Y-66523809D01*
X100728571Y-66714285D01*
X100680952Y-66809523D01*
X100585714Y-66904761D01*
X100442857Y-66952380D01*
X100204761Y-66952380D01*
X101204761Y-66952380D02*
X101204761Y-66285714D01*
X101204761Y-65952380D02*
X101157142Y-66000000D01*
X101204761Y-66047619D01*
X101252380Y-66000000D01*
X101204761Y-65952380D01*
X101204761Y-66047619D01*
X101633333Y-66904761D02*
X101728571Y-66952380D01*
X101919047Y-66952380D01*
X102014285Y-66904761D01*
X102061904Y-66809523D01*
X102061904Y-66761904D01*
X102014285Y-66666666D01*
X101919047Y-66619047D01*
X101776190Y-66619047D01*
X101680952Y-66571428D01*
X101633333Y-66476190D01*
X101633333Y-66428571D01*
X101680952Y-66333333D01*
X101776190Y-66285714D01*
X101919047Y-66285714D01*
X102014285Y-66333333D01*
X102490476Y-66285714D02*
X102490476Y-67285714D01*
X102490476Y-66333333D02*
X102585714Y-66285714D01*
X102776190Y-66285714D01*
X102871428Y-66333333D01*
X102919047Y-66380952D01*
X102966666Y-66476190D01*
X102966666Y-66761904D01*
X102919047Y-66857142D01*
X102871428Y-66904761D01*
X102776190Y-66952380D01*
X102585714Y-66952380D01*
X102490476Y-66904761D01*
X103538095Y-66952380D02*
X103442857Y-66904761D01*
X103395238Y-66809523D01*
X103395238Y-65952380D01*
X104347619Y-66952380D02*
X104347619Y-66428571D01*
X104300000Y-66333333D01*
X104204761Y-66285714D01*
X104014285Y-66285714D01*
X103919047Y-66333333D01*
X104347619Y-66904761D02*
X104252380Y-66952380D01*
X104014285Y-66952380D01*
X103919047Y-66904761D01*
X103871428Y-66809523D01*
X103871428Y-66714285D01*
X103919047Y-66619047D01*
X104014285Y-66571428D01*
X104252380Y-66571428D01*
X104347619Y-66523809D01*
X104728571Y-66285714D02*
X104966666Y-66952380D01*
X105204761Y-66285714D02*
X104966666Y-66952380D01*
X104871428Y-67190476D01*
X104823809Y-67238095D01*
X104728571Y-67285714D01*
X105347619Y-67047619D02*
X106109523Y-67047619D01*
X106919047Y-66857142D02*
X106871428Y-66904761D01*
X106728571Y-66952380D01*
X106633333Y-66952380D01*
X106490476Y-66904761D01*
X106395238Y-66809523D01*
X106347619Y-66714285D01*
X106300000Y-66523809D01*
X106300000Y-66380952D01*
X106347619Y-66190476D01*
X106395238Y-66095238D01*
X106490476Y-66000000D01*
X106633333Y-65952380D01*
X106728571Y-65952380D01*
X106871428Y-66000000D01*
X106919047Y-66047619D01*
X107490476Y-66952380D02*
X107395238Y-66904761D01*
X107347619Y-66857142D01*
X107300000Y-66761904D01*
X107300000Y-66476190D01*
X107347619Y-66380952D01*
X107395238Y-66333333D01*
X107490476Y-66285714D01*
X107633333Y-66285714D01*
X107728571Y-66333333D01*
X107776190Y-66380952D01*
X107823809Y-66476190D01*
X107823809Y-66761904D01*
X107776190Y-66857142D01*
X107728571Y-66904761D01*
X107633333Y-66952380D01*
X107490476Y-66952380D01*
X108252380Y-66285714D02*
X108252380Y-66952380D01*
X108252380Y-66380952D02*
X108300000Y-66333333D01*
X108395238Y-66285714D01*
X108538095Y-66285714D01*
X108633333Y-66333333D01*
X108680952Y-66428571D01*
X108680952Y-66952380D01*
X109157142Y-66285714D02*
X109157142Y-66952380D01*
X109157142Y-66380952D02*
X109204761Y-66333333D01*
X109300000Y-66285714D01*
X109442857Y-66285714D01*
X109538095Y-66333333D01*
X109585714Y-66428571D01*
X109585714Y-66952380D01*
X110442857Y-66904761D02*
X110347619Y-66952380D01*
X110157142Y-66952380D01*
X110061904Y-66904761D01*
X110014285Y-66809523D01*
X110014285Y-66428571D01*
X110061904Y-66333333D01*
X110157142Y-66285714D01*
X110347619Y-66285714D01*
X110442857Y-66333333D01*
X110490476Y-66428571D01*
X110490476Y-66523809D01*
X110014285Y-66619047D01*
X111347619Y-66904761D02*
X111252380Y-66952380D01*
X111061904Y-66952380D01*
X110966666Y-66904761D01*
X110919047Y-66857142D01*
X110871428Y-66761904D01*
X110871428Y-66476190D01*
X110919047Y-66380952D01*
X110966666Y-66333333D01*
X111061904Y-66285714D01*
X111252380Y-66285714D01*
X111347619Y-66333333D01*
X111633333Y-66285714D02*
X112014285Y-66285714D01*
X111776190Y-65952380D02*
X111776190Y-66809523D01*
X111823809Y-66904761D01*
X111919047Y-66952380D01*
X112014285Y-66952380D01*
X112490476Y-66952380D02*
X112395238Y-66904761D01*
X112347619Y-66857142D01*
X112300000Y-66761904D01*
X112300000Y-66476190D01*
X112347619Y-66380952D01*
X112395238Y-66333333D01*
X112490476Y-66285714D01*
X112633333Y-66285714D01*
X112728571Y-66333333D01*
X112776190Y-66380952D01*
X112823809Y-66476190D01*
X112823809Y-66761904D01*
X112776190Y-66857142D01*
X112728571Y-66904761D01*
X112633333Y-66952380D01*
X112490476Y-66952380D01*
X113252380Y-66952380D02*
X113252380Y-66285714D01*
X113252380Y-66476190D02*
X113300000Y-66380952D01*
X113347619Y-66333333D01*
X113442857Y-66285714D01*
X113538095Y-66285714D01*
X106152380Y-74528333D02*
X106866666Y-74528333D01*
X107009523Y-74575952D01*
X107104761Y-74671190D01*
X107152380Y-74814047D01*
X107152380Y-74909285D01*
X106485714Y-73623571D02*
X107152380Y-73623571D01*
X106104761Y-73861666D02*
X106819047Y-74099761D01*
X106819047Y-73480714D01*
X120315714Y-94728571D02*
X120982380Y-94728571D01*
X119934761Y-94966666D02*
X120649047Y-95204761D01*
X120649047Y-94585714D01*
X120887142Y-94204761D02*
X120934761Y-94157142D01*
X120982380Y-94204761D01*
X120934761Y-94252380D01*
X120887142Y-94204761D01*
X120982380Y-94204761D01*
X119982380Y-93823809D02*
X119982380Y-93157142D01*
X120982380Y-93585714D01*
X120982380Y-92776190D02*
X119982380Y-92776190D01*
X120601428Y-92680952D02*
X120982380Y-92395238D01*
X120315714Y-92395238D02*
X120696666Y-92776190D01*
D13*
X119280952Y-94057142D02*
X119090476Y-94190476D01*
X119280952Y-94285714D02*
X118880952Y-94285714D01*
X118880952Y-94133333D01*
X118900000Y-94095238D01*
X118919047Y-94076190D01*
X118957142Y-94057142D01*
X119014285Y-94057142D01*
X119052380Y-94076190D01*
X119071428Y-94095238D01*
X119090476Y-94133333D01*
X119090476Y-94285714D01*
X119280952Y-93676190D02*
X119280952Y-93904761D01*
X119280952Y-93790476D02*
X118880952Y-93790476D01*
X118938095Y-93828571D01*
X118976190Y-93866666D01*
X118995238Y-93904761D01*
X118880952Y-93333333D02*
X118880952Y-93409523D01*
X118900000Y-93447619D01*
X118919047Y-93466666D01*
X118976190Y-93504761D01*
X119052380Y-93523809D01*
X119204761Y-93523809D01*
X119242857Y-93504761D01*
X119261904Y-93485714D01*
X119280952Y-93447619D01*
X119280952Y-93371428D01*
X119261904Y-93333333D01*
X119242857Y-93314285D01*
X119204761Y-93295238D01*
X119109523Y-93295238D01*
X119071428Y-93314285D01*
X119052380Y-93333333D01*
X119033333Y-93371428D01*
X119033333Y-93447619D01*
X119052380Y-93485714D01*
X119071428Y-93504761D01*
X119109523Y-93523809D01*
D12*
X121915714Y-94728571D02*
X122582380Y-94728571D01*
X121534761Y-94966666D02*
X122249047Y-95204761D01*
X122249047Y-94585714D01*
X122487142Y-94204761D02*
X122534761Y-94157142D01*
X122582380Y-94204761D01*
X122534761Y-94252380D01*
X122487142Y-94204761D01*
X122582380Y-94204761D01*
X121582380Y-93823809D02*
X121582380Y-93157142D01*
X122582380Y-93585714D01*
X122582380Y-92776190D02*
X121582380Y-92776190D01*
X122201428Y-92680952D02*
X122582380Y-92395238D01*
X121915714Y-92395238D02*
X122296666Y-92776190D01*
D13*
X120880952Y-94057142D02*
X120690476Y-94190476D01*
X120880952Y-94285714D02*
X120480952Y-94285714D01*
X120480952Y-94133333D01*
X120500000Y-94095238D01*
X120519047Y-94076190D01*
X120557142Y-94057142D01*
X120614285Y-94057142D01*
X120652380Y-94076190D01*
X120671428Y-94095238D01*
X120690476Y-94133333D01*
X120690476Y-94285714D01*
X120880952Y-93676190D02*
X120880952Y-93904761D01*
X120880952Y-93790476D02*
X120480952Y-93790476D01*
X120538095Y-93828571D01*
X120576190Y-93866666D01*
X120595238Y-93904761D01*
X120480952Y-93542857D02*
X120480952Y-93295238D01*
X120633333Y-93428571D01*
X120633333Y-93371428D01*
X120652380Y-93333333D01*
X120671428Y-93314285D01*
X120709523Y-93295238D01*
X120804761Y-93295238D01*
X120842857Y-93314285D01*
X120861904Y-93333333D01*
X120880952Y-93371428D01*
X120880952Y-93485714D01*
X120861904Y-93523809D01*
X120842857Y-93542857D01*
D12*
X138371428Y-98715714D02*
X138371428Y-99382380D01*
X138133333Y-98334761D02*
X137895238Y-99049047D01*
X138514285Y-99049047D01*
X138895238Y-99287142D02*
X138942857Y-99334761D01*
X138895238Y-99382380D01*
X138847619Y-99334761D01*
X138895238Y-99287142D01*
X138895238Y-99382380D01*
X139276190Y-98382380D02*
X139942857Y-98382380D01*
X139514285Y-99382380D01*
X140323809Y-99382380D02*
X140323809Y-98382380D01*
X140419047Y-99001428D02*
X140704761Y-99382380D01*
X140704761Y-98715714D02*
X140323809Y-99096666D01*
D13*
X139042857Y-97680952D02*
X138909523Y-97490476D01*
X138814285Y-97680952D02*
X138814285Y-97280952D01*
X138966666Y-97280952D01*
X139004761Y-97300000D01*
X139023809Y-97319047D01*
X139042857Y-97357142D01*
X139042857Y-97414285D01*
X139023809Y-97452380D01*
X139004761Y-97471428D01*
X138966666Y-97490476D01*
X138814285Y-97490476D01*
X139423809Y-97680952D02*
X139195238Y-97680952D01*
X139309523Y-97680952D02*
X139309523Y-97280952D01*
X139271428Y-97338095D01*
X139233333Y-97376190D01*
X139195238Y-97395238D01*
X139804761Y-97680952D02*
X139576190Y-97680952D01*
X139690476Y-97680952D02*
X139690476Y-97280952D01*
X139652380Y-97338095D01*
X139614285Y-97376190D01*
X139576190Y-97395238D01*
D12*
X138371428Y-100315714D02*
X138371428Y-100982380D01*
X138133333Y-99934761D02*
X137895238Y-100649047D01*
X138514285Y-100649047D01*
X138895238Y-100887142D02*
X138942857Y-100934761D01*
X138895238Y-100982380D01*
X138847619Y-100934761D01*
X138895238Y-100887142D01*
X138895238Y-100982380D01*
X139276190Y-99982380D02*
X139942857Y-99982380D01*
X139514285Y-100982380D01*
X140323809Y-100982380D02*
X140323809Y-99982380D01*
X140419047Y-100601428D02*
X140704761Y-100982380D01*
X140704761Y-100315714D02*
X140323809Y-100696666D01*
D13*
X139233333Y-99280952D02*
X139100000Y-99090476D01*
X139004761Y-99280952D02*
X139004761Y-98880952D01*
X139157142Y-98880952D01*
X139195238Y-98900000D01*
X139214285Y-98919047D01*
X139233333Y-98957142D01*
X139233333Y-99014285D01*
X139214285Y-99052380D01*
X139195238Y-99071428D01*
X139157142Y-99090476D01*
X139004761Y-99090476D01*
X139366666Y-98880952D02*
X139614285Y-98880952D01*
X139480952Y-99033333D01*
X139538095Y-99033333D01*
X139576190Y-99052380D01*
X139595238Y-99071428D01*
X139614285Y-99109523D01*
X139614285Y-99204761D01*
X139595238Y-99242857D01*
X139576190Y-99261904D01*
X139538095Y-99280952D01*
X139423809Y-99280952D01*
X139385714Y-99261904D01*
X139366666Y-99242857D01*
D12*
X88647619Y-104904761D02*
X88600000Y-104857142D01*
X88552380Y-104761904D01*
X88552380Y-104523809D01*
X88600000Y-104428571D01*
X88647619Y-104380952D01*
X88742857Y-104333333D01*
X88838095Y-104333333D01*
X88980952Y-104380952D01*
X89552380Y-104952380D01*
X89552380Y-104333333D01*
X89457142Y-103904761D02*
X89504761Y-103857142D01*
X89552380Y-103904761D01*
X89504761Y-103952380D01*
X89457142Y-103904761D01*
X89552380Y-103904761D01*
X88647619Y-103476190D02*
X88600000Y-103428571D01*
X88552380Y-103333333D01*
X88552380Y-103095238D01*
X88600000Y-103000000D01*
X88647619Y-102952380D01*
X88742857Y-102904761D01*
X88838095Y-102904761D01*
X88980952Y-102952380D01*
X89552380Y-103523809D01*
X89552380Y-102904761D01*
X89552380Y-102476190D02*
X88552380Y-102476190D01*
X89171428Y-102380952D02*
X89552380Y-102095238D01*
X88885714Y-102095238D02*
X89266666Y-102476190D01*
D15*
X91554761Y-103726190D02*
X91388095Y-103488095D01*
X91269047Y-103726190D02*
X91269047Y-103226190D01*
X91459523Y-103226190D01*
X91507142Y-103250000D01*
X91530952Y-103273809D01*
X91554761Y-103321428D01*
X91554761Y-103392857D01*
X91530952Y-103440476D01*
X91507142Y-103464285D01*
X91459523Y-103488095D01*
X91269047Y-103488095D01*
X91769047Y-103726190D02*
X91769047Y-103226190D01*
X92054761Y-103726190D01*
X92054761Y-103226190D01*
X92507142Y-103392857D02*
X92507142Y-103726190D01*
X92388095Y-103202380D02*
X92269047Y-103559523D01*
X92578571Y-103559523D01*
D12*
X136233333Y-84952380D02*
X136804761Y-84952380D01*
X136519047Y-85952380D02*
X136519047Y-84952380D01*
X137042857Y-84952380D02*
X137709523Y-85952380D01*
X137709523Y-84952380D02*
X137042857Y-85952380D01*
X138423809Y-85428571D02*
X138566666Y-85476190D01*
X138614285Y-85523809D01*
X138661904Y-85619047D01*
X138661904Y-85761904D01*
X138614285Y-85857142D01*
X138566666Y-85904761D01*
X138471428Y-85952380D01*
X138090476Y-85952380D01*
X138090476Y-84952380D01*
X138423809Y-84952380D01*
X138519047Y-85000000D01*
X138566666Y-85047619D01*
X138614285Y-85142857D01*
X138614285Y-85238095D01*
X138566666Y-85333333D01*
X138519047Y-85380952D01*
X138423809Y-85428571D01*
X138090476Y-85428571D01*
X139280952Y-84952380D02*
X139376190Y-84952380D01*
X139471428Y-85000000D01*
X139519047Y-85047619D01*
X139566666Y-85142857D01*
X139614285Y-85333333D01*
X139614285Y-85571428D01*
X139566666Y-85761904D01*
X139519047Y-85857142D01*
X139471428Y-85904761D01*
X139376190Y-85952380D01*
X139280952Y-85952380D01*
X139185714Y-85904761D01*
X139138095Y-85857142D01*
X139090476Y-85761904D01*
X139042857Y-85571428D01*
X139042857Y-85333333D01*
X139090476Y-85142857D01*
X139138095Y-85047619D01*
X139185714Y-85000000D01*
X139280952Y-84952380D01*
X140566666Y-85952380D02*
X139995238Y-85952380D01*
X140280952Y-85952380D02*
X140280952Y-84952380D01*
X140185714Y-85095238D01*
X140090476Y-85190476D01*
X139995238Y-85238095D01*
X141185714Y-84952380D02*
X141280952Y-84952380D01*
X141376190Y-85000000D01*
X141423809Y-85047619D01*
X141471428Y-85142857D01*
X141519047Y-85333333D01*
X141519047Y-85571428D01*
X141471428Y-85761904D01*
X141423809Y-85857142D01*
X141376190Y-85904761D01*
X141280952Y-85952380D01*
X141185714Y-85952380D01*
X141090476Y-85904761D01*
X141042857Y-85857142D01*
X140995238Y-85761904D01*
X140947619Y-85571428D01*
X140947619Y-85333333D01*
X140995238Y-85142857D01*
X141042857Y-85047619D01*
X141090476Y-85000000D01*
X141185714Y-84952380D01*
X142090476Y-85380952D02*
X141995238Y-85333333D01*
X141947619Y-85285714D01*
X141900000Y-85190476D01*
X141900000Y-85142857D01*
X141947619Y-85047619D01*
X141995238Y-85000000D01*
X142090476Y-84952380D01*
X142280952Y-84952380D01*
X142376190Y-85000000D01*
X142423809Y-85047619D01*
X142471428Y-85142857D01*
X142471428Y-85190476D01*
X142423809Y-85285714D01*
X142376190Y-85333333D01*
X142280952Y-85380952D01*
X142090476Y-85380952D01*
X141995238Y-85428571D01*
X141947619Y-85476190D01*
X141900000Y-85571428D01*
X141900000Y-85761904D01*
X141947619Y-85857142D01*
X141995238Y-85904761D01*
X142090476Y-85952380D01*
X142280952Y-85952380D01*
X142376190Y-85904761D01*
X142423809Y-85857142D01*
X142471428Y-85761904D01*
X142471428Y-85571428D01*
X142423809Y-85476190D01*
X142376190Y-85428571D01*
X142280952Y-85380952D01*
X142900000Y-85952380D02*
X142900000Y-84952380D01*
X143138095Y-84952380D01*
X143280952Y-85000000D01*
X143376190Y-85095238D01*
X143423809Y-85190476D01*
X143471428Y-85380952D01*
X143471428Y-85523809D01*
X143423809Y-85714285D01*
X143376190Y-85809523D01*
X143280952Y-85904761D01*
X143138095Y-85952380D01*
X142900000Y-85952380D01*
X144566666Y-86047619D02*
X144471428Y-86000000D01*
X144376190Y-85904761D01*
X144233333Y-85761904D01*
X144138095Y-85714285D01*
X144042857Y-85714285D01*
X144090476Y-85952380D02*
X143995238Y-85904761D01*
X143900000Y-85809523D01*
X143852380Y-85619047D01*
X143852380Y-85285714D01*
X143900000Y-85095238D01*
X143995238Y-85000000D01*
X144090476Y-84952380D01*
X144280952Y-84952380D01*
X144376190Y-85000000D01*
X144471428Y-85095238D01*
X144519047Y-85285714D01*
X144519047Y-85619047D01*
X144471428Y-85809523D01*
X144376190Y-85904761D01*
X144280952Y-85952380D01*
X144090476Y-85952380D01*
X144900000Y-85904761D02*
X145042857Y-85952380D01*
X145280952Y-85952380D01*
X145376190Y-85904761D01*
X145423809Y-85857142D01*
X145471428Y-85761904D01*
X145471428Y-85666666D01*
X145423809Y-85571428D01*
X145376190Y-85523809D01*
X145280952Y-85476190D01*
X145090476Y-85428571D01*
X144995238Y-85380952D01*
X144947619Y-85333333D01*
X144900000Y-85238095D01*
X144900000Y-85142857D01*
X144947619Y-85047619D01*
X144995238Y-85000000D01*
X145090476Y-84952380D01*
X145328571Y-84952380D01*
X145471428Y-85000000D01*
X146471428Y-85952380D02*
X146138095Y-85476190D01*
X145900000Y-85952380D02*
X145900000Y-84952380D01*
X146280952Y-84952380D01*
X146376190Y-85000000D01*
X146423809Y-85047619D01*
X146471428Y-85142857D01*
X146471428Y-85285714D01*
X146423809Y-85380952D01*
X146376190Y-85428571D01*
X146280952Y-85476190D01*
X145900000Y-85476190D01*
X140507142Y-87985714D02*
X141235714Y-87985714D01*
X141321428Y-87942857D01*
X141364285Y-87900000D01*
X141407142Y-87814285D01*
X141407142Y-87642857D01*
X141364285Y-87557142D01*
X141321428Y-87514285D01*
X141235714Y-87471428D01*
X140507142Y-87471428D01*
X140507142Y-87128571D02*
X140507142Y-86528571D01*
X141407142Y-86914285D01*
X91085714Y-89704761D02*
X91228571Y-89752380D01*
X91466666Y-89752380D01*
X91561904Y-89704761D01*
X91609523Y-89657142D01*
X91657142Y-89561904D01*
X91657142Y-89466666D01*
X91609523Y-89371428D01*
X91561904Y-89323809D01*
X91466666Y-89276190D01*
X91276190Y-89228571D01*
X91180952Y-89180952D01*
X91133333Y-89133333D01*
X91085714Y-89038095D01*
X91085714Y-88942857D01*
X91133333Y-88847619D01*
X91180952Y-88800000D01*
X91276190Y-88752380D01*
X91514285Y-88752380D01*
X91657142Y-88800000D01*
X91990476Y-88752380D02*
X92228571Y-89752380D01*
X92419047Y-89038095D01*
X92609523Y-89752380D01*
X92847619Y-88752380D01*
X92990476Y-89847619D02*
X93752380Y-89847619D01*
X93942857Y-88847619D02*
X93990476Y-88800000D01*
X94085714Y-88752380D01*
X94323809Y-88752380D01*
X94419047Y-88800000D01*
X94466666Y-88847619D01*
X94514285Y-88942857D01*
X94514285Y-89038095D01*
X94466666Y-89180952D01*
X93895238Y-89752380D01*
X94514285Y-89752380D01*
X91466666Y-95304761D02*
X91609523Y-95352380D01*
X91847619Y-95352380D01*
X91942857Y-95304761D01*
X91990476Y-95257142D01*
X92038095Y-95161904D01*
X92038095Y-95066666D01*
X91990476Y-94971428D01*
X91942857Y-94923809D01*
X91847619Y-94876190D01*
X91657142Y-94828571D01*
X91561904Y-94780952D01*
X91514285Y-94733333D01*
X91466666Y-94638095D01*
X91466666Y-94542857D01*
X91514285Y-94447619D01*
X91561904Y-94400000D01*
X91657142Y-94352380D01*
X91895238Y-94352380D01*
X92038095Y-94400000D01*
X92371428Y-94352380D02*
X92609523Y-95352380D01*
X92800000Y-94638095D01*
X92990476Y-95352380D01*
X93228571Y-94352380D01*
X93514285Y-94352380D02*
X94133333Y-94352380D01*
X93800000Y-94733333D01*
X93942857Y-94733333D01*
X94038095Y-94780952D01*
X94085714Y-94828571D01*
X94133333Y-94923809D01*
X94133333Y-95161904D01*
X94085714Y-95257142D01*
X94038095Y-95304761D01*
X93942857Y-95352380D01*
X93657142Y-95352380D01*
X93561904Y-95304761D01*
X93514285Y-95257142D01*
X99085714Y-92985714D02*
X99752380Y-92985714D01*
X98704761Y-93223809D02*
X99419047Y-93461904D01*
X99419047Y-92842857D01*
X98752380Y-92271428D02*
X98752380Y-92176190D01*
X98800000Y-92080952D01*
X98847619Y-92033333D01*
X98942857Y-91985714D01*
X99133333Y-91938095D01*
X99371428Y-91938095D01*
X99561904Y-91985714D01*
X99657142Y-92033333D01*
X99704761Y-92080952D01*
X99752380Y-92176190D01*
X99752380Y-92271428D01*
X99704761Y-92366666D01*
X99657142Y-92414285D01*
X99561904Y-92461904D01*
X99371428Y-92509523D01*
X99133333Y-92509523D01*
X98942857Y-92461904D01*
X98847619Y-92414285D01*
X98800000Y-92366666D01*
X98752380Y-92271428D01*
X101609523Y-93152380D02*
X101276190Y-92676190D01*
X101038095Y-93152380D02*
X101038095Y-92152380D01*
X101419047Y-92152380D01*
X101514285Y-92200000D01*
X101561904Y-92247619D01*
X101609523Y-92342857D01*
X101609523Y-92485714D01*
X101561904Y-92580952D01*
X101514285Y-92628571D01*
X101419047Y-92676190D01*
X101038095Y-92676190D01*
X102038095Y-93152380D02*
X102038095Y-92152380D01*
X102609523Y-93152380D01*
X102609523Y-92152380D01*
X103038095Y-92247619D02*
X103085714Y-92200000D01*
X103180952Y-92152380D01*
X103419047Y-92152380D01*
X103514285Y-92200000D01*
X103561904Y-92247619D01*
X103609523Y-92342857D01*
X103609523Y-92438095D01*
X103561904Y-92580952D01*
X102990476Y-93152380D01*
X103609523Y-93152380D01*
X107847619Y-88166666D02*
X107800000Y-88119047D01*
X107752380Y-88023809D01*
X107752380Y-87785714D01*
X107800000Y-87690476D01*
X107847619Y-87642857D01*
X107942857Y-87595238D01*
X108038095Y-87595238D01*
X108180952Y-87642857D01*
X108752380Y-88214285D01*
X108752380Y-87595238D01*
X107847619Y-87214285D02*
X107800000Y-87166666D01*
X107752380Y-87071428D01*
X107752380Y-86833333D01*
X107800000Y-86738095D01*
X107847619Y-86690476D01*
X107942857Y-86642857D01*
X108038095Y-86642857D01*
X108180952Y-86690476D01*
X108752380Y-87261904D01*
X108752380Y-86642857D01*
X108752380Y-86214285D02*
X107752380Y-86214285D01*
X108371428Y-86119047D02*
X108752380Y-85833333D01*
X108085714Y-85833333D02*
X108466666Y-86214285D01*
X104609523Y-87452380D02*
X104276190Y-86976190D01*
X104038095Y-87452380D02*
X104038095Y-86452380D01*
X104419047Y-86452380D01*
X104514285Y-86500000D01*
X104561904Y-86547619D01*
X104609523Y-86642857D01*
X104609523Y-86785714D01*
X104561904Y-86880952D01*
X104514285Y-86928571D01*
X104419047Y-86976190D01*
X104038095Y-86976190D01*
X105038095Y-87452380D02*
X105038095Y-86452380D01*
X105609523Y-87452380D01*
X105609523Y-86452380D01*
X106609523Y-87452380D02*
X106038095Y-87452380D01*
X106323809Y-87452380D02*
X106323809Y-86452380D01*
X106228571Y-86595238D01*
X106133333Y-86690476D01*
X106038095Y-86738095D01*
X90595238Y-101552619D02*
X90642857Y-101505000D01*
X90738095Y-101457380D01*
X90976190Y-101457380D01*
X91071428Y-101505000D01*
X91119047Y-101552619D01*
X91166666Y-101647857D01*
X91166666Y-101743095D01*
X91119047Y-101885952D01*
X90547619Y-102457380D01*
X91166666Y-102457380D01*
X91595238Y-102362142D02*
X91642857Y-102409761D01*
X91595238Y-102457380D01*
X91547619Y-102409761D01*
X91595238Y-102362142D01*
X91595238Y-102457380D01*
X92023809Y-101552619D02*
X92071428Y-101505000D01*
X92166666Y-101457380D01*
X92404761Y-101457380D01*
X92500000Y-101505000D01*
X92547619Y-101552619D01*
X92595238Y-101647857D01*
X92595238Y-101743095D01*
X92547619Y-101885952D01*
X91976190Y-102457380D01*
X92595238Y-102457380D01*
X93023809Y-102457380D02*
X93023809Y-101457380D01*
X93119047Y-102076428D02*
X93404761Y-102457380D01*
X93404761Y-101790714D02*
X93023809Y-102171666D01*
D13*
X91742857Y-100755952D02*
X91609523Y-100565476D01*
X91514285Y-100755952D02*
X91514285Y-100355952D01*
X91666666Y-100355952D01*
X91704761Y-100375000D01*
X91723809Y-100394047D01*
X91742857Y-100432142D01*
X91742857Y-100489285D01*
X91723809Y-100527380D01*
X91704761Y-100546428D01*
X91666666Y-100565476D01*
X91514285Y-100565476D01*
X91895238Y-100394047D02*
X91914285Y-100375000D01*
X91952380Y-100355952D01*
X92047619Y-100355952D01*
X92085714Y-100375000D01*
X92104761Y-100394047D01*
X92123809Y-100432142D01*
X92123809Y-100470238D01*
X92104761Y-100527380D01*
X91876190Y-100755952D01*
X92123809Y-100755952D01*
X92276190Y-100394047D02*
X92295238Y-100375000D01*
X92333333Y-100355952D01*
X92428571Y-100355952D01*
X92466666Y-100375000D01*
X92485714Y-100394047D01*
X92504761Y-100432142D01*
X92504761Y-100470238D01*
X92485714Y-100527380D01*
X92257142Y-100755952D01*
X92504761Y-100755952D01*
D12*
X123750595Y-100717619D02*
X123798214Y-100670000D01*
X123893452Y-100622380D01*
X124131547Y-100622380D01*
X124226785Y-100670000D01*
X124274404Y-100717619D01*
X124322023Y-100812857D01*
X124322023Y-100908095D01*
X124274404Y-101050952D01*
X123702976Y-101622380D01*
X124322023Y-101622380D01*
X124702976Y-100717619D02*
X124750595Y-100670000D01*
X124845833Y-100622380D01*
X125083928Y-100622380D01*
X125179166Y-100670000D01*
X125226785Y-100717619D01*
X125274404Y-100812857D01*
X125274404Y-100908095D01*
X125226785Y-101050952D01*
X124655357Y-101622380D01*
X125274404Y-101622380D01*
D13*
X124255357Y-102780952D02*
X124122023Y-102590476D01*
X124026785Y-102780952D02*
X124026785Y-102380952D01*
X124179166Y-102380952D01*
X124217261Y-102400000D01*
X124236309Y-102419047D01*
X124255357Y-102457142D01*
X124255357Y-102514285D01*
X124236309Y-102552380D01*
X124217261Y-102571428D01*
X124179166Y-102590476D01*
X124026785Y-102590476D01*
X124407738Y-102419047D02*
X124426785Y-102400000D01*
X124464880Y-102380952D01*
X124560119Y-102380952D01*
X124598214Y-102400000D01*
X124617261Y-102419047D01*
X124636309Y-102457142D01*
X124636309Y-102495238D01*
X124617261Y-102552380D01*
X124388690Y-102780952D01*
X124636309Y-102780952D01*
X125017261Y-102780952D02*
X124788690Y-102780952D01*
X124902976Y-102780952D02*
X124902976Y-102380952D01*
X124864880Y-102438095D01*
X124826785Y-102476190D01*
X124788690Y-102495238D01*
D12*
X123750595Y-102317619D02*
X123798214Y-102270000D01*
X123893452Y-102222380D01*
X124131547Y-102222380D01*
X124226785Y-102270000D01*
X124274404Y-102317619D01*
X124322023Y-102412857D01*
X124322023Y-102508095D01*
X124274404Y-102650952D01*
X123702976Y-103222380D01*
X124322023Y-103222380D01*
X124702976Y-102317619D02*
X124750595Y-102270000D01*
X124845833Y-102222380D01*
X125083928Y-102222380D01*
X125179166Y-102270000D01*
X125226785Y-102317619D01*
X125274404Y-102412857D01*
X125274404Y-102508095D01*
X125226785Y-102650952D01*
X124655357Y-103222380D01*
X125274404Y-103222380D01*
D13*
X124255357Y-104380952D02*
X124122023Y-104190476D01*
X124026785Y-104380952D02*
X124026785Y-103980952D01*
X124179166Y-103980952D01*
X124217261Y-104000000D01*
X124236309Y-104019047D01*
X124255357Y-104057142D01*
X124255357Y-104114285D01*
X124236309Y-104152380D01*
X124217261Y-104171428D01*
X124179166Y-104190476D01*
X124026785Y-104190476D01*
X124407738Y-104019047D02*
X124426785Y-104000000D01*
X124464880Y-103980952D01*
X124560119Y-103980952D01*
X124598214Y-104000000D01*
X124617261Y-104019047D01*
X124636309Y-104057142D01*
X124636309Y-104095238D01*
X124617261Y-104152380D01*
X124388690Y-104380952D01*
X124636309Y-104380952D01*
X124883928Y-103980952D02*
X124922023Y-103980952D01*
X124960119Y-104000000D01*
X124979166Y-104019047D01*
X124998214Y-104057142D01*
X125017261Y-104133333D01*
X125017261Y-104228571D01*
X124998214Y-104304761D01*
X124979166Y-104342857D01*
X124960119Y-104361904D01*
X124922023Y-104380952D01*
X124883928Y-104380952D01*
X124845833Y-104361904D01*
X124826785Y-104342857D01*
X124807738Y-104304761D01*
X124788690Y-104228571D01*
X124788690Y-104133333D01*
X124807738Y-104057142D01*
X124826785Y-104019047D01*
X124845833Y-104000000D01*
X124883928Y-103980952D01*
D12*
X124138095Y-71817619D02*
X124185714Y-71770000D01*
X124280952Y-71722380D01*
X124519047Y-71722380D01*
X124614285Y-71770000D01*
X124661904Y-71817619D01*
X124709523Y-71912857D01*
X124709523Y-72008095D01*
X124661904Y-72150952D01*
X124090476Y-72722380D01*
X124709523Y-72722380D01*
X125090476Y-71817619D02*
X125138095Y-71770000D01*
X125233333Y-71722380D01*
X125471428Y-71722380D01*
X125566666Y-71770000D01*
X125614285Y-71817619D01*
X125661904Y-71912857D01*
X125661904Y-72008095D01*
X125614285Y-72150952D01*
X125042857Y-72722380D01*
X125661904Y-72722380D01*
D13*
X124642857Y-73880952D02*
X124509523Y-73690476D01*
X124414285Y-73880952D02*
X124414285Y-73480952D01*
X124566666Y-73480952D01*
X124604761Y-73500000D01*
X124623809Y-73519047D01*
X124642857Y-73557142D01*
X124642857Y-73614285D01*
X124623809Y-73652380D01*
X124604761Y-73671428D01*
X124566666Y-73690476D01*
X124414285Y-73690476D01*
X125023809Y-73880952D02*
X124795238Y-73880952D01*
X124909523Y-73880952D02*
X124909523Y-73480952D01*
X124871428Y-73538095D01*
X124833333Y-73576190D01*
X124795238Y-73595238D01*
X125271428Y-73480952D02*
X125309523Y-73480952D01*
X125347619Y-73500000D01*
X125366666Y-73519047D01*
X125385714Y-73557142D01*
X125404761Y-73633333D01*
X125404761Y-73728571D01*
X125385714Y-73804761D01*
X125366666Y-73842857D01*
X125347619Y-73861904D01*
X125309523Y-73880952D01*
X125271428Y-73880952D01*
X125233333Y-73861904D01*
X125214285Y-73842857D01*
X125195238Y-73804761D01*
X125176190Y-73728571D01*
X125176190Y-73633333D01*
X125195238Y-73557142D01*
X125214285Y-73519047D01*
X125233333Y-73500000D01*
X125271428Y-73480952D01*
D12*
X124138095Y-70117619D02*
X124185714Y-70070000D01*
X124280952Y-70022380D01*
X124519047Y-70022380D01*
X124614285Y-70070000D01*
X124661904Y-70117619D01*
X124709523Y-70212857D01*
X124709523Y-70308095D01*
X124661904Y-70450952D01*
X124090476Y-71022380D01*
X124709523Y-71022380D01*
X125090476Y-70117619D02*
X125138095Y-70070000D01*
X125233333Y-70022380D01*
X125471428Y-70022380D01*
X125566666Y-70070000D01*
X125614285Y-70117619D01*
X125661904Y-70212857D01*
X125661904Y-70308095D01*
X125614285Y-70450952D01*
X125042857Y-71022380D01*
X125661904Y-71022380D01*
D13*
X124833333Y-72180952D02*
X124700000Y-71990476D01*
X124604761Y-72180952D02*
X124604761Y-71780952D01*
X124757142Y-71780952D01*
X124795238Y-71800000D01*
X124814285Y-71819047D01*
X124833333Y-71857142D01*
X124833333Y-71914285D01*
X124814285Y-71952380D01*
X124795238Y-71971428D01*
X124757142Y-71990476D01*
X124604761Y-71990476D01*
X125023809Y-72180952D02*
X125100000Y-72180952D01*
X125138095Y-72161904D01*
X125157142Y-72142857D01*
X125195238Y-72085714D01*
X125214285Y-72009523D01*
X125214285Y-71857142D01*
X125195238Y-71819047D01*
X125176190Y-71800000D01*
X125138095Y-71780952D01*
X125061904Y-71780952D01*
X125023809Y-71800000D01*
X125004761Y-71819047D01*
X124985714Y-71857142D01*
X124985714Y-71952380D01*
X125004761Y-71990476D01*
X125023809Y-72009523D01*
X125061904Y-72028571D01*
X125138095Y-72028571D01*
X125176190Y-72009523D01*
X125195238Y-71990476D01*
X125214285Y-71952380D01*
D12*
X114922380Y-94395238D02*
X114922380Y-94966666D01*
X114922380Y-94680952D02*
X113922380Y-94680952D01*
X114065238Y-94776190D01*
X114160476Y-94871428D01*
X114208095Y-94966666D01*
X113922380Y-93776190D02*
X113922380Y-93680952D01*
X113970000Y-93585714D01*
X114017619Y-93538095D01*
X114112857Y-93490476D01*
X114303333Y-93442857D01*
X114541428Y-93442857D01*
X114731904Y-93490476D01*
X114827142Y-93538095D01*
X114874761Y-93585714D01*
X114922380Y-93680952D01*
X114922380Y-93776190D01*
X114874761Y-93871428D01*
X114827142Y-93919047D01*
X114731904Y-93966666D01*
X114541428Y-94014285D01*
X114303333Y-94014285D01*
X114112857Y-93966666D01*
X114017619Y-93919047D01*
X113970000Y-93871428D01*
X113922380Y-93776190D01*
X114922380Y-93014285D02*
X113922380Y-93014285D01*
X114541428Y-92919047D02*
X114922380Y-92633333D01*
X114255714Y-92633333D02*
X114636666Y-93014285D01*
D13*
X116080952Y-93866666D02*
X115890476Y-94000000D01*
X116080952Y-94095238D02*
X115680952Y-94095238D01*
X115680952Y-93942857D01*
X115700000Y-93904761D01*
X115719047Y-93885714D01*
X115757142Y-93866666D01*
X115814285Y-93866666D01*
X115852380Y-93885714D01*
X115871428Y-93904761D01*
X115890476Y-93942857D01*
X115890476Y-94095238D01*
X115852380Y-93638095D02*
X115833333Y-93676190D01*
X115814285Y-93695238D01*
X115776190Y-93714285D01*
X115757142Y-93714285D01*
X115719047Y-93695238D01*
X115700000Y-93676190D01*
X115680952Y-93638095D01*
X115680952Y-93561904D01*
X115700000Y-93523809D01*
X115719047Y-93504761D01*
X115757142Y-93485714D01*
X115776190Y-93485714D01*
X115814285Y-93504761D01*
X115833333Y-93523809D01*
X115852380Y-93561904D01*
X115852380Y-93638095D01*
X115871428Y-93676190D01*
X115890476Y-93695238D01*
X115928571Y-93714285D01*
X116004761Y-93714285D01*
X116042857Y-93695238D01*
X116061904Y-93676190D01*
X116080952Y-93638095D01*
X116080952Y-93561904D01*
X116061904Y-93523809D01*
X116042857Y-93504761D01*
X116004761Y-93485714D01*
X115928571Y-93485714D01*
X115890476Y-93504761D01*
X115871428Y-93523809D01*
X115852380Y-93561904D01*
D12*
X116522380Y-87895238D02*
X116522380Y-88466666D01*
X116522380Y-88180952D02*
X115522380Y-88180952D01*
X115665238Y-88276190D01*
X115760476Y-88371428D01*
X115808095Y-88466666D01*
X115522380Y-87276190D02*
X115522380Y-87180952D01*
X115570000Y-87085714D01*
X115617619Y-87038095D01*
X115712857Y-86990476D01*
X115903333Y-86942857D01*
X116141428Y-86942857D01*
X116331904Y-86990476D01*
X116427142Y-87038095D01*
X116474761Y-87085714D01*
X116522380Y-87180952D01*
X116522380Y-87276190D01*
X116474761Y-87371428D01*
X116427142Y-87419047D01*
X116331904Y-87466666D01*
X116141428Y-87514285D01*
X115903333Y-87514285D01*
X115712857Y-87466666D01*
X115617619Y-87419047D01*
X115570000Y-87371428D01*
X115522380Y-87276190D01*
X116522380Y-86514285D02*
X115522380Y-86514285D01*
X116141428Y-86419047D02*
X116522380Y-86133333D01*
X115855714Y-86133333D02*
X116236666Y-86514285D01*
D13*
X117680952Y-87366666D02*
X117490476Y-87500000D01*
X117680952Y-87595238D02*
X117280952Y-87595238D01*
X117280952Y-87442857D01*
X117300000Y-87404761D01*
X117319047Y-87385714D01*
X117357142Y-87366666D01*
X117414285Y-87366666D01*
X117452380Y-87385714D01*
X117471428Y-87404761D01*
X117490476Y-87442857D01*
X117490476Y-87595238D01*
X117280952Y-87233333D02*
X117280952Y-86966666D01*
X117680952Y-87138095D01*
D12*
X114922380Y-87895238D02*
X114922380Y-88466666D01*
X114922380Y-88180952D02*
X113922380Y-88180952D01*
X114065238Y-88276190D01*
X114160476Y-88371428D01*
X114208095Y-88466666D01*
X113922380Y-87276190D02*
X113922380Y-87180952D01*
X113970000Y-87085714D01*
X114017619Y-87038095D01*
X114112857Y-86990476D01*
X114303333Y-86942857D01*
X114541428Y-86942857D01*
X114731904Y-86990476D01*
X114827142Y-87038095D01*
X114874761Y-87085714D01*
X114922380Y-87180952D01*
X114922380Y-87276190D01*
X114874761Y-87371428D01*
X114827142Y-87419047D01*
X114731904Y-87466666D01*
X114541428Y-87514285D01*
X114303333Y-87514285D01*
X114112857Y-87466666D01*
X114017619Y-87419047D01*
X113970000Y-87371428D01*
X113922380Y-87276190D01*
X114922380Y-86514285D02*
X113922380Y-86514285D01*
X114541428Y-86419047D02*
X114922380Y-86133333D01*
X114255714Y-86133333D02*
X114636666Y-86514285D01*
D13*
X116080952Y-87366666D02*
X115890476Y-87500000D01*
X116080952Y-87595238D02*
X115680952Y-87595238D01*
X115680952Y-87442857D01*
X115700000Y-87404761D01*
X115719047Y-87385714D01*
X115757142Y-87366666D01*
X115814285Y-87366666D01*
X115852380Y-87385714D01*
X115871428Y-87404761D01*
X115890476Y-87442857D01*
X115890476Y-87595238D01*
X115680952Y-87023809D02*
X115680952Y-87100000D01*
X115700000Y-87138095D01*
X115719047Y-87157142D01*
X115776190Y-87195238D01*
X115852380Y-87214285D01*
X116004761Y-87214285D01*
X116042857Y-87195238D01*
X116061904Y-87176190D01*
X116080952Y-87138095D01*
X116080952Y-87061904D01*
X116061904Y-87023809D01*
X116042857Y-87004761D01*
X116004761Y-86985714D01*
X115909523Y-86985714D01*
X115871428Y-87004761D01*
X115852380Y-87023809D01*
X115833333Y-87061904D01*
X115833333Y-87138095D01*
X115852380Y-87176190D01*
X115871428Y-87195238D01*
X115909523Y-87214285D01*
D12*
X117222380Y-101595238D02*
X117222380Y-102166666D01*
X117222380Y-101880952D02*
X116222380Y-101880952D01*
X116365238Y-101976190D01*
X116460476Y-102071428D01*
X116508095Y-102166666D01*
X116222380Y-100976190D02*
X116222380Y-100880952D01*
X116270000Y-100785714D01*
X116317619Y-100738095D01*
X116412857Y-100690476D01*
X116603333Y-100642857D01*
X116841428Y-100642857D01*
X117031904Y-100690476D01*
X117127142Y-100738095D01*
X117174761Y-100785714D01*
X117222380Y-100880952D01*
X117222380Y-100976190D01*
X117174761Y-101071428D01*
X117127142Y-101119047D01*
X117031904Y-101166666D01*
X116841428Y-101214285D01*
X116603333Y-101214285D01*
X116412857Y-101166666D01*
X116317619Y-101119047D01*
X116270000Y-101071428D01*
X116222380Y-100976190D01*
X117222380Y-100214285D02*
X116222380Y-100214285D01*
X116841428Y-100119047D02*
X117222380Y-99833333D01*
X116555714Y-99833333D02*
X116936666Y-100214285D01*
D13*
X118380952Y-101066666D02*
X118190476Y-101200000D01*
X118380952Y-101295238D02*
X117980952Y-101295238D01*
X117980952Y-101142857D01*
X118000000Y-101104761D01*
X118019047Y-101085714D01*
X118057142Y-101066666D01*
X118114285Y-101066666D01*
X118152380Y-101085714D01*
X118171428Y-101104761D01*
X118190476Y-101142857D01*
X118190476Y-101295238D01*
X118114285Y-100723809D02*
X118380952Y-100723809D01*
X117961904Y-100819047D02*
X118247619Y-100914285D01*
X118247619Y-100666666D01*
D12*
X99533333Y-76655714D02*
X99533333Y-77322380D01*
X99295238Y-76274761D02*
X99057142Y-76989047D01*
X99676190Y-76989047D01*
X99961904Y-76322380D02*
X100628571Y-76322380D01*
X100200000Y-77322380D01*
X101200000Y-76322380D02*
X101295238Y-76322380D01*
X101390476Y-76370000D01*
X101438095Y-76417619D01*
X101485714Y-76512857D01*
X101533333Y-76703333D01*
X101533333Y-76941428D01*
X101485714Y-77131904D01*
X101438095Y-77227142D01*
X101390476Y-77274761D01*
X101295238Y-77322380D01*
X101200000Y-77322380D01*
X101104761Y-77274761D01*
X101057142Y-77227142D01*
X101009523Y-77131904D01*
X100961904Y-76941428D01*
X100961904Y-76703333D01*
X101009523Y-76512857D01*
X101057142Y-76417619D01*
X101104761Y-76370000D01*
X101200000Y-76322380D01*
X101961904Y-77322380D02*
X101961904Y-76322380D01*
X102057142Y-76941428D02*
X102342857Y-77322380D01*
X102342857Y-76655714D02*
X101961904Y-77036666D01*
D13*
X100633333Y-78480952D02*
X100500000Y-78290476D01*
X100404761Y-78480952D02*
X100404761Y-78080952D01*
X100557142Y-78080952D01*
X100595238Y-78100000D01*
X100614285Y-78119047D01*
X100633333Y-78157142D01*
X100633333Y-78214285D01*
X100614285Y-78252380D01*
X100595238Y-78271428D01*
X100557142Y-78290476D01*
X100404761Y-78290476D01*
X100785714Y-78119047D02*
X100804761Y-78100000D01*
X100842857Y-78080952D01*
X100938095Y-78080952D01*
X100976190Y-78100000D01*
X100995238Y-78119047D01*
X101014285Y-78157142D01*
X101014285Y-78195238D01*
X100995238Y-78252380D01*
X100766666Y-78480952D01*
X101014285Y-78480952D01*
D12*
X99057142Y-77677619D02*
X99104761Y-77630000D01*
X99200000Y-77582380D01*
X99438095Y-77582380D01*
X99533333Y-77630000D01*
X99580952Y-77677619D01*
X99628571Y-77772857D01*
X99628571Y-77868095D01*
X99580952Y-78010952D01*
X99009523Y-78582380D01*
X99628571Y-78582380D01*
X100009523Y-77677619D02*
X100057142Y-77630000D01*
X100152380Y-77582380D01*
X100390476Y-77582380D01*
X100485714Y-77630000D01*
X100533333Y-77677619D01*
X100580952Y-77772857D01*
X100580952Y-77868095D01*
X100533333Y-78010952D01*
X99961904Y-78582380D01*
X100580952Y-78582380D01*
X101200000Y-77582380D02*
X101295238Y-77582380D01*
X101390476Y-77630000D01*
X101438095Y-77677619D01*
X101485714Y-77772857D01*
X101533333Y-77963333D01*
X101533333Y-78201428D01*
X101485714Y-78391904D01*
X101438095Y-78487142D01*
X101390476Y-78534761D01*
X101295238Y-78582380D01*
X101200000Y-78582380D01*
X101104761Y-78534761D01*
X101057142Y-78487142D01*
X101009523Y-78391904D01*
X100961904Y-78201428D01*
X100961904Y-77963333D01*
X101009523Y-77772857D01*
X101057142Y-77677619D01*
X101104761Y-77630000D01*
X101200000Y-77582380D01*
X101961904Y-78582380D02*
X101961904Y-77582380D01*
X102057142Y-78201428D02*
X102342857Y-78582380D01*
X102342857Y-77915714D02*
X101961904Y-78296666D01*
D13*
X100633333Y-76880952D02*
X100500000Y-76690476D01*
X100404761Y-76880952D02*
X100404761Y-76480952D01*
X100557142Y-76480952D01*
X100595238Y-76500000D01*
X100614285Y-76519047D01*
X100633333Y-76557142D01*
X100633333Y-76614285D01*
X100614285Y-76652380D01*
X100595238Y-76671428D01*
X100557142Y-76690476D01*
X100404761Y-76690476D01*
X101014285Y-76880952D02*
X100785714Y-76880952D01*
X100900000Y-76880952D02*
X100900000Y-76480952D01*
X100861904Y-76538095D01*
X100823809Y-76576190D01*
X100785714Y-76595238D01*
D12*
X85152380Y-107190476D02*
X84152380Y-107190476D01*
X84866666Y-106857142D01*
X84152380Y-106523809D01*
X85152380Y-106523809D01*
X85152380Y-106047619D02*
X84152380Y-106047619D01*
X84866666Y-105714285D01*
X84152380Y-105380952D01*
X85152380Y-105380952D01*
X84628571Y-104571428D02*
X84676190Y-104428571D01*
X84723809Y-104380952D01*
X84819047Y-104333333D01*
X84961904Y-104333333D01*
X85057142Y-104380952D01*
X85104761Y-104428571D01*
X85152380Y-104523809D01*
X85152380Y-104904761D01*
X84152380Y-104904761D01*
X84152380Y-104571428D01*
X84200000Y-104476190D01*
X84247619Y-104428571D01*
X84342857Y-104380952D01*
X84438095Y-104380952D01*
X84533333Y-104428571D01*
X84580952Y-104476190D01*
X84628571Y-104571428D01*
X84628571Y-104904761D01*
X84152380Y-104047619D02*
X84152380Y-103476190D01*
X85152380Y-103761904D02*
X84152380Y-103761904D01*
X84152380Y-103238095D02*
X84152380Y-102619047D01*
X84533333Y-102952380D01*
X84533333Y-102809523D01*
X84580952Y-102714285D01*
X84628571Y-102666666D01*
X84723809Y-102619047D01*
X84961904Y-102619047D01*
X85057142Y-102666666D01*
X85104761Y-102714285D01*
X85152380Y-102809523D01*
X85152380Y-103095238D01*
X85104761Y-103190476D01*
X85057142Y-103238095D01*
X85152380Y-102142857D02*
X85152380Y-101952380D01*
X85104761Y-101857142D01*
X85057142Y-101809523D01*
X84914285Y-101714285D01*
X84723809Y-101666666D01*
X84342857Y-101666666D01*
X84247619Y-101714285D01*
X84200000Y-101761904D01*
X84152380Y-101857142D01*
X84152380Y-102047619D01*
X84200000Y-102142857D01*
X84247619Y-102190476D01*
X84342857Y-102238095D01*
X84580952Y-102238095D01*
X84676190Y-102190476D01*
X84723809Y-102142857D01*
X84771428Y-102047619D01*
X84771428Y-101857142D01*
X84723809Y-101761904D01*
X84676190Y-101714285D01*
X84580952Y-101666666D01*
X84152380Y-101047619D02*
X84152380Y-100952380D01*
X84200000Y-100857142D01*
X84247619Y-100809523D01*
X84342857Y-100761904D01*
X84533333Y-100714285D01*
X84771428Y-100714285D01*
X84961904Y-100761904D01*
X85057142Y-100809523D01*
X85104761Y-100857142D01*
X85152380Y-100952380D01*
X85152380Y-101047619D01*
X85104761Y-101142857D01*
X85057142Y-101190476D01*
X84961904Y-101238095D01*
X84771428Y-101285714D01*
X84533333Y-101285714D01*
X84342857Y-101238095D01*
X84247619Y-101190476D01*
X84200000Y-101142857D01*
X84152380Y-101047619D01*
X84485714Y-99857142D02*
X85152380Y-99857142D01*
X84104761Y-100095238D02*
X84819047Y-100333333D01*
X84819047Y-99714285D01*
D15*
X87152380Y-103773809D02*
X87104761Y-103750000D01*
X87057142Y-103702380D01*
X86985714Y-103630952D01*
X86938095Y-103607142D01*
X86890476Y-103607142D01*
X86914285Y-103726190D02*
X86866666Y-103702380D01*
X86819047Y-103654761D01*
X86795238Y-103559523D01*
X86795238Y-103392857D01*
X86819047Y-103297619D01*
X86866666Y-103250000D01*
X86914285Y-103226190D01*
X87009523Y-103226190D01*
X87057142Y-103250000D01*
X87104761Y-103297619D01*
X87128571Y-103392857D01*
X87128571Y-103559523D01*
X87104761Y-103654761D01*
X87057142Y-103702380D01*
X87009523Y-103726190D01*
X86914285Y-103726190D01*
X87604761Y-103726190D02*
X87319047Y-103726190D01*
X87461904Y-103726190D02*
X87461904Y-103226190D01*
X87414285Y-103297619D01*
X87366666Y-103345238D01*
X87319047Y-103369047D01*
D12*
X113776190Y-111089880D02*
X113776190Y-111899404D01*
X113823809Y-111994642D01*
X113871428Y-112042261D01*
X113966666Y-112089880D01*
X114157142Y-112089880D01*
X114252380Y-112042261D01*
X114300000Y-111994642D01*
X114347619Y-111899404D01*
X114347619Y-111089880D01*
X114776190Y-112042261D02*
X114919047Y-112089880D01*
X115157142Y-112089880D01*
X115252380Y-112042261D01*
X115300000Y-111994642D01*
X115347619Y-111899404D01*
X115347619Y-111804166D01*
X115300000Y-111708928D01*
X115252380Y-111661309D01*
X115157142Y-111613690D01*
X114966666Y-111566071D01*
X114871428Y-111518452D01*
X114823809Y-111470833D01*
X114776190Y-111375595D01*
X114776190Y-111280357D01*
X114823809Y-111185119D01*
X114871428Y-111137500D01*
X114966666Y-111089880D01*
X115204761Y-111089880D01*
X115347619Y-111137500D01*
X116109523Y-111566071D02*
X116252380Y-111613690D01*
X116300000Y-111661309D01*
X116347619Y-111756547D01*
X116347619Y-111899404D01*
X116300000Y-111994642D01*
X116252380Y-112042261D01*
X116157142Y-112089880D01*
X115776190Y-112089880D01*
X115776190Y-111089880D01*
X116109523Y-111089880D01*
X116204761Y-111137500D01*
X116252380Y-111185119D01*
X116300000Y-111280357D01*
X116300000Y-111375595D01*
X116252380Y-111470833D01*
X116204761Y-111518452D01*
X116109523Y-111566071D01*
X115776190Y-111566071D01*
X116538095Y-112185119D02*
X117300000Y-112185119D01*
X117871428Y-111566071D02*
X118014285Y-111613690D01*
X118061904Y-111661309D01*
X118109523Y-111756547D01*
X118109523Y-111899404D01*
X118061904Y-111994642D01*
X118014285Y-112042261D01*
X117919047Y-112089880D01*
X117538095Y-112089880D01*
X117538095Y-111089880D01*
X117871428Y-111089880D01*
X117966666Y-111137500D01*
X118014285Y-111185119D01*
X118061904Y-111280357D01*
X118061904Y-111375595D01*
X118014285Y-111470833D01*
X117966666Y-111518452D01*
X117871428Y-111566071D01*
X117538095Y-111566071D01*
X118300000Y-112185119D02*
X119061904Y-112185119D01*
X119300000Y-112089880D02*
X119300000Y-111089880D01*
X119633333Y-111804166D01*
X119966666Y-111089880D01*
X119966666Y-112089880D01*
X120442857Y-112089880D02*
X120442857Y-111423214D01*
X120442857Y-111089880D02*
X120395238Y-111137500D01*
X120442857Y-111185119D01*
X120490476Y-111137500D01*
X120442857Y-111089880D01*
X120442857Y-111185119D01*
X121347619Y-112042261D02*
X121252380Y-112089880D01*
X121061904Y-112089880D01*
X120966666Y-112042261D01*
X120919047Y-111994642D01*
X120871428Y-111899404D01*
X120871428Y-111613690D01*
X120919047Y-111518452D01*
X120966666Y-111470833D01*
X121061904Y-111423214D01*
X121252380Y-111423214D01*
X121347619Y-111470833D01*
X121776190Y-112089880D02*
X121776190Y-111423214D01*
X121776190Y-111613690D02*
X121823809Y-111518452D01*
X121871428Y-111470833D01*
X121966666Y-111423214D01*
X122061904Y-111423214D01*
X122538095Y-112089880D02*
X122442857Y-112042261D01*
X122395238Y-111994642D01*
X122347619Y-111899404D01*
X122347619Y-111613690D01*
X122395238Y-111518452D01*
X122442857Y-111470833D01*
X122538095Y-111423214D01*
X122680952Y-111423214D01*
X122776190Y-111470833D01*
X122823809Y-111518452D01*
X122871428Y-111613690D01*
X122871428Y-111899404D01*
X122823809Y-111994642D01*
X122776190Y-112042261D01*
X122680952Y-112089880D01*
X122538095Y-112089880D01*
X117190476Y-107639880D02*
X117190476Y-108354166D01*
X117142857Y-108497023D01*
X117047619Y-108592261D01*
X116904761Y-108639880D01*
X116809523Y-108639880D01*
X118190476Y-108639880D02*
X117619047Y-108639880D01*
X117904761Y-108639880D02*
X117904761Y-107639880D01*
X117809523Y-107782738D01*
X117714285Y-107877976D01*
X117619047Y-107925595D01*
X118809523Y-107639880D02*
X118904761Y-107639880D01*
X119000000Y-107687500D01*
X119047619Y-107735119D01*
X119095238Y-107830357D01*
X119142857Y-108020833D01*
X119142857Y-108258928D01*
X119095238Y-108449404D01*
X119047619Y-108544642D01*
X119000000Y-108592261D01*
X118904761Y-108639880D01*
X118809523Y-108639880D01*
X118714285Y-108592261D01*
X118666666Y-108544642D01*
X118619047Y-108449404D01*
X118571428Y-108258928D01*
X118571428Y-108020833D01*
X118619047Y-107830357D01*
X118666666Y-107735119D01*
X118714285Y-107687500D01*
X118809523Y-107639880D01*
X107447619Y-70391666D02*
X107923809Y-70391666D01*
X107352380Y-70677380D02*
X107685714Y-69677380D01*
X108019047Y-70677380D01*
X108352380Y-69677380D02*
X108352380Y-70486904D01*
X108400000Y-70582142D01*
X108447619Y-70629761D01*
X108542857Y-70677380D01*
X108733333Y-70677380D01*
X108828571Y-70629761D01*
X108876190Y-70582142D01*
X108923809Y-70486904D01*
X108923809Y-69677380D01*
X109304761Y-69677380D02*
X109971428Y-70677380D01*
X109971428Y-69677380D02*
X109304761Y-70677380D01*
X110114285Y-70772619D02*
X110876190Y-70772619D01*
X111114285Y-69677380D02*
X111114285Y-70486904D01*
X111161904Y-70582142D01*
X111209523Y-70629761D01*
X111304761Y-70677380D01*
X111495238Y-70677380D01*
X111590476Y-70629761D01*
X111638095Y-70582142D01*
X111685714Y-70486904D01*
X111685714Y-69677380D01*
X112114285Y-70391666D02*
X112590476Y-70391666D01*
X112019047Y-70677380D02*
X112352380Y-69677380D01*
X112685714Y-70677380D01*
X113590476Y-70677380D02*
X113257142Y-70201190D01*
X113019047Y-70677380D02*
X113019047Y-69677380D01*
X113400000Y-69677380D01*
X113495238Y-69725000D01*
X113542857Y-69772619D01*
X113590476Y-69867857D01*
X113590476Y-70010714D01*
X113542857Y-70105952D01*
X113495238Y-70153571D01*
X113400000Y-70201190D01*
X113019047Y-70201190D01*
X113876190Y-69677380D02*
X114447619Y-69677380D01*
X114161904Y-70677380D02*
X114161904Y-69677380D01*
X110352380Y-73963333D02*
X111066666Y-73963333D01*
X111209523Y-74010952D01*
X111304761Y-74106190D01*
X111352380Y-74249047D01*
X111352380Y-74344285D01*
X111352380Y-73439523D02*
X111352380Y-73249047D01*
X111304761Y-73153809D01*
X111257142Y-73106190D01*
X111114285Y-73010952D01*
X110923809Y-72963333D01*
X110542857Y-72963333D01*
X110447619Y-73010952D01*
X110400000Y-73058571D01*
X110352380Y-73153809D01*
X110352380Y-73344285D01*
X110400000Y-73439523D01*
X110447619Y-73487142D01*
X110542857Y-73534761D01*
X110780952Y-73534761D01*
X110876190Y-73487142D01*
X110923809Y-73439523D01*
X110971428Y-73344285D01*
X110971428Y-73153809D01*
X110923809Y-73058571D01*
X110876190Y-73010952D01*
X110780952Y-72963333D01*
X112785000Y-83042857D02*
X112737380Y-83138095D01*
X112737380Y-83280952D01*
X112785000Y-83423809D01*
X112880238Y-83519047D01*
X112975476Y-83566666D01*
X113165952Y-83614285D01*
X113308809Y-83614285D01*
X113499285Y-83566666D01*
X113594523Y-83519047D01*
X113689761Y-83423809D01*
X113737380Y-83280952D01*
X113737380Y-83185714D01*
X113689761Y-83042857D01*
X113642142Y-82995238D01*
X113308809Y-82995238D01*
X113308809Y-83185714D01*
X113737380Y-82566666D02*
X112737380Y-82566666D01*
X112737380Y-82185714D01*
X112785000Y-82090476D01*
X112832619Y-82042857D01*
X112927857Y-81995238D01*
X113070714Y-81995238D01*
X113165952Y-82042857D01*
X113213571Y-82090476D01*
X113261190Y-82185714D01*
X113261190Y-82566666D01*
X113737380Y-81566666D02*
X112737380Y-81566666D01*
X112737380Y-80900000D02*
X112737380Y-80709523D01*
X112785000Y-80614285D01*
X112880238Y-80519047D01*
X113070714Y-80471428D01*
X113404047Y-80471428D01*
X113594523Y-80519047D01*
X113689761Y-80614285D01*
X113737380Y-80709523D01*
X113737380Y-80900000D01*
X113689761Y-80995238D01*
X113594523Y-81090476D01*
X113404047Y-81138095D01*
X113070714Y-81138095D01*
X112880238Y-81090476D01*
X112785000Y-80995238D01*
X112737380Y-80900000D01*
X113832619Y-80280952D02*
X113832619Y-79519047D01*
X112737380Y-79090476D02*
X112737380Y-78900000D01*
X112785000Y-78804761D01*
X112880238Y-78709523D01*
X113070714Y-78661904D01*
X113404047Y-78661904D01*
X113594523Y-78709523D01*
X113689761Y-78804761D01*
X113737380Y-78900000D01*
X113737380Y-79090476D01*
X113689761Y-79185714D01*
X113594523Y-79280952D01*
X113404047Y-79328571D01*
X113070714Y-79328571D01*
X112880238Y-79280952D01*
X112785000Y-79185714D01*
X112737380Y-79090476D01*
X113070714Y-77804761D02*
X113737380Y-77804761D01*
X113070714Y-78233333D02*
X113594523Y-78233333D01*
X113689761Y-78185714D01*
X113737380Y-78090476D01*
X113737380Y-77947619D01*
X113689761Y-77852380D01*
X113642142Y-77804761D01*
X113070714Y-77471428D02*
X113070714Y-77090476D01*
X112737380Y-77328571D02*
X113594523Y-77328571D01*
X113689761Y-77280952D01*
X113737380Y-77185714D01*
X113737380Y-77090476D01*
X107641666Y-79852380D02*
X107641666Y-80566666D01*
X107594047Y-80709523D01*
X107498809Y-80804761D01*
X107355952Y-80852380D01*
X107260714Y-80852380D01*
X108022619Y-79852380D02*
X108689285Y-79852380D01*
X108260714Y-80852380D01*
X108504761Y-84419761D02*
X108647619Y-84467380D01*
X108885714Y-84467380D01*
X108980952Y-84419761D01*
X109028571Y-84372142D01*
X109076190Y-84276904D01*
X109076190Y-84181666D01*
X109028571Y-84086428D01*
X108980952Y-84038809D01*
X108885714Y-83991190D01*
X108695238Y-83943571D01*
X108600000Y-83895952D01*
X108552380Y-83848333D01*
X108504761Y-83753095D01*
X108504761Y-83657857D01*
X108552380Y-83562619D01*
X108600000Y-83515000D01*
X108695238Y-83467380D01*
X108933333Y-83467380D01*
X109076190Y-83515000D01*
X109409523Y-83467380D02*
X109647619Y-84467380D01*
X109838095Y-83753095D01*
X110028571Y-84467380D01*
X110266666Y-83467380D01*
X110647619Y-84467380D02*
X110647619Y-83467380D01*
X110885714Y-83467380D01*
X111028571Y-83515000D01*
X111123809Y-83610238D01*
X111171428Y-83705476D01*
X111219047Y-83895952D01*
X111219047Y-84038809D01*
X111171428Y-84229285D01*
X111123809Y-84324523D01*
X111028571Y-84419761D01*
X110885714Y-84467380D01*
X110647619Y-84467380D01*
X111409523Y-84562619D02*
X112171428Y-84562619D01*
X112980952Y-84372142D02*
X112933333Y-84419761D01*
X112790476Y-84467380D01*
X112695238Y-84467380D01*
X112552380Y-84419761D01*
X112457142Y-84324523D01*
X112409523Y-84229285D01*
X112361904Y-84038809D01*
X112361904Y-83895952D01*
X112409523Y-83705476D01*
X112457142Y-83610238D01*
X112552380Y-83515000D01*
X112695238Y-83467380D01*
X112790476Y-83467380D01*
X112933333Y-83515000D01*
X112980952Y-83562619D01*
X113552380Y-84467380D02*
X113457142Y-84419761D01*
X113409523Y-84372142D01*
X113361904Y-84276904D01*
X113361904Y-83991190D01*
X113409523Y-83895952D01*
X113457142Y-83848333D01*
X113552380Y-83800714D01*
X113695238Y-83800714D01*
X113790476Y-83848333D01*
X113838095Y-83895952D01*
X113885714Y-83991190D01*
X113885714Y-84276904D01*
X113838095Y-84372142D01*
X113790476Y-84419761D01*
X113695238Y-84467380D01*
X113552380Y-84467380D01*
X114314285Y-83800714D02*
X114314285Y-84467380D01*
X114314285Y-83895952D02*
X114361904Y-83848333D01*
X114457142Y-83800714D01*
X114600000Y-83800714D01*
X114695238Y-83848333D01*
X114742857Y-83943571D01*
X114742857Y-84467380D01*
X115219047Y-83800714D02*
X115219047Y-84467380D01*
X115219047Y-83895952D02*
X115266666Y-83848333D01*
X115361904Y-83800714D01*
X115504761Y-83800714D01*
X115600000Y-83848333D01*
X115647619Y-83943571D01*
X115647619Y-84467380D01*
X111552380Y-89658333D02*
X112266666Y-89658333D01*
X112409523Y-89705952D01*
X112504761Y-89801190D01*
X112552380Y-89944047D01*
X112552380Y-90039285D01*
X111552380Y-88753571D02*
X111552380Y-88944047D01*
X111600000Y-89039285D01*
X111647619Y-89086904D01*
X111790476Y-89182142D01*
X111980952Y-89229761D01*
X112361904Y-89229761D01*
X112457142Y-89182142D01*
X112504761Y-89134523D01*
X112552380Y-89039285D01*
X112552380Y-88848809D01*
X112504761Y-88753571D01*
X112457142Y-88705952D01*
X112361904Y-88658333D01*
X112123809Y-88658333D01*
X112028571Y-88705952D01*
X111980952Y-88753571D01*
X111933333Y-88848809D01*
X111933333Y-89039285D01*
X111980952Y-89134523D01*
X112028571Y-89182142D01*
X112123809Y-89229761D01*
X90785714Y-96952380D02*
X90785714Y-95952380D01*
X91119047Y-96666666D01*
X91452380Y-95952380D01*
X91452380Y-96952380D01*
X91928571Y-96952380D02*
X91928571Y-96285714D01*
X91928571Y-95952380D02*
X91880952Y-96000000D01*
X91928571Y-96047619D01*
X91976190Y-96000000D01*
X91928571Y-95952380D01*
X91928571Y-96047619D01*
X92833333Y-96904761D02*
X92738095Y-96952380D01*
X92547619Y-96952380D01*
X92452380Y-96904761D01*
X92404761Y-96857142D01*
X92357142Y-96761904D01*
X92357142Y-96476190D01*
X92404761Y-96380952D01*
X92452380Y-96333333D01*
X92547619Y-96285714D01*
X92738095Y-96285714D01*
X92833333Y-96333333D01*
X93261904Y-96952380D02*
X93261904Y-96285714D01*
X93261904Y-96476190D02*
X93309523Y-96380952D01*
X93357142Y-96333333D01*
X93452380Y-96285714D01*
X93547619Y-96285714D01*
X94023809Y-96952380D02*
X93928571Y-96904761D01*
X93880952Y-96857142D01*
X93833333Y-96761904D01*
X93833333Y-96476190D01*
X93880952Y-96380952D01*
X93928571Y-96333333D01*
X94023809Y-96285714D01*
X94166666Y-96285714D01*
X94261904Y-96333333D01*
X94309523Y-96380952D01*
X94357142Y-96476190D01*
X94357142Y-96761904D01*
X94309523Y-96857142D01*
X94261904Y-96904761D01*
X94166666Y-96952380D01*
X94023809Y-96952380D01*
X94547619Y-97047619D02*
X95309523Y-97047619D01*
X95500000Y-96904761D02*
X95642857Y-96952380D01*
X95880952Y-96952380D01*
X95976190Y-96904761D01*
X96023809Y-96857142D01*
X96071428Y-96761904D01*
X96071428Y-96666666D01*
X96023809Y-96571428D01*
X95976190Y-96523809D01*
X95880952Y-96476190D01*
X95690476Y-96428571D01*
X95595238Y-96380952D01*
X95547619Y-96333333D01*
X95500000Y-96238095D01*
X95500000Y-96142857D01*
X95547619Y-96047619D01*
X95595238Y-96000000D01*
X95690476Y-95952380D01*
X95928571Y-95952380D01*
X96071428Y-96000000D01*
X96500000Y-96952380D02*
X96500000Y-95952380D01*
X96738095Y-95952380D01*
X96880952Y-96000000D01*
X96976190Y-96095238D01*
X97023809Y-96190476D01*
X97071428Y-96380952D01*
X97071428Y-96523809D01*
X97023809Y-96714285D01*
X96976190Y-96809523D01*
X96880952Y-96904761D01*
X96738095Y-96952380D01*
X96500000Y-96952380D01*
X97261904Y-97047619D02*
X98023809Y-97047619D01*
X98833333Y-96857142D02*
X98785714Y-96904761D01*
X98642857Y-96952380D01*
X98547619Y-96952380D01*
X98404761Y-96904761D01*
X98309523Y-96809523D01*
X98261904Y-96714285D01*
X98214285Y-96523809D01*
X98214285Y-96380952D01*
X98261904Y-96190476D01*
X98309523Y-96095238D01*
X98404761Y-96000000D01*
X98547619Y-95952380D01*
X98642857Y-95952380D01*
X98785714Y-96000000D01*
X98833333Y-96047619D01*
X99690476Y-96952380D02*
X99690476Y-96428571D01*
X99642857Y-96333333D01*
X99547619Y-96285714D01*
X99357142Y-96285714D01*
X99261904Y-96333333D01*
X99690476Y-96904761D02*
X99595238Y-96952380D01*
X99357142Y-96952380D01*
X99261904Y-96904761D01*
X99214285Y-96809523D01*
X99214285Y-96714285D01*
X99261904Y-96619047D01*
X99357142Y-96571428D01*
X99595238Y-96571428D01*
X99690476Y-96523809D01*
X100166666Y-96952380D02*
X100166666Y-96285714D01*
X100166666Y-96476190D02*
X100214285Y-96380952D01*
X100261904Y-96333333D01*
X100357142Y-96285714D01*
X100452380Y-96285714D01*
X101214285Y-96952380D02*
X101214285Y-95952380D01*
X101214285Y-96904761D02*
X101119047Y-96952380D01*
X100928571Y-96952380D01*
X100833333Y-96904761D01*
X100785714Y-96857142D01*
X100738095Y-96761904D01*
X100738095Y-96476190D01*
X100785714Y-96380952D01*
X100833333Y-96333333D01*
X100928571Y-96285714D01*
X101119047Y-96285714D01*
X101214285Y-96333333D01*
X85602380Y-108142857D02*
X85602380Y-108619047D01*
X84602380Y-108619047D01*
X85078571Y-107809523D02*
X85078571Y-107476190D01*
X85602380Y-107333333D02*
X85602380Y-107809523D01*
X84602380Y-107809523D01*
X84602380Y-107333333D01*
X85602380Y-106904761D02*
X84602380Y-106904761D01*
X84602380Y-106666666D01*
X84650000Y-106523809D01*
X84745238Y-106428571D01*
X84840476Y-106380952D01*
X85030952Y-106333333D01*
X85173809Y-106333333D01*
X85364285Y-106380952D01*
X85459523Y-106428571D01*
X85554761Y-106523809D01*
X85602380Y-106666666D01*
X85602380Y-106904761D01*
D14*
X83726190Y-107869047D02*
X83226190Y-107869047D01*
X83226190Y-107750000D01*
X83250000Y-107678571D01*
X83297619Y-107630952D01*
X83345238Y-107607142D01*
X83440476Y-107583333D01*
X83511904Y-107583333D01*
X83607142Y-107607142D01*
X83654761Y-107630952D01*
X83702380Y-107678571D01*
X83726190Y-107750000D01*
X83726190Y-107869047D01*
X83392857Y-107154761D02*
X83726190Y-107154761D01*
X83202380Y-107273809D02*
X83559523Y-107392857D01*
X83559523Y-107083333D01*
D12*
X92102380Y-108142857D02*
X92102380Y-108619047D01*
X91102380Y-108619047D01*
X91578571Y-107809523D02*
X91578571Y-107476190D01*
X92102380Y-107333333D02*
X92102380Y-107809523D01*
X91102380Y-107809523D01*
X91102380Y-107333333D01*
X92102380Y-106904761D02*
X91102380Y-106904761D01*
X91102380Y-106666666D01*
X91150000Y-106523809D01*
X91245238Y-106428571D01*
X91340476Y-106380952D01*
X91530952Y-106333333D01*
X91673809Y-106333333D01*
X91864285Y-106380952D01*
X91959523Y-106428571D01*
X92054761Y-106523809D01*
X92102380Y-106666666D01*
X92102380Y-106904761D01*
D14*
X90226190Y-107869047D02*
X89726190Y-107869047D01*
X89726190Y-107750000D01*
X89750000Y-107678571D01*
X89797619Y-107630952D01*
X89845238Y-107607142D01*
X89940476Y-107583333D01*
X90011904Y-107583333D01*
X90107142Y-107607142D01*
X90154761Y-107630952D01*
X90202380Y-107678571D01*
X90226190Y-107750000D01*
X90226190Y-107869047D01*
X89726190Y-107416666D02*
X89726190Y-107107142D01*
X89916666Y-107273809D01*
X89916666Y-107202380D01*
X89940476Y-107154761D01*
X89964285Y-107130952D01*
X90011904Y-107107142D01*
X90130952Y-107107142D01*
X90178571Y-107130952D01*
X90202380Y-107154761D01*
X90226190Y-107202380D01*
X90226190Y-107345238D01*
X90202380Y-107392857D01*
X90178571Y-107416666D01*
D12*
X94602380Y-108142857D02*
X94602380Y-108619047D01*
X93602380Y-108619047D01*
X94078571Y-107809523D02*
X94078571Y-107476190D01*
X94602380Y-107333333D02*
X94602380Y-107809523D01*
X93602380Y-107809523D01*
X93602380Y-107333333D01*
X94602380Y-106904761D02*
X93602380Y-106904761D01*
X93602380Y-106666666D01*
X93650000Y-106523809D01*
X93745238Y-106428571D01*
X93840476Y-106380952D01*
X94030952Y-106333333D01*
X94173809Y-106333333D01*
X94364285Y-106380952D01*
X94459523Y-106428571D01*
X94554761Y-106523809D01*
X94602380Y-106666666D01*
X94602380Y-106904761D01*
D14*
X92726190Y-107869047D02*
X92226190Y-107869047D01*
X92226190Y-107750000D01*
X92250000Y-107678571D01*
X92297619Y-107630952D01*
X92345238Y-107607142D01*
X92440476Y-107583333D01*
X92511904Y-107583333D01*
X92607142Y-107607142D01*
X92654761Y-107630952D01*
X92702380Y-107678571D01*
X92726190Y-107750000D01*
X92726190Y-107869047D01*
X92273809Y-107392857D02*
X92250000Y-107369047D01*
X92226190Y-107321428D01*
X92226190Y-107202380D01*
X92250000Y-107154761D01*
X92273809Y-107130952D01*
X92321428Y-107107142D01*
X92369047Y-107107142D01*
X92440476Y-107130952D01*
X92726190Y-107416666D01*
X92726190Y-107107142D01*
D12*
X142022380Y-86047619D02*
X142022380Y-86619047D01*
X142022380Y-86333333D02*
X141022380Y-86333333D01*
X141165238Y-86428571D01*
X141260476Y-86523809D01*
X141308095Y-86619047D01*
X141022380Y-85428571D02*
X141022380Y-85333333D01*
X141070000Y-85238095D01*
X141117619Y-85190476D01*
X141212857Y-85142857D01*
X141403333Y-85095238D01*
X141641428Y-85095238D01*
X141831904Y-85142857D01*
X141927142Y-85190476D01*
X141974761Y-85238095D01*
X142022380Y-85333333D01*
X142022380Y-85428571D01*
X141974761Y-85523809D01*
X141927142Y-85571428D01*
X141831904Y-85619047D01*
X141641428Y-85666666D01*
X141403333Y-85666666D01*
X141212857Y-85619047D01*
X141117619Y-85571428D01*
X141070000Y-85523809D01*
X141022380Y-85428571D01*
X141022380Y-84476190D02*
X141022380Y-84380952D01*
X141070000Y-84285714D01*
X141117619Y-84238095D01*
X141212857Y-84190476D01*
X141403333Y-84142857D01*
X141641428Y-84142857D01*
X141831904Y-84190476D01*
X141927142Y-84238095D01*
X141974761Y-84285714D01*
X142022380Y-84380952D01*
X142022380Y-84476190D01*
X141974761Y-84571428D01*
X141927142Y-84619047D01*
X141831904Y-84666666D01*
X141641428Y-84714285D01*
X141403333Y-84714285D01*
X141212857Y-84666666D01*
X141117619Y-84619047D01*
X141070000Y-84571428D01*
X141022380Y-84476190D01*
X141355714Y-83714285D02*
X142022380Y-83714285D01*
X141450952Y-83714285D02*
X141403333Y-83666666D01*
X141355714Y-83571428D01*
X141355714Y-83428571D01*
X141403333Y-83333333D01*
X141498571Y-83285714D01*
X142022380Y-83285714D01*
X141498571Y-82476190D02*
X141498571Y-82809523D01*
X142022380Y-82809523D02*
X141022380Y-82809523D01*
X141022380Y-82333333D01*
D13*
X143142857Y-84757142D02*
X143161904Y-84776190D01*
X143180952Y-84833333D01*
X143180952Y-84871428D01*
X143161904Y-84928571D01*
X143123809Y-84966666D01*
X143085714Y-84985714D01*
X143009523Y-85004761D01*
X142952380Y-85004761D01*
X142876190Y-84985714D01*
X142838095Y-84966666D01*
X142800000Y-84928571D01*
X142780952Y-84871428D01*
X142780952Y-84833333D01*
X142800000Y-84776190D01*
X142819047Y-84757142D01*
X143180952Y-84376190D02*
X143180952Y-84604761D01*
X143180952Y-84490476D02*
X142780952Y-84490476D01*
X142838095Y-84528571D01*
X142876190Y-84566666D01*
X142895238Y-84604761D01*
X143180952Y-84185714D02*
X143180952Y-84109523D01*
X143161904Y-84071428D01*
X143142857Y-84052380D01*
X143085714Y-84014285D01*
X143009523Y-83995238D01*
X142857142Y-83995238D01*
X142819047Y-84014285D01*
X142800000Y-84033333D01*
X142780952Y-84071428D01*
X142780952Y-84147619D01*
X142800000Y-84185714D01*
X142819047Y-84204761D01*
X142857142Y-84223809D01*
X142952380Y-84223809D01*
X142990476Y-84204761D01*
X143009523Y-84185714D01*
X143028571Y-84147619D01*
X143028571Y-84071428D01*
X143009523Y-84033333D01*
X142990476Y-84014285D01*
X142952380Y-83995238D01*
D12*
X142222380Y-96247619D02*
X142222380Y-96819047D01*
X142222380Y-96533333D02*
X141222380Y-96533333D01*
X141365238Y-96628571D01*
X141460476Y-96723809D01*
X141508095Y-96819047D01*
X141222380Y-95628571D02*
X141222380Y-95533333D01*
X141270000Y-95438095D01*
X141317619Y-95390476D01*
X141412857Y-95342857D01*
X141603333Y-95295238D01*
X141841428Y-95295238D01*
X142031904Y-95342857D01*
X142127142Y-95390476D01*
X142174761Y-95438095D01*
X142222380Y-95533333D01*
X142222380Y-95628571D01*
X142174761Y-95723809D01*
X142127142Y-95771428D01*
X142031904Y-95819047D01*
X141841428Y-95866666D01*
X141603333Y-95866666D01*
X141412857Y-95819047D01*
X141317619Y-95771428D01*
X141270000Y-95723809D01*
X141222380Y-95628571D01*
X141222380Y-94676190D02*
X141222380Y-94580952D01*
X141270000Y-94485714D01*
X141317619Y-94438095D01*
X141412857Y-94390476D01*
X141603333Y-94342857D01*
X141841428Y-94342857D01*
X142031904Y-94390476D01*
X142127142Y-94438095D01*
X142174761Y-94485714D01*
X142222380Y-94580952D01*
X142222380Y-94676190D01*
X142174761Y-94771428D01*
X142127142Y-94819047D01*
X142031904Y-94866666D01*
X141841428Y-94914285D01*
X141603333Y-94914285D01*
X141412857Y-94866666D01*
X141317619Y-94819047D01*
X141270000Y-94771428D01*
X141222380Y-94676190D01*
X141555714Y-93914285D02*
X142222380Y-93914285D01*
X141650952Y-93914285D02*
X141603333Y-93866666D01*
X141555714Y-93771428D01*
X141555714Y-93628571D01*
X141603333Y-93533333D01*
X141698571Y-93485714D01*
X142222380Y-93485714D01*
X141698571Y-92676190D02*
X141698571Y-93009523D01*
X142222380Y-93009523D02*
X141222380Y-93009523D01*
X141222380Y-92533333D01*
D13*
X143342857Y-94957142D02*
X143361904Y-94976190D01*
X143380952Y-95033333D01*
X143380952Y-95071428D01*
X143361904Y-95128571D01*
X143323809Y-95166666D01*
X143285714Y-95185714D01*
X143209523Y-95204761D01*
X143152380Y-95204761D01*
X143076190Y-95185714D01*
X143038095Y-95166666D01*
X143000000Y-95128571D01*
X142980952Y-95071428D01*
X142980952Y-95033333D01*
X143000000Y-94976190D01*
X143019047Y-94957142D01*
X143380952Y-94576190D02*
X143380952Y-94804761D01*
X143380952Y-94690476D02*
X142980952Y-94690476D01*
X143038095Y-94728571D01*
X143076190Y-94766666D01*
X143095238Y-94804761D01*
X143152380Y-94347619D02*
X143133333Y-94385714D01*
X143114285Y-94404761D01*
X143076190Y-94423809D01*
X143057142Y-94423809D01*
X143019047Y-94404761D01*
X143000000Y-94385714D01*
X142980952Y-94347619D01*
X142980952Y-94271428D01*
X143000000Y-94233333D01*
X143019047Y-94214285D01*
X143057142Y-94195238D01*
X143076190Y-94195238D01*
X143114285Y-94214285D01*
X143133333Y-94233333D01*
X143152380Y-94271428D01*
X143152380Y-94347619D01*
X143171428Y-94385714D01*
X143190476Y-94404761D01*
X143228571Y-94423809D01*
X143304761Y-94423809D01*
X143342857Y-94404761D01*
X143361904Y-94385714D01*
X143380952Y-94347619D01*
X143380952Y-94271428D01*
X143361904Y-94233333D01*
X143342857Y-94214285D01*
X143304761Y-94195238D01*
X143228571Y-94195238D01*
X143190476Y-94214285D01*
X143171428Y-94233333D01*
X143152380Y-94271428D01*
D12*
X152622380Y-79471428D02*
X152622380Y-80042857D01*
X152622380Y-79757142D02*
X151622380Y-79757142D01*
X151765238Y-79852380D01*
X151860476Y-79947619D01*
X151908095Y-80042857D01*
X151622380Y-78852380D02*
X151622380Y-78757142D01*
X151670000Y-78661904D01*
X151717619Y-78614285D01*
X151812857Y-78566666D01*
X152003333Y-78519047D01*
X152241428Y-78519047D01*
X152431904Y-78566666D01*
X152527142Y-78614285D01*
X152574761Y-78661904D01*
X152622380Y-78757142D01*
X152622380Y-78852380D01*
X152574761Y-78947619D01*
X152527142Y-78995238D01*
X152431904Y-79042857D01*
X152241428Y-79090476D01*
X152003333Y-79090476D01*
X151812857Y-79042857D01*
X151717619Y-78995238D01*
X151670000Y-78947619D01*
X151622380Y-78852380D01*
X151955714Y-78090476D02*
X152622380Y-78090476D01*
X152050952Y-78090476D02*
X152003333Y-78042857D01*
X151955714Y-77947619D01*
X151955714Y-77804761D01*
X152003333Y-77709523D01*
X152098571Y-77661904D01*
X152622380Y-77661904D01*
X152098571Y-76852380D02*
X152098571Y-77185714D01*
X152622380Y-77185714D02*
X151622380Y-77185714D01*
X151622380Y-76709523D01*
D13*
X153742857Y-78657142D02*
X153761904Y-78676190D01*
X153780952Y-78733333D01*
X153780952Y-78771428D01*
X153761904Y-78828571D01*
X153723809Y-78866666D01*
X153685714Y-78885714D01*
X153609523Y-78904761D01*
X153552380Y-78904761D01*
X153476190Y-78885714D01*
X153438095Y-78866666D01*
X153400000Y-78828571D01*
X153380952Y-78771428D01*
X153380952Y-78733333D01*
X153400000Y-78676190D01*
X153419047Y-78657142D01*
X153780952Y-78276190D02*
X153780952Y-78504761D01*
X153780952Y-78390476D02*
X153380952Y-78390476D01*
X153438095Y-78428571D01*
X153476190Y-78466666D01*
X153495238Y-78504761D01*
X153380952Y-78142857D02*
X153380952Y-77876190D01*
X153780952Y-78047619D01*
D12*
X134352380Y-100982380D02*
X133780952Y-100982380D01*
X134066666Y-100982380D02*
X134066666Y-99982380D01*
X133971428Y-100125238D01*
X133876190Y-100220476D01*
X133780952Y-100268095D01*
X134971428Y-99982380D02*
X135066666Y-99982380D01*
X135161904Y-100030000D01*
X135209523Y-100077619D01*
X135257142Y-100172857D01*
X135304761Y-100363333D01*
X135304761Y-100601428D01*
X135257142Y-100791904D01*
X135209523Y-100887142D01*
X135161904Y-100934761D01*
X135066666Y-100982380D01*
X134971428Y-100982380D01*
X134876190Y-100934761D01*
X134828571Y-100887142D01*
X134780952Y-100791904D01*
X134733333Y-100601428D01*
X134733333Y-100363333D01*
X134780952Y-100172857D01*
X134828571Y-100077619D01*
X134876190Y-100030000D01*
X134971428Y-99982380D01*
X135923809Y-99982380D02*
X136019047Y-99982380D01*
X136114285Y-100030000D01*
X136161904Y-100077619D01*
X136209523Y-100172857D01*
X136257142Y-100363333D01*
X136257142Y-100601428D01*
X136209523Y-100791904D01*
X136161904Y-100887142D01*
X136114285Y-100934761D01*
X136019047Y-100982380D01*
X135923809Y-100982380D01*
X135828571Y-100934761D01*
X135780952Y-100887142D01*
X135733333Y-100791904D01*
X135685714Y-100601428D01*
X135685714Y-100363333D01*
X135733333Y-100172857D01*
X135780952Y-100077619D01*
X135828571Y-100030000D01*
X135923809Y-99982380D01*
X136685714Y-100315714D02*
X136685714Y-100982380D01*
X136685714Y-100410952D02*
X136733333Y-100363333D01*
X136828571Y-100315714D01*
X136971428Y-100315714D01*
X137066666Y-100363333D01*
X137114285Y-100458571D01*
X137114285Y-100982380D01*
X137923809Y-100458571D02*
X137590476Y-100458571D01*
X137590476Y-100982380D02*
X137590476Y-99982380D01*
X138066666Y-99982380D01*
D13*
X135642857Y-99242857D02*
X135623809Y-99261904D01*
X135566666Y-99280952D01*
X135528571Y-99280952D01*
X135471428Y-99261904D01*
X135433333Y-99223809D01*
X135414285Y-99185714D01*
X135395238Y-99109523D01*
X135395238Y-99052380D01*
X135414285Y-98976190D01*
X135433333Y-98938095D01*
X135471428Y-98900000D01*
X135528571Y-98880952D01*
X135566666Y-98880952D01*
X135623809Y-98900000D01*
X135642857Y-98919047D01*
X136023809Y-99280952D02*
X135795238Y-99280952D01*
X135909523Y-99280952D02*
X135909523Y-98880952D01*
X135871428Y-98938095D01*
X135833333Y-98976190D01*
X135795238Y-98995238D01*
X136366666Y-98880952D02*
X136290476Y-98880952D01*
X136252380Y-98900000D01*
X136233333Y-98919047D01*
X136195238Y-98976190D01*
X136176190Y-99052380D01*
X136176190Y-99204761D01*
X136195238Y-99242857D01*
X136214285Y-99261904D01*
X136252380Y-99280952D01*
X136328571Y-99280952D01*
X136366666Y-99261904D01*
X136385714Y-99242857D01*
X136404761Y-99204761D01*
X136404761Y-99109523D01*
X136385714Y-99071428D01*
X136366666Y-99052380D01*
X136328571Y-99033333D01*
X136252380Y-99033333D01*
X136214285Y-99052380D01*
X136195238Y-99071428D01*
X136176190Y-99109523D01*
D12*
X88028571Y-97582380D02*
X87457142Y-97582380D01*
X87742857Y-97582380D02*
X87742857Y-96582380D01*
X87647619Y-96725238D01*
X87552380Y-96820476D01*
X87457142Y-96868095D01*
X88647619Y-96582380D02*
X88742857Y-96582380D01*
X88838095Y-96630000D01*
X88885714Y-96677619D01*
X88933333Y-96772857D01*
X88980952Y-96963333D01*
X88980952Y-97201428D01*
X88933333Y-97391904D01*
X88885714Y-97487142D01*
X88838095Y-97534761D01*
X88742857Y-97582380D01*
X88647619Y-97582380D01*
X88552380Y-97534761D01*
X88504761Y-97487142D01*
X88457142Y-97391904D01*
X88409523Y-97201428D01*
X88409523Y-96963333D01*
X88457142Y-96772857D01*
X88504761Y-96677619D01*
X88552380Y-96630000D01*
X88647619Y-96582380D01*
X89409523Y-96915714D02*
X89409523Y-97582380D01*
X89409523Y-97010952D02*
X89457142Y-96963333D01*
X89552380Y-96915714D01*
X89695238Y-96915714D01*
X89790476Y-96963333D01*
X89838095Y-97058571D01*
X89838095Y-97582380D01*
X90647619Y-97058571D02*
X90314285Y-97058571D01*
X90314285Y-97582380D02*
X90314285Y-96582380D01*
X90790476Y-96582380D01*
D13*
X88842857Y-95842857D02*
X88823809Y-95861904D01*
X88766666Y-95880952D01*
X88728571Y-95880952D01*
X88671428Y-95861904D01*
X88633333Y-95823809D01*
X88614285Y-95785714D01*
X88595238Y-95709523D01*
X88595238Y-95652380D01*
X88614285Y-95576190D01*
X88633333Y-95538095D01*
X88671428Y-95500000D01*
X88728571Y-95480952D01*
X88766666Y-95480952D01*
X88823809Y-95500000D01*
X88842857Y-95519047D01*
X89223809Y-95880952D02*
X88995238Y-95880952D01*
X89109523Y-95880952D02*
X89109523Y-95480952D01*
X89071428Y-95538095D01*
X89033333Y-95576190D01*
X88995238Y-95595238D01*
X89585714Y-95480952D02*
X89395238Y-95480952D01*
X89376190Y-95671428D01*
X89395238Y-95652380D01*
X89433333Y-95633333D01*
X89528571Y-95633333D01*
X89566666Y-95652380D01*
X89585714Y-95671428D01*
X89604761Y-95709523D01*
X89604761Y-95804761D01*
X89585714Y-95842857D01*
X89566666Y-95861904D01*
X89528571Y-95880952D01*
X89433333Y-95880952D01*
X89395238Y-95861904D01*
X89376190Y-95842857D01*
D12*
X88028571Y-99282380D02*
X87457142Y-99282380D01*
X87742857Y-99282380D02*
X87742857Y-98282380D01*
X87647619Y-98425238D01*
X87552380Y-98520476D01*
X87457142Y-98568095D01*
X88647619Y-98282380D02*
X88742857Y-98282380D01*
X88838095Y-98330000D01*
X88885714Y-98377619D01*
X88933333Y-98472857D01*
X88980952Y-98663333D01*
X88980952Y-98901428D01*
X88933333Y-99091904D01*
X88885714Y-99187142D01*
X88838095Y-99234761D01*
X88742857Y-99282380D01*
X88647619Y-99282380D01*
X88552380Y-99234761D01*
X88504761Y-99187142D01*
X88457142Y-99091904D01*
X88409523Y-98901428D01*
X88409523Y-98663333D01*
X88457142Y-98472857D01*
X88504761Y-98377619D01*
X88552380Y-98330000D01*
X88647619Y-98282380D01*
X89409523Y-98615714D02*
X89409523Y-99282380D01*
X89409523Y-98710952D02*
X89457142Y-98663333D01*
X89552380Y-98615714D01*
X89695238Y-98615714D01*
X89790476Y-98663333D01*
X89838095Y-98758571D01*
X89838095Y-99282380D01*
X90647619Y-98758571D02*
X90314285Y-98758571D01*
X90314285Y-99282380D02*
X90314285Y-98282380D01*
X90790476Y-98282380D01*
D13*
X88842857Y-97542857D02*
X88823809Y-97561904D01*
X88766666Y-97580952D01*
X88728571Y-97580952D01*
X88671428Y-97561904D01*
X88633333Y-97523809D01*
X88614285Y-97485714D01*
X88595238Y-97409523D01*
X88595238Y-97352380D01*
X88614285Y-97276190D01*
X88633333Y-97238095D01*
X88671428Y-97200000D01*
X88728571Y-97180952D01*
X88766666Y-97180952D01*
X88823809Y-97200000D01*
X88842857Y-97219047D01*
X89223809Y-97580952D02*
X88995238Y-97580952D01*
X89109523Y-97580952D02*
X89109523Y-97180952D01*
X89071428Y-97238095D01*
X89033333Y-97276190D01*
X88995238Y-97295238D01*
X89566666Y-97314285D02*
X89566666Y-97580952D01*
X89471428Y-97161904D02*
X89376190Y-97447619D01*
X89623809Y-97447619D01*
D12*
X120982380Y-88847619D02*
X120982380Y-89419047D01*
X120982380Y-89133333D02*
X119982380Y-89133333D01*
X120125238Y-89228571D01*
X120220476Y-89323809D01*
X120268095Y-89419047D01*
X119982380Y-88228571D02*
X119982380Y-88133333D01*
X120030000Y-88038095D01*
X120077619Y-87990476D01*
X120172857Y-87942857D01*
X120363333Y-87895238D01*
X120601428Y-87895238D01*
X120791904Y-87942857D01*
X120887142Y-87990476D01*
X120934761Y-88038095D01*
X120982380Y-88133333D01*
X120982380Y-88228571D01*
X120934761Y-88323809D01*
X120887142Y-88371428D01*
X120791904Y-88419047D01*
X120601428Y-88466666D01*
X120363333Y-88466666D01*
X120172857Y-88419047D01*
X120077619Y-88371428D01*
X120030000Y-88323809D01*
X119982380Y-88228571D01*
X119982380Y-87276190D02*
X119982380Y-87180952D01*
X120030000Y-87085714D01*
X120077619Y-87038095D01*
X120172857Y-86990476D01*
X120363333Y-86942857D01*
X120601428Y-86942857D01*
X120791904Y-86990476D01*
X120887142Y-87038095D01*
X120934761Y-87085714D01*
X120982380Y-87180952D01*
X120982380Y-87276190D01*
X120934761Y-87371428D01*
X120887142Y-87419047D01*
X120791904Y-87466666D01*
X120601428Y-87514285D01*
X120363333Y-87514285D01*
X120172857Y-87466666D01*
X120077619Y-87419047D01*
X120030000Y-87371428D01*
X119982380Y-87276190D01*
X120315714Y-86514285D02*
X120982380Y-86514285D01*
X120410952Y-86514285D02*
X120363333Y-86466666D01*
X120315714Y-86371428D01*
X120315714Y-86228571D01*
X120363333Y-86133333D01*
X120458571Y-86085714D01*
X120982380Y-86085714D01*
X120458571Y-85276190D02*
X120458571Y-85609523D01*
X120982380Y-85609523D02*
X119982380Y-85609523D01*
X119982380Y-85133333D01*
D13*
X119242857Y-87557142D02*
X119261904Y-87576190D01*
X119280952Y-87633333D01*
X119280952Y-87671428D01*
X119261904Y-87728571D01*
X119223809Y-87766666D01*
X119185714Y-87785714D01*
X119109523Y-87804761D01*
X119052380Y-87804761D01*
X118976190Y-87785714D01*
X118938095Y-87766666D01*
X118900000Y-87728571D01*
X118880952Y-87671428D01*
X118880952Y-87633333D01*
X118900000Y-87576190D01*
X118919047Y-87557142D01*
X119280952Y-87176190D02*
X119280952Y-87404761D01*
X119280952Y-87290476D02*
X118880952Y-87290476D01*
X118938095Y-87328571D01*
X118976190Y-87366666D01*
X118995238Y-87404761D01*
X118880952Y-87042857D02*
X118880952Y-86795238D01*
X119033333Y-86928571D01*
X119033333Y-86871428D01*
X119052380Y-86833333D01*
X119071428Y-86814285D01*
X119109523Y-86795238D01*
X119204761Y-86795238D01*
X119242857Y-86814285D01*
X119261904Y-86833333D01*
X119280952Y-86871428D01*
X119280952Y-86985714D01*
X119261904Y-87023809D01*
X119242857Y-87042857D01*
D12*
X116682380Y-82247619D02*
X116682380Y-82819047D01*
X116682380Y-82533333D02*
X115682380Y-82533333D01*
X115825238Y-82628571D01*
X115920476Y-82723809D01*
X115968095Y-82819047D01*
X115682380Y-81628571D02*
X115682380Y-81533333D01*
X115730000Y-81438095D01*
X115777619Y-81390476D01*
X115872857Y-81342857D01*
X116063333Y-81295238D01*
X116301428Y-81295238D01*
X116491904Y-81342857D01*
X116587142Y-81390476D01*
X116634761Y-81438095D01*
X116682380Y-81533333D01*
X116682380Y-81628571D01*
X116634761Y-81723809D01*
X116587142Y-81771428D01*
X116491904Y-81819047D01*
X116301428Y-81866666D01*
X116063333Y-81866666D01*
X115872857Y-81819047D01*
X115777619Y-81771428D01*
X115730000Y-81723809D01*
X115682380Y-81628571D01*
X115682380Y-80676190D02*
X115682380Y-80580952D01*
X115730000Y-80485714D01*
X115777619Y-80438095D01*
X115872857Y-80390476D01*
X116063333Y-80342857D01*
X116301428Y-80342857D01*
X116491904Y-80390476D01*
X116587142Y-80438095D01*
X116634761Y-80485714D01*
X116682380Y-80580952D01*
X116682380Y-80676190D01*
X116634761Y-80771428D01*
X116587142Y-80819047D01*
X116491904Y-80866666D01*
X116301428Y-80914285D01*
X116063333Y-80914285D01*
X115872857Y-80866666D01*
X115777619Y-80819047D01*
X115730000Y-80771428D01*
X115682380Y-80676190D01*
X116015714Y-79914285D02*
X116682380Y-79914285D01*
X116110952Y-79914285D02*
X116063333Y-79866666D01*
X116015714Y-79771428D01*
X116015714Y-79628571D01*
X116063333Y-79533333D01*
X116158571Y-79485714D01*
X116682380Y-79485714D01*
X116158571Y-78676190D02*
X116158571Y-79009523D01*
X116682380Y-79009523D02*
X115682380Y-79009523D01*
X115682380Y-78533333D01*
D13*
X114942857Y-80957142D02*
X114961904Y-80976190D01*
X114980952Y-81033333D01*
X114980952Y-81071428D01*
X114961904Y-81128571D01*
X114923809Y-81166666D01*
X114885714Y-81185714D01*
X114809523Y-81204761D01*
X114752380Y-81204761D01*
X114676190Y-81185714D01*
X114638095Y-81166666D01*
X114600000Y-81128571D01*
X114580952Y-81071428D01*
X114580952Y-81033333D01*
X114600000Y-80976190D01*
X114619047Y-80957142D01*
X114980952Y-80576190D02*
X114980952Y-80804761D01*
X114980952Y-80690476D02*
X114580952Y-80690476D01*
X114638095Y-80728571D01*
X114676190Y-80766666D01*
X114695238Y-80804761D01*
X114619047Y-80423809D02*
X114600000Y-80404761D01*
X114580952Y-80366666D01*
X114580952Y-80271428D01*
X114600000Y-80233333D01*
X114619047Y-80214285D01*
X114657142Y-80195238D01*
X114695238Y-80195238D01*
X114752380Y-80214285D01*
X114980952Y-80442857D01*
X114980952Y-80195238D01*
D12*
X116522380Y-95347619D02*
X116522380Y-95919047D01*
X116522380Y-95633333D02*
X115522380Y-95633333D01*
X115665238Y-95728571D01*
X115760476Y-95823809D01*
X115808095Y-95919047D01*
X115522380Y-94728571D02*
X115522380Y-94633333D01*
X115570000Y-94538095D01*
X115617619Y-94490476D01*
X115712857Y-94442857D01*
X115903333Y-94395238D01*
X116141428Y-94395238D01*
X116331904Y-94442857D01*
X116427142Y-94490476D01*
X116474761Y-94538095D01*
X116522380Y-94633333D01*
X116522380Y-94728571D01*
X116474761Y-94823809D01*
X116427142Y-94871428D01*
X116331904Y-94919047D01*
X116141428Y-94966666D01*
X115903333Y-94966666D01*
X115712857Y-94919047D01*
X115617619Y-94871428D01*
X115570000Y-94823809D01*
X115522380Y-94728571D01*
X115522380Y-93776190D02*
X115522380Y-93680952D01*
X115570000Y-93585714D01*
X115617619Y-93538095D01*
X115712857Y-93490476D01*
X115903333Y-93442857D01*
X116141428Y-93442857D01*
X116331904Y-93490476D01*
X116427142Y-93538095D01*
X116474761Y-93585714D01*
X116522380Y-93680952D01*
X116522380Y-93776190D01*
X116474761Y-93871428D01*
X116427142Y-93919047D01*
X116331904Y-93966666D01*
X116141428Y-94014285D01*
X115903333Y-94014285D01*
X115712857Y-93966666D01*
X115617619Y-93919047D01*
X115570000Y-93871428D01*
X115522380Y-93776190D01*
X115855714Y-93014285D02*
X116522380Y-93014285D01*
X115950952Y-93014285D02*
X115903333Y-92966666D01*
X115855714Y-92871428D01*
X115855714Y-92728571D01*
X115903333Y-92633333D01*
X115998571Y-92585714D01*
X116522380Y-92585714D01*
X115998571Y-91776190D02*
X115998571Y-92109523D01*
X116522380Y-92109523D02*
X115522380Y-92109523D01*
X115522380Y-91633333D01*
D13*
X117642857Y-94057142D02*
X117661904Y-94076190D01*
X117680952Y-94133333D01*
X117680952Y-94171428D01*
X117661904Y-94228571D01*
X117623809Y-94266666D01*
X117585714Y-94285714D01*
X117509523Y-94304761D01*
X117452380Y-94304761D01*
X117376190Y-94285714D01*
X117338095Y-94266666D01*
X117300000Y-94228571D01*
X117280952Y-94171428D01*
X117280952Y-94133333D01*
X117300000Y-94076190D01*
X117319047Y-94057142D01*
X117680952Y-93676190D02*
X117680952Y-93904761D01*
X117680952Y-93790476D02*
X117280952Y-93790476D01*
X117338095Y-93828571D01*
X117376190Y-93866666D01*
X117395238Y-93904761D01*
X117680952Y-93295238D02*
X117680952Y-93523809D01*
X117680952Y-93409523D02*
X117280952Y-93409523D01*
X117338095Y-93447619D01*
X117376190Y-93485714D01*
X117395238Y-93523809D01*
D12*
X135252380Y-85282380D02*
X134680952Y-85282380D01*
X134966666Y-85282380D02*
X134966666Y-84282380D01*
X134871428Y-84425238D01*
X134776190Y-84520476D01*
X134680952Y-84568095D01*
X135871428Y-84282380D02*
X135966666Y-84282380D01*
X136061904Y-84330000D01*
X136109523Y-84377619D01*
X136157142Y-84472857D01*
X136204761Y-84663333D01*
X136204761Y-84901428D01*
X136157142Y-85091904D01*
X136109523Y-85187142D01*
X136061904Y-85234761D01*
X135966666Y-85282380D01*
X135871428Y-85282380D01*
X135776190Y-85234761D01*
X135728571Y-85187142D01*
X135680952Y-85091904D01*
X135633333Y-84901428D01*
X135633333Y-84663333D01*
X135680952Y-84472857D01*
X135728571Y-84377619D01*
X135776190Y-84330000D01*
X135871428Y-84282380D01*
X136823809Y-84282380D02*
X136919047Y-84282380D01*
X137014285Y-84330000D01*
X137061904Y-84377619D01*
X137109523Y-84472857D01*
X137157142Y-84663333D01*
X137157142Y-84901428D01*
X137109523Y-85091904D01*
X137061904Y-85187142D01*
X137014285Y-85234761D01*
X136919047Y-85282380D01*
X136823809Y-85282380D01*
X136728571Y-85234761D01*
X136680952Y-85187142D01*
X136633333Y-85091904D01*
X136585714Y-84901428D01*
X136585714Y-84663333D01*
X136633333Y-84472857D01*
X136680952Y-84377619D01*
X136728571Y-84330000D01*
X136823809Y-84282380D01*
X137585714Y-84615714D02*
X137585714Y-85282380D01*
X137585714Y-84710952D02*
X137633333Y-84663333D01*
X137728571Y-84615714D01*
X137871428Y-84615714D01*
X137966666Y-84663333D01*
X138014285Y-84758571D01*
X138014285Y-85282380D01*
X138823809Y-84758571D02*
X138490476Y-84758571D01*
X138490476Y-85282380D02*
X138490476Y-84282380D01*
X138966666Y-84282380D01*
D13*
X136542857Y-83542857D02*
X136523809Y-83561904D01*
X136466666Y-83580952D01*
X136428571Y-83580952D01*
X136371428Y-83561904D01*
X136333333Y-83523809D01*
X136314285Y-83485714D01*
X136295238Y-83409523D01*
X136295238Y-83352380D01*
X136314285Y-83276190D01*
X136333333Y-83238095D01*
X136371428Y-83200000D01*
X136428571Y-83180952D01*
X136466666Y-83180952D01*
X136523809Y-83200000D01*
X136542857Y-83219047D01*
X136923809Y-83580952D02*
X136695238Y-83580952D01*
X136809523Y-83580952D02*
X136809523Y-83180952D01*
X136771428Y-83238095D01*
X136733333Y-83276190D01*
X136695238Y-83295238D01*
X137171428Y-83180952D02*
X137209523Y-83180952D01*
X137247619Y-83200000D01*
X137266666Y-83219047D01*
X137285714Y-83257142D01*
X137304761Y-83333333D01*
X137304761Y-83428571D01*
X137285714Y-83504761D01*
X137266666Y-83542857D01*
X137247619Y-83561904D01*
X137209523Y-83580952D01*
X137171428Y-83580952D01*
X137133333Y-83561904D01*
X137114285Y-83542857D01*
X137095238Y-83504761D01*
X137076190Y-83428571D01*
X137076190Y-83333333D01*
X137095238Y-83257142D01*
X137114285Y-83219047D01*
X137133333Y-83200000D01*
X137171428Y-83180952D01*
D12*
X122922380Y-81071428D02*
X122922380Y-81642857D01*
X122922380Y-81357142D02*
X121922380Y-81357142D01*
X122065238Y-81452380D01*
X122160476Y-81547619D01*
X122208095Y-81642857D01*
X121922380Y-80452380D02*
X121922380Y-80357142D01*
X121970000Y-80261904D01*
X122017619Y-80214285D01*
X122112857Y-80166666D01*
X122303333Y-80119047D01*
X122541428Y-80119047D01*
X122731904Y-80166666D01*
X122827142Y-80214285D01*
X122874761Y-80261904D01*
X122922380Y-80357142D01*
X122922380Y-80452380D01*
X122874761Y-80547619D01*
X122827142Y-80595238D01*
X122731904Y-80642857D01*
X122541428Y-80690476D01*
X122303333Y-80690476D01*
X122112857Y-80642857D01*
X122017619Y-80595238D01*
X121970000Y-80547619D01*
X121922380Y-80452380D01*
X122255714Y-79690476D02*
X122922380Y-79690476D01*
X122350952Y-79690476D02*
X122303333Y-79642857D01*
X122255714Y-79547619D01*
X122255714Y-79404761D01*
X122303333Y-79309523D01*
X122398571Y-79261904D01*
X122922380Y-79261904D01*
X122398571Y-78452380D02*
X122398571Y-78785714D01*
X122922380Y-78785714D02*
X121922380Y-78785714D01*
X121922380Y-78309523D01*
D13*
X124042857Y-80066666D02*
X124061904Y-80085714D01*
X124080952Y-80142857D01*
X124080952Y-80180952D01*
X124061904Y-80238095D01*
X124023809Y-80276190D01*
X123985714Y-80295238D01*
X123909523Y-80314285D01*
X123852380Y-80314285D01*
X123776190Y-80295238D01*
X123738095Y-80276190D01*
X123700000Y-80238095D01*
X123680952Y-80180952D01*
X123680952Y-80142857D01*
X123700000Y-80085714D01*
X123719047Y-80066666D01*
X123680952Y-79933333D02*
X123680952Y-79666666D01*
X124080952Y-79838095D01*
D12*
X121682380Y-102071428D02*
X121682380Y-102642857D01*
X121682380Y-102357142D02*
X120682380Y-102357142D01*
X120825238Y-102452380D01*
X120920476Y-102547619D01*
X120968095Y-102642857D01*
X120682380Y-101452380D02*
X120682380Y-101357142D01*
X120730000Y-101261904D01*
X120777619Y-101214285D01*
X120872857Y-101166666D01*
X121063333Y-101119047D01*
X121301428Y-101119047D01*
X121491904Y-101166666D01*
X121587142Y-101214285D01*
X121634761Y-101261904D01*
X121682380Y-101357142D01*
X121682380Y-101452380D01*
X121634761Y-101547619D01*
X121587142Y-101595238D01*
X121491904Y-101642857D01*
X121301428Y-101690476D01*
X121063333Y-101690476D01*
X120872857Y-101642857D01*
X120777619Y-101595238D01*
X120730000Y-101547619D01*
X120682380Y-101452380D01*
X121015714Y-100690476D02*
X121682380Y-100690476D01*
X121110952Y-100690476D02*
X121063333Y-100642857D01*
X121015714Y-100547619D01*
X121015714Y-100404761D01*
X121063333Y-100309523D01*
X121158571Y-100261904D01*
X121682380Y-100261904D01*
X121158571Y-99452380D02*
X121158571Y-99785714D01*
X121682380Y-99785714D02*
X120682380Y-99785714D01*
X120682380Y-99309523D01*
D13*
X119942857Y-101066666D02*
X119961904Y-101085714D01*
X119980952Y-101142857D01*
X119980952Y-101180952D01*
X119961904Y-101238095D01*
X119923809Y-101276190D01*
X119885714Y-101295238D01*
X119809523Y-101314285D01*
X119752380Y-101314285D01*
X119676190Y-101295238D01*
X119638095Y-101276190D01*
X119600000Y-101238095D01*
X119580952Y-101180952D01*
X119580952Y-101142857D01*
X119600000Y-101085714D01*
X119619047Y-101066666D01*
X119580952Y-100723809D02*
X119580952Y-100800000D01*
X119600000Y-100838095D01*
X119619047Y-100857142D01*
X119676190Y-100895238D01*
X119752380Y-100914285D01*
X119904761Y-100914285D01*
X119942857Y-100895238D01*
X119961904Y-100876190D01*
X119980952Y-100838095D01*
X119980952Y-100761904D01*
X119961904Y-100723809D01*
X119942857Y-100704761D01*
X119904761Y-100685714D01*
X119809523Y-100685714D01*
X119771428Y-100704761D01*
X119752380Y-100723809D01*
X119733333Y-100761904D01*
X119733333Y-100838095D01*
X119752380Y-100876190D01*
X119771428Y-100895238D01*
X119809523Y-100914285D01*
D12*
X135682380Y-78471428D02*
X135682380Y-79042857D01*
X135682380Y-78757142D02*
X134682380Y-78757142D01*
X134825238Y-78852380D01*
X134920476Y-78947619D01*
X134968095Y-79042857D01*
X134682380Y-77852380D02*
X134682380Y-77757142D01*
X134730000Y-77661904D01*
X134777619Y-77614285D01*
X134872857Y-77566666D01*
X135063333Y-77519047D01*
X135301428Y-77519047D01*
X135491904Y-77566666D01*
X135587142Y-77614285D01*
X135634761Y-77661904D01*
X135682380Y-77757142D01*
X135682380Y-77852380D01*
X135634761Y-77947619D01*
X135587142Y-77995238D01*
X135491904Y-78042857D01*
X135301428Y-78090476D01*
X135063333Y-78090476D01*
X134872857Y-78042857D01*
X134777619Y-77995238D01*
X134730000Y-77947619D01*
X134682380Y-77852380D01*
X135015714Y-77090476D02*
X136015714Y-77090476D01*
X135063333Y-77090476D02*
X135015714Y-76995238D01*
X135015714Y-76804761D01*
X135063333Y-76709523D01*
X135110952Y-76661904D01*
X135206190Y-76614285D01*
X135491904Y-76614285D01*
X135587142Y-76661904D01*
X135634761Y-76709523D01*
X135682380Y-76804761D01*
X135682380Y-76995238D01*
X135634761Y-77090476D01*
X135158571Y-75852380D02*
X135158571Y-76185714D01*
X135682380Y-76185714D02*
X134682380Y-76185714D01*
X134682380Y-75709523D01*
D13*
X133942857Y-77466666D02*
X133961904Y-77485714D01*
X133980952Y-77542857D01*
X133980952Y-77580952D01*
X133961904Y-77638095D01*
X133923809Y-77676190D01*
X133885714Y-77695238D01*
X133809523Y-77714285D01*
X133752380Y-77714285D01*
X133676190Y-77695238D01*
X133638095Y-77676190D01*
X133600000Y-77638095D01*
X133580952Y-77580952D01*
X133580952Y-77542857D01*
X133600000Y-77485714D01*
X133619047Y-77466666D01*
X133580952Y-77104761D02*
X133580952Y-77295238D01*
X133771428Y-77314285D01*
X133752380Y-77295238D01*
X133733333Y-77257142D01*
X133733333Y-77161904D01*
X133752380Y-77123809D01*
X133771428Y-77104761D01*
X133809523Y-77085714D01*
X133904761Y-77085714D01*
X133942857Y-77104761D01*
X133961904Y-77123809D01*
X133980952Y-77161904D01*
X133980952Y-77257142D01*
X133961904Y-77295238D01*
X133942857Y-77314285D01*
D12*
X138082380Y-78471428D02*
X138082380Y-79042857D01*
X138082380Y-78757142D02*
X137082380Y-78757142D01*
X137225238Y-78852380D01*
X137320476Y-78947619D01*
X137368095Y-79042857D01*
X137082380Y-77852380D02*
X137082380Y-77757142D01*
X137130000Y-77661904D01*
X137177619Y-77614285D01*
X137272857Y-77566666D01*
X137463333Y-77519047D01*
X137701428Y-77519047D01*
X137891904Y-77566666D01*
X137987142Y-77614285D01*
X138034761Y-77661904D01*
X138082380Y-77757142D01*
X138082380Y-77852380D01*
X138034761Y-77947619D01*
X137987142Y-77995238D01*
X137891904Y-78042857D01*
X137701428Y-78090476D01*
X137463333Y-78090476D01*
X137272857Y-78042857D01*
X137177619Y-77995238D01*
X137130000Y-77947619D01*
X137082380Y-77852380D01*
X137415714Y-77090476D02*
X138415714Y-77090476D01*
X137463333Y-77090476D02*
X137415714Y-76995238D01*
X137415714Y-76804761D01*
X137463333Y-76709523D01*
X137510952Y-76661904D01*
X137606190Y-76614285D01*
X137891904Y-76614285D01*
X137987142Y-76661904D01*
X138034761Y-76709523D01*
X138082380Y-76804761D01*
X138082380Y-76995238D01*
X138034761Y-77090476D01*
X137558571Y-75852380D02*
X137558571Y-76185714D01*
X138082380Y-76185714D02*
X137082380Y-76185714D01*
X137082380Y-75709523D01*
D13*
X136342857Y-77466666D02*
X136361904Y-77485714D01*
X136380952Y-77542857D01*
X136380952Y-77580952D01*
X136361904Y-77638095D01*
X136323809Y-77676190D01*
X136285714Y-77695238D01*
X136209523Y-77714285D01*
X136152380Y-77714285D01*
X136076190Y-77695238D01*
X136038095Y-77676190D01*
X136000000Y-77638095D01*
X135980952Y-77580952D01*
X135980952Y-77542857D01*
X136000000Y-77485714D01*
X136019047Y-77466666D01*
X136114285Y-77123809D02*
X136380952Y-77123809D01*
X135961904Y-77219047D02*
X136247619Y-77314285D01*
X136247619Y-77066666D01*
D12*
X126728571Y-78682380D02*
X126157142Y-78682380D01*
X126442857Y-78682380D02*
X126442857Y-77682380D01*
X126347619Y-77825238D01*
X126252380Y-77920476D01*
X126157142Y-77968095D01*
X127347619Y-77682380D02*
X127442857Y-77682380D01*
X127538095Y-77730000D01*
X127585714Y-77777619D01*
X127633333Y-77872857D01*
X127680952Y-78063333D01*
X127680952Y-78301428D01*
X127633333Y-78491904D01*
X127585714Y-78587142D01*
X127538095Y-78634761D01*
X127442857Y-78682380D01*
X127347619Y-78682380D01*
X127252380Y-78634761D01*
X127204761Y-78587142D01*
X127157142Y-78491904D01*
X127109523Y-78301428D01*
X127109523Y-78063333D01*
X127157142Y-77872857D01*
X127204761Y-77777619D01*
X127252380Y-77730000D01*
X127347619Y-77682380D01*
X128109523Y-78015714D02*
X128109523Y-79015714D01*
X128109523Y-78063333D02*
X128204761Y-78015714D01*
X128395238Y-78015714D01*
X128490476Y-78063333D01*
X128538095Y-78110952D01*
X128585714Y-78206190D01*
X128585714Y-78491904D01*
X128538095Y-78587142D01*
X128490476Y-78634761D01*
X128395238Y-78682380D01*
X128204761Y-78682380D01*
X128109523Y-78634761D01*
X129347619Y-78158571D02*
X129014285Y-78158571D01*
X129014285Y-78682380D02*
X129014285Y-77682380D01*
X129490476Y-77682380D01*
D13*
X127733333Y-76942857D02*
X127714285Y-76961904D01*
X127657142Y-76980952D01*
X127619047Y-76980952D01*
X127561904Y-76961904D01*
X127523809Y-76923809D01*
X127504761Y-76885714D01*
X127485714Y-76809523D01*
X127485714Y-76752380D01*
X127504761Y-76676190D01*
X127523809Y-76638095D01*
X127561904Y-76600000D01*
X127619047Y-76580952D01*
X127657142Y-76580952D01*
X127714285Y-76600000D01*
X127733333Y-76619047D01*
X127866666Y-76580952D02*
X128114285Y-76580952D01*
X127980952Y-76733333D01*
X128038095Y-76733333D01*
X128076190Y-76752380D01*
X128095238Y-76771428D01*
X128114285Y-76809523D01*
X128114285Y-76904761D01*
X128095238Y-76942857D01*
X128076190Y-76961904D01*
X128038095Y-76980952D01*
X127923809Y-76980952D01*
X127885714Y-76961904D01*
X127866666Y-76942857D01*
D12*
X129928571Y-75822380D02*
X129357142Y-75822380D01*
X129642857Y-75822380D02*
X129642857Y-74822380D01*
X129547619Y-74965238D01*
X129452380Y-75060476D01*
X129357142Y-75108095D01*
X130547619Y-74822380D02*
X130642857Y-74822380D01*
X130738095Y-74870000D01*
X130785714Y-74917619D01*
X130833333Y-75012857D01*
X130880952Y-75203333D01*
X130880952Y-75441428D01*
X130833333Y-75631904D01*
X130785714Y-75727142D01*
X130738095Y-75774761D01*
X130642857Y-75822380D01*
X130547619Y-75822380D01*
X130452380Y-75774761D01*
X130404761Y-75727142D01*
X130357142Y-75631904D01*
X130309523Y-75441428D01*
X130309523Y-75203333D01*
X130357142Y-75012857D01*
X130404761Y-74917619D01*
X130452380Y-74870000D01*
X130547619Y-74822380D01*
X131309523Y-75155714D02*
X131309523Y-76155714D01*
X131309523Y-75203333D02*
X131404761Y-75155714D01*
X131595238Y-75155714D01*
X131690476Y-75203333D01*
X131738095Y-75250952D01*
X131785714Y-75346190D01*
X131785714Y-75631904D01*
X131738095Y-75727142D01*
X131690476Y-75774761D01*
X131595238Y-75822380D01*
X131404761Y-75822380D01*
X131309523Y-75774761D01*
X132547619Y-75298571D02*
X132214285Y-75298571D01*
X132214285Y-75822380D02*
X132214285Y-74822380D01*
X132690476Y-74822380D01*
D13*
X130933333Y-76942857D02*
X130914285Y-76961904D01*
X130857142Y-76980952D01*
X130819047Y-76980952D01*
X130761904Y-76961904D01*
X130723809Y-76923809D01*
X130704761Y-76885714D01*
X130685714Y-76809523D01*
X130685714Y-76752380D01*
X130704761Y-76676190D01*
X130723809Y-76638095D01*
X130761904Y-76600000D01*
X130819047Y-76580952D01*
X130857142Y-76580952D01*
X130914285Y-76600000D01*
X130933333Y-76619047D01*
X131085714Y-76619047D02*
X131104761Y-76600000D01*
X131142857Y-76580952D01*
X131238095Y-76580952D01*
X131276190Y-76600000D01*
X131295238Y-76619047D01*
X131314285Y-76657142D01*
X131314285Y-76695238D01*
X131295238Y-76752380D01*
X131066666Y-76980952D01*
X131314285Y-76980952D01*
D12*
X83828571Y-75722380D02*
X83257142Y-75722380D01*
X83542857Y-75722380D02*
X83542857Y-74722380D01*
X83447619Y-74865238D01*
X83352380Y-74960476D01*
X83257142Y-75008095D01*
X84447619Y-74722380D02*
X84542857Y-74722380D01*
X84638095Y-74770000D01*
X84685714Y-74817619D01*
X84733333Y-74912857D01*
X84780952Y-75103333D01*
X84780952Y-75341428D01*
X84733333Y-75531904D01*
X84685714Y-75627142D01*
X84638095Y-75674761D01*
X84542857Y-75722380D01*
X84447619Y-75722380D01*
X84352380Y-75674761D01*
X84304761Y-75627142D01*
X84257142Y-75531904D01*
X84209523Y-75341428D01*
X84209523Y-75103333D01*
X84257142Y-74912857D01*
X84304761Y-74817619D01*
X84352380Y-74770000D01*
X84447619Y-74722380D01*
X85209523Y-75055714D02*
X85209523Y-75722380D01*
X85209523Y-75150952D02*
X85257142Y-75103333D01*
X85352380Y-75055714D01*
X85495238Y-75055714D01*
X85590476Y-75103333D01*
X85638095Y-75198571D01*
X85638095Y-75722380D01*
X86447619Y-75198571D02*
X86114285Y-75198571D01*
X86114285Y-75722380D02*
X86114285Y-74722380D01*
X86590476Y-74722380D01*
D13*
X84833333Y-76842857D02*
X84814285Y-76861904D01*
X84757142Y-76880952D01*
X84719047Y-76880952D01*
X84661904Y-76861904D01*
X84623809Y-76823809D01*
X84604761Y-76785714D01*
X84585714Y-76709523D01*
X84585714Y-76652380D01*
X84604761Y-76576190D01*
X84623809Y-76538095D01*
X84661904Y-76500000D01*
X84719047Y-76480952D01*
X84757142Y-76480952D01*
X84814285Y-76500000D01*
X84833333Y-76519047D01*
X85214285Y-76880952D02*
X84985714Y-76880952D01*
X85100000Y-76880952D02*
X85100000Y-76480952D01*
X85061904Y-76538095D01*
X85023809Y-76576190D01*
X84985714Y-76595238D01*
D12*
X131190476Y-77652380D02*
X131809523Y-77652380D01*
X131476190Y-78033333D01*
X131619047Y-78033333D01*
X131714285Y-78080952D01*
X131761904Y-78128571D01*
X131809523Y-78223809D01*
X131809523Y-78461904D01*
X131761904Y-78557142D01*
X131714285Y-78604761D01*
X131619047Y-78652380D01*
X131333333Y-78652380D01*
X131238095Y-78604761D01*
X131190476Y-78557142D01*
X132190476Y-77747619D02*
X132238095Y-77700000D01*
X132333333Y-77652380D01*
X132571428Y-77652380D01*
X132666666Y-77700000D01*
X132714285Y-77747619D01*
X132761904Y-77842857D01*
X132761904Y-77938095D01*
X132714285Y-78080952D01*
X132142857Y-78652380D01*
X132761904Y-78652380D01*
X133190476Y-78557142D02*
X133238095Y-78604761D01*
X133190476Y-78652380D01*
X133142857Y-78604761D01*
X133190476Y-78557142D01*
X133190476Y-78652380D01*
X133571428Y-77652380D02*
X134238095Y-77652380D01*
X133809523Y-78652380D01*
X135047619Y-77652380D02*
X134857142Y-77652380D01*
X134761904Y-77700000D01*
X134714285Y-77747619D01*
X134619047Y-77890476D01*
X134571428Y-78080952D01*
X134571428Y-78461904D01*
X134619047Y-78557142D01*
X134666666Y-78604761D01*
X134761904Y-78652380D01*
X134952380Y-78652380D01*
X135047619Y-78604761D01*
X135095238Y-78557142D01*
X135142857Y-78461904D01*
X135142857Y-78223809D01*
X135095238Y-78128571D01*
X135047619Y-78080952D01*
X134952380Y-78033333D01*
X134761904Y-78033333D01*
X134666666Y-78080952D01*
X134619047Y-78128571D01*
X134571428Y-78223809D01*
X135714285Y-78080952D02*
X135619047Y-78033333D01*
X135571428Y-77985714D01*
X135523809Y-77890476D01*
X135523809Y-77842857D01*
X135571428Y-77747619D01*
X135619047Y-77700000D01*
X135714285Y-77652380D01*
X135904761Y-77652380D01*
X136000000Y-77700000D01*
X136047619Y-77747619D01*
X136095238Y-77842857D01*
X136095238Y-77890476D01*
X136047619Y-77985714D01*
X136000000Y-78033333D01*
X135904761Y-78080952D01*
X135714285Y-78080952D01*
X135619047Y-78128571D01*
X135571428Y-78176190D01*
X135523809Y-78271428D01*
X135523809Y-78461904D01*
X135571428Y-78557142D01*
X135619047Y-78604761D01*
X135714285Y-78652380D01*
X135904761Y-78652380D01*
X136000000Y-78604761D01*
X136047619Y-78557142D01*
X136095238Y-78461904D01*
X136095238Y-78271428D01*
X136047619Y-78176190D01*
X136000000Y-78128571D01*
X135904761Y-78080952D01*
X136523809Y-78652380D02*
X136523809Y-77652380D01*
X136619047Y-78271428D02*
X136904761Y-78652380D01*
X136904761Y-77985714D02*
X136523809Y-78366666D01*
X137333333Y-78652380D02*
X137333333Y-77652380D01*
X137333333Y-78128571D02*
X137904761Y-78128571D01*
X137904761Y-78652380D02*
X137904761Y-77652380D01*
X138285714Y-77985714D02*
X138809523Y-77985714D01*
X138285714Y-78652380D01*
X138809523Y-78652380D01*
X134523809Y-82176190D02*
X134523809Y-82652380D01*
X134190476Y-81652380D02*
X134523809Y-82176190D01*
X134857142Y-81652380D01*
X135142857Y-81747619D02*
X135190476Y-81700000D01*
X135285714Y-81652380D01*
X135523809Y-81652380D01*
X135619047Y-81700000D01*
X135666666Y-81747619D01*
X135714285Y-81842857D01*
X135714285Y-81938095D01*
X135666666Y-82080952D01*
X135095238Y-82652380D01*
X135714285Y-82652380D01*
X115554761Y-85028571D02*
X115602380Y-84885714D01*
X115602380Y-84647619D01*
X115554761Y-84552380D01*
X115507142Y-84504761D01*
X115411904Y-84457142D01*
X115316666Y-84457142D01*
X115221428Y-84504761D01*
X115173809Y-84552380D01*
X115126190Y-84647619D01*
X115078571Y-84838095D01*
X115030952Y-84933333D01*
X114983333Y-84980952D01*
X114888095Y-85028571D01*
X114792857Y-85028571D01*
X114697619Y-84980952D01*
X114650000Y-84933333D01*
X114602380Y-84838095D01*
X114602380Y-84600000D01*
X114650000Y-84457142D01*
X115602380Y-84028571D02*
X114935714Y-84028571D01*
X114602380Y-84028571D02*
X114650000Y-84076190D01*
X114697619Y-84028571D01*
X114650000Y-83980952D01*
X114602380Y-84028571D01*
X114697619Y-84028571D01*
X114602380Y-83647619D02*
X114602380Y-82980952D01*
X115602380Y-83409523D01*
X114602380Y-82409523D02*
X114602380Y-82314285D01*
X114650000Y-82219047D01*
X114697619Y-82171428D01*
X114792857Y-82123809D01*
X114983333Y-82076190D01*
X115221428Y-82076190D01*
X115411904Y-82123809D01*
X115507142Y-82171428D01*
X115554761Y-82219047D01*
X115602380Y-82314285D01*
X115602380Y-82409523D01*
X115554761Y-82504761D01*
X115507142Y-82552380D01*
X115411904Y-82600000D01*
X115221428Y-82647619D01*
X114983333Y-82647619D01*
X114792857Y-82600000D01*
X114697619Y-82552380D01*
X114650000Y-82504761D01*
X114602380Y-82409523D01*
X114697619Y-81695238D02*
X114650000Y-81647619D01*
X114602380Y-81552380D01*
X114602380Y-81314285D01*
X114650000Y-81219047D01*
X114697619Y-81171428D01*
X114792857Y-81123809D01*
X114888095Y-81123809D01*
X115030952Y-81171428D01*
X115602380Y-81742857D01*
X115602380Y-81123809D01*
X115602380Y-80171428D02*
X115602380Y-80742857D01*
X115602380Y-80457142D02*
X114602380Y-80457142D01*
X114745238Y-80552380D01*
X114840476Y-80647619D01*
X114888095Y-80742857D01*
X115221428Y-79742857D02*
X115221428Y-78980952D01*
X115316666Y-78552380D02*
X115316666Y-78076190D01*
X115602380Y-78647619D02*
X114602380Y-78314285D01*
X115602380Y-77980952D01*
X114697619Y-77695238D02*
X114650000Y-77647619D01*
X114602380Y-77552380D01*
X114602380Y-77314285D01*
X114650000Y-77219047D01*
X114697619Y-77171428D01*
X114792857Y-77123809D01*
X114888095Y-77123809D01*
X115030952Y-77171428D01*
X115602380Y-77742857D01*
X115602380Y-77123809D01*
X114602380Y-76504761D02*
X114602380Y-76409523D01*
X114650000Y-76314285D01*
X114697619Y-76266666D01*
X114792857Y-76219047D01*
X114983333Y-76171428D01*
X115221428Y-76171428D01*
X115411904Y-76219047D01*
X115507142Y-76266666D01*
X115554761Y-76314285D01*
X115602380Y-76409523D01*
X115602380Y-76504761D01*
X115554761Y-76600000D01*
X115507142Y-76647619D01*
X115411904Y-76695238D01*
X115221428Y-76742857D01*
X114983333Y-76742857D01*
X114792857Y-76695238D01*
X114697619Y-76647619D01*
X114650000Y-76600000D01*
X114602380Y-76504761D01*
D16*
X117189285Y-81171428D02*
X117796428Y-81171428D01*
X117867857Y-81135714D01*
X117903571Y-81100000D01*
X117939285Y-81028571D01*
X117939285Y-80885714D01*
X117903571Y-80814285D01*
X117867857Y-80778571D01*
X117796428Y-80742857D01*
X117189285Y-80742857D01*
X117189285Y-80064285D02*
X117189285Y-80207142D01*
X117225000Y-80278571D01*
X117260714Y-80314285D01*
X117367857Y-80385714D01*
X117510714Y-80421428D01*
X117796428Y-80421428D01*
X117867857Y-80385714D01*
X117903571Y-80350000D01*
X117939285Y-80278571D01*
X117939285Y-80135714D01*
X117903571Y-80064285D01*
X117867857Y-80028571D01*
X117796428Y-79992857D01*
X117617857Y-79992857D01*
X117546428Y-80028571D01*
X117510714Y-80064285D01*
X117475000Y-80135714D01*
X117475000Y-80278571D01*
X117510714Y-80350000D01*
X117546428Y-80385714D01*
X117617857Y-80421428D01*
D12*
X135219047Y-99802380D02*
X135219047Y-98802380D01*
X135695238Y-99802380D02*
X135695238Y-98802380D01*
X136266666Y-99802380D01*
X136266666Y-98802380D01*
X136695238Y-99516666D02*
X137171428Y-99516666D01*
X136600000Y-99802380D02*
X136933333Y-98802380D01*
X137266666Y-99802380D01*
X137552380Y-98897619D02*
X137600000Y-98850000D01*
X137695238Y-98802380D01*
X137933333Y-98802380D01*
X138028571Y-98850000D01*
X138076190Y-98897619D01*
X138123809Y-98992857D01*
X138123809Y-99088095D01*
X138076190Y-99230952D01*
X137504761Y-99802380D01*
X138123809Y-99802380D01*
X138504761Y-98897619D02*
X138552380Y-98850000D01*
X138647619Y-98802380D01*
X138885714Y-98802380D01*
X138980952Y-98850000D01*
X139028571Y-98897619D01*
X139076190Y-98992857D01*
X139076190Y-99088095D01*
X139028571Y-99230952D01*
X138457142Y-99802380D01*
X139076190Y-99802380D01*
X139933333Y-98802380D02*
X139742857Y-98802380D01*
X139647619Y-98850000D01*
X139600000Y-98897619D01*
X139504761Y-99040476D01*
X139457142Y-99230952D01*
X139457142Y-99611904D01*
X139504761Y-99707142D01*
X139552380Y-99754761D01*
X139647619Y-99802380D01*
X139838095Y-99802380D01*
X139933333Y-99754761D01*
X139980952Y-99707142D01*
X140028571Y-99611904D01*
X140028571Y-99373809D01*
X139980952Y-99278571D01*
X139933333Y-99230952D01*
X139838095Y-99183333D01*
X139647619Y-99183333D01*
X139552380Y-99230952D01*
X139504761Y-99278571D01*
X139457142Y-99373809D01*
D16*
X137028571Y-101389285D02*
X137028571Y-101996428D01*
X137064285Y-102067857D01*
X137100000Y-102103571D01*
X137171428Y-102139285D01*
X137314285Y-102139285D01*
X137385714Y-102103571D01*
X137421428Y-102067857D01*
X137457142Y-101996428D01*
X137457142Y-101389285D01*
X138171428Y-101389285D02*
X137814285Y-101389285D01*
X137778571Y-101746428D01*
X137814285Y-101710714D01*
X137885714Y-101675000D01*
X138064285Y-101675000D01*
X138135714Y-101710714D01*
X138171428Y-101746428D01*
X138207142Y-101817857D01*
X138207142Y-101996428D01*
X138171428Y-102067857D01*
X138135714Y-102103571D01*
X138064285Y-102139285D01*
X137885714Y-102139285D01*
X137814285Y-102103571D01*
X137778571Y-102067857D01*
D12*
X85023809Y-75952380D02*
X84547619Y-75952380D01*
X84547619Y-74952380D01*
X85357142Y-75952380D02*
X85357142Y-74952380D01*
X85690476Y-75666666D01*
X86023809Y-74952380D01*
X86023809Y-75952380D01*
X86404761Y-74952380D02*
X87023809Y-74952380D01*
X86690476Y-75333333D01*
X86833333Y-75333333D01*
X86928571Y-75380952D01*
X86976190Y-75428571D01*
X87023809Y-75523809D01*
X87023809Y-75761904D01*
X86976190Y-75857142D01*
X86928571Y-75904761D01*
X86833333Y-75952380D01*
X86547619Y-75952380D01*
X86452380Y-75904761D01*
X86404761Y-75857142D01*
X87880952Y-74952380D02*
X87690476Y-74952380D01*
X87595238Y-75000000D01*
X87547619Y-75047619D01*
X87452380Y-75190476D01*
X87404761Y-75380952D01*
X87404761Y-75761904D01*
X87452380Y-75857142D01*
X87500000Y-75904761D01*
X87595238Y-75952380D01*
X87785714Y-75952380D01*
X87880952Y-75904761D01*
X87928571Y-75857142D01*
X87976190Y-75761904D01*
X87976190Y-75523809D01*
X87928571Y-75428571D01*
X87880952Y-75380952D01*
X87785714Y-75333333D01*
X87595238Y-75333333D01*
X87500000Y-75380952D01*
X87452380Y-75428571D01*
X87404761Y-75523809D01*
X88309523Y-74952380D02*
X88976190Y-74952380D01*
X88547619Y-75952380D01*
X89880952Y-75952380D02*
X89309523Y-75952380D01*
X89595238Y-75952380D02*
X89595238Y-74952380D01*
X89500000Y-75095238D01*
X89404761Y-75190476D01*
X89309523Y-75238095D01*
X90309523Y-75952380D02*
X90309523Y-74952380D01*
X90642857Y-75666666D01*
X90976190Y-74952380D01*
X90976190Y-75952380D01*
X91785714Y-75428571D02*
X91452380Y-75428571D01*
X91452380Y-75952380D02*
X91452380Y-74952380D01*
X91928571Y-74952380D01*
X92309523Y-75571428D02*
X93071428Y-75571428D01*
X93452380Y-74952380D02*
X94071428Y-74952380D01*
X93738095Y-75333333D01*
X93880952Y-75333333D01*
X93976190Y-75380952D01*
X94023809Y-75428571D01*
X94071428Y-75523809D01*
X94071428Y-75761904D01*
X94023809Y-75857142D01*
X93976190Y-75904761D01*
X93880952Y-75952380D01*
X93595238Y-75952380D01*
X93500000Y-75904761D01*
X93452380Y-75857142D01*
X94500000Y-75857142D02*
X94547619Y-75904761D01*
X94500000Y-75952380D01*
X94452380Y-75904761D01*
X94500000Y-75857142D01*
X94500000Y-75952380D01*
X94880952Y-74952380D02*
X95500000Y-74952380D01*
X95166666Y-75333333D01*
X95309523Y-75333333D01*
X95404761Y-75380952D01*
X95452380Y-75428571D01*
X95500000Y-75523809D01*
X95500000Y-75761904D01*
X95452380Y-75857142D01*
X95404761Y-75904761D01*
X95309523Y-75952380D01*
X95023809Y-75952380D01*
X94928571Y-75904761D01*
X94880952Y-75857142D01*
D15*
X89726190Y-78380952D02*
X90130952Y-78380952D01*
X90178571Y-78357142D01*
X90202380Y-78333333D01*
X90226190Y-78285714D01*
X90226190Y-78190476D01*
X90202380Y-78142857D01*
X90178571Y-78119047D01*
X90130952Y-78095238D01*
X89726190Y-78095238D01*
X89892857Y-77642857D02*
X90226190Y-77642857D01*
X89702380Y-77761904D02*
X90059523Y-77880952D01*
X90059523Y-77571428D01*
D12*
X145519047Y-76457142D02*
X145471428Y-76504761D01*
X145328571Y-76552380D01*
X145233333Y-76552380D01*
X145090476Y-76504761D01*
X144995238Y-76409523D01*
X144947619Y-76314285D01*
X144900000Y-76123809D01*
X144900000Y-75980952D01*
X144947619Y-75790476D01*
X144995238Y-75695238D01*
X145090476Y-75600000D01*
X145233333Y-75552380D01*
X145328571Y-75552380D01*
X145471428Y-75600000D01*
X145519047Y-75647619D01*
X145900000Y-76266666D02*
X146376190Y-76266666D01*
X145804761Y-76552380D02*
X146138095Y-75552380D01*
X146471428Y-76552380D01*
X146661904Y-75552380D02*
X147233333Y-75552380D01*
X146947619Y-76552380D02*
X146947619Y-75552380D01*
X147519047Y-75647619D02*
X147566666Y-75600000D01*
X147661904Y-75552380D01*
X147900000Y-75552380D01*
X147995238Y-75600000D01*
X148042857Y-75647619D01*
X148090476Y-75742857D01*
X148090476Y-75838095D01*
X148042857Y-75980952D01*
X147471428Y-76552380D01*
X148090476Y-76552380D01*
X148947619Y-75885714D02*
X148947619Y-76552380D01*
X148709523Y-75504761D02*
X148471428Y-76219047D01*
X149090476Y-76219047D01*
X150042857Y-76457142D02*
X149995238Y-76504761D01*
X149852380Y-76552380D01*
X149757142Y-76552380D01*
X149614285Y-76504761D01*
X149519047Y-76409523D01*
X149471428Y-76314285D01*
X149423809Y-76123809D01*
X149423809Y-75980952D01*
X149471428Y-75790476D01*
X149519047Y-75695238D01*
X149614285Y-75600000D01*
X149757142Y-75552380D01*
X149852380Y-75552380D01*
X149995238Y-75600000D01*
X150042857Y-75647619D01*
X150995238Y-76552380D02*
X150423809Y-76552380D01*
X150709523Y-76552380D02*
X150709523Y-75552380D01*
X150614285Y-75695238D01*
X150519047Y-75790476D01*
X150423809Y-75838095D01*
X151376190Y-75647619D02*
X151423809Y-75600000D01*
X151519047Y-75552380D01*
X151757142Y-75552380D01*
X151852380Y-75600000D01*
X151900000Y-75647619D01*
X151947619Y-75742857D01*
X151947619Y-75838095D01*
X151900000Y-75980952D01*
X151328571Y-76552380D01*
X151947619Y-76552380D01*
X152519047Y-75980952D02*
X152423809Y-75933333D01*
X152376190Y-75885714D01*
X152328571Y-75790476D01*
X152328571Y-75742857D01*
X152376190Y-75647619D01*
X152423809Y-75600000D01*
X152519047Y-75552380D01*
X152709523Y-75552380D01*
X152804761Y-75600000D01*
X152852380Y-75647619D01*
X152900000Y-75742857D01*
X152900000Y-75790476D01*
X152852380Y-75885714D01*
X152804761Y-75933333D01*
X152709523Y-75980952D01*
X152519047Y-75980952D01*
X152423809Y-76028571D01*
X152376190Y-76076190D01*
X152328571Y-76171428D01*
X152328571Y-76361904D01*
X152376190Y-76457142D01*
X152423809Y-76504761D01*
X152519047Y-76552380D01*
X152709523Y-76552380D01*
X152804761Y-76504761D01*
X152852380Y-76457142D01*
X152900000Y-76361904D01*
X152900000Y-76171428D01*
X152852380Y-76076190D01*
X152804761Y-76028571D01*
X152709523Y-75980952D01*
X148153333Y-78963333D02*
X148153333Y-79756666D01*
X148200000Y-79850000D01*
X148246666Y-79896666D01*
X148340000Y-79943333D01*
X148526666Y-79943333D01*
X148620000Y-79896666D01*
X148666666Y-79850000D01*
X148713333Y-79756666D01*
X148713333Y-78963333D01*
X149086666Y-78963333D02*
X149693333Y-78963333D01*
X149366666Y-79336666D01*
X149506666Y-79336666D01*
X149600000Y-79383333D01*
X149646666Y-79430000D01*
X149693333Y-79523333D01*
X149693333Y-79756666D01*
X149646666Y-79850000D01*
X149600000Y-79896666D01*
X149506666Y-79943333D01*
X149226666Y-79943333D01*
X149133333Y-79896666D01*
X149086666Y-79850000D01*
X123004761Y-95785714D02*
X123052380Y-95642857D01*
X123052380Y-95404761D01*
X123004761Y-95309523D01*
X122957142Y-95261904D01*
X122861904Y-95214285D01*
X122766666Y-95214285D01*
X122671428Y-95261904D01*
X122623809Y-95309523D01*
X122576190Y-95404761D01*
X122528571Y-95595238D01*
X122480952Y-95690476D01*
X122433333Y-95738095D01*
X122338095Y-95785714D01*
X122242857Y-95785714D01*
X122147619Y-95738095D01*
X122100000Y-95690476D01*
X122052380Y-95595238D01*
X122052380Y-95357142D01*
X122100000Y-95214285D01*
X122052380Y-94928571D02*
X122052380Y-94357142D01*
X123052380Y-94642857D02*
X122052380Y-94642857D01*
X123052380Y-94023809D02*
X122052380Y-94023809D01*
X122766666Y-93690476D01*
X122052380Y-93357142D01*
X123052380Y-93357142D01*
X122052380Y-92976190D02*
X122052380Y-92357142D01*
X122433333Y-92690476D01*
X122433333Y-92547619D01*
X122480952Y-92452380D01*
X122528571Y-92404761D01*
X122623809Y-92357142D01*
X122861904Y-92357142D01*
X122957142Y-92404761D01*
X123004761Y-92452380D01*
X123052380Y-92547619D01*
X123052380Y-92833333D01*
X123004761Y-92928571D01*
X122957142Y-92976190D01*
X122147619Y-91976190D02*
X122100000Y-91928571D01*
X122052380Y-91833333D01*
X122052380Y-91595238D01*
X122100000Y-91500000D01*
X122147619Y-91452380D01*
X122242857Y-91404761D01*
X122338095Y-91404761D01*
X122480952Y-91452380D01*
X123052380Y-92023809D01*
X123052380Y-91404761D01*
X122528571Y-90642857D02*
X122528571Y-90976190D01*
X123052380Y-90976190D02*
X122052380Y-90976190D01*
X122052380Y-90500000D01*
X123052380Y-89595238D02*
X123052380Y-90166666D01*
X123052380Y-89880952D02*
X122052380Y-89880952D01*
X122195238Y-89976190D01*
X122290476Y-90071428D01*
X122338095Y-90166666D01*
X122052380Y-88976190D02*
X122052380Y-88880952D01*
X122100000Y-88785714D01*
X122147619Y-88738095D01*
X122242857Y-88690476D01*
X122433333Y-88642857D01*
X122671428Y-88642857D01*
X122861904Y-88690476D01*
X122957142Y-88738095D01*
X123004761Y-88785714D01*
X123052380Y-88880952D01*
X123052380Y-88976190D01*
X123004761Y-89071428D01*
X122957142Y-89119047D01*
X122861904Y-89166666D01*
X122671428Y-89214285D01*
X122433333Y-89214285D01*
X122242857Y-89166666D01*
X122147619Y-89119047D01*
X122100000Y-89071428D01*
X122052380Y-88976190D01*
X122052380Y-88309523D02*
X122052380Y-87690476D01*
X122433333Y-88023809D01*
X122433333Y-87880952D01*
X122480952Y-87785714D01*
X122528571Y-87738095D01*
X122623809Y-87690476D01*
X122861904Y-87690476D01*
X122957142Y-87738095D01*
X123004761Y-87785714D01*
X123052380Y-87880952D01*
X123052380Y-88166666D01*
X123004761Y-88261904D01*
X122957142Y-88309523D01*
X123052380Y-86690476D02*
X122576190Y-87023809D01*
X123052380Y-87261904D02*
X122052380Y-87261904D01*
X122052380Y-86880952D01*
X122100000Y-86785714D01*
X122147619Y-86738095D01*
X122242857Y-86690476D01*
X122385714Y-86690476D01*
X122480952Y-86738095D01*
X122528571Y-86785714D01*
X122576190Y-86880952D01*
X122576190Y-87261904D01*
X122528571Y-86261904D02*
X122528571Y-85928571D01*
X123052380Y-85785714D02*
X123052380Y-86261904D01*
X122052380Y-86261904D01*
X122052380Y-85785714D01*
X122052380Y-85500000D02*
X122052380Y-84928571D01*
X123052380Y-85214285D02*
X122052380Y-85214285D01*
X123052380Y-84690476D02*
X122385714Y-84166666D01*
X122385714Y-84690476D02*
X123052380Y-84166666D01*
X129452380Y-90761904D02*
X130261904Y-90761904D01*
X130357142Y-90714285D01*
X130404761Y-90666666D01*
X130452380Y-90571428D01*
X130452380Y-90380952D01*
X130404761Y-90285714D01*
X130357142Y-90238095D01*
X130261904Y-90190476D01*
X129452380Y-90190476D01*
X129547619Y-89761904D02*
X129500000Y-89714285D01*
X129452380Y-89619047D01*
X129452380Y-89380952D01*
X129500000Y-89285714D01*
X129547619Y-89238095D01*
X129642857Y-89190476D01*
X129738095Y-89190476D01*
X129880952Y-89238095D01*
X130452380Y-89809523D01*
X130452380Y-89190476D01*
X149361904Y-96954761D02*
X149504761Y-97002380D01*
X149742857Y-97002380D01*
X149838095Y-96954761D01*
X149885714Y-96907142D01*
X149933333Y-96811904D01*
X149933333Y-96716666D01*
X149885714Y-96621428D01*
X149838095Y-96573809D01*
X149742857Y-96526190D01*
X149552380Y-96478571D01*
X149457142Y-96430952D01*
X149409523Y-96383333D01*
X149361904Y-96288095D01*
X149361904Y-96192857D01*
X149409523Y-96097619D01*
X149457142Y-96050000D01*
X149552380Y-96002380D01*
X149790476Y-96002380D01*
X149933333Y-96050000D01*
X150361904Y-97002380D02*
X150361904Y-96002380D01*
X150695238Y-96716666D01*
X151028571Y-96002380D01*
X151028571Y-97002380D01*
X151838095Y-96478571D02*
X151504761Y-96478571D01*
X151504761Y-97002380D02*
X151504761Y-96002380D01*
X151980952Y-96002380D01*
X152552380Y-96002380D02*
X152647619Y-96002380D01*
X152742857Y-96050000D01*
X152790476Y-96097619D01*
X152838095Y-96192857D01*
X152885714Y-96383333D01*
X152885714Y-96621428D01*
X152838095Y-96811904D01*
X152790476Y-96907142D01*
X152742857Y-96954761D01*
X152647619Y-97002380D01*
X152552380Y-97002380D01*
X152457142Y-96954761D01*
X152409523Y-96907142D01*
X152361904Y-96811904D01*
X152314285Y-96621428D01*
X152314285Y-96383333D01*
X152361904Y-96192857D01*
X152409523Y-96097619D01*
X152457142Y-96050000D01*
X152552380Y-96002380D01*
X153790476Y-96002380D02*
X153314285Y-96002380D01*
X153266666Y-96478571D01*
X153314285Y-96430952D01*
X153409523Y-96383333D01*
X153647619Y-96383333D01*
X153742857Y-96430952D01*
X153790476Y-96478571D01*
X153838095Y-96573809D01*
X153838095Y-96811904D01*
X153790476Y-96907142D01*
X153742857Y-96954761D01*
X153647619Y-97002380D01*
X153409523Y-97002380D01*
X153314285Y-96954761D01*
X153266666Y-96907142D01*
X154838095Y-96907142D02*
X154790476Y-96954761D01*
X154647619Y-97002380D01*
X154552380Y-97002380D01*
X154409523Y-96954761D01*
X154314285Y-96859523D01*
X154266666Y-96764285D01*
X154219047Y-96573809D01*
X154219047Y-96430952D01*
X154266666Y-96240476D01*
X154314285Y-96145238D01*
X154409523Y-96050000D01*
X154552380Y-96002380D01*
X154647619Y-96002380D01*
X154790476Y-96050000D01*
X154838095Y-96097619D01*
X81804761Y-92814285D02*
X81852380Y-92671428D01*
X81852380Y-92433333D01*
X81804761Y-92338095D01*
X81757142Y-92290476D01*
X81661904Y-92242857D01*
X81566666Y-92242857D01*
X81471428Y-92290476D01*
X81423809Y-92338095D01*
X81376190Y-92433333D01*
X81328571Y-92623809D01*
X81280952Y-92719047D01*
X81233333Y-92766666D01*
X81138095Y-92814285D01*
X81042857Y-92814285D01*
X80947619Y-92766666D01*
X80900000Y-92719047D01*
X80852380Y-92623809D01*
X80852380Y-92385714D01*
X80900000Y-92242857D01*
X80852380Y-91909523D02*
X81852380Y-91671428D01*
X81138095Y-91480952D01*
X81852380Y-91290476D01*
X80852380Y-91052380D01*
X81947619Y-90909523D02*
X81947619Y-90147619D01*
X81852380Y-89385714D02*
X81852380Y-89957142D01*
X81852380Y-89671428D02*
X80852380Y-89671428D01*
X80995238Y-89766666D01*
X81090476Y-89861904D01*
X81138095Y-89957142D01*
X87404761Y-92433333D02*
X87452380Y-92290476D01*
X87452380Y-92052380D01*
X87404761Y-91957142D01*
X87357142Y-91909523D01*
X87261904Y-91861904D01*
X87166666Y-91861904D01*
X87071428Y-91909523D01*
X87023809Y-91957142D01*
X86976190Y-92052380D01*
X86928571Y-92242857D01*
X86880952Y-92338095D01*
X86833333Y-92385714D01*
X86738095Y-92433333D01*
X86642857Y-92433333D01*
X86547619Y-92385714D01*
X86500000Y-92338095D01*
X86452380Y-92242857D01*
X86452380Y-92004761D01*
X86500000Y-91861904D01*
X86452380Y-91528571D02*
X87452380Y-91290476D01*
X86738095Y-91100000D01*
X87452380Y-90909523D01*
X86452380Y-90671428D01*
X86547619Y-90338095D02*
X86500000Y-90290476D01*
X86452380Y-90195238D01*
X86452380Y-89957142D01*
X86500000Y-89861904D01*
X86547619Y-89814285D01*
X86642857Y-89766666D01*
X86738095Y-89766666D01*
X86880952Y-89814285D01*
X87452380Y-90385714D01*
X87452380Y-89766666D01*
X85404761Y-76404761D02*
X85547619Y-76452380D01*
X85785714Y-76452380D01*
X85880952Y-76404761D01*
X85928571Y-76357142D01*
X85976190Y-76261904D01*
X85976190Y-76166666D01*
X85928571Y-76071428D01*
X85880952Y-76023809D01*
X85785714Y-75976190D01*
X85595238Y-75928571D01*
X85500000Y-75880952D01*
X85452380Y-75833333D01*
X85404761Y-75738095D01*
X85404761Y-75642857D01*
X85452380Y-75547619D01*
X85500000Y-75500000D01*
X85595238Y-75452380D01*
X85833333Y-75452380D01*
X85976190Y-75500000D01*
X86309523Y-75452380D02*
X86547619Y-76452380D01*
X86738095Y-75738095D01*
X86928571Y-76452380D01*
X87166666Y-75452380D01*
X87309523Y-76547619D02*
X88071428Y-76547619D01*
X88880952Y-76452380D02*
X88547619Y-75976190D01*
X88309523Y-76452380D02*
X88309523Y-75452380D01*
X88690476Y-75452380D01*
X88785714Y-75500000D01*
X88833333Y-75547619D01*
X88880952Y-75642857D01*
X88880952Y-75785714D01*
X88833333Y-75880952D01*
X88785714Y-75928571D01*
X88690476Y-75976190D01*
X88309523Y-75976190D01*
X89261904Y-76404761D02*
X89404761Y-76452380D01*
X89642857Y-76452380D01*
X89738095Y-76404761D01*
X89785714Y-76357142D01*
X89833333Y-76261904D01*
X89833333Y-76166666D01*
X89785714Y-76071428D01*
X89738095Y-76023809D01*
X89642857Y-75976190D01*
X89452380Y-75928571D01*
X89357142Y-75880952D01*
X89309523Y-75833333D01*
X89261904Y-75738095D01*
X89261904Y-75642857D01*
X89309523Y-75547619D01*
X89357142Y-75500000D01*
X89452380Y-75452380D01*
X89690476Y-75452380D01*
X89833333Y-75500000D01*
X90119047Y-75452380D02*
X90690476Y-75452380D01*
X90404761Y-76452380D02*
X90404761Y-75452380D01*
X86666666Y-70804761D02*
X86809523Y-70852380D01*
X87047619Y-70852380D01*
X87142857Y-70804761D01*
X87190476Y-70757142D01*
X87238095Y-70661904D01*
X87238095Y-70566666D01*
X87190476Y-70471428D01*
X87142857Y-70423809D01*
X87047619Y-70376190D01*
X86857142Y-70328571D01*
X86761904Y-70280952D01*
X86714285Y-70233333D01*
X86666666Y-70138095D01*
X86666666Y-70042857D01*
X86714285Y-69947619D01*
X86761904Y-69900000D01*
X86857142Y-69852380D01*
X87095238Y-69852380D01*
X87238095Y-69900000D01*
X87571428Y-69852380D02*
X87809523Y-70852380D01*
X88000000Y-70138095D01*
X88190476Y-70852380D01*
X88428571Y-69852380D01*
X89333333Y-70852380D02*
X88761904Y-70852380D01*
X89047619Y-70852380D02*
X89047619Y-69852380D01*
X88952380Y-69995238D01*
X88857142Y-70090476D01*
X88761904Y-70138095D01*
X134172380Y-103619047D02*
X133696190Y-103952380D01*
X134172380Y-104190476D02*
X133172380Y-104190476D01*
X133172380Y-103809523D01*
X133220000Y-103714285D01*
X133267619Y-103666666D01*
X133362857Y-103619047D01*
X133505714Y-103619047D01*
X133600952Y-103666666D01*
X133648571Y-103714285D01*
X133696190Y-103809523D01*
X133696190Y-104190476D01*
X134172380Y-102666666D02*
X134172380Y-103238095D01*
X134172380Y-102952380D02*
X133172380Y-102952380D01*
X133315238Y-103047619D01*
X133410476Y-103142857D01*
X133458095Y-103238095D01*
X133172380Y-102047619D02*
X133172380Y-101952380D01*
X133220000Y-101857142D01*
X133267619Y-101809523D01*
X133362857Y-101761904D01*
X133553333Y-101714285D01*
X133791428Y-101714285D01*
X133981904Y-101761904D01*
X134077142Y-101809523D01*
X134124761Y-101857142D01*
X134172380Y-101952380D01*
X134172380Y-102047619D01*
X134124761Y-102142857D01*
X134077142Y-102190476D01*
X133981904Y-102238095D01*
X133791428Y-102285714D01*
X133553333Y-102285714D01*
X133362857Y-102238095D01*
X133267619Y-102190476D01*
X133220000Y-102142857D01*
X133172380Y-102047619D01*
X133172380Y-101095238D02*
X133172380Y-101000000D01*
X133220000Y-100904761D01*
X133267619Y-100857142D01*
X133362857Y-100809523D01*
X133553333Y-100761904D01*
X133791428Y-100761904D01*
X133981904Y-100809523D01*
X134077142Y-100857142D01*
X134124761Y-100904761D01*
X134172380Y-101000000D01*
X134172380Y-101095238D01*
X134124761Y-101190476D01*
X134077142Y-101238095D01*
X133981904Y-101285714D01*
X133791428Y-101333333D01*
X133553333Y-101333333D01*
X133362857Y-101285714D01*
X133267619Y-101238095D01*
X133220000Y-101190476D01*
X133172380Y-101095238D01*
D11*
X132261904Y-103014285D02*
X131880952Y-103280952D01*
X132261904Y-103471428D02*
X131461904Y-103471428D01*
X131461904Y-103166666D01*
X131500000Y-103090476D01*
X131538095Y-103052380D01*
X131614285Y-103014285D01*
X131728571Y-103014285D01*
X131804761Y-103052380D01*
X131842857Y-103090476D01*
X131880952Y-103166666D01*
X131880952Y-103471428D01*
X132261904Y-102252380D02*
X132261904Y-102709523D01*
X132261904Y-102480952D02*
X131461904Y-102480952D01*
X131576190Y-102557142D01*
X131652380Y-102633333D01*
X131690476Y-102709523D01*
X131538095Y-101947619D02*
X131500000Y-101909523D01*
X131461904Y-101833333D01*
X131461904Y-101642857D01*
X131500000Y-101566666D01*
X131538095Y-101528571D01*
X131614285Y-101490476D01*
X131690476Y-101490476D01*
X131804761Y-101528571D01*
X132261904Y-101985714D01*
X132261904Y-101490476D01*
D12*
X123182380Y-80047619D02*
X123182380Y-79952380D01*
X123230000Y-79857142D01*
X123277619Y-79809523D01*
X123372857Y-79761904D01*
X123563333Y-79714285D01*
X123801428Y-79714285D01*
X123991904Y-79761904D01*
X124087142Y-79809523D01*
X124134761Y-79857142D01*
X124182380Y-79952380D01*
X124182380Y-80047619D01*
X124134761Y-80142857D01*
X124087142Y-80190476D01*
X123991904Y-80238095D01*
X123801428Y-80285714D01*
X123563333Y-80285714D01*
X123372857Y-80238095D01*
X123277619Y-80190476D01*
X123230000Y-80142857D01*
X123182380Y-80047619D01*
D13*
X122480952Y-80066666D02*
X122290476Y-80200000D01*
X122480952Y-80295238D02*
X122080952Y-80295238D01*
X122080952Y-80142857D01*
X122100000Y-80104761D01*
X122119047Y-80085714D01*
X122157142Y-80066666D01*
X122214285Y-80066666D01*
X122252380Y-80085714D01*
X122271428Y-80104761D01*
X122290476Y-80142857D01*
X122290476Y-80295238D01*
X122080952Y-79704761D02*
X122080952Y-79895238D01*
X122271428Y-79914285D01*
X122252380Y-79895238D01*
X122233333Y-79857142D01*
X122233333Y-79761904D01*
X122252380Y-79723809D01*
X122271428Y-79704761D01*
X122309523Y-79685714D01*
X122404761Y-79685714D01*
X122442857Y-79704761D01*
X122461904Y-79723809D01*
X122480952Y-79761904D01*
X122480952Y-79857142D01*
X122461904Y-79895238D01*
X122442857Y-79914285D01*
D12*
X89023809Y-88997619D02*
X89071428Y-88950000D01*
X89166666Y-88902380D01*
X89404761Y-88902380D01*
X89500000Y-88950000D01*
X89547619Y-88997619D01*
X89595238Y-89092857D01*
X89595238Y-89188095D01*
X89547619Y-89330952D01*
X88976190Y-89902380D01*
X89595238Y-89902380D01*
X90023809Y-89807142D02*
X90071428Y-89854761D01*
X90023809Y-89902380D01*
X89976190Y-89854761D01*
X90023809Y-89807142D01*
X90023809Y-89902380D01*
X90452380Y-88997619D02*
X90500000Y-88950000D01*
X90595238Y-88902380D01*
X90833333Y-88902380D01*
X90928571Y-88950000D01*
X90976190Y-88997619D01*
X91023809Y-89092857D01*
X91023809Y-89188095D01*
X90976190Y-89330952D01*
X90404761Y-89902380D01*
X91023809Y-89902380D01*
X91880952Y-89235714D02*
X91880952Y-89902380D01*
X91452380Y-89235714D02*
X91452380Y-89759523D01*
X91500000Y-89854761D01*
X91595238Y-89902380D01*
X91738095Y-89902380D01*
X91833333Y-89854761D01*
X91880952Y-89807142D01*
X92357142Y-89902380D02*
X92357142Y-88902380D01*
X92357142Y-89378571D02*
X92928571Y-89378571D01*
X92928571Y-89902380D02*
X92928571Y-88902380D01*
X90833333Y-85452380D02*
X90357142Y-85452380D01*
X90357142Y-84452380D01*
X91690476Y-85452380D02*
X91119047Y-85452380D01*
X91404761Y-85452380D02*
X91404761Y-84452380D01*
X91309523Y-84595238D01*
X91214285Y-84690476D01*
X91119047Y-84738095D01*
X138142857Y-109652380D02*
X137809523Y-109176190D01*
X137571428Y-109652380D02*
X137571428Y-108652380D01*
X137952380Y-108652380D01*
X138047619Y-108700000D01*
X138095238Y-108747619D01*
X138142857Y-108842857D01*
X138142857Y-108985714D01*
X138095238Y-109080952D01*
X138047619Y-109128571D01*
X137952380Y-109176190D01*
X137571428Y-109176190D01*
X138571428Y-109652380D02*
X138571428Y-108985714D01*
X138571428Y-108652380D02*
X138523809Y-108700000D01*
X138571428Y-108747619D01*
X138619047Y-108700000D01*
X138571428Y-108652380D01*
X138571428Y-108747619D01*
X139476190Y-108985714D02*
X139476190Y-109795238D01*
X139428571Y-109890476D01*
X139380952Y-109938095D01*
X139285714Y-109985714D01*
X139142857Y-109985714D01*
X139047619Y-109938095D01*
X139476190Y-109604761D02*
X139380952Y-109652380D01*
X139190476Y-109652380D01*
X139095238Y-109604761D01*
X139047619Y-109557142D01*
X139000000Y-109461904D01*
X139000000Y-109176190D01*
X139047619Y-109080952D01*
X139095238Y-109033333D01*
X139190476Y-108985714D01*
X139380952Y-108985714D01*
X139476190Y-109033333D01*
X139952380Y-109652380D02*
X139952380Y-108652380D01*
X140380952Y-109652380D02*
X140380952Y-109128571D01*
X140333333Y-109033333D01*
X140238095Y-108985714D01*
X140095238Y-108985714D01*
X140000000Y-109033333D01*
X139952380Y-109080952D01*
X140714285Y-108985714D02*
X141095238Y-108985714D01*
X140857142Y-108652380D02*
X140857142Y-109509523D01*
X140904761Y-109604761D01*
X141000000Y-109652380D01*
X141095238Y-109652380D01*
X141190476Y-109747619D02*
X141952380Y-109747619D01*
X142761904Y-109557142D02*
X142714285Y-109604761D01*
X142571428Y-109652380D01*
X142476190Y-109652380D01*
X142333333Y-109604761D01*
X142238095Y-109509523D01*
X142190476Y-109414285D01*
X142142857Y-109223809D01*
X142142857Y-109080952D01*
X142190476Y-108890476D01*
X142238095Y-108795238D01*
X142333333Y-108700000D01*
X142476190Y-108652380D01*
X142571428Y-108652380D01*
X142714285Y-108700000D01*
X142761904Y-108747619D01*
X143333333Y-109652380D02*
X143238095Y-109604761D01*
X143190476Y-109557142D01*
X143142857Y-109461904D01*
X143142857Y-109176190D01*
X143190476Y-109080952D01*
X143238095Y-109033333D01*
X143333333Y-108985714D01*
X143476190Y-108985714D01*
X143571428Y-109033333D01*
X143619047Y-109080952D01*
X143666666Y-109176190D01*
X143666666Y-109461904D01*
X143619047Y-109557142D01*
X143571428Y-109604761D01*
X143476190Y-109652380D01*
X143333333Y-109652380D01*
X144095238Y-108985714D02*
X144095238Y-109652380D01*
X144095238Y-109080952D02*
X144142857Y-109033333D01*
X144238095Y-108985714D01*
X144380952Y-108985714D01*
X144476190Y-109033333D01*
X144523809Y-109128571D01*
X144523809Y-109652380D01*
X145000000Y-108985714D02*
X145000000Y-109652380D01*
X145000000Y-109080952D02*
X145047619Y-109033333D01*
X145142857Y-108985714D01*
X145285714Y-108985714D01*
X145380952Y-109033333D01*
X145428571Y-109128571D01*
X145428571Y-109652380D01*
X141855476Y-106452380D02*
X141855476Y-107166666D01*
X141807857Y-107309523D01*
X141712619Y-107404761D01*
X141569761Y-107452380D01*
X141474523Y-107452380D01*
X142855476Y-107452380D02*
X142284047Y-107452380D01*
X142569761Y-107452380D02*
X142569761Y-106452380D01*
X142474523Y-106595238D01*
X142379285Y-106690476D01*
X142284047Y-106738095D01*
X143188809Y-106452380D02*
X143807857Y-106452380D01*
X143474523Y-106833333D01*
X143617380Y-106833333D01*
X143712619Y-106880952D01*
X143760238Y-106928571D01*
X143807857Y-107023809D01*
X143807857Y-107261904D01*
X143760238Y-107357142D01*
X143712619Y-107404761D01*
X143617380Y-107452380D01*
X143331666Y-107452380D01*
X143236428Y-107404761D01*
X143188809Y-107357142D01*
X139071428Y-71152380D02*
X138595238Y-71152380D01*
X138595238Y-70152380D01*
X139785714Y-71104761D02*
X139690476Y-71152380D01*
X139500000Y-71152380D01*
X139404761Y-71104761D01*
X139357142Y-71009523D01*
X139357142Y-70628571D01*
X139404761Y-70533333D01*
X139500000Y-70485714D01*
X139690476Y-70485714D01*
X139785714Y-70533333D01*
X139833333Y-70628571D01*
X139833333Y-70723809D01*
X139357142Y-70819047D01*
X140119047Y-70485714D02*
X140500000Y-70485714D01*
X140261904Y-71152380D02*
X140261904Y-70295238D01*
X140309523Y-70200000D01*
X140404761Y-70152380D01*
X140500000Y-70152380D01*
X140690476Y-70485714D02*
X141071428Y-70485714D01*
X140833333Y-70152380D02*
X140833333Y-71009523D01*
X140880952Y-71104761D01*
X140976190Y-71152380D01*
X141071428Y-71152380D01*
X141166666Y-71247619D02*
X141928571Y-71247619D01*
X142738095Y-71057142D02*
X142690476Y-71104761D01*
X142547619Y-71152380D01*
X142452380Y-71152380D01*
X142309523Y-71104761D01*
X142214285Y-71009523D01*
X142166666Y-70914285D01*
X142119047Y-70723809D01*
X142119047Y-70580952D01*
X142166666Y-70390476D01*
X142214285Y-70295238D01*
X142309523Y-70200000D01*
X142452380Y-70152380D01*
X142547619Y-70152380D01*
X142690476Y-70200000D01*
X142738095Y-70247619D01*
X143309523Y-71152380D02*
X143214285Y-71104761D01*
X143166666Y-71057142D01*
X143119047Y-70961904D01*
X143119047Y-70676190D01*
X143166666Y-70580952D01*
X143214285Y-70533333D01*
X143309523Y-70485714D01*
X143452380Y-70485714D01*
X143547619Y-70533333D01*
X143595238Y-70580952D01*
X143642857Y-70676190D01*
X143642857Y-70961904D01*
X143595238Y-71057142D01*
X143547619Y-71104761D01*
X143452380Y-71152380D01*
X143309523Y-71152380D01*
X144071428Y-70485714D02*
X144071428Y-71152380D01*
X144071428Y-70580952D02*
X144119047Y-70533333D01*
X144214285Y-70485714D01*
X144357142Y-70485714D01*
X144452380Y-70533333D01*
X144500000Y-70628571D01*
X144500000Y-71152380D01*
X144976190Y-70485714D02*
X144976190Y-71152380D01*
X144976190Y-70580952D02*
X145023809Y-70533333D01*
X145119047Y-70485714D01*
X145261904Y-70485714D01*
X145357142Y-70533333D01*
X145404761Y-70628571D01*
X145404761Y-71152380D01*
X141855476Y-72452380D02*
X141855476Y-73166666D01*
X141807857Y-73309523D01*
X141712619Y-73404761D01*
X141569761Y-73452380D01*
X141474523Y-73452380D01*
X142855476Y-73452380D02*
X142284047Y-73452380D01*
X142569761Y-73452380D02*
X142569761Y-72452380D01*
X142474523Y-72595238D01*
X142379285Y-72690476D01*
X142284047Y-72738095D01*
X143236428Y-72547619D02*
X143284047Y-72500000D01*
X143379285Y-72452380D01*
X143617380Y-72452380D01*
X143712619Y-72500000D01*
X143760238Y-72547619D01*
X143807857Y-72642857D01*
X143807857Y-72738095D01*
X143760238Y-72880952D01*
X143188809Y-73452380D01*
X143807857Y-73452380D01*
X113176190Y-67814880D02*
X113176190Y-68624404D01*
X113223809Y-68719642D01*
X113271428Y-68767261D01*
X113366666Y-68814880D01*
X113557142Y-68814880D01*
X113652380Y-68767261D01*
X113700000Y-68719642D01*
X113747619Y-68624404D01*
X113747619Y-67814880D01*
X114176190Y-68767261D02*
X114319047Y-68814880D01*
X114557142Y-68814880D01*
X114652380Y-68767261D01*
X114700000Y-68719642D01*
X114747619Y-68624404D01*
X114747619Y-68529166D01*
X114700000Y-68433928D01*
X114652380Y-68386309D01*
X114557142Y-68338690D01*
X114366666Y-68291071D01*
X114271428Y-68243452D01*
X114223809Y-68195833D01*
X114176190Y-68100595D01*
X114176190Y-68005357D01*
X114223809Y-67910119D01*
X114271428Y-67862500D01*
X114366666Y-67814880D01*
X114604761Y-67814880D01*
X114747619Y-67862500D01*
X115509523Y-68291071D02*
X115652380Y-68338690D01*
X115700000Y-68386309D01*
X115747619Y-68481547D01*
X115747619Y-68624404D01*
X115700000Y-68719642D01*
X115652380Y-68767261D01*
X115557142Y-68814880D01*
X115176190Y-68814880D01*
X115176190Y-67814880D01*
X115509523Y-67814880D01*
X115604761Y-67862500D01*
X115652380Y-67910119D01*
X115700000Y-68005357D01*
X115700000Y-68100595D01*
X115652380Y-68195833D01*
X115604761Y-68243452D01*
X115509523Y-68291071D01*
X115176190Y-68291071D01*
X115938095Y-68910119D02*
X116700000Y-68910119D01*
X117271428Y-68291071D02*
X117414285Y-68338690D01*
X117461904Y-68386309D01*
X117509523Y-68481547D01*
X117509523Y-68624404D01*
X117461904Y-68719642D01*
X117414285Y-68767261D01*
X117319047Y-68814880D01*
X116938095Y-68814880D01*
X116938095Y-67814880D01*
X117271428Y-67814880D01*
X117366666Y-67862500D01*
X117414285Y-67910119D01*
X117461904Y-68005357D01*
X117461904Y-68100595D01*
X117414285Y-68195833D01*
X117366666Y-68243452D01*
X117271428Y-68291071D01*
X116938095Y-68291071D01*
X117700000Y-68910119D02*
X118461904Y-68910119D01*
X118700000Y-68814880D02*
X118700000Y-67814880D01*
X119033333Y-68529166D01*
X119366666Y-67814880D01*
X119366666Y-68814880D01*
X119842857Y-68814880D02*
X119842857Y-68148214D01*
X119842857Y-67814880D02*
X119795238Y-67862500D01*
X119842857Y-67910119D01*
X119890476Y-67862500D01*
X119842857Y-67814880D01*
X119842857Y-67910119D01*
X120747619Y-68767261D02*
X120652380Y-68814880D01*
X120461904Y-68814880D01*
X120366666Y-68767261D01*
X120319047Y-68719642D01*
X120271428Y-68624404D01*
X120271428Y-68338690D01*
X120319047Y-68243452D01*
X120366666Y-68195833D01*
X120461904Y-68148214D01*
X120652380Y-68148214D01*
X120747619Y-68195833D01*
X121176190Y-68814880D02*
X121176190Y-68148214D01*
X121176190Y-68338690D02*
X121223809Y-68243452D01*
X121271428Y-68195833D01*
X121366666Y-68148214D01*
X121461904Y-68148214D01*
X121938095Y-68814880D02*
X121842857Y-68767261D01*
X121795238Y-68719642D01*
X121747619Y-68624404D01*
X121747619Y-68338690D01*
X121795238Y-68243452D01*
X121842857Y-68195833D01*
X121938095Y-68148214D01*
X122080952Y-68148214D01*
X122176190Y-68195833D01*
X122223809Y-68243452D01*
X122271428Y-68338690D01*
X122271428Y-68624404D01*
X122223809Y-68719642D01*
X122176190Y-68767261D01*
X122080952Y-68814880D01*
X121938095Y-68814880D01*
X117666666Y-71264880D02*
X117666666Y-71979166D01*
X117619047Y-72122023D01*
X117523809Y-72217261D01*
X117380952Y-72264880D01*
X117285714Y-72264880D01*
X118619047Y-71264880D02*
X118142857Y-71264880D01*
X118095238Y-71741071D01*
X118142857Y-71693452D01*
X118238095Y-71645833D01*
X118476190Y-71645833D01*
X118571428Y-71693452D01*
X118619047Y-71741071D01*
X118666666Y-71836309D01*
X118666666Y-72074404D01*
X118619047Y-72169642D01*
X118571428Y-72217261D01*
X118476190Y-72264880D01*
X118238095Y-72264880D01*
X118142857Y-72217261D01*
X118095238Y-72169642D01*
X111133333Y-103293571D02*
X111276190Y-103341190D01*
X111323809Y-103388809D01*
X111371428Y-103484047D01*
X111371428Y-103626904D01*
X111323809Y-103722142D01*
X111276190Y-103769761D01*
X111180952Y-103817380D01*
X110800000Y-103817380D01*
X110800000Y-102817380D01*
X111133333Y-102817380D01*
X111228571Y-102865000D01*
X111276190Y-102912619D01*
X111323809Y-103007857D01*
X111323809Y-103103095D01*
X111276190Y-103198333D01*
X111228571Y-103245952D01*
X111133333Y-103293571D01*
X110800000Y-103293571D01*
X111942857Y-103817380D02*
X111847619Y-103769761D01*
X111800000Y-103722142D01*
X111752380Y-103626904D01*
X111752380Y-103341190D01*
X111800000Y-103245952D01*
X111847619Y-103198333D01*
X111942857Y-103150714D01*
X112085714Y-103150714D01*
X112180952Y-103198333D01*
X112228571Y-103245952D01*
X112276190Y-103341190D01*
X112276190Y-103626904D01*
X112228571Y-103722142D01*
X112180952Y-103769761D01*
X112085714Y-103817380D01*
X111942857Y-103817380D01*
X112847619Y-103817380D02*
X112752380Y-103769761D01*
X112704761Y-103722142D01*
X112657142Y-103626904D01*
X112657142Y-103341190D01*
X112704761Y-103245952D01*
X112752380Y-103198333D01*
X112847619Y-103150714D01*
X112990476Y-103150714D01*
X113085714Y-103198333D01*
X113133333Y-103245952D01*
X113180952Y-103341190D01*
X113180952Y-103626904D01*
X113133333Y-103722142D01*
X113085714Y-103769761D01*
X112990476Y-103817380D01*
X112847619Y-103817380D01*
X113466666Y-103150714D02*
X113847619Y-103150714D01*
X113609523Y-102817380D02*
X113609523Y-103674523D01*
X113657142Y-103769761D01*
X113752380Y-103817380D01*
X113847619Y-103817380D01*
X114371428Y-102817380D02*
X114466666Y-102817380D01*
X114561904Y-102865000D01*
X114609523Y-102912619D01*
X114657142Y-103007857D01*
X114704761Y-103198333D01*
X114704761Y-103436428D01*
X114657142Y-103626904D01*
X114609523Y-103722142D01*
X114561904Y-103769761D01*
X114466666Y-103817380D01*
X114371428Y-103817380D01*
X114276190Y-103769761D01*
X114228571Y-103722142D01*
X114180952Y-103626904D01*
X114133333Y-103436428D01*
X114133333Y-103198333D01*
X114180952Y-103007857D01*
X114228571Y-102912619D01*
X114276190Y-102865000D01*
X114371428Y-102817380D01*
X114895238Y-103912619D02*
X115657142Y-103912619D01*
X116180952Y-102817380D02*
X116180952Y-103531666D01*
X116133333Y-103674523D01*
X116038095Y-103769761D01*
X115895238Y-103817380D01*
X115800000Y-103817380D01*
X117085714Y-103150714D02*
X117085714Y-103817380D01*
X116657142Y-103150714D02*
X116657142Y-103674523D01*
X116704761Y-103769761D01*
X116800000Y-103817380D01*
X116942857Y-103817380D01*
X117038095Y-103769761D01*
X117085714Y-103722142D01*
X117561904Y-103817380D02*
X117561904Y-103150714D01*
X117561904Y-103245952D02*
X117609523Y-103198333D01*
X117704761Y-103150714D01*
X117847619Y-103150714D01*
X117942857Y-103198333D01*
X117990476Y-103293571D01*
X117990476Y-103817380D01*
X117990476Y-103293571D02*
X118038095Y-103198333D01*
X118133333Y-103150714D01*
X118276190Y-103150714D01*
X118371428Y-103198333D01*
X118419047Y-103293571D01*
X118419047Y-103817380D01*
X118895238Y-103150714D02*
X118895238Y-104150714D01*
X118895238Y-103198333D02*
X118990476Y-103150714D01*
X119180952Y-103150714D01*
X119276190Y-103198333D01*
X119323809Y-103245952D01*
X119371428Y-103341190D01*
X119371428Y-103626904D01*
X119323809Y-103722142D01*
X119276190Y-103769761D01*
X119180952Y-103817380D01*
X118990476Y-103817380D01*
X118895238Y-103769761D01*
X120180952Y-103769761D02*
X120085714Y-103817380D01*
X119895238Y-103817380D01*
X119800000Y-103769761D01*
X119752380Y-103674523D01*
X119752380Y-103293571D01*
X119800000Y-103198333D01*
X119895238Y-103150714D01*
X120085714Y-103150714D01*
X120180952Y-103198333D01*
X120228571Y-103293571D01*
X120228571Y-103388809D01*
X119752380Y-103484047D01*
X120657142Y-103817380D02*
X120657142Y-103150714D01*
X120657142Y-103341190D02*
X120704761Y-103245952D01*
X120752380Y-103198333D01*
X120847619Y-103150714D01*
X120942857Y-103150714D01*
X115252380Y-101368333D02*
X115966666Y-101368333D01*
X116109523Y-101415952D01*
X116204761Y-101511190D01*
X116252380Y-101654047D01*
X116252380Y-101749285D01*
X115347619Y-100939761D02*
X115300000Y-100892142D01*
X115252380Y-100796904D01*
X115252380Y-100558809D01*
X115300000Y-100463571D01*
X115347619Y-100415952D01*
X115442857Y-100368333D01*
X115538095Y-100368333D01*
X115680952Y-100415952D01*
X116252380Y-100987380D01*
X116252380Y-100368333D01*
X103152380Y-86571428D02*
X103152380Y-87142857D01*
X103152380Y-86857142D02*
X102152380Y-86857142D01*
X102295238Y-86952380D01*
X102390476Y-87047619D01*
X102438095Y-87142857D01*
X102152380Y-85952380D02*
X102152380Y-85857142D01*
X102200000Y-85761904D01*
X102247619Y-85714285D01*
X102342857Y-85666666D01*
X102533333Y-85619047D01*
X102771428Y-85619047D01*
X102961904Y-85666666D01*
X103057142Y-85714285D01*
X103104761Y-85761904D01*
X103152380Y-85857142D01*
X103152380Y-85952380D01*
X103104761Y-86047619D01*
X103057142Y-86095238D01*
X102961904Y-86142857D01*
X102771428Y-86190476D01*
X102533333Y-86190476D01*
X102342857Y-86142857D01*
X102247619Y-86095238D01*
X102200000Y-86047619D01*
X102152380Y-85952380D01*
X102485714Y-84761904D02*
X103152380Y-84761904D01*
X102485714Y-85190476D02*
X103009523Y-85190476D01*
X103104761Y-85142857D01*
X103152380Y-85047619D01*
X103152380Y-84904761D01*
X103104761Y-84809523D01*
X103057142Y-84761904D01*
X102628571Y-83952380D02*
X102628571Y-84285714D01*
X103152380Y-84285714D02*
X102152380Y-84285714D01*
X102152380Y-83809523D01*
D11*
X99785714Y-85633333D02*
X99823809Y-85671428D01*
X99861904Y-85785714D01*
X99861904Y-85861904D01*
X99823809Y-85976190D01*
X99747619Y-86052380D01*
X99671428Y-86090476D01*
X99519047Y-86128571D01*
X99404761Y-86128571D01*
X99252380Y-86090476D01*
X99176190Y-86052380D01*
X99100000Y-85976190D01*
X99061904Y-85861904D01*
X99061904Y-85785714D01*
X99100000Y-85671428D01*
X99138095Y-85633333D01*
X99861904Y-85252380D02*
X99861904Y-85100000D01*
X99823809Y-85023809D01*
X99785714Y-84985714D01*
X99671428Y-84909523D01*
X99519047Y-84871428D01*
X99214285Y-84871428D01*
X99138095Y-84909523D01*
X99100000Y-84947619D01*
X99061904Y-85023809D01*
X99061904Y-85176190D01*
X99100000Y-85252380D01*
X99138095Y-85290476D01*
X99214285Y-85328571D01*
X99404761Y-85328571D01*
X99480952Y-85290476D01*
X99519047Y-85252380D01*
X99557142Y-85176190D01*
X99557142Y-85023809D01*
X99519047Y-84947619D01*
X99480952Y-84909523D01*
X99404761Y-84871428D01*
D12*
X93505714Y-79404761D02*
X94172380Y-79404761D01*
X93124761Y-79642857D02*
X93839047Y-79880952D01*
X93839047Y-79261904D01*
X94077142Y-78880952D02*
X94124761Y-78833333D01*
X94172380Y-78880952D01*
X94124761Y-78928571D01*
X94077142Y-78880952D01*
X94172380Y-78880952D01*
X93172380Y-78500000D02*
X93172380Y-77833333D01*
X94172380Y-78261904D01*
X93505714Y-77023809D02*
X94172380Y-77023809D01*
X93505714Y-77452380D02*
X94029523Y-77452380D01*
X94124761Y-77404761D01*
X94172380Y-77309523D01*
X94172380Y-77166666D01*
X94124761Y-77071428D01*
X94077142Y-77023809D01*
X93648571Y-76214285D02*
X93648571Y-76547619D01*
X94172380Y-76547619D02*
X93172380Y-76547619D01*
X93172380Y-76071428D01*
D11*
X96285714Y-78133333D02*
X96323809Y-78171428D01*
X96361904Y-78285714D01*
X96361904Y-78361904D01*
X96323809Y-78476190D01*
X96247619Y-78552380D01*
X96171428Y-78590476D01*
X96019047Y-78628571D01*
X95904761Y-78628571D01*
X95752380Y-78590476D01*
X95676190Y-78552380D01*
X95600000Y-78476190D01*
X95561904Y-78361904D01*
X95561904Y-78285714D01*
X95600000Y-78171428D01*
X95638095Y-78133333D01*
X95904761Y-77676190D02*
X95866666Y-77752380D01*
X95828571Y-77790476D01*
X95752380Y-77828571D01*
X95714285Y-77828571D01*
X95638095Y-77790476D01*
X95600000Y-77752380D01*
X95561904Y-77676190D01*
X95561904Y-77523809D01*
X95600000Y-77447619D01*
X95638095Y-77409523D01*
X95714285Y-77371428D01*
X95752380Y-77371428D01*
X95828571Y-77409523D01*
X95866666Y-77447619D01*
X95904761Y-77523809D01*
X95904761Y-77676190D01*
X95942857Y-77752380D01*
X95980952Y-77790476D01*
X96057142Y-77828571D01*
X96209523Y-77828571D01*
X96285714Y-77790476D01*
X96323809Y-77752380D01*
X96361904Y-77676190D01*
X96361904Y-77523809D01*
X96323809Y-77447619D01*
X96285714Y-77409523D01*
X96209523Y-77371428D01*
X96057142Y-77371428D01*
X95980952Y-77409523D01*
X95942857Y-77447619D01*
X95904761Y-77523809D01*
M02*
