G04 #@! TF.GenerationSoftware,KiCad,Pcbnew,5.99.0-unknown-89e9857~86~ubuntu18.04.1*
G04 #@! TF.CreationDate,2019-10-10T16:09:36-04:00*
G04 #@! TF.ProjectId,node_base,6e6f6465-5f62-4617-9365-2e6b69636164,rev?*
G04 #@! TF.SameCoordinates,Original*
G04 #@! TF.FileFunction,Paste,Top*
G04 #@! TF.FilePolarity,Positive*
%FSLAX46Y46*%
G04 Gerber Fmt 4.6, Leading zero omitted, Abs format (unit mm)*
G04 Created by KiCad (PCBNEW 5.99.0-unknown-89e9857~86~ubuntu18.04.1) date 2019-10-10 16:09:36*
%MOMM*%
%LPD*%
G04 APERTURE LIST*
%ADD10C,0.100000*%
%ADD11C,0.875000*%
%ADD12R,2.000000X2.400000*%
%ADD13C,0.975000*%
%ADD14R,0.500000X0.800000*%
%ADD15R,0.400000X0.800000*%
%ADD16R,1.000000X0.200000*%
%ADD17R,1.100000X0.200000*%
%ADD18R,2.180000X1.600000*%
%ADD19R,0.300000X0.800000*%
%ADD20C,0.950000*%
%ADD21R,0.800000X0.900000*%
%ADD22R,1.500000X1.900000*%
%ADD23R,0.400000X1.350000*%
%ADD24R,0.700000X1.600000*%
%ADD25R,1.600000X1.400000*%
%ADD26R,1.200000X2.200000*%
%ADD27R,1.200000X1.400000*%
%ADD28R,1.000000X1.800000*%
%ADD29C,0.400000*%
%ADD30C,0.600000*%
%ADD31C,0.300000*%
%ADD32R,1.220000X0.650000*%
%ADD33R,0.400000X0.850000*%
%ADD34R,1.600000X2.180000*%
%ADD35C,1.250000*%
%ADD36R,1.500000X2.200000*%
%ADD37R,0.800000X1.000000*%
%ADD38R,1.000000X1.100000*%
%ADD39R,2.300000X1.000000*%
%ADD40C,1.600000*%
G04 APERTURE END LIST*
D10*
G36*
X105839962Y-91479151D02*
G01*
X105910930Y-91526570D01*
X105958349Y-91597538D01*
X105975000Y-91681250D01*
X105975000Y-92118750D01*
X105958349Y-92202462D01*
X105910930Y-92273430D01*
X105839962Y-92320849D01*
X105756250Y-92337500D01*
X105243750Y-92337500D01*
X105160038Y-92320849D01*
X105089070Y-92273430D01*
X105041651Y-92202462D01*
X105025000Y-92118750D01*
X105025000Y-91681250D01*
X105041651Y-91597538D01*
X105089070Y-91526570D01*
X105160038Y-91479151D01*
X105243750Y-91462500D01*
X105756250Y-91462500D01*
X105839962Y-91479151D01*
X105839962Y-91479151D01*
G37*
D11*
X105500000Y-91900000D03*
D10*
G36*
X105839962Y-93054151D02*
G01*
X105910930Y-93101570D01*
X105958349Y-93172538D01*
X105975000Y-93256250D01*
X105975000Y-93693750D01*
X105958349Y-93777462D01*
X105910930Y-93848430D01*
X105839962Y-93895849D01*
X105756250Y-93912500D01*
X105243750Y-93912500D01*
X105160038Y-93895849D01*
X105089070Y-93848430D01*
X105041651Y-93777462D01*
X105025000Y-93693750D01*
X105025000Y-93256250D01*
X105041651Y-93172538D01*
X105089070Y-93101570D01*
X105160038Y-93054151D01*
X105243750Y-93037500D01*
X105756250Y-93037500D01*
X105839962Y-93054151D01*
X105839962Y-93054151D01*
G37*
D11*
X105500000Y-93475000D03*
D12*
X131250000Y-79600000D03*
X127550000Y-79600000D03*
D10*
G36*
X86549529Y-106093554D02*
G01*
X86628607Y-106146393D01*
X86681446Y-106225471D01*
X86700000Y-106318750D01*
X86700000Y-106806250D01*
X86681446Y-106899529D01*
X86628607Y-106978607D01*
X86549529Y-107031446D01*
X86456250Y-107050000D01*
X85543750Y-107050000D01*
X85450471Y-107031446D01*
X85371393Y-106978607D01*
X85318554Y-106899529D01*
X85300000Y-106806250D01*
X85300000Y-106318750D01*
X85318554Y-106225471D01*
X85371393Y-106146393D01*
X85450471Y-106093554D01*
X85543750Y-106075000D01*
X86456250Y-106075000D01*
X86549529Y-106093554D01*
X86549529Y-106093554D01*
G37*
D13*
X86000000Y-106562500D03*
D10*
G36*
X86549529Y-107968554D02*
G01*
X86628607Y-108021393D01*
X86681446Y-108100471D01*
X86700000Y-108193750D01*
X86700000Y-108681250D01*
X86681446Y-108774529D01*
X86628607Y-108853607D01*
X86549529Y-108906446D01*
X86456250Y-108925000D01*
X85543750Y-108925000D01*
X85450471Y-108906446D01*
X85371393Y-108853607D01*
X85318554Y-108774529D01*
X85300000Y-108681250D01*
X85300000Y-108193750D01*
X85318554Y-108100471D01*
X85371393Y-108021393D01*
X85450471Y-107968554D01*
X85543750Y-107950000D01*
X86456250Y-107950000D01*
X86549529Y-107968554D01*
X86549529Y-107968554D01*
G37*
D13*
X86000000Y-108437500D03*
D10*
G36*
X119439962Y-92591651D02*
G01*
X119510930Y-92639070D01*
X119558349Y-92710038D01*
X119575000Y-92793750D01*
X119575000Y-93231250D01*
X119558349Y-93314962D01*
X119510930Y-93385930D01*
X119439962Y-93433349D01*
X119356250Y-93450000D01*
X118843750Y-93450000D01*
X118760038Y-93433349D01*
X118689070Y-93385930D01*
X118641651Y-93314962D01*
X118625000Y-93231250D01*
X118625000Y-92793750D01*
X118641651Y-92710038D01*
X118689070Y-92639070D01*
X118760038Y-92591651D01*
X118843750Y-92575000D01*
X119356250Y-92575000D01*
X119439962Y-92591651D01*
X119439962Y-92591651D01*
G37*
D11*
X119100000Y-93012500D03*
D10*
G36*
X119439962Y-94166651D02*
G01*
X119510930Y-94214070D01*
X119558349Y-94285038D01*
X119575000Y-94368750D01*
X119575000Y-94806250D01*
X119558349Y-94889962D01*
X119510930Y-94960930D01*
X119439962Y-95008349D01*
X119356250Y-95025000D01*
X118843750Y-95025000D01*
X118760038Y-95008349D01*
X118689070Y-94960930D01*
X118641651Y-94889962D01*
X118625000Y-94806250D01*
X118625000Y-94368750D01*
X118641651Y-94285038D01*
X118689070Y-94214070D01*
X118760038Y-94166651D01*
X118843750Y-94150000D01*
X119356250Y-94150000D01*
X119439962Y-94166651D01*
X119439962Y-94166651D01*
G37*
D11*
X119100000Y-94587500D03*
D10*
G36*
X121039962Y-92591651D02*
G01*
X121110930Y-92639070D01*
X121158349Y-92710038D01*
X121175000Y-92793750D01*
X121175000Y-93231250D01*
X121158349Y-93314962D01*
X121110930Y-93385930D01*
X121039962Y-93433349D01*
X120956250Y-93450000D01*
X120443750Y-93450000D01*
X120360038Y-93433349D01*
X120289070Y-93385930D01*
X120241651Y-93314962D01*
X120225000Y-93231250D01*
X120225000Y-92793750D01*
X120241651Y-92710038D01*
X120289070Y-92639070D01*
X120360038Y-92591651D01*
X120443750Y-92575000D01*
X120956250Y-92575000D01*
X121039962Y-92591651D01*
X121039962Y-92591651D01*
G37*
D11*
X120700000Y-93012500D03*
D10*
G36*
X121039962Y-94166651D02*
G01*
X121110930Y-94214070D01*
X121158349Y-94285038D01*
X121175000Y-94368750D01*
X121175000Y-94806250D01*
X121158349Y-94889962D01*
X121110930Y-94960930D01*
X121039962Y-95008349D01*
X120956250Y-95025000D01*
X120443750Y-95025000D01*
X120360038Y-95008349D01*
X120289070Y-94960930D01*
X120241651Y-94889962D01*
X120225000Y-94806250D01*
X120225000Y-94368750D01*
X120241651Y-94285038D01*
X120289070Y-94214070D01*
X120360038Y-94166651D01*
X120443750Y-94150000D01*
X120956250Y-94150000D01*
X121039962Y-94166651D01*
X121039962Y-94166651D01*
G37*
D11*
X120700000Y-94587500D03*
D10*
G36*
X140389962Y-97041651D02*
G01*
X140460930Y-97089070D01*
X140508349Y-97160038D01*
X140525000Y-97243750D01*
X140525000Y-97756250D01*
X140508349Y-97839962D01*
X140460930Y-97910930D01*
X140389962Y-97958349D01*
X140306250Y-97975000D01*
X139868750Y-97975000D01*
X139785038Y-97958349D01*
X139714070Y-97910930D01*
X139666651Y-97839962D01*
X139650000Y-97756250D01*
X139650000Y-97243750D01*
X139666651Y-97160038D01*
X139714070Y-97089070D01*
X139785038Y-97041651D01*
X139868750Y-97025000D01*
X140306250Y-97025000D01*
X140389962Y-97041651D01*
X140389962Y-97041651D01*
G37*
D11*
X140087500Y-97500000D03*
D10*
G36*
X138814962Y-97041651D02*
G01*
X138885930Y-97089070D01*
X138933349Y-97160038D01*
X138950000Y-97243750D01*
X138950000Y-97756250D01*
X138933349Y-97839962D01*
X138885930Y-97910930D01*
X138814962Y-97958349D01*
X138731250Y-97975000D01*
X138293750Y-97975000D01*
X138210038Y-97958349D01*
X138139070Y-97910930D01*
X138091651Y-97839962D01*
X138075000Y-97756250D01*
X138075000Y-97243750D01*
X138091651Y-97160038D01*
X138139070Y-97089070D01*
X138210038Y-97041651D01*
X138293750Y-97025000D01*
X138731250Y-97025000D01*
X138814962Y-97041651D01*
X138814962Y-97041651D01*
G37*
D11*
X138512500Y-97500000D03*
D10*
G36*
X140389962Y-98641651D02*
G01*
X140460930Y-98689070D01*
X140508349Y-98760038D01*
X140525000Y-98843750D01*
X140525000Y-99356250D01*
X140508349Y-99439962D01*
X140460930Y-99510930D01*
X140389962Y-99558349D01*
X140306250Y-99575000D01*
X139868750Y-99575000D01*
X139785038Y-99558349D01*
X139714070Y-99510930D01*
X139666651Y-99439962D01*
X139650000Y-99356250D01*
X139650000Y-98843750D01*
X139666651Y-98760038D01*
X139714070Y-98689070D01*
X139785038Y-98641651D01*
X139868750Y-98625000D01*
X140306250Y-98625000D01*
X140389962Y-98641651D01*
X140389962Y-98641651D01*
G37*
D11*
X140087500Y-99100000D03*
D10*
G36*
X138814962Y-98641651D02*
G01*
X138885930Y-98689070D01*
X138933349Y-98760038D01*
X138950000Y-98843750D01*
X138950000Y-99356250D01*
X138933349Y-99439962D01*
X138885930Y-99510930D01*
X138814962Y-99558349D01*
X138731250Y-99575000D01*
X138293750Y-99575000D01*
X138210038Y-99558349D01*
X138139070Y-99510930D01*
X138091651Y-99439962D01*
X138075000Y-99356250D01*
X138075000Y-98843750D01*
X138091651Y-98760038D01*
X138139070Y-98689070D01*
X138210038Y-98641651D01*
X138293750Y-98625000D01*
X138731250Y-98625000D01*
X138814962Y-98641651D01*
X138814962Y-98641651D01*
G37*
D11*
X138512500Y-99100000D03*
D14*
X90700000Y-104400000D03*
D15*
X91500000Y-104400000D03*
D14*
X93100000Y-104400000D03*
D15*
X92300000Y-104400000D03*
D14*
X90700000Y-102600000D03*
D15*
X92300000Y-102600000D03*
X91500000Y-102600000D03*
D14*
X93100000Y-102600000D03*
D16*
X140500000Y-90800000D03*
X140500000Y-90400000D03*
X140500000Y-90000000D03*
X140500000Y-89600000D03*
X140500000Y-89200000D03*
X140500000Y-88800000D03*
X140500000Y-88400000D03*
X140500000Y-88000000D03*
X140500000Y-87600000D03*
X140500000Y-87200000D03*
X142300000Y-87200000D03*
X142300000Y-87600000D03*
X142300000Y-88000000D03*
X142300000Y-88400000D03*
X142300000Y-88800000D03*
X142300000Y-89200000D03*
X142300000Y-89600000D03*
X142300000Y-90000000D03*
X142300000Y-90400000D03*
D17*
X142250000Y-90800000D03*
D18*
X88210000Y-92300000D03*
X97390000Y-92300000D03*
D19*
X101050000Y-93600000D03*
X102050000Y-93600000D03*
X101550000Y-93600000D03*
X102550000Y-93600000D03*
X103050000Y-93600000D03*
X103550000Y-93600000D03*
X101050000Y-91800000D03*
X101550000Y-91800000D03*
X102050000Y-91800000D03*
X102550000Y-91800000D03*
X103050000Y-91800000D03*
X103550000Y-91800000D03*
X100550000Y-93600000D03*
X100550000Y-91800000D03*
X104050000Y-93600000D03*
X104050000Y-91800000D03*
X106550000Y-86100000D03*
X105550000Y-86100000D03*
X106050000Y-86100000D03*
X105050000Y-86100000D03*
X104550000Y-86100000D03*
X104050000Y-86100000D03*
X106550000Y-87900000D03*
X106050000Y-87900000D03*
X105550000Y-87900000D03*
X105050000Y-87900000D03*
X104550000Y-87900000D03*
X104050000Y-87900000D03*
X107050000Y-86100000D03*
X107050000Y-87900000D03*
X103550000Y-86100000D03*
X103550000Y-87900000D03*
D10*
G36*
X93253387Y-100118079D02*
G01*
X93330438Y-100169562D01*
X93381921Y-100246613D01*
X93400000Y-100337500D01*
X93400000Y-100812500D01*
X93381921Y-100903387D01*
X93330438Y-100980438D01*
X93253387Y-101031921D01*
X93162500Y-101050000D01*
X92587500Y-101050000D01*
X92496613Y-101031921D01*
X92419562Y-100980438D01*
X92368079Y-100903387D01*
X92350000Y-100812500D01*
X92350000Y-100337500D01*
X92368079Y-100246613D01*
X92419562Y-100169562D01*
X92496613Y-100118079D01*
X92587500Y-100100000D01*
X93162500Y-100100000D01*
X93253387Y-100118079D01*
X93253387Y-100118079D01*
G37*
D20*
X92875000Y-100575000D03*
D10*
G36*
X91503387Y-100118079D02*
G01*
X91580438Y-100169562D01*
X91631921Y-100246613D01*
X91650000Y-100337500D01*
X91650000Y-100812500D01*
X91631921Y-100903387D01*
X91580438Y-100980438D01*
X91503387Y-101031921D01*
X91412500Y-101050000D01*
X90837500Y-101050000D01*
X90746613Y-101031921D01*
X90669562Y-100980438D01*
X90618079Y-100903387D01*
X90600000Y-100812500D01*
X90600000Y-100337500D01*
X90618079Y-100246613D01*
X90669562Y-100169562D01*
X90746613Y-100118079D01*
X90837500Y-100100000D01*
X91412500Y-100100000D01*
X91503387Y-100118079D01*
X91503387Y-100118079D01*
G37*
D20*
X91125000Y-100575000D03*
D10*
G36*
X124027462Y-102141651D02*
G01*
X124098430Y-102189070D01*
X124145849Y-102260038D01*
X124162500Y-102343750D01*
X124162500Y-102856250D01*
X124145849Y-102939962D01*
X124098430Y-103010930D01*
X124027462Y-103058349D01*
X123943750Y-103075000D01*
X123506250Y-103075000D01*
X123422538Y-103058349D01*
X123351570Y-103010930D01*
X123304151Y-102939962D01*
X123287500Y-102856250D01*
X123287500Y-102343750D01*
X123304151Y-102260038D01*
X123351570Y-102189070D01*
X123422538Y-102141651D01*
X123506250Y-102125000D01*
X123943750Y-102125000D01*
X124027462Y-102141651D01*
X124027462Y-102141651D01*
G37*
D11*
X123725000Y-102600000D03*
D10*
G36*
X125602462Y-102141651D02*
G01*
X125673430Y-102189070D01*
X125720849Y-102260038D01*
X125737500Y-102343750D01*
X125737500Y-102856250D01*
X125720849Y-102939962D01*
X125673430Y-103010930D01*
X125602462Y-103058349D01*
X125518750Y-103075000D01*
X125081250Y-103075000D01*
X124997538Y-103058349D01*
X124926570Y-103010930D01*
X124879151Y-102939962D01*
X124862500Y-102856250D01*
X124862500Y-102343750D01*
X124879151Y-102260038D01*
X124926570Y-102189070D01*
X124997538Y-102141651D01*
X125081250Y-102125000D01*
X125518750Y-102125000D01*
X125602462Y-102141651D01*
X125602462Y-102141651D01*
G37*
D11*
X125300000Y-102600000D03*
D10*
G36*
X124027462Y-103741651D02*
G01*
X124098430Y-103789070D01*
X124145849Y-103860038D01*
X124162500Y-103943750D01*
X124162500Y-104456250D01*
X124145849Y-104539962D01*
X124098430Y-104610930D01*
X124027462Y-104658349D01*
X123943750Y-104675000D01*
X123506250Y-104675000D01*
X123422538Y-104658349D01*
X123351570Y-104610930D01*
X123304151Y-104539962D01*
X123287500Y-104456250D01*
X123287500Y-103943750D01*
X123304151Y-103860038D01*
X123351570Y-103789070D01*
X123422538Y-103741651D01*
X123506250Y-103725000D01*
X123943750Y-103725000D01*
X124027462Y-103741651D01*
X124027462Y-103741651D01*
G37*
D11*
X123725000Y-104200000D03*
D10*
G36*
X125602462Y-103741651D02*
G01*
X125673430Y-103789070D01*
X125720849Y-103860038D01*
X125737500Y-103943750D01*
X125737500Y-104456250D01*
X125720849Y-104539962D01*
X125673430Y-104610930D01*
X125602462Y-104658349D01*
X125518750Y-104675000D01*
X125081250Y-104675000D01*
X124997538Y-104658349D01*
X124926570Y-104610930D01*
X124879151Y-104539962D01*
X124862500Y-104456250D01*
X124862500Y-103943750D01*
X124879151Y-103860038D01*
X124926570Y-103789070D01*
X124997538Y-103741651D01*
X125081250Y-103725000D01*
X125518750Y-103725000D01*
X125602462Y-103741651D01*
X125602462Y-103741651D01*
G37*
D11*
X125300000Y-104200000D03*
D10*
G36*
X124414962Y-73241651D02*
G01*
X124485930Y-73289070D01*
X124533349Y-73360038D01*
X124550000Y-73443750D01*
X124550000Y-73956250D01*
X124533349Y-74039962D01*
X124485930Y-74110930D01*
X124414962Y-74158349D01*
X124331250Y-74175000D01*
X123893750Y-74175000D01*
X123810038Y-74158349D01*
X123739070Y-74110930D01*
X123691651Y-74039962D01*
X123675000Y-73956250D01*
X123675000Y-73443750D01*
X123691651Y-73360038D01*
X123739070Y-73289070D01*
X123810038Y-73241651D01*
X123893750Y-73225000D01*
X124331250Y-73225000D01*
X124414962Y-73241651D01*
X124414962Y-73241651D01*
G37*
D11*
X124112500Y-73700000D03*
D10*
G36*
X125989962Y-73241651D02*
G01*
X126060930Y-73289070D01*
X126108349Y-73360038D01*
X126125000Y-73443750D01*
X126125000Y-73956250D01*
X126108349Y-74039962D01*
X126060930Y-74110930D01*
X125989962Y-74158349D01*
X125906250Y-74175000D01*
X125468750Y-74175000D01*
X125385038Y-74158349D01*
X125314070Y-74110930D01*
X125266651Y-74039962D01*
X125250000Y-73956250D01*
X125250000Y-73443750D01*
X125266651Y-73360038D01*
X125314070Y-73289070D01*
X125385038Y-73241651D01*
X125468750Y-73225000D01*
X125906250Y-73225000D01*
X125989962Y-73241651D01*
X125989962Y-73241651D01*
G37*
D11*
X125687500Y-73700000D03*
D10*
G36*
X124414962Y-71541651D02*
G01*
X124485930Y-71589070D01*
X124533349Y-71660038D01*
X124550000Y-71743750D01*
X124550000Y-72256250D01*
X124533349Y-72339962D01*
X124485930Y-72410930D01*
X124414962Y-72458349D01*
X124331250Y-72475000D01*
X123893750Y-72475000D01*
X123810038Y-72458349D01*
X123739070Y-72410930D01*
X123691651Y-72339962D01*
X123675000Y-72256250D01*
X123675000Y-71743750D01*
X123691651Y-71660038D01*
X123739070Y-71589070D01*
X123810038Y-71541651D01*
X123893750Y-71525000D01*
X124331250Y-71525000D01*
X124414962Y-71541651D01*
X124414962Y-71541651D01*
G37*
D11*
X124112500Y-72000000D03*
D10*
G36*
X125989962Y-71541651D02*
G01*
X126060930Y-71589070D01*
X126108349Y-71660038D01*
X126125000Y-71743750D01*
X126125000Y-72256250D01*
X126108349Y-72339962D01*
X126060930Y-72410930D01*
X125989962Y-72458349D01*
X125906250Y-72475000D01*
X125468750Y-72475000D01*
X125385038Y-72458349D01*
X125314070Y-72410930D01*
X125266651Y-72339962D01*
X125250000Y-72256250D01*
X125250000Y-71743750D01*
X125266651Y-71660038D01*
X125314070Y-71589070D01*
X125385038Y-71541651D01*
X125468750Y-71525000D01*
X125906250Y-71525000D01*
X125989962Y-71541651D01*
X125989962Y-71541651D01*
G37*
D11*
X125687500Y-72000000D03*
D10*
G36*
X116239962Y-94166651D02*
G01*
X116310930Y-94214070D01*
X116358349Y-94285038D01*
X116375000Y-94368750D01*
X116375000Y-94806250D01*
X116358349Y-94889962D01*
X116310930Y-94960930D01*
X116239962Y-95008349D01*
X116156250Y-95025000D01*
X115643750Y-95025000D01*
X115560038Y-95008349D01*
X115489070Y-94960930D01*
X115441651Y-94889962D01*
X115425000Y-94806250D01*
X115425000Y-94368750D01*
X115441651Y-94285038D01*
X115489070Y-94214070D01*
X115560038Y-94166651D01*
X115643750Y-94150000D01*
X116156250Y-94150000D01*
X116239962Y-94166651D01*
X116239962Y-94166651D01*
G37*
D11*
X115900000Y-94587500D03*
D10*
G36*
X116239962Y-92591651D02*
G01*
X116310930Y-92639070D01*
X116358349Y-92710038D01*
X116375000Y-92793750D01*
X116375000Y-93231250D01*
X116358349Y-93314962D01*
X116310930Y-93385930D01*
X116239962Y-93433349D01*
X116156250Y-93450000D01*
X115643750Y-93450000D01*
X115560038Y-93433349D01*
X115489070Y-93385930D01*
X115441651Y-93314962D01*
X115425000Y-93231250D01*
X115425000Y-92793750D01*
X115441651Y-92710038D01*
X115489070Y-92639070D01*
X115560038Y-92591651D01*
X115643750Y-92575000D01*
X116156250Y-92575000D01*
X116239962Y-92591651D01*
X116239962Y-92591651D01*
G37*
D11*
X115900000Y-93012500D03*
D10*
G36*
X117839962Y-87666651D02*
G01*
X117910930Y-87714070D01*
X117958349Y-87785038D01*
X117975000Y-87868750D01*
X117975000Y-88306250D01*
X117958349Y-88389962D01*
X117910930Y-88460930D01*
X117839962Y-88508349D01*
X117756250Y-88525000D01*
X117243750Y-88525000D01*
X117160038Y-88508349D01*
X117089070Y-88460930D01*
X117041651Y-88389962D01*
X117025000Y-88306250D01*
X117025000Y-87868750D01*
X117041651Y-87785038D01*
X117089070Y-87714070D01*
X117160038Y-87666651D01*
X117243750Y-87650000D01*
X117756250Y-87650000D01*
X117839962Y-87666651D01*
X117839962Y-87666651D01*
G37*
D11*
X117500000Y-88087500D03*
D10*
G36*
X117839962Y-86091651D02*
G01*
X117910930Y-86139070D01*
X117958349Y-86210038D01*
X117975000Y-86293750D01*
X117975000Y-86731250D01*
X117958349Y-86814962D01*
X117910930Y-86885930D01*
X117839962Y-86933349D01*
X117756250Y-86950000D01*
X117243750Y-86950000D01*
X117160038Y-86933349D01*
X117089070Y-86885930D01*
X117041651Y-86814962D01*
X117025000Y-86731250D01*
X117025000Y-86293750D01*
X117041651Y-86210038D01*
X117089070Y-86139070D01*
X117160038Y-86091651D01*
X117243750Y-86075000D01*
X117756250Y-86075000D01*
X117839962Y-86091651D01*
X117839962Y-86091651D01*
G37*
D11*
X117500000Y-86512500D03*
D10*
G36*
X116239962Y-87666651D02*
G01*
X116310930Y-87714070D01*
X116358349Y-87785038D01*
X116375000Y-87868750D01*
X116375000Y-88306250D01*
X116358349Y-88389962D01*
X116310930Y-88460930D01*
X116239962Y-88508349D01*
X116156250Y-88525000D01*
X115643750Y-88525000D01*
X115560038Y-88508349D01*
X115489070Y-88460930D01*
X115441651Y-88389962D01*
X115425000Y-88306250D01*
X115425000Y-87868750D01*
X115441651Y-87785038D01*
X115489070Y-87714070D01*
X115560038Y-87666651D01*
X115643750Y-87650000D01*
X116156250Y-87650000D01*
X116239962Y-87666651D01*
X116239962Y-87666651D01*
G37*
D11*
X115900000Y-88087500D03*
D10*
G36*
X116239962Y-86091651D02*
G01*
X116310930Y-86139070D01*
X116358349Y-86210038D01*
X116375000Y-86293750D01*
X116375000Y-86731250D01*
X116358349Y-86814962D01*
X116310930Y-86885930D01*
X116239962Y-86933349D01*
X116156250Y-86950000D01*
X115643750Y-86950000D01*
X115560038Y-86933349D01*
X115489070Y-86885930D01*
X115441651Y-86814962D01*
X115425000Y-86731250D01*
X115425000Y-86293750D01*
X115441651Y-86210038D01*
X115489070Y-86139070D01*
X115560038Y-86091651D01*
X115643750Y-86075000D01*
X116156250Y-86075000D01*
X116239962Y-86091651D01*
X116239962Y-86091651D01*
G37*
D11*
X115900000Y-86512500D03*
D10*
G36*
X118539962Y-101366651D02*
G01*
X118610930Y-101414070D01*
X118658349Y-101485038D01*
X118675000Y-101568750D01*
X118675000Y-102006250D01*
X118658349Y-102089962D01*
X118610930Y-102160930D01*
X118539962Y-102208349D01*
X118456250Y-102225000D01*
X117943750Y-102225000D01*
X117860038Y-102208349D01*
X117789070Y-102160930D01*
X117741651Y-102089962D01*
X117725000Y-102006250D01*
X117725000Y-101568750D01*
X117741651Y-101485038D01*
X117789070Y-101414070D01*
X117860038Y-101366651D01*
X117943750Y-101350000D01*
X118456250Y-101350000D01*
X118539962Y-101366651D01*
X118539962Y-101366651D01*
G37*
D11*
X118200000Y-101787500D03*
D10*
G36*
X118539962Y-99791651D02*
G01*
X118610930Y-99839070D01*
X118658349Y-99910038D01*
X118675000Y-99993750D01*
X118675000Y-100431250D01*
X118658349Y-100514962D01*
X118610930Y-100585930D01*
X118539962Y-100633349D01*
X118456250Y-100650000D01*
X117943750Y-100650000D01*
X117860038Y-100633349D01*
X117789070Y-100585930D01*
X117741651Y-100514962D01*
X117725000Y-100431250D01*
X117725000Y-99993750D01*
X117741651Y-99910038D01*
X117789070Y-99839070D01*
X117860038Y-99791651D01*
X117943750Y-99775000D01*
X118456250Y-99775000D01*
X118539962Y-99791651D01*
X118539962Y-99791651D01*
G37*
D11*
X118200000Y-100212500D03*
D10*
G36*
X100214962Y-77841651D02*
G01*
X100285930Y-77889070D01*
X100333349Y-77960038D01*
X100350000Y-78043750D01*
X100350000Y-78556250D01*
X100333349Y-78639962D01*
X100285930Y-78710930D01*
X100214962Y-78758349D01*
X100131250Y-78775000D01*
X99693750Y-78775000D01*
X99610038Y-78758349D01*
X99539070Y-78710930D01*
X99491651Y-78639962D01*
X99475000Y-78556250D01*
X99475000Y-78043750D01*
X99491651Y-77960038D01*
X99539070Y-77889070D01*
X99610038Y-77841651D01*
X99693750Y-77825000D01*
X100131250Y-77825000D01*
X100214962Y-77841651D01*
X100214962Y-77841651D01*
G37*
D11*
X99912500Y-78300000D03*
D10*
G36*
X101789962Y-77841651D02*
G01*
X101860930Y-77889070D01*
X101908349Y-77960038D01*
X101925000Y-78043750D01*
X101925000Y-78556250D01*
X101908349Y-78639962D01*
X101860930Y-78710930D01*
X101789962Y-78758349D01*
X101706250Y-78775000D01*
X101268750Y-78775000D01*
X101185038Y-78758349D01*
X101114070Y-78710930D01*
X101066651Y-78639962D01*
X101050000Y-78556250D01*
X101050000Y-78043750D01*
X101066651Y-77960038D01*
X101114070Y-77889070D01*
X101185038Y-77841651D01*
X101268750Y-77825000D01*
X101706250Y-77825000D01*
X101789962Y-77841651D01*
X101789962Y-77841651D01*
G37*
D11*
X101487500Y-78300000D03*
D10*
G36*
X101789962Y-76241651D02*
G01*
X101860930Y-76289070D01*
X101908349Y-76360038D01*
X101925000Y-76443750D01*
X101925000Y-76956250D01*
X101908349Y-77039962D01*
X101860930Y-77110930D01*
X101789962Y-77158349D01*
X101706250Y-77175000D01*
X101268750Y-77175000D01*
X101185038Y-77158349D01*
X101114070Y-77110930D01*
X101066651Y-77039962D01*
X101050000Y-76956250D01*
X101050000Y-76443750D01*
X101066651Y-76360038D01*
X101114070Y-76289070D01*
X101185038Y-76241651D01*
X101268750Y-76225000D01*
X101706250Y-76225000D01*
X101789962Y-76241651D01*
X101789962Y-76241651D01*
G37*
D11*
X101487500Y-76700000D03*
D10*
G36*
X100214962Y-76241651D02*
G01*
X100285930Y-76289070D01*
X100333349Y-76360038D01*
X100350000Y-76443750D01*
X100350000Y-76956250D01*
X100333349Y-77039962D01*
X100285930Y-77110930D01*
X100214962Y-77158349D01*
X100131250Y-77175000D01*
X99693750Y-77175000D01*
X99610038Y-77158349D01*
X99539070Y-77110930D01*
X99491651Y-77039962D01*
X99475000Y-76956250D01*
X99475000Y-76443750D01*
X99491651Y-76360038D01*
X99539070Y-76289070D01*
X99610038Y-76241651D01*
X99693750Y-76225000D01*
X100131250Y-76225000D01*
X100214962Y-76241651D01*
X100214962Y-76241651D01*
G37*
D11*
X99912500Y-76700000D03*
D21*
X87200000Y-104500000D03*
X86250000Y-102500000D03*
X88150000Y-102500000D03*
D22*
X117000000Y-108537500D03*
D23*
X118000000Y-105837500D03*
X118650000Y-105837500D03*
X119300000Y-105837500D03*
X116700000Y-105837500D03*
X117350000Y-105837500D03*
D22*
X119000000Y-108537500D03*
D24*
X97400000Y-96500000D03*
X98500000Y-96500000D03*
X99600000Y-96500000D03*
X100700000Y-96500000D03*
X101800000Y-96500000D03*
X102900000Y-96500000D03*
X104000000Y-96500000D03*
X105100000Y-96500000D03*
X106200000Y-96500000D03*
D25*
X110700000Y-97000000D03*
D26*
X96000000Y-106600000D03*
X111900000Y-106600000D03*
D27*
X96000000Y-97000000D03*
D10*
G36*
X84049529Y-106093554D02*
G01*
X84128607Y-106146393D01*
X84181446Y-106225471D01*
X84200000Y-106318750D01*
X84200000Y-106806250D01*
X84181446Y-106899529D01*
X84128607Y-106978607D01*
X84049529Y-107031446D01*
X83956250Y-107050000D01*
X83043750Y-107050000D01*
X82950471Y-107031446D01*
X82871393Y-106978607D01*
X82818554Y-106899529D01*
X82800000Y-106806250D01*
X82800000Y-106318750D01*
X82818554Y-106225471D01*
X82871393Y-106146393D01*
X82950471Y-106093554D01*
X83043750Y-106075000D01*
X83956250Y-106075000D01*
X84049529Y-106093554D01*
X84049529Y-106093554D01*
G37*
D13*
X83500000Y-106562500D03*
D10*
G36*
X84049529Y-107968554D02*
G01*
X84128607Y-108021393D01*
X84181446Y-108100471D01*
X84200000Y-108193750D01*
X84200000Y-108681250D01*
X84181446Y-108774529D01*
X84128607Y-108853607D01*
X84049529Y-108906446D01*
X83956250Y-108925000D01*
X83043750Y-108925000D01*
X82950471Y-108906446D01*
X82871393Y-108853607D01*
X82818554Y-108774529D01*
X82800000Y-108681250D01*
X82800000Y-108193750D01*
X82818554Y-108100471D01*
X82871393Y-108021393D01*
X82950471Y-107968554D01*
X83043750Y-107950000D01*
X83956250Y-107950000D01*
X84049529Y-107968554D01*
X84049529Y-107968554D01*
G37*
D13*
X83500000Y-108437500D03*
D10*
G36*
X90549529Y-106093554D02*
G01*
X90628607Y-106146393D01*
X90681446Y-106225471D01*
X90700000Y-106318750D01*
X90700000Y-106806250D01*
X90681446Y-106899529D01*
X90628607Y-106978607D01*
X90549529Y-107031446D01*
X90456250Y-107050000D01*
X89543750Y-107050000D01*
X89450471Y-107031446D01*
X89371393Y-106978607D01*
X89318554Y-106899529D01*
X89300000Y-106806250D01*
X89300000Y-106318750D01*
X89318554Y-106225471D01*
X89371393Y-106146393D01*
X89450471Y-106093554D01*
X89543750Y-106075000D01*
X90456250Y-106075000D01*
X90549529Y-106093554D01*
X90549529Y-106093554D01*
G37*
D13*
X90000000Y-106562500D03*
D10*
G36*
X90549529Y-107968554D02*
G01*
X90628607Y-108021393D01*
X90681446Y-108100471D01*
X90700000Y-108193750D01*
X90700000Y-108681250D01*
X90681446Y-108774529D01*
X90628607Y-108853607D01*
X90549529Y-108906446D01*
X90456250Y-108925000D01*
X89543750Y-108925000D01*
X89450471Y-108906446D01*
X89371393Y-108853607D01*
X89318554Y-108774529D01*
X89300000Y-108681250D01*
X89300000Y-108193750D01*
X89318554Y-108100471D01*
X89371393Y-108021393D01*
X89450471Y-107968554D01*
X89543750Y-107950000D01*
X90456250Y-107950000D01*
X90549529Y-107968554D01*
X90549529Y-107968554D01*
G37*
D13*
X90000000Y-108437500D03*
D10*
G36*
X93049529Y-106093554D02*
G01*
X93128607Y-106146393D01*
X93181446Y-106225471D01*
X93200000Y-106318750D01*
X93200000Y-106806250D01*
X93181446Y-106899529D01*
X93128607Y-106978607D01*
X93049529Y-107031446D01*
X92956250Y-107050000D01*
X92043750Y-107050000D01*
X91950471Y-107031446D01*
X91871393Y-106978607D01*
X91818554Y-106899529D01*
X91800000Y-106806250D01*
X91800000Y-106318750D01*
X91818554Y-106225471D01*
X91871393Y-106146393D01*
X91950471Y-106093554D01*
X92043750Y-106075000D01*
X92956250Y-106075000D01*
X93049529Y-106093554D01*
X93049529Y-106093554D01*
G37*
D13*
X92500000Y-106562500D03*
D10*
G36*
X93049529Y-107968554D02*
G01*
X93128607Y-108021393D01*
X93181446Y-108100471D01*
X93200000Y-108193750D01*
X93200000Y-108681250D01*
X93181446Y-108774529D01*
X93128607Y-108853607D01*
X93049529Y-108906446D01*
X92956250Y-108925000D01*
X92043750Y-108925000D01*
X91950471Y-108906446D01*
X91871393Y-108853607D01*
X91818554Y-108774529D01*
X91800000Y-108681250D01*
X91800000Y-108193750D01*
X91818554Y-108100471D01*
X91871393Y-108021393D01*
X91950471Y-107968554D01*
X92043750Y-107950000D01*
X92956250Y-107950000D01*
X93049529Y-107968554D01*
X93049529Y-107968554D01*
G37*
D13*
X92500000Y-108437500D03*
D10*
G36*
X143339962Y-84866651D02*
G01*
X143410930Y-84914070D01*
X143458349Y-84985038D01*
X143475000Y-85068750D01*
X143475000Y-85506250D01*
X143458349Y-85589962D01*
X143410930Y-85660930D01*
X143339962Y-85708349D01*
X143256250Y-85725000D01*
X142743750Y-85725000D01*
X142660038Y-85708349D01*
X142589070Y-85660930D01*
X142541651Y-85589962D01*
X142525000Y-85506250D01*
X142525000Y-85068750D01*
X142541651Y-84985038D01*
X142589070Y-84914070D01*
X142660038Y-84866651D01*
X142743750Y-84850000D01*
X143256250Y-84850000D01*
X143339962Y-84866651D01*
X143339962Y-84866651D01*
G37*
D11*
X143000000Y-85287500D03*
D10*
G36*
X143339962Y-83291651D02*
G01*
X143410930Y-83339070D01*
X143458349Y-83410038D01*
X143475000Y-83493750D01*
X143475000Y-83931250D01*
X143458349Y-84014962D01*
X143410930Y-84085930D01*
X143339962Y-84133349D01*
X143256250Y-84150000D01*
X142743750Y-84150000D01*
X142660038Y-84133349D01*
X142589070Y-84085930D01*
X142541651Y-84014962D01*
X142525000Y-83931250D01*
X142525000Y-83493750D01*
X142541651Y-83410038D01*
X142589070Y-83339070D01*
X142660038Y-83291651D01*
X142743750Y-83275000D01*
X143256250Y-83275000D01*
X143339962Y-83291651D01*
X143339962Y-83291651D01*
G37*
D11*
X143000000Y-83712500D03*
D10*
G36*
X143539962Y-95066651D02*
G01*
X143610930Y-95114070D01*
X143658349Y-95185038D01*
X143675000Y-95268750D01*
X143675000Y-95706250D01*
X143658349Y-95789962D01*
X143610930Y-95860930D01*
X143539962Y-95908349D01*
X143456250Y-95925000D01*
X142943750Y-95925000D01*
X142860038Y-95908349D01*
X142789070Y-95860930D01*
X142741651Y-95789962D01*
X142725000Y-95706250D01*
X142725000Y-95268750D01*
X142741651Y-95185038D01*
X142789070Y-95114070D01*
X142860038Y-95066651D01*
X142943750Y-95050000D01*
X143456250Y-95050000D01*
X143539962Y-95066651D01*
X143539962Y-95066651D01*
G37*
D11*
X143200000Y-95487500D03*
D10*
G36*
X143539962Y-93491651D02*
G01*
X143610930Y-93539070D01*
X143658349Y-93610038D01*
X143675000Y-93693750D01*
X143675000Y-94131250D01*
X143658349Y-94214962D01*
X143610930Y-94285930D01*
X143539962Y-94333349D01*
X143456250Y-94350000D01*
X142943750Y-94350000D01*
X142860038Y-94333349D01*
X142789070Y-94285930D01*
X142741651Y-94214962D01*
X142725000Y-94131250D01*
X142725000Y-93693750D01*
X142741651Y-93610038D01*
X142789070Y-93539070D01*
X142860038Y-93491651D01*
X142943750Y-93475000D01*
X143456250Y-93475000D01*
X143539962Y-93491651D01*
X143539962Y-93491651D01*
G37*
D11*
X143200000Y-93912500D03*
D10*
G36*
X153939962Y-78766651D02*
G01*
X154010930Y-78814070D01*
X154058349Y-78885038D01*
X154075000Y-78968750D01*
X154075000Y-79406250D01*
X154058349Y-79489962D01*
X154010930Y-79560930D01*
X153939962Y-79608349D01*
X153856250Y-79625000D01*
X153343750Y-79625000D01*
X153260038Y-79608349D01*
X153189070Y-79560930D01*
X153141651Y-79489962D01*
X153125000Y-79406250D01*
X153125000Y-78968750D01*
X153141651Y-78885038D01*
X153189070Y-78814070D01*
X153260038Y-78766651D01*
X153343750Y-78750000D01*
X153856250Y-78750000D01*
X153939962Y-78766651D01*
X153939962Y-78766651D01*
G37*
D11*
X153600000Y-79187500D03*
D10*
G36*
X153939962Y-77191651D02*
G01*
X154010930Y-77239070D01*
X154058349Y-77310038D01*
X154075000Y-77393750D01*
X154075000Y-77831250D01*
X154058349Y-77914962D01*
X154010930Y-77985930D01*
X153939962Y-78033349D01*
X153856250Y-78050000D01*
X153343750Y-78050000D01*
X153260038Y-78033349D01*
X153189070Y-77985930D01*
X153141651Y-77914962D01*
X153125000Y-77831250D01*
X153125000Y-77393750D01*
X153141651Y-77310038D01*
X153189070Y-77239070D01*
X153260038Y-77191651D01*
X153343750Y-77175000D01*
X153856250Y-77175000D01*
X153939962Y-77191651D01*
X153939962Y-77191651D01*
G37*
D11*
X153600000Y-77612500D03*
D10*
G36*
X136989962Y-98641651D02*
G01*
X137060930Y-98689070D01*
X137108349Y-98760038D01*
X137125000Y-98843750D01*
X137125000Y-99356250D01*
X137108349Y-99439962D01*
X137060930Y-99510930D01*
X136989962Y-99558349D01*
X136906250Y-99575000D01*
X136468750Y-99575000D01*
X136385038Y-99558349D01*
X136314070Y-99510930D01*
X136266651Y-99439962D01*
X136250000Y-99356250D01*
X136250000Y-98843750D01*
X136266651Y-98760038D01*
X136314070Y-98689070D01*
X136385038Y-98641651D01*
X136468750Y-98625000D01*
X136906250Y-98625000D01*
X136989962Y-98641651D01*
X136989962Y-98641651D01*
G37*
D11*
X136687500Y-99100000D03*
D10*
G36*
X135414962Y-98641651D02*
G01*
X135485930Y-98689070D01*
X135533349Y-98760038D01*
X135550000Y-98843750D01*
X135550000Y-99356250D01*
X135533349Y-99439962D01*
X135485930Y-99510930D01*
X135414962Y-99558349D01*
X135331250Y-99575000D01*
X134893750Y-99575000D01*
X134810038Y-99558349D01*
X134739070Y-99510930D01*
X134691651Y-99439962D01*
X134675000Y-99356250D01*
X134675000Y-98843750D01*
X134691651Y-98760038D01*
X134739070Y-98689070D01*
X134810038Y-98641651D01*
X134893750Y-98625000D01*
X135331250Y-98625000D01*
X135414962Y-98641651D01*
X135414962Y-98641651D01*
G37*
D11*
X135112500Y-99100000D03*
D10*
G36*
X90189962Y-95241651D02*
G01*
X90260930Y-95289070D01*
X90308349Y-95360038D01*
X90325000Y-95443750D01*
X90325000Y-95956250D01*
X90308349Y-96039962D01*
X90260930Y-96110930D01*
X90189962Y-96158349D01*
X90106250Y-96175000D01*
X89668750Y-96175000D01*
X89585038Y-96158349D01*
X89514070Y-96110930D01*
X89466651Y-96039962D01*
X89450000Y-95956250D01*
X89450000Y-95443750D01*
X89466651Y-95360038D01*
X89514070Y-95289070D01*
X89585038Y-95241651D01*
X89668750Y-95225000D01*
X90106250Y-95225000D01*
X90189962Y-95241651D01*
X90189962Y-95241651D01*
G37*
D11*
X89887500Y-95700000D03*
D10*
G36*
X88614962Y-95241651D02*
G01*
X88685930Y-95289070D01*
X88733349Y-95360038D01*
X88750000Y-95443750D01*
X88750000Y-95956250D01*
X88733349Y-96039962D01*
X88685930Y-96110930D01*
X88614962Y-96158349D01*
X88531250Y-96175000D01*
X88093750Y-96175000D01*
X88010038Y-96158349D01*
X87939070Y-96110930D01*
X87891651Y-96039962D01*
X87875000Y-95956250D01*
X87875000Y-95443750D01*
X87891651Y-95360038D01*
X87939070Y-95289070D01*
X88010038Y-95241651D01*
X88093750Y-95225000D01*
X88531250Y-95225000D01*
X88614962Y-95241651D01*
X88614962Y-95241651D01*
G37*
D11*
X88312500Y-95700000D03*
D10*
G36*
X90189962Y-96941651D02*
G01*
X90260930Y-96989070D01*
X90308349Y-97060038D01*
X90325000Y-97143750D01*
X90325000Y-97656250D01*
X90308349Y-97739962D01*
X90260930Y-97810930D01*
X90189962Y-97858349D01*
X90106250Y-97875000D01*
X89668750Y-97875000D01*
X89585038Y-97858349D01*
X89514070Y-97810930D01*
X89466651Y-97739962D01*
X89450000Y-97656250D01*
X89450000Y-97143750D01*
X89466651Y-97060038D01*
X89514070Y-96989070D01*
X89585038Y-96941651D01*
X89668750Y-96925000D01*
X90106250Y-96925000D01*
X90189962Y-96941651D01*
X90189962Y-96941651D01*
G37*
D11*
X89887500Y-97400000D03*
D10*
G36*
X88614962Y-96941651D02*
G01*
X88685930Y-96989070D01*
X88733349Y-97060038D01*
X88750000Y-97143750D01*
X88750000Y-97656250D01*
X88733349Y-97739962D01*
X88685930Y-97810930D01*
X88614962Y-97858349D01*
X88531250Y-97875000D01*
X88093750Y-97875000D01*
X88010038Y-97858349D01*
X87939070Y-97810930D01*
X87891651Y-97739962D01*
X87875000Y-97656250D01*
X87875000Y-97143750D01*
X87891651Y-97060038D01*
X87939070Y-96989070D01*
X88010038Y-96941651D01*
X88093750Y-96925000D01*
X88531250Y-96925000D01*
X88614962Y-96941651D01*
X88614962Y-96941651D01*
G37*
D11*
X88312500Y-97400000D03*
D10*
G36*
X119439962Y-86091651D02*
G01*
X119510930Y-86139070D01*
X119558349Y-86210038D01*
X119575000Y-86293750D01*
X119575000Y-86731250D01*
X119558349Y-86814962D01*
X119510930Y-86885930D01*
X119439962Y-86933349D01*
X119356250Y-86950000D01*
X118843750Y-86950000D01*
X118760038Y-86933349D01*
X118689070Y-86885930D01*
X118641651Y-86814962D01*
X118625000Y-86731250D01*
X118625000Y-86293750D01*
X118641651Y-86210038D01*
X118689070Y-86139070D01*
X118760038Y-86091651D01*
X118843750Y-86075000D01*
X119356250Y-86075000D01*
X119439962Y-86091651D01*
X119439962Y-86091651D01*
G37*
D11*
X119100000Y-86512500D03*
D10*
G36*
X119439962Y-87666651D02*
G01*
X119510930Y-87714070D01*
X119558349Y-87785038D01*
X119575000Y-87868750D01*
X119575000Y-88306250D01*
X119558349Y-88389962D01*
X119510930Y-88460930D01*
X119439962Y-88508349D01*
X119356250Y-88525000D01*
X118843750Y-88525000D01*
X118760038Y-88508349D01*
X118689070Y-88460930D01*
X118641651Y-88389962D01*
X118625000Y-88306250D01*
X118625000Y-87868750D01*
X118641651Y-87785038D01*
X118689070Y-87714070D01*
X118760038Y-87666651D01*
X118843750Y-87650000D01*
X119356250Y-87650000D01*
X119439962Y-87666651D01*
X119439962Y-87666651D01*
G37*
D11*
X119100000Y-88087500D03*
D10*
G36*
X115139962Y-79491651D02*
G01*
X115210930Y-79539070D01*
X115258349Y-79610038D01*
X115275000Y-79693750D01*
X115275000Y-80131250D01*
X115258349Y-80214962D01*
X115210930Y-80285930D01*
X115139962Y-80333349D01*
X115056250Y-80350000D01*
X114543750Y-80350000D01*
X114460038Y-80333349D01*
X114389070Y-80285930D01*
X114341651Y-80214962D01*
X114325000Y-80131250D01*
X114325000Y-79693750D01*
X114341651Y-79610038D01*
X114389070Y-79539070D01*
X114460038Y-79491651D01*
X114543750Y-79475000D01*
X115056250Y-79475000D01*
X115139962Y-79491651D01*
X115139962Y-79491651D01*
G37*
D11*
X114800000Y-79912500D03*
D10*
G36*
X115139962Y-81066651D02*
G01*
X115210930Y-81114070D01*
X115258349Y-81185038D01*
X115275000Y-81268750D01*
X115275000Y-81706250D01*
X115258349Y-81789962D01*
X115210930Y-81860930D01*
X115139962Y-81908349D01*
X115056250Y-81925000D01*
X114543750Y-81925000D01*
X114460038Y-81908349D01*
X114389070Y-81860930D01*
X114341651Y-81789962D01*
X114325000Y-81706250D01*
X114325000Y-81268750D01*
X114341651Y-81185038D01*
X114389070Y-81114070D01*
X114460038Y-81066651D01*
X114543750Y-81050000D01*
X115056250Y-81050000D01*
X115139962Y-81066651D01*
X115139962Y-81066651D01*
G37*
D11*
X114800000Y-81487500D03*
D10*
G36*
X117839962Y-94166651D02*
G01*
X117910930Y-94214070D01*
X117958349Y-94285038D01*
X117975000Y-94368750D01*
X117975000Y-94806250D01*
X117958349Y-94889962D01*
X117910930Y-94960930D01*
X117839962Y-95008349D01*
X117756250Y-95025000D01*
X117243750Y-95025000D01*
X117160038Y-95008349D01*
X117089070Y-94960930D01*
X117041651Y-94889962D01*
X117025000Y-94806250D01*
X117025000Y-94368750D01*
X117041651Y-94285038D01*
X117089070Y-94214070D01*
X117160038Y-94166651D01*
X117243750Y-94150000D01*
X117756250Y-94150000D01*
X117839962Y-94166651D01*
X117839962Y-94166651D01*
G37*
D11*
X117500000Y-94587500D03*
D10*
G36*
X117839962Y-92591651D02*
G01*
X117910930Y-92639070D01*
X117958349Y-92710038D01*
X117975000Y-92793750D01*
X117975000Y-93231250D01*
X117958349Y-93314962D01*
X117910930Y-93385930D01*
X117839962Y-93433349D01*
X117756250Y-93450000D01*
X117243750Y-93450000D01*
X117160038Y-93433349D01*
X117089070Y-93385930D01*
X117041651Y-93314962D01*
X117025000Y-93231250D01*
X117025000Y-92793750D01*
X117041651Y-92710038D01*
X117089070Y-92639070D01*
X117160038Y-92591651D01*
X117243750Y-92575000D01*
X117756250Y-92575000D01*
X117839962Y-92591651D01*
X117839962Y-92591651D01*
G37*
D11*
X117500000Y-93012500D03*
D10*
G36*
X137889962Y-82941651D02*
G01*
X137960930Y-82989070D01*
X138008349Y-83060038D01*
X138025000Y-83143750D01*
X138025000Y-83656250D01*
X138008349Y-83739962D01*
X137960930Y-83810930D01*
X137889962Y-83858349D01*
X137806250Y-83875000D01*
X137368750Y-83875000D01*
X137285038Y-83858349D01*
X137214070Y-83810930D01*
X137166651Y-83739962D01*
X137150000Y-83656250D01*
X137150000Y-83143750D01*
X137166651Y-83060038D01*
X137214070Y-82989070D01*
X137285038Y-82941651D01*
X137368750Y-82925000D01*
X137806250Y-82925000D01*
X137889962Y-82941651D01*
X137889962Y-82941651D01*
G37*
D11*
X137587500Y-83400000D03*
D10*
G36*
X136314962Y-82941651D02*
G01*
X136385930Y-82989070D01*
X136433349Y-83060038D01*
X136450000Y-83143750D01*
X136450000Y-83656250D01*
X136433349Y-83739962D01*
X136385930Y-83810930D01*
X136314962Y-83858349D01*
X136231250Y-83875000D01*
X135793750Y-83875000D01*
X135710038Y-83858349D01*
X135639070Y-83810930D01*
X135591651Y-83739962D01*
X135575000Y-83656250D01*
X135575000Y-83143750D01*
X135591651Y-83060038D01*
X135639070Y-82989070D01*
X135710038Y-82941651D01*
X135793750Y-82925000D01*
X136231250Y-82925000D01*
X136314962Y-82941651D01*
X136314962Y-82941651D01*
G37*
D11*
X136012500Y-83400000D03*
D10*
G36*
X124239962Y-80366651D02*
G01*
X124310930Y-80414070D01*
X124358349Y-80485038D01*
X124375000Y-80568750D01*
X124375000Y-81006250D01*
X124358349Y-81089962D01*
X124310930Y-81160930D01*
X124239962Y-81208349D01*
X124156250Y-81225000D01*
X123643750Y-81225000D01*
X123560038Y-81208349D01*
X123489070Y-81160930D01*
X123441651Y-81089962D01*
X123425000Y-81006250D01*
X123425000Y-80568750D01*
X123441651Y-80485038D01*
X123489070Y-80414070D01*
X123560038Y-80366651D01*
X123643750Y-80350000D01*
X124156250Y-80350000D01*
X124239962Y-80366651D01*
X124239962Y-80366651D01*
G37*
D11*
X123900000Y-80787500D03*
D10*
G36*
X124239962Y-78791651D02*
G01*
X124310930Y-78839070D01*
X124358349Y-78910038D01*
X124375000Y-78993750D01*
X124375000Y-79431250D01*
X124358349Y-79514962D01*
X124310930Y-79585930D01*
X124239962Y-79633349D01*
X124156250Y-79650000D01*
X123643750Y-79650000D01*
X123560038Y-79633349D01*
X123489070Y-79585930D01*
X123441651Y-79514962D01*
X123425000Y-79431250D01*
X123425000Y-78993750D01*
X123441651Y-78910038D01*
X123489070Y-78839070D01*
X123560038Y-78791651D01*
X123643750Y-78775000D01*
X124156250Y-78775000D01*
X124239962Y-78791651D01*
X124239962Y-78791651D01*
G37*
D11*
X123900000Y-79212500D03*
D10*
G36*
X120139962Y-99791651D02*
G01*
X120210930Y-99839070D01*
X120258349Y-99910038D01*
X120275000Y-99993750D01*
X120275000Y-100431250D01*
X120258349Y-100514962D01*
X120210930Y-100585930D01*
X120139962Y-100633349D01*
X120056250Y-100650000D01*
X119543750Y-100650000D01*
X119460038Y-100633349D01*
X119389070Y-100585930D01*
X119341651Y-100514962D01*
X119325000Y-100431250D01*
X119325000Y-99993750D01*
X119341651Y-99910038D01*
X119389070Y-99839070D01*
X119460038Y-99791651D01*
X119543750Y-99775000D01*
X120056250Y-99775000D01*
X120139962Y-99791651D01*
X120139962Y-99791651D01*
G37*
D11*
X119800000Y-100212500D03*
D10*
G36*
X120139962Y-101366651D02*
G01*
X120210930Y-101414070D01*
X120258349Y-101485038D01*
X120275000Y-101568750D01*
X120275000Y-102006250D01*
X120258349Y-102089962D01*
X120210930Y-102160930D01*
X120139962Y-102208349D01*
X120056250Y-102225000D01*
X119543750Y-102225000D01*
X119460038Y-102208349D01*
X119389070Y-102160930D01*
X119341651Y-102089962D01*
X119325000Y-102006250D01*
X119325000Y-101568750D01*
X119341651Y-101485038D01*
X119389070Y-101414070D01*
X119460038Y-101366651D01*
X119543750Y-101350000D01*
X120056250Y-101350000D01*
X120139962Y-101366651D01*
X120139962Y-101366651D01*
G37*
D11*
X119800000Y-101787500D03*
D10*
G36*
X134139962Y-76191651D02*
G01*
X134210930Y-76239070D01*
X134258349Y-76310038D01*
X134275000Y-76393750D01*
X134275000Y-76831250D01*
X134258349Y-76914962D01*
X134210930Y-76985930D01*
X134139962Y-77033349D01*
X134056250Y-77050000D01*
X133543750Y-77050000D01*
X133460038Y-77033349D01*
X133389070Y-76985930D01*
X133341651Y-76914962D01*
X133325000Y-76831250D01*
X133325000Y-76393750D01*
X133341651Y-76310038D01*
X133389070Y-76239070D01*
X133460038Y-76191651D01*
X133543750Y-76175000D01*
X134056250Y-76175000D01*
X134139962Y-76191651D01*
X134139962Y-76191651D01*
G37*
D11*
X133800000Y-76612500D03*
D10*
G36*
X134139962Y-77766651D02*
G01*
X134210930Y-77814070D01*
X134258349Y-77885038D01*
X134275000Y-77968750D01*
X134275000Y-78406250D01*
X134258349Y-78489962D01*
X134210930Y-78560930D01*
X134139962Y-78608349D01*
X134056250Y-78625000D01*
X133543750Y-78625000D01*
X133460038Y-78608349D01*
X133389070Y-78560930D01*
X133341651Y-78489962D01*
X133325000Y-78406250D01*
X133325000Y-77968750D01*
X133341651Y-77885038D01*
X133389070Y-77814070D01*
X133460038Y-77766651D01*
X133543750Y-77750000D01*
X134056250Y-77750000D01*
X134139962Y-77766651D01*
X134139962Y-77766651D01*
G37*
D11*
X133800000Y-78187500D03*
D10*
G36*
X136539962Y-76191651D02*
G01*
X136610930Y-76239070D01*
X136658349Y-76310038D01*
X136675000Y-76393750D01*
X136675000Y-76831250D01*
X136658349Y-76914962D01*
X136610930Y-76985930D01*
X136539962Y-77033349D01*
X136456250Y-77050000D01*
X135943750Y-77050000D01*
X135860038Y-77033349D01*
X135789070Y-76985930D01*
X135741651Y-76914962D01*
X135725000Y-76831250D01*
X135725000Y-76393750D01*
X135741651Y-76310038D01*
X135789070Y-76239070D01*
X135860038Y-76191651D01*
X135943750Y-76175000D01*
X136456250Y-76175000D01*
X136539962Y-76191651D01*
X136539962Y-76191651D01*
G37*
D11*
X136200000Y-76612500D03*
D10*
G36*
X136539962Y-77766651D02*
G01*
X136610930Y-77814070D01*
X136658349Y-77885038D01*
X136675000Y-77968750D01*
X136675000Y-78406250D01*
X136658349Y-78489962D01*
X136610930Y-78560930D01*
X136539962Y-78608349D01*
X136456250Y-78625000D01*
X135943750Y-78625000D01*
X135860038Y-78608349D01*
X135789070Y-78560930D01*
X135741651Y-78489962D01*
X135725000Y-78406250D01*
X135725000Y-77968750D01*
X135741651Y-77885038D01*
X135789070Y-77814070D01*
X135860038Y-77766651D01*
X135943750Y-77750000D01*
X136456250Y-77750000D01*
X136539962Y-77766651D01*
X136539962Y-77766651D01*
G37*
D11*
X136200000Y-78187500D03*
D10*
G36*
X128889962Y-76341651D02*
G01*
X128960930Y-76389070D01*
X129008349Y-76460038D01*
X129025000Y-76543750D01*
X129025000Y-77056250D01*
X129008349Y-77139962D01*
X128960930Y-77210930D01*
X128889962Y-77258349D01*
X128806250Y-77275000D01*
X128368750Y-77275000D01*
X128285038Y-77258349D01*
X128214070Y-77210930D01*
X128166651Y-77139962D01*
X128150000Y-77056250D01*
X128150000Y-76543750D01*
X128166651Y-76460038D01*
X128214070Y-76389070D01*
X128285038Y-76341651D01*
X128368750Y-76325000D01*
X128806250Y-76325000D01*
X128889962Y-76341651D01*
X128889962Y-76341651D01*
G37*
D11*
X128587500Y-76800000D03*
D10*
G36*
X127314962Y-76341651D02*
G01*
X127385930Y-76389070D01*
X127433349Y-76460038D01*
X127450000Y-76543750D01*
X127450000Y-77056250D01*
X127433349Y-77139962D01*
X127385930Y-77210930D01*
X127314962Y-77258349D01*
X127231250Y-77275000D01*
X126793750Y-77275000D01*
X126710038Y-77258349D01*
X126639070Y-77210930D01*
X126591651Y-77139962D01*
X126575000Y-77056250D01*
X126575000Y-76543750D01*
X126591651Y-76460038D01*
X126639070Y-76389070D01*
X126710038Y-76341651D01*
X126793750Y-76325000D01*
X127231250Y-76325000D01*
X127314962Y-76341651D01*
X127314962Y-76341651D01*
G37*
D11*
X127012500Y-76800000D03*
D10*
G36*
X130514962Y-76341651D02*
G01*
X130585930Y-76389070D01*
X130633349Y-76460038D01*
X130650000Y-76543750D01*
X130650000Y-77056250D01*
X130633349Y-77139962D01*
X130585930Y-77210930D01*
X130514962Y-77258349D01*
X130431250Y-77275000D01*
X129993750Y-77275000D01*
X129910038Y-77258349D01*
X129839070Y-77210930D01*
X129791651Y-77139962D01*
X129775000Y-77056250D01*
X129775000Y-76543750D01*
X129791651Y-76460038D01*
X129839070Y-76389070D01*
X129910038Y-76341651D01*
X129993750Y-76325000D01*
X130431250Y-76325000D01*
X130514962Y-76341651D01*
X130514962Y-76341651D01*
G37*
D11*
X130212500Y-76800000D03*
D10*
G36*
X132089962Y-76341651D02*
G01*
X132160930Y-76389070D01*
X132208349Y-76460038D01*
X132225000Y-76543750D01*
X132225000Y-77056250D01*
X132208349Y-77139962D01*
X132160930Y-77210930D01*
X132089962Y-77258349D01*
X132006250Y-77275000D01*
X131568750Y-77275000D01*
X131485038Y-77258349D01*
X131414070Y-77210930D01*
X131366651Y-77139962D01*
X131350000Y-77056250D01*
X131350000Y-76543750D01*
X131366651Y-76460038D01*
X131414070Y-76389070D01*
X131485038Y-76341651D01*
X131568750Y-76325000D01*
X132006250Y-76325000D01*
X132089962Y-76341651D01*
X132089962Y-76341651D01*
G37*
D11*
X131787500Y-76800000D03*
D10*
G36*
X84414962Y-76241651D02*
G01*
X84485930Y-76289070D01*
X84533349Y-76360038D01*
X84550000Y-76443750D01*
X84550000Y-76956250D01*
X84533349Y-77039962D01*
X84485930Y-77110930D01*
X84414962Y-77158349D01*
X84331250Y-77175000D01*
X83893750Y-77175000D01*
X83810038Y-77158349D01*
X83739070Y-77110930D01*
X83691651Y-77039962D01*
X83675000Y-76956250D01*
X83675000Y-76443750D01*
X83691651Y-76360038D01*
X83739070Y-76289070D01*
X83810038Y-76241651D01*
X83893750Y-76225000D01*
X84331250Y-76225000D01*
X84414962Y-76241651D01*
X84414962Y-76241651D01*
G37*
D11*
X84112500Y-76700000D03*
D10*
G36*
X85989962Y-76241651D02*
G01*
X86060930Y-76289070D01*
X86108349Y-76360038D01*
X86125000Y-76443750D01*
X86125000Y-76956250D01*
X86108349Y-77039962D01*
X86060930Y-77110930D01*
X85989962Y-77158349D01*
X85906250Y-77175000D01*
X85468750Y-77175000D01*
X85385038Y-77158349D01*
X85314070Y-77110930D01*
X85266651Y-77039962D01*
X85250000Y-76956250D01*
X85250000Y-76443750D01*
X85266651Y-76360038D01*
X85314070Y-76289070D01*
X85385038Y-76241651D01*
X85468750Y-76225000D01*
X85906250Y-76225000D01*
X85989962Y-76241651D01*
X85989962Y-76241651D01*
G37*
D11*
X85687500Y-76700000D03*
D28*
X136250000Y-80200000D03*
X133750000Y-80200000D03*
D10*
G36*
X118738268Y-81657612D02*
G01*
X118770711Y-81679289D01*
X118792388Y-81711732D01*
X118800000Y-81750000D01*
X118800000Y-82350000D01*
X118792388Y-82388268D01*
X118770711Y-82420711D01*
X118738268Y-82442388D01*
X118700000Y-82450000D01*
X118500000Y-82450000D01*
X118461732Y-82442388D01*
X118429289Y-82420711D01*
X118407612Y-82388268D01*
X118400000Y-82350000D01*
X118400000Y-81750000D01*
X118407612Y-81711732D01*
X118429289Y-81679289D01*
X118461732Y-81657612D01*
X118500000Y-81650000D01*
X118700000Y-81650000D01*
X118738268Y-81657612D01*
X118738268Y-81657612D01*
G37*
D29*
X118600000Y-82050000D03*
D10*
G36*
X117738268Y-81657612D02*
G01*
X117770711Y-81679289D01*
X117792388Y-81711732D01*
X117800000Y-81750000D01*
X117800000Y-82350000D01*
X117792388Y-82388268D01*
X117770711Y-82420711D01*
X117738268Y-82442388D01*
X117700000Y-82450000D01*
X117500000Y-82450000D01*
X117461732Y-82442388D01*
X117429289Y-82420711D01*
X117407612Y-82388268D01*
X117400000Y-82350000D01*
X117400000Y-81750000D01*
X117407612Y-81711732D01*
X117429289Y-81679289D01*
X117461732Y-81657612D01*
X117500000Y-81650000D01*
X117700000Y-81650000D01*
X117738268Y-81657612D01*
X117738268Y-81657612D01*
G37*
D29*
X117600000Y-82050000D03*
D10*
G36*
X116738268Y-81657612D02*
G01*
X116770711Y-81679289D01*
X116792388Y-81711732D01*
X116800000Y-81750000D01*
X116800000Y-82350000D01*
X116792388Y-82388268D01*
X116770711Y-82420711D01*
X116738268Y-82442388D01*
X116700000Y-82450000D01*
X116500000Y-82450000D01*
X116461732Y-82442388D01*
X116429289Y-82420711D01*
X116407612Y-82388268D01*
X116400000Y-82350000D01*
X116400000Y-81750000D01*
X116407612Y-81711732D01*
X116429289Y-81679289D01*
X116461732Y-81657612D01*
X116500000Y-81650000D01*
X116700000Y-81650000D01*
X116738268Y-81657612D01*
X116738268Y-81657612D01*
G37*
D29*
X116600000Y-82050000D03*
D10*
G36*
X116738268Y-78757612D02*
G01*
X116770711Y-78779289D01*
X116792388Y-78811732D01*
X116800000Y-78850000D01*
X116800000Y-79450000D01*
X116792388Y-79488268D01*
X116770711Y-79520711D01*
X116738268Y-79542388D01*
X116700000Y-79550000D01*
X116500000Y-79550000D01*
X116461732Y-79542388D01*
X116429289Y-79520711D01*
X116407612Y-79488268D01*
X116400000Y-79450000D01*
X116400000Y-78850000D01*
X116407612Y-78811732D01*
X116429289Y-78779289D01*
X116461732Y-78757612D01*
X116500000Y-78750000D01*
X116700000Y-78750000D01*
X116738268Y-78757612D01*
X116738268Y-78757612D01*
G37*
D29*
X116600000Y-79150000D03*
D10*
G36*
X117738268Y-78757612D02*
G01*
X117770711Y-78779289D01*
X117792388Y-78811732D01*
X117800000Y-78850000D01*
X117800000Y-79450000D01*
X117792388Y-79488268D01*
X117770711Y-79520711D01*
X117738268Y-79542388D01*
X117700000Y-79550000D01*
X117500000Y-79550000D01*
X117461732Y-79542388D01*
X117429289Y-79520711D01*
X117407612Y-79488268D01*
X117400000Y-79450000D01*
X117400000Y-78850000D01*
X117407612Y-78811732D01*
X117429289Y-78779289D01*
X117461732Y-78757612D01*
X117500000Y-78750000D01*
X117700000Y-78750000D01*
X117738268Y-78757612D01*
X117738268Y-78757612D01*
G37*
D29*
X117600000Y-79150000D03*
D10*
G36*
X118738268Y-78757612D02*
G01*
X118770711Y-78779289D01*
X118792388Y-78811732D01*
X118800000Y-78850000D01*
X118800000Y-79450000D01*
X118792388Y-79488268D01*
X118770711Y-79520711D01*
X118738268Y-79542388D01*
X118700000Y-79550000D01*
X118500000Y-79550000D01*
X118461732Y-79542388D01*
X118429289Y-79520711D01*
X118407612Y-79488268D01*
X118400000Y-79450000D01*
X118400000Y-78850000D01*
X118407612Y-78811732D01*
X118429289Y-78779289D01*
X118461732Y-78757612D01*
X118500000Y-78750000D01*
X118700000Y-78750000D01*
X118738268Y-78757612D01*
X118738268Y-78757612D01*
G37*
D29*
X118600000Y-79150000D03*
D10*
G36*
X117392403Y-80686418D02*
G01*
X117441066Y-80718934D01*
X117473582Y-80767597D01*
X117485000Y-80825000D01*
X117485000Y-81125000D01*
X117473582Y-81182403D01*
X117441066Y-81231066D01*
X117392403Y-81263582D01*
X117335000Y-81275000D01*
X116665000Y-81275000D01*
X116607597Y-81263582D01*
X116558934Y-81231066D01*
X116526418Y-81182403D01*
X116515000Y-81125000D01*
X116515000Y-80825000D01*
X116526418Y-80767597D01*
X116558934Y-80718934D01*
X116607597Y-80686418D01*
X116665000Y-80675000D01*
X117335000Y-80675000D01*
X117392403Y-80686418D01*
X117392403Y-80686418D01*
G37*
D30*
X117000000Y-80975000D03*
D10*
G36*
X118592403Y-80686418D02*
G01*
X118641066Y-80718934D01*
X118673582Y-80767597D01*
X118685000Y-80825000D01*
X118685000Y-81125000D01*
X118673582Y-81182403D01*
X118641066Y-81231066D01*
X118592403Y-81263582D01*
X118535000Y-81275000D01*
X117865000Y-81275000D01*
X117807597Y-81263582D01*
X117758934Y-81231066D01*
X117726418Y-81182403D01*
X117715000Y-81125000D01*
X117715000Y-80825000D01*
X117726418Y-80767597D01*
X117758934Y-80718934D01*
X117807597Y-80686418D01*
X117865000Y-80675000D01*
X118535000Y-80675000D01*
X118592403Y-80686418D01*
X118592403Y-80686418D01*
G37*
D30*
X118200000Y-80975000D03*
D10*
G36*
X117392403Y-79936418D02*
G01*
X117441066Y-79968934D01*
X117473582Y-80017597D01*
X117485000Y-80075000D01*
X117485000Y-80375000D01*
X117473582Y-80432403D01*
X117441066Y-80481066D01*
X117392403Y-80513582D01*
X117335000Y-80525000D01*
X116665000Y-80525000D01*
X116607597Y-80513582D01*
X116558934Y-80481066D01*
X116526418Y-80432403D01*
X116515000Y-80375000D01*
X116515000Y-80075000D01*
X116526418Y-80017597D01*
X116558934Y-79968934D01*
X116607597Y-79936418D01*
X116665000Y-79925000D01*
X117335000Y-79925000D01*
X117392403Y-79936418D01*
X117392403Y-79936418D01*
G37*
D30*
X117000000Y-80225000D03*
D10*
G36*
X118592403Y-79936418D02*
G01*
X118641066Y-79968934D01*
X118673582Y-80017597D01*
X118685000Y-80075000D01*
X118685000Y-80375000D01*
X118673582Y-80432403D01*
X118641066Y-80481066D01*
X118592403Y-80513582D01*
X118535000Y-80525000D01*
X117865000Y-80525000D01*
X117807597Y-80513582D01*
X117758934Y-80481066D01*
X117726418Y-80432403D01*
X117715000Y-80375000D01*
X117715000Y-80075000D01*
X117726418Y-80017597D01*
X117758934Y-79968934D01*
X117807597Y-79936418D01*
X117865000Y-79925000D01*
X118535000Y-79925000D01*
X118592403Y-79936418D01*
X118592403Y-79936418D01*
G37*
D30*
X118200000Y-80225000D03*
D10*
G36*
X140478701Y-102655709D02*
G01*
X140503033Y-102671967D01*
X140519291Y-102696299D01*
X140525000Y-102725000D01*
X140525000Y-102875000D01*
X140519291Y-102903701D01*
X140503033Y-102928033D01*
X140478701Y-102944291D01*
X140450000Y-102950000D01*
X139150000Y-102950000D01*
X139121299Y-102944291D01*
X139096967Y-102928033D01*
X139080709Y-102903701D01*
X139075000Y-102875000D01*
X139075000Y-102725000D01*
X139080709Y-102696299D01*
X139096967Y-102671967D01*
X139121299Y-102655709D01*
X139150000Y-102650000D01*
X140450000Y-102650000D01*
X140478701Y-102655709D01*
X140478701Y-102655709D01*
G37*
D31*
X139800000Y-102800000D03*
D10*
G36*
X140478701Y-102155709D02*
G01*
X140503033Y-102171967D01*
X140519291Y-102196299D01*
X140525000Y-102225000D01*
X140525000Y-102375000D01*
X140519291Y-102403701D01*
X140503033Y-102428033D01*
X140478701Y-102444291D01*
X140450000Y-102450000D01*
X139150000Y-102450000D01*
X139121299Y-102444291D01*
X139096967Y-102428033D01*
X139080709Y-102403701D01*
X139075000Y-102375000D01*
X139075000Y-102225000D01*
X139080709Y-102196299D01*
X139096967Y-102171967D01*
X139121299Y-102155709D01*
X139150000Y-102150000D01*
X140450000Y-102150000D01*
X140478701Y-102155709D01*
X140478701Y-102155709D01*
G37*
D31*
X139800000Y-102300000D03*
D10*
G36*
X140478701Y-101655709D02*
G01*
X140503033Y-101671967D01*
X140519291Y-101696299D01*
X140525000Y-101725000D01*
X140525000Y-101875000D01*
X140519291Y-101903701D01*
X140503033Y-101928033D01*
X140478701Y-101944291D01*
X140450000Y-101950000D01*
X139150000Y-101950000D01*
X139121299Y-101944291D01*
X139096967Y-101928033D01*
X139080709Y-101903701D01*
X139075000Y-101875000D01*
X139075000Y-101725000D01*
X139080709Y-101696299D01*
X139096967Y-101671967D01*
X139121299Y-101655709D01*
X139150000Y-101650000D01*
X140450000Y-101650000D01*
X140478701Y-101655709D01*
X140478701Y-101655709D01*
G37*
D31*
X139800000Y-101800000D03*
D10*
G36*
X140478701Y-101155709D02*
G01*
X140503033Y-101171967D01*
X140519291Y-101196299D01*
X140525000Y-101225000D01*
X140525000Y-101375000D01*
X140519291Y-101403701D01*
X140503033Y-101428033D01*
X140478701Y-101444291D01*
X140450000Y-101450000D01*
X139150000Y-101450000D01*
X139121299Y-101444291D01*
X139096967Y-101428033D01*
X139080709Y-101403701D01*
X139075000Y-101375000D01*
X139075000Y-101225000D01*
X139080709Y-101196299D01*
X139096967Y-101171967D01*
X139121299Y-101155709D01*
X139150000Y-101150000D01*
X140450000Y-101150000D01*
X140478701Y-101155709D01*
X140478701Y-101155709D01*
G37*
D31*
X139800000Y-101300000D03*
D10*
G36*
X140478701Y-100655709D02*
G01*
X140503033Y-100671967D01*
X140519291Y-100696299D01*
X140525000Y-100725000D01*
X140525000Y-100875000D01*
X140519291Y-100903701D01*
X140503033Y-100928033D01*
X140478701Y-100944291D01*
X140450000Y-100950000D01*
X139150000Y-100950000D01*
X139121299Y-100944291D01*
X139096967Y-100928033D01*
X139080709Y-100903701D01*
X139075000Y-100875000D01*
X139075000Y-100725000D01*
X139080709Y-100696299D01*
X139096967Y-100671967D01*
X139121299Y-100655709D01*
X139150000Y-100650000D01*
X140450000Y-100650000D01*
X140478701Y-100655709D01*
X140478701Y-100655709D01*
G37*
D31*
X139800000Y-100800000D03*
D10*
G36*
X136078701Y-100655709D02*
G01*
X136103033Y-100671967D01*
X136119291Y-100696299D01*
X136125000Y-100725000D01*
X136125000Y-100875000D01*
X136119291Y-100903701D01*
X136103033Y-100928033D01*
X136078701Y-100944291D01*
X136050000Y-100950000D01*
X134750000Y-100950000D01*
X134721299Y-100944291D01*
X134696967Y-100928033D01*
X134680709Y-100903701D01*
X134675000Y-100875000D01*
X134675000Y-100725000D01*
X134680709Y-100696299D01*
X134696967Y-100671967D01*
X134721299Y-100655709D01*
X134750000Y-100650000D01*
X136050000Y-100650000D01*
X136078701Y-100655709D01*
X136078701Y-100655709D01*
G37*
D31*
X135400000Y-100800000D03*
D10*
G36*
X136078701Y-101155709D02*
G01*
X136103033Y-101171967D01*
X136119291Y-101196299D01*
X136125000Y-101225000D01*
X136125000Y-101375000D01*
X136119291Y-101403701D01*
X136103033Y-101428033D01*
X136078701Y-101444291D01*
X136050000Y-101450000D01*
X134750000Y-101450000D01*
X134721299Y-101444291D01*
X134696967Y-101428033D01*
X134680709Y-101403701D01*
X134675000Y-101375000D01*
X134675000Y-101225000D01*
X134680709Y-101196299D01*
X134696967Y-101171967D01*
X134721299Y-101155709D01*
X134750000Y-101150000D01*
X136050000Y-101150000D01*
X136078701Y-101155709D01*
X136078701Y-101155709D01*
G37*
D31*
X135400000Y-101300000D03*
D10*
G36*
X136078701Y-101655709D02*
G01*
X136103033Y-101671967D01*
X136119291Y-101696299D01*
X136125000Y-101725000D01*
X136125000Y-101875000D01*
X136119291Y-101903701D01*
X136103033Y-101928033D01*
X136078701Y-101944291D01*
X136050000Y-101950000D01*
X134750000Y-101950000D01*
X134721299Y-101944291D01*
X134696967Y-101928033D01*
X134680709Y-101903701D01*
X134675000Y-101875000D01*
X134675000Y-101725000D01*
X134680709Y-101696299D01*
X134696967Y-101671967D01*
X134721299Y-101655709D01*
X134750000Y-101650000D01*
X136050000Y-101650000D01*
X136078701Y-101655709D01*
X136078701Y-101655709D01*
G37*
D31*
X135400000Y-101800000D03*
D10*
G36*
X136078701Y-102155709D02*
G01*
X136103033Y-102171967D01*
X136119291Y-102196299D01*
X136125000Y-102225000D01*
X136125000Y-102375000D01*
X136119291Y-102403701D01*
X136103033Y-102428033D01*
X136078701Y-102444291D01*
X136050000Y-102450000D01*
X134750000Y-102450000D01*
X134721299Y-102444291D01*
X134696967Y-102428033D01*
X134680709Y-102403701D01*
X134675000Y-102375000D01*
X134675000Y-102225000D01*
X134680709Y-102196299D01*
X134696967Y-102171967D01*
X134721299Y-102155709D01*
X134750000Y-102150000D01*
X136050000Y-102150000D01*
X136078701Y-102155709D01*
X136078701Y-102155709D01*
G37*
D31*
X135400000Y-102300000D03*
D10*
G36*
X136078701Y-102655709D02*
G01*
X136103033Y-102671967D01*
X136119291Y-102696299D01*
X136125000Y-102725000D01*
X136125000Y-102875000D01*
X136119291Y-102903701D01*
X136103033Y-102928033D01*
X136078701Y-102944291D01*
X136050000Y-102950000D01*
X134750000Y-102950000D01*
X134721299Y-102944291D01*
X134696967Y-102928033D01*
X134680709Y-102903701D01*
X134675000Y-102875000D01*
X134675000Y-102725000D01*
X134680709Y-102696299D01*
X134696967Y-102671967D01*
X134721299Y-102655709D01*
X134750000Y-102650000D01*
X136050000Y-102650000D01*
X136078701Y-102655709D01*
X136078701Y-102655709D01*
G37*
D31*
X135400000Y-102800000D03*
D32*
X88690000Y-78950000D03*
X88690000Y-77050000D03*
X91310000Y-77050000D03*
X91310000Y-78000000D03*
X91310000Y-78950000D03*
D10*
G36*
X147307403Y-81116418D02*
G01*
X147356066Y-81148934D01*
X147388582Y-81197597D01*
X147400000Y-81255000D01*
X147400000Y-81555000D01*
X147388582Y-81612403D01*
X147356066Y-81661066D01*
X147307403Y-81693582D01*
X147250000Y-81705000D01*
X145600000Y-81705000D01*
X145542597Y-81693582D01*
X145493934Y-81661066D01*
X145461418Y-81612403D01*
X145450000Y-81555000D01*
X145450000Y-81255000D01*
X145461418Y-81197597D01*
X145493934Y-81148934D01*
X145542597Y-81116418D01*
X145600000Y-81105000D01*
X147250000Y-81105000D01*
X147307403Y-81116418D01*
X147307403Y-81116418D01*
G37*
D30*
X146425000Y-81405000D03*
D10*
G36*
X147307403Y-79846418D02*
G01*
X147356066Y-79878934D01*
X147388582Y-79927597D01*
X147400000Y-79985000D01*
X147400000Y-80285000D01*
X147388582Y-80342403D01*
X147356066Y-80391066D01*
X147307403Y-80423582D01*
X147250000Y-80435000D01*
X145600000Y-80435000D01*
X145542597Y-80423582D01*
X145493934Y-80391066D01*
X145461418Y-80342403D01*
X145450000Y-80285000D01*
X145450000Y-79985000D01*
X145461418Y-79927597D01*
X145493934Y-79878934D01*
X145542597Y-79846418D01*
X145600000Y-79835000D01*
X147250000Y-79835000D01*
X147307403Y-79846418D01*
X147307403Y-79846418D01*
G37*
D30*
X146425000Y-80135000D03*
D10*
G36*
X147307403Y-78576418D02*
G01*
X147356066Y-78608934D01*
X147388582Y-78657597D01*
X147400000Y-78715000D01*
X147400000Y-79015000D01*
X147388582Y-79072403D01*
X147356066Y-79121066D01*
X147307403Y-79153582D01*
X147250000Y-79165000D01*
X145600000Y-79165000D01*
X145542597Y-79153582D01*
X145493934Y-79121066D01*
X145461418Y-79072403D01*
X145450000Y-79015000D01*
X145450000Y-78715000D01*
X145461418Y-78657597D01*
X145493934Y-78608934D01*
X145542597Y-78576418D01*
X145600000Y-78565000D01*
X147250000Y-78565000D01*
X147307403Y-78576418D01*
X147307403Y-78576418D01*
G37*
D30*
X146425000Y-78865000D03*
D10*
G36*
X147307403Y-77306418D02*
G01*
X147356066Y-77338934D01*
X147388582Y-77387597D01*
X147400000Y-77445000D01*
X147400000Y-77745000D01*
X147388582Y-77802403D01*
X147356066Y-77851066D01*
X147307403Y-77883582D01*
X147250000Y-77895000D01*
X145600000Y-77895000D01*
X145542597Y-77883582D01*
X145493934Y-77851066D01*
X145461418Y-77802403D01*
X145450000Y-77745000D01*
X145450000Y-77445000D01*
X145461418Y-77387597D01*
X145493934Y-77338934D01*
X145542597Y-77306418D01*
X145600000Y-77295000D01*
X147250000Y-77295000D01*
X147307403Y-77306418D01*
X147307403Y-77306418D01*
G37*
D30*
X146425000Y-77595000D03*
D10*
G36*
X152257403Y-77306418D02*
G01*
X152306066Y-77338934D01*
X152338582Y-77387597D01*
X152350000Y-77445000D01*
X152350000Y-77745000D01*
X152338582Y-77802403D01*
X152306066Y-77851066D01*
X152257403Y-77883582D01*
X152200000Y-77895000D01*
X150550000Y-77895000D01*
X150492597Y-77883582D01*
X150443934Y-77851066D01*
X150411418Y-77802403D01*
X150400000Y-77745000D01*
X150400000Y-77445000D01*
X150411418Y-77387597D01*
X150443934Y-77338934D01*
X150492597Y-77306418D01*
X150550000Y-77295000D01*
X152200000Y-77295000D01*
X152257403Y-77306418D01*
X152257403Y-77306418D01*
G37*
D30*
X151375000Y-77595000D03*
D10*
G36*
X152257403Y-78576418D02*
G01*
X152306066Y-78608934D01*
X152338582Y-78657597D01*
X152350000Y-78715000D01*
X152350000Y-79015000D01*
X152338582Y-79072403D01*
X152306066Y-79121066D01*
X152257403Y-79153582D01*
X152200000Y-79165000D01*
X150550000Y-79165000D01*
X150492597Y-79153582D01*
X150443934Y-79121066D01*
X150411418Y-79072403D01*
X150400000Y-79015000D01*
X150400000Y-78715000D01*
X150411418Y-78657597D01*
X150443934Y-78608934D01*
X150492597Y-78576418D01*
X150550000Y-78565000D01*
X152200000Y-78565000D01*
X152257403Y-78576418D01*
X152257403Y-78576418D01*
G37*
D30*
X151375000Y-78865000D03*
D10*
G36*
X152257403Y-79846418D02*
G01*
X152306066Y-79878934D01*
X152338582Y-79927597D01*
X152350000Y-79985000D01*
X152350000Y-80285000D01*
X152338582Y-80342403D01*
X152306066Y-80391066D01*
X152257403Y-80423582D01*
X152200000Y-80435000D01*
X150550000Y-80435000D01*
X150492597Y-80423582D01*
X150443934Y-80391066D01*
X150411418Y-80342403D01*
X150400000Y-80285000D01*
X150400000Y-79985000D01*
X150411418Y-79927597D01*
X150443934Y-79878934D01*
X150492597Y-79846418D01*
X150550000Y-79835000D01*
X152200000Y-79835000D01*
X152257403Y-79846418D01*
X152257403Y-79846418D01*
G37*
D30*
X151375000Y-80135000D03*
D10*
G36*
X152257403Y-81116418D02*
G01*
X152306066Y-81148934D01*
X152338582Y-81197597D01*
X152350000Y-81255000D01*
X152350000Y-81555000D01*
X152338582Y-81612403D01*
X152306066Y-81661066D01*
X152257403Y-81693582D01*
X152200000Y-81705000D01*
X150550000Y-81705000D01*
X150492597Y-81693582D01*
X150443934Y-81661066D01*
X150411418Y-81612403D01*
X150400000Y-81555000D01*
X150400000Y-81255000D01*
X150411418Y-81197597D01*
X150443934Y-81148934D01*
X150492597Y-81116418D01*
X150550000Y-81105000D01*
X152200000Y-81105000D01*
X152257403Y-81116418D01*
X152257403Y-81116418D01*
G37*
D30*
X151375000Y-81405000D03*
D10*
G36*
X136403701Y-86105709D02*
G01*
X136428033Y-86121967D01*
X136444291Y-86146299D01*
X136450000Y-86175000D01*
X136450000Y-86325000D01*
X136444291Y-86353701D01*
X136428033Y-86378033D01*
X136403701Y-86394291D01*
X136375000Y-86400000D01*
X134975000Y-86400000D01*
X134946299Y-86394291D01*
X134921967Y-86378033D01*
X134905709Y-86353701D01*
X134900000Y-86325000D01*
X134900000Y-86175000D01*
X134905709Y-86146299D01*
X134921967Y-86121967D01*
X134946299Y-86105709D01*
X134975000Y-86100000D01*
X136375000Y-86100000D01*
X136403701Y-86105709D01*
X136403701Y-86105709D01*
G37*
D31*
X135675000Y-86250000D03*
D10*
G36*
X136403701Y-86605709D02*
G01*
X136428033Y-86621967D01*
X136444291Y-86646299D01*
X136450000Y-86675000D01*
X136450000Y-86825000D01*
X136444291Y-86853701D01*
X136428033Y-86878033D01*
X136403701Y-86894291D01*
X136375000Y-86900000D01*
X134975000Y-86900000D01*
X134946299Y-86894291D01*
X134921967Y-86878033D01*
X134905709Y-86853701D01*
X134900000Y-86825000D01*
X134900000Y-86675000D01*
X134905709Y-86646299D01*
X134921967Y-86621967D01*
X134946299Y-86605709D01*
X134975000Y-86600000D01*
X136375000Y-86600000D01*
X136403701Y-86605709D01*
X136403701Y-86605709D01*
G37*
D31*
X135675000Y-86750000D03*
D10*
G36*
X136403701Y-87105709D02*
G01*
X136428033Y-87121967D01*
X136444291Y-87146299D01*
X136450000Y-87175000D01*
X136450000Y-87325000D01*
X136444291Y-87353701D01*
X136428033Y-87378033D01*
X136403701Y-87394291D01*
X136375000Y-87400000D01*
X134975000Y-87400000D01*
X134946299Y-87394291D01*
X134921967Y-87378033D01*
X134905709Y-87353701D01*
X134900000Y-87325000D01*
X134900000Y-87175000D01*
X134905709Y-87146299D01*
X134921967Y-87121967D01*
X134946299Y-87105709D01*
X134975000Y-87100000D01*
X136375000Y-87100000D01*
X136403701Y-87105709D01*
X136403701Y-87105709D01*
G37*
D31*
X135675000Y-87250000D03*
D10*
G36*
X136403701Y-87605709D02*
G01*
X136428033Y-87621967D01*
X136444291Y-87646299D01*
X136450000Y-87675000D01*
X136450000Y-87825000D01*
X136444291Y-87853701D01*
X136428033Y-87878033D01*
X136403701Y-87894291D01*
X136375000Y-87900000D01*
X134975000Y-87900000D01*
X134946299Y-87894291D01*
X134921967Y-87878033D01*
X134905709Y-87853701D01*
X134900000Y-87825000D01*
X134900000Y-87675000D01*
X134905709Y-87646299D01*
X134921967Y-87621967D01*
X134946299Y-87605709D01*
X134975000Y-87600000D01*
X136375000Y-87600000D01*
X136403701Y-87605709D01*
X136403701Y-87605709D01*
G37*
D31*
X135675000Y-87750000D03*
D10*
G36*
X136403701Y-88105709D02*
G01*
X136428033Y-88121967D01*
X136444291Y-88146299D01*
X136450000Y-88175000D01*
X136450000Y-88325000D01*
X136444291Y-88353701D01*
X136428033Y-88378033D01*
X136403701Y-88394291D01*
X136375000Y-88400000D01*
X134975000Y-88400000D01*
X134946299Y-88394291D01*
X134921967Y-88378033D01*
X134905709Y-88353701D01*
X134900000Y-88325000D01*
X134900000Y-88175000D01*
X134905709Y-88146299D01*
X134921967Y-88121967D01*
X134946299Y-88105709D01*
X134975000Y-88100000D01*
X136375000Y-88100000D01*
X136403701Y-88105709D01*
X136403701Y-88105709D01*
G37*
D31*
X135675000Y-88250000D03*
D10*
G36*
X136403701Y-88605709D02*
G01*
X136428033Y-88621967D01*
X136444291Y-88646299D01*
X136450000Y-88675000D01*
X136450000Y-88825000D01*
X136444291Y-88853701D01*
X136428033Y-88878033D01*
X136403701Y-88894291D01*
X136375000Y-88900000D01*
X134975000Y-88900000D01*
X134946299Y-88894291D01*
X134921967Y-88878033D01*
X134905709Y-88853701D01*
X134900000Y-88825000D01*
X134900000Y-88675000D01*
X134905709Y-88646299D01*
X134921967Y-88621967D01*
X134946299Y-88605709D01*
X134975000Y-88600000D01*
X136375000Y-88600000D01*
X136403701Y-88605709D01*
X136403701Y-88605709D01*
G37*
D31*
X135675000Y-88750000D03*
D10*
G36*
X136403701Y-89105709D02*
G01*
X136428033Y-89121967D01*
X136444291Y-89146299D01*
X136450000Y-89175000D01*
X136450000Y-89325000D01*
X136444291Y-89353701D01*
X136428033Y-89378033D01*
X136403701Y-89394291D01*
X136375000Y-89400000D01*
X134975000Y-89400000D01*
X134946299Y-89394291D01*
X134921967Y-89378033D01*
X134905709Y-89353701D01*
X134900000Y-89325000D01*
X134900000Y-89175000D01*
X134905709Y-89146299D01*
X134921967Y-89121967D01*
X134946299Y-89105709D01*
X134975000Y-89100000D01*
X136375000Y-89100000D01*
X136403701Y-89105709D01*
X136403701Y-89105709D01*
G37*
D31*
X135675000Y-89250000D03*
D10*
G36*
X136403701Y-89605709D02*
G01*
X136428033Y-89621967D01*
X136444291Y-89646299D01*
X136450000Y-89675000D01*
X136450000Y-89825000D01*
X136444291Y-89853701D01*
X136428033Y-89878033D01*
X136403701Y-89894291D01*
X136375000Y-89900000D01*
X134975000Y-89900000D01*
X134946299Y-89894291D01*
X134921967Y-89878033D01*
X134905709Y-89853701D01*
X134900000Y-89825000D01*
X134900000Y-89675000D01*
X134905709Y-89646299D01*
X134921967Y-89621967D01*
X134946299Y-89605709D01*
X134975000Y-89600000D01*
X136375000Y-89600000D01*
X136403701Y-89605709D01*
X136403701Y-89605709D01*
G37*
D31*
X135675000Y-89750000D03*
D10*
G36*
X136403701Y-90105709D02*
G01*
X136428033Y-90121967D01*
X136444291Y-90146299D01*
X136450000Y-90175000D01*
X136450000Y-90325000D01*
X136444291Y-90353701D01*
X136428033Y-90378033D01*
X136403701Y-90394291D01*
X136375000Y-90400000D01*
X134975000Y-90400000D01*
X134946299Y-90394291D01*
X134921967Y-90378033D01*
X134905709Y-90353701D01*
X134900000Y-90325000D01*
X134900000Y-90175000D01*
X134905709Y-90146299D01*
X134921967Y-90121967D01*
X134946299Y-90105709D01*
X134975000Y-90100000D01*
X136375000Y-90100000D01*
X136403701Y-90105709D01*
X136403701Y-90105709D01*
G37*
D31*
X135675000Y-90250000D03*
D10*
G36*
X136403701Y-90605709D02*
G01*
X136428033Y-90621967D01*
X136444291Y-90646299D01*
X136450000Y-90675000D01*
X136450000Y-90825000D01*
X136444291Y-90853701D01*
X136428033Y-90878033D01*
X136403701Y-90894291D01*
X136375000Y-90900000D01*
X134975000Y-90900000D01*
X134946299Y-90894291D01*
X134921967Y-90878033D01*
X134905709Y-90853701D01*
X134900000Y-90825000D01*
X134900000Y-90675000D01*
X134905709Y-90646299D01*
X134921967Y-90621967D01*
X134946299Y-90605709D01*
X134975000Y-90600000D01*
X136375000Y-90600000D01*
X136403701Y-90605709D01*
X136403701Y-90605709D01*
G37*
D31*
X135675000Y-90750000D03*
D10*
G36*
X136403701Y-91105709D02*
G01*
X136428033Y-91121967D01*
X136444291Y-91146299D01*
X136450000Y-91175000D01*
X136450000Y-91325000D01*
X136444291Y-91353701D01*
X136428033Y-91378033D01*
X136403701Y-91394291D01*
X136375000Y-91400000D01*
X134975000Y-91400000D01*
X134946299Y-91394291D01*
X134921967Y-91378033D01*
X134905709Y-91353701D01*
X134900000Y-91325000D01*
X134900000Y-91175000D01*
X134905709Y-91146299D01*
X134921967Y-91121967D01*
X134946299Y-91105709D01*
X134975000Y-91100000D01*
X136375000Y-91100000D01*
X136403701Y-91105709D01*
X136403701Y-91105709D01*
G37*
D31*
X135675000Y-91250000D03*
D10*
G36*
X136403701Y-91605709D02*
G01*
X136428033Y-91621967D01*
X136444291Y-91646299D01*
X136450000Y-91675000D01*
X136450000Y-91825000D01*
X136444291Y-91853701D01*
X136428033Y-91878033D01*
X136403701Y-91894291D01*
X136375000Y-91900000D01*
X134975000Y-91900000D01*
X134946299Y-91894291D01*
X134921967Y-91878033D01*
X134905709Y-91853701D01*
X134900000Y-91825000D01*
X134900000Y-91675000D01*
X134905709Y-91646299D01*
X134921967Y-91621967D01*
X134946299Y-91605709D01*
X134975000Y-91600000D01*
X136375000Y-91600000D01*
X136403701Y-91605709D01*
X136403701Y-91605709D01*
G37*
D31*
X135675000Y-91750000D03*
D10*
G36*
X136403701Y-92105709D02*
G01*
X136428033Y-92121967D01*
X136444291Y-92146299D01*
X136450000Y-92175000D01*
X136450000Y-92325000D01*
X136444291Y-92353701D01*
X136428033Y-92378033D01*
X136403701Y-92394291D01*
X136375000Y-92400000D01*
X134975000Y-92400000D01*
X134946299Y-92394291D01*
X134921967Y-92378033D01*
X134905709Y-92353701D01*
X134900000Y-92325000D01*
X134900000Y-92175000D01*
X134905709Y-92146299D01*
X134921967Y-92121967D01*
X134946299Y-92105709D01*
X134975000Y-92100000D01*
X136375000Y-92100000D01*
X136403701Y-92105709D01*
X136403701Y-92105709D01*
G37*
D31*
X135675000Y-92250000D03*
D10*
G36*
X136403701Y-92605709D02*
G01*
X136428033Y-92621967D01*
X136444291Y-92646299D01*
X136450000Y-92675000D01*
X136450000Y-92825000D01*
X136444291Y-92853701D01*
X136428033Y-92878033D01*
X136403701Y-92894291D01*
X136375000Y-92900000D01*
X134975000Y-92900000D01*
X134946299Y-92894291D01*
X134921967Y-92878033D01*
X134905709Y-92853701D01*
X134900000Y-92825000D01*
X134900000Y-92675000D01*
X134905709Y-92646299D01*
X134921967Y-92621967D01*
X134946299Y-92605709D01*
X134975000Y-92600000D01*
X136375000Y-92600000D01*
X136403701Y-92605709D01*
X136403701Y-92605709D01*
G37*
D31*
X135675000Y-92750000D03*
D10*
G36*
X136403701Y-93105709D02*
G01*
X136428033Y-93121967D01*
X136444291Y-93146299D01*
X136450000Y-93175000D01*
X136450000Y-93325000D01*
X136444291Y-93353701D01*
X136428033Y-93378033D01*
X136403701Y-93394291D01*
X136375000Y-93400000D01*
X134975000Y-93400000D01*
X134946299Y-93394291D01*
X134921967Y-93378033D01*
X134905709Y-93353701D01*
X134900000Y-93325000D01*
X134900000Y-93175000D01*
X134905709Y-93146299D01*
X134921967Y-93121967D01*
X134946299Y-93105709D01*
X134975000Y-93100000D01*
X136375000Y-93100000D01*
X136403701Y-93105709D01*
X136403701Y-93105709D01*
G37*
D31*
X135675000Y-93250000D03*
D10*
G36*
X136403701Y-93605709D02*
G01*
X136428033Y-93621967D01*
X136444291Y-93646299D01*
X136450000Y-93675000D01*
X136450000Y-93825000D01*
X136444291Y-93853701D01*
X136428033Y-93878033D01*
X136403701Y-93894291D01*
X136375000Y-93900000D01*
X134975000Y-93900000D01*
X134946299Y-93894291D01*
X134921967Y-93878033D01*
X134905709Y-93853701D01*
X134900000Y-93825000D01*
X134900000Y-93675000D01*
X134905709Y-93646299D01*
X134921967Y-93621967D01*
X134946299Y-93605709D01*
X134975000Y-93600000D01*
X136375000Y-93600000D01*
X136403701Y-93605709D01*
X136403701Y-93605709D01*
G37*
D31*
X135675000Y-93750000D03*
D10*
G36*
X133853701Y-94905709D02*
G01*
X133878033Y-94921967D01*
X133894291Y-94946299D01*
X133900000Y-94975000D01*
X133900000Y-96375000D01*
X133894291Y-96403701D01*
X133878033Y-96428033D01*
X133853701Y-96444291D01*
X133825000Y-96450000D01*
X133675000Y-96450000D01*
X133646299Y-96444291D01*
X133621967Y-96428033D01*
X133605709Y-96403701D01*
X133600000Y-96375000D01*
X133600000Y-94975000D01*
X133605709Y-94946299D01*
X133621967Y-94921967D01*
X133646299Y-94905709D01*
X133675000Y-94900000D01*
X133825000Y-94900000D01*
X133853701Y-94905709D01*
X133853701Y-94905709D01*
G37*
D31*
X133750000Y-95675000D03*
D10*
G36*
X133353701Y-94905709D02*
G01*
X133378033Y-94921967D01*
X133394291Y-94946299D01*
X133400000Y-94975000D01*
X133400000Y-96375000D01*
X133394291Y-96403701D01*
X133378033Y-96428033D01*
X133353701Y-96444291D01*
X133325000Y-96450000D01*
X133175000Y-96450000D01*
X133146299Y-96444291D01*
X133121967Y-96428033D01*
X133105709Y-96403701D01*
X133100000Y-96375000D01*
X133100000Y-94975000D01*
X133105709Y-94946299D01*
X133121967Y-94921967D01*
X133146299Y-94905709D01*
X133175000Y-94900000D01*
X133325000Y-94900000D01*
X133353701Y-94905709D01*
X133353701Y-94905709D01*
G37*
D31*
X133250000Y-95675000D03*
D10*
G36*
X132853701Y-94905709D02*
G01*
X132878033Y-94921967D01*
X132894291Y-94946299D01*
X132900000Y-94975000D01*
X132900000Y-96375000D01*
X132894291Y-96403701D01*
X132878033Y-96428033D01*
X132853701Y-96444291D01*
X132825000Y-96450000D01*
X132675000Y-96450000D01*
X132646299Y-96444291D01*
X132621967Y-96428033D01*
X132605709Y-96403701D01*
X132600000Y-96375000D01*
X132600000Y-94975000D01*
X132605709Y-94946299D01*
X132621967Y-94921967D01*
X132646299Y-94905709D01*
X132675000Y-94900000D01*
X132825000Y-94900000D01*
X132853701Y-94905709D01*
X132853701Y-94905709D01*
G37*
D31*
X132750000Y-95675000D03*
D10*
G36*
X132353701Y-94905709D02*
G01*
X132378033Y-94921967D01*
X132394291Y-94946299D01*
X132400000Y-94975000D01*
X132400000Y-96375000D01*
X132394291Y-96403701D01*
X132378033Y-96428033D01*
X132353701Y-96444291D01*
X132325000Y-96450000D01*
X132175000Y-96450000D01*
X132146299Y-96444291D01*
X132121967Y-96428033D01*
X132105709Y-96403701D01*
X132100000Y-96375000D01*
X132100000Y-94975000D01*
X132105709Y-94946299D01*
X132121967Y-94921967D01*
X132146299Y-94905709D01*
X132175000Y-94900000D01*
X132325000Y-94900000D01*
X132353701Y-94905709D01*
X132353701Y-94905709D01*
G37*
D31*
X132250000Y-95675000D03*
D10*
G36*
X131853701Y-94905709D02*
G01*
X131878033Y-94921967D01*
X131894291Y-94946299D01*
X131900000Y-94975000D01*
X131900000Y-96375000D01*
X131894291Y-96403701D01*
X131878033Y-96428033D01*
X131853701Y-96444291D01*
X131825000Y-96450000D01*
X131675000Y-96450000D01*
X131646299Y-96444291D01*
X131621967Y-96428033D01*
X131605709Y-96403701D01*
X131600000Y-96375000D01*
X131600000Y-94975000D01*
X131605709Y-94946299D01*
X131621967Y-94921967D01*
X131646299Y-94905709D01*
X131675000Y-94900000D01*
X131825000Y-94900000D01*
X131853701Y-94905709D01*
X131853701Y-94905709D01*
G37*
D31*
X131750000Y-95675000D03*
D10*
G36*
X131353701Y-94905709D02*
G01*
X131378033Y-94921967D01*
X131394291Y-94946299D01*
X131400000Y-94975000D01*
X131400000Y-96375000D01*
X131394291Y-96403701D01*
X131378033Y-96428033D01*
X131353701Y-96444291D01*
X131325000Y-96450000D01*
X131175000Y-96450000D01*
X131146299Y-96444291D01*
X131121967Y-96428033D01*
X131105709Y-96403701D01*
X131100000Y-96375000D01*
X131100000Y-94975000D01*
X131105709Y-94946299D01*
X131121967Y-94921967D01*
X131146299Y-94905709D01*
X131175000Y-94900000D01*
X131325000Y-94900000D01*
X131353701Y-94905709D01*
X131353701Y-94905709D01*
G37*
D31*
X131250000Y-95675000D03*
D10*
G36*
X130853701Y-94905709D02*
G01*
X130878033Y-94921967D01*
X130894291Y-94946299D01*
X130900000Y-94975000D01*
X130900000Y-96375000D01*
X130894291Y-96403701D01*
X130878033Y-96428033D01*
X130853701Y-96444291D01*
X130825000Y-96450000D01*
X130675000Y-96450000D01*
X130646299Y-96444291D01*
X130621967Y-96428033D01*
X130605709Y-96403701D01*
X130600000Y-96375000D01*
X130600000Y-94975000D01*
X130605709Y-94946299D01*
X130621967Y-94921967D01*
X130646299Y-94905709D01*
X130675000Y-94900000D01*
X130825000Y-94900000D01*
X130853701Y-94905709D01*
X130853701Y-94905709D01*
G37*
D31*
X130750000Y-95675000D03*
D10*
G36*
X130353701Y-94905709D02*
G01*
X130378033Y-94921967D01*
X130394291Y-94946299D01*
X130400000Y-94975000D01*
X130400000Y-96375000D01*
X130394291Y-96403701D01*
X130378033Y-96428033D01*
X130353701Y-96444291D01*
X130325000Y-96450000D01*
X130175000Y-96450000D01*
X130146299Y-96444291D01*
X130121967Y-96428033D01*
X130105709Y-96403701D01*
X130100000Y-96375000D01*
X130100000Y-94975000D01*
X130105709Y-94946299D01*
X130121967Y-94921967D01*
X130146299Y-94905709D01*
X130175000Y-94900000D01*
X130325000Y-94900000D01*
X130353701Y-94905709D01*
X130353701Y-94905709D01*
G37*
D31*
X130250000Y-95675000D03*
D10*
G36*
X129853701Y-94905709D02*
G01*
X129878033Y-94921967D01*
X129894291Y-94946299D01*
X129900000Y-94975000D01*
X129900000Y-96375000D01*
X129894291Y-96403701D01*
X129878033Y-96428033D01*
X129853701Y-96444291D01*
X129825000Y-96450000D01*
X129675000Y-96450000D01*
X129646299Y-96444291D01*
X129621967Y-96428033D01*
X129605709Y-96403701D01*
X129600000Y-96375000D01*
X129600000Y-94975000D01*
X129605709Y-94946299D01*
X129621967Y-94921967D01*
X129646299Y-94905709D01*
X129675000Y-94900000D01*
X129825000Y-94900000D01*
X129853701Y-94905709D01*
X129853701Y-94905709D01*
G37*
D31*
X129750000Y-95675000D03*
D10*
G36*
X129353701Y-94905709D02*
G01*
X129378033Y-94921967D01*
X129394291Y-94946299D01*
X129400000Y-94975000D01*
X129400000Y-96375000D01*
X129394291Y-96403701D01*
X129378033Y-96428033D01*
X129353701Y-96444291D01*
X129325000Y-96450000D01*
X129175000Y-96450000D01*
X129146299Y-96444291D01*
X129121967Y-96428033D01*
X129105709Y-96403701D01*
X129100000Y-96375000D01*
X129100000Y-94975000D01*
X129105709Y-94946299D01*
X129121967Y-94921967D01*
X129146299Y-94905709D01*
X129175000Y-94900000D01*
X129325000Y-94900000D01*
X129353701Y-94905709D01*
X129353701Y-94905709D01*
G37*
D31*
X129250000Y-95675000D03*
D10*
G36*
X128853701Y-94905709D02*
G01*
X128878033Y-94921967D01*
X128894291Y-94946299D01*
X128900000Y-94975000D01*
X128900000Y-96375000D01*
X128894291Y-96403701D01*
X128878033Y-96428033D01*
X128853701Y-96444291D01*
X128825000Y-96450000D01*
X128675000Y-96450000D01*
X128646299Y-96444291D01*
X128621967Y-96428033D01*
X128605709Y-96403701D01*
X128600000Y-96375000D01*
X128600000Y-94975000D01*
X128605709Y-94946299D01*
X128621967Y-94921967D01*
X128646299Y-94905709D01*
X128675000Y-94900000D01*
X128825000Y-94900000D01*
X128853701Y-94905709D01*
X128853701Y-94905709D01*
G37*
D31*
X128750000Y-95675000D03*
D10*
G36*
X128353701Y-94905709D02*
G01*
X128378033Y-94921967D01*
X128394291Y-94946299D01*
X128400000Y-94975000D01*
X128400000Y-96375000D01*
X128394291Y-96403701D01*
X128378033Y-96428033D01*
X128353701Y-96444291D01*
X128325000Y-96450000D01*
X128175000Y-96450000D01*
X128146299Y-96444291D01*
X128121967Y-96428033D01*
X128105709Y-96403701D01*
X128100000Y-96375000D01*
X128100000Y-94975000D01*
X128105709Y-94946299D01*
X128121967Y-94921967D01*
X128146299Y-94905709D01*
X128175000Y-94900000D01*
X128325000Y-94900000D01*
X128353701Y-94905709D01*
X128353701Y-94905709D01*
G37*
D31*
X128250000Y-95675000D03*
D10*
G36*
X127853701Y-94905709D02*
G01*
X127878033Y-94921967D01*
X127894291Y-94946299D01*
X127900000Y-94975000D01*
X127900000Y-96375000D01*
X127894291Y-96403701D01*
X127878033Y-96428033D01*
X127853701Y-96444291D01*
X127825000Y-96450000D01*
X127675000Y-96450000D01*
X127646299Y-96444291D01*
X127621967Y-96428033D01*
X127605709Y-96403701D01*
X127600000Y-96375000D01*
X127600000Y-94975000D01*
X127605709Y-94946299D01*
X127621967Y-94921967D01*
X127646299Y-94905709D01*
X127675000Y-94900000D01*
X127825000Y-94900000D01*
X127853701Y-94905709D01*
X127853701Y-94905709D01*
G37*
D31*
X127750000Y-95675000D03*
D10*
G36*
X127353701Y-94905709D02*
G01*
X127378033Y-94921967D01*
X127394291Y-94946299D01*
X127400000Y-94975000D01*
X127400000Y-96375000D01*
X127394291Y-96403701D01*
X127378033Y-96428033D01*
X127353701Y-96444291D01*
X127325000Y-96450000D01*
X127175000Y-96450000D01*
X127146299Y-96444291D01*
X127121967Y-96428033D01*
X127105709Y-96403701D01*
X127100000Y-96375000D01*
X127100000Y-94975000D01*
X127105709Y-94946299D01*
X127121967Y-94921967D01*
X127146299Y-94905709D01*
X127175000Y-94900000D01*
X127325000Y-94900000D01*
X127353701Y-94905709D01*
X127353701Y-94905709D01*
G37*
D31*
X127250000Y-95675000D03*
D10*
G36*
X126853701Y-94905709D02*
G01*
X126878033Y-94921967D01*
X126894291Y-94946299D01*
X126900000Y-94975000D01*
X126900000Y-96375000D01*
X126894291Y-96403701D01*
X126878033Y-96428033D01*
X126853701Y-96444291D01*
X126825000Y-96450000D01*
X126675000Y-96450000D01*
X126646299Y-96444291D01*
X126621967Y-96428033D01*
X126605709Y-96403701D01*
X126600000Y-96375000D01*
X126600000Y-94975000D01*
X126605709Y-94946299D01*
X126621967Y-94921967D01*
X126646299Y-94905709D01*
X126675000Y-94900000D01*
X126825000Y-94900000D01*
X126853701Y-94905709D01*
X126853701Y-94905709D01*
G37*
D31*
X126750000Y-95675000D03*
D10*
G36*
X126353701Y-94905709D02*
G01*
X126378033Y-94921967D01*
X126394291Y-94946299D01*
X126400000Y-94975000D01*
X126400000Y-96375000D01*
X126394291Y-96403701D01*
X126378033Y-96428033D01*
X126353701Y-96444291D01*
X126325000Y-96450000D01*
X126175000Y-96450000D01*
X126146299Y-96444291D01*
X126121967Y-96428033D01*
X126105709Y-96403701D01*
X126100000Y-96375000D01*
X126100000Y-94975000D01*
X126105709Y-94946299D01*
X126121967Y-94921967D01*
X126146299Y-94905709D01*
X126175000Y-94900000D01*
X126325000Y-94900000D01*
X126353701Y-94905709D01*
X126353701Y-94905709D01*
G37*
D31*
X126250000Y-95675000D03*
D10*
G36*
X125053701Y-93605709D02*
G01*
X125078033Y-93621967D01*
X125094291Y-93646299D01*
X125100000Y-93675000D01*
X125100000Y-93825000D01*
X125094291Y-93853701D01*
X125078033Y-93878033D01*
X125053701Y-93894291D01*
X125025000Y-93900000D01*
X123625000Y-93900000D01*
X123596299Y-93894291D01*
X123571967Y-93878033D01*
X123555709Y-93853701D01*
X123550000Y-93825000D01*
X123550000Y-93675000D01*
X123555709Y-93646299D01*
X123571967Y-93621967D01*
X123596299Y-93605709D01*
X123625000Y-93600000D01*
X125025000Y-93600000D01*
X125053701Y-93605709D01*
X125053701Y-93605709D01*
G37*
D31*
X124325000Y-93750000D03*
D10*
G36*
X125053701Y-93105709D02*
G01*
X125078033Y-93121967D01*
X125094291Y-93146299D01*
X125100000Y-93175000D01*
X125100000Y-93325000D01*
X125094291Y-93353701D01*
X125078033Y-93378033D01*
X125053701Y-93394291D01*
X125025000Y-93400000D01*
X123625000Y-93400000D01*
X123596299Y-93394291D01*
X123571967Y-93378033D01*
X123555709Y-93353701D01*
X123550000Y-93325000D01*
X123550000Y-93175000D01*
X123555709Y-93146299D01*
X123571967Y-93121967D01*
X123596299Y-93105709D01*
X123625000Y-93100000D01*
X125025000Y-93100000D01*
X125053701Y-93105709D01*
X125053701Y-93105709D01*
G37*
D31*
X124325000Y-93250000D03*
D10*
G36*
X125053701Y-92605709D02*
G01*
X125078033Y-92621967D01*
X125094291Y-92646299D01*
X125100000Y-92675000D01*
X125100000Y-92825000D01*
X125094291Y-92853701D01*
X125078033Y-92878033D01*
X125053701Y-92894291D01*
X125025000Y-92900000D01*
X123625000Y-92900000D01*
X123596299Y-92894291D01*
X123571967Y-92878033D01*
X123555709Y-92853701D01*
X123550000Y-92825000D01*
X123550000Y-92675000D01*
X123555709Y-92646299D01*
X123571967Y-92621967D01*
X123596299Y-92605709D01*
X123625000Y-92600000D01*
X125025000Y-92600000D01*
X125053701Y-92605709D01*
X125053701Y-92605709D01*
G37*
D31*
X124325000Y-92750000D03*
D10*
G36*
X125053701Y-92105709D02*
G01*
X125078033Y-92121967D01*
X125094291Y-92146299D01*
X125100000Y-92175000D01*
X125100000Y-92325000D01*
X125094291Y-92353701D01*
X125078033Y-92378033D01*
X125053701Y-92394291D01*
X125025000Y-92400000D01*
X123625000Y-92400000D01*
X123596299Y-92394291D01*
X123571967Y-92378033D01*
X123555709Y-92353701D01*
X123550000Y-92325000D01*
X123550000Y-92175000D01*
X123555709Y-92146299D01*
X123571967Y-92121967D01*
X123596299Y-92105709D01*
X123625000Y-92100000D01*
X125025000Y-92100000D01*
X125053701Y-92105709D01*
X125053701Y-92105709D01*
G37*
D31*
X124325000Y-92250000D03*
D10*
G36*
X125053701Y-91605709D02*
G01*
X125078033Y-91621967D01*
X125094291Y-91646299D01*
X125100000Y-91675000D01*
X125100000Y-91825000D01*
X125094291Y-91853701D01*
X125078033Y-91878033D01*
X125053701Y-91894291D01*
X125025000Y-91900000D01*
X123625000Y-91900000D01*
X123596299Y-91894291D01*
X123571967Y-91878033D01*
X123555709Y-91853701D01*
X123550000Y-91825000D01*
X123550000Y-91675000D01*
X123555709Y-91646299D01*
X123571967Y-91621967D01*
X123596299Y-91605709D01*
X123625000Y-91600000D01*
X125025000Y-91600000D01*
X125053701Y-91605709D01*
X125053701Y-91605709D01*
G37*
D31*
X124325000Y-91750000D03*
D10*
G36*
X125053701Y-91105709D02*
G01*
X125078033Y-91121967D01*
X125094291Y-91146299D01*
X125100000Y-91175000D01*
X125100000Y-91325000D01*
X125094291Y-91353701D01*
X125078033Y-91378033D01*
X125053701Y-91394291D01*
X125025000Y-91400000D01*
X123625000Y-91400000D01*
X123596299Y-91394291D01*
X123571967Y-91378033D01*
X123555709Y-91353701D01*
X123550000Y-91325000D01*
X123550000Y-91175000D01*
X123555709Y-91146299D01*
X123571967Y-91121967D01*
X123596299Y-91105709D01*
X123625000Y-91100000D01*
X125025000Y-91100000D01*
X125053701Y-91105709D01*
X125053701Y-91105709D01*
G37*
D31*
X124325000Y-91250000D03*
D10*
G36*
X125053701Y-90605709D02*
G01*
X125078033Y-90621967D01*
X125094291Y-90646299D01*
X125100000Y-90675000D01*
X125100000Y-90825000D01*
X125094291Y-90853701D01*
X125078033Y-90878033D01*
X125053701Y-90894291D01*
X125025000Y-90900000D01*
X123625000Y-90900000D01*
X123596299Y-90894291D01*
X123571967Y-90878033D01*
X123555709Y-90853701D01*
X123550000Y-90825000D01*
X123550000Y-90675000D01*
X123555709Y-90646299D01*
X123571967Y-90621967D01*
X123596299Y-90605709D01*
X123625000Y-90600000D01*
X125025000Y-90600000D01*
X125053701Y-90605709D01*
X125053701Y-90605709D01*
G37*
D31*
X124325000Y-90750000D03*
D10*
G36*
X125053701Y-90105709D02*
G01*
X125078033Y-90121967D01*
X125094291Y-90146299D01*
X125100000Y-90175000D01*
X125100000Y-90325000D01*
X125094291Y-90353701D01*
X125078033Y-90378033D01*
X125053701Y-90394291D01*
X125025000Y-90400000D01*
X123625000Y-90400000D01*
X123596299Y-90394291D01*
X123571967Y-90378033D01*
X123555709Y-90353701D01*
X123550000Y-90325000D01*
X123550000Y-90175000D01*
X123555709Y-90146299D01*
X123571967Y-90121967D01*
X123596299Y-90105709D01*
X123625000Y-90100000D01*
X125025000Y-90100000D01*
X125053701Y-90105709D01*
X125053701Y-90105709D01*
G37*
D31*
X124325000Y-90250000D03*
D10*
G36*
X125053701Y-89605709D02*
G01*
X125078033Y-89621967D01*
X125094291Y-89646299D01*
X125100000Y-89675000D01*
X125100000Y-89825000D01*
X125094291Y-89853701D01*
X125078033Y-89878033D01*
X125053701Y-89894291D01*
X125025000Y-89900000D01*
X123625000Y-89900000D01*
X123596299Y-89894291D01*
X123571967Y-89878033D01*
X123555709Y-89853701D01*
X123550000Y-89825000D01*
X123550000Y-89675000D01*
X123555709Y-89646299D01*
X123571967Y-89621967D01*
X123596299Y-89605709D01*
X123625000Y-89600000D01*
X125025000Y-89600000D01*
X125053701Y-89605709D01*
X125053701Y-89605709D01*
G37*
D31*
X124325000Y-89750000D03*
D10*
G36*
X125053701Y-89105709D02*
G01*
X125078033Y-89121967D01*
X125094291Y-89146299D01*
X125100000Y-89175000D01*
X125100000Y-89325000D01*
X125094291Y-89353701D01*
X125078033Y-89378033D01*
X125053701Y-89394291D01*
X125025000Y-89400000D01*
X123625000Y-89400000D01*
X123596299Y-89394291D01*
X123571967Y-89378033D01*
X123555709Y-89353701D01*
X123550000Y-89325000D01*
X123550000Y-89175000D01*
X123555709Y-89146299D01*
X123571967Y-89121967D01*
X123596299Y-89105709D01*
X123625000Y-89100000D01*
X125025000Y-89100000D01*
X125053701Y-89105709D01*
X125053701Y-89105709D01*
G37*
D31*
X124325000Y-89250000D03*
D10*
G36*
X125053701Y-88605709D02*
G01*
X125078033Y-88621967D01*
X125094291Y-88646299D01*
X125100000Y-88675000D01*
X125100000Y-88825000D01*
X125094291Y-88853701D01*
X125078033Y-88878033D01*
X125053701Y-88894291D01*
X125025000Y-88900000D01*
X123625000Y-88900000D01*
X123596299Y-88894291D01*
X123571967Y-88878033D01*
X123555709Y-88853701D01*
X123550000Y-88825000D01*
X123550000Y-88675000D01*
X123555709Y-88646299D01*
X123571967Y-88621967D01*
X123596299Y-88605709D01*
X123625000Y-88600000D01*
X125025000Y-88600000D01*
X125053701Y-88605709D01*
X125053701Y-88605709D01*
G37*
D31*
X124325000Y-88750000D03*
D10*
G36*
X125053701Y-88105709D02*
G01*
X125078033Y-88121967D01*
X125094291Y-88146299D01*
X125100000Y-88175000D01*
X125100000Y-88325000D01*
X125094291Y-88353701D01*
X125078033Y-88378033D01*
X125053701Y-88394291D01*
X125025000Y-88400000D01*
X123625000Y-88400000D01*
X123596299Y-88394291D01*
X123571967Y-88378033D01*
X123555709Y-88353701D01*
X123550000Y-88325000D01*
X123550000Y-88175000D01*
X123555709Y-88146299D01*
X123571967Y-88121967D01*
X123596299Y-88105709D01*
X123625000Y-88100000D01*
X125025000Y-88100000D01*
X125053701Y-88105709D01*
X125053701Y-88105709D01*
G37*
D31*
X124325000Y-88250000D03*
D10*
G36*
X125053701Y-87605709D02*
G01*
X125078033Y-87621967D01*
X125094291Y-87646299D01*
X125100000Y-87675000D01*
X125100000Y-87825000D01*
X125094291Y-87853701D01*
X125078033Y-87878033D01*
X125053701Y-87894291D01*
X125025000Y-87900000D01*
X123625000Y-87900000D01*
X123596299Y-87894291D01*
X123571967Y-87878033D01*
X123555709Y-87853701D01*
X123550000Y-87825000D01*
X123550000Y-87675000D01*
X123555709Y-87646299D01*
X123571967Y-87621967D01*
X123596299Y-87605709D01*
X123625000Y-87600000D01*
X125025000Y-87600000D01*
X125053701Y-87605709D01*
X125053701Y-87605709D01*
G37*
D31*
X124325000Y-87750000D03*
D10*
G36*
X125053701Y-87105709D02*
G01*
X125078033Y-87121967D01*
X125094291Y-87146299D01*
X125100000Y-87175000D01*
X125100000Y-87325000D01*
X125094291Y-87353701D01*
X125078033Y-87378033D01*
X125053701Y-87394291D01*
X125025000Y-87400000D01*
X123625000Y-87400000D01*
X123596299Y-87394291D01*
X123571967Y-87378033D01*
X123555709Y-87353701D01*
X123550000Y-87325000D01*
X123550000Y-87175000D01*
X123555709Y-87146299D01*
X123571967Y-87121967D01*
X123596299Y-87105709D01*
X123625000Y-87100000D01*
X125025000Y-87100000D01*
X125053701Y-87105709D01*
X125053701Y-87105709D01*
G37*
D31*
X124325000Y-87250000D03*
D10*
G36*
X125053701Y-86605709D02*
G01*
X125078033Y-86621967D01*
X125094291Y-86646299D01*
X125100000Y-86675000D01*
X125100000Y-86825000D01*
X125094291Y-86853701D01*
X125078033Y-86878033D01*
X125053701Y-86894291D01*
X125025000Y-86900000D01*
X123625000Y-86900000D01*
X123596299Y-86894291D01*
X123571967Y-86878033D01*
X123555709Y-86853701D01*
X123550000Y-86825000D01*
X123550000Y-86675000D01*
X123555709Y-86646299D01*
X123571967Y-86621967D01*
X123596299Y-86605709D01*
X123625000Y-86600000D01*
X125025000Y-86600000D01*
X125053701Y-86605709D01*
X125053701Y-86605709D01*
G37*
D31*
X124325000Y-86750000D03*
D10*
G36*
X125053701Y-86105709D02*
G01*
X125078033Y-86121967D01*
X125094291Y-86146299D01*
X125100000Y-86175000D01*
X125100000Y-86325000D01*
X125094291Y-86353701D01*
X125078033Y-86378033D01*
X125053701Y-86394291D01*
X125025000Y-86400000D01*
X123625000Y-86400000D01*
X123596299Y-86394291D01*
X123571967Y-86378033D01*
X123555709Y-86353701D01*
X123550000Y-86325000D01*
X123550000Y-86175000D01*
X123555709Y-86146299D01*
X123571967Y-86121967D01*
X123596299Y-86105709D01*
X123625000Y-86100000D01*
X125025000Y-86100000D01*
X125053701Y-86105709D01*
X125053701Y-86105709D01*
G37*
D31*
X124325000Y-86250000D03*
D10*
G36*
X126353701Y-83555709D02*
G01*
X126378033Y-83571967D01*
X126394291Y-83596299D01*
X126400000Y-83625000D01*
X126400000Y-85025000D01*
X126394291Y-85053701D01*
X126378033Y-85078033D01*
X126353701Y-85094291D01*
X126325000Y-85100000D01*
X126175000Y-85100000D01*
X126146299Y-85094291D01*
X126121967Y-85078033D01*
X126105709Y-85053701D01*
X126100000Y-85025000D01*
X126100000Y-83625000D01*
X126105709Y-83596299D01*
X126121967Y-83571967D01*
X126146299Y-83555709D01*
X126175000Y-83550000D01*
X126325000Y-83550000D01*
X126353701Y-83555709D01*
X126353701Y-83555709D01*
G37*
D31*
X126250000Y-84325000D03*
D10*
G36*
X126853701Y-83555709D02*
G01*
X126878033Y-83571967D01*
X126894291Y-83596299D01*
X126900000Y-83625000D01*
X126900000Y-85025000D01*
X126894291Y-85053701D01*
X126878033Y-85078033D01*
X126853701Y-85094291D01*
X126825000Y-85100000D01*
X126675000Y-85100000D01*
X126646299Y-85094291D01*
X126621967Y-85078033D01*
X126605709Y-85053701D01*
X126600000Y-85025000D01*
X126600000Y-83625000D01*
X126605709Y-83596299D01*
X126621967Y-83571967D01*
X126646299Y-83555709D01*
X126675000Y-83550000D01*
X126825000Y-83550000D01*
X126853701Y-83555709D01*
X126853701Y-83555709D01*
G37*
D31*
X126750000Y-84325000D03*
D10*
G36*
X127353701Y-83555709D02*
G01*
X127378033Y-83571967D01*
X127394291Y-83596299D01*
X127400000Y-83625000D01*
X127400000Y-85025000D01*
X127394291Y-85053701D01*
X127378033Y-85078033D01*
X127353701Y-85094291D01*
X127325000Y-85100000D01*
X127175000Y-85100000D01*
X127146299Y-85094291D01*
X127121967Y-85078033D01*
X127105709Y-85053701D01*
X127100000Y-85025000D01*
X127100000Y-83625000D01*
X127105709Y-83596299D01*
X127121967Y-83571967D01*
X127146299Y-83555709D01*
X127175000Y-83550000D01*
X127325000Y-83550000D01*
X127353701Y-83555709D01*
X127353701Y-83555709D01*
G37*
D31*
X127250000Y-84325000D03*
D10*
G36*
X127853701Y-83555709D02*
G01*
X127878033Y-83571967D01*
X127894291Y-83596299D01*
X127900000Y-83625000D01*
X127900000Y-85025000D01*
X127894291Y-85053701D01*
X127878033Y-85078033D01*
X127853701Y-85094291D01*
X127825000Y-85100000D01*
X127675000Y-85100000D01*
X127646299Y-85094291D01*
X127621967Y-85078033D01*
X127605709Y-85053701D01*
X127600000Y-85025000D01*
X127600000Y-83625000D01*
X127605709Y-83596299D01*
X127621967Y-83571967D01*
X127646299Y-83555709D01*
X127675000Y-83550000D01*
X127825000Y-83550000D01*
X127853701Y-83555709D01*
X127853701Y-83555709D01*
G37*
D31*
X127750000Y-84325000D03*
D10*
G36*
X128353701Y-83555709D02*
G01*
X128378033Y-83571967D01*
X128394291Y-83596299D01*
X128400000Y-83625000D01*
X128400000Y-85025000D01*
X128394291Y-85053701D01*
X128378033Y-85078033D01*
X128353701Y-85094291D01*
X128325000Y-85100000D01*
X128175000Y-85100000D01*
X128146299Y-85094291D01*
X128121967Y-85078033D01*
X128105709Y-85053701D01*
X128100000Y-85025000D01*
X128100000Y-83625000D01*
X128105709Y-83596299D01*
X128121967Y-83571967D01*
X128146299Y-83555709D01*
X128175000Y-83550000D01*
X128325000Y-83550000D01*
X128353701Y-83555709D01*
X128353701Y-83555709D01*
G37*
D31*
X128250000Y-84325000D03*
D10*
G36*
X128853701Y-83555709D02*
G01*
X128878033Y-83571967D01*
X128894291Y-83596299D01*
X128900000Y-83625000D01*
X128900000Y-85025000D01*
X128894291Y-85053701D01*
X128878033Y-85078033D01*
X128853701Y-85094291D01*
X128825000Y-85100000D01*
X128675000Y-85100000D01*
X128646299Y-85094291D01*
X128621967Y-85078033D01*
X128605709Y-85053701D01*
X128600000Y-85025000D01*
X128600000Y-83625000D01*
X128605709Y-83596299D01*
X128621967Y-83571967D01*
X128646299Y-83555709D01*
X128675000Y-83550000D01*
X128825000Y-83550000D01*
X128853701Y-83555709D01*
X128853701Y-83555709D01*
G37*
D31*
X128750000Y-84325000D03*
D10*
G36*
X129353701Y-83555709D02*
G01*
X129378033Y-83571967D01*
X129394291Y-83596299D01*
X129400000Y-83625000D01*
X129400000Y-85025000D01*
X129394291Y-85053701D01*
X129378033Y-85078033D01*
X129353701Y-85094291D01*
X129325000Y-85100000D01*
X129175000Y-85100000D01*
X129146299Y-85094291D01*
X129121967Y-85078033D01*
X129105709Y-85053701D01*
X129100000Y-85025000D01*
X129100000Y-83625000D01*
X129105709Y-83596299D01*
X129121967Y-83571967D01*
X129146299Y-83555709D01*
X129175000Y-83550000D01*
X129325000Y-83550000D01*
X129353701Y-83555709D01*
X129353701Y-83555709D01*
G37*
D31*
X129250000Y-84325000D03*
D10*
G36*
X129853701Y-83555709D02*
G01*
X129878033Y-83571967D01*
X129894291Y-83596299D01*
X129900000Y-83625000D01*
X129900000Y-85025000D01*
X129894291Y-85053701D01*
X129878033Y-85078033D01*
X129853701Y-85094291D01*
X129825000Y-85100000D01*
X129675000Y-85100000D01*
X129646299Y-85094291D01*
X129621967Y-85078033D01*
X129605709Y-85053701D01*
X129600000Y-85025000D01*
X129600000Y-83625000D01*
X129605709Y-83596299D01*
X129621967Y-83571967D01*
X129646299Y-83555709D01*
X129675000Y-83550000D01*
X129825000Y-83550000D01*
X129853701Y-83555709D01*
X129853701Y-83555709D01*
G37*
D31*
X129750000Y-84325000D03*
D10*
G36*
X130353701Y-83555709D02*
G01*
X130378033Y-83571967D01*
X130394291Y-83596299D01*
X130400000Y-83625000D01*
X130400000Y-85025000D01*
X130394291Y-85053701D01*
X130378033Y-85078033D01*
X130353701Y-85094291D01*
X130325000Y-85100000D01*
X130175000Y-85100000D01*
X130146299Y-85094291D01*
X130121967Y-85078033D01*
X130105709Y-85053701D01*
X130100000Y-85025000D01*
X130100000Y-83625000D01*
X130105709Y-83596299D01*
X130121967Y-83571967D01*
X130146299Y-83555709D01*
X130175000Y-83550000D01*
X130325000Y-83550000D01*
X130353701Y-83555709D01*
X130353701Y-83555709D01*
G37*
D31*
X130250000Y-84325000D03*
D10*
G36*
X130853701Y-83555709D02*
G01*
X130878033Y-83571967D01*
X130894291Y-83596299D01*
X130900000Y-83625000D01*
X130900000Y-85025000D01*
X130894291Y-85053701D01*
X130878033Y-85078033D01*
X130853701Y-85094291D01*
X130825000Y-85100000D01*
X130675000Y-85100000D01*
X130646299Y-85094291D01*
X130621967Y-85078033D01*
X130605709Y-85053701D01*
X130600000Y-85025000D01*
X130600000Y-83625000D01*
X130605709Y-83596299D01*
X130621967Y-83571967D01*
X130646299Y-83555709D01*
X130675000Y-83550000D01*
X130825000Y-83550000D01*
X130853701Y-83555709D01*
X130853701Y-83555709D01*
G37*
D31*
X130750000Y-84325000D03*
D10*
G36*
X131353701Y-83555709D02*
G01*
X131378033Y-83571967D01*
X131394291Y-83596299D01*
X131400000Y-83625000D01*
X131400000Y-85025000D01*
X131394291Y-85053701D01*
X131378033Y-85078033D01*
X131353701Y-85094291D01*
X131325000Y-85100000D01*
X131175000Y-85100000D01*
X131146299Y-85094291D01*
X131121967Y-85078033D01*
X131105709Y-85053701D01*
X131100000Y-85025000D01*
X131100000Y-83625000D01*
X131105709Y-83596299D01*
X131121967Y-83571967D01*
X131146299Y-83555709D01*
X131175000Y-83550000D01*
X131325000Y-83550000D01*
X131353701Y-83555709D01*
X131353701Y-83555709D01*
G37*
D31*
X131250000Y-84325000D03*
D10*
G36*
X131853701Y-83555709D02*
G01*
X131878033Y-83571967D01*
X131894291Y-83596299D01*
X131900000Y-83625000D01*
X131900000Y-85025000D01*
X131894291Y-85053701D01*
X131878033Y-85078033D01*
X131853701Y-85094291D01*
X131825000Y-85100000D01*
X131675000Y-85100000D01*
X131646299Y-85094291D01*
X131621967Y-85078033D01*
X131605709Y-85053701D01*
X131600000Y-85025000D01*
X131600000Y-83625000D01*
X131605709Y-83596299D01*
X131621967Y-83571967D01*
X131646299Y-83555709D01*
X131675000Y-83550000D01*
X131825000Y-83550000D01*
X131853701Y-83555709D01*
X131853701Y-83555709D01*
G37*
D31*
X131750000Y-84325000D03*
D10*
G36*
X132353701Y-83555709D02*
G01*
X132378033Y-83571967D01*
X132394291Y-83596299D01*
X132400000Y-83625000D01*
X132400000Y-85025000D01*
X132394291Y-85053701D01*
X132378033Y-85078033D01*
X132353701Y-85094291D01*
X132325000Y-85100000D01*
X132175000Y-85100000D01*
X132146299Y-85094291D01*
X132121967Y-85078033D01*
X132105709Y-85053701D01*
X132100000Y-85025000D01*
X132100000Y-83625000D01*
X132105709Y-83596299D01*
X132121967Y-83571967D01*
X132146299Y-83555709D01*
X132175000Y-83550000D01*
X132325000Y-83550000D01*
X132353701Y-83555709D01*
X132353701Y-83555709D01*
G37*
D31*
X132250000Y-84325000D03*
D10*
G36*
X132853701Y-83555709D02*
G01*
X132878033Y-83571967D01*
X132894291Y-83596299D01*
X132900000Y-83625000D01*
X132900000Y-85025000D01*
X132894291Y-85053701D01*
X132878033Y-85078033D01*
X132853701Y-85094291D01*
X132825000Y-85100000D01*
X132675000Y-85100000D01*
X132646299Y-85094291D01*
X132621967Y-85078033D01*
X132605709Y-85053701D01*
X132600000Y-85025000D01*
X132600000Y-83625000D01*
X132605709Y-83596299D01*
X132621967Y-83571967D01*
X132646299Y-83555709D01*
X132675000Y-83550000D01*
X132825000Y-83550000D01*
X132853701Y-83555709D01*
X132853701Y-83555709D01*
G37*
D31*
X132750000Y-84325000D03*
D10*
G36*
X133353701Y-83555709D02*
G01*
X133378033Y-83571967D01*
X133394291Y-83596299D01*
X133400000Y-83625000D01*
X133400000Y-85025000D01*
X133394291Y-85053701D01*
X133378033Y-85078033D01*
X133353701Y-85094291D01*
X133325000Y-85100000D01*
X133175000Y-85100000D01*
X133146299Y-85094291D01*
X133121967Y-85078033D01*
X133105709Y-85053701D01*
X133100000Y-85025000D01*
X133100000Y-83625000D01*
X133105709Y-83596299D01*
X133121967Y-83571967D01*
X133146299Y-83555709D01*
X133175000Y-83550000D01*
X133325000Y-83550000D01*
X133353701Y-83555709D01*
X133353701Y-83555709D01*
G37*
D31*
X133250000Y-84325000D03*
D10*
G36*
X133853701Y-83555709D02*
G01*
X133878033Y-83571967D01*
X133894291Y-83596299D01*
X133900000Y-83625000D01*
X133900000Y-85025000D01*
X133894291Y-85053701D01*
X133878033Y-85078033D01*
X133853701Y-85094291D01*
X133825000Y-85100000D01*
X133675000Y-85100000D01*
X133646299Y-85094291D01*
X133621967Y-85078033D01*
X133605709Y-85053701D01*
X133600000Y-85025000D01*
X133600000Y-83625000D01*
X133605709Y-83596299D01*
X133621967Y-83571967D01*
X133646299Y-83555709D01*
X133675000Y-83550000D01*
X133825000Y-83550000D01*
X133853701Y-83555709D01*
X133853701Y-83555709D01*
G37*
D31*
X133750000Y-84325000D03*
D33*
X151050000Y-98175000D03*
X151700000Y-98175000D03*
X152350000Y-98175000D03*
X152350000Y-100025000D03*
X151700000Y-100025000D03*
X151050000Y-100025000D03*
D34*
X84400000Y-95690000D03*
X84400000Y-86510000D03*
D18*
X92590000Y-73000000D03*
X83410000Y-73000000D03*
D10*
G36*
X132620671Y-100494030D02*
G01*
X132701777Y-100548223D01*
X132755970Y-100629329D01*
X132775000Y-100725000D01*
X132775000Y-101475000D01*
X132755970Y-101570671D01*
X132701777Y-101651777D01*
X132620671Y-101705970D01*
X132525000Y-101725000D01*
X131275000Y-101725000D01*
X131179329Y-101705970D01*
X131098223Y-101651777D01*
X131044030Y-101570671D01*
X131025000Y-101475000D01*
X131025000Y-100725000D01*
X131044030Y-100629329D01*
X131098223Y-100548223D01*
X131179329Y-100494030D01*
X131275000Y-100475000D01*
X132525000Y-100475000D01*
X132620671Y-100494030D01*
X132620671Y-100494030D01*
G37*
D35*
X131900000Y-101100000D03*
D10*
G36*
X132620671Y-103294030D02*
G01*
X132701777Y-103348223D01*
X132755970Y-103429329D01*
X132775000Y-103525000D01*
X132775000Y-104275000D01*
X132755970Y-104370671D01*
X132701777Y-104451777D01*
X132620671Y-104505970D01*
X132525000Y-104525000D01*
X131275000Y-104525000D01*
X131179329Y-104505970D01*
X131098223Y-104451777D01*
X131044030Y-104370671D01*
X131025000Y-104275000D01*
X131025000Y-103525000D01*
X131044030Y-103429329D01*
X131098223Y-103348223D01*
X131179329Y-103294030D01*
X131275000Y-103275000D01*
X132525000Y-103275000D01*
X132620671Y-103294030D01*
X132620671Y-103294030D01*
G37*
D35*
X131900000Y-103900000D03*
D10*
G36*
X122639962Y-78791651D02*
G01*
X122710930Y-78839070D01*
X122758349Y-78910038D01*
X122775000Y-78993750D01*
X122775000Y-79431250D01*
X122758349Y-79514962D01*
X122710930Y-79585930D01*
X122639962Y-79633349D01*
X122556250Y-79650000D01*
X122043750Y-79650000D01*
X121960038Y-79633349D01*
X121889070Y-79585930D01*
X121841651Y-79514962D01*
X121825000Y-79431250D01*
X121825000Y-78993750D01*
X121841651Y-78910038D01*
X121889070Y-78839070D01*
X121960038Y-78791651D01*
X122043750Y-78775000D01*
X122556250Y-78775000D01*
X122639962Y-78791651D01*
X122639962Y-78791651D01*
G37*
D11*
X122300000Y-79212500D03*
D10*
G36*
X122639962Y-80366651D02*
G01*
X122710930Y-80414070D01*
X122758349Y-80485038D01*
X122775000Y-80568750D01*
X122775000Y-81006250D01*
X122758349Y-81089962D01*
X122710930Y-81160930D01*
X122639962Y-81208349D01*
X122556250Y-81225000D01*
X122043750Y-81225000D01*
X121960038Y-81208349D01*
X121889070Y-81160930D01*
X121841651Y-81089962D01*
X121825000Y-81006250D01*
X121825000Y-80568750D01*
X121841651Y-80485038D01*
X121889070Y-80414070D01*
X121960038Y-80366651D01*
X122043750Y-80350000D01*
X122556250Y-80350000D01*
X122639962Y-80366651D01*
X122639962Y-80366651D01*
G37*
D11*
X122300000Y-80787500D03*
D36*
X94200000Y-85000000D03*
X87800000Y-85000000D03*
D22*
X119000000Y-71462500D03*
D23*
X118000000Y-74162500D03*
X117350000Y-74162500D03*
X116700000Y-74162500D03*
X119300000Y-74162500D03*
X118650000Y-74162500D03*
D22*
X117000000Y-71462500D03*
D37*
X152050000Y-85200000D03*
X153250000Y-85200000D03*
X154450000Y-85200000D03*
D38*
X146175000Y-88180000D03*
X146175000Y-91820000D03*
D37*
X154450000Y-94800000D03*
X153250000Y-94800000D03*
D39*
X157100000Y-84900000D03*
X150100000Y-84900000D03*
D37*
X152050000Y-94800000D03*
D39*
X150100000Y-95100000D03*
X157300000Y-95100000D03*
D10*
G36*
X100145671Y-82419030D02*
G01*
X100226777Y-82473223D01*
X100280970Y-82554329D01*
X100300000Y-82650000D01*
X100300000Y-84750000D01*
X100280970Y-84845671D01*
X100226777Y-84926777D01*
X100145671Y-84980970D01*
X100050000Y-85000000D01*
X98950000Y-85000000D01*
X98854329Y-84980970D01*
X98773223Y-84926777D01*
X98719030Y-84845671D01*
X98700000Y-84750000D01*
X98700000Y-82650000D01*
X98719030Y-82554329D01*
X98773223Y-82473223D01*
X98854329Y-82419030D01*
X98950000Y-82400000D01*
X100050000Y-82400000D01*
X100145671Y-82419030D01*
X100145671Y-82419030D01*
G37*
D40*
X99500000Y-83700000D03*
D10*
G36*
X100145671Y-86019030D02*
G01*
X100226777Y-86073223D01*
X100280970Y-86154329D01*
X100300000Y-86250000D01*
X100300000Y-88350000D01*
X100280970Y-88445671D01*
X100226777Y-88526777D01*
X100145671Y-88580970D01*
X100050000Y-88600000D01*
X98950000Y-88600000D01*
X98854329Y-88580970D01*
X98773223Y-88526777D01*
X98719030Y-88445671D01*
X98700000Y-88350000D01*
X98700000Y-86250000D01*
X98719030Y-86154329D01*
X98773223Y-86073223D01*
X98854329Y-86019030D01*
X98950000Y-86000000D01*
X100050000Y-86000000D01*
X100145671Y-86019030D01*
X100145671Y-86019030D01*
G37*
D40*
X99500000Y-87300000D03*
D10*
G36*
X97170671Y-78794030D02*
G01*
X97251777Y-78848223D01*
X97305970Y-78929329D01*
X97325000Y-79025000D01*
X97325000Y-79775000D01*
X97305970Y-79870671D01*
X97251777Y-79951777D01*
X97170671Y-80005970D01*
X97075000Y-80025000D01*
X94925000Y-80025000D01*
X94829329Y-80005970D01*
X94748223Y-79951777D01*
X94694030Y-79870671D01*
X94675000Y-79775000D01*
X94675000Y-79025000D01*
X94694030Y-78929329D01*
X94748223Y-78848223D01*
X94829329Y-78794030D01*
X94925000Y-78775000D01*
X97075000Y-78775000D01*
X97170671Y-78794030D01*
X97170671Y-78794030D01*
G37*
D35*
X96000000Y-79400000D03*
D10*
G36*
X97170671Y-75994030D02*
G01*
X97251777Y-76048223D01*
X97305970Y-76129329D01*
X97325000Y-76225000D01*
X97325000Y-76975000D01*
X97305970Y-77070671D01*
X97251777Y-77151777D01*
X97170671Y-77205970D01*
X97075000Y-77225000D01*
X94925000Y-77225000D01*
X94829329Y-77205970D01*
X94748223Y-77151777D01*
X94694030Y-77070671D01*
X94675000Y-76975000D01*
X94675000Y-76225000D01*
X94694030Y-76129329D01*
X94748223Y-76048223D01*
X94829329Y-75994030D01*
X94925000Y-75975000D01*
X97075000Y-75975000D01*
X97170671Y-75994030D01*
X97170671Y-75994030D01*
G37*
D35*
X96000000Y-76600000D03*
M02*
