G04 #@! TF.GenerationSoftware,KiCad,Pcbnew,(5.99.0-21-g5348f88a8)*
G04 #@! TF.CreationDate,2019-12-05T11:59:51-05:00*
G04 #@! TF.ProjectId,pwr_key_addon,7077725f-6b65-4795-9f61-64646f6e2e6b,rev?*
G04 #@! TF.SameCoordinates,Original*
G04 #@! TF.FileFunction,Paste,Top*
G04 #@! TF.FilePolarity,Positive*
%FSLAX46Y46*%
G04 Gerber Fmt 4.6, Leading zero omitted, Abs format (unit mm)*
G04 Created by KiCad (PCBNEW (5.99.0-21-g5348f88a8)) date 2019-12-05 11:59:51*
%MOMM*%
%LPD*%
G04 APERTURE LIST*
%ADD10C,0.100000*%
%ADD11C,0.975000*%
%ADD12R,0.900000X0.800000*%
G04 APERTURE END LIST*
D10*
G36*
X117399529Y-86318554D02*
G01*
X117478607Y-86371393D01*
X117531446Y-86450471D01*
X117550000Y-86543750D01*
X117550000Y-87456250D01*
X117531446Y-87549529D01*
X117478607Y-87628607D01*
X117399529Y-87681446D01*
X117306250Y-87700000D01*
X116818750Y-87700000D01*
X116725471Y-87681446D01*
X116646393Y-87628607D01*
X116593554Y-87549529D01*
X116575000Y-87456250D01*
X116575000Y-86543750D01*
X116593554Y-86450471D01*
X116646393Y-86371393D01*
X116725471Y-86318554D01*
X116818750Y-86300000D01*
X117306250Y-86300000D01*
X117399529Y-86318554D01*
X117399529Y-86318554D01*
G37*
D11*
X117062500Y-87000000D03*
D10*
G36*
X119274529Y-86318554D02*
G01*
X119353607Y-86371393D01*
X119406446Y-86450471D01*
X119425000Y-86543750D01*
X119425000Y-87456250D01*
X119406446Y-87549529D01*
X119353607Y-87628607D01*
X119274529Y-87681446D01*
X119181250Y-87700000D01*
X118693750Y-87700000D01*
X118600471Y-87681446D01*
X118521393Y-87628607D01*
X118468554Y-87549529D01*
X118450000Y-87456250D01*
X118450000Y-86543750D01*
X118468554Y-86450471D01*
X118521393Y-86371393D01*
X118600471Y-86318554D01*
X118693750Y-86300000D01*
X119181250Y-86300000D01*
X119274529Y-86318554D01*
X119274529Y-86318554D01*
G37*
D11*
X118937500Y-87000000D03*
D10*
G36*
X119449529Y-82393554D02*
G01*
X119528607Y-82446393D01*
X119581446Y-82525471D01*
X119600000Y-82618750D01*
X119600000Y-83106250D01*
X119581446Y-83199529D01*
X119528607Y-83278607D01*
X119449529Y-83331446D01*
X119356250Y-83350000D01*
X118443750Y-83350000D01*
X118350471Y-83331446D01*
X118271393Y-83278607D01*
X118218554Y-83199529D01*
X118200000Y-83106250D01*
X118200000Y-82618750D01*
X118218554Y-82525471D01*
X118271393Y-82446393D01*
X118350471Y-82393554D01*
X118443750Y-82375000D01*
X119356250Y-82375000D01*
X119449529Y-82393554D01*
X119449529Y-82393554D01*
G37*
D11*
X118900000Y-82862500D03*
D10*
G36*
X119449529Y-84268554D02*
G01*
X119528607Y-84321393D01*
X119581446Y-84400471D01*
X119600000Y-84493750D01*
X119600000Y-84981250D01*
X119581446Y-85074529D01*
X119528607Y-85153607D01*
X119449529Y-85206446D01*
X119356250Y-85225000D01*
X118443750Y-85225000D01*
X118350471Y-85206446D01*
X118271393Y-85153607D01*
X118218554Y-85074529D01*
X118200000Y-84981250D01*
X118200000Y-84493750D01*
X118218554Y-84400471D01*
X118271393Y-84321393D01*
X118350471Y-84268554D01*
X118443750Y-84250000D01*
X119356250Y-84250000D01*
X119449529Y-84268554D01*
X119449529Y-84268554D01*
G37*
D11*
X118900000Y-84737500D03*
D12*
X122750000Y-83750000D03*
X120750000Y-84700000D03*
X120750000Y-82800000D03*
M02*
