G04 #@! TF.GenerationSoftware,KiCad,Pcbnew,(5.99.0-21-g5348f88a8)*
G04 #@! TF.CreationDate,2019-12-05T11:59:51-05:00*
G04 #@! TF.ProjectId,pwr_key_addon,7077725f-6b65-4795-9f61-64646f6e2e6b,rev?*
G04 #@! TF.SameCoordinates,Original*
G04 #@! TF.FileFunction,Legend,Top*
G04 #@! TF.FilePolarity,Positive*
%FSLAX46Y46*%
G04 Gerber Fmt 4.6, Leading zero omitted, Abs format (unit mm)*
G04 Created by KiCad (PCBNEW (5.99.0-21-g5348f88a8)) date 2019-12-05 11:59:51*
%MOMM*%
%LPD*%
G04 APERTURE LIST*
%ADD10C,0.100000*%
%ADD11C,0.120000*%
G04 APERTURE END LIST*
D10*
X124852380Y-83028571D02*
X123852380Y-83028571D01*
X124566666Y-82828571D01*
X123852380Y-82628571D01*
X124852380Y-82628571D01*
X124947619Y-82485714D02*
X124947619Y-82028571D01*
X124852380Y-81885714D02*
X123852380Y-81885714D01*
X123852380Y-81657142D01*
X123900000Y-81600000D01*
X123947619Y-81571428D01*
X124042857Y-81542857D01*
X124185714Y-81542857D01*
X124280952Y-81571428D01*
X124328571Y-81600000D01*
X124376190Y-81657142D01*
X124376190Y-81885714D01*
X124852380Y-81285714D02*
X123852380Y-81285714D01*
X124852380Y-80942857D02*
X124280952Y-81200000D01*
X123852380Y-80942857D02*
X124423809Y-81285714D01*
X124902380Y-88442857D02*
X123902380Y-88442857D01*
X124616666Y-88242857D01*
X123902380Y-88042857D01*
X124902380Y-88042857D01*
X124997619Y-87900000D02*
X124997619Y-87442857D01*
X123950000Y-86985714D02*
X123902380Y-87042857D01*
X123902380Y-87128571D01*
X123950000Y-87214285D01*
X124045238Y-87271428D01*
X124140476Y-87300000D01*
X124330952Y-87328571D01*
X124473809Y-87328571D01*
X124664285Y-87300000D01*
X124759523Y-87271428D01*
X124854761Y-87214285D01*
X124902380Y-87128571D01*
X124902380Y-87071428D01*
X124854761Y-86985714D01*
X124807142Y-86957142D01*
X124473809Y-86957142D01*
X124473809Y-87071428D01*
X124902380Y-86700000D02*
X123902380Y-86700000D01*
X124902380Y-86357142D01*
X123902380Y-86357142D01*
X124902380Y-86071428D02*
X123902380Y-86071428D01*
X123902380Y-85928571D01*
X123950000Y-85842857D01*
X124045238Y-85785714D01*
X124140476Y-85757142D01*
X124330952Y-85728571D01*
X124473809Y-85728571D01*
X124664285Y-85757142D01*
X124759523Y-85785714D01*
X124854761Y-85842857D01*
X124902380Y-85928571D01*
X124902380Y-86071428D01*
X115902380Y-88442857D02*
X114902380Y-88442857D01*
X114902380Y-88214285D01*
X114950000Y-88157142D01*
X114997619Y-88128571D01*
X115092857Y-88100000D01*
X115235714Y-88100000D01*
X115330952Y-88128571D01*
X115378571Y-88157142D01*
X115426190Y-88214285D01*
X115426190Y-88442857D01*
X115902380Y-87842857D02*
X114902380Y-87842857D01*
X115902380Y-87500000D02*
X115330952Y-87757142D01*
X114902380Y-87500000D02*
X115473809Y-87842857D01*
X115997619Y-87385714D02*
X115997619Y-86928571D01*
X115902380Y-86785714D02*
X114902380Y-86785714D01*
X115902380Y-86500000D02*
X114902380Y-86500000D01*
X115902380Y-86157142D01*
X114902380Y-86157142D01*
D11*
X118258578Y-87710000D02*
X117741422Y-87710000D01*
X118258578Y-86290000D02*
X117741422Y-86290000D01*
X118190000Y-84058578D02*
X118190000Y-83541422D01*
X119610000Y-84058578D02*
X119610000Y-83541422D01*
X122510000Y-85330000D02*
X122510000Y-84400000D01*
X122510000Y-82170000D02*
X122510000Y-83100000D01*
X122510000Y-82170000D02*
X120350000Y-82170000D01*
X122510000Y-85330000D02*
X121050000Y-85330000D01*
X123015000Y-88310000D02*
X123015000Y-87507530D01*
X123015000Y-86892470D02*
X123015000Y-86090000D01*
X121810000Y-88310000D02*
X123015000Y-88310000D01*
X121810000Y-86090000D02*
X123015000Y-86090000D01*
X121810000Y-88310000D02*
X121810000Y-87763471D01*
X121810000Y-86636529D02*
X121810000Y-86090000D01*
X121050000Y-88310000D02*
X120290000Y-88310000D01*
X120290000Y-88310000D02*
X120290000Y-87200000D01*
X120790000Y-81315000D02*
X121592470Y-81315000D01*
X122207530Y-81315000D02*
X123010000Y-81315000D01*
X120790000Y-80110000D02*
X120790000Y-81315000D01*
X123010000Y-80110000D02*
X123010000Y-81315000D01*
X120790000Y-80110000D02*
X121336529Y-80110000D01*
X122463471Y-80110000D02*
X123010000Y-80110000D01*
X120790000Y-79350000D02*
X120790000Y-78590000D01*
X120790000Y-78590000D02*
X121900000Y-78590000D01*
X117260000Y-82485000D02*
X116457530Y-82485000D01*
X115842470Y-82485000D02*
X115040000Y-82485000D01*
X117260000Y-83690000D02*
X117260000Y-82485000D01*
X115040000Y-83690000D02*
X115040000Y-82485000D01*
X117260000Y-83690000D02*
X116713471Y-83690000D01*
X115586529Y-83690000D02*
X115040000Y-83690000D01*
X117260000Y-84450000D02*
X117260000Y-85210000D01*
X117260000Y-85210000D02*
X116150000Y-85210000D01*
M02*
