G04 #@! TF.GenerationSoftware,KiCad,Pcbnew,(5.99.0-539-g3370e8996)*
G04 #@! TF.CreationDate,2019-12-19T02:59:25-05:00*
G04 #@! TF.ProjectId,sara_r410m_02b_module_board,73617261-5f72-4343-9130-6d5f3032625f,rev?*
G04 #@! TF.SameCoordinates,Original*
G04 #@! TF.FileFunction,Legend,Bot*
G04 #@! TF.FilePolarity,Positive*
%FSLAX46Y46*%
G04 Gerber Fmt 4.6, Leading zero omitted, Abs format (unit mm)*
G04 Created by KiCad (PCBNEW (5.99.0-539-g3370e8996)) date 2019-12-19 02:59:25*
%MOMM*%
%LPD*%
G04 APERTURE LIST*
%ADD10C,0.010000*%
G04 APERTURE END LIST*
G36*
X164043011Y-81223941D02*
G01*
X164190216Y-81223638D01*
X164354349Y-81223452D01*
X164536352Y-81223358D01*
X164737165Y-81223329D01*
X164957732Y-81223339D01*
X165198992Y-81223364D01*
X165461889Y-81223378D01*
X165504040Y-81223378D01*
X165764668Y-81223354D01*
X166003796Y-81223315D01*
X166222360Y-81223292D01*
X166421295Y-81223313D01*
X166601535Y-81223407D01*
X166764015Y-81223605D01*
X166909670Y-81223937D01*
X167039434Y-81224431D01*
X167154243Y-81225117D01*
X167255030Y-81226024D01*
X167342730Y-81227183D01*
X167418279Y-81228622D01*
X167482611Y-81230371D01*
X167536661Y-81232460D01*
X167581363Y-81234917D01*
X167617652Y-81237773D01*
X167646463Y-81241057D01*
X167668731Y-81244798D01*
X167685390Y-81249026D01*
X167697375Y-81253771D01*
X167705621Y-81259061D01*
X167711062Y-81264927D01*
X167714634Y-81271398D01*
X167717270Y-81278503D01*
X167719906Y-81286272D01*
X167723477Y-81294734D01*
X167725145Y-81299092D01*
X167727111Y-81307605D01*
X167728911Y-81320306D01*
X167730555Y-81338115D01*
X167732047Y-81361951D01*
X167733397Y-81392734D01*
X167734611Y-81431383D01*
X167735697Y-81478818D01*
X167736661Y-81535957D01*
X167737511Y-81603721D01*
X167738253Y-81683029D01*
X167738897Y-81774801D01*
X167739447Y-81879956D01*
X167739913Y-81999413D01*
X167740300Y-82134092D01*
X167740616Y-82284912D01*
X167740869Y-82452794D01*
X167741066Y-82638655D01*
X167741213Y-82843417D01*
X167741318Y-83067998D01*
X167741389Y-83313318D01*
X167741432Y-83580296D01*
X167741437Y-83618679D01*
X167741480Y-83884078D01*
X167741525Y-84127950D01*
X167741548Y-84351217D01*
X167741524Y-84554804D01*
X167741430Y-84739633D01*
X167741243Y-84906627D01*
X167740939Y-85056710D01*
X167740494Y-85190804D01*
X167739885Y-85309834D01*
X167739089Y-85414721D01*
X167738080Y-85506390D01*
X167736837Y-85585763D01*
X167735335Y-85653763D01*
X167733551Y-85711314D01*
X167731461Y-85759338D01*
X167729042Y-85798760D01*
X167726270Y-85830501D01*
X167723121Y-85855486D01*
X167719572Y-85874636D01*
X167715598Y-85888877D01*
X167711178Y-85899129D01*
X167706286Y-85906318D01*
X167700900Y-85911365D01*
X167694996Y-85915195D01*
X167688549Y-85918729D01*
X167681537Y-85922892D01*
X167679687Y-85923975D01*
X167674180Y-85926187D01*
X167665868Y-85928214D01*
X167653809Y-85930062D01*
X167637063Y-85931739D01*
X167614687Y-85933255D01*
X167585740Y-85934617D01*
X167549280Y-85935833D01*
X167504367Y-85936911D01*
X167450057Y-85937860D01*
X167385410Y-85938688D01*
X167309484Y-85939403D01*
X167221338Y-85940013D01*
X167120029Y-85940526D01*
X167004617Y-85940950D01*
X166874160Y-85941294D01*
X166727716Y-85941566D01*
X166564344Y-85941773D01*
X166383101Y-85941924D01*
X166183048Y-85942028D01*
X165963241Y-85942092D01*
X165722739Y-85942124D01*
X165460602Y-85942133D01*
X163269031Y-85942133D01*
X163230649Y-85903751D01*
X163206911Y-85876645D01*
X163195111Y-85849747D01*
X163192267Y-85813440D01*
X163192267Y-85761511D01*
X163280206Y-85761511D01*
X163330102Y-85759573D01*
X163440523Y-85740801D01*
X163541987Y-85703783D01*
X163633152Y-85650631D01*
X163712673Y-85583454D01*
X163779205Y-85504362D01*
X163831406Y-85415466D01*
X163867930Y-85318875D01*
X163887434Y-85216700D01*
X163888561Y-85112147D01*
X164704978Y-85112147D01*
X164704978Y-85557805D01*
X165881845Y-85560880D01*
X167058711Y-85563955D01*
X167117622Y-85590593D01*
X167142183Y-85602515D01*
X167172434Y-85619754D01*
X167189560Y-85632926D01*
X167197591Y-85640924D01*
X167212493Y-85648622D01*
X167213765Y-85644740D01*
X167215791Y-85621480D01*
X167217626Y-85579126D01*
X167219227Y-85519868D01*
X167220549Y-85445893D01*
X167221548Y-85359390D01*
X167222180Y-85262548D01*
X167222400Y-85157555D01*
X167222349Y-85088644D01*
X167222091Y-84990393D01*
X167221637Y-84900970D01*
X167221010Y-84822667D01*
X167220235Y-84757777D01*
X167219335Y-84708589D01*
X167218334Y-84677396D01*
X167217257Y-84666489D01*
X167214037Y-84667678D01*
X167196452Y-84677824D01*
X167170158Y-84694960D01*
X167157691Y-84703460D01*
X167143622Y-84712671D01*
X167129351Y-84720767D01*
X167113479Y-84727815D01*
X167094609Y-84733883D01*
X167071341Y-84739039D01*
X167042278Y-84743349D01*
X167006021Y-84746881D01*
X166961170Y-84749703D01*
X166906328Y-84751882D01*
X166840097Y-84753486D01*
X166761077Y-84754581D01*
X166667871Y-84755235D01*
X166559079Y-84755516D01*
X166433303Y-84755491D01*
X166289145Y-84755228D01*
X166125207Y-84754794D01*
X165940089Y-84754255D01*
X165761232Y-84753721D01*
X165602374Y-84753195D01*
X165463316Y-84752650D01*
X165342665Y-84752055D01*
X165239028Y-84751381D01*
X165151011Y-84750597D01*
X165077223Y-84749674D01*
X165016269Y-84748581D01*
X164966757Y-84747288D01*
X164927293Y-84745765D01*
X164896484Y-84743981D01*
X164872938Y-84741908D01*
X164855260Y-84739514D01*
X164842059Y-84736770D01*
X164831940Y-84733644D01*
X164823511Y-84730108D01*
X164815375Y-84726209D01*
X164778544Y-84706562D01*
X164748391Y-84687775D01*
X164746908Y-84686728D01*
X164724659Y-84672398D01*
X164711702Y-84666489D01*
X164711249Y-84667496D01*
X164709803Y-84684695D01*
X164708480Y-84721344D01*
X164707316Y-84775038D01*
X164706347Y-84843370D01*
X164705611Y-84923936D01*
X164705142Y-85014330D01*
X164704978Y-85112147D01*
X163888561Y-85112147D01*
X163888573Y-85111050D01*
X163870005Y-85004036D01*
X163830384Y-84897768D01*
X163772516Y-84800781D01*
X163697684Y-84715707D01*
X163609615Y-84646985D01*
X163510616Y-84596082D01*
X163402993Y-84564465D01*
X163289054Y-84553600D01*
X163192267Y-84553600D01*
X163192267Y-82933247D01*
X163192280Y-82722103D01*
X163192330Y-82517980D01*
X163192430Y-82334314D01*
X163192592Y-82170009D01*
X163192829Y-82023971D01*
X163193153Y-81895106D01*
X163193575Y-81782317D01*
X163194109Y-81684512D01*
X163194767Y-81600596D01*
X163195561Y-81529473D01*
X163195587Y-81527803D01*
X163801867Y-81527803D01*
X163801867Y-82587686D01*
X163864966Y-82549689D01*
X163890005Y-82535007D01*
X163917586Y-82520469D01*
X163945700Y-82508373D01*
X163976551Y-82498468D01*
X164012344Y-82490506D01*
X164055283Y-82484239D01*
X164107574Y-82479418D01*
X164171419Y-82475794D01*
X164249025Y-82473119D01*
X164342594Y-82471143D01*
X164454333Y-82469618D01*
X164586445Y-82468296D01*
X164706434Y-82467387D01*
X164823063Y-82466980D01*
X164918531Y-82467233D01*
X164992556Y-82468143D01*
X165044855Y-82469707D01*
X165075149Y-82471921D01*
X165083156Y-82474780D01*
X165079858Y-82477839D01*
X165058408Y-82495994D01*
X165021889Y-82525725D01*
X164972442Y-82565361D01*
X164912207Y-82613229D01*
X164843327Y-82667657D01*
X164767943Y-82726973D01*
X164688196Y-82789505D01*
X164606228Y-82853579D01*
X164524180Y-82917525D01*
X164444194Y-82979669D01*
X164368411Y-83038339D01*
X164298973Y-83091863D01*
X164238021Y-83138570D01*
X164187696Y-83176786D01*
X164150140Y-83204839D01*
X164127495Y-83221057D01*
X164055212Y-83266365D01*
X163975463Y-83306339D01*
X163907188Y-83327870D01*
X163849844Y-83331173D01*
X163801867Y-83325884D01*
X163802117Y-84457644D01*
X163832722Y-84418133D01*
X163840089Y-84408752D01*
X163894438Y-84345817D01*
X163962259Y-84277003D01*
X164045516Y-84200404D01*
X164146178Y-84114112D01*
X164166847Y-84096948D01*
X164216409Y-84056167D01*
X164277326Y-84006412D01*
X164347898Y-83949045D01*
X164426424Y-83885431D01*
X164511204Y-83816931D01*
X164600537Y-83744910D01*
X164692722Y-83670730D01*
X164711702Y-83655483D01*
X164786060Y-83595754D01*
X164878848Y-83521347D01*
X164969388Y-83448869D01*
X165055978Y-83379686D01*
X165136918Y-83315159D01*
X165210506Y-83256653D01*
X165275044Y-83205530D01*
X165328829Y-83163153D01*
X165370162Y-83130885D01*
X165397342Y-83110090D01*
X165408668Y-83102131D01*
X165412771Y-83103889D01*
X165433334Y-83116770D01*
X165469561Y-83141115D01*
X165519824Y-83175753D01*
X165582492Y-83219514D01*
X165655936Y-83271225D01*
X165738527Y-83329716D01*
X165828636Y-83393816D01*
X165924631Y-83462354D01*
X166024885Y-83534157D01*
X166127768Y-83608056D01*
X166231650Y-83682879D01*
X166334901Y-83757455D01*
X166435892Y-83830613D01*
X166532994Y-83901181D01*
X166624577Y-83967989D01*
X166709011Y-84029865D01*
X166784667Y-84085639D01*
X166849916Y-84134138D01*
X166903128Y-84174193D01*
X166942673Y-84204631D01*
X166968026Y-84225056D01*
X167022295Y-84271101D01*
X167078775Y-84321388D01*
X167128669Y-84368185D01*
X167222400Y-84459349D01*
X167222400Y-83304910D01*
X167146200Y-83305544D01*
X167104160Y-83304426D01*
X167068334Y-83298696D01*
X167030772Y-83286110D01*
X166982577Y-83264432D01*
X166975897Y-83261211D01*
X166926359Y-83235812D01*
X166878369Y-83209004D01*
X166841466Y-83186083D01*
X166834834Y-83181515D01*
X166803593Y-83159484D01*
X166758654Y-83127307D01*
X166702147Y-83086543D01*
X166636204Y-83038755D01*
X166562957Y-82985502D01*
X166484536Y-82928345D01*
X166403072Y-82868845D01*
X166320698Y-82808563D01*
X166239544Y-82749060D01*
X166161742Y-82691895D01*
X166089423Y-82638630D01*
X166024718Y-82590826D01*
X165969759Y-82550043D01*
X165926676Y-82517842D01*
X165897602Y-82495784D01*
X165884667Y-82485429D01*
X165880351Y-82480956D01*
X165878312Y-82476764D01*
X165880926Y-82473357D01*
X165889986Y-82470675D01*
X165907285Y-82468659D01*
X165934614Y-82467252D01*
X165973765Y-82466395D01*
X166026533Y-82466030D01*
X166094707Y-82466097D01*
X166180082Y-82466540D01*
X166284449Y-82467298D01*
X166409600Y-82468315D01*
X166454300Y-82468692D01*
X166575395Y-82469831D01*
X166676688Y-82471028D01*
X166760262Y-82472364D01*
X166828204Y-82473923D01*
X166882599Y-82475785D01*
X166925532Y-82478034D01*
X166959089Y-82480752D01*
X166985355Y-82484021D01*
X167006416Y-82487922D01*
X167024357Y-82492539D01*
X167050770Y-82500808D01*
X167112772Y-82524417D01*
X167165573Y-82550315D01*
X167202645Y-82575465D01*
X167204075Y-82576661D01*
X167208424Y-82578832D01*
X167212026Y-82576672D01*
X167214951Y-82568356D01*
X167217269Y-82552060D01*
X167219051Y-82525959D01*
X167220367Y-82488229D01*
X167221286Y-82437044D01*
X167221878Y-82370580D01*
X167222215Y-82287013D01*
X167222365Y-82184517D01*
X167222400Y-82061268D01*
X167222400Y-81529704D01*
X167164783Y-81568477D01*
X167155893Y-81574568D01*
X167141069Y-81585024D01*
X167127422Y-81594421D01*
X167113765Y-81602817D01*
X167098911Y-81610267D01*
X167081670Y-81616827D01*
X167060855Y-81622554D01*
X167035280Y-81627505D01*
X167003755Y-81631734D01*
X166965093Y-81635299D01*
X166918107Y-81638256D01*
X166861608Y-81640660D01*
X166794409Y-81642569D01*
X166715322Y-81644038D01*
X166623160Y-81645124D01*
X166516734Y-81645882D01*
X166394857Y-81646370D01*
X166256341Y-81646642D01*
X166099999Y-81646757D01*
X165924642Y-81646769D01*
X165729082Y-81646735D01*
X165512133Y-81646711D01*
X165389513Y-81646720D01*
X165184447Y-81646757D01*
X165000116Y-81646773D01*
X164835334Y-81646712D01*
X164688916Y-81646516D01*
X164559674Y-81646130D01*
X164446422Y-81645495D01*
X164347975Y-81644556D01*
X164263144Y-81643255D01*
X164190744Y-81641536D01*
X164129589Y-81639341D01*
X164078492Y-81636615D01*
X164036267Y-81633299D01*
X164001727Y-81629338D01*
X163973686Y-81624675D01*
X163950958Y-81619253D01*
X163932356Y-81613014D01*
X163916693Y-81605903D01*
X163902784Y-81597862D01*
X163889441Y-81588834D01*
X163875479Y-81578764D01*
X163859711Y-81567593D01*
X163801867Y-81527803D01*
X163195587Y-81527803D01*
X163196504Y-81470050D01*
X163197608Y-81421232D01*
X163198884Y-81381923D01*
X163200347Y-81351031D01*
X163202007Y-81327459D01*
X163203878Y-81310114D01*
X163205972Y-81297901D01*
X163208300Y-81289725D01*
X163210876Y-81284492D01*
X163214445Y-81278496D01*
X163217978Y-81271721D01*
X163221488Y-81265522D01*
X163225918Y-81259874D01*
X163232208Y-81254753D01*
X163241301Y-81250131D01*
X163254139Y-81245985D01*
X163271662Y-81242287D01*
X163294813Y-81239013D01*
X163324534Y-81236137D01*
X163361765Y-81233633D01*
X163407449Y-81231476D01*
X163462527Y-81229640D01*
X163527941Y-81228100D01*
X163604633Y-81226830D01*
X163693544Y-81225805D01*
X163795617Y-81224999D01*
X163801867Y-81224966D01*
X163911792Y-81224386D01*
X164043011Y-81223941D01*
G37*
D10*
X164043011Y-81223941D02*
X164190216Y-81223638D01*
X164354349Y-81223452D01*
X164536352Y-81223358D01*
X164737165Y-81223329D01*
X164957732Y-81223339D01*
X165198992Y-81223364D01*
X165461889Y-81223378D01*
X165504040Y-81223378D01*
X165764668Y-81223354D01*
X166003796Y-81223315D01*
X166222360Y-81223292D01*
X166421295Y-81223313D01*
X166601535Y-81223407D01*
X166764015Y-81223605D01*
X166909670Y-81223937D01*
X167039434Y-81224431D01*
X167154243Y-81225117D01*
X167255030Y-81226024D01*
X167342730Y-81227183D01*
X167418279Y-81228622D01*
X167482611Y-81230371D01*
X167536661Y-81232460D01*
X167581363Y-81234917D01*
X167617652Y-81237773D01*
X167646463Y-81241057D01*
X167668731Y-81244798D01*
X167685390Y-81249026D01*
X167697375Y-81253771D01*
X167705621Y-81259061D01*
X167711062Y-81264927D01*
X167714634Y-81271398D01*
X167717270Y-81278503D01*
X167719906Y-81286272D01*
X167723477Y-81294734D01*
X167725145Y-81299092D01*
X167727111Y-81307605D01*
X167728911Y-81320306D01*
X167730555Y-81338115D01*
X167732047Y-81361951D01*
X167733397Y-81392734D01*
X167734611Y-81431383D01*
X167735697Y-81478818D01*
X167736661Y-81535957D01*
X167737511Y-81603721D01*
X167738253Y-81683029D01*
X167738897Y-81774801D01*
X167739447Y-81879956D01*
X167739913Y-81999413D01*
X167740300Y-82134092D01*
X167740616Y-82284912D01*
X167740869Y-82452794D01*
X167741066Y-82638655D01*
X167741213Y-82843417D01*
X167741318Y-83067998D01*
X167741389Y-83313318D01*
X167741432Y-83580296D01*
X167741437Y-83618679D01*
X167741480Y-83884078D01*
X167741525Y-84127950D01*
X167741548Y-84351217D01*
X167741524Y-84554804D01*
X167741430Y-84739633D01*
X167741243Y-84906627D01*
X167740939Y-85056710D01*
X167740494Y-85190804D01*
X167739885Y-85309834D01*
X167739089Y-85414721D01*
X167738080Y-85506390D01*
X167736837Y-85585763D01*
X167735335Y-85653763D01*
X167733551Y-85711314D01*
X167731461Y-85759338D01*
X167729042Y-85798760D01*
X167726270Y-85830501D01*
X167723121Y-85855486D01*
X167719572Y-85874636D01*
X167715598Y-85888877D01*
X167711178Y-85899129D01*
X167706286Y-85906318D01*
X167700900Y-85911365D01*
X167694996Y-85915195D01*
X167688549Y-85918729D01*
X167681537Y-85922892D01*
X167679687Y-85923975D01*
X167674180Y-85926187D01*
X167665868Y-85928214D01*
X167653809Y-85930062D01*
X167637063Y-85931739D01*
X167614687Y-85933255D01*
X167585740Y-85934617D01*
X167549280Y-85935833D01*
X167504367Y-85936911D01*
X167450057Y-85937860D01*
X167385410Y-85938688D01*
X167309484Y-85939403D01*
X167221338Y-85940013D01*
X167120029Y-85940526D01*
X167004617Y-85940950D01*
X166874160Y-85941294D01*
X166727716Y-85941566D01*
X166564344Y-85941773D01*
X166383101Y-85941924D01*
X166183048Y-85942028D01*
X165963241Y-85942092D01*
X165722739Y-85942124D01*
X165460602Y-85942133D01*
X163269031Y-85942133D01*
X163230649Y-85903751D01*
X163206911Y-85876645D01*
X163195111Y-85849747D01*
X163192267Y-85813440D01*
X163192267Y-85761511D01*
X163280206Y-85761511D01*
X163330102Y-85759573D01*
X163440523Y-85740801D01*
X163541987Y-85703783D01*
X163633152Y-85650631D01*
X163712673Y-85583454D01*
X163779205Y-85504362D01*
X163831406Y-85415466D01*
X163867930Y-85318875D01*
X163887434Y-85216700D01*
X163888561Y-85112147D01*
X164704978Y-85112147D01*
X164704978Y-85557805D01*
X165881845Y-85560880D01*
X167058711Y-85563955D01*
X167117622Y-85590593D01*
X167142183Y-85602515D01*
X167172434Y-85619754D01*
X167189560Y-85632926D01*
X167197591Y-85640924D01*
X167212493Y-85648622D01*
X167213765Y-85644740D01*
X167215791Y-85621480D01*
X167217626Y-85579126D01*
X167219227Y-85519868D01*
X167220549Y-85445893D01*
X167221548Y-85359390D01*
X167222180Y-85262548D01*
X167222400Y-85157555D01*
X167222349Y-85088644D01*
X167222091Y-84990393D01*
X167221637Y-84900970D01*
X167221010Y-84822667D01*
X167220235Y-84757777D01*
X167219335Y-84708589D01*
X167218334Y-84677396D01*
X167217257Y-84666489D01*
X167214037Y-84667678D01*
X167196452Y-84677824D01*
X167170158Y-84694960D01*
X167157691Y-84703460D01*
X167143622Y-84712671D01*
X167129351Y-84720767D01*
X167113479Y-84727815D01*
X167094609Y-84733883D01*
X167071341Y-84739039D01*
X167042278Y-84743349D01*
X167006021Y-84746881D01*
X166961170Y-84749703D01*
X166906328Y-84751882D01*
X166840097Y-84753486D01*
X166761077Y-84754581D01*
X166667871Y-84755235D01*
X166559079Y-84755516D01*
X166433303Y-84755491D01*
X166289145Y-84755228D01*
X166125207Y-84754794D01*
X165940089Y-84754255D01*
X165761232Y-84753721D01*
X165602374Y-84753195D01*
X165463316Y-84752650D01*
X165342665Y-84752055D01*
X165239028Y-84751381D01*
X165151011Y-84750597D01*
X165077223Y-84749674D01*
X165016269Y-84748581D01*
X164966757Y-84747288D01*
X164927293Y-84745765D01*
X164896484Y-84743981D01*
X164872938Y-84741908D01*
X164855260Y-84739514D01*
X164842059Y-84736770D01*
X164831940Y-84733644D01*
X164823511Y-84730108D01*
X164815375Y-84726209D01*
X164778544Y-84706562D01*
X164748391Y-84687775D01*
X164746908Y-84686728D01*
X164724659Y-84672398D01*
X164711702Y-84666489D01*
X164711249Y-84667496D01*
X164709803Y-84684695D01*
X164708480Y-84721344D01*
X164707316Y-84775038D01*
X164706347Y-84843370D01*
X164705611Y-84923936D01*
X164705142Y-85014330D01*
X164704978Y-85112147D01*
X163888561Y-85112147D01*
X163888573Y-85111050D01*
X163870005Y-85004036D01*
X163830384Y-84897768D01*
X163772516Y-84800781D01*
X163697684Y-84715707D01*
X163609615Y-84646985D01*
X163510616Y-84596082D01*
X163402993Y-84564465D01*
X163289054Y-84553600D01*
X163192267Y-84553600D01*
X163192267Y-82933247D01*
X163192280Y-82722103D01*
X163192330Y-82517980D01*
X163192430Y-82334314D01*
X163192592Y-82170009D01*
X163192829Y-82023971D01*
X163193153Y-81895106D01*
X163193575Y-81782317D01*
X163194109Y-81684512D01*
X163194767Y-81600596D01*
X163195561Y-81529473D01*
X163195587Y-81527803D01*
X163801867Y-81527803D01*
X163801867Y-82587686D01*
X163864966Y-82549689D01*
X163890005Y-82535007D01*
X163917586Y-82520469D01*
X163945700Y-82508373D01*
X163976551Y-82498468D01*
X164012344Y-82490506D01*
X164055283Y-82484239D01*
X164107574Y-82479418D01*
X164171419Y-82475794D01*
X164249025Y-82473119D01*
X164342594Y-82471143D01*
X164454333Y-82469618D01*
X164586445Y-82468296D01*
X164706434Y-82467387D01*
X164823063Y-82466980D01*
X164918531Y-82467233D01*
X164992556Y-82468143D01*
X165044855Y-82469707D01*
X165075149Y-82471921D01*
X165083156Y-82474780D01*
X165079858Y-82477839D01*
X165058408Y-82495994D01*
X165021889Y-82525725D01*
X164972442Y-82565361D01*
X164912207Y-82613229D01*
X164843327Y-82667657D01*
X164767943Y-82726973D01*
X164688196Y-82789505D01*
X164606228Y-82853579D01*
X164524180Y-82917525D01*
X164444194Y-82979669D01*
X164368411Y-83038339D01*
X164298973Y-83091863D01*
X164238021Y-83138570D01*
X164187696Y-83176786D01*
X164150140Y-83204839D01*
X164127495Y-83221057D01*
X164055212Y-83266365D01*
X163975463Y-83306339D01*
X163907188Y-83327870D01*
X163849844Y-83331173D01*
X163801867Y-83325884D01*
X163802117Y-84457644D01*
X163832722Y-84418133D01*
X163840089Y-84408752D01*
X163894438Y-84345817D01*
X163962259Y-84277003D01*
X164045516Y-84200404D01*
X164146178Y-84114112D01*
X164166847Y-84096948D01*
X164216409Y-84056167D01*
X164277326Y-84006412D01*
X164347898Y-83949045D01*
X164426424Y-83885431D01*
X164511204Y-83816931D01*
X164600537Y-83744910D01*
X164692722Y-83670730D01*
X164711702Y-83655483D01*
X164786060Y-83595754D01*
X164878848Y-83521347D01*
X164969388Y-83448869D01*
X165055978Y-83379686D01*
X165136918Y-83315159D01*
X165210506Y-83256653D01*
X165275044Y-83205530D01*
X165328829Y-83163153D01*
X165370162Y-83130885D01*
X165397342Y-83110090D01*
X165408668Y-83102131D01*
X165412771Y-83103889D01*
X165433334Y-83116770D01*
X165469561Y-83141115D01*
X165519824Y-83175753D01*
X165582492Y-83219514D01*
X165655936Y-83271225D01*
X165738527Y-83329716D01*
X165828636Y-83393816D01*
X165924631Y-83462354D01*
X166024885Y-83534157D01*
X166127768Y-83608056D01*
X166231650Y-83682879D01*
X166334901Y-83757455D01*
X166435892Y-83830613D01*
X166532994Y-83901181D01*
X166624577Y-83967989D01*
X166709011Y-84029865D01*
X166784667Y-84085639D01*
X166849916Y-84134138D01*
X166903128Y-84174193D01*
X166942673Y-84204631D01*
X166968026Y-84225056D01*
X167022295Y-84271101D01*
X167078775Y-84321388D01*
X167128669Y-84368185D01*
X167222400Y-84459349D01*
X167222400Y-83304910D01*
X167146200Y-83305544D01*
X167104160Y-83304426D01*
X167068334Y-83298696D01*
X167030772Y-83286110D01*
X166982577Y-83264432D01*
X166975897Y-83261211D01*
X166926359Y-83235812D01*
X166878369Y-83209004D01*
X166841466Y-83186083D01*
X166834834Y-83181515D01*
X166803593Y-83159484D01*
X166758654Y-83127307D01*
X166702147Y-83086543D01*
X166636204Y-83038755D01*
X166562957Y-82985502D01*
X166484536Y-82928345D01*
X166403072Y-82868845D01*
X166320698Y-82808563D01*
X166239544Y-82749060D01*
X166161742Y-82691895D01*
X166089423Y-82638630D01*
X166024718Y-82590826D01*
X165969759Y-82550043D01*
X165926676Y-82517842D01*
X165897602Y-82495784D01*
X165884667Y-82485429D01*
X165880351Y-82480956D01*
X165878312Y-82476764D01*
X165880926Y-82473357D01*
X165889986Y-82470675D01*
X165907285Y-82468659D01*
X165934614Y-82467252D01*
X165973765Y-82466395D01*
X166026533Y-82466030D01*
X166094707Y-82466097D01*
X166180082Y-82466540D01*
X166284449Y-82467298D01*
X166409600Y-82468315D01*
X166454300Y-82468692D01*
X166575395Y-82469831D01*
X166676688Y-82471028D01*
X166760262Y-82472364D01*
X166828204Y-82473923D01*
X166882599Y-82475785D01*
X166925532Y-82478034D01*
X166959089Y-82480752D01*
X166985355Y-82484021D01*
X167006416Y-82487922D01*
X167024357Y-82492539D01*
X167050770Y-82500808D01*
X167112772Y-82524417D01*
X167165573Y-82550315D01*
X167202645Y-82575465D01*
X167204075Y-82576661D01*
X167208424Y-82578832D01*
X167212026Y-82576672D01*
X167214951Y-82568356D01*
X167217269Y-82552060D01*
X167219051Y-82525959D01*
X167220367Y-82488229D01*
X167221286Y-82437044D01*
X167221878Y-82370580D01*
X167222215Y-82287013D01*
X167222365Y-82184517D01*
X167222400Y-82061268D01*
X167222400Y-81529704D01*
X167164783Y-81568477D01*
X167155893Y-81574568D01*
X167141069Y-81585024D01*
X167127422Y-81594421D01*
X167113765Y-81602817D01*
X167098911Y-81610267D01*
X167081670Y-81616827D01*
X167060855Y-81622554D01*
X167035280Y-81627505D01*
X167003755Y-81631734D01*
X166965093Y-81635299D01*
X166918107Y-81638256D01*
X166861608Y-81640660D01*
X166794409Y-81642569D01*
X166715322Y-81644038D01*
X166623160Y-81645124D01*
X166516734Y-81645882D01*
X166394857Y-81646370D01*
X166256341Y-81646642D01*
X166099999Y-81646757D01*
X165924642Y-81646769D01*
X165729082Y-81646735D01*
X165512133Y-81646711D01*
X165389513Y-81646720D01*
X165184447Y-81646757D01*
X165000116Y-81646773D01*
X164835334Y-81646712D01*
X164688916Y-81646516D01*
X164559674Y-81646130D01*
X164446422Y-81645495D01*
X164347975Y-81644556D01*
X164263144Y-81643255D01*
X164190744Y-81641536D01*
X164129589Y-81639341D01*
X164078492Y-81636615D01*
X164036267Y-81633299D01*
X164001727Y-81629338D01*
X163973686Y-81624675D01*
X163950958Y-81619253D01*
X163932356Y-81613014D01*
X163916693Y-81605903D01*
X163902784Y-81597862D01*
X163889441Y-81588834D01*
X163875479Y-81578764D01*
X163859711Y-81567593D01*
X163801867Y-81527803D01*
X163195587Y-81527803D01*
X163196504Y-81470050D01*
X163197608Y-81421232D01*
X163198884Y-81381923D01*
X163200347Y-81351031D01*
X163202007Y-81327459D01*
X163203878Y-81310114D01*
X163205972Y-81297901D01*
X163208300Y-81289725D01*
X163210876Y-81284492D01*
X163214445Y-81278496D01*
X163217978Y-81271721D01*
X163221488Y-81265522D01*
X163225918Y-81259874D01*
X163232208Y-81254753D01*
X163241301Y-81250131D01*
X163254139Y-81245985D01*
X163271662Y-81242287D01*
X163294813Y-81239013D01*
X163324534Y-81236137D01*
X163361765Y-81233633D01*
X163407449Y-81231476D01*
X163462527Y-81229640D01*
X163527941Y-81228100D01*
X163604633Y-81226830D01*
X163693544Y-81225805D01*
X163795617Y-81224999D01*
X163801867Y-81224966D01*
X163911792Y-81224386D01*
X164043011Y-81223941D01*
G36*
X165621325Y-86182449D02*
G01*
X165822581Y-86199209D01*
X166017128Y-86232708D01*
X166200756Y-86282956D01*
X166318053Y-86326810D01*
X166480951Y-86404652D01*
X166634866Y-86498172D01*
X166776671Y-86605178D01*
X166903239Y-86723481D01*
X167011441Y-86850889D01*
X167064120Y-86928394D01*
X167133750Y-87055275D01*
X167192468Y-87192757D01*
X167237587Y-87334284D01*
X167266422Y-87473298D01*
X167268106Y-87487403D01*
X167271434Y-87530847D01*
X167274275Y-87588277D01*
X167276373Y-87653878D01*
X167277468Y-87721833D01*
X167275140Y-87848622D01*
X167262136Y-87996327D01*
X167237133Y-88134221D01*
X167199318Y-88267986D01*
X167190889Y-88291438D01*
X167171408Y-88339388D01*
X167146473Y-88395860D01*
X167117722Y-88457621D01*
X167086790Y-88521437D01*
X167055315Y-88584074D01*
X167024934Y-88642297D01*
X166997283Y-88692873D01*
X166973999Y-88732567D01*
X166956718Y-88758146D01*
X166947079Y-88766375D01*
X166943984Y-88764924D01*
X166924079Y-88753750D01*
X166888420Y-88732866D01*
X166839459Y-88703735D01*
X166779646Y-88667819D01*
X166711433Y-88626580D01*
X166637271Y-88581483D01*
X166340008Y-88400215D01*
X166384539Y-88353685D01*
X166462865Y-88262277D01*
X166537439Y-88148666D01*
X166591474Y-88030878D01*
X166624290Y-87910441D01*
X166635211Y-87788883D01*
X166633868Y-87747415D01*
X166615612Y-87629920D01*
X166576617Y-87519911D01*
X166517670Y-87418570D01*
X166439557Y-87327079D01*
X166343064Y-87246620D01*
X166228978Y-87178373D01*
X166194724Y-87162092D01*
X166071240Y-87116018D01*
X165932918Y-87080894D01*
X165783561Y-87056803D01*
X165626973Y-87043827D01*
X165466956Y-87042051D01*
X165307314Y-87051557D01*
X165151850Y-87072428D01*
X165004366Y-87104748D01*
X164868667Y-87148601D01*
X164782076Y-87186018D01*
X164668688Y-87250815D01*
X164575070Y-87326228D01*
X164500959Y-87412582D01*
X164446094Y-87510205D01*
X164410212Y-87619423D01*
X164393051Y-87740561D01*
X164391880Y-87809962D01*
X164406141Y-87932832D01*
X164441241Y-88048336D01*
X164496682Y-88155047D01*
X164571964Y-88251536D01*
X164586440Y-88267280D01*
X164612962Y-88297850D01*
X164630138Y-88320191D01*
X164634787Y-88330309D01*
X164632597Y-88332294D01*
X164613721Y-88346759D01*
X164580397Y-88370600D01*
X164535380Y-88401971D01*
X164481425Y-88439026D01*
X164421285Y-88479917D01*
X164357718Y-88522798D01*
X164293476Y-88565822D01*
X164231315Y-88607143D01*
X164173991Y-88644914D01*
X164124257Y-88677288D01*
X164084868Y-88702418D01*
X164058580Y-88718458D01*
X164048147Y-88723561D01*
X164043941Y-88718950D01*
X164038933Y-88699733D01*
X164036386Y-88690162D01*
X164025249Y-88662191D01*
X164006802Y-88620552D01*
X163982725Y-88569005D01*
X163954699Y-88511310D01*
X163949154Y-88500043D01*
X163869889Y-88322313D01*
X163810385Y-88152510D01*
X163770245Y-87988570D01*
X163749071Y-87828429D01*
X163746466Y-87670023D01*
X163762033Y-87511289D01*
X163779523Y-87415732D01*
X163824564Y-87251442D01*
X163887656Y-87097411D01*
X163969915Y-86951491D01*
X164072457Y-86811534D01*
X164196399Y-86675392D01*
X164241661Y-86631527D01*
X164373865Y-86519242D01*
X164511832Y-86426028D01*
X164659750Y-86349281D01*
X164821803Y-86286397D01*
X164833391Y-86282580D01*
X165019392Y-86232493D01*
X165215521Y-86199101D01*
X165417568Y-86182416D01*
X165621325Y-86182449D01*
G37*
X165621325Y-86182449D02*
X165822581Y-86199209D01*
X166017128Y-86232708D01*
X166200756Y-86282956D01*
X166318053Y-86326810D01*
X166480951Y-86404652D01*
X166634866Y-86498172D01*
X166776671Y-86605178D01*
X166903239Y-86723481D01*
X167011441Y-86850889D01*
X167064120Y-86928394D01*
X167133750Y-87055275D01*
X167192468Y-87192757D01*
X167237587Y-87334284D01*
X167266422Y-87473298D01*
X167268106Y-87487403D01*
X167271434Y-87530847D01*
X167274275Y-87588277D01*
X167276373Y-87653878D01*
X167277468Y-87721833D01*
X167275140Y-87848622D01*
X167262136Y-87996327D01*
X167237133Y-88134221D01*
X167199318Y-88267986D01*
X167190889Y-88291438D01*
X167171408Y-88339388D01*
X167146473Y-88395860D01*
X167117722Y-88457621D01*
X167086790Y-88521437D01*
X167055315Y-88584074D01*
X167024934Y-88642297D01*
X166997283Y-88692873D01*
X166973999Y-88732567D01*
X166956718Y-88758146D01*
X166947079Y-88766375D01*
X166943984Y-88764924D01*
X166924079Y-88753750D01*
X166888420Y-88732866D01*
X166839459Y-88703735D01*
X166779646Y-88667819D01*
X166711433Y-88626580D01*
X166637271Y-88581483D01*
X166340008Y-88400215D01*
X166384539Y-88353685D01*
X166462865Y-88262277D01*
X166537439Y-88148666D01*
X166591474Y-88030878D01*
X166624290Y-87910441D01*
X166635211Y-87788883D01*
X166633868Y-87747415D01*
X166615612Y-87629920D01*
X166576617Y-87519911D01*
X166517670Y-87418570D01*
X166439557Y-87327079D01*
X166343064Y-87246620D01*
X166228978Y-87178373D01*
X166194724Y-87162092D01*
X166071240Y-87116018D01*
X165932918Y-87080894D01*
X165783561Y-87056803D01*
X165626973Y-87043827D01*
X165466956Y-87042051D01*
X165307314Y-87051557D01*
X165151850Y-87072428D01*
X165004366Y-87104748D01*
X164868667Y-87148601D01*
X164782076Y-87186018D01*
X164668688Y-87250815D01*
X164575070Y-87326228D01*
X164500959Y-87412582D01*
X164446094Y-87510205D01*
X164410212Y-87619423D01*
X164393051Y-87740561D01*
X164391880Y-87809962D01*
X164406141Y-87932832D01*
X164441241Y-88048336D01*
X164496682Y-88155047D01*
X164571964Y-88251536D01*
X164586440Y-88267280D01*
X164612962Y-88297850D01*
X164630138Y-88320191D01*
X164634787Y-88330309D01*
X164632597Y-88332294D01*
X164613721Y-88346759D01*
X164580397Y-88370600D01*
X164535380Y-88401971D01*
X164481425Y-88439026D01*
X164421285Y-88479917D01*
X164357718Y-88522798D01*
X164293476Y-88565822D01*
X164231315Y-88607143D01*
X164173991Y-88644914D01*
X164124257Y-88677288D01*
X164084868Y-88702418D01*
X164058580Y-88718458D01*
X164048147Y-88723561D01*
X164043941Y-88718950D01*
X164038933Y-88699733D01*
X164036386Y-88690162D01*
X164025249Y-88662191D01*
X164006802Y-88620552D01*
X163982725Y-88569005D01*
X163954699Y-88511310D01*
X163949154Y-88500043D01*
X163869889Y-88322313D01*
X163810385Y-88152510D01*
X163770245Y-87988570D01*
X163749071Y-87828429D01*
X163746466Y-87670023D01*
X163762033Y-87511289D01*
X163779523Y-87415732D01*
X163824564Y-87251442D01*
X163887656Y-87097411D01*
X163969915Y-86951491D01*
X164072457Y-86811534D01*
X164196399Y-86675392D01*
X164241661Y-86631527D01*
X164373865Y-86519242D01*
X164511832Y-86426028D01*
X164659750Y-86349281D01*
X164821803Y-86286397D01*
X164833391Y-86282580D01*
X165019392Y-86232493D01*
X165215521Y-86199101D01*
X165417568Y-86182416D01*
X165621325Y-86182449D01*
G36*
X166477363Y-88772739D02*
G01*
X166552202Y-88776368D01*
X166614401Y-88783978D01*
X166670984Y-88796312D01*
X166797076Y-88840687D01*
X166911679Y-88903600D01*
X167012568Y-88983762D01*
X167098924Y-89080260D01*
X167169932Y-89192178D01*
X167224776Y-89318603D01*
X167262638Y-89458622D01*
X167268351Y-89494851D01*
X167274313Y-89573845D01*
X167274646Y-89662159D01*
X167269659Y-89751925D01*
X167259666Y-89835278D01*
X167244978Y-89904349D01*
X167214749Y-89990813D01*
X167160057Y-90100714D01*
X167092543Y-90198044D01*
X167041556Y-90260133D01*
X167137622Y-90263395D01*
X167233689Y-90266657D01*
X167233689Y-90689550D01*
X167233686Y-90700457D01*
X167233380Y-90794944D01*
X167232616Y-90881669D01*
X167231451Y-90958163D01*
X167229942Y-91021957D01*
X167228147Y-91070582D01*
X167226121Y-91101567D01*
X167223922Y-91112444D01*
X167223463Y-91112422D01*
X167207910Y-91105386D01*
X167185071Y-91089566D01*
X167179638Y-91085266D01*
X167165606Y-91074223D01*
X167152186Y-91064689D01*
X167137722Y-91056539D01*
X167120556Y-91049648D01*
X167099034Y-91043889D01*
X167071498Y-91039138D01*
X167036292Y-91035269D01*
X166991760Y-91032156D01*
X166936246Y-91029675D01*
X166868093Y-91027700D01*
X166785645Y-91026106D01*
X166687246Y-91024766D01*
X166571239Y-91023556D01*
X166435968Y-91022351D01*
X166279778Y-91021025D01*
X166137012Y-91019772D01*
X165991942Y-91018349D01*
X165866027Y-91016824D01*
X165757436Y-91015067D01*
X165664334Y-91012949D01*
X165584891Y-91010340D01*
X165517273Y-91007110D01*
X165459649Y-91003131D01*
X165410185Y-90998272D01*
X165367050Y-90992403D01*
X165328410Y-90985396D01*
X165292434Y-90977120D01*
X165257289Y-90967446D01*
X165221142Y-90956244D01*
X165182161Y-90943384D01*
X165139091Y-90927910D01*
X165046871Y-90885006D01*
X164967099Y-90831265D01*
X164892965Y-90762424D01*
X164829405Y-90684815D01*
X164767725Y-90580239D01*
X164720202Y-90460756D01*
X164686567Y-90325492D01*
X164666552Y-90173574D01*
X164659889Y-90004128D01*
X164660287Y-89946110D01*
X164662335Y-89880602D01*
X164666704Y-89819307D01*
X164674035Y-89757903D01*
X164684969Y-89692068D01*
X164700147Y-89617480D01*
X164720209Y-89529816D01*
X164745797Y-89424755D01*
X164752820Y-89396194D01*
X164770776Y-89320946D01*
X164786820Y-89250612D01*
X164800028Y-89189433D01*
X164809474Y-89141646D01*
X164814231Y-89111489D01*
X164817910Y-89083217D01*
X164823187Y-89056940D01*
X164827942Y-89046941D01*
X164836781Y-89050048D01*
X164864072Y-89060806D01*
X164906906Y-89078136D01*
X164962425Y-89100874D01*
X165027772Y-89127853D01*
X165100089Y-89157910D01*
X165115879Y-89164507D01*
X165206484Y-89203093D01*
X165276217Y-89234232D01*
X165325405Y-89258083D01*
X165354374Y-89274802D01*
X165363452Y-89284546D01*
X165361405Y-89292234D01*
X165351760Y-89318585D01*
X165336190Y-89357018D01*
X165316815Y-89402178D01*
X165278814Y-89496707D01*
X165237780Y-89633520D01*
X165212612Y-89774711D01*
X165208611Y-89812686D01*
X165206447Y-89915941D01*
X165219622Y-90003048D01*
X165248756Y-90074871D01*
X165294466Y-90132269D01*
X165357372Y-90176104D01*
X165438092Y-90207238D01*
X165537245Y-90226530D01*
X165596224Y-90233950D01*
X165589445Y-90072064D01*
X165589111Y-90046106D01*
X166111842Y-90046106D01*
X166111857Y-90054993D01*
X166112655Y-90110340D01*
X166114488Y-90157264D01*
X166117111Y-90191047D01*
X166120274Y-90206972D01*
X166126741Y-90211057D01*
X166148875Y-90215428D01*
X166187988Y-90218396D01*
X166245939Y-90220086D01*
X166324586Y-90220622D01*
X166520462Y-90220622D01*
X166576973Y-90175952D01*
X166592212Y-90163215D01*
X166634844Y-90116396D01*
X166670672Y-90055745D01*
X166675850Y-90045103D01*
X166692745Y-90006324D01*
X166702909Y-89971308D01*
X166708325Y-89931278D01*
X166710978Y-89877459D01*
X166711383Y-89859352D01*
X166708540Y-89783989D01*
X166696620Y-89723257D01*
X166674037Y-89671548D01*
X166639211Y-89623254D01*
X166634798Y-89618197D01*
X166579160Y-89569728D01*
X166515333Y-89541541D01*
X166440282Y-89532248D01*
X166368693Y-89539480D01*
X166305645Y-89564204D01*
X166247758Y-89608751D01*
X166200808Y-89663681D01*
X166160961Y-89736106D01*
X166133263Y-89822660D01*
X166117096Y-89925330D01*
X166111842Y-90046106D01*
X165589111Y-90046106D01*
X165587813Y-89945505D01*
X165594194Y-89794049D01*
X165608777Y-89645604D01*
X165630882Y-89509422D01*
X165645821Y-89444755D01*
X165688741Y-89312510D01*
X165745340Y-89190238D01*
X165814017Y-89080315D01*
X165893170Y-88985117D01*
X165981196Y-88907020D01*
X166076493Y-88848401D01*
X166128864Y-88824405D01*
X166199590Y-88798768D01*
X166270812Y-88782522D01*
X166349712Y-88774178D01*
X166440282Y-88772310D01*
X166443467Y-88772245D01*
X166477363Y-88772739D01*
G37*
X166477363Y-88772739D02*
X166552202Y-88776368D01*
X166614401Y-88783978D01*
X166670984Y-88796312D01*
X166797076Y-88840687D01*
X166911679Y-88903600D01*
X167012568Y-88983762D01*
X167098924Y-89080260D01*
X167169932Y-89192178D01*
X167224776Y-89318603D01*
X167262638Y-89458622D01*
X167268351Y-89494851D01*
X167274313Y-89573845D01*
X167274646Y-89662159D01*
X167269659Y-89751925D01*
X167259666Y-89835278D01*
X167244978Y-89904349D01*
X167214749Y-89990813D01*
X167160057Y-90100714D01*
X167092543Y-90198044D01*
X167041556Y-90260133D01*
X167137622Y-90263395D01*
X167233689Y-90266657D01*
X167233689Y-90689550D01*
X167233686Y-90700457D01*
X167233380Y-90794944D01*
X167232616Y-90881669D01*
X167231451Y-90958163D01*
X167229942Y-91021957D01*
X167228147Y-91070582D01*
X167226121Y-91101567D01*
X167223922Y-91112444D01*
X167223463Y-91112422D01*
X167207910Y-91105386D01*
X167185071Y-91089566D01*
X167179638Y-91085266D01*
X167165606Y-91074223D01*
X167152186Y-91064689D01*
X167137722Y-91056539D01*
X167120556Y-91049648D01*
X167099034Y-91043889D01*
X167071498Y-91039138D01*
X167036292Y-91035269D01*
X166991760Y-91032156D01*
X166936246Y-91029675D01*
X166868093Y-91027700D01*
X166785645Y-91026106D01*
X166687246Y-91024766D01*
X166571239Y-91023556D01*
X166435968Y-91022351D01*
X166279778Y-91021025D01*
X166137012Y-91019772D01*
X165991942Y-91018349D01*
X165866027Y-91016824D01*
X165757436Y-91015067D01*
X165664334Y-91012949D01*
X165584891Y-91010340D01*
X165517273Y-91007110D01*
X165459649Y-91003131D01*
X165410185Y-90998272D01*
X165367050Y-90992403D01*
X165328410Y-90985396D01*
X165292434Y-90977120D01*
X165257289Y-90967446D01*
X165221142Y-90956244D01*
X165182161Y-90943384D01*
X165139091Y-90927910D01*
X165046871Y-90885006D01*
X164967099Y-90831265D01*
X164892965Y-90762424D01*
X164829405Y-90684815D01*
X164767725Y-90580239D01*
X164720202Y-90460756D01*
X164686567Y-90325492D01*
X164666552Y-90173574D01*
X164659889Y-90004128D01*
X164660287Y-89946110D01*
X164662335Y-89880602D01*
X164666704Y-89819307D01*
X164674035Y-89757903D01*
X164684969Y-89692068D01*
X164700147Y-89617480D01*
X164720209Y-89529816D01*
X164745797Y-89424755D01*
X164752820Y-89396194D01*
X164770776Y-89320946D01*
X164786820Y-89250612D01*
X164800028Y-89189433D01*
X164809474Y-89141646D01*
X164814231Y-89111489D01*
X164817910Y-89083217D01*
X164823187Y-89056940D01*
X164827942Y-89046941D01*
X164836781Y-89050048D01*
X164864072Y-89060806D01*
X164906906Y-89078136D01*
X164962425Y-89100874D01*
X165027772Y-89127853D01*
X165100089Y-89157910D01*
X165115879Y-89164507D01*
X165206484Y-89203093D01*
X165276217Y-89234232D01*
X165325405Y-89258083D01*
X165354374Y-89274802D01*
X165363452Y-89284546D01*
X165361405Y-89292234D01*
X165351760Y-89318585D01*
X165336190Y-89357018D01*
X165316815Y-89402178D01*
X165278814Y-89496707D01*
X165237780Y-89633520D01*
X165212612Y-89774711D01*
X165208611Y-89812686D01*
X165206447Y-89915941D01*
X165219622Y-90003048D01*
X165248756Y-90074871D01*
X165294466Y-90132269D01*
X165357372Y-90176104D01*
X165438092Y-90207238D01*
X165537245Y-90226530D01*
X165596224Y-90233950D01*
X165589445Y-90072064D01*
X165589111Y-90046106D01*
X166111842Y-90046106D01*
X166111857Y-90054993D01*
X166112655Y-90110340D01*
X166114488Y-90157264D01*
X166117111Y-90191047D01*
X166120274Y-90206972D01*
X166126741Y-90211057D01*
X166148875Y-90215428D01*
X166187988Y-90218396D01*
X166245939Y-90220086D01*
X166324586Y-90220622D01*
X166520462Y-90220622D01*
X166576973Y-90175952D01*
X166592212Y-90163215D01*
X166634844Y-90116396D01*
X166670672Y-90055745D01*
X166675850Y-90045103D01*
X166692745Y-90006324D01*
X166702909Y-89971308D01*
X166708325Y-89931278D01*
X166710978Y-89877459D01*
X166711383Y-89859352D01*
X166708540Y-89783989D01*
X166696620Y-89723257D01*
X166674037Y-89671548D01*
X166639211Y-89623254D01*
X166634798Y-89618197D01*
X166579160Y-89569728D01*
X166515333Y-89541541D01*
X166440282Y-89532248D01*
X166368693Y-89539480D01*
X166305645Y-89564204D01*
X166247758Y-89608751D01*
X166200808Y-89663681D01*
X166160961Y-89736106D01*
X166133263Y-89822660D01*
X166117096Y-89925330D01*
X166111842Y-90046106D01*
X165589111Y-90046106D01*
X165587813Y-89945505D01*
X165594194Y-89794049D01*
X165608777Y-89645604D01*
X165630882Y-89509422D01*
X165645821Y-89444755D01*
X165688741Y-89312510D01*
X165745340Y-89190238D01*
X165814017Y-89080315D01*
X165893170Y-88985117D01*
X165981196Y-88907020D01*
X166076493Y-88848401D01*
X166128864Y-88824405D01*
X166199590Y-88798768D01*
X166270812Y-88782522D01*
X166349712Y-88774178D01*
X166440282Y-88772310D01*
X166443467Y-88772245D01*
X166477363Y-88772739D01*
G36*
X166120158Y-91314732D02*
G01*
X166271594Y-91323311D01*
X166408283Y-91342167D01*
X166534276Y-91372163D01*
X166653625Y-91414164D01*
X166770381Y-91469031D01*
X166881179Y-91535833D01*
X166994739Y-91626637D01*
X167090211Y-91730292D01*
X167167073Y-91846113D01*
X167224797Y-91973414D01*
X167262858Y-92111511D01*
X167268666Y-92149207D01*
X167274396Y-92228248D01*
X167274583Y-92316371D01*
X167269539Y-92405764D01*
X167259578Y-92488616D01*
X167245012Y-92557113D01*
X167235364Y-92587965D01*
X167205123Y-92665270D01*
X167167617Y-92742321D01*
X167126614Y-92811800D01*
X167085879Y-92866385D01*
X167066505Y-92889084D01*
X167048662Y-92911799D01*
X167041778Y-92923221D01*
X167043424Y-92924463D01*
X167061205Y-92927272D01*
X167094370Y-92929224D01*
X167137733Y-92929955D01*
X167233689Y-92929955D01*
X167233689Y-93788104D01*
X167172974Y-93753839D01*
X167163868Y-93748645D01*
X167149249Y-93740285D01*
X167135173Y-93732712D01*
X167120540Y-93725888D01*
X167104249Y-93719773D01*
X167085198Y-93714327D01*
X167062286Y-93709513D01*
X167034413Y-93705292D01*
X167000478Y-93701623D01*
X166959379Y-93698469D01*
X166910015Y-93695789D01*
X166851286Y-93693546D01*
X166782090Y-93691701D01*
X166701326Y-93690213D01*
X166607894Y-93689045D01*
X166500692Y-93688156D01*
X166378620Y-93687509D01*
X166240576Y-93687064D01*
X166085459Y-93686782D01*
X165912168Y-93686625D01*
X165719603Y-93686552D01*
X165506662Y-93686526D01*
X165272245Y-93686507D01*
X163587378Y-93686311D01*
X163587378Y-92780983D01*
X163624067Y-92805415D01*
X163633647Y-92811682D01*
X163679981Y-92837792D01*
X163727102Y-92855531D01*
X163782251Y-92867092D01*
X163852667Y-92874669D01*
X163859650Y-92875161D01*
X163897641Y-92876938D01*
X163951576Y-92878556D01*
X164018703Y-92880001D01*
X164096271Y-92881260D01*
X164181528Y-92882320D01*
X164271724Y-92883171D01*
X164364107Y-92883797D01*
X164455925Y-92884188D01*
X164544427Y-92884330D01*
X164626862Y-92884210D01*
X164700479Y-92883817D01*
X164762526Y-92883138D01*
X164810251Y-92882159D01*
X164840904Y-92880868D01*
X164851733Y-92879253D01*
X164847333Y-92871043D01*
X164832362Y-92849353D01*
X164810448Y-92819986D01*
X164776236Y-92771121D01*
X164729714Y-92682875D01*
X164696046Y-92584084D01*
X164693232Y-92569557D01*
X165247465Y-92569557D01*
X165259389Y-92654681D01*
X165286040Y-92738867D01*
X165326962Y-92817392D01*
X165370530Y-92884800D01*
X166520721Y-92884800D01*
X166567089Y-92814244D01*
X166590791Y-92773583D01*
X166616639Y-92719454D01*
X166634829Y-92670311D01*
X166650551Y-92606835D01*
X166661541Y-92510669D01*
X166653365Y-92426100D01*
X166625805Y-92352781D01*
X166578642Y-92290363D01*
X166511658Y-92238498D01*
X166424633Y-92196840D01*
X166317350Y-92165038D01*
X166305009Y-92162455D01*
X166243772Y-92154000D01*
X166166692Y-92148337D01*
X166079002Y-92145424D01*
X165985934Y-92145217D01*
X165892720Y-92147670D01*
X165804594Y-92152739D01*
X165726788Y-92160381D01*
X165664533Y-92170552D01*
X165658666Y-92171833D01*
X165548121Y-92200874D01*
X165457575Y-92235390D01*
X165384953Y-92276544D01*
X165328181Y-92325501D01*
X165285184Y-92383426D01*
X165269615Y-92415380D01*
X165250722Y-92488216D01*
X165247465Y-92569557D01*
X164693232Y-92569557D01*
X164674231Y-92471490D01*
X164663265Y-92341836D01*
X164662219Y-92249330D01*
X164672014Y-92127989D01*
X164696174Y-92017901D01*
X164735785Y-91914611D01*
X164791932Y-91813662D01*
X164822883Y-91768497D01*
X164914115Y-91663089D01*
X165023106Y-91571462D01*
X165149726Y-91493668D01*
X165293845Y-91429759D01*
X165455332Y-91379786D01*
X165634059Y-91343802D01*
X165829895Y-91321857D01*
X165985934Y-91316100D01*
X166042711Y-91314006D01*
X166120158Y-91314732D01*
G37*
X166120158Y-91314732D02*
X166271594Y-91323311D01*
X166408283Y-91342167D01*
X166534276Y-91372163D01*
X166653625Y-91414164D01*
X166770381Y-91469031D01*
X166881179Y-91535833D01*
X166994739Y-91626637D01*
X167090211Y-91730292D01*
X167167073Y-91846113D01*
X167224797Y-91973414D01*
X167262858Y-92111511D01*
X167268666Y-92149207D01*
X167274396Y-92228248D01*
X167274583Y-92316371D01*
X167269539Y-92405764D01*
X167259578Y-92488616D01*
X167245012Y-92557113D01*
X167235364Y-92587965D01*
X167205123Y-92665270D01*
X167167617Y-92742321D01*
X167126614Y-92811800D01*
X167085879Y-92866385D01*
X167066505Y-92889084D01*
X167048662Y-92911799D01*
X167041778Y-92923221D01*
X167043424Y-92924463D01*
X167061205Y-92927272D01*
X167094370Y-92929224D01*
X167137733Y-92929955D01*
X167233689Y-92929955D01*
X167233689Y-93788104D01*
X167172974Y-93753839D01*
X167163868Y-93748645D01*
X167149249Y-93740285D01*
X167135173Y-93732712D01*
X167120540Y-93725888D01*
X167104249Y-93719773D01*
X167085198Y-93714327D01*
X167062286Y-93709513D01*
X167034413Y-93705292D01*
X167000478Y-93701623D01*
X166959379Y-93698469D01*
X166910015Y-93695789D01*
X166851286Y-93693546D01*
X166782090Y-93691701D01*
X166701326Y-93690213D01*
X166607894Y-93689045D01*
X166500692Y-93688156D01*
X166378620Y-93687509D01*
X166240576Y-93687064D01*
X166085459Y-93686782D01*
X165912168Y-93686625D01*
X165719603Y-93686552D01*
X165506662Y-93686526D01*
X165272245Y-93686507D01*
X163587378Y-93686311D01*
X163587378Y-92780983D01*
X163624067Y-92805415D01*
X163633647Y-92811682D01*
X163679981Y-92837792D01*
X163727102Y-92855531D01*
X163782251Y-92867092D01*
X163852667Y-92874669D01*
X163859650Y-92875161D01*
X163897641Y-92876938D01*
X163951576Y-92878556D01*
X164018703Y-92880001D01*
X164096271Y-92881260D01*
X164181528Y-92882320D01*
X164271724Y-92883171D01*
X164364107Y-92883797D01*
X164455925Y-92884188D01*
X164544427Y-92884330D01*
X164626862Y-92884210D01*
X164700479Y-92883817D01*
X164762526Y-92883138D01*
X164810251Y-92882159D01*
X164840904Y-92880868D01*
X164851733Y-92879253D01*
X164847333Y-92871043D01*
X164832362Y-92849353D01*
X164810448Y-92819986D01*
X164776236Y-92771121D01*
X164729714Y-92682875D01*
X164696046Y-92584084D01*
X164693232Y-92569557D01*
X165247465Y-92569557D01*
X165259389Y-92654681D01*
X165286040Y-92738867D01*
X165326962Y-92817392D01*
X165370530Y-92884800D01*
X166520721Y-92884800D01*
X166567089Y-92814244D01*
X166590791Y-92773583D01*
X166616639Y-92719454D01*
X166634829Y-92670311D01*
X166650551Y-92606835D01*
X166661541Y-92510669D01*
X166653365Y-92426100D01*
X166625805Y-92352781D01*
X166578642Y-92290363D01*
X166511658Y-92238498D01*
X166424633Y-92196840D01*
X166317350Y-92165038D01*
X166305009Y-92162455D01*
X166243772Y-92154000D01*
X166166692Y-92148337D01*
X166079002Y-92145424D01*
X165985934Y-92145217D01*
X165892720Y-92147670D01*
X165804594Y-92152739D01*
X165726788Y-92160381D01*
X165664533Y-92170552D01*
X165658666Y-92171833D01*
X165548121Y-92200874D01*
X165457575Y-92235390D01*
X165384953Y-92276544D01*
X165328181Y-92325501D01*
X165285184Y-92383426D01*
X165269615Y-92415380D01*
X165250722Y-92488216D01*
X165247465Y-92569557D01*
X164693232Y-92569557D01*
X164674231Y-92471490D01*
X164663265Y-92341836D01*
X164662219Y-92249330D01*
X164672014Y-92127989D01*
X164696174Y-92017901D01*
X164735785Y-91914611D01*
X164791932Y-91813662D01*
X164822883Y-91768497D01*
X164914115Y-91663089D01*
X165023106Y-91571462D01*
X165149726Y-91493668D01*
X165293845Y-91429759D01*
X165455332Y-91379786D01*
X165634059Y-91343802D01*
X165829895Y-91321857D01*
X165985934Y-91316100D01*
X166042711Y-91314006D01*
X166120158Y-91314732D01*
G36*
X163334307Y-84695331D02*
G01*
X163375450Y-84697540D01*
X163407582Y-84703106D01*
X163438122Y-84713414D01*
X163474489Y-84729852D01*
X163501728Y-84743800D01*
X163587429Y-84802335D01*
X163656617Y-84874381D01*
X163707741Y-84958053D01*
X163739250Y-85051469D01*
X163746225Y-85084566D01*
X163753094Y-85125040D01*
X163754919Y-85158001D01*
X163751947Y-85192302D01*
X163744426Y-85236800D01*
X163732002Y-85288066D01*
X163694112Y-85378566D01*
X163639836Y-85457655D01*
X163571770Y-85523472D01*
X163492511Y-85574160D01*
X163404654Y-85607860D01*
X163310795Y-85622714D01*
X163213530Y-85616864D01*
X163117220Y-85590601D01*
X163028494Y-85545582D01*
X162953419Y-85484627D01*
X162893641Y-85409816D01*
X162850809Y-85323232D01*
X162826571Y-85226957D01*
X162822576Y-85123072D01*
X162832850Y-85045438D01*
X162860053Y-84962687D01*
X162905484Y-84887594D01*
X162971302Y-84815702D01*
X163015567Y-84777154D01*
X163073961Y-84737744D01*
X163134586Y-84712554D01*
X163203865Y-84699139D01*
X163288222Y-84695052D01*
X163334307Y-84695331D01*
G37*
X163334307Y-84695331D02*
X163375450Y-84697540D01*
X163407582Y-84703106D01*
X163438122Y-84713414D01*
X163474489Y-84729852D01*
X163501728Y-84743800D01*
X163587429Y-84802335D01*
X163656617Y-84874381D01*
X163707741Y-84958053D01*
X163739250Y-85051469D01*
X163746225Y-85084566D01*
X163753094Y-85125040D01*
X163754919Y-85158001D01*
X163751947Y-85192302D01*
X163744426Y-85236800D01*
X163732002Y-85288066D01*
X163694112Y-85378566D01*
X163639836Y-85457655D01*
X163571770Y-85523472D01*
X163492511Y-85574160D01*
X163404654Y-85607860D01*
X163310795Y-85622714D01*
X163213530Y-85616864D01*
X163117220Y-85590601D01*
X163028494Y-85545582D01*
X162953419Y-85484627D01*
X162893641Y-85409816D01*
X162850809Y-85323232D01*
X162826571Y-85226957D01*
X162822576Y-85123072D01*
X162832850Y-85045438D01*
X162860053Y-84962687D01*
X162905484Y-84887594D01*
X162971302Y-84815702D01*
X163015567Y-84777154D01*
X163073961Y-84737744D01*
X163134586Y-84712554D01*
X163203865Y-84699139D01*
X163288222Y-84695052D01*
X163334307Y-84695331D01*
G36*
X168335041Y-81223130D02*
G01*
X168435956Y-81223378D01*
X168511617Y-81223417D01*
X168589526Y-81223672D01*
X168649536Y-81224316D01*
X168694264Y-81225520D01*
X168726326Y-81227457D01*
X168748340Y-81230297D01*
X168762924Y-81234212D01*
X168772694Y-81239374D01*
X168780267Y-81245955D01*
X168786501Y-81252923D01*
X168793801Y-81265921D01*
X168798554Y-81285069D01*
X168801292Y-81314472D01*
X168802545Y-81358238D01*
X168802845Y-81420472D01*
X168802469Y-81469418D01*
X168798041Y-81576278D01*
X168787953Y-81665506D01*
X168771365Y-81740304D01*
X168747435Y-81803875D01*
X168715321Y-81859421D01*
X168674182Y-81910146D01*
X168668330Y-81916134D01*
X168619821Y-81953001D01*
X168559013Y-81984101D01*
X168494769Y-82005583D01*
X168435956Y-82013600D01*
X168414739Y-82012321D01*
X168357323Y-82000009D01*
X168297413Y-81977480D01*
X168243363Y-81948250D01*
X168203532Y-81915833D01*
X168186510Y-81896292D01*
X168147322Y-81841580D01*
X168117193Y-81781277D01*
X168095232Y-81712081D01*
X168080550Y-81630689D01*
X168072259Y-81533800D01*
X168070149Y-81446333D01*
X168215808Y-81446333D01*
X168215817Y-81449361D01*
X168217782Y-81500481D01*
X168222507Y-81560584D01*
X168229035Y-81617292D01*
X168238331Y-81667250D01*
X168264600Y-81742002D01*
X168303899Y-81799511D01*
X168356933Y-81841012D01*
X168408200Y-81862229D01*
X168456026Y-81863647D01*
X168506961Y-81845365D01*
X168552878Y-81815695D01*
X168595287Y-81768998D01*
X168625090Y-81707608D01*
X168644226Y-81628462D01*
X168644464Y-81626972D01*
X168650256Y-81578001D01*
X168654396Y-81519307D01*
X168656004Y-81463266D01*
X168656089Y-81370133D01*
X168215822Y-81370133D01*
X168215808Y-81446333D01*
X168070149Y-81446333D01*
X168069467Y-81418111D01*
X168069066Y-81378629D01*
X168068653Y-81332918D01*
X168070457Y-81297117D01*
X168076739Y-81270026D01*
X168089759Y-81250444D01*
X168111778Y-81237170D01*
X168145055Y-81229002D01*
X168191851Y-81224740D01*
X168215822Y-81224143D01*
X168254427Y-81223183D01*
X168335041Y-81223130D01*
G37*
X168335041Y-81223130D02*
X168435956Y-81223378D01*
X168511617Y-81223417D01*
X168589526Y-81223672D01*
X168649536Y-81224316D01*
X168694264Y-81225520D01*
X168726326Y-81227457D01*
X168748340Y-81230297D01*
X168762924Y-81234212D01*
X168772694Y-81239374D01*
X168780267Y-81245955D01*
X168786501Y-81252923D01*
X168793801Y-81265921D01*
X168798554Y-81285069D01*
X168801292Y-81314472D01*
X168802545Y-81358238D01*
X168802845Y-81420472D01*
X168802469Y-81469418D01*
X168798041Y-81576278D01*
X168787953Y-81665506D01*
X168771365Y-81740304D01*
X168747435Y-81803875D01*
X168715321Y-81859421D01*
X168674182Y-81910146D01*
X168668330Y-81916134D01*
X168619821Y-81953001D01*
X168559013Y-81984101D01*
X168494769Y-82005583D01*
X168435956Y-82013600D01*
X168414739Y-82012321D01*
X168357323Y-82000009D01*
X168297413Y-81977480D01*
X168243363Y-81948250D01*
X168203532Y-81915833D01*
X168186510Y-81896292D01*
X168147322Y-81841580D01*
X168117193Y-81781277D01*
X168095232Y-81712081D01*
X168080550Y-81630689D01*
X168072259Y-81533800D01*
X168070149Y-81446333D01*
X168215808Y-81446333D01*
X168215817Y-81449361D01*
X168217782Y-81500481D01*
X168222507Y-81560584D01*
X168229035Y-81617292D01*
X168238331Y-81667250D01*
X168264600Y-81742002D01*
X168303899Y-81799511D01*
X168356933Y-81841012D01*
X168408200Y-81862229D01*
X168456026Y-81863647D01*
X168506961Y-81845365D01*
X168552878Y-81815695D01*
X168595287Y-81768998D01*
X168625090Y-81707608D01*
X168644226Y-81628462D01*
X168644464Y-81626972D01*
X168650256Y-81578001D01*
X168654396Y-81519307D01*
X168656004Y-81463266D01*
X168656089Y-81370133D01*
X168215822Y-81370133D01*
X168215808Y-81446333D01*
X168070149Y-81446333D01*
X168069467Y-81418111D01*
X168069066Y-81378629D01*
X168068653Y-81332918D01*
X168070457Y-81297117D01*
X168076739Y-81270026D01*
X168089759Y-81250444D01*
X168111778Y-81237170D01*
X168145055Y-81229002D01*
X168191851Y-81224740D01*
X168215822Y-81224143D01*
X168254427Y-81223183D01*
X168335041Y-81223130D01*
G36*
X168510713Y-82352303D02*
G01*
X168588889Y-82352552D01*
X168649103Y-82353188D01*
X168693982Y-82354385D01*
X168726152Y-82356316D01*
X168748239Y-82359154D01*
X168762870Y-82363073D01*
X168772670Y-82368245D01*
X168780267Y-82374844D01*
X168783444Y-82378178D01*
X168789554Y-82386700D01*
X168794229Y-82398702D01*
X168797659Y-82416913D01*
X168800036Y-82444060D01*
X168801552Y-82482871D01*
X168802398Y-82536076D01*
X168802765Y-82606402D01*
X168802845Y-82696578D01*
X168802833Y-82738686D01*
X168802651Y-82819833D01*
X168802098Y-82882325D01*
X168800982Y-82928891D01*
X168799113Y-82962259D01*
X168796298Y-82985156D01*
X168792346Y-83000312D01*
X168787066Y-83010454D01*
X168780267Y-83018311D01*
X168758667Y-83033037D01*
X168729467Y-83040889D01*
X168705560Y-83035390D01*
X168678667Y-83018311D01*
X168674059Y-83013332D01*
X168667772Y-83003557D01*
X168663146Y-82989441D01*
X168659930Y-82967946D01*
X168657870Y-82936032D01*
X168656712Y-82890658D01*
X168656202Y-82828787D01*
X168656089Y-82747378D01*
X168656089Y-82499022D01*
X168498045Y-82499022D01*
X168498045Y-82660199D01*
X168497899Y-82696017D01*
X168496176Y-82761641D01*
X168491741Y-82808882D01*
X168483637Y-82840617D01*
X168470906Y-82859723D01*
X168452592Y-82869077D01*
X168427738Y-82871555D01*
X168407482Y-82870758D01*
X168385656Y-82865506D01*
X168370304Y-82852712D01*
X168360309Y-82829372D01*
X168354553Y-82792483D01*
X168351919Y-82739041D01*
X168351289Y-82666042D01*
X168351289Y-82497895D01*
X168286378Y-82501281D01*
X168221467Y-82504666D01*
X168218418Y-82752383D01*
X168217539Y-82814974D01*
X168216095Y-82883435D01*
X168214164Y-82934339D01*
X168211514Y-82970592D01*
X168207910Y-82995099D01*
X168203121Y-83010765D01*
X168196913Y-83020494D01*
X168190510Y-83026509D01*
X168158828Y-83039518D01*
X168123142Y-83035957D01*
X168092084Y-83016182D01*
X168089161Y-83012931D01*
X168082810Y-83003951D01*
X168077957Y-82991847D01*
X168074403Y-82973841D01*
X168071946Y-82947153D01*
X168070385Y-82909003D01*
X168069518Y-82856614D01*
X168069146Y-82787206D01*
X168069067Y-82697999D01*
X168069083Y-82643266D01*
X168069275Y-82566169D01*
X168069860Y-82507223D01*
X168071051Y-82463636D01*
X168073064Y-82432617D01*
X168076112Y-82411375D01*
X168080409Y-82397118D01*
X168086172Y-82387055D01*
X168093612Y-82378394D01*
X168095293Y-82376609D01*
X168102832Y-82369365D01*
X168111850Y-82363723D01*
X168124984Y-82359483D01*
X168144872Y-82356444D01*
X168174151Y-82354406D01*
X168215458Y-82353170D01*
X168271431Y-82352535D01*
X168344707Y-82352300D01*
X168437923Y-82352266D01*
X168510713Y-82352303D01*
G37*
X168510713Y-82352303D02*
X168588889Y-82352552D01*
X168649103Y-82353188D01*
X168693982Y-82354385D01*
X168726152Y-82356316D01*
X168748239Y-82359154D01*
X168762870Y-82363073D01*
X168772670Y-82368245D01*
X168780267Y-82374844D01*
X168783444Y-82378178D01*
X168789554Y-82386700D01*
X168794229Y-82398702D01*
X168797659Y-82416913D01*
X168800036Y-82444060D01*
X168801552Y-82482871D01*
X168802398Y-82536076D01*
X168802765Y-82606402D01*
X168802845Y-82696578D01*
X168802833Y-82738686D01*
X168802651Y-82819833D01*
X168802098Y-82882325D01*
X168800982Y-82928891D01*
X168799113Y-82962259D01*
X168796298Y-82985156D01*
X168792346Y-83000312D01*
X168787066Y-83010454D01*
X168780267Y-83018311D01*
X168758667Y-83033037D01*
X168729467Y-83040889D01*
X168705560Y-83035390D01*
X168678667Y-83018311D01*
X168674059Y-83013332D01*
X168667772Y-83003557D01*
X168663146Y-82989441D01*
X168659930Y-82967946D01*
X168657870Y-82936032D01*
X168656712Y-82890658D01*
X168656202Y-82828787D01*
X168656089Y-82747378D01*
X168656089Y-82499022D01*
X168498045Y-82499022D01*
X168498045Y-82660199D01*
X168497899Y-82696017D01*
X168496176Y-82761641D01*
X168491741Y-82808882D01*
X168483637Y-82840617D01*
X168470906Y-82859723D01*
X168452592Y-82869077D01*
X168427738Y-82871555D01*
X168407482Y-82870758D01*
X168385656Y-82865506D01*
X168370304Y-82852712D01*
X168360309Y-82829372D01*
X168354553Y-82792483D01*
X168351919Y-82739041D01*
X168351289Y-82666042D01*
X168351289Y-82497895D01*
X168286378Y-82501281D01*
X168221467Y-82504666D01*
X168218418Y-82752383D01*
X168217539Y-82814974D01*
X168216095Y-82883435D01*
X168214164Y-82934339D01*
X168211514Y-82970592D01*
X168207910Y-82995099D01*
X168203121Y-83010765D01*
X168196913Y-83020494D01*
X168190510Y-83026509D01*
X168158828Y-83039518D01*
X168123142Y-83035957D01*
X168092084Y-83016182D01*
X168089161Y-83012931D01*
X168082810Y-83003951D01*
X168077957Y-82991847D01*
X168074403Y-82973841D01*
X168071946Y-82947153D01*
X168070385Y-82909003D01*
X168069518Y-82856614D01*
X168069146Y-82787206D01*
X168069067Y-82697999D01*
X168069083Y-82643266D01*
X168069275Y-82566169D01*
X168069860Y-82507223D01*
X168071051Y-82463636D01*
X168073064Y-82432617D01*
X168076112Y-82411375D01*
X168080409Y-82397118D01*
X168086172Y-82387055D01*
X168093612Y-82378394D01*
X168095293Y-82376609D01*
X168102832Y-82369365D01*
X168111850Y-82363723D01*
X168124984Y-82359483D01*
X168144872Y-82356444D01*
X168174151Y-82354406D01*
X168215458Y-82353170D01*
X168271431Y-82352535D01*
X168344707Y-82352300D01*
X168437923Y-82352266D01*
X168510713Y-82352303D01*
G36*
X168320232Y-83324048D02*
G01*
X168345029Y-83329840D01*
X168366699Y-83344647D01*
X168394049Y-83372620D01*
X168401378Y-83380598D01*
X168422281Y-83404308D01*
X168439251Y-83426702D01*
X168453205Y-83450735D01*
X168465056Y-83479363D01*
X168475720Y-83515540D01*
X168486111Y-83562220D01*
X168497146Y-83622359D01*
X168509738Y-83698910D01*
X168524804Y-83794829D01*
X168527838Y-83813192D01*
X168541458Y-83875522D01*
X168557192Y-83920740D01*
X168574263Y-83947024D01*
X168591897Y-83952553D01*
X168596168Y-83949932D01*
X168611233Y-83932000D01*
X168627867Y-83903874D01*
X168633857Y-83891074D01*
X168641050Y-83869776D01*
X168645827Y-83843390D01*
X168648646Y-83807546D01*
X168649964Y-83757872D01*
X168650237Y-83690000D01*
X168650164Y-83672215D01*
X168649053Y-83604594D01*
X168646828Y-83539655D01*
X168643762Y-83484030D01*
X168640127Y-83444349D01*
X168636059Y-83408838D01*
X168635276Y-83379585D01*
X168639876Y-83360685D01*
X168650551Y-83345571D01*
X168654144Y-83341915D01*
X168685918Y-83325573D01*
X168721572Y-83326893D01*
X168752190Y-83345850D01*
X168763796Y-83366220D01*
X168776491Y-83402204D01*
X168786541Y-83444628D01*
X168787140Y-83448078D01*
X168792356Y-83490748D01*
X168796730Y-83548134D01*
X168799818Y-83613151D01*
X168801177Y-83678711D01*
X168801218Y-83694943D01*
X168798741Y-83793256D01*
X168790735Y-83873308D01*
X168776203Y-83938487D01*
X168754149Y-83992183D01*
X168723576Y-84037784D01*
X168683486Y-84078677D01*
X168657259Y-84098798D01*
X168627712Y-84110424D01*
X168587995Y-84113333D01*
X168576026Y-84113192D01*
X168543345Y-84109319D01*
X168516819Y-84096935D01*
X168485971Y-84071770D01*
X168463831Y-84050558D01*
X168441285Y-84024162D01*
X168422917Y-83994445D01*
X168407661Y-83958215D01*
X168394449Y-83912283D01*
X168382214Y-83853456D01*
X168369889Y-83778544D01*
X168356406Y-83684355D01*
X168349396Y-83639043D01*
X168334837Y-83571089D01*
X168318337Y-83521953D01*
X168300439Y-83492386D01*
X168281685Y-83483136D01*
X168262615Y-83494952D01*
X168243771Y-83528584D01*
X168242557Y-83531630D01*
X168230479Y-83577989D01*
X168222279Y-83640639D01*
X168218119Y-83714073D01*
X168218161Y-83792783D01*
X168222569Y-83871261D01*
X168231505Y-83944000D01*
X168232154Y-83947927D01*
X168239861Y-83996743D01*
X168243473Y-84028995D01*
X168242876Y-84049992D01*
X168237954Y-84065046D01*
X168228596Y-84079466D01*
X168227725Y-84080636D01*
X168197351Y-84105153D01*
X168161850Y-84109946D01*
X168127269Y-84094140D01*
X168122813Y-84089594D01*
X168107673Y-84059980D01*
X168094550Y-84012998D01*
X168083750Y-83952694D01*
X168075581Y-83883112D01*
X168070351Y-83808297D01*
X168068367Y-83732294D01*
X168069936Y-83659147D01*
X168075366Y-83592900D01*
X168084964Y-83537600D01*
X168099825Y-83486717D01*
X168132958Y-83415405D01*
X168175640Y-83364248D01*
X168227705Y-83333425D01*
X168288983Y-83323111D01*
X168320232Y-83324048D01*
G37*
X168320232Y-83324048D02*
X168345029Y-83329840D01*
X168366699Y-83344647D01*
X168394049Y-83372620D01*
X168401378Y-83380598D01*
X168422281Y-83404308D01*
X168439251Y-83426702D01*
X168453205Y-83450735D01*
X168465056Y-83479363D01*
X168475720Y-83515540D01*
X168486111Y-83562220D01*
X168497146Y-83622359D01*
X168509738Y-83698910D01*
X168524804Y-83794829D01*
X168527838Y-83813192D01*
X168541458Y-83875522D01*
X168557192Y-83920740D01*
X168574263Y-83947024D01*
X168591897Y-83952553D01*
X168596168Y-83949932D01*
X168611233Y-83932000D01*
X168627867Y-83903874D01*
X168633857Y-83891074D01*
X168641050Y-83869776D01*
X168645827Y-83843390D01*
X168648646Y-83807546D01*
X168649964Y-83757872D01*
X168650237Y-83690000D01*
X168650164Y-83672215D01*
X168649053Y-83604594D01*
X168646828Y-83539655D01*
X168643762Y-83484030D01*
X168640127Y-83444349D01*
X168636059Y-83408838D01*
X168635276Y-83379585D01*
X168639876Y-83360685D01*
X168650551Y-83345571D01*
X168654144Y-83341915D01*
X168685918Y-83325573D01*
X168721572Y-83326893D01*
X168752190Y-83345850D01*
X168763796Y-83366220D01*
X168776491Y-83402204D01*
X168786541Y-83444628D01*
X168787140Y-83448078D01*
X168792356Y-83490748D01*
X168796730Y-83548134D01*
X168799818Y-83613151D01*
X168801177Y-83678711D01*
X168801218Y-83694943D01*
X168798741Y-83793256D01*
X168790735Y-83873308D01*
X168776203Y-83938487D01*
X168754149Y-83992183D01*
X168723576Y-84037784D01*
X168683486Y-84078677D01*
X168657259Y-84098798D01*
X168627712Y-84110424D01*
X168587995Y-84113333D01*
X168576026Y-84113192D01*
X168543345Y-84109319D01*
X168516819Y-84096935D01*
X168485971Y-84071770D01*
X168463831Y-84050558D01*
X168441285Y-84024162D01*
X168422917Y-83994445D01*
X168407661Y-83958215D01*
X168394449Y-83912283D01*
X168382214Y-83853456D01*
X168369889Y-83778544D01*
X168356406Y-83684355D01*
X168349396Y-83639043D01*
X168334837Y-83571089D01*
X168318337Y-83521953D01*
X168300439Y-83492386D01*
X168281685Y-83483136D01*
X168262615Y-83494952D01*
X168243771Y-83528584D01*
X168242557Y-83531630D01*
X168230479Y-83577989D01*
X168222279Y-83640639D01*
X168218119Y-83714073D01*
X168218161Y-83792783D01*
X168222569Y-83871261D01*
X168231505Y-83944000D01*
X168232154Y-83947927D01*
X168239861Y-83996743D01*
X168243473Y-84028995D01*
X168242876Y-84049992D01*
X168237954Y-84065046D01*
X168228596Y-84079466D01*
X168227725Y-84080636D01*
X168197351Y-84105153D01*
X168161850Y-84109946D01*
X168127269Y-84094140D01*
X168122813Y-84089594D01*
X168107673Y-84059980D01*
X168094550Y-84012998D01*
X168083750Y-83952694D01*
X168075581Y-83883112D01*
X168070351Y-83808297D01*
X168068367Y-83732294D01*
X168069936Y-83659147D01*
X168075366Y-83592900D01*
X168084964Y-83537600D01*
X168099825Y-83486717D01*
X168132958Y-83415405D01*
X168175640Y-83364248D01*
X168227705Y-83333425D01*
X168288983Y-83323111D01*
X168320232Y-83324048D01*
G36*
X168521567Y-84452041D02*
G01*
X168595789Y-84452299D01*
X168652541Y-84452970D01*
X168694512Y-84454248D01*
X168724389Y-84456327D01*
X168744861Y-84459401D01*
X168758614Y-84463666D01*
X168768337Y-84469316D01*
X168776717Y-84476545D01*
X168798181Y-84508009D01*
X168799947Y-84543174D01*
X168780267Y-84576178D01*
X168774398Y-84581484D01*
X168765314Y-84586934D01*
X168751973Y-84591100D01*
X168731757Y-84594154D01*
X168702049Y-84596268D01*
X168660232Y-84597614D01*
X168603689Y-84598362D01*
X168529802Y-84598686D01*
X168435956Y-84598755D01*
X168360294Y-84598716D01*
X168282385Y-84598461D01*
X168222375Y-84597817D01*
X168177648Y-84596613D01*
X168145585Y-84594676D01*
X168123571Y-84591836D01*
X168108987Y-84587921D01*
X168099218Y-84582758D01*
X168091645Y-84576178D01*
X168072623Y-84546994D01*
X168073463Y-84513863D01*
X168096776Y-84479709D01*
X168124485Y-84452000D01*
X168437537Y-84452000D01*
X168521567Y-84452041D01*
G37*
X168521567Y-84452041D02*
X168595789Y-84452299D01*
X168652541Y-84452970D01*
X168694512Y-84454248D01*
X168724389Y-84456327D01*
X168744861Y-84459401D01*
X168758614Y-84463666D01*
X168768337Y-84469316D01*
X168776717Y-84476545D01*
X168798181Y-84508009D01*
X168799947Y-84543174D01*
X168780267Y-84576178D01*
X168774398Y-84581484D01*
X168765314Y-84586934D01*
X168751973Y-84591100D01*
X168731757Y-84594154D01*
X168702049Y-84596268D01*
X168660232Y-84597614D01*
X168603689Y-84598362D01*
X168529802Y-84598686D01*
X168435956Y-84598755D01*
X168360294Y-84598716D01*
X168282385Y-84598461D01*
X168222375Y-84597817D01*
X168177648Y-84596613D01*
X168145585Y-84594676D01*
X168123571Y-84591836D01*
X168108987Y-84587921D01*
X168099218Y-84582758D01*
X168091645Y-84576178D01*
X168072623Y-84546994D01*
X168073463Y-84513863D01*
X168096776Y-84479709D01*
X168124485Y-84452000D01*
X168437537Y-84452000D01*
X168521567Y-84452041D01*
G36*
X168454259Y-84927702D02*
G01*
X168505592Y-84940643D01*
X168562118Y-84963806D01*
X168616035Y-84993698D01*
X168659539Y-85026827D01*
X168669887Y-85037023D01*
X168721662Y-85104108D01*
X168761554Y-85184234D01*
X168785956Y-85270444D01*
X168794068Y-85325408D01*
X168800673Y-85418861D01*
X168798586Y-85508642D01*
X168788340Y-85591131D01*
X168770470Y-85662714D01*
X168745508Y-85719772D01*
X168713988Y-85758689D01*
X168712012Y-85760064D01*
X168686786Y-85767152D01*
X168639535Y-85771391D01*
X168570071Y-85772800D01*
X168507838Y-85771940D01*
X168460456Y-85767220D01*
X168428353Y-85755530D01*
X168408800Y-85733761D01*
X168399070Y-85698802D01*
X168396433Y-85647544D01*
X168398161Y-85576877D01*
X168401173Y-85528257D01*
X168409366Y-85478061D01*
X168423419Y-85445567D01*
X168444654Y-85428108D01*
X168474394Y-85423017D01*
X168478936Y-85423123D01*
X168513730Y-85431825D01*
X168537147Y-85455835D01*
X168550347Y-85497100D01*
X168554489Y-85557569D01*
X168554489Y-85626044D01*
X168592841Y-85626044D01*
X168601976Y-85625994D01*
X168619227Y-85623773D01*
X168629521Y-85614506D01*
X168636459Y-85593125D01*
X168643641Y-85554564D01*
X168644575Y-85549090D01*
X168654478Y-85452140D01*
X168651559Y-85362148D01*
X168636829Y-85281240D01*
X168611299Y-85211541D01*
X168575978Y-85155176D01*
X168531879Y-85114271D01*
X168480012Y-85090949D01*
X168421388Y-85087337D01*
X168392494Y-85092855D01*
X168336604Y-85119539D01*
X168290945Y-85165727D01*
X168256108Y-85230709D01*
X168232690Y-85313771D01*
X168228241Y-85338445D01*
X168217742Y-85427774D01*
X168218971Y-85507581D01*
X168231906Y-85585674D01*
X168238696Y-85620817D01*
X168239713Y-85666255D01*
X168227182Y-85697570D01*
X168200395Y-85717723D01*
X168172148Y-85724107D01*
X168140924Y-85714621D01*
X168127499Y-85705292D01*
X168103967Y-85671057D01*
X168086095Y-85618435D01*
X168074599Y-85549919D01*
X168070192Y-85468000D01*
X168074179Y-85370850D01*
X168090494Y-85264843D01*
X168118545Y-85171031D01*
X168157452Y-85092235D01*
X168206334Y-85031281D01*
X168239195Y-85005211D01*
X168288394Y-84975703D01*
X168342252Y-84950432D01*
X168393419Y-84932782D01*
X168434544Y-84926142D01*
X168454259Y-84927702D01*
G37*
X168454259Y-84927702D02*
X168505592Y-84940643D01*
X168562118Y-84963806D01*
X168616035Y-84993698D01*
X168659539Y-85026827D01*
X168669887Y-85037023D01*
X168721662Y-85104108D01*
X168761554Y-85184234D01*
X168785956Y-85270444D01*
X168794068Y-85325408D01*
X168800673Y-85418861D01*
X168798586Y-85508642D01*
X168788340Y-85591131D01*
X168770470Y-85662714D01*
X168745508Y-85719772D01*
X168713988Y-85758689D01*
X168712012Y-85760064D01*
X168686786Y-85767152D01*
X168639535Y-85771391D01*
X168570071Y-85772800D01*
X168507838Y-85771940D01*
X168460456Y-85767220D01*
X168428353Y-85755530D01*
X168408800Y-85733761D01*
X168399070Y-85698802D01*
X168396433Y-85647544D01*
X168398161Y-85576877D01*
X168401173Y-85528257D01*
X168409366Y-85478061D01*
X168423419Y-85445567D01*
X168444654Y-85428108D01*
X168474394Y-85423017D01*
X168478936Y-85423123D01*
X168513730Y-85431825D01*
X168537147Y-85455835D01*
X168550347Y-85497100D01*
X168554489Y-85557569D01*
X168554489Y-85626044D01*
X168592841Y-85626044D01*
X168601976Y-85625994D01*
X168619227Y-85623773D01*
X168629521Y-85614506D01*
X168636459Y-85593125D01*
X168643641Y-85554564D01*
X168644575Y-85549090D01*
X168654478Y-85452140D01*
X168651559Y-85362148D01*
X168636829Y-85281240D01*
X168611299Y-85211541D01*
X168575978Y-85155176D01*
X168531879Y-85114271D01*
X168480012Y-85090949D01*
X168421388Y-85087337D01*
X168392494Y-85092855D01*
X168336604Y-85119539D01*
X168290945Y-85165727D01*
X168256108Y-85230709D01*
X168232690Y-85313771D01*
X168228241Y-85338445D01*
X168217742Y-85427774D01*
X168218971Y-85507581D01*
X168231906Y-85585674D01*
X168238696Y-85620817D01*
X168239713Y-85666255D01*
X168227182Y-85697570D01*
X168200395Y-85717723D01*
X168172148Y-85724107D01*
X168140924Y-85714621D01*
X168127499Y-85705292D01*
X168103967Y-85671057D01*
X168086095Y-85618435D01*
X168074599Y-85549919D01*
X168070192Y-85468000D01*
X168074179Y-85370850D01*
X168090494Y-85264843D01*
X168118545Y-85171031D01*
X168157452Y-85092235D01*
X168206334Y-85031281D01*
X168239195Y-85005211D01*
X168288394Y-84975703D01*
X168342252Y-84950432D01*
X168393419Y-84932782D01*
X168434544Y-84926142D01*
X168454259Y-84927702D01*
G36*
X168494486Y-86111489D02*
G01*
X168573573Y-86111708D01*
X168634516Y-86112317D01*
X168680062Y-86113508D01*
X168712963Y-86115471D01*
X168735968Y-86118397D01*
X168751826Y-86122477D01*
X168763286Y-86127903D01*
X168773100Y-86134864D01*
X168797493Y-86165292D01*
X168800372Y-86200235D01*
X168781282Y-86237216D01*
X168777807Y-86241400D01*
X168769279Y-86249576D01*
X168757728Y-86255636D01*
X168739896Y-86260019D01*
X168712524Y-86263161D01*
X168672354Y-86265498D01*
X168616128Y-86267469D01*
X168540589Y-86269511D01*
X168321458Y-86275155D01*
X168562099Y-86540444D01*
X168628875Y-86614278D01*
X168686991Y-86679458D01*
X168731949Y-86731652D01*
X168764871Y-86772727D01*
X168786879Y-86804545D01*
X168799094Y-86828974D01*
X168802639Y-86847876D01*
X168798636Y-86863117D01*
X168788207Y-86876561D01*
X168772474Y-86890073D01*
X168763991Y-86896318D01*
X168753413Y-86901950D01*
X168739255Y-86906161D01*
X168718803Y-86909113D01*
X168689342Y-86910968D01*
X168648161Y-86911887D01*
X168592544Y-86912032D01*
X168519779Y-86911565D01*
X168427151Y-86910648D01*
X168112199Y-86907333D01*
X168090633Y-86880682D01*
X168074441Y-86854617D01*
X168071670Y-86821759D01*
X168090623Y-86787228D01*
X168094208Y-86782916D01*
X168102737Y-86774784D01*
X168114329Y-86768755D01*
X168132235Y-86764394D01*
X168159706Y-86761266D01*
X168199994Y-86758937D01*
X168256351Y-86756971D01*
X168332029Y-86754933D01*
X168551878Y-86749289D01*
X168388084Y-86568666D01*
X168309451Y-86481928D01*
X168241058Y-86406157D01*
X168185708Y-86344020D01*
X168142338Y-86293922D01*
X168109881Y-86254265D01*
X168087273Y-86223452D01*
X168073448Y-86199886D01*
X168067343Y-86181970D01*
X168067892Y-86168107D01*
X168074029Y-86156699D01*
X168084691Y-86146150D01*
X168098811Y-86134864D01*
X168104772Y-86130411D01*
X168115268Y-86124412D01*
X168129093Y-86119833D01*
X168148998Y-86116481D01*
X168177732Y-86114167D01*
X168218045Y-86112699D01*
X168272687Y-86111887D01*
X168344407Y-86111540D01*
X168435956Y-86111466D01*
X168494486Y-86111489D01*
G37*
X168494486Y-86111489D02*
X168573573Y-86111708D01*
X168634516Y-86112317D01*
X168680062Y-86113508D01*
X168712963Y-86115471D01*
X168735968Y-86118397D01*
X168751826Y-86122477D01*
X168763286Y-86127903D01*
X168773100Y-86134864D01*
X168797493Y-86165292D01*
X168800372Y-86200235D01*
X168781282Y-86237216D01*
X168777807Y-86241400D01*
X168769279Y-86249576D01*
X168757728Y-86255636D01*
X168739896Y-86260019D01*
X168712524Y-86263161D01*
X168672354Y-86265498D01*
X168616128Y-86267469D01*
X168540589Y-86269511D01*
X168321458Y-86275155D01*
X168562099Y-86540444D01*
X168628875Y-86614278D01*
X168686991Y-86679458D01*
X168731949Y-86731652D01*
X168764871Y-86772727D01*
X168786879Y-86804545D01*
X168799094Y-86828974D01*
X168802639Y-86847876D01*
X168798636Y-86863117D01*
X168788207Y-86876561D01*
X168772474Y-86890073D01*
X168763991Y-86896318D01*
X168753413Y-86901950D01*
X168739255Y-86906161D01*
X168718803Y-86909113D01*
X168689342Y-86910968D01*
X168648161Y-86911887D01*
X168592544Y-86912032D01*
X168519779Y-86911565D01*
X168427151Y-86910648D01*
X168112199Y-86907333D01*
X168090633Y-86880682D01*
X168074441Y-86854617D01*
X168071670Y-86821759D01*
X168090623Y-86787228D01*
X168094208Y-86782916D01*
X168102737Y-86774784D01*
X168114329Y-86768755D01*
X168132235Y-86764394D01*
X168159706Y-86761266D01*
X168199994Y-86758937D01*
X168256351Y-86756971D01*
X168332029Y-86754933D01*
X168551878Y-86749289D01*
X168388084Y-86568666D01*
X168309451Y-86481928D01*
X168241058Y-86406157D01*
X168185708Y-86344020D01*
X168142338Y-86293922D01*
X168109881Y-86254265D01*
X168087273Y-86223452D01*
X168073448Y-86199886D01*
X168067343Y-86181970D01*
X168067892Y-86168107D01*
X168074029Y-86156699D01*
X168084691Y-86146150D01*
X168098811Y-86134864D01*
X168104772Y-86130411D01*
X168115268Y-86124412D01*
X168129093Y-86119833D01*
X168148998Y-86116481D01*
X168177732Y-86114167D01*
X168218045Y-86112699D01*
X168272687Y-86111887D01*
X168344407Y-86111540D01*
X168435956Y-86111466D01*
X168494486Y-86111489D01*
G36*
X168506911Y-87296829D02*
G01*
X168585228Y-87297061D01*
X168645496Y-87297681D01*
X168690393Y-87298874D01*
X168722602Y-87300821D01*
X168744800Y-87303706D01*
X168759669Y-87307712D01*
X168769889Y-87313021D01*
X168778138Y-87319817D01*
X168782795Y-87324332D01*
X168789282Y-87332562D01*
X168794194Y-87343922D01*
X168797749Y-87361190D01*
X168800167Y-87387145D01*
X168801667Y-87424564D01*
X168802467Y-87476227D01*
X168802787Y-87544911D01*
X168802845Y-87633394D01*
X168802838Y-87653069D01*
X168802572Y-87740094D01*
X168801806Y-87807746D01*
X168800392Y-87858701D01*
X168798180Y-87895633D01*
X168795022Y-87921217D01*
X168790769Y-87938129D01*
X168785271Y-87949043D01*
X168775285Y-87959536D01*
X168744168Y-87972797D01*
X168708280Y-87971614D01*
X168676733Y-87955450D01*
X168674457Y-87953261D01*
X168668189Y-87944573D01*
X168663523Y-87931231D01*
X168660227Y-87910248D01*
X168658068Y-87878637D01*
X168656814Y-87833410D01*
X168656231Y-87771580D01*
X168656089Y-87690161D01*
X168656089Y-87443555D01*
X168498045Y-87443555D01*
X168498045Y-87605994D01*
X168497964Y-87641662D01*
X168497167Y-87697432D01*
X168495162Y-87736570D01*
X168491521Y-87763024D01*
X168485812Y-87780741D01*
X168477607Y-87793671D01*
X168474423Y-87797314D01*
X168443448Y-87815722D01*
X168407112Y-87816356D01*
X168373493Y-87798817D01*
X168373424Y-87798755D01*
X168364798Y-87789084D01*
X168358742Y-87775791D01*
X168354811Y-87755083D01*
X168352556Y-87723172D01*
X168351531Y-87676266D01*
X168351289Y-87610576D01*
X168351289Y-87442429D01*
X168286378Y-87445814D01*
X168221467Y-87449200D01*
X168218414Y-87691277D01*
X168218086Y-87716293D01*
X168216606Y-87797913D01*
X168214222Y-87860232D01*
X168210227Y-87905846D01*
X168203913Y-87937348D01*
X168194574Y-87957333D01*
X168181503Y-87968396D01*
X168163992Y-87973131D01*
X168141335Y-87974133D01*
X168138970Y-87974127D01*
X168118939Y-87972973D01*
X168103146Y-87968176D01*
X168091090Y-87957368D01*
X168082267Y-87938183D01*
X168076175Y-87908255D01*
X168072311Y-87865217D01*
X168070174Y-87806701D01*
X168069260Y-87730343D01*
X168069067Y-87633774D01*
X168069067Y-87343594D01*
X168098811Y-87320197D01*
X168105495Y-87315248D01*
X168116066Y-87309404D01*
X168130153Y-87304943D01*
X168150478Y-87301679D01*
X168179765Y-87299426D01*
X168220737Y-87297998D01*
X168276117Y-87297208D01*
X168348628Y-87296871D01*
X168440994Y-87296800D01*
X168506911Y-87296829D01*
G37*
X168506911Y-87296829D02*
X168585228Y-87297061D01*
X168645496Y-87297681D01*
X168690393Y-87298874D01*
X168722602Y-87300821D01*
X168744800Y-87303706D01*
X168759669Y-87307712D01*
X168769889Y-87313021D01*
X168778138Y-87319817D01*
X168782795Y-87324332D01*
X168789282Y-87332562D01*
X168794194Y-87343922D01*
X168797749Y-87361190D01*
X168800167Y-87387145D01*
X168801667Y-87424564D01*
X168802467Y-87476227D01*
X168802787Y-87544911D01*
X168802845Y-87633394D01*
X168802838Y-87653069D01*
X168802572Y-87740094D01*
X168801806Y-87807746D01*
X168800392Y-87858701D01*
X168798180Y-87895633D01*
X168795022Y-87921217D01*
X168790769Y-87938129D01*
X168785271Y-87949043D01*
X168775285Y-87959536D01*
X168744168Y-87972797D01*
X168708280Y-87971614D01*
X168676733Y-87955450D01*
X168674457Y-87953261D01*
X168668189Y-87944573D01*
X168663523Y-87931231D01*
X168660227Y-87910248D01*
X168658068Y-87878637D01*
X168656814Y-87833410D01*
X168656231Y-87771580D01*
X168656089Y-87690161D01*
X168656089Y-87443555D01*
X168498045Y-87443555D01*
X168498045Y-87605994D01*
X168497964Y-87641662D01*
X168497167Y-87697432D01*
X168495162Y-87736570D01*
X168491521Y-87763024D01*
X168485812Y-87780741D01*
X168477607Y-87793671D01*
X168474423Y-87797314D01*
X168443448Y-87815722D01*
X168407112Y-87816356D01*
X168373493Y-87798817D01*
X168373424Y-87798755D01*
X168364798Y-87789084D01*
X168358742Y-87775791D01*
X168354811Y-87755083D01*
X168352556Y-87723172D01*
X168351531Y-87676266D01*
X168351289Y-87610576D01*
X168351289Y-87442429D01*
X168286378Y-87445814D01*
X168221467Y-87449200D01*
X168218414Y-87691277D01*
X168218086Y-87716293D01*
X168216606Y-87797913D01*
X168214222Y-87860232D01*
X168210227Y-87905846D01*
X168203913Y-87937348D01*
X168194574Y-87957333D01*
X168181503Y-87968396D01*
X168163992Y-87973131D01*
X168141335Y-87974133D01*
X168138970Y-87974127D01*
X168118939Y-87972973D01*
X168103146Y-87968176D01*
X168091090Y-87957368D01*
X168082267Y-87938183D01*
X168076175Y-87908255D01*
X168072311Y-87865217D01*
X168070174Y-87806701D01*
X168069260Y-87730343D01*
X168069067Y-87633774D01*
X168069067Y-87343594D01*
X168098811Y-87320197D01*
X168105495Y-87315248D01*
X168116066Y-87309404D01*
X168130153Y-87304943D01*
X168150478Y-87301679D01*
X168179765Y-87299426D01*
X168220737Y-87297998D01*
X168276117Y-87297208D01*
X168348628Y-87296871D01*
X168440994Y-87296800D01*
X168506911Y-87296829D01*
G36*
X168495526Y-88312825D02*
G01*
X168574311Y-88313050D01*
X168635021Y-88313668D01*
X168656089Y-88314225D01*
X168680396Y-88314867D01*
X168713175Y-88316837D01*
X168736095Y-88319765D01*
X168751897Y-88323842D01*
X168763319Y-88329257D01*
X168773100Y-88336197D01*
X168802845Y-88359594D01*
X168802251Y-88525286D01*
X168801953Y-88560082D01*
X168798522Y-88658565D01*
X168790839Y-88739527D01*
X168778282Y-88806621D01*
X168760227Y-88863504D01*
X168736052Y-88913831D01*
X168734135Y-88917190D01*
X168697417Y-88975002D01*
X168660451Y-89017356D01*
X168616966Y-89050172D01*
X168560689Y-89079372D01*
X168551073Y-89083654D01*
X168487887Y-89106231D01*
X168432509Y-89113203D01*
X168377483Y-89104601D01*
X168315351Y-89080459D01*
X168313658Y-89079663D01*
X168244236Y-89039212D01*
X168187638Y-88988527D01*
X168143070Y-88925802D01*
X168109741Y-88849226D01*
X168086861Y-88756991D01*
X168073636Y-88647288D01*
X168069275Y-88518309D01*
X168069270Y-88514737D01*
X168069372Y-88470844D01*
X168215822Y-88470844D01*
X168216270Y-88558333D01*
X168218746Y-88625253D01*
X168229998Y-88717651D01*
X168249537Y-88796966D01*
X168276511Y-88858940D01*
X168297240Y-88889880D01*
X168327006Y-88918000D01*
X168369434Y-88941340D01*
X168385400Y-88948467D01*
X168417902Y-88960291D01*
X168442333Y-88962721D01*
X168467061Y-88957108D01*
X168482939Y-88951382D01*
X168542847Y-88918452D01*
X168588600Y-88871114D01*
X168621736Y-88807348D01*
X168643790Y-88725139D01*
X168644292Y-88722345D01*
X168650255Y-88676060D01*
X168654483Y-88619664D01*
X168656089Y-88564726D01*
X168656089Y-88470844D01*
X168215822Y-88470844D01*
X168069372Y-88470844D01*
X168069410Y-88454717D01*
X168070446Y-88412786D01*
X168073040Y-88384672D01*
X168077853Y-88366103D01*
X168085544Y-88352806D01*
X168096776Y-88340509D01*
X168124485Y-88312800D01*
X168433920Y-88312800D01*
X168495526Y-88312825D01*
G37*
X168495526Y-88312825D02*
X168574311Y-88313050D01*
X168635021Y-88313668D01*
X168656089Y-88314225D01*
X168680396Y-88314867D01*
X168713175Y-88316837D01*
X168736095Y-88319765D01*
X168751897Y-88323842D01*
X168763319Y-88329257D01*
X168773100Y-88336197D01*
X168802845Y-88359594D01*
X168802251Y-88525286D01*
X168801953Y-88560082D01*
X168798522Y-88658565D01*
X168790839Y-88739527D01*
X168778282Y-88806621D01*
X168760227Y-88863504D01*
X168736052Y-88913831D01*
X168734135Y-88917190D01*
X168697417Y-88975002D01*
X168660451Y-89017356D01*
X168616966Y-89050172D01*
X168560689Y-89079372D01*
X168551073Y-89083654D01*
X168487887Y-89106231D01*
X168432509Y-89113203D01*
X168377483Y-89104601D01*
X168315351Y-89080459D01*
X168313658Y-89079663D01*
X168244236Y-89039212D01*
X168187638Y-88988527D01*
X168143070Y-88925802D01*
X168109741Y-88849226D01*
X168086861Y-88756991D01*
X168073636Y-88647288D01*
X168069275Y-88518309D01*
X168069270Y-88514737D01*
X168069372Y-88470844D01*
X168215822Y-88470844D01*
X168216270Y-88558333D01*
X168218746Y-88625253D01*
X168229998Y-88717651D01*
X168249537Y-88796966D01*
X168276511Y-88858940D01*
X168297240Y-88889880D01*
X168327006Y-88918000D01*
X168369434Y-88941340D01*
X168385400Y-88948467D01*
X168417902Y-88960291D01*
X168442333Y-88962721D01*
X168467061Y-88957108D01*
X168482939Y-88951382D01*
X168542847Y-88918452D01*
X168588600Y-88871114D01*
X168621736Y-88807348D01*
X168643790Y-88725139D01*
X168644292Y-88722345D01*
X168650255Y-88676060D01*
X168654483Y-88619664D01*
X168656089Y-88564726D01*
X168656089Y-88470844D01*
X168215822Y-88470844D01*
X168069372Y-88470844D01*
X168069410Y-88454717D01*
X168070446Y-88412786D01*
X168073040Y-88384672D01*
X168077853Y-88366103D01*
X168085544Y-88352806D01*
X168096776Y-88340509D01*
X168124485Y-88312800D01*
X168433920Y-88312800D01*
X168495526Y-88312825D01*
G36*
X168151915Y-90204772D02*
G01*
X168186481Y-90217636D01*
X168234826Y-90237395D01*
X168293825Y-90262619D01*
X168360355Y-90291881D01*
X168431291Y-90323750D01*
X168503507Y-90356799D01*
X168573880Y-90389599D01*
X168639285Y-90420720D01*
X168696597Y-90448735D01*
X168742692Y-90472214D01*
X168774446Y-90489728D01*
X168788733Y-90499849D01*
X168802102Y-90534257D01*
X168795741Y-90575954D01*
X168791044Y-90581319D01*
X168768893Y-90597148D01*
X168732132Y-90619350D01*
X168684415Y-90645767D01*
X168629393Y-90674240D01*
X168470150Y-90754014D01*
X168616742Y-90827201D01*
X168636032Y-90836897D01*
X168688380Y-90863875D01*
X168733170Y-90887904D01*
X168766154Y-90906668D01*
X168783089Y-90917854D01*
X168784332Y-90919000D01*
X168799619Y-90947121D01*
X168801302Y-90982183D01*
X168788733Y-91013224D01*
X168785884Y-91015650D01*
X168765259Y-91027910D01*
X168727708Y-91047648D01*
X168675880Y-91073552D01*
X168612423Y-91104315D01*
X168539985Y-91138625D01*
X168461216Y-91175175D01*
X168417093Y-91195415D01*
X168336365Y-91232188D01*
X168272687Y-91260645D01*
X168223752Y-91281669D01*
X168187257Y-91296146D01*
X168160895Y-91304961D01*
X168142361Y-91308996D01*
X168129352Y-91309138D01*
X168119561Y-91306270D01*
X168098678Y-91291613D01*
X168078377Y-91265010D01*
X168078035Y-91264255D01*
X168071034Y-91244665D01*
X168070504Y-91227210D01*
X168078478Y-91210298D01*
X168096989Y-91192337D01*
X168128071Y-91171737D01*
X168173756Y-91146905D01*
X168236078Y-91116250D01*
X168317071Y-91078180D01*
X168348454Y-91063546D01*
X168411638Y-91033797D01*
X168466244Y-91007703D01*
X168509290Y-90986708D01*
X168537793Y-90972261D01*
X168548770Y-90965809D01*
X168548189Y-90964450D01*
X168534242Y-90954458D01*
X168504704Y-90937167D01*
X168463087Y-90914570D01*
X168412903Y-90888662D01*
X168381414Y-90872689D01*
X168326061Y-90843739D01*
X168287044Y-90821251D01*
X168261566Y-90803035D01*
X168246831Y-90786904D01*
X168240042Y-90770670D01*
X168238400Y-90752143D01*
X168238875Y-90741640D01*
X168243082Y-90725524D01*
X168253946Y-90710210D01*
X168274219Y-90693612D01*
X168306654Y-90673643D01*
X168354004Y-90648217D01*
X168419022Y-90615248D01*
X168438277Y-90605515D01*
X168484946Y-90581057D01*
X168521109Y-90560822D01*
X168543497Y-90546689D01*
X168548845Y-90540540D01*
X168545573Y-90539173D01*
X168524664Y-90529798D01*
X168487725Y-90512938D01*
X168437874Y-90490021D01*
X168378226Y-90462480D01*
X168311898Y-90431745D01*
X168254677Y-90405030D01*
X168192688Y-90375407D01*
X168146949Y-90352336D01*
X168114908Y-90334357D01*
X168094014Y-90320010D01*
X168081718Y-90307834D01*
X168075466Y-90296368D01*
X168072574Y-90286958D01*
X168072425Y-90261853D01*
X168087768Y-90234710D01*
X168088753Y-90233410D01*
X168111388Y-90211326D01*
X168133613Y-90200277D01*
X168134253Y-90200231D01*
X168151915Y-90204772D01*
G37*
X168151915Y-90204772D02*
X168186481Y-90217636D01*
X168234826Y-90237395D01*
X168293825Y-90262619D01*
X168360355Y-90291881D01*
X168431291Y-90323750D01*
X168503507Y-90356799D01*
X168573880Y-90389599D01*
X168639285Y-90420720D01*
X168696597Y-90448735D01*
X168742692Y-90472214D01*
X168774446Y-90489728D01*
X168788733Y-90499849D01*
X168802102Y-90534257D01*
X168795741Y-90575954D01*
X168791044Y-90581319D01*
X168768893Y-90597148D01*
X168732132Y-90619350D01*
X168684415Y-90645767D01*
X168629393Y-90674240D01*
X168470150Y-90754014D01*
X168616742Y-90827201D01*
X168636032Y-90836897D01*
X168688380Y-90863875D01*
X168733170Y-90887904D01*
X168766154Y-90906668D01*
X168783089Y-90917854D01*
X168784332Y-90919000D01*
X168799619Y-90947121D01*
X168801302Y-90982183D01*
X168788733Y-91013224D01*
X168785884Y-91015650D01*
X168765259Y-91027910D01*
X168727708Y-91047648D01*
X168675880Y-91073552D01*
X168612423Y-91104315D01*
X168539985Y-91138625D01*
X168461216Y-91175175D01*
X168417093Y-91195415D01*
X168336365Y-91232188D01*
X168272687Y-91260645D01*
X168223752Y-91281669D01*
X168187257Y-91296146D01*
X168160895Y-91304961D01*
X168142361Y-91308996D01*
X168129352Y-91309138D01*
X168119561Y-91306270D01*
X168098678Y-91291613D01*
X168078377Y-91265010D01*
X168078035Y-91264255D01*
X168071034Y-91244665D01*
X168070504Y-91227210D01*
X168078478Y-91210298D01*
X168096989Y-91192337D01*
X168128071Y-91171737D01*
X168173756Y-91146905D01*
X168236078Y-91116250D01*
X168317071Y-91078180D01*
X168348454Y-91063546D01*
X168411638Y-91033797D01*
X168466244Y-91007703D01*
X168509290Y-90986708D01*
X168537793Y-90972261D01*
X168548770Y-90965809D01*
X168548189Y-90964450D01*
X168534242Y-90954458D01*
X168504704Y-90937167D01*
X168463087Y-90914570D01*
X168412903Y-90888662D01*
X168381414Y-90872689D01*
X168326061Y-90843739D01*
X168287044Y-90821251D01*
X168261566Y-90803035D01*
X168246831Y-90786904D01*
X168240042Y-90770670D01*
X168238400Y-90752143D01*
X168238875Y-90741640D01*
X168243082Y-90725524D01*
X168253946Y-90710210D01*
X168274219Y-90693612D01*
X168306654Y-90673643D01*
X168354004Y-90648217D01*
X168419022Y-90615248D01*
X168438277Y-90605515D01*
X168484946Y-90581057D01*
X168521109Y-90560822D01*
X168543497Y-90546689D01*
X168548845Y-90540540D01*
X168545573Y-90539173D01*
X168524664Y-90529798D01*
X168487725Y-90512938D01*
X168437874Y-90490021D01*
X168378226Y-90462480D01*
X168311898Y-90431745D01*
X168254677Y-90405030D01*
X168192688Y-90375407D01*
X168146949Y-90352336D01*
X168114908Y-90334357D01*
X168094014Y-90320010D01*
X168081718Y-90307834D01*
X168075466Y-90296368D01*
X168072574Y-90286958D01*
X168072425Y-90261853D01*
X168087768Y-90234710D01*
X168088753Y-90233410D01*
X168111388Y-90211326D01*
X168133613Y-90200277D01*
X168134253Y-90200231D01*
X168151915Y-90204772D01*
G36*
X168781264Y-91618873D02*
G01*
X168798739Y-91650233D01*
X168799575Y-91686034D01*
X168779082Y-91717472D01*
X168774416Y-91721348D01*
X168764949Y-91726814D01*
X168751267Y-91731021D01*
X168730748Y-91734133D01*
X168700768Y-91736313D01*
X168658704Y-91737724D01*
X168601932Y-91738529D01*
X168527830Y-91738893D01*
X168433773Y-91738978D01*
X168112227Y-91738978D01*
X168090647Y-91712327D01*
X168075877Y-91688614D01*
X168069067Y-91665600D01*
X168074949Y-91644594D01*
X168090647Y-91618873D01*
X168112227Y-91592222D01*
X168759684Y-91592222D01*
X168781264Y-91618873D01*
G37*
X168781264Y-91618873D02*
X168798739Y-91650233D01*
X168799575Y-91686034D01*
X168779082Y-91717472D01*
X168774416Y-91721348D01*
X168764949Y-91726814D01*
X168751267Y-91731021D01*
X168730748Y-91734133D01*
X168700768Y-91736313D01*
X168658704Y-91737724D01*
X168601932Y-91738529D01*
X168527830Y-91738893D01*
X168433773Y-91738978D01*
X168112227Y-91738978D01*
X168090647Y-91712327D01*
X168075877Y-91688614D01*
X168069067Y-91665600D01*
X168074949Y-91644594D01*
X168090647Y-91618873D01*
X168112227Y-91592222D01*
X168759684Y-91592222D01*
X168781264Y-91618873D01*
G36*
X168195178Y-91989083D02*
G01*
X168196631Y-91990443D01*
X168204992Y-92001646D01*
X168210547Y-92018748D01*
X168213840Y-92045918D01*
X168215418Y-92087322D01*
X168215822Y-92147127D01*
X168215822Y-92286489D01*
X168479589Y-92286489D01*
X168555417Y-92286564D01*
X168622083Y-92286972D01*
X168671867Y-92287954D01*
X168707784Y-92289750D01*
X168732850Y-92292601D01*
X168750081Y-92296747D01*
X168762492Y-92302429D01*
X168773100Y-92309886D01*
X168775906Y-92312176D01*
X168798548Y-92343354D01*
X168800112Y-92377734D01*
X168780267Y-92410666D01*
X168772191Y-92417645D01*
X168761593Y-92423117D01*
X168745749Y-92427137D01*
X168721773Y-92429928D01*
X168686774Y-92431712D01*
X168637864Y-92432711D01*
X168572154Y-92433148D01*
X168486756Y-92433244D01*
X168215822Y-92433244D01*
X168215822Y-92579180D01*
X168215821Y-92590280D01*
X168215596Y-92646798D01*
X168214457Y-92685642D01*
X168211657Y-92711035D01*
X168206450Y-92727196D01*
X168198089Y-92738348D01*
X168185826Y-92748711D01*
X168155138Y-92764559D01*
X168121358Y-92761457D01*
X168088822Y-92735813D01*
X168085105Y-92730871D01*
X168080269Y-92720662D01*
X168076506Y-92705236D01*
X168073683Y-92682114D01*
X168071670Y-92648817D01*
X168070333Y-92602863D01*
X168069542Y-92541772D01*
X168069163Y-92463065D01*
X168069067Y-92364260D01*
X168069068Y-92344233D01*
X168069158Y-92250110D01*
X168069498Y-92175595D01*
X168070239Y-92118189D01*
X168071535Y-92075389D01*
X168073537Y-92044696D01*
X168076396Y-92023609D01*
X168080266Y-92009627D01*
X168085298Y-92000250D01*
X168091645Y-91992978D01*
X168124362Y-91974172D01*
X168161939Y-91972725D01*
X168195178Y-91989083D01*
G37*
X168195178Y-91989083D02*
X168196631Y-91990443D01*
X168204992Y-92001646D01*
X168210547Y-92018748D01*
X168213840Y-92045918D01*
X168215418Y-92087322D01*
X168215822Y-92147127D01*
X168215822Y-92286489D01*
X168479589Y-92286489D01*
X168555417Y-92286564D01*
X168622083Y-92286972D01*
X168671867Y-92287954D01*
X168707784Y-92289750D01*
X168732850Y-92292601D01*
X168750081Y-92296747D01*
X168762492Y-92302429D01*
X168773100Y-92309886D01*
X168775906Y-92312176D01*
X168798548Y-92343354D01*
X168800112Y-92377734D01*
X168780267Y-92410666D01*
X168772191Y-92417645D01*
X168761593Y-92423117D01*
X168745749Y-92427137D01*
X168721773Y-92429928D01*
X168686774Y-92431712D01*
X168637864Y-92432711D01*
X168572154Y-92433148D01*
X168486756Y-92433244D01*
X168215822Y-92433244D01*
X168215822Y-92579180D01*
X168215821Y-92590280D01*
X168215596Y-92646798D01*
X168214457Y-92685642D01*
X168211657Y-92711035D01*
X168206450Y-92727196D01*
X168198089Y-92738348D01*
X168185826Y-92748711D01*
X168155138Y-92764559D01*
X168121358Y-92761457D01*
X168088822Y-92735813D01*
X168085105Y-92730871D01*
X168080269Y-92720662D01*
X168076506Y-92705236D01*
X168073683Y-92682114D01*
X168071670Y-92648817D01*
X168070333Y-92602863D01*
X168069542Y-92541772D01*
X168069163Y-92463065D01*
X168069067Y-92364260D01*
X168069068Y-92344233D01*
X168069158Y-92250110D01*
X168069498Y-92175595D01*
X168070239Y-92118189D01*
X168071535Y-92075389D01*
X168073537Y-92044696D01*
X168076396Y-92023609D01*
X168080266Y-92009627D01*
X168085298Y-92000250D01*
X168091645Y-91992978D01*
X168124362Y-91974172D01*
X168161939Y-91972725D01*
X168195178Y-91989083D01*
G36*
X168477631Y-92996891D02*
G01*
X168594000Y-92997375D01*
X168608175Y-92997443D01*
X168669937Y-92998029D01*
X168713620Y-92999352D01*
X168743001Y-93001897D01*
X168761855Y-93006152D01*
X168773959Y-93012604D01*
X168783089Y-93021738D01*
X168800506Y-93055196D01*
X168797604Y-93090144D01*
X168773100Y-93121047D01*
X168759897Y-93130056D01*
X168741361Y-93137508D01*
X168715333Y-93141876D01*
X168676787Y-93143931D01*
X168620700Y-93144444D01*
X168498045Y-93144444D01*
X168498045Y-93641155D01*
X168632871Y-93641155D01*
X168668662Y-93641228D01*
X168714992Y-93641991D01*
X168745526Y-93644167D01*
X168764557Y-93648464D01*
X168776374Y-93655588D01*
X168785271Y-93666245D01*
X168800341Y-93698496D01*
X168797673Y-93733783D01*
X168773100Y-93764514D01*
X168766845Y-93769169D01*
X168756321Y-93775105D01*
X168742391Y-93779636D01*
X168722317Y-93782952D01*
X168693360Y-93785241D01*
X168652780Y-93786692D01*
X168597840Y-93787495D01*
X168525799Y-93787838D01*
X168433920Y-93787911D01*
X168124485Y-93787911D01*
X168096776Y-93760202D01*
X168074533Y-93728823D01*
X168071844Y-93695594D01*
X168091645Y-93663733D01*
X168101415Y-93655447D01*
X168117307Y-93648035D01*
X168141275Y-93643698D01*
X168178148Y-93641662D01*
X168232756Y-93641155D01*
X168351289Y-93641155D01*
X168351289Y-93144444D01*
X168235776Y-93144444D01*
X168184078Y-93144006D01*
X168149554Y-93142042D01*
X168126978Y-93137526D01*
X168111126Y-93129433D01*
X168096776Y-93116735D01*
X168074533Y-93085357D01*
X168071844Y-93052128D01*
X168091645Y-93020266D01*
X168097835Y-93014634D01*
X168106041Y-93009544D01*
X168117817Y-93005457D01*
X168135276Y-93002279D01*
X168160530Y-92999913D01*
X168195690Y-92998262D01*
X168242869Y-92997231D01*
X168304177Y-92996723D01*
X168381727Y-92996641D01*
X168477631Y-92996891D01*
G37*
X168477631Y-92996891D02*
X168594000Y-92997375D01*
X168608175Y-92997443D01*
X168669937Y-92998029D01*
X168713620Y-92999352D01*
X168743001Y-93001897D01*
X168761855Y-93006152D01*
X168773959Y-93012604D01*
X168783089Y-93021738D01*
X168800506Y-93055196D01*
X168797604Y-93090144D01*
X168773100Y-93121047D01*
X168759897Y-93130056D01*
X168741361Y-93137508D01*
X168715333Y-93141876D01*
X168676787Y-93143931D01*
X168620700Y-93144444D01*
X168498045Y-93144444D01*
X168498045Y-93641155D01*
X168632871Y-93641155D01*
X168668662Y-93641228D01*
X168714992Y-93641991D01*
X168745526Y-93644167D01*
X168764557Y-93648464D01*
X168776374Y-93655588D01*
X168785271Y-93666245D01*
X168800341Y-93698496D01*
X168797673Y-93733783D01*
X168773100Y-93764514D01*
X168766845Y-93769169D01*
X168756321Y-93775105D01*
X168742391Y-93779636D01*
X168722317Y-93782952D01*
X168693360Y-93785241D01*
X168652780Y-93786692D01*
X168597840Y-93787495D01*
X168525799Y-93787838D01*
X168433920Y-93787911D01*
X168124485Y-93787911D01*
X168096776Y-93760202D01*
X168074533Y-93728823D01*
X168071844Y-93695594D01*
X168091645Y-93663733D01*
X168101415Y-93655447D01*
X168117307Y-93648035D01*
X168141275Y-93643698D01*
X168178148Y-93641662D01*
X168232756Y-93641155D01*
X168351289Y-93641155D01*
X168351289Y-93144444D01*
X168235776Y-93144444D01*
X168184078Y-93144006D01*
X168149554Y-93142042D01*
X168126978Y-93137526D01*
X168111126Y-93129433D01*
X168096776Y-93116735D01*
X168074533Y-93085357D01*
X168071844Y-93052128D01*
X168091645Y-93020266D01*
X168097835Y-93014634D01*
X168106041Y-93009544D01*
X168117817Y-93005457D01*
X168135276Y-93002279D01*
X168160530Y-92999913D01*
X168195690Y-92998262D01*
X168242869Y-92997231D01*
X168304177Y-92996723D01*
X168381727Y-92996641D01*
X168477631Y-92996891D01*
G36*
X150036333Y-100741000D02*
G01*
X150041082Y-100735974D01*
X150042378Y-100735504D01*
X150036333Y-100741000D01*
G37*
X150036333Y-100741000D02*
X150041082Y-100735974D01*
X150042378Y-100735504D01*
X150036333Y-100741000D01*
G36*
X150209005Y-100604632D02*
G01*
X150203449Y-100610474D01*
X150131524Y-100679279D01*
X150071950Y-100724784D01*
X150042378Y-100735504D01*
X150191556Y-100599889D01*
X150346778Y-100458778D01*
X150209005Y-100604632D01*
G37*
X150209005Y-100604632D02*
X150203449Y-100610474D01*
X150131524Y-100679279D01*
X150071950Y-100724784D01*
X150042378Y-100735504D01*
X150191556Y-100599889D01*
X150346778Y-100458778D01*
X150209005Y-100604632D01*
G36*
X149780747Y-97277102D02*
G01*
X149820123Y-97272274D01*
X149905049Y-97243947D01*
X150031125Y-97193858D01*
X150193946Y-97123748D01*
X150389111Y-97035355D01*
X150401729Y-97029580D01*
X150595944Y-96957120D01*
X150770111Y-96926301D01*
X150863114Y-96915705D01*
X151001484Y-96890586D01*
X151130725Y-96858466D01*
X151322005Y-96801902D01*
X151490558Y-96931600D01*
X151574308Y-96998918D01*
X151627839Y-97052872D01*
X151652898Y-97100064D01*
X151659111Y-97153147D01*
X151658735Y-97165543D01*
X151627100Y-97264275D01*
X151552415Y-97345524D01*
X151445790Y-97403041D01*
X151318334Y-97430580D01*
X151181156Y-97421896D01*
X151149111Y-97418241D01*
X151035634Y-97430494D01*
X150884768Y-97472871D01*
X150702689Y-97543409D01*
X150495569Y-97640142D01*
X150326731Y-97749257D01*
X150163499Y-97910450D01*
X150036346Y-98102197D01*
X150030497Y-98114555D01*
X150001766Y-98193519D01*
X149968860Y-98304345D01*
X149936773Y-98428079D01*
X149910501Y-98545764D01*
X149895038Y-98638445D01*
X149890106Y-98665141D01*
X149869550Y-98745243D01*
X149837648Y-98854232D01*
X149798847Y-98976486D01*
X149775025Y-99051540D01*
X149744688Y-99158009D01*
X149726364Y-99237573D01*
X149723365Y-99277045D01*
X149740543Y-99289295D01*
X149804438Y-99300060D01*
X149902717Y-99302000D01*
X150022616Y-99295531D01*
X150151373Y-99281069D01*
X150276222Y-99259029D01*
X150339389Y-99245410D01*
X150475379Y-99216871D01*
X150568042Y-99199241D01*
X150625894Y-99191221D01*
X150657450Y-99191513D01*
X150671225Y-99198820D01*
X150685967Y-99208196D01*
X150743594Y-99230080D01*
X150826556Y-99254140D01*
X150907726Y-99282714D01*
X151022499Y-99338139D01*
X151129945Y-99403642D01*
X151137957Y-99409216D01*
X151215983Y-99461220D01*
X151271243Y-99494002D01*
X151292222Y-99500676D01*
X151292351Y-99500104D01*
X151313710Y-99512394D01*
X151364548Y-99554795D01*
X151434627Y-99618818D01*
X151437532Y-99621556D01*
X151510770Y-99687745D01*
X151567947Y-99734379D01*
X151596905Y-99751515D01*
X151616640Y-99761866D01*
X151667023Y-99802772D01*
X151732950Y-99864404D01*
X151779090Y-99909324D01*
X151862611Y-99988371D01*
X151930505Y-100050042D01*
X151946574Y-100064469D01*
X152022954Y-100139450D01*
X152096556Y-100219375D01*
X152125432Y-100253769D01*
X152152318Y-100293878D01*
X152168521Y-100339460D01*
X152176524Y-100403258D01*
X152178812Y-100498012D01*
X152177868Y-100636463D01*
X152177340Y-100681593D01*
X152174420Y-100808195D01*
X152168195Y-100893863D01*
X152156503Y-100950668D01*
X152137180Y-100990688D01*
X152108061Y-101025996D01*
X152071525Y-101058018D01*
X152001868Y-101081752D01*
X151917242Y-101062768D01*
X151807720Y-101000214D01*
X151806004Y-100999053D01*
X151742806Y-100950481D01*
X151705176Y-100899622D01*
X151684388Y-100828424D01*
X151671718Y-100718837D01*
X151669698Y-100697359D01*
X151657620Y-100629970D01*
X151631337Y-100574052D01*
X151581151Y-100513711D01*
X151497366Y-100433051D01*
X151478472Y-100415666D01*
X151401624Y-100347249D01*
X151342770Y-100298428D01*
X151313389Y-100278826D01*
X151290005Y-100268162D01*
X151245955Y-100231229D01*
X151209176Y-100187355D01*
X151198712Y-100156805D01*
X151195814Y-100137738D01*
X151155937Y-100109386D01*
X151089424Y-100086920D01*
X151013693Y-100077778D01*
X150947847Y-100082021D01*
X150877107Y-100100594D01*
X150799397Y-100139487D01*
X150703162Y-100204630D01*
X150576847Y-100301954D01*
X150515535Y-100349423D01*
X150429880Y-100411059D01*
X150366691Y-100450615D01*
X150336474Y-100461131D01*
X150335077Y-100460596D01*
X150303038Y-100476408D01*
X150245935Y-100524032D01*
X150175135Y-100594101D01*
X150041082Y-100735974D01*
X150037138Y-100737404D01*
X150013627Y-100736735D01*
X149969430Y-100764822D01*
X149938699Y-100788512D01*
X149866396Y-100827176D01*
X149774408Y-100866314D01*
X149699778Y-100894352D01*
X149622569Y-100926600D01*
X149568251Y-100960843D01*
X149532701Y-101006152D01*
X149511797Y-101071597D01*
X149501418Y-101166246D01*
X149497440Y-101299171D01*
X149495741Y-101479440D01*
X149494382Y-101597106D01*
X149490222Y-101787148D01*
X149483057Y-101937079D01*
X149471719Y-102057650D01*
X149455037Y-102159617D01*
X149431841Y-102253732D01*
X149400962Y-102350748D01*
X149393625Y-102372291D01*
X149370111Y-102452202D01*
X149362115Y-102519474D01*
X149368936Y-102596596D01*
X149389870Y-102706056D01*
X149415863Y-102817062D01*
X149447165Y-102928555D01*
X149475467Y-103009441D01*
X149481278Y-103023388D01*
X149510682Y-103105149D01*
X149526551Y-103168111D01*
X149526567Y-103168229D01*
X149538018Y-103235717D01*
X149555086Y-103318644D01*
X149571577Y-103375662D01*
X149598651Y-103400464D01*
X149650440Y-103394097D01*
X149712289Y-103383593D01*
X149811283Y-103372810D01*
X149923212Y-103364654D01*
X150023031Y-103356175D01*
X150174713Y-103335819D01*
X150309428Y-103310316D01*
X150407846Y-103290891D01*
X150491498Y-103280763D01*
X150538958Y-103282843D01*
X150556260Y-103284139D01*
X150622090Y-103273291D01*
X150719250Y-103247891D01*
X150833631Y-103211361D01*
X150869213Y-103199179D01*
X150976434Y-103165537D01*
X151072724Y-103142808D01*
X151174927Y-103128398D01*
X151299885Y-103119711D01*
X151464441Y-103114150D01*
X151842418Y-103104476D01*
X151930340Y-103197701D01*
X151943760Y-103211977D01*
X151979901Y-103254262D01*
X152001124Y-103295177D01*
X152010488Y-103349158D01*
X152011056Y-103430645D01*
X152005887Y-103554074D01*
X152003204Y-103606957D01*
X151994707Y-103718027D01*
X151982173Y-103790171D01*
X151962636Y-103836217D01*
X151933135Y-103868991D01*
X151932757Y-103869314D01*
X151863722Y-103905529D01*
X151772990Y-103904306D01*
X151764154Y-103902853D01*
X151688456Y-103890685D01*
X151638482Y-103883112D01*
X151625910Y-103876041D01*
X151591762Y-103829901D01*
X151557037Y-103756074D01*
X151552789Y-103745072D01*
X151519092Y-103673776D01*
X151482694Y-103641411D01*
X151428694Y-103633778D01*
X151400460Y-103636836D01*
X151309072Y-103664432D01*
X151190773Y-103715707D01*
X151058912Y-103784516D01*
X150926839Y-103864716D01*
X150899496Y-103881643D01*
X150858826Y-103900003D01*
X150853854Y-103889273D01*
X150847574Y-103884804D01*
X150802514Y-103900426D01*
X150723821Y-103936014D01*
X150620175Y-103987058D01*
X150500261Y-104049049D01*
X150372761Y-104117478D01*
X150246357Y-104187837D01*
X150129732Y-104255616D01*
X150031568Y-104316305D01*
X149941390Y-104381741D01*
X149843450Y-104469155D01*
X149775259Y-104549230D01*
X149756892Y-104577716D01*
X149725202Y-104637618D01*
X149707825Y-104700248D01*
X149701035Y-104783483D01*
X149701111Y-104905197D01*
X149698803Y-105049261D01*
X149684537Y-105161215D01*
X149656251Y-105245670D01*
X149635582Y-105290699D01*
X149623147Y-105339943D01*
X149638110Y-105384709D01*
X149683811Y-105449734D01*
X149707821Y-105479902D01*
X149752330Y-105524275D01*
X149778177Y-105533527D01*
X149787231Y-105530026D01*
X149796445Y-105557216D01*
X149796445Y-105557293D01*
X149816599Y-105609834D01*
X149867295Y-105680690D01*
X149934149Y-105754072D01*
X150002781Y-105814191D01*
X150058807Y-105845258D01*
X150073457Y-105851046D01*
X150136750Y-105896044D01*
X150225724Y-105978058D01*
X150334373Y-106090948D01*
X150456689Y-106228575D01*
X150586667Y-106384797D01*
X150653585Y-106466542D01*
X150749059Y-106580381D01*
X150833611Y-106678471D01*
X150890623Y-106746609D01*
X150936115Y-106808461D01*
X150953556Y-106842887D01*
X150968295Y-106871327D01*
X151013462Y-106928626D01*
X151078447Y-106999643D01*
X151137054Y-107063058D01*
X151179420Y-107115685D01*
X151191000Y-107140482D01*
X151190697Y-107140902D01*
X151204707Y-107167164D01*
X151249547Y-107220982D01*
X151316005Y-107291243D01*
X151386684Y-107365472D01*
X151440056Y-107427119D01*
X151464507Y-107462778D01*
X151481908Y-107490725D01*
X151529352Y-107549676D01*
X151594138Y-107621826D01*
X151647394Y-107682119D01*
X151687617Y-107736440D01*
X151697122Y-107763248D01*
X151695517Y-107773835D01*
X151710965Y-107822547D01*
X151745949Y-107893162D01*
X151767419Y-107929440D01*
X151803280Y-107980399D01*
X151823108Y-107994744D01*
X151833299Y-107997798D01*
X151869062Y-108033103D01*
X151918409Y-108095724D01*
X151944778Y-108134061D01*
X151980646Y-108204629D01*
X151998448Y-108284908D01*
X152004834Y-108398164D01*
X152005216Y-108493829D01*
X151992192Y-108679062D01*
X151958433Y-108815421D01*
X151902347Y-108906030D01*
X151822338Y-108954010D01*
X151716813Y-108962485D01*
X151630053Y-108945400D01*
X151568992Y-108902246D01*
X151535282Y-108823851D01*
X151521560Y-108700328D01*
X151515473Y-108628573D01*
X151495937Y-108517338D01*
X151469307Y-108432217D01*
X151441010Y-108376995D01*
X151384061Y-108291351D01*
X151326595Y-108229411D01*
X151280247Y-108205151D01*
X151250953Y-108188010D01*
X151196054Y-108138219D01*
X151129569Y-108067308D01*
X151067851Y-108003210D01*
X150988860Y-107935242D01*
X150925316Y-107895326D01*
X150918973Y-107892617D01*
X150868420Y-107862684D01*
X150855361Y-107837946D01*
X150856432Y-107832314D01*
X150834861Y-107796720D01*
X150783071Y-107749499D01*
X150721892Y-107700744D01*
X150634104Y-107627825D01*
X150542659Y-107549611D01*
X150536125Y-107543957D01*
X150455991Y-107479052D01*
X150389973Y-107433037D01*
X150351801Y-107415556D01*
X150314887Y-107403433D01*
X150260377Y-107365021D01*
X150226894Y-107340666D01*
X150148951Y-107293501D01*
X150043461Y-107235063D01*
X149923445Y-107172781D01*
X149641222Y-107031076D01*
X149316667Y-107024058D01*
X149237098Y-107022055D01*
X149044895Y-107015695D01*
X148844255Y-107007441D01*
X148667556Y-106998565D01*
X148618560Y-106995803D01*
X148426091Y-106985994D01*
X148278083Y-106981391D01*
X148164837Y-106982789D01*
X148076651Y-106990984D01*
X148003825Y-107006771D01*
X147936658Y-107030944D01*
X147865448Y-107064299D01*
X147806168Y-107096187D01*
X147608977Y-107234427D01*
X147432995Y-107405731D01*
X147295838Y-107593723D01*
X147277344Y-107625704D01*
X147233244Y-107711324D01*
X147207113Y-107789044D01*
X147193241Y-107880308D01*
X147185917Y-108006564D01*
X147184149Y-108046111D01*
X147176917Y-108157144D01*
X147167993Y-108243956D01*
X147158909Y-108290445D01*
X147154577Y-108297562D01*
X147112552Y-108338354D01*
X147038617Y-108395693D01*
X146945457Y-108459531D01*
X146909623Y-108482127D01*
X146775308Y-108551514D01*
X146747741Y-108557852D01*
X146734333Y-108544445D01*
X146720222Y-108558556D01*
X146724794Y-108563128D01*
X146658869Y-108578285D01*
X146548315Y-108561157D01*
X146431652Y-108498843D01*
X146296889Y-108390060D01*
X146243313Y-108345306D01*
X146138573Y-108269331D01*
X146042889Y-108211862D01*
X145973645Y-108170912D01*
X145891702Y-108113760D01*
X145809791Y-108050416D01*
X145739579Y-107990353D01*
X145692734Y-107943046D01*
X145680923Y-107917966D01*
X145682665Y-107914063D01*
X145674819Y-107874953D01*
X145648797Y-107814034D01*
X145614348Y-107749874D01*
X145581223Y-107701040D01*
X145559172Y-107686101D01*
X145544761Y-107684186D01*
X145534889Y-107646018D01*
X145532756Y-107620657D01*
X145515273Y-107591285D01*
X145471752Y-107576755D01*
X145392239Y-107574722D01*
X145266778Y-107582841D01*
X145148644Y-107591070D01*
X145043790Y-107592710D01*
X144981731Y-107583347D01*
X144955220Y-107561658D01*
X144957007Y-107526321D01*
X144961026Y-107488703D01*
X144930013Y-107472000D01*
X144908730Y-107468201D01*
X144885778Y-107441406D01*
X144894256Y-107425731D01*
X144935863Y-107373666D01*
X145006235Y-107293989D01*
X145098733Y-107194144D01*
X145206719Y-107081573D01*
X145286566Y-106998395D01*
X145430727Y-106838653D01*
X145530541Y-106711853D01*
X145586549Y-106617335D01*
X145607805Y-106564046D01*
X145621604Y-106513405D01*
X145614184Y-106501653D01*
X145599447Y-106505346D01*
X145604872Y-106478821D01*
X145635290Y-106423391D01*
X145684772Y-106347947D01*
X145747392Y-106261380D01*
X145817221Y-106172583D01*
X145888331Y-106090447D01*
X145936037Y-106038238D01*
X146081361Y-105872784D01*
X146194321Y-105731455D01*
X146282750Y-105603996D01*
X146354481Y-105480152D01*
X146361390Y-105466985D01*
X146397843Y-105393176D01*
X146419415Y-105331530D01*
X146428756Y-105264937D01*
X146428516Y-105176284D01*
X146421345Y-105048461D01*
X146417522Y-104995433D01*
X146403911Y-104856134D01*
X146386985Y-104728808D01*
X146369533Y-104635667D01*
X146359820Y-104591085D01*
X146339547Y-104463245D01*
X146328429Y-104341042D01*
X146324452Y-104280154D01*
X146314571Y-104201000D01*
X146302686Y-104157597D01*
X146293065Y-104122993D01*
X146283389Y-104046451D01*
X146277263Y-103948160D01*
X146271836Y-103863172D01*
X146258817Y-103756706D01*
X146242289Y-103680048D01*
X146226821Y-103614579D01*
X146210265Y-103510163D01*
X146197989Y-103395808D01*
X146197929Y-103395052D01*
X146186553Y-103292588D01*
X146171767Y-103211501D01*
X146156753Y-103169287D01*
X146153816Y-103164491D01*
X146139577Y-103112914D01*
X146125896Y-103024460D01*
X146115378Y-102915126D01*
X146113273Y-102887712D01*
X146102115Y-102785272D01*
X146088723Y-102709791D01*
X146075547Y-102675981D01*
X146066155Y-102659106D01*
X146053581Y-102598065D01*
X146046639Y-102511460D01*
X146041398Y-102435563D01*
X146025482Y-102305776D01*
X146003684Y-102180889D01*
X145986552Y-102089535D01*
X145977153Y-102018214D01*
X145978294Y-101986225D01*
X145979638Y-101982831D01*
X145979501Y-101939049D01*
X145971657Y-101857470D01*
X145957381Y-101752352D01*
X145950810Y-101702037D01*
X145938243Y-101551853D01*
X145929512Y-101366186D01*
X145924617Y-101158151D01*
X145923555Y-100940861D01*
X145926324Y-100727429D01*
X145932923Y-100530971D01*
X145943349Y-100364599D01*
X145957601Y-100241428D01*
X145960485Y-100223599D01*
X145974905Y-100113061D01*
X145981440Y-100021235D01*
X145978682Y-99966475D01*
X145976008Y-99943562D01*
X145982567Y-99867406D01*
X146003254Y-99777172D01*
X146011825Y-99747350D01*
X146041209Y-99573184D01*
X146025607Y-99417402D01*
X145963861Y-99264949D01*
X145953865Y-99247617D01*
X145901819Y-99169974D01*
X145831191Y-99076149D01*
X145750683Y-98976394D01*
X145668997Y-98880960D01*
X145594837Y-98800101D01*
X145536905Y-98744067D01*
X145503904Y-98723111D01*
X145482820Y-98715649D01*
X145424247Y-98685303D01*
X145346264Y-98639565D01*
X145290352Y-98607346D01*
X145203517Y-98564661D01*
X145139778Y-98542125D01*
X145100084Y-98532404D01*
X145012689Y-98506454D01*
X144914000Y-98473585D01*
X144691331Y-98404122D01*
X144318064Y-98329324D01*
X143954445Y-98310066D01*
X143864846Y-98313526D01*
X143745362Y-98322496D01*
X143652698Y-98334673D01*
X143601667Y-98348447D01*
X143506753Y-98399176D01*
X143407964Y-98447844D01*
X143327588Y-98483271D01*
X143276031Y-98500908D01*
X143263697Y-98496206D01*
X143264678Y-98494594D01*
X143269072Y-98473756D01*
X143242813Y-98483639D01*
X143196231Y-98516905D01*
X143139658Y-98566217D01*
X143083426Y-98624237D01*
X143055601Y-98656567D01*
X143007451Y-98718925D01*
X142996909Y-98746159D01*
X143025190Y-98735938D01*
X143031853Y-98735653D01*
X143026589Y-98765977D01*
X142999324Y-98827307D01*
X142940512Y-98974627D01*
X142915887Y-99114411D01*
X142927124Y-99233481D01*
X142974767Y-99320860D01*
X143008853Y-99360291D01*
X143068126Y-99440203D01*
X143128502Y-99530828D01*
X143177949Y-99613830D01*
X143204437Y-99670876D01*
X143207957Y-99689331D01*
X143188952Y-99752153D01*
X143125668Y-99801541D01*
X143068896Y-99820327D01*
X143079556Y-99809667D01*
X143065445Y-99795556D01*
X143051333Y-99809667D01*
X143063710Y-99822043D01*
X143027129Y-99834148D01*
X142902358Y-99846626D01*
X142760377Y-99835627D01*
X142716528Y-99822557D01*
X142619235Y-99766092D01*
X142515226Y-99679116D01*
X142417261Y-99574453D01*
X142338102Y-99464930D01*
X142290507Y-99363371D01*
X142282365Y-99336619D01*
X142254620Y-99254535D01*
X142231874Y-99198995D01*
X142229843Y-99193551D01*
X142226385Y-99136917D01*
X142233014Y-99043277D01*
X142247579Y-98927693D01*
X142267930Y-98805230D01*
X142291916Y-98690953D01*
X142317387Y-98599925D01*
X142332584Y-98536546D01*
X142330492Y-98495433D01*
X142328722Y-98482478D01*
X142345638Y-98427115D01*
X142385004Y-98345330D01*
X142439497Y-98250323D01*
X142501794Y-98155295D01*
X142564573Y-98073448D01*
X142596765Y-98040683D01*
X142664125Y-97983211D01*
X142749112Y-97917940D01*
X142842776Y-97850847D01*
X142936165Y-97787909D01*
X143020331Y-97735103D01*
X143086321Y-97698405D01*
X143125186Y-97683792D01*
X143127975Y-97697240D01*
X143127643Y-97698115D01*
X143151574Y-97697292D01*
X143218335Y-97680918D01*
X143318356Y-97651593D01*
X143442069Y-97611915D01*
X143487333Y-97596955D01*
X143623269Y-97554256D01*
X143730125Y-97526898D01*
X143826619Y-97511644D01*
X143931470Y-97505260D01*
X144063398Y-97504508D01*
X144108267Y-97505232D01*
X144267644Y-97513728D01*
X144417281Y-97529776D01*
X144533865Y-97551068D01*
X144622397Y-97571720D01*
X144697695Y-97586091D01*
X144735356Y-97589097D01*
X144763539Y-97592809D01*
X144831324Y-97612524D01*
X144920247Y-97644091D01*
X144994439Y-97671227D01*
X145085080Y-97701268D01*
X145146025Y-97717723D01*
X145185920Y-97729453D01*
X145268053Y-97762251D01*
X145361347Y-97806003D01*
X145368398Y-97809557D01*
X145475828Y-97860444D01*
X145554957Y-97889129D01*
X145624595Y-97902507D01*
X145640004Y-97908950D01*
X145681040Y-97941001D01*
X145686274Y-97945791D01*
X145732315Y-97980688D01*
X145798324Y-98025164D01*
X145867736Y-98068748D01*
X145923990Y-98100969D01*
X145950520Y-98111358D01*
X145961590Y-98108840D01*
X146002864Y-98117985D01*
X146044009Y-98138237D01*
X146057587Y-98157718D01*
X146070413Y-98177203D01*
X146122272Y-98213838D01*
X146201746Y-98258033D01*
X146275279Y-98296837D01*
X146349854Y-98340052D01*
X146391342Y-98369080D01*
X146435907Y-98404650D01*
X146499041Y-98446468D01*
X146564121Y-98484614D01*
X146615007Y-98509635D01*
X146635556Y-98512081D01*
X146639782Y-98506195D01*
X146670833Y-98516276D01*
X146685347Y-98523252D01*
X146763984Y-98536861D01*
X146877645Y-98536789D01*
X147011593Y-98524733D01*
X147151093Y-98502393D01*
X147281411Y-98471465D01*
X147387809Y-98433650D01*
X147430824Y-98419641D01*
X147472476Y-98420569D01*
X147480190Y-98422809D01*
X147533392Y-98420833D01*
X147634639Y-98406246D01*
X147786170Y-98378690D01*
X147990222Y-98337806D01*
X148025239Y-98332251D01*
X148114169Y-98323206D01*
X148216000Y-98316942D01*
X148238233Y-98315786D01*
X148360047Y-98298580D01*
X148477329Y-98259928D01*
X148597733Y-98195070D01*
X148728915Y-98099245D01*
X148878529Y-97967692D01*
X149054231Y-97795651D01*
X149153251Y-97696605D01*
X149286036Y-97570125D01*
X149396015Y-97475409D01*
X149491517Y-97405462D01*
X149580867Y-97353288D01*
X149592247Y-97347506D01*
X149681340Y-97305704D01*
X149701836Y-97297889D01*
X149740000Y-97297889D01*
X149754111Y-97312000D01*
X149768222Y-97297889D01*
X149754111Y-97283778D01*
X149740000Y-97297889D01*
X149701836Y-97297889D01*
X149748333Y-97280161D01*
X149754111Y-97279428D01*
X149779474Y-97276214D01*
X149780747Y-97277102D01*
G37*
X149780747Y-97277102D02*
X149820123Y-97272274D01*
X149905049Y-97243947D01*
X150031125Y-97193858D01*
X150193946Y-97123748D01*
X150389111Y-97035355D01*
X150401729Y-97029580D01*
X150595944Y-96957120D01*
X150770111Y-96926301D01*
X150863114Y-96915705D01*
X151001484Y-96890586D01*
X151130725Y-96858466D01*
X151322005Y-96801902D01*
X151490558Y-96931600D01*
X151574308Y-96998918D01*
X151627839Y-97052872D01*
X151652898Y-97100064D01*
X151659111Y-97153147D01*
X151658735Y-97165543D01*
X151627100Y-97264275D01*
X151552415Y-97345524D01*
X151445790Y-97403041D01*
X151318334Y-97430580D01*
X151181156Y-97421896D01*
X151149111Y-97418241D01*
X151035634Y-97430494D01*
X150884768Y-97472871D01*
X150702689Y-97543409D01*
X150495569Y-97640142D01*
X150326731Y-97749257D01*
X150163499Y-97910450D01*
X150036346Y-98102197D01*
X150030497Y-98114555D01*
X150001766Y-98193519D01*
X149968860Y-98304345D01*
X149936773Y-98428079D01*
X149910501Y-98545764D01*
X149895038Y-98638445D01*
X149890106Y-98665141D01*
X149869550Y-98745243D01*
X149837648Y-98854232D01*
X149798847Y-98976486D01*
X149775025Y-99051540D01*
X149744688Y-99158009D01*
X149726364Y-99237573D01*
X149723365Y-99277045D01*
X149740543Y-99289295D01*
X149804438Y-99300060D01*
X149902717Y-99302000D01*
X150022616Y-99295531D01*
X150151373Y-99281069D01*
X150276222Y-99259029D01*
X150339389Y-99245410D01*
X150475379Y-99216871D01*
X150568042Y-99199241D01*
X150625894Y-99191221D01*
X150657450Y-99191513D01*
X150671225Y-99198820D01*
X150685967Y-99208196D01*
X150743594Y-99230080D01*
X150826556Y-99254140D01*
X150907726Y-99282714D01*
X151022499Y-99338139D01*
X151129945Y-99403642D01*
X151137957Y-99409216D01*
X151215983Y-99461220D01*
X151271243Y-99494002D01*
X151292222Y-99500676D01*
X151292351Y-99500104D01*
X151313710Y-99512394D01*
X151364548Y-99554795D01*
X151434627Y-99618818D01*
X151437532Y-99621556D01*
X151510770Y-99687745D01*
X151567947Y-99734379D01*
X151596905Y-99751515D01*
X151616640Y-99761866D01*
X151667023Y-99802772D01*
X151732950Y-99864404D01*
X151779090Y-99909324D01*
X151862611Y-99988371D01*
X151930505Y-100050042D01*
X151946574Y-100064469D01*
X152022954Y-100139450D01*
X152096556Y-100219375D01*
X152125432Y-100253769D01*
X152152318Y-100293878D01*
X152168521Y-100339460D01*
X152176524Y-100403258D01*
X152178812Y-100498012D01*
X152177868Y-100636463D01*
X152177340Y-100681593D01*
X152174420Y-100808195D01*
X152168195Y-100893863D01*
X152156503Y-100950668D01*
X152137180Y-100990688D01*
X152108061Y-101025996D01*
X152071525Y-101058018D01*
X152001868Y-101081752D01*
X151917242Y-101062768D01*
X151807720Y-101000214D01*
X151806004Y-100999053D01*
X151742806Y-100950481D01*
X151705176Y-100899622D01*
X151684388Y-100828424D01*
X151671718Y-100718837D01*
X151669698Y-100697359D01*
X151657620Y-100629970D01*
X151631337Y-100574052D01*
X151581151Y-100513711D01*
X151497366Y-100433051D01*
X151478472Y-100415666D01*
X151401624Y-100347249D01*
X151342770Y-100298428D01*
X151313389Y-100278826D01*
X151290005Y-100268162D01*
X151245955Y-100231229D01*
X151209176Y-100187355D01*
X151198712Y-100156805D01*
X151195814Y-100137738D01*
X151155937Y-100109386D01*
X151089424Y-100086920D01*
X151013693Y-100077778D01*
X150947847Y-100082021D01*
X150877107Y-100100594D01*
X150799397Y-100139487D01*
X150703162Y-100204630D01*
X150576847Y-100301954D01*
X150515535Y-100349423D01*
X150429880Y-100411059D01*
X150366691Y-100450615D01*
X150336474Y-100461131D01*
X150335077Y-100460596D01*
X150303038Y-100476408D01*
X150245935Y-100524032D01*
X150175135Y-100594101D01*
X150041082Y-100735974D01*
X150037138Y-100737404D01*
X150013627Y-100736735D01*
X149969430Y-100764822D01*
X149938699Y-100788512D01*
X149866396Y-100827176D01*
X149774408Y-100866314D01*
X149699778Y-100894352D01*
X149622569Y-100926600D01*
X149568251Y-100960843D01*
X149532701Y-101006152D01*
X149511797Y-101071597D01*
X149501418Y-101166246D01*
X149497440Y-101299171D01*
X149495741Y-101479440D01*
X149494382Y-101597106D01*
X149490222Y-101787148D01*
X149483057Y-101937079D01*
X149471719Y-102057650D01*
X149455037Y-102159617D01*
X149431841Y-102253732D01*
X149400962Y-102350748D01*
X149393625Y-102372291D01*
X149370111Y-102452202D01*
X149362115Y-102519474D01*
X149368936Y-102596596D01*
X149389870Y-102706056D01*
X149415863Y-102817062D01*
X149447165Y-102928555D01*
X149475467Y-103009441D01*
X149481278Y-103023388D01*
X149510682Y-103105149D01*
X149526551Y-103168111D01*
X149526567Y-103168229D01*
X149538018Y-103235717D01*
X149555086Y-103318644D01*
X149571577Y-103375662D01*
X149598651Y-103400464D01*
X149650440Y-103394097D01*
X149712289Y-103383593D01*
X149811283Y-103372810D01*
X149923212Y-103364654D01*
X150023031Y-103356175D01*
X150174713Y-103335819D01*
X150309428Y-103310316D01*
X150407846Y-103290891D01*
X150491498Y-103280763D01*
X150538958Y-103282843D01*
X150556260Y-103284139D01*
X150622090Y-103273291D01*
X150719250Y-103247891D01*
X150833631Y-103211361D01*
X150869213Y-103199179D01*
X150976434Y-103165537D01*
X151072724Y-103142808D01*
X151174927Y-103128398D01*
X151299885Y-103119711D01*
X151464441Y-103114150D01*
X151842418Y-103104476D01*
X151930340Y-103197701D01*
X151943760Y-103211977D01*
X151979901Y-103254262D01*
X152001124Y-103295177D01*
X152010488Y-103349158D01*
X152011056Y-103430645D01*
X152005887Y-103554074D01*
X152003204Y-103606957D01*
X151994707Y-103718027D01*
X151982173Y-103790171D01*
X151962636Y-103836217D01*
X151933135Y-103868991D01*
X151932757Y-103869314D01*
X151863722Y-103905529D01*
X151772990Y-103904306D01*
X151764154Y-103902853D01*
X151688456Y-103890685D01*
X151638482Y-103883112D01*
X151625910Y-103876041D01*
X151591762Y-103829901D01*
X151557037Y-103756074D01*
X151552789Y-103745072D01*
X151519092Y-103673776D01*
X151482694Y-103641411D01*
X151428694Y-103633778D01*
X151400460Y-103636836D01*
X151309072Y-103664432D01*
X151190773Y-103715707D01*
X151058912Y-103784516D01*
X150926839Y-103864716D01*
X150899496Y-103881643D01*
X150858826Y-103900003D01*
X150853854Y-103889273D01*
X150847574Y-103884804D01*
X150802514Y-103900426D01*
X150723821Y-103936014D01*
X150620175Y-103987058D01*
X150500261Y-104049049D01*
X150372761Y-104117478D01*
X150246357Y-104187837D01*
X150129732Y-104255616D01*
X150031568Y-104316305D01*
X149941390Y-104381741D01*
X149843450Y-104469155D01*
X149775259Y-104549230D01*
X149756892Y-104577716D01*
X149725202Y-104637618D01*
X149707825Y-104700248D01*
X149701035Y-104783483D01*
X149701111Y-104905197D01*
X149698803Y-105049261D01*
X149684537Y-105161215D01*
X149656251Y-105245670D01*
X149635582Y-105290699D01*
X149623147Y-105339943D01*
X149638110Y-105384709D01*
X149683811Y-105449734D01*
X149707821Y-105479902D01*
X149752330Y-105524275D01*
X149778177Y-105533527D01*
X149787231Y-105530026D01*
X149796445Y-105557216D01*
X149796445Y-105557293D01*
X149816599Y-105609834D01*
X149867295Y-105680690D01*
X149934149Y-105754072D01*
X150002781Y-105814191D01*
X150058807Y-105845258D01*
X150073457Y-105851046D01*
X150136750Y-105896044D01*
X150225724Y-105978058D01*
X150334373Y-106090948D01*
X150456689Y-106228575D01*
X150586667Y-106384797D01*
X150653585Y-106466542D01*
X150749059Y-106580381D01*
X150833611Y-106678471D01*
X150890623Y-106746609D01*
X150936115Y-106808461D01*
X150953556Y-106842887D01*
X150968295Y-106871327D01*
X151013462Y-106928626D01*
X151078447Y-106999643D01*
X151137054Y-107063058D01*
X151179420Y-107115685D01*
X151191000Y-107140482D01*
X151190697Y-107140902D01*
X151204707Y-107167164D01*
X151249547Y-107220982D01*
X151316005Y-107291243D01*
X151386684Y-107365472D01*
X151440056Y-107427119D01*
X151464507Y-107462778D01*
X151481908Y-107490725D01*
X151529352Y-107549676D01*
X151594138Y-107621826D01*
X151647394Y-107682119D01*
X151687617Y-107736440D01*
X151697122Y-107763248D01*
X151695517Y-107773835D01*
X151710965Y-107822547D01*
X151745949Y-107893162D01*
X151767419Y-107929440D01*
X151803280Y-107980399D01*
X151823108Y-107994744D01*
X151833299Y-107997798D01*
X151869062Y-108033103D01*
X151918409Y-108095724D01*
X151944778Y-108134061D01*
X151980646Y-108204629D01*
X151998448Y-108284908D01*
X152004834Y-108398164D01*
X152005216Y-108493829D01*
X151992192Y-108679062D01*
X151958433Y-108815421D01*
X151902347Y-108906030D01*
X151822338Y-108954010D01*
X151716813Y-108962485D01*
X151630053Y-108945400D01*
X151568992Y-108902246D01*
X151535282Y-108823851D01*
X151521560Y-108700328D01*
X151515473Y-108628573D01*
X151495937Y-108517338D01*
X151469307Y-108432217D01*
X151441010Y-108376995D01*
X151384061Y-108291351D01*
X151326595Y-108229411D01*
X151280247Y-108205151D01*
X151250953Y-108188010D01*
X151196054Y-108138219D01*
X151129569Y-108067308D01*
X151067851Y-108003210D01*
X150988860Y-107935242D01*
X150925316Y-107895326D01*
X150918973Y-107892617D01*
X150868420Y-107862684D01*
X150855361Y-107837946D01*
X150856432Y-107832314D01*
X150834861Y-107796720D01*
X150783071Y-107749499D01*
X150721892Y-107700744D01*
X150634104Y-107627825D01*
X150542659Y-107549611D01*
X150536125Y-107543957D01*
X150455991Y-107479052D01*
X150389973Y-107433037D01*
X150351801Y-107415556D01*
X150314887Y-107403433D01*
X150260377Y-107365021D01*
X150226894Y-107340666D01*
X150148951Y-107293501D01*
X150043461Y-107235063D01*
X149923445Y-107172781D01*
X149641222Y-107031076D01*
X149316667Y-107024058D01*
X149237098Y-107022055D01*
X149044895Y-107015695D01*
X148844255Y-107007441D01*
X148667556Y-106998565D01*
X148618560Y-106995803D01*
X148426091Y-106985994D01*
X148278083Y-106981391D01*
X148164837Y-106982789D01*
X148076651Y-106990984D01*
X148003825Y-107006771D01*
X147936658Y-107030944D01*
X147865448Y-107064299D01*
X147806168Y-107096187D01*
X147608977Y-107234427D01*
X147432995Y-107405731D01*
X147295838Y-107593723D01*
X147277344Y-107625704D01*
X147233244Y-107711324D01*
X147207113Y-107789044D01*
X147193241Y-107880308D01*
X147185917Y-108006564D01*
X147184149Y-108046111D01*
X147176917Y-108157144D01*
X147167993Y-108243956D01*
X147158909Y-108290445D01*
X147154577Y-108297562D01*
X147112552Y-108338354D01*
X147038617Y-108395693D01*
X146945457Y-108459531D01*
X146909623Y-108482127D01*
X146775308Y-108551514D01*
X146747741Y-108557852D01*
X146734333Y-108544445D01*
X146720222Y-108558556D01*
X146724794Y-108563128D01*
X146658869Y-108578285D01*
X146548315Y-108561157D01*
X146431652Y-108498843D01*
X146296889Y-108390060D01*
X146243313Y-108345306D01*
X146138573Y-108269331D01*
X146042889Y-108211862D01*
X145973645Y-108170912D01*
X145891702Y-108113760D01*
X145809791Y-108050416D01*
X145739579Y-107990353D01*
X145692734Y-107943046D01*
X145680923Y-107917966D01*
X145682665Y-107914063D01*
X145674819Y-107874953D01*
X145648797Y-107814034D01*
X145614348Y-107749874D01*
X145581223Y-107701040D01*
X145559172Y-107686101D01*
X145544761Y-107684186D01*
X145534889Y-107646018D01*
X145532756Y-107620657D01*
X145515273Y-107591285D01*
X145471752Y-107576755D01*
X145392239Y-107574722D01*
X145266778Y-107582841D01*
X145148644Y-107591070D01*
X145043790Y-107592710D01*
X144981731Y-107583347D01*
X144955220Y-107561658D01*
X144957007Y-107526321D01*
X144961026Y-107488703D01*
X144930013Y-107472000D01*
X144908730Y-107468201D01*
X144885778Y-107441406D01*
X144894256Y-107425731D01*
X144935863Y-107373666D01*
X145006235Y-107293989D01*
X145098733Y-107194144D01*
X145206719Y-107081573D01*
X145286566Y-106998395D01*
X145430727Y-106838653D01*
X145530541Y-106711853D01*
X145586549Y-106617335D01*
X145607805Y-106564046D01*
X145621604Y-106513405D01*
X145614184Y-106501653D01*
X145599447Y-106505346D01*
X145604872Y-106478821D01*
X145635290Y-106423391D01*
X145684772Y-106347947D01*
X145747392Y-106261380D01*
X145817221Y-106172583D01*
X145888331Y-106090447D01*
X145936037Y-106038238D01*
X146081361Y-105872784D01*
X146194321Y-105731455D01*
X146282750Y-105603996D01*
X146354481Y-105480152D01*
X146361390Y-105466985D01*
X146397843Y-105393176D01*
X146419415Y-105331530D01*
X146428756Y-105264937D01*
X146428516Y-105176284D01*
X146421345Y-105048461D01*
X146417522Y-104995433D01*
X146403911Y-104856134D01*
X146386985Y-104728808D01*
X146369533Y-104635667D01*
X146359820Y-104591085D01*
X146339547Y-104463245D01*
X146328429Y-104341042D01*
X146324452Y-104280154D01*
X146314571Y-104201000D01*
X146302686Y-104157597D01*
X146293065Y-104122993D01*
X146283389Y-104046451D01*
X146277263Y-103948160D01*
X146271836Y-103863172D01*
X146258817Y-103756706D01*
X146242289Y-103680048D01*
X146226821Y-103614579D01*
X146210265Y-103510163D01*
X146197989Y-103395808D01*
X146197929Y-103395052D01*
X146186553Y-103292588D01*
X146171767Y-103211501D01*
X146156753Y-103169287D01*
X146153816Y-103164491D01*
X146139577Y-103112914D01*
X146125896Y-103024460D01*
X146115378Y-102915126D01*
X146113273Y-102887712D01*
X146102115Y-102785272D01*
X146088723Y-102709791D01*
X146075547Y-102675981D01*
X146066155Y-102659106D01*
X146053581Y-102598065D01*
X146046639Y-102511460D01*
X146041398Y-102435563D01*
X146025482Y-102305776D01*
X146003684Y-102180889D01*
X145986552Y-102089535D01*
X145977153Y-102018214D01*
X145978294Y-101986225D01*
X145979638Y-101982831D01*
X145979501Y-101939049D01*
X145971657Y-101857470D01*
X145957381Y-101752352D01*
X145950810Y-101702037D01*
X145938243Y-101551853D01*
X145929512Y-101366186D01*
X145924617Y-101158151D01*
X145923555Y-100940861D01*
X145926324Y-100727429D01*
X145932923Y-100530971D01*
X145943349Y-100364599D01*
X145957601Y-100241428D01*
X145960485Y-100223599D01*
X145974905Y-100113061D01*
X145981440Y-100021235D01*
X145978682Y-99966475D01*
X145976008Y-99943562D01*
X145982567Y-99867406D01*
X146003254Y-99777172D01*
X146011825Y-99747350D01*
X146041209Y-99573184D01*
X146025607Y-99417402D01*
X145963861Y-99264949D01*
X145953865Y-99247617D01*
X145901819Y-99169974D01*
X145831191Y-99076149D01*
X145750683Y-98976394D01*
X145668997Y-98880960D01*
X145594837Y-98800101D01*
X145536905Y-98744067D01*
X145503904Y-98723111D01*
X145482820Y-98715649D01*
X145424247Y-98685303D01*
X145346264Y-98639565D01*
X145290352Y-98607346D01*
X145203517Y-98564661D01*
X145139778Y-98542125D01*
X145100084Y-98532404D01*
X145012689Y-98506454D01*
X144914000Y-98473585D01*
X144691331Y-98404122D01*
X144318064Y-98329324D01*
X143954445Y-98310066D01*
X143864846Y-98313526D01*
X143745362Y-98322496D01*
X143652698Y-98334673D01*
X143601667Y-98348447D01*
X143506753Y-98399176D01*
X143407964Y-98447844D01*
X143327588Y-98483271D01*
X143276031Y-98500908D01*
X143263697Y-98496206D01*
X143264678Y-98494594D01*
X143269072Y-98473756D01*
X143242813Y-98483639D01*
X143196231Y-98516905D01*
X143139658Y-98566217D01*
X143083426Y-98624237D01*
X143055601Y-98656567D01*
X143007451Y-98718925D01*
X142996909Y-98746159D01*
X143025190Y-98735938D01*
X143031853Y-98735653D01*
X143026589Y-98765977D01*
X142999324Y-98827307D01*
X142940512Y-98974627D01*
X142915887Y-99114411D01*
X142927124Y-99233481D01*
X142974767Y-99320860D01*
X143008853Y-99360291D01*
X143068126Y-99440203D01*
X143128502Y-99530828D01*
X143177949Y-99613830D01*
X143204437Y-99670876D01*
X143207957Y-99689331D01*
X143188952Y-99752153D01*
X143125668Y-99801541D01*
X143068896Y-99820327D01*
X143079556Y-99809667D01*
X143065445Y-99795556D01*
X143051333Y-99809667D01*
X143063710Y-99822043D01*
X143027129Y-99834148D01*
X142902358Y-99846626D01*
X142760377Y-99835627D01*
X142716528Y-99822557D01*
X142619235Y-99766092D01*
X142515226Y-99679116D01*
X142417261Y-99574453D01*
X142338102Y-99464930D01*
X142290507Y-99363371D01*
X142282365Y-99336619D01*
X142254620Y-99254535D01*
X142231874Y-99198995D01*
X142229843Y-99193551D01*
X142226385Y-99136917D01*
X142233014Y-99043277D01*
X142247579Y-98927693D01*
X142267930Y-98805230D01*
X142291916Y-98690953D01*
X142317387Y-98599925D01*
X142332584Y-98536546D01*
X142330492Y-98495433D01*
X142328722Y-98482478D01*
X142345638Y-98427115D01*
X142385004Y-98345330D01*
X142439497Y-98250323D01*
X142501794Y-98155295D01*
X142564573Y-98073448D01*
X142596765Y-98040683D01*
X142664125Y-97983211D01*
X142749112Y-97917940D01*
X142842776Y-97850847D01*
X142936165Y-97787909D01*
X143020331Y-97735103D01*
X143086321Y-97698405D01*
X143125186Y-97683792D01*
X143127975Y-97697240D01*
X143127643Y-97698115D01*
X143151574Y-97697292D01*
X143218335Y-97680918D01*
X143318356Y-97651593D01*
X143442069Y-97611915D01*
X143487333Y-97596955D01*
X143623269Y-97554256D01*
X143730125Y-97526898D01*
X143826619Y-97511644D01*
X143931470Y-97505260D01*
X144063398Y-97504508D01*
X144108267Y-97505232D01*
X144267644Y-97513728D01*
X144417281Y-97529776D01*
X144533865Y-97551068D01*
X144622397Y-97571720D01*
X144697695Y-97586091D01*
X144735356Y-97589097D01*
X144763539Y-97592809D01*
X144831324Y-97612524D01*
X144920247Y-97644091D01*
X144994439Y-97671227D01*
X145085080Y-97701268D01*
X145146025Y-97717723D01*
X145185920Y-97729453D01*
X145268053Y-97762251D01*
X145361347Y-97806003D01*
X145368398Y-97809557D01*
X145475828Y-97860444D01*
X145554957Y-97889129D01*
X145624595Y-97902507D01*
X145640004Y-97908950D01*
X145681040Y-97941001D01*
X145686274Y-97945791D01*
X145732315Y-97980688D01*
X145798324Y-98025164D01*
X145867736Y-98068748D01*
X145923990Y-98100969D01*
X145950520Y-98111358D01*
X145961590Y-98108840D01*
X146002864Y-98117985D01*
X146044009Y-98138237D01*
X146057587Y-98157718D01*
X146070413Y-98177203D01*
X146122272Y-98213838D01*
X146201746Y-98258033D01*
X146275279Y-98296837D01*
X146349854Y-98340052D01*
X146391342Y-98369080D01*
X146435907Y-98404650D01*
X146499041Y-98446468D01*
X146564121Y-98484614D01*
X146615007Y-98509635D01*
X146635556Y-98512081D01*
X146639782Y-98506195D01*
X146670833Y-98516276D01*
X146685347Y-98523252D01*
X146763984Y-98536861D01*
X146877645Y-98536789D01*
X147011593Y-98524733D01*
X147151093Y-98502393D01*
X147281411Y-98471465D01*
X147387809Y-98433650D01*
X147430824Y-98419641D01*
X147472476Y-98420569D01*
X147480190Y-98422809D01*
X147533392Y-98420833D01*
X147634639Y-98406246D01*
X147786170Y-98378690D01*
X147990222Y-98337806D01*
X148025239Y-98332251D01*
X148114169Y-98323206D01*
X148216000Y-98316942D01*
X148238233Y-98315786D01*
X148360047Y-98298580D01*
X148477329Y-98259928D01*
X148597733Y-98195070D01*
X148728915Y-98099245D01*
X148878529Y-97967692D01*
X149054231Y-97795651D01*
X149153251Y-97696605D01*
X149286036Y-97570125D01*
X149396015Y-97475409D01*
X149491517Y-97405462D01*
X149580867Y-97353288D01*
X149592247Y-97347506D01*
X149681340Y-97305704D01*
X149701836Y-97297889D01*
X149740000Y-97297889D01*
X149754111Y-97312000D01*
X149768222Y-97297889D01*
X149754111Y-97283778D01*
X149740000Y-97297889D01*
X149701836Y-97297889D01*
X149748333Y-97280161D01*
X149754111Y-97279428D01*
X149779474Y-97276214D01*
X149780747Y-97277102D01*
M02*
