M48
; DRILL file {KiCad (5.99.0-539-g3370e8996)} date 12/19/2019 2:59:29 AM
; FORMAT={-:-/ absolute / metric / decimal}
; #@! TF.CreationDate,2019-12-19T02:59:29-05:00
; #@! TF.GenerationSoftware,Kicad,Pcbnew,(5.99.0-539-g3370e8996)
; #@! TF.FileFunction,Plated,1,2,PTH
FMAT,2
METRIC
T1C0.300
T2C0.650
%
G90
G05
T1
X131.8Y-101.2
X131.8Y-102.2
X131.9Y-96.8
X131.9Y-98.9
X131.9Y-100.0
X132.5Y-82.5
X132.5Y-85.0
X132.5Y-115.0
X132.5Y-117.5
X135.0Y-115.0
X136.3Y-89.55
X136.4Y-91.6
X136.85Y-90.874
X137.5Y-115.0
X138.25Y-91.35
X138.7Y-98.9
X138.7Y-108.741
X138.8Y-101.0
X138.8Y-103.0
X138.85Y-85.5
X139.2Y-90.274
X139.8Y-108.9
X140.0Y-115.0
X140.4Y-97.8
X140.7Y-112.0
X140.75Y-91.6
X142.1Y-91.5
X142.1Y-113.7
X142.835Y-114.015
X142.9Y-87.5
X144.0Y-94.3
X144.1Y-105.6
X144.2Y-110.2
X144.35Y-90.95
X145.4Y-91.5
X146.5Y-110.3
X148.1Y-89.2
X148.1Y-86.5
X148.7Y-89.731
X149.4Y-113.8
X149.6Y-94.7
X149.824Y-85.776
X150.502Y-86.201
X152.9Y-90.7
X154.15Y-88.4
X154.55Y-108.65
X157.5Y-107.5
X157.5Y-112.5
X158.6Y-104.9
X158.6Y-105.8
X158.6Y-106.7
X158.9Y-99.4
X158.9Y-100.6
X158.9Y-101.8
X160.9Y-99.4
X160.9Y-100.6
X160.9Y-101.8
X161.0Y-104.9
X161.0Y-106.2
X162.5Y-92.5
X162.5Y-97.5
X162.5Y-107.5
X162.5Y-112.5
X162.5Y-117.5
X162.9Y-99.4
X162.9Y-100.6
X162.9Y-101.8
X162.9Y-106.2
X163.1Y-104.9
X164.3Y-105.9
X164.9Y-99.4
X164.9Y-100.6
X164.9Y-101.8
X167.5Y-82.5
X167.5Y-92.5
X167.5Y-97.5
X167.5Y-107.5
X167.5Y-112.5
X167.5Y-117.5
T2
X132.05Y-86.5
X132.05Y-87.77
X134.33Y-83.0
X135.6Y-83.0
X136.87Y-83.0
X138.14Y-83.0
X139.41Y-83.0
X140.68Y-83.0
X141.95Y-83.0
X143.22Y-83.0
X144.49Y-83.0
X145.76Y-83.0
X147.03Y-83.0
X148.3Y-83.0
X149.57Y-83.0
X150.84Y-83.0
X152.11Y-83.0
X153.38Y-83.0
X154.65Y-83.0
X155.92Y-83.0
X157.19Y-83.0
X158.46Y-83.0
X159.73Y-83.0
X161.0Y-83.0
X134.33Y-117.0
X135.6Y-117.0
X136.87Y-117.0
X138.14Y-117.0
X139.41Y-117.0
X140.68Y-117.0
X141.95Y-117.0
X143.22Y-117.0
X144.49Y-117.0
X145.76Y-117.0
X147.03Y-117.0
X148.3Y-117.0
X149.57Y-117.0
X150.84Y-117.0
X152.11Y-117.0
X153.38Y-117.0
X154.65Y-117.0
X155.92Y-117.0
X157.19Y-117.0
X158.46Y-117.0
X159.73Y-117.0
X161.0Y-117.0
T0
M30
