G04 #@! TF.GenerationSoftware,KiCad,Pcbnew,(5.99.0-539-g3370e8996)*
G04 #@! TF.CreationDate,2019-12-19T02:59:25-05:00*
G04 #@! TF.ProjectId,sara_r410m_02b_module_board,73617261-5f72-4343-9130-6d5f3032625f,rev?*
G04 #@! TF.SameCoordinates,Original*
G04 #@! TF.FileFunction,Copper,L1,Top*
G04 #@! TF.FilePolarity,Positive*
%FSLAX46Y46*%
G04 Gerber Fmt 4.6, Leading zero omitted, Abs format (unit mm)*
G04 Created by KiCad (PCBNEW (5.99.0-539-g3370e8996)) date 2019-12-19 02:59:25*
%MOMM*%
%LPD*%
G04 APERTURE LIST*
%ADD10R,1.000000X1.200000*%
%ADD11C,1.200000*%
%ADD12R,0.900000X0.800000*%
%ADD13O,1.000000X1.000000*%
%ADD14R,1.000000X1.000000*%
%ADD15R,0.250000X0.150000*%
%ADD16R,0.600000X0.200000*%
%ADD17R,0.200000X0.600000*%
%ADD18R,1.100000X1.100000*%
%ADD19R,1.500000X0.800000*%
%ADD20R,1.500000X0.600000*%
%ADD21R,0.800000X1.500000*%
%ADD22R,0.600000X1.500000*%
%ADD23R,4.064000X1.524000*%
%ADD24R,4.064000X1.270000*%
%ADD25C,0.600000*%
%ADD26C,0.200000*%
%ADD27C,1.290000*%
%ADD28C,0.800000*%
%ADD29C,0.700000*%
%ADD30C,0.500000*%
%ADD31C,0.254000*%
G04 APERTURE END LIST*
D10*
X165500000Y-83810000D03*
X165500000Y-91990000D03*
D11*
X135150000Y-89900000D03*
G04 #@! TA.AperFunction,SMDPad,CuDef*
G36*
X140214962Y-87741651D02*
G01*
X140285930Y-87789070D01*
X140333349Y-87860038D01*
X140350000Y-87943750D01*
X140350000Y-88456250D01*
X140333349Y-88539962D01*
X140285930Y-88610930D01*
X140214962Y-88658349D01*
X140131250Y-88675000D01*
X139693750Y-88675000D01*
X139610038Y-88658349D01*
X139539070Y-88610930D01*
X139491651Y-88539962D01*
X139475000Y-88456250D01*
X139475000Y-87943750D01*
X139491651Y-87860038D01*
X139539070Y-87789070D01*
X139610038Y-87741651D01*
X139693750Y-87725000D01*
X140131250Y-87725000D01*
X140214962Y-87741651D01*
G37*
G04 #@! TD.AperFunction*
G04 #@! TA.AperFunction,SMDPad,CuDef*
G36*
X141789962Y-87741651D02*
G01*
X141860930Y-87789070D01*
X141908349Y-87860038D01*
X141925000Y-87943750D01*
X141925000Y-88456250D01*
X141908349Y-88539962D01*
X141860930Y-88610930D01*
X141789962Y-88658349D01*
X141706250Y-88675000D01*
X141268750Y-88675000D01*
X141185038Y-88658349D01*
X141114070Y-88610930D01*
X141066651Y-88539962D01*
X141050000Y-88456250D01*
X141050000Y-87943750D01*
X141066651Y-87860038D01*
X141114070Y-87789070D01*
X141185038Y-87741651D01*
X141268750Y-87725000D01*
X141706250Y-87725000D01*
X141789962Y-87741651D01*
G37*
G04 #@! TD.AperFunction*
G04 #@! TA.AperFunction,SMDPad,CuDef*
G36*
X140214962Y-86041651D02*
G01*
X140285930Y-86089070D01*
X140333349Y-86160038D01*
X140350000Y-86243750D01*
X140350000Y-86756250D01*
X140333349Y-86839962D01*
X140285930Y-86910930D01*
X140214962Y-86958349D01*
X140131250Y-86975000D01*
X139693750Y-86975000D01*
X139610038Y-86958349D01*
X139539070Y-86910930D01*
X139491651Y-86839962D01*
X139475000Y-86756250D01*
X139475000Y-86243750D01*
X139491651Y-86160038D01*
X139539070Y-86089070D01*
X139610038Y-86041651D01*
X139693750Y-86025000D01*
X140131250Y-86025000D01*
X140214962Y-86041651D01*
G37*
G04 #@! TD.AperFunction*
G04 #@! TA.AperFunction,SMDPad,CuDef*
G36*
X141789962Y-86041651D02*
G01*
X141860930Y-86089070D01*
X141908349Y-86160038D01*
X141925000Y-86243750D01*
X141925000Y-86756250D01*
X141908349Y-86839962D01*
X141860930Y-86910930D01*
X141789962Y-86958349D01*
X141706250Y-86975000D01*
X141268750Y-86975000D01*
X141185038Y-86958349D01*
X141114070Y-86910930D01*
X141066651Y-86839962D01*
X141050000Y-86756250D01*
X141050000Y-86243750D01*
X141066651Y-86160038D01*
X141114070Y-86089070D01*
X141185038Y-86041651D01*
X141268750Y-86025000D01*
X141706250Y-86025000D01*
X141789962Y-86041651D01*
G37*
G04 #@! TD.AperFunction*
D12*
X135300000Y-87400000D03*
X137300000Y-86450000D03*
X137300000Y-88350000D03*
D13*
X132050000Y-87770000D03*
D14*
X132050000Y-86500000D03*
D15*
X144775000Y-111575000D03*
D16*
X144600000Y-112000000D03*
D17*
X144600000Y-112650000D03*
X144200000Y-112650000D03*
X143800000Y-112650000D03*
X143400000Y-112650000D03*
X143000000Y-112650000D03*
D16*
X143000000Y-112000000D03*
D17*
X143000000Y-111350000D03*
X143400000Y-111350000D03*
X143800000Y-111350000D03*
X144200000Y-111350000D03*
X144600000Y-111350000D03*
D15*
X148425000Y-88425000D03*
D16*
X148600000Y-88000000D03*
D17*
X148600000Y-87350000D03*
X149000000Y-87350000D03*
X149400000Y-87350000D03*
X149800000Y-87350000D03*
X150200000Y-87350000D03*
D16*
X150200000Y-88000000D03*
D17*
X150200000Y-88650000D03*
X149800000Y-88650000D03*
X149400000Y-88650000D03*
X149000000Y-88650000D03*
X148600000Y-88650000D03*
D18*
X138550000Y-105250000D03*
X142150000Y-105250000D03*
X148250000Y-105250000D03*
X134950000Y-105250000D03*
X134950000Y-103150000D03*
X134950000Y-101050000D03*
X134950000Y-98950000D03*
X134950000Y-96850000D03*
X136750000Y-105250000D03*
X136750000Y-103150000D03*
X136750000Y-101050000D03*
X136750000Y-98950000D03*
X136750000Y-96850000D03*
X151850000Y-105250000D03*
X153650000Y-105250000D03*
X153650000Y-103150000D03*
X153650000Y-101050000D03*
X153650000Y-98950000D03*
X153650000Y-96850000D03*
X155450000Y-105250000D03*
X155450000Y-103150000D03*
X155450000Y-101050000D03*
X155450000Y-98950000D03*
X155450000Y-96850000D03*
X142150000Y-94750000D03*
X138550000Y-94750000D03*
X136750000Y-94750000D03*
X134950000Y-94750000D03*
X148250000Y-94750000D03*
X151850000Y-94750000D03*
X153650000Y-94750000D03*
X155450000Y-94750000D03*
D19*
X157150000Y-94500000D03*
X157150000Y-95600000D03*
X157150000Y-96700000D03*
X157150000Y-97800000D03*
X157150000Y-98900000D03*
X157150000Y-100000000D03*
X157150000Y-101100000D03*
X157150000Y-102200000D03*
X157150000Y-103300000D03*
X157150000Y-104400000D03*
X157150000Y-105500000D03*
X133250000Y-105500000D03*
X133250000Y-104400000D03*
X133250000Y-103300000D03*
D20*
X133250000Y-102200000D03*
X133250000Y-101100000D03*
D19*
X133250000Y-100000000D03*
X133250000Y-98900000D03*
X133250000Y-97800000D03*
X133250000Y-96700000D03*
X133250000Y-95600000D03*
X133250000Y-94500000D03*
D21*
X156200000Y-107000000D03*
X155100000Y-107000000D03*
X154000000Y-107000000D03*
X152900000Y-107000000D03*
X151800000Y-107000000D03*
X150700000Y-107000000D03*
X149600000Y-107000000D03*
X148500000Y-107000000D03*
X147400000Y-107000000D03*
X146300000Y-107000000D03*
X145200000Y-107000000D03*
D22*
X144100000Y-107000000D03*
X143000000Y-107000000D03*
X141900000Y-107000000D03*
X140800000Y-107000000D03*
X139700000Y-107000000D03*
D21*
X138600000Y-107000000D03*
X137500000Y-107000000D03*
X136400000Y-107000000D03*
X135300000Y-107000000D03*
X134200000Y-107000000D03*
X134200000Y-93000000D03*
X135300000Y-93000000D03*
X136400000Y-93000000D03*
D22*
X137500000Y-93000000D03*
D21*
X138600000Y-93000000D03*
D22*
X139700000Y-93000000D03*
X140800000Y-93000000D03*
D21*
X141900000Y-93000000D03*
D22*
X143000000Y-93000000D03*
X144100000Y-93000000D03*
D21*
X145200000Y-93000000D03*
X146300000Y-93000000D03*
X147400000Y-93000000D03*
X148500000Y-93000000D03*
X149600000Y-93000000D03*
X150700000Y-93000000D03*
X151800000Y-93000000D03*
X152900000Y-93000000D03*
X154000000Y-93000000D03*
X155100000Y-93000000D03*
X156200000Y-93000000D03*
G04 #@! TA.AperFunction,SMDPad,CuDef*
G36*
X132239962Y-110691651D02*
G01*
X132310930Y-110739070D01*
X132358349Y-110810038D01*
X132375000Y-110893750D01*
X132375000Y-111331250D01*
X132358349Y-111414962D01*
X132310930Y-111485930D01*
X132239962Y-111533349D01*
X132156250Y-111550000D01*
X131643750Y-111550000D01*
X131560038Y-111533349D01*
X131489070Y-111485930D01*
X131441651Y-111414962D01*
X131425000Y-111331250D01*
X131425000Y-110893750D01*
X131441651Y-110810038D01*
X131489070Y-110739070D01*
X131560038Y-110691651D01*
X131643750Y-110675000D01*
X132156250Y-110675000D01*
X132239962Y-110691651D01*
G37*
G04 #@! TD.AperFunction*
G04 #@! TA.AperFunction,SMDPad,CuDef*
G36*
X132239962Y-112266651D02*
G01*
X132310930Y-112314070D01*
X132358349Y-112385038D01*
X132375000Y-112468750D01*
X132375000Y-112906250D01*
X132358349Y-112989962D01*
X132310930Y-113060930D01*
X132239962Y-113108349D01*
X132156250Y-113125000D01*
X131643750Y-113125000D01*
X131560038Y-113108349D01*
X131489070Y-113060930D01*
X131441651Y-112989962D01*
X131425000Y-112906250D01*
X131425000Y-112468750D01*
X131441651Y-112385038D01*
X131489070Y-112314070D01*
X131560038Y-112266651D01*
X131643750Y-112250000D01*
X132156250Y-112250000D01*
X132239962Y-112266651D01*
G37*
G04 #@! TD.AperFunction*
G04 #@! TA.AperFunction,SMDPad,CuDef*
G36*
X139739962Y-110691651D02*
G01*
X139810930Y-110739070D01*
X139858349Y-110810038D01*
X139875000Y-110893750D01*
X139875000Y-111331250D01*
X139858349Y-111414962D01*
X139810930Y-111485930D01*
X139739962Y-111533349D01*
X139656250Y-111550000D01*
X139143750Y-111550000D01*
X139060038Y-111533349D01*
X138989070Y-111485930D01*
X138941651Y-111414962D01*
X138925000Y-111331250D01*
X138925000Y-110893750D01*
X138941651Y-110810038D01*
X138989070Y-110739070D01*
X139060038Y-110691651D01*
X139143750Y-110675000D01*
X139656250Y-110675000D01*
X139739962Y-110691651D01*
G37*
G04 #@! TD.AperFunction*
G04 #@! TA.AperFunction,SMDPad,CuDef*
G36*
X139739962Y-112266651D02*
G01*
X139810930Y-112314070D01*
X139858349Y-112385038D01*
X139875000Y-112468750D01*
X139875000Y-112906250D01*
X139858349Y-112989962D01*
X139810930Y-113060930D01*
X139739962Y-113108349D01*
X139656250Y-113125000D01*
X139143750Y-113125000D01*
X139060038Y-113108349D01*
X138989070Y-113060930D01*
X138941651Y-112989962D01*
X138925000Y-112906250D01*
X138925000Y-112468750D01*
X138941651Y-112385038D01*
X138989070Y-112314070D01*
X139060038Y-112266651D01*
X139143750Y-112250000D01*
X139656250Y-112250000D01*
X139739962Y-112266651D01*
G37*
G04 #@! TD.AperFunction*
G04 #@! TA.AperFunction,SMDPad,CuDef*
G36*
X161514962Y-102841651D02*
G01*
X161585930Y-102889070D01*
X161633349Y-102960038D01*
X161650000Y-103043750D01*
X161650000Y-103556250D01*
X161633349Y-103639962D01*
X161585930Y-103710930D01*
X161514962Y-103758349D01*
X161431250Y-103775000D01*
X160993750Y-103775000D01*
X160910038Y-103758349D01*
X160839070Y-103710930D01*
X160791651Y-103639962D01*
X160775000Y-103556250D01*
X160775000Y-103043750D01*
X160791651Y-102960038D01*
X160839070Y-102889070D01*
X160910038Y-102841651D01*
X160993750Y-102825000D01*
X161431250Y-102825000D01*
X161514962Y-102841651D01*
G37*
G04 #@! TD.AperFunction*
G04 #@! TA.AperFunction,SMDPad,CuDef*
G36*
X163089962Y-102841651D02*
G01*
X163160930Y-102889070D01*
X163208349Y-102960038D01*
X163225000Y-103043750D01*
X163225000Y-103556250D01*
X163208349Y-103639962D01*
X163160930Y-103710930D01*
X163089962Y-103758349D01*
X163006250Y-103775000D01*
X162568750Y-103775000D01*
X162485038Y-103758349D01*
X162414070Y-103710930D01*
X162366651Y-103639962D01*
X162350000Y-103556250D01*
X162350000Y-103043750D01*
X162366651Y-102960038D01*
X162414070Y-102889070D01*
X162485038Y-102841651D01*
X162568750Y-102825000D01*
X163006250Y-102825000D01*
X163089962Y-102841651D01*
G37*
G04 #@! TD.AperFunction*
D12*
X135600000Y-111900000D03*
X133600000Y-112850000D03*
X133600000Y-110950000D03*
D13*
X134330000Y-117000000D03*
X135600000Y-117000000D03*
X136870000Y-117000000D03*
X138140000Y-117000000D03*
X139410000Y-117000000D03*
X140680000Y-117000000D03*
X141950000Y-117000000D03*
X143220000Y-117000000D03*
X144490000Y-117000000D03*
X145760000Y-117000000D03*
X147030000Y-117000000D03*
X148300000Y-117000000D03*
X149570000Y-117000000D03*
X150840000Y-117000000D03*
X152110000Y-117000000D03*
X153380000Y-117000000D03*
X154650000Y-117000000D03*
X155920000Y-117000000D03*
X157190000Y-117000000D03*
X158460000Y-117000000D03*
X159730000Y-117000000D03*
D14*
X161000000Y-117000000D03*
D13*
X134330000Y-83000000D03*
X135600000Y-83000000D03*
X136870000Y-83000000D03*
X138140000Y-83000000D03*
X139410000Y-83000000D03*
X140680000Y-83000000D03*
X141950000Y-83000000D03*
X143220000Y-83000000D03*
X144490000Y-83000000D03*
X145760000Y-83000000D03*
X147030000Y-83000000D03*
X148300000Y-83000000D03*
X149570000Y-83000000D03*
X150840000Y-83000000D03*
X152110000Y-83000000D03*
X153380000Y-83000000D03*
X154650000Y-83000000D03*
X155920000Y-83000000D03*
X157190000Y-83000000D03*
X158460000Y-83000000D03*
X159730000Y-83000000D03*
D14*
X161000000Y-83000000D03*
D23*
X167800000Y-105840000D03*
X167800000Y-100760000D03*
D24*
X167800000Y-103300000D03*
G04 #@! TA.AperFunction,SMDPad,CuDef*
G36*
X138049529Y-112368554D02*
G01*
X138128607Y-112421393D01*
X138181446Y-112500471D01*
X138200000Y-112593750D01*
X138200000Y-113081250D01*
X138181446Y-113174529D01*
X138128607Y-113253607D01*
X138049529Y-113306446D01*
X137956250Y-113325000D01*
X137043750Y-113325000D01*
X136950471Y-113306446D01*
X136871393Y-113253607D01*
X136818554Y-113174529D01*
X136800000Y-113081250D01*
X136800000Y-112593750D01*
X136818554Y-112500471D01*
X136871393Y-112421393D01*
X136950471Y-112368554D01*
X137043750Y-112350000D01*
X137956250Y-112350000D01*
X138049529Y-112368554D01*
G37*
G04 #@! TD.AperFunction*
G04 #@! TA.AperFunction,SMDPad,CuDef*
G36*
X138049529Y-110493554D02*
G01*
X138128607Y-110546393D01*
X138181446Y-110625471D01*
X138200000Y-110718750D01*
X138200000Y-111206250D01*
X138181446Y-111299529D01*
X138128607Y-111378607D01*
X138049529Y-111431446D01*
X137956250Y-111450000D01*
X137043750Y-111450000D01*
X136950471Y-111431446D01*
X136871393Y-111378607D01*
X136818554Y-111299529D01*
X136800000Y-111206250D01*
X136800000Y-110718750D01*
X136818554Y-110625471D01*
X136871393Y-110546393D01*
X136950471Y-110493554D01*
X137043750Y-110475000D01*
X137956250Y-110475000D01*
X138049529Y-110493554D01*
G37*
G04 #@! TD.AperFunction*
G04 #@! TA.AperFunction,SMDPad,CuDef*
G36*
X146414962Y-112341651D02*
G01*
X146485930Y-112389070D01*
X146533349Y-112460038D01*
X146550000Y-112543750D01*
X146550000Y-113056250D01*
X146533349Y-113139962D01*
X146485930Y-113210930D01*
X146414962Y-113258349D01*
X146331250Y-113275000D01*
X145893750Y-113275000D01*
X145810038Y-113258349D01*
X145739070Y-113210930D01*
X145691651Y-113139962D01*
X145675000Y-113056250D01*
X145675000Y-112543750D01*
X145691651Y-112460038D01*
X145739070Y-112389070D01*
X145810038Y-112341651D01*
X145893750Y-112325000D01*
X146331250Y-112325000D01*
X146414962Y-112341651D01*
G37*
G04 #@! TD.AperFunction*
G04 #@! TA.AperFunction,SMDPad,CuDef*
G36*
X147989962Y-112341651D02*
G01*
X148060930Y-112389070D01*
X148108349Y-112460038D01*
X148125000Y-112543750D01*
X148125000Y-113056250D01*
X148108349Y-113139962D01*
X148060930Y-113210930D01*
X147989962Y-113258349D01*
X147906250Y-113275000D01*
X147468750Y-113275000D01*
X147385038Y-113258349D01*
X147314070Y-113210930D01*
X147266651Y-113139962D01*
X147250000Y-113056250D01*
X147250000Y-112543750D01*
X147266651Y-112460038D01*
X147314070Y-112389070D01*
X147385038Y-112341651D01*
X147468750Y-112325000D01*
X147906250Y-112325000D01*
X147989962Y-112341651D01*
G37*
G04 #@! TD.AperFunction*
G04 #@! TA.AperFunction,SMDPad,CuDef*
G36*
X146414962Y-110741651D02*
G01*
X146485930Y-110789070D01*
X146533349Y-110860038D01*
X146550000Y-110943750D01*
X146550000Y-111456250D01*
X146533349Y-111539962D01*
X146485930Y-111610930D01*
X146414962Y-111658349D01*
X146331250Y-111675000D01*
X145893750Y-111675000D01*
X145810038Y-111658349D01*
X145739070Y-111610930D01*
X145691651Y-111539962D01*
X145675000Y-111456250D01*
X145675000Y-110943750D01*
X145691651Y-110860038D01*
X145739070Y-110789070D01*
X145810038Y-110741651D01*
X145893750Y-110725000D01*
X146331250Y-110725000D01*
X146414962Y-110741651D01*
G37*
G04 #@! TD.AperFunction*
G04 #@! TA.AperFunction,SMDPad,CuDef*
G36*
X147989962Y-110741651D02*
G01*
X148060930Y-110789070D01*
X148108349Y-110860038D01*
X148125000Y-110943750D01*
X148125000Y-111456250D01*
X148108349Y-111539962D01*
X148060930Y-111610930D01*
X147989962Y-111658349D01*
X147906250Y-111675000D01*
X147468750Y-111675000D01*
X147385038Y-111658349D01*
X147314070Y-111610930D01*
X147266651Y-111539962D01*
X147250000Y-111456250D01*
X147250000Y-110943750D01*
X147266651Y-110860038D01*
X147314070Y-110789070D01*
X147385038Y-110741651D01*
X147468750Y-110725000D01*
X147906250Y-110725000D01*
X147989962Y-110741651D01*
G37*
G04 #@! TD.AperFunction*
G04 #@! TA.AperFunction,SMDPad,CuDef*
G36*
X158389962Y-109141651D02*
G01*
X158460930Y-109189070D01*
X158508349Y-109260038D01*
X158525000Y-109343750D01*
X158525000Y-109856250D01*
X158508349Y-109939962D01*
X158460930Y-110010930D01*
X158389962Y-110058349D01*
X158306250Y-110075000D01*
X157868750Y-110075000D01*
X157785038Y-110058349D01*
X157714070Y-110010930D01*
X157666651Y-109939962D01*
X157650000Y-109856250D01*
X157650000Y-109343750D01*
X157666651Y-109260038D01*
X157714070Y-109189070D01*
X157785038Y-109141651D01*
X157868750Y-109125000D01*
X158306250Y-109125000D01*
X158389962Y-109141651D01*
G37*
G04 #@! TD.AperFunction*
G04 #@! TA.AperFunction,SMDPad,CuDef*
G36*
X156814962Y-109141651D02*
G01*
X156885930Y-109189070D01*
X156933349Y-109260038D01*
X156950000Y-109343750D01*
X156950000Y-109856250D01*
X156933349Y-109939962D01*
X156885930Y-110010930D01*
X156814962Y-110058349D01*
X156731250Y-110075000D01*
X156293750Y-110075000D01*
X156210038Y-110058349D01*
X156139070Y-110010930D01*
X156091651Y-109939962D01*
X156075000Y-109856250D01*
X156075000Y-109343750D01*
X156091651Y-109260038D01*
X156139070Y-109189070D01*
X156210038Y-109141651D01*
X156293750Y-109125000D01*
X156731250Y-109125000D01*
X156814962Y-109141651D01*
G37*
G04 #@! TD.AperFunction*
G04 #@! TA.AperFunction,SMDPad,CuDef*
G36*
X146889962Y-86741651D02*
G01*
X146960930Y-86789070D01*
X147008349Y-86860038D01*
X147025000Y-86943750D01*
X147025000Y-87456250D01*
X147008349Y-87539962D01*
X146960930Y-87610930D01*
X146889962Y-87658349D01*
X146806250Y-87675000D01*
X146368750Y-87675000D01*
X146285038Y-87658349D01*
X146214070Y-87610930D01*
X146166651Y-87539962D01*
X146150000Y-87456250D01*
X146150000Y-86943750D01*
X146166651Y-86860038D01*
X146214070Y-86789070D01*
X146285038Y-86741651D01*
X146368750Y-86725000D01*
X146806250Y-86725000D01*
X146889962Y-86741651D01*
G37*
G04 #@! TD.AperFunction*
G04 #@! TA.AperFunction,SMDPad,CuDef*
G36*
X145314962Y-86741651D02*
G01*
X145385930Y-86789070D01*
X145433349Y-86860038D01*
X145450000Y-86943750D01*
X145450000Y-87456250D01*
X145433349Y-87539962D01*
X145385930Y-87610930D01*
X145314962Y-87658349D01*
X145231250Y-87675000D01*
X144793750Y-87675000D01*
X144710038Y-87658349D01*
X144639070Y-87610930D01*
X144591651Y-87539962D01*
X144575000Y-87456250D01*
X144575000Y-86943750D01*
X144591651Y-86860038D01*
X144639070Y-86789070D01*
X144710038Y-86741651D01*
X144793750Y-86725000D01*
X145231250Y-86725000D01*
X145314962Y-86741651D01*
G37*
G04 #@! TD.AperFunction*
G04 #@! TA.AperFunction,SMDPad,CuDef*
G36*
X146889962Y-88341651D02*
G01*
X146960930Y-88389070D01*
X147008349Y-88460038D01*
X147025000Y-88543750D01*
X147025000Y-89056250D01*
X147008349Y-89139962D01*
X146960930Y-89210930D01*
X146889962Y-89258349D01*
X146806250Y-89275000D01*
X146368750Y-89275000D01*
X146285038Y-89258349D01*
X146214070Y-89210930D01*
X146166651Y-89139962D01*
X146150000Y-89056250D01*
X146150000Y-88543750D01*
X146166651Y-88460038D01*
X146214070Y-88389070D01*
X146285038Y-88341651D01*
X146368750Y-88325000D01*
X146806250Y-88325000D01*
X146889962Y-88341651D01*
G37*
G04 #@! TD.AperFunction*
G04 #@! TA.AperFunction,SMDPad,CuDef*
G36*
X145314962Y-88341651D02*
G01*
X145385930Y-88389070D01*
X145433349Y-88460038D01*
X145450000Y-88543750D01*
X145450000Y-89056250D01*
X145433349Y-89139962D01*
X145385930Y-89210930D01*
X145314962Y-89258349D01*
X145231250Y-89275000D01*
X144793750Y-89275000D01*
X144710038Y-89258349D01*
X144639070Y-89210930D01*
X144591651Y-89139962D01*
X144575000Y-89056250D01*
X144575000Y-88543750D01*
X144591651Y-88460038D01*
X144639070Y-88389070D01*
X144710038Y-88341651D01*
X144793750Y-88325000D01*
X145231250Y-88325000D01*
X145314962Y-88341651D01*
G37*
G04 #@! TD.AperFunction*
G04 #@! TA.AperFunction,SMDPad,CuDef*
G36*
X164639962Y-104466651D02*
G01*
X164710930Y-104514070D01*
X164758349Y-104585038D01*
X164775000Y-104668750D01*
X164775000Y-105106250D01*
X164758349Y-105189962D01*
X164710930Y-105260930D01*
X164639962Y-105308349D01*
X164556250Y-105325000D01*
X164043750Y-105325000D01*
X163960038Y-105308349D01*
X163889070Y-105260930D01*
X163841651Y-105189962D01*
X163825000Y-105106250D01*
X163825000Y-104668750D01*
X163841651Y-104585038D01*
X163889070Y-104514070D01*
X163960038Y-104466651D01*
X164043750Y-104450000D01*
X164556250Y-104450000D01*
X164639962Y-104466651D01*
G37*
G04 #@! TD.AperFunction*
G04 #@! TA.AperFunction,SMDPad,CuDef*
G36*
X164639962Y-102891651D02*
G01*
X164710930Y-102939070D01*
X164758349Y-103010038D01*
X164775000Y-103093750D01*
X164775000Y-103531250D01*
X164758349Y-103614962D01*
X164710930Y-103685930D01*
X164639962Y-103733349D01*
X164556250Y-103750000D01*
X164043750Y-103750000D01*
X163960038Y-103733349D01*
X163889070Y-103685930D01*
X163841651Y-103614962D01*
X163825000Y-103531250D01*
X163825000Y-103093750D01*
X163841651Y-103010038D01*
X163889070Y-102939070D01*
X163960038Y-102891651D01*
X164043750Y-102875000D01*
X164556250Y-102875000D01*
X164639962Y-102891651D01*
G37*
G04 #@! TD.AperFunction*
G04 #@! TA.AperFunction,SMDPad,CuDef*
G36*
X160039962Y-104466651D02*
G01*
X160110930Y-104514070D01*
X160158349Y-104585038D01*
X160175000Y-104668750D01*
X160175000Y-105106250D01*
X160158349Y-105189962D01*
X160110930Y-105260930D01*
X160039962Y-105308349D01*
X159956250Y-105325000D01*
X159443750Y-105325000D01*
X159360038Y-105308349D01*
X159289070Y-105260930D01*
X159241651Y-105189962D01*
X159225000Y-105106250D01*
X159225000Y-104668750D01*
X159241651Y-104585038D01*
X159289070Y-104514070D01*
X159360038Y-104466651D01*
X159443750Y-104450000D01*
X159956250Y-104450000D01*
X160039962Y-104466651D01*
G37*
G04 #@! TD.AperFunction*
G04 #@! TA.AperFunction,SMDPad,CuDef*
G36*
X160039962Y-102891651D02*
G01*
X160110930Y-102939070D01*
X160158349Y-103010038D01*
X160175000Y-103093750D01*
X160175000Y-103531250D01*
X160158349Y-103614962D01*
X160110930Y-103685930D01*
X160039962Y-103733349D01*
X159956250Y-103750000D01*
X159443750Y-103750000D01*
X159360038Y-103733349D01*
X159289070Y-103685930D01*
X159241651Y-103614962D01*
X159225000Y-103531250D01*
X159225000Y-103093750D01*
X159241651Y-103010038D01*
X159289070Y-102939070D01*
X159360038Y-102891651D01*
X159443750Y-102875000D01*
X159956250Y-102875000D01*
X160039962Y-102891651D01*
G37*
G04 #@! TD.AperFunction*
G04 #@! TA.AperFunction,SMDPad,CuDef*
G36*
X161889962Y-88666651D02*
G01*
X161960930Y-88714070D01*
X162008349Y-88785038D01*
X162025000Y-88868750D01*
X162025000Y-89306250D01*
X162008349Y-89389962D01*
X161960930Y-89460930D01*
X161889962Y-89508349D01*
X161806250Y-89525000D01*
X161293750Y-89525000D01*
X161210038Y-89508349D01*
X161139070Y-89460930D01*
X161091651Y-89389962D01*
X161075000Y-89306250D01*
X161075000Y-88868750D01*
X161091651Y-88785038D01*
X161139070Y-88714070D01*
X161210038Y-88666651D01*
X161293750Y-88650000D01*
X161806250Y-88650000D01*
X161889962Y-88666651D01*
G37*
G04 #@! TD.AperFunction*
G04 #@! TA.AperFunction,SMDPad,CuDef*
G36*
X161889962Y-87091651D02*
G01*
X161960930Y-87139070D01*
X162008349Y-87210038D01*
X162025000Y-87293750D01*
X162025000Y-87731250D01*
X162008349Y-87814962D01*
X161960930Y-87885930D01*
X161889962Y-87933349D01*
X161806250Y-87950000D01*
X161293750Y-87950000D01*
X161210038Y-87933349D01*
X161139070Y-87885930D01*
X161091651Y-87814962D01*
X161075000Y-87731250D01*
X161075000Y-87293750D01*
X161091651Y-87210038D01*
X161139070Y-87139070D01*
X161210038Y-87091651D01*
X161293750Y-87075000D01*
X161806250Y-87075000D01*
X161889962Y-87091651D01*
G37*
G04 #@! TD.AperFunction*
D25*
X148699999Y-89731281D03*
X136300000Y-89550000D03*
X140750000Y-91600000D03*
X138250000Y-91350000D03*
X136850000Y-90874276D03*
X144000000Y-94300000D03*
X144350000Y-90950000D03*
X154150000Y-88400000D03*
X138850000Y-85500000D03*
X144100000Y-105600000D03*
X144200000Y-110200000D03*
X139800000Y-108900000D03*
X131900000Y-98900000D03*
X131900000Y-100000000D03*
X138700000Y-108741416D03*
X131900000Y-96800000D03*
X136400000Y-91600000D03*
X149600000Y-94700000D03*
X131800000Y-101200000D03*
X131800000Y-102200000D03*
X145400000Y-91500000D03*
X140400000Y-97800000D03*
X139200010Y-90274276D03*
X146500000Y-110300000D03*
X152900000Y-90700000D03*
X154550000Y-108650000D03*
X149824272Y-85775728D03*
X150501804Y-86201133D03*
X148100000Y-86500000D03*
X148099999Y-89200000D03*
X149399999Y-113800001D03*
X142100000Y-113700000D03*
X142835327Y-114015140D03*
X140700000Y-112000000D03*
X142100000Y-91500000D03*
X142900000Y-87500000D03*
X138700000Y-98900000D03*
X138800000Y-101000000D03*
X138800000Y-103000000D03*
X167500000Y-82500000D03*
X162500000Y-92500000D03*
X167500000Y-92500000D03*
X167500000Y-97500000D03*
X162500000Y-97500000D03*
X167500000Y-117500000D03*
X167500000Y-112500000D03*
X167500000Y-107500000D03*
X162500000Y-107500000D03*
X162500000Y-112500000D03*
X162500000Y-117500000D03*
X157500000Y-112500000D03*
X157500000Y-107500000D03*
X140000000Y-115000000D03*
X137500000Y-115000000D03*
X132500000Y-115000000D03*
X135000000Y-115000000D03*
X132500000Y-117500000D03*
X132500000Y-85000000D03*
X132500000Y-82500000D03*
X158900000Y-101800000D03*
X158900000Y-100600000D03*
X158900000Y-99400000D03*
X158600000Y-104900000D03*
X161000000Y-104900000D03*
X162900000Y-106200000D03*
X163100000Y-104900000D03*
X158600000Y-105800000D03*
X164300000Y-105900000D03*
X158600000Y-106700000D03*
X161000000Y-106200000D03*
X160900000Y-100600000D03*
X162900000Y-100600000D03*
X164900000Y-100600000D03*
X160900000Y-99400000D03*
X162900000Y-99400000D03*
X164900000Y-99400000D03*
X160900000Y-101800000D03*
X162900000Y-101800000D03*
X164900000Y-101800000D03*
D26*
X144099999Y-90349999D02*
X145999999Y-90349999D01*
X149400000Y-90550000D02*
X149400000Y-90450000D01*
X149400000Y-90450000D02*
X149400000Y-89550000D01*
X143950000Y-90200000D02*
X144099999Y-90349999D01*
X139200010Y-90274276D02*
X139624274Y-90274276D01*
X139698550Y-90200000D02*
X143950000Y-90200000D01*
X139624274Y-90274276D02*
X139698550Y-90200000D01*
X145999999Y-90349999D02*
X146700000Y-91050000D01*
X146700000Y-91050000D02*
X148900000Y-91050000D01*
X148900000Y-91050000D02*
X149400000Y-90550000D01*
X149400000Y-88650000D02*
X149400000Y-89550000D01*
X149400000Y-89550000D02*
X149400000Y-89750000D01*
X150200000Y-90550000D02*
X149250000Y-91500000D01*
X149250000Y-91500000D02*
X145824264Y-91500000D01*
X150200000Y-88650000D02*
X150200000Y-90550000D01*
X145824264Y-91500000D02*
X145400000Y-91500000D01*
X143390000Y-89800000D02*
X148750000Y-89800000D01*
X143090000Y-89500000D02*
X143390000Y-89800000D01*
X137500000Y-90100000D02*
X138100000Y-89500000D01*
X148750000Y-89800000D02*
X149000000Y-89550000D01*
X138100000Y-89500000D02*
X143090000Y-89500000D01*
X137500000Y-93000000D02*
X137500000Y-90100000D01*
X149000000Y-89550000D02*
X149000000Y-88650000D01*
X135998528Y-89900000D02*
X136300000Y-89598528D01*
X136300000Y-89598528D02*
X136300000Y-89550000D01*
X135150000Y-89900000D02*
X135998528Y-89900000D01*
X140750000Y-92000000D02*
X140750000Y-91600000D01*
X140800000Y-93000000D02*
X140800000Y-92050000D01*
X140800000Y-92050000D02*
X140750000Y-92000000D01*
X132050000Y-88477106D02*
X134447170Y-90874276D01*
X134447170Y-90874276D02*
X136850000Y-90874276D01*
X132050000Y-87770000D02*
X132050000Y-88477106D01*
X138600000Y-91700000D02*
X138600000Y-93000000D01*
X138250000Y-91350000D02*
X138600000Y-91700000D01*
X144000000Y-94300000D02*
X144000000Y-93100000D01*
X144000000Y-93100000D02*
X144100000Y-93000000D01*
X143809998Y-91600000D02*
X143000000Y-92409998D01*
X144124264Y-91600000D02*
X143809998Y-91600000D01*
X143000000Y-92409998D02*
X143000000Y-93000000D01*
X144124264Y-91600000D02*
X144350000Y-91374264D01*
X144100000Y-91600000D02*
X144124264Y-91600000D01*
X144350000Y-91374264D02*
X144350000Y-90950000D01*
X155037500Y-87512500D02*
X154150000Y-88400000D01*
X161550000Y-87512500D02*
X155037500Y-87512500D01*
X164650000Y-84760000D02*
X164650000Y-84887500D01*
X164650000Y-84887500D02*
X162025000Y-87512500D01*
X162025000Y-87512500D02*
X161550000Y-87512500D01*
X165500000Y-83810000D02*
X165500000Y-83910000D01*
X165500000Y-83910000D02*
X164650000Y-84760000D01*
X135300000Y-87400000D02*
X135300000Y-89750000D01*
X135300000Y-89750000D02*
X135150000Y-89900000D01*
X139912500Y-86500000D02*
X138961998Y-86500000D01*
X138961998Y-86500000D02*
X137762008Y-85300010D01*
X137762008Y-85300010D02*
X136630010Y-85300010D01*
X136630010Y-85300010D02*
X134829999Y-83499999D01*
X134829999Y-83499999D02*
X134330000Y-83000000D01*
X141487500Y-86500000D02*
X141487500Y-86975000D01*
X141487500Y-86975000D02*
X140262500Y-88200000D01*
X140262500Y-88200000D02*
X139912500Y-88200000D01*
X137300000Y-88350000D02*
X139762500Y-88350000D01*
X139762500Y-88350000D02*
X139912500Y-88200000D01*
X149000000Y-86511996D02*
X147988004Y-85500000D01*
X139274264Y-85500000D02*
X138850000Y-85500000D01*
X147988004Y-85500000D02*
X139274264Y-85500000D01*
X149000000Y-87350000D02*
X149000000Y-86511996D01*
D27*
X162787500Y-103300000D02*
X167800000Y-103300000D01*
X161184990Y-103312500D02*
X161197490Y-103300000D01*
X159700000Y-103312500D02*
X161184990Y-103312500D01*
X159700000Y-103312500D02*
X158612500Y-103312500D01*
D28*
X158600000Y-103300000D02*
X158612500Y-103312500D01*
X157150000Y-103300000D02*
X158600000Y-103300000D01*
D29*
X161000000Y-117000000D02*
X159730000Y-117000000D01*
X159730000Y-112817500D02*
X156512500Y-109600000D01*
X159730000Y-117000000D02*
X159730000Y-112817500D01*
X155100000Y-107000000D02*
X156200000Y-107000000D01*
X155100000Y-107000000D02*
X154000000Y-107000000D01*
X156200000Y-109287500D02*
X156512500Y-109600000D01*
X156200000Y-107000000D02*
X156200000Y-109287500D01*
X154000000Y-108100000D02*
X154000000Y-107000000D01*
X156512500Y-109600000D02*
X155500000Y-109600000D01*
D26*
X143400000Y-112650000D02*
X143400000Y-112900000D01*
X143400000Y-112900000D02*
X143400000Y-113000000D01*
X143800000Y-113100000D02*
X143800000Y-112650000D01*
X143799991Y-113100009D02*
X143800000Y-113100000D01*
X150840000Y-117000000D02*
X148640010Y-114800010D01*
X143799991Y-113277842D02*
X143799991Y-113100009D01*
X145322159Y-114800010D02*
X143799991Y-113277842D01*
X148640010Y-114800010D02*
X145322159Y-114800010D01*
X143399981Y-113443531D02*
X143399981Y-113000000D01*
X146156450Y-116199999D02*
X143399981Y-113443531D01*
X149570000Y-117000000D02*
X148769999Y-116199999D01*
X148769999Y-116199999D02*
X146156450Y-116199999D01*
X144100000Y-107000000D02*
X144100000Y-105600000D01*
X154150001Y-116500001D02*
X154650000Y-117000000D01*
X154150001Y-114450001D02*
X154150001Y-116500001D01*
X141350000Y-109600000D02*
X149300000Y-109600000D01*
X139700000Y-107950000D02*
X141350000Y-109600000D01*
X149631378Y-108799978D02*
X156690001Y-115858601D01*
X156690001Y-115858601D02*
X156690001Y-116500001D01*
X143449967Y-108399967D02*
X143000000Y-107950000D01*
X140800000Y-107950000D02*
X140800000Y-107000000D01*
X155920000Y-115654300D02*
X149465689Y-109199989D01*
X149300000Y-109600000D02*
X154150001Y-114450001D01*
X149859967Y-108399967D02*
X143449967Y-108399967D01*
X158460000Y-117000000D02*
X149859967Y-108399967D01*
X139700000Y-107000000D02*
X139700000Y-107950000D01*
X143000000Y-107950000D02*
X143000000Y-107000000D01*
X149465689Y-109199989D02*
X142049989Y-109199989D01*
X156690001Y-116500001D02*
X157190000Y-117000000D01*
X142749978Y-108799978D02*
X149631378Y-108799978D01*
X142049989Y-109199989D02*
X140800000Y-107950000D01*
X141900000Y-107950000D02*
X142749978Y-108799978D01*
X141900000Y-107000000D02*
X141900000Y-107950000D01*
X155920000Y-117000000D02*
X155920000Y-115654300D01*
X144200000Y-111350000D02*
X144200000Y-110200000D01*
X143800000Y-111350000D02*
X143800000Y-110850000D01*
X143800000Y-110850000D02*
X143800000Y-110688002D01*
X143112008Y-110000010D02*
X140900010Y-110000010D01*
X143800000Y-110688002D02*
X143112008Y-110000010D01*
X140900010Y-110000010D02*
X139800000Y-108900000D01*
X131900000Y-98900000D02*
X133250000Y-98900000D01*
X133250000Y-100000000D02*
X131900000Y-100000000D01*
X140358604Y-110400020D02*
X138999999Y-109041415D01*
X138999999Y-109041415D02*
X138700000Y-108741416D01*
X142946320Y-110400020D02*
X140358604Y-110400020D01*
X143400000Y-111350000D02*
X143400000Y-110853700D01*
X143400000Y-110853700D02*
X142946320Y-110400020D01*
X131900000Y-112687500D02*
X131900000Y-112600000D01*
X133550000Y-110950000D02*
X133600000Y-110950000D01*
X131900000Y-112600000D02*
X133550000Y-110950000D01*
X136562500Y-111900000D02*
X137500000Y-110962500D01*
X135600000Y-111900000D02*
X136562500Y-111900000D01*
X139225000Y-111112500D02*
X139400000Y-111112500D01*
X137500000Y-112837500D02*
X139225000Y-111112500D01*
X131900000Y-111112500D02*
X131900000Y-108700000D01*
X131900000Y-108700000D02*
X130900000Y-107700000D01*
X132111998Y-97800000D02*
X132300000Y-97800000D01*
X132300000Y-97800000D02*
X133250000Y-97800000D01*
X130900000Y-99011998D02*
X132111998Y-97800000D01*
X130900000Y-107700000D02*
X130900000Y-99011998D01*
X133150000Y-96800000D02*
X133250000Y-96700000D01*
X131900000Y-96800000D02*
X133150000Y-96800000D01*
X136400000Y-93000000D02*
X136400000Y-91600000D01*
X146737500Y-87350000D02*
X146587500Y-87200000D01*
X148600000Y-88000000D02*
X148600000Y-88650000D01*
X148450000Y-88800000D02*
X148600000Y-88650000D01*
X149600000Y-94700000D02*
X149600000Y-93000000D01*
X133250000Y-101100000D02*
X131900000Y-101100000D01*
X131900000Y-101100000D02*
X131800000Y-101200000D01*
X133250000Y-102200000D02*
X131800000Y-102200000D01*
X139700000Y-93000000D02*
X139700000Y-97100000D01*
X139700000Y-97100000D02*
X140400000Y-97800000D01*
X144600000Y-112000000D02*
X144600000Y-111350000D01*
X145962500Y-111350000D02*
X146112500Y-111200000D01*
X144600000Y-111350000D02*
X145962500Y-111350000D01*
X144750000Y-112800000D02*
X144600000Y-112650000D01*
X146112500Y-112800000D02*
X144750000Y-112800000D01*
X146112500Y-111200000D02*
X146112500Y-110687500D01*
X146112500Y-110687500D02*
X146500000Y-110300000D01*
D30*
X152900000Y-93000000D02*
X152900000Y-90700000D01*
D29*
X154550000Y-108650000D02*
X154000000Y-108100000D01*
X155500000Y-109600000D02*
X154550000Y-108650000D01*
D26*
X148150000Y-87350000D02*
X146737500Y-87350000D01*
X148600000Y-87350000D02*
X148150000Y-87350000D01*
X149800000Y-85800000D02*
X149824272Y-85775728D01*
X150200000Y-86502937D02*
X150501804Y-86201133D01*
X150200000Y-87350000D02*
X150200000Y-86502937D01*
X149800000Y-87350000D02*
X149800000Y-85800000D01*
X148100000Y-87300000D02*
X148100000Y-86924264D01*
X148100000Y-86924264D02*
X148100000Y-86500000D01*
X148150000Y-87350000D02*
X148100000Y-87300000D01*
X148300000Y-88999999D02*
X148099999Y-89200000D01*
X148300000Y-88800000D02*
X148300000Y-88999999D01*
X148300000Y-88800000D02*
X148450000Y-88800000D01*
X146587500Y-88800000D02*
X148450000Y-88800000D01*
X146112500Y-113275000D02*
X146637500Y-113800000D01*
X148975735Y-113800001D02*
X149399999Y-113800001D01*
X144200000Y-113100000D02*
X145500000Y-114400000D01*
X149111996Y-114400000D02*
X149111998Y-114400002D01*
X149510002Y-114400002D02*
X151610001Y-116500001D01*
X151610001Y-116500001D02*
X152110000Y-117000000D01*
X144200000Y-112650000D02*
X144200000Y-113100000D01*
X146112500Y-112800000D02*
X146112500Y-113275000D01*
X146637500Y-113800000D02*
X148975735Y-113800001D01*
X149111998Y-114400002D02*
X149510002Y-114400002D01*
X145500000Y-114400000D02*
X149111996Y-114400000D01*
X150200000Y-88000000D02*
X151400000Y-88000000D01*
X141900000Y-94500000D02*
X142150000Y-94750000D01*
X141900000Y-93000000D02*
X141900000Y-94500000D01*
X151800000Y-94700000D02*
X151850000Y-94750000D01*
X151800000Y-93000000D02*
X151800000Y-94700000D01*
X155450000Y-94750000D02*
X153650000Y-94750000D01*
X154000000Y-94400000D02*
X153650000Y-94750000D01*
X154000000Y-93000000D02*
X154000000Y-94400000D01*
X153650000Y-94750000D02*
X151850000Y-94750000D01*
X156200000Y-94000000D02*
X156200000Y-93000000D01*
X155450000Y-94750000D02*
X156200000Y-94000000D01*
X155700000Y-94500000D02*
X155450000Y-94750000D01*
X157150000Y-94500000D02*
X155700000Y-94500000D01*
X155450000Y-95500000D02*
X155450000Y-94750000D01*
X155550000Y-95600000D02*
X155450000Y-95500000D01*
X157150000Y-95600000D02*
X155550000Y-95600000D01*
X155450000Y-94750000D02*
X155450000Y-96850000D01*
X155450000Y-96850000D02*
X153650000Y-96850000D01*
X153650000Y-94750000D02*
X153650000Y-96850000D01*
X153650000Y-96850000D02*
X153650000Y-105250000D01*
X153650000Y-105300000D02*
X153650000Y-105250000D01*
X152900000Y-106050000D02*
X153650000Y-105300000D01*
X152900000Y-107000000D02*
X152900000Y-106050000D01*
X155450000Y-105250000D02*
X153650000Y-105250000D01*
X155450000Y-103150000D02*
X153650000Y-103150000D01*
X155450000Y-101050000D02*
X153650000Y-101050000D01*
X155450000Y-98950000D02*
X153650000Y-98950000D01*
X155450000Y-100300000D02*
X155450000Y-96850000D01*
X155450000Y-101050000D02*
X155450000Y-100300000D01*
X134950000Y-94750000D02*
X134950000Y-105250000D01*
X136750000Y-105250000D02*
X136750000Y-94750000D01*
X134700000Y-94500000D02*
X134950000Y-94750000D01*
X133250000Y-94500000D02*
X134700000Y-94500000D01*
X134950000Y-94750000D02*
X138550000Y-94750000D01*
X135300000Y-94400000D02*
X134950000Y-94750000D01*
X135300000Y-93000000D02*
X135300000Y-94400000D01*
X134200000Y-93000000D02*
X135300000Y-93000000D01*
X134200000Y-94000000D02*
X134950000Y-94750000D01*
X134200000Y-93000000D02*
X134200000Y-94000000D01*
X138550000Y-105250000D02*
X134950000Y-105250000D01*
X134700000Y-105500000D02*
X134950000Y-105250000D01*
X133250000Y-105500000D02*
X134700000Y-105500000D01*
X134800000Y-103300000D02*
X134950000Y-103150000D01*
X133250000Y-103300000D02*
X134800000Y-103300000D01*
X134950000Y-103150000D02*
X136750000Y-103150000D01*
X136750000Y-101050000D02*
X134950000Y-101050000D01*
X134950000Y-98950000D02*
X136750000Y-98950000D01*
X136750000Y-96850000D02*
X134950000Y-96850000D01*
X147687500Y-111200000D02*
X147687500Y-112800000D01*
X141087500Y-112687500D02*
X142100000Y-113700000D01*
X141950000Y-117000000D02*
X141950000Y-114900467D01*
X139400000Y-112687500D02*
X141087500Y-112687500D01*
X141950000Y-114900467D02*
X142835327Y-114015140D01*
X143000000Y-112000000D02*
X140700000Y-112000000D01*
X141900000Y-93000000D02*
X141900000Y-91700000D01*
X141900000Y-91700000D02*
X142100000Y-91500000D01*
D30*
X138732894Y-84300000D02*
X138140000Y-83707106D01*
X138140000Y-83707106D02*
X138140000Y-83000000D01*
X150000000Y-84300000D02*
X138732894Y-84300000D01*
X152900000Y-90700000D02*
X152900000Y-87200000D01*
X152900000Y-87200000D02*
X150000000Y-84300000D01*
D26*
X149400000Y-86200000D02*
X149400000Y-87350000D01*
X148100000Y-84900000D02*
X149400000Y-86200000D01*
X135600000Y-83000000D02*
X137500000Y-84900000D01*
X137500000Y-84900000D02*
X148100000Y-84900000D01*
X157150000Y-101100000D02*
X157150000Y-102200000D01*
X157150000Y-104400000D02*
X157150000Y-105500000D01*
X155450000Y-103900000D02*
X155450000Y-103150000D01*
X155950000Y-104400000D02*
X155450000Y-103900000D01*
X157150000Y-104400000D02*
X155950000Y-104400000D01*
X156200000Y-102200000D02*
X155450000Y-102950000D01*
X155450000Y-102950000D02*
X155450000Y-103150000D01*
X157150000Y-102200000D02*
X156200000Y-102200000D01*
G36*
X131727197Y-103032143D02*
G01*
X131966164Y-103017318D01*
X131966164Y-103172000D01*
X133378000Y-103172001D01*
X133377999Y-103428000D01*
X131966164Y-103427999D01*
X131966164Y-103712410D01*
X131993533Y-103850000D01*
X131966164Y-103987590D01*
X131966164Y-104812410D01*
X131993533Y-104950000D01*
X131966164Y-105087590D01*
X131966164Y-105372000D01*
X133378000Y-105372001D01*
X133377999Y-105934794D01*
X133304520Y-106044766D01*
X133266164Y-106237590D01*
X133266164Y-107762410D01*
X133304520Y-107955235D01*
X133420775Y-108129225D01*
X133594765Y-108245480D01*
X133787590Y-108283836D01*
X134612410Y-108283836D01*
X134750000Y-108256467D01*
X134887590Y-108283836D01*
X135712410Y-108283836D01*
X135850000Y-108256467D01*
X135987590Y-108283836D01*
X136812410Y-108283836D01*
X136950000Y-108256467D01*
X137087590Y-108283836D01*
X137912410Y-108283836D01*
X138015683Y-108263294D01*
X138013245Y-108265885D01*
X137903779Y-108488840D01*
X137864710Y-108734126D01*
X137899492Y-108980058D01*
X138005051Y-109204890D01*
X138172052Y-109388744D01*
X138385732Y-109515366D01*
X138627196Y-109573559D01*
X138645699Y-109572411D01*
X139217302Y-110144014D01*
X139136561Y-110144014D01*
X138913467Y-110179348D01*
X138703267Y-110286451D01*
X138632188Y-110357530D01*
X138562110Y-110236151D01*
X138392010Y-110078322D01*
X138182948Y-109977643D01*
X137962939Y-109944482D01*
X137034687Y-109944482D01*
X136764198Y-109995662D01*
X136561151Y-110112890D01*
X136403322Y-110282990D01*
X136302643Y-110492052D01*
X136269482Y-110712061D01*
X136269482Y-111014039D01*
X136255235Y-111004520D01*
X136062410Y-110966164D01*
X135137590Y-110966164D01*
X134944765Y-111004520D01*
X134770775Y-111120775D01*
X134654520Y-111294765D01*
X134616164Y-111487590D01*
X134616164Y-112312410D01*
X134654520Y-112505235D01*
X134770775Y-112679225D01*
X134944765Y-112795480D01*
X135137590Y-112833836D01*
X136062410Y-112833836D01*
X136255235Y-112795480D01*
X136269482Y-112785961D01*
X136269482Y-113090313D01*
X136320662Y-113360802D01*
X136437890Y-113563849D01*
X136607990Y-113721678D01*
X136817052Y-113822357D01*
X137037061Y-113855518D01*
X137965313Y-113855518D01*
X138235802Y-113804338D01*
X138438849Y-113687110D01*
X138596678Y-113517010D01*
X138632449Y-113442731D01*
X138703267Y-113513549D01*
X138913467Y-113620652D01*
X139136561Y-113655986D01*
X139663439Y-113655986D01*
X139886533Y-113620652D01*
X140096733Y-113513549D01*
X140263549Y-113346733D01*
X140280482Y-113313500D01*
X140828203Y-113313500D01*
X141274148Y-113759446D01*
X141299492Y-113938642D01*
X141405051Y-114163474D01*
X141572052Y-114347328D01*
X141600804Y-114364366D01*
X141526676Y-114438494D01*
X141463060Y-114491874D01*
X141421533Y-114563801D01*
X141373900Y-114631827D01*
X141366661Y-114658842D01*
X141352679Y-114683060D01*
X141338259Y-114764836D01*
X141316762Y-114845066D01*
X141324001Y-114927811D01*
X141324000Y-116183034D01*
X141315000Y-116191138D01*
X141286389Y-116165376D01*
X141099610Y-116057540D01*
X140894492Y-115990893D01*
X140680000Y-115968349D01*
X140465508Y-115990893D01*
X140260390Y-116057540D01*
X140073611Y-116165376D01*
X140045000Y-116191138D01*
X140016389Y-116165376D01*
X139829610Y-116057540D01*
X139624492Y-115990893D01*
X139410000Y-115968349D01*
X139195508Y-115990893D01*
X138990390Y-116057540D01*
X138803611Y-116165376D01*
X138775000Y-116191138D01*
X138746389Y-116165376D01*
X138559610Y-116057540D01*
X138268000Y-115962789D01*
X138267999Y-118037210D01*
X138559610Y-117942460D01*
X138746389Y-117834624D01*
X138775000Y-117808862D01*
X138803611Y-117834624D01*
X138990390Y-117942460D01*
X139195508Y-118009107D01*
X139410000Y-118031651D01*
X139624492Y-118009107D01*
X139829610Y-117942460D01*
X140016389Y-117834624D01*
X140045000Y-117808862D01*
X140073611Y-117834624D01*
X140260390Y-117942460D01*
X140465508Y-118009107D01*
X140680000Y-118031651D01*
X140894492Y-118009107D01*
X141099610Y-117942460D01*
X141286389Y-117834624D01*
X141315000Y-117808862D01*
X141343611Y-117834624D01*
X141530390Y-117942460D01*
X141735508Y-118009107D01*
X141950000Y-118031651D01*
X142164492Y-118009107D01*
X142369610Y-117942460D01*
X142556389Y-117834624D01*
X142585000Y-117808862D01*
X142613611Y-117834624D01*
X142800390Y-117942460D01*
X143005508Y-118009107D01*
X143220000Y-118031651D01*
X143434492Y-118009107D01*
X143639610Y-117942460D01*
X143826389Y-117834624D01*
X143855000Y-117808862D01*
X143883611Y-117834624D01*
X144070390Y-117942460D01*
X144275508Y-118009107D01*
X144490000Y-118031651D01*
X144704492Y-118009107D01*
X144909610Y-117942460D01*
X145096389Y-117834624D01*
X145125000Y-117808862D01*
X145153611Y-117834624D01*
X145340390Y-117942460D01*
X145545508Y-118009107D01*
X145760000Y-118031651D01*
X145974492Y-118009107D01*
X146179610Y-117942460D01*
X146366389Y-117834624D01*
X146395000Y-117808862D01*
X146423611Y-117834624D01*
X146610390Y-117942460D01*
X146815508Y-118009107D01*
X147030000Y-118031651D01*
X147244492Y-118009107D01*
X147449610Y-117942460D01*
X147636389Y-117834624D01*
X147665000Y-117808862D01*
X147693611Y-117834624D01*
X147880390Y-117942460D01*
X148085508Y-118009107D01*
X148300000Y-118031651D01*
X148514492Y-118009107D01*
X148719610Y-117942460D01*
X148906389Y-117834624D01*
X148935000Y-117808862D01*
X148963611Y-117834624D01*
X149150390Y-117942460D01*
X149355508Y-118009107D01*
X149570000Y-118031651D01*
X149784492Y-118009107D01*
X149989610Y-117942460D01*
X150176389Y-117834624D01*
X150205000Y-117808862D01*
X150233611Y-117834624D01*
X150420390Y-117942460D01*
X150625508Y-118009107D01*
X150840000Y-118031651D01*
X151054492Y-118009107D01*
X151259610Y-117942460D01*
X151446389Y-117834624D01*
X151475000Y-117808862D01*
X151503611Y-117834624D01*
X151690390Y-117942460D01*
X151895508Y-118009107D01*
X152110000Y-118031651D01*
X152324492Y-118009107D01*
X152529610Y-117942460D01*
X152716389Y-117834624D01*
X152745000Y-117808862D01*
X152773611Y-117834624D01*
X152960390Y-117942460D01*
X153252000Y-118037211D01*
X153252001Y-115962790D01*
X152960390Y-116057540D01*
X152773611Y-116165376D01*
X152745000Y-116191138D01*
X152716389Y-116165376D01*
X152529610Y-116057540D01*
X152324492Y-115990893D01*
X152110000Y-115968349D01*
X151977565Y-115982268D01*
X150152415Y-114157119D01*
X150224021Y-113937387D01*
X150226294Y-113677017D01*
X150153320Y-113439070D01*
X150013889Y-113233520D01*
X149820183Y-113078054D01*
X149589326Y-112986418D01*
X149341730Y-112966713D01*
X149099286Y-113020685D01*
X148883429Y-113143557D01*
X148854789Y-113174002D01*
X148638474Y-113174002D01*
X148677436Y-112928000D01*
X147559500Y-112927999D01*
X147559501Y-112672000D01*
X148677438Y-112672001D01*
X148620652Y-112313467D01*
X148513549Y-112103267D01*
X148410282Y-112000000D01*
X148513549Y-111896733D01*
X148620652Y-111686532D01*
X148677436Y-111328000D01*
X147559500Y-111327999D01*
X147559501Y-111072000D01*
X148677438Y-111072001D01*
X148620652Y-110713467D01*
X148513549Y-110503267D01*
X148346733Y-110336451D01*
X148136533Y-110229348D01*
X148115394Y-110226000D01*
X149040704Y-110226000D01*
X153524001Y-114709298D01*
X153524002Y-115967993D01*
X153508000Y-115962794D01*
X153507999Y-118037210D01*
X153799610Y-117942460D01*
X153986389Y-117834624D01*
X154015000Y-117808862D01*
X154043611Y-117834624D01*
X154230390Y-117942460D01*
X154435508Y-118009107D01*
X154650000Y-118031651D01*
X154864492Y-118009107D01*
X155069610Y-117942460D01*
X155256389Y-117834624D01*
X155285000Y-117808862D01*
X155313611Y-117834624D01*
X155500390Y-117942460D01*
X155705508Y-118009107D01*
X155920000Y-118031651D01*
X156134492Y-118009107D01*
X156339610Y-117942460D01*
X156526389Y-117834624D01*
X156555000Y-117808862D01*
X156583611Y-117834624D01*
X156770390Y-117942460D01*
X156975508Y-118009107D01*
X157190000Y-118031651D01*
X157404492Y-118009107D01*
X157609610Y-117942460D01*
X157796389Y-117834624D01*
X157825000Y-117808862D01*
X157853611Y-117834624D01*
X158040390Y-117942460D01*
X158245508Y-118009107D01*
X158460000Y-118031651D01*
X158674492Y-118009107D01*
X158879610Y-117942460D01*
X159066389Y-117834624D01*
X159095000Y-117808862D01*
X159123611Y-117834624D01*
X159310390Y-117942460D01*
X159515508Y-118009107D01*
X159730000Y-118031651D01*
X159944492Y-118009107D01*
X160149610Y-117942460D01*
X160184911Y-117922079D01*
X160294765Y-117995480D01*
X160487590Y-118033836D01*
X161512410Y-118033836D01*
X161705235Y-117995480D01*
X161879225Y-117879225D01*
X161995480Y-117705235D01*
X162033836Y-117512410D01*
X162033836Y-116487590D01*
X161995480Y-116294765D01*
X161879225Y-116120775D01*
X161705235Y-116004520D01*
X161512410Y-115966164D01*
X160606000Y-115966164D01*
X160606000Y-112915639D01*
X160612147Y-112888475D01*
X160606000Y-112789405D01*
X160606000Y-112754674D01*
X160602199Y-112728124D01*
X160596609Y-112638033D01*
X160584487Y-112604454D01*
X160579425Y-112569110D01*
X160542062Y-112486933D01*
X160511273Y-112401648D01*
X160490554Y-112373648D01*
X160475568Y-112340689D01*
X160408993Y-112263426D01*
X160392534Y-112241183D01*
X160372980Y-112221630D01*
X160311775Y-112150598D01*
X160283845Y-112132495D01*
X158659398Y-110508049D01*
X158746733Y-110463549D01*
X158913549Y-110296733D01*
X159020652Y-110086532D01*
X159077436Y-109728000D01*
X157959500Y-109728000D01*
X157959500Y-109472000D01*
X158215500Y-109472000D01*
X159077436Y-109472000D01*
X159020652Y-109113468D01*
X158913549Y-108903267D01*
X158746733Y-108736451D01*
X158536532Y-108629348D01*
X158215500Y-108578502D01*
X158215500Y-109472000D01*
X157959500Y-109472000D01*
X157959500Y-108578502D01*
X157638468Y-108629348D01*
X157428267Y-108736451D01*
X157300000Y-108864718D01*
X157171733Y-108736451D01*
X157076000Y-108687672D01*
X157076000Y-107984389D01*
X157095480Y-107955235D01*
X157133836Y-107762410D01*
X157133836Y-106926000D01*
X165351875Y-106926000D01*
X165388775Y-106981225D01*
X165562765Y-107097480D01*
X165755590Y-107135836D01*
X167672000Y-107135836D01*
X167672000Y-106926000D01*
X167927999Y-106926000D01*
X167927999Y-107135836D01*
X169474000Y-107135836D01*
X169474000Y-118436812D01*
X169471612Y-118446607D01*
X169454235Y-118657969D01*
X169415619Y-118811708D01*
X169352417Y-118957061D01*
X169329821Y-118991989D01*
X168992700Y-119329110D01*
X168896490Y-119382221D01*
X168747068Y-119435134D01*
X168581847Y-119464565D01*
X168465083Y-119470071D01*
X168446110Y-119474000D01*
X131563188Y-119474000D01*
X131553393Y-119471612D01*
X131342031Y-119454235D01*
X131188292Y-119415619D01*
X131042939Y-119352417D01*
X131008011Y-119329821D01*
X130670890Y-118992700D01*
X130617779Y-118896490D01*
X130564866Y-118747068D01*
X130535435Y-118581847D01*
X130529929Y-118465083D01*
X130526000Y-118446110D01*
X130526000Y-117127999D01*
X133308284Y-117127999D01*
X133348842Y-117318798D01*
X133436564Y-117515825D01*
X133563334Y-117690309D01*
X133723611Y-117834624D01*
X133910390Y-117942460D01*
X134202000Y-118037211D01*
X134202001Y-117128000D01*
X133308284Y-117127999D01*
X130526000Y-117127999D01*
X130526000Y-116872000D01*
X134202000Y-116872001D01*
X134457999Y-116872001D01*
X134458000Y-116872001D01*
X134457999Y-118037210D01*
X134749610Y-117942460D01*
X134936389Y-117834624D01*
X134965000Y-117808862D01*
X134993611Y-117834624D01*
X135180390Y-117942460D01*
X135472000Y-118037211D01*
X135472000Y-116872001D01*
X135727999Y-116872001D01*
X135728000Y-116872001D01*
X135727999Y-118037210D01*
X136019610Y-117942460D01*
X136206389Y-117834624D01*
X136235000Y-117808862D01*
X136263611Y-117834624D01*
X136450390Y-117942460D01*
X136742000Y-118037211D01*
X136742000Y-116872001D01*
X136997999Y-116872001D01*
X136998000Y-116872001D01*
X136997999Y-118037210D01*
X137289610Y-117942460D01*
X137476389Y-117834624D01*
X137505000Y-117808862D01*
X137533611Y-117834624D01*
X137720390Y-117942460D01*
X138012000Y-118037211D01*
X138012001Y-115962790D01*
X137720390Y-116057540D01*
X137533611Y-116165376D01*
X137505000Y-116191138D01*
X137476389Y-116165376D01*
X137289610Y-116057540D01*
X136998000Y-115962789D01*
X136997999Y-116872001D01*
X136742000Y-116872001D01*
X136742001Y-115962790D01*
X136450390Y-116057540D01*
X136263611Y-116165376D01*
X136235000Y-116191138D01*
X136206389Y-116165376D01*
X136019610Y-116057540D01*
X135728000Y-115962789D01*
X135727999Y-116872001D01*
X135472000Y-116872001D01*
X135472001Y-115962790D01*
X135180390Y-116057540D01*
X134993611Y-116165376D01*
X134965000Y-116191138D01*
X134936389Y-116165376D01*
X134749610Y-116057540D01*
X134458000Y-115962789D01*
X134457999Y-116872001D01*
X134202000Y-116872001D01*
X134202001Y-115962790D01*
X133910390Y-116057540D01*
X133723611Y-116165376D01*
X133563334Y-116309691D01*
X133436564Y-116484175D01*
X133348842Y-116681201D01*
X133308283Y-116872000D01*
X130526000Y-116872000D01*
X130526000Y-108211296D01*
X131274001Y-108959297D01*
X131274000Y-110250410D01*
X131203267Y-110286451D01*
X131036451Y-110453267D01*
X130929348Y-110663467D01*
X130894014Y-110886561D01*
X130894014Y-111338439D01*
X130929348Y-111561533D01*
X131036451Y-111771733D01*
X131164718Y-111900000D01*
X131036451Y-112028267D01*
X130929348Y-112238467D01*
X130894014Y-112461561D01*
X130894014Y-112913439D01*
X130929348Y-113136533D01*
X131036451Y-113346733D01*
X131203267Y-113513549D01*
X131413467Y-113620652D01*
X131636561Y-113655986D01*
X132163439Y-113655986D01*
X132386533Y-113620652D01*
X132596733Y-113513549D01*
X132654731Y-113455551D01*
X132770775Y-113629225D01*
X132944765Y-113745480D01*
X133137590Y-113783836D01*
X133472000Y-113783836D01*
X133472000Y-112978000D01*
X133728000Y-112978000D01*
X133728000Y-113783836D01*
X134062410Y-113783836D01*
X134255235Y-113745480D01*
X134429225Y-113629225D01*
X134545480Y-113455235D01*
X134583836Y-113262410D01*
X134583836Y-112978000D01*
X133728000Y-112978000D01*
X133472000Y-112978000D01*
X133472000Y-111916164D01*
X133728000Y-111916164D01*
X133728000Y-112722000D01*
X134583836Y-112722000D01*
X134583836Y-112437590D01*
X134545480Y-112244765D01*
X134429225Y-112070775D01*
X134255235Y-111954520D01*
X134062410Y-111916164D01*
X133728000Y-111916164D01*
X133472000Y-111916164D01*
X133469133Y-111916164D01*
X133501461Y-111883836D01*
X134062410Y-111883836D01*
X134255235Y-111845480D01*
X134429225Y-111729225D01*
X134545480Y-111555235D01*
X134583836Y-111362410D01*
X134583836Y-110537590D01*
X134545480Y-110344765D01*
X134429225Y-110170775D01*
X134255235Y-110054520D01*
X134062410Y-110016164D01*
X133137590Y-110016164D01*
X132944765Y-110054520D01*
X132770775Y-110170775D01*
X132654731Y-110344449D01*
X132596733Y-110286451D01*
X132526000Y-110250410D01*
X132526000Y-108727318D01*
X132533238Y-108644600D01*
X132511744Y-108564380D01*
X132497322Y-108482592D01*
X132483338Y-108458372D01*
X132476101Y-108431360D01*
X132428468Y-108363333D01*
X132386941Y-108291407D01*
X132323311Y-108238015D01*
X131526000Y-107440704D01*
X131526000Y-105912410D01*
X131966164Y-105912410D01*
X132004520Y-106105235D01*
X132120775Y-106279225D01*
X132294765Y-106395480D01*
X132487590Y-106433836D01*
X133122000Y-106433836D01*
X133122001Y-105628000D01*
X131966164Y-105627999D01*
X131966164Y-105912410D01*
X131526000Y-105912410D01*
X131526000Y-102983655D01*
X131727197Y-103032143D01*
G37*
D31*
X131727197Y-103032143D02*
X131966164Y-103017318D01*
X131966164Y-103172000D01*
X133378000Y-103172001D01*
X133377999Y-103428000D01*
X131966164Y-103427999D01*
X131966164Y-103712410D01*
X131993533Y-103850000D01*
X131966164Y-103987590D01*
X131966164Y-104812410D01*
X131993533Y-104950000D01*
X131966164Y-105087590D01*
X131966164Y-105372000D01*
X133378000Y-105372001D01*
X133377999Y-105934794D01*
X133304520Y-106044766D01*
X133266164Y-106237590D01*
X133266164Y-107762410D01*
X133304520Y-107955235D01*
X133420775Y-108129225D01*
X133594765Y-108245480D01*
X133787590Y-108283836D01*
X134612410Y-108283836D01*
X134750000Y-108256467D01*
X134887590Y-108283836D01*
X135712410Y-108283836D01*
X135850000Y-108256467D01*
X135987590Y-108283836D01*
X136812410Y-108283836D01*
X136950000Y-108256467D01*
X137087590Y-108283836D01*
X137912410Y-108283836D01*
X138015683Y-108263294D01*
X138013245Y-108265885D01*
X137903779Y-108488840D01*
X137864710Y-108734126D01*
X137899492Y-108980058D01*
X138005051Y-109204890D01*
X138172052Y-109388744D01*
X138385732Y-109515366D01*
X138627196Y-109573559D01*
X138645699Y-109572411D01*
X139217302Y-110144014D01*
X139136561Y-110144014D01*
X138913467Y-110179348D01*
X138703267Y-110286451D01*
X138632188Y-110357530D01*
X138562110Y-110236151D01*
X138392010Y-110078322D01*
X138182948Y-109977643D01*
X137962939Y-109944482D01*
X137034687Y-109944482D01*
X136764198Y-109995662D01*
X136561151Y-110112890D01*
X136403322Y-110282990D01*
X136302643Y-110492052D01*
X136269482Y-110712061D01*
X136269482Y-111014039D01*
X136255235Y-111004520D01*
X136062410Y-110966164D01*
X135137590Y-110966164D01*
X134944765Y-111004520D01*
X134770775Y-111120775D01*
X134654520Y-111294765D01*
X134616164Y-111487590D01*
X134616164Y-112312410D01*
X134654520Y-112505235D01*
X134770775Y-112679225D01*
X134944765Y-112795480D01*
X135137590Y-112833836D01*
X136062410Y-112833836D01*
X136255235Y-112795480D01*
X136269482Y-112785961D01*
X136269482Y-113090313D01*
X136320662Y-113360802D01*
X136437890Y-113563849D01*
X136607990Y-113721678D01*
X136817052Y-113822357D01*
X137037061Y-113855518D01*
X137965313Y-113855518D01*
X138235802Y-113804338D01*
X138438849Y-113687110D01*
X138596678Y-113517010D01*
X138632449Y-113442731D01*
X138703267Y-113513549D01*
X138913467Y-113620652D01*
X139136561Y-113655986D01*
X139663439Y-113655986D01*
X139886533Y-113620652D01*
X140096733Y-113513549D01*
X140263549Y-113346733D01*
X140280482Y-113313500D01*
X140828203Y-113313500D01*
X141274148Y-113759446D01*
X141299492Y-113938642D01*
X141405051Y-114163474D01*
X141572052Y-114347328D01*
X141600804Y-114364366D01*
X141526676Y-114438494D01*
X141463060Y-114491874D01*
X141421533Y-114563801D01*
X141373900Y-114631827D01*
X141366661Y-114658842D01*
X141352679Y-114683060D01*
X141338259Y-114764836D01*
X141316762Y-114845066D01*
X141324001Y-114927811D01*
X141324000Y-116183034D01*
X141315000Y-116191138D01*
X141286389Y-116165376D01*
X141099610Y-116057540D01*
X140894492Y-115990893D01*
X140680000Y-115968349D01*
X140465508Y-115990893D01*
X140260390Y-116057540D01*
X140073611Y-116165376D01*
X140045000Y-116191138D01*
X140016389Y-116165376D01*
X139829610Y-116057540D01*
X139624492Y-115990893D01*
X139410000Y-115968349D01*
X139195508Y-115990893D01*
X138990390Y-116057540D01*
X138803611Y-116165376D01*
X138775000Y-116191138D01*
X138746389Y-116165376D01*
X138559610Y-116057540D01*
X138268000Y-115962789D01*
X138267999Y-118037210D01*
X138559610Y-117942460D01*
X138746389Y-117834624D01*
X138775000Y-117808862D01*
X138803611Y-117834624D01*
X138990390Y-117942460D01*
X139195508Y-118009107D01*
X139410000Y-118031651D01*
X139624492Y-118009107D01*
X139829610Y-117942460D01*
X140016389Y-117834624D01*
X140045000Y-117808862D01*
X140073611Y-117834624D01*
X140260390Y-117942460D01*
X140465508Y-118009107D01*
X140680000Y-118031651D01*
X140894492Y-118009107D01*
X141099610Y-117942460D01*
X141286389Y-117834624D01*
X141315000Y-117808862D01*
X141343611Y-117834624D01*
X141530390Y-117942460D01*
X141735508Y-118009107D01*
X141950000Y-118031651D01*
X142164492Y-118009107D01*
X142369610Y-117942460D01*
X142556389Y-117834624D01*
X142585000Y-117808862D01*
X142613611Y-117834624D01*
X142800390Y-117942460D01*
X143005508Y-118009107D01*
X143220000Y-118031651D01*
X143434492Y-118009107D01*
X143639610Y-117942460D01*
X143826389Y-117834624D01*
X143855000Y-117808862D01*
X143883611Y-117834624D01*
X144070390Y-117942460D01*
X144275508Y-118009107D01*
X144490000Y-118031651D01*
X144704492Y-118009107D01*
X144909610Y-117942460D01*
X145096389Y-117834624D01*
X145125000Y-117808862D01*
X145153611Y-117834624D01*
X145340390Y-117942460D01*
X145545508Y-118009107D01*
X145760000Y-118031651D01*
X145974492Y-118009107D01*
X146179610Y-117942460D01*
X146366389Y-117834624D01*
X146395000Y-117808862D01*
X146423611Y-117834624D01*
X146610390Y-117942460D01*
X146815508Y-118009107D01*
X147030000Y-118031651D01*
X147244492Y-118009107D01*
X147449610Y-117942460D01*
X147636389Y-117834624D01*
X147665000Y-117808862D01*
X147693611Y-117834624D01*
X147880390Y-117942460D01*
X148085508Y-118009107D01*
X148300000Y-118031651D01*
X148514492Y-118009107D01*
X148719610Y-117942460D01*
X148906389Y-117834624D01*
X148935000Y-117808862D01*
X148963611Y-117834624D01*
X149150390Y-117942460D01*
X149355508Y-118009107D01*
X149570000Y-118031651D01*
X149784492Y-118009107D01*
X149989610Y-117942460D01*
X150176389Y-117834624D01*
X150205000Y-117808862D01*
X150233611Y-117834624D01*
X150420390Y-117942460D01*
X150625508Y-118009107D01*
X150840000Y-118031651D01*
X151054492Y-118009107D01*
X151259610Y-117942460D01*
X151446389Y-117834624D01*
X151475000Y-117808862D01*
X151503611Y-117834624D01*
X151690390Y-117942460D01*
X151895508Y-118009107D01*
X152110000Y-118031651D01*
X152324492Y-118009107D01*
X152529610Y-117942460D01*
X152716389Y-117834624D01*
X152745000Y-117808862D01*
X152773611Y-117834624D01*
X152960390Y-117942460D01*
X153252000Y-118037211D01*
X153252001Y-115962790D01*
X152960390Y-116057540D01*
X152773611Y-116165376D01*
X152745000Y-116191138D01*
X152716389Y-116165376D01*
X152529610Y-116057540D01*
X152324492Y-115990893D01*
X152110000Y-115968349D01*
X151977565Y-115982268D01*
X150152415Y-114157119D01*
X150224021Y-113937387D01*
X150226294Y-113677017D01*
X150153320Y-113439070D01*
X150013889Y-113233520D01*
X149820183Y-113078054D01*
X149589326Y-112986418D01*
X149341730Y-112966713D01*
X149099286Y-113020685D01*
X148883429Y-113143557D01*
X148854789Y-113174002D01*
X148638474Y-113174002D01*
X148677436Y-112928000D01*
X147559500Y-112927999D01*
X147559501Y-112672000D01*
X148677438Y-112672001D01*
X148620652Y-112313467D01*
X148513549Y-112103267D01*
X148410282Y-112000000D01*
X148513549Y-111896733D01*
X148620652Y-111686532D01*
X148677436Y-111328000D01*
X147559500Y-111327999D01*
X147559501Y-111072000D01*
X148677438Y-111072001D01*
X148620652Y-110713467D01*
X148513549Y-110503267D01*
X148346733Y-110336451D01*
X148136533Y-110229348D01*
X148115394Y-110226000D01*
X149040704Y-110226000D01*
X153524001Y-114709298D01*
X153524002Y-115967993D01*
X153508000Y-115962794D01*
X153507999Y-118037210D01*
X153799610Y-117942460D01*
X153986389Y-117834624D01*
X154015000Y-117808862D01*
X154043611Y-117834624D01*
X154230390Y-117942460D01*
X154435508Y-118009107D01*
X154650000Y-118031651D01*
X154864492Y-118009107D01*
X155069610Y-117942460D01*
X155256389Y-117834624D01*
X155285000Y-117808862D01*
X155313611Y-117834624D01*
X155500390Y-117942460D01*
X155705508Y-118009107D01*
X155920000Y-118031651D01*
X156134492Y-118009107D01*
X156339610Y-117942460D01*
X156526389Y-117834624D01*
X156555000Y-117808862D01*
X156583611Y-117834624D01*
X156770390Y-117942460D01*
X156975508Y-118009107D01*
X157190000Y-118031651D01*
X157404492Y-118009107D01*
X157609610Y-117942460D01*
X157796389Y-117834624D01*
X157825000Y-117808862D01*
X157853611Y-117834624D01*
X158040390Y-117942460D01*
X158245508Y-118009107D01*
X158460000Y-118031651D01*
X158674492Y-118009107D01*
X158879610Y-117942460D01*
X159066389Y-117834624D01*
X159095000Y-117808862D01*
X159123611Y-117834624D01*
X159310390Y-117942460D01*
X159515508Y-118009107D01*
X159730000Y-118031651D01*
X159944492Y-118009107D01*
X160149610Y-117942460D01*
X160184911Y-117922079D01*
X160294765Y-117995480D01*
X160487590Y-118033836D01*
X161512410Y-118033836D01*
X161705235Y-117995480D01*
X161879225Y-117879225D01*
X161995480Y-117705235D01*
X162033836Y-117512410D01*
X162033836Y-116487590D01*
X161995480Y-116294765D01*
X161879225Y-116120775D01*
X161705235Y-116004520D01*
X161512410Y-115966164D01*
X160606000Y-115966164D01*
X160606000Y-112915639D01*
X160612147Y-112888475D01*
X160606000Y-112789405D01*
X160606000Y-112754674D01*
X160602199Y-112728124D01*
X160596609Y-112638033D01*
X160584487Y-112604454D01*
X160579425Y-112569110D01*
X160542062Y-112486933D01*
X160511273Y-112401648D01*
X160490554Y-112373648D01*
X160475568Y-112340689D01*
X160408993Y-112263426D01*
X160392534Y-112241183D01*
X160372980Y-112221630D01*
X160311775Y-112150598D01*
X160283845Y-112132495D01*
X158659398Y-110508049D01*
X158746733Y-110463549D01*
X158913549Y-110296733D01*
X159020652Y-110086532D01*
X159077436Y-109728000D01*
X157959500Y-109728000D01*
X157959500Y-109472000D01*
X158215500Y-109472000D01*
X159077436Y-109472000D01*
X159020652Y-109113468D01*
X158913549Y-108903267D01*
X158746733Y-108736451D01*
X158536532Y-108629348D01*
X158215500Y-108578502D01*
X158215500Y-109472000D01*
X157959500Y-109472000D01*
X157959500Y-108578502D01*
X157638468Y-108629348D01*
X157428267Y-108736451D01*
X157300000Y-108864718D01*
X157171733Y-108736451D01*
X157076000Y-108687672D01*
X157076000Y-107984389D01*
X157095480Y-107955235D01*
X157133836Y-107762410D01*
X157133836Y-106926000D01*
X165351875Y-106926000D01*
X165388775Y-106981225D01*
X165562765Y-107097480D01*
X165755590Y-107135836D01*
X167672000Y-107135836D01*
X167672000Y-106926000D01*
X167927999Y-106926000D01*
X167927999Y-107135836D01*
X169474000Y-107135836D01*
X169474000Y-118436812D01*
X169471612Y-118446607D01*
X169454235Y-118657969D01*
X169415619Y-118811708D01*
X169352417Y-118957061D01*
X169329821Y-118991989D01*
X168992700Y-119329110D01*
X168896490Y-119382221D01*
X168747068Y-119435134D01*
X168581847Y-119464565D01*
X168465083Y-119470071D01*
X168446110Y-119474000D01*
X131563188Y-119474000D01*
X131553393Y-119471612D01*
X131342031Y-119454235D01*
X131188292Y-119415619D01*
X131042939Y-119352417D01*
X131008011Y-119329821D01*
X130670890Y-118992700D01*
X130617779Y-118896490D01*
X130564866Y-118747068D01*
X130535435Y-118581847D01*
X130529929Y-118465083D01*
X130526000Y-118446110D01*
X130526000Y-117127999D01*
X133308284Y-117127999D01*
X133348842Y-117318798D01*
X133436564Y-117515825D01*
X133563334Y-117690309D01*
X133723611Y-117834624D01*
X133910390Y-117942460D01*
X134202000Y-118037211D01*
X134202001Y-117128000D01*
X133308284Y-117127999D01*
X130526000Y-117127999D01*
X130526000Y-116872000D01*
X134202000Y-116872001D01*
X134457999Y-116872001D01*
X134458000Y-116872001D01*
X134457999Y-118037210D01*
X134749610Y-117942460D01*
X134936389Y-117834624D01*
X134965000Y-117808862D01*
X134993611Y-117834624D01*
X135180390Y-117942460D01*
X135472000Y-118037211D01*
X135472000Y-116872001D01*
X135727999Y-116872001D01*
X135728000Y-116872001D01*
X135727999Y-118037210D01*
X136019610Y-117942460D01*
X136206389Y-117834624D01*
X136235000Y-117808862D01*
X136263611Y-117834624D01*
X136450390Y-117942460D01*
X136742000Y-118037211D01*
X136742000Y-116872001D01*
X136997999Y-116872001D01*
X136998000Y-116872001D01*
X136997999Y-118037210D01*
X137289610Y-117942460D01*
X137476389Y-117834624D01*
X137505000Y-117808862D01*
X137533611Y-117834624D01*
X137720390Y-117942460D01*
X138012000Y-118037211D01*
X138012001Y-115962790D01*
X137720390Y-116057540D01*
X137533611Y-116165376D01*
X137505000Y-116191138D01*
X137476389Y-116165376D01*
X137289610Y-116057540D01*
X136998000Y-115962789D01*
X136997999Y-116872001D01*
X136742000Y-116872001D01*
X136742001Y-115962790D01*
X136450390Y-116057540D01*
X136263611Y-116165376D01*
X136235000Y-116191138D01*
X136206389Y-116165376D01*
X136019610Y-116057540D01*
X135728000Y-115962789D01*
X135727999Y-116872001D01*
X135472000Y-116872001D01*
X135472001Y-115962790D01*
X135180390Y-116057540D01*
X134993611Y-116165376D01*
X134965000Y-116191138D01*
X134936389Y-116165376D01*
X134749610Y-116057540D01*
X134458000Y-115962789D01*
X134457999Y-116872001D01*
X134202000Y-116872001D01*
X134202001Y-115962790D01*
X133910390Y-116057540D01*
X133723611Y-116165376D01*
X133563334Y-116309691D01*
X133436564Y-116484175D01*
X133348842Y-116681201D01*
X133308283Y-116872000D01*
X130526000Y-116872000D01*
X130526000Y-108211296D01*
X131274001Y-108959297D01*
X131274000Y-110250410D01*
X131203267Y-110286451D01*
X131036451Y-110453267D01*
X130929348Y-110663467D01*
X130894014Y-110886561D01*
X130894014Y-111338439D01*
X130929348Y-111561533D01*
X131036451Y-111771733D01*
X131164718Y-111900000D01*
X131036451Y-112028267D01*
X130929348Y-112238467D01*
X130894014Y-112461561D01*
X130894014Y-112913439D01*
X130929348Y-113136533D01*
X131036451Y-113346733D01*
X131203267Y-113513549D01*
X131413467Y-113620652D01*
X131636561Y-113655986D01*
X132163439Y-113655986D01*
X132386533Y-113620652D01*
X132596733Y-113513549D01*
X132654731Y-113455551D01*
X132770775Y-113629225D01*
X132944765Y-113745480D01*
X133137590Y-113783836D01*
X133472000Y-113783836D01*
X133472000Y-112978000D01*
X133728000Y-112978000D01*
X133728000Y-113783836D01*
X134062410Y-113783836D01*
X134255235Y-113745480D01*
X134429225Y-113629225D01*
X134545480Y-113455235D01*
X134583836Y-113262410D01*
X134583836Y-112978000D01*
X133728000Y-112978000D01*
X133472000Y-112978000D01*
X133472000Y-111916164D01*
X133728000Y-111916164D01*
X133728000Y-112722000D01*
X134583836Y-112722000D01*
X134583836Y-112437590D01*
X134545480Y-112244765D01*
X134429225Y-112070775D01*
X134255235Y-111954520D01*
X134062410Y-111916164D01*
X133728000Y-111916164D01*
X133472000Y-111916164D01*
X133469133Y-111916164D01*
X133501461Y-111883836D01*
X134062410Y-111883836D01*
X134255235Y-111845480D01*
X134429225Y-111729225D01*
X134545480Y-111555235D01*
X134583836Y-111362410D01*
X134583836Y-110537590D01*
X134545480Y-110344765D01*
X134429225Y-110170775D01*
X134255235Y-110054520D01*
X134062410Y-110016164D01*
X133137590Y-110016164D01*
X132944765Y-110054520D01*
X132770775Y-110170775D01*
X132654731Y-110344449D01*
X132596733Y-110286451D01*
X132526000Y-110250410D01*
X132526000Y-108727318D01*
X132533238Y-108644600D01*
X132511744Y-108564380D01*
X132497322Y-108482592D01*
X132483338Y-108458372D01*
X132476101Y-108431360D01*
X132428468Y-108363333D01*
X132386941Y-108291407D01*
X132323311Y-108238015D01*
X131526000Y-107440704D01*
X131526000Y-105912410D01*
X131966164Y-105912410D01*
X132004520Y-106105235D01*
X132120775Y-106279225D01*
X132294765Y-106395480D01*
X132487590Y-106433836D01*
X133122000Y-106433836D01*
X133122001Y-105628000D01*
X131966164Y-105627999D01*
X131966164Y-105912410D01*
X131526000Y-105912410D01*
X131526000Y-102983655D01*
X131727197Y-103032143D01*
G36*
X153028000Y-108283836D02*
G01*
X153134969Y-108283836D01*
X153145513Y-108313045D01*
X153150575Y-108348389D01*
X153187938Y-108430566D01*
X153218727Y-108515851D01*
X153239446Y-108543851D01*
X153254432Y-108576809D01*
X153321017Y-108654086D01*
X153337467Y-108676316D01*
X153357015Y-108695864D01*
X153418225Y-108766902D01*
X153446155Y-108785005D01*
X153974991Y-109313841D01*
X154811178Y-110150029D01*
X154826040Y-110173585D01*
X154900456Y-110239306D01*
X154925000Y-110263851D01*
X154946453Y-110279929D01*
X155014116Y-110339687D01*
X155046433Y-110354860D01*
X155075003Y-110376272D01*
X155159521Y-110407955D01*
X155241607Y-110446495D01*
X155276058Y-110451643D01*
X155309959Y-110464352D01*
X155411669Y-110471910D01*
X155439035Y-110476000D01*
X155466692Y-110476000D01*
X155560193Y-110482948D01*
X155592742Y-110476000D01*
X155877703Y-110476000D01*
X156063467Y-110570652D01*
X156278334Y-110604683D01*
X158854001Y-113180351D01*
X158854000Y-116049219D01*
X158674492Y-115990893D01*
X158460000Y-115968349D01*
X158327565Y-115982268D01*
X150629132Y-108283836D01*
X151112410Y-108283836D01*
X151250000Y-108256467D01*
X151387590Y-108283836D01*
X152212410Y-108283836D01*
X152350000Y-108256467D01*
X152487590Y-108283836D01*
X152772000Y-108283836D01*
X152772000Y-106872000D01*
X153028000Y-106872000D01*
X153028000Y-108283836D01*
G37*
X153028000Y-108283836D02*
X153134969Y-108283836D01*
X153145513Y-108313045D01*
X153150575Y-108348389D01*
X153187938Y-108430566D01*
X153218727Y-108515851D01*
X153239446Y-108543851D01*
X153254432Y-108576809D01*
X153321017Y-108654086D01*
X153337467Y-108676316D01*
X153357015Y-108695864D01*
X153418225Y-108766902D01*
X153446155Y-108785005D01*
X153974991Y-109313841D01*
X154811178Y-110150029D01*
X154826040Y-110173585D01*
X154900456Y-110239306D01*
X154925000Y-110263851D01*
X154946453Y-110279929D01*
X155014116Y-110339687D01*
X155046433Y-110354860D01*
X155075003Y-110376272D01*
X155159521Y-110407955D01*
X155241607Y-110446495D01*
X155276058Y-110451643D01*
X155309959Y-110464352D01*
X155411669Y-110471910D01*
X155439035Y-110476000D01*
X155466692Y-110476000D01*
X155560193Y-110482948D01*
X155592742Y-110476000D01*
X155877703Y-110476000D01*
X156063467Y-110570652D01*
X156278334Y-110604683D01*
X158854001Y-113180351D01*
X158854000Y-116049219D01*
X158674492Y-115990893D01*
X158460000Y-115968349D01*
X158327565Y-115982268D01*
X150629132Y-108283836D01*
X151112410Y-108283836D01*
X151250000Y-108256467D01*
X151387590Y-108283836D01*
X152212410Y-108283836D01*
X152350000Y-108256467D01*
X152487590Y-108283836D01*
X152772000Y-108283836D01*
X152772000Y-106872000D01*
X153028000Y-106872000D01*
X153028000Y-108283836D01*
G36*
X142366164Y-111037590D02*
G01*
X142366164Y-111490448D01*
X142320775Y-111520775D01*
X142204520Y-111694765D01*
X142166164Y-111887590D01*
X142166164Y-112112410D01*
X142204520Y-112305235D01*
X142320775Y-112479225D01*
X142366164Y-112509552D01*
X142366164Y-112916917D01*
X142289327Y-112886417D01*
X142161544Y-112876248D01*
X141549484Y-112264188D01*
X141496093Y-112200558D01*
X141424160Y-112159028D01*
X141356140Y-112111400D01*
X141329128Y-112104162D01*
X141304907Y-112090178D01*
X141223120Y-112075756D01*
X141142901Y-112054262D01*
X141060167Y-112061500D01*
X140280482Y-112061500D01*
X140263549Y-112028267D01*
X140135282Y-111900000D01*
X140263549Y-111771733D01*
X140370652Y-111561533D01*
X140405986Y-111338439D01*
X140405986Y-111026020D01*
X142368465Y-111026020D01*
X142366164Y-111037590D01*
G37*
X142366164Y-111037590D02*
X142366164Y-111490448D01*
X142320775Y-111520775D01*
X142204520Y-111694765D01*
X142166164Y-111887590D01*
X142166164Y-112112410D01*
X142204520Y-112305235D01*
X142320775Y-112479225D01*
X142366164Y-112509552D01*
X142366164Y-112916917D01*
X142289327Y-112886417D01*
X142161544Y-112876248D01*
X141549484Y-112264188D01*
X141496093Y-112200558D01*
X141424160Y-112159028D01*
X141356140Y-112111400D01*
X141329128Y-112104162D01*
X141304907Y-112090178D01*
X141223120Y-112075756D01*
X141142901Y-112054262D01*
X141060167Y-112061500D01*
X140280482Y-112061500D01*
X140263549Y-112028267D01*
X140135282Y-111900000D01*
X140263549Y-111771733D01*
X140370652Y-111561533D01*
X140405986Y-111338439D01*
X140405986Y-111026020D01*
X142368465Y-111026020D01*
X142366164Y-111037590D01*
G36*
X140487590Y-94283836D02*
G01*
X141066164Y-94283836D01*
X141066164Y-94622000D01*
X143233836Y-94622001D01*
X143233836Y-94611792D01*
X143305051Y-94763474D01*
X143472052Y-94947328D01*
X143685732Y-95073950D01*
X143927197Y-95132143D01*
X144175099Y-95116764D01*
X144407520Y-95029171D01*
X144603911Y-94877109D01*
X144746907Y-94674022D01*
X144824022Y-94437386D01*
X144825362Y-94283836D01*
X145612410Y-94283836D01*
X145750000Y-94256467D01*
X145887590Y-94283836D01*
X146712410Y-94283836D01*
X146850000Y-94256467D01*
X146987590Y-94283836D01*
X147166164Y-94283836D01*
X147166164Y-94622000D01*
X148378000Y-94622001D01*
X148377999Y-95833836D01*
X148812410Y-95833836D01*
X149005235Y-95795480D01*
X149179225Y-95679225D01*
X149295480Y-95505235D01*
X149300972Y-95477623D01*
X149527197Y-95532143D01*
X149775099Y-95516764D01*
X150007520Y-95429171D01*
X150158319Y-95312410D01*
X150766164Y-95312410D01*
X150804520Y-95505235D01*
X150920775Y-95679225D01*
X151094765Y-95795480D01*
X151287590Y-95833836D01*
X151722000Y-95833836D01*
X151722001Y-94878000D01*
X150766164Y-94877999D01*
X150766164Y-95312410D01*
X150158319Y-95312410D01*
X150203911Y-95277109D01*
X150346907Y-95074022D01*
X150424022Y-94837386D01*
X150426295Y-94577016D01*
X150353321Y-94339069D01*
X150315855Y-94283836D01*
X150766164Y-94283836D01*
X150766164Y-94622000D01*
X151978000Y-94622001D01*
X151977999Y-95833836D01*
X152412410Y-95833836D01*
X152605235Y-95795480D01*
X152750000Y-95698752D01*
X152894765Y-95795480D01*
X152917488Y-95800000D01*
X152894765Y-95804520D01*
X152720775Y-95920775D01*
X152604520Y-96094765D01*
X152566164Y-96287590D01*
X152566164Y-96722000D01*
X153778000Y-96722001D01*
X153777999Y-96978000D01*
X152566164Y-96977999D01*
X152566164Y-97412410D01*
X152604520Y-97605235D01*
X152720775Y-97779225D01*
X152894765Y-97895480D01*
X152917488Y-97900000D01*
X152894765Y-97904520D01*
X152720775Y-98020775D01*
X152604520Y-98194765D01*
X152566164Y-98387590D01*
X152566164Y-98822000D01*
X153778000Y-98822001D01*
X153777999Y-99078000D01*
X152566164Y-99077999D01*
X152566164Y-99512410D01*
X152604520Y-99705235D01*
X152720775Y-99879225D01*
X152894765Y-99995480D01*
X152917488Y-100000000D01*
X152894765Y-100004520D01*
X152720775Y-100120775D01*
X152604520Y-100294765D01*
X152566164Y-100487590D01*
X152566164Y-100922000D01*
X153778000Y-100922001D01*
X153777999Y-101178000D01*
X152566164Y-101177999D01*
X152566164Y-101612410D01*
X152604520Y-101805235D01*
X152720775Y-101979225D01*
X152894765Y-102095480D01*
X152917488Y-102100000D01*
X152894765Y-102104520D01*
X152720775Y-102220775D01*
X152604520Y-102394765D01*
X152566164Y-102587590D01*
X152566164Y-103022000D01*
X153778000Y-103022001D01*
X153777999Y-103278000D01*
X152566164Y-103277999D01*
X152566164Y-103712410D01*
X152604520Y-103905235D01*
X152720775Y-104079225D01*
X152894765Y-104195480D01*
X152917488Y-104200000D01*
X152894765Y-104204520D01*
X152750000Y-104301248D01*
X152605235Y-104204520D01*
X152412410Y-104166164D01*
X151978000Y-104166164D01*
X151977999Y-105378000D01*
X150766164Y-105377999D01*
X150766164Y-105716164D01*
X150287590Y-105716164D01*
X150150000Y-105743533D01*
X150012410Y-105716164D01*
X149333836Y-105716164D01*
X149333836Y-105378000D01*
X147166164Y-105377999D01*
X147166164Y-105716164D01*
X146987590Y-105716164D01*
X146850000Y-105743533D01*
X146712410Y-105716164D01*
X145887590Y-105716164D01*
X145750000Y-105743533D01*
X145612410Y-105716164D01*
X145328000Y-105716164D01*
X145328000Y-107128000D01*
X145072000Y-107128000D01*
X145072000Y-105716164D01*
X144924207Y-105716164D01*
X144926295Y-105477016D01*
X144853321Y-105239069D01*
X144713890Y-105033519D01*
X144520184Y-104878053D01*
X144289327Y-104786417D01*
X144041731Y-104766712D01*
X143799287Y-104820684D01*
X143583430Y-104943556D01*
X143413245Y-105124469D01*
X143303779Y-105347424D01*
X143264710Y-105592710D01*
X143282170Y-105716164D01*
X143233836Y-105716164D01*
X143233836Y-105378000D01*
X141066164Y-105377999D01*
X141066164Y-105716164D01*
X140487590Y-105716164D01*
X140294765Y-105754520D01*
X140250000Y-105784431D01*
X140205235Y-105754520D01*
X140012410Y-105716164D01*
X139633836Y-105716164D01*
X139633836Y-105378000D01*
X138422000Y-105377999D01*
X138422000Y-105122000D01*
X139633836Y-105122001D01*
X139633836Y-104687590D01*
X141066164Y-104687590D01*
X141066164Y-105122000D01*
X143233836Y-105122001D01*
X143233836Y-104687590D01*
X147166164Y-104687590D01*
X147166164Y-105122000D01*
X149333836Y-105122001D01*
X149333836Y-104687590D01*
X150766164Y-104687590D01*
X150766164Y-105122000D01*
X151722000Y-105122001D01*
X151722001Y-104166164D01*
X151287590Y-104166164D01*
X151094765Y-104204520D01*
X150920775Y-104320775D01*
X150804520Y-104494765D01*
X150766164Y-104687590D01*
X149333836Y-104687590D01*
X149295480Y-104494765D01*
X149179225Y-104320775D01*
X149005235Y-104204520D01*
X148812410Y-104166164D01*
X148378000Y-104166164D01*
X148377999Y-105122000D01*
X148122000Y-105122000D01*
X148122001Y-104166164D01*
X147687590Y-104166164D01*
X147494765Y-104204520D01*
X147320775Y-104320775D01*
X147204520Y-104494765D01*
X147166164Y-104687590D01*
X143233836Y-104687590D01*
X143195480Y-104494765D01*
X143079225Y-104320775D01*
X142905235Y-104204520D01*
X142712410Y-104166164D01*
X142278000Y-104166164D01*
X142277999Y-105122000D01*
X142022000Y-105122000D01*
X142022001Y-104166164D01*
X141587590Y-104166164D01*
X141394765Y-104204520D01*
X141220775Y-104320775D01*
X141104520Y-104494765D01*
X141066164Y-104687590D01*
X139633836Y-104687590D01*
X139595480Y-104494765D01*
X139479225Y-104320775D01*
X139305235Y-104204520D01*
X139112410Y-104166164D01*
X138678000Y-104166164D01*
X138677999Y-105122000D01*
X138422000Y-105122000D01*
X138422001Y-104166164D01*
X137987590Y-104166164D01*
X137794765Y-104204520D01*
X137650000Y-104301248D01*
X137505235Y-104204520D01*
X137482512Y-104200000D01*
X137505235Y-104195480D01*
X137679225Y-104079225D01*
X137795480Y-103905235D01*
X137833836Y-103712410D01*
X137833836Y-103278000D01*
X136622000Y-103277999D01*
X136622001Y-103022000D01*
X137833836Y-103022001D01*
X137833836Y-102587590D01*
X137795480Y-102394765D01*
X137679225Y-102220775D01*
X137505235Y-102104520D01*
X137482512Y-102100000D01*
X137505235Y-102095480D01*
X137679225Y-101979225D01*
X137795480Y-101805235D01*
X137833836Y-101612410D01*
X137833836Y-101178000D01*
X136622000Y-101177999D01*
X136622001Y-100922000D01*
X137833836Y-100922001D01*
X137833836Y-100487590D01*
X137795480Y-100294765D01*
X137679225Y-100120775D01*
X137505235Y-100004520D01*
X137482512Y-100000000D01*
X137505235Y-99995480D01*
X137679225Y-99879225D01*
X137795480Y-99705235D01*
X137833836Y-99512410D01*
X137833836Y-99078000D01*
X136622000Y-99077999D01*
X136622001Y-98822000D01*
X137833836Y-98822001D01*
X137833836Y-98387590D01*
X137795480Y-98194765D01*
X137679225Y-98020775D01*
X137505235Y-97904520D01*
X137482512Y-97900000D01*
X137505235Y-97895480D01*
X137679225Y-97779225D01*
X137795480Y-97605235D01*
X137833836Y-97412410D01*
X137833836Y-96978000D01*
X136622000Y-96977999D01*
X136622001Y-96722000D01*
X137833836Y-96722001D01*
X137833836Y-96287590D01*
X137795480Y-96094765D01*
X137679225Y-95920775D01*
X137505235Y-95804520D01*
X137482512Y-95800000D01*
X137505235Y-95795480D01*
X137650000Y-95698752D01*
X137794765Y-95795480D01*
X137987590Y-95833836D01*
X138422000Y-95833836D01*
X138422001Y-94622000D01*
X138678000Y-94622001D01*
X138677999Y-95833836D01*
X139074001Y-95833836D01*
X139074001Y-97072670D01*
X139066762Y-97155401D01*
X139088259Y-97235631D01*
X139102679Y-97317407D01*
X139116661Y-97341625D01*
X139123900Y-97368640D01*
X139171533Y-97436666D01*
X139213059Y-97508593D01*
X139276677Y-97561974D01*
X139574148Y-97859446D01*
X139599492Y-98038642D01*
X139705051Y-98263474D01*
X139872052Y-98447328D01*
X140085732Y-98573950D01*
X140327197Y-98632143D01*
X140575099Y-98616764D01*
X140807520Y-98529171D01*
X141003911Y-98377109D01*
X141146907Y-98174022D01*
X141224022Y-97937386D01*
X141226295Y-97677016D01*
X141153321Y-97439069D01*
X141013890Y-97233519D01*
X140820184Y-97078053D01*
X140589327Y-96986417D01*
X140461544Y-96976248D01*
X140326000Y-96840704D01*
X140326000Y-95312410D01*
X141066164Y-95312410D01*
X141104520Y-95505235D01*
X141220775Y-95679225D01*
X141394765Y-95795480D01*
X141587590Y-95833836D01*
X142022000Y-95833836D01*
X142277999Y-95833836D01*
X142712410Y-95833836D01*
X142905235Y-95795480D01*
X143079225Y-95679225D01*
X143195480Y-95505235D01*
X143233836Y-95312410D01*
X147166164Y-95312410D01*
X147204520Y-95505235D01*
X147320775Y-95679225D01*
X147494765Y-95795480D01*
X147687590Y-95833836D01*
X148122000Y-95833836D01*
X148122001Y-94878000D01*
X147166164Y-94877999D01*
X147166164Y-95312410D01*
X143233836Y-95312410D01*
X143233836Y-94878000D01*
X142278000Y-94877999D01*
X142277999Y-95833836D01*
X142022000Y-95833836D01*
X142022001Y-94878000D01*
X141066164Y-94877999D01*
X141066164Y-95312410D01*
X140326000Y-95312410D01*
X140326000Y-94251693D01*
X140487590Y-94283836D01*
G37*
X140487590Y-94283836D02*
X141066164Y-94283836D01*
X141066164Y-94622000D01*
X143233836Y-94622001D01*
X143233836Y-94611792D01*
X143305051Y-94763474D01*
X143472052Y-94947328D01*
X143685732Y-95073950D01*
X143927197Y-95132143D01*
X144175099Y-95116764D01*
X144407520Y-95029171D01*
X144603911Y-94877109D01*
X144746907Y-94674022D01*
X144824022Y-94437386D01*
X144825362Y-94283836D01*
X145612410Y-94283836D01*
X145750000Y-94256467D01*
X145887590Y-94283836D01*
X146712410Y-94283836D01*
X146850000Y-94256467D01*
X146987590Y-94283836D01*
X147166164Y-94283836D01*
X147166164Y-94622000D01*
X148378000Y-94622001D01*
X148377999Y-95833836D01*
X148812410Y-95833836D01*
X149005235Y-95795480D01*
X149179225Y-95679225D01*
X149295480Y-95505235D01*
X149300972Y-95477623D01*
X149527197Y-95532143D01*
X149775099Y-95516764D01*
X150007520Y-95429171D01*
X150158319Y-95312410D01*
X150766164Y-95312410D01*
X150804520Y-95505235D01*
X150920775Y-95679225D01*
X151094765Y-95795480D01*
X151287590Y-95833836D01*
X151722000Y-95833836D01*
X151722001Y-94878000D01*
X150766164Y-94877999D01*
X150766164Y-95312410D01*
X150158319Y-95312410D01*
X150203911Y-95277109D01*
X150346907Y-95074022D01*
X150424022Y-94837386D01*
X150426295Y-94577016D01*
X150353321Y-94339069D01*
X150315855Y-94283836D01*
X150766164Y-94283836D01*
X150766164Y-94622000D01*
X151978000Y-94622001D01*
X151977999Y-95833836D01*
X152412410Y-95833836D01*
X152605235Y-95795480D01*
X152750000Y-95698752D01*
X152894765Y-95795480D01*
X152917488Y-95800000D01*
X152894765Y-95804520D01*
X152720775Y-95920775D01*
X152604520Y-96094765D01*
X152566164Y-96287590D01*
X152566164Y-96722000D01*
X153778000Y-96722001D01*
X153777999Y-96978000D01*
X152566164Y-96977999D01*
X152566164Y-97412410D01*
X152604520Y-97605235D01*
X152720775Y-97779225D01*
X152894765Y-97895480D01*
X152917488Y-97900000D01*
X152894765Y-97904520D01*
X152720775Y-98020775D01*
X152604520Y-98194765D01*
X152566164Y-98387590D01*
X152566164Y-98822000D01*
X153778000Y-98822001D01*
X153777999Y-99078000D01*
X152566164Y-99077999D01*
X152566164Y-99512410D01*
X152604520Y-99705235D01*
X152720775Y-99879225D01*
X152894765Y-99995480D01*
X152917488Y-100000000D01*
X152894765Y-100004520D01*
X152720775Y-100120775D01*
X152604520Y-100294765D01*
X152566164Y-100487590D01*
X152566164Y-100922000D01*
X153778000Y-100922001D01*
X153777999Y-101178000D01*
X152566164Y-101177999D01*
X152566164Y-101612410D01*
X152604520Y-101805235D01*
X152720775Y-101979225D01*
X152894765Y-102095480D01*
X152917488Y-102100000D01*
X152894765Y-102104520D01*
X152720775Y-102220775D01*
X152604520Y-102394765D01*
X152566164Y-102587590D01*
X152566164Y-103022000D01*
X153778000Y-103022001D01*
X153777999Y-103278000D01*
X152566164Y-103277999D01*
X152566164Y-103712410D01*
X152604520Y-103905235D01*
X152720775Y-104079225D01*
X152894765Y-104195480D01*
X152917488Y-104200000D01*
X152894765Y-104204520D01*
X152750000Y-104301248D01*
X152605235Y-104204520D01*
X152412410Y-104166164D01*
X151978000Y-104166164D01*
X151977999Y-105378000D01*
X150766164Y-105377999D01*
X150766164Y-105716164D01*
X150287590Y-105716164D01*
X150150000Y-105743533D01*
X150012410Y-105716164D01*
X149333836Y-105716164D01*
X149333836Y-105378000D01*
X147166164Y-105377999D01*
X147166164Y-105716164D01*
X146987590Y-105716164D01*
X146850000Y-105743533D01*
X146712410Y-105716164D01*
X145887590Y-105716164D01*
X145750000Y-105743533D01*
X145612410Y-105716164D01*
X145328000Y-105716164D01*
X145328000Y-107128000D01*
X145072000Y-107128000D01*
X145072000Y-105716164D01*
X144924207Y-105716164D01*
X144926295Y-105477016D01*
X144853321Y-105239069D01*
X144713890Y-105033519D01*
X144520184Y-104878053D01*
X144289327Y-104786417D01*
X144041731Y-104766712D01*
X143799287Y-104820684D01*
X143583430Y-104943556D01*
X143413245Y-105124469D01*
X143303779Y-105347424D01*
X143264710Y-105592710D01*
X143282170Y-105716164D01*
X143233836Y-105716164D01*
X143233836Y-105378000D01*
X141066164Y-105377999D01*
X141066164Y-105716164D01*
X140487590Y-105716164D01*
X140294765Y-105754520D01*
X140250000Y-105784431D01*
X140205235Y-105754520D01*
X140012410Y-105716164D01*
X139633836Y-105716164D01*
X139633836Y-105378000D01*
X138422000Y-105377999D01*
X138422000Y-105122000D01*
X139633836Y-105122001D01*
X139633836Y-104687590D01*
X141066164Y-104687590D01*
X141066164Y-105122000D01*
X143233836Y-105122001D01*
X143233836Y-104687590D01*
X147166164Y-104687590D01*
X147166164Y-105122000D01*
X149333836Y-105122001D01*
X149333836Y-104687590D01*
X150766164Y-104687590D01*
X150766164Y-105122000D01*
X151722000Y-105122001D01*
X151722001Y-104166164D01*
X151287590Y-104166164D01*
X151094765Y-104204520D01*
X150920775Y-104320775D01*
X150804520Y-104494765D01*
X150766164Y-104687590D01*
X149333836Y-104687590D01*
X149295480Y-104494765D01*
X149179225Y-104320775D01*
X149005235Y-104204520D01*
X148812410Y-104166164D01*
X148378000Y-104166164D01*
X148377999Y-105122000D01*
X148122000Y-105122000D01*
X148122001Y-104166164D01*
X147687590Y-104166164D01*
X147494765Y-104204520D01*
X147320775Y-104320775D01*
X147204520Y-104494765D01*
X147166164Y-104687590D01*
X143233836Y-104687590D01*
X143195480Y-104494765D01*
X143079225Y-104320775D01*
X142905235Y-104204520D01*
X142712410Y-104166164D01*
X142278000Y-104166164D01*
X142277999Y-105122000D01*
X142022000Y-105122000D01*
X142022001Y-104166164D01*
X141587590Y-104166164D01*
X141394765Y-104204520D01*
X141220775Y-104320775D01*
X141104520Y-104494765D01*
X141066164Y-104687590D01*
X139633836Y-104687590D01*
X139595480Y-104494765D01*
X139479225Y-104320775D01*
X139305235Y-104204520D01*
X139112410Y-104166164D01*
X138678000Y-104166164D01*
X138677999Y-105122000D01*
X138422000Y-105122000D01*
X138422001Y-104166164D01*
X137987590Y-104166164D01*
X137794765Y-104204520D01*
X137650000Y-104301248D01*
X137505235Y-104204520D01*
X137482512Y-104200000D01*
X137505235Y-104195480D01*
X137679225Y-104079225D01*
X137795480Y-103905235D01*
X137833836Y-103712410D01*
X137833836Y-103278000D01*
X136622000Y-103277999D01*
X136622001Y-103022000D01*
X137833836Y-103022001D01*
X137833836Y-102587590D01*
X137795480Y-102394765D01*
X137679225Y-102220775D01*
X137505235Y-102104520D01*
X137482512Y-102100000D01*
X137505235Y-102095480D01*
X137679225Y-101979225D01*
X137795480Y-101805235D01*
X137833836Y-101612410D01*
X137833836Y-101178000D01*
X136622000Y-101177999D01*
X136622001Y-100922000D01*
X137833836Y-100922001D01*
X137833836Y-100487590D01*
X137795480Y-100294765D01*
X137679225Y-100120775D01*
X137505235Y-100004520D01*
X137482512Y-100000000D01*
X137505235Y-99995480D01*
X137679225Y-99879225D01*
X137795480Y-99705235D01*
X137833836Y-99512410D01*
X137833836Y-99078000D01*
X136622000Y-99077999D01*
X136622001Y-98822000D01*
X137833836Y-98822001D01*
X137833836Y-98387590D01*
X137795480Y-98194765D01*
X137679225Y-98020775D01*
X137505235Y-97904520D01*
X137482512Y-97900000D01*
X137505235Y-97895480D01*
X137679225Y-97779225D01*
X137795480Y-97605235D01*
X137833836Y-97412410D01*
X137833836Y-96978000D01*
X136622000Y-96977999D01*
X136622001Y-96722000D01*
X137833836Y-96722001D01*
X137833836Y-96287590D01*
X137795480Y-96094765D01*
X137679225Y-95920775D01*
X137505235Y-95804520D01*
X137482512Y-95800000D01*
X137505235Y-95795480D01*
X137650000Y-95698752D01*
X137794765Y-95795480D01*
X137987590Y-95833836D01*
X138422000Y-95833836D01*
X138422001Y-94622000D01*
X138678000Y-94622001D01*
X138677999Y-95833836D01*
X139074001Y-95833836D01*
X139074001Y-97072670D01*
X139066762Y-97155401D01*
X139088259Y-97235631D01*
X139102679Y-97317407D01*
X139116661Y-97341625D01*
X139123900Y-97368640D01*
X139171533Y-97436666D01*
X139213059Y-97508593D01*
X139276677Y-97561974D01*
X139574148Y-97859446D01*
X139599492Y-98038642D01*
X139705051Y-98263474D01*
X139872052Y-98447328D01*
X140085732Y-98573950D01*
X140327197Y-98632143D01*
X140575099Y-98616764D01*
X140807520Y-98529171D01*
X141003911Y-98377109D01*
X141146907Y-98174022D01*
X141224022Y-97937386D01*
X141226295Y-97677016D01*
X141153321Y-97439069D01*
X141013890Y-97233519D01*
X140820184Y-97078053D01*
X140589327Y-96986417D01*
X140461544Y-96976248D01*
X140326000Y-96840704D01*
X140326000Y-95312410D01*
X141066164Y-95312410D01*
X141104520Y-95505235D01*
X141220775Y-95679225D01*
X141394765Y-95795480D01*
X141587590Y-95833836D01*
X142022000Y-95833836D01*
X142277999Y-95833836D01*
X142712410Y-95833836D01*
X142905235Y-95795480D01*
X143079225Y-95679225D01*
X143195480Y-95505235D01*
X143233836Y-95312410D01*
X147166164Y-95312410D01*
X147204520Y-95505235D01*
X147320775Y-95679225D01*
X147494765Y-95795480D01*
X147687590Y-95833836D01*
X148122000Y-95833836D01*
X148122001Y-94878000D01*
X147166164Y-94877999D01*
X147166164Y-95312410D01*
X143233836Y-95312410D01*
X143233836Y-94878000D01*
X142278000Y-94877999D01*
X142277999Y-95833836D01*
X142022000Y-95833836D01*
X142022001Y-94878000D01*
X141066164Y-94877999D01*
X141066164Y-95312410D01*
X140326000Y-95312410D01*
X140326000Y-94251693D01*
X140487590Y-94283836D01*
G36*
X162152980Y-104173343D02*
G01*
X162393645Y-104305650D01*
X162736220Y-104371000D01*
X163476046Y-104371000D01*
X163428092Y-104459611D01*
X163394372Y-104661684D01*
X163394372Y-104863500D01*
X165205628Y-104863501D01*
X165205628Y-104664302D01*
X165186271Y-104509013D01*
X165125733Y-104371000D01*
X167867375Y-104371000D01*
X167900009Y-104366877D01*
X169574000Y-104366877D01*
X169574000Y-104646123D01*
X167824000Y-104646123D01*
X167823999Y-105864000D01*
X165336123Y-105863999D01*
X165336123Y-106614410D01*
X165347977Y-106674000D01*
X157031877Y-106674000D01*
X157031877Y-106331877D01*
X157126000Y-106331877D01*
X157173999Y-106331877D01*
X157912410Y-106331877D01*
X158066217Y-106301282D01*
X158207129Y-106207129D01*
X158301282Y-106066217D01*
X158331877Y-105912410D01*
X158331877Y-105524000D01*
X157174000Y-105524000D01*
X157173999Y-106331877D01*
X157126000Y-106331877D01*
X157126000Y-105476000D01*
X158331877Y-105476001D01*
X158331877Y-105110698D01*
X158794372Y-105110698D01*
X158813729Y-105265987D01*
X158899203Y-105460850D01*
X159045126Y-105619364D01*
X159234611Y-105721908D01*
X159436684Y-105755628D01*
X159676000Y-105755628D01*
X159723999Y-105755628D01*
X159960698Y-105755628D01*
X160115987Y-105736271D01*
X160310850Y-105650797D01*
X160469364Y-105504874D01*
X160571908Y-105315389D01*
X160605628Y-105113316D01*
X160605628Y-105110698D01*
X163394372Y-105110698D01*
X163413729Y-105265987D01*
X163499203Y-105460850D01*
X163645126Y-105619364D01*
X163834611Y-105721908D01*
X164036684Y-105755628D01*
X164276000Y-105755628D01*
X164323999Y-105755628D01*
X164560698Y-105755628D01*
X164715987Y-105736271D01*
X164910850Y-105650797D01*
X165069364Y-105504874D01*
X165171908Y-105315389D01*
X165205628Y-105113316D01*
X165205628Y-105065590D01*
X165336123Y-105065590D01*
X165336123Y-105816000D01*
X167776000Y-105816001D01*
X167776001Y-104646123D01*
X165755590Y-104646123D01*
X165601783Y-104676718D01*
X165460871Y-104770871D01*
X165366718Y-104911783D01*
X165336123Y-105065590D01*
X165205628Y-105065590D01*
X165205628Y-104911500D01*
X164324000Y-104911499D01*
X164323999Y-105755628D01*
X164276000Y-105755628D01*
X164276001Y-104911500D01*
X163394372Y-104911499D01*
X163394372Y-105110698D01*
X160605628Y-105110698D01*
X160605628Y-104911500D01*
X159724000Y-104911499D01*
X159723999Y-105755628D01*
X159676000Y-105755628D01*
X159676001Y-104911500D01*
X158794372Y-104911499D01*
X158794372Y-105110698D01*
X158331877Y-105110698D01*
X158331877Y-105087590D01*
X158304508Y-104950000D01*
X158331877Y-104812410D01*
X158331877Y-104424000D01*
X157126000Y-104424000D01*
X157126000Y-104376000D01*
X158331877Y-104376001D01*
X158331877Y-104339750D01*
X158561220Y-104383500D01*
X158869281Y-104383500D01*
X158828092Y-104459611D01*
X158794372Y-104661684D01*
X158794372Y-104863500D01*
X160605628Y-104863501D01*
X160605628Y-104664302D01*
X160586271Y-104509013D01*
X160531216Y-104383500D01*
X161066754Y-104383500D01*
X161083399Y-104387221D01*
X161201785Y-104383500D01*
X161252366Y-104383500D01*
X161269117Y-104381383D01*
X161353863Y-104378720D01*
X161402843Y-104364490D01*
X161453454Y-104358096D01*
X161532307Y-104326877D01*
X161617594Y-104302098D01*
X161649284Y-104280562D01*
X161705048Y-104258483D01*
X161923967Y-104099430D01*
X161978013Y-104034098D01*
X161990936Y-104021175D01*
X162152980Y-104173343D01*
G37*
X162152980Y-104173343D02*
X162393645Y-104305650D01*
X162736220Y-104371000D01*
X163476046Y-104371000D01*
X163428092Y-104459611D01*
X163394372Y-104661684D01*
X163394372Y-104863500D01*
X165205628Y-104863501D01*
X165205628Y-104664302D01*
X165186271Y-104509013D01*
X165125733Y-104371000D01*
X167867375Y-104371000D01*
X167900009Y-104366877D01*
X169574000Y-104366877D01*
X169574000Y-104646123D01*
X167824000Y-104646123D01*
X167823999Y-105864000D01*
X165336123Y-105863999D01*
X165336123Y-106614410D01*
X165347977Y-106674000D01*
X157031877Y-106674000D01*
X157031877Y-106331877D01*
X157126000Y-106331877D01*
X157173999Y-106331877D01*
X157912410Y-106331877D01*
X158066217Y-106301282D01*
X158207129Y-106207129D01*
X158301282Y-106066217D01*
X158331877Y-105912410D01*
X158331877Y-105524000D01*
X157174000Y-105524000D01*
X157173999Y-106331877D01*
X157126000Y-106331877D01*
X157126000Y-105476000D01*
X158331877Y-105476001D01*
X158331877Y-105110698D01*
X158794372Y-105110698D01*
X158813729Y-105265987D01*
X158899203Y-105460850D01*
X159045126Y-105619364D01*
X159234611Y-105721908D01*
X159436684Y-105755628D01*
X159676000Y-105755628D01*
X159723999Y-105755628D01*
X159960698Y-105755628D01*
X160115987Y-105736271D01*
X160310850Y-105650797D01*
X160469364Y-105504874D01*
X160571908Y-105315389D01*
X160605628Y-105113316D01*
X160605628Y-105110698D01*
X163394372Y-105110698D01*
X163413729Y-105265987D01*
X163499203Y-105460850D01*
X163645126Y-105619364D01*
X163834611Y-105721908D01*
X164036684Y-105755628D01*
X164276000Y-105755628D01*
X164323999Y-105755628D01*
X164560698Y-105755628D01*
X164715987Y-105736271D01*
X164910850Y-105650797D01*
X165069364Y-105504874D01*
X165171908Y-105315389D01*
X165205628Y-105113316D01*
X165205628Y-105065590D01*
X165336123Y-105065590D01*
X165336123Y-105816000D01*
X167776000Y-105816001D01*
X167776001Y-104646123D01*
X165755590Y-104646123D01*
X165601783Y-104676718D01*
X165460871Y-104770871D01*
X165366718Y-104911783D01*
X165336123Y-105065590D01*
X165205628Y-105065590D01*
X165205628Y-104911500D01*
X164324000Y-104911499D01*
X164323999Y-105755628D01*
X164276000Y-105755628D01*
X164276001Y-104911500D01*
X163394372Y-104911499D01*
X163394372Y-105110698D01*
X160605628Y-105110698D01*
X160605628Y-104911500D01*
X159724000Y-104911499D01*
X159723999Y-105755628D01*
X159676000Y-105755628D01*
X159676001Y-104911500D01*
X158794372Y-104911499D01*
X158794372Y-105110698D01*
X158331877Y-105110698D01*
X158331877Y-105087590D01*
X158304508Y-104950000D01*
X158331877Y-104812410D01*
X158331877Y-104424000D01*
X157126000Y-104424000D01*
X157126000Y-104376000D01*
X158331877Y-104376001D01*
X158331877Y-104339750D01*
X158561220Y-104383500D01*
X158869281Y-104383500D01*
X158828092Y-104459611D01*
X158794372Y-104661684D01*
X158794372Y-104863500D01*
X160605628Y-104863501D01*
X160605628Y-104664302D01*
X160586271Y-104509013D01*
X160531216Y-104383500D01*
X161066754Y-104383500D01*
X161083399Y-104387221D01*
X161201785Y-104383500D01*
X161252366Y-104383500D01*
X161269117Y-104381383D01*
X161353863Y-104378720D01*
X161402843Y-104364490D01*
X161453454Y-104358096D01*
X161532307Y-104326877D01*
X161617594Y-104302098D01*
X161649284Y-104280562D01*
X161705048Y-104258483D01*
X161923967Y-104099430D01*
X161978013Y-104034098D01*
X161990936Y-104021175D01*
X162152980Y-104173343D01*
G36*
X154887590Y-99931877D02*
G01*
X155426000Y-99931877D01*
X155426000Y-99926000D01*
X155473999Y-99926000D01*
X155473999Y-99931877D01*
X155968123Y-99931877D01*
X155968123Y-99976000D01*
X158331877Y-99976001D01*
X158331877Y-99926000D01*
X165347977Y-99926000D01*
X165336123Y-99985590D01*
X165336123Y-100736000D01*
X167824000Y-100736001D01*
X167823999Y-101953877D01*
X169574000Y-101953877D01*
X169574000Y-102233123D01*
X167872893Y-102233123D01*
X167851280Y-102229000D01*
X162720125Y-102229000D01*
X162519036Y-102254404D01*
X162267442Y-102354017D01*
X162048524Y-102513070D01*
X161996175Y-102576349D01*
X161804265Y-102407158D01*
X161563161Y-102284309D01*
X161299081Y-102225279D01*
X161028617Y-102233779D01*
X161002042Y-102241500D01*
X158545125Y-102241500D01*
X158344036Y-102266904D01*
X158331877Y-102271718D01*
X158331877Y-102224000D01*
X156186000Y-102223999D01*
X156186000Y-102202653D01*
X156052009Y-102176000D01*
X158331877Y-102176001D01*
X158331877Y-101787590D01*
X158304508Y-101650000D01*
X158327500Y-101534410D01*
X165336123Y-101534410D01*
X165366718Y-101688217D01*
X165460871Y-101829129D01*
X165601783Y-101923282D01*
X165755590Y-101953877D01*
X167776000Y-101953877D01*
X167776001Y-100784000D01*
X165336123Y-100783999D01*
X165336123Y-101534410D01*
X158327500Y-101534410D01*
X158331877Y-101512410D01*
X158331877Y-101124000D01*
X157126000Y-101124000D01*
X157126000Y-101076000D01*
X158331877Y-101076001D01*
X158331877Y-100687590D01*
X158304508Y-100550000D01*
X158331877Y-100412410D01*
X158331877Y-100024000D01*
X155968123Y-100023999D01*
X155968123Y-100068123D01*
X155474000Y-100068123D01*
X155473999Y-102031877D01*
X155968123Y-102031877D01*
X155968123Y-102168123D01*
X155474000Y-102168123D01*
X155473999Y-104131877D01*
X155968123Y-104131877D01*
X155968123Y-104268123D01*
X155474000Y-104268123D01*
X155474000Y-105274000D01*
X155426000Y-105274000D01*
X155426001Y-104268123D01*
X154887590Y-104268123D01*
X154733783Y-104298718D01*
X154726000Y-104303918D01*
X154726000Y-104096082D01*
X154733783Y-104101282D01*
X154887590Y-104131877D01*
X155426000Y-104131877D01*
X155426001Y-102168123D01*
X154887590Y-102168123D01*
X154733783Y-102198718D01*
X154726000Y-102203918D01*
X154726000Y-101996082D01*
X154733783Y-102001282D01*
X154887590Y-102031877D01*
X155426000Y-102031877D01*
X155426001Y-100068123D01*
X154887590Y-100068123D01*
X154733783Y-100098718D01*
X154726000Y-100103918D01*
X154726000Y-99926000D01*
X154858044Y-99926000D01*
X154887590Y-99931877D01*
G37*
X154887590Y-99931877D02*
X155426000Y-99931877D01*
X155426000Y-99926000D01*
X155473999Y-99926000D01*
X155473999Y-99931877D01*
X155968123Y-99931877D01*
X155968123Y-99976000D01*
X158331877Y-99976001D01*
X158331877Y-99926000D01*
X165347977Y-99926000D01*
X165336123Y-99985590D01*
X165336123Y-100736000D01*
X167824000Y-100736001D01*
X167823999Y-101953877D01*
X169574000Y-101953877D01*
X169574000Y-102233123D01*
X167872893Y-102233123D01*
X167851280Y-102229000D01*
X162720125Y-102229000D01*
X162519036Y-102254404D01*
X162267442Y-102354017D01*
X162048524Y-102513070D01*
X161996175Y-102576349D01*
X161804265Y-102407158D01*
X161563161Y-102284309D01*
X161299081Y-102225279D01*
X161028617Y-102233779D01*
X161002042Y-102241500D01*
X158545125Y-102241500D01*
X158344036Y-102266904D01*
X158331877Y-102271718D01*
X158331877Y-102224000D01*
X156186000Y-102223999D01*
X156186000Y-102202653D01*
X156052009Y-102176000D01*
X158331877Y-102176001D01*
X158331877Y-101787590D01*
X158304508Y-101650000D01*
X158327500Y-101534410D01*
X165336123Y-101534410D01*
X165366718Y-101688217D01*
X165460871Y-101829129D01*
X165601783Y-101923282D01*
X165755590Y-101953877D01*
X167776000Y-101953877D01*
X167776001Y-100784000D01*
X165336123Y-100783999D01*
X165336123Y-101534410D01*
X158327500Y-101534410D01*
X158331877Y-101512410D01*
X158331877Y-101124000D01*
X157126000Y-101124000D01*
X157126000Y-101076000D01*
X158331877Y-101076001D01*
X158331877Y-100687590D01*
X158304508Y-100550000D01*
X158331877Y-100412410D01*
X158331877Y-100024000D01*
X155968123Y-100023999D01*
X155968123Y-100068123D01*
X155474000Y-100068123D01*
X155473999Y-102031877D01*
X155968123Y-102031877D01*
X155968123Y-102168123D01*
X155474000Y-102168123D01*
X155473999Y-104131877D01*
X155968123Y-104131877D01*
X155968123Y-104268123D01*
X155474000Y-104268123D01*
X155474000Y-105274000D01*
X155426000Y-105274000D01*
X155426001Y-104268123D01*
X154887590Y-104268123D01*
X154733783Y-104298718D01*
X154726000Y-104303918D01*
X154726000Y-104096082D01*
X154733783Y-104101282D01*
X154887590Y-104131877D01*
X155426000Y-104131877D01*
X155426001Y-102168123D01*
X154887590Y-102168123D01*
X154733783Y-102198718D01*
X154726000Y-102203918D01*
X154726000Y-101996082D01*
X154733783Y-102001282D01*
X154887590Y-102031877D01*
X155426000Y-102031877D01*
X155426001Y-100068123D01*
X154887590Y-100068123D01*
X154733783Y-100098718D01*
X154726000Y-100103918D01*
X154726000Y-99926000D01*
X154858044Y-99926000D01*
X154887590Y-99931877D01*
G36*
X168446608Y-80528388D02*
G01*
X168657969Y-80545765D01*
X168811703Y-80584380D01*
X168957064Y-80647585D01*
X168991989Y-80670179D01*
X169329111Y-81007301D01*
X169382222Y-81103511D01*
X169435134Y-81252930D01*
X169464565Y-81418151D01*
X169470071Y-81534917D01*
X169474001Y-81553894D01*
X169474000Y-99464164D01*
X167928000Y-99464164D01*
X167928000Y-99674000D01*
X167672001Y-99674000D01*
X167672001Y-99464164D01*
X165755590Y-99464164D01*
X165562765Y-99502520D01*
X165388775Y-99618775D01*
X165351875Y-99674000D01*
X158433836Y-99674000D01*
X158433836Y-99587590D01*
X158406467Y-99450000D01*
X158433836Y-99312410D01*
X158433836Y-99028000D01*
X157022000Y-99027999D01*
X157022001Y-98772000D01*
X158433836Y-98772001D01*
X158433836Y-98487590D01*
X158406467Y-98350000D01*
X158433836Y-98212410D01*
X158433836Y-97928000D01*
X157022000Y-97927999D01*
X157022001Y-97672000D01*
X158433836Y-97672001D01*
X158433836Y-97387590D01*
X158406467Y-97250000D01*
X158433836Y-97112410D01*
X158433836Y-96287590D01*
X158406467Y-96150000D01*
X158433836Y-96012410D01*
X158433836Y-95728000D01*
X157022000Y-95727999D01*
X157022001Y-95472000D01*
X158433836Y-95472001D01*
X158433836Y-95187590D01*
X158406467Y-95050000D01*
X158433836Y-94912410D01*
X158433836Y-94628000D01*
X157022000Y-94627999D01*
X157022000Y-94372000D01*
X158433836Y-94372001D01*
X158433836Y-94087590D01*
X158395480Y-93894765D01*
X158279225Y-93720775D01*
X158105235Y-93604520D01*
X157912410Y-93566164D01*
X157278000Y-93566164D01*
X157277999Y-94372000D01*
X157022000Y-94372000D01*
X157022001Y-93786000D01*
X157133836Y-93786000D01*
X157133836Y-93128000D01*
X156072000Y-93128000D01*
X156072000Y-91716164D01*
X156328000Y-91716164D01*
X156328000Y-92872000D01*
X157133836Y-92872000D01*
X157133836Y-92602410D01*
X164466164Y-92602410D01*
X164504520Y-92795235D01*
X164620775Y-92969225D01*
X164794765Y-93085480D01*
X164987590Y-93123836D01*
X165372000Y-93123836D01*
X165627999Y-93123836D01*
X166012410Y-93123836D01*
X166205235Y-93085480D01*
X166379225Y-92969225D01*
X166495480Y-92795235D01*
X166533836Y-92602410D01*
X166533836Y-92118000D01*
X165628000Y-92117999D01*
X165627999Y-93123836D01*
X165372000Y-93123836D01*
X165372001Y-92118000D01*
X164466164Y-92117999D01*
X164466164Y-92602410D01*
X157133836Y-92602410D01*
X157133836Y-92237590D01*
X157095480Y-92044765D01*
X156979225Y-91870775D01*
X156805235Y-91754520D01*
X156612410Y-91716164D01*
X156328000Y-91716164D01*
X156072000Y-91716164D01*
X155787590Y-91716164D01*
X155650000Y-91743533D01*
X155512410Y-91716164D01*
X154687590Y-91716164D01*
X154550000Y-91743533D01*
X154412410Y-91716164D01*
X154128000Y-91716164D01*
X154128000Y-93128000D01*
X153872000Y-93128000D01*
X153872000Y-91716164D01*
X153676000Y-91716164D01*
X153676000Y-91377590D01*
X164466164Y-91377590D01*
X164466164Y-91862000D01*
X166533836Y-91862001D01*
X166533836Y-91377590D01*
X166495480Y-91184765D01*
X166379225Y-91010775D01*
X166205235Y-90894520D01*
X166012410Y-90856164D01*
X165628000Y-90856164D01*
X165627999Y-91862000D01*
X165372000Y-91862000D01*
X165372001Y-90856164D01*
X164987590Y-90856164D01*
X164794765Y-90894520D01*
X164620775Y-91010775D01*
X164504520Y-91184765D01*
X164466164Y-91377590D01*
X153676000Y-91377590D01*
X153676000Y-90984747D01*
X153724022Y-90837386D01*
X153726295Y-90577016D01*
X153676000Y-90413020D01*
X153676000Y-90077438D01*
X161677999Y-90077438D01*
X162036533Y-90020652D01*
X162246733Y-89913549D01*
X162413549Y-89746733D01*
X162520652Y-89536532D01*
X162571498Y-89215500D01*
X161678000Y-89215499D01*
X161677999Y-90077438D01*
X153676000Y-90077438D01*
X153676000Y-89079296D01*
X153835732Y-89173950D01*
X154077197Y-89232143D01*
X154325099Y-89216764D01*
X154328455Y-89215499D01*
X160528502Y-89215499D01*
X160579348Y-89536532D01*
X160686451Y-89746733D01*
X160853267Y-89913549D01*
X161063468Y-90020652D01*
X161422000Y-90077436D01*
X161422001Y-89215500D01*
X160528502Y-89215499D01*
X154328455Y-89215499D01*
X154557520Y-89129171D01*
X154753911Y-88977109D01*
X154896907Y-88774022D01*
X154974023Y-88537386D01*
X154974693Y-88460603D01*
X155296796Y-88138500D01*
X160669518Y-88138500D01*
X160686451Y-88171733D01*
X160814718Y-88300000D01*
X160686451Y-88428267D01*
X160579348Y-88638468D01*
X160528502Y-88959500D01*
X162571498Y-88959501D01*
X162520652Y-88638468D01*
X162413549Y-88428267D01*
X162285282Y-88300000D01*
X162413549Y-88171733D01*
X162520652Y-87961533D01*
X162531829Y-87890967D01*
X165073313Y-85349483D01*
X165136941Y-85296093D01*
X165178470Y-85224163D01*
X165226100Y-85156141D01*
X165233338Y-85129127D01*
X165247322Y-85104906D01*
X165259510Y-85035786D01*
X165351460Y-84943836D01*
X166012410Y-84943836D01*
X166205235Y-84905480D01*
X166379225Y-84789225D01*
X166495480Y-84615235D01*
X166533836Y-84422410D01*
X166533836Y-83197590D01*
X166495480Y-83004765D01*
X166379225Y-82830775D01*
X166205235Y-82714520D01*
X166012410Y-82676164D01*
X164987590Y-82676164D01*
X164794765Y-82714520D01*
X164620775Y-82830775D01*
X164504520Y-83004765D01*
X164466164Y-83197590D01*
X164466164Y-84058540D01*
X164226688Y-84298016D01*
X164163058Y-84351407D01*
X164121529Y-84423338D01*
X164073899Y-84491361D01*
X164066662Y-84518373D01*
X164052678Y-84542593D01*
X164040491Y-84611713D01*
X162060595Y-86591609D01*
X162036533Y-86579348D01*
X161813439Y-86544014D01*
X161286561Y-86544014D01*
X161063467Y-86579348D01*
X160853267Y-86686451D01*
X160686451Y-86853267D01*
X160669518Y-86886500D01*
X155064818Y-86886500D01*
X154982100Y-86879262D01*
X154901880Y-86900756D01*
X154820092Y-86915178D01*
X154795872Y-86929162D01*
X154768860Y-86936399D01*
X154700833Y-86984032D01*
X154628907Y-87025559D01*
X154575515Y-87089189D01*
X154097530Y-87567174D01*
X154091731Y-87566712D01*
X153849287Y-87620684D01*
X153676000Y-87719324D01*
X153676000Y-87246063D01*
X153684369Y-87175350D01*
X153665603Y-87072593D01*
X153650065Y-86969247D01*
X153644681Y-86958037D01*
X153641533Y-86940794D01*
X153619226Y-86905028D01*
X153549057Y-86758902D01*
X153484616Y-86689190D01*
X153481297Y-86683868D01*
X153460160Y-86662731D01*
X153390665Y-86587552D01*
X153377103Y-86579675D01*
X150827796Y-84030368D01*
X150840000Y-84031651D01*
X151054492Y-84009107D01*
X151259610Y-83942460D01*
X151446389Y-83834624D01*
X151475000Y-83808862D01*
X151503611Y-83834624D01*
X151690390Y-83942460D01*
X151895508Y-84009107D01*
X152110000Y-84031651D01*
X152324492Y-84009107D01*
X152529610Y-83942460D01*
X152716389Y-83834624D01*
X152745000Y-83808862D01*
X152773611Y-83834624D01*
X152960390Y-83942460D01*
X153165508Y-84009107D01*
X153380000Y-84031651D01*
X153594492Y-84009107D01*
X153799610Y-83942460D01*
X153986389Y-83834624D01*
X154015000Y-83808862D01*
X154043611Y-83834624D01*
X154230390Y-83942460D01*
X154435508Y-84009107D01*
X154650000Y-84031651D01*
X154864492Y-84009107D01*
X155069610Y-83942460D01*
X155256389Y-83834624D01*
X155285000Y-83808862D01*
X155313611Y-83834624D01*
X155500390Y-83942460D01*
X155705508Y-84009107D01*
X155920000Y-84031651D01*
X156134492Y-84009107D01*
X156339610Y-83942460D01*
X156526389Y-83834624D01*
X156555000Y-83808862D01*
X156583611Y-83834624D01*
X156770390Y-83942460D01*
X156975508Y-84009107D01*
X157190000Y-84031651D01*
X157404492Y-84009107D01*
X157609610Y-83942460D01*
X157796389Y-83834624D01*
X157825000Y-83808862D01*
X157853611Y-83834624D01*
X158040390Y-83942460D01*
X158245508Y-84009107D01*
X158460000Y-84031651D01*
X158674492Y-84009107D01*
X158879610Y-83942460D01*
X159066389Y-83834624D01*
X159095000Y-83808862D01*
X159123611Y-83834624D01*
X159310390Y-83942460D01*
X159515508Y-84009107D01*
X159730000Y-84031651D01*
X159944492Y-84009107D01*
X160149610Y-83942460D01*
X160184911Y-83922079D01*
X160294765Y-83995480D01*
X160487590Y-84033836D01*
X161512410Y-84033836D01*
X161705235Y-83995480D01*
X161879225Y-83879225D01*
X161995480Y-83705235D01*
X162033836Y-83512410D01*
X162033836Y-82487590D01*
X161995480Y-82294765D01*
X161879225Y-82120775D01*
X161705235Y-82004520D01*
X161512410Y-81966164D01*
X160487590Y-81966164D01*
X160294765Y-82004520D01*
X160184911Y-82077921D01*
X160149610Y-82057540D01*
X159944492Y-81990893D01*
X159730000Y-81968349D01*
X159515508Y-81990893D01*
X159310390Y-82057540D01*
X159123611Y-82165376D01*
X159095000Y-82191138D01*
X159066389Y-82165376D01*
X158879610Y-82057540D01*
X158674492Y-81990893D01*
X158460000Y-81968349D01*
X158245508Y-81990893D01*
X158040390Y-82057540D01*
X157853611Y-82165376D01*
X157825000Y-82191138D01*
X157796389Y-82165376D01*
X157609610Y-82057540D01*
X157404492Y-81990893D01*
X157190000Y-81968349D01*
X156975508Y-81990893D01*
X156770390Y-82057540D01*
X156583611Y-82165376D01*
X156555000Y-82191138D01*
X156526389Y-82165376D01*
X156339610Y-82057540D01*
X156134492Y-81990893D01*
X155920000Y-81968349D01*
X155705508Y-81990893D01*
X155500390Y-82057540D01*
X155313611Y-82165376D01*
X155285000Y-82191138D01*
X155256389Y-82165376D01*
X155069610Y-82057540D01*
X154864492Y-81990893D01*
X154650000Y-81968349D01*
X154435508Y-81990893D01*
X154230390Y-82057540D01*
X154043611Y-82165376D01*
X154015000Y-82191138D01*
X153986389Y-82165376D01*
X153799610Y-82057540D01*
X153594492Y-81990893D01*
X153380000Y-81968349D01*
X153165508Y-81990893D01*
X152960390Y-82057540D01*
X152773611Y-82165376D01*
X152745000Y-82191138D01*
X152716389Y-82165376D01*
X152529610Y-82057540D01*
X152324492Y-81990893D01*
X152110000Y-81968349D01*
X151895508Y-81990893D01*
X151690390Y-82057540D01*
X151503611Y-82165376D01*
X151475000Y-82191138D01*
X151446389Y-82165376D01*
X151259610Y-82057540D01*
X151054492Y-81990893D01*
X150840000Y-81968349D01*
X150625508Y-81990893D01*
X150420390Y-82057540D01*
X150233611Y-82165376D01*
X150205000Y-82191138D01*
X150176389Y-82165376D01*
X149989610Y-82057540D01*
X149784492Y-81990893D01*
X149570000Y-81968349D01*
X149355508Y-81990893D01*
X149150390Y-82057540D01*
X148963611Y-82165376D01*
X148935000Y-82191138D01*
X148906389Y-82165376D01*
X148719610Y-82057540D01*
X148514492Y-81990893D01*
X148300000Y-81968349D01*
X148085508Y-81990893D01*
X147880390Y-82057540D01*
X147693611Y-82165376D01*
X147665000Y-82191138D01*
X147636389Y-82165376D01*
X147449610Y-82057540D01*
X147244492Y-81990893D01*
X147030000Y-81968349D01*
X146815508Y-81990893D01*
X146610390Y-82057540D01*
X146423611Y-82165376D01*
X146395000Y-82191138D01*
X146366389Y-82165376D01*
X146179610Y-82057540D01*
X145974492Y-81990893D01*
X145760000Y-81968349D01*
X145545508Y-81990893D01*
X145340390Y-82057540D01*
X145153611Y-82165376D01*
X145125000Y-82191138D01*
X145096389Y-82165376D01*
X144909610Y-82057540D01*
X144704492Y-81990893D01*
X144490000Y-81968349D01*
X144275508Y-81990893D01*
X144070390Y-82057540D01*
X143883611Y-82165376D01*
X143855000Y-82191138D01*
X143826389Y-82165376D01*
X143639610Y-82057540D01*
X143434492Y-81990893D01*
X143220000Y-81968349D01*
X143005508Y-81990893D01*
X142800390Y-82057540D01*
X142613611Y-82165376D01*
X142585000Y-82191138D01*
X142556389Y-82165376D01*
X142369610Y-82057540D01*
X142164492Y-81990893D01*
X141950000Y-81968349D01*
X141735508Y-81990893D01*
X141530390Y-82057540D01*
X141343611Y-82165376D01*
X141315000Y-82191138D01*
X141286389Y-82165376D01*
X141099610Y-82057540D01*
X140894492Y-81990893D01*
X140680000Y-81968349D01*
X140465508Y-81990893D01*
X140260390Y-82057540D01*
X140073611Y-82165376D01*
X140045000Y-82191138D01*
X140016389Y-82165376D01*
X139829610Y-82057540D01*
X139624492Y-81990893D01*
X139410000Y-81968349D01*
X139195508Y-81990893D01*
X138990390Y-82057540D01*
X138803611Y-82165376D01*
X138775000Y-82191138D01*
X138746389Y-82165376D01*
X138559610Y-82057540D01*
X138354492Y-81990893D01*
X138140000Y-81968349D01*
X137925508Y-81990893D01*
X137720390Y-82057540D01*
X137533611Y-82165376D01*
X137505000Y-82191138D01*
X137476389Y-82165376D01*
X137289610Y-82057540D01*
X137084492Y-81990893D01*
X136870000Y-81968349D01*
X136655508Y-81990893D01*
X136450390Y-82057540D01*
X136263611Y-82165376D01*
X136235000Y-82191138D01*
X136206389Y-82165376D01*
X136019610Y-82057540D01*
X135814492Y-81990893D01*
X135600000Y-81968349D01*
X135385508Y-81990893D01*
X135180390Y-82057540D01*
X134993611Y-82165376D01*
X134965000Y-82191138D01*
X134936389Y-82165376D01*
X134749610Y-82057540D01*
X134544492Y-81990893D01*
X134330000Y-81968349D01*
X134115508Y-81990893D01*
X133910390Y-82057540D01*
X133723611Y-82165376D01*
X133563334Y-82309691D01*
X133436564Y-82484175D01*
X133348842Y-82681202D01*
X133304000Y-82892163D01*
X133304000Y-83107837D01*
X133348842Y-83318798D01*
X133436564Y-83515825D01*
X133563334Y-83690309D01*
X133723611Y-83834624D01*
X133910390Y-83942460D01*
X134115508Y-84009107D01*
X134330000Y-84031651D01*
X134462436Y-84017732D01*
X136168031Y-85723328D01*
X136221417Y-85786952D01*
X136293341Y-85828476D01*
X136349885Y-85868069D01*
X136316164Y-86037590D01*
X136316164Y-86322000D01*
X137428000Y-86322001D01*
X137427999Y-87383836D01*
X137762410Y-87383836D01*
X137955235Y-87345480D01*
X138129225Y-87229225D01*
X138245480Y-87055235D01*
X138283836Y-86862410D01*
X138283836Y-86707135D01*
X138500019Y-86923318D01*
X138553405Y-86986942D01*
X138625342Y-87028474D01*
X138693357Y-87076099D01*
X138720367Y-87083337D01*
X138744592Y-87097322D01*
X138826387Y-87111745D01*
X138906596Y-87133238D01*
X138989331Y-87126000D01*
X139050410Y-87126000D01*
X139086451Y-87196733D01*
X139239718Y-87350000D01*
X139086451Y-87503267D01*
X138979348Y-87713467D01*
X138977680Y-87724000D01*
X138231605Y-87724000D01*
X138129225Y-87570775D01*
X137955235Y-87454520D01*
X137762410Y-87416164D01*
X136837590Y-87416164D01*
X136644765Y-87454520D01*
X136470775Y-87570775D01*
X136354520Y-87744765D01*
X136316164Y-87937590D01*
X136316164Y-88722636D01*
X136241731Y-88716712D01*
X135999287Y-88770684D01*
X135926000Y-88812401D01*
X135926000Y-88301295D01*
X135955234Y-88295480D01*
X136129225Y-88179225D01*
X136245480Y-88005235D01*
X136283836Y-87812410D01*
X136283836Y-86987590D01*
X136258936Y-86862410D01*
X136316164Y-86862410D01*
X136354520Y-87055235D01*
X136470775Y-87229225D01*
X136644765Y-87345480D01*
X136837590Y-87383836D01*
X137172000Y-87383836D01*
X137172001Y-86578000D01*
X136316164Y-86577999D01*
X136316164Y-86862410D01*
X136258936Y-86862410D01*
X136245480Y-86794765D01*
X136129225Y-86620775D01*
X135955235Y-86504520D01*
X135762410Y-86466164D01*
X134837590Y-86466164D01*
X134644765Y-86504520D01*
X134470775Y-86620775D01*
X134354520Y-86794765D01*
X134316164Y-86987590D01*
X134316164Y-87812410D01*
X134354520Y-88005235D01*
X134470775Y-88179225D01*
X134644766Y-88295480D01*
X134674000Y-88301295D01*
X134674001Y-88879357D01*
X134553589Y-88938086D01*
X134372350Y-89077659D01*
X134222880Y-89250824D01*
X134111281Y-89450506D01*
X134062494Y-89604303D01*
X132859518Y-88401328D01*
X132943436Y-88285825D01*
X133031158Y-88088798D01*
X133076000Y-87877837D01*
X133076000Y-87662163D01*
X133031158Y-87451202D01*
X132971165Y-87316456D01*
X133045480Y-87205235D01*
X133083836Y-87012410D01*
X133083836Y-85987590D01*
X133045480Y-85794765D01*
X132929225Y-85620775D01*
X132755235Y-85504520D01*
X132562410Y-85466164D01*
X131537590Y-85466164D01*
X131344765Y-85504520D01*
X131170775Y-85620775D01*
X131054520Y-85794765D01*
X131016164Y-85987590D01*
X131016164Y-87012410D01*
X131054520Y-87205235D01*
X131128835Y-87316456D01*
X131068842Y-87451202D01*
X131024000Y-87662163D01*
X131024000Y-87877837D01*
X131068842Y-88088798D01*
X131156564Y-88285825D01*
X131283334Y-88460309D01*
X131433692Y-88595692D01*
X131438259Y-88612736D01*
X131452679Y-88694513D01*
X131466661Y-88718731D01*
X131473900Y-88745746D01*
X131521533Y-88813772D01*
X131563059Y-88885699D01*
X131626685Y-88939087D01*
X133985191Y-91297594D01*
X134038577Y-91361218D01*
X134110514Y-91402750D01*
X134178529Y-91450375D01*
X134205539Y-91457613D01*
X134229764Y-91471598D01*
X134311559Y-91486021D01*
X134391768Y-91507514D01*
X134474487Y-91500276D01*
X135579433Y-91500276D01*
X135564710Y-91592710D01*
X135582170Y-91716164D01*
X135428000Y-91716164D01*
X135428000Y-93128000D01*
X135172000Y-93128000D01*
X135172000Y-91716164D01*
X134887590Y-91716164D01*
X134750000Y-91743533D01*
X134612410Y-91716164D01*
X134328000Y-91716164D01*
X134328000Y-93128000D01*
X133266164Y-93128000D01*
X133266164Y-93786000D01*
X133378000Y-93786000D01*
X133377999Y-94628000D01*
X131966164Y-94627999D01*
X131966164Y-94912410D01*
X131993533Y-95050000D01*
X131966164Y-95187590D01*
X131966164Y-95976615D01*
X131841731Y-95966712D01*
X131599287Y-96020684D01*
X131383430Y-96143556D01*
X131213245Y-96324469D01*
X131103779Y-96547424D01*
X131064710Y-96792710D01*
X131099492Y-97038642D01*
X131205051Y-97263474D01*
X131372052Y-97447328D01*
X131502232Y-97524470D01*
X130526000Y-98500702D01*
X130526000Y-94087590D01*
X131966164Y-94087590D01*
X131966164Y-94372000D01*
X133122000Y-94372001D01*
X133122001Y-93566164D01*
X132487590Y-93566164D01*
X132294765Y-93604520D01*
X132120775Y-93720775D01*
X132004520Y-93894765D01*
X131966164Y-94087590D01*
X130526000Y-94087590D01*
X130526000Y-92237590D01*
X133266164Y-92237590D01*
X133266164Y-92872000D01*
X134072000Y-92872000D01*
X134072000Y-91716164D01*
X133787590Y-91716164D01*
X133594765Y-91754520D01*
X133420775Y-91870775D01*
X133304520Y-92044765D01*
X133266164Y-92237590D01*
X130526000Y-92237590D01*
X130526000Y-81563187D01*
X130528388Y-81553392D01*
X130545765Y-81342031D01*
X130584380Y-81188297D01*
X130647585Y-81042936D01*
X130670179Y-81008011D01*
X131007301Y-80670889D01*
X131103511Y-80617778D01*
X131252930Y-80564866D01*
X131418151Y-80535435D01*
X131534917Y-80529929D01*
X131553890Y-80526000D01*
X168436813Y-80526000D01*
X168446608Y-80528388D01*
G37*
X168446608Y-80528388D02*
X168657969Y-80545765D01*
X168811703Y-80584380D01*
X168957064Y-80647585D01*
X168991989Y-80670179D01*
X169329111Y-81007301D01*
X169382222Y-81103511D01*
X169435134Y-81252930D01*
X169464565Y-81418151D01*
X169470071Y-81534917D01*
X169474001Y-81553894D01*
X169474000Y-99464164D01*
X167928000Y-99464164D01*
X167928000Y-99674000D01*
X167672001Y-99674000D01*
X167672001Y-99464164D01*
X165755590Y-99464164D01*
X165562765Y-99502520D01*
X165388775Y-99618775D01*
X165351875Y-99674000D01*
X158433836Y-99674000D01*
X158433836Y-99587590D01*
X158406467Y-99450000D01*
X158433836Y-99312410D01*
X158433836Y-99028000D01*
X157022000Y-99027999D01*
X157022001Y-98772000D01*
X158433836Y-98772001D01*
X158433836Y-98487590D01*
X158406467Y-98350000D01*
X158433836Y-98212410D01*
X158433836Y-97928000D01*
X157022000Y-97927999D01*
X157022001Y-97672000D01*
X158433836Y-97672001D01*
X158433836Y-97387590D01*
X158406467Y-97250000D01*
X158433836Y-97112410D01*
X158433836Y-96287590D01*
X158406467Y-96150000D01*
X158433836Y-96012410D01*
X158433836Y-95728000D01*
X157022000Y-95727999D01*
X157022001Y-95472000D01*
X158433836Y-95472001D01*
X158433836Y-95187590D01*
X158406467Y-95050000D01*
X158433836Y-94912410D01*
X158433836Y-94628000D01*
X157022000Y-94627999D01*
X157022000Y-94372000D01*
X158433836Y-94372001D01*
X158433836Y-94087590D01*
X158395480Y-93894765D01*
X158279225Y-93720775D01*
X158105235Y-93604520D01*
X157912410Y-93566164D01*
X157278000Y-93566164D01*
X157277999Y-94372000D01*
X157022000Y-94372000D01*
X157022001Y-93786000D01*
X157133836Y-93786000D01*
X157133836Y-93128000D01*
X156072000Y-93128000D01*
X156072000Y-91716164D01*
X156328000Y-91716164D01*
X156328000Y-92872000D01*
X157133836Y-92872000D01*
X157133836Y-92602410D01*
X164466164Y-92602410D01*
X164504520Y-92795235D01*
X164620775Y-92969225D01*
X164794765Y-93085480D01*
X164987590Y-93123836D01*
X165372000Y-93123836D01*
X165627999Y-93123836D01*
X166012410Y-93123836D01*
X166205235Y-93085480D01*
X166379225Y-92969225D01*
X166495480Y-92795235D01*
X166533836Y-92602410D01*
X166533836Y-92118000D01*
X165628000Y-92117999D01*
X165627999Y-93123836D01*
X165372000Y-93123836D01*
X165372001Y-92118000D01*
X164466164Y-92117999D01*
X164466164Y-92602410D01*
X157133836Y-92602410D01*
X157133836Y-92237590D01*
X157095480Y-92044765D01*
X156979225Y-91870775D01*
X156805235Y-91754520D01*
X156612410Y-91716164D01*
X156328000Y-91716164D01*
X156072000Y-91716164D01*
X155787590Y-91716164D01*
X155650000Y-91743533D01*
X155512410Y-91716164D01*
X154687590Y-91716164D01*
X154550000Y-91743533D01*
X154412410Y-91716164D01*
X154128000Y-91716164D01*
X154128000Y-93128000D01*
X153872000Y-93128000D01*
X153872000Y-91716164D01*
X153676000Y-91716164D01*
X153676000Y-91377590D01*
X164466164Y-91377590D01*
X164466164Y-91862000D01*
X166533836Y-91862001D01*
X166533836Y-91377590D01*
X166495480Y-91184765D01*
X166379225Y-91010775D01*
X166205235Y-90894520D01*
X166012410Y-90856164D01*
X165628000Y-90856164D01*
X165627999Y-91862000D01*
X165372000Y-91862000D01*
X165372001Y-90856164D01*
X164987590Y-90856164D01*
X164794765Y-90894520D01*
X164620775Y-91010775D01*
X164504520Y-91184765D01*
X164466164Y-91377590D01*
X153676000Y-91377590D01*
X153676000Y-90984747D01*
X153724022Y-90837386D01*
X153726295Y-90577016D01*
X153676000Y-90413020D01*
X153676000Y-90077438D01*
X161677999Y-90077438D01*
X162036533Y-90020652D01*
X162246733Y-89913549D01*
X162413549Y-89746733D01*
X162520652Y-89536532D01*
X162571498Y-89215500D01*
X161678000Y-89215499D01*
X161677999Y-90077438D01*
X153676000Y-90077438D01*
X153676000Y-89079296D01*
X153835732Y-89173950D01*
X154077197Y-89232143D01*
X154325099Y-89216764D01*
X154328455Y-89215499D01*
X160528502Y-89215499D01*
X160579348Y-89536532D01*
X160686451Y-89746733D01*
X160853267Y-89913549D01*
X161063468Y-90020652D01*
X161422000Y-90077436D01*
X161422001Y-89215500D01*
X160528502Y-89215499D01*
X154328455Y-89215499D01*
X154557520Y-89129171D01*
X154753911Y-88977109D01*
X154896907Y-88774022D01*
X154974023Y-88537386D01*
X154974693Y-88460603D01*
X155296796Y-88138500D01*
X160669518Y-88138500D01*
X160686451Y-88171733D01*
X160814718Y-88300000D01*
X160686451Y-88428267D01*
X160579348Y-88638468D01*
X160528502Y-88959500D01*
X162571498Y-88959501D01*
X162520652Y-88638468D01*
X162413549Y-88428267D01*
X162285282Y-88300000D01*
X162413549Y-88171733D01*
X162520652Y-87961533D01*
X162531829Y-87890967D01*
X165073313Y-85349483D01*
X165136941Y-85296093D01*
X165178470Y-85224163D01*
X165226100Y-85156141D01*
X165233338Y-85129127D01*
X165247322Y-85104906D01*
X165259510Y-85035786D01*
X165351460Y-84943836D01*
X166012410Y-84943836D01*
X166205235Y-84905480D01*
X166379225Y-84789225D01*
X166495480Y-84615235D01*
X166533836Y-84422410D01*
X166533836Y-83197590D01*
X166495480Y-83004765D01*
X166379225Y-82830775D01*
X166205235Y-82714520D01*
X166012410Y-82676164D01*
X164987590Y-82676164D01*
X164794765Y-82714520D01*
X164620775Y-82830775D01*
X164504520Y-83004765D01*
X164466164Y-83197590D01*
X164466164Y-84058540D01*
X164226688Y-84298016D01*
X164163058Y-84351407D01*
X164121529Y-84423338D01*
X164073899Y-84491361D01*
X164066662Y-84518373D01*
X164052678Y-84542593D01*
X164040491Y-84611713D01*
X162060595Y-86591609D01*
X162036533Y-86579348D01*
X161813439Y-86544014D01*
X161286561Y-86544014D01*
X161063467Y-86579348D01*
X160853267Y-86686451D01*
X160686451Y-86853267D01*
X160669518Y-86886500D01*
X155064818Y-86886500D01*
X154982100Y-86879262D01*
X154901880Y-86900756D01*
X154820092Y-86915178D01*
X154795872Y-86929162D01*
X154768860Y-86936399D01*
X154700833Y-86984032D01*
X154628907Y-87025559D01*
X154575515Y-87089189D01*
X154097530Y-87567174D01*
X154091731Y-87566712D01*
X153849287Y-87620684D01*
X153676000Y-87719324D01*
X153676000Y-87246063D01*
X153684369Y-87175350D01*
X153665603Y-87072593D01*
X153650065Y-86969247D01*
X153644681Y-86958037D01*
X153641533Y-86940794D01*
X153619226Y-86905028D01*
X153549057Y-86758902D01*
X153484616Y-86689190D01*
X153481297Y-86683868D01*
X153460160Y-86662731D01*
X153390665Y-86587552D01*
X153377103Y-86579675D01*
X150827796Y-84030368D01*
X150840000Y-84031651D01*
X151054492Y-84009107D01*
X151259610Y-83942460D01*
X151446389Y-83834624D01*
X151475000Y-83808862D01*
X151503611Y-83834624D01*
X151690390Y-83942460D01*
X151895508Y-84009107D01*
X152110000Y-84031651D01*
X152324492Y-84009107D01*
X152529610Y-83942460D01*
X152716389Y-83834624D01*
X152745000Y-83808862D01*
X152773611Y-83834624D01*
X152960390Y-83942460D01*
X153165508Y-84009107D01*
X153380000Y-84031651D01*
X153594492Y-84009107D01*
X153799610Y-83942460D01*
X153986389Y-83834624D01*
X154015000Y-83808862D01*
X154043611Y-83834624D01*
X154230390Y-83942460D01*
X154435508Y-84009107D01*
X154650000Y-84031651D01*
X154864492Y-84009107D01*
X155069610Y-83942460D01*
X155256389Y-83834624D01*
X155285000Y-83808862D01*
X155313611Y-83834624D01*
X155500390Y-83942460D01*
X155705508Y-84009107D01*
X155920000Y-84031651D01*
X156134492Y-84009107D01*
X156339610Y-83942460D01*
X156526389Y-83834624D01*
X156555000Y-83808862D01*
X156583611Y-83834624D01*
X156770390Y-83942460D01*
X156975508Y-84009107D01*
X157190000Y-84031651D01*
X157404492Y-84009107D01*
X157609610Y-83942460D01*
X157796389Y-83834624D01*
X157825000Y-83808862D01*
X157853611Y-83834624D01*
X158040390Y-83942460D01*
X158245508Y-84009107D01*
X158460000Y-84031651D01*
X158674492Y-84009107D01*
X158879610Y-83942460D01*
X159066389Y-83834624D01*
X159095000Y-83808862D01*
X159123611Y-83834624D01*
X159310390Y-83942460D01*
X159515508Y-84009107D01*
X159730000Y-84031651D01*
X159944492Y-84009107D01*
X160149610Y-83942460D01*
X160184911Y-83922079D01*
X160294765Y-83995480D01*
X160487590Y-84033836D01*
X161512410Y-84033836D01*
X161705235Y-83995480D01*
X161879225Y-83879225D01*
X161995480Y-83705235D01*
X162033836Y-83512410D01*
X162033836Y-82487590D01*
X161995480Y-82294765D01*
X161879225Y-82120775D01*
X161705235Y-82004520D01*
X161512410Y-81966164D01*
X160487590Y-81966164D01*
X160294765Y-82004520D01*
X160184911Y-82077921D01*
X160149610Y-82057540D01*
X159944492Y-81990893D01*
X159730000Y-81968349D01*
X159515508Y-81990893D01*
X159310390Y-82057540D01*
X159123611Y-82165376D01*
X159095000Y-82191138D01*
X159066389Y-82165376D01*
X158879610Y-82057540D01*
X158674492Y-81990893D01*
X158460000Y-81968349D01*
X158245508Y-81990893D01*
X158040390Y-82057540D01*
X157853611Y-82165376D01*
X157825000Y-82191138D01*
X157796389Y-82165376D01*
X157609610Y-82057540D01*
X157404492Y-81990893D01*
X157190000Y-81968349D01*
X156975508Y-81990893D01*
X156770390Y-82057540D01*
X156583611Y-82165376D01*
X156555000Y-82191138D01*
X156526389Y-82165376D01*
X156339610Y-82057540D01*
X156134492Y-81990893D01*
X155920000Y-81968349D01*
X155705508Y-81990893D01*
X155500390Y-82057540D01*
X155313611Y-82165376D01*
X155285000Y-82191138D01*
X155256389Y-82165376D01*
X155069610Y-82057540D01*
X154864492Y-81990893D01*
X154650000Y-81968349D01*
X154435508Y-81990893D01*
X154230390Y-82057540D01*
X154043611Y-82165376D01*
X154015000Y-82191138D01*
X153986389Y-82165376D01*
X153799610Y-82057540D01*
X153594492Y-81990893D01*
X153380000Y-81968349D01*
X153165508Y-81990893D01*
X152960390Y-82057540D01*
X152773611Y-82165376D01*
X152745000Y-82191138D01*
X152716389Y-82165376D01*
X152529610Y-82057540D01*
X152324492Y-81990893D01*
X152110000Y-81968349D01*
X151895508Y-81990893D01*
X151690390Y-82057540D01*
X151503611Y-82165376D01*
X151475000Y-82191138D01*
X151446389Y-82165376D01*
X151259610Y-82057540D01*
X151054492Y-81990893D01*
X150840000Y-81968349D01*
X150625508Y-81990893D01*
X150420390Y-82057540D01*
X150233611Y-82165376D01*
X150205000Y-82191138D01*
X150176389Y-82165376D01*
X149989610Y-82057540D01*
X149784492Y-81990893D01*
X149570000Y-81968349D01*
X149355508Y-81990893D01*
X149150390Y-82057540D01*
X148963611Y-82165376D01*
X148935000Y-82191138D01*
X148906389Y-82165376D01*
X148719610Y-82057540D01*
X148514492Y-81990893D01*
X148300000Y-81968349D01*
X148085508Y-81990893D01*
X147880390Y-82057540D01*
X147693611Y-82165376D01*
X147665000Y-82191138D01*
X147636389Y-82165376D01*
X147449610Y-82057540D01*
X147244492Y-81990893D01*
X147030000Y-81968349D01*
X146815508Y-81990893D01*
X146610390Y-82057540D01*
X146423611Y-82165376D01*
X146395000Y-82191138D01*
X146366389Y-82165376D01*
X146179610Y-82057540D01*
X145974492Y-81990893D01*
X145760000Y-81968349D01*
X145545508Y-81990893D01*
X145340390Y-82057540D01*
X145153611Y-82165376D01*
X145125000Y-82191138D01*
X145096389Y-82165376D01*
X144909610Y-82057540D01*
X144704492Y-81990893D01*
X144490000Y-81968349D01*
X144275508Y-81990893D01*
X144070390Y-82057540D01*
X143883611Y-82165376D01*
X143855000Y-82191138D01*
X143826389Y-82165376D01*
X143639610Y-82057540D01*
X143434492Y-81990893D01*
X143220000Y-81968349D01*
X143005508Y-81990893D01*
X142800390Y-82057540D01*
X142613611Y-82165376D01*
X142585000Y-82191138D01*
X142556389Y-82165376D01*
X142369610Y-82057540D01*
X142164492Y-81990893D01*
X141950000Y-81968349D01*
X141735508Y-81990893D01*
X141530390Y-82057540D01*
X141343611Y-82165376D01*
X141315000Y-82191138D01*
X141286389Y-82165376D01*
X141099610Y-82057540D01*
X140894492Y-81990893D01*
X140680000Y-81968349D01*
X140465508Y-81990893D01*
X140260390Y-82057540D01*
X140073611Y-82165376D01*
X140045000Y-82191138D01*
X140016389Y-82165376D01*
X139829610Y-82057540D01*
X139624492Y-81990893D01*
X139410000Y-81968349D01*
X139195508Y-81990893D01*
X138990390Y-82057540D01*
X138803611Y-82165376D01*
X138775000Y-82191138D01*
X138746389Y-82165376D01*
X138559610Y-82057540D01*
X138354492Y-81990893D01*
X138140000Y-81968349D01*
X137925508Y-81990893D01*
X137720390Y-82057540D01*
X137533611Y-82165376D01*
X137505000Y-82191138D01*
X137476389Y-82165376D01*
X137289610Y-82057540D01*
X137084492Y-81990893D01*
X136870000Y-81968349D01*
X136655508Y-81990893D01*
X136450390Y-82057540D01*
X136263611Y-82165376D01*
X136235000Y-82191138D01*
X136206389Y-82165376D01*
X136019610Y-82057540D01*
X135814492Y-81990893D01*
X135600000Y-81968349D01*
X135385508Y-81990893D01*
X135180390Y-82057540D01*
X134993611Y-82165376D01*
X134965000Y-82191138D01*
X134936389Y-82165376D01*
X134749610Y-82057540D01*
X134544492Y-81990893D01*
X134330000Y-81968349D01*
X134115508Y-81990893D01*
X133910390Y-82057540D01*
X133723611Y-82165376D01*
X133563334Y-82309691D01*
X133436564Y-82484175D01*
X133348842Y-82681202D01*
X133304000Y-82892163D01*
X133304000Y-83107837D01*
X133348842Y-83318798D01*
X133436564Y-83515825D01*
X133563334Y-83690309D01*
X133723611Y-83834624D01*
X133910390Y-83942460D01*
X134115508Y-84009107D01*
X134330000Y-84031651D01*
X134462436Y-84017732D01*
X136168031Y-85723328D01*
X136221417Y-85786952D01*
X136293341Y-85828476D01*
X136349885Y-85868069D01*
X136316164Y-86037590D01*
X136316164Y-86322000D01*
X137428000Y-86322001D01*
X137427999Y-87383836D01*
X137762410Y-87383836D01*
X137955235Y-87345480D01*
X138129225Y-87229225D01*
X138245480Y-87055235D01*
X138283836Y-86862410D01*
X138283836Y-86707135D01*
X138500019Y-86923318D01*
X138553405Y-86986942D01*
X138625342Y-87028474D01*
X138693357Y-87076099D01*
X138720367Y-87083337D01*
X138744592Y-87097322D01*
X138826387Y-87111745D01*
X138906596Y-87133238D01*
X138989331Y-87126000D01*
X139050410Y-87126000D01*
X139086451Y-87196733D01*
X139239718Y-87350000D01*
X139086451Y-87503267D01*
X138979348Y-87713467D01*
X138977680Y-87724000D01*
X138231605Y-87724000D01*
X138129225Y-87570775D01*
X137955235Y-87454520D01*
X137762410Y-87416164D01*
X136837590Y-87416164D01*
X136644765Y-87454520D01*
X136470775Y-87570775D01*
X136354520Y-87744765D01*
X136316164Y-87937590D01*
X136316164Y-88722636D01*
X136241731Y-88716712D01*
X135999287Y-88770684D01*
X135926000Y-88812401D01*
X135926000Y-88301295D01*
X135955234Y-88295480D01*
X136129225Y-88179225D01*
X136245480Y-88005235D01*
X136283836Y-87812410D01*
X136283836Y-86987590D01*
X136258936Y-86862410D01*
X136316164Y-86862410D01*
X136354520Y-87055235D01*
X136470775Y-87229225D01*
X136644765Y-87345480D01*
X136837590Y-87383836D01*
X137172000Y-87383836D01*
X137172001Y-86578000D01*
X136316164Y-86577999D01*
X136316164Y-86862410D01*
X136258936Y-86862410D01*
X136245480Y-86794765D01*
X136129225Y-86620775D01*
X135955235Y-86504520D01*
X135762410Y-86466164D01*
X134837590Y-86466164D01*
X134644765Y-86504520D01*
X134470775Y-86620775D01*
X134354520Y-86794765D01*
X134316164Y-86987590D01*
X134316164Y-87812410D01*
X134354520Y-88005235D01*
X134470775Y-88179225D01*
X134644766Y-88295480D01*
X134674000Y-88301295D01*
X134674001Y-88879357D01*
X134553589Y-88938086D01*
X134372350Y-89077659D01*
X134222880Y-89250824D01*
X134111281Y-89450506D01*
X134062494Y-89604303D01*
X132859518Y-88401328D01*
X132943436Y-88285825D01*
X133031158Y-88088798D01*
X133076000Y-87877837D01*
X133076000Y-87662163D01*
X133031158Y-87451202D01*
X132971165Y-87316456D01*
X133045480Y-87205235D01*
X133083836Y-87012410D01*
X133083836Y-85987590D01*
X133045480Y-85794765D01*
X132929225Y-85620775D01*
X132755235Y-85504520D01*
X132562410Y-85466164D01*
X131537590Y-85466164D01*
X131344765Y-85504520D01*
X131170775Y-85620775D01*
X131054520Y-85794765D01*
X131016164Y-85987590D01*
X131016164Y-87012410D01*
X131054520Y-87205235D01*
X131128835Y-87316456D01*
X131068842Y-87451202D01*
X131024000Y-87662163D01*
X131024000Y-87877837D01*
X131068842Y-88088798D01*
X131156564Y-88285825D01*
X131283334Y-88460309D01*
X131433692Y-88595692D01*
X131438259Y-88612736D01*
X131452679Y-88694513D01*
X131466661Y-88718731D01*
X131473900Y-88745746D01*
X131521533Y-88813772D01*
X131563059Y-88885699D01*
X131626685Y-88939087D01*
X133985191Y-91297594D01*
X134038577Y-91361218D01*
X134110514Y-91402750D01*
X134178529Y-91450375D01*
X134205539Y-91457613D01*
X134229764Y-91471598D01*
X134311559Y-91486021D01*
X134391768Y-91507514D01*
X134474487Y-91500276D01*
X135579433Y-91500276D01*
X135564710Y-91592710D01*
X135582170Y-91716164D01*
X135428000Y-91716164D01*
X135428000Y-93128000D01*
X135172000Y-93128000D01*
X135172000Y-91716164D01*
X134887590Y-91716164D01*
X134750000Y-91743533D01*
X134612410Y-91716164D01*
X134328000Y-91716164D01*
X134328000Y-93128000D01*
X133266164Y-93128000D01*
X133266164Y-93786000D01*
X133378000Y-93786000D01*
X133377999Y-94628000D01*
X131966164Y-94627999D01*
X131966164Y-94912410D01*
X131993533Y-95050000D01*
X131966164Y-95187590D01*
X131966164Y-95976615D01*
X131841731Y-95966712D01*
X131599287Y-96020684D01*
X131383430Y-96143556D01*
X131213245Y-96324469D01*
X131103779Y-96547424D01*
X131064710Y-96792710D01*
X131099492Y-97038642D01*
X131205051Y-97263474D01*
X131372052Y-97447328D01*
X131502232Y-97524470D01*
X130526000Y-98500702D01*
X130526000Y-94087590D01*
X131966164Y-94087590D01*
X131966164Y-94372000D01*
X133122000Y-94372001D01*
X133122001Y-93566164D01*
X132487590Y-93566164D01*
X132294765Y-93604520D01*
X132120775Y-93720775D01*
X132004520Y-93894765D01*
X131966164Y-94087590D01*
X130526000Y-94087590D01*
X130526000Y-92237590D01*
X133266164Y-92237590D01*
X133266164Y-92872000D01*
X134072000Y-92872000D01*
X134072000Y-91716164D01*
X133787590Y-91716164D01*
X133594765Y-91754520D01*
X133420775Y-91870775D01*
X133304520Y-92044765D01*
X133266164Y-92237590D01*
X130526000Y-92237590D01*
X130526000Y-81563187D01*
X130528388Y-81553392D01*
X130545765Y-81342031D01*
X130584380Y-81188297D01*
X130647585Y-81042936D01*
X130670179Y-81008011D01*
X131007301Y-80670889D01*
X131103511Y-80617778D01*
X131252930Y-80564866D01*
X131418151Y-80535435D01*
X131534917Y-80529929D01*
X131553890Y-80526000D01*
X168436813Y-80526000D01*
X168446608Y-80528388D01*
G36*
X152124001Y-87521430D02*
G01*
X152124000Y-90406240D01*
X152103779Y-90447424D01*
X152064710Y-90692710D01*
X152099492Y-90938642D01*
X152124001Y-90990844D01*
X152124000Y-91716164D01*
X151928000Y-91716164D01*
X151928000Y-93128000D01*
X151672000Y-93128000D01*
X151672000Y-91716164D01*
X151387590Y-91716164D01*
X151250000Y-91743533D01*
X151112410Y-91716164D01*
X150287590Y-91716164D01*
X150150000Y-91743533D01*
X150012410Y-91716164D01*
X149919133Y-91716164D01*
X150623324Y-91011974D01*
X150686942Y-90958593D01*
X150728466Y-90886669D01*
X150776101Y-90818640D01*
X150783338Y-90791628D01*
X150797322Y-90767408D01*
X150811744Y-90685620D01*
X150833238Y-90605401D01*
X150826000Y-90522667D01*
X150826000Y-89001805D01*
X150833836Y-88962410D01*
X150833836Y-88509552D01*
X150879225Y-88479225D01*
X150995480Y-88305235D01*
X151033836Y-88112410D01*
X151033836Y-87887590D01*
X150995480Y-87694765D01*
X150879225Y-87520775D01*
X150833836Y-87490448D01*
X150833836Y-87037590D01*
X150826000Y-86998195D01*
X150826000Y-86961707D01*
X150909324Y-86930304D01*
X151105715Y-86778242D01*
X151219382Y-86616810D01*
X152124001Y-87521430D01*
G37*
X152124001Y-87521430D02*
X152124000Y-90406240D01*
X152103779Y-90447424D01*
X152064710Y-90692710D01*
X152099492Y-90938642D01*
X152124001Y-90990844D01*
X152124000Y-91716164D01*
X151928000Y-91716164D01*
X151928000Y-93128000D01*
X151672000Y-93128000D01*
X151672000Y-91716164D01*
X151387590Y-91716164D01*
X151250000Y-91743533D01*
X151112410Y-91716164D01*
X150287590Y-91716164D01*
X150150000Y-91743533D01*
X150012410Y-91716164D01*
X149919133Y-91716164D01*
X150623324Y-91011974D01*
X150686942Y-90958593D01*
X150728466Y-90886669D01*
X150776101Y-90818640D01*
X150783338Y-90791628D01*
X150797322Y-90767408D01*
X150811744Y-90685620D01*
X150833238Y-90605401D01*
X150826000Y-90522667D01*
X150826000Y-89001805D01*
X150833836Y-88962410D01*
X150833836Y-88509552D01*
X150879225Y-88479225D01*
X150995480Y-88305235D01*
X151033836Y-88112410D01*
X151033836Y-87887590D01*
X150995480Y-87694765D01*
X150879225Y-87520775D01*
X150833836Y-87490448D01*
X150833836Y-87037590D01*
X150826000Y-86998195D01*
X150826000Y-86961707D01*
X150909324Y-86930304D01*
X151105715Y-86778242D01*
X151219382Y-86616810D01*
X152124001Y-87521430D01*
G36*
X143514710Y-90942710D02*
G01*
X143527559Y-91033562D01*
X143473341Y-91071526D01*
X143401406Y-91113058D01*
X143348023Y-91176677D01*
X142808537Y-91716164D01*
X142687590Y-91716164D01*
X142500000Y-91753479D01*
X142312410Y-91716164D01*
X142028000Y-91716164D01*
X142028000Y-93128000D01*
X141772000Y-93128000D01*
X141772000Y-91716164D01*
X141574207Y-91716164D01*
X141576295Y-91477016D01*
X141503321Y-91239069D01*
X141363890Y-91033519D01*
X141170184Y-90878053D01*
X141039048Y-90826000D01*
X143533299Y-90826000D01*
X143514710Y-90942710D01*
G37*
X143514710Y-90942710D02*
X143527559Y-91033562D01*
X143473341Y-91071526D01*
X143401406Y-91113058D01*
X143348023Y-91176677D01*
X142808537Y-91716164D01*
X142687590Y-91716164D01*
X142500000Y-91753479D01*
X142312410Y-91716164D01*
X142028000Y-91716164D01*
X142028000Y-93128000D01*
X141772000Y-93128000D01*
X141772000Y-91716164D01*
X141574207Y-91716164D01*
X141576295Y-91477016D01*
X141503321Y-91239069D01*
X141363890Y-91033519D01*
X141170184Y-90878053D01*
X141039048Y-90826000D01*
X143533299Y-90826000D01*
X143514710Y-90942710D01*
G36*
X147303779Y-86247424D02*
G01*
X147283709Y-86373427D01*
X147246733Y-86336451D01*
X147036533Y-86229348D01*
X146813439Y-86194014D01*
X146361561Y-86194014D01*
X146138467Y-86229348D01*
X145928267Y-86336451D01*
X145800000Y-86464718D01*
X145671733Y-86336451D01*
X145461532Y-86229348D01*
X145140500Y-86178502D01*
X145140500Y-87328000D01*
X144022564Y-87328000D01*
X144079348Y-87686532D01*
X144186451Y-87896733D01*
X144289718Y-88000000D01*
X144186451Y-88103267D01*
X144079348Y-88313468D01*
X144022564Y-88672000D01*
X145140500Y-88672000D01*
X145140500Y-88928000D01*
X144022564Y-88928000D01*
X144061525Y-89174000D01*
X143649296Y-89174000D01*
X143551984Y-89076688D01*
X143498593Y-89013058D01*
X143426660Y-88971528D01*
X143358640Y-88923900D01*
X143331628Y-88916662D01*
X143307407Y-88902678D01*
X143225620Y-88888256D01*
X143145401Y-88866762D01*
X143062667Y-88874000D01*
X142325132Y-88874000D01*
X142420652Y-88686532D01*
X142477436Y-88328000D01*
X141359500Y-88327999D01*
X141359501Y-88072000D01*
X142477438Y-88072001D01*
X142420652Y-87713467D01*
X142313549Y-87503267D01*
X142160282Y-87350000D01*
X142313549Y-87196733D01*
X142377104Y-87072000D01*
X144022564Y-87072000D01*
X144884500Y-87072000D01*
X144884500Y-86178502D01*
X144563468Y-86229348D01*
X144353267Y-86336451D01*
X144186451Y-86503267D01*
X144079348Y-86713468D01*
X144022564Y-87072000D01*
X142377104Y-87072000D01*
X142420652Y-86986533D01*
X142455986Y-86763439D01*
X142455986Y-86236561D01*
X142438475Y-86126000D01*
X147363395Y-86126000D01*
X147303779Y-86247424D01*
G37*
X147303779Y-86247424D02*
X147283709Y-86373427D01*
X147246733Y-86336451D01*
X147036533Y-86229348D01*
X146813439Y-86194014D01*
X146361561Y-86194014D01*
X146138467Y-86229348D01*
X145928267Y-86336451D01*
X145800000Y-86464718D01*
X145671733Y-86336451D01*
X145461532Y-86229348D01*
X145140500Y-86178502D01*
X145140500Y-87328000D01*
X144022564Y-87328000D01*
X144079348Y-87686532D01*
X144186451Y-87896733D01*
X144289718Y-88000000D01*
X144186451Y-88103267D01*
X144079348Y-88313468D01*
X144022564Y-88672000D01*
X145140500Y-88672000D01*
X145140500Y-88928000D01*
X144022564Y-88928000D01*
X144061525Y-89174000D01*
X143649296Y-89174000D01*
X143551984Y-89076688D01*
X143498593Y-89013058D01*
X143426660Y-88971528D01*
X143358640Y-88923900D01*
X143331628Y-88916662D01*
X143307407Y-88902678D01*
X143225620Y-88888256D01*
X143145401Y-88866762D01*
X143062667Y-88874000D01*
X142325132Y-88874000D01*
X142420652Y-88686532D01*
X142477436Y-88328000D01*
X141359500Y-88327999D01*
X141359501Y-88072000D01*
X142477438Y-88072001D01*
X142420652Y-87713467D01*
X142313549Y-87503267D01*
X142160282Y-87350000D01*
X142313549Y-87196733D01*
X142377104Y-87072000D01*
X144022564Y-87072000D01*
X144884500Y-87072000D01*
X144884500Y-86178502D01*
X144563468Y-86229348D01*
X144353267Y-86336451D01*
X144186451Y-86503267D01*
X144079348Y-86713468D01*
X144022564Y-87072000D01*
X142377104Y-87072000D01*
X142420652Y-86986533D01*
X142455986Y-86763439D01*
X142455986Y-86236561D01*
X142438475Y-86126000D01*
X147363395Y-86126000D01*
X147303779Y-86247424D01*
M02*
