M48
; DRILL file {KiCad 5.99.0-unknown-a5c7d45~86~ubuntu18.04.1} date Mon 06 Jan 2020 05:05:22 PM EST
; FORMAT={-:-/ absolute / inch / decimal}
; #@! TF.CreationDate,2020-01-06T17:05:22-05:00
; #@! TF.GenerationSoftware,Kicad,Pcbnew,5.99.0-unknown-a5c7d45~86~ubuntu18.04.1
; #@! TF.FileFunction,Plated,1,2,PTH
FMAT,2
INCH
T1C0.0276
T2C0.0394
%
G90
G05
T1
X4.3831Y-5.5906
X4.4331Y-5.5906
X4.4831Y-5.5906
X4.5331Y-5.5906
X4.5831Y-5.5906
X4.6331Y-5.5906
X4.6831Y-5.5906
X4.7331Y-5.5906
X4.7831Y-5.5906
X4.8331Y-5.5906
X4.8831Y-5.5906
X4.9331Y-5.5906
X4.9831Y-5.5906
X5.0331Y-5.5906
X5.0831Y-5.5906
X5.1331Y-5.5906
X5.1831Y-5.5906
X5.2331Y-5.5906
X5.2831Y-5.5906
X5.3331Y-5.5906
X5.3831Y-5.5906
X5.4331Y-5.5906
X4.3831Y-4.252
X4.4331Y-4.252
X4.4831Y-4.252
X4.5331Y-4.252
X4.5831Y-4.252
X4.6331Y-4.252
X4.6831Y-4.252
X4.7331Y-4.252
X4.7831Y-4.252
X4.8331Y-4.252
X4.8831Y-4.252
X4.9331Y-4.252
X4.9831Y-4.252
X5.0331Y-4.252
X5.0831Y-4.252
X5.1331Y-4.252
X5.1831Y-4.252
X5.2331Y-4.252
X5.2831Y-4.252
X5.3331Y-4.252
X5.3831Y-4.252
X5.4331Y-4.252
T2
X4.5669Y-3.8583
X4.5669Y-3.9583
X5.3512Y-3.8583
X5.4512Y-3.8583
X5.5512Y-3.8583
X4.8425Y-3.8583
X4.9425Y-3.8583
X5.0425Y-3.8583
X5.1425Y-3.8583
X4.0354Y-4.5768
X4.0354Y-4.6768
X4.0354Y-4.7768
X4.0354Y-4.8768
X4.0354Y-5.0724
X4.0354Y-5.1724
X4.0354Y-5.2724
X4.0354Y-5.3724
X4.0354Y-5.4724
X4.0354Y-4.1535
X4.0354Y-4.2535
X4.0354Y-4.3535
T0
M30
