G04 #@! TF.GenerationSoftware,KiCad,Pcbnew,5.99.0-unknown-a5c7d45~86~ubuntu18.04.1*
G04 #@! TF.CreationDate,2020-01-06T17:05:20-05:00*
G04 #@! TF.ProjectId,firmware_upgrade_extension_board,6669726d-7761-4726-955f-757067726164,rev?*
G04 #@! TF.SameCoordinates,Original*
G04 #@! TF.FileFunction,Legend,Top*
G04 #@! TF.FilePolarity,Positive*
%FSLAX46Y46*%
G04 Gerber Fmt 4.6, Leading zero omitted, Abs format (unit mm)*
G04 Created by KiCad (PCBNEW 5.99.0-unknown-a5c7d45~86~ubuntu18.04.1) date 2020-01-06 17:05:20*
%MOMM*%
%LPD*%
G04 APERTURE LIST*
%ADD10C,0.150000*%
%ADD11C,0.120000*%
%ADD12C,0.300000*%
G04 APERTURE END LIST*
D10*
X105988095Y-115750000D02*
X105892857Y-115702380D01*
X105750000Y-115702380D01*
X105607142Y-115750000D01*
X105511904Y-115845238D01*
X105464285Y-115940476D01*
X105416666Y-116130952D01*
X105416666Y-116273809D01*
X105464285Y-116464285D01*
X105511904Y-116559523D01*
X105607142Y-116654761D01*
X105750000Y-116702380D01*
X105845238Y-116702380D01*
X105988095Y-116654761D01*
X106035714Y-116607142D01*
X106035714Y-116273809D01*
X105845238Y-116273809D01*
X106464285Y-116702380D02*
X106464285Y-115702380D01*
X107035714Y-116702380D01*
X107035714Y-115702380D01*
X107511904Y-116702380D02*
X107511904Y-115702380D01*
X107750000Y-115702380D01*
X107892857Y-115750000D01*
X107988095Y-115845238D01*
X108035714Y-115940476D01*
X108083333Y-116130952D01*
X108083333Y-116273809D01*
X108035714Y-116464285D01*
X107988095Y-116559523D01*
X107892857Y-116654761D01*
X107750000Y-116702380D01*
X107511904Y-116702380D01*
X105285714Y-118202380D02*
X105285714Y-119011904D01*
X105333333Y-119107142D01*
X105380952Y-119154761D01*
X105476190Y-119202380D01*
X105666666Y-119202380D01*
X105761904Y-119154761D01*
X105809523Y-119107142D01*
X105857142Y-119011904D01*
X105857142Y-118202380D01*
X106285714Y-119154761D02*
X106428571Y-119202380D01*
X106666666Y-119202380D01*
X106761904Y-119154761D01*
X106809523Y-119107142D01*
X106857142Y-119011904D01*
X106857142Y-118916666D01*
X106809523Y-118821428D01*
X106761904Y-118773809D01*
X106666666Y-118726190D01*
X106476190Y-118678571D01*
X106380952Y-118630952D01*
X106333333Y-118583333D01*
X106285714Y-118488095D01*
X106285714Y-118392857D01*
X106333333Y-118297619D01*
X106380952Y-118250000D01*
X106476190Y-118202380D01*
X106714285Y-118202380D01*
X106857142Y-118250000D01*
X107619047Y-118678571D02*
X107761904Y-118726190D01*
X107809523Y-118773809D01*
X107857142Y-118869047D01*
X107857142Y-119011904D01*
X107809523Y-119107142D01*
X107761904Y-119154761D01*
X107666666Y-119202380D01*
X107285714Y-119202380D01*
X107285714Y-118202380D01*
X107619047Y-118202380D01*
X107714285Y-118250000D01*
X107761904Y-118297619D01*
X107809523Y-118392857D01*
X107809523Y-118488095D01*
X107761904Y-118583333D01*
X107714285Y-118630952D01*
X107619047Y-118678571D01*
X107285714Y-118678571D01*
X108047619Y-119297619D02*
X108809523Y-119297619D01*
X109047619Y-119202380D02*
X109047619Y-118202380D01*
X109285714Y-118202380D01*
X109428571Y-118250000D01*
X109523809Y-118345238D01*
X109571428Y-118440476D01*
X109619047Y-118630952D01*
X109619047Y-118773809D01*
X109571428Y-118964285D01*
X109523809Y-119059523D01*
X109428571Y-119154761D01*
X109285714Y-119202380D01*
X109047619Y-119202380D01*
X110047619Y-119202380D02*
X110047619Y-118202380D01*
X110380952Y-118916666D01*
X110714285Y-118202380D01*
X110714285Y-119202380D01*
X105357142Y-120702380D02*
X105357142Y-121511904D01*
X105404761Y-121607142D01*
X105452380Y-121654761D01*
X105547619Y-121702380D01*
X105738095Y-121702380D01*
X105833333Y-121654761D01*
X105880952Y-121607142D01*
X105928571Y-121511904D01*
X105928571Y-120702380D01*
X106357142Y-121654761D02*
X106500000Y-121702380D01*
X106738095Y-121702380D01*
X106833333Y-121654761D01*
X106880952Y-121607142D01*
X106928571Y-121511904D01*
X106928571Y-121416666D01*
X106880952Y-121321428D01*
X106833333Y-121273809D01*
X106738095Y-121226190D01*
X106547619Y-121178571D01*
X106452380Y-121130952D01*
X106404761Y-121083333D01*
X106357142Y-120988095D01*
X106357142Y-120892857D01*
X106404761Y-120797619D01*
X106452380Y-120750000D01*
X106547619Y-120702380D01*
X106785714Y-120702380D01*
X106928571Y-120750000D01*
X107690476Y-121178571D02*
X107833333Y-121226190D01*
X107880952Y-121273809D01*
X107928571Y-121369047D01*
X107928571Y-121511904D01*
X107880952Y-121607142D01*
X107833333Y-121654761D01*
X107738095Y-121702380D01*
X107357142Y-121702380D01*
X107357142Y-120702380D01*
X107690476Y-120702380D01*
X107785714Y-120750000D01*
X107833333Y-120797619D01*
X107880952Y-120892857D01*
X107880952Y-120988095D01*
X107833333Y-121083333D01*
X107785714Y-121130952D01*
X107690476Y-121178571D01*
X107357142Y-121178571D01*
X108119047Y-121797619D02*
X108880952Y-121797619D01*
X109119047Y-121702380D02*
X109119047Y-120702380D01*
X109357142Y-120702380D01*
X109500000Y-120750000D01*
X109595238Y-120845238D01*
X109642857Y-120940476D01*
X109690476Y-121130952D01*
X109690476Y-121273809D01*
X109642857Y-121464285D01*
X109595238Y-121559523D01*
X109500000Y-121654761D01*
X109357142Y-121702380D01*
X109119047Y-121702380D01*
X110119047Y-121702380D02*
X110119047Y-120702380D01*
X110500000Y-120702380D01*
X110595238Y-120750000D01*
X110642857Y-120797619D01*
X110690476Y-120892857D01*
X110690476Y-121035714D01*
X110642857Y-121130952D01*
X110595238Y-121178571D01*
X110500000Y-121226190D01*
X110119047Y-121226190D01*
X105214285Y-123202380D02*
X105214285Y-124011904D01*
X105261904Y-124107142D01*
X105309523Y-124154761D01*
X105404761Y-124202380D01*
X105595238Y-124202380D01*
X105690476Y-124154761D01*
X105738095Y-124107142D01*
X105785714Y-124011904D01*
X105785714Y-123202380D01*
X106214285Y-124154761D02*
X106357142Y-124202380D01*
X106595238Y-124202380D01*
X106690476Y-124154761D01*
X106738095Y-124107142D01*
X106785714Y-124011904D01*
X106785714Y-123916666D01*
X106738095Y-123821428D01*
X106690476Y-123773809D01*
X106595238Y-123726190D01*
X106404761Y-123678571D01*
X106309523Y-123630952D01*
X106261904Y-123583333D01*
X106214285Y-123488095D01*
X106214285Y-123392857D01*
X106261904Y-123297619D01*
X106309523Y-123250000D01*
X106404761Y-123202380D01*
X106642857Y-123202380D01*
X106785714Y-123250000D01*
X107547619Y-123678571D02*
X107690476Y-123726190D01*
X107738095Y-123773809D01*
X107785714Y-123869047D01*
X107785714Y-124011904D01*
X107738095Y-124107142D01*
X107690476Y-124154761D01*
X107595238Y-124202380D01*
X107214285Y-124202380D01*
X107214285Y-123202380D01*
X107547619Y-123202380D01*
X107642857Y-123250000D01*
X107690476Y-123297619D01*
X107738095Y-123392857D01*
X107738095Y-123488095D01*
X107690476Y-123583333D01*
X107642857Y-123630952D01*
X107547619Y-123678571D01*
X107214285Y-123678571D01*
X108214285Y-123821428D02*
X108976190Y-123821428D01*
X108595238Y-124202380D02*
X108595238Y-123440476D01*
X109928571Y-123202380D02*
X109452380Y-123202380D01*
X109404761Y-123678571D01*
X109452380Y-123630952D01*
X109547619Y-123583333D01*
X109785714Y-123583333D01*
X109880952Y-123630952D01*
X109928571Y-123678571D01*
X109976190Y-123773809D01*
X109976190Y-124011904D01*
X109928571Y-124107142D01*
X109880952Y-124154761D01*
X109785714Y-124202380D01*
X109547619Y-124202380D01*
X109452380Y-124154761D01*
X109404761Y-124107142D01*
X110261904Y-123202380D02*
X110595238Y-124202380D01*
X110928571Y-123202380D01*
D11*
X125500000Y-99000000D02*
X124500000Y-101500000D01*
X123000000Y-99000000D02*
X122000000Y-103000000D01*
D10*
X105000000Y-136952380D02*
X105000000Y-135952380D01*
X105333333Y-136666666D01*
X105666666Y-135952380D01*
X105666666Y-136952380D01*
X105904761Y-137047619D02*
X106666666Y-137047619D01*
X106857142Y-136666666D02*
X107333333Y-136666666D01*
X106761904Y-136952380D02*
X107095238Y-135952380D01*
X107428571Y-136952380D01*
X107761904Y-135952380D02*
X107761904Y-136761904D01*
X107809523Y-136857142D01*
X107857142Y-136904761D01*
X107952380Y-136952380D01*
X108142857Y-136952380D01*
X108238095Y-136904761D01*
X108285714Y-136857142D01*
X108333333Y-136761904D01*
X108333333Y-135952380D01*
X108714285Y-135952380D02*
X109380952Y-136952380D01*
X109380952Y-135952380D02*
X108714285Y-136952380D01*
X109523809Y-137047619D02*
X110285714Y-137047619D01*
X111095238Y-136952380D02*
X110761904Y-136476190D01*
X110523809Y-136952380D02*
X110523809Y-135952380D01*
X110904761Y-135952380D01*
X111000000Y-136000000D01*
X111047619Y-136047619D01*
X111095238Y-136142857D01*
X111095238Y-136285714D01*
X111047619Y-136380952D01*
X111000000Y-136428571D01*
X110904761Y-136476190D01*
X110523809Y-136476190D01*
X111428571Y-135952380D02*
X112095238Y-136952380D01*
X112095238Y-135952380D02*
X111428571Y-136952380D01*
X104869047Y-134452380D02*
X104869047Y-133452380D01*
X105202380Y-134166666D01*
X105535714Y-133452380D01*
X105535714Y-134452380D01*
X105773809Y-134547619D02*
X106535714Y-134547619D01*
X106726190Y-134166666D02*
X107202380Y-134166666D01*
X106630952Y-134452380D02*
X106964285Y-133452380D01*
X107297619Y-134452380D01*
X107630952Y-133452380D02*
X107630952Y-134261904D01*
X107678571Y-134357142D01*
X107726190Y-134404761D01*
X107821428Y-134452380D01*
X108011904Y-134452380D01*
X108107142Y-134404761D01*
X108154761Y-134357142D01*
X108202380Y-134261904D01*
X108202380Y-133452380D01*
X108583333Y-133452380D02*
X109250000Y-134452380D01*
X109250000Y-133452380D02*
X108583333Y-134452380D01*
X109392857Y-134547619D02*
X110154761Y-134547619D01*
X110250000Y-133452380D02*
X110821428Y-133452380D01*
X110535714Y-134452380D02*
X110535714Y-133452380D01*
X111059523Y-133452380D02*
X111726190Y-134452380D01*
X111726190Y-133452380D02*
X111059523Y-134452380D01*
X104928571Y-131952380D02*
X104928571Y-130952380D01*
X105261904Y-131666666D01*
X105595238Y-130952380D01*
X105595238Y-131952380D01*
X105833333Y-132047619D02*
X106595238Y-132047619D01*
X106833333Y-131952380D02*
X106833333Y-130952380D01*
X107071428Y-130952380D01*
X107214285Y-131000000D01*
X107309523Y-131095238D01*
X107357142Y-131190476D01*
X107404761Y-131380952D01*
X107404761Y-131523809D01*
X107357142Y-131714285D01*
X107309523Y-131809523D01*
X107214285Y-131904761D01*
X107071428Y-131952380D01*
X106833333Y-131952380D01*
X108166666Y-131428571D02*
X108309523Y-131476190D01*
X108357142Y-131523809D01*
X108404761Y-131619047D01*
X108404761Y-131761904D01*
X108357142Y-131857142D01*
X108309523Y-131904761D01*
X108214285Y-131952380D01*
X107833333Y-131952380D01*
X107833333Y-130952380D01*
X108166666Y-130952380D01*
X108261904Y-131000000D01*
X108309523Y-131047619D01*
X108357142Y-131142857D01*
X108357142Y-131238095D01*
X108309523Y-131333333D01*
X108261904Y-131380952D01*
X108166666Y-131428571D01*
X107833333Y-131428571D01*
X109357142Y-131000000D02*
X109261904Y-130952380D01*
X109119047Y-130952380D01*
X108976190Y-131000000D01*
X108880952Y-131095238D01*
X108833333Y-131190476D01*
X108785714Y-131380952D01*
X108785714Y-131523809D01*
X108833333Y-131714285D01*
X108880952Y-131809523D01*
X108976190Y-131904761D01*
X109119047Y-131952380D01*
X109214285Y-131952380D01*
X109357142Y-131904761D01*
X109404761Y-131857142D01*
X109404761Y-131523809D01*
X109214285Y-131523809D01*
X109595238Y-132047619D02*
X110357142Y-132047619D01*
X111166666Y-131952380D02*
X110833333Y-131476190D01*
X110595238Y-131952380D02*
X110595238Y-130952380D01*
X110976190Y-130952380D01*
X111071428Y-131000000D01*
X111119047Y-131047619D01*
X111166666Y-131142857D01*
X111166666Y-131285714D01*
X111119047Y-131380952D01*
X111071428Y-131428571D01*
X110976190Y-131476190D01*
X110595238Y-131476190D01*
X111500000Y-130952380D02*
X112166666Y-131952380D01*
X112166666Y-130952380D02*
X111500000Y-131952380D01*
D11*
X115750000Y-139500000D02*
X110250000Y-139500000D01*
X115750000Y-144500000D02*
X115750000Y-139500000D01*
X110250000Y-144500000D02*
X115750000Y-144500000D01*
X110250000Y-139500000D02*
X110250000Y-144500000D01*
X126000000Y-139250000D02*
X120750000Y-139250000D01*
X126000000Y-144500000D02*
X126000000Y-139250000D01*
X120750000Y-144500000D02*
X126000000Y-144500000D01*
X120750000Y-139250000D02*
X120750000Y-144500000D01*
X139000000Y-139500000D02*
X136000000Y-139500000D01*
X139000000Y-144500000D02*
X139000000Y-139500000D01*
X136000000Y-144500000D02*
X139000000Y-144500000D01*
X136000000Y-139500000D02*
X136000000Y-144500000D01*
X139000000Y-110500000D02*
X139000000Y-105500000D01*
X135750000Y-110500000D02*
X139000000Y-110500000D01*
X135750000Y-105500000D02*
X135750000Y-110500000D01*
X139000000Y-105500000D02*
X135750000Y-105500000D01*
X122250000Y-106000000D02*
X118250000Y-106000000D01*
X122250000Y-110250000D02*
X122250000Y-106000000D01*
X118250000Y-110250000D02*
X122250000Y-110250000D01*
X118250000Y-106000000D02*
X118250000Y-110250000D01*
D10*
X112238095Y-138250000D02*
X112142857Y-138202380D01*
X112000000Y-138202380D01*
X111857142Y-138250000D01*
X111761904Y-138345238D01*
X111714285Y-138440476D01*
X111666666Y-138630952D01*
X111666666Y-138773809D01*
X111714285Y-138964285D01*
X111761904Y-139059523D01*
X111857142Y-139154761D01*
X112000000Y-139202380D01*
X112095238Y-139202380D01*
X112238095Y-139154761D01*
X112285714Y-139107142D01*
X112285714Y-138773809D01*
X112095238Y-138773809D01*
X112714285Y-139202380D02*
X112714285Y-138202380D01*
X113285714Y-139202380D01*
X113285714Y-138202380D01*
X113761904Y-139202380D02*
X113761904Y-138202380D01*
X114000000Y-138202380D01*
X114142857Y-138250000D01*
X114238095Y-138345238D01*
X114285714Y-138440476D01*
X114333333Y-138630952D01*
X114333333Y-138773809D01*
X114285714Y-138964285D01*
X114238095Y-139059523D01*
X114142857Y-139154761D01*
X114000000Y-139202380D01*
X113761904Y-139202380D01*
X105488095Y-138750000D02*
X105392857Y-138702380D01*
X105250000Y-138702380D01*
X105107142Y-138750000D01*
X105011904Y-138845238D01*
X104964285Y-138940476D01*
X104916666Y-139130952D01*
X104916666Y-139273809D01*
X104964285Y-139464285D01*
X105011904Y-139559523D01*
X105107142Y-139654761D01*
X105250000Y-139702380D01*
X105345238Y-139702380D01*
X105488095Y-139654761D01*
X105535714Y-139607142D01*
X105535714Y-139273809D01*
X105345238Y-139273809D01*
X105964285Y-139702380D02*
X105964285Y-138702380D01*
X106535714Y-139702380D01*
X106535714Y-138702380D01*
X107011904Y-139702380D02*
X107011904Y-138702380D01*
X107250000Y-138702380D01*
X107392857Y-138750000D01*
X107488095Y-138845238D01*
X107535714Y-138940476D01*
X107583333Y-139130952D01*
X107583333Y-139273809D01*
X107535714Y-139464285D01*
X107488095Y-139559523D01*
X107392857Y-139654761D01*
X107250000Y-139702380D01*
X107011904Y-139702380D01*
X105488095Y-110250000D02*
X105392857Y-110202380D01*
X105250000Y-110202380D01*
X105107142Y-110250000D01*
X105011904Y-110345238D01*
X104964285Y-110440476D01*
X104916666Y-110630952D01*
X104916666Y-110773809D01*
X104964285Y-110964285D01*
X105011904Y-111059523D01*
X105107142Y-111154761D01*
X105250000Y-111202380D01*
X105345238Y-111202380D01*
X105488095Y-111154761D01*
X105535714Y-111107142D01*
X105535714Y-110773809D01*
X105345238Y-110773809D01*
X105964285Y-111202380D02*
X105964285Y-110202380D01*
X106535714Y-111202380D01*
X106535714Y-110202380D01*
X107011904Y-111202380D02*
X107011904Y-110202380D01*
X107250000Y-110202380D01*
X107392857Y-110250000D01*
X107488095Y-110345238D01*
X107535714Y-110440476D01*
X107583333Y-110630952D01*
X107583333Y-110773809D01*
X107535714Y-110964285D01*
X107488095Y-111059523D01*
X107392857Y-111154761D01*
X107250000Y-111202380D01*
X107011904Y-111202380D01*
X105488095Y-105000000D02*
X105392857Y-104952380D01*
X105250000Y-104952380D01*
X105107142Y-105000000D01*
X105011904Y-105095238D01*
X104964285Y-105190476D01*
X104916666Y-105380952D01*
X104916666Y-105523809D01*
X104964285Y-105714285D01*
X105011904Y-105809523D01*
X105107142Y-105904761D01*
X105250000Y-105952380D01*
X105345238Y-105952380D01*
X105488095Y-105904761D01*
X105535714Y-105857142D01*
X105535714Y-105523809D01*
X105345238Y-105523809D01*
X105964285Y-105952380D02*
X105964285Y-104952380D01*
X106535714Y-105952380D01*
X106535714Y-104952380D01*
X107011904Y-105952380D02*
X107011904Y-104952380D01*
X107250000Y-104952380D01*
X107392857Y-105000000D01*
X107488095Y-105095238D01*
X107535714Y-105190476D01*
X107583333Y-105380952D01*
X107583333Y-105523809D01*
X107535714Y-105714285D01*
X107488095Y-105809523D01*
X107392857Y-105904761D01*
X107250000Y-105952380D01*
X107011904Y-105952380D01*
X105488095Y-107750000D02*
X105392857Y-107702380D01*
X105250000Y-107702380D01*
X105107142Y-107750000D01*
X105011904Y-107845238D01*
X104964285Y-107940476D01*
X104916666Y-108130952D01*
X104916666Y-108273809D01*
X104964285Y-108464285D01*
X105011904Y-108559523D01*
X105107142Y-108654761D01*
X105250000Y-108702380D01*
X105345238Y-108702380D01*
X105488095Y-108654761D01*
X105535714Y-108607142D01*
X105535714Y-108273809D01*
X105345238Y-108273809D01*
X105964285Y-108702380D02*
X105964285Y-107702380D01*
X106535714Y-108702380D01*
X106535714Y-107702380D01*
X107011904Y-108702380D02*
X107011904Y-107702380D01*
X107250000Y-107702380D01*
X107392857Y-107750000D01*
X107488095Y-107845238D01*
X107535714Y-107940476D01*
X107583333Y-108130952D01*
X107583333Y-108273809D01*
X107535714Y-108464285D01*
X107488095Y-108559523D01*
X107392857Y-108654761D01*
X107250000Y-108702380D01*
X107011904Y-108702380D01*
X104797619Y-129202380D02*
X104797619Y-128202380D01*
X105130952Y-128916666D01*
X105464285Y-128202380D01*
X105464285Y-129202380D01*
X105702380Y-129297619D02*
X106464285Y-129297619D01*
X106702380Y-129202380D02*
X106702380Y-128202380D01*
X106940476Y-128202380D01*
X107083333Y-128250000D01*
X107178571Y-128345238D01*
X107226190Y-128440476D01*
X107273809Y-128630952D01*
X107273809Y-128773809D01*
X107226190Y-128964285D01*
X107178571Y-129059523D01*
X107083333Y-129154761D01*
X106940476Y-129202380D01*
X106702380Y-129202380D01*
X108035714Y-128678571D02*
X108178571Y-128726190D01*
X108226190Y-128773809D01*
X108273809Y-128869047D01*
X108273809Y-129011904D01*
X108226190Y-129107142D01*
X108178571Y-129154761D01*
X108083333Y-129202380D01*
X107702380Y-129202380D01*
X107702380Y-128202380D01*
X108035714Y-128202380D01*
X108130952Y-128250000D01*
X108178571Y-128297619D01*
X108226190Y-128392857D01*
X108226190Y-128488095D01*
X108178571Y-128583333D01*
X108130952Y-128630952D01*
X108035714Y-128678571D01*
X107702380Y-128678571D01*
X109226190Y-128250000D02*
X109130952Y-128202380D01*
X108988095Y-128202380D01*
X108845238Y-128250000D01*
X108750000Y-128345238D01*
X108702380Y-128440476D01*
X108654761Y-128630952D01*
X108654761Y-128773809D01*
X108702380Y-128964285D01*
X108750000Y-129059523D01*
X108845238Y-129154761D01*
X108988095Y-129202380D01*
X109083333Y-129202380D01*
X109226190Y-129154761D01*
X109273809Y-129107142D01*
X109273809Y-128773809D01*
X109083333Y-128773809D01*
X109464285Y-129297619D02*
X110226190Y-129297619D01*
X110321428Y-128202380D02*
X110892857Y-128202380D01*
X110607142Y-129202380D02*
X110607142Y-128202380D01*
X111130952Y-128202380D02*
X111797619Y-129202380D01*
X111797619Y-128202380D02*
X111130952Y-129202380D01*
X135166666Y-100702380D02*
X135500000Y-101702380D01*
X135833333Y-100702380D01*
X136738095Y-101607142D02*
X136690476Y-101654761D01*
X136547619Y-101702380D01*
X136452380Y-101702380D01*
X136309523Y-101654761D01*
X136214285Y-101559523D01*
X136166666Y-101464285D01*
X136119047Y-101273809D01*
X136119047Y-101130952D01*
X136166666Y-100940476D01*
X136214285Y-100845238D01*
X136309523Y-100750000D01*
X136452380Y-100702380D01*
X136547619Y-100702380D01*
X136690476Y-100750000D01*
X136738095Y-100797619D01*
X137738095Y-101607142D02*
X137690476Y-101654761D01*
X137547619Y-101702380D01*
X137452380Y-101702380D01*
X137309523Y-101654761D01*
X137214285Y-101559523D01*
X137166666Y-101464285D01*
X137119047Y-101273809D01*
X137119047Y-101130952D01*
X137166666Y-100940476D01*
X137214285Y-100845238D01*
X137309523Y-100750000D01*
X137452380Y-100702380D01*
X137547619Y-100702380D01*
X137690476Y-100750000D01*
X137738095Y-100797619D01*
X138833333Y-100702380D02*
X139452380Y-100702380D01*
X139119047Y-101083333D01*
X139261904Y-101083333D01*
X139357142Y-101130952D01*
X139404761Y-101178571D01*
X139452380Y-101273809D01*
X139452380Y-101511904D01*
X139404761Y-101607142D01*
X139357142Y-101654761D01*
X139261904Y-101702380D01*
X138976190Y-101702380D01*
X138880952Y-101654761D01*
X138833333Y-101607142D01*
X139880952Y-101607142D02*
X139928571Y-101654761D01*
X139880952Y-101702380D01*
X139833333Y-101654761D01*
X139880952Y-101607142D01*
X139880952Y-101702380D01*
X140261904Y-100702380D02*
X140880952Y-100702380D01*
X140547619Y-101083333D01*
X140690476Y-101083333D01*
X140785714Y-101130952D01*
X140833333Y-101178571D01*
X140880952Y-101273809D01*
X140880952Y-101511904D01*
X140833333Y-101607142D01*
X140785714Y-101654761D01*
X140690476Y-101702380D01*
X140404761Y-101702380D01*
X140309523Y-101654761D01*
X140261904Y-101607142D01*
X141166666Y-100702380D02*
X141500000Y-101702380D01*
X141833333Y-100702380D01*
X109809523Y-103452380D02*
X109809523Y-102452380D01*
X110190476Y-102452380D01*
X110285714Y-102500000D01*
X110333333Y-102547619D01*
X110380952Y-102642857D01*
X110380952Y-102785714D01*
X110333333Y-102880952D01*
X110285714Y-102928571D01*
X110190476Y-102976190D01*
X109809523Y-102976190D01*
X110714285Y-102452380D02*
X110952380Y-103452380D01*
X111142857Y-102738095D01*
X111333333Y-103452380D01*
X111571428Y-102452380D01*
X112523809Y-103452380D02*
X112190476Y-102976190D01*
X111952380Y-103452380D02*
X111952380Y-102452380D01*
X112333333Y-102452380D01*
X112428571Y-102500000D01*
X112476190Y-102547619D01*
X112523809Y-102642857D01*
X112523809Y-102785714D01*
X112476190Y-102880952D01*
X112428571Y-102928571D01*
X112333333Y-102976190D01*
X111952380Y-102976190D01*
X112714285Y-103547619D02*
X113476190Y-103547619D01*
X113714285Y-103452380D02*
X113714285Y-102452380D01*
X114285714Y-103452380D02*
X113857142Y-102880952D01*
X114285714Y-102452380D02*
X113714285Y-103023809D01*
X114714285Y-102928571D02*
X115047619Y-102928571D01*
X115190476Y-103452380D02*
X114714285Y-103452380D01*
X114714285Y-102452380D01*
X115190476Y-102452380D01*
X115809523Y-102976190D02*
X115809523Y-103452380D01*
X115476190Y-102452380D02*
X115809523Y-102976190D01*
X116142857Y-102452380D01*
X116476190Y-103071428D02*
X117238095Y-103071428D01*
X116857142Y-103452380D02*
X116857142Y-102690476D01*
X118238095Y-103452380D02*
X117666666Y-103452380D01*
X117952380Y-103452380D02*
X117952380Y-102452380D01*
X117857142Y-102595238D01*
X117761904Y-102690476D01*
X117666666Y-102738095D01*
X101404761Y-102452380D02*
X101404761Y-101452380D01*
X101785714Y-101452380D01*
X101880952Y-101500000D01*
X101928571Y-101547619D01*
X101976190Y-101642857D01*
X101976190Y-101785714D01*
X101928571Y-101880952D01*
X101880952Y-101928571D01*
X101785714Y-101976190D01*
X101404761Y-101976190D01*
X102309523Y-101452380D02*
X102547619Y-102452380D01*
X102738095Y-101738095D01*
X102928571Y-102452380D01*
X103166666Y-101452380D01*
X104119047Y-102452380D02*
X103785714Y-101976190D01*
X103547619Y-102452380D02*
X103547619Y-101452380D01*
X103928571Y-101452380D01*
X104023809Y-101500000D01*
X104071428Y-101547619D01*
X104119047Y-101642857D01*
X104119047Y-101785714D01*
X104071428Y-101880952D01*
X104023809Y-101928571D01*
X103928571Y-101976190D01*
X103547619Y-101976190D01*
X104309523Y-102547619D02*
X105071428Y-102547619D01*
X105309523Y-102452380D02*
X105309523Y-101452380D01*
X105880952Y-102452380D02*
X105452380Y-101880952D01*
X105880952Y-101452380D02*
X105309523Y-102023809D01*
X106309523Y-101928571D02*
X106642857Y-101928571D01*
X106785714Y-102452380D02*
X106309523Y-102452380D01*
X106309523Y-101452380D01*
X106785714Y-101452380D01*
X107404761Y-101976190D02*
X107404761Y-102452380D01*
X107071428Y-101452380D02*
X107404761Y-101976190D01*
X107738095Y-101452380D01*
X127488095Y-100000000D02*
X127392857Y-99952380D01*
X127250000Y-99952380D01*
X127107142Y-100000000D01*
X127011904Y-100095238D01*
X126964285Y-100190476D01*
X126916666Y-100380952D01*
X126916666Y-100523809D01*
X126964285Y-100714285D01*
X127011904Y-100809523D01*
X127107142Y-100904761D01*
X127250000Y-100952380D01*
X127345238Y-100952380D01*
X127488095Y-100904761D01*
X127535714Y-100857142D01*
X127535714Y-100523809D01*
X127345238Y-100523809D01*
X127964285Y-100952380D02*
X127964285Y-99952380D01*
X128535714Y-100952380D01*
X128535714Y-99952380D01*
X129011904Y-100952380D02*
X129011904Y-99952380D01*
X129250000Y-99952380D01*
X129392857Y-100000000D01*
X129488095Y-100095238D01*
X129535714Y-100190476D01*
X129583333Y-100380952D01*
X129583333Y-100523809D01*
X129535714Y-100714285D01*
X129488095Y-100809523D01*
X129392857Y-100904761D01*
X129250000Y-100952380D01*
X129011904Y-100952380D01*
X124035714Y-102702380D02*
X124035714Y-101702380D01*
X124369047Y-102416666D01*
X124702380Y-101702380D01*
X124702380Y-102702380D01*
X124940476Y-102797619D02*
X125702380Y-102797619D01*
X125940476Y-102702380D02*
X125940476Y-101702380D01*
X126273809Y-102416666D01*
X126607142Y-101702380D01*
X126607142Y-102702380D01*
X127035714Y-102416666D02*
X127511904Y-102416666D01*
X126940476Y-102702380D02*
X127273809Y-101702380D01*
X127607142Y-102702380D01*
X127940476Y-102702380D02*
X127940476Y-101702380D01*
X128416666Y-102702380D02*
X128416666Y-101702380D01*
X128988095Y-102702380D01*
X128988095Y-101702380D01*
X129226190Y-102797619D02*
X129988095Y-102797619D01*
X130083333Y-101702380D02*
X130654761Y-101702380D01*
X130369047Y-102702380D02*
X130369047Y-101702380D01*
X130892857Y-101702380D02*
X131559523Y-102702380D01*
X131559523Y-101702380D02*
X130892857Y-102702380D01*
X121166666Y-104452380D02*
X121166666Y-103452380D01*
X121500000Y-104166666D01*
X121833333Y-103452380D01*
X121833333Y-104452380D01*
X122071428Y-104547619D02*
X122833333Y-104547619D01*
X123071428Y-104452380D02*
X123071428Y-103452380D01*
X123404761Y-104166666D01*
X123738095Y-103452380D01*
X123738095Y-104452380D01*
X124166666Y-104166666D02*
X124642857Y-104166666D01*
X124071428Y-104452380D02*
X124404761Y-103452380D01*
X124738095Y-104452380D01*
X125071428Y-104452380D02*
X125071428Y-103452380D01*
X125547619Y-104452380D02*
X125547619Y-103452380D01*
X126119047Y-104452380D01*
X126119047Y-103452380D01*
X126357142Y-104547619D02*
X127119047Y-104547619D01*
X127928571Y-104452380D02*
X127595238Y-103976190D01*
X127357142Y-104452380D02*
X127357142Y-103452380D01*
X127738095Y-103452380D01*
X127833333Y-103500000D01*
X127880952Y-103547619D01*
X127928571Y-103642857D01*
X127928571Y-103785714D01*
X127880952Y-103880952D01*
X127833333Y-103928571D01*
X127738095Y-103976190D01*
X127357142Y-103976190D01*
X128261904Y-103452380D02*
X128928571Y-104452380D01*
X128928571Y-103452380D02*
X128261904Y-104452380D01*
D12*
X117107142Y-120997142D02*
X116607142Y-120997142D01*
X116607142Y-122044761D02*
X116607142Y-120044761D01*
X117321428Y-120044761D01*
X117892857Y-122044761D02*
X117892857Y-120711428D01*
X117892857Y-120044761D02*
X117821428Y-120140000D01*
X117892857Y-120235238D01*
X117964285Y-120140000D01*
X117892857Y-120044761D01*
X117892857Y-120235238D01*
X118607142Y-122044761D02*
X118607142Y-120711428D01*
X118607142Y-121092380D02*
X118678571Y-120901904D01*
X118750000Y-120806666D01*
X118892857Y-120711428D01*
X119035714Y-120711428D01*
X119535714Y-122044761D02*
X119535714Y-120711428D01*
X119535714Y-120901904D02*
X119607142Y-120806666D01*
X119750000Y-120711428D01*
X119964285Y-120711428D01*
X120107142Y-120806666D01*
X120178571Y-120997142D01*
X120178571Y-122044761D01*
X120178571Y-120997142D02*
X120250000Y-120806666D01*
X120392857Y-120711428D01*
X120607142Y-120711428D01*
X120750000Y-120806666D01*
X120821428Y-120997142D01*
X120821428Y-122044761D01*
X121392857Y-120711428D02*
X121678571Y-122044761D01*
X121964285Y-121092380D01*
X122250000Y-122044761D01*
X122535714Y-120711428D01*
X123750000Y-122044761D02*
X123750000Y-120997142D01*
X123678571Y-120806666D01*
X123535714Y-120711428D01*
X123250000Y-120711428D01*
X123107142Y-120806666D01*
X123750000Y-121949523D02*
X123607142Y-122044761D01*
X123250000Y-122044761D01*
X123107142Y-121949523D01*
X123035714Y-121759047D01*
X123035714Y-121568571D01*
X123107142Y-121378095D01*
X123250000Y-121282857D01*
X123607142Y-121282857D01*
X123750000Y-121187619D01*
X124464285Y-122044761D02*
X124464285Y-120711428D01*
X124464285Y-121092380D02*
X124535714Y-120901904D01*
X124607142Y-120806666D01*
X124750000Y-120711428D01*
X124892857Y-120711428D01*
X125964285Y-121949523D02*
X125821428Y-122044761D01*
X125535714Y-122044761D01*
X125392857Y-121949523D01*
X125321428Y-121759047D01*
X125321428Y-120997142D01*
X125392857Y-120806666D01*
X125535714Y-120711428D01*
X125821428Y-120711428D01*
X125964285Y-120806666D01*
X126035714Y-120997142D01*
X126035714Y-121187619D01*
X125321428Y-121378095D01*
X127821428Y-120044761D02*
X127821428Y-121663809D01*
X127892857Y-121854285D01*
X127964285Y-121949523D01*
X128107142Y-122044761D01*
X128392857Y-122044761D01*
X128535714Y-121949523D01*
X128607142Y-121854285D01*
X128678571Y-121663809D01*
X128678571Y-120044761D01*
X129392857Y-120711428D02*
X129392857Y-122711428D01*
X129392857Y-120806666D02*
X129535714Y-120711428D01*
X129821428Y-120711428D01*
X129964285Y-120806666D01*
X130035714Y-120901904D01*
X130107142Y-121092380D01*
X130107142Y-121663809D01*
X130035714Y-121854285D01*
X129964285Y-121949523D01*
X129821428Y-122044761D01*
X129535714Y-122044761D01*
X129392857Y-121949523D01*
X131392857Y-122044761D02*
X131392857Y-120044761D01*
X131392857Y-121949523D02*
X131250000Y-122044761D01*
X130964285Y-122044761D01*
X130821428Y-121949523D01*
X130750000Y-121854285D01*
X130678571Y-121663809D01*
X130678571Y-121092380D01*
X130750000Y-120901904D01*
X130821428Y-120806666D01*
X130964285Y-120711428D01*
X131250000Y-120711428D01*
X131392857Y-120806666D01*
X132750000Y-122044761D02*
X132750000Y-120997142D01*
X132678571Y-120806666D01*
X132535714Y-120711428D01*
X132250000Y-120711428D01*
X132107142Y-120806666D01*
X132750000Y-121949523D02*
X132607142Y-122044761D01*
X132250000Y-122044761D01*
X132107142Y-121949523D01*
X132035714Y-121759047D01*
X132035714Y-121568571D01*
X132107142Y-121378095D01*
X132250000Y-121282857D01*
X132607142Y-121282857D01*
X132750000Y-121187619D01*
X133250000Y-120711428D02*
X133821428Y-120711428D01*
X133464285Y-120044761D02*
X133464285Y-121759047D01*
X133535714Y-121949523D01*
X133678571Y-122044761D01*
X133821428Y-122044761D01*
X134892857Y-121949523D02*
X134750000Y-122044761D01*
X134464285Y-122044761D01*
X134321428Y-121949523D01*
X134250000Y-121759047D01*
X134250000Y-120997142D01*
X134321428Y-120806666D01*
X134464285Y-120711428D01*
X134750000Y-120711428D01*
X134892857Y-120806666D01*
X134964285Y-120997142D01*
X134964285Y-121187619D01*
X134250000Y-121378095D01*
X116928571Y-124217142D02*
X117428571Y-124217142D01*
X117642857Y-125264761D02*
X116928571Y-125264761D01*
X116928571Y-123264761D01*
X117642857Y-123264761D01*
X118142857Y-125264761D02*
X118928571Y-123931428D01*
X118142857Y-123931428D02*
X118928571Y-125264761D01*
X119285714Y-123931428D02*
X119857142Y-123931428D01*
X119500000Y-123264761D02*
X119500000Y-124979047D01*
X119571428Y-125169523D01*
X119714285Y-125264761D01*
X119857142Y-125264761D01*
X120928571Y-125169523D02*
X120785714Y-125264761D01*
X120500000Y-125264761D01*
X120357142Y-125169523D01*
X120285714Y-124979047D01*
X120285714Y-124217142D01*
X120357142Y-124026666D01*
X120500000Y-123931428D01*
X120785714Y-123931428D01*
X120928571Y-124026666D01*
X121000000Y-124217142D01*
X121000000Y-124407619D01*
X120285714Y-124598095D01*
X121642857Y-123931428D02*
X121642857Y-125264761D01*
X121642857Y-124121904D02*
X121714285Y-124026666D01*
X121857142Y-123931428D01*
X122071428Y-123931428D01*
X122214285Y-124026666D01*
X122285714Y-124217142D01*
X122285714Y-125264761D01*
X122928571Y-125169523D02*
X123071428Y-125264761D01*
X123357142Y-125264761D01*
X123500000Y-125169523D01*
X123571428Y-124979047D01*
X123571428Y-124883809D01*
X123500000Y-124693333D01*
X123357142Y-124598095D01*
X123142857Y-124598095D01*
X123000000Y-124502857D01*
X122928571Y-124312380D01*
X122928571Y-124217142D01*
X123000000Y-124026666D01*
X123142857Y-123931428D01*
X123357142Y-123931428D01*
X123500000Y-124026666D01*
X124214285Y-125264761D02*
X124214285Y-123931428D01*
X124214285Y-123264761D02*
X124142857Y-123360000D01*
X124214285Y-123455238D01*
X124285714Y-123360000D01*
X124214285Y-123264761D01*
X124214285Y-123455238D01*
X125142857Y-125264761D02*
X125000000Y-125169523D01*
X124928571Y-125074285D01*
X124857142Y-124883809D01*
X124857142Y-124312380D01*
X124928571Y-124121904D01*
X125000000Y-124026666D01*
X125142857Y-123931428D01*
X125357142Y-123931428D01*
X125500000Y-124026666D01*
X125571428Y-124121904D01*
X125642857Y-124312380D01*
X125642857Y-124883809D01*
X125571428Y-125074285D01*
X125500000Y-125169523D01*
X125357142Y-125264761D01*
X125142857Y-125264761D01*
X126285714Y-123931428D02*
X126285714Y-125264761D01*
X126285714Y-124121904D02*
X126357142Y-124026666D01*
X126500000Y-123931428D01*
X126714285Y-123931428D01*
X126857142Y-124026666D01*
X126928571Y-124217142D01*
X126928571Y-125264761D01*
X129285714Y-124217142D02*
X129500000Y-124312380D01*
X129571428Y-124407619D01*
X129642857Y-124598095D01*
X129642857Y-124883809D01*
X129571428Y-125074285D01*
X129500000Y-125169523D01*
X129357142Y-125264761D01*
X128785714Y-125264761D01*
X128785714Y-123264761D01*
X129285714Y-123264761D01*
X129428571Y-123360000D01*
X129500000Y-123455238D01*
X129571428Y-123645714D01*
X129571428Y-123836190D01*
X129500000Y-124026666D01*
X129428571Y-124121904D01*
X129285714Y-124217142D01*
X128785714Y-124217142D01*
X130500000Y-125264761D02*
X130357142Y-125169523D01*
X130285714Y-125074285D01*
X130214285Y-124883809D01*
X130214285Y-124312380D01*
X130285714Y-124121904D01*
X130357142Y-124026666D01*
X130500000Y-123931428D01*
X130714285Y-123931428D01*
X130857142Y-124026666D01*
X130928571Y-124121904D01*
X131000000Y-124312380D01*
X131000000Y-124883809D01*
X130928571Y-125074285D01*
X130857142Y-125169523D01*
X130714285Y-125264761D01*
X130500000Y-125264761D01*
X132285714Y-125264761D02*
X132285714Y-124217142D01*
X132214285Y-124026666D01*
X132071428Y-123931428D01*
X131785714Y-123931428D01*
X131642857Y-124026666D01*
X132285714Y-125169523D02*
X132142857Y-125264761D01*
X131785714Y-125264761D01*
X131642857Y-125169523D01*
X131571428Y-124979047D01*
X131571428Y-124788571D01*
X131642857Y-124598095D01*
X131785714Y-124502857D01*
X132142857Y-124502857D01*
X132285714Y-124407619D01*
X132999999Y-125264761D02*
X132999999Y-123931428D01*
X132999999Y-124312380D02*
X133071428Y-124121904D01*
X133142857Y-124026666D01*
X133285714Y-123931428D01*
X133428571Y-123931428D01*
X134571428Y-125264761D02*
X134571428Y-123264761D01*
X134571428Y-125169523D02*
X134428571Y-125264761D01*
X134142857Y-125264761D01*
X134000000Y-125169523D01*
X133928571Y-125074285D01*
X133857142Y-124883809D01*
X133857142Y-124312380D01*
X133928571Y-124121904D01*
X134000000Y-124026666D01*
X134142857Y-123931428D01*
X134428571Y-123931428D01*
X134571428Y-124026666D01*
D11*
X101170000Y-125200000D02*
X103830000Y-125200000D01*
X101170000Y-117520000D02*
X101170000Y-125200000D01*
X103830000Y-117520000D02*
X103830000Y-125200000D01*
X101170000Y-117520000D02*
X103830000Y-117520000D01*
X101170000Y-116250000D02*
X101170000Y-114920000D01*
X101170000Y-114920000D02*
X102500000Y-114920000D01*
X131950000Y-99330000D02*
X131950000Y-96670000D01*
X124270000Y-99330000D02*
X131950000Y-99330000D01*
X124270000Y-96670000D02*
X131950000Y-96670000D01*
X124270000Y-99330000D02*
X124270000Y-96670000D01*
X123000000Y-99330000D02*
X121670000Y-99330000D01*
X121670000Y-99330000D02*
X121670000Y-98000000D01*
X103990000Y-97140000D02*
X110110000Y-97140000D01*
X110110000Y-97140000D02*
X110110000Y-100760000D01*
X103990000Y-100760000D02*
X103990000Y-97140000D01*
X110110000Y-100760000D02*
X103990000Y-100760000D01*
X103830000Y-140330000D02*
X102500000Y-140330000D01*
X103830000Y-139000000D02*
X103830000Y-140330000D01*
X103830000Y-137730000D02*
X101170000Y-137730000D01*
X101170000Y-137730000D02*
X101170000Y-127510000D01*
X103830000Y-137730000D02*
X103830000Y-127510000D01*
X103830000Y-127510000D02*
X101170000Y-127510000D01*
X101170000Y-104170000D02*
X102500000Y-104170000D01*
X101170000Y-105500000D02*
X101170000Y-104170000D01*
X101170000Y-106770000D02*
X103830000Y-106770000D01*
X103830000Y-106770000D02*
X103830000Y-111910000D01*
X101170000Y-106770000D02*
X101170000Y-111910000D01*
X101170000Y-111910000D02*
X103830000Y-111910000D01*
X142330000Y-96670000D02*
X142330000Y-98000000D01*
X141000000Y-96670000D02*
X142330000Y-96670000D01*
X139730000Y-96670000D02*
X139730000Y-99330000D01*
X139730000Y-99330000D02*
X134590000Y-99330000D01*
X139730000Y-96670000D02*
X134590000Y-96670000D01*
X134590000Y-96670000D02*
X134590000Y-99330000D01*
X114670000Y-96670000D02*
X116000000Y-96670000D01*
X114670000Y-98000000D02*
X114670000Y-96670000D01*
X114670000Y-99270000D02*
X117330000Y-99270000D01*
X117330000Y-99270000D02*
X117330000Y-101870000D01*
X114670000Y-99270000D02*
X114670000Y-101870000D01*
X114670000Y-101870000D02*
X117330000Y-101870000D01*
X138760000Y-142000000D02*
X138760000Y-143330000D01*
X138760000Y-143330000D02*
X138000000Y-143330000D01*
X137365000Y-143330000D02*
X110635000Y-143330000D01*
X110635000Y-142307530D02*
X110635000Y-143330000D01*
X110635000Y-140670000D02*
X110635000Y-141692470D01*
X137365000Y-140670000D02*
X110635000Y-140670000D01*
X137365000Y-142760000D02*
X137365000Y-143330000D01*
X137365000Y-140670000D02*
X137365000Y-141240000D01*
X138760000Y-108000000D02*
X138760000Y-109330000D01*
X138760000Y-109330000D02*
X138000000Y-109330000D01*
X137365000Y-109330000D02*
X110635000Y-109330000D01*
X110635000Y-108307530D02*
X110635000Y-109330000D01*
X110635000Y-106670000D02*
X110635000Y-107692470D01*
X137365000Y-106670000D02*
X110635000Y-106670000D01*
X137365000Y-108760000D02*
X137365000Y-109330000D01*
X137365000Y-106670000D02*
X137365000Y-107240000D01*
D10*
X120122380Y-98333333D02*
X120836666Y-98333333D01*
X120979523Y-98380952D01*
X121074761Y-98476190D01*
X121122380Y-98619047D01*
X121122380Y-98714285D01*
X121122380Y-97333333D02*
X121122380Y-97904761D01*
X121122380Y-97619047D02*
X120122380Y-97619047D01*
X120265238Y-97714285D01*
X120360476Y-97809523D01*
X120408095Y-97904761D01*
M02*
